<?xml version="1.0" encoding="UTF-8" standalone="no"?>
<svg width="62px" height="53px" viewBox="0 0 62 53" version="1.1" xmlns="http://www.w3.org/2000/svg" xmlns:xlink="http://www.w3.org/1999/xlink">
    <defs></defs>
    <g id="Page-1" stroke="none" stroke-width="1" fill="none" fill-rule="evenodd">
        <g id="category-icons" transform="translate(-130.000000, -598.000000)" stroke="#CC5555">
            <g id="active-filters" transform="translate(131.000000, 599.000000)">
                <path d="M15.3319939,19.7560976 L5.49999999,19.7560975" id="Path" stroke-width="1.5" stroke-linecap="square"></path>
                <path d="M15.3319939,32.2560976 L5.49999999,32.2560975" id="Path-2" stroke-width="1.5" stroke-linecap="square"></path>
                <path d="M15.4757921,41.25 L15.4757921,10.7621951 L43.4581385,26.0060976 L15.4757921,41.25 Z" id="Path" stroke-width="1.5" stroke-linecap="square"></path>
                <path d="M31.7599631,5.25406504 L31.7599631,19.4999995" id="Path" stroke-width="1.5" stroke-linecap="square"></path>
                <path d="M31.7599631,32.754065 L31.7599631,45.879065" id="Path-2" stroke-width="1.5" stroke-linecap="square"></path>
                <ellipse id="Oval" stroke-width="1.5" stroke-linecap="square" cx="31.3829787" cy="2.5" rx="2.5106383" ry="2.5"></ellipse>
                <ellipse id="Oval-2" stroke-width="1.5" stroke-linecap="square" cx="31.7829726" cy="48.3000031" rx="2.5106383" ry="2.5"></ellipse>
                <ellipse id="Oval-3" stroke-width="1.5" stroke-linecap="square" cx="57.4893617" cy="26.25" rx="2.5106383" ry="2.5"></ellipse>
                <ellipse id="Oval-4" stroke-width="1.5" stroke-linecap="square" cx="2.5106383" cy="32.5" rx="2.5106383" ry="2.5"></ellipse>
                <ellipse id="Oval-5" stroke-width="1.5" stroke-linecap="square" cx="2.5106383" cy="20" rx="2.5106383" ry="2.5"></ellipse>
                <path d="M19.5,18.5 L19.5,29.5769231" id="Line" stroke-linecap="square"></path>
                <path d="M19.5,30.5 L28.6666667,30.5" id="Line" stroke-linecap="square"></path>
                <path d="M19.8276367,18.7045898 L21.5102539,18.7045898 L21.5102539,20.0068359 L22.8505859,20.0068359 L22.8125,21.5644531 L24.1962891,21.434082 L24.5053711,22.8183594 L25.699707,23.5888672 L25.699707,24.8427734 C25.699707,24.8427734 26.4451497,25.3277995 26.8178711,25.5703125 L27.3334961,27.1884766 L28.6586914,27.5791016 L28.6586914,29.0009766 L29.1743164,30.5102539" id="Path-186"></path>
                <path d="M54.4999998,26.0060975 L43.5737894,26.0060976" id="Path" stroke-width="1.5" stroke-linecap="square"></path>
            </g>
        </g>
    </g>
</svg>