<?xml version="1.0" encoding="UTF-8" standalone="no"?>
<svg width="49px" height="43px" viewBox="0 0 49 43" version="1.1" xmlns="http://www.w3.org/2000/svg" xmlns:xlink="http://www.w3.org/1999/xlink">
    <defs></defs>
    <g id="Page-1" stroke="none" stroke-width="1" fill="none" fill-rule="evenodd" stroke-linecap="square">
        <g id="category-icons" transform="translate(-928.000000, -451.000000)" stroke="#CC5555" stroke-width="1.5">
            <g id="amplifier-circuits" transform="translate(929.000000, 452.000000)">
                <path d="M12.2136223,15.804878 L4.50000001,15.804878" id="Path"></path>
                <path d="M12.2136223,25.804878 L4.50000001,25.804878" id="Path-2"></path>
                <path d="M12.3281734,33 L12.3281734,8.6097561 L34.619195,20.804878 L12.3281734,33 Z" id="Path"></path>
                <path d="M25.3003096,4.20325203 L25.3003096,15.0169378" id="Path"></path>
                <path d="M25.3003096,26.203252 L25.3003096,36.703252" id="Path-2"></path>
                <circle id="Oval" cx="25.1999969" cy="2" r="2"></circle>
                <path d="M27.3000031,38.6999969 C27.3000031,37.5954274 26.4045726,36.6999969 25.3000031,36.6999969 C24.1954336,36.6999969 23.3000031,37.5954274 23.3000031,38.6999969 C23.3000031,39.8045664 24.1954336,40.6999969 25.3000031,40.6999969 C26.4045726,40.6999969 27.3000031,39.8045664 27.3000031,38.6999969 Z" id="Oval-2"></path>
                <circle id="Oval-3" cx="45" cy="21" r="2"></circle>
                <circle id="Oval-4" cx="2" cy="26" r="2"></circle>
                <circle id="Oval-5" cx="2" cy="16" r="2"></circle>
                <path d="M43,20.804878 L34.7113238,20.804878" id="Path"></path>
            </g>
        </g>
    </g>
</svg>