<?xml version="1.0" encoding="UTF-8" standalone="no"?>
<svg width="48px" height="52px" viewBox="0 0 48 52" version="1.1" xmlns="http://www.w3.org/2000/svg" xmlns:xlink="http://www.w3.org/1999/xlink">
    <defs></defs>
    <g id="Page-1" stroke="none" stroke-width="1" fill="none" fill-rule="evenodd">
        <g id="category-icons" transform="translate(-400.000000, -138.000000)">
            <g id="analog-integration" transform="translate(401.000000, 139.000000)">
                <rect id="Rectangle-45" stroke="#CC5555" stroke-width="1.5" x="10" y="10" width="26" height="30"></rect>
                <path d="M16.75,10.5 L16.75,0.5" id="Line" stroke="#CC5555" stroke-width="1.5" stroke-linecap="square"></path>
                <path d="M29.75,10.5 L29.75,0.5" id="Line-2" stroke="#CC5555" stroke-width="1.5" stroke-linecap="square"></path>
                <path d="M10.5,25.75 L0.5,25.75" id="Line" stroke="#CC5555" stroke-width="1.5" stroke-linecap="square"></path>
                <path d="M45.5,25.75 L35.5,25.75" id="Line-2" stroke="#CC5555" stroke-width="1.5" stroke-linecap="square"></path>
                <path d="M10.5,33.75 L0.5,33.75" id="Line-2" stroke="#CC5555" stroke-width="1.5" stroke-linecap="square"></path>
                <path d="M10.5,16.75 L0.5,16.75" id="Line-3" stroke="#CC5555" stroke-width="1.5" stroke-linecap="square"></path>
                <path d="M16.75,49.5 L16.75,39.5" id="Line-2" stroke="#CC5555" stroke-width="1.5" stroke-linecap="square"></path>
                <path d="M29.75,49.5 L29.75,39.5" id="Line-3" stroke="#CC5555" stroke-width="1.5" stroke-linecap="square"></path>
                <path d="M14.4443359,27.1591797 L15.8115234,27.0175781 C15.8505861,27.3268245 15.9661449,27.5717764 16.1582031,27.7524414 C16.3502614,27.9331064 16.5716133,28.0234375 16.8222656,28.0234375 C17.1087254,28.0234375 17.351236,27.907065 17.5498047,27.6743164 C17.7483734,27.4415678 17.8476562,27.0908227 17.8476562,26.6220703 C17.8476562,26.182615 17.7491872,25.8530284 17.5522461,25.6333008 C17.355305,25.4135731 17.0989599,25.3037109 16.7832031,25.3037109 C16.3893209,25.3037109 16.0361344,25.4778628 15.7236328,25.8261719 L14.6103516,25.6650391 L15.3134766,21.9394531 L18.9414062,21.9394531 L18.9414062,23.2236328 L16.3535156,23.2236328 L16.1386719,24.4394531 C16.444663,24.2864576 16.7571599,24.2099609 17.0761719,24.2099609 C17.6848989,24.2099609 18.2008442,24.4313129 18.6240234,24.8740234 C19.0472026,25.316734 19.2587891,25.8912725 19.2587891,26.5976562 C19.2587891,27.1868519 19.0878923,27.7125628 18.7460938,28.1748047 C18.2805966,28.8063183 17.6344442,29.1220703 16.8076172,29.1220703 C16.1468066,29.1220703 15.608075,28.9446632 15.1914062,28.5898438 C14.7747375,28.2350243 14.5257166,27.758141 14.4443359,27.1591797 L14.4443359,27.1591797 Z M20.0058594,27.1591797 L21.3730469,27.0175781 C21.4121096,27.3268245 21.5276683,27.5717764 21.7197266,27.7524414 C21.9117848,27.9331064 22.1331368,28.0234375 22.3837891,28.0234375 C22.6702488,28.0234375 22.9127594,27.907065 23.1113281,27.6743164 C23.3098968,27.4415678 23.4091797,27.0908227 23.4091797,26.6220703 C23.4091797,26.182615 23.3107106,25.8530284 23.1137695,25.6333008 C22.9168284,25.4135731 22.6604833,25.3037109 22.3447266,25.3037109 C21.9508444,25.3037109 21.5976578,25.4778628 21.2851562,25.8261719 L20.171875,25.6650391 L20.875,21.9394531 L24.5029297,21.9394531 L24.5029297,23.2236328 L21.9150391,23.2236328 L21.7001953,24.4394531 C22.0061864,24.2864576 22.3186833,24.2099609 22.6376953,24.2099609 C23.2464223,24.2099609 23.7623677,24.4313129 24.1855469,24.8740234 C24.6087261,25.316734 24.8203125,25.8912725 24.8203125,26.5976562 C24.8203125,27.1868519 24.6494158,27.7125628 24.3076172,28.1748047 C23.8421201,28.8063183 23.1959677,29.1220703 22.3691406,29.1220703 C21.70833,29.1220703 21.1695984,28.9446632 20.7529297,28.5898438 C20.3362609,28.2350243 20.08724,27.758141 20.0058594,27.1591797 L20.0058594,27.1591797 Z M25.5673828,27.1591797 L26.9345703,27.0175781 C26.973633,27.3268245 27.0891917,27.5717764 27.28125,27.7524414 C27.4733083,27.9331064 27.6946602,28.0234375 27.9453125,28.0234375 C28.2317723,28.0234375 28.4742829,27.907065 28.6728516,27.6743164 C28.8714203,27.4415678 28.9707031,27.0908227 28.9707031,26.6220703 C28.9707031,26.182615 28.8722341,25.8530284 28.675293,25.6333008 C28.4783519,25.4135731 28.2220068,25.3037109 27.90625,25.3037109 C27.5123678,25.3037109 27.1591812,25.4778628 26.8466797,25.8261719 L25.7333984,25.6650391 L26.4365234,21.9394531 L30.0644531,21.9394531 L30.0644531,23.2236328 L27.4765625,23.2236328 L27.2617188,24.4394531 C27.5677099,24.2864576 27.8802067,24.2099609 28.1992188,24.2099609 C28.8079458,24.2099609 29.3238911,24.4313129 29.7470703,24.8740234 C30.1702495,25.316734 30.3818359,25.8912725 30.3818359,26.5976562 C30.3818359,27.1868519 30.2109392,27.7125628 29.8691406,28.1748047 C29.4036435,28.8063183 28.7574911,29.1220703 27.9306641,29.1220703 C27.2698535,29.1220703 26.7311219,28.9446632 26.3144531,28.5898438 C25.8977844,28.2350243 25.6487634,27.758141 25.5673828,27.1591797 L25.5673828,27.1591797 Z" id="555" fill="#CC5555"></path>
            </g>
        </g>
    </g>
</svg>