<?xml version="1.0" encoding="UTF-8" standalone="no"?>
<svg width="60px" height="60px" viewBox="0 0 60 60" version="1.1" xmlns="http://www.w3.org/2000/svg" xmlns:xlink="http://www.w3.org/1999/xlink" xmlns:sketch="http://www.bohemiancoding.com/sketch/ns">
    <!-- Generator: Sketch 3.2 (9961) - http://www.bohemiancoding.com/sketch -->
    <title>analog integration</title>
    <desc>Created with Sketch.</desc>
    <defs></defs>
    <g id="Page-1" stroke="none" stroke-width="1" fill="none" fill-rule="evenodd" sketch:type="MSPage">
        <g id="analog-integration" sketch:type="MSLayerGroup" transform="translate(2.000000, 0.000000)">
            <rect id="Rectangle-45" stroke="#CC5555" stroke-width="2" sketch:type="MSShapeGroup" x="12.173913" y="12" width="31.6521739" height="36"></rect>
            <path d="M20,12.6 L20,0.6" id="Line" stroke="#CC5555" stroke-width="2" sketch:type="MSShapeGroup"></path>
            <path d="M36,12.6 L36,0.6" id="Line-2" stroke="#CC5555" stroke-width="2" sketch:type="MSShapeGroup"></path>
            <path d="M12.7826087,30 L0.608695652,30" id="Line" stroke="#CC5555" stroke-width="2" sketch:type="MSShapeGroup"></path>
            <path d="M55.3913043,30 L43.2173913,30" id="Line-2" stroke="#CC5555" stroke-width="2" sketch:type="MSShapeGroup"></path>
            <path d="M12.7826087,40 L0.608695652,40" id="Line-2" stroke="#CC5555" stroke-width="2" sketch:type="MSShapeGroup"></path>
            <path d="M12.7826087,20 L0.608695652,20" id="Line-3" stroke="#CC5555" stroke-width="2" sketch:type="MSShapeGroup"></path>
            <path d="M20,59.4 L20,47.4" id="Line-2" stroke="#CC5555" stroke-width="2" sketch:type="MSShapeGroup"></path>
            <path d="M36,59.4 L36,47.4" id="Line-3" stroke="#CC5555" stroke-width="2" sketch:type="MSShapeGroup"></path>
            <path d="M17.5844089,32.5910156 L19.2488111,32.4210938 C19.2963657,32.7921894 19.437046,33.0861317 19.670856,33.3029297 C19.9046661,33.5197277 20.174138,33.6281249 20.4792798,33.6281249 C20.8280135,33.6281249 21.1232438,33.488478 21.3649796,33.2091797 C21.6067154,32.9298814 21.7275814,32.5089873 21.7275814,31.9464844 C21.7275814,31.419138 21.6077062,31.0236341 21.3679518,30.7599609 C21.1281974,30.4962878 20.8161251,30.3644531 20.4317255,30.3644531 C19.9522168,30.3644531 19.5222506,30.5734354 19.1418138,30.9914062 L17.786515,30.7980469 L18.6424933,26.3273438 L23.0591032,26.3273438 L23.0591032,27.8683594 L19.9086277,27.8683594 L19.6470788,29.3273438 C20.0195898,29.1437492 20.4000208,29.0519531 20.7883832,29.0519531 C21.5294421,29.0519531 22.1575494,29.3175755 22.6727242,29.8488281 C23.1878988,30.3800808 23.4454824,31.0695269 23.4454824,31.9171874 C23.4454824,32.6242222 23.2374341,33.2550754 22.8213316,33.8097656 C22.2546394,34.567582 21.468019,34.9464844 20.461447,34.9464844 C19.6569819,34.9464844 19.0011348,34.7335959 18.4938858,34.3078126 C17.9866369,33.8820292 17.683481,33.3097692 17.5844089,32.5910156 L17.5844089,32.5910156 L17.5844089,32.5910156 Z M24.3549593,32.5910156 L26.0193615,32.4210938 C26.066916,32.7921894 26.2075962,33.0861317 26.4414063,33.3029297 C26.6752162,33.5197277 26.9446882,33.6281249 27.2498302,33.6281249 C27.5985638,33.6281249 27.8937941,33.488478 28.1355299,33.2091797 C28.3772657,32.9298814 28.4981318,32.5089873 28.4981318,31.9464844 C28.4981318,31.419138 28.3782564,31.0236341 28.1385021,30.7599609 C27.8987476,30.4962878 27.5866753,30.3644531 27.2022758,30.3644531 C26.7227671,30.3644531 26.2928008,30.5734354 25.9123641,30.9914062 L24.5570652,30.7980469 L25.4130434,26.3273438 L29.8296536,26.3273438 L29.8296536,27.8683594 L26.679178,27.8683594 L26.4176291,29.3273438 C26.79014,29.1437492 27.170571,29.0519531 27.5589334,29.0519531 C28.2999924,29.0519531 28.9280998,29.3175755 29.4432745,29.8488281 C29.9584492,30.3800808 30.2160326,31.0695269 30.2160326,31.9171874 C30.2160326,32.6242222 30.0079845,33.2550754 29.5918818,33.8097656 C29.0251897,34.567582 28.2385694,34.9464844 27.2319973,34.9464844 C26.4275322,34.9464844 25.771685,34.7335959 25.2644361,34.3078126 C24.7571872,33.8820292 24.4540313,33.3097692 24.3549593,32.5910156 L24.3549593,32.5910156 L24.3549593,32.5910156 Z M31.1255095,32.5910156 L32.7899116,32.4210938 C32.8374662,32.7921894 32.9781464,33.0861317 33.2119566,33.3029297 C33.4457666,33.5197277 33.7152385,33.6281249 34.0203804,33.6281249 C34.3691141,33.6281249 34.6643443,33.488478 34.9060802,33.2091797 C35.147816,32.9298814 35.268682,32.5089873 35.268682,31.9464844 C35.268682,31.419138 35.1488068,31.0236341 34.9090523,30.7599609 C34.669298,30.4962878 34.3572257,30.3644531 33.9728261,30.3644531 C33.4933174,30.3644531 33.063351,30.5734354 32.6829144,30.9914062 L31.3276154,30.7980469 L32.1835937,26.3273438 L36.6002038,26.3273438 L36.6002038,27.8683594 L33.4497283,27.8683594 L33.1881794,29.3273438 C33.5606903,29.1437492 33.9411211,29.0519531 34.3294838,29.0519531 C35.0705427,29.0519531 35.69865,29.3175755 36.2138247,29.8488281 C36.7289994,30.3800808 36.9865828,31.0695269 36.9865828,31.9171874 C36.9865828,32.6242222 36.7785346,33.2550754 36.362432,33.8097656 C35.7957399,34.567582 35.0091195,34.9464844 34.0025475,34.9464844 C33.1980825,34.9464844 32.5422353,34.7335959 32.0349864,34.3078126 C31.5277375,33.8820292 31.2245815,33.3097692 31.1255095,32.5910156 L31.1255095,32.5910156 L31.1255095,32.5910156 Z" id="555" fill="#CC5555" sketch:type="MSShapeGroup"></path>
        </g>
    </g>
</svg>