<?xml version="1.0" encoding="UTF-8" standalone="no"?>
<svg width="54px" height="15px" viewBox="0 0 54 15" version="1.1" xmlns="http://www.w3.org/2000/svg" xmlns:xlink="http://www.w3.org/1999/xlink">
    <defs></defs>
    <g id="Page-1" stroke="none" stroke-width="1" fill="none" fill-rule="evenodd">
        <g id="category-icons" transform="translate(-661.000000, -466.000000)">
            <g id="circuit-protection" transform="translate(662.000000, 463.000000)">
                <path d="M39.4482759,10.7586207 C39.4482759,14.7198354 36.2370768,17.9310345 32.2758621,17.9310345 C28.3146473,17.9310345 25.1034483,14.7198354 25.1034483,10.7586207 L26.8965517,10.7586207 C26.8965517,13.7295318 29.304951,16.137931 32.2758621,16.137931 C35.2467731,16.137931 37.6551724,13.7295318 37.6551724,10.7586207 L39.4482759,10.7586207 Z" id="Oval-71" fill="#CC5555"></path>
                <path d="M26.8965517,10.7586207 C26.8965517,6.79740593 23.6853527,3.5862069 19.7241379,3.5862069 C15.7629232,3.5862069 12.5517241,6.79740593 12.5517241,10.7586207 L14.3448276,10.7586207 C14.3448276,7.78770962 16.7532269,5.37931034 19.7241379,5.37931034 C22.695049,5.37931034 25.1034483,7.78770962 25.1034483,10.7586207 L26.8965517,10.7586207 Z" id="Oval-72" fill="#CC5555"></path>
                <path d="M13.5000003,10.7586207 L0.448275862,10.7586207" id="Line" stroke="#CC5555" stroke-width="1.79310345" stroke-linecap="square"></path>
                <path d="M51.5517241,10.7586207 L38.5,10.7586207" id="Line-2" stroke="#CC5555" stroke-width="1.79310345" stroke-linecap="square"></path>
            </g>
        </g>
    </g>
</svg>