<?xml version="1.0" encoding="UTF-8" standalone="no"?>
<svg width="56px" height="32px" viewBox="0 0 56 32" version="1.1" xmlns="http://www.w3.org/2000/svg" xmlns:xlink="http://www.w3.org/1999/xlink">
    <defs></defs>
    <g id="Page-1" stroke="none" stroke-width="1" fill="none" fill-rule="evenodd">
        <g id="category-icons" transform="translate(-131.000000, -457.000000)">
            <g id="ad/da-converters" transform="translate(132.000000, 457.000000)">
                <path d="M20,0 L0,15 L20,30 L54,30 L54,0 L20,0 Z" id="Rectangle-62" stroke="#CC5555" stroke-width="1.5"></path>
                <path d="M30.4643555,18 L29.0493164,18 L28.4868164,16.5366211 L25.9116211,16.5366211 L25.3798828,18 L24,18 L26.5092773,11.5576172 L27.8847656,11.5576172 L30.4643555,18 Z M28.0693359,15.4511719 L27.1816406,13.0605469 L26.3115234,15.4511719 L28.0693359,15.4511719 Z M31.1499023,11.5576172 L33.5273438,11.5576172 C34.0634792,11.5576172 34.4721666,11.5986324 34.753418,11.6806641 C35.1313495,11.7919927 35.4550768,11.9897447 35.7246094,12.2739258 C35.994142,12.5581069 36.199218,12.9060038 36.3398438,13.317627 C36.4804695,13.7292501 36.5507812,14.2368134 36.5507812,14.840332 C36.5507812,15.3706081 36.4848639,15.8276348 36.3530273,16.2114258 C36.1918937,16.6801781 35.9619156,17.0595689 35.6630859,17.3496094 C35.4374989,17.569337 35.1328144,17.740722 34.7490234,17.8637695 C34.4619126,17.9545903 34.0781274,18 33.5976562,18 L31.1499023,18 L31.1499023,11.5576172 Z M32.4506836,12.6474609 L32.4506836,16.9145508 L33.421875,16.9145508 C33.7851581,16.9145508 34.0473625,16.8940432 34.2084961,16.8530273 C34.4194346,16.8002927 34.5944817,16.7109381 34.7336426,16.5849609 C34.8728034,16.4589837 34.9863277,16.2517104 35.0742188,15.9631348 C35.1621098,15.6745591 35.2060547,15.2812525 35.2060547,14.7832031 C35.2060547,14.2851538 35.1621098,13.9028334 35.0742188,13.6362305 C34.9863277,13.3696276 34.863282,13.1616218 34.7050781,13.012207 C34.5468742,12.8627922 34.3461926,12.761719 34.1030273,12.7089844 C33.9213858,12.6679685 33.5654323,12.6474609 33.0351562,12.6474609 L32.4506836,12.6474609 Z M41.7758789,15.6313477 L43.0371094,16.03125 C42.843749,16.7343785 42.522219,17.2565901 42.0725098,17.5979004 C41.6228005,17.9392107 41.0522496,18.1098633 40.3608398,18.1098633 C39.5053668,18.1098633 38.8022488,17.8176299 38.2514648,17.2331543 C37.7006808,16.6486787 37.425293,15.8496144 37.425293,14.8359375 C37.425293,13.7636665 37.7021457,12.9309112 38.2558594,12.3376465 C38.8095731,11.7443818 39.5375931,11.4477539 40.4399414,11.4477539 C41.2280313,11.4477539 41.8681616,11.6806617 42.3603516,12.1464844 C42.6533218,12.4218764 42.8730461,12.8173802 43.0195312,13.3330078 L41.7319336,13.640625 C41.6557613,13.306639 41.4968274,13.0429697 41.255127,12.8496094 C41.0134265,12.656249 40.7197283,12.5595703 40.3740234,12.5595703 C39.896482,12.5595703 39.5090347,12.7309553 39.2116699,13.0737305 C38.9143052,13.4165056 38.765625,13.9716758 38.765625,14.7392578 C38.765625,15.553715 38.9121079,16.1337873 39.2050781,16.4794922 C39.4980483,16.825197 39.8789039,16.9980469 40.3476562,16.9980469 C40.6933611,16.9980469 40.9907214,16.8881847 41.2397461,16.668457 C41.4887708,16.4487294 41.6674799,16.1030297 41.7758789,15.6313477 L41.7758789,15.6313477 Z" id="ADC" fill="#CC5555"></path>
            </g>
        </g>
    </g>
</svg>