<?xml version="1.0" encoding="UTF-8" standalone="no"?>
<svg width="51px" height="52px" viewBox="0 0 51 52" version="1.1" xmlns="http://www.w3.org/2000/svg" xmlns:xlink="http://www.w3.org/1999/xlink">
    <defs></defs>
    <g id="Page-1" stroke="none" stroke-width="1" fill="none" fill-rule="evenodd">
        <g id="category-icons" transform="translate(-794.000000, -449.000000)" stroke="#CC5555">
            <g id="drives-and-interfaces" transform="translate(796.000000, 449.000000)">
                <rect id="Rectangle-62" stroke-width="1.5" x="3" y="0" width="40" height="50"></rect>
                <path d="M-0.314453125,6.546875 L17.3764133,6.546875 L17.3764133,16.757232 L34.0192155,16.757232 L34.0192155,36.8749827 L18.5880324,36.8749827 L18.5880324,26.4531206 L-0.251953125,26.4531206" id="Path-183"></path>
                <path d="M-0.44140625,39.9121094 L19.1909441,39.9121094 L19.1909441,32.2734367 L32.6464844,32.2734367 L46.7277657,32.2734367" id="Path-184"></path>
                <path d="M-0.03125,16.4023438 L20.1171875,16.4023438 L20.1171875,9.34570312 L47.6476655,9.34570312" id="Path-185"></path>
                <path d="M17,43 L17,37 L23,40 L17,43 Z" id="Triangle-1" fill="#CC5555"></path>
                <path d="M25,20 L25,14 L31,17 L25,20 Z" id="Triangle-2" fill="#CC5555" transform="translate(28.000000, 17.000000) rotate(-180.000000) translate(-28.000000, -17.000000) "></path>
                <path d="M29.3632813,8.89453125 L29.3632813,36.5394514" id="Path-186"></path>
            </g>
        </g>
    </g>
</svg>