<?xml version="1.0" encoding="UTF-8" standalone="no"?>
<svg width="50px" height="36px" viewBox="0 0 50 36" version="1.1" xmlns="http://www.w3.org/2000/svg" xmlns:xlink="http://www.w3.org/1999/xlink">
    <defs></defs>
    <g id="Page-1" stroke="none" stroke-width="1" fill="none" fill-rule="evenodd">
        <g id="category-icons" transform="translate(-532.000000, -146.000000)">
            <g id="memory" transform="translate(534.000000, 146.000000)">
                <rect id="Rectangle-62" stroke="#CC5555" stroke-width="1.5" x="10" y="0" width="26" height="34"></rect>
                <g id="Group" transform="translate(35.000000, 5.000000)" stroke="#CC5555" stroke-width="1.5" stroke-linecap="square">
                    <path d="M0.5,0.75 L10.5,0.75" id="Line"></path>
                    <path d="M0.5,5.75 L10.5,5.75" id="Line-2"></path>
                    <path d="M0.5,10.75 L10.5,10.75" id="Line-3"></path>
                    <path d="M0.5,15.75 L10.5,15.75" id="Line-4"></path>
                    <path d="M0.5,20.75 L10.5,20.75" id="Line-5"></path>
                </g>
                <g id="Group-2" transform="translate(0.000000, 5.000000)" stroke="#CC5555" stroke-width="1.5" stroke-linecap="square">
                    <path d="M0.5,0.75 L10.5,0.75" id="Line"></path>
                    <path d="M0.5,5.75 L10.5,5.75" id="Line-2"></path>
                    <path d="M0.5,10.75 L10.5,10.75" id="Line-3"></path>
                    <path d="M0.5,15.75 L10.5,15.75" id="Line-4"></path>
                    <path d="M0.5,20.75 L10.5,20.75" id="Line-5"></path>
                </g>
                <path d="M15.8037109,20 L15.8037109,18.7036133 L13.1669922,18.7036133 L13.1669922,17.6225586 L15.9619141,13.53125 L16.9990234,13.53125 L16.9990234,17.6181641 L17.7988281,17.6181641 L17.7988281,18.7036133 L16.9990234,18.7036133 L16.9990234,20 L15.8037109,20 Z M15.8037109,17.6181641 L15.8037109,15.4165039 L14.3227539,17.6181641 L15.8037109,17.6181641 Z M20.0630664,20 L20.0630664,13.5576172 L22.0098437,13.5576172 L23.178789,17.9521484 L24.3345507,13.5576172 L26.2857226,13.5576172 L26.2857226,20 L25.0772265,20 L25.0772265,14.9287109 L23.7984179,20 L22.5459765,20 L21.2715625,14.9287109 L21.2715625,20 L20.0630664,20 Z M27.0421093,13.5576172 L29.6173046,13.5576172 C30.1270728,13.5576172 30.5071959,13.5788572 30.7576855,13.6213379 C31.008175,13.6638186 31.2322939,13.7524407 31.4300488,13.887207 C31.6278037,14.0219733 31.7925969,14.2014149 31.9244335,14.4255371 C32.0562701,14.6496593 32.1221874,14.9008775 32.1221874,15.1791992 C32.1221874,15.4809585 32.0408894,15.7578112 31.878291,16.0097656 C31.7156925,16.26172 31.4952357,16.450683 31.216914,16.5766602 C31.6094941,16.6909185 31.9112489,16.8857408 32.1221874,17.1611328 C32.333126,17.4365248 32.4385937,17.760252 32.4385937,18.1323242 C32.4385937,18.4252944 32.3704791,18.7102037 32.234248,18.9870605 C32.0980168,19.2639174 31.9119835,19.4851066 31.6761425,19.6506348 C31.4403015,19.8161629 31.1495329,19.9179686 30.8038281,19.9560547 C30.5870301,19.9794923 30.0640861,19.9941406 29.2349804,20 L27.0421093,20 L27.0421093,13.5576172 Z M28.3428906,14.6298828 L28.3428906,16.1196289 L29.1954296,16.1196289 C29.7022681,16.1196289 30.0172064,16.1123048 30.1402538,16.0976562 C30.3629112,16.0712889 30.5379583,15.9943854 30.6654003,15.8669434 C30.7928424,15.7395013 30.8565624,15.5717784 30.8565624,15.3637695 C30.8565624,15.1645498 30.8016313,15.0026862 30.6917675,14.8781738 C30.5819037,14.7536615 30.4185752,14.6782228 30.2017773,14.6518555 C30.0728704,14.637207 29.7022686,14.6298828 29.0899609,14.6298828 L28.3428906,14.6298828 Z M28.3428906,17.1918945 L28.3428906,18.9145508 L29.5469921,18.9145508 C30.0157445,18.9145508 30.3131048,18.9013673 30.439082,18.875 C30.6324423,18.8398436 30.7899114,18.7541511 30.9114941,18.6179199 C31.0330767,18.4816888 31.0938671,18.2993175 31.0938671,18.0708008 C31.0938671,17.8774404 31.0469926,17.7133796 30.9532421,17.5786133 C30.8594917,17.443847 30.723995,17.3457034 30.546748,17.2841797 C30.369501,17.2226559 29.9849834,17.1918945 29.3931835,17.1918945 L28.3428906,17.1918945 Z" id="4-MB" fill="#CC5555"></path>
            </g>
        </g>
    </g>
</svg>