<?xml version="1.0" encoding="UTF-8" standalone="no"?>
<svg width="60px" height="60px" viewBox="0 0 60 60" version="1.1" xmlns="http://www.w3.org/2000/svg" xmlns:xlink="http://www.w3.org/1999/xlink" xmlns:sketch="http://www.bohemiancoding.com/sketch/ns">
    <!-- Generator: Sketch 3.2 (9961) - http://www.bohemiancoding.com/sketch -->
    <title>memory</title>
    <desc>Created with Sketch.</desc>
    <defs></defs>
    <g id="Page-1" stroke="none" stroke-width="1" fill="none" fill-rule="evenodd" sketch:type="MSPage">
        <g id="memory" sketch:type="MSLayerGroup" transform="translate(1.000000, 9.000000)">
            <rect id="Rectangle-62" stroke="#CC5555" stroke-width="2" sketch:type="MSShapeGroup" x="12.6086957" y="0" width="32.7826087" height="43"></rect>
            <path d="M44.7608696,9 L57.3695652,9" id="Line" stroke="#CC5555" stroke-width="2" sketch:type="MSShapeGroup"></path>
            <path d="M44.7608696,15 L57.3695652,15" id="Line-2" stroke="#CC5555" stroke-width="2" sketch:type="MSShapeGroup"></path>
            <path d="M44.7608696,21 L57.3695652,21" id="Line-3" stroke="#CC5555" stroke-width="2" sketch:type="MSShapeGroup"></path>
            <path d="M44.7608696,27 L57.3695652,27" id="Line-4" stroke="#CC5555" stroke-width="2" sketch:type="MSShapeGroup"></path>
            <path d="M44.7608696,33 L57.3695652,33" id="Line-5" stroke="#CC5555" stroke-width="2" sketch:type="MSShapeGroup"></path>
            <path d="M0.630434783,9 L13.2391304,9" id="Line" stroke="#CC5555" stroke-width="2" sketch:type="MSShapeGroup"></path>
            <path d="M0.630434783,15 L13.2391304,15" id="Line-2" stroke="#CC5555" stroke-width="2" sketch:type="MSShapeGroup"></path>
            <path d="M0.630434783,21 L13.2391304,21" id="Line-3" stroke="#CC5555" stroke-width="2" sketch:type="MSShapeGroup"></path>
            <path d="M0.630434783,27 L13.2391304,27" id="Line-4" stroke="#CC5555" stroke-width="2" sketch:type="MSShapeGroup"></path>
            <path d="M0.630434783,33 L13.2391304,33" id="Line-5" stroke="#CC5555" stroke-width="2" sketch:type="MSShapeGroup"></path>
            <path d="M19.9264181,25.2941176 L19.9264181,23.6545698 L16.6018597,23.6545698 L16.6018597,22.2873535 L20.1258917,17.1130515 L21.4335512,17.1130515 L21.4335512,22.2817958 L22.4420006,22.2817958 L22.4420006,23.6545698 L21.4335512,23.6545698 L21.4335512,25.2941176 L19.9264181,25.2941176 L19.9264181,25.2941176 Z M19.9264181,22.2817958 L19.9264181,19.4973432 L18.0591245,22.2817958 L19.9264181,22.2817958 L19.9264181,22.2817958 Z M25.2969098,25.2941176 L25.2969098,17.1463982 L27.7515421,17.1463982 L29.2254296,22.7041877 L30.6826944,17.1463982 L33.1428676,17.1463982 L33.1428676,25.2941176 L31.6191117,25.2941176 L31.6191117,18.8804285 L30.0067008,25.2941176 L28.4275356,25.2941176 L26.8206658,18.8804285 L26.8206658,25.2941176 L25.2969098,25.2941176 L25.2969098,25.2941176 Z M34.0965726,17.1463982 L37.343558,17.1463982 C37.9863092,17.1463982 38.4655948,17.1732606 38.7814295,17.2269862 C39.0972641,17.2807118 39.3798488,17.3927926 39.629192,17.5632324 C39.8785351,17.7336721 40.0863178,17.960613 40.2525466,18.2440616 C40.4187753,18.5275103 40.5018885,18.8452274 40.5018885,19.1972225 C40.5018885,19.5788593 40.3993823,19.9289965 40.1943669,20.2476447 C39.9893514,20.5662929 39.7113841,20.8052756 39.3604568,20.9645997 C39.8554491,21.1091028 40.2359225,21.3554957 40.5018885,21.7037856 C40.7678545,22.0520755 40.9008355,22.4614952 40.9008355,22.9320571 C40.9008355,23.3025782 40.8149519,23.6629047 40.6431823,24.0130471 C40.4714125,24.3631897 40.2368488,24.6429289 39.939484,24.8522734 C39.6421193,25.0616178 39.275498,25.1903721 38.8396093,25.2385398 C38.5662553,25.2681814 37.9068912,25.2867072 36.861497,25.2941176 L34.0965726,25.2941176 L34.0965726,17.1463982 L34.0965726,17.1463982 Z M35.7366881,18.5024988 L35.7366881,20.3865895 L36.8116286,20.3865895 C37.4506859,20.3865895 37.847782,20.3773267 38.0029287,20.3588005 C38.2836706,20.3254536 38.5043822,20.2281933 38.6650699,20.0670167 C38.8257578,19.9058399 38.9061004,19.6937197 38.9061004,19.4306497 C38.9061004,19.1786953 38.8368395,18.9739855 38.6983155,18.8165139 C38.5597916,18.6590425 38.3538557,18.5636347 38.0805018,18.5302878 C37.917967,18.5117618 37.4506865,18.5024988 36.6786464,18.5024988 L35.7366881,18.5024988 L35.7366881,18.5024988 Z M35.7366881,21.7426901 L35.7366881,23.9213437 L37.2549031,23.9213437 C37.8459387,23.9213437 38.2208713,23.9046704 38.3797121,23.8713235 C38.6235142,23.826861 38.8220622,23.7184852 38.9753621,23.5461928 C39.1286619,23.3739005 39.2053107,23.1432545 39.2053107,22.8542481 C39.2053107,22.609704 39.1462081,22.4022154 39.0280009,22.2317756 C38.9097939,22.0613359 38.7389502,21.9372131 38.5154649,21.8594037 C38.2919795,21.7815942 37.807153,21.7426901 37.0609705,21.7426901 L35.7366881,21.7426901 L35.7366881,21.7426901 Z" id="4-MB" fill="#CC5555" sketch:type="MSShapeGroup"></path>
        </g>
    </g>
</svg>