<?xml version="1.0" encoding="UTF-8" standalone="no"?>
<svg width="60px" height="60px" viewBox="0 0 60 60" version="1.1" xmlns="http://www.w3.org/2000/svg" xmlns:xlink="http://www.w3.org/1999/xlink" xmlns:sketch="http://www.bohemiancoding.com/sketch/ns">
    <!-- Generator: Sketch 3.2 (9961) - http://www.bohemiancoding.com/sketch -->
    <title>microcontrollers</title>
    <desc>Created with Sketch.</desc>
    <defs></defs>
    <g id="Page-1" stroke="none" stroke-width="1" fill="none" fill-rule="evenodd" sketch:type="MSPage">
        <g id="microcontrollers" sketch:type="MSLayerGroup" transform="translate(1.000000, 1.000000)" fill="#CC5555">
            <path d="M15.4052752,12.4731395 C13.5706173,12.4731395 12.0833333,13.9618966 12.0833333,15.7728161 L12.0833333,42.3227975 C12.0833333,44.1451586 13.5821362,45.6224741 15.4052752,45.6224741 L42.1344074,45.6224741 C43.9690652,45.6224741 45.4563492,44.133717 45.4563492,42.3227975 L45.4563492,15.7728161 C45.4563492,13.950455 43.9575464,12.4731395 42.1344074,12.4731395 L15.4052752,12.4731395 L15.4052752,12.4731395 Z M25.4293716,22.4179399 C23.5879804,22.4179399 22.0952381,23.8876262 22.0952381,25.7297265 L22.0952381,32.3658871 C22.0952381,34.1949365 23.5748414,35.6776737 25.4293716,35.6776737 L32.110311,35.6776737 C33.9517022,35.6776737 35.4444444,34.2079874 35.4444444,32.3658871 L35.4444444,25.7297265 C35.4444444,23.9006771 33.9648411,22.4179399 32.110311,22.4179399 L25.4293716,22.4179399 L25.4293716,22.4179399 Z M17.9236111,20.7604731 C19.3059666,20.7604731 20.4265873,19.6473634 20.4265873,18.274273 C20.4265873,16.9011827 19.3059666,15.7880729 17.9236111,15.7880729 C16.5412556,15.7880729 15.4206349,16.9011827 15.4206349,18.274273 C15.4206349,19.6473634 16.5412556,20.7604731 17.9236111,20.7604731 L17.9236111,20.7604731 Z M47.9262834,20.2548053 C47.1341856,20.2548053 46.4920635,20.7660483 46.4920635,21.4066042 C46.4920635,22.0427252 47.1437526,22.5584032 47.9262834,22.5584032 L56.5657801,22.5584032 C57.3578779,22.5584032 58,22.0471602 58,21.4066042 C58,20.7704833 57.3483109,20.2548053 56.5657801,20.2548053 L47.9262834,20.2548053 L47.9262834,20.2548053 Z M47.9262834,25.2272055 C47.1341856,25.2272055 46.4920635,25.7384485 46.4920635,26.3790044 C46.4920635,27.0151254 47.1437526,27.5308034 47.9262834,27.5308034 L56.5657801,27.5308034 C57.3578779,27.5308034 58,27.0195604 58,26.3790044 C58,25.7428835 57.3483109,25.2272055 56.5657801,25.2272055 L47.9262834,25.2272055 L47.9262834,25.2272055 Z M47.9262834,30.1996057 C47.1341856,30.1996057 46.4920635,30.7108487 46.4920635,31.3514046 C46.4920635,31.9875256 47.1437526,32.5032035 47.9262834,32.5032035 L56.5657801,32.5032035 C57.3578779,32.5032035 58,31.9919606 58,31.3514046 C58,30.7152837 57.3483109,30.1996057 56.5657801,30.1996057 L47.9262834,30.1996057 L47.9262834,30.1996057 Z M47.9262834,35.1720059 C47.1341856,35.1720059 46.4920635,35.6832489 46.4920635,36.3238048 C46.4920635,36.9599257 47.1437526,37.4756037 47.9262834,37.4756037 L56.5657801,37.4756037 C57.3578779,37.4756037 58,36.9643608 58,36.3238048 C58,35.6876839 57.3483109,35.1720059 56.5657801,35.1720059 L47.9262834,35.1720059 L47.9262834,35.1720059 Z M1.43421994,20.2548053 C0.64212214,20.2548053 0,20.7660483 0,21.4066042 C0,22.0427252 0.651689134,22.5584032 1.43421994,22.5584032 L10.0737166,22.5584032 C10.8658144,22.5584032 11.5079365,22.0471602 11.5079365,21.4066042 C11.5079365,20.7704833 10.8562474,20.2548053 10.0737166,20.2548053 L1.43421994,20.2548053 L1.43421994,20.2548053 Z M1.43421994,25.2272055 C0.64212214,25.2272055 0,25.7384485 0,26.3790044 C0,27.0151254 0.651689134,27.5308034 1.43421994,27.5308034 L10.0737166,27.5308034 C10.8658144,27.5308034 11.5079365,27.0195604 11.5079365,26.3790044 C11.5079365,25.7428835 10.8562474,25.2272055 10.0737166,25.2272055 L1.43421994,25.2272055 L1.43421994,25.2272055 Z M1.43421994,35.1996057 C0.64212214,35.1996057 0,35.7108487 0,36.3514046 C0,36.9875256 0.651689134,37.5032035 1.43421994,37.5032035 L10.0737166,37.5032035 C10.8658144,37.5032035 11.5079365,36.9919606 11.5079365,36.3514046 C11.5079365,35.7152837 10.8562474,35.1996057 10.0737166,35.1996057 L1.43421994,35.1996057 L1.43421994,35.1996057 Z M1.43421994,30.1996057 C0.64212214,30.1996057 0,30.7108487 0,31.3514046 C0,31.9875256 0.651689134,32.5032035 1.43421994,32.5032035 L10.0737166,32.5032035 C10.8658144,32.5032035 11.5079365,31.9919606 11.5079365,31.3514046 C11.5079365,30.7152837 10.8562474,30.1996057 10.0737166,30.1996057 L1.43421994,30.1996057 L1.43421994,30.1996057 Z M20.4265873,10.3714913 C20.4265873,11.0046846 20.9373841,11.5179892 21.577381,11.5179892 L21.577381,11.5179892 C22.2129467,11.5179892 22.7281746,10.9931554 22.7281746,10.3714913 L22.7281746,1.14649784 C22.7281746,0.513304567 22.2173778,0 21.577381,0 L21.577381,0 C20.9418152,0 20.4265873,0.524833758 20.4265873,1.14649784 L20.4265873,10.3714913 Z M25.4325397,10.3714913 C25.4325397,11.0046846 25.9433365,11.5179892 26.5833333,11.5179892 L26.5833333,11.5179892 C27.2188991,11.5179892 27.734127,10.9931554 27.734127,10.3714913 L27.734127,1.14649784 C27.734127,0.513304567 27.2233302,0 26.5833333,0 L26.5833333,0 C25.9477675,0 25.4325397,0.524833758 25.4325397,1.14649784 L25.4325397,10.3714913 Z M30.4384921,10.3714913 C30.4384921,11.0046846 30.9492889,11.5179892 31.5892857,11.5179892 L31.5892857,11.5179892 C32.2248515,11.5179892 32.7400794,10.9931554 32.7400794,10.3714913 L32.7400794,1.14649784 C32.7400794,0.513304567 32.2292825,0 31.5892857,0 L31.5892857,0 C30.9537199,0 30.4384921,0.524833758 30.4384921,1.14649784 L30.4384921,10.3714913 Z M35.4444444,10.3714913 C35.4444444,11.0046846 35.9552413,11.5179892 36.5952381,11.5179892 L36.5952381,11.5179892 C37.2308039,11.5179892 37.7460317,10.9931554 37.7460317,10.3714913 L37.7460317,1.14649784 C37.7460317,0.513304567 37.2352349,0 36.5952381,0 L36.5952381,0 C35.9596723,0 35.4444444,0.524833758 35.4444444,1.14649784 L35.4444444,10.3714913 Z M20.4265873,56.8535022 C20.4265873,57.4866954 20.9373841,58 21.577381,58 L21.577381,58 C22.2129467,58 22.7281746,57.4751662 22.7281746,56.8535022 L22.7281746,47.6285087 C22.7281746,46.9953154 22.2173778,46.4820108 21.577381,46.4820108 L21.577381,46.4820108 C20.9418152,46.4820108 20.4265873,47.0068446 20.4265873,47.6285087 L20.4265873,56.8535022 Z M25.4325397,56.8535022 C25.4325397,57.4866954 25.9433365,58 26.5833333,58 L26.5833333,58 C27.2188991,58 27.734127,57.4751662 27.734127,56.8535022 L27.734127,47.6285087 C27.734127,46.9953154 27.2233302,46.4820108 26.5833333,46.4820108 L26.5833333,46.4820108 C25.9477675,46.4820108 25.4325397,47.0068446 25.4325397,47.6285087 L25.4325397,56.8535022 Z M30.4384921,56.8535022 C30.4384921,57.4866954 30.9492889,58 31.5892857,58 L31.5892857,58 C32.2248515,58 32.7400794,57.4751662 32.7400794,56.8535022 L32.7400794,47.6285087 C32.7400794,46.9953154 32.2292825,46.4820108 31.5892857,46.4820108 L31.5892857,46.4820108 C30.9537199,46.4820108 30.4384921,47.0068446 30.4384921,47.6285087 L30.4384921,56.8535022 Z M35.4444444,56.8535022 C35.4444444,57.4866954 35.9552413,58 36.5952381,58 L36.5952381,58 C37.2308039,58 37.7460317,57.4751662 37.7460317,56.8535022 L37.7460317,47.6285087 C37.7460317,46.9953154 37.2352349,46.4820108 36.5952381,46.4820108 L36.5952381,46.4820108 C35.9596723,46.4820108 35.4444444,47.0068446 35.4444444,47.6285087 L35.4444444,56.8535022 Z" id="Rectangle-28" sketch:type="MSShapeGroup"></path>
        </g>
    </g>
</svg>