<?xml version="1.0" encoding="UTF-8" standalone="no"?>
<svg width="40px" height="41px" viewBox="0 0 40 41" version="1.1" xmlns="http://www.w3.org/2000/svg" xmlns:xlink="http://www.w3.org/1999/xlink">
    <defs></defs>
    <g id="Page-1" stroke="none" stroke-width="1" fill="none" fill-rule="evenodd">
        <g id="category-icons" transform="translate(-8.000000, -301.000000)" fill="#CC5555">
            <g id="microcontrollers" transform="translate(8.000000, 301.000000)">
                <path d="M11.9907951,11 C10.8913093,11 10,11.8982124 10,12.9907951 L10,29.0092049 C10,30.1086907 10.8982124,31 11.9907951,31 L28.0092049,31 C29.1086907,31 30,30.1017876 30,29.0092049 L30,12.9907951 C30,11.8913093 29.1017876,11 28.0092049,11 L11.9907951,11 Z M17.9981014,17 C16.8945804,17 16,17.8867064 16,18.9981014 L16,23.0018986 C16,24.1054196 16.8867064,25 17.9981014,25 L22.0018986,25 C23.1054196,25 24,24.1132936 24,23.0018986 L24,18.9981014 C24,17.8945804 23.1132936,17 22.0018986,17 L17.9981014,17 Z M13.5,16 C14.3284271,16 15,15.3284271 15,14.5 C15,13.6715729 14.3284271,13 13.5,13 C12.6715729,13 12,13.6715729 12,14.5 C12,15.3284271 12.6715729,16 13.5,16 Z M32.9970301,15 C32.4463856,15 32,15.4438648 32,16 C32,16.5522847 32.4530363,17 32.9970301,17 L39.0029699,17 C39.5536144,17 40,16.5561352 40,16 C40,15.4477153 39.5469637,15 39.0029699,15 L32.9970301,15 Z M32.9970301,18 C32.4463856,18 32,18.4438648 32,19 C32,19.5522847 32.4530363,20 32.9970301,20 L39.0029699,20 C39.5536144,20 40,19.5561352 40,19 C40,18.4477153 39.5469637,18 39.0029699,18 L32.9970301,18 Z M32.9970301,21 C32.4463856,21 32,21.4438648 32,22 C32,22.5522847 32.4530363,23 32.9970301,23 L39.0029699,23 C39.5536144,23 40,22.5561352 40,22 C40,21.4477153 39.5469637,21 39.0029699,21 L32.9970301,21 Z M32.9970301,24 C32.4463856,24 32,24.4438648 32,25 C32,25.5522847 32.4530363,26 32.9970301,26 L39.0029699,26 C39.5536144,26 40,25.5561352 40,25 C40,24.4477153 39.5469637,24 39.0029699,24 L32.9970301,24 Z M0.997030139,15 C0.446385598,15 0,15.4438648 0,16 C0,16.5522847 0.453036308,17 0.997030139,17 L7.00296986,17 C7.5536144,17 8,16.5561352 8,16 C8,15.4477153 7.54696369,15 7.00296986,15 L0.997030139,15 Z M0.997030139,18 C0.446385598,18 0,18.4438648 0,19 C0,19.5522847 0.453036308,20 0.997030139,20 L7.00296986,20 C7.5536144,20 8,19.5561352 8,19 C8,18.4477153 7.54696369,18 7.00296986,18 L0.997030139,18 Z M0.997030139,21 C0.446385598,21 0,21.4438648 0,22 C0,22.5522847 0.453036308,23 0.997030139,23 L7.00296986,23 C7.5536144,23 8,22.5561352 8,22 C8,21.4477153 7.54696369,21 7.00296986,21 L0.997030139,21 Z M0.997030139,24 C0.446385598,24 0,24.4438648 0,25 C0,25.5522847 0.453036308,26 0.997030139,26 L7.00296986,26 C7.5536144,26 8,25.5561352 8,25 C8,24.4477153 7.54696369,24 7.00296986,24 L0.997030139,24 Z M15,0 L15,8 L17,8 L17,0 L15,0 Z M18,0 L18,8 L20,8 L20,0 L18,0 Z M21,0 L21,8 L23,8 L23,0 L21,0 Z M24,0 L24,8 L26,8 L26,0 L24,0 Z M15,33 L15,41 L17,41 L17,33 L15,33 Z M18,33 L18,41 L20,41 L20,33 L18,33 Z M21,33 L21,41 L23,41 L23,33 L21,33 Z M24,33 L24,41 L26,41 L26,33 L24,33 Z" id="Rectangle-28"></path>
            </g>
        </g>
    </g>
</svg>