<?xml version="1.0" encoding="UTF-8" standalone="no"?>
<svg width="42px" height="39px" viewBox="0 0 42 39" version="1.1" xmlns="http://www.w3.org/2000/svg" xmlns:xlink="http://www.w3.org/1999/xlink">
    <defs></defs>
    <g id="Page-1" stroke="none" stroke-width="1" fill="none" fill-rule="evenodd" stroke-linecap="square">
        <g id="category-icons" transform="translate(-140.000000, -147.000000)" stroke="#CC5555" stroke-width="1.5">
            <g id="optoelectronics" transform="translate(141.000000, 150.000000)">
                <g id="Line-+-Line-49" transform="translate(15.625000, 0.000000)">
                    <path d="M0.3125,11.2264151 L5.11098869,0.00871491032" id="Line"></path>
                    <path id="Line-decoration-1" d="M3.54269148,11.3029853 C4.06393951,7.41464364 4.51072353,4.0817794 5.03197155,0.193437785 C2.5799525,3.25587188 0.47822188,5.88081538 -1.97379717,8.94324948"></path>
                    <path d="M5.3125,13.7924528 L10.5897025,2.7393929" id="Line-49"></path>
                    <path id="Line-49-decoration-1" d="M8.53678963,14.0021106 C9.21787712,10.1385604 9.8016664,6.82694603 10.4827539,2.96339587 C7.90658143,5.9221516 5.69843361,8.45822793 3.12226115,11.4169837"></path>
                </g>
                <path d="M39.9862939,23.3603313 L30.6112939,23.3603313 M9.12425826,23.3603313 L-0.250741744,23.3603313 M9.65702399,34 L9.65702399,12.7206627 L28.8133707,23.3603313 L9.65702399,34 Z M29.3987036,12.3660071 L29.3987036,33.7501687" id="Diode-Icon-6"></path>
            </g>
        </g>
    </g>
</svg>