<?xml version="1.0" encoding="UTF-8" standalone="no"?>
<svg width="46px" height="41px" viewBox="0 0 46 41" version="1.1" xmlns="http://www.w3.org/2000/svg" xmlns:xlink="http://www.w3.org/1999/xlink">
    <defs></defs>
    <g id="Page-1" stroke="none" stroke-width="1" fill="none" fill-rule="evenodd">
        <g id="category-icons" transform="translate(-401.000000, -453.000000)">
            <g id="programmable-logic" transform="translate(402.000000, 453.000000)">
                <rect id="Rectangle-62" stroke="#CC5555" stroke-width="1.5" x="0" y="0" width="44" height="39"></rect>
                <g id="Group" transform="translate(4.000000, 4.000000)" stroke="#CC5555">
                    <circle id="Oval-44" cx="1.5" cy="1.5" r="1.5"></circle>
                    <circle id="Oval-45" cx="9.5" cy="1.5" r="1.5"></circle>
                    <circle id="Oval-46" cx="17.5" cy="1.5" r="1.5"></circle>
                    <circle id="Oval-47" cx="25.5" cy="1.5" r="1.5"></circle>
                    <circle id="Oval-48" cx="34.5" cy="1.5" r="1.5"></circle>
                </g>
                <g id="Group-2" transform="translate(4.000000, 32.000000)" stroke="#CC5555">
                    <circle id="Oval-44" cx="1.5" cy="1.5" r="1.5"></circle>
                    <circle id="Oval-45" cx="9.5" cy="1.5" r="1.5"></circle>
                    <circle id="Oval-46" cx="17.5" cy="1.5" r="1.5"></circle>
                    <circle id="Oval-47" cx="25.5" cy="1.5" r="1.5"></circle>
                    <circle id="Oval-48" cx="34.5" cy="1.5" r="1.5"></circle>
                </g>
                <g id="Group-3" transform="translate(38.500000, 19.500000) rotate(-90.000000) translate(-38.500000, -19.500000) translate(30.000000, 18.000000)" stroke="#CC5555">
                    <circle id="Oval-46" cx="1.5" cy="1.5" r="1.5"></circle>
                    <circle id="Oval-47" cx="8.5" cy="1.5" r="1.5"></circle>
                    <circle id="Oval-48" cx="15.5" cy="1.5" r="1.5"></circle>
                </g>
                <g id="Group-4" transform="translate(5.500000, 19.500000) rotate(-90.000000) translate(-5.500000, -19.500000) translate(-3.000000, 18.000000)" stroke="#CC5555">
                    <circle id="Oval-46" cx="1.5" cy="1.5" r="1.5"></circle>
                    <circle id="Oval-47" cx="8.5" cy="1.5" r="1.5"></circle>
                    <circle id="Oval-48" cx="15.5" cy="1.5" r="1.5"></circle>
                </g>
                <path d="M10.6635742,23 L10.6635742,16.5576172 L15.0800781,16.5576172 L15.0800781,17.6474609 L11.9643555,17.6474609 L11.9643555,19.1723633 L14.6538086,19.1723633 L14.6538086,20.262207 L11.9643555,20.262207 L11.9643555,23 L10.6635742,23 Z M16.1523438,23 L16.1523438,16.5576172 L18.2397461,16.5576172 C19.0307657,16.5576172 19.5463855,16.5898434 19.7866211,16.6542969 C20.1557636,16.750977 20.4648425,16.96118 20.7138672,17.2849121 C20.9628919,17.6086442 21.0874023,18.0268529 21.0874023,18.5395508 C21.0874023,18.9350606 21.0156257,19.2675768 20.8720703,19.5371094 C20.7285149,19.806642 20.5461437,20.0183098 20.3249512,20.1721191 C20.1037587,20.3259285 19.8789074,20.4277341 19.6503906,20.4775391 C19.3398422,20.5390628 18.8901397,20.5698242 18.3012695,20.5698242 L17.453125,20.5698242 L17.453125,23 L16.1523438,23 Z M17.453125,17.6474609 L17.453125,19.4755859 L18.1650391,19.4755859 C18.6777369,19.4755859 19.0205069,19.4418949 19.1933594,19.3745117 C19.3662118,19.3071286 19.5017085,19.2016609 19.5998535,19.0581055 C19.6979985,18.9145501 19.7470703,18.7475595 19.7470703,18.5571289 C19.7470703,18.3227527 19.6782233,18.1293953 19.5405273,17.9770508 C19.4028313,17.8247063 19.2285167,17.7294924 19.0175781,17.6914062 C18.8623039,17.6621092 18.5502953,17.6474609 18.081543,17.6474609 L17.453125,17.6474609 Z M25.1523438,20.6313477 L25.1523438,19.5458984 L27.9560547,19.5458984 L27.9560547,22.1123047 C27.6835924,22.3759779 27.2888209,22.6081533 26.7717285,22.8088379 C26.2546361,23.0095225 25.7309597,23.1098633 25.2006836,23.1098633 C24.5268521,23.1098633 23.9394556,22.9685073 23.4384766,22.685791 C22.9374975,22.4030748 22.5610364,21.9987819 22.309082,21.4729004 C22.0571276,20.9470189 21.9311523,20.3750031 21.9311523,19.7568359 C21.9311523,19.0859341 22.0717759,18.4897487 22.3530273,17.9682617 C22.6342788,17.4467747 23.0458957,17.0468764 23.5878906,16.7685547 C24.0009786,16.5546864 24.5151336,16.4477539 25.1303711,16.4477539 C25.9301798,16.4477539 26.5549294,16.6154768 27.0046387,16.9509277 C27.454348,17.2863786 27.7436517,17.749997 27.8725586,18.3417969 L26.5805664,18.5834961 C26.4897456,18.2670883 26.319093,18.0173349 26.0686035,17.8342285 C25.818114,17.6511221 25.505373,17.5595703 25.1303711,17.5595703 C24.5620089,17.5595703 24.1101091,17.7397443 23.7746582,18.1000977 C23.4392073,18.460451 23.2714844,18.9951136 23.2714844,19.7041016 C23.2714844,20.4687538 23.4414046,21.0422344 23.78125,21.4245605 C24.1210954,21.8068867 24.5664035,21.9980469 25.1171875,21.9980469 C25.3896498,21.9980469 25.6628404,21.9445806 25.9367676,21.8376465 C26.2106947,21.7307124 26.4457998,21.601075 26.6420898,21.4487305 L26.6420898,20.6313477 L25.1523438,20.6313477 Z M34.965332,23 L33.550293,23 L32.987793,21.5366211 L30.4125977,21.5366211 L29.8808594,23 L28.5009766,23 L31.0102539,16.5576172 L32.3857422,16.5576172 L34.965332,23 Z M32.5703125,20.4511719 L31.6826172,18.0605469 L30.8125,20.4511719 L32.5703125,20.4511719 Z" id="FPGA" fill="#CC5555"></path>
            </g>
        </g>
    </g>
</svg>