<?xml version="1.0" encoding="UTF-8" standalone="no"?>
<svg width="42px" height="40px" viewBox="0 0 42 40" version="1.1" xmlns="http://www.w3.org/2000/svg" xmlns:xlink="http://www.w3.org/1999/xlink">
    <defs></defs>
    <g id="Page-1" stroke="none" stroke-width="1" fill="none" fill-rule="evenodd">
        <g id="category-icons" transform="translate(-931.000000, -301.000000)" stroke="#CC5555" stroke-width="1.5">
            <g id="rc-network" transform="translate(933.000000, 301.000000)">
                <rect id="Rectangle-62" x="2" y="0" width="34" height="40"></rect>
                <path d="M-0.5,7.5 L10.5136719,7.5 L13.3476563,5.5 L16.2119141,9.5 L19.2402344,5.5 L22.3769531,9.5 L25.4462891,5.5 L28.2138672,7.5 L38.5243902,7.5" id="Line" stroke-linecap="square"></path>
                <path d="M-0.5,15.5 L10.5136719,15.5 L13.3476563,13.5 L16.2119141,17.5 L19.2402344,13.5 L22.3769531,17.5 L25.4462891,13.5 L28.2138672,15.5 L38.5243902,15.5" id="Line-2" stroke-linecap="square"></path>
                <path d="M-0.5,24.5 L10.5136719,24.5 L13.3476563,22.5 L16.2119141,26.5 L19.2402344,22.5 L22.3769531,26.5 L25.4462891,22.5 L28.2138672,24.5 L38.5243902,24.5" id="Line-3" stroke-linecap="square"></path>
                <path d="M-0.5,32.5 L10.5136719,32.5 L13.3476563,30.5 L16.2119141,34.5 L19.2402344,30.5 L22.3769531,34.5 L25.4462891,30.5 L28.2138672,32.5 L38.5243902,32.5" id="Line-4" stroke-linecap="square"></path>
            </g>
        </g>
    </g>
</svg>