<?xml version="1.0" encoding="UTF-8" standalone="no"?>
<svg width="62px" height="41px" viewBox="0 0 62 41" version="1.1" xmlns="http://www.w3.org/2000/svg" xmlns:xlink="http://www.w3.org/1999/xlink">
    <defs></defs>
    <g id="Page-1" stroke="none" stroke-width="1" fill="none" fill-rule="evenodd">
        <g id="category-icons" transform="translate(-789.000000, -301.000000)">
            <g id="regulator" transform="translate(790.000000, 301.000000)">
                <rect id="Rectangle-62" stroke="#CC5555" stroke-width="1.5" x="10" y="0" width="40" height="30"></rect>
                <path d="M49.5,8.75 L59.5,8.75" id="Line" stroke="#CC5555" stroke-width="1.5" stroke-linecap="square"></path>
                <path d="M28.75,29.5 L28.75,39.5" id="Line" stroke="#CC5555" stroke-width="1.5" stroke-linecap="square"></path>
                <path d="M0.5,8.75 L10.5,8.75" id="Line-2" stroke="#CC5555" stroke-width="1.5" stroke-linecap="square"></path>
                <path d="M25.4345703,24.4208984 L25.4345703,23.6972656 L27.3037109,23.6972656 L27.3037109,25.4082031 C27.1220694,25.5839853 26.8588884,25.7387689 26.5141602,25.8725586 C26.1694319,26.0063483 25.8203143,26.0732422 25.4667969,26.0732422 C25.0175759,26.0732422 24.6259782,25.9790048 24.2919922,25.7905273 C23.9580061,25.6020498 23.7070321,25.3325213 23.5390625,24.9819336 C23.3710929,24.6313459 23.2871094,24.2500021 23.2871094,23.8378906 C23.2871094,23.3906228 23.3808584,22.9931658 23.5683594,22.6455078 C23.7558603,22.2978498 24.0302716,22.0312509 24.3916016,21.8457031 C24.6669936,21.7031243 25.0097636,21.6318359 25.4199219,21.6318359 C25.9531277,21.6318359 26.3696274,21.7436512 26.6694336,21.9672852 C26.9692398,22.1909191 27.1621089,22.499998 27.2480469,22.8945312 L26.3867188,23.0556641 C26.3261716,22.8447255 26.2124032,22.6782233 26.0454102,22.5561523 C25.8784171,22.4340814 25.6699231,22.3730469 25.4199219,22.3730469 C25.0410137,22.3730469 24.7397472,22.4931629 24.5161133,22.7333984 C24.2924794,22.973634 24.1806641,23.3300758 24.1806641,23.8027344 C24.1806641,24.3125025 24.2939442,24.6948229 24.5205078,24.949707 C24.7470714,25.2045911 25.0439435,25.3320312 25.4111328,25.3320312 C25.5927743,25.3320312 25.7749014,25.2963871 25.9575195,25.2250977 C26.1401376,25.1538082 26.2968743,25.0673833 26.4277344,24.9658203 L26.4277344,24.4208984 L25.4345703,24.4208984 Z M28.1123047,26 L28.1123047,21.7050781 L28.9560547,21.7050781 L30.7138672,24.5732422 L30.7138672,21.7050781 L31.5195312,21.7050781 L31.5195312,26 L30.6494141,26 L28.9179688,23.1992188 L28.9179688,26 L28.1123047,26 Z M32.4335938,21.7050781 L34.0185547,21.7050781 C34.3759783,21.7050781 34.6484366,21.7324216 34.8359375,21.7871094 C35.0878919,21.8613285 35.30371,21.9931631 35.4833984,22.1826172 C35.6630868,22.3720713 35.7998042,22.6040025 35.8935547,22.878418 C35.9873052,23.1528334 36.0341797,23.4912089 36.0341797,23.8935547 C36.0341797,24.2470721 35.9902348,24.5517565 35.9023438,24.8076172 C35.7949213,25.1201187 35.6416026,25.3730459 35.4423828,25.5664062 C35.2919914,25.7128914 35.0888685,25.827148 34.8330078,25.9091797 C34.6416006,25.9697269 34.3857438,26 34.0654297,26 L32.4335938,26 L32.4335938,21.7050781 Z M33.3007812,22.4316406 L33.3007812,25.2763672 L33.9482422,25.2763672 C34.1904309,25.2763672 34.3652338,25.2626954 34.4726562,25.2353516 C34.613282,25.2001951 34.72998,25.1406254 34.8227539,25.0566406 C34.9155278,24.9726558 34.9912106,24.8344736 35.0498047,24.6420898 C35.1083987,24.4497061 35.1376953,24.1875017 35.1376953,23.8554688 C35.1376953,23.5234358 35.1083987,23.2685556 35.0498047,23.0908203 C34.9912106,22.913085 34.9091802,22.7744146 34.8037109,22.6748047 C34.6982417,22.5751948 34.5644539,22.5078127 34.4023438,22.4726562 C34.2812494,22.4453124 34.0439471,22.4316406 33.6904297,22.4316406 L33.3007812,22.4316406 Z" id="GND" fill="#CC5555"></path>
                <path d="M33.2607422,8.87890625 C33.2607422,8.44140406 33.3261712,8.07422023 33.4570312,7.77734375 C33.554688,7.55859266 33.6879874,7.36230556 33.8569336,7.18847656 C34.0258798,7.01464757 34.2109365,6.88574261 34.4121094,6.80175781 C34.6796888,6.688476 34.9882795,6.63183594 35.3378906,6.63183594 C35.9707063,6.63183594 36.4770489,6.82812304 36.8569336,7.22070312 C37.2368183,7.61328321 37.4267578,8.15917619 37.4267578,8.85839844 C37.4267578,9.55176128 37.2382831,10.0942363 36.8613281,10.4858398 C36.4843731,10.8774434 35.9804719,11.0732422 35.3496094,11.0732422 C34.7109343,11.0732422 34.2031269,10.8784199 33.8261719,10.4887695 C33.4492169,10.0991191 33.2607422,9.56250342 33.2607422,8.87890625 L33.2607422,8.87890625 Z M34.1542969,8.84960938 C34.1542969,9.33593993 34.2666004,9.70458859 34.4912109,9.95556641 C34.7158214,10.2065442 35.0009748,10.3320312 35.3466797,10.3320312 C35.6923845,10.3320312 35.9760731,10.2075208 36.1977539,9.95849609 C36.4194347,9.70947141 36.5302734,9.33593999 36.5302734,8.83789062 C36.5302734,8.34570066 36.4223644,7.97851684 36.206543,7.73632812 C35.9907216,7.49413941 35.7041033,7.37304688 35.3466797,7.37304688 C34.989256,7.37304688 34.701173,7.49560424 34.4824219,7.74072266 C34.2636708,7.98584107 34.1542969,8.35546628 34.1542969,8.84960938 L34.1542969,8.84960938 Z M38.0976562,6.70507812 L38.9648438,6.70507812 L38.9648438,9.03125 C38.9648438,9.40039247 38.9755858,9.63964789 38.9970703,9.74902344 C39.0341799,9.92480557 39.1225579,10.0659174 39.262207,10.1723633 C39.4018562,10.2788091 39.5927722,10.3320312 39.8349609,10.3320312 C40.0810559,10.3320312 40.2666009,10.2817388 40.3916016,10.1811523 C40.5166022,10.0805659 40.5917967,9.95703198 40.6171875,9.81054688 C40.6425783,9.66406177 40.6552734,9.42090014 40.6552734,9.08105469 L40.6552734,6.70507812 L41.5224609,6.70507812 L41.5224609,8.9609375 C41.5224609,9.47656508 41.4990237,9.84081925 41.4521484,10.0537109 C41.4052732,10.2666026 41.3188483,10.4462883 41.1928711,10.5927734 C41.0668939,10.7392585 40.8984386,10.8559566 40.6875,10.9428711 C40.4765614,11.0297856 40.2011736,11.0732422 39.8613281,11.0732422 C39.4511698,11.0732422 39.1401378,11.0258794 38.9282227,10.9311523 C38.7163075,10.8364253 38.5488287,10.7133797 38.4257812,10.5620117 C38.3027338,10.4106438 38.2216799,10.251954 38.1826172,10.0859375 C38.1259763,9.83984252 38.0976562,9.4765649 38.0976562,8.99609375 L38.0976562,6.70507812 Z M43.4033203,11 L43.4033203,7.43164062 L42.1289062,7.43164062 L42.1289062,6.70507812 L45.5419922,6.70507812 L45.5419922,7.43164062 L44.2705078,7.43164062 L44.2705078,11 L43.4033203,11 Z" id="OUT" fill="#CC5555"></path>
                <path d="M14.4101562,11 L14.4101562,6.70507812 L15.2773438,6.70507812 L15.2773438,11 L14.4101562,11 Z M16.1123047,11 L16.1123047,6.70507812 L16.9560547,6.70507812 L18.7138672,9.57324219 L18.7138672,6.70507812 L19.5195312,6.70507812 L19.5195312,11 L18.6494141,11 L16.9179688,8.19921875 L16.9179688,11 L16.1123047,11 Z" id="IN" fill="#CC5555"></path>
            </g>
        </g>
    </g>
</svg>