<?xml version="1.0" encoding="UTF-8" standalone="no"?>
<svg width="52px" height="35px" viewBox="0 0 52 35" version="1.1" xmlns="http://www.w3.org/2000/svg" xmlns:xlink="http://www.w3.org/1999/xlink">
    <defs></defs>
    <g id="Page-1" stroke="none" stroke-width="1" fill="none" fill-rule="evenodd">
        <g id="category-icons" transform="translate(-261.000000, -457.000000)" stroke="#CC5555" stroke-width="1.5">
            <g id="relays" transform="translate(263.000000, 458.000000)">
                <ellipse id="Oval-9" cx="34.6721311" cy="6.47058824" rx="1.86885246" ry="1.94117647"></ellipse>
                <ellipse id="Oval-10" cx="47.1311475" cy="6.47058824" rx="1.86885246" ry="1.94117647"></ellipse>
                <ellipse id="Oval-11" cx="40.9016393" cy="25.8823529" rx="1.86885246" ry="1.94117647"></ellipse>
                <path d="M41.2131148,23.6176471 L35,9" id="Line" stroke-linecap="square"></path>
                <path d="M40.75,28.7941176 L40.75,31.625" id="Line" stroke-linecap="square"></path>
                <path d="M34.75,1.61764706 L34.75,4.44852941" id="Line-61" stroke-linecap="square"></path>
                <path d="M46.75,1.61764706 L46.75,4.44852941" id="Line-62" stroke-linecap="square"></path>
                <rect id="Rectangle-52" x="11" y="7.11764706" width="12.4590164" height="19.4117647"></rect>
                <path d="M23.7704918,16.75 L38.0000002,17" id="Line" stroke-linecap="square" stroke-dasharray="3"></path>
                <path d="M11.9344262,25.5588235 L22.5245902,8.08823529" id="Line" stroke-linecap="square"></path>
                <path d="M-0.0655737705,13.5588235 L16.5245902,0.0882352941 M-0.0655737705,13.5588235 L11.5245902,26.0882353" id="Line-2" stroke-linecap="square"></path>
                <path d="M16.75,6.79411765 L16.5,0.5" id="Line" stroke-linecap="square"></path>
                <path d="M16.75,32.6764706 L16.75,26.1736099" id="Line-68" stroke-linecap="square"></path>
            </g>
        </g>
    </g>
</svg>