<?xml version="1.0" encoding="UTF-8" standalone="no"?>
<svg width="60px" height="60px" viewBox="0 0 60 60" version="1.1" xmlns="http://www.w3.org/2000/svg" xmlns:xlink="http://www.w3.org/1999/xlink" xmlns:sketch="http://www.bohemiancoding.com/sketch/ns">
    <!-- Generator: Sketch 3.2 (9961) - http://www.bohemiancoding.com/sketch -->
    <title>sensors</title>
    <desc>Created with Sketch.</desc>
    <defs></defs>
    <g id="Page-1" stroke="none" stroke-width="1" fill="none" fill-rule="evenodd" sketch:type="MSPage">
        <g id="sensors" sketch:type="MSLayerGroup" transform="translate(2.000000, 17.000000)">
            <ellipse id="Oval-42" stroke="#CC5555" stroke-width="2" sketch:type="MSShapeGroup" cx="25.6726391" cy="13.106383" rx="13.3363195" ry="13.106383"></ellipse>
            <path d="M12.7301232,10 L0.606196342,10" id="Line" stroke="#CC5555" stroke-width="2" sketch:type="MSShapeGroup"></path>
            <path d="M12.7301232,17 L0.606196342,17" id="Path" stroke="#CC5555" stroke-width="2" sketch:type="MSShapeGroup"></path>
            <path d="M50.3652856,6 L43,6" id="Line-2" stroke="#CC5555" stroke-width="2" sketch:type="MSShapeGroup"></path>
            <path d="M50.3652856,14 L43,14" id="Line-3" stroke="#CC5555" stroke-width="2" sketch:type="MSShapeGroup"></path>
            <path d="M50.3652856,22 L43,22" id="Line-4" stroke="#CC5555" stroke-width="2" sketch:type="MSShapeGroup"></path>
            <path d="M39,0.595744681 L39,25.6688252" id="Line" stroke="#CC5555" stroke-width="2" sketch:type="MSShapeGroup"></path>
            <path d="M22,8.93617021 L22,17.106383" id="Line" stroke="#CC5555" stroke-width="2" sketch:type="MSShapeGroup"></path>
            <rect id="Rectangle-45" fill="#CC5555" sketch:type="MSShapeGroup" x="24.4602464" y="9.53191489" width="2.42478536" height="7.14893617"></rect>
            <path d="M29,8.93617021 L29,17.106383" id="Line-2" stroke="#CC5555" stroke-width="2" sketch:type="MSShapeGroup"></path>
            <path d="M50,9 L50,3 L56.1052632,6 L50,9 L50,9 Z" id="Triangle-1" fill="#CC5555" sketch:type="MSShapeGroup"></path>
            <path d="M50,17 L50,11 L56.1052632,14 L50,17 L50,17 Z" id="Triangle-2" fill="#CC5555" sketch:type="MSShapeGroup"></path>
            <path d="M50,25 L50,19 L56.1052632,22 L50,25 L50,25 Z" id="Triangle-3" fill="#CC5555" sketch:type="MSShapeGroup"></path>
        </g>
    </g>
</svg>