<?xml version="1.0" encoding="UTF-8" standalone="no"?>
<svg width="41px" height="52px" viewBox="0 0 41 52" version="1.1" xmlns="http://www.w3.org/2000/svg" xmlns:xlink="http://www.w3.org/1999/xlink">
    <defs></defs>
    <g id="Page-1" stroke="none" stroke-width="1" fill="none" fill-rule="evenodd">
        <g id="category-icons" transform="translate(-139.000000, -295.000000)">
            <g id="transistors" transform="translate(140.000000, 296.000000)">
                <ellipse id="Oval-7" fill="#CC5555" cx="22.5730776" cy="18.2457409" rx="1.42692238" ry="1.2295082"></ellipse>
                <ellipse id="Oval-8" fill="#CC5555" cx="23.4220693" cy="31.12289" rx="1.23913043" ry="1.2295082"></ellipse>
                <path d="M11.8955478,31.12289 C11.8955478,30.4438514 11.3966407,29.8933818 10.7812076,29.8933818 C10.1657745,29.8933818 9.66686736,30.4438514 9.66686736,31.12289 C9.66686736,31.8019286 10.1657745,32.3523982 10.7812076,32.3523982 C11.3966407,32.3523982 11.8955478,31.8019286 11.8955478,31.12289 Z" id="Oval-13" fill="#CC5555"></path>
                <ellipse id="Oval-14" stroke="#CC5555" stroke-width="1.5" cx="1.11189235" cy="31.2730764" rx="1.35897954" ry="1.37969455"></ellipse>
                <path d="M24.122304,48.4519838 C24.1076416,47.546599 23.3089776,46.8126395 22.3384379,46.8126395 C21.3678982,46.8126395 20.5930066,47.546599 20.607669,48.4519838 C20.6223314,49.3573686 21.4209955,50.0913281 22.3915351,50.0913281 C23.3620748,50.0913281 24.1369664,49.3573686 24.122304,48.4519838 Z" id="Oval-15" stroke="#CC5555" stroke-width="1.5"></path>
                <ellipse id="Oval-16" stroke="#CC5555" stroke-width="1.5" cx="23.0090258" cy="1.3765453" rx="1.65217391" ry="1.63934426"></ellipse>
                <path d="M13.8369565,15.9666115 L13.8369565,19.2778784" id="Line" stroke="#CC5555" stroke-width="1.5" stroke-linecap="square"></path>
                <path d="M13.8369565,22.405186 L13.8369565,25.716453" id="Line-54" stroke="#CC5555" stroke-width="1.5" stroke-linecap="square"></path>
                <path d="M13.8369565,29.6634327 L13.8369565,32.9746996" id="Line-55" stroke="#CC5555" stroke-width="1.5" stroke-linecap="square"></path>
                <path d="M14.2555581,17.8278689 L32.3633724,17.8278689" id="Line" stroke="#CC5555" stroke-width="1.5" stroke-linecap="square"></path>
                <path d="M15.1943359,24.2582728 L22.5524345,24.2582728" id="Line-58" stroke="#CC5555" stroke-width="1.5" stroke-linecap="square"></path>
                <path id="Line-58-decoration-1" d="M22.5524345,27.2582728 C22.5524345,26.2082728 19.7743359,25.3082728 15.9943359,24.2582728 C19.7743359,23.2082728 22.5524345,22.3082728 22.5524345,21.2582728" stroke="#CC5555" stroke-width="1.5" stroke-linecap="square"></path>
                <path d="M14.2555581,30.942623 L32.3633724,30.942623" id="Line-56" stroke="#CC5555" stroke-width="1.5" stroke-linecap="square"></path>
                <path d="M2.4502813,30.8060109 L11.2984178,30.8060109" id="Line-73" stroke="#CC5555" stroke-width="1.5" stroke-linecap="square"></path>
                <path d="M32.0108696,18.607258 L32.0108696,30.6705124" id="Line" stroke="#CC5555" stroke-width="1.5" stroke-linecap="square"></path>
                <path d="M32.0108696,23.2248582 L32.0108696,29.4414129" id="Line-59" stroke="#CC5555" stroke-width="1.5" stroke-linecap="square"></path>
                <path id="Line-59-decoration-1" d="M29.0108696,29.4414129 C30.0608696,29.4414129 30.9608696,27.8048582 32.0108696,24.0248582 C33.0608696,27.8048582 33.9608696,29.4414129 35.0108696,29.4414129" stroke="#CC5555" stroke-width="1.5" stroke-linecap="square"></path>
                <path d="M22.6440927,25.0644509 L22.6440927,45.9040023" id="Line-57" stroke="#CC5555" stroke-width="1.5" stroke-linecap="square"></path>
                <path d="M22.6440927,4.00610953 L22.6440927,17.1283861" id="Line-71" stroke="#CC5555" stroke-width="1.5" stroke-linecap="square"></path>
                <path d="M11.2497072,16.7833528 L11.2497072,30.5811267" id="Line-72" stroke="#CC5555" stroke-width="1.5" stroke-linecap="square"></path>
                <ellipse id="Oval-12" stroke="#CC5555" stroke-width="1.5" cx="21.8397622" cy="25.4257995" rx="16.5273876" ry="16.5563345"></ellipse>
            </g>
        </g>
    </g>
</svg>