<?xml version="1.0" encoding="UTF-8" standalone="no"?>
<svg width="46px" height="43px" viewBox="0 0 46 43" version="1.1" xmlns="http://www.w3.org/2000/svg" xmlns:xlink="http://www.w3.org/1999/xlink">
    <defs></defs>
    <g id="Page-1" stroke="none" stroke-width="1" fill="none" fill-rule="evenodd">
        <g id="category-icons" transform="translate(-270.000000, -300.000000)" stroke="#CC5555" stroke-width="1.5">
            <g id="transformers" transform="translate(271.000000, 302.000000)">
                <path d="M20.9814815,8.28571429 L20.9814815,28.1935484" id="Line" stroke-linecap="square"></path>
                <path d="M23.4259259,8.28571429 L23.4259259,28.1935484" id="Line-69" stroke-linecap="square"></path>
                <g id="Group" transform="translate(3.300000, 1.142857)">
                    <path d="M11.2037037,0.857142857 L11.2037037,7.87618583" id="Line-76" stroke-linecap="square"></path>
                    <path d="M11.2037037,30.6034808 L11.2037037,37.1564626" id="Line-75" stroke-linecap="square"></path>
                    <path d="M0.825,0.625 L11.1802246,0.625" id="Line-77" stroke-linecap="square"></path>
                    <path d="M0.275,37.2916667 L11.1826662,37.2916667" id="Line-18" stroke-linecap="square"></path>
                    <g id="Group-2-+-Group" transform="translate(5.500000, 7.428571)">
                        <g id="Group-2" transform="translate(7.192196, 11.849702) rotate(-270.000000) translate(-7.192196, -11.849702) translate(-4.215212, 10.183036)" stroke-linecap="square">
                            <path d="M-0.1584,0.402930403 C-0.1584,3.83990575 4.46778105,4.01618781 4.46778105,0.402930403" id="Line" transform="translate(2.232450, 1.611722) rotate(-180.000000) translate(-2.232450, -1.611722) "></path>
                            <path d="M3.8654,0.402930403 C3.8654,3.83990575 8.49158105,4.01618781 8.49158105,0.402930403" id="Line-52" transform="translate(6.256250, 1.611722) rotate(-180.000000) translate(-6.256250, -1.611722) "></path>
                            <path d="M8.4392,0.134310134 C8.4392,3.57128549 13.0653811,3.74756754 13.0653811,0.134310134" id="Line-53" transform="translate(10.830050, 1.343101) rotate(-180.000000) translate(-10.830050, -1.343101) "></path>
                            <path d="M12.9767,0.134310134 C12.9767,3.57128549 17.6028811,3.74756754 17.6028811,0.134310134" id="Line-78" transform="translate(15.367550, 1.343101) rotate(-180.000000) translate(-15.367550, -1.343101) "></path>
                            <path d="M17.9267,0.134310134 C17.9267,3.57128549 22.5528811,3.74756754 22.5528811,0.134310134" id="Line-79" transform="translate(20.317550, 1.343101) rotate(-180.000000) translate(-20.317550, -1.343101) "></path>
                        </g>
                        <g id="Group" transform="translate(0.000000, 2.857143)">
                            <path d="M3.3,2.85714286 C5.12253967,2.85714286 6.6,1.42857143 6.6,1.42857143 C6.6,1.42857143 5.12253967,0 3.3,0 C1.47746033,0 0,0.639593215 0,1.42857143 C0,2.21754964 1.47746033,2.85714286 3.3,2.85714286 Z" id="Oval-15"></path>
                            <path d="M3.3,7.42857143 C5.12253967,7.42857143 6.6,6 6.6,6 C6.6,6 5.12253967,4.57142857 3.3,4.57142857 C1.47746033,4.57142857 0,5.21102179 0,6 C0,6.78897821 1.47746033,7.42857143 3.3,7.42857143 Z" id="Oval-17"></path>
                            <path d="M3.3,12 C5.12253967,12 6.6,10.5714286 6.6,10.5714286 C6.6,10.5714286 5.12253967,9.14285714 3.3,9.14285714 C1.47746033,9.14285714 0,9.78245036 0,10.5714286 C0,11.3604068 1.47746033,12 3.3,12 Z" id="Oval-18"></path>
                            <path d="M3.3,16.5714286 C5.12253967,16.5714286 6.6,15.1428571 6.6,15.1428571 C6.6,15.1428571 5.12253967,13.7142857 3.3,13.7142857 C1.47746033,13.7142857 0,14.3538789 0,15.1428571 C0,15.9318354 1.47746033,16.5714286 3.3,16.5714286 Z" id="Oval-19"></path>
                        </g>
                    </g>
                </g>
                <g id="Group">
                    <path d="M30.0400391,1.45507812 L30.0400391,8.20166016" id="Line-70" stroke-linecap="square"></path>
                    <path d="M30.2292481,31.2297363 L30.2292481,38.1291504" id="Line-74" stroke-linecap="square"></path>
                    <path d="M30.4775391,1.45833333 L40.525,1.45833333" id="Line" stroke-linecap="square"></path>
                    <ellipse id="Oval-23" cx="1.65" cy="1.71428571" rx="1.65" ry="1.71428571"></ellipse>
                    <ellipse id="Oval-24" cx="1.65" cy="38.2857143" rx="1.65" ry="1.71428571"></ellipse>
                    <ellipse id="Oval-25" cx="42.35" cy="38.2857143" rx="1.65" ry="1.71428571"></ellipse>
                    <path d="M42.35,3.06689455 C43.2612699,3.06689455 43.9406738,2.34350239 43.9406738,1.39672853 C43.9406738,0.449954678 43.2612699,-0.356689464 42.35,-0.356689464 C41.4387302,-0.356689464 40.7531738,0.449954633 40.7531738,1.39672849 C40.7531738,2.34350235 41.4387302,3.06689455 42.35,3.06689455 Z" id="Oval-26"></path>
                    <path d="M30.525,38.125 L40.525,38.125" id="Line-17" stroke-linecap="square"></path>
                    <g id="Group-2-+-Group-2" transform="translate(31.818519, 19.761905) rotate(-180.000000) translate(-31.818519, -19.761905) translate(27.337037, 8.095238)">
                        <g id="Group-2" transform="translate(7.192196, 11.849702) rotate(-270.000000) translate(-7.192196, -11.849702) translate(-4.215212, 10.183036)" stroke-linecap="square">
                            <path d="M-0.1584,0.402930403 C-0.1584,3.83990575 4.46778105,4.01618781 4.46778105,0.402930403" id="Line" transform="translate(2.232450, 1.611722) rotate(-180.000000) translate(-2.232450, -1.611722) "></path>
                            <path d="M3.8654,0.402930403 C3.8654,3.83990575 8.49158105,4.01618781 8.49158105,0.402930403" id="Line-52" transform="translate(6.256250, 1.611722) rotate(-180.000000) translate(-6.256250, -1.611722) "></path>
                            <path d="M8.4392,0.134310134 C8.4392,3.57128549 13.0653811,3.74756754 13.0653811,0.134310134" id="Line-53" transform="translate(10.830050, 1.343101) rotate(-180.000000) translate(-10.830050, -1.343101) "></path>
                            <path d="M12.9767,0.134310134 C12.9767,3.57128549 17.6028811,3.74756754 17.6028811,0.134310134" id="Line-78" transform="translate(15.367550, 1.343101) rotate(-180.000000) translate(-15.367550, -1.343101) "></path>
                            <path d="M17.9267,0.134310134 C17.9267,3.57128549 22.5528811,3.74756754 22.5528811,0.134310134" id="Line-79" transform="translate(20.317550, 1.343101) rotate(-180.000000) translate(-20.317550, -1.343101) "></path>
                        </g>
                        <g id="Group" transform="translate(0.000000, 2.857143)">
                            <path d="M3.3,2.85714286 C5.12253967,2.85714286 6.6,1.42857143 6.6,1.42857143 C6.6,1.42857143 5.12253967,-5.92859095e-14 3.3,-5.92859095e-14 C1.47746033,-5.92859095e-14 1.15463195e-14,0.639593215 1.15463195e-14,1.42857143 C1.15463195e-14,2.21754964 1.47746033,2.85714286 3.3,2.85714286 Z" id="Oval-15"></path>
                            <path d="M3.3,7.42857143 C5.12253967,7.42857143 6.6,6 6.6,6 C6.6,6 5.12253967,4.57142857 3.3,4.57142857 C1.47746033,4.57142857 1.73194792e-14,5.21102179 1.73194792e-14,6 C1.73194792e-14,6.78897821 1.47746033,7.42857143 3.3,7.42857143 Z" id="Oval-17"></path>
                            <path d="M3.3,12 C5.12253967,12 6.6,10.5714286 6.6,10.5714286 C6.6,10.5714286 5.12253967,9.14285714 3.3,9.14285714 C1.47746033,9.14285714 1.73194792e-14,9.78245036 1.73194792e-14,10.5714286 C1.73194792e-14,11.3604068 1.47746033,12 3.3,12 Z" id="Oval-18"></path>
                            <path d="M3.3,16.5714286 C5.12253967,16.5714286 6.6,15.1428571 6.6,15.1428571 C6.6,15.1428571 5.12253967,13.7142857 3.3,13.7142857 C1.47746033,13.7142857 1.73194792e-14,14.3538789 1.73194792e-14,15.1428571 C1.73194792e-14,15.9318354 1.47746033,16.5714286 3.3,16.5714286 Z" id="Oval-19"></path>
                        </g>
                    </g>
                </g>
            </g>
        </g>
    </g>
</svg>