<?xml version="1.0" encoding="UTF-8" standalone="no"?>
<svg width="60px" height="60px" viewBox="0 0 60 60" version="1.1" xmlns="http://www.w3.org/2000/svg" xmlns:xlink="http://www.w3.org/1999/xlink" xmlns:sketch="http://www.bohemiancoding.com/sketch/ns">
    <!-- Generator: Sketch 3.2 (9961) - http://www.bohemiancoding.com/sketch -->
    <title>transistors</title>
    <desc>Created with Sketch.</desc>
    <defs></defs>
    <g id="Page-1" stroke="none" stroke-width="1" fill="none" fill-rule="evenodd" sketch:type="MSPage">
        <g id="transistors" sketch:type="MSLayerGroup" transform="translate(7.000000, 2.000000)">
            <circle id="Oval-7" fill="#CC5555" sketch:type="MSShapeGroup" cx="25.9144246" cy="19.0950288" r="2"></circle>
            <circle id="Oval-8" fill="#CC5555" sketch:type="MSShapeGroup" cx="26.0808062" cy="33.4580028" r="2"></circle>
            <path d="M16.0002258,32.4580028 C16.0002258,31.3534333 15.1047953,30.4580028 14.0002258,30.4580028 C12.8956563,30.4580028 12.0002258,31.3534333 12.0002258,32.4580028 C12.0002258,33.5625722 12.8956563,34.4580028 14.0002258,34.4580028 C15.1047953,34.4580028 16.0002258,33.5625722 16.0002258,32.4580028 L16.0002258,32.4580028 Z" id="Oval-13" fill="#CC5555" sketch:type="MSShapeGroup"></path>
            <circle id="Oval-14" stroke="#CC5555" stroke-width="2" sketch:type="MSShapeGroup" cx="2.84702691" cy="34.4580028" r="2"></circle>
            <path d="M27.3081644,53.3294825 C27.2914791,52.2249131 26.3826269,51.3294825 25.2781859,51.3294825 C24.173745,51.3294825 23.291945,52.2249131 23.3086303,53.3294825 C23.3253156,54.4340519 24.234168,55.3294825 25.3386087,55.3294825 C26.4430496,55.3294825 27.3248497,54.4340519 27.3081644,53.3294825 L27.3081644,53.3294825 Z" id="Oval-15" stroke="#CC5555" stroke-width="2" sketch:type="MSShapeGroup"></path>
            <circle id="Oval-16" stroke="#CC5555" stroke-width="2" sketch:type="MSShapeGroup" cx="26.1514584" cy="2.8222627" r="2"></circle>
            <path d="M17,16.9242974 L17,20.9242974" id="Line" stroke="#CC5555" stroke-width="2" sketch:type="MSShapeGroup"></path>
            <path d="M18,25.1057844 L18,29.1057844" id="Line-54" stroke="#CC5555" stroke-width="2" sketch:type="MSShapeGroup"></path>
            <path d="M18,31.2015211 L18,35.2015211" id="Line-55" stroke="#CC5555" stroke-width="2" sketch:type="MSShapeGroup"></path>
            <path d="M16.1625029,19 L36.533794,19" id="Line" stroke="#CC5555" stroke-width="2" sketch:type="MSShapeGroup"></path>
            <path d="M18.2186279,27 L26.4964888,27" id="Line-58" stroke="#CC5555" stroke-width="2" sketch:type="MSShapeGroup"></path>
            <path d="M25.4964888,30.5188427 C25.4964888,29.3476889 22.3711279,28.3438427 18.1186279,27.1726889 C22.3711279,26.001535 25.4964888,24.9976889 25.4964888,23.826535" id="Line-58-decoration-1" stroke="#CC5555" stroke-width="2" sketch:type="MSShapeGroup"></path>
            <path d="M18.1625029,33 L38.533794,33" id="Line-56" stroke="#CC5555" stroke-width="2" sketch:type="MSShapeGroup"></path>
            <path d="M4.88156646,33 L14.83572,33" id="Line-73" stroke="#CC5555" stroke-width="2" sketch:type="MSShapeGroup"></path>
            <path d="M38,20.8696339 L38,34.3248023" id="Line" stroke="#CC5555" stroke-width="2" sketch:type="MSShapeGroup"></path>
            <path d="M34.7622283,26.9538836 C35.9434783,26.9538836 36.9559783,25.1284957 38.1372283,20.9123418 C39.3184783,25.1284957 40.3309783,26.9538836 41.5122283,26.9538836" id="Line-59-decoration-1" stroke="#CC5555" stroke-width="2" sketch:type="MSShapeGroup"></path>
            <path d="M26,28.0718875 L26,51.3160026" id="Line-57" stroke="#CC5555" stroke-width="2" sketch:type="MSShapeGroup"></path>
            <path d="M26,5 L26,19.6363854" id="Line-71" stroke="#CC5555" stroke-width="2" sketch:type="MSShapeGroup"></path>
            <path d="M14,18.8352781 L14,34.2251029" id="Line-72" stroke="#CC5555" stroke-width="2" sketch:type="MSShapeGroup"></path>
            <ellipse id="Oval-12" stroke="#CC5555" stroke-width="2" sketch:type="MSShapeGroup" cx="26.5933111" cy="28.4666808" rx="18.5933111" ry="18.4666808"></ellipse>
        </g>
    </g>
</svg>