<svg xmlns="http://www.w3.org/2000/svg" width="24" height="32" viewBox="0 0 24 32">
  <path fill="#000000" fill-rule="evenodd" d="M17.4535535,0.54153757 C17.5255562,0.597779358 17.5949189,0.659026594 17.6611716,0.725279279 L17.6611716,0.725279279 L17.6611716,0.725279279 C18.0264078,1.09051552 18.239525,1.55026645 18.300523,2.02580226 L26.6432303,10.3685096 C27.5201583,11.2454376 27.5201583,12.6672189 26.6432303,13.5441469 C25.7663023,14.4210749 24.344521,14.4210749 23.467593,13.5441469 L18.236544,8.31309793 L18.236544,29.4795641 L18.236544,29.4795641 C18.236544,30.7197276 17.2311929,31.7250788 15.9910294,31.7250788 C14.7508658,31.7250788 13.7455147,30.7197276 13.7455147,29.4795641 L13.7455147,7.8165735 L8.01794129,13.5441469 C7.14101326,14.4210749 5.71923201,14.4210749 4.84230398,13.5441469 L4.84230398,13.5441469 C3.96537595,12.6672189 3.96537595,11.2454376 4.84230398,10.3685096 L13.1850113,2.02580226 C13.2460093,1.55026645 13.4591265,1.09051552 13.8243627,0.725279279 L13.8243627,0.725279279 L13.8243627,0.725279279 C14.27024,0.279402017 14.8569755,0.060232679 15.4413294,0.0677712644 C15.6172351,0.0235088462 15.8013868,3.48367655e-17 15.9910294,0 L15.9910294,0 L15.9910294,0 C16.549656,-1.02618041e-16 17.0606388,0.203987288 17.4535535,0.54153757 Z" transform="translate(-4)"/>
</svg>
