<svg xmlns="http://www.w3.org/2000/svg" width="22" height="32" viewBox="0 0 22 32">
  <path fill="#000000" fill-rule="evenodd" d="M13.8802111,24.3434976 L13.8802111,2.11978892 L13.8802111,2.11978892 C13.8802111,0.949061829 14.8292729,2.15059079e-16 16,0 C17.1707271,-2.15059079e-16 18.1197889,0.949061829 18.1197889,2.11978892 L18.1197889,24.3434976 L23.3976726,19.0656139 C24.2255017,18.2377848 25.5676778,18.2377848 26.3955069,19.0656139 C27.2233359,19.8934429 27.2233359,21.235619 26.3955069,22.0634481 L18.5367768,29.9221781 C18.5259791,30.4500476 18.3191706,30.9746525 17.9163512,31.3774719 C17.3957122,31.8981108 16.6716277,32.0913091 16,31.9570667 C15.3283723,32.0913091 14.6042878,31.8981108 14.0836488,31.3774719 L14.0836488,31.3774719 C13.6808294,30.9746525 13.4740209,30.4500476 13.4632232,29.9221781 L5.60449314,22.0634481 L5.60449314,22.0634481 C4.77666407,21.235619 4.77666407,19.8934429 5.60449314,19.0656139 L5.60449314,19.0656139 L5.60449314,19.0656139 C6.43232221,18.2377848 7.77449832,18.2377848 8.60232739,19.0656139 L13.8802111,24.3434976 Z" transform="translate(-5)"/>
</svg>
