<svg xmlns="http://www.w3.org/2000/svg" width="28" height="22" viewBox="0 0 28 22">
  <path fill="#000000" fill-rule="evenodd" d="M11.3687317,5.37482617 C11.4185685,5.41375402 11.466578,5.4561464 11.5124349,5.50200332 C11.7652338,5.75480221 11.9127432,6.07301962 11.9549631,6.40216256 L17.7293825,12.176582 C18.3363498,12.7835492 18.3363498,13.7676376 17.7293825,14.3746048 C17.1224152,14.9815721 16.1383269,14.9815721 15.5313596,14.3746048 L11.91068,10.7539252 L11.91068,24.9024671 C11.91068,25.7608484 11.2148244,26.456704 10.3564431,26.456704 C9.49806175,26.456704 8.80220619,25.7608484 8.80220619,24.9024671 L8.80220619,10.410255 L4.8378563,14.3746048 C4.23088903,14.9815721 3.24680066,14.9815721 2.6398334,14.3746048 C2.03286614,13.7676376 2.03286614,12.7835492 2.6398334,12.176582 L8.4142528,6.40216256 C8.45647269,6.07301962 8.60398208,5.75480221 8.85678098,5.50200332 C9.1653957,5.19338859 9.5715057,5.04169015 9.97596732,5.046908 C10.0977207,5.01627169 10.2251817,5 10.3564431,5 C10.7430975,5 11.0967751,5.14119016 11.3687317,5.37482617 Z M20.0004842,26.0818778 C19.9506474,26.0429499 19.9026379,26.0005576 19.856781,25.9547007 C19.6039821,25.7019018 19.4564727,25.3836843 19.4142528,25.0545414 L13.6398334,19.280122 C13.0328661,18.6731548 13.0328661,17.6890664 13.6398334,17.0820991 C14.2468007,16.4751319 15.230889,16.4751319 15.8378563,17.0820991 L19.4585359,20.7027788 L19.4585359,6.55423689 C19.4585359,5.69585556 20.1543915,5 21.0127728,5 C21.8711542,5 22.5670097,5.69585556 22.5670097,6.55423689 L22.5670097,21.046449 L26.5313596,17.0820991 C27.1383269,16.4751319 28.1224152,16.4751319 28.7293825,17.0820991 C29.3363498,17.6890664 29.3363498,18.6731548 28.7293825,19.280122 L22.9549631,25.0545414 C22.9127432,25.3836843 22.7652338,25.7019018 22.5124349,25.9547007 C22.2038202,26.2633154 21.7977102,26.4150138 21.3932486,26.409796 C21.2714952,26.4404323 21.1440342,26.456704 21.0127728,26.456704 C20.6261185,26.456704 20.2724408,26.3155138 20.0004842,26.0818778 Z" transform="translate(-2 -5)"/>
</svg>
