<svg xmlns="http://www.w3.org/2000/svg" width="30" height="33" viewBox="0 0 30 33">
  <g fill="none" fill-rule="evenodd" transform="translate(1 1)">
    <polyline stroke="#000000" stroke-linejoin="round" stroke-width="2.385" points="21.404 6.303 21.404 .397 5.522 .397 .389 6.113 .389 30.42 22.626 30.42"/>
    <polygon fill="#000000" fill-rule="nonzero" points="6.393 .366 6.393 6.828 .568 6.828"/>
    <path fill="#CF401C" fill-rule="nonzero" d="M20.064359,19.5523077 L15.9778632,19.5523077 L15.9778632,23.7810256 L20.064359,23.7810256 L20.064359,19.5523077 Z M21.2566667,26.165641 L14.7855556,26.165641 C14.1270622,26.165641 13.5932479,25.6318267 13.5932479,24.9733333 L13.5932479,18.36 C13.5932479,17.7015066 14.1270622,17.1676923 14.7855556,17.1676923 L21.2566667,17.1676923 C21.91516,17.1676923 22.4489744,17.7015066 22.4489744,18.36 L22.4489744,24.9733333 C22.4489744,25.6318267 21.91516,26.165641 21.2566667,26.165641 Z"/>
    <path fill="#CF401C" fill-rule="nonzero" d="M20.064359,11.9707692 L15.9778632,11.9707692 L15.9778632,16.1994872 L20.064359,16.1994872 L20.064359,11.9707692 Z M21.2566667,18.5841026 L14.7855556,18.5841026 C14.1270622,18.5841026 13.5932479,18.0502882 13.5932479,17.3917949 L13.5932479,10.7784615 C13.5932479,10.1199682 14.1270622,9.58615385 14.7855556,9.58615385 L21.2566667,9.58615385 C21.91516,9.58615385 22.4489744,10.1199682 22.4489744,10.7784615 L22.4489744,17.3917949 C22.4489744,18.0502882 21.91516,18.5841026 21.2566667,18.5841026 Z"/>
    <path fill="#CF401C" fill-rule="nonzero" d="M26.5665812,19.5523077 L22.4800855,19.5523077 L22.4800855,23.7810256 L26.5665812,23.7810256 L26.5665812,19.5523077 Z M27.7588889,26.165641 L21.2877778,26.165641 C20.6292844,26.165641 20.0954701,25.6318267 20.0954701,24.9733333 L20.0954701,18.36 C20.0954701,17.7015066 20.6292844,17.1676923 21.2877778,17.1676923 L27.7588889,17.1676923 C28.4173822,17.1676923 28.9511966,17.7015066 28.9511966,18.36 L28.9511966,24.9733333 C28.9511966,25.6318267 28.4173822,26.165641 27.7588889,26.165641 Z"/>
  </g>
</svg>
