<svg xmlns="http://www.w3.org/2000/svg" width="30" height="24" viewBox="0 0 30 24">
  <path fill="#000000" fill-rule="evenodd" d="M27.2475811,18.3398404 L30.9225425,9.49659619 C31.0628981,9.10815563 31.0103987,8.67427077 30.7821868,8.33343853 C30.5539749,7.99260628 30.1779075,7.79027095 29.776126,7.79027095 L8.38420806,7.79027095 L7.69742957,4.9564943 C7.56135957,4.39385059 7.07172186,4 6.50922778,4 L2.22355856,4 C1.54856566,4 1,4.56588973 1,5.26270231 C1,5.9595149 1.54856566,6.52540463 2.22462998,6.52540463 L5.55352354,6.52540463 L9.32598387,22.0889951 C8.38206523,22.6278346 7.73492918,23.6524954 7.73492918,24.8416212 C7.73492918,26.5836527 9.10848616,28 10.7959684,28 C12.4834507,28 13.8559362,26.5836527 13.8559362,24.8416212 C13.8559362,24.6263018 13.8345079,24.4142284 13.793794,24.2108111 L21.2647869,24.2108111 C21.2251445,24.4153104 21.2026447,24.6263018 21.2026447,24.8416212 C21.2026447,26.5836527 22.5751303,28 24.2626125,28 C25.9511662,28 27.3236518,26.5836527 27.3236518,24.8416212 C27.3236518,23.0995897 25.9511662,21.6843244 24.2626125,21.6843244 L11.7516726,21.6843244 L11.1398934,19.1578378 L26.102236,19.1578378 C26.6122307,19.1589198 27.0697259,18.8321536 27.2475811,18.3398404 L27.2475811,18.3398404 Z M10.5270427,16.6324332 L8.99598734,10.3156756 L28.0082874,10.3156756 L25.2536735,16.6324332 L10.5270427,16.6324332 L10.5270427,16.6324332 Z" transform="translate(-1 -4)"/>
</svg>
