<svg xmlns="http://www.w3.org/2000/svg" width="26" height="26" viewBox="0 0 26 26">
  <path fill="#000000" fill-rule="evenodd" d="M19.4767199,16 L28.2799477,7.19677213 C29.2400174,6.23670245 29.2400174,4.68012194 28.2799477,3.72005226 L28.2799477,3.72005226 L28.2799477,3.72005226 C27.3198781,2.75998258 25.7632976,2.75998258 24.8032279,3.72005226 L24.8032279,3.72005226 L16,12.5232801 L7.19677213,3.72005226 C6.23670245,2.75998258 4.68012194,2.75998258 3.72005226,3.72005226 L3.72005226,3.72005226 L3.72005226,3.72005226 C2.75998258,4.68012194 2.75998258,6.23670245 3.72005226,7.19677213 L3.72005226,7.19677213 L12.5232801,16 L3.72005226,24.8032279 C2.75998258,25.7632976 2.75998258,27.3198781 3.72005226,28.2799477 C4.68012194,29.2400174 6.23670245,29.2400174 7.19677213,28.2799477 L7.19677213,28.2799477 L16,19.4767199 L24.8032279,28.2799477 C25.7632976,29.2400174 27.3198781,29.2400174 28.2799477,28.2799477 C29.2400174,27.3198781 29.2400174,25.7632976 28.2799477,24.8032279 L19.4767199,16 Z" transform="translate(-3 -3)"/>
</svg>
