<svg xmlns="http://www.w3.org/2000/svg" width="40" height="34" viewBox="0 0 40 34">
  <g fill="none" fill-rule="evenodd" transform="translate(0 1)">
    <path fill="#000000" fill-rule="nonzero" d="M9.94913658 6.78717875L14.6489032 1.64102564 29.544741 1.64102564 29.544741 11.6102564 32.0062794 11.6102564 32.0062794.41025641C32.0062794-.269478666 31.4552453-.820512821 30.7755102-.820512821L14.1061224-.820512821C13.7603351-.820512821 13.4304981-.675051624 13.1973144-.419719998L7.8095593 5.47976718C7.60243743 5.70656161 7.48759812 6.00260326 7.48759812 6.30974359L7.48759812 11.6102564 9.94913658 11.6102564 9.94913658 6.78717875zM9.94913658 30.1702564L9.94913658 26.6584615 7.48759812 26.6584615 7.48759812 31.4010256C7.48759812 32.0807607 8.03863227 32.6317949 8.71836735 32.6317949L30.7755102 32.6317949C31.4552453 32.6317949 32.0062794 32.0807607 32.0062794 31.4010256L32.0062794 26.5189744 29.544741 26.5189744 29.544741 30.1702564 9.94913658 30.1702564z"/>
    <polygon fill="#000000" fill-rule="nonzero" points="15.029 .377 15.029 7.048 8.906 7.048"/>
    <path fill="#CF401C" fill-rule="nonzero" d="M16.7572998,20.7097436 L22.7039246,20.7097436 L22.7039246,16.8779487 L16.7572998,16.8779487 L16.7572998,20.7097436 Z M15.5265306,14.4164103 L23.9346939,14.4164103 C24.614429,14.4164103 25.1654631,14.9674444 25.1654631,15.6471795 L25.1654631,21.9405128 C25.1654631,22.6202479 24.614429,23.1712821 23.9346939,23.1712821 L15.5265306,23.1712821 C14.8467955,23.1712821 14.2957614,22.6202479 14.2957614,21.9405128 L14.2957614,15.6471795 C14.2957614,14.9674444 14.8467955,14.4164103 15.5265306,14.4164103 Z"/>
    <polygon fill="#D22028" fill-rule="nonzero" points="0 20.029 10 20.029 10 17.567 0 17.567"/>
    <polygon fill="#CF401C" fill-rule="nonzero" points="6.939 24.369 12.139 18.798 6.939 13.218"/>
    <polygon fill="#CF401C" fill-rule="nonzero" points="39.257 17.567 29.257 17.567 29.257 20.029 39.257 20.029"/>
    <polygon fill="#CF401C" fill-rule="nonzero" points="32.318 13.218 27.118 18.798 32.318 24.369"/>
  </g>
</svg>
