<svg xmlns="http://www.w3.org/2000/svg" width="30" height="32" viewBox="0 0 30 32">
  <g fill="none" fill-rule="evenodd" transform="translate(1 1)">
    <polyline stroke="#000000" stroke-linejoin="round" stroke-width="2.308" points="21.002 8.415 21.002 .385 5.418 .385 .382 5.915 .382 29.438 21.002 29.438 21.002 24.831"/>
    <polygon fill="#000000" fill-rule="nonzero" points="6.273 .354 6.273 6.608 .557 6.608"/>
    <path fill="#CF401C" fill-rule="nonzero" d="M20.0736035,21.5168726 C20.4792646,22.3116321 21.5949068,22.3648719 22.0744059,21.6123533 L24.6800617,17.5230769 L28.2673684,17.5230769 L28.2673684,15.2153846 L24.0471053,15.2153846 C23.6528465,15.2153846 23.2858791,15.4166891 23.0740151,15.7491851 L21.212078,18.6712808 L16.9777123,10.3754351 C16.547451,9.53247963 15.3412209,9.53748481 14.9179699,10.3839818 L11.8560963,16.5076923 L8.67710526,16.5076923 L8.67710526,18.8153846 L12.5692105,18.8153846 C13.0062542,18.8153846 13.4057878,18.5684599 13.6012407,18.1775566 L15.9606177,13.4588308 L20.0736035,21.5168726 Z"/>
  </g>
</svg>
