<svg xmlns="http://www.w3.org/2000/svg" width="31" height="34" viewBox="0 0 31 34">
  <g fill="none" fill-rule="evenodd" transform="translate(1 1)">
    <polyline stroke="#CF401C" stroke-linejoin="round" stroke-width="2.133" points="19.465 6.108 19.437 .356 4.994 .434 .354 5.568 .467 27.314 5.1 27.292"/>
    <polygon fill="#CF401C" fill-rule="nonzero" points="5.793 .398 5.821 6.18 .516 6.208"/>
    <path fill="#000000" fill-rule="nonzero" d="M17.2156,10.4724828 C12.1990135,10.4724828 8.13226662,14.5392296 8.13226662,19.5558161 L8.13226662,19.664705 C8.13226662,24.6812915 12.1990135,28.7480383 17.2156,28.7480383 C22.2321864,28.7480383 26.2989333,24.6812915 26.2989333,19.664705 L26.2989333,19.5558161 C26.2989333,14.5392296 22.2321864,10.4724828 17.2156,10.4724828 Z M17.2156,8.33914945 C23.4103939,8.33914945 28.4322666,13.3610222 28.4322666,19.5558161 L28.4322666,19.664705 C28.4322666,25.8594989 23.4103939,30.8813717 17.2156,30.8813717 C11.020806,30.8813717 5.99893329,25.8594989 5.99893329,19.664705 L5.99893329,19.5558161 C5.99893329,13.3610222 11.020806,8.33914945 17.2156,8.33914945 Z"/>
    <polygon fill="#000000" fill-rule="nonzero" points="23.327 27.915 27.585 32.374 29.128 30.901 24.87 26.442"/>
    <polygon fill="#CF401C" fill-rule="nonzero" points="13.993 18.394 12.489 19.907 16.333 23.727 22.227 17.737 20.707 16.24 16.316 20.703"/>
  </g>
</svg>
