<svg xmlns="http://www.w3.org/2000/svg" width="32" height="31" viewBox="0 0 32 31">
  <g fill="none" fill-rule="evenodd">
    <path fill="#000000" fill-rule="nonzero" d="M27.2434462,24.01396 L31.9305716,28.9462588 L30.2736719,30.5207978 L25.5587716,25.5592713 C23.1579153,27.4265485 20.1747887,28.4959816 17.0209524,28.489 L17.0209524,28.489 C13.1281317,28.4843159 9.41171453,26.8369276 6.75809524,23.93975 L8.43428571,22.38975 C12.2490405,26.6002926 18.4681475,27.4567995 23.2462848,24.4296859 C28.0244221,21.4025723 30.0113758,15.3472449 27.9785972,10.0077594 C25.9458186,4.66827397 20.4677334,1.55347092 14.9314842,2.58925712 C9.39523493,3.62504332 5.36526389,8.51872461 5.33333333,14.2445 L3.04761905,14.2445 C3.04763247,8.48031946 6.46285804,3.28430743 11.6994655,1.08135821 C16.936073,-1.121591 22.9617449,0.102800553 26.9643981,4.18312925 C30.9670512,8.26345795 32.1576235,14.395349 29.9804941,19.7171486 C29.3178944,21.3368147 28.3831114,22.7842698 27.2434462,24.01396 Z M4.4408921e-16,14.2445 L8.32,14.2445 L4.16,18.2125 L4.4408921e-16,14.2445 Z"/>
    <polygon fill="#CF401C" fill-rule="nonzero" points="25.47 15.19 15.878 15.19 15.878 5.921 18.164 5.921 18.164 12.865 25.47 12.865"/>
  </g>
</svg>
