<svg xmlns="http://www.w3.org/2000/svg" width="32" height="31" viewBox="0 0 32 31">
  <path fill="#000000" fill-rule="evenodd" d="M29.0909091,13.2857143 L32,13.2857143 L32,31 L0,31 L0,13.2857143 L13.0909091,13.2857143 L13.0909091,4.42857143 L18.9090909,4.42857143 L18.9090909,13.2857143 L23.2727273,13.2857143 L23.2727273,8.85714286 L29.0909091,8.85714286 L29.0909091,13.2857143 Z M4.36363636,0 L10.1818182,0 L10.1818182,13.2857143 L4.36363636,13.2857143 L4.36363636,0 Z M4.36363636,19.1904762 L4.36363636,25.0952381 L10.1818182,25.0952381 L10.1818182,19.1904762 L4.36363636,19.1904762 Z M13.0909091,19.1904762 L13.0909091,25.0952381 L18.9090909,25.0952381 L18.9090909,19.1904762 L13.0909091,19.1904762 Z M21.8181818,19.1904762 L21.8181818,25.0952381 L27.6363636,25.0952381 L27.6363636,19.1904762 L21.8181818,19.1904762 Z"/>
</svg>
