<svg xmlns="http://www.w3.org/2000/svg" width="34" height="34" viewBox="0 0 34 34">
  <g fill="none" fill-rule="evenodd" transform="translate(1 1)">
    <path fill="#000000" fill-rule="nonzero" d="M9.52201923 6.79091028L14.2751649 1.64102564 29.3519808 1.64102564 29.3519808 11.5117949 31.8135192 11.5117949 31.8135192.41025641C31.8135192-.269478666 31.2624851-.820512821 30.58275-.820512821L13.73625-.820512821C13.392718-.820512821 13.0648197-.67693652 12.8318245-.424493542L7.38682454 5.47499364C7.17699468 5.70233773 7.06048077 6.00036695 7.06048077 6.30974359L7.06048077 11.6102564 9.52201923 11.6102564 9.52201923 6.79091028zM9.52201923 30.1702564L9.52201923 25.5835897 7.06048077 25.5835897 7.06048077 31.4010256C7.06048077 32.0807607 7.61151492 32.6317949 8.29125 32.6317949L30.58275 32.6317949C31.2624851 32.6317949 31.8135192 32.0807607 31.8135192 31.4010256L31.8135192 25.5835897 29.3519808 25.5835897 29.3519808 30.1702564 9.52201923 30.1702564z"/>
    <polygon fill="#000000" fill-rule="nonzero" points="14.668 .377 14.668 7.048 8.481 7.048"/>
    <path fill="#CF401C" fill-rule="nonzero" d="M1.64326923,16.8287179 L1.64326923,20.6605128 L14.9392308,20.6605128 L14.9392308,16.8287179 L1.64326923,16.8287179 Z M0.4125,14.3671795 L16.17,14.3671795 C16.8497351,14.3671795 17.4007692,14.9182136 17.4007692,15.5979487 L17.4007692,21.8912821 C17.4007692,22.5710171 16.8497351,23.1220513 16.17,23.1220513 L0.4125,23.1220513 C-0.267235077,23.1220513 -0.818269231,22.5710171 -0.818269231,21.8912821 L-0.818269231,15.5979487 C-0.818269231,14.9182136 -0.267235077,14.3671795 0.4125,14.3671795 Z"/>
    <polygon fill="#D22028" fill-rule="nonzero" points="32.612 17.518 22.506 17.518 22.506 19.979 32.612 19.979"/>
    <polygon fill="#CF401C" fill-rule="nonzero" points="25.6 13.169 20.345 18.741 25.6 24.32"/>
  </g>
</svg>
