<svg xmlns="http://www.w3.org/2000/svg" width="32" height="31" viewBox="0 0 32 31">
  <g fill="none" fill-rule="evenodd">
    <path fill="#000000" fill-rule="nonzero" d="M6.86139535,2.26829268 L6.86139535,7.25097561 L2.23255814,7.25097561 L2.23255814,28.5653659 L12.2939535,28.5653659 L12.2939535,30.8260976 L1.11627907,30.8260976 C0.499775163,30.8260976 7.54999536e-17,30.3183229 0,29.6919512 L0,6.5704878 C0.00164115791,6.29071105 0.105008697,6.02142375 0.290232558,5.81439024 L5.20930233,0.370487805 C5.41926119,0.13624544 5.71608414,0.00190795927 6.02790698,0 L21.224186,0 C21.8348697,0.00827351023 22.3256357,0.513632893 22.3255814,1.13414634 L22.3255814,8.27170732 L20.0930233,8.27170732 L20.0930233,2.26829268 L6.86139535,2.26829268 Z M13.5888947,20.7170732 L16.1190698,20.7170732 L12.4725581,24.187561 L8.82604651,20.7170732 L11.3562113,20.7170732 C11.3531252,16.6332368 13.7676026,12.9466224 17.4788948,11.3731739 C21.1993465,9.79584214 25.4887951,10.6534043 28.3436732,13.5453 C31.1985512,16.4371957 32.0554519,20.7927126 30.5141237,24.5774233 C28.9727955,28.362134 25.3374177,30.8291302 21.3060465,30.8260976 C18.5398712,30.8225309 15.8990512,29.6534706 14.0130233,27.597561 L15.6502326,26.0853659 C18.1749856,28.8506795 22.2788302,29.4001341 25.4224841,27.3937507 C28.566138,25.3873674 29.8604083,21.3926583 28.5044563,17.8813774 C27.1485042,14.3700965 23.5258654,12.3354212 19.8780726,13.036321 C16.2400332,13.7353467 13.6032543,16.9581453 13.5888961,20.7170732 Z"/>
    <polygon fill="#CF401C" fill-rule="nonzero" points="27.118 21.7 20.19 21.7 20.19 15.001 22.422 15.001 22.422 19.432 27.118 19.432"/>
  </g>
</svg>
