<svg xmlns="http://www.w3.org/2000/svg" width="31" height="32" viewBox="0 0 31 32">
  <g fill="none" fill-rule="evenodd">
    <polygon fill="#000000" fill-rule="nonzero" points="23.252 25.417 28.903 31.246 30.65 29.554 24.999 23.724"/>
    <path fill="#000000" fill-rule="nonzero" d="M14.6872587,2.62162162 C8.0284958,2.62162162 2.63050193,8.01961549 2.63050193,14.6783784 C2.63050193,21.3371413 8.0284958,26.7351351 14.6872587,26.7351351 L15.2687413,26.7351351 C21.9275042,26.7351351 27.3254981,21.3371413 27.3254981,14.6783784 C27.3254981,8.01961549 21.9275042,2.62162162 15.2687413,2.62162162 L14.6872587,2.62162162 Z M14.6872587,0.189189189 L15.2687413,0.189189189 C23.2708995,0.189189189 29.7579305,6.67622015 29.7579305,14.6783784 C29.7579305,22.6805366 23.2708995,29.1675676 15.2687413,29.1675676 L14.6872587,29.1675676 C6.68510046,29.1675676 0.198069498,22.6805366 0.198069498,14.6783784 C0.198069498,6.67622015 6.68510046,0.189189189 14.6872587,0.189189189 Z"/>
    <polygon fill="#000000" fill-rule="nonzero" points="16.503 7.722 9.982 7.722 9.982 10.154 16.503 10.154"/>
    <polygon fill="#CF401C" fill-rule="nonzero" points="21.938 13.259 9.982 13.259 9.982 15.692 21.938 15.692"/>
    <polygon fill="#000000" fill-rule="nonzero" points="18.309 18.797 9.982 18.797 9.982 21.23 18.309 21.23"/>
  </g>
</svg>
