<svg xmlns="http://www.w3.org/2000/svg" width="33" height="34" viewBox="0 0 33 34">
  <g fill="none" fill-rule="evenodd" transform="translate(1 1)">
    <path stroke="#000000" stroke-linejoin="round" stroke-width="2.514" d="M24.69616,23.6055365 C27.0474461,21.1435117 28.4914286,17.8075481 28.4914286,14.1343243 L28.4914286,14.1343243 C28.4914286,6.55951508 22.3508324,0.418918919 14.7760232,0.418918919 L14.7760232,0.418918919 L14.1439768,0.418918919 L14.1439768,0.418918919 C6.56916759,0.418918919 0.428571429,6.55951508 0.428571429,14.1343243 L0.428571429,14.1343243 L0.428571429,14.1343243 C0.428571429,21.7091336 6.56916759,27.8497297 14.1439768,27.8497297 L14.1439768,27.8497297 L14.7760232,27.8497297 C18.3001246,27.8497297 21.5137936,26.5206105 23.9430967,24.3363056 L23.0209458,25.2311565 L28.8666601,31.2552106 L30.6704827,29.5047894 L24.8247684,23.4807354 L24.69616,23.6055364 Z"/>
    <polygon fill="#000000" points="9.811 19.413 9.811 12.827 7.298 12.827 7.298 19.413"/>
    <polygon fill="#CF401C" points="15.665 19.413 15.665 7.331 13.152 7.331 13.152 19.413"/>
    <polygon fill="#000000" points="21.52 19.413 21.52 10.992 19.006 10.992 19.006 19.413"/>
  </g>
</svg>
