<svg xmlns="http://www.w3.org/2000/svg" width="34" height="32" viewBox="0 0 34 32">
  <path fill="#000000" fill-rule="evenodd" d="M20.0593869,23.285562 C15.145352,26.7860109 8.18504419,26.2468012 3.66537121,21.7271282 C-1.35821273,16.7035443 -1.46426778,8.66476052 3.42849061,3.77200212 C8.321249,-1.12075627 16.3600328,-1.01470122 21.3836167,4.00888272 C25.7303961,8.35566209 26.3954213,14.9599218 23.3260336,19.8302283 C23.58492,19.9505779 23.8274845,20.1175509 24.0410809,20.3311473 L31.4126358,27.7027022 C32.3911875,28.6812539 32.3911875,30.2677996 31.4126358,31.2463513 C30.4340841,32.224903 28.8475384,32.224903 27.8689867,31.2463513 L20.4974318,23.8747964 L20.4974318,23.8747964 C20.3188128,23.6961774 20.1727978,23.4973008 20.0593869,23.285562 Z M17.982096,18.3256075 C20.917751,15.3899525 20.854118,10.5666822 17.8399676,7.55253182 C14.8258173,4.53838146 10.002547,4.47474843 7.06689195,7.41040346 C4.13123691,10.3460585 4.19486995,15.1693288 7.20902031,18.1834791 C10.2231707,21.1976295 15.0464409,21.2612625 17.982096,18.3256075 Z" transform="translate(1)"/>
</svg>
