<svg xmlns="http://www.w3.org/2000/svg" width="34" height="34" viewBox="0 0 34 34">
  <g fill="none" fill-rule="evenodd" transform="translate(0 1)">
    <path fill="#000000" fill-rule="nonzero" d="M3.16717949 30.1702564L3.16717949 26.0758974.705641026 26.0758974.705641026 31.4010256C.705641026 32.0807607 1.25667518 32.6317949 1.93641026 32.6317949L24.1066667 32.6317949C24.7864017 32.6317949 25.3374359 32.0807607 25.3374359 31.4010256L25.3374359 25.5835897 22.8758974 25.5835897 22.8758974 30.1702564 3.16717949 30.1702564zM3.16717949 6.78898334L7.89270394 1.64102564 22.8758974 1.64102564 22.8758974 11.6102564 25.3374359 11.6102564 25.3374359.41025641C25.3374359-.269478666 24.7864017-.820512821 24.1066667-.820512821L7.35179487-.820512821C7.00709898-.820512821 6.67819962-.675965293 6.44510425-.422032614L1.02971964 5.47745457C.821289009 5.70451763.705641026 6.00152133.705641026 6.30974359L.705641026 11.6102564 3.16717949 11.6102564 3.16717949 6.78898334z"/>
    <polygon fill="#000000" fill-rule="nonzero" points="8.271 .377 8.271 7.048 2.117 7.048"/>
    <rect width="15.672" height="6.293" x="16.271" y="15.516" stroke="#CF401C" stroke-linejoin="round" stroke-width="2.462"/>
    <polygon fill="#CF401C" fill-rule="nonzero" points="0 19.889 10.051 19.889 10.051 17.428 0 17.428"/>
    <polygon fill="#CF401C" fill-rule="nonzero" points="6.974 24.238 12.201 18.658 6.974 13.079"/>
  </g>
</svg>
