<svg xmlns="http://www.w3.org/2000/svg" width="35" height="33" viewBox="0 0 35 33">
  <g fill="none" fill-rule="evenodd">
    <path stroke="#000000" stroke-linejoin="round" stroke-width="2.462" d="M21.6,6.93769231 L21.6,6.93769231 C26.8351206,6.93769231 31.0790244,11.1815961 31.0790244,16.4167167 L31.0790244,16.7661038 C31.0790244,22.0012244 26.8351206,26.2451282 21.6,26.2451282 C16.3648794,26.2451282 12.1209756,22.0012244 12.1209756,16.7661038 L12.1209756,16.4167167 L12.1209756,16.4167167 C12.1209756,11.1815961 16.3648794,6.93769231 21.6,6.93769231 L21.6,6.93769231 Z M27.0896218,24.6299164 L28.8869636,22.9480323 L32.8440368,27.1767503 L31.0466949,28.8586343 L27.0896218,24.6299164 Z"/>
    <path fill="#CF401C" fill-rule="nonzero" d="M20.6306942,15.4905128 L20.6306942,21.4123077 L23.0922326,21.4123077 L23.0922326,15.4905128 L26.5053659,15.4905128 L21.8614634,11.0630769 L17.217561,15.4905128 L20.6306942,15.4905128 Z"/>
    <polygon fill="#000000" fill-rule="nonzero" points="0 2.628 20.472 2.628 20.472 .167 0 .167"/>
    <polygon fill="#CF401C" fill-rule="nonzero" points="0 10.044 8.453 10.044 8.453 7.583 0 7.583"/>
    <polygon fill="#000000" fill-rule="nonzero" points="0 17.468 6.892 17.468 6.892 15.007 0 15.007"/>
    <polygon fill="#000000" fill-rule="nonzero" points="0 24.885 8.453 24.885 8.453 22.423 0 22.423"/>
    <polygon fill="#000000" fill-rule="nonzero" points="0 32.301 19.98 32.301 19.98 29.839 0 29.839"/>
  </g>
</svg>
