<?xml version="1.0" encoding="UTF-8" standalone="no"?>
<svg width="62px" height="68px" viewBox="0 0 62 68" version="1.1" xmlns="http://www.w3.org/2000/svg" xmlns:xlink="http://www.w3.org/1999/xlink" xmlns:sketch="http://www.bohemiancoding.com/sketch/ns">
    <!-- Generator: Sketch 3.2.2 (9983) - http://www.bohemiancoding.com/sketch -->
    <title>calendar</title>
    <desc>Created with Sketch.</desc>
    <defs></defs>
    <g id="Icons" stroke="none" stroke-width="1" fill="none" fill-rule="evenodd" sketch:type="MSPage">
        <path d="M23.8461538,4.85714286 L23.8461538,0 L19.0769231,0 L19.0769231,4.85714286 L19.0769231,9.71428571 L23.8461538,9.71428571 L23.8461538,4.85714286 L23.8461538,4.85714286 Z M14.3076923,4.85714286 L14.3076923,0 L9.53846154,0 L9.53846154,4.85714286 L9.53846154,9.71428571 L14.3076923,9.71428571 L14.3076923,4.85714286 L14.3076923,4.85714286 Z M52.4615385,4.85714286 L52.4615385,0 L47.6923077,0 L47.6923077,4.85714286 L47.6923077,9.71428571 L52.4615385,9.71428571 L52.4615385,4.85714286 L52.4615385,4.85714286 Z M42.9230769,4.85714286 L42.9230769,0 L38.1538462,0 L38.1538462,4.85714286 L38.1538462,9.71428571 L42.9230769,9.71428571 L42.9230769,4.85714286 L42.9230769,4.85714286 Z M33.3846154,4.85714286 L33.3846154,0 L28.6153846,0 L28.6153846,4.85714286 L28.6153846,9.71428571 L33.3846154,9.71428571 L33.3846154,4.85714286 L33.3846154,4.85714286 Z M19.0769231,29.1428571 L19.0769231,34 L23.8461538,34 L23.8461538,53.4285714 L28.6153846,53.4285714 L28.6153846,29.1428571 L23.8461538,29.1428571 L19.0769231,29.1428571 L19.0769231,29.1428571 Z M33.3846154,29.1428571 L33.3846154,34 L38.1538462,34 L38.1538462,53.4285714 L42.9230769,53.4285714 L42.9230769,29.1428571 L38.1538462,29.1428571 L33.3846154,29.1428571 L33.3846154,29.1428571 Z M0,9.71428571 L0,14.5714286 L0,19.4285714 L0,63.1428571 L4.76923077,68 L57.2307692,68 L62,63.1428571 L62,19.4285714 L62,14.5714286 L62,9.71428571 L57.2307692,4.85714286 L57.2307692,9.71428571 L57.2307692,14.5714286 L52.4615385,14.5714286 L47.6923077,14.5714286 L42.9230769,14.5714286 L38.1538462,14.5714286 L33.3846154,14.5714286 L28.6153846,14.5714286 L23.8461538,14.5714286 L19.0769231,14.5714286 L14.3076923,14.5714286 L9.53846154,14.5714286 L4.76923077,14.5714286 L4.76923077,9.71428571 L4.76923077,4.85714286 L0,9.71428571 L0,9.71428571 Z M4.76923077,63.1428571 L4.76923077,19.4285714 L9.53846154,19.4285714 L14.3076923,19.4285714 L57.2307692,19.4285714 L57.2307692,63.1428571 L4.76923077,63.1428571 L4.76923077,63.1428571 Z" id="calendar" fill="#383E49" sketch:type="MSShapeGroup"></path>
    </g>
</svg>