<?xml version="1.0" encoding="UTF-8" standalone="no"?>
<svg width="62px" height="68px" viewBox="0 0 62 68" version="1.1" xmlns="http://www.w3.org/2000/svg" xmlns:xlink="http://www.w3.org/1999/xlink" xmlns:sketch="http://www.bohemiancoding.com/sketch/ns">
    <!-- Generator: Sketch 3.3 (11970) - http://www.bohemiancoding.com/sketch -->
    <title>calendar</title>
    <desc>Created with Sketch.</desc>
    <defs></defs>
    <g id="Icons" stroke="none" stroke-width="1" fill="none" fill-rule="evenodd" sketch:type="MSPage">
        <path d="M6,-1.00800179e-07 L4.99502992,-1.00800179e-07 C2.243241,-1.00800179e-07 0,2.23866675 0,5.00020226 L0,62.9997975 C0,65.7568865 2.23635107,67.9999999 4.99502992,67.9999999 L57.0049701,67.9999999 C59.756759,67.9999999 62,65.761333 62,62.9997975 L62,5.00020226 C62,2.24311328 59.7636489,-1.00800179e-07 57.0049701,-1.00800179e-07 L56,-1.00800179e-07 L56,11.9965347 L56,60.0069303 C56,61.1076722 55.1109357,61.9999999 54.0090859,61.9999999 L7.99091407,61.9999999 C6.89136259,61.9999999 6,61.0976917 6,60.0069303 L6,11.9965347 L6,-1.00800178e-07 L6,-1.00800179e-07 Z M6,15 L56,15 L56,21 L6,21 L6,15 Z M9,0 L15,0 L15,11 L9,11 L9,0 Z M18,0 L24,0 L24,11 L18,11 L18,0 Z M28,0 L34,0 L34,11 L28,11 L28,0 Z M38,0 L44,0 L44,11 L38,11 L38,0 Z M47,0 L53,0 L53,11 L47,11 L47,0 Z M26.5283648,53 L22.0567297,53 L22.0567297,38.9151847 C22.0567297,37.4486931 22.1345932,35.6867408 22.2903226,33.629275 C22.2013344,33.7496586 21.9232504,34.0752367 21.4560623,34.6060192 C20.9888742,35.1368016 20.0155803,36.1463674 18.5361513,37.6347469 L16,34.9097127 L22.4905451,29 L26.5283648,29 L26.5283648,53 Z M42.3459399,53 L37.8743048,53 L37.8743048,38.9151847 C37.8743048,37.4486931 37.9521683,35.6867408 38.1078977,33.629275 C38.0189095,33.7496586 37.7408255,34.0752367 37.2736374,34.6060192 C36.8064493,35.1368016 35.8331553,36.1463674 34.3537264,37.6347469 L31.8175751,34.9097127 L38.3081201,29 L42.3459399,29 L42.3459399,53 Z" id="calendar" fill="#383E49" sketch:type="MSShapeGroup"></path>
    </g>
</svg>