<?xml version="1.0" encoding="UTF-8" standalone="no"?>
<svg width="60px" height="59px" viewBox="0 0 60 59" version="1.1" xmlns="http://www.w3.org/2000/svg" xmlns:xlink="http://www.w3.org/1999/xlink" xmlns:sketch="http://www.bohemiancoding.com/sketch/ns">
    <!-- Generator: Sketch 3.2.2 (9983) - http://www.bohemiancoding.com/sketch -->
    <title>close</title>
    <desc>Created with Sketch.</desc>
    <defs></defs>
    <g id="Icons" stroke="none" stroke-width="1" fill="none" fill-rule="evenodd" sketch:type="MSPage">
        <path d="M33.3966556,25.8033444 L33.3966556,-7.13949727 C33.3966556,-9.08719661 31.8164842,-10.6672439 29.8672439,-10.6672439 C27.9219699,-10.6672439 26.3378321,-9.08781792 26.3378321,-7.13949727 L26.3378321,25.8033444 L-6.60500954,25.8033444 C-8.55270888,25.8033444 -10.1327561,27.3835158 -10.1327561,29.3327561 C-10.1327561,31.2780301 -8.55333018,32.8621679 -6.60500954,32.8621679 L26.3378321,32.8621679 L26.3378321,65.8050095 C26.3378321,67.7527089 27.9180036,69.3327561 29.8672439,69.3327561 C31.8125178,69.3327561 33.3966556,67.7533302 33.3966556,65.8050095 L33.3966556,32.8621679 L66.3394973,32.8621679 C68.2871966,32.8621679 69.8672439,31.2819964 69.8672439,29.3327561 C69.8672439,27.3874822 68.2878179,25.8033444 66.3394973,25.8033444 L33.3966556,25.8033444 Z" id="close" fill="#383E49" sketch:type="MSShapeGroup" transform="translate(29.867244, 29.332756) rotate(-45.000000) translate(-29.867244, -29.332756) "></path>
    </g>
</svg>