<?xml version="1.0" encoding="UTF-8" standalone="no"?>
<svg width="57px" height="65px" viewBox="0 0 57 65" version="1.1" xmlns="http://www.w3.org/2000/svg" xmlns:xlink="http://www.w3.org/1999/xlink" xmlns:sketch="http://www.bohemiancoding.com/sketch/ns">
    <!-- Generator: Sketch 3.2.2 (9983) - http://www.bohemiancoding.com/sketch -->
    <title>edit</title>
    <desc>Created with Sketch.</desc>
    <defs></defs>
    <g id="Icons" stroke="none" stroke-width="1" fill="none" fill-rule="evenodd" sketch:type="MSPage">
        <path d="M15.4563994,60.2854916 L18.0577307,59.3386844 C18.4152827,59.2085461 18.7248183,59.0068101 18.9761946,58.7558417 C19.485313,58.6355956 19.961747,58.3547645 20.3249224,57.9219488 L50.0208652,22.5317023 L50.0208652,22.5317023 L50.0756448,22.5776677 L55.6593212,15.9233013 C57.6789544,13.5163962 57.3616744,9.94116782 54.9603676,7.92623213 L47.0664131,1.30241785 C44.6703138,-0.708148189 41.0847509,-0.398964252 39.0694654,2.00275938 L36.7483311,4.76897961 C36.6293424,4.8668692 36.5175883,4.97710637 36.4148907,5.09949665 L3.73506662,44.0457944 C3.43191679,44.4070743 3.24744389,44.8264709 3.17707767,45.2576438 C2.90902848,45.5821626 2.71896555,45.9791961 2.6404863,46.424274 L0.0467888756,61.133863 C-0.0678697721,61.7841245 0.0764918991,62.4169665 0.405158404,62.9280483 C0.545159516,64.1022785 1.53913498,65 2.74451137,65 L52.461336,65 C53.7547241,65 54.8175643,63.9446213 54.8175643,62.6427458 C54.8175643,61.3317938 53.762645,60.2854916 52.461336,60.2854916 L15.4563994,60.2854916 Z M46.192437,19.3192695 L16.622198,54.559708 L16.622198,54.559708 C16.5305419,54.5818818 16.4391627,54.6093983 16.348431,54.6424219 L10.4882024,56.7753707 C10.5163592,55.7923974 10.1099536,54.8088212 9.29875901,54.1281481 C8.48862895,53.4483683 7.44637866,53.2211205 6.48162047,53.4204859 L7.56221879,47.2921082 C7.56459892,47.2786099 7.56686743,47.265119 7.569025,47.2516366 L7.569025,47.2516366 L37.2812943,11.8419329 L40.4644867,14.5129485 C40.4372902,14.5411355 40.410878,14.5704653 40.3853138,14.6009315 L14.3172751,45.6676104 C13.723638,46.3750795 13.8171696,47.4239379 14.5219638,48.0153304 C15.2316717,48.6108461 16.2778129,48.5144497 16.8695606,47.8092322 L42.9375994,16.7425533 C42.963169,16.7120806 42.9874638,16.6809745 43.0104898,16.6492988 L46.192437,19.3192695 L46.192437,19.3192695 Z" id="edit" fill="#383E49" sketch:type="MSShapeGroup"></path>
    </g>
</svg>