<?xml version="1.0" encoding="UTF-8" standalone="no"?>
<svg width="68px" height="48px" viewBox="0 0 68 48" version="1.1" xmlns="http://www.w3.org/2000/svg" xmlns:xlink="http://www.w3.org/1999/xlink" xmlns:sketch="http://www.bohemiancoding.com/sketch/ns">
    <!-- Generator: Sketch 3.2.2 (9983) - http://www.bohemiancoding.com/sketch -->
    <title>email</title>
    <desc>Created with Sketch.</desc>
    <defs></defs>
    <g id="Icons" stroke="none" stroke-width="1" fill="none" fill-rule="evenodd" sketch:type="MSPage">
        <g id="email" sketch:type="MSLayerGroup" fill="#383E49">
            <path d="M0,6.00638655 C0,2.68915086 2.68662486,4.54747351e-13 6.00471685,4.54747351e-13 L61.9952831,4.54747351e-13 C65.3115967,4.54747351e-13 68,2.68354127 68,6.00638655 L68,41.9936134 C68,45.3108491 65.3133751,48 61.9952831,48 L6.00471685,48 C2.68840331,48 0,45.3164587 0,41.9936134 L0,6.00638655 Z M5,11.0002441 C5,7.68640081 7.68113741,5 11.0021239,5 L56.9978761,5 C60.3127576,5 63,7.68722626 63,11.0002441 L63,36.9997559 C63,40.3135992 60.3188626,43 56.9978761,43 L11.0021239,43 C7.6872424,43 5,40.3127737 5,36.9997559 L5,11.0002441 Z" sketch:type="MSShapeGroup"></path>
            <path d="M34,12.5 L63,28.25 L63,33.5 L5,33.5 L5,28.25 L34,12.5 Z M34,17.75 L63,33.5 L5,33.5 L34,17.75 Z" id="Triangle-1" sketch:type="MSShapeGroup" transform="translate(34.000000, 23.000000) rotate(-180.000000) translate(-34.000000, -23.000000) "></path>
        </g>
    </g>
</svg>