<?xml version="1.0" encoding="UTF-8" standalone="no"?>
<svg width="42px" height="52px" viewBox="0 0 42 52" version="1.1" xmlns="http://www.w3.org/2000/svg" xmlns:xlink="http://www.w3.org/1999/xlink" xmlns:sketch="http://www.bohemiancoding.com/sketch/ns">
    <!-- Generator: Sketch 3.3.3 (12072) - http://www.bohemiancoding.com/sketch -->
    <title>empty</title>
    <desc>Created with Sketch.</desc>
    <defs></defs>
    <g id="Empty-Table" stroke="none" stroke-width="1" fill="none" fill-rule="evenodd" sketch:type="MSPage">
        <g id="empty" sketch:type="MSLayerGroup" transform="translate(1.000000, -1.000000)" fill="#248FAF">
            <g id="Path-+-Path" sketch:type="MSShapeGroup">
                <path d="M36.2727273,22.9152173 L36.2727273,46.9275362 L3.72727273,46.9275362 L3.72727273,4.34782609 L17.3636364,4.34782609 L17.3636364,4.34782609 L17.3636364,22.9099998 L18.3636364,22.9099998 L18.3636364,22.9152173 L36.2727273,22.9152173 Z M35.1340688,19.5652174 L20.7236363,5.07544642 L20.7236363,19.5652174 L35.1340688,19.5652174 Z M21.4545455,1 L0.363636364,1 L0.363636364,50.2753623 L39.6363636,50.2753623 L39.6363636,19.2608696 L21.4545455,1 Z" id="Path"></path>
            </g>
            <path d="M10.7350852,38.7101449 L7.34446023,38.7101449 L7.34446023,32.9992074 L10.7350852,32.9992074 L10.7350852,34.2374887 L8.88742898,34.2374887 L8.88742898,35.1359262 L10.5983665,35.1359262 L10.5983665,36.3742074 L8.88742898,36.3742074 L8.88742898,37.4523324 L10.7350852,37.4523324 L10.7350852,38.7101449 Z M14.0733665,38.7101449 L12.9053977,34.5968637 L12.8702415,34.5968637 C12.9249292,35.297388 12.9522727,35.8416534 12.9522727,36.2296762 L12.9522727,38.7101449 L11.5850852,38.7101449 L11.5850852,32.9992074 L13.6397727,32.9992074 L14.831179,37.0538949 L14.862429,37.0538949 L16.0303977,32.9992074 L18.0889915,32.9992074 L18.0889915,38.7101449 L16.6710227,38.7101449 L16.6710227,36.2062387 C16.6710227,36.0760297 16.6729758,35.9314999 16.6768821,35.7726449 C16.6807884,35.61379 16.6983663,35.2244709 16.7296165,34.6046762 L16.6944602,34.6046762 L15.5421165,38.7101449 L14.0733665,38.7101449 Z M23.3139915,34.8156137 C23.3139915,35.4536377 23.1258423,35.9464713 22.7495383,36.2941293 C22.3732344,36.6417873 21.8387345,36.8156137 21.1460227,36.8156137 L20.712429,36.8156137 L20.712429,38.7101449 L19.1694602,38.7101449 L19.1694602,32.9992074 L21.1460227,32.9992074 C21.8673805,32.9992074 22.4090417,33.1567579 22.7710227,33.4718637 C23.1330037,33.7869694 23.3139915,34.2348816 23.3139915,34.8156137 L23.3139915,34.8156137 Z M20.712429,35.5578012 L20.993679,35.5578012 C21.225451,35.5578012 21.4096939,35.4926977 21.5464133,35.3624887 C21.6831328,35.2322797 21.7514915,35.052594 21.7514915,34.8234262 C21.7514915,34.4380076 21.5379519,34.2453012 21.1108665,34.2453012 L20.712429,34.2453012 L20.712429,35.5578012 Z M26.593679,38.7101449 L25.0507102,38.7101449 L25.0507102,34.2609262 L23.656179,34.2609262 L23.656179,32.9992074 L27.984304,32.9992074 L27.984304,34.2609262 L26.593679,34.2609262 L26.593679,38.7101449 Z M30.6897727,35.1163949 L31.6741477,32.9992074 L33.3460227,32.9992074 L31.4671165,36.4796762 L31.4671165,38.7101449 L29.912429,38.7101449 L29.912429,36.5265512 L28.0335227,32.9992074 L29.7132102,32.9992074 L30.6897727,35.1163949 Z" id="EMPTY" sketch:type="MSShapeGroup"></path>
        </g>
    </g>
</svg>