<?xml version="1.0" encoding="UTF-8" standalone="no"?>
<svg width="60px" height="34px" viewBox="0 0 60 34" version="1.1" xmlns="http://www.w3.org/2000/svg" xmlns:xlink="http://www.w3.org/1999/xlink" xmlns:sketch="http://www.bohemiancoding.com/sketch/ns">
    <!-- Generator: Sketch 3.3 (11970) - http://www.bohemiancoding.com/sketch -->
    <title>list</title>
    <desc>Created with Sketch.</desc>
    <defs></defs>
    <g id="Icons" stroke="none" stroke-width="1" fill="none" fill-rule="evenodd" sketch:type="MSPage">
        <path d="M10.8558186,2.98437002 C10.8558186,1.33614797 12.1950415,0 13.8340637,0 L56.0693838,0 C57.7142232,0 59.047629,1.33950177 59.047629,2.98437002 C59.047629,4.63259207 57.7084061,5.96874004 56.0693838,5.96874004 L13.8340637,5.96874004 C12.1892243,5.96874004 10.8558186,4.62923827 10.8558186,2.98437002 Z M10.8558186,16.5135141 C10.8558186,14.8652921 12.1950415,13.5291441 13.8340637,13.5291441 L56.0693838,13.5291441 C57.7142232,13.5291441 59.047629,14.8686459 59.047629,16.5135141 C59.047629,18.1617362 57.7084061,19.4978841 56.0693838,19.4978841 L13.8340637,19.4978841 C12.1892243,19.4978841 10.8558186,18.1583824 10.8558186,16.5135141 Z M10.8558186,30.0426582 C10.8558186,28.3944362 12.1950415,27.0582882 13.8340637,27.0582882 L56.0693838,27.0582882 C57.7142232,27.0582882 59.047629,28.39779 59.047629,30.0426582 C59.047629,31.6908803 57.7084061,33.0270282 56.0693838,33.0270282 L13.8340637,33.0270282 C12.1892243,33.0270282 10.8558186,31.6875265 10.8558186,30.0426582 Z M0.847628198,2.98437002 C0.847628198,1.33614797 2.18031329,0 3.83249288,0 L3.86767774,0 C5.51617298,0 6.85254242,1.33950177 6.85254242,2.98437002 C6.85254242,4.63259207 5.51985733,5.96874004 3.86767774,5.96874004 L3.83249288,5.96874004 C2.18399763,5.96874004 0.847628198,4.62923827 0.847628198,2.98437002 Z M0.847628198,16.5135141 C0.847628198,14.8652921 2.18031329,13.5291441 3.83249288,13.5291441 L3.86767774,13.5291441 C5.51617298,13.5291441 6.85254242,14.8686459 6.85254242,16.5135141 C6.85254242,18.1617362 5.51985733,19.4978841 3.86767774,19.4978841 L3.83249288,19.4978841 C2.18399763,19.4978841 0.847628198,18.1583824 0.847628198,16.5135141 Z M0.847628198,30.0426582 C0.847628198,28.3944362 2.18031329,27.0582882 3.83249288,27.0582882 L3.86767774,27.0582882 C5.51617298,27.0582882 6.85254242,28.39779 6.85254242,30.0426582 C6.85254242,31.6908803 5.51985733,33.0270282 3.86767774,33.0270282 L3.83249288,33.0270282 C2.18399763,33.0270282 0.847628198,31.6875265 0.847628198,30.0426582 Z" id="list" fill="#383E49" sketch:type="MSShapeGroup"></path>
    </g>
</svg>