<?xml version="1.0" encoding="UTF-8" standalone="no"?>
<svg width="68px" height="63px" viewBox="0 0 68 63" version="1.1" xmlns="http://www.w3.org/2000/svg" xmlns:xlink="http://www.w3.org/1999/xlink" xmlns:sketch="http://www.bohemiancoding.com/sketch/ns">
    <!-- Generator: Sketch 3.4.2 (15855) - http://www.bohemiancoding.com/sketch -->
    <title>phone</title>
    <desc>Created with Sketch.</desc>
    <defs></defs>
    <g id="Icons" stroke="none" stroke-width="1" fill="none" fill-rule="evenodd" sketch:type="MSPage">
        <g id="phone" sketch:type="MSLayerGroup" fill="#383E49">
            <path d="M36.7684653,32.3747403 C39.2003917,32.3747403 41.2112158,30.4751641 41.2112158,28.0850992 C41.2112158,25.6931049 39.2010616,23.7928497 36.7684653,23.7928497 C34.3358689,23.7928497 32.3257148,25.6931049 32.3257148,28.0850992 C32.3257148,30.4751641 34.3365389,32.3747403 36.7684653,32.3747403 L36.7684653,32.3747403 Z M36.7684653,19.3328428 C41.9572569,19.3328428 46.1266384,23.273256 46.1266384,28.0850992 C46.1266384,29.7565191 47.5190684,31.0705506 49.1892965,31.0705506 C50.8595246,31.0705506 52.2519547,29.7565191 52.2519547,28.0850992 C52.2519547,19.9306615 45.2991403,13.3593317 36.7684653,13.3593317 C35.0977809,13.3593317 33.7058071,14.6738409 33.7058071,16.3460873 C33.7058071,18.0183336 35.0977809,19.3328428 36.7684653,19.3328428 L36.7684653,19.3328428 Z M36.7684653,6.29094529 C49.5790337,6.29094529 59.927562,16.0710736 59.927562,28.0850992 C59.927562,29.7565191 61.319992,31.0705506 62.9902201,31.0705506 C64.6604482,31.0705506 66.0528783,29.7565191 66.0528783,28.0850992 C66.0528783,12.7267264 52.9218305,0.317434211 36.7684653,0.317434211 C35.0980148,0.317434211 33.7058071,1.63307296 33.7058071,3.30418975 C33.7058071,4.97643607 35.0977809,6.29094529 36.7684653,6.29094529 L36.7684653,6.29094529 Z" id="Shape" sketch:type="MSShapeGroup"></path>
            <path d="M51.6253129,57.2952303 C50.0421635,57.2952303 48.5068946,56.9824994 47.0487137,56.3631233 C46.7448383,56.2342982 46.4330267,56.1334227 46.1132908,56.0604029 L45.5513731,58.520903 L46.6024602,56.2263381 C29.6450749,48.458552 15.6033898,35.8550558 6.97281839,20.6766656 L4.77884441,21.9241793 L7.19947057,21.2097696 C7.103453,20.8844344 6.97441418,20.5672402 6.81391927,20.2654782 C6.16942847,19.0414858 5.84592893,17.7633116 5.84592893,16.4547697 C5.84592893,11.8351559 10.5457377,7.27713816 14.0561319,7.27713816 C13.8277631,7.27713816 13.6188124,7.18245198 13.4542396,7.03470644 C13.3489051,6.94014223 13.2930149,6.87435657 13.2749426,6.84829908 C13.3976122,7.02009818 13.5013345,7.15338305 13.6132185,7.28322538 L23.7153481,18.9430543 C23.8439762,19.0958147 23.9958145,19.2488572 24.1723793,19.4101014 C23.9690504,19.2295093 23.7997709,18.9274831 23.7997709,18.5197368 C23.7997709,18.2384204 23.8875141,17.9684044 24.0281907,17.7658099 L26.1012714,19.2053059 L24.4223997,17.3208425 L21.0059044,20.3646041 C20.9749762,20.3923454 20.9749762,20.3923454 20.9512079,20.4136834 C19.2113843,21.8813063 18.1689941,24.0307393 18.1689941,26.3060395 C18.1689941,28.4234004 19.0692814,30.4391372 20.6405605,31.9305934 L22.3780889,30.1000724 L20.2963639,31.5270388 C20.3746575,31.6412572 20.4579455,31.7526962 20.5468168,31.8609749 C24.4700342,36.7287046 29.3009439,41.0493971 34.8872755,44.6885618 C34.99341,44.7560982 35.0545201,44.793847 35.1290699,44.8368717 L36.3906267,42.6509424 L34.7435418,44.5632509 C36.3472175,45.9445082 38.4569904,46.7125033 40.6367108,46.7125033 C42.8444543,46.7125033 44.9837625,45.9203449 46.5981364,44.49432 L44.9272646,42.6027599 L46.4539396,44.6125051 C46.5782071,44.518107 46.6960396,44.4187124 46.8104975,44.3131032 L50.226987,41.2228325 L48.533906,39.351125 L49.7677039,41.5528414 C49.6354042,41.6269795 49.4688614,41.6712303 49.3021574,41.6712303 C49.0736386,41.6712303 48.8679914,41.5780411 48.7088041,41.4364296 C48.8463473,41.5623289 49.0170316,41.6994313 49.1977149,41.8291983 L62.208895,50.9125552 C62.3667194,51.0208627 62.5101541,51.1107147 62.658451,51.1956449 C62.6723795,51.2035869 62.6154595,51.1643654 62.541192,51.1004696 C62.2792919,50.8643111 62.1126683,50.5682738 62.1126683,50.1605395 C62.1126683,50.350618 62.1227331,50.5368927 62.1444328,50.7261362 L64.6518513,50.4386217 L62.1330152,50.2796345 C61.945492,53.2505687 56.9364012,57.2952303 51.6253129,57.2952303 L51.6253129,57.2952303 Z M51.6253129,62.3429276 C59.4510399,62.3429276 66.804091,56.405602 67.1706874,50.5976089 L67.1848109,50.3738509 L67.1592699,50.1511072 C67.1600858,50.1582229 67.1603657,50.163403 67.1603657,50.1605395 C67.1603657,48.9366511 66.6304612,47.995179 65.8817645,47.3168688 C65.6420521,47.1095387 65.4211357,46.9573132 65.1441809,46.8025017 C65.1355018,46.7973739 65.1073684,46.7797503 65.0806682,46.7614458 L52.1146718,37.7097968 C52.1159192,37.7104141 52.0981953,37.6961773 52.0882402,37.6870861 C51.3657937,37.0441174 50.4376602,36.6235329 49.3021574,36.6235329 C48.5971245,36.6235329 47.9152055,36.8047203 47.3001081,37.1494086 L47.0518621,37.2885208 L46.840825,37.4794175 L43.4059284,40.5865047 C43.3874871,40.6033527 43.3920754,40.5994824 43.4005897,40.5930146 L43.2563929,40.7111997 C42.5742734,41.3137364 41.6261726,41.6648059 40.6367108,41.6648059 C39.6548261,41.6648059 38.7164177,41.3232084 38.0377115,40.738634 L37.8578175,40.58369 L37.6521835,40.4650132 C37.6551729,40.4667385 37.6605681,40.4700712 37.6128651,40.4401302 C32.4940428,37.1052272 28.0610663,33.1404402 24.462736,28.6759597 C24.454453,28.6657106 24.457973,28.6704203 24.4598139,28.6731059 L24.309036,28.4531442 L24.1156173,28.2695513 C23.5301094,27.713788 23.2166915,27.0120475 23.2166915,26.3060395 C23.2166915,25.5493657 23.5810345,24.7980817 24.2655507,24.2200626 C24.3470394,24.1484655 24.3470394,24.1484655 24.3708077,24.1271275 L27.780143,21.0897693 L28.0036332,20.8906615 L28.174352,20.644802 C28.6102589,20.0170336 28.8474683,19.2870585 28.8474683,18.5197368 C28.8474683,17.2952181 28.3088347,16.334195 27.5518154,15.6607579 C27.547729,15.6567354 27.5404891,15.649438 27.5516919,15.6627137 L17.4326549,3.98305751 C17.4299716,3.97992951 17.4179378,3.96446588 17.400821,3.9405622 C17.2317849,3.69633732 17.0394159,3.46990899 16.8263028,3.27858632 C16.1296866,2.65319801 15.1945517,2.22944079 14.0561319,2.22944079 C7.79198887,2.22944079 0.798231563,9.01219963 0.798231563,16.4547697 C0.798231563,18.5926542 1.32564338,20.6765032 2.35246392,22.626528 C2.35701097,22.6351232 2.35768277,22.6367746 2.35821824,22.6385889 L2.44075078,22.918233 L2.58487042,23.1716929 C11.74802,39.2867163 26.5960094,52.6139328 44.5002859,60.8154679 L44.7363355,60.9235967 L44.9894553,60.981403 C45.0193428,60.9882286 45.047954,60.9974847 45.0769174,61.0097634 C47.157441,61.8934862 49.363854,62.3429276 51.6253129,62.3429276 L51.6253129,62.3429276 Z" id="Shape" sketch:type="MSShapeGroup"></path>
        </g>
    </g>
</svg>