<?xml version="1.0" encoding="UTF-8" standalone="no"?>
<svg width="68px" height="63px" viewBox="0 0 68 63" version="1.1" xmlns="http://www.w3.org/2000/svg" xmlns:xlink="http://www.w3.org/1999/xlink" xmlns:sketch="http://www.bohemiancoding.com/sketch/ns">
    <!-- Generator: Sketch 3.3 (11970) - http://www.bohemiancoding.com/sketch -->
    <title>phone</title>
    <desc>Created with Sketch.</desc>
    <defs></defs>
    <g id="Icons" stroke="none" stroke-width="1" fill="none" fill-rule="evenodd" sketch:type="MSPage">
        <g id="phone" sketch:type="MSLayerGroup" transform="translate(3.000000, 2.000000)" stroke="#383E49">
            <path d="M33.7684653,28.6921745 C35.2920872,28.6921745 36.52865,27.5236205 36.52865,26.0850992 C36.52865,24.6439695 35.2920872,23.4754155 33.7684653,23.4754155 C32.2448433,23.4754155 31.0082806,24.6439695 31.0082806,26.0850992 C31.0082806,27.5236205 32.2448433,28.6921745 33.7684653,28.6921745 Z M33.7684653,15.650277 C39.8657133,15.650277 44.8092042,20.3218847 44.8092042,26.0850992 C44.8092042,26.8050119 45.4274855,27.3879848 46.1892965,27.3879848 C46.9511075,27.3879848 47.5693889,26.8050119 47.5693889,26.0850992 C47.5693889,18.8820592 41.3907154,13.0418975 33.7684653,13.0418975 C33.0066543,13.0418975 32.3883729,13.6248703 32.3883729,14.3460873 C32.3883729,15.0673042 33.0066543,15.650277 33.7684653,15.650277 Z M33.7684653,2.6083795 C47.4879634,2.6083795 58.6101278,13.1201489 58.6101278,26.0850992 C58.6101278,26.8050119 59.2284092,27.3879848 59.9902201,27.3879848 C60.7520311,27.3879848 61.3703125,26.8050119 61.3703125,26.0850992 C61.3703125,11.677715 49.0129655,0 33.7684653,0 C33.0066543,0 32.3883729,0.584277008 32.3883729,1.30418975 C32.3883729,2.02540668 33.0066543,2.6083795 33.7684653,2.6083795 Z" id="Path" stroke-width="3.36513158" fill="#D5D9DE" sketch:type="MSShapeGroup"></path>
            <path d="M48.6253129,57.8190789 C46.7023842,57.8190789 44.8315923,57.4377484 43.0620072,56.6861003 C42.8963962,56.6158914 42.7261848,56.5608257 42.5513731,56.520903 C25.1208065,48.5363635 10.6758398,35.5711234 1.77884441,19.9241793 C1.73130789,19.7631118 1.66690358,19.6034211 1.58563148,19.4506135 C0.748375443,17.8605888 0.322080247,16.1797056 0.322080247,14.4547697 C0.322080247,7.77804276 6.83458276,2.75328947 11.0561319,2.75328947 C11.6081689,2.75328947 11.9731266,3.00659211 12.1402712,3.15664638 C12.1801405,3.19243914 12.2476117,3.26402467 12.3488185,3.40994901 C12.4040222,3.48704112 12.4622927,3.56275658 12.5251636,3.63571875 L22.6228394,15.2903931 C22.6995112,15.3812516 22.7853836,15.465227 22.8743229,15.546449 C23.0430008,15.6965033 23.3236196,16.0255214 23.3236196,16.5197368 C23.3236196,16.763403 23.2484812,16.9933026 23.1012714,17.2053059 L19.6847761,20.2490674 C19.6679083,20.2642105 19.6541074,20.2766003 19.6372396,20.2917434 C18.3982233,21.3379934 17.6928428,22.7876003 17.6928428,24.3060395 C17.6928428,25.7281135 18.3077506,27.0841086 19.3780889,28.1000724 C19.4148913,28.1537615 19.4547607,28.2074507 19.4976969,28.2597632 C23.2668825,32.9362253 27.8993925,37.0785493 33.2648849,40.5738503 C33.3062877,40.6000066 33.3476904,40.6261628 33.3906267,40.6509424 C34.5238358,41.6269836 36.0450043,42.1886546 37.6367108,42.1886546 C39.2391514,42.1886546 40.781788,41.6145938 41.9272646,40.6027599 C41.9870686,40.5573306 42.0438058,40.509148 42.0990095,40.4582122 L45.533906,37.351125 C45.7746554,37.2162138 46.0322727,37.1473816 46.3021574,37.1473816 C46.8526609,37.1473816 47.2176187,37.4006842 47.3862966,37.5507385 C47.4752359,37.6319605 47.5703089,37.707676 47.6699823,37.7792615 L60.6535845,46.8430905 C60.7379235,46.9009095 60.8237959,46.9545987 60.9127352,47.0055345 C61.0752794,47.0963931 61.1504178,47.1555888 61.1872202,47.1872516 C61.3543648,47.3386826 61.636517,47.6649474 61.636517,48.1605395 C61.636517,48.2541513 61.6411173,48.3450099 61.6518513,48.4386217 C61.4126353,52.2285247 55.8983996,57.8190789 48.6253129,57.8190789 L48.6253129,57.8190789 Z" id="Path" stroke-width="5.04769737" sketch:type="MSShapeGroup"></path>
        </g>
    </g>
</svg>