<?xml version="1.0" encoding="UTF-8" standalone="no"?>
<svg width="35px" height="67px" viewBox="0 0 35 67" version="1.1" xmlns="http://www.w3.org/2000/svg" xmlns:xlink="http://www.w3.org/1999/xlink" xmlns:sketch="http://www.bohemiancoding.com/sketch/ns">
    <!-- Generator: Sketch 3.3 (11970) - http://www.bohemiancoding.com/sketch -->
    <title>question-mark</title>
    <desc>Created with Sketch.</desc>
    <defs></defs>
    <g id="Icons" stroke="none" stroke-width="1" fill="none" fill-rule="evenodd" sketch:type="MSPage">
        <path d="M0.1,9.75955783 C2.40367644,6.93755419 4.96647804,4.72029888 7.78848168,3.10772537 C10.6104853,1.49515187 14.0083571,0.688877205 17.982199,0.688877205 C20.4010592,0.688877205 22.6039168,1.06321901 24.5908377,1.81191385 C26.5777586,2.5606087 28.2910923,3.56845202 29.7308901,4.83547406 C31.1706878,6.10249611 32.2937132,7.58546557 33.1,9.28442694 C33.9062868,10.9833883 34.3094241,12.8119041 34.3094241,14.770029 C34.3094241,17.2464812 33.891889,19.3485544 33.0568063,21.0763118 C32.2217236,22.8040691 31.170687,24.3446296 29.9036649,25.6980395 C28.6366429,27.0514494 27.2688555,28.3040547 25.8002618,29.4558929 C24.331668,30.6077311 22.9638807,31.8171431 21.6968586,33.0841652 C20.4298366,34.3511872 19.3788,35.7621679 18.5437173,37.3171495 C17.7086346,38.8721311 17.2910995,40.7438401 17.2910995,42.9323327 L17.2910995,47.770029 L10.5528796,47.770029 C10.26492,46.7909666 10.0489536,45.7255322 9.90497382,44.573694 C9.76099404,43.4218557 9.68900524,42.3564214 9.68900524,41.3773589 C9.68900524,38.9584986 10.0921426,36.8564254 10.8984293,35.0710762 C11.7047161,33.2857269 12.7125594,31.7163709 13.9219895,30.362961 C15.1314197,29.0095511 16.4272182,27.7857413 17.8094241,26.691495 C19.1916299,25.5972487 20.4874285,24.488621 21.6968586,23.3655788 C22.9062888,22.2425365 23.9141321,21.0475223 24.7204188,19.7805002 C25.5267056,18.5134782 25.9298429,17.0449065 25.9298429,15.3747411 C25.9298429,13.3590242 25.1523638,11.5880995 23.5973822,10.0619139 C22.0424006,8.53572821 19.9403274,7.77264684 17.2910995,7.77264684 C14.8722392,7.77264684 12.7269727,8.34855731 10.8552356,9.50039553 C8.98349849,10.6522337 7.27016484,12.2359875 5.71518325,14.2517044 L0.1,9.75955783 Z M8.56596859,60.9009191 C8.56596859,59.1155698 9.06989025,57.7045892 10.0777487,56.6679348 C11.0856071,55.6312804 12.5109855,55.112961 14.3539267,55.112961 C15.8513164,55.112961 17.1903082,55.6888714 18.3709424,56.8407097 C19.5515766,57.9925479 20.1418848,59.3459375 20.1418848,60.9009191 C20.1418848,62.6286764 19.5947699,64.0252593 18.5005236,65.0907097 C17.4062773,66.15616 16.0240921,66.6888772 14.3539267,66.6888772 C12.7989451,66.6888772 11.4455555,66.1129667 10.2937173,64.9611285 C9.14187906,63.8092903 8.56596859,62.4559007 8.56596859,60.9009191 L8.56596859,60.9009191 Z" id="question-mark" fill="#383E49" sketch:type="MSShapeGroup"></path>
    </g>
</svg>