<?xml version="1.0" encoding="UTF-8" standalone="no"?>
<svg width="65px" height="65px" viewBox="0 0 65 65" version="1.1" xmlns="http://www.w3.org/2000/svg" xmlns:xlink="http://www.w3.org/1999/xlink" xmlns:sketch="http://www.bohemiancoding.com/sketch/ns">
    <!-- Generator: Sketch 3.2.2 (9983) - http://www.bohemiancoding.com/sketch -->
    <title>reload</title>
    <desc>Created with Sketch.</desc>
    <defs></defs>
    <g id="Icons" stroke="none" stroke-width="1" fill="none" fill-rule="evenodd" sketch:type="MSPage">
        <path d="M49.7672149,15.9985302 C42.7885194,8.72717946 31.9510712,6.48875602 22.424616,10.7993768 C11.3487783,15.792984 5.75088206,27.8974879 9.1496048,39.5625543 C12.5483275,51.2276207 23.7441201,58.458364 35.7795971,56.7405631 C47.8150741,55.0227622 56.5717833,44.9556501 56.5717833,32.8111973 L64.3688531,32.8511462 C64.3688531,48.910587 52.7732108,62.1736077 36.8991763,64.4506926 C20.9851569,66.7277775 6.15073179,57.1400517 1.67241477,41.7197926 C-2.80590225,26.3394824 4.55133286,10.3199905 19.1858331,3.68848012 C32.2202495,-2.21796463 47.0626684,1.12927328 56.2547562,11.5003598 L59.7253193,9.09402698 L64.5215344,5.76854644 L60.103411,26.554183 L40.5404589,22.3959491 L49.7672149,15.9985302 Z" id="reload" fill="#383E49" sketch:type="MSShapeGroup"></path>
    </g>
</svg>