<?xml version="1.0" encoding="UTF-8" standalone="no"?>
<svg width="59px" height="68px" viewBox="0 0 59 68" version="1.1" xmlns="http://www.w3.org/2000/svg" xmlns:xlink="http://www.w3.org/1999/xlink" xmlns:sketch="http://www.bohemiancoding.com/sketch/ns">
    <!-- Generator: Sketch 3.4.2 (15855) - http://www.bohemiancoding.com/sketch -->
    <title>rfq</title>
    <desc>Created with Sketch.</desc>
    <defs></defs>
    <g id="Icons" stroke="none" stroke-width="1" fill="none" fill-rule="evenodd" sketch:type="MSPage">
        <path d="M31.7692308,2.26666667 L43.1288632,2.26666667 C45.6279423,2.26666667 47.6538462,4.30272408 47.6538462,6.79526974 L47.6538462,9.06666667 L52.2031555,9.06666667 C55.9569491,9.06666667 59,12.1110796 59,15.8702302 L59,61.1964364 C59,64.9539408 55.9521431,68 52.2031555,68 L6.79684449,68 C3.04305093,68 0,64.955587 0,61.1964364 L0,15.8702302 C0,12.1127258 3.04785688,9.06666667 6.79684449,9.06666667 L11.3461538,9.06666667 L11.3461538,6.79526974 C11.3461538,4.29419133 13.376012,2.26666667 15.8711368,2.26666667 L27.2307692,2.26666667 L27.2307692,2.26430154 C27.2307692,1.01376233 28.2380009,0 29.5,0 C30.7532615,0 31.7692308,1.01802871 31.7692308,2.26430154 L31.7692308,2.26666667 Z M11.9523411,13.6 L9.07897672,13.6 C6.57293044,13.6 4.53846154,15.6305609 4.53846154,18.1353847 L4.53846154,58.931282 C4.53846154,61.4344966 6.57131943,63.4666667 9.07897672,63.4666667 L49.9210233,63.4666667 C52.4270696,63.4666667 54.4615385,61.4361058 54.4615385,58.931282 L54.4615385,18.1353847 C54.4615385,15.6321701 52.4286806,13.6 49.9210233,13.6 L47.0489869,13.6 C46.2660492,14.9549068 44.8020693,15.8666667 43.1288632,15.8666667 L15.8711368,15.8666667 C14.1968429,15.8666667 12.7349347,14.9527777 11.9523411,13.6 Z M11.3461538,31.7333333 C11.3461538,30.4814879 12.3610829,29.4666667 13.6086453,29.4666667 L27.2375085,29.4666667 C28.4870481,29.4666667 29.5,30.4727603 29.5,31.7333333 C29.5,32.9851788 28.4850709,34 27.2375085,34 L13.6086453,34 C12.3591058,34 11.3461538,32.9939064 11.3461538,31.7333333 Z M11.3461538,40.8 C11.3461538,39.5481546 12.3551239,38.5333333 13.6173626,38.5333333 L45.3826374,38.5333333 C46.6369914,38.5333333 47.6538462,39.5394269 47.6538462,40.8 C47.6538462,42.0518454 46.6448761,43.0666667 45.3826374,43.0666667 L13.6173626,43.0666667 C12.3630086,43.0666667 11.3461538,42.0605731 11.3461538,40.8 Z M11.3461538,49.8666667 C11.3461538,48.6148212 12.3639336,47.6 13.6209971,47.6 L36.3020798,47.6 C37.5584411,47.6 38.5769231,48.6060936 38.5769231,49.8666667 C38.5769231,51.1185121 37.5591433,52.1333333 36.3020798,52.1333333 L13.6209971,52.1333333 C12.3646359,52.1333333 11.3461538,51.1272397 11.3461538,49.8666667 Z M4.53846154,18.1333333 L54.4615385,18.1333333 L54.4615385,22.6666667 L4.53846154,22.6666667 L4.53846154,18.1333333 Z M15.8846154,9.06666667 C15.8846154,7.81482123 16.9023951,6.8 18.1594586,6.8 L40.8405414,6.8 C42.0969026,6.8 43.1153846,7.8060936 43.1153846,9.06666667 C43.1153846,10.3185121 42.0976049,11.3333333 40.8405414,11.3333333 L18.1594586,11.3333333 C16.9030974,11.3333333 15.8846154,10.3272397 15.8846154,9.06666667 Z" id="rfq" fill="#383E49" sketch:type="MSShapeGroup"></path>
    </g>
</svg>