<?xml version="1.0" encoding="UTF-8" standalone="no"?>
<svg width="64px" height="69px" viewBox="0 0 64 69" version="1.1" xmlns="http://www.w3.org/2000/svg" xmlns:xlink="http://www.w3.org/1999/xlink" xmlns:sketch="http://www.bohemiancoding.com/sketch/ns">
    <!-- Generator: Sketch 3.4.2 (15855) - http://www.bohemiancoding.com/sketch -->
    <title>rfq</title>
    <desc>Created with Sketch.</desc>
    <defs></defs>
    <g id="Icons" stroke="none" stroke-width="1" fill="none" fill-rule="evenodd" sketch:type="MSPage">
        <path d="M59,42.8658465 L59,15.8702302 C59,12.1110796 55.9569491,9.06666667 52.2031555,9.06666667 L47.6538462,9.06666667 L47.6538462,6.79526974 C47.6538462,4.30272408 45.6279423,2.26666667 43.1288632,2.26666667 L31.7692308,2.26666667 L31.7692308,2.26430154 C31.7692308,1.01802871 30.7532615,0 29.5,0 C28.2380009,0 27.2307692,1.01376233 27.2307692,2.26430154 L27.2307692,2.26666667 L15.8711368,2.26666667 C13.376012,2.26666667 11.3461538,4.29419133 11.3461538,6.79526974 L11.3461538,9.06666667 L6.79684449,9.06666667 C3.04785688,9.06666667 0,12.1127258 0,15.8702302 L0,61.1964364 C0,64.955587 3.04305093,68 6.79684449,68 L43.798897,68 C45.3581955,68.5491221 47.035528,68.8478261 48.7826087,68.8478261 C57.0666996,68.8478261 63.7826087,62.131917 63.7826087,53.8478261 C63.7826087,49.5112989 61.9422637,45.6044969 59,42.8658465 Z M37.2723522,63.4666667 L9.07897672,63.4666667 C6.57131943,63.4666667 4.53846154,61.4344966 4.53846154,58.931282 L4.53846154,18.1353847 C4.53846154,15.6305609 6.57293044,13.6 9.07897672,13.6 L11.9523411,13.6 C12.7349347,14.9527777 14.1968429,15.8666667 15.8711368,15.8666667 L43.1288632,15.8666667 C44.8020693,15.8666667 46.2660492,14.9549068 47.0489869,13.6 L49.9210233,13.6 C52.4286806,13.6 54.4615385,15.6321701 54.4615385,18.1353847 L54.4615385,39.9601784 C52.7098666,39.2431124 50.7923878,38.8478261 48.7826087,38.8478261 C48.0920481,38.8478261 47.4123845,38.894494 46.7465999,38.9848481 C46.3667963,38.7008617 45.8944903,38.5333333 45.3826374,38.5333333 L13.6173626,38.5333333 C12.3551239,38.5333333 11.3461538,39.5481546 11.3461538,40.8 C11.3461538,42.0605731 12.3630086,43.0666667 13.6173626,43.0666667 L38.3536048,43.0666667 C37.0201351,44.3568488 35.9253106,45.8921766 35.141781,47.6 L13.6209971,47.6 C12.3639336,47.6 11.3461538,48.6148212 11.3461538,49.8666667 C11.3461538,51.1272397 12.3646359,52.1333333 13.6209971,52.1333333 L33.8795272,52.1333333 C33.8155031,52.6959736 33.7826087,53.2680594 33.7826087,53.8478261 C33.7826087,57.5083379 35.0938986,60.8626601 37.2723522,63.4666667 Z M11.3461538,31.7333333 C11.3461538,30.4814879 12.3610829,29.4666667 13.6086453,29.4666667 L27.2375085,29.4666667 C28.4870481,29.4666667 29.5,30.4727603 29.5,31.7333333 C29.5,32.9851788 28.4850709,34 27.2375085,34 L13.6086453,34 C12.3591058,34 11.3461538,32.9939064 11.3461538,31.7333333 Z M4.53846154,18.1333333 L54.4615385,18.1333333 L54.4615385,22.6666667 L4.53846154,22.6666667 L4.53846154,18.1333333 Z M15.8846154,9.06666667 C15.8846154,7.81482123 16.9023951,6.8 18.1594586,6.8 L40.8405414,6.8 C42.0969026,6.8 43.1153846,7.8060936 43.1153846,9.06666667 C43.1153846,10.3185121 42.0976049,11.3333333 40.8405414,11.3333333 L18.1594586,11.3333333 C16.9030974,11.3333333 15.8846154,10.3272397 15.8846154,9.06666667 Z M50.6005859,57.6777344 L48.359375,57.6777344 C48.3535156,57.3554671 48.3505859,57.15918 48.3505859,57.0888672 C48.3505859,56.3623011 48.4707019,55.7646508 48.7109375,55.2958984 C48.9511731,54.8271461 49.431637,54.2998076 50.1523438,53.7138672 C50.8730505,53.1279268 51.3037102,52.7441415 51.4443359,52.5625 C51.6611339,52.2753892 51.7695312,51.9589861 51.7695312,51.6132812 C51.7695312,51.1328101 51.5776386,50.7211931 51.1938477,50.378418 C50.8100567,50.0356428 50.292972,49.8642578 49.6425781,49.8642578 C49.0156219,49.8642578 48.491213,50.042967 48.0693359,50.4003906 C47.6474588,50.7578143 47.3574227,51.3027307 47.1992188,52.0351562 L44.9316406,51.7539062 C44.9960941,50.7050729 45.4428669,49.8144568 46.2719727,49.0820312 C47.1010784,48.3496057 48.1894464,47.9833984 49.5371094,47.9833984 C50.9550852,47.9833984 52.0830036,48.3540002 52.9208984,49.0952148 C53.7587933,49.8364295 54.1777344,50.6992138 54.1777344,51.6835938 C54.1777344,52.2285183 54.0239273,52.7441382 53.7163086,53.2304688 C53.4086899,53.7167993 52.7509816,54.3789021 51.7431641,55.2167969 C51.2216771,55.6503928 50.8979498,55.9990221 50.7719727,56.2626953 C50.6459955,56.5263685 50.5888671,56.9980435 50.6005859,57.6777344 L50.6005859,57.6777344 Z M48.359375,61 L48.359375,58.5302734 L50.8291016,58.5302734 L50.8291016,61 L48.359375,61 Z" id="rfq" fill="#383E49" sketch:type="MSShapeGroup"></path>
    </g>
</svg>