<?xml version="1.0" encoding="UTF-8" standalone="no"?>
<svg width="68px" height="68px" viewBox="0 0 68 68" version="1.1" xmlns="http://www.w3.org/2000/svg" xmlns:xlink="http://www.w3.org/1999/xlink" xmlns:sketch="http://www.bohemiancoding.com/sketch/ns">
    <!-- Generator: Sketch 3.3 (11970) - http://www.bohemiancoding.com/sketch -->
    <title>search</title>
    <desc>Created with Sketch.</desc>
    <defs></defs>
    <g id="Icons" stroke="none" stroke-width="1" fill="none" fill-rule="evenodd" sketch:type="MSPage">
        <path d="M66.4723603,57.5304002 L50.2084693,41.2672618 C52.660749,37.2380594 54.0723808,32.5073402 54.0723808,27.4452296 C54.0723808,12.7409217 41.330683,0 26.6247514,0 C11.921402,0 0,11.9214813 0,26.6266499 C0,41.3318186 12.740837,54.0718795 27.4441864,54.0718795 C32.3341131,54.0718795 36.9124479,52.7480356 40.8495232,50.4480935 L57.2012108,66.7998899 C58.801347,68.4000367 61.3956507,68.4000367 62.9940654,66.7998899 L67.0499243,62.7457255 C68.651782,61.1447179 68.0716358,59.1305471 66.4723603,57.5304002 L66.4723603,57.5304002 Z M7.19348921,26.7582678 C7.19348921,15.9522471 15.9532535,7.19268293 26.7567801,7.19268293 C37.5639611,7.19268293 47.1934892,16.8210775 47.1934892,27.6270981 C47.1934892,38.4331187 38.4328113,47.1926829 27.6265439,47.1926829 C16.8230173,47.1926829 7.19348921,37.5642884 7.19348921,26.7582678 L7.19348921,26.7582678 Z" id="search" fill="#383E49" sketch:type="MSShapeGroup"></path>
    </g>
</svg>