<?xml version="1.0" encoding="UTF-8" standalone="no"?>
<svg width="68px" height="33px" viewBox="0 0 68 33" version="1.1" xmlns="http://www.w3.org/2000/svg" xmlns:xlink="http://www.w3.org/1999/xlink" xmlns:sketch="http://www.bohemiancoding.com/sketch/ns">
    <!-- Generator: Sketch 3.2.2 (9983) - http://www.bohemiancoding.com/sketch -->
    <title>sidebar-hide</title>
    <desc>Created with Sketch.</desc>
    <defs></defs>
    <g id="Icons" stroke="none" stroke-width="1" fill="none" fill-rule="evenodd" sketch:type="MSPage">
        <path d="M19.8476282,2.98192771 C19.8476282,1.33505451 21.1857551,7.10542736e-15 22.823436,7.10542736e-15 L65.0241922,7.10542736e-15 C66.6676854,7.10542736e-15 68,1.33840557 68,2.98192771 C68,4.62880091 66.6618731,5.96385542 65.0241922,5.96385542 L22.823436,5.96385542 C21.1799428,5.96385542 19.8476282,4.62544985 19.8476282,2.98192771 Z M19.8476282,16.5 C19.8476282,14.8531268 21.1857551,13.5180723 22.823436,13.5180723 L65.0241922,13.5180723 C66.6676854,13.5180723 68,14.8564779 68,16.5 C68,18.1468732 66.6618731,19.4819277 65.0241922,19.4819277 L22.823436,19.4819277 C21.1799428,19.4819277 19.8476282,18.1435221 19.8476282,16.5 Z M19.8476282,30.0180723 C19.8476282,28.3711991 21.1857551,27.0361446 22.823436,27.0361446 L65.0241922,27.0361446 C66.6676854,27.0361446 68,28.3745501 68,30.0180723 C68,31.6649455 66.6618731,33 65.0241922,33 L22.823436,33 C21.1799428,33 19.8476282,31.6615944 19.8476282,30.0180723 Z M15.4499235,32.1571938 L-0.00423757116,16.7030328 L15.4583987,1.24039651 L15.4499235,32.1571938 Z" id="sidebar-hide" fill="#383E49" sketch:type="MSShapeGroup"></path>
    </g>
</svg>