<?xml version="1.0" encoding="UTF-8" standalone="no"?>
<svg width="68px" height="68px" viewBox="0 0 68 68" version="1.1" xmlns="http://www.w3.org/2000/svg" xmlns:xlink="http://www.w3.org/1999/xlink" xmlns:sketch="http://www.bohemiancoding.com/sketch/ns">
    <!-- Generator: Sketch 3.3 (11970) - http://www.bohemiancoding.com/sketch -->
    <title>warning</title>
    <desc>Created with Sketch.</desc>
    <defs></defs>
    <g id="Icons" stroke="none" stroke-width="1" fill="none" fill-rule="evenodd" sketch:type="MSPage">
        <path d="M0,34 C0,52.785 15.215,68 34,68 C52.785,68 68,52.785 68,34 C68,15.215 52.785,0 34,0 C15.215,0 0,15.215 0,34 Z M6,34 C6,49.47 18.53,62 34,62 C49.47,62 62,49.47 62,34 C62,18.53 49.47,6 34,6 C18.53,6 6,18.53 6,34 Z M30.1810141,19.991155 C30.0810428,18.8914705 30.8867064,18 31.9981014,18 L36.0018986,18 C37.1054196,18 37.9191206,18.8896739 37.8189859,19.991155 L36.1810141,38.008845 C36.0810428,39.1085295 35.1122704,40 34,40 C32.8954305,40 31.9191206,39.1103261 31.8189859,38.008845 L30.1810141,19.991155 Z M34,51 C36.209139,51 38,49.209139 38,47 C38,44.790861 36.209139,43 34,43 C31.790861,43 30,44.790861 30,47 C30,49.209139 31.790861,51 34,51 Z" id="warning" fill="#383E49" sketch:type="MSShapeGroup"></path>
    </g>
</svg>