<?xml version="1.0" encoding="UTF-8"?>
<svg width="34px" height="34px" viewBox="0 0 34 34" version="1.1" xmlns="http://www.w3.org/2000/svg" xmlns:xlink="http://www.w3.org/1999/xlink">
    <title>arrow-long-left</title>
    <g id="arrow-long-left" stroke="none" stroke-width="1" fill="none" fill-rule="evenodd">
        <path d="M31.5,17 C31.5,18.1158508 30.5954242,19.0204265 29.4795735,19.0204265 L8.678,19.02 L13.6250618,24.0509162 C14.4049095,24.8437213 14.4049095,26.1154256 13.6250618,26.9082308 C12.9017981,27.6435118 11.7435783,27.69144 10.9637442,27.0453141 L10.8144467,26.9082308 L3.44390659,19.4149419 C3.01997515,19.4056646 2.5982577,19.2604204 2.24974116,18.9786245 L2.0935342,18.838056 L2.0935342,18.838056 L2.08209744,18.8265246 C1.59160155,18.327879 1.40960978,17.639783 1.53612212,17.0005515 C1.40942068,16.3609323 1.59134662,15.6723802 2.08209744,15.1734754 C2.45687033,14.7924755 2.94842861,14.5960292 3.44361366,14.5850691 L10.8144467,7.09176923 C11.5778917,6.31563931 12.8259637,6.30535612 13.6020937,7.0688011 L13.6250618,7.09176923 L13.6250618,7.09176923 C14.4049095,7.8845744 14.4049095,9.15627866 13.6250618,9.94908383 L8.678,14.979 L29.4795735,14.9795735 C30.5954242,14.9795735 31.5,15.8841492 31.5,17 Z" id="Path" fill="#000000"></path>
    </g>
</svg>