<?xml version="1.0" encoding="UTF-8"?>
<svg width="34px" height="34px" viewBox="0 0 34 34" version="1.1" xmlns="http://www.w3.org/2000/svg" xmlns:xlink="http://www.w3.org/1999/xlink">
    <title>arrow-long-up</title>
    <g id="arrow-long-up" stroke="none" stroke-width="1" fill="none" fill-rule="evenodd">
        <path d="M17.2362733,2 C17.7537124,2 18.2282001,2.18389689 18.5979451,2.48989935 C18.6774459,2.54848611 18.7535218,2.61406313 18.8257621,2.68584159 C19.1717924,3.02965967 19.3741782,3.46336679 19.4326801,3.91232965 L27.374065,11.8047129 C28.2033093,12.6286556 28.2076071,13.9688285 27.3836643,14.7980728 C27.3804748,14.8012828 27.377275,14.8044826 27.374065,14.8076721 C26.5379218,15.6384696 25.1879267,15.6384696 24.3517835,14.8076721 L19.373,9.86 L19.373349,29.8629243 C19.373349,31.0431986 18.4165476,32 17.2362733,32 C16.055999,32 15.0991976,31.0431986 15.0991976,29.8629243 L15.099,9.391 L9.64821647,14.8076721 C8.81207328,15.6384696 7.46207818,15.6384696 6.62593499,14.8076721 C5.79669068,13.9837294 5.79239291,12.6435565 6.61633565,11.8143122 C6.61952516,11.8111022 6.62272496,11.8079024 6.62593499,11.8047129 L14.5673396,3.91210252 C14.6252921,3.46763576 14.8243144,3.03795488 15.1646386,2.69544093 L15.1742379,2.68584159 L15.1742379,2.68584159 C15.6012318,2.26157761 16.1622303,2.05397283 16.7203689,2.06302725 C16.8853714,2.02175993 17.0582812,2 17.2362733,2 Z" id="Combined-Shape" fill="#000000"></path>
    </g>
</svg>