<?xml version="1.0" encoding="UTF-8"?>
<svg width="34px" height="34px" viewBox="0 0 34 34" version="1.1" xmlns="http://www.w3.org/2000/svg" xmlns:xlink="http://www.w3.org/1999/xlink">
    <title>arrow-long-right</title>
    <g id="arrow-long-right" stroke="none" stroke-width="1" fill="none" fill-rule="evenodd">
        <path d="M1.5,17 C1.5,15.8841492 2.40457577,14.9795735 3.52042653,14.9795735 L24.322,14.98 L19.3749382,9.94908383 C18.5950905,9.15627866 18.5950905,7.8845744 19.3749382,7.09176923 C20.0982019,6.35648825 21.2564217,6.30856002 22.0362558,6.95468588 L22.1855533,7.09176923 L29.5560934,14.5850581 C29.9800248,14.5943354 30.4017423,14.7395796 30.7502588,15.0213755 L30.9064658,15.161944 L30.9064658,15.161944 L30.9179026,15.1734754 C31.4083984,15.672121 31.5903902,16.360217 31.4638779,16.9994485 C31.5905793,17.6390677 31.4086534,18.3276198 30.9179026,18.8265246 C30.5431297,19.2075245 30.0515714,19.4039708 29.5563863,19.4149309 L22.1855533,26.9082308 C21.4221083,27.6843607 20.1740363,27.6946439 19.3979063,26.9311989 L19.3749382,26.9082308 L19.3749382,26.9082308 C18.5950905,26.1154256 18.5950905,24.8437213 19.3749382,24.0509162 L24.322,19.021 L3.52042653,19.0204265 C2.40457577,19.0204265 1.5,18.1158508 1.5,17 Z" id="Path" fill="#000000"></path>
    </g>
</svg>