<?xml version="1.0" encoding="UTF-8"?>
<svg width="34px" height="34px" viewBox="0 0 34 34" version="1.1" xmlns="http://www.w3.org/2000/svg" xmlns:xlink="http://www.w3.org/1999/xlink">
    <title>arrow-long-down</title>
    <g id="arrow-long-down" stroke="none" stroke-width="1" fill="none" fill-rule="evenodd">
        <path d="M16.5,2 C17.6158508,2 18.5204265,2.90457577 18.5204265,4.02042653 L18.52,24.822 L23.5509162,19.8749382 C24.3437213,19.0950905 25.6154256,19.0950905 26.4082308,19.8749382 C27.1843607,20.6383832 27.1946439,21.8864552 26.4311989,22.6625852 L26.4082308,22.6855533 L26.4082308,22.6855533 L18.9149419,30.0560934 C18.9043393,30.5405865 18.7161473,31.0221878 18.3494928,31.3949344 C18.3418999,31.4026534 18.3342436,31.4103097 18.3265246,31.4179026 C17.827879,31.9083984 17.139783,32.0903902 16.5005515,31.9638779 C15.8609323,32.0905793 15.1723802,31.9086534 14.6734754,31.4179026 C14.2924755,31.0431297 14.0960292,30.5515714 14.0850691,30.0563863 L6.59176923,22.6855533 C5.81563931,21.9221083 5.80535612,20.6740363 6.5688011,19.8979063 C6.57639393,19.8901873 6.58405024,19.882531 6.59176923,19.8749382 C7.3845744,19.0950905 8.65627866,19.0950905 9.44908383,19.8749382 L14.479,24.822 L14.4795735,4.02042653 C14.4795735,2.90457577 15.3841492,2 16.5,2 Z" id="Combined-Shape" fill="#000000"></path>
    </g>
</svg>