<?xml version="1.0" encoding="UTF-8"?>
<svg width="32px" height="32px" viewBox="0 0 32 32" version="1.1" xmlns="http://www.w3.org/2000/svg" xmlns:xlink="http://www.w3.org/1999/xlink">
    <title>close</title>
    <g id="close" stroke="none" stroke-width="1" fill="none" fill-rule="evenodd">
        <path d="M7.29717397,3.72005226 L16.041407,12.4638192 L24.7860016,3.72005226 C25.7623124,2.74374153 27.3452248,2.74374153 28.3215355,3.72005226 C29.2978463,4.69636299 29.2978463,6.27927544 28.3215355,7.25558617 L19.576407,15.9998192 L28.3215355,24.7444138 C29.2978463,25.7207246 29.2978463,27.303637 28.3215355,28.2799477 C27.3452248,29.2562585 25.7623124,29.2562585 24.7860016,28.2799477 L16.041407,19.5348192 L7.29717397,28.2799477 C6.32086324,29.2562585 4.7379508,29.2562585 3.76164007,28.2799477 C2.78532934,27.303637 2.78532934,25.7207246 3.76164007,24.7444138 L12.505407,15.9998192 L3.76164007,7.25558617 C2.78532934,6.27927544 2.78532934,4.69636299 3.76164007,3.72005226 C4.7379508,2.74374153 6.32086324,2.74374153 7.29717397,3.72005226 Z" id="Combined-Shape" fill="#000000"></path>
    </g>
</svg>