<?xml version="1.0" encoding="UTF-8"?>
<svg width="34px" height="34px" viewBox="0 0 34 34" version="1.1" xmlns="http://www.w3.org/2000/svg" xmlns:xlink="http://www.w3.org/1999/xlink">
    <title>download</title>
    <g id="download" stroke="none" stroke-width="1" fill="none" fill-rule="evenodd">
        <g id="Group-24" transform="translate(1.500000, 3.000000)" fill="#000000">
            <path d="M12.64476,27.18398 L14.05536,27.99818 L12.64476,28.81268 L11.23416,27.99818 L12.64476,27.18398 Z M18.00858,27.18398 L19.41918,27.99818 L18.00858,28.81268 L16.59798,27.99818 L18.00858,27.18398 Z M9.83607,25.53407 L11.24667,26.34827 L9.83607,27.16277 L8.42547,26.34827 L9.83607,25.53407 Z M20.81715,25.53407 L22.22775,26.34827 L20.81715,27.16277 L19.40655,26.34827 L20.81715,25.53407 Z M21.872,12.09297 L27.1749289,15.1541403 L27.1759919,15.1547551 C27.2056186,15.1720736 27.2344272,15.1914603 27.2618165,15.2127428 C27.273444,15.2213411 27.2847618,15.2306333 27.2957251,15.2401784 L27.3166269,15.2596011 L27.3369819,15.2795832 C27.3488414,15.2909897 27.3600854,15.3032105 27.3708446,15.3157214 C27.3826023,15.3299842 27.394383,15.3447234 27.4056129,15.3599329 C27.4139563,15.3707821 27.4215769,15.3817918 27.4288682,15.3929635 L27.4562257,15.4384154 L27.4842704,15.4945087 L27.4969985,15.5240003 C27.5042688,15.5430643 27.5108327,15.5618032 27.5166375,15.5807381 C27.5221039,15.597339 27.5268398,15.6149903 27.5309429,15.6329432 C27.5339012,15.6473262 27.536624,15.6609623 27.5389701,15.6746541 C27.5408092,15.6838906 27.5423329,15.694064 27.5436549,15.7043214 L27.5461054,15.7272439 C27.5481165,15.7472765 27.5493345,15.7673785 27.5497593,15.7874952 L27.54999,19.17497 C27.54999,19.4046367 27.4449697,19.6193503 27.2688369,19.7603799 L27.1750014,19.8244825 L15.4966014,26.5672825 C15.4909834,26.5705262 15.4853496,26.5736878 15.4797012,26.5767681 L15.4565072,26.5887392 L15.4327806,26.6000914 C15.4168808,26.607673 15.4011365,26.6142863 15.3853258,26.6203156 C15.3773528,26.6229614 15.3690473,26.6259492 15.3606884,26.6287923 C15.3380632,26.6369456 15.3156762,26.6434131 15.2932413,26.648778 C15.2887874,26.6493619 15.2838296,26.6504988 15.2788584,26.6515857 L15.2403951,26.6593193 L15.2030715,26.6641156 L15.1923886,26.6655739 L15.1569529,26.6680908 L15.1216405,26.6688882 C15.0990635,26.6688052 15.0764169,26.6678057 15.0537243,26.6657334 L15.0390062,26.6641173 C15.0144626,26.6614881 14.9901335,26.6575286 14.9658436,26.6522885 C14.9596947,26.6507155 14.9540258,26.6494158 14.9483755,26.6480514 L14.8968098,26.6338561 C14.8797508,26.6282042 14.8634453,26.6223815 14.8473671,26.6160154 L14.80513,26.5976311 L14.80913,26.5986311 L14.79813,26.5936311 L14.76513,26.5766311 L14.78313,26.5866311 L14.7632577,26.5766367 L14.7465186,26.5671625 L3.06811863,19.8243625 C2.86922343,19.7095256 2.73578958,19.5112163 2.70172471,19.2881654 L2.69313,19.17485 L2.693,15.80216 L2.69596827,15.7368515 L2.696,15.72716 L2.70430215,15.6721074 C2.70711213,15.6572761 2.71027026,15.6419451 2.71390543,15.6267113 C2.71766339,15.6096842 2.72205734,15.5936957 2.72694841,15.5779707 C2.73247337,15.5611837 2.73856806,15.5437826 2.74531742,15.526593 C2.75092302,15.511735 2.75696886,15.497757 2.76341447,15.4840355 L2.77495025,15.4606875 L2.78744933,15.4372802 C2.7962335,15.4216443 2.805415,15.4065847 2.81509085,15.3919152 C2.82262803,15.3800812 2.83079162,15.3683723 2.83932914,15.3568655 L2.87351959,15.3147977 C2.88385069,15.3022381 2.89512764,15.2900254 2.90689003,15.2781301 L2.95066398,15.2377363 L2.99,15.20616 L3.06,15.15797 L3.06813114,15.1541403 L3.07070583,15.1527504 L8.37,12.09297 L9.468,13.19097 L4.943,15.803 L15.121,21.68 L18.33313,19.82416 L25.299,15.803 L20.774,13.19097 L21.872,12.09297 Z M7.02768,23.88404 L8.43828,24.69854 L7.02768,25.51304 L5.61708,24.69854 L7.02768,23.88404 Z M23.62554,23.88404 L25.03614,24.69854 L23.62554,25.51304 L22.21494,24.69854 L23.62554,23.88404 Z M26.04813,17.10316 L15.87013,22.97916 L15.87113,24.6166311 L26.049,18.74177 L26.04813,17.10316 Z M4.21914,22.23404 L5.62974,23.04854 L4.21914,23.86304 L2.80854,23.04854 L4.21914,22.23404 Z M26.43408,22.23404 L27.84468,23.04854 L26.43408,23.86304 L25.02348,23.04854 L26.43408,22.23404 Z M1.4106,20.58437 L2.8212,21.39857 L1.4106,22.21307 L2.71116463e-12,21.39857 L1.4106,20.58437 Z M29.24247,20.58437 L30.65307,21.39887 L29.24247,22.21307 L27.83187,21.39857 L29.24247,20.58437 Z M17.34102,0.05003 C18.24912,0.05003 18.98802,0.78893 18.98802,1.69703 L18.98802,9.38393 L20.79672,9.38393 C21.25482,9.38393 21.66372,9.65723 21.83892,10.08023 C22.01442,10.50353 21.91842,10.98623 21.59442,11.30993 L15.12162,17.78273 L8.64852,11.30993 C8.32452,10.98623 8.22882,10.50353 8.40402,10.08023 C8.57922,9.65723 8.98842,9.38393 9.44622,9.38393 L11.11332,9.38393 L11.11332,1.69703 C11.11332,0.78893 11.85222,0.05003 12.76062,0.05003 L17.34102,0.05003 Z" id="Combined-Shape"></path>
        </g>
    </g>
</svg>