<?xml version="1.0" encoding="UTF-8"?>
<svg width="34px" height="34px" viewBox="0 0 34 34" version="1.1" xmlns="http://www.w3.org/2000/svg" xmlns:xlink="http://www.w3.org/1999/xlink">
    <title>note</title>
    <g id="note" stroke="none" stroke-width="1" fill="none" fill-rule="evenodd">
        <path d="M17.0305987,6.70873898 C23.667968,6.70873898 29.067708,12.1571603 29.067708,18.8537123 C29.067708,21.1187409 28.4505213,23.2983744 27.2734373,25.2152415 L27.2734373,25.2152415 L30.048176,28.8308804 C30.3593747,29.2368504 30.4147133,29.7860292 30.1907547,30.2471803 C29.966796,30.7083313 29.5019533,31 28.9934893,31 L28.9934893,31 L17.0305987,31 C10.3932293,31 4.99348933,25.5515787 4.99348933,18.8537123 C4.99348933,12.1571603 10.3932293,6.70873898 17.0305987,6.70873898 Z M17.0305987,9.39944831 C11.8632813,9.39944831 7.660156,13.6404642 7.660156,18.8537123 C7.660156,24.0669604 11.8632813,28.309292 17.0305987,28.309292 L17.0305987,28.309292 L26.2753907,28.309292 L24.573568,26.0915607 C24.2083347,25.6146435 24.201172,24.9511633 24.5566413,24.4676767 C25.7630213,22.8227689 26.4010427,20.8822545 26.4010427,18.8537123 C26.4010427,13.6404656 22.1972653,9.39944831 17.0305987,9.39944831 Z M18.363932,22.9042274 L18.363932,25.6041322 L15.6972653,25.6041322 L15.6972653,22.9042274 L18.363932,22.9042274 Z M18.363932,12.1046067 L18.363932,20.2043212 L15.6972653,20.2043212 L15.6972653,12.1046067 L18.363932,12.1046067 Z M33,13.4355089 L33,16.1262169 L30.3268227,16.1262169 L30.3268227,13.4355089 L33,13.4355089 Z M3.67317733,13.4355089 L3.67317733,16.1262169 L1,16.1262169 L1,13.4355089 L3.67317733,13.4355089 Z M27.55078,5.25302501 L29.4361969,7.15543988 L27.4361966,9.17347117 L25.5507797,7.2710563 L27.55078,5.25302501 Z M6.76952525,5.2530203 L8.76952555,7.27105159 L6.88410864,9.17346646 L4.88410835,7.15543517 L6.76952525,5.2530203 Z M18.363932,2 L18.363932,4.69070799 L15.6972653,4.69070799 L15.6972653,2 L18.363932,2 Z" id="Combined-Shape" fill="#111111" fill-rule="nonzero"></path>
    </g>
</svg>