<?xml version="1.0" encoding="UTF-8"?>
<svg width="34px" height="34px" viewBox="0 0 34 34" version="1.1" xmlns="http://www.w3.org/2000/svg" xmlns:xlink="http://www.w3.org/1999/xlink">
    <title>pdf</title>
    <g id="pdf" stroke="none" stroke-width="1" fill="none" fill-rule="evenodd">
        <path d="M28.7857143,2 C30.5609153,2 32,3.43908473 32,5.21428571 L32,5.21428571 L32,28.7857143 C32,30.5609153 30.5609153,32 28.7857143,32 L28.7857143,32 L5.21428571,32 C3.43908473,32 2,30.5609153 2,28.7857143 L2,28.7857143 L2,5.21428571 C2,3.43908473 3.43908473,2 5.21428571,2 L5.21428571,2 Z M28.7857143,4.14285714 L5.21428571,4.14285714 C4.62255205,4.14285714 4.14285714,4.62255205 4.14285714,5.21428571 L4.14285714,5.21428571 L4.14285714,28.7857143 C4.14285714,29.3774479 4.62255205,29.8571429 5.21428571,29.8571429 L5.21428571,29.8571429 L28.7857143,29.8571429 C29.3774479,29.8571429 29.8571429,29.3774479 29.8571429,28.7857143 L29.8571429,28.7857143 L29.8571429,5.21428571 C29.8571429,4.62255205 29.3774479,4.14285714 28.7857143,4.14285714 L28.7857143,4.14285714 Z M15.3714286,6.62857143 C16.9035714,6.53214286 17.9964286,7.76428571 18.1678571,9.74642857 C18.1995978,10.4292722 18.105162,11.1121156 17.8892857,11.7607143 C17.7714286,12.1464286 17.6,12.65 17.4714286,12.9714286 C17.3428571,13.2928571 17.2035714,13.6035714 17.075,13.8928571 C17.1928571,14.1071429 17.3214286,14.3428571 17.4821429,14.6107143 C18.1209832,15.6794816 18.8371816,16.7000644 19.625,17.6642857 C20.0359685,18.1545921 20.4722777,18.6230881 20.9321429,19.0678571 L20.9321429,19.0678571 L21.05,19.0678571 C21.4785714,18.9821429 21.95,18.9392857 22.3892857,18.8535714 C22.8285714,18.7678571 23.2357143,18.7678571 23.6214286,18.7678571 C24.2400414,18.729219 24.8605709,18.8017956 25.4535714,18.9821429 C27.3285714,19.625 28.3142857,20.9857143 27.8107143,22.4321429 C27.3071429,23.8785714 25.7,24.3607143 23.825,23.7178571 C23.1920364,23.4638089 22.6082756,23.1012246 22.1,22.6464286 C21.7892857,22.3892857 21.4785714,22.0892857 21.1678571,21.7785714 L21.1678571,21.7785714 L20.4607143,21.0178571 C19.925,21.125 19.3464286,21.2535714 18.7142857,21.4035714 C16.9035714,21.8 15.0928571,22.3142857 13.3571429,22.8714286 L13.3571429,22.8714286 L13.0785714,23.45 L13.041743,23.5488338 C12.9755831,23.7351312 12.9454082,23.8663265 12.7892857,24.1785714 C12.6071429,24.5428571 12.425,24.9071429 12.2321429,25.25 C11.9403808,25.791475 11.5601388,26.2803577 11.1071429,26.6964286 C9.575,27.9928571 7.90357143,28.0892857 6.91785714,26.9214286 C5.93214286,25.7535714 6.35,24.125 7.87142857,22.85 C8.41368352,22.434886 9.02737855,22.1225915 9.68214286,21.9285714 C10.0571429,21.8 10.5178571,21.6714286 10.9142857,21.575 C11.3107143,21.4785714 11.7071429,21.3928571 12.0821429,21.3285714 L12.0821429,21.3285714 L12.2321429,21.3285714 C12.5214286,20.675 12.8642857,19.8821429 13.25,18.9607143 L13.25,18.9607143 L13.5285714,18.2642857 C13.9785714,17.1607143 14.4392857,15.9714286 14.9,14.7821429 C14.975,14.6107143 15.0285714,14.4607143 15.0928571,14.2892857 C15.0592489,14.2539222 15.030431,14.2142976 15.0071429,14.1714286 C14.75,13.8178571 14.5035714,13.4321429 14.2678571,13.0357143 C14.05518,12.6896348 13.8620213,12.3319336 13.6892857,11.9642857 C13.4040616,11.4157421 13.2190181,10.8207 13.1428571,10.2071429 C12.9607143,8.225 13.8392857,6.725 15.3714286,6.62857143 Z M11.3857143,23.2464286 C11.3857143,23.2464286 10.55,23.4821429 10.2178571,23.6 C9.76328456,23.7262917 9.33506784,23.9331421 8.95357143,24.2107143 C8.06428571,24.9607143 7.90357143,25.5821429 8.20357143,25.9357143 C8.50357143,26.2892857 9.13571429,26.2464286 10.025,25.4964286 C10.3302597,25.2097244 10.583955,24.8726722 10.775,24.5 C10.9357143,24.1678571 11.3857143,23.2464286 11.3857143,23.2464286 Z M23.8725611,20.4860663 L23.6214286,20.4928571 C23.3,20.5035714 22.2285714,20.6107143 22.2285714,20.6107143 C22.2285714,20.6107143 22.8607143,21.2107143 23.1285714,21.4357143 C23.4807381,21.7553963 23.8823695,22.015914 24.3178571,22.2071429 C25.4107143,22.5821429 26.0214286,22.4 26.1714286,21.9607143 L26.1714286,21.9607143 L26.2142857,21.9071429 C26.3642857,21.4678571 26,20.9428571 24.8642857,20.6214286 C24.4597411,20.5113081 24.0399486,20.4678813 23.6214286,20.4928571 Z M16.2392857,15.9178571 C15.8321429,16.9464286 15.4357143,17.9857143 15.0392857,18.95 L15.0392857,18.95 L14.75,19.6464286 C14.5678571,20.0964286 14.3964286,20.5035714 14.225,20.8892857 C15.5642857,20.5035714 16.925,20.1392857 18.275,19.8178571 L18.275,19.8178571 L19.0464286,19.6357143 C18.7892857,19.3678571 18.5428571,19.0892857 18.2964286,18.8 C17.5490897,17.8847974 16.8619315,16.9220601 16.2392857,15.9178571 Z M15.5,8.32142857 C15.0392857,8.36428571 14.7071429,8.91071429 14.8571429,10.0678571 C14.9296613,10.4797772 15.0670843,10.8775808 15.2642857,11.2464286 C15.4035714,11.5357143 15.9285714,12.4678571 15.9285714,12.4678571 L15.9285714,12.4678571 L15.9332651,12.4446801 C15.9668899,12.3067708 16.1723214,11.6151786 16.2607143,11.3107143 C16.4099076,10.8614949 16.4858778,10.3912034 16.4857145,9.91785714 C16.3785714,8.76071429 15.9607143,8.32142857 15.5,8.32142857 Z" id="Combined-Shape" fill="#000000" fill-rule="nonzero"></path>
    </g>
</svg>