<?xml version="1.0" encoding="UTF-8"?>
<svg width="34px" height="34px" viewBox="0 0 34 34" version="1.1" xmlns="http://www.w3.org/2000/svg" xmlns:xlink="http://www.w3.org/1999/xlink">
    <title>request</title>
    <g id="request" stroke="none" stroke-width="1" fill="none" fill-rule="evenodd">
        <path d="M19.8183188,29.7726856 L21.9052464,29.7836622 L21.8948117,31.7675753 L19.807884,31.7565987 L19.8183188,29.7726856 Z M15.8504927,29.7726856 L17.9374203,29.7836622 L17.9269856,31.7675753 L15.8400579,31.7565987 L15.8504927,29.7726856 Z M7.91549269,29.7726856 L10.0024203,29.7836622 L9.99198557,31.7675753 L7.90505791,31.7565987 L7.91549269,29.7726856 Z M23.7848371,29.7733716 L25.8717716,29.7829762 L25.8626411,31.7668892 L23.7757067,31.7572847 L23.7848371,29.7733716 Z M11.8820111,29.7733716 L13.9689455,29.7829762 L13.959815,31.7668892 L11.8728806,31.7572847 L11.8820111,29.7733716 Z M25.1859565,5.97317391 C26.5705719,5.97317391 27.7043512,7.05369874 27.7895167,8.41697079 L27.7946522,8.58186957 L27.7946522,25.184913 C27.7946522,26.5707826 26.7141273,27.7034042 25.3508553,27.7884788 L25.1859565,27.7936087 L8.58552174,27.7936087 C7.20090635,27.7936087 6.06712709,26.7142898 5.98196155,25.349951 L5.97682609,25.184913 L5.97682609,8.58186957 C5.97682609,7.19725418 7.05735091,6.06347492 8.42062296,5.97830937 L8.58552174,5.97317391 L25.1859565,5.97317391 Z M25.1859565,8.06013043 L8.58552174,8.06013043 C8.33044928,8.06013043 8.11763124,8.24460709 8.07348739,8.48805672 L8.06508696,8.58186957 L8.06508696,25.184913 C8.06508696,25.4411449 8.24956361,25.6551224 8.49209716,25.6995096 L8.58552174,25.7079565 L25.1859565,25.7079565 C25.4421884,25.7079565 25.6551353,25.5224493 25.6992934,25.2787706 L25.7076957,25.184913 L25.7076957,8.58186957 C25.7076957,8.2936087 25.4742174,8.06013043 25.1859565,8.06013043 Z M2.01057526,23.2744492 L3.9944883,23.284884 L3.9835117,25.3718117 L1.99959865,25.3613769 L2.01057526,23.2744492 Z M29.7840535,23.2744492 L31.7679666,23.284884 L31.75699,25.3718117 L29.7730769,25.3613769 L29.7840535,23.2744492 Z M18.8875714,11 C19.3054286,11.1258507 19.7052857,11.2927397 20.082,11.498219 C19.8782857,12.281978 20.0404286,12.9168473 20.5694286,13.4500568 C21.0987143,13.9832664 21.7282857,14.2905495 22.5058571,14.0853581 C22.7095714,14.4649261 22.8752857,14.8681091 23,15.2890034 C22.3064286,15.6982342 21.846,16.2936491 21.846,17.0477454 C21.846,17.8018416 22.3064286,18.3971125 23,18.8061993 C22.8752857,19.2272376 22.7095714,19.6304206 22.5058571,20.0101326 C21.7281429,19.8049413 21.0987143,20.1122243 20.5694286,20.6455779 C20.0404286,21.1789314 19.8785714,21.8136567 20.082,22.5972717 C19.7054286,22.802751 19.3055714,22.96964 18.8875714,23.0954907 C18.4815714,22.3965441 17.7482857,21.9321637 17,21.9321637 C16.252,21.9321637 15.5187143,22.3965441 15.1127143,23.0954907 C14.6948571,22.969928 14.295,22.802751 13.9182857,22.5975597 C14.1217143,21.8135127 13.9598571,21.1789314 13.4308571,20.6455779 C12.9015714,20.1122243 12.272,19.9489352 11.4941429,20.1541266 C11.2904286,19.7745585 11.125,19.3713755 11,18.9501933 C11.6935714,18.5411065 12.1541429,17.8018416 12.1541429,17.0477454 C12.1541429,16.2936491 11.6935714,15.6982342 11,15.2890034 C11.125,14.8682531 11.2904286,14.4650701 11.4941429,14.0856461 C12.2718571,14.2905495 12.9015714,13.9834104 13.4308571,13.4500568 C13.9598571,12.9165593 14.1217143,12.281834 13.9182857,11.497931 C14.2948571,11.2927397 14.6947143,11.1257067 15.1124286,11 C15.5187143,11.6992346 16.252,12.163327 17,12.163327 C17.7482857,12.163327 18.4815714,11.6992346 18.8875714,11 Z M2.01057526,19.3066231 L3.9944883,19.3170579 L3.9835117,21.4039856 L1.99959865,21.3935508 L2.01057526,19.3066231 Z M29.7840535,19.3066231 L31.7679666,19.3170579 L31.75699,21.4039856 L29.7730769,21.3935508 L29.7840535,19.3066231 Z M17,14.4174081 C15.559,14.4174081 14.3908571,15.5949905 14.3908571,17.0476014 C14.3908571,18.5000682 15.559,19.6777946 17,19.6777946 C18.4411429,19.6777946 19.6094286,18.5002122 19.6094286,17.0476014 C19.6094286,15.5949905 18.4411429,14.4174081 17,14.4174081 Z M2.01057526,15.338797 L3.9944883,15.3492318 L3.9835117,17.4361595 L1.99959865,17.4257247 L2.01057526,15.338797 Z M29.7840535,15.338797 L31.7679666,15.3492318 L31.75699,17.4361595 L29.7730769,17.4257247 L29.7840535,15.338797 Z M2.01057526,11.370971 L3.9944883,11.3814057 L3.9835117,13.4683334 L1.99959865,13.4578986 L2.01057526,11.370971 Z M29.7840535,11.370971 L31.7679666,11.3814057 L31.75699,13.4683334 L29.7730769,13.4578986 L29.7840535,11.370971 Z M2.00988924,7.40444583 L3.99380228,7.41357627 L3.98419772,9.50051069 L2.00028467,9.49138025 L2.00988924,7.40444583 Z M29.7833675,7.40444583 L31.7672805,7.41357627 L31.757676,9.50051069 L29.7737629,9.49138025 L29.7833675,7.40444583 Z M23.7758405,1.99920735 L25.8627682,2.01018396 L25.8523334,3.994097 L23.7654057,3.98312039 L23.7758405,1.99920735 Z M19.8081449,1.99920735 L21.8950725,2.01018396 L21.8846377,3.994097 L19.7977101,3.98312039 L19.8081449,1.99920735 Z M15.8396632,1.99989337 L17.9265976,2.00949793 L17.9174672,3.99341098 L15.8305328,3.98380641 L15.8396632,1.99989337 Z M11.8731449,1.99920735 L13.9600725,2.01018396 L13.9496377,3.994097 L11.8627101,3.98312039 L11.8731449,1.99920735 Z M7.90531878,1.99920735 L9.99224644,2.01018396 L9.98181165,3.994097 L7.894884,3.98312039 L7.90531878,1.99920735 Z" id="Combined-Shape" fill="#000000"></path>
    </g>
</svg>