<?xml version="1.0" encoding="UTF-8"?>
<svg width="34px" height="34px" viewBox="0 0 34 34" version="1.1" xmlns="http://www.w3.org/2000/svg" xmlns:xlink="http://www.w3.org/1999/xlink">
    <title>rohs</title>
    <g id="rohs" stroke="none" stroke-width="1" fill="none" fill-rule="evenodd">
        <path d="M17,2 C25.2842712,2 32,8.71572875 32,17 C32,25.2842712 25.2842712,32 17,32 C13.5678355,32 10.4049012,30.8472882 7.8772226,28.9078901 L7.74038476,29.0354036 L7.74038476,29.0354036 C6.61538462,28.5384615 6.92927598,28.5384615 6.3798862,27.9785739 L6.5662457,27.7766942 C3.75038335,25.0498896 2,21.2293568 2,17 C2,8.71572875 8.71572875,2 17,2 Z M26.2307692,8.92307692 C9.33552465,10.2475131 7.80268463,22.0236503 7.76979159,25.9892607 L7.76983259,26.2620706 C7.77052124,26.3406932 7.77177266,26.4153333 7.77343985,26.4857973 C11.1250456,22.950655 15.3306479,18.9227153 19.8525815,15.5627083 C15.1157209,20.9380319 12.7010212,24.115736 9.45419605,27.3796783 C25.2888512,27.6802443 26.2307692,8.92307692 26.2307692,8.92307692 Z" id="Combined-Shape" fill="#111111"></path>
    </g>
</svg>