<?xml version="1.0" encoding="UTF-8"?>
<svg width="34px" height="34px" viewBox="0 0 34 34" version="1.1" xmlns="http://www.w3.org/2000/svg" xmlns:xlink="http://www.w3.org/1999/xlink">
    <title>search</title>
    <g id="search" stroke="none" stroke-width="1" fill="none" fill-rule="evenodd">
        <path d="M14.7015681,2 C21.7164505,2 27.4031363,7.76806852 27.4031363,14.8833416 C27.4031363,17.6822469 26.5231975,20.2726901 25.0286129,22.3855818 L30.7057323,28.0946965 C31.421766,28.8147244 31.421955,29.9778314 30.7061555,30.698092 C29.9957798,31.4128949 28.8404443,31.4164838 28.1256414,30.7061082 C28.1231012,30.7035838 28.1205686,30.7010519 28.1180433,30.6985126 L22.5030497,25.0508381 C20.3501493,26.7528041 17.6425902,27.7666833 14.7015681,27.7666833 C7.68668575,27.7666833 2,21.9986148 2,14.8833416 C2,7.76806852 7.68668575,2 14.7015681,2 Z M14.7015681,6.09924507 C9.91869378,6.09924507 6.04140804,10.0320191 6.04140804,14.8833416 C6.04140804,19.7346642 9.91869378,23.6674382 14.7015681,23.6674382 C19.4844425,23.6674382 23.3617282,19.7346642 23.3617282,14.8833416 C23.3617282,10.0320191 19.4844425,6.09924507 14.7015681,6.09924507 Z" id="Combined-Shape" fill="#000000"></path>
    </g>
</svg>