<?xml version="1.0" encoding="UTF-8"?>
<svg width="34px" height="34px" viewBox="0 0 34 34" version="1.1" xmlns="http://www.w3.org/2000/svg" xmlns:xlink="http://www.w3.org/1999/xlink">
    <title>unavailable</title>
    <g id="unavailable" stroke="none" stroke-width="1" fill="none" fill-rule="evenodd">
        <path d="M12.7770433,23.1404562 L15.1298077,25.4937725 L15.3006978,25.6485454 C15.9361701,26.1913719 16.6692708,26.4627851 17.5,26.4627851 C18.40625,26.4627851 19.1963141,26.1397809 19.8701923,25.4937725 L19.8701923,25.4937725 L22.2403846,23.1404562 L30.3269231,23.1404562 L30.4979342,23.1480266 C30.8893354,23.1833552 31.2273638,23.3423338 31.5120192,23.6249625 C31.8373397,23.9479667 32,24.3401861 32,24.8016206 L32,24.8016206 L32,30.3388355 L31.9923753,30.508629 C31.9567934,30.8972435 31.7966747,31.232865 31.5120192,31.5154937 C31.1866987,31.8384979 30.7916667,32 30.3269231,32 L30.3269231,32 L4.67307692,32 L4.50206581,31.9924296 C4.11066456,31.957101 3.77263622,31.7981224 3.48798077,31.5154937 C3.16266026,31.1924895 3,30.8002701 3,30.3388355 L3,30.3388355 L3,24.8016206 L3.0076247,24.6318271 C3.04320663,24.2432127 3.20332532,23.9075912 3.48798077,23.6249625 C3.81330128,23.3019583 4.20833333,23.1404562 4.67307692,23.1404562 L4.67307692,23.1404562 L12.7770433,23.1404562 Z M24.1923077,27.5702281 C23.8902244,27.5702281 23.6288061,27.6798188 23.4080529,27.8990002 C23.1872997,28.1181816 23.0769231,28.3777386 23.0769231,28.6776711 C23.0769231,28.9776035 23.1872997,29.2371605 23.4080529,29.4563419 C23.6288061,29.6755233 23.8902244,29.785114 24.1923077,29.785114 C24.494391,29.785114 24.7558093,29.6755233 24.9765625,29.4563419 C25.1973157,29.2371605 25.3076923,28.9776035 25.3076923,28.6776711 C25.3076923,28.3777386 25.1973157,28.1181816 24.9765625,27.8990002 C24.7558093,27.6798188 24.494391,27.5702281 24.1923077,27.5702281 Z M28.6538462,27.5702281 C28.3517628,27.5702281 28.0903446,27.6798188 27.8695913,27.8990002 C27.6488381,28.1181816 27.5384615,28.3777386 27.5384615,28.6776711 C27.5384615,28.9776035 27.6488381,29.2371605 27.8695913,29.4563419 C28.0903446,29.6755233 28.3517628,29.785114 28.6538462,29.785114 C28.9559295,29.785114 29.2173478,29.6755233 29.438101,29.4563419 C29.6588542,29.2371605 29.7692308,28.9776035 29.7692308,28.6776711 C29.7692308,28.3777386 29.6588542,28.1181816 29.438101,27.8990002 C29.2173478,27.6798188 28.9559295,27.5702281 28.6538462,27.5702281 Z M24.7058998,5.10122232 C28.8705153,9.26583784 28.8945534,15.9939757 24.7595903,20.1289388 C20.6246272,24.2639018 13.8964894,24.2398638 9.73187383,20.0752483 C5.5672583,15.9106327 5.54322026,9.18249492 9.67818334,5.04753183 C13.8131464,0.912568745 20.5412843,0.936606793 24.7058998,5.10122232 Z M23.0977437,9.53660485 L14.1672564,18.4670922 C16.6756795,19.7831265 19.8364682,19.3965332 21.9318265,17.301175 C24.0271847,15.2058167 24.4137781,12.045028 23.0977437,9.53660485 Z M12.5059471,7.87529563 C10.4108183,9.97042445 10.0240802,13.1307503 11.3395976,15.6390416 L20.2696932,6.70894613 C17.7614018,5.39342873 14.601076,5.78016681 12.5059471,7.87529563 Z" id="Combined-Shape" fill="#000000" fill-rule="nonzero"></path>
    </g>
</svg>