<?xml version="1.0" standalone="no"?>
<!DOCTYPE svg PUBLIC "-//W3C//DTD SVG 1.1//EN" "http://www.w3.org/Graphics/SVG/1.1/DTD/svg11.dtd" >
<!--
2017-2-13: Created with FontForge (http://fontforge.org)
-->
<svg xmlns="http://www.w3.org/2000/svg" xmlns:xlink="http://www.w3.org/1999/xlink" version="1.1">
<metadata>
Created by FontForge 20160407 at Mon Feb 13 13:05:43 2017
 By Richard Hogben
Copyright (c) 2017, Richard Hogben
</metadata>
<defs>
<font id="fontcustom" horiz-adv-x="512" >
  <font-face 
    font-family="fontcustom"
    font-weight="400"
    font-stretch="normal"
    units-per-em="512"
    panose-1="2 0 5 3 0 0 0 0 0 0"
    ascent="448"
    descent="-64"
    bbox="0 -28.6162 531.349 420.174"
    underline-thickness="25.6"
    underline-position="-51.2"
    unicode-range="U+0020-F16A"
  />
    <missing-glyph />
    <glyph glyph-name="space" unicode=" " horiz-adv-x="200" 
 />
    <glyph glyph-name="uniF10E" unicode="&#xf10e;" 
d="M265.973 382.785c122.629 0 197.367 -73.6846 197.367 -164.518c0 -90.8994 -74.7383 -163.579 -197.367 -163.579c-14.9385 0 -29.5381 4.48828 -43.6504 6.56445c-57.0908 -74.2207 -147.12 -59.6172 -147.12 -59.6172
c63.5908 30.9473 62.3008 82.1914 50.9961 89.0244c-49.915 30.21 -79.9287 76.1631 -79.9287 127.607c0 90.833 97.082 164.518 219.703 164.518z" />
    <glyph glyph-name="uniF11B" unicode="&#xf11b;" horiz-adv-x="511" 
d="M64 374.533c0 5.24219 4.3125 9.49219 9.49219 9.49219h365.016c5.24219 0 9.49219 -4.3125 9.49219 -9.49219v-365.016c0 -5.24219 -4.3125 -9.49219 -9.49219 -9.49219h-365.016c-5.24219 0 -9.49219 4.3125 -9.49219 9.49219v365.016zM105.514 342.512v-160.864
h145.297v160.864h-145.297zM287.135 249.106v-31.1348h119.352v31.1348h-119.352zM287.135 311.377v-31.1348h119.352v31.1348h-119.352zM105.514 140.134v-103.784h300.973v103.784h-300.973z" />
    <glyph glyph-name="uniF146" unicode="&#xf146;" 
d="M256.027 137.53l153.285 153.285c9.0957 9.0957 23.251 8.94141 32.0781 0.114258c8.8877 -8.8877 8.77539 -23.1875 -0.114258 -32.0771l-164.499 -164.499c-5.79297 -5.79199 -13.6367 -7.83301 -20.8496 -6.27246
c-7.22168 -1.4668 -15.0215 0.642578 -20.6504 6.27246l-164.499 164.499c-9.0957 9.0957 -8.94141 23.251 -0.114258 32.0771c8.8877 8.88867 23.1875 8.77539 32.0771 -0.114258z" />
    <glyph glyph-name="uniF152" unicode="&#xf152;" 
d="M168.336 102.712l-168.336 74.7607v28.6387l168.336 84.251v-49.4521l-103.232 -47.1201l103.232 -41.959v-49.1191zM331.01 320l-90.7441 -250.256h-57.6104l90.7441 250.256h57.6104zM343.664 151.831l103.232 41.959l-103.232 47.1201v49.4521l168.336 -84.251
v-28.6387l-168.336 -74.7607v49.1191z" />
    <glyph glyph-name="uniF125" unicode="&#xf125;" 
d="M67.0869 301.938c-2.50391 2.50293 -3.33789 75.9248 0 79.2617c3.33691 3.33691 76.7578 3.33691 79.2607 0s2.50293 -76.7588 0 -79.2617s-77.5928 -2.50293 -79.2607 0v0v0zM367.445 301.938c-2.50293 2.50293 -3.33789 75.9248 0 79.2617
c3.33691 3.33691 76.7578 3.33691 79.2607 0s2.50293 -76.7588 0 -79.2617s-77.5928 -2.50293 -79.2607 0v0v0zM167.206 201.819c-2.50293 2.50293 -3.33789 75.9238 0 79.2617c3.33691 3.33691 76.7578 3.33691 79.2607 0c2.50391 -3.33789 2.50391 -76.7588 0 -79.2617
c-2.50293 -2.50293 -77.5918 -2.50293 -79.2607 0v0v0zM267.325 201.819c-2.50293 2.50293 -3.33691 75.9238 0 79.2617c3.33789 3.33691 76.7588 3.33691 79.2617 0c2.50293 -3.33789 2.50293 -76.7588 0 -79.2617s-77.5928 -2.50293 -79.2617 0v0v0zM167.206 101.7
c-2.50293 2.50293 -3.33789 75.9238 0 79.2607c3.33691 3.33789 76.7578 3.33789 79.2607 0c2.50391 -3.33691 2.50391 -76.7578 0 -79.2607c-2.50293 -2.50293 -77.5918 -2.50293 -79.2607 0v0v0zM267.325 101.7c-2.50293 2.50293 -3.33691 75.9238 0 79.2607
c3.33789 3.33789 76.7588 3.33789 79.2617 0c2.50293 -3.33691 2.50293 -76.7578 0 -79.2607s-77.5928 -2.50293 -79.2617 0v0v0zM67.0869 1.58008c-2.50391 2.50293 -3.33789 75.9238 0 79.2617c3.33691 3.33691 76.7578 3.33691 79.2607 0
c2.50293 -3.33789 2.50293 -76.7588 0 -79.2617s-77.5928 -2.50293 -79.2607 0v0v0zM367.445 1.58008c-2.50293 2.50293 -3.33789 75.9238 0 79.2617c3.33691 3.33691 76.7578 3.33691 79.2607 0c2.50293 -3.33789 2.50293 -76.7588 0 -79.2617
s-77.5928 -2.50293 -79.2607 0v0v0z" />
    <glyph glyph-name="uniF122" unicode="&#xf122;" 
d="M256.342 332.31l-157.366 -157.366c-9.12598 -9.12598 -23.8066 -9.24219 -32.9316 -0.117188c-9.06152 9.06152 -9.2207 23.5938 0.117188 32.9316l168.879 168.878c5.7793 5.78027 13.7871 7.94531 21.2002 6.43945c7.40527 1.60254 15.458 -0.493164 21.4043 -6.43945
l168.879 -168.878c9.12598 -9.12598 9.24121 -23.8076 0.117188 -32.9316c-9.06152 -9.06152 -23.5938 -9.2207 -32.9316 0.117188zM114.24 145.52c0 3.62305 2.00586 8.56934 4.7207 11.2891l137.168 137.406l137.645 -137.406
c2.61621 -2.6123 4.7373 -7.37891 4.7373 -11.2891v-139.544c0 -3.62305 -2.81348 -6.55957 -6.47168 -6.55957h-271.327c-3.57422 0 -6.47168 2.64941 -6.47168 6.55957v139.544zM156.354 140.206v-71.0098c0 -3.80664 2.95898 -6.60938 6.60938 -6.60938h71.0098
c3.80664 0 6.60938 2.95898 6.60938 6.60938v71.0098c0 3.80664 -2.95996 6.60938 -6.60938 6.60938h-71.0098c-3.80664 0 -6.60938 -2.95898 -6.60938 -6.60938zM272.168 140.481v-141.065h84.2285v141.065c0 3.77539 -2.95898 6.33398 -6.60938 6.33398h-71.0098
c-3.80664 0 -6.60938 -2.83594 -6.60938 -6.33398z" />
    <glyph glyph-name="uniF14B" unicode="&#xf14b;" 
d="M301.187 116.062v0c6.10645 -0.725586 11.9355 -1.51465 17.5811 -2.37988c-0.00488281 -0.294922 0.000976562 -0.570312 -0.0458984 -0.853516c-3.03223 -23.7246 -33.9697 -39.6279 -69.0791 -35.5322c-27.5732 3.21582 -49.4414 17.8193 -56.0996 35.4248
c25.2627 6.00879 60.9951 8.77344 107.644 3.34082zM254.462 32.5146v0c89.8047 -1.00684 149.784 38.4326 149.995 48.3047c0.415039 16.6953 -45.0146 48.3252 -147.683 49.4736c-102.669 1.14453 -149.602 -31.1797 -149.953 -46.1377
c-0.171875 -8.67871 57.8359 -50.6348 147.641 -51.6406zM392.745 167.239v0c3.41992 -49.3145 44.0117 -37.3818 42.8486 -86.7734c-0.857422 -36.0049 -81.3066 -79.5049 -181.846 -78.3789c-100.542 1.11719 -178.879 46.4023 -178.062 82.4219
c1.20312 49.376 41.2109 36.5459 46.9053 85.7588c13.5801 116.842 25.2871 163.561 102.609 189.229c27.5352 9.15039 14.2246 27.0107 37.6338 26.7432c23.3672 -0.256836 9.24414 -17.8008 36.3076 -27.5527c76.0879 -27.4189 85.5791 -74.3564 93.6035 -191.447z" />
    <glyph glyph-name="uniF129" unicode="&#xf129;" 
d="M388.768 196.964v0c21.5664 -1.57812 38.3994 -19.9893 38.9258 -42.083v-113.096c0 -23.1455 -18.9375 -42.082 -42.082 -42.082h-257.754c-23.1445 0 -42.082 18.9365 -42.082 42.082v113.096c0 22.0938 16.833 40.5049 38.4004 42.083v107.835
c0 43.6602 35.2432 78.9043 78.9033 78.9043h106.784c43.6602 0 78.9043 -35.2441 78.9043 -78.9043v-107.835zM180.986 196.964v0h148.866v100.471c0 20.5146 -16.3076 36.8223 -36.8223 36.8223h-75.2217c-20.5156 0 -36.8223 -16.3076 -36.8223 -36.8223v-100.471z" />
    <glyph glyph-name="uniF159" unicode="&#xf159;" 
d="M68.5303 -13.7969l-0.734375 -0.128906l-54.7109 309.412l443.218 77.9434l13.6094 -76.9766h-401.382v-310.25zM100.027 13.6826v251.347h391.543v-251.347h-391.543zM210.525 141.371l-74.4863 -96.5762h324.031l-37.248 133.724l-40.5479 -37.1475l-47.6436 74.2852
l-76.9922 -111.433zM167.539 229.125c-17.3994 0 -31.5068 -14.0713 -31.5068 -31.415c0 -17.3535 14.1074 -31.4238 31.5068 -31.4238c17.3984 0 31.5059 14.0703 31.5059 31.4238c0 17.3438 -14.1074 31.415 -31.5059 31.415z" />
    <glyph glyph-name="uniF15D" unicode="&#xf15d;" horiz-adv-x="511" 
d="M64 191.08l103.422 103.784v-86.0059h35.4307v-35.5557h-35.4307v-86.0059zM240.199 208.858h44.29v-35.5557h-44.29v35.5557zM322.075 208.858h44.2891v-35.5557h-44.2891v35.5557zM403.711 208.858h44.2891v-35.5557h-44.2891v35.5557z" />
    <glyph glyph-name="uniF166" unicode="&#xf166;" horiz-adv-x="511" 
d="M166.237 149.868c-10.8203 -11.0879 -25.9297 -17.9727 -42.6514 -17.9727c-32.9082 0 -59.5859 26.6699 -59.5859 59.5859c0 32.9082 26.6709 59.5859 59.5859 59.5859c16.7188 0 31.8301 -6.88379 42.6514 -17.9727l162.807 85.6875
c-0.143555 1.68555 -0.216797 3.39062 -0.216797 5.11328c0 32.9082 26.6709 59.5859 59.5869 59.5859c32.9082 0 59.5859 -26.6699 59.5859 -59.5859c0 -32.9092 -26.6709 -59.5859 -59.5859 -59.5859c-18.5488 0 -35.1182 8.47266 -46.0469 21.7607l-160.087 -84.2559
c0.585938 -3.35645 0.892578 -6.80859 0.892578 -10.333c0 -3.52344 -0.306641 -6.97656 -0.892578 -10.332l160.088 -84.2568c10.9268 13.2871 27.4941 21.7617 46.0459 21.7617c32.9082 0 59.5859 -26.6709 59.5859 -59.5869
c0 -32.9082 -26.6709 -59.5859 -59.5859 -59.5859c-32.9092 0 -59.5869 26.6709 -59.5869 59.5859c0 1.72266 0.0732422 3.42773 0.216797 5.11328z" />
    <glyph glyph-name="uniF15B" unicode="&#xf15b;" horiz-adv-x="511" 
d="M224 -1.04492c-106.039 0 -192 85.9619 -192 192c0 106.039 85.9609 192 192 192s192 -85.9609 192 -192c0 -106.038 -85.9609 -192 -192 -192zM236.691 135.507v34.7998c0 15.7578 6.76855 14.7734 26.7363 32.1729c13.876 11.8184 21.6602 22.9805 21.6602 44.3193
c0 36.4414 -24.0293 58.7646 -61.2568 58.7646c-36.2129 0 -59.2266 -21.9951 -60.9189 -56.7949h25.3828c0 20.6826 12.1836 36.1123 35.1973 36.1123s36.2129 -15.4297 36.2129 -37.0967c0 -15.7588 -6.0918 -23.6377 -18.2754 -32.8301
c-24.0293 -17.3994 -30.1211 -24.9502 -30.1211 -44.6475v-34.7998h25.3828zM204.68 95.0664c0 -10.5596 8.87988 -18.7197 19.4404 -18.7197c10.3203 0 19.2002 8.16016 19.2002 18.7197c0 10.5605 -8.87988 18.4805 -19.2002 18.4805s-19.4404 -7.91992 -19.4404 -18.4805
z" />
    <glyph glyph-name="uniF121" unicode="&#xf121;" 
d="M291.063 101.68l-123.326 123.324c-27.0986 -7.49609 -57.3389 -0.615234 -78.6377 20.6865c-21.1738 21.1748 -28.0996 51.1855 -20.8174 78.1602l45.7051 -45.7051l44.7764 12.001l11.9971 44.7734l-45.7051 45.7061
c26.9756 7.28125 56.9873 0.356445 78.1602 -20.8184c22.2344 -22.2295 28.7598 -54.2021 19.6191 -82.1768l3.0918 -3.0918l117.76 -117.762c27.9727 9.13672 59.9482 2.61426 82.1797 -19.6191c21.1738 -21.1738 28.0986 -51.1846 20.8203 -78.1602l-45.7051 45.7051
l-44.7764 -11.9971l-11.9961 -44.7754l45.7031 -45.707c-26.9775 -7.2832 -56.9883 -0.357422 -78.1621 20.8154c-21.2988 21.3037 -28.1807 51.541 -20.6865 78.6406zM236.202 118.586l-13.3652 -13.3652c9.13672 -27.9727 2.61426 -59.9482 -19.6201 -82.1797
c-21.1729 -21.1738 -51.1846 -28.0986 -78.1592 -20.8203l45.7041 45.7051l-11.9971 44.7764l-44.7754 11.9961l-45.707 -45.7031c-7.2832 26.9775 -0.357422 56.9883 20.8164 78.1631c21.3027 21.2988 51.541 28.1797 78.6406 20.6865l14.6016 14.6016l53.8613 -53.8604v0z
M271.311 261.417l19.7529 19.7529c-7.49609 27.0986 -0.615234 57.3389 20.6865 78.6377c21.1738 21.1748 51.1846 28.1006 78.1592 20.8174l-45.7051 -45.7041l12.001 -44.7764l44.7744 -11.998l45.7051 45.7051c7.28223 -26.9746 0.357422 -56.9873 -20.8184 -78.1602
c-22.2295 -22.2334 -54.2012 -28.7588 -82.1758 -19.6191l-18.5176 -18.5166l-53.8623 53.8613v0z" />
    <glyph glyph-name="uniF140" unicode="&#xf140;" 
d="M389.083 281.729v-8.31543c0 -11.627 -9.44043 -21.0518 -21.0469 -21.0518h-16.6641c-11.624 0 -21.0469 9.41504 -21.0469 21.0518v8.31543h-0.0371094v15.7549c0 20.3682 -16.4785 36.8486 -36.8066 36.8486h-75.2861c-20.3027 0 -36.8066 -16.498 -36.8066 -36.8486
v-100.295h204.207c23.25 0 42.0977 -18.8457 42.0977 -42.123v-113.239c0 -23.2637 -18.8701 -42.123 -42.0977 -42.123h-257.723c-23.25 0 -42.0977 18.8467 -42.0977 42.123v113.239c0 22.0859 17.0068 40.2021 38.6035 41.9805v0v107.778
c0 43.5635 35.2881 78.8789 78.8848 78.8789h106.941c43.5674 0 78.8848 -35.3359 78.8848 -78.8789v-23.0957v0h-0.00683594z" />
    <glyph glyph-name="uniF149" unicode="&#xf149;" 
d="M256.027 247.64l-153.286 -153.286c-8.88965 -8.88965 -23.1895 -9.00195 -32.0771 -0.114258c-8.82715 8.82617 -8.98145 22.9814 0.114258 32.0771l164.499 164.499c5.62891 5.62988 13.4287 7.74023 20.6504 6.27246
c7.21289 1.56055 15.0566 -0.479492 20.8496 -6.27246l164.499 -164.499c8.88965 -8.88965 9.00195 -23.1895 0.114258 -32.0771c-8.82715 -8.82617 -22.9824 -8.98145 -32.0781 0.114258z" />
    <glyph glyph-name="uniF11F" unicode="&#xf11f;" 
d="M221.144 281.474c-5.15625 39.0977 -34.7861 70.5859 -64.6074 71.4238c-29.8154 0.907227 -49.8105 -29.0449 -44.6533 -68.2129c5.14258 -39.168 33.4834 -71.6328 63.3047 -72.541c29.8008 -0.907227 51.0996 30.1621 45.9561 69.3301v0zM171.224 136.111
c-44.4199 0.489258 -84.2256 -27.0889 -84.2256 -60.1826c0 -33.792 32.0908 -58.4385 76.5117 -58.4385c62.4551 0 84.2334 22.9707 84.2334 56.6924c0 4.12012 -0.514648 8.09961 -1.42676 12.0088c-4.88184 19.0605 -22.1758 28.5557 -46.2988 45.3125
c-8.77051 2.8623 -18.4258 4.53809 -28.7939 4.60742v0zM224.154 347.103c24.3359 -13.7549 38.5986 -36.0264 38.5986 -65.1406c0 -24.4365 -14.8389 -43.7061 -33.9766 -58.7168c-18.6719 -14.5225 -22.2178 -20.666 -22.2178 -33.0938
c0 -10.543 20.0098 -28.626 30.4668 -35.957c30.5762 -21.6436 39.6133 -41.751 39.6133 -75.2637c0 -41.8213 -39.6133 -88.46 -112.889 -88.46c-64.2793 0 -120.227 31.2793 -120.227 73.0996c0 42.4502 51.1885 83.4326 115.461 83.4326
c7.00781 0 13.4189 0.279297 20.0635 0.279297c-8.79785 8.51855 -15.751 19.2002 -15.751 32.1172c0 7.67969 2.45508 15.3594 5.87012 21.9229c-3.49707 -0.209961 -7.0625 0.348633 -10.7314 0.348633c-52.793 0 -88.1621 38.8193 -88.1621 85.3877
c0 45.5215 48.8428 87.4121 100.738 87.4121h115.741l-25.8994 -27.3682h-36.6992v0zM413.81 278.052v-68.1426h-27.4287v68.1426h-68.5713v27.8574h68.5713v68.1426h27.4287v-68.1426h68.5713v-27.8574h-68.5713v0z" />
    <glyph glyph-name="uniF147" unicode="&#xf147;" 
d="M217.195 192.254l153.286 -153.285c9.0957 -9.0957 8.94043 -23.252 0.114258 -32.0781c-8.88867 -8.8877 -23.1885 -8.77539 -32.0781 0.114258l-164.499 164.499c-5.79199 5.79199 -7.83301 13.6367 -6.27148 20.8496
c-1.46777 7.2207 0.641602 15.0205 6.27148 20.6504l164.499 164.499c9.0957 9.0957 23.251 8.94141 32.0781 0.114258c8.8877 -8.8877 8.77441 -23.1875 -0.114258 -32.0771z" />
    <glyph glyph-name="uniF108" unicode="&#xf108;" horiz-adv-x="511" 
d="M216.615 338.647h-140.308v-295.385h295.385v190.745c6.57227 -3.7666 14.0303 -6.12988 22.1533 -6.12988c8.12402 0 15.6562 2.36328 22.1543 6.12988v-212.898c0 -12.2588 -9.89551 -22.1543 -22.1543 -22.1543h-339.691
c-12.2588 0 -22.1543 9.89551 -22.1543 22.1543v339.692c0 12.2578 9.89551 22.1533 22.1543 22.1533h212.898c-3.7666 -6.57227 -6.12988 -14.0303 -6.12988 -22.1533s2.36328 -15.582 6.12988 -22.1543h-50.4375v0zM393.846 250.032v0
c-12.2578 0 -22.1533 9.89551 -22.1533 22.1533v35.1514l-110.104 -110.179l-0.0742188 0.0742188c-3.9873 -3.91406 -9.37793 -6.27734 -15.3594 -6.27734c-12.2588 0 -22.1543 9.89551 -22.1543 22.1543c0 5.98145 2.43652 11.3721 6.27734 15.3594l-0.0742188 0.0742188
l110.179 110.104h-35.1514c-12.2578 0 -22.1533 9.89551 -22.1533 22.1543c0 12.2578 9.89551 22.1533 22.1533 22.1533h88.6152c12.2588 0 22.1543 -9.89551 22.1543 -22.1533v-88.6162c0 -12.2578 -9.89551 -22.1533 -22.1543 -22.1533v0z" />
    <glyph glyph-name="uniF111" unicode="&#xf111;" 
d="M413.728 134.618v-54.3467c0 -5.43555 -3.33301 -7.66504 -8.25 -4.45312l-90.0107 58.7998h-187.112c-5.24414 0 -9.49512 4.32812 -9.49512 9.4707v230.439c0 5.23145 4.16113 9.47168 9.49512 9.47168h310.15c5.24414 0 9.49512 -4.32812 9.49512 -9.47168v-230.439
c0 -5.23047 -4.16113 -9.4707 -9.49512 -9.4707h-24.7773zM386.944 58.5361c-1.01953 -0.368164 -2.12402 -0.569336 -3.28516 -0.569336h-180.254l-90.0107 -58.7988c-4.55664 -2.97656 -8.25 -1.21582 -8.25 4.45312v54.3457h-31.6484
c-5.24414 0 -9.49609 4.3291 -9.49609 9.47168v230.439c0 5.23047 4.16211 9.47168 9.49609 9.47168h24.791v-184.118c0 -5.15918 4.25098 -9.52539 9.49609 -9.52539h199.151z" />
    <glyph glyph-name="uniF10C" unicode="&#xf10c;" 
d="M256 224.29l103.447 103.447c8.93164 8.93164 23.3389 9.00586 32.3174 0.0273438c8.91602 -8.91699 8.88184 -23.4082 -0.0273438 -32.3174l-103.447 -103.447l103.447 -103.447c8.93164 -8.93164 9.00586 -23.3389 0.0273438 -32.3174
c-8.91699 -8.91602 -23.4082 -8.88184 -32.3174 0.0273438l-103.447 103.447l-103.447 -103.447c-8.93164 -8.93164 -23.3389 -9.00586 -32.3174 -0.0273438c-8.91602 8.91699 -8.88184 23.4082 0.0273438 32.3174l103.447 103.447l-103.447 103.447
c-8.93164 8.93164 -9.00586 23.3389 -0.0273438 32.3174c8.91699 8.91602 23.4082 8.88184 32.3174 -0.0273438z" />
    <glyph glyph-name="uniF10A" unicode="&#xf10a;" 
d="M404.977 382.855h55.0723c9.91602 0 17.9551 -8.02051 17.9551 -18.0059v-347.988c0 -9.94434 -8.08594 -18.0059 -17.9551 -18.0059h-408.09c-9.91602 0 -17.9551 8.02051 -17.9551 18.0059v347.988c0 9.94434 8.08594 18.0059 17.9551 18.0059h55.0713v0
c-0.665039 -1.88281 -1.02637 -3.90918 -1.02637 -6.01953v-47.96c0 -9.96582 8.06348 -18.0205 18.0098 -18.0205h11.9805c9.97559 0 18.0098 8.06836 18.0098 18.0205v47.96c0 2.11133 -0.362305 4.1377 -1.02734 6.01953h206.054
c-0.665039 -1.88281 -1.02637 -3.90918 -1.02637 -6.01953v-47.96c0 -9.96582 8.06348 -18.0205 18.0098 -18.0205h11.9805c9.97559 0 18.0098 8.06836 18.0098 18.0205v47.96c0 2.11133 -0.362305 4.1377 -1.02734 6.01953v0zM70.0039 256.883v-198.054
c0 -9.91895 8.0332 -17.9736 17.9424 -17.9736h336.115c9.82715 0 17.9424 8.04688 17.9424 17.9736v198.054c0 9.91797 -8.0332 17.9727 -17.9424 17.9727h-336.115c-9.82715 0 -17.9424 -8.04688 -17.9424 -17.9727zM202.813 225.426
c6.48047 0 12.3154 -0.945312 17.5059 -2.83496c5.18945 -1.89062 9.61426 -4.51562 13.2744 -7.875c3.66016 -3.36035 6.46484 -7.36523 8.41504 -12.0156c1.9502 -4.64941 2.9248 -9.76465 2.9248 -15.3447c0 -4.7998 -0.674805 -9.24023 -2.02441 -13.3193
c-1.35059 -4.08008 -3.19531 -7.96582 -5.53516 -11.6553c-2.33984 -3.69043 -5.05469 -7.25977 -8.14551 -10.71c-3.08984 -3.4502 -6.375 -6.94531 -9.85449 -10.4854l-25.6504 -26.2803c3.2998 0.959961 6.55566 1.72559 9.76562 2.29492
c3.20996 0.570312 6.22461 0.855469 9.04492 0.855469h24.4795c3 0 5.37012 -0.825195 7.11035 -2.47461c1.74023 -1.65039 2.61035 -3.8252 2.61035 -6.52539v-16.2002h-92.1602v9c0 1.74023 0.359375 3.60059 1.08008 5.58008
c0.719727 1.98047 1.97949 3.78027 3.7793 5.40039l37.8008 38.0693c3.23926 3.24023 6.05957 6.33008 8.45996 9.27051c2.39941 2.93945 4.37988 5.83496 5.93945 8.68457c1.56055 2.85059 2.73047 5.7002 3.50977 8.55078
c0.780273 2.84961 1.16992 5.86426 1.16992 9.04492c0 5.21973 -1.24414 9.22461 -3.73438 12.0146s-6.28516 4.18457 -11.3848 4.18457c-2.10059 0 -4.02051 -0.299805 -5.76074 -0.899414c-1.73926 -0.600586 -3.2998 -1.41016 -4.67969 -2.43066
c-1.37988 -1.01953 -2.56543 -2.21973 -3.55469 -3.59961c-0.990234 -1.37988 -1.78516 -2.87988 -2.38574 -4.5c-0.959961 -2.7002 -2.1748 -4.65039 -3.64453 -5.84961c-1.46973 -1.2002 -3.46484 -1.80078 -5.98535 -1.80078
c-0.599609 0 -1.24512 0.0302734 -1.93457 0.0908203c-0.69043 0.0595703 -1.39551 0.149414 -2.11523 0.269531l-14.7598 2.61035c0.959961 6.54004 2.80469 12.2393 5.53516 17.0996c2.72949 4.86035 6.12012 8.91016 10.1699 12.1504s8.68457 5.6543 13.9053 7.24512
c5.21973 1.58984 10.8291 2.38477 16.8291 2.38477zM342.854 212.466c0 -1.91992 -0.299805 -3.66016 -0.899414 -5.21973c-0.600586 -1.56055 -1.54492 -2.92578 -2.83496 -4.0957s-2.98535 -2.06934 -5.08496 -2.7002
c-2.10059 -0.629883 -4.62012 -0.944336 -7.56055 -0.944336h-31.3193l-3.69043 -21.6904c2.45996 0.419922 4.83008 0.735352 7.11035 0.945312c2.2793 0.209961 4.5 0.314453 6.66016 0.314453c6.89941 0 12.9893 -1.0498 18.2695 -3.14941
c5.28027 -2.10059 9.71973 -4.96484 13.3203 -8.59473c3.59961 -3.63086 6.31445 -7.89062 8.14453 -12.7803c1.83008 -4.89062 2.74512 -10.125 2.74512 -15.7051c0 -7.02051 -1.24512 -13.4248 -3.73535 -19.2148c-2.48926 -5.79004 -5.9541 -10.7852 -10.3945 -14.9854
s-9.73535 -7.45508 -15.8848 -9.76465c-6.15039 -2.31055 -12.8857 -3.46484 -20.2051 -3.46484c-4.26074 0 -8.3252 0.449219 -12.1953 1.34961s-7.5 2.11523 -10.8896 3.64551c-3.39062 1.5293 -6.52539 3.2998 -9.40527 5.30957s-5.49023 4.15527 -7.83008 6.43457
l8.63965 11.5205c0.900391 1.2002 1.9502 2.11523 3.15039 2.74512s2.49023 0.944336 3.87012 0.944336c1.7998 0 3.49512 -0.494141 5.08496 -1.48438s3.33008 -2.07031 5.21973 -3.24023c1.89062 -1.16992 4.0957 -2.23535 6.61523 -3.19531
s5.63965 -1.43945 9.36035 -1.43945c3.71973 0 6.89941 0.615234 9.54004 1.84473c2.63965 1.23047 4.78418 2.91016 6.43457 5.04004s2.84961 4.62012 3.59961 7.46973c0.75 2.85059 1.125 5.89551 1.125 9.13574c0 6.35938 -1.7998 11.2041 -5.39941 14.5342
c-3.60059 3.33008 -8.7002 4.99512 -15.2998 4.99512c-5.88086 0 -11.6406 -1.10938 -17.2803 -3.33008l-17.2803 4.68066l11.1602 65.6094h67.1396v-11.5195z" />
    <glyph glyph-name="uniF153" unicode="&#xf153;" horiz-adv-x="511" 
d="M256.006 -0.919922c-106.044 0 -192.006 85.9619 -192.006 192s85.9619 192 192.006 192c106.032 0 191.994 -85.9619 191.994 -192s-85.9619 -192 -191.994 -192zM253.949 117.229l107.867 124.08c2.54785 2.91504 3.93945 6.77441 3.58105 10.8809
c-0.71875 8.21094 -13.7998 18.9551 -22.2881 18.2119c-4.24219 -0.371094 -7.93652 -2.38867 -10.4844 -5.30371l-93.2031 -107.021l-54.8115 44.2266c-3.01465 2.42773 -7.00391 3.77344 -11.251 3.40137c-8.4834 -0.741211 -19.5049 -13.5938 -18.7871 -21.8057
c0.359375 -4.10547 2.40527 -7.66504 5.4209 -10.0928l72.2207 -58.4795c3.01465 -2.42773 7.00391 -3.77344 11.2461 -3.40234c4.24609 0.371094 7.94141 2.38867 10.4893 5.30371z" />
    <glyph glyph-name="uniF115" unicode="&#xf115;" 
d="M131.823 121.299l112.42 148.554c6.53906 8.6416 17.1758 8.5957 23.6807 0l112.423 -148.558c6.53906 -8.64062 4.27539 -15.6455 -4.98242 -15.6455l-238.559 0.00390625c-9.29004 0 -11.4863 7.0498 -4.98242 15.6455z" />
    <glyph glyph-name="uniF15E" unicode="&#xf15e;" horiz-adv-x="511" 
d="M448 191.08l-103.422 -103.783v86.0059h-35.4307v35.5557h35.4307v86.0059zM271.801 208.858v-35.5557h-44.29v35.5557h44.29zM189.925 208.858v-35.5557h-44.2891v35.5557h44.2891zM108.289 208.858v-35.5557h-44.2891v35.5557h44.2891z" />
    <glyph glyph-name="uniF131" unicode="&#xf131;" horiz-adv-x="511" 
d="M292.844 174.93h-20.3496v-103.623h55.7246l-72.2188 -71.8828l-72.2188 71.8828h55.7246v103.623h-103.624v-55.7236l-71.8818 72.2178l71.8818 72.2188v-55.7236h103.624v103.623h-55.7246l72.2188 71.8818l72.2188 -71.8818h-55.7246v-103.623h20.3496h83.2744
v55.7236l71.8818 -72.2188l-71.8818 -72.2178v55.7236h-83.2744z" />
    <glyph glyph-name="uniF16A" unicode="&#xf16a;" 
d="M367.932 -28.6162c-56.7529 0 -102.76 46.0068 -102.76 102.76s46.0068 102.76 102.76 102.76s102.76 -46.0068 102.76 -102.76s-46.0068 -102.76 -102.76 -102.76zM373.354 127.133c0 3.82812 -3.125 6.9541 -6.97949 6.9541
c-3.88574 0 -6.98047 -3.11426 -6.98047 -6.9541v-44.4521h-44.4521c-3.83301 0 -6.9541 -3.125 -6.9541 -6.98047c0 -3.88477 3.11426 -6.98047 6.9541 -6.98047h44.4521v-44.4521c0 -3.83203 3.125 -6.95312 6.98047 -6.95312c3.88086 0 6.97949 3.11328 6.97949 6.95312
v44.4521h44.4521c3.8291 0 6.9541 3.12598 6.9541 6.98047c0 3.88086 -3.11426 6.98047 -6.9541 6.98047h-44.4521v44.4521zM241.84 71.708h-16.2627h-166.703v36.8867c0 10.9795 28.4922 27.0781 72.3486 42.8701c43.7178 15.7461 57.6846 29.0244 57.6846 57.4541
c0 17.0664 -13.3408 11.498 -19.207 42.7529c-2.43262 12.9619 -14.2236 0.207031 -16.4766 29.8086c0 11.7998 6.43359 14.7285 6.43359 14.7285s-3.27051 17.458 -4.55078 30.8936c-1.58984 16.7383 9.79102 59.9912 70.4668 59.9912s72.0518 -43.2529 70.4658 -59.9912
c-1.2793 -13.4355 -4.55078 -30.8936 -4.55078 -30.8936s6.43457 -2.92871 6.43457 -14.7285c-2.25781 -29.6016 -14.0439 -16.8467 -16.4766 -29.8086c-5.8623 -31.2598 -19.2119 -25.6865 -19.2119 -42.7529c0 -18.3145 5.79785 -30.3408 21.6055 -40.7881
c-25.792 -23.0918 -42.0225 -56.6445 -42.0225 -93.9873c0 -0.813477 0.0078125 -1.62598 0.0224609 -2.43555z" />
    <glyph glyph-name="uniF145" unicode="&#xf145;" horiz-adv-x="511" 
d="M256 -0.919922c-106.039 0 -192 85.9619 -192 192c0 106.039 85.9609 192 192 192s192 -85.9609 192 -192c0 -106.038 -85.9609 -192 -192 -192zM281.946 292.27h-51.8926l9.00195 -134.919h35.4775zM230.054 106.491c0 -14.7305 11.9258 -26.1133 26.1074 -26.1133
c13.8594 0 25.7852 11.3828 25.7852 26.1133s-11.9258 25.7783 -25.7852 25.7783s-26.1074 -11.0479 -26.1074 -25.7783z" />
    <glyph glyph-name="uniF117" unicode="&#xf117;" 
d="M256.438 60.0859c-129.166 0 -224.062 132.668 -224.062 132.668s106.303 132.668 224.062 132.668s224.062 -132.668 224.062 -132.668s-94.8955 -132.668 -224.062 -132.668zM256.438 110.408c45.458 0 82.3086 36.8672 82.3086 82.3457
s-36.8506 82.3457 -82.3086 82.3457s-82.3086 -36.8672 -82.3086 -82.3457s36.8506 -82.3457 82.3086 -82.3457zM256.438 142.432c-27.7793 0 -50.2998 22.5303 -50.2998 50.3223s22.5205 50.3223 50.2998 50.3223s50.2998 -22.5303 50.2998 -50.3223
s-22.5205 -50.3223 -50.2998 -50.3223z" />
    <glyph glyph-name="uniF12E" unicode="&#xf12e;" horiz-adv-x="511" 
d="M21 67.9443h406c11.6201 0 21 -12.835 21 -28.7363s-9.37988 -28.7373 -21 -28.7373h-406c-11.6201 0 -21 12.8359 -21 28.7373s9.37988 28.7363 21 28.7363v0zM427 316.997h-406c-11.6201 0 -21 12.8359 -21 28.7373c0 15.9004 9.37988 28.7363 21 28.7363h406
c11.6201 0 21 -12.8359 21 -28.7363c0 -15.9014 -9.37988 -28.7373 -21 -28.7373v0zM427 163.734h-406c-11.6201 0 -21 12.8359 -21 28.7363c0 15.9014 9.37988 28.7373 21 28.7373h406c11.6201 0 21 -12.8359 21 -28.7373c0 -15.9004 -9.37988 -28.7363 -21 -28.7363v0z
" />
    <glyph glyph-name="uniF110" unicode="&#xf110;" horiz-adv-x="511" 
d="M243.137 68.8018l-98.4463 -69.7217l1.10449 69.7217h-104.438c-5.16797 0 -9.35742 4.22266 -9.35742 9.59961v279.469c0 5.30078 4.43359 9.59863 9.35742 9.59863h429.285c5.16797 0 9.35742 -4.22168 9.35742 -9.59863v-279.469
c0 -5.30176 -4.43359 -9.59961 -9.35742 -9.59961h-227.506z" />
    <glyph glyph-name="uniF157" unicode="&#xf157;" horiz-adv-x="511" 
d="M223.982 382.955c-106.01 0 -191.982 -85.9609 -191.982 -192.006c0 -84.8291 55.0088 -156.787 131.305 -182.188c9.60547 -1.75586 13.1064 4.17285 13.1064 9.26465c0 4.5498 -0.165039 16.6309 -0.259766 32.6494
c-53.4053 -11.5986 -64.6738 25.7422 -64.6738 25.7422c-8.7334 22.1826 -21.3223 28.0879 -21.3223 28.0879c-17.4316 11.9043 1.32031 11.668 1.32031 11.668c19.2715 -1.35547 29.4082 -19.7891 29.4082 -19.7891c17.126 -29.3379 44.9424 -20.8633 55.8809 -15.9482
c1.74414 12.4004 6.70703 20.8633 12.1875 25.6602c-42.6328 4.84473 -87.458 21.3223 -87.458 94.8945c0 20.957 7.48535 38.1074 19.7666 51.5205c-1.96777 4.85547 -8.55664 24.3867 1.88574 50.8125c0 0 16.1133 5.16211 52.793 -19.6836
c15.3232 4.2666 31.7422 6.3877 48.0664 6.4707c16.3125 -0.0830078 32.7314 -2.2041 48.0664 -6.4707c36.6562 24.8457 52.7578 19.6836 52.7578 19.6836c10.4658 -26.4258 3.87695 -45.957 1.90918 -50.8125c12.3047 -13.4131 19.7305 -30.5635 19.7305 -51.5205
c0 -73.7607 -44.8955 -89.9912 -87.6572 -94.7412c6.89453 -5.92871 13.0361 -17.6445 13.0361 -35.5605c0 -25.6602 -0.248047 -46.3691 -0.248047 -52.6631c0 -5.13965 3.46582 -11.1152 13.2129 -9.24121c76.2246 25.4482 131.187 97.3584 131.187 182.164
c0 106.045 -85.9727 192.006 -192.018 192.006z" />
    <glyph glyph-name="uniF14E" unicode="&#xf14e;" 
d="M188.278 32.2432c27.5654 6.61133 66.5449 9.69238 117.418 3.83105c6.6582 -0.783203 13.0156 -1.63574 19.1719 -2.57227c-0.00585938 -0.322266 0 -0.624023 -0.0507812 -0.933594c-3.34766 -25.9395 -37.1191 -43.376 -75.4072 -38.957
c-30.0703 3.46973 -53.8984 19.3984 -61.1318 38.6318zM303.874 374.996c82.9307 -29.877 93.2148 -81.1885 101.804 -209.214c3.66211 -53.9199 47.9404 -40.8164 46.6045 -94.8262c-0.983398 -39.3711 -393.388 -35.4609 -392.448 3.92676
c1.37988 53.9932 44.9883 40.0186 51.2656 93.8398c14.9678 127.782 27.7979 178.885 112.146 207.058c30.0381 10.0439 15.5488 29.5557 41.0742 29.2949c25.4795 -0.249023 10.0557 -19.4521 39.5537 -30.0791zM465.601 400.345v0v-6.50684
c0 -1.2168 -0.198242 -2.41406 -0.592773 -3.57812c-0.378906 -1.11719 -0.902344 -2.16992 -1.58789 -3.17773l-36.3428 -52.1064l-2.17676 4.19629h36.875h2.65625v-2.66699v-13.8662v-2.66699h-2.65625h-59.7217h-2.65723v2.66699v6.93262
c0 1.125 0.195312 2.23633 0.579102 3.32031c0.370117 1.04492 0.881836 2.01562 1.49512 2.84961l36.4502 52.2666l2.17578 -4.19629h-35.0674h-2.65723v2.66699v13.8662v2.66699h2.65723h57.915h2.65625v-2.66699zM99.3037 385.299v0v-4.17871
c0 -0.782227 -0.12793 -1.55078 -0.380859 -2.29883c-0.243164 -0.717773 -0.580078 -1.39355 -1.01953 -2.04102l-23.3418 -33.4658l-1.39844 2.69531h23.6836h1.70605v-1.71289v-8.90625v-1.71289h-1.70605h-38.3574h-1.70605v1.71289v4.45312
c0 0.722656 0.125 1.43652 0.371094 2.13281c0.238281 0.670898 0.567383 1.29395 0.960938 1.83008l23.4102 33.5684l1.39746 -2.69531h-22.5225h-1.70605v1.71289v8.90625v1.71289h1.70605h37.1963h1.70703v-1.71289z" />
    <glyph glyph-name="uniF14C" unicode="&#xf14c;" 
d="M191.396 36.3213c26.7842 6.45117 64.6543 9.47656 114.071 3.81445c6.46777 -0.755859 12.6436 -1.58105 18.623 -2.4873c-0.00585938 -0.313477 0 -0.606445 -0.0507812 -0.907227c-3.27051 -25.2305 -36.0918 -42.2148 -73.2852 -37.9453
c-29.209 3.35156 -52.3457 18.8252 -59.3584 37.5254zM303.899 369.804c80.5342 -29.0098 90.4912 -78.915 98.7539 -203.441c3.52344 -52.4463 46.541 -39.6729 45.209 -92.21c-0.979492 -38.2979 -382.13 -34.7393 -381.193 3.5752
c1.375 52.5205 43.7236 38.9551 49.8545 91.3105c14.6182 124.305 27.1123 174.021 109.061 201.478c29.1836 9.78906 15.1211 28.7598 39.915 28.5215c24.748 -0.226562 9.75488 -18.915 38.4004 -29.2334z" />
    <glyph glyph-name="uniF164" unicode="&#xf164;" 
d="M240.035 286.27l-111.029 34.8125c-3.04395 0.955078 -5.92285 -1.00977 -5.92285 -4.54785v-246.292c0 -3.49414 2.65137 -7.23535 5.92285 -8.26172l111.029 -34.8115v259.101zM273.449 24.665l115.206 38.7568c3.04395 1.02344 5.92285 4.85938 5.92285 8.39746
v246.292c0 3.49414 -2.65137 5.5127 -5.92285 4.41211l-115.206 -38.7568v-259.102zM89.668 367.918c0 5.28613 4.12988 8.1875 8.98242 6.56055l149.109 -49.9707c4.96094 -1.66309 13.1123 -1.62695 17.9648 0l149.109 49.9707
c4.96094 1.66309 8.98242 -1.18359 8.98242 -6.56055v-312.616c0 -5.28613 -4.12988 -10.9551 -8.98242 -12.5811l-149.109 -49.9717c-4.96094 -1.66211 -13.1123 -1.62598 -17.9648 0l-149.109 49.9717c-4.96094 1.66211 -8.98242 7.20508 -8.98242 12.5811v312.616z
M298.511 228.434c0 3.53223 2.50195 7.2793 5.89941 8.47949l63.3848 22.3779c3.25781 1.15039 5.89941 -0.978516 5.89941 -4.31348v-20.3828c0 -3.5332 -2.50195 -7.28027 -5.89941 -8.47949l-63.3848 -22.3779c-3.25781 -1.15039 -5.89941 0.978516 -5.89941 4.31348
v20.3828zM143.967 254.978c0 3.53223 2.50195 5.55469 5.89941 4.41113l63.3848 -21.3311c3.25781 -1.0957 5.89941 -5.04688 5.89941 -8.38184v-20.3828c0 -3.53223 -2.50098 -5.55469 -5.89941 -4.41113l-63.3848 21.3311
c-3.25781 1.09668 -5.89941 5.04688 -5.89941 8.38184v20.3828zM143.967 196.92c0 3.53223 2.50195 5.55469 5.89941 4.41113l63.3848 -21.3311c3.25781 -1.09668 5.89941 -5.04688 5.89941 -8.38184v-20.3828c0 -3.53223 -2.50098 -5.55469 -5.89941 -4.41113
l-63.3848 21.3311c-3.25781 1.09668 -5.89941 5.04688 -5.89941 8.38184v20.3828zM143.967 138.862c0 3.53223 2.50195 5.55469 5.89941 4.41113l63.3848 -21.3311c3.25781 -1.09668 5.89941 -5.04688 5.89941 -8.38184v-20.3828
c0 -3.53223 -2.50098 -5.55469 -5.89941 -4.41113l-63.3848 21.3311c-3.25781 1.0957 -5.89941 5.04688 -5.89941 8.38184v20.3828zM298.511 170.376c0 3.53223 2.50195 7.2793 5.89941 8.47949l63.3848 22.3779c3.25781 1.15039 5.89941 -0.978516 5.89941 -4.31348
v-20.3828c0 -3.5332 -2.50195 -7.28027 -5.89941 -8.47949l-63.3848 -22.3779c-3.25781 -1.15039 -5.89941 0.978516 -5.89941 4.31348v20.3828zM298.511 112.318c0 3.53223 2.50195 7.2793 5.89941 8.47949l63.3848 22.3779
c3.25781 1.15039 5.89941 -0.978516 5.89941 -4.31348v-20.3828c0 -3.5332 -2.50195 -7.28027 -5.89941 -8.47949l-63.3848 -22.3779c-3.25781 -1.15039 -5.89941 0.978516 -5.89941 4.31348v20.3828z" />
    <glyph glyph-name="uniF15C" unicode="&#xf15c;" 
d="M256.742 -0.919922l-103.784 103.422h86.0068v35.4316h35.5547v-35.4316h86.0068zM238.965 175.28v44.2891h35.5547v-44.2891h-35.5547zM238.965 257.155v44.2891h35.5547v-44.2891h-35.5547zM238.965 338.791v44.2891h35.5547v-44.2891h-35.5547z" />
    <glyph glyph-name="uniF100" unicode="&#xf100;" horiz-adv-x="511" 
d="M278.829 214.339h146.292c12.6357 0 22.8789 -10.249 22.8789 -22.832c0 -12.6104 -10.2744 -22.832 -22.8789 -22.832h-146.292v-146.297c0 -12.626 -10.248 -22.8691 -22.832 -22.8691c-12.6094 0 -22.832 10.2744 -22.832 22.8691v146.297h-146.291
c-12.6357 0 -22.874 10.248 -22.874 22.832c0 12.6094 10.2744 22.832 22.874 22.832h146.291v146.297c0 12.6299 10.249 22.8682 22.832 22.8682c12.6104 0 22.832 -10.2695 22.832 -22.8682v-146.297z" />
    <glyph glyph-name="uniF14A" unicode="&#xf14a;" 
d="M174.364 326.616h50.0098c6.92578 0 12.5391 -5.5498 12.5391 -12.502c0 -6.90527 -5.61035 -12.5029 -12.5391 -12.5029h-50.0098v-50.0098c0 -6.9248 -5.5498 -12.5391 -12.5029 -12.5391c-6.9043 0 -12.502 5.61035 -12.502 12.5391v50.0098h-50.0098
c-6.92578 0 -12.54 5.5498 -12.54 12.5029c0 6.9043 5.61035 12.502 12.54 12.502h50.0098v50.0098c0 6.92578 5.5498 12.54 12.502 12.54c6.90527 0 12.5029 -5.61035 12.5029 -12.54v-50.0098zM289.641 198.337l71.7559 76.8418l21.7227 -23.2617l-161.448 -172.893
l-0.170898 0.182617v0c-0.90625 -1.21191 -1.88477 -2.38281 -2.93457 -3.50684c-15.4316 -16.5264 -40.4463 -16.5332 -55.8711 -0.015625s-15.418 43.3057 0.0136719 59.832c1.0498 1.12402 2.14355 2.1709 3.27539 3.14258v0l-0.169922 0.182617l119.507 127.978
c6.0166 6.44238 15.7686 6.44531 21.7549 0.0341797c5.99805 -6.42285 5.9873 -16.8496 -0.0332031 -23.2959l-47.6797 -51.0605l-74.9414 -80.2529c-3.41309 -3.6543 -3.4209 -9.61523 0.00683594 -13.2852c3.45117 -3.69629 8.98242 -3.67383 12.4062 -0.00683594
l92.8066 99.3848v0zM255.729 42.5518c-0.977539 -1.15527 -1.9873 -2.29199 -3.02832 -3.40625c-34.2949 -36.7256 -89.8828 -36.7402 -124.159 -0.0341797c-34.2773 36.7061 -34.2627 96.2344 0.03125 132.96c1.04102 1.11523 2.10156 2.19629 3.18066 3.24316v0
l-0.0761719 0.0820312l161.448 172.892l21.7227 -23.2617l-139.405 -149.287l-25.1475 -26.9297c-22.292 -23.8721 -22.3008 -62.5654 -0.0205078 -86.4238c22.2793 -23.8594 58.4121 -23.8496 80.7031 0.0214844c1.04492 1.11914 2.04004 2.27051 2.9873 3.45117
l0.117188 -0.125977l22.043 23.6045l128.562 137.675c5.98926 6.41309 15.7188 6.3916 21.7051 -0.0185547c5.99902 -6.42383 6.0293 -16.8057 0.0175781 -23.2432l-150.604 -161.28l-0.0761719 0.0820312v0v0zM293.152 348.26
c24.9629 24.9805 64.1055 24.4463 88.4375 -1.60938c24.3311 -26.0566 24.8301 -67.9736 1.50293 -94.7051l-21.7471 23.2881c11.3379 13.8516 10.8428 34.9365 -1.48926 48.1426c-12.333 13.207 -32.0215 13.7373 -44.957 1.5957l-0.0253906 0.0273438l-21.7217 23.2607v0
v0z" />
    <glyph glyph-name="uniF167" unicode="&#xf167;" horiz-adv-x="511" 
d="M256.006 -0.296875c-106.044 0 -192.006 85.9619 -192.006 192s85.9619 192 192.006 192c106.032 0 191.994 -85.9619 191.994 -192s-85.9619 -192 -191.994 -192zM126.677 144.962c43.1387 -33.4795 125.781 -97.875 125.781 -97.875s4.22754 -3.62988 8.05273 0.547852
c42.6348 33.335 125.558 98.5127 125.558 98.5127s2.45117 1.63672 2.45117 4.76855s0.283203 79.9727 0.404297 114.028c0.46582 3.33984 -4.12598 4.49316 -4.12598 4.49316l-125.422 42.3721s-3.37598 2.04492 -6.91797 -0.423828
c-4.56445 -1.63965 -117.751 -41.9531 -124.646 -44.2393c-4.61621 -2.09863 -3.35352 -8.1416 -3.35352 -8.1416v-107.89s-0.556641 -4.99902 2.21777 -6.15332zM256 213.397l-108.542 44.0459l108.542 37.5098l115.977 -37.5098v-99.9229l-115.977 -82.7842v126.629
l100.67 46.1748z" />
    <glyph glyph-name="uniF14F" unicode="&#xf14f;" horiz-adv-x="511" 
d="M256 0.375c-106.039 0 -192 85.9609 -192 192s85.9609 192 192 192s192 -85.9609 192 -192s-85.9609 -192 -192 -192zM342.08 189.841c8.75879 0 15.8301 7.07031 15.8301 15.8301v63.3184c0 8.75977 -7.07129 15.8301 -15.8301 15.8301h-63.3193
c-8.75879 0 -15.8291 -7.07031 -15.8291 -15.8301c0 -8.75879 7.07031 -15.8291 15.8291 -15.8291h25.1172l-78.7275 -78.6738l0.0537109 -0.0527344c-2.74414 -2.84961 -4.48535 -6.70117 -4.48535 -10.9756c0 -8.75879 7.07031 -15.8301 15.8291 -15.8301
c4.27441 0 8.12598 1.68848 10.9756 4.48535l0.0527344 -0.0527344l78.6738 78.7266v-25.1162c0 -8.75977 7.07129 -15.8301 15.8301 -15.8301zM195.215 253.16h20.2275h36.0391c-2.69141 4.69629 -4.37988 10.0254 -4.37988 15.8291
c0 5.80469 1.68848 11.1338 4.37988 15.8301h-72.0957c-8.75977 0 -15.8301 -7.07031 -15.8301 -15.8301v-162.694c0 -8.75879 7.07031 -15.8301 15.8301 -15.8301h162.694c8.75879 0 15.8301 7.07129 15.8301 15.8301v72.0957
c-4.64355 -2.69141 -10.0264 -4.37988 -15.8301 -4.37988c-5.80469 0 -11.1338 1.68848 -15.8301 4.37988v-56.2656h-131.035v131.035z" />
    <glyph glyph-name="uniF13E" unicode="&#xf13e;" 
d="M343.195 382.763c38.3721 0.662109 58.7949 -13.0254 78.2979 -30.3174c16.5605 1.39844 38.0781 10.375 50.7539 16.6299c4.11133 2.20801 8.21582 4.41504 12.3271 6.62305c-7.24219 -19.0586 -17.0576 -33.9961 -32.1396 -45.3291
c-3.35742 -2.5752 -6.67773 -5.95996 -10.8799 -7.5791v-0.220703c21.4951 0.220703 39.2324 9.71387 56.0723 14.791v-0.220703c-8.84961 -13.6875 -20.8232 -27.5947 -33.5967 -37.6025c-5.15234 -3.97363 -10.3135 -7.94727 -15.4668 -11.9941
c0.279297 -22.1494 -0.338867 -43.3418 -4.59473 -62.0332c-24.7383 -108.465 -90.2871 -182.05 -194.057 -213.618c-37.2627 -11.332 -97.4766 -15.9688 -140.172 -5.59277c-21.1709 5.07715 -40.2969 10.8906 -58.2451 18.5439
c-9.9668 4.26758 -19.2012 8.83008 -28.0283 14.0547c-2.90527 1.76562 -5.80273 3.45801 -8.70703 5.22461c9.63477 -0.294922 20.8984 -2.87012 31.665 -1.17773c9.74023 1.54492 19.292 1.10352 28.2695 3.01758c22.416 4.78223 42.3105 11.1846 59.4521 20.8975
c8.31445 4.7832 20.9219 10.376 26.8291 17.2197c-11.1279 -0.220703 -21.2158 2.28125 -29.4844 5.15039c-32.0498 11.0381 -50.7002 31.3477 -62.832 61.8125c9.70996 -1.03027 37.6777 -3.53223 44.2188 1.83887c-12.2217 0.663086 -23.9766 7.58008 -32.3809 12.7305
c-25.7734 15.7471 -46.7998 42.0908 -46.6416 82.71c3.37988 -1.54492 6.76758 -3.16406 10.1475 -4.70898c6.47363 -2.64941 13.0596 -4.04688 20.7852 -5.66602c3.26758 -0.588867 9.78613 -2.50195 13.5352 -1.17773h-0.482422
c-4.9873 5.66602 -13.1123 9.49316 -18.1299 15.5264c-16.5381 20.0889 -32.0342 50.9219 -22.2266 87.6406c2.48242 9.3457 6.42773 17.5869 10.6309 25.166c0.158203 -0.0732422 0.324219 -0.146484 0.482422 -0.220703
c1.92383 -3.89941 6.2168 -6.84277 8.94043 -10.0811c8.4502 -10.2285 18.8691 -19.4268 29.4844 -27.5205c36.1768 -27.5947 68.7549 -44.5195 121.077 -57.1025c13.2715 -3.16406 28.6172 -5.59277 44.4688 -5.66602c-4.45117 12.6562 -3.02539 33.1133 0.482422 45.4023
c8.82031 30.7588 27.9688 52.9814 56.0645 64.8281c6.72266 2.87012 14.1768 4.93066 21.9932 6.62305c4.02832 0.441406 8.05762 0.882812 12.0869 1.39844z" />
    <glyph glyph-name="uniF155" unicode="&#xf155;" horiz-adv-x="511" 
d="M256 -0.576172c-106.039 0 -192 85.9619 -192 192c0 106.039 85.9609 192 192 192s192 -85.9609 192 -192c0 -106.038 -85.9609 -192 -192 -192zM360.727 188.933c0.00683594 0.142578 0.00976562 0.285156 0.00976562 0.427734
c0 0.143555 -0.00683594 0.286133 -0.0126953 0.428711c-0.00390625 0.107422 -0.0136719 0.213867 -0.0205078 0.285156c-0.00292969 0.0712891 -0.00683594 0.107422 -0.00976562 0.143555c-0.00683594 0.0712891 -0.0166016 0.142578 -0.0263672 0.213867
s-0.0166016 0.178711 -0.0292969 0.25l-0.00390625 0.0351562c-0.260742 1.78516 -1.03027 3.49805 -2.20996 4.7832c-6.74414 8.85156 -14.7646 16.7041 -22.9229 23.9141c-17.5693 15.4551 -37.6621 28.4111 -59.8428 33.6221
c-12.8193 2.99902 -25.7178 3.1416 -38.6064 0.607422c-11.7188 -2.32031 -23.0195 -7.13867 -33.5918 -13.1348c-16.5527 -9.35156 -31.667 -22.2373 -44.8369 -36.6924c-2.4375 -2.67676 -4.8623 -5.38965 -7.0752 -8.31641
c-2.95312 -3.85449 -2.95312 -8.42383 0 -12.2783c6.74219 -8.85156 14.7646 -16.7041 22.9238 -23.9141c17.5693 -15.4551 37.665 -28.4121 59.8457 -33.623c12.8193 -2.99805 25.7178 -3.14062 38.6064 -0.606445c11.7188 2.32031 23.0156 7.13867 33.5918 13.1348
c16.5488 9.35156 31.667 22.2363 44.8369 36.6924c2.4375 2.67676 4.8584 5.38965 7.07812 8.31641c1.17969 1.28516 1.94922 2.96191 2.20703 4.78223c0 0 0.00292969 0.0361328 0.00585938 0.0361328c0.00976562 0.0712891 0.0205078 0.178711 0.0263672 0.25
c0.0107422 0.0712891 0.0234375 0.142578 0.0263672 0.213867c0.00390625 0.0361328 0.00683594 0.0712891 0.0136719 0.142578s0.0136719 0.178711 0.0166016 0.286133zM253.887 234.334c21.8936 0 39.6377 -19.167 39.6377 -42.8311
c0 -23.665 -17.7441 -42.832 -39.6377 -42.832c-21.8896 0 -39.6367 19.167 -39.6367 42.832c0 23.6641 17.7471 42.8311 39.6367 42.8311zM254.485 169.926c10.9463 0 19.8184 9.60156 19.8184 21.416s-8.87207 21.416 -19.8184 21.416
c-10.9434 0 -19.8184 -9.60156 -19.8184 -21.416s8.875 -21.416 19.8184 -21.416z" />
    <glyph glyph-name="uniF128" unicode="&#xf128;" 
d="M256.438 0.753906c0 0 -154.105 148.053 -154.105 232s68.9951 152 154.105 152s154.105 -68.0527 154.105 -152s-154.105 -232 -154.105 -232zM253.912 137.175c50.2285 0 90.9473 40.7188 90.9473 90.9473c0 50.2295 -40.7188 90.9473 -90.9473 90.9473
s-90.9473 -40.7178 -90.9473 -90.9473c0 -50.2285 40.7188 -90.9473 90.9473 -90.9473zM253.912 172.543c-30.6953 0 -55.5791 24.8838 -55.5791 55.5791s24.8838 55.5791 55.5791 55.5791s55.5791 -24.8838 55.5791 -55.5791s-24.8838 -55.5791 -55.5791 -55.5791z" />
    <glyph glyph-name="uniF14D" unicode="&#xf14d;" 
d="M188.278 32.2432c27.5654 6.61133 66.5449 9.69238 117.418 3.83105c6.6582 -0.783203 13.0156 -1.63574 19.1719 -2.57227c-0.00585938 -0.322266 0 -0.624023 -0.0507812 -0.933594c-3.34766 -25.9395 -37.1191 -43.376 -75.4072 -38.957
c-30.0703 3.46973 -53.8984 19.3984 -61.1318 38.6318zM303.874 374.996c82.9307 -29.877 93.2148 -81.1885 101.804 -209.214c3.66211 -53.9199 47.9404 -40.8164 46.6045 -94.8262c-0.983398 -39.3711 -393.388 -35.4609 -392.448 3.92676
c1.37988 53.9932 44.9883 40.0186 51.2656 93.8398c14.9678 127.782 27.7979 178.885 112.146 207.058c30.0381 10.0439 15.5488 29.5557 41.0742 29.2949c25.4795 -0.249023 10.0557 -19.4521 39.5537 -30.0791zM169.218 381.301
c0.792969 0.245117 1.63477 0.376953 2.50781 0.376953c4.71875 0 8.54395 -3.8623 8.54395 -8.62695c0 -2.625 -1.16113 -4.97656 -2.99316 -6.55957l0.115234 -0.211914c-0.255859 -0.0966797 -0.510742 -0.196289 -0.764648 -0.295898
c-0.974609 -0.69043 -2.09961 -1.18066 -3.31445 -1.41113c-15.9111 -7.28125 -28.5693 -20.5371 -35.167 -36.9316l-0.169922 0.0644531c-1.41699 -2.78711 -4.29199 -4.69336 -7.60742 -4.69336c-4.71875 0 -8.54492 3.8623 -8.54492 8.62695
c0 1.78906 0.540039 3.45117 1.46289 4.8291c8.89844 20.3633 25.3691 36.5957 45.8086 45.0605zM403.162 334.174c0.246094 -0.792969 0.37793 -1.63477 0.37793 -2.50781c0 -4.71875 -3.86328 -8.54492 -8.62793 -8.54492c-2.625 0 -4.97656 1.16211 -6.55859 2.99414
l-0.211914 -0.115234c-0.0976562 0.255859 -0.196289 0.510742 -0.296875 0.764648c-0.69043 0.974609 -1.18066 2.09961 -1.41113 3.31445c-7.28125 15.9111 -20.5371 28.5693 -36.9307 35.167l0.0634766 0.169922c-2.78613 1.41699 -4.69336 4.29199 -4.69336 7.60742
c0 4.71875 3.8623 8.54492 8.62793 8.54492c1.78906 0 3.45117 -0.540039 4.8291 -1.46289c20.3623 -8.89844 36.5947 -25.3691 45.0605 -45.8086zM441.538 346.496c0.378906 -1.23242 0.583008 -2.54102 0.583008 -3.89648c0 -7.33691 -5.96875 -13.2832 -13.333 -13.2832
c-4.05762 0 -7.69141 1.80469 -10.1367 4.65332l-0.328125 -0.178711c-0.150391 0.396484 -0.302734 0.792969 -0.458008 1.18848c-1.06738 1.51562 -1.8252 3.26367 -2.18066 5.15234c-11.2529 24.7344 -31.7383 44.4131 -57.0752 54.6689l0.0996094 0.264648
c-4.30762 2.20215 -7.25391 6.6709 -7.25391 11.8252c0 7.33594 5.96875 13.2832 13.333 13.2832c2.76562 0 5.33398 -0.838867 7.46387 -2.27441c31.4697 -13.833 56.5557 -39.4365 69.6387 -71.21zM159.37 419.495c1.23242 0.378906 2.54102 0.583008 3.89746 0.583008
c7.33594 0 13.2832 -5.96973 13.2832 -13.333c0 -4.05762 -1.80566 -7.69141 -4.6543 -10.1377l0.179688 -0.327148c-0.397461 -0.150391 -0.793945 -0.302734 -1.18848 -0.458008c-1.51562 -1.06738 -3.26367 -1.8252 -5.15332 -2.18164
c-24.7344 -11.252 -44.4121 -31.7383 -54.668 -57.0742l-0.264648 0.0986328c-2.20215 -4.30664 -6.6709 -7.25391 -11.8252 -7.25391c-7.33691 0 -13.2842 5.96973 -13.2842 13.334c0 2.76465 0.838867 5.33301 2.27441 7.46289
c13.833 31.4697 39.4365 56.5566 71.2109 69.6396z" />
    <glyph glyph-name="uniF11C" unicode="&#xf11c;" 
d="M216.074 137.53l153.285 153.285c9.0957 9.0957 23.251 8.94141 32.0781 0.114258c8.8877 -8.8877 8.77539 -23.1875 -0.114258 -32.0771l-164.499 -164.499c-5.80469 -5.80469 -13.6699 -7.8418 -20.8965 -6.26172
c-7.22949 -1.43848 -15.0459 0.703125 -20.7021 6.35938l-80.6387 80.6387c-9.12305 9.12402 -9.03809 23.3496 -0.211914 32.1758c8.8877 8.8877 23.2314 8.73145 32.1758 -0.211914z" />
    <glyph glyph-name="uniF13B" unicode="&#xf13b;" 
d="M256 96l-112.854 -59.3311l21.5527 125.665l-91.3008 88.9971l126.175 18.335l56.4277 114.334l56.4277 -114.334l126.175 -18.335l-91.3008 -88.9971l21.5527 -125.665z" />
    <glyph glyph-name="uniF12F" unicode="&#xf12f;" 
d="M174.056 92.0303v0h106.23c4.89355 0 8.87695 3.88672 8.87695 8.68066v148.435c0 4.74512 -3.97461 8.67969 -8.87695 8.67969h-235.82c-4.89355 0 -8.87695 -3.88574 -8.87695 -8.67969v-148.435c0 -4.74609 3.97461 -8.68066 8.87695 -8.68066h54.1768
l40.1006 -34.6318zM185.522 57.126l-43.7441 -42.9014l-49.7988 42.9014h-83.0889c-4.91016 0 -8.89062 3.89258 -8.89062 8.66504v218.274c0 4.78516 3.92676 8.66406 8.89062 8.66406h311.42c4.91016 0 8.88965 -3.89258 8.88965 -8.66406v-218.274
c0 -4.78516 -3.92578 -8.66504 -8.88965 -8.66504h-134.788v0zM356.854 159.261v0h106.231c4.89355 0 8.87598 3.88672 8.87598 8.68066v148.435c0 4.74512 -3.97363 8.67969 -8.87598 8.67969h-235.821c-4.89258 0 -8.87598 -3.88574 -8.87598 -8.67969v-148.435
c0 -4.74609 3.97363 -8.68066 8.87598 -8.68066h54.1768l40.1016 -34.6318zM368.322 124.356l-43.7441 -42.9014l-49.7998 42.9014h-83.0889c-4.91016 0 -8.88965 3.89258 -8.88965 8.66504v218.274c0 4.78516 3.92578 8.66406 8.88965 8.66406h311.42
c4.91016 0 8.89062 -3.89258 8.89062 -8.66406v-218.274c0 -4.78516 -3.92676 -8.66504 -8.89062 -8.66504h-134.787v0z" />
    <glyph glyph-name="uniF114" unicode="&#xf114;" 
d="M131.823 260.667c-6.50391 8.5957 -4.30762 15.6455 4.98242 15.6455l238.559 0.00390625c9.25781 0 11.5215 -7.00488 4.98242 -15.6455l-112.423 -148.558c-6.50488 -8.5957 -17.1416 -8.64062 -23.6807 0z" />
    <glyph glyph-name="uniF168" unicode="&#xf168;" horiz-adv-x="511" 
d="M256.006 0.375c-106.044 0 -192.006 85.9619 -192.006 192s85.9619 192 192.006 192c106.032 0 191.994 -85.9619 191.994 -192s-85.9619 -192 -191.994 -192zM160 247.575l19.5996 -179.074h151.682l18.6621 179.074h-189.943zM145.78 269.688h216
s-3.02734 8.5791 -10.1025 14.582c-7.07422 6.00293 -51.8516 13.2266 -51.8516 13.2266l-12.209 14.2549h-70.8389l-13.5205 -14.2549s-42.4502 -6.44531 -49.335 -13.2266c-6.88477 -6.78223 -8.14258 -14.582 -8.14258 -14.582z" />
    <glyph glyph-name="uniF126" unicode="&#xf126;" 
d="M165.148 146.431l-53.4668 -53.5322c-14.7607 -14.7734 -14.7607 -38.6943 0 -53.5322c14.7676 -14.7744 38.6992 -14.7744 53.4668 0l53.4668 53.5322c0.37793 0.383789 0.62793 0.832031 0.986328 1.21582l45.2451 45.2178
c6.75586 -25.2637 0.300781 -53.3408 -19.501 -73.167l-53.4668 -53.5332c-29.5225 -29.5479 -77.3984 -29.5479 -106.928 0c-29.5283 29.5488 -29.5283 77.5166 0 107.065l53.4668 53.5322c19.8145 19.8262 47.8828 26.2861 73.1338 19.5068l-46.0254 -45.9854
c-0.115234 -0.0644531 -0.262695 -0.192383 -0.37793 -0.320312v0zM204.771 104.73l-0.0576172 0.0644531c-3.48438 -3.58203 -8.31934 -5.75586 -13.6797 -5.75586c-10.6045 0 -19.2119 8.57031 -19.2119 19.1865c0 5.56445 2.40234 10.4893 6.17383 14.0068
l127.088 126.955c3.50293 3.77344 8.47168 6.14062 14.0303 6.14062c10.6123 0 19.2129 -8.57031 19.2129 -19.1875c0 -5.24414 -2.11426 -9.97754 -5.5332 -13.4307l0.0576172 -0.0644531l-128.08 -127.915v0zM424.658 245.245l-53.4668 -53.5322
c-19.8779 -19.8906 -48.0557 -26.3506 -73.3711 -19.4434l44.6357 44.5781c0.65332 0.576172 1.38379 1.02344 2.00488 1.59961l53.4668 53.5322c14.7617 14.8379 14.7617 38.7578 0 53.5322c-14.7676 14.8379 -38.7061 14.8379 -53.4668 0l-53.4668 -53.5322h-0.0136719
l-0.03125 0.0634766l-46.2432 -46.1768c-6.6543 25.1992 -0.179688 53.1484 19.5576 72.9111l53.4668 53.5322c29.5225 29.5488 77.3984 29.5488 106.928 0c29.5283 -29.5479 29.5283 -77.5156 0 -107.064v0z" />
    <glyph glyph-name="uniF156" unicode="&#xf156;" horiz-adv-x="511" 
d="M256 -0.919922c-106.039 0 -192 85.9619 -192 192c0 106.039 85.9609 192 192 192s192 -85.9609 192 -192c0 -106.038 -85.9609 -192 -192 -192zM228.897 86.6348h43.1572v104.458h28.7939l3.81543 35.9971h-32.6094l0.0488281 18.0166
c0 9.38867 0.890625 14.4189 14.3564 14.4189h18v36.001h-28.7969c-34.5908 0 -46.7656 -17.4629 -46.7656 -46.8281v-21.6133h-21.5615v-35.9961h21.5615v-104.454z" />
    <glyph glyph-name="uniF119" unicode="&#xf119;" 
d="M227.702 309.94c-17.5898 0 -34.6357 -2.76855 -46.1416 -8.36719c-11.5049 -5.65918 -19.8174 -15.5918 -24.0938 -24.501c-4.27734 -8.90918 -6.38574 -19.8057 -6.38574 -37.9248v-17.2168h-28.8525v-45.1494h28.8525v-149.834h61.6221v149.834h38.4307
l10.6611 45.1494h-49.0918v16.1934c0 10.9561 1.9873 18.3604 5.96289 22.2129s11.8672 6.2002 21.083 6.2002c9.27637 0 16.7451 -4.39453 26.2021 -9.87207l11.2041 42.4395c-17.2871 4.87598 -31.3828 10.8359 -49.4531 10.8359v0zM419.192 -1.04492h-325.998
c-16.3838 0 -29.6963 12.0996 -29.6963 28.4736v327.179c0 16.4346 13.3125 29.7383 29.6963 29.7383h325.998c16.3838 0 29.6963 -13.3037 29.6963 -29.7383v-327.179c0 -16.374 -13.3125 -28.4736 -29.6963 -28.4736v0z" />
    <glyph glyph-name="uniF141" unicode="&#xf141;" 
d="M365.36 102.02v0c50.9961 -18.3604 84.125 -37.0752 84.1299 -49.8457v-42.8936h-193.838h-193.838v42.8936c0 12.7666 33.1299 31.4854 84.126 49.8457c50.835 18.3076 67.0762 33.7461 67.0762 66.8037c0 19.8477 -15.5156 13.3691 -22.3369 49.7109
c-2.8291 15.0762 -16.5381 0.245117 -19.1572 34.6631c0 13.7197 7.48145 17.126 7.48145 17.126s-3.80273 20.2998 -5.29102 35.9229c-1.85254 19.4648 11.3828 69.7539 81.9355 69.7539s83.7783 -50.2891 81.9355 -69.7539
c-1.48926 -15.623 -5.29199 -35.9229 -5.29199 -35.9229s7.48145 -3.40625 7.48145 -17.126c-2.62305 -34.418 -16.332 -19.5869 -19.1611 -34.6631c-6.8125 -36.3457 -22.3369 -29.8633 -22.3369 -49.7109c0 -33.0615 16.25 -48.5 67.085 -66.8037z" />
    <glyph glyph-name="uniF163" unicode="&#xf163;" horiz-adv-x="511" 
d="M100.006 191.08c0 -86.1533 69.8398 -156 156 -156c43.0742 0 82.0742 17.46 110.304 45.6904l-110.31 110.31v156c-86.1543 0 -155.994 -69.8457 -155.994 -156v0zM256.006 -0.919922c-106.044 0 -192.006 85.9619 -192.006 192s85.9619 192 192.006 192
c106.032 0 191.994 -85.9619 191.994 -192s-85.9619 -192 -191.994 -192v0z" />
    <glyph glyph-name="uniF113" unicode="&#xf113;" 
d="M256.456 144.824l86.668 -70.8398l37.0918 23.874v-26.8096l-123.76 -73.124l-123.773 73.124v26.8096l37.0918 -23.874l86.6816 70.8398v0zM46.2695 303.335l123.505 79.4502l86.4258 -71.0361l-124.535 -75.7979l-85.3955 67.3838v0zM169.774 89.0527l-123.505 79.4502
l85.3955 67.4482l124.535 -75.7979l-86.4258 -71.1006v0zM466.117 168.503l-123.498 -79.4502l-86.4189 71.1006l124.521 75.7979l85.3955 -67.4482v0zM256.2 311.749l86.4189 71.0361l123.498 -79.4502l-85.3955 -67.3838l-124.521 75.7979v0z" />
    <glyph glyph-name="uniF143" unicode="&#xf143;" 
d="M303.398 102.748c11.0684 8.87109 15.2676 19.2861 15.2676 34.1582c0 15.877 -12.6855 10.6943 -18.2617 39.7666c-2.31348 12.0605 -13.5215 0.195312 -15.6621 27.7295c0 10.9746 6.11621 13.6992 6.11621 13.6992s-3.10938 16.2393 -4.32617 28.7363
c-1.51367 15.5713 9.30664 55.8008 66.9883 55.8008s68.4951 -40.2295 66.9883 -55.8008c-1.21777 -12.4971 -4.32617 -28.7363 -4.32617 -28.7363s6.11621 -2.72461 6.11621 -13.6992c-2.14453 -27.5342 -13.3525 -15.6689 -15.665 -27.7295
c-5.57031 -29.0752 -18.2617 -23.8896 -18.2617 -39.7666c0 -26.4482 13.2842 -38.7988 54.8457 -53.4414c41.6934 -14.6875 68.7793 -29.6592 68.7822 -39.874v-34.3135h-158.477h-79.2373h-79.2383h-195.048v42.8916c0 12.7656 33.3369 31.4834 84.6504 49.8428
c51.1523 18.3066 67.4951 33.7451 67.4951 66.8008c0 19.8477 -15.6123 13.3691 -22.4766 49.709c-2.84668 15.0752 -16.6406 0.244141 -19.2764 34.6621c0 13.7188 7.52832 17.125 7.52832 17.125s-3.82617 20.2988 -5.32422 35.9199
c-1.86328 19.4639 11.4531 69.751 82.4473 69.751c70.9932 0 84.3018 -50.2871 82.4463 -69.751c-1.49805 -15.6211 -5.32422 -35.9199 -5.32422 -35.9199s7.52832 -3.40625 7.52832 -17.125c-2.63965 -34.418 -16.4336 -19.5869 -19.2812 -34.6621
c-6.85547 -36.3438 -22.4756 -29.8613 -22.4756 -49.709c0 -32.6162 15.9141 -48.0801 65.4609 -66.0645z" />
    <glyph glyph-name="uniF169" unicode="&#xf169;" horiz-adv-x="511" 
d="M256 -0.919922c-106.039 0 -192 85.9619 -192 192c0 106.039 85.9609 192 192 192s192 -85.9609 192 -192c0 -106.038 -85.9609 -192 -192 -192zM282.67 266.068c-16.7627 -6.10059 -27.3574 -21.8291 -26.1504 -39.0479l0.402344 -6.64355l-6.70508 0.813477
c-24.4082 3.11816 -45.7305 13.6943 -63.835 31.4551l-8.85059 8.81348l-2.28027 -6.50781c-4.82812 -14.5078 -1.74316 -29.8291 8.31445 -40.1338c5.36426 -5.69434 4.15723 -6.50781 -5.0957 -3.11816c-3.21875 1.08496 -6.03516 1.89844 -6.30273 1.49121
c-0.939453 -0.948242 2.2793 -13.2871 4.82715 -18.168c3.4873 -6.7793 10.5947 -13.4229 18.373 -17.3545l6.57129 -3.11914l-7.77832 -0.134766c-7.50977 0 -7.77832 -0.135742 -6.97363 -2.9834c2.68164 -8.8125 13.2764 -18.168 25.0781 -22.2354l8.31445 -2.84766
l-7.24219 -4.33887c-10.7285 -6.23633 -23.334 -9.76172 -35.9404 -10.0332c-6.03418 -0.135742 -10.9961 -0.677734 -10.9961 -1.08496c0 -1.35547 16.3604 -8.94824 25.8818 -11.9307c28.5645 -8.81348 62.4941 -5.0166 87.9736 10.0332
c18.1045 10.7109 36.209 31.998 44.6572 52.6064c4.56055 10.9824 9.12012 31.0488 9.12012 40.6758c0 6.23633 0.402344 7.0498 7.91211 14.5068c4.4248 4.33887 8.58301 9.08398 9.38672 10.4404c1.3418 2.57617 1.20703 2.57617 -5.63184 0.270508
c-11.3994 -4.06738 -13.0088 -3.52441 -7.37598 2.57617c4.15723 4.33887 9.11914 12.2031 9.11914 14.5078c0 0.407227 -2.01172 -0.271484 -4.29102 -1.49121c-2.41406 -1.35547 -7.77832 -3.38965 -11.8018 -4.61035l-7.24121 -2.30469l-6.57129 4.47461
c-3.62109 2.44043 -8.7168 5.15234 -11.3994 5.96582c-6.83984 1.89746 -17.2998 1.62695 -23.4688 -0.542969z" />
    <glyph glyph-name="uniF135" unicode="&#xf135;" 
d="M335.773 305.974c10.8857 -9.10059 20.2568 -20.1748 27.6162 -32.8936l27.4307 27.4697c13.0332 -2.99414 27.2793 0.598633 37.4414 10.7705c10.3477 10.3662 13.876 24.9658 10.6006 38.2158l-24.8965 -24.9316l-29.3672 29.4268l24.8711 24.9062
c-13.2188 3.26367 -27.7598 -0.287109 -38.0898 -10.627c-10.1455 -10.1553 -13.7246 -24.4004 -10.7686 -37.4561l-24.8379 -24.8809zM301.27 123.094v0c0 -2.65625 -0.740234 -5.12793 -2.00391 -7.24512c-6.34766 -1.26465 -13.6221 -2.4375 -21.4697 -3.25488
c-2.8877 2.58008 -4.73145 6.31641 -4.72363 10.5c0 0.750977 0.0507812 1.48438 0.168945 2.20996h-2.50879c0.109375 -0.725586 0.167969 -1.45898 0.167969 -2.20996c0 -4.71484 -2.30664 -8.87207 -5.84277 -11.4365
c-2.57715 -0.109375 -5.18652 -0.168945 -7.83008 -0.168945c-2.94727 0 -5.86914 0.0761719 -8.74023 0.210938c-3.51074 2.56445 -5.79199 6.70508 -5.79199 11.3945c0 0.750977 0.0585938 1.48438 0.167969 2.20996h-1.96973
c0.0673828 -0.56543 0.109375 -1.12988 0.109375 -1.7041c0 -4.36035 -1.88672 -8.27344 -4.86719 -10.9561c-7.96484 0.852539 -15.332 2.0752 -21.7305 3.36523c-1.32227 2.21875 -2.08789 4.81641 -2.08789 7.59082c0 2.75 0.741211 5.31445 2.0293 7.50684
c-19.5586 14.9873 -32.4072 40.0459 -32.4072 68.4268c0 45.8994 33.5264 83.1025 74.8584 83.1025c41.3311 0 74.8584 -37.2031 74.8584 -83.1025c0 -28.5244 -12.9912 -53.7002 -32.7188 -68.6631c1.46484 -2.22656 2.33203 -4.9082 2.33203 -7.77637zM240.018 197.028v0
c3.33398 2.57227 5.54883 7.32129 3.96582 11.4795c-1.83594 3.33105 -4.24414 6.40918 -7.3252 8.65332c-3.59473 2.15918 -7.83008 3.4834 -12.04 3.46582c-1.39746 -0.0078125 -2.78711 -0.160156 -4.16797 -0.47168
c-5.3125 -0.674805 -9.79199 -4.29297 -12.8818 -8.49316c-2.71973 -3.37402 -4.83301 -7.46484 -4.875 -11.8838c-0.428711 -3.64355 0.311523 -7.30469 0.976562 -10.8721c0.859375 -4.22559 3.83984 -7.6582 7.22461 -10.1553
c1.54102 -1.23926 3.78027 -2.96875 5.75879 -1.52637c1.30469 1.77148 0.210938 4.35254 1.38965 6.28418c0.428711 1.92285 1.7002 3.32227 3.39258 4.27539c3.44336 1.72949 6.9043 3.44141 10.5752 4.65625c2.99707 0.876953 5.45605 2.87598 8.00684 4.58789z
M263.988 154.638v0c1.00977 6.5791 -2.94727 23.2285 -6.95508 23.3379c-3.65332 0.101562 -8.25098 -16.2275 -7.52637 -23.3633c2.29004 -9.4541 3.11523 6.6377 7.52637 6.65527c4.22656 -0.194336 3.60352 -16.4893 6.95508 -6.62988zM296.934 177.225v0
c1.97852 -1.44238 4.21875 0.287109 5.76758 1.52637c3.38477 2.49707 6.35645 5.92969 7.21582 10.1553c0.672852 3.56738 1.40625 7.22852 0.984375 10.8721c-0.0498047 4.41895 -2.16309 8.50977 -4.88281 11.8838c-3.08203 4.2002 -7.56055 7.81836 -12.8818 8.49316
c-1.38086 0.311523 -2.76172 0.463867 -4.16797 0.47168c-4.20117 0.0175781 -8.43652 -1.30664 -12.0312 -3.46582c-3.08984 -2.24414 -5.49805 -5.32227 -7.3252 -8.65332c-1.58301 -4.1582 0.623047 -8.90723 3.96582 -11.4795
c2.55078 -1.71191 5.00098 -3.71094 7.99805 -4.58789c3.6709 -1.21484 7.13184 -2.92676 10.584 -4.65625c1.69238 -0.953125 2.95508 -2.35254 3.38477 -4.27539c1.18652 -1.93164 0.0839844 -4.5127 1.38867 -6.28418zM178.563 75.2637l-33.8301 26.6689
l-21.9922 -22.0303c-13.042 3.00293 -27.2871 -0.59082 -37.4414 -10.7705c-10.3477 -10.3574 -13.875 -24.957 -10.6006 -38.2158l24.8887 24.9404l29.3672 -29.4268l-24.8633 -24.915c13.2109 -3.25586 27.7598 0.287109 38.082 10.6357
c10.1543 10.1543 13.7324 24.3916 10.7773 37.4482l25.6123 25.665zM390.879 79.9189l-21.8486 21.8867l-33.8379 -26.6689l25.4268 -25.4707c-2.98926 -13.0732 0.597656 -27.3359 10.752 -37.5156c10.3389 -10.3662 24.9219 -13.8994 38.1494 -10.6191l-24.8887 24.9404
l29.376 29.4189l24.8633 -24.915c3.25781 13.2412 -0.287109 27.8164 -10.6094 38.1562c-10.1455 10.1631 -24.3574 13.748 -37.3828 10.7871zM122.683 300.542l27.6748 -27.7236c7.3252 12.7441 16.6709 23.8438 27.5234 32.9775l-24.9463 24.999
c2.99707 13.0645 -0.589844 27.335 -10.752 37.5156c-10.3398 10.3652 -24.9219 13.8906 -38.1494 10.6104l24.8887 -24.9316l-29.376 -29.4189l-24.8633 24.915c-3.25781 -13.2422 0.286133 -27.8164 10.6084 -38.1562c10.1455 -10.1719 24.3584 -13.7568 37.3916 -10.7871
zM361.705 263.423v0c0.143555 -0.228516 14.2207 -23.5234 14.2207 -70.3926c0 -42.8203 -4.43652 -75.7559 -5.38867 -82.2754l-38.9648 -30.709c-2.60254 -0.556641 -12.6885 -2.63184 -26.7324 -4.50391l0.109375 13.2666l-1.86914 0.792969
c-0.639648 0.270508 -15.8877 6.5957 -46.1562 6.5957c-30.2344 0 -45.373 -5.97949 -45.9961 -6.24121l-1.89453 -0.758789l-0.109375 -13.6807c-13.9844 1.88086 -23.9951 3.96387 -26.5801 4.52051l-38.957 30.7178c-0.96875 6.74707 -5.6416 41.5303 -5.6416 82.2754
c0 44.499 13.918 69.3213 14.0605 69.5654l0.0927734 0.177734c19.8369 40.4502 60.0908 65.5762 105.06 65.5762c44.5391 0 84.625 -24.7803 104.612 -64.6826zM352.175 136.58v0c0.774414 2.3623 18.8262 58.4492 0.15918 100.587
c-19.1455 43.2256 -52.6299 67.0352 -94.2812 67.0352c-54.8037 0 -83.0176 -41.9521 -94.9482 -66.959c-20.7373 -43.4531 -1.625 -98.4189 -0.799805 -100.738l0.303711 -0.860352l25.2334 -18.9854l0.454102 -0.161133
c1.29688 -0.455078 32.2217 -11.1074 68.9316 -11.1074c36.709 0 67.6426 10.6523 68.9385 11.1074l0.446289 0.161133l25.2676 19.0098zM298.828 84.6592v0l-0.118164 -13.7812h0.0761719l-0.101562 -7.96191c-4.55469 -1.53516 -17.9756 -5.21289 -41.9209 -5.21289
c-23.8018 0 -37.2305 4.04004 -41.7441 5.70996l0.152344 11.3027l-0.168945 0.0244141l0.0839844 10.2061c4.81641 1.51758 18.8096 5.15332 41.8369 5.15332c23.0449 0 37.0967 -3.85449 41.9043 -5.44043zM243.007 66.8125v0v15.3926
c0 1.23926 -1.00195 2.23535 -2.24023 2.23535c-1.22852 0 -2.23047 -0.996094 -2.23047 -2.23535v-15.3926c0 -1.23145 1.00195 -2.23535 2.23047 -2.23535c1.23828 0 2.24023 1.00391 2.24023 2.23535zM258.642 66.7197v0v15.3926
c0 1.23926 -1.00195 2.24316 -2.23926 2.24316c-1.23828 0 -2.24023 -1.00391 -2.24023 -2.24316v-15.3926c0 -1.23145 1.00195 -2.23535 2.24023 -2.23535c1.2373 0 2.23926 1.00391 2.23926 2.23535zM274.269 66.7197v0v15.3926
c0 1.23926 -1.00195 2.24316 -2.23145 2.24316c-1.2373 0 -2.23926 -1.00391 -2.23926 -2.24316v-15.3926c0 -1.23145 1.00195 -2.23535 2.23926 -2.23535c1.22949 0 2.23145 1.00391 2.23145 2.23535z" />
    <glyph glyph-name="uniF138" unicode="&#xf138;" 
d="M337.329 148.216c3.28809 -1.26855 6.37891 -3.2373 9.04883 -5.90723l87.2666 -87.2656c10.0879 -10.0889 10.2314 -26.3027 0.165039 -36.3691c-9.99805 -9.99805 -26.2246 -9.97949 -36.3691 0.165039l-87.2666 87.2656
c-2.26367 2.26367 -4.02637 4.83496 -5.28516 7.57715c-57.0322 -43.7695 -139.061 -39.5479 -191.272 12.6631c-56.8027 56.8037 -56.8027 148.9 0 205.704c56.8037 56.8027 148.9 56.8027 205.704 0c49.9814 -49.9814 55.9844 -127.288 18.0088 -183.833zM282.294 163.371
c36.3545 36.3545 36.3545 95.2959 0 131.65s-95.2959 36.3545 -131.65 0s-36.3545 -95.2959 0 -131.65s95.2959 -36.3545 131.65 0z" />
    <glyph glyph-name="uniF11D" unicode="&#xf11d;" 
d="M116.584 207.591c-5.05078 14.4189 -7.28809 30.9326 -7.28809 49.3799c0 32.748 10.5225 45.1035 24.6465 62.5635c-10.8008 37.335 3.87695 62.8525 3.87695 62.8525s22.708 4.56641 65.6309 -25.249c23.2617 9.66992 85.293 10.4756 114.647 2.14941
c18 11.5498 50.9541 27.9346 64.2471 23.3467c3.59961 -5.61914 11.3535 -22.0039 4.70703 -57.9961c4.50879 -7.89746 27.9697 -24.7119 28.0586 -72.2549c-0.376953 -17.5342 -2.25977 -32.3389 -5.74902 -44.8564
c0.664062 0.00585938 -4.45605 -15.5205 -5.67188 -15.4814c-15.5625 -33.1553 -47.4873 -45.5342 -99.0723 -50.6807c16.7148 -10.2061 21.5107 -23.0137 21.5107 -57.6631s-0.475586 -39.3018 -0.365234 -47.2734c0.177734 -13.0762 19.9385 -19.3398 19.1963 -23.5518
c-0.742188 -4.2002 -16.5381 -3.52344 -23.915 -1.02051c-20.9131 7.06934 -18.8193 23.9482 -18.8193 23.9482l-0.698242 46.3291s1.42871 24.9365 -8.0752 24.9365v-75.8311c0 -16.4814 11.9082 -21.4883 11.9082 -27.5801c0 -10.4756 -21.7334 0.988281 -28.4355 7.52051
c-10.2012 9.93848 -9.03809 31.0186 -8.79492 47.6826c0.232422 16.0947 -0.155273 51.3027 -0.155273 51.3027l-6.92285 -0.139648s2.83594 -76.9062 -3.65527 -90.917c-8.39648 -17.9961 -33.7295 -24.1846 -33.7295 -15.9863c0 5.51172 6.23633 3.75977 9.69238 16.1152
c2.94629 10.5078 1.93848 88.9072 1.93848 88.9072s-8.11914 -4.65137 -8.11914 -19.3389c0 -6.71484 -0.188477 -45.1143 -0.188477 -56.5352c0 -14.376 -21.0469 -22.5625 -31.1602 -22.5625c-5.11719 0 -11.4863 0.24707 -11.4863 2.87891
c0 6.65039 19.2402 10.5508 19.2402 24.3789c0 11.9902 -0.265625 42.8359 -0.265625 42.8359s-9.70312 -1.61133 -23.5498 -1.61133c-34.8926 0 -45.9248 21.5957 -51.1758 33.6826c-6.83496 15.7402 -15.6963 23.1318 -25.1113 29.041
c-5.78223 3.63184 -7.11133 7.9082 -0.420898 9.13281c30.8828 5.64062 38.7803 -33.9727 59.4062 -40.29c14.7207 -4.50195 33.6514 -2.55762 43.0674 3.35156c1.24023 12.0986 10.2344 22.5625 17.7227 28.0742c-52.4609 4.88867 -83.5645 22.5635 -99.6934 50.9707
c-0.204102 -0.00488281 -7.59766 15.4404 -6.97852 15.4385z" />
    <glyph glyph-name="uniF15F" unicode="&#xf15f;" 
d="M256.742 383.08l103.784 -103.421h-86.0068v-35.4316h-35.5547v35.4316h-86.0068zM238.965 206.881h35.5547v-44.2891h-35.5547v44.2891zM238.965 125.006h35.5547v-44.2891h-35.5547v44.2891zM238.965 43.3701h35.5547v-44.29h-35.5547v44.29z" />
    <glyph glyph-name="uniF139" unicode="&#xf139;" 
d="M176.252 259.443v0c-10.2578 -10.2578 -18.9121 -18.5732 -19.2334 -18.4805c-0.320312 0.0927734 -10.4971 8.97461 -22.6133 19.7363c-18.5088 16.4395 -24.9707 19.583 -40.4189 19.6592c-14.417 0.0703125 -21.1943 2.89746 -31.3896 13.0928
c-12.2861 12.2861 -21.3311 35.4648 -13.8389 35.4648c1.90137 0 9.67676 -5.23438 17.2793 -11.6309c7.73633 -6.50977 15.3721 -9.9043 17.3428 -7.71094c1.93555 2.15625 10.8516 12.2168 19.8125 22.3564l16.293 18.4365l-16.7744 16.0752l-16.7734 16.0742
l17.4053 -2.43262c22.6572 -3.16699 41.4287 -21.7246 45.1455 -44.6309c2.14355 -13.21 7.91797 -21.9648 24.6074 -37.3105l21.8057 -20.0498zM373.787 258.029v0c-13.7432 -11.9033 -25.6396 -21.4551 -26.4375 -21.2266
c-0.796875 0.227539 -8.9248 8.91504 -18.0615 19.3037l-16.6123 18.8887l23.585 21.5547c18.4395 16.8535 24.1963 25.3291 26.3916 38.8584c3.69922 22.7949 22.4541 41.4385 45.1523 44.8857l17.4062 2.64355l-16.1797 -17.0967l-16.1807 -17.0977l19.4307 -21.2949
l19.4297 -21.2949l16.333 13.4629c8.98242 7.4043 17.1357 12.6582 18.1182 11.6758c0.982422 -0.981445 -0.537109 -8.8252 -3.37695 -17.4277c-6.6084 -20.0244 -26.5039 -34.3125 -47.6855 -34.2451c-13.2607 0.0419922 -21.0156 -4.01074 -41.3125 -21.5898z
M305.362 145.396v0c5.03906 -8.5 10.3994 -7.37012 18.2578 3.84863c9.20117 13.1367 8.63965 22.0039 -2.27344 35.8779c-11.5107 14.6338 -34.1084 15.876 -46.1777 2.53906c-9.94434 -10.9873 -5.40137 -20.8691 13.8574 -30.1484
c7.04688 -3.39551 14.3984 -8.84766 16.3359 -12.1172zM183.122 149.245v0c7.8584 -11.2188 13.2188 -12.3486 18.2578 -3.84863c1.9375 3.26953 9.28906 8.72168 16.3359 12.1172c19.2588 9.2793 23.8018 19.1611 13.8574 30.1484
c-12.0693 13.3369 -34.667 12.0947 -46.1777 -2.53906c-10.9131 -13.874 -11.4746 -22.7412 -2.27344 -35.8779zM242.355 110.526v0c0 -7.77734 7.25586 -8.35059 10.3135 -0.81543c1.7373 4.28223 3.16699 4.17773 6.4248 -0.469727
c2.36133 -3.36816 5.31152 -4.16504 6.75781 -1.82617c3.71777 6.0166 -3.22754 28.9531 -9.38867 31.0068c-5.21582 1.73828 -14.1074 -15.8447 -14.1074 -27.8955zM233.543 78.6074v0c-3.24707 -8.43066 -3.5752 -20.3701 -17.4775 -20.1553
c-13.9023 0.213867 -17.4395 4.51953 -17.7715 21.6309c0 5.15137 -5.14941 14.1729 -11.4443 20.0479c-50.6279 47.2559 -38.3516 135.337 23.0488 165.378c66.3936 32.4824 138.205 -15.0361 138.205 -91.4521c0 -29.3213 -6.43652 -47.9727 -23.5664 -68.2861
c-7.03613 -8.34375 -11.6826 -19.1787 -11.6826 -27.2412c0 -9.62207 -0.0322266 -19.9775 -12.1758 -19.9287s-19.1934 8.03418 -19.1934 17.5029c0 9.35547 -7.80566 11.9199 -7.91992 0.358398c-0.0585938 -6.03418 1.57617 -18.8604 -15.7881 -18.3193
s-17.2764 15.1572 -16.8389 20.9463c0.700195 9.29199 -7.39551 7.17188 -7.39551 -0.481445zM408.191 12.7764v-0.00683594l16.2852 -14.3193l-12.8516 0.0224609c-26.2188 0.0341797 -50.3027 25.2422 -50.3027 52.6504c0 4.00977 -6.78125 13.8633 -15.0703 21.8965
l-15.0693 14.6064l12.5947 17.3867c6.92676 9.5625 13.4609 19.7363 14.5186 22.6084c1.15234 3.12793 8.84766 -1.40527 19.1846 -11.3008c14.249 -13.6416 20.4336 -16.5225 35.4619 -16.5225c21.1748 0 40.9268 -14.0186 49.7432 -35.3018
c7.62109 -18.3994 2.3623 -21.5049 -12.4258 -7.33691c-6.77148 6.4873 -14.5283 11.7959 -17.2363 11.7959s-13.0674 -9.41895 -23.0205 -20.9297l-18.0977 -20.9287zM123.533 5.14062v0c-7.1084 -3.67578 -18.3105 -6.68359 -24.8926 -6.68359h-11.9688l16.5732 14.3262
l16.5732 14.3262l-18.416 20.9229c-10.1299 11.5078 -20.877 20.9229 -23.8838 20.9229s-10.124 -4.95703 -15.8154 -11.0156c-13.9248 -14.8223 -17.8262 -13.8643 -12.9395 3.17578c6.41895 22.3799 21.9873 34.9131 46.5684 37.4893
c16.0537 1.68359 25.168 5.71777 36.2373 16.041c13.998 13.0537 15.0586 13.3477 19.8281 5.49121c2.77051 -4.56543 9.77441 -14.1016 15.5635 -21.1904l10.5254 -12.8896l-13.8301 -14.2686c-7.60645 -7.84766 -13.8301 -18.7334 -13.8301 -24.1914
c0 -15.543 -12.1318 -35.1338 -26.293 -42.4561z" />
    <glyph glyph-name="uniF158" unicode="&#xf158;" horiz-adv-x="511" 
d="M256 -0.919922c-106.039 0 -192 85.9619 -192 192c0 106.039 85.9609 192 192 192s192 -85.9609 192 -192c0 -106.038 -85.9609 -192 -192 -192zM408.763 243.48c-2.03223 7.17773 -4.47168 14.1865 -7.29102 20.9971h-38.1787v50.0059h-21.4326v-50.0059h-50.0088
v-20.9971h50.0088v-50.4502h21.4326v50.4502h45.4697zM64 191.08c0 -63.2285 30.5645 -119.319 77.7236 -154.304c-0.71875 3.23242 -1.08691 6.58789 -1.08691 10.0488c0 31.8467 28.6299 42.623 38.4414 46.1611c18.8184 6.27344 42.9453 7.07715 46.9658 7.07715
c4.50391 0 6.75586 0 10.2939 -0.321289c34.0986 -24.2871 48.7354 -36.3506 48.7354 -59.1904c0 -18.1309 -9.74121 -33.2227 -28.5439 -41.4707c10.416 0.0283203 20.6367 0.885742 30.6006 2.50977c18.5176 15.6865 28.0215 36.1279 28.0215 56.4932
c0 30.8818 -17.8535 46.1621 -37.6377 62.5674l-16.084 12.5459c-4.98633 4.02148 -11.5811 9.49023 -11.5811 19.3018s6.59473 16.084 12.5459 21.874c18.6582 14.7979 37.4766 30.3994 37.4766 63.5332c0 34.0664 -21.3926 51.9688 -31.6865 60.4766h27.665
l28.6309 16.1006h-92.1631c-24.127 0 -54.5264 -3.58691 -80.1006 -24.6084c-19.1396 -16.5508 -28.6299 -39.4229 -28.6299 -60.0107c0 -34.9033 26.8613 -70.2881 74.3096 -70.2881c4.50391 0 9.3291 0.482422 14.3154 0.964844
c-2.25195 -5.30762 -4.50391 -9.81152 -4.50391 -17.3711c0 -13.9932 7.23828 -22.5186 13.5107 -30.5605c-20.2666 -1.28613 -57.7422 -3.53809 -85.5684 -20.5879c-12.332 -7.29395 -20.6572 -16.1699 -26.0254 -25.1982
c-28.4561 33.4893 -45.625 76.8682 -45.625 124.257zM249.366 184.667c-7.23828 -7.07715 -19.3008 -12.5459 -30.3994 -12.5459c-38.6025 0 -55.9736 49.7012 -55.9736 79.7783c0 11.5811 2.25195 23.6445 9.81152 33.0371
c7.23828 8.95898 19.7842 14.7822 31.3643 14.7822c37.1553 0 56.2959 -50.0713 56.2959 -82.4004c0 -8.04199 -0.804688 -22.3574 -11.0986 -32.6514z" />
    <glyph glyph-name="uniF116" unicode="&#xf116;" 
d="M177.783 28.3125h218.637c7.62793 0 13.8115 -6.45703 13.8115 -13.9209c0 -7.6875 -6.13379 -13.9209 -13.8115 -13.9209h-293.811c-6.96191 0 -12.7197 5.37793 -13.6738 11.9902c-1.99902 2.96289 -2.89258 6.6582 -2.2168 10.4912l15.4404 87.5693
c0.457031 2.58789 1.61621 4.88574 3.24512 6.75488c0.444336 2.54785 1.54004 5.0127 3.29688 7.10645l192.714 229.668c0.602539 0.717773 1.25977 1.36523 1.95996 1.94043l8.14355 9.70508c15.0557 17.9434 41.7178 20.3594 59.8848 5.11523l32.7256 -27.46
c18.0176 -15.1182 20.5225 -41.7949 5.36133 -59.8643l-27.2617 -32.4893l-0.324219 0.271484l-175.231 -208.833c-2.08887 -2.48926 -4.82617 -4.12012 -7.74805 -4.87793c-1.46582 -1.52734 -3.2998 -2.75195 -5.44531 -3.5332zM359.296 270.24l-18.792 15.7686
c-0.135742 -0.1875 -0.279297 -0.371094 -0.429688 -0.550781l-153.946 -183.466c-3.49414 -4.16504 -9.82324 -4.60742 -13.8633 -1.21777c-4.16211 3.49316 -4.64453 9.77051 -1.20898 13.8652l153.946 183.466c0.150391 0.179688 0.306641 0.352539 0.467773 0.518555
l-18.7988 15.7744l-175.361 -208.987c-0.0341797 -0.0400391 -0.0683594 -0.0810547 -0.103516 -0.12207l-6.42285 -36.4248c5.72949 1.1377 11.9404 -0.249023 16.6357 -4.18945c4.81641 -4.04102 7.27148 -9.82422 7.13379 -15.5928l34.832 12.6777
c0.435547 0.158203 0.875 0.293945 1.31543 0.40625z" />
    <glyph glyph-name="uniF154" unicode="&#xf154;" horiz-adv-x="511" 
d="M241.425 166.973l-24.0879 24.0889c-6.31934 6.31934 -16.1221 6.12891 -22.2852 -0.0341797c-5.9834 -5.98242 -6.17871 -16.1406 -0.0341797 -22.2852l51.0029 -51.0029c6.31934 -6.31934 16.1221 -6.12891 22.2852 0.0341797
c0.174805 0.174805 0.345703 0.353516 0.510742 0.536133l50.5859 50.5859c6.31934 6.31934 6.12988 16.1221 -0.0332031 22.2852c-5.9834 5.9834 -16.1406 6.17871 -22.2852 0.0341797l-24.0957 -24.0957v131.034c0 8.56934 -7.06543 15.7432 -15.7822 15.7432
c-8.46094 0 -15.7812 -7.04883 -15.7812 -15.7432v-131.181zM256 -0.576172c-106.039 0 -192 85.9619 -192 192c0 106.039 85.9609 192 192 192s192 -85.9609 192 -192c0 -106.038 -85.9609 -192 -192 -192zM257.377 100.405c30.2754 0 54.8193 1.76074 54.8193 3.93164
c0 2.17188 -24.5439 3.93164 -54.8193 3.93164s-54.8184 -1.75977 -54.8184 -3.93164c0 -2.1709 24.543 -3.93164 54.8184 -3.93164z" />
    <glyph glyph-name="uniF127" unicode="&#xf127;" horiz-adv-x="511" 
d="M64 384.754h104.728v-104.728h-104.728v104.728zM203.637 384.754h104.727v-104.728h-104.727v104.728zM343.272 384.754h104.728v-104.728h-104.728v104.728zM64 245.117h104.728v-104.727h-104.728v104.727zM203.637 245.117h104.727v-104.727h-104.727v104.727z
M343.272 245.117h104.728v-104.727h-104.728v104.727zM64 105.481h104.728v-104.728h-104.728v104.728zM203.637 105.481h104.727v-104.728h-104.727v104.728zM343.272 105.481h104.728v-104.728h-104.728v104.728z" />
    <glyph glyph-name="uniF151" unicode="&#xf151;" horiz-adv-x="511" 
d="M290 106.955c-4.96777 0 -9.46777 2.0166 -12.7256 5.27441l-53.2686 53.2676l-53.2734 -53.2676c-3.25879 -3.25781 -7.75879 -5.27441 -12.7324 -5.27441c-9.93555 0 -18 8.05859 -18 18c0 4.96777 2.01562 9.46777 5.27441 12.7266l53.2734 53.2734l-53.2734 53.2686
c-3.25879 3.26367 -5.27441 7.75781 -5.27441 12.7314c0 9.94238 8.06445 18 18 18c4.97363 0 9.47363 -2.01562 12.7324 -5.27344l53.2734 -53.2744l53.2686 53.2744c3.25781 3.25781 7.75781 5.27344 12.7256 5.27344c9.94238 0 18.0059 -8.05762 18.0059 -18
c0 -4.97363 -2.01562 -9.46777 -5.27344 -12.7314l-53.2744 -53.2686l53.2744 -53.2734c3.25781 -3.25879 5.27344 -7.75879 5.27344 -12.7266c0 -9.94141 -8.06348 -18 -18.0059 -18v0zM224.006 346.955c-86.1602 0 -156.006 -69.8457 -156.006 -156
s69.8457 -156 156.006 -156c86.1543 0 155.994 69.8457 155.994 156s-69.8398 156 -155.994 156v0zM224.006 -1.04492c-106.044 0 -192.006 85.9619 -192.006 192s85.9619 192 192.006 192c106.038 0 191.994 -85.9619 191.994 -192s-85.9561 -192 -191.994 -192v0z" />
    <glyph glyph-name="uniF133" unicode="&#xf133;" 
d="M256 384v-158.789h158.271v-225.211h-316.541v384h158.271zM308.324 275.373v0v103.784l103.784 -103.784h-103.784z" />
    <glyph glyph-name="uniF165" unicode="&#xf165;" 
d="M331.085 97.9971c3.02734 1.7959 6.56152 2.82617 10.3359 2.82617c11.208 0 20.293 -9.08496 20.293 -20.293c0 -4.26367 -1.31543 -8.2207 -3.5625 -11.4863l0.206055 -0.220703c-0.28125 -0.220703 -0.563477 -0.441406 -0.84668 -0.661133
c-2.41309 -3.13281 -5.71973 -5.54199 -9.54004 -6.84375c-25.1963 -16.7129 -55.3936 -26.4463 -87.8369 -26.4463c-88.0781 0 -159.493 71.6484 -159.493 160c0 88.3906 71.415 160 159.493 160c86.751 0 157.268 -69.4629 159.375 -155.98h47.9609l-71.7656 -80
l-71.7656 80h55.6875c-2.06836 64.4297 -54.751 115.98 -119.492 115.98c-66.0684 0 -119.61 -53.6973 -119.61 -120c0 -66.2637 53.542 -120 119.61 -120c26.4971 0 50.9658 8.66309 70.79 23.2979z" />
    <glyph glyph-name="uniF15A" unicode="&#xf15a;" 
d="M176.461 53.8613l-0.550781 -0.0966797l-41.0332 232.06l332.414 58.457l10.2061 -57.7324h-301.036v-232.688zM200.084 74.4707v188.51h293.657v-188.51h-293.657zM282.958 170.237l-55.8652 -72.4316h243.023l-27.9355 100.292l-30.4111 -27.8604l-35.7334 55.7139
l-57.7432 -83.5742zM250.718 236.053c-13.0498 0 -23.6299 -10.5527 -23.6299 -23.5605c0 -13.0156 10.5801 -23.5684 23.6299 -23.5684c13.0488 0 23.6289 10.5527 23.6289 23.5684c0 13.0078 -10.5801 23.5605 -23.6289 23.5605zM124.822 181.071l-57.0312 -57.3809
v40.7998h-53.1973v33.1611h53.1973v40.7998z" />
    <glyph glyph-name="uniF150" unicode="&#xf150;" 
d="M328.998 93c0 -6.52832 2.65625 -12.3525 6.78418 -16.8008h-225.312c-8 0 -14.4639 6.40039 -14.4639 14.4326v278.943c0 7.96875 6.49512 14.4326 14.4639 14.4326h44.3838c-0.543945 -1.50391 -0.832031 -3.13574 -0.832031 -4.83203v-38.4316
c0 -8 6.46387 -14.4648 14.4004 -14.4648h9.8877c7.93555 0 14.3994 6.46484 14.3994 14.4648v38.4316c0 1.69629 -0.287109 3.32812 -0.832031 4.83203h166.08c-0.543945 -1.50391 -0.832031 -3.13574 -0.832031 -4.83203v-38.4316c0 -8 6.46484 -14.4648 14.4004 -14.4648
h9.8877c7.93652 0 14.4004 6.46484 14.4004 14.4648v38.4316c0 1.69629 -0.288086 3.32812 -0.799805 4.83203h44.3516c8 0 14.4639 -6.43262 14.4639 -14.4326v-171.68c-4.12793 3.32812 -9.15137 5.63184 -14.8154 5.63184c-5.4082 0 -10.1445 -2.14355 -14.1758 -5.18359
v84.6719c0 7.96777 -6.49609 14.4004 -14.4648 14.4004h-270.912c-8.03125 0 -14.4639 -6.43262 -14.4639 -14.4004v-158.752c0 -7.93555 6.49609 -14.4316 14.4639 -14.4316h196.32c-4.12793 -4.44824 -6.78418 -10.3047 -6.78418 -16.832zM344.922 247.422
c0 -1.53613 -0.255859 -2.94336 -0.704102 -4.19141c-0.511719 -1.24805 -1.28027 -2.33594 -2.30371 -3.26465c-1.02441 -0.959961 -2.40039 -1.69531 -4.09668 -2.17578c-1.69531 -0.511719 -3.71191 -0.767578 -6.11133 -0.767578h-25.2168l-2.97559 -17.376
c1.98438 0.319336 3.87207 0.575195 5.72754 0.735352c1.82422 0.192383 3.61621 0.288086 5.34473 0.288086c5.56738 0 10.4639 -0.864258 14.752 -2.55957c4.25586 -1.66406 7.80762 -3.96875 10.7197 -6.87988c2.91211 -2.91211 5.08789 -6.33594 6.55957 -10.2402
c1.47266 -3.93652 2.24023 -8.12793 2.24023 -12.5762c0 -5.66406 -1.02344 -10.7842 -3.04004 -15.4238c-1.9834 -4.64062 -4.7998 -8.64062 -8.35156 -12c-3.58398 -3.36035 -7.87207 -5.98438 -12.832 -7.83984c-4.95996 -1.82422 -10.3682 -2.78418 -16.2881 -2.78418
c-3.42383 0 -6.68848 0.383789 -9.82422 1.08789c-3.10352 0.736328 -6.04785 1.69629 -8.76758 2.94434c-2.7207 1.21582 -5.24805 2.62402 -7.58398 4.25586c-2.30469 1.59961 -4.41602 3.32812 -6.30469 5.15137l6.97656 9.2168
c0.735352 0.991211 1.56738 1.72754 2.52734 2.20801c0.960938 0.511719 2.0166 0.767578 3.10449 0.767578c1.47168 0 2.81641 -0.416016 4.0957 -1.21582c1.3125 -0.768555 2.68848 -1.63184 4.22461 -2.5918c1.50391 -0.928711 3.2959 -1.79199 5.34375 -2.56055
c2.01562 -0.767578 4.54395 -1.15137 7.51953 -1.15137c3.00879 0 5.56836 0.511719 7.71191 1.50391c2.1123 0.959961 3.84082 2.30371 5.18457 4.03125c1.31152 1.69629 2.30371 3.71289 2.87988 5.98438c0.608398 2.27246 0.927734 4.73633 0.927734 7.32812
c0 5.08789 -1.43945 8.95996 -4.35156 11.6475c-2.91211 2.65625 -7.04004 4 -12.3525 4c-4.73535 0 -9.37598 -0.895508 -13.9199 -2.6875l-13.9199 3.77637l8.99219 52.6074h54.1123v-9.24805zM232.048 257.797c5.24805 0 9.95215 -0.736328 14.1123 -2.27246
c4.19141 -1.50391 7.74414 -3.61621 10.6875 -6.30371c2.97656 -2.68848 5.2168 -5.91992 6.78418 -9.63184c1.60059 -3.74414 2.36816 -7.80859 2.36816 -12.3203c0 -3.83984 -0.543945 -7.3916 -1.63184 -10.6562c-1.08789 -3.26367 -2.56055 -6.39941 -4.44824 -9.34375
s-4.0957 -5.82422 -6.55957 -8.57617c-2.49609 -2.78418 -5.15234 -5.56836 -7.96875 -8.41602l-20.6719 -21.0879c2.65625 0.799805 5.3125 1.4082 7.87207 1.85645c2.5918 0.447266 5.02441 0.703125 7.2959 0.703125h19.7441
c2.40039 0 4.32031 -0.671875 5.72852 -1.9834c1.37598 -1.34375 2.08008 -3.07227 2.08008 -5.24805v-12.9922h-74.2725v7.23242c0 1.37598 0.288086 2.87988 0.896484 4.44727c0.575195 1.60059 1.56738 3.04004 3.03906 4.35254l30.4648 30.4961
c2.5918 2.62402 4.86328 5.08789 6.81543 7.45605c1.91992 2.33594 3.52051 4.67188 4.76855 6.94336c1.2793 2.30469 2.20801 4.57617 2.84766 6.84863c0.639648 2.30371 0.927734 4.7041 0.927734 7.26367c0 4.19238 -0.992188 7.3916 -3.00781 9.63184
c-1.98438 2.24023 -5.05566 3.36035 -9.18359 3.36035c-1.66406 0 -3.23242 -0.255859 -4.64062 -0.736328c-1.37598 -0.479492 -2.65527 -1.12012 -3.77539 -1.95215c-1.08789 -0.799805 -2.04785 -1.75977 -2.84863 -2.87988
c-0.799805 -1.08789 -1.43945 -2.30371 -1.91992 -3.58398c-0.799805 -2.17578 -1.75977 -3.74414 -2.94336 -4.7041c-1.18457 -0.959961 -2.78418 -1.43945 -4.83203 -1.43945c-0.480469 0 -0.992188 0.03125 -1.56836 0.0634766
c-0.543945 0.0644531 -1.08789 0.12793 -1.69629 0.224609l-11.8721 2.08008c0.768555 5.24805 2.24023 9.82324 4.44824 13.7275c2.20801 3.87207 4.92773 7.13574 8.19238 9.72852c3.26367 2.5918 7.00781 4.51172 11.2002 5.79199
c4.22363 1.2793 8.73535 1.91992 13.5674 1.91992zM448.775 103.799h71.4014c6.16992 0 11.1719 -4.97754 11.1719 -11.2139c0 -6.19336 -5.0166 -11.2139 -11.1719 -11.2139h-71.4014v-71.4023c0 -6.16992 -4.97754 -11.1719 -11.2139 -11.1719
c-6.19336 0 -11.2139 5.01758 -11.2139 11.1719v71.4023h-71.4023c-6.16992 0 -11.1719 4.97754 -11.1719 11.2139c0 6.19336 5.01758 11.2139 11.1719 11.2139h71.4023v71.4014c0 6.1709 4.97754 11.1729 11.2139 11.1729c6.19336 0 11.2139 -5.01758 11.2139 -11.1729
v-71.4014z" />
    <glyph glyph-name="uniF161" unicode="&#xf161;" horiz-adv-x="511" 
d="M256.006 -0.919922c-106.044 0 -192.006 85.9619 -192.006 192s85.9619 192 192.006 192c106.032 0 191.994 -85.9619 191.994 -192s-85.9619 -192 -191.994 -192v0zM172.974 159.945v0c17.1943 0 31.1348 13.9395 31.1348 31.1348s-13.9404 31.1357 -31.1348 31.1357
c-17.1963 0 -31.1357 -13.9404 -31.1357 -31.1357s13.9395 -31.1348 31.1357 -31.1348zM256.001 159.945v0c17.1943 0 31.1338 13.9395 31.1338 31.1348s-13.9395 31.1357 -31.1338 31.1357c-17.1963 0 -31.1357 -13.9404 -31.1357 -31.1357
s13.9395 -31.1348 31.1357 -31.1348zM339.028 159.945v0c17.1943 0 31.1338 13.9395 31.1338 31.1348s-13.9395 31.1357 -31.1338 31.1357c-17.1963 0 -31.1367 -13.9404 -31.1367 -31.1357s13.9404 -31.1348 31.1367 -31.1348z" />
    <glyph glyph-name="uniF160" unicode="&#xf160;" horiz-adv-x="511" 
d="M21 64.4717h406c11.6201 0 21 -12.835 21 -28.7363s-9.37988 -28.7373 -21 -28.7373h-406c-11.6201 0 -21 12.8359 -21 28.7373s9.37988 28.7363 21 28.7363v0zM427 215.841h-406c-11.6201 0 -21 12.835 -21 28.7363s9.37988 28.7373 21 28.7373h406
c11.6201 0 21 -12.8359 21 -28.7373s-9.37988 -28.7363 -21 -28.7363v0zM427 111.419h-406c-11.6201 0 -21 12.8359 -21 28.7373s9.37988 28.7373 21 28.7373h406c11.6201 0 21 -12.8359 21 -28.7373s-9.37988 -28.7373 -21 -28.7373v0zM427 320.262h-406
c-11.6201 0 -21 12.8359 -21 28.7363c0 15.9014 9.37988 28.7373 21 28.7373h406c11.6201 0 21 -12.8359 21 -28.7373c0 -15.9004 -9.37988 -28.7363 -21 -28.7363v0z" />
    <glyph glyph-name="uniF148" unicode="&#xf148;" 
d="M327.305 192.254l-153.286 153.286c-8.88965 8.88965 -9.00195 23.1895 -0.114258 32.0771c8.82617 8.82715 22.9824 8.98145 32.0781 -0.114258l164.499 -164.499c5.62891 -5.62988 7.73926 -13.4297 6.27148 -20.6504
c1.56152 -7.21289 -0.479492 -15.0576 -6.27148 -20.8496l-164.499 -164.499c-8.88965 -8.88965 -23.1904 -9.00195 -32.0781 -0.114258c-8.82617 8.82617 -8.98145 22.9824 0.114258 32.0781z" />
    <glyph glyph-name="uniF13A" unicode="&#xf13a;" 
d="M66.3682 122.853h382.23v233.143h-382.23v-233.143zM455.677 67.9951h-134.488v-34.2852l28.3135 -27.4287v-6.85742h-184.037v6.85742l28.3135 27.4287v34.2852h-134.488c-11.7217 0 -21.2354 9.20996 -21.2354 20.5723v274.285
c0 11.3623 9.51367 20.5713 21.2354 20.5713h396.387c11.7285 0 21.2354 -9.20898 21.2354 -20.5713v-274.285c0 -11.3623 -9.50684 -20.5723 -21.2354 -20.5723v0z" />
    <glyph glyph-name="uniF144" unicode="&#xf144;" horiz-adv-x="511" 
d="M302 172.955h-59.9941v-60c0 -9.94141 -8.06348 -18 -18.0059 -18c-9.93555 0 -17.9941 8.05859 -17.9941 18v60h-60.0059c-9.94238 0 -18 8.05859 -18 18c0 9.94238 8.05762 18 18 18h60.0059v60c0 9.94238 8.05859 18 17.9941 18
c9.94238 0 18.0059 -8.05762 18.0059 -18v-60h59.9941c9.94238 0 18.0059 -8.05762 18.0059 -18c0 -9.94141 -8.06348 -18 -18.0059 -18v0zM224 346.955c-86.1543 0 -156 -69.8457 -156 -156s69.8457 -156 156 -156c86.1602 0 156 69.8457 156 156s-69.8398 156 -156 156v0z
M224 -1.04492c-106.038 0 -192 85.9619 -192 192s85.9619 192 192 192c106.044 0 192 -85.9619 192 -192s-85.9561 -192 -192 -192v0z" />
    <glyph glyph-name="uniF132" unicode="&#xf132;" 
d="M411.072 192v0c0 -23.9404 14.7334 -42.8389 36.9277 -55.8262c-3.99121 -13.3672 -9.29395 -26.167 -15.8125 -38.2217c-24.8867 6.51367 -45.0283 -3.24121 -61.9658 -20.1738c-16.9277 -16.9326 -22.1074 -37.083 -15.5977 -61.9609
c-12.0508 -6.52344 -24.8457 -11.8223 -38.2217 -15.8174c-12.9922 22.1895 -36.457 36.9326 -60.4023 36.9326c-23.9355 0 -47.4014 -14.7432 -60.3936 -36.9326c-13.3711 3.98633 -26.166 9.29395 -38.2217 15.8076c6.50977 24.8916 1.33105 45.0381 -15.5977 61.9707
c-16.9365 16.9326 -37.083 22.1162 -61.9746 15.6025c-6.51855 12.0498 -11.8125 24.8496 -15.8125 38.2217c22.1943 12.9873 36.9326 36.457 36.9326 60.3975s-14.7383 42.8438 -36.9326 55.835c4 13.3584 9.29395 26.1582 15.8125 38.2041
c24.8867 -6.50488 45.0381 3.24512 61.9746 20.1777c16.9287 16.9375 22.1074 37.0879 15.5977 61.9756c12.0508 6.51367 24.8457 11.8164 38.2129 15.8076c13.001 -22.1992 36.4668 -36.9326 60.4023 -36.9326c23.9453 0 47.4102 14.7334 60.4023 36.9326
c13.3711 -3.99512 26.167 -9.29395 38.2217 -15.8174c-6.51855 -24.8818 -1.33008 -45.0371 15.5977 -61.9658c16.9375 -16.9277 37.083 -26.6826 61.9658 -20.1689c6.51855 -12.0498 11.8213 -24.8506 15.8125 -38.2129
c-22.1943 -12.9912 -36.9277 -31.8945 -36.9277 -55.835zM256 108.503v0c46.1162 0 83.502 37.3848 83.502 83.502c0 46.1162 -37.3857 83.501 -83.502 83.501c-46.1123 0 -83.4922 -37.3848 -83.4922 -83.501c0 -46.1123 37.3799 -83.502 83.4922 -83.502z" />
    <glyph glyph-name="uniF162" unicode="&#xf162;" horiz-adv-x="511" 
d="M307.517 113.5c-117.321 2.85742 -211.517 98.4814 -211.517 216.12c0 29.0537 54.2412 31.5635 54.2412 0c0 -87.792 69.9062 -159.232 157.275 -162.037v75.5146l108.483 -97.3174l-108.483 -97.3174v65.0371z" />
  </font>
</defs>
</svg>
