<?xml version="1.0" encoding="utf-8"?>
<!-- Generator: Adobe Illustrator 22.0.1, SVG Export Plug-In . SVG Version: 6.00 Build 0)  -->
<svg version="1.1" id="Layer_1" xmlns="http://www.w3.org/2000/svg" xmlns:xlink="http://www.w3.org/1999/xlink" x="0px" y="0px"
	 viewBox="0 0 24 24" style="enable-background:new 0 0 24 24;" xml:space="preserve">
<style type="text/css">
	.st0{fill:#4860A2;}
</style>
<path class="st0" d="M22.0888672,7.7241211c-0.359375-1.237793-1.1552734-2.5185547-2.2421875-3.605957
	c-2.2105713-2.2105713-5.0223999-3-6.4664307-1.8897095c-0.0662231,0.0255737-0.1286621,0.0625-0.1810303,0.1167603
	l-0.0333862,0.0348511c-0.0019531,0.0019531-0.0046997,0.0027466-0.0066528,0.0046997
	c-0.0024414,0.0024414-0.003479,0.0059204-0.0059204,0.0084229L4.6679077,11.250061l-2.0629272,2.0634155
	c-1.4155273,1.4150391-0.7519531,4.296875,1.5107422,6.5595703c1.5200195,1.5205078,3.2939453,2.3544922,4.7275391,2.3544922
	c0.75,0,1.4072266-0.2285156,1.8852539-0.7070313l1.352356-1.352356l0.7521973-0.7345581
	c0.0373535-0.0321655,0.0800171-0.0566406,0.1151733-0.0917969c0.017395-0.017395,0.0247803-0.0397339,0.0390625-0.0588379
	l8.6318359-8.4294434c0.0008545-0.0007935,0.0010986-0.0019531,0.0018921-0.0027466
	c0.0006104-0.0006104,0.0014038-0.0010376,0.0020142-0.0016479C22.3085938,10.1640625,22.4736328,9.0546875,22.0888672,7.7241211z
	 M12.4313354,18.4289551c-0.0186768,0.0122681-0.039978,0.0178833-0.057312,0.032959
	c-0.1384277,0.1203003-0.3371582,0.2908325-0.6129761,0.4251099c-0.9989624,0.289856-2.8356323-0.3424683-4.5081177-2.0149536
	c-0.9394531-0.9394531-1.6274414-2.0078125-1.9370117-3.0068359c-0.2714844-0.8774414-0.2080078-1.5996094,0.1738281-1.9814453
	c0.0363159-0.0363159,0.0588989-0.079895,0.0817261-0.1230469l0.0667114-0.0668945
	c0.0117188-0.0117188,0.0162964-0.0270996,0.0266113-0.0396118l4.7786865-4.9873047
	c0.0162354,1.3441772,0.8621826,3.0187378,2.4530029,4.6099243c1.5185547,1.5181274,3.0221558,2.3833008,4.2630615,2.5338135
	L12.4313354,18.4289551z M18.9433594,6.4111328c-0.1875,0-0.5859375-0.1171875-0.9150391-0.4458008
	c-0.3378906-0.3383789-0.4384766-0.7226563-0.4355469-0.9003906c0.1738281,0.0151367,0.5429688,0.1430664,0.890625,0.4892578
	c0.3369141,0.3378906,0.4550781,0.6928711,0.4648438,0.8569336C18.9472656,6.4111328,18.9453125,6.4111328,18.9433594,6.4111328z
	 M18.8265381,4.5454102c-0.6682129-0.4796753-1.512146-0.6746216-1.9593506-0.2241211
	c-0.0001831,0.0001831-0.0003052,0.0004272-0.0004883,0.0006104s-0.0003052,0.0001831-0.0004883,0.0003662L16.2480469,4.940918
	c-0.0502319,0.0502319-0.0864868,0.1087036-0.1109009,0.1708374c-0.0951538,0.1528931-0.1605835,0.3252563-0.1605835,0.5283813
	c0,0.4956055,0.2978516,1.090332,0.7988281,1.590332c0.3359375,0.3359375,0.7255859,0.5888672,1.0966797,0.7128906
	c0.171875,0.0571289,0.3369141,0.0854492,0.4921875,0.0854492c0.2023926,0,0.3754272-0.0646362,0.5289917-0.1593018
	c0.0626221-0.024353,0.121582-0.0606079,0.1721802-0.1112061l0.6181641-0.6181641
	c0.0001831-0.0001831,0.0002441-0.0004272,0.0004272-0.0006104s0.0003662-0.0001831,0.0005493-0.0003662
	c0.4113159-0.4108887,0.3217773-1.1888428-0.1583252-1.8815308c0.7579346,0.862854,1.3383789,1.8349609,1.6016846,2.744812
	c0.2750854,0.9491577,0.1981201,1.7279663-0.2108765,2.1380615l-0.0028076,0.0027466
	c-0.0988159,0.0985107-0.2196655,0.1765747-0.3587646,0.2346802c-0.9754639,0.0933228-2.5244751,0.085022-4.9735718-2.2008057
	c-0.9152222-0.947876-1.5929565-2.0073853-1.9012451-3.0047607c-0.2833862-0.9136963-0.2161255-1.666687,0.1795654-2.0714111
	l0.0134888-0.0140991C14.6757202,2.2990723,16.8463135,2.7369385,18.8265381,4.5454102z"/>
</svg>
