<?xml version="1.0" encoding="utf-8"?>
<!-- Generator: Adobe Illustrator 22.0.1, SVG Export Plug-In . SVG Version: 6.00 Build 0)  -->
<svg version="1.1" id="Layer_1" xmlns="http://www.w3.org/2000/svg" xmlns:xlink="http://www.w3.org/1999/xlink" x="0px" y="0px"
	 viewBox="0 0 24 24" style="enable-background:new 0 0 24 24;" xml:space="preserve">
<style type="text/css">
	.st0{fill:#4860A2;}
</style>
<path class="st0" d="M22.1191406,6.7836914c-0.3027344-1.0458984-0.9746094-2.1259766-1.890625-3.0419922
	c-0.9140625-0.9150391-1.9892578-1.5800781-3.0263672-1.8730469c-1.0112915-0.2854614-1.8626099-0.171875-2.4587402,0.2805786
	c-0.0639038,0.0256958-0.1240234,0.0628052-0.1750488,0.1154175l-0.0279541,0.0291748
	c-0.0012207,0.0012207-0.0030518,0.0018311-0.0042725,0.0030518c-0.0015869,0.0015869-0.0022583,0.0038452-0.0038452,0.0054321
	L7.4584351,9.6860962L5.737793,11.4067383c-0.8002319,0.8002319-0.8180542,2.1403809-0.1964722,3.510437L1.5488281,18.765625
	c-0.1987305,0.1923828-0.2045898,0.5087891-0.0126953,0.7070313c0.0981445,0.1025391,0.2290039,0.1533203,0.3598633,0.1533203
	c0.125,0,0.25-0.046875,0.347168-0.1396484l3.8051758-3.6679077c0.2677002,0.4024048,0.5737915,0.7999268,0.9487305,1.1747437
	c0.3591309,0.3592529,0.7358398,0.6677246,1.118103,0.9332275l-3.6786499,3.5462646
	c-0.1987305,0.1923828-0.2045898,0.5087891-0.0126953,0.7070313c0.0981445,0.1025391,0.2290039,0.1533203,0.3598633,0.1533203
	c0.125,0,0.25-0.046875,0.347168-0.1396484l3.8746338-3.7352295c0.6932373,0.3411255,1.3788452,0.5203857,1.993042,0.5203857
	c0.6469727,0,1.2148438-0.1982422,1.6289063-0.6123047l1.1092529-1.1090088
	c0.0001831-0.0001831,0.0004272-0.0001831,0.0006104-0.0003662l0.6462402-0.6311035
	c0.0303955-0.0264282,0.0653076-0.0462646,0.0939941-0.0749512c0.0141602-0.0141602,0.0197754-0.0326538,0.0318604-0.0479736
	l7.1966553-7.0281982c0.0008545-0.0007935,0.0010376-0.0019531,0.0018921-0.0028076
	c0.0006104-0.0006104,0.0014038-0.0009766,0.0020142-0.0015869C22.3037109,8.8769531,22.4482422,7.9228516,22.1191406,6.7836914z
	 M16.5603027,13.1018066c-0.0567627,0.024353-0.1106567,0.0579224-0.1569824,0.104248
	c-0.2998047,0.2988281-0.8779297,0.3457031-1.5839844,0.1259766c-0.828125-0.2558594-1.7128906-0.8266602-2.4936523-1.6069336
	c-1.6381836-1.6381836-2.0952148-3.4638672-1.4814453-4.0776367c0.0485229-0.0485229,0.0847778-0.1046143,0.1091919-0.1643677
	l1.2982178-1.3549194c0.0217896,0.2636108,0.0714111,0.538208,0.1653442,0.8273926
	c0.3022461,0.9282227,0.9765625,1.9482422,1.9003906,2.871582c1.2102661,1.2098389,2.4133301,1.9289551,3.4335938,2.1116943
	L16.5603027,13.1018066z M13.9312744,15.6696167c-0.0142822,0.0100708-0.0311279,0.013916-0.0445557,0.0256958
	c-0.1146851,0.0994873-0.2814331,0.2414551-0.5141602,0.3502808c-0.8061523,0.2157593-2.2844238-0.3137817-3.6425781-1.6715698
	C8.1064453,12.75,7.6523438,10.940918,8.2602539,10.3330078c0.0304565-0.0304565,0.0476074-0.0678101,0.0686035-0.1032715
	l0.0554199-0.0554199c0.0098267-0.0098267,0.0134277-0.0227661,0.0222778-0.0331421l1.2258911-1.2794189
	c0.1497803,1.1125488,0.8340454,2.4182129,1.9862061,3.5703735c1.1536865,1.1536865,2.4659424,1.8516846,3.5795288,2.0001221
	L13.9312744,15.6696167z M16.9296875,2.8310547c0.8759766,0.2470703,1.7958984,0.8217773,2.5917969,1.6176758
	c0.7871094,0.7871094,1.3837891,1.7397461,1.6367188,2.612793c0.2203979,0.7611694,0.1639404,1.3803101-0.1542358,1.7000732
	l-0.0027466,0.0026245c-0.0739136,0.0734253-0.1676636,0.1288452-0.272583,0.1726685
	c-0.7961426,0.0737915-2.0681763,0.0455322-4.0841064-1.8430176c-1.5802002-1.6557007-2.0192261-3.4574585-1.4052734-4.0838013
	l0.0092773-0.0097046C15.5710449,2.6828613,16.1821289,2.6201172,16.9296875,2.8310547z"/>
</svg>
