<?xml version="1.0" encoding="utf-8"?>
<!-- Generator: Adobe Illustrator 22.0.1, SVG Export Plug-In . SVG Version: 6.00 Build 0)  -->
<svg version="1.1" id="Layer_1" xmlns="http://www.w3.org/2000/svg" xmlns:xlink="http://www.w3.org/1999/xlink" x="0px" y="0px"
	 viewBox="0 0 24 24" style="enable-background:new 0 0 24 24;" xml:space="preserve">
<style type="text/css">
	.st0{fill:#4860A2;}
</style>
<path class="st0" d="M21.6134033,3.4387817l1.0174561-1.0169067c0.1953125-0.1953125,0.1953125-0.5117188,0-0.7070313
	s-0.5117188-0.1953125-0.7070313,0L20.906311,2.7318115c-0.4035645-0.3562622-0.8174438-0.6483765-1.1953735-0.8392334
	c-0.8388672-0.4238281-1.2871094-0.2421875-1.515625-0.0136719l-2.0803223,2.0800781l-0.4401855-0.4404297
	c-0.0664063-0.0668945-0.1513672-0.1132813-0.2431641-0.1342773l-4.2001953-0.9516602
	c-0.0139771-0.0031128-0.0272827,0.0031128-0.0413208,0.0012207c-0.0516968-0.0073242-0.1016846-0.0059814-0.1531372,0.0029297
	c-0.015686,0.0026855-0.031311-0.0010986-0.0466309,0.0030518c-0.0099487,0.0026855-0.0181274,0.0081787-0.0278931,0.0114746
	c-0.0708618,0.0238037-0.1384277,0.0591431-0.1948853,0.1156006L7.2407227,6.09375
	c-0.121582,0.121582-0.171875,0.2963867-0.1342773,0.4638672l0.9516602,4.2001953
	c0.020874,0.0914917,0.0675659,0.171875,0.1307373,0.2367554c0.001709,0.00177,0.00177,0.0046387,0.00354,0.0064087
	l0.4401855,0.4401855l-3.3492432,3.3490601l-0.4473877,0.4470825c-0.0001831,0.0001831-0.0003052,0.0005493-0.0004883,0.0007324
	l-4.0288086,4.0285645c-0.1953125,0.1953125-0.1953125,0.5117188,0,0.7070313
	c0.0976563,0.0976563,0.2255859,0.1464844,0.3535156,0.1464844s0.2558594-0.0488281,0.3535156-0.1464844L4.8901978,16.59729
	c0.178772,0.4866333,0.5136719,1.0900269,1.140564,1.7171631c0.4903564,0.4903564,1.081665,0.9561768,1.6384888,1.2194214
	L5,22.203125c-0.1953125,0.1953125-0.1953125,0.5117188,0,0.7070313c0.0976563,0.0976563,0.2255859,0.1464844,0.3535156,0.1464844
	s0.2558594-0.0488281,0.3535156-0.1464844l3.4003906-3.4003906L10.7421875,17.875l2.1621094-2.1621094l0.4404297,0.4404297
	c0.0018311,0.0018311,0.0047607,0.0018311,0.0065918,0.0036011c0.0648804,0.0629883,0.1452026,0.1096191,0.2365723,0.130188
	l4.1992188,0.9511719c0.0361328,0.0087891,0.0732422,0.0126953,0.1103516,0.0126953
	c0.1308594,0,0.2587891-0.0517578,0.3535156-0.1464844l3.5273438-3.5263672
	c0.0569458-0.0569458,0.0922241-0.1251221,0.1159668-0.1966553c0.0029907-0.0088501,0.0083008-0.0160522,0.0108032-0.0250854
	c0.0043335-0.0158691,0.0006714-0.0321655,0.003479-0.0484009c0.0088501-0.0519409,0.0100098-0.102356,0.0023804-0.1544189
	c-0.0018921-0.0132446,0.0041504-0.026123,0.0011597-0.0393066l-0.9521484-4.2006836
	c-0.0205078-0.0922852-0.0673828-0.1762695-0.1337891-0.2431641l-0.4396973-0.4399414l2.0803223-2.0800781
	c0.2275391-0.2275391,0.4101563-0.675293-0.0136719-1.5161133C22.2622681,4.2559204,21.9698486,3.8423462,21.6134033,3.4387817z
	 M17.8138428,9.3887939c-0.2263184-0.013855-0.9157715-0.3417969-1.71521-1.1417236
	c-0.8001099-0.7996216-1.12854-1.4881592-1.1426392-1.715271l3.2175903-3.2171631
	c0.0128784,0.0274048,0.0211182,0.0516357,0.0354004,0.079895c0.2490234,0.4941406,0.6679688,1.0483398,1.1806641,1.5610352
	c0.4904175,0.4904175,1.081665,0.9561157,1.6386719,1.2191772L17.8138428,9.3887939z M13.6981812,15.0927124l-4.4452515-4.4452515
	l2.8198242-2.8198242l4.4448853,4.4448853L13.6981812,15.0927124z M10.0878296,17.1152954
	c-0.2270508-0.0140381-0.9156494-0.3425293-1.715271-1.1426392c-0.800354-0.8008423-1.1288452-1.4897461-1.1419067-1.7156982
	l2.1089478-2.1087646l2.857666,2.857666L10.0878296,17.1152954z M20.0166016,9.2753906l0.7451172,3.2860718l-3.2865601-0.7449951
	l-4.9465332-4.9470215l-0.6195068-2.734375l-0.124939-0.5515747l3.2851563,0.7441406l0.3384399,0.3384399l-1.2114868,1.2113647
	c-0.2275391,0.2275391-0.4101563,0.675293,0.0136719,1.5161133c0.2490234,0.4936523,0.6689453,1.0478516,1.1816406,1.5605469
	s1.0664063,0.9321289,1.5605469,1.1811523c0.3681641,0.1855469,0.6611328,0.2548828,0.8935547,0.2548828
	c0.296875,0,0.4941406-0.1132813,0.6220703-0.2412109l1.2114868-1.2113647L20.0166016,9.2753906z"/>
</svg>
