<?xml version="1.0" encoding="utf-8"?>
<!-- Generator: Adobe Illustrator 22.0.1, SVG Export Plug-In . SVG Version: 6.00 Build 0)  -->
<svg version="1.1" id="Layer_1" xmlns="http://www.w3.org/2000/svg" xmlns:xlink="http://www.w3.org/1999/xlink" x="0px" y="0px"
	 viewBox="0 0 24 24" style="enable-background:new 0 0 24 24;" xml:space="preserve">
<style type="text/css">
	.st0{fill:#4860A2;}
</style>
<g>
	<path class="st0" d="M18.8954468,3.5875244c-0.0098267-0.0192871-0.0228882-0.0343018-0.0351563-0.052124
		c-0.0342407-0.0496216-0.0753784-0.0907593-0.124939-0.1251831c-0.0116577-0.0081177-0.0168457-0.0222168-0.0292969-0.0293579
		l-2.7285156-1.574707c-0.5117188-0.2949219-1.1464844-0.2949219-1.65625,0l-9.2926636,5.364624
		C4.9890747,7.182251,4.9472046,7.1821289,4.9106445,7.2036133C4.7578125,7.293457,4.6635742,7.4575195,4.6635742,7.6347656
		v8.1201172c0,0.6795654,0.3682251,1.3039551,0.9597778,1.633606c0.0027466,0.0015869,0.0042114,0.0044556,0.007019,0.0060425
		l1.1982422,0.6699219c0.0217896,0.0125122,0.0466309,0.0162354,0.0686035,0.0281982l0.0393066,0.0216064V22.375
		c0,0.2763672,0.2236328,0.5,0.5,0.5s0.5-0.2236328,0.5-0.5v-3.940979c0.1825562,0.0304565,0.3642578,0.0708618,0.5488281,0.0708618
		c0.5693359,0,1.1386719-0.1445313,1.6464844-0.4345703l2.0371094-1.1620483v3.4940796c0,0.2763672,0.2236328,0.5,0.5,0.5
		s0.5-0.2236328,0.5-0.5v-4.0645752l3.2880859-1.8756714V18.34375c0,0.2763672,0.2236328,0.5,0.5,0.5s0.5-0.2236328,0.5-0.5
		v-4.4586792c0.9232178-0.5452271,1.4990234-1.5402832,1.4990234-2.6140747V3.8139648
		C18.9560547,3.7310791,18.9310913,3.656311,18.8954468,3.5875244z M8.8789063,8.7011719
		C8.6386108,8.8369141,8.34552,8.8349609,8.1032104,8.7059326L7.6152344,8.4329834L7.3658447,8.2895508l8.9046631-5.1318359
		c0.0075684-0.0043335,0.0077515-0.0142822,0.0147705-0.019165l1.1658936,0.6729736L8.8789063,8.7011719z M14.8212891,2.6723633
		c0.203125-0.1171875,0.453125-0.1171875,0.65625,0l0.2172241,0.1253662L6.7646484,7.9437256L6.2265625,7.6342773
		L14.8212891,2.6723633z M16.9267578,13.0419922l-6.5697021,3.7479248l0.0675049-0.0496216
		c-0.6054688,0.3146362-1.2719116,0.1346436-1.446228-0.9393311L9.0077515,9.71875
		c0.1256104-0.0383911,0.250061-0.0829468,0.366272-0.1494141l8.5820313-4.8946533v6.5963135
		C17.9560547,12.0009766,17.5615234,12.6801758,16.9267578,13.0419922z"/>
	<path class="st0" d="M12.0409546,11.2816162c0,0.8104248,0.5689697,1.138916,1.270813,0.7337036
		s1.270813-1.3907471,1.270813-2.2011719V8.2714844l-2.541626,1.4674683V11.2816162z"/>
</g>
</svg>
