<?xml version="1.0" encoding="utf-8"?>
<!-- Generator: Adobe Illustrator 22.0.1, SVG Export Plug-In . SVG Version: 6.00 Build 0)  -->
<svg version="1.1" id="Layer_1" xmlns="http://www.w3.org/2000/svg" xmlns:xlink="http://www.w3.org/1999/xlink" x="0px" y="0px"
	 viewBox="0 0 24 24" style="enable-background:new 0 0 24 24;" xml:space="preserve">
<style type="text/css">
	.st0{fill:#4860A2;}
</style>
<g>
	<path class="st0" d="M22.3154297,11.7514648l-9.1298828-5.3583984l0.0410156-0.6791992
		c0.03125-0.5253906-0.2319336-1.0151367-0.6879883-1.2788086l-2.4384766-1.4077148c-0.1542969-0.0888672-0.3447266-0.0888672-0.5,0
		L2.5864258,7.0751953L1.2133789,7.8676758C1.2010498,7.8748169,1.1958008,7.888855,1.1842651,7.8969116
		c-0.0501099,0.034668-0.0914917,0.076355-0.1259766,0.1265869c-0.012146,0.0176392-0.0250244,0.0325317-0.03479,0.0516357
		c-0.0353394,0.0686035-0.0601196,0.1430664-0.0601196,0.225647v4.8232422c0,0.0217285,0.0096436,0.0402222,0.0123291,0.0612183
		c0.0043945,0.0346069,0.0088501,0.067688,0.0202637,0.1005859c0.0107422,0.0310059,0.026062,0.0579224,0.0423584,0.0858765
		c0.015686,0.0270386,0.0308838,0.0527344,0.0516968,0.0767212c0.0234375,0.0270386,0.0507202,0.0479736,0.0794067,0.069458
		c0.0163574,0.0122681,0.0272217,0.0293579,0.0454102,0.0397339l2.2255859,1.2734375
		c0.0401001,0.0229492,0.0861206,0.0333862,0.1274414,0.0541382l0.3388672,0.1939087
		c0.0308228,0.0175781,0.0663452,0.0159302,0.0993042,0.0265503c0.0021362,0.0009155,0.0046387,0.0009155,0.0067749,0.00177
		c0.0474854,0.0145874,0.0932007,0.0380859,0.1424561,0.0380859c0.006958,0,0.0131226-0.0050049,0.0200195-0.0053101
		c0.0092163,0.0004883,0.0170288,0.0053101,0.0263672,0.0053101c0.0419922,0,0.0794067-0.0141602,0.1183472-0.0238647
		c0.0928955,0.0147095,0.1835327,0.0420532,0.2776489,0.0463257l2.2363281,0.1035156l9.7314453,5.6992188
		c0.0771484,0.0449219,0.1640625,0.0683594,0.2529297,0.0683594h2.8193359c0.0898438,0,0.1787109-0.0244141,0.2558594-0.0703125
		l2.34375-1.3974609c0.4921875-0.2929688,0.7988281-0.8320313,0.7988281-1.4072266v-4.0761719v-1.078125
		C23.0361328,12.4936523,22.7597656,12.0112305,22.3154297,11.7514648z M4.7016602,11.8251343l0.024231-1.4784546
		l1.8336792,0.0843506v3.8269043l-1.8579102-0.0853882V11.8251343z M17.3974609,16.187439
		c0.1415405,0.0155029,0.2835693,0.0283813,0.4267578,0.0283813h1.3925781v3.8232422h-1.8193359V16.187439z M21.2937012,17.9796753
		c-0.369873,0.213501-0.6697388,0.0404053-0.6697388-0.3866577s0.2998657-0.9464111,0.6697388-1.1599121
		c0.369812-0.213562,0.6696777-0.0404663,0.6696777,0.3865967S21.6635132,17.7661133,21.2937012,17.9796753z M9.8500977,4.0375977
		l2.1884766,1.2636719c0.1259766,0.0727539,0.1987305,0.2080078,0.1899414,0.3530273l-0.059082,0.9848633
		c-0.0112305,0.1875,0.0834961,0.3657227,0.2460938,0.4609375l9.3950195,5.5141602
		c0.1386719,0.081543,0.2255859,0.2329102,0.2255859,0.3955078v0.7890625l-2.453125,1.4169922h-1.7587891
		c-0.5170288,0-1.0250854-0.1373291-1.4694824-0.3977051L7.3125,9.5219727
		C7.2421875,9.4814453,7.1635742,9.4580078,7.0825195,9.4541016L4.6860352,9.34375
		c-0.178833-0.0081787-0.3534546-0.0586548-0.5186768-0.1306152L2.4940796,8.2832031L9.8500977,4.0375977z"/>
	<path class="st0" d="M12.3421631,10.2709351l3.5844727,2.069519c0.1904907,0.1099854,0.5022583,0.1099854,0.6928101,0
		l0.5968018-0.3446045c0.1905518-0.1099854,0.1905518-0.289978,0-0.3999634l-3.5844116-2.069519
		c-0.1905518-0.1099854-0.5023193-0.1099854-0.6928101,0l-0.5968628,0.3446045
		C12.1516724,9.980957,12.1516724,10.1609497,12.3421631,10.2709351z"/>
</g>
</svg>
