<?xml version="1.0" encoding="utf-8"?>
<!-- Generator: Adobe Illustrator 22.0.1, SVG Export Plug-In . SVG Version: 6.00 Build 0)  -->
<svg version="1.1" id="Layer_1" xmlns="http://www.w3.org/2000/svg" xmlns:xlink="http://www.w3.org/1999/xlink" x="0px" y="0px"
	 viewBox="0 0 24 24" style="enable-background:new 0 0 24 24;" xml:space="preserve">
<style type="text/css">
	.st0{fill:#4860A2;}
</style>
<path class="st0" d="M22.74646,6.8840332c-0.0096436-0.019104-0.0228271-0.0338745-0.0348511-0.0516357
	c-0.0332642-0.0491333-0.072937-0.090271-0.1210938-0.1248169c-0.0115356-0.0083008-0.0167236-0.0224609-0.0289917-0.0298462
	l-6.7041016-4.0078125c-0.3515625-0.2104492-0.7929688-0.2167969-1.1503906-0.0161133L1.4506836,10.0800781
	c-0.012207,0.0067749-0.0175171,0.0204468-0.0289917,0.0281372c-0.0501099,0.0336914-0.092041,0.0742188-0.1270752,0.1233521
	c-0.0131226,0.0183716-0.026001,0.0343018-0.0365601,0.0542603c-0.0325928,0.0614624-0.0531616,0.12854-0.0574951,0.2019043
	c-0.0004272,0.0071411-0.0056152,0.0128784-0.0057373,0.0200806c0,0.0013428,0.0009155,0.0023804,0.0009155,0.0037231
	c0,0.0016479-0.0009155,0.0029297-0.0009155,0.0045776v5.3452148c0,0.5917969,0.2998047,1.1318359,0.8027344,1.4443359
	l5.6992188,3.5419922c0.3427734,0.2128906,0.730957,0.3203125,1.1201172,0.3203125c0.3632813,0,0.7275391-0.09375,1.0551758-0.28125
	l12.1347656-6.9560547c0.4921875-0.28125,0.7978516-0.8085938,0.7978516-1.3759766V7.1069336
	C22.8046875,7.0255737,22.7808228,6.9519043,22.74646,6.8840332z M15.1953125,3.5258789
	c0.046875-0.0249023,0.1035156-0.0249023,0.1484375,0.0024414l5.96875,3.5678711l-1.043396,0.5935669l-6.1173706-3.5792236
	L15.1953125,3.5258789z M7.7070923,7.7210693C8.0090332,7.8180542,8.333374,7.8857422,8.6884766,7.8857422
	c0.0888672,0,0.1787109-0.0029297,0.269043-0.0092773c0.5893555-0.0415039,1.1381836-0.2172852,1.5458984-0.4946289
	c0.4560547-0.3105469,0.6904297-0.7148438,0.6606445-1.1381836c-0.0098267-0.137085-0.0563354-0.2670898-0.1204224-0.3918457
	l2.5015259-1.4014282l6.1219482,3.5819092l-2.6732178,1.520752c-0.40448-0.1531372-0.8520508-0.2595825-1.3415527-0.2595825
	c-1.4492188,0-2.5849609,0.7070313-2.5849609,1.6098633c0,0.2606812,0.1015015,0.5053101,0.2769165,0.7260132l-2.7510376,1.5651245
	l-6.171814-3.6326294L7.7070923,7.7210693z M13.7441406,12.5524902v4.9627075l-2.6601563,1.5249023V14.065918L13.7441406,12.5524902
	z M17.5683594,10.37677l2.6103516-1.4851685v4.9349365l-2.6103516,1.4963989V10.37677z M3.8156128,9.9012451l6.1755981,3.6356812
	l-1.2001953,0.6828003l-6.1025391-3.6870117L3.8156128,9.9012451z M9.3754883,20.0195313
	c-0.0293579,0.0167847-0.0618896,0.0233765-0.0922852,0.0373535v-4.9664307l1.2011719-0.6833496v4.9767456L9.3754883,20.0195313z
	 M21.5097656,13.0634766l-0.7314453,0.4193115v-4.932312l1.0263672-0.5839233v4.5881348
	C21.8046875,12.7646484,21.6923828,12.9594727,21.5097656,13.0634766z"/>
</svg>
