<?xml version="1.0" encoding="utf-8"?>
<!-- Generator: Adobe Illustrator 22.0.1, SVG Export Plug-In . SVG Version: 6.00 Build 0)  -->
<svg version="1.1" id="Layer_1" xmlns="http://www.w3.org/2000/svg" xmlns:xlink="http://www.w3.org/1999/xlink" x="0px" y="0px"
	 viewBox="0 0 24 24" style="enable-background:new 0 0 24 24;" xml:space="preserve">
<style type="text/css">
	.st0{fill:#4860A2;}
</style>
<path class="st0" d="M19.8486328,4.2578125c-2.0478516-2.0488281-4.6953125-2.7387695-5.9003906-1.5317383l-1.722168,1.7216797
	c-0.5652466,0.5654907-0.6917725,1.4450684-0.4576416,2.4312744l-3.2201538,3.2201538
	c-0.055603-0.0409546-0.1189575-0.0726318-0.1908569-0.0879517C7.387207,9.8061523,6.5600586,9.984375,6.0302734,10.5136719
	l-1.7758789,1.7758789c-0.6118164,0.6118164-0.7519531,1.5864258-0.3935547,2.7436523
	c0.1116333,0.3607788,0.2831421,0.7272949,0.4798584,1.0929565l-2.137085,2.0935669
	c-0.1972656,0.1933594-0.2001953,0.5097656-0.0068359,0.7070313c0.0976563,0.1005859,0.2270508,0.1503906,0.3569336,0.1503906
	c0.1264648,0,0.2524414-0.0478516,0.3500977-0.1425781l1.9816895-1.9412842
	c0.2839966,0.3952637,0.5974731,0.7836304,0.9611816,1.1473389c0.3695068,0.3693848,0.7544556,0.6921387,1.1438599,0.9718018
	l-1.9524536,1.8973389c-0.1977539,0.1923828-0.2026367,0.5087891-0.0097656,0.7070313
	c0.0976563,0.1005859,0.2280273,0.1513672,0.3583984,0.1513672c0.1254883,0,0.2514648-0.046875,0.3486328-0.1416016
	l2.1303711-2.0702515c0.7971191,0.4262085,1.5825806,0.6581421,2.2685547,0.6581421
	c0.6259766,0,1.1699219-0.1875,1.5634766-0.5810547l1.7758789-1.7763672
	c0.5302734-0.5292969,0.7080078-1.3554688,0.5029297-2.3261719c-0.0061646-0.029541-0.0234375-0.0521851-0.0343628-0.0789795
	l3.246582-3.2469482c0.3071289,0.0739746,0.6040649,0.1228027,0.8776245,0.1228027
	c0.6337891,0,1.1669922-0.1972656,1.5546875-0.5849609l1.7626953-1.7626953
	c0.0510864-0.0510864,0.0872192-0.1107788,0.1115723-0.1740723C22.4530029,8.6283569,21.7709961,6.1801758,19.8486328,4.2578125z
	 M19.1416016,4.9648438c1.7011719,1.7006836,2.1914063,3.7519531,1.4941406,4.4492188
	c-0.6640625,0.6660156-2.6367188,0.1821289-4.3994141-1.5810547c-0.8369141-0.8369141-1.4492188-1.7866211-1.7246094-2.675293
	c-0.2373047-0.7670898-0.1845703-1.3959961,0.1435547-1.7246094C15.3544922,2.7368164,17.4179688,3.2416992,19.1416016,4.9648438z
	 M14.4749146,13.6049194c-0.6659546,0.0466919-1.680481-0.3778687-2.6355591-1.3329468
	c-1.0037842-1.0041504-1.418396-2.0703125-1.3189697-2.730835l0.7575684-0.7575684
	c0.0223389,0.1362915,0.0436401,0.2723999,0.0887451,0.4180908c0.2255859,0.7280273,0.7163086,1.4951172,1.3818359,2.1611328
	c0.8152466,0.8152466,1.7270508,1.3041382,2.5205078,1.447937L14.4749146,13.6049194z M13.142334,14.9376831
	c-0.6657104,0.0472412-1.6810303-0.3764038-2.6364746-1.3322144c-1.0037842-1.0041504-1.418396-2.0703125-1.3189697-2.730835
	l0.7603149-0.7603149c0.1292725,0.8063965,0.6328735,1.7467041,1.4678345,2.5819702
	c0.8154297,0.8145752,1.7270508,1.3040161,2.5203857,1.4481812L13.142334,14.9376831z M13.1728516,10.9384766
	c-1.0039063-1.0039063-1.4187622-2.0695801-1.3195801-2.7302246l0.28302-0.28302
	c0.3654785,0.7840576,0.9248657,1.5913086,1.6703491,2.3369751c0.7227783,0.7231445,1.5308838,1.2987671,2.3349609,1.6758423
	l-0.3343506,0.3344116C15.1418457,12.3186035,14.1273193,11.8929443,13.1728516,10.9384766z M7.7108765,10.937561
	c-0.9000854,0.9055786-0.4181519,2.8571167,1.0772095,4.352478c0.0976563,0.0976563,0.2255859,0.1464844,0.3535156,0.1464844
	s0.2558594-0.0488281,0.3535156-0.1464844c0.1953125-0.1953125,0.1953125-0.5117188,0-0.7070313
	c-1.2255859-1.2265625-1.4550781-2.5615234-1.074707-2.9418945l0.1932983-0.1932983
	c0.1292725,0.8063354,0.6328735,1.746521,1.4678345,2.5814819c0.8153687,0.8157959,1.7271118,1.3046875,2.520813,1.4484253
	l-0.1726685,0.1726685c-0.1953125,0.1953125-0.1953125,0.5117188,0,0.7070313
	c0.0976563,0.0976563,0.2255859,0.1464844,0.3535156,0.1464844c0.0952148,0,0.1861572-0.0361938,0.2688599-0.090271
	c-0.0031128,0.2993164-0.0638428,0.6147461-0.2854614,0.8363647c-0.6728516,0.6748047-2.6611328,0.1835938-4.4370117-1.5917969
	c-1.7768555-1.7763672-2.2651367-3.7646484-1.5922852-4.4375C6.9932861,10.9647217,7.3752441,10.920105,7.7108765,10.937561z"/>
</svg>
