<?xml version="1.0" encoding="utf-8"?>
<!-- Generator: Adobe Illustrator 22.0.1, SVG Export Plug-In . SVG Version: 6.00 Build 0)  -->
<svg version="1.1" id="Layer_1" xmlns="http://www.w3.org/2000/svg" xmlns:xlink="http://www.w3.org/1999/xlink" x="0px" y="0px"
	 viewBox="0 0 24 24" style="enable-background:new 0 0 24 24;" xml:space="preserve">
<style type="text/css">
	.st0{fill:#4860A2;}
</style>
<path class="st0" d="M22.7408447,9.7197266c0.0003662-0.177063-0.093811-0.3415527-0.2467041-0.4311523L12.2949219,3.3081055
	c-0.1547852-0.0917969-0.347168-0.0922852-0.5024414-0.0019531l-10.3046875,5.9375
	C1.3334961,9.3320313,1.2382813,9.4960938,1.2373047,9.6738281c0,0.0010376,0.0007935,0.0018921,0.0007935,0.0029297H1.2373047
	v2.7470703c0,0.460144,0.2398682,0.8875122,0.623291,1.1384888v1.2820435c0,0.2200317,0.1558838,0.4899902,0.3463745,0.5999756
	l0.3987427,0.2302246c0.1904907,0.1099854,0.3464355,0.0200195,0.3464355-0.2000122v-1.2559814l1.534729,0.9100952v1.2286987
	c0,0.2200317,0.1558838,0.4900513,0.3463745,0.6000366l0.3987427,0.2302246
	c0.1905518,0.1099854,0.3464355,0.0199585,0.3464355-0.2000122v-1.2116699l1.534729,0.9100952v1.1843872
	c0,0.2199707,0.1558838,0.4899902,0.3464355,0.5999756l0.3987427,0.2302246
	c0.1904907,0.1099854,0.3463745,0.0200195,0.3463745-0.2000122V17.333313l1.53479,0.9101563v1.1399536
	c0,0.2200317,0.1558838,0.4899902,0.3463745,0.5999756l0.3987427,0.2302246
	c0.1904907,0.1099854,0.3464355,0.0200195,0.3464355-0.2000122v-1.1228638l0.3686523,0.2186279
	c0.2138672,0.1259766,0.4545898,0.1894531,0.6958008,0.1894531c0.2358398,0,0.472168-0.0605469,0.6831055-0.1826172
	l0.4486084-0.2590332v1.1564331c0,0.2200317,0.1558838,0.3099976,0.3464355,0.2000122l0.3987427-0.2302246
	c0.1904907-0.1099854,0.3463745-0.3799438,0.3463745-0.5999756v-1.1564941l1.53479-0.8862305v1.1599121
	c0,0.2200317,0.1558838,0.3099976,0.3463745,0.2000122l0.3987427-0.2302246
	c0.1904907-0.1099854,0.3464355-0.3800049,0.3464355-0.5999756v-1.1599731l1.534729-0.8861694v1.1633301
	c0,0.2199707,0.1558838,0.3099976,0.3463745,0.2000122l0.3987427-0.2302246
	c0.1905518-0.1099854,0.3464355-0.3800049,0.3464355-0.6000366v-1.1633301l1.534729-0.8861694v1.166687
	c0,0.2200317,0.1558838,0.3099976,0.3464355,0.2000122l0.3987427-0.2302246
	c0.1904907-0.1099854,0.3463745-0.3799438,0.3463745-0.5999756v-1.166748l0.05896-0.0340576
	c0.421875-0.2421875,0.6845703-0.6958008,0.6845703-1.1831055V9.7197266H22.7408447z M11.9584961,7.4936523L15.2158203,9.375
	l-3.2573242,1.8813477L8.7001953,9.375L11.9584961,7.4936523z M11.7084961,12.2666016
	c0.0771484,0.0444336,0.1635742,0.0668945,0.25,0.0668945s0.1728516-0.0224609,0.25-0.0668945l2.0397949-1.1779175
	l2.3269653,1.3250732l-4.6821899,2.7034302l-4.4036865-2.6110229l2.2723999-1.3634644L11.7084961,12.2666016z
	 M17.1773682,12.0661011l-2.3269653-1.3251343l1.6154175-0.9328613c0.1542969-0.0893555,0.25-0.2543945,0.25-0.4331055
	s-0.0957031-0.34375-0.25-0.4331055l-1.5471191-0.8934326l1.7219849-1.0331421l4.6063843,2.7009888L17.1773682,12.0661011z
	 M12.0395508,4.3173828l4.0112305,2.3520508l-1.7263794,1.0358276l-2.1159058-1.2218628
	c-0.1542969-0.0888672-0.3457031-0.0888672-0.5,0L9.5559692,7.7261353L7.829834,6.7432251L12.0395508,4.3173828z
	 M7.2271118,7.0905151l1.7266846,0.9832764l-1.5036011,0.868103c-0.1547852,0.0893555-0.25,0.2543945-0.25,0.4331055
	s0.0952148,0.34375,0.25,0.4331055l1.7172241,0.991394L6.90271,12.1583252L2.7280273,9.6831055L7.2271118,7.0905151z"/>
</svg>
