<?xml version="1.0" encoding="utf-8"?>
<!-- Generator: Adobe Illustrator 22.0.1, SVG Export Plug-In . SVG Version: 6.00 Build 0)  -->
<svg version="1.1" id="Layer_1" xmlns="http://www.w3.org/2000/svg" xmlns:xlink="http://www.w3.org/1999/xlink" x="0px" y="0px"
	 viewBox="0 0 24 24" style="enable-background:new 0 0 24 24;" xml:space="preserve">
<style type="text/css">
	.st0{fill:#4860A2;}
</style>
<g>
	<path class="st0" d="M23.6958008,8.5480957c-0.0110474-0.0407104-0.0116577-0.0847168-0.0323486-0.1210327
		c-0.0228882-0.0402222-0.0634766-0.0662231-0.0968018-0.098877c-0.0282593-0.02771-0.0473022-0.0633545-0.0822754-0.0840454
		l-0.0036011-0.0021362c-0.0001221-0.000061-0.0001831-0.0002441-0.0003052-0.0003052s-0.0002441-0.000061-0.0003662-0.0001221
		l-8.8453369-5.2386475c-0.15625-0.0917969-0.3486328-0.0927734-0.5029297-0.0039063L0.5219727,10.7900391
		c-0.0771484,0.0443115-0.1394653,0.1074219-0.1828613,0.1815796c-0.0057983,0.0098877-0.0041504,0.0228271-0.0092773,0.0331421
		c-0.0328979,0.0662231-0.0584717,0.1370239-0.0593262,0.213501c0,0.0010986,0.0007935,0.0019531,0.0007935,0.0030518
		c0,0.0010376-0.0007935,0.00177-0.0007935,0.0028076v2.3432617c0,0.1728516,0.0893555,0.3330078,0.2363281,0.4248047
		l0.8119507,0.5045776V16.25c0,0.2199707,0.1558838,0.3099976,0.3464355,0.1999512l0.3987427-0.2301636
		c0.1904907-0.1100464,0.3463745-0.3800049,0.3463745-0.6000366v-0.4446411l6.8543091,4.2594604
		c0.0092773,0.0057373,0.020813,0.0036011,0.0303955,0.008667c0.0697632,0.0379028,0.1461182,0.064209,0.229126,0.0653687
		c0.0014648,0,0.0026855,0.0011597,0.0041504,0.0011597c0.0003662,0,0.0007324-0.0003052,0.0011597-0.0003052
		c0.0006104,0,0.0011597,0.0003052,0.00177,0.0003052c0.0050049,0,0.0089722-0.0042114,0.0139771-0.0043335
		c0.0777588-0.0026245,0.1558228-0.019104,0.2262573-0.0581665c0.0076904-0.0043335,0.0108643-0.0131836,0.0182495-0.0178833
		c0.0073242-0.0044556,0.0170898-0.0026245,0.024231-0.0075073l1.2131958-0.7006226v1.4453735
		c0,0.2200317,0.1558838,0.3099976,0.3463745,0.2000122l0.3987427-0.2302246
		c0.1905518-0.1099854,0.3464355-0.3800049,0.3464355-0.5999756v-1.4456177l1.534729-0.8862915v1.4490967
		c0,0.2199707,0.1558838,0.3099976,0.3464355,0.2000122l0.3986816-0.2302246
		c0.1905518-0.1099854,0.3464355-0.3800049,0.3464355-0.5999756v-1.4493408l1.534729-0.8862915v1.4528198
		c0,0.2199707,0.1558838,0.3099976,0.3464355,0.1999512l0.3987427-0.2301636
		c0.1904907-0.1100464,0.3463745-0.3800049,0.3463745-0.6000366V15.057373l1.53479-0.8863525v1.456543
		c0,0.2200317,0.1558838,0.3099976,0.3463745,0.2000122l0.3987427-0.2302246
		c0.1905518-0.1099854,0.3464355-0.3800049,0.3464355-0.5999756v-1.4567261l1.534729-0.8863525v1.4602661
		c0,0.2199707,0.1558838,0.3099976,0.3464355,0.2000122l0.3986816-0.2302246
		c0.1905518-0.1099854,0.3464355-0.3800049,0.3464355-0.5999756v-1.4604492l0.8555908-0.4941406
		c0.1542969-0.0893555,0.25-0.2543945,0.25-0.4331055V8.6743164C23.7294922,8.6292725,23.7073364,8.5904541,23.6958008,8.5480957z
		 M14.3759766,4.0117188l7.8601685,4.6551514l-5.1957397,2.9744263L9.5351563,15.9375l-2.4771729-1.4972534
		c0.2249146-0.2428589,0.3551025-0.531189,0.3551025-0.8347778c0-0.8349609-0.9145508-1.4892578-2.0820313-1.4892578
		c-0.5415039,0-1.0517578,0.1420898-1.4365234,0.4003906c-0.0029297,0.0019531-0.0043335,0.005249-0.0072021,0.0072632
		l-1.6035156-0.9692383l-0.5274658-0.3187866L14.3759766,4.0117188z"/>
	<path class="st0" d="M7.8823242,11.2758789c0.0512695,0,0.1030273-0.0131836,0.1503906-0.0410156
		c0.2329102-0.1357422,0.5629883-0.3193359,0.9067383-0.5112305c0.244812-0.1364746,0.4952393-0.2762451,0.7249146-0.4063721
		c0.3214111,0.112793,0.6395874,0.2406006,0.9216919,0.4049072c0.2773438,0.1615601,0.4957275,0.3494263,0.6773682,0.5397339
		c-0.227356,0.1384277-0.4641724,0.2814331-0.6994629,0.4231567l-0.621582,0.3754883
		c-0.1416016,0.0864258-0.1865234,0.2709961-0.1005859,0.4121094c0.0566406,0.0932617,0.1552734,0.144043,0.2568359,0.144043
		c0.0527344,0,0.1069336-0.0136719,0.1552734-0.043457l0.6196289-0.3740234
		c0.258606-0.1557007,0.5167847-0.3120728,0.7636719-0.4628906c0.0424805,0.0667725,0.0872192,0.1348877,0.1203003,0.1962891
		c0.1501465,0.2786255,0.501709,0.3720703,0.7741089,0.2108765c0.737854-0.4367065,1.2023926-0.7212524,1.97052-1.1907349
		c0.9317627-0.5695801,0.942627-1.4817505,0.1390381-2.2203369c0.1897583-0.0001831,0.3701782-0.0337524,0.4998779-0.1178589
		c0.2047119-0.1326904,0.2251587-0.3357544,0.1040649-0.5253906l0.5185547-0.3284302
		c0.140625-0.0878906,0.1826172-0.2734375,0.0947266-0.4135742c-0.0878906-0.140625-0.2724609-0.1816406-0.4130859-0.0952148
		l-0.6630859,0.4204102c-0.0216675,0.0137939-0.0240479,0.0404053-0.0408325,0.0583496
		c-0.3310547-0.1154785-0.706604-0.1113281-0.9407349,0.0370483c-0.1361694,0.0863037-0.1907349,0.2069092-0.1841431,0.3336182
		c-1.1489258-0.4727173-2.5452271-0.4279175-3.5402832,0.1702881C9.2269897,8.7822876,8.7055664,9.0950928,7.9585571,9.5292969
		C7.7974854,9.6229248,7.8370361,9.8668823,8.020752,9.8978271c0.2337646,0.0393066,0.5315552,0.1030273,0.8444214,0.1801758
		c-0.072876,0.0406494-0.145813,0.0813599-0.2182007,0.1217041c-0.347168,0.1938477-0.6806641,0.3793945-0.9160156,0.5166016
		c-0.1430664,0.0834961-0.1918945,0.2670898-0.1083984,0.4101563C7.6782227,11.222168,7.7788086,11.2758789,7.8823242,11.2758789z"
		/>
</g>
</svg>
