<?xml version="1.0" encoding="utf-8"?>
<!-- Generator: Adobe Illustrator 22.0.1, SVG Export Plug-In . SVG Version: 6.00 Build 0)  -->
<svg version="1.1" id="Layer_1" xmlns="http://www.w3.org/2000/svg" xmlns:xlink="http://www.w3.org/1999/xlink" x="0px" y="0px"
	 viewBox="0 0 24 24" style="enable-background:new 0 0 24 24;" xml:space="preserve">
<style type="text/css">
	.st0{fill:#4860A2;}
</style>
<g>
	<path class="st0" d="M22.7408447,9.7197266c0.0003662-0.177063-0.093811-0.3415527-0.2467041-0.4311523L12.2949219,3.3081055
		c-0.1547852-0.0917969-0.347168-0.0922852-0.5024414-0.0019531l-10.3046875,5.9375
		C1.3334961,9.3320313,1.2382813,9.4960938,1.2373047,9.6738281c0,0.0010376,0.0007935,0.0018921,0.0007935,0.0029297H1.2373047
		v2.7470703c0,0.460144,0.2398682,0.8875122,0.623291,1.1384888v1.2820435c0,0.2200317,0.1558838,0.4899902,0.3463745,0.5999756
		l0.3987427,0.2302246c0.1904907,0.1099854,0.3464355,0.0200195,0.3464355-0.2000122v-1.2559814l1.534729,0.9100952v1.2286987
		c0,0.2200317,0.1558838,0.4900513,0.3463745,0.6000366l0.3987427,0.2302246
		c0.1905518,0.1099854,0.3464355,0.0199585,0.3464355-0.2000122v-1.2116699l1.534729,0.9100952v1.1843872
		c0,0.2199707,0.1558838,0.4899902,0.3464355,0.5999756l0.3987427,0.2302246
		c0.1904907,0.1099854,0.3463745,0.0200195,0.3463745-0.2000122V17.333313l1.53479,0.9101563v1.1399536
		c0,0.2200317,0.1558838,0.4899902,0.3463745,0.5999756l0.3987427,0.2302246
		c0.1904907,0.1099854,0.3464355,0.0200195,0.3464355-0.2000122v-1.1228638l0.3686523,0.2186279
		c0.2138672,0.1259766,0.4545898,0.1894531,0.6958008,0.1894531c0.2358398,0,0.472168-0.0605469,0.6831055-0.1826172
		l0.4486084-0.2590332v1.1564331c0,0.2200317,0.1558838,0.3099976,0.3464355,0.2000122l0.3987427-0.2302246
		c0.1904907-0.1099854,0.3463745-0.3799438,0.3463745-0.5999756v-1.1564941l1.53479-0.8862305v1.1599121
		c0,0.2200317,0.1558838,0.3099976,0.3463745,0.2000122l0.3987427-0.2302246
		c0.1904907-0.1099854,0.3464355-0.3800049,0.3464355-0.5999756v-1.1599731l1.534729-0.8861694v1.1633301
		c0,0.2199707,0.1558838,0.3099976,0.3463745,0.2000122l0.3987427-0.2302246
		c0.1905518-0.1099854,0.3464355-0.3800049,0.3464355-0.6000366v-1.1633301l1.534729-0.8861694v1.166687
		c0,0.2200317,0.1558838,0.3099976,0.3464355,0.2000122l0.3987427-0.2302246
		c0.1904907-0.1099854,0.3463745-0.3799438,0.3463745-0.5999756v-1.166748l0.05896-0.0340576
		c0.421875-0.2421875,0.6845703-0.6958008,0.6845703-1.1831055V9.7197266H22.7408447z M12.0395508,4.3173828l9.2075195,5.3989258
		l-9.3540039,5.4008789l-9.1650391-5.434082L12.0395508,4.3173828z"/>
	<path class="st0" d="M16.6347656,9.949707c0.0917969-0.0537109,0.1494141-0.1518555,0.1494141-0.2587891
		c0.0009766-0.1064453-0.0556641-0.2055664-0.1474609-0.2592773l-4.612793-2.7167969
		c-0.0932617-0.0551758-0.2089844-0.0551758-0.3022461-0.0014648L7.0981445,9.3842773
		C7.0058594,9.4375,6.9487305,9.5356445,6.9482422,9.6420898C6.9472656,9.7485352,7.0029297,9.847168,7.0942383,9.9018555
		l4.5898438,2.7363281c0.0473633,0.027832,0.1005859,0.0419922,0.1538086,0.0419922
		c0.0517578,0,0.1040039-0.0131836,0.1503906-0.0400391L16.6347656,9.949707z M7.8408203,9.6479492l4.0292969-2.3276367
		L15.8896484,9.6875l-4.0493164,2.3447266L7.8408203,9.6479492z"/>
</g>
</svg>
