<?xml version="1.0" encoding="utf-8"?>
<!-- Generator: Adobe Illustrator 22.0.1, SVG Export Plug-In . SVG Version: 6.00 Build 0)  -->
<svg version="1.1" id="Layer_1" xmlns="http://www.w3.org/2000/svg" xmlns:xlink="http://www.w3.org/1999/xlink" x="0px" y="0px"
	 viewBox="0 0 24 24" style="enable-background:new 0 0 24 24;" xml:space="preserve">
<style type="text/css">
	.st0{fill:#4860A2;}
</style>
<g>
	<path class="st0" d="M22.7408447,9.7197266c0.0003662-0.177063-0.093811-0.3415527-0.2467041-0.4311523L12.2949219,3.3081055
		c-0.1547852-0.0917969-0.347168-0.0922852-0.5024414-0.0019531l-10.3046875,5.9375
		C1.3334961,9.3320313,1.2382813,9.4960938,1.2373047,9.6738281c0,0.0010376,0.0007935,0.0018921,0.0007935,0.0029297H1.2373047
		v2.7470703c0,0.460144,0.2398682,0.8875122,0.623291,1.1384888v1.2820435c0,0.2200317,0.1558838,0.4899902,0.3463745,0.5999756
		l0.3987427,0.2302246c0.1904907,0.1099854,0.3464355,0.0200195,0.3464355-0.2000122v-1.2559814l1.534729,0.9100952v1.2286987
		c0,0.2200317,0.1558838,0.4900513,0.3463745,0.6000366l0.3987427,0.2302246
		c0.1905518,0.1099854,0.3464355,0.0199585,0.3464355-0.2000122v-1.2116699l1.534729,0.9100952v1.1843872
		c0,0.2199707,0.1558838,0.4899902,0.3464355,0.5999756l0.3987427,0.2302246
		c0.1904907,0.1099854,0.3463745,0.0200195,0.3463745-0.2000122V17.333313l1.53479,0.9101563v1.1399536
		c0,0.2200317,0.1558838,0.4899902,0.3463745,0.5999756l0.3987427,0.2302246
		c0.1904907,0.1099854,0.3464355,0.0200195,0.3464355-0.2000122v-1.1228638l0.3686523,0.2186279
		c0.2138672,0.1259766,0.4545898,0.1894531,0.6958008,0.1894531c0.2358398,0,0.472168-0.0605469,0.6831055-0.1826172
		l0.4486084-0.2590332v1.1564331c0,0.2200317,0.1558838,0.3099976,0.3464355,0.2000122l0.3987427-0.2302246
		c0.1904907-0.1099854,0.3463745-0.3799438,0.3463745-0.5999756v-1.1564941l1.53479-0.8862305v1.1599121
		c0,0.2200317,0.1558838,0.3099976,0.3463745,0.2000122l0.3987427-0.2302246
		c0.1904907-0.1099854,0.3464355-0.3800049,0.3464355-0.5999756v-1.1599731l1.534729-0.8861694v1.1633301
		c0,0.2199707,0.1558838,0.3099976,0.3463745,0.2000122l0.3987427-0.2302246
		c0.1905518-0.1099854,0.3464355-0.3800049,0.3464355-0.6000366v-1.1633301l1.534729-0.8861694v1.166687
		c0,0.2200317,0.1558838,0.3099976,0.3464355,0.2000122l0.3987427-0.2302246
		c0.1904907-0.1099854,0.3463745-0.3799438,0.3463745-0.5999756v-1.166748l0.05896-0.0340576
		c0.421875-0.2421875,0.6845703-0.6958008,0.6845703-1.1831055V9.7197266H22.7408447z M12.0395508,4.3173828l9.2075195,5.3989258
		l-9.3540039,5.4008789l-9.1650391-5.434082L12.0395508,4.3173828z"/>
	<polygon class="st0" points="9.8862305,8.0136719 8.9790039,7.4897461 9.6948242,7.0766602 10.6625977,7.6352539 
		11.0766602,7.3959961 9.5805664,6.5327148 6.7563477,8.1635742 7.284668,8.4682617 8.5649414,7.7290039 9.472168,8.2529297 	"/>
	<path class="st0" d="M12.3774414,9.0737305c0.3955078-0.2285156,0.6479492-0.5527344,0.1425781-0.8442383l-1.0771484-0.621582
		L8.6186523,9.2387695l0.5273438,0.3041992l1.1826172-0.6826172l0.3544922,0.2045898
		c0.1992188,0.1191406,0.4619141,0.2236328,0.7597656,0.2431641C11.8012695,9.3320313,12.1362305,9.2128906,12.3774414,9.0737305z
		 M11.0249023,8.7841797l-0.2822266-0.1630859l0.8134766-0.4697266l0.2412109,0.1391602
		c0.2978516,0.171875,0.3759766,0.2739258,0.0517578,0.4609375C11.5063477,8.9492188,11.2553711,8.9169922,11.0249023,8.7841797z"/>
	<path class="st0" d="M12.4052734,11.0507813l0.0078125,0.0043945l-0.3237305,0.1870117l0.3945313,0.2280273l1.5180664-0.8764648
		L13.125,10.0878906l-0.4145508,0.2387695l0.3657227,0.2109375c-0.4155273,0.2524414-0.8334961,0.3803711-1.1342773,0.206543
		c-0.3623047-0.2089844,0-0.4394531,0.2333984-0.5742188l0.7832031-0.4521484
		c0.2192383-0.1259766,0.6782227-0.4306641,1.0932617-0.1914063c0.3417969,0.215332,0.1347656,0.3564453-0.1435547,0.5263672
		l0.5273438,0.3046875c0.109375-0.0678711,0.2294922-0.1328125,0.3164063-0.2138672
		c0.3691406-0.3515625,0.1728516-0.5996094-0.2744141-0.862793c-0.8457031-0.4873047-1.4355469-0.2109375-2.1782227,0.1914063
		l-0.4023438,0.2329102c-0.753418,0.4345703-1.2470703,0.784668-0.3808594,1.284668
		C11.7231445,11.0917969,12.0058594,11.1591797,12.4052734,11.0507813z"/>
	<path class="st0" d="M13.3525391,11.9711914l0.8554688-0.3325195l0.6171875,0.3564453l-0.5761719,0.4936523l0.5644531,0.3261719
		l2.1845703-2.0004883l-0.7128906-0.4111328l-3.4985352,1.2416992L13.3525391,11.9711914z M15.6640625,11.0751953
		c0.1582031-0.0605469,0.296875-0.128418,0.4443359-0.1953125c0.0683594-0.034668,0.140625-0.0673828,0.2070313-0.0981445
		l0.0078125,0.0043945c-0.0527344,0.0390625-0.1083984,0.0805664-0.1689453,0.1201172
		c-0.1171875,0.0839844-0.2333984,0.1650391-0.3388672,0.2558594L15.15625,11.7080078l-0.4521484-0.2607422L15.6640625,11.0751953z"
		/>
</g>
</svg>
