<?xml version="1.0" encoding="utf-8"?>
<!-- Generator: Adobe Illustrator 21.0.0, SVG Export Plug-In . SVG Version: 6.00 Build 0)  -->
<svg version="1.1" id="Layer_1" xmlns="http://www.w3.org/2000/svg" xmlns:xlink="http://www.w3.org/1999/xlink" x="0px" y="0px"
	 viewBox="0 0 24 24" style="enable-background:new 0 0 24 24;" xml:space="preserve">
<style type="text/css">
	.st0{fill:#4860A2;}
</style>
<g>
	<path class="st0" d="M22.6,6.7c-0.6-0.8-2-1.2-3.4-1.1L16.6,6c-0.1-0.1-0.2-0.1-0.3-0.2c-2.3-1.4-6.2-1.4-8.5,0
		C6.8,6.3,6.2,7.1,6,7.8c-1.3,0.6-2.2,1.5-2.6,2.5l-2.2,5.8c-0.2,0.5-0.1,1,0.2,1.4c0.5,0.7,1.6,1,2.7,1c0.2,0,0.5,0,0.7-0.1L8.4,18
		v0.5c0,0.2,0.2,0.4,0.4,0.4s0.4-0.2,0.4-0.4v-0.7l1.8-0.3v2.1c0,0.2,0.2,0.4,0.4,0.4s0.4-0.2,0.4-0.4v-2.2l1.7-0.3v2.4
		c0,0.2,0.2,0.4,0.4,0.4s0.4-0.2,0.4-0.4v-2.6l0.5-0.1c0.5-0.1,0.9-0.2,1.4-0.3v1.8c0,0.2,0.2,0.4,0.4,0.4s0.4-0.2,0.4-0.4v-2.1
		c1.6-0.6,2.9-1.6,3.4-2.7l2.5-5.6C23,7.6,22.9,7.2,22.6,6.7z M8.3,6.6c1-0.6,2.4-0.9,3.8-0.9c1.4,0,2.7,0.3,3.8,0.9
		c0.9,0.5,1.4,1.2,1.4,1.9s-0.5,1.4-1.4,1.9c-2.1,1.2-5.5,1.2-7.6,0C8,10.3,7.7,10.1,7.5,9.9C7,9.2,6.9,8.6,6.8,8.5
		C6.8,7.8,7.4,7.1,8.3,6.6z M22.1,7.8l-2.5,5.6c-0.6,1.4-2.5,2.4-4.9,2.8l-9.9,1.5c-1.2,0.2-2.3-0.2-2.7-0.7
		c-0.2-0.2-0.2-0.4-0.1-0.6l2.2-5.8C4.4,9.9,5,9.3,5.9,8.8v2.8c0,1,0.7,2,1.9,2.7c1.2,0.7,2.7,1,4.2,1s3.1-0.3,4.2-1
		c1.2-0.7,1.9-1.7,1.9-2.7c0-0.1,0-2.5,0-2.9c0,0,0,0,0,0c0-0.1,0-0.1,0-0.2c0-0.6-0.3-1.2-0.7-1.7l1.9-0.2c1.2-0.1,2.3,0.3,2.6,0.7
		C22.1,7.4,22.2,7.6,22.1,7.8z"/>
	<path class="st0" d="M5.3,15.1c-0.4-0.3-1.1-0.3-1.5,0c-0.3,0.2-0.4,0.4-0.4,0.7c0,0.3,0.2,0.5,0.4,0.7c0.2,0.1,0.5,0.2,0.8,0.2
		c0.3,0,0.5-0.1,0.8-0.2c0.3-0.2,0.4-0.4,0.4-0.7C5.8,15.5,5.6,15.2,5.3,15.1z"/>
	<path class="st0" d="M20.4,7.3c-0.4-0.3-1.1-0.2-1.5,0c-0.3,0.2-0.4,0.4-0.4,0.7s0.2,0.5,0.4,0.7c0.2,0.1,0.5,0.2,0.8,0.2
		c0.3,0,0.5-0.1,0.8-0.2c0.3-0.2,0.4-0.4,0.4-0.7S20.7,7.5,20.4,7.3z"/>
</g>
</svg>
