<?xml version="1.0" encoding="utf-8"?>
<!-- Generator: Adobe Illustrator 22.0.1, SVG Export Plug-In . SVG Version: 6.00 Build 0)  -->
<svg version="1.1" id="Layer_1" xmlns="http://www.w3.org/2000/svg" xmlns:xlink="http://www.w3.org/1999/xlink" x="0px" y="0px"
	 viewBox="0 0 24 24" style="enable-background:new 0 0 24 24;" xml:space="preserve">
<style type="text/css">
	.st0{fill:#4860A2;}
</style>
<path class="st0" d="M23.1693821,12.5068359l-0.0056763,0.000061c0.0002441-0.0100708,0.0037231-0.0192871,0.0037231-0.0293579
	c0-0.4086914-0.2119141-0.7753906-0.5644531-0.980957l-3.9919434-2.3237915l0.1950684-0.121521l0.7070313-0.5097656
	c0.2646484-0.2353516,0.3984375-0.5986328,0.3652344-0.9975586c-0.0302734-0.3730469-0.1992188-0.7490234-0.4746094-1.059082
	c-0.5507813-0.6191406-1.3466797-0.7753906-1.9921875-0.3793945l-1.9356689,1.2423096l-4.586792-2.6700439
	c-0.6689453-0.3896484-1.5009766-0.3896484-2.1699219,0L1.6840309,8.7724609
	C1.5302223,8.8618164,1.4354957,9.0263672,1.4354957,9.2041016c0,0.0001831,0.0001221,0.0003052,0.0001221,0.0004883H1.4354957
	v3.302124l-0.0415649,0.0270386c-0.0270996,0.0135498-0.0499878,0.0335083-0.0758057,0.0493164l-0.1140747,0.0741577
	l0.0014038,0.0021973c-0.0116577,0.0093994-0.0258179,0.0151978-0.0370483,0.0251465
	c-0.5292969,0.4697266-0.4804688,1.3925781,0.109375,2.0566406c0.2749023,0.3095703,0.628418,0.5214844,0.9951171,0.5966797
	c0.0942383,0.0185547,0.1875,0.0283203,0.2783203,0.0283203c0.2730713,0,0.5219116-0.0909424,0.71875-0.2515259l0.0029297,0.0044556
	l0.9123538-0.5953369l1.2058105,0.7059937c-0.2631836,0.2354126-0.395874,0.5974731-0.3632813,0.9957886
	c0.0307617,0.3730469,0.1992188,0.7490234,0.4746094,1.0585938c0.2749023,0.3095703,0.628418,0.5214844,0.9951172,0.5966797
	c0.0942383,0.0185547,0.1875,0.0283203,0.2783203,0.0283203c0.2730713,0,0.5219116-0.0909424,0.71875-0.2515259l0.0029297,0.0044556
	l0.9680781-0.6317139l1.2017212,0.7036133l-0.0140381,0.0091553l0.0014648,0.0022583
	c-0.0116577,0.0093994-0.0258179,0.0151367-0.0371094,0.0250854c-0.2646484,0.2353516-0.3979492,0.5986328-0.3652344,0.9980469
	c0.0307617,0.3730469,0.1992188,0.7490234,0.4746094,1.0585938s0.6289063,0.5214844,0.9951172,0.5966797
	c0.097168,0.0195313,0.1923828,0.0292969,0.2851563,0.0292969c0.2711792,0,0.5142212-0.090271,0.7120361-0.2523193
	l0.0028076,0.0042725l1.0192261-0.6712036l2.4299927,1.4231567c0.078125,0.0458984,0.1660156,0.0683594,0.2529297,0.0683594
	c0.0888672,0,0.1787109-0.0234375,0.2578125-0.0712891l6.8154297-4.1015625
	c0.4326172-0.2607422,0.7011719-0.7373047,0.7011719-1.2470703L23.1693821,12.5068359z M11.6469212,18.1220703
	c-0.2047729-0.2305908-0.4587402-0.3831787-0.7236938-0.4893188l0.9111938-0.593689
	c0.1679688-0.0888672,0.7539063-0.3300781,1.2348633,0.2509766c0.21875,0.265625,0.3325195,0.6445313,0.2827148,0.9423828
	c-0.0166016,0.1005859-0.0595703,0.2353516-0.2163086,0.3330078l-1.0151367,0.6623535
	c-0.0007935-0.0160522,0.0023193-0.0309448,0.0009766-0.0471191C12.0907688,18.8076172,11.9223118,18.4316406,11.6469212,18.1220703
	z M7.4223123,15.5791016c-0.2047729-0.2305908-0.4587402-0.3831787-0.7236938-0.4893188l0.9111938-0.593689
	c0.1679688-0.0888672,0.7539058-0.3320313,1.2348628,0.2509766c0.21875,0.265625,0.3325195,0.6445313,0.2832031,0.9423828
	c-0.0170898,0.1005859-0.0600586,0.2353516-0.2182617,0.3330078l-1.0136714,0.6619263
	c-0.0007935-0.0158691,0.0022583-0.0307007,0.0009766-0.0466919C7.8661599,16.2646484,7.6977029,15.8886719,7.4223123,15.5791016z
	 M3.1977026,13.0361328c-0.2049561-0.2311401-0.4591064-0.383667-0.7243042-0.4893799l0.9118042-0.5936279
	c0.1679688-0.0883789,0.7539065-0.3310547,1.2348635,0.2519531c0.21875,0.2651367,0.3325195,0.6430664,0.2827148,0.9404297
	c-0.0166016,0.1015625-0.0595703,0.2363281-0.2177734,0.3339844l-1.0136721,0.6619263
	c-0.0007935-0.0158691,0.0022583-0.0307007,0.0009766-0.0466919C3.6415503,13.7216797,3.4730933,13.3457031,3.1977026,13.0361328z
	 M9.4455051,13.022522l1.7819824-1.0181885l4.1772461,2.5171509l0.1552734-0.2568359l-0.15625,0.3476563l-1.6569214,0.9285889
	L9.4455051,13.022522z M8.848093,12.6727295l-3.1932368-1.8696289l1.1619873-0.6888428
	c0.3964844-0.2348633,0.8876953-0.2338867,1.2812495,0.0043945l2.5408936,1.5310669L8.848093,12.6727295z M22.167429,12.4794922
	c0,0.0356445-0.0107422,0.0849609-0.0664063,0.1176758l-6.6777344,3.925293l-1.0760498-0.6300049l1.3504639-0.7567139
	c0.2041016-0.1162109,0.328125-0.3242188,0.3320313-0.5595703c0.0039063-0.234375-0.1142578-0.4462891-0.3144531-0.5683594
	l-3.8909912-2.3444824l4.5808716-2.6173096l5.6939087,3.3148193C22.1557102,12.3935547,22.167429,12.4433594,22.167429,12.4794922z
	 M17.7309055,6.6137695c0.3925781-0.2402344,0.8613281-0.1386719,1.2236328,0.2695313
	c0.1875,0.2104492,0.3056641,0.4692383,0.3261719,0.7099609c0.0175781,0.2119141-0.0419922,0.3896484-0.1416016,0.4804688
	L18.473093,8.5527344l-0.4483643,0.2787476l-1.9662476-1.1445313L17.7309055,6.6137695z M9.2221165,5.5419922
	c0.359375-0.2089844,0.8046875-0.2089844,1.1640625,0l5.4206543,3.1557007l-4.5709839,2.611084L8.4081516,9.6049805
	C7.8236794,9.2514648,7.0966287,9.25,6.5111794,9.5981445l-1.4477539,0.8586426L2.9271948,9.2060547L9.2221165,5.5419922z
	 M2.3925269,14.7490234c-0.2368164-0.0478516-0.4794921-0.1962891-0.6665038-0.40625
	c-0.3606567-0.406189-0.4335938-0.9544067-0.1633301-1.203125l0.0591431-0.0385132
	c0.0836792-0.0551758,0.1824341-0.0903931,0.2990112-0.0903931c0.0517578,0,0.1059569,0.0058594,0.1621093,0.0166016
	c0.2368164,0.0488281,0.4794922,0.1972656,0.6665039,0.4072266c0.1865234,0.2099609,0.3051758,0.46875,0.324707,0.7099609
	c0.0175781,0.2119141-0.0410156,0.3886719-0.1655273,0.4990234C2.7406714,14.7929688,2.5121558,14.7734375,2.3925269,14.7490234z
	 M6.6171365,17.2919922c-0.2368164-0.0478516-0.4794922-0.1962891-0.6665039-0.40625
	c-0.1865234-0.2099609-0.3051758-0.46875-0.324707-0.7099609c-0.0172729-0.208374,0.0407104-0.3812256,0.1609497-0.4919434
	l0.0489502-0.0318604c0.0991211-0.069519,0.2106934-0.0982666,0.3096313-0.0982666
	c0.0625,0,0.1191406,0.0087891,0.1621094,0.0175781c0.2368164,0.0478516,0.4794922,0.1962891,0.6665039,0.40625
	c0.1865234,0.2099609,0.3051758,0.46875,0.324707,0.7099609c0.0175781,0.2119141-0.0410156,0.3886719-0.1655273,0.4990234
	C6.965281,17.3359375,6.7377419,17.3154297,6.6171365,17.2919922z M10.8417454,19.8349609
	c-0.2363281-0.0478516-0.4794922-0.1962891-0.6665039-0.40625c-0.1865234-0.2099609-0.3051758-0.46875-0.324707-0.7099609
	c-0.0172729-0.208374,0.0407104-0.3812256,0.1609497-0.4919434l0.0489502-0.0318604
	c0.0991211-0.069519,0.2106934-0.0982666,0.3096313-0.0982666c0.0625,0,0.1191406,0.0087891,0.1621094,0.0175781
	c0.2368164,0.0478516,0.4794922,0.1962891,0.6665039,0.40625c0.1865234,0.2099609,0.3051758,0.46875,0.324707,0.7099609
	c0.0175781,0.2119141-0.0410156,0.3886719-0.1655273,0.4990234C11.1903782,19.8789063,10.9618626,19.859375,10.8417454,19.8349609z"
	/>
</svg>
