<?xml version="1.0" encoding="utf-8"?>
<!-- Generator: Adobe Illustrator 22.0.1, SVG Export Plug-In . SVG Version: 6.00 Build 0)  -->
<svg version="1.1" id="Layer_1" xmlns="http://www.w3.org/2000/svg" xmlns:xlink="http://www.w3.org/1999/xlink" x="0px" y="0px"
	 viewBox="0 0 24 24" style="enable-background:new 0 0 24 24;" xml:space="preserve">
<style type="text/css">
	.st0{fill:#4860A2;}
</style>
<path class="st0" d="M22.7459717,7.3066406c-0.0002441-0.1785278-0.0947266-0.343811-0.2498779-0.4331055l-4.09375-2.3642578
	c-0.031311-0.0178833-0.0655518-0.0222778-0.0986328-0.0328369V4.3178711h-0.0084839
	c0-0.0140991,0.0076904-0.0267944,0.0065308-0.0410156c-0.0126953-0.1635742-0.1054688-0.3100586-0.2480469-0.3920898
	l-5.3120117-3.0678711C12.5625,0.7133789,12.3344727,0.7319336,12.1738281,0.8642578L5.7251587,6.1792603
	C5.6945801,6.1890259,5.6629639,6.1918945,5.6337891,6.2080078L1.3422852,8.5727539
	C1.184082,8.659668,1.0854492,8.8251953,1.0834961,9.0058594c0,0.00177,0.0012817,0.0031738,0.0012817,0.0048828H1.0834961
	v5.2216797c0,0.4208984,0.2641602,0.8789063,0.6293945,1.0898438l0.3960571,0.2283325v2.864502
	c0,0.2415161,0.1703491,0.5338135,0.3804932,0.652832l1.2555542,0.7114258
	c0.210144,0.1190796,0.3804932,0.0197754,0.3804932-0.2217407v-2.8445435l2.5148315,1.449707v2.8478394
	c0,0.2415161,0.1704102,0.5336304,0.3807373,0.6524658l1.2449951,0.7034302
	c0.2102661,0.1187744,0.380127,0.0192871,0.3793945-0.222229l-0.0084839-2.8305054L9.800293,19.984375
	c0.1816406,0.1044922,0.4047852,0.15625,0.6279297,0.15625s0.4462891-0.0517578,0.6289063-0.15625l1.7402344-1.0009766
	c1.8379517-1.0576782,4.5192871-2.5998535,6.5982666-3.7963867v0.557312c0,0.2415161,0.1703491,0.5338135,0.3804932,0.6528931
	l1.2555542,0.7113647c0.210144,0.1190796,0.3804932,0.0198364,0.3804932-0.2216797v-2.8610229
	c0.2860718-0.164856,0.5266724-0.3035889,0.7069702-0.4077148c0.3632813-0.2109375,0.6269531-0.6689453,0.6269531-1.0898438
	V7.3066406H22.7459717z M12.5419922,1.8564453l4.3867188,2.5332031L10.6557617,9.543457L6.2802734,7.0170898L12.5419922,1.8564453z
	 M4.90625,7.7507324v0.583252c0,0.1787109,0.0952148,0.34375,0.25,0.4331055l5.2993164,3.059082
	c0.0771484,0.0444336,0.1635742,0.0668945,0.25,0.0668945c0.0854492,0,0.1708984-0.0219727,0.2475586-0.0654297
	c0.0003662-0.0001831,0.0004272-0.0006104,0.0007935-0.0007935c0.0001831-0.0001221,0.0004883-0.000061,0.0006714-0.0001831
	l7.0981445-4.0820313c0.1552734-0.0893555,0.2509766-0.2548828,0.2509766-0.4335938V5.6072388l2.9414063,1.6984253
	l-10.8291016,6.2275391L6.4736328,11.256958v1.154541v1.7281494l-1.9384766-1.119812v-1.7275391v-1.1546021l-1.934082-1.1166992
	L4.90625,7.7507324z"/>
</svg>
