<?xml version="1.0" encoding="utf-8"?>
<!-- Generator: Adobe Illustrator 22.0.1, SVG Export Plug-In . SVG Version: 6.00 Build 0)  -->
<svg version="1.1" id="Layer_1" xmlns="http://www.w3.org/2000/svg" xmlns:xlink="http://www.w3.org/1999/xlink" x="0px" y="0px"
	 viewBox="0 0 24 24" style="enable-background:new 0 0 24 24;" xml:space="preserve">
<style type="text/css">
	.st0{fill:none;stroke:#000000;stroke-linecap:round;stroke-linejoin:round;stroke-miterlimit:10;}
	.st1{fill:#4860A2;}
</style>
<g>
	<g>
		<path class="st0" d="M17.0668488,18.8364525"/>
	</g>
	<g>
		<path class="st0" d="M17.0668488,16.068716"/>
	</g>
	<path class="st1" d="M18.7050018,9.9186592l-0.2171021-0.3877296c-0.0019913-0.0033197-0.0139427-0.0242338-0.0152702-0.0272207
		C14.8735104,3.528744,9.1823721,0.3004242,5.5152001,2.1564176L5.287807,2.2755916
		C5.2849851,2.2770853,5.2832837,2.27999,5.2805037,2.2815254L5.2759805,2.280571L3.8122821,3.1203907l0.0008714,0.0016181
		c-0.0810816,0.0432794-0.141789,0.1170578-0.1672254,0.205235C3.6200352,3.4158773,3.6313219,3.511482,3.6774645,3.5914845
		L5.167305,6.1837673C5.2579303,6.3417807,5.456111,6.4008698,5.6197677,6.315556l0.2078075-0.1088834
		c1.2070098-0.5855789,2.7911277-0.3784356,4.461555,0.5862432c0.159009,0.0917869,0.3164415,0.1957321,0.4738741,0.2991381
		c-0.8455458-0.2366052-1.642086-0.2136583-2.3179169,0.0885921L8.1967802,7.2882013
		c-0.01581,0.0068879-0.0267639,0.0203738-0.0411634,0.0294199L6.6956944,8.1433325l0.0029049,0.007884
		c-0.0752311,0.0413704-0.1356893,0.1056051-0.1629515,0.187973C6.5054393,8.4311428,6.5160623,8.5320587,6.5645285,8.616045
		l1.5001316,2.5866394c0.0856457,0.1473904,0.2682238,0.2104635,0.4235821,0.1434069l0.2184296-0.0896292
		c0.4056568-0.1693001,0.9789534-0.0703754,1.5724993,0.2735357c0.3254461,0.1873922,0.6445436,0.4384375,0.9477482,0.7437582
		c-0.0258093,0.0095024-0.0519934,0.0178843-0.076932,0.0301256l0.0007467-0.0067635l-0.0356026,0.0203743
		c-0.0047722,0.002655-0.0102911,0.0031528-0.0150213,0.0058918c-0.0045223,0.002614-0.0075932,0.0068884-0.0120335,0.0095854
		l-1.4544868,0.8329315c-0.0021162,0.0012035-0.0046053,0.0014105-0.0067215,0.002656
		c-0.0019922,0.0011616-0.0033197,0.0030289-0.00527,0.0041904L9.5910578,13.190259l0.0032778,0.0043154
		c-0.2602577,0.1688852-0.4063196,0.4717989-0.4063196,0.8656292c0,0.3492231,0.1088829,0.7223473,0.3143663,1.0775452
		c0.2058163,0.3565264,0.4743719,0.6373653,0.7764568,0.8113127c0.1995087,0.1155214,0.3980207,0.1732836,0.5835876,0.1732836
		c0.14573,0,0.283494-0.0351887,0.40798-0.1075554c0.0085888-0.0049801,0.0144815-0.0130711,0.0228634-0.0182991
		l1.4068089-0.8088226c0.0141497-0.0071373,0.0297108-0.0100002,0.0435696-0.0180511
		c0.0117016-0.0067635,0.0198345-0.0176353,0.0311213-0.0248966l0.0049801-0.0028629l-0.0005398-0.0007057
		c0.2578917-0.1692581,0.4032907-0.4710112,0.4032907-0.8631811c0-0.2350702-0.0534458-0.4809704-0.1492577-0.7265377
		l1.1623192-0.6709766c0.0055189-0.002821,0.0119095-0.0014935,0.0173454-0.0046883l1.353488-0.781395
		c0.0196686-0.0069294,0.0405817-0.0050621,0.0593376-0.015976l1.4576406-0.8409815
		c0.0050201-0.0025721,0.010664-0.0013275,0.0156021-0.0041904l1.4792175-0.8544674
		C18.7395267,10.2858086,18.7952957,10.0806561,18.7050018,9.9186592z M10.9304781,15.4265547
		c-0.0620766,0.0351877-0.1789265,0.010623-0.3117113-0.0657282c-0.1961889-0.1135302-0.3834143-0.3133707-0.5278177-0.5630054
		c-0.1437387-0.248971-0.2230778-0.5105562-0.2230778-0.7376175c0-0.1540298,0.0368481-0.26756,0.0989246-0.3034124
		c0.0189219-0.010622,0.042491-0.015934,0.0703754-0.015934c0.0637369,0,0.1487188,0.0285492,0.2416677,0.0816631
		c0.1865616,0.1082191,0.3751154,0.310051,0.527154,0.5630054c0.1440706,0.2496347,0.2234097,0.51122,0.2234097,0.7376165
		C11.0294027,15.2771721,10.9925547,15.3907032,10.9304781,15.4265547z M12.7031498,12.957181
		c-0.0892563-0.1198378-0.1970186-0.2427464-0.3239527-0.3554888c-0.5062399-0.7027197-1.1169653-1.289834-1.7604303-1.660593
		c-0.5118837-0.2961092-1.0164642-0.4461555-1.4745703-0.4461555c-0.2260656,0-0.4411755,0.0365162-0.6400204,0.1102114
		L7.3453007,8.6067505c0.8076611-0.3133717,1.8443747-0.1430759,2.9335384,0.4856586
		c1.1910753,0.6874905,2.3353453,1.8500175,3.2236719,3.2734661l0.0597534,0.0956049L12.7031498,12.957181z M15.6330776,11.2892427
		l-0.0817032-0.1297131c-0.3473558-0.5564909-0.7333851-1.075305-1.1457214-1.5470629
		c-1.1240616-1.4465609-2.4252653-2.6281343-3.7765951-3.4084496c-1.1515722-0.6649179-2.2802401-1.002522-3.3103142-1.002522
		c-0.6147919,0-1.1947274,0.1205015-1.7232094,0.3631649L4.444294,3.5612762
		c3.3518095-1.5917525,8.5874968,1.5177252,11.9661942,7.1281967l0.0099602,0.0179253
		c0.0006638,0,0.0006638,0.0006638,0.0006638,0.0006638l0.0537777,0.0956049L15.6330776,11.2892427z"/>
	<path class="st1" d="M21.8896389,13.0980339c-0.0093422-0.0344229-0.0098572-0.0716333-0.0273533-0.1023417
		c-0.0193539-0.0340109-0.0536747-0.0559959-0.081852-0.0836077c-0.0238953-0.0234308-0.039999-0.0535707-0.0695705-0.0710659
		l-0.0030441-0.0018063c-0.000103-0.0000515-0.0001564-0.0002069-0.0002594-0.0002584s-0.000206-0.0000515-0.000309-0.000103
		l-3.9425812-2.3453074L16.71875,10.85672l3.9366455,2.3417463l-4.3933716,2.5150909l-6.3462257,3.6327486L5.8872037,16.911623
		l-2.5488954-1.5404949l6.8164415-3.9023571L9.984375,11.04422l-0.71875-0.03125L2.297704,14.9927263
		c-0.0002065,0.0001545-0.0005162,0.0000515-0.0007226,0.000206c-0.000258,0.0001554-0.0003095,0.0004129-0.0005677,0.0005674
		l-0.0019095,0.0010843c-0.0651314,0.0372105-0.1178763,0.0904198-0.1545708,0.1530228
		c-0.0060382,0.0103216-0.0044384,0.0237398-0.0095994,0.0345783c-0.0260112,0.0544996-0.0477903,0.1118374-0.0484614,0.1740789
		c0,0.0009289,0.0006711,0.0016518,0.0006711,0.0025806c0,0.0008774-0.0006711,0.0014963-0.0006711,0.0023737v1.9809828
		c0,0.1461582,0.0755565,0.2815819,0.1998324,0.3592033l7.4053593,4.6019249
		c0.007844,0.0048523,0.0175991,0.003046,0.0257015,0.007328c0.0589895,0.0320511,0.1235533,0.0542946,0.1937428,0.055275
		c0.0012379,0,0.0022707,0.0009804,0.0035086,0.0009804c0.0003099,0,0.0006199-0.0002575,0.0009813-0.0002575
		c0.0005159,0,0.0009804,0.0002575,0.0014963,0.0002575c0.0042324,0,0.0075865-0.003561,0.0118189-0.003664
		c0.0657501-0.0022202,0.1317587-0.0161533,0.1913166-0.0491848c0.0065031-0.003664,0.0091867-0.0111465,0.0154314-0.0151215
		c0.0061932-0.003767,0.0144501-0.0022182,0.0204887-0.0063477l11.5551834-6.6737413
		c0.1304703-0.0751438,0.2113934-0.2146959,0.2113934-0.3658085v-2.0482826
		C21.9181271,13.1666746,21.8993931,13.1338511,21.8896389,13.0980339z"/>
</g>
</svg>
