<?xml version="1.0" encoding="utf-8"?>
<!-- Generator: Adobe Illustrator 22.0.1, SVG Export Plug-In . SVG Version: 6.00 Build 0)  -->
<svg version="1.1" id="Layer_1" xmlns="http://www.w3.org/2000/svg" xmlns:xlink="http://www.w3.org/1999/xlink" x="0px" y="0px"
	 viewBox="0 0 24 24" style="enable-background:new 0 0 24 24;" xml:space="preserve">
<style type="text/css">
	.st0{fill:none;stroke:#000000;stroke-linecap:round;stroke-linejoin:round;stroke-miterlimit:10;}
	.st1{fill:#4860A2;}
</style>
<g>
	<g>
		<path class="st0" d="M0.7703759,15.7555494"/>
	</g>
	<g>
		<path class="st0" d="M0.7703759,12.5848618"/>
	</g>
</g>
<path class="st1" d="M23.8808594,15.7158203l-1.9450073-1.1611938l1.5436401-0.8915405
	c0.1542969-0.0888672,0.25-0.2539063,0.25-0.4326172V9.8076172c0-0.0450439-0.0221558-0.0838623-0.0336914-0.1262207
	c-0.0110474-0.0407104-0.0116577-0.0847168-0.0323486-0.1210327c-0.0228882-0.0402222-0.0634766-0.0662231-0.0968018-0.098877
	c-0.0282593-0.02771-0.0473022-0.0633545-0.0822754-0.0840454l-0.0036011-0.0021362
	C23.4806519,9.3752441,23.4805908,9.375061,23.4804688,9.375s-0.0003052-0.000061-0.0004272-0.0001221l-8.8452759-5.2381592
	c-0.15625-0.0917969-0.3486328-0.0927734-0.5029297-0.0039063L0.5219727,11.9233398
	c-0.0771484,0.0443115-0.1394653,0.1074219-0.1828613,0.1815796c-0.0057983,0.0098877-0.0041504,0.0228271-0.0092773,0.0331421
	c-0.0328979,0.0662231-0.0584717,0.1370239-0.0593262,0.213501c0,0.0010986,0.0007935,0.0019531,0.0007935,0.0030518
	c0,0.0010376-0.0007935,0.00177-0.0007935,0.0028076v3.3427734c0,0.1728516,0.0893555,0.3330078,0.2358398,0.4248047
	l8.7578125,5.4433594c0.0096436,0.0059204,0.0214844,0.0036621,0.0313721,0.0089111
	c0.0696411,0.0377808,0.145813,0.0639648,0.2286377,0.0651245c0.0014648,0,0.0026855,0.0011597,0.0041504,0.0011597
	c0.0003662,0,0.0007324-0.0003052,0.0011597-0.0003052c0.0006104,0,0.0011597,0.0003052,0.00177,0.0003052
	c0.0050049,0,0.0089722-0.0042114,0.0139771-0.0043335c0.0777588-0.0026245,0.1558228-0.019104,0.2262573-0.0581665
	c0.0076904-0.0043335,0.0108032-0.0131836,0.0181885-0.0178223c0.0073242-0.0044556,0.0171509-0.0026855,0.024292-0.0075684
	l2.3116455-1.335083C12.1086426,20.1702271,12.09375,20.1185913,12.09375,20.0625v-0.8265991
	c0.0280151,0.0276489,0.0521851,0.0584717,0.0874023,0.0795288l3.0004883,1.7910156
	c0.0800781,0.0478516,0.1679688,0.0703125,0.2558594,0.0703125c0.1699219,0,0.3359375-0.0869141,0.4296875-0.2441406
	c0.1416016-0.2363281,0.0634766-0.5439453-0.1738281-0.6855469l-1.7767334-1.0609131l2.3372803-1.3499146
	c-0.0250244-0.0595703-0.0390625-0.124939-0.0390625-0.1936646v-0.7938843
	c0.03302,0.0372314,0.0664673,0.074646,0.1113281,0.1015015l3,1.7919922
	c0.0810547,0.0478516,0.1689453,0.0703125,0.2568359,0.0703125c0.1699219,0,0.3359375-0.0869141,0.4296875-0.2431641
	c0.1416016-0.2373047,0.0634766-0.5449219-0.1728516-0.6865234l-1.8024292-1.0766602l2.161438-1.248291
	c-0.0083618-0.0363159-0.0220947-0.0707397-0.0220947-0.1096191v-0.8936157
	c0.0406494,0.0911255,0.1002808,0.1746216,0.1923828,0.2295532l3,1.7910156
	c0.0800781,0.0478516,0.1679688,0.0703125,0.2558594,0.0703125c0.1699219,0,0.3359375-0.0869141,0.4296875-0.2441406
	C24.1962891,16.1650391,24.1181641,15.8574219,23.8808594,15.7158203z M2.3473008,12.0309048L13.8255739,5.460567
	c0.3402004-0.1947365,0.7588034-0.1916432,1.0960894,0.0080991l1.0923138,0.6468735L3.5083008,13.4279175L2.3391085,12.721302
	C2.077709,12.5633221,2.082226,12.1826382,2.3473008,12.0309048z M11.4536133,15.9599609l-2.1235352-1.2421875l0.5908203-0.3574219
	l2.1298828,1.2460938L11.4536133,15.9599609z M12.6938477,18.4560547c-0.2003784-0.1196289-0.4425049-0.0765991-0.6000977,0.0787964
	V17.03125c0-0.2763672,0.2236328-0.5,0.5-0.5s0.5,0.2236328,0.5,0.5v1.6635742L12.6938477,18.4560547z M15.3572388,13.737793
	l-2.0270386-1.1869507l0.5908203-0.3565674l2.0436401,1.1958618L15.3572388,13.737793z M16.8398438,16.0908203
	c-0.2108154-0.1244507-0.46875-0.0712891-0.625,0.1051636v-1.5846558c0-0.2763672,0.2236328-0.5,0.5-0.5s0.5,0.2236328,0.5,0.5
	v1.7034912L16.8398438,16.0908203z M17.3261719,12.6107788c-0.0140381-0.010437-0.020874-0.0275269-0.0361328-0.0365601
	l-3.1191406-1.8383789c-0.0018311-0.0010986-0.0040894-0.0006104-0.0059204-0.0016479
	c-0.0020142-0.0011597-0.0028076-0.00354-0.0048218-0.0046997c-0.0327148-0.0181885-0.0700684-0.015564-0.1051636-0.0258179
	c-0.0480957-0.0142822-0.0939941-0.0358887-0.1435547-0.0352173c-0.0378418,0.0004272-0.0717163,0.0197144-0.1086426,0.0286255
	c-0.045166,0.0109863-0.0924683,0.0116577-0.1338501,0.0353394c-0.0028076,0.0015869-0.0039063,0.0049438-0.0066528,0.0065918
	s-0.0062256,0.0009766-0.0089722,0.0026855l-1.5654297,0.9726563c-0.1464844,0.0913086-0.2358398,0.2519531-0.2358398,0.4248047
	v0.418457c0,0.0006104,0.0004272,0.0010376,0.0004272,0.0016479s-0.0004272,0.0011597-0.0004272,0.00177
	c0.0007324,0.088501,0.0249634,0.1734009,0.0679321,0.2474365c0.0098877,0.0170898,0.0297852,0.026062,0.041626,0.0418701
	c0.0392456,0.0523071,0.0797119,0.1047363,0.1380005,0.138916l2.256958,1.3213501l-0.9525757,0.5452271
	c-0.0353394-0.0413208-0.0657959-0.0871582-0.1139526-0.1156006l-3.1191406-1.8378906
	c-0.0022583-0.0013428-0.0050049-0.0007324-0.0072632-0.0020142c-0.0018311-0.0010376-0.0025635-0.0032959-0.0044556-0.0043335
	c-0.0300293-0.0166626-0.0648193-0.0137329-0.0970459-0.0237427c-0.0499268-0.015564-0.0977783-0.0373535-0.1498413-0.0366821
	c-0.0397339,0.0003662-0.0757446,0.0201416-0.114624,0.0298462c-0.043335,0.0109253-0.0887451,0.0109863-0.1287231,0.0335083
	c-0.0026855,0.0015259-0.0036621,0.0046387-0.0062866,0.0062256c-0.0031738,0.0018311-0.0071411,0.0010986-0.0103149,0.0030518
	l-1.5644531,0.9726563c-0.1464844,0.0917969-0.2358398,0.2519531-0.2358398,0.4248047v0.4189453
	c0,0.0006714,0.0004883,0.0012207,0.0004883,0.0018921c0,0.0007324-0.0004883,0.0012817-0.0004883,0.0020142
	c0.0007324,0.0882568,0.0249634,0.1731567,0.0679321,0.2471924c0.0093994,0.0161743,0.0282593,0.0245972,0.0394287,0.0396118
	c0.0395508,0.0533447,0.0809937,0.1063843,0.1401978,0.1409302l2.3636475,1.3828125l-0.9281006,0.53125L4.770813,14.190979
	l-0.6784058-0.4100342l12.5117798-7.315918l5.631958,3.335144l-1.0453491,0.5983887l-2.9984131-1.7667236
	c-0.0022583-0.0013428-0.0050659-0.0007324-0.0073242-0.0020142c-0.0018311-0.0010376-0.0025635-0.0032959-0.0043945-0.0043335
	c-0.027832-0.0152588-0.0598145-0.012085-0.0894165-0.0217285c-0.0526733-0.017395-0.1035156-0.0394287-0.1585693-0.0386353
	c-0.0386963,0.0003052-0.0733643,0.0195923-0.111084,0.0288086c-0.0441895,0.0108643-0.090332,0.0110474-0.1311646,0.0339966
	c-0.0029297,0.0016479-0.0040894,0.005188-0.006958,0.006897c-0.0029907,0.00177-0.0067139,0.0010376-0.0096436,0.0028687
	L16.109375,9.6103516c-0.1474609,0.0913086-0.2363281,0.2519531-0.2363281,0.4248047v0.418457
	c0,0.0006104,0.0004272,0.0010376,0.0004272,0.0016479s-0.0004272,0.0011597-0.0004272,0.00177
	c0.0004883,0.088562,0.0249023,0.1734619,0.0680542,0.2476196c0.0098267,0.0169678,0.0294189,0.0258179,0.0411377,0.0415039
	c0.0393066,0.0523682,0.079895,0.1048584,0.1378784,0.1390991l2.086792,1.2213745L17.3261719,12.6107788z M19.2080688,11.5335083
	l-1.8574219-1.086731l0.5906982-0.3571167l1.8740234,1.0962524L19.2080688,11.5335083z M20.1953125,14.0986328
	c-0.0099487,0.0166016-0.0107422,0.0353394-0.0185547,0.0526123v-1.7347412c0-0.2763672,0.2236328-0.5,0.5-0.5
	s0.5,0.2236328,0.5,0.5v1.6849365l-0.2958984-0.1766357C20.6445313,13.7841797,20.3369141,13.8603516,20.1953125,14.0986328z"/>
</svg>
