<?xml version="1.0" encoding="utf-8"?>
<!-- Generator: Adobe Illustrator 22.0.1, SVG Export Plug-In . SVG Version: 6.00 Build 0)  -->
<svg version="1.1" id="Layer_1" xmlns="http://www.w3.org/2000/svg" xmlns:xlink="http://www.w3.org/1999/xlink" x="0px" y="0px"
	 viewBox="0 0 24 24" style="enable-background:new 0 0 24 24;" xml:space="preserve">
<style type="text/css">
	.st0{fill:#4860A2;}
</style>
<path class="st0" d="M20.4416504,14.6820068l-3.0094604-4.392395l0.6244507-1.3013306
	c0.0096436-0.0201416,0.0089722-0.041687,0.0157471-0.0623779c0.0089722-0.0275879,0.0167236-0.0539551,0.020813-0.0826416
	c0.0054932-0.0380249,0.0056763-0.0742188,0.0024414-0.1118164c-0.0020752-0.0252686-0.0048828-0.0493164-0.0109253-0.0742188
	c-0.0097656-0.0407715-0.0253296-0.0776978-0.0449219-0.1148682c-0.0067139-0.0127563-0.0073853-0.0270386-0.0153809-0.0394287
	L13.6367188,1.684082c-0.0025635-0.0040283-0.0068359-0.0059204-0.0095215-0.0098267
	c-0.00177-0.0026245-0.0013428-0.0061035-0.0031738-0.008728c-0.0065308-0.0091553-0.0181274-0.0119019-0.0252075-0.0205688
	c-0.0444336-0.0548706-0.0967407-0.0970459-0.1565552-0.1278076C13.4231567,1.5072632,13.4053955,1.5,13.3851929,1.4926147
	c-0.0631714-0.0230103-0.1280518-0.0333252-0.1956177-0.0297241c-0.0111694,0.0005493-0.0211792-0.0061646-0.0323486-0.0048828
	l-2.02771,0.237793l-0.7335205-0.8891602c-0.0874023-0.1054688-0.2143555-0.1708984-0.3510742-0.1806641L8.847168,0.5424805
	C8.8363647,0.5421143,8.8266602,0.5469971,8.815979,0.5473022C8.8036499,0.5471802,8.7927856,0.541687,8.7802734,0.5424805
	l-1.4584961,0.09375C7.1420898,0.6479492,6.9824219,0.7548828,6.9042969,0.9169922L3.4853516,7.9692383
	C3.4833984,7.9732056,3.4840088,7.9775391,3.4821777,7.9815674c-0.013855,0.0303955-0.0176392,0.0645752-0.0252686,0.0978394
	C3.449646,8.1117554,3.4384766,8.1430664,3.4376831,8.1755371C3.437561,8.1801147,3.4350586,8.1838989,3.4350586,8.1884766
	L3.4375,9.8544922c0,0.1142578,0.0390625,0.2246094,0.1108398,0.3134766l5.8701172,8.3037109
	c0.0099487,0.0147095,0.0265503,0.0202637,0.0377197,0.0335083c0.0308838,0.0368652,0.0656738,0.0673828,0.1056519,0.0939331
	c0.0224609,0.0148315,0.0421143,0.0309448,0.0664063,0.0418701c0.055603,0.0254517,0.1156616,0.0401001,0.1793823,0.0435181
	c0.0084229,0.0004272,0.0159302,0.0059204,0.0244141,0.0059204c0.0011597,0,0.0021362-0.0010376,0.0032959-0.0010376
	c0.012085,0,0.0241699,0,0.0367432-0.0009155l1.2565308-0.0959473l3.0745239,4.4777832
	c0.1386108,0.2009888,0.3370972,0.2241821,0.5807495,0.2081909l0.2197876-0.0144043
	c0.2435913-0.0159912,0.3292847-0.1922607,0.1913452-0.3936768l-2.9868774-4.3603516l1.039917-0.0794067
	c0.0776367-0.0059814,0.1481323-0.0367432,0.2130737-0.0752563c0.0088501-0.005249,0.0195313-0.0028687,0.0281372-0.008728
	c0.0007935-0.0005493,0.0010986-0.0013428,0.0018921-0.0018921c0.0018921-0.0013428,0.0028687-0.0036621,0.0048218-0.0050049
	c0.0639038-0.0452881,0.1102295-0.1039429,0.1454468-0.1685181c0.0050659-0.0089722,0.0151367-0.0134888,0.0197144-0.0228271
	l1.2384644-2.5808716l0.6238403,0.8855591c0.1386108,0.2009888,0.3323364,0.2172852,0.5759888,0.2012939l0.2197876-0.0144043
	c0.2435913-0.0159912,0.3292847-0.1922607,0.1913452-0.3937378l-1.1427612-1.65448l1.5942993-3.3225098L19.4375,14.90625
	c0.1386108,0.2009888,0.3494263,0.1998291,0.5930786,0.1838379l0.2197266-0.0144043
	C20.4939575,15.0596924,20.5796509,14.8834229,20.4416504,14.6820068z M11.916687,9.2288818
	c-0.277832-0.5870361-0.1327515-1.2382202,0.3240356-1.4544067c0.4568481-0.2161865,1.0523682,0.0844727,1.3302002,0.6715088
	s0.1327515,1.2381592-0.3240356,1.4543457C12.7900391,10.1165771,12.194519,9.815918,11.916687,9.2288818z M8.34375,10.7954102
	l-1.232605,0.0940552l4.0046387-8.1852417l1.2489624-0.1466064L8.34375,10.7954102z M10.2489014,2.2001953l-3.9544067,8.0826416
	L5.7114258,9.5844727L5.637207,8.2485352l3.2617188-6.699585l0.8623047,0.0599365L10.2489014,2.2001953z M7.6767578,1.6157227
	l0.5396118-0.034729L5.0639648,8.0561523C5.0582886,8.0678101,5.0605469,8.0814819,5.0563965,8.09375L4.5328369,8.1003418
	L7.6767578,1.6157227z"/>
</svg>
