<?xml version="1.0" encoding="UTF-8"?>
<svg width="30px" height="30px" viewBox="0 0 30 30" version="1.1" xmlns="http://www.w3.org/2000/svg" xmlns:xlink="http://www.w3.org/1999/xlink">
    <title>edit-history</title>
    <g id="edit-history" stroke="none" stroke-width="1" fill="none" fill-rule="evenodd">
        <path d="M15,1 C22.7191408,1 29,7.280176 29,15 C29,22.7191408 22.7191408,29 15,29 C7.280176,29 1,22.7191408 1,15 L1,15 L3.8,15 C3.8,21.1755862 8.8244138,26.2 15,26.2 C21.1755862,26.2 26.2,21.1755862 26.2,15 C26.2,8.8244138 21.1755862,3.8 15,3.8 C12.3319332,3.8 9.7576048,4.7691654 7.7427122,6.4826786 L7.7427122,6.4826786 L9.9600336,8.7 L3.6600336,8.7 L3.6600336,2.4 L5.7524288,4.4923952 C8.2946286,2.2589234 11.5893802,1 15,1 Z M9.083915,16.6797074 C9.1004798,16.6093826 9.187809,16.5845508 9.2388978,16.6356382 L9.2388978,16.6356382 L12.7592062,20.1558654 C12.810295,20.2069542 12.7854646,20.2942848 12.7151384,20.3108496 L12.7151384,20.3108496 L8.4459756,21.3164234 C8.2249212,21.3684908 8.0262892,21.1698588 8.0783566,20.9488044 L8.0783566,20.9488044 Z M17.5917598,8.048706 C18.3702438,7.270222 19.6324166,7.270222 20.4109006,8.048706 L20.4109006,8.048706 L21.3461426,8.983948 C22.1246042,9.7624082 22.1246042,11.0245432 21.3461426,11.8030034 L21.3461426,11.8030034 L13.9057544,19.243393 C13.8697366,19.2794094 13.8113426,19.279408 13.7753262,19.2433916 L13.7753262,19.2433916 L10.1514542,15.6194384 C10.1154392,15.5834206 10.1154392,15.5250266 10.1514556,15.4890116 L10.1514556,15.4890116 Z" id="Combined-Shape" fill="#000000" fill-rule="nonzero"></path>
    </g>
</svg>