<svg xmlns="http://www.w3.org/2000/svg" width="36" height="36" viewBox="0 0 36 36">
  <path fill="#000000" d="M28.5470852,5 L7.59641256,5 C7.02242152,5 6.44843049,5.43103448 6.44843049,6.00574713 L6.44843049,28.9942529 C6.44843049,29.5689655 6.87892377,30 7.4529148,30 L28.5470852,30 C29.1210762,30 29.5515695,29.5689655 29.5515695,28.9942529 L29.5515695,6.00574713 C29.6950673,5.43103448 29.1210762,5 28.5470852,5 Z M23.8116592,25.8333333 C22.6636771,25.8333333 21.6591928,24.8275862 21.6591928,23.6781609 C21.6591928,22.5287356 22.6636771,21.5229885 23.8116592,21.5229885 C24.9596413,21.5229885 25.9641256,22.5287356 25.9641256,23.6781609 C25.8206278,24.9712644 24.9596413,25.8333333 23.8116592,25.8333333 Z M2,22.3850575 L4.86995516,22.3850575 L4.86995516,25.2586207 L2,25.2586207 L2,22.3850575 Z M2,16.0632184 L4.86995516,16.0632184 L4.86995516,18.9367816 L2,18.9367816 L2,16.0632184 Z M2,9.74137931 L4.86995516,9.74137931 L4.86995516,12.6149425 L2,12.6149425 L2,9.74137931 Z M31.1300448,22.3850575 L34,22.3850575 L34,25.2586207 L31.1300448,25.2586207 L31.1300448,22.3850575 Z M31.1300448,16.0632184 L34,16.0632184 L34,18.9367816 L31.1300448,18.9367816 L31.1300448,16.0632184 Z M31.1300448,9.74137931 L34,9.74137931 L34,12.6149425 L31.1300448,12.6149425 L31.1300448,9.74137931 Z"/>
</svg>
