<svg xmlns="http://www.w3.org/2000/svg" xmlns:xlink="http://www.w3.org/1999/xlink" width="36" height="36" viewBox="0 0 36 36">
  <defs>
    <path id="a" d="M22.3198758,3.80728903 C23.7666404,2.5927068 25.5295931,2 27.2808784,2 C29.4848609,2 31.6725091,2.93689677 33.1939454,4.75235302 C35.9322975,8.01574064 35.512269,12.8764031 32.2360472,15.6252559 L29.6762072,17.7732346 C27.3007131,19.767203 24.0746613,20.0845578 21.4401496,18.8559746 L29.2701797,12.2836963 C30.6551068,11.1227843 30.8254517,9.08097943 29.6738737,7.70655304 C28.5222958,6.33562688 26.4711569,6.15478131 25.0955638,7.30869277 L17.2620334,13.8809711 C16.5048154,11.0749478 17.3763744,7.95623661 19.7612026,5.9552678 L22.3198758,3.80728903 Z M21.4588175,11.950007 C21.8380099,11.6314854 22.3000411,11.4751415 22.7597389,11.4751415 C23.337278,11.4751415 23.9101502,11.7213249 24.3138442,12.2031908 C25.034893,13.0619156 24.9275524,14.3383354 24.0664941,15.060551 L14.3090001,23.2476053 C13.451442,23.9674873 12.1785225,23.8601467 11.4539735,22.9944215 C10.7317579,22.1356967 10.8390985,20.8604436 11.7001568,20.1382281 L21.4588175,11.950007 Z M6.32379278,17.2295311 C7.7705574,16.0161157 9.5335101,15.4234089 11.2859621,15.4234089 C12.4107049,15.4234089 13.5307807,15.6672587 14.5610172,16.1467912 L6.72982027,22.7179027 C5.34489316,23.8799814 5.1745483,25.9229531 6.32729301,27.2962127 C7.47770424,28.6671389 9.53000986,28.8479845 10.905603,27.694073 L18.7391334,21.1217947 C19.4951846,23.9289847 18.6247923,27.0465292 16.2399642,29.047498 L13.6801242,31.1954767 C10.4120696,33.937329 5.53857294,33.5079666 2.8060546,30.2504127 C0.0677025295,26.9870251 0.487730968,22.1263627 3.76395279,19.3775099 L6.32379278,17.2295311 Z"/>
  </defs>
  <g fill="none" fill-rule="evenodd">
    <use fill="#20282D" xlink:href="#a"/>
  </g>
</svg>
