<svg xmlns="http://www.w3.org/2000/svg" width="36" height="36" viewBox="0 0 36 36">
  <path fill="#000000" d="M24.8333333,13.8941176 C24.8333333,11.5882353 23.6666667,9.61176471 22,8.12941176 C22.5,6.31764706 24.3333333,5 26.3333333,5 C29,5 31,7.14117647 31,9.61176471 C31,12.2470588 28.8333333,14.2235294 26.3333333,14.2235294 C25.8333333,14.2235294 25.3333333,14.0588235 24.8333333,13.8941176 Z M7.66666667,24.7647059 C10.1666667,22.9529412 13.5,21.8 17.5,21.6352941 C21.5,21.6352941 25,22.9529412 27.3333333,24.7647059 L27.3333333,30.8588235 C27.3333333,31.3529412 27,31.6823529 26.5,31.6823529 L8.5,31.6823529 C8,31.6823529 7.66666667,31.3529412 7.66666667,30.8588235 L7.66666667,24.7647059 Z M9.16666667,14.2235294 C6.5,14.2235294 4.5,12.2470588 4.5,9.77647059 C4.5,7.14117647 6.66666667,5.16470588 9.16666667,5.16470588 C11,5.16470588 12.6666667,6.31764706 13.3333333,7.96470588 C11.5,9.28235294 10.1666667,11.4235294 10.1666667,13.8941176 C10.1666667,14.0588235 10.1666667,14.0588235 10.1666667,14.0588235 C9.83333333,14.2235294 9.5,14.2235294 9.16666667,14.2235294 Z M17.5,19.6588235 C14.3703864,19.6588235 11.8333333,17.1516181 11.8333333,14.0588235 C11.8333333,10.9660289 14.3703864,8.45882353 17.5,8.45882353 C20.6296136,8.45882353 23.1666667,10.9660289 23.1666667,14.0588235 C23.1666667,17.1516181 20.6296136,19.6588235 17.5,19.6588235 Z M26.3333333,16.0352941 C29.5,16.0352941 32.3333333,17.0235294 34.3333333,18.5058824 L34.3333333,25.4235294 C34.3333333,25.7529412 34,26.0823529 33.6666667,26.0823529 L29,26.0823529 L29,24.9294118 L29,24.1058824 L28.3333333,23.6117647 C26.3333333,21.9647059 23.6666667,20.9764706 20.8333333,20.4823529 C22.6666667,19.6588235 23.8333333,18.0117647 24.5,16.2 C25.1666667,16.0352941 25.6666667,16.0352941 26.3333333,16.0352941 Z M10.5,16.0352941 C11,18.0117647 12.3333333,19.4941176 14.1666667,20.4823529 C11.3333333,20.9764706 8.66666667,21.9647059 6.66666667,23.6117647 L6,24.1058824 L6,24.9294118 L6,26.0823529 L1.83333333,26.0823529 C1.5,26.0823529 1.16666667,25.7529412 1.16666667,25.4235294 L1.16666667,18.5058824 C3,17.0235294 5.83333333,16.0352941 9,16.0352941 C9.5,16.0352941 10,16.0352941 10.5,16.0352941 Z"/>
</svg>
