<svg xmlns="http://www.w3.org/2000/svg" width="36" height="36" viewBox="0 0 36 36">
  <path fill="#000000" d="M31.2043522,18 C31.2043522,19.7789156 32.3863948,21.2667093 34,21.7670293 C33.5889184,23.5196123 32.8969553,25.1610131 31.9738502,26.6488068 C30.4787419,25.8617537 28.5944957,26.0797294 27.3363811,27.3363811 C26.0797294,28.5930328 25.8617537,30.4787419 26.6488068,31.9738502 C25.1610131,32.8969553 23.5210752,33.5889184 21.7670293,34 C21.2667093,32.3849319 19.7789156,31.2043522 18,31.2043522 C16.2210844,31.2043522 14.7332907,32.3849319 14.2329707,34 C12.4803877,33.5889184 10.8389869,32.8969553 9.3511932,31.9738502 C10.1382463,30.4787419 9.92027064,28.5944957 8.66361891,27.3363811 C7.40696718,26.0797294 5.52125811,25.8617537 4.02614977,26.6488068 C3.10304471,25.1610131 2.41108165,23.5210752 2,21.7670293 C3.61506812,21.2667093 4.7956478,19.7789156 4.7956478,18 C4.7956478,16.2210844 3.61360519,14.7332907 2,14.2329707 C2.41108165,12.4803877 3.10304471,10.8389869 4.02614977,9.3511932 C5.52125811,10.1382463 7.40550425,9.92027064 8.66361891,8.66361891 C9.92027064,7.40696718 10.1382463,5.52125811 9.3511932,4.02614977 C10.8389869,3.10304471 12.4789248,2.41108165 14.2329707,2 C14.7332907,3.61360519 16.2210844,4.7956478 18,4.7956478 C19.7789156,4.7956478 21.2667093,3.61360519 21.7670293,2 C23.5196123,2.41108165 25.1610131,3.10304471 26.6488068,4.02614977 C25.8617537,5.52125811 26.0797294,7.40550425 27.3363811,8.66361891 C28.5930328,9.92027064 30.4787419,10.1382463 31.9738502,9.3511932 C32.8969553,10.8389869 33.5889184,12.4789248 34,14.2329707 C32.3849319,14.7332907 31.2043522,16.2210844 31.2043522,18 Z M18,26.5156807 C22.7033007,26.5156807 26.5156807,22.7033007 26.5156807,18 C26.5156807,13.2966993 22.7033007,9.48431928 18,9.48431928 C13.2966993,9.48431928 9.48431928,13.2966993 9.48431928,18 C9.48431928,22.7033007 13.2966993,26.5156807 18,26.5156807 Z M16.537076,16.787236 L19.462924,16.787236 L19.462924,23.6688306 L16.537076,23.6688306 L16.537076,16.787236 Z M17.9502606,15.3023681 C17.1295602,15.3023681 16.4653927,14.6367377 16.4653927,13.8175002 C16.4653927,12.9982628 17.1295602,12.3326323 17.9502606,12.3326323 C18.769498,12.3326323 19.4351285,12.9982628 19.4351285,13.8175002 C19.4351285,14.6367377 18.770961,15.3023681 17.9502606,15.3023681 Z"/>
</svg>
