<?xml version="1.0" encoding="UTF-8" standalone="no"?>
<svg width="66px" height="56px" viewBox="0 0 66 56" version="1.1" xmlns="http://www.w3.org/2000/svg" xmlns:xlink="http://www.w3.org/1999/xlink" xmlns:sketch="http://www.bohemiancoding.com/sketch/ns">
    <!-- Generator: Sketch 3.2.2 (9983) - http://www.bohemiancoding.com/sketch -->
    <title>edit</title>
    <desc>Created with Sketch.</desc>
    <defs></defs>
    <g id="Icons" stroke="none" stroke-width="1" fill="none" fill-rule="evenodd" sketch:type="MSPage">
        <path d="M56.0421148,23.9510242 L56.0421148,51.9967002 C56.0421148,54.1997326 54.2477078,56 52.0341946,56 L4.0079202,56 C1.78543751,56 0,54.2076616 0,51.9967002 L0,4.95472691 C0,2.75169449 1.79440699,0.951427115 4.0079202,0.951427115 L52.0341946,0.951427115 C52.1484752,0.951427115 52.2616003,0.956166136 52.3733865,0.965457412 L46.4893554,6.8494885 L8.01828893,6.8494885 C6.90915153,6.8494885 6.01001802,7.75287739 6.01001802,8.84889819 L6.01001802,48.1025289 C6.01001802,49.2067724 6.91037393,50.1019386 8.01828893,50.1019386 L48.0752126,50.1019386 C49.18435,50.1019386 50.0834835,49.1985497 50.0834835,48.1025289 L50.0834835,29.9096554 L56.0421148,23.9510242 L56.0421148,23.9510242 Z M25.8210689,33.890454 L21.4089015,45.291389 L32.7590213,40.8284065 L25.8210689,33.890454 Z M51.0725012,9.04129306 L27.3528476,32.7609467 L34.2908,39.6988991 L58.0104536,15.9792455 L51.0725012,9.04129306 Z M60.0713433,1.83817043 C59.6828504,1.44967755 59.0501336,1.45252292 58.6554612,1.84719531 L52.5908708,7.91178574 L59.5288232,14.8497382 L65.5934137,8.78514775 C65.9868909,8.39167056 65.9897294,7.75655648 65.6024386,7.36926569 L60.0713433,1.83817043 Z" id="edit" fill="#000000" sketch:type="MSShapeGroup"></path>
    </g>
</svg>