<?xml version="1.0" encoding="UTF-8" standalone="no"?>
<svg width="70px" height="67px" viewBox="0 0 70 67" version="1.1" xmlns="http://www.w3.org/2000/svg" xmlns:xlink="http://www.w3.org/1999/xlink" xmlns:sketch="http://www.bohemiancoding.com/sketch/ns">
    <!-- Generator: Sketch 3.2.2 (9983) - http://www.bohemiancoding.com/sketch -->
    <title>hadlogo</title>
    <desc>Created with Sketch.</desc>
    <defs></defs>
    <g id="Icons" stroke="none" stroke-width="1" fill="none" fill-rule="evenodd" sketch:type="MSPage">
        <path d="M34.9879269,15.1085887 C25.7882028,15.1085887 18.3270093,23.7782823 18.3270093,34.5013243 C18.3270093,41.1176693 21.1762677,46.9735149 25.5467403,50.4718123 C25.2569852,50.978812 25.0879614,51.5872115 25.0879614,52.220961 C25.0879614,54.0968596 26.5125905,55.6432085 28.2752673,55.6432085 C30.0379441,55.6432085 31.4625733,54.1222096 31.4625733,52.220961 C31.4625733,52.0942111 31.4625733,51.9674612 31.438427,51.8153613 L31.8730597,51.8153613 C31.8489134,51.9928112 31.8247672,52.1449111 31.8247672,52.322361 C31.8247672,54.1475596 33.2252501,55.6178585 34.9637806,55.6178585 C36.7023111,55.6178585 38.1027941,54.1475596 38.1027941,52.322361 C38.1027941,52.1449111 38.0786478,51.9674612 38.0545016,51.8153613 L38.6098655,51.8153613 C38.5857192,51.9928112 38.561573,52.1449111 38.561573,52.322361 C38.561573,54.1475596 39.9620559,55.6178585 41.7005864,55.6178585 C43.4391169,55.6178585 44.8395999,54.1475596 44.8395999,52.322361 C44.8395999,51.6632614 44.6464298,51.0295119 44.3083822,50.4971623 C48.7512935,47.0242149 51.6488444,41.1430193 51.6488444,34.5013243 C51.6488444,23.7782823 44.1876509,15.1085887 34.9879269,15.1085887 L34.9879269,15.1085887 Z M27.8164884,29.5834279 C28.7581925,29.5834279 29.6998965,29.8876277 30.496723,30.3946273 C31.1728182,30.9269769 31.7281821,31.6367764 32.1386685,32.4226258 C32.5008624,33.3859251 31.993791,34.5013243 31.245257,35.1097238 C30.6898931,35.5153235 30.1345291,35.9716232 29.4584339,36.174423 C28.6374612,36.4532728 27.864781,36.8588725 27.0921007,37.2644722 C26.7057606,37.492622 26.4401518,37.8221718 26.3435667,38.2531215 C26.0779579,38.7094211 26.3194205,39.3178207 26.0296654,39.7234204 C25.5950328,40.0529701 25.0879614,39.6473704 24.7499138,39.3685206 C24.0013798,38.7854711 23.3252846,37.9742717 23.1321145,37.0109724 C22.987237,36.174423 22.8182132,35.3378736 22.9147982,34.4759743 C22.9147982,33.436625 23.3977234,32.4986757 24.0013798,31.7128263 C24.677475,30.7241771 25.6916178,29.8876277 26.8747844,29.7355278 C27.212832,29.6087779 27.5267334,29.5834279 27.8164884,29.5834279 L27.8164884,29.5834279 Z M42.1593653,29.5834279 C42.4732666,29.5834279 42.787168,29.6087779 43.0769231,29.6848278 C44.2600897,29.8369277 45.2500862,30.6734771 45.9503277,31.6621264 C46.5539841,32.4479758 47.0369093,33.4112751 47.0369093,34.4252743 C47.1334943,35.2871737 46.9644705,36.123723 46.819593,36.9602724 C46.6264229,37.9489217 45.974474,38.7601211 45.2017937,39.3178207 C44.8637461,39.5966705 44.3566747,40.0022701 43.9220421,39.6727204 C43.632287,39.2671207 43.8737496,38.6587212 43.6081407,38.2024215 C43.5115557,37.7461218 43.2218006,37.4165721 42.8596068,37.2137722 C42.0869265,36.8081725 41.3142463,36.4025728 40.4932735,36.123723 C39.8171783,35.9209232 39.2859607,35.4646235 38.7064505,35.0590238 C37.9579165,34.4506243 37.4749914,33.3605751 37.813039,32.3719258 C38.2235254,31.5860764 38.754743,30.876277 39.4549845,30.3439274 C40.2759572,29.8876277 41.2176613,29.5580779 42.1593653,29.5834279 L42.1593653,29.5834279 Z M35.0362194,39.5206205 C35.9296309,39.5459705 36.7988962,43.4245176 36.5815799,44.9708664 C35.8330459,47.2777147 35.9779234,43.4752176 35.0362194,43.4245176 C34.0462228,43.4245176 33.877199,47.1763148 33.3701276,44.9708664 C33.2011038,43.2977677 34.2393929,39.4952705 35.0362194,39.5206205 Z M18.206278,42.3851684 L11.4694722,48.6466137 C10.6484995,48.3931139 9.80338048,48.241014 8.90996895,48.241014 C4.00827872,48.241014 0.0241462573,52.3730609 0,57.5191071 L0,57.595157 C0,58.1782066 0.0482925147,58.7359062 0.144877544,59.2936058 L5.91583305,53.9194098 L12.1455674,61.1695044 L6.32631942,66.5944003 C7.14729217,66.8479001 7.99241118,67 8.8858227,67 C13.8116592,67 17.7957917,62.7919031 17.7957917,57.645857 C17.7957917,57.1135074 17.7474991,56.6065078 17.6750604,56.0995081 L23.4943084,50.6999622 C21.2004139,48.4691638 19.3652984,45.6299659 18.206278,42.3851684 Z M61.0658848,0 C56.1641945,0 52.1800621,4.1573969 52.1559158,9.30344306 L52.1559158,9.35414302 C52.1559158,9.81044268 52.1800621,10.2920923 52.2525009,10.723042 L45.2983788,17.1872872 C47.7854433,19.1645857 49.7895826,21.8516837 51.1659193,24.9697314 L58.3856502,18.2773364 C59.2307692,18.5561862 60.148327,18.733636 61.090031,18.733636 C66.0158675,18.733636 70,14.5255392 70,9.379493 C70,8.74574347 69.9275612,8.13734393 69.8309762,7.55429436 L64.1324595,12.8524404 L57.8785788,5.55164586 L63.4563643,0.329549754 C62.683684,0.126749905 61.8868575,0 61.0658848,0 Z M51.7695757,42.3851684 C50.6105554,45.6299659 48.7754398,48.4691638 46.4573991,50.6746122 L52.2766471,56.0741582 C52.2042083,56.5811578 52.1559158,57.0881574 52.1559158,57.620507 C52.1559158,62.7919031 56.1641945,66.97465 61.0658848,66.97465 C61.9592963,66.97465 62.8044153,66.8225501 63.6253881,66.5690503 L57.80614,61.1441544 L64.0358744,53.8940598 L69.8068299,59.2682558 C69.903415,58.7105562 69.9517075,58.1528566 69.9517075,57.569807 L69.9517075,57.4937571 C69.903415,52.3477109 65.9192825,48.215664 61.0417385,48.215664 C60.148327,48.215664 59.2790617,48.3424139 58.4822353,48.6212637 L51.7695757,42.3851684 Z M8.90996895,0 C8.08899621,0 7.29216971,0.126749905 6.54363574,0.354899735 L12.1214212,5.57699584 L5.86754053,12.8524404 L0.169023801,7.55429436 C0.0482925147,8.13734393 0,8.74574347 0,9.379493 C0,14.5508891 4.00827872,18.733636 8.90996895,18.733636 C9.85167299,18.733636 10.7450845,18.5815361 11.6143498,18.2773364 L18.8099345,24.9950813 C20.1862711,21.8770337 22.2145567,19.1899357 24.677475,17.2126372 L17.7233529,10.748392 C17.7957917,10.2920923 17.8199379,9.83579266 17.8199379,9.379493 L17.8199379,9.32879304 C17.7957917,4.1573969 13.8116592,0 8.90996895,0 Z" id="hadlogo" fill="#000000" sketch:type="MSShapeGroup"></path>
    </g>
</svg>