<?xml version="1.0" encoding="UTF-8" standalone="no"?>
<svg width="64px" height="64px" viewBox="0 0 64 64" version="1.1" xmlns="http://www.w3.org/2000/svg" xmlns:xlink="http://www.w3.org/1999/xlink" xmlns:sketch="http://www.bohemiancoding.com/sketch/ns">
    <!-- Generator: Sketch 3.2.2 (9983) - http://www.bohemiancoding.com/sketch -->
    <title>search</title>
    <desc>Created with Sketch.</desc>
    <defs></defs>
    <g id="Icons" stroke="none" stroke-width="1" fill="none" fill-rule="evenodd" sketch:type="MSPage">
        <path d="M38.5138889,46.3203463 C50.6572645,44.6271153 60,34.2858876 60,21.7816092 C60,8.09510436 48.8071187,-3 35,-3 C21.1928813,-3 10,8.09510436 10,21.7816092 C10,34.2856499 19.3423803,44.6267222 31.4854187,46.3202498 C31.4481184,46.5088708 31.4285714,46.7038528 31.4285714,46.9033918 L31.4285714,71.0046542 C31.4285714,72.6485517 32.7755283,74 34.4370838,74 L35.5629162,74 C37.2279118,74 38.5714286,72.658938 38.5714286,71.0046542 L38.5714286,46.9033918 C38.5714286,46.7041171 38.5516357,46.5091398 38.5138889,46.3203463 Z M35,39.4827586 C44.8622277,39.4827586 52.8571429,31.5576841 52.8571429,21.7816092 C52.8571429,12.0055343 44.8622277,4.08045977 35,4.08045977 C25.1377723,4.08045977 17.1428571,12.0055343 17.1428571,21.7816092 C17.1428571,31.5576841 25.1377723,39.4827586 35,39.4827586 Z" id="search" fill="#000000" sketch:type="MSShapeGroup" transform="translate(35.000000, 35.500000) rotate(-45.000000) translate(-35.000000, -35.500000) "></path>
    </g>
</svg>