<?xml version="1.0" encoding="utf-8"?>
<!-- Generator: Adobe Illustrator 22.0.1, SVG Export Plug-In . SVG Version: 6.00 Build 0)  -->
<svg version="1.1" id="Layer_1" xmlns="http://www.w3.org/2000/svg" xmlns:xlink="http://www.w3.org/1999/xlink" x="0px" y="0px"
	 width="34px" height="34px" viewBox="0 0 34 34" style="enable-background:new 0 0 34 34;" xml:space="preserve">
<g>
	<polygon points="16.1,14.8 3.1,7.3 4.7,4.4 16.2,10.9 27.8,4.6 29.4,7.5 	"/>
</g>
<g>
	<path d="M32,27.3c0-0.5-0.2-0.9-0.6-1.2l-0.9-0.6c-0.4-0.3-0.6-0.7-0.6-1.2v-2.1c0-0.1,0-0.3,0-0.4c0,0,0,0,0,0
		c0-0.2-0.1-0.4-0.1-0.7c0,0,0,0,0,0c-0.1-0.2-0.1-0.4-0.2-0.6c0,0,0,0,0,0c-0.1-0.2-0.2-0.4-0.3-0.5c0,0,0,0,0-0.1
		c-0.1-0.2-0.2-0.3-0.3-0.4c0,0-0.1-0.1-0.1-0.1c-0.1-0.1-0.2-0.2-0.3-0.3c-0.1-0.1-0.1-0.1-0.2-0.2c-0.1-0.1-0.2-0.2-0.3-0.2
		c-0.1-0.1-0.2-0.1-0.3-0.2c-0.1,0-0.2-0.1-0.3-0.1c-0.2-0.1-0.4-0.2-0.6-0.2V17h-2.1v1.2c-1.8,0.5-3.2,2.1-3.2,4.1v2.1
		c0,0.5-0.2,0.9-0.6,1.2l-0.9,0.6c-0.4,0.3-0.6,0.7-0.6,1.2c0,0.8,0,1.4,0,1.4H32C32,28.7,32,28.1,32,27.3z"/>
</g>
<g>
	<g>
		<path d="M24,30.6c0,0.8,0.7,1.4,1.6,1.4c0.9,0,1.6-0.6,1.6-1.4v-0.7H24V30.6z"/>
	</g>
</g>
<g>
	<g>
		<path d="M18.7,22.7c0-0.8,0.2-1.6,0.5-2.3H5.3v-15H27v10l3.3,1.7V5.3C30.3,3.5,28.8,2,27,2H5.3C3.5,2,2,3.5,2,5.3v15
			c0,1.8,1.5,3.3,3.3,3.3h13.4V22.7z"/>
	</g>
</g>
</svg>
