<svg xmlns="http://www.w3.org/2000/svg" width="36" height="36" viewBox="0 0 36 36">
  <path fill="#20282D" fill-rule="evenodd" d="M27.1791187,5.90862373 L23.1255806,1.85508558 L34.950857,1.47362505 L34.5693965,13.2989015 L31.1860571,9.91556216 L19.6620338,21.4395855 C18.8836481,22.2179712 17.6177305,22.2140662 16.8399452,21.4362809 L15.6584,20.2547357 C14.8781892,19.4745249 14.8841393,18.2036031 15.6550953,17.4326471 L27.1791187,5.90862373 Z M17.8740741,1 L17.8740741,6.56772487 L7.57093015,6.56772487 C7.02050013,6.56772487 6.56772487,7.01687517 6.56772487,7.57093015 L6.56772487,28.2311863 C6.56772487,28.7816163 7.01687517,29.2343915 7.57093015,29.2343915 L28.2311863,29.2343915 C28.7816163,29.2343915 29.2343915,28.7852412 29.2343915,28.2311863 L29.2343915,18.1888889 L35,18.1888889 L35,33.0000796 C35,34.1046051 34.1080589,35 33.0000796,35 L2.9999204,35 C1.89539486,35 1,34.1080589 1,33.0000796 L1,2.9999204 C1,1.89539486 1.89194115,1 2.9999204,1 L17.8740741,1 Z"/>
</svg>
