<svg xmlns="http://www.w3.org/2000/svg" width="36" height="32" viewBox="0 0 36 32">
  <path fill="#000000" fill-rule="evenodd" d="M44.7424518,601.380555 L44.7424518,612.425834 C44.7424518,612.995415 44.4233254,613.516976 43.9161764,613.776248 L39.8982144,615.830371 C39.1524016,616.211656 38.2387077,615.916149 37.8574221,615.170336 C37.7481567,614.956607 37.6911816,614.719996 37.6911816,614.479957 L37.6911816,601.415668 L24.3450217,586.52907 C23.7858797,585.905391 23.8381974,584.946525 24.4618766,584.387383 C24.7401043,584.137946 25.1006223,584 25.4742927,584 L56.5241524,584 C57.3617774,584 58.0408065,584.679029 58.0408065,585.516654 C58.0408065,585.882349 57.9086752,586.235729 57.6687474,586.511713 L44.7424518,601.380555 Z" transform="translate(-23 -584)"/>
</svg>
