<svg xmlns="http://www.w3.org/2000/svg" width="36" height="36" viewBox="0 0 36 36">
  <path fill="#000000" d="M27.2042389,17.9887955 C27.2042389,17.4360383 27.3061433,16.9169025 27.509955,16.4313725 C27.7137668,15.9458426 27.9903643,15.5238113 28.3397559,15.1652661 C28.6891475,14.8067209 29.1004044,14.5228769 29.5735389,14.3137255 C30.0466733,14.1045741 30.5525556,14 31.091201,14 C31.6298464,14 32.1357287,14.1045741 32.6088632,14.3137255 C33.0819977,14.5228769 33.496894,14.8067209 33.8535645,15.1652661 C34.2102351,15.5238113 34.4904721,15.9458426 34.6942839,16.4313725 C34.8980956,16.9169025 35,17.4360383 35,17.9887955 C35,18.5415527 34.8980956,19.0606885 34.6942839,19.5462185 C34.4904721,20.0317485 34.2102351,20.4575145 33.8535645,20.8235294 C33.496894,21.1895443 33.0819977,21.4771231 32.6088632,21.6862745 C32.1357287,21.8954259 31.6298464,22 31.091201,22 C30.5525556,22 30.0466733,21.8954259 29.5735389,21.6862745 C29.1004044,21.4771231 28.6891475,21.1895443 28.3397559,20.8235294 C27.9903643,20.4575145 27.7137668,20.0317485 27.509955,19.5462185 C27.3061433,19.0606885 27.2042389,18.5415527 27.2042389,17.9887955 Z M14.1021195,17.9887955 C14.1021195,17.4360383 14.2040238,16.9169025 14.4078356,16.4313725 C14.6116473,15.9458426 14.8882449,15.5238113 15.2376365,15.1652661 C15.5870281,14.8067209 15.9982849,14.5228769 16.4714194,14.3137255 C16.9445539,14.1045741 17.4504362,14 17.9890816,14 C18.5277269,14 19.0336093,14.1045741 19.5067437,14.3137255 C19.9798782,14.5228769 20.3947745,14.8067209 20.7514451,15.1652661 C21.1081157,15.5238113 21.3883527,15.9458426 21.5921644,16.4313725 C21.7959762,16.9169025 21.8978805,17.4360383 21.8978805,17.9887955 C21.8978805,18.5415527 21.7959762,19.0606885 21.5921644,19.5462185 C21.3883527,20.0317485 21.1081157,20.4575145 20.7514451,20.8235294 C20.3947745,21.1895443 19.9798782,21.4771231 19.5067437,21.6862745 C19.0336093,21.8954259 18.5277269,22 17.9890816,22 C17.4504362,22 16.9445539,21.8954259 16.4714194,21.6862745 C15.9982849,21.4771231 15.5870281,21.1895443 15.2376365,20.8235294 C14.8882449,20.4575145 14.6116473,20.0317485 14.4078356,19.5462185 C14.2040238,19.0606885 14.1021195,18.5415527 14.1021195,17.9887955 Z M1,17.9887955 C1,17.4360383 1.10190435,16.9169025 1.30571612,16.4313725 C1.50952789,15.9458426 1.78612542,15.5238113 2.13551702,15.1652661 C2.48490862,14.8067209 2.89616548,14.5228769 3.36929994,14.3137255 C3.84243439,14.1045741 4.34831672,14 4.88696211,14 C5.42560749,14 5.93148982,14.1045741 6.40462428,14.3137255 C6.87775873,14.5228769 7.29265504,14.8067209 7.64932563,15.1652661 C8.00599622,15.5238113 8.28623319,15.9458426 8.49004496,16.4313725 C8.69385672,16.9169025 8.79576108,17.4360383 8.79576108,17.9887955 C8.79576108,18.5415527 8.69385672,19.0606885 8.49004496,19.5462185 C8.28623319,20.0317485 8.00599622,20.4575145 7.64932563,20.8235294 C7.29265504,21.1895443 6.87775873,21.4771231 6.40462428,21.6862745 C5.93148982,21.8954259 5.42560749,22 4.88696211,22 C4.34831672,22 3.84243439,21.8954259 3.36929994,21.6862745 C2.89616548,21.4771231 2.48490862,21.1895443 2.13551702,20.8235294 C1.78612542,20.4575145 1.50952789,20.0317485 1.30571612,19.5462185 C1.10190435,19.0606885 1,18.5415527 1,17.9887955 Z"/>
</svg>
