<?xml version="1.0" encoding="utf-8"?>
<!-- Generator: Adobe Illustrator 22.0.1, SVG Export Plug-In . SVG Version: 6.00 Build 0)  -->
<svg version="1.1" id="Layer_1" xmlns="http://www.w3.org/2000/svg" xmlns:xlink="http://www.w3.org/1999/xlink" x="0px" y="0px"
	 width="20px" height="20px" viewBox="0 0 20 20" style="enable-background:new 0 0 20 20;" xml:space="preserve">
<path d="M9.7146,11.0234h9.1437c0.0782,0,0.1417,0.0634,0.1417,0.1417v1.7167c0,0.0782-0.0634,0.1417-0.1417,0.1417H9.7146
	c-0.0782,0-0.1417-0.0634-0.1417-0.1417v-1.7167C9.5729,11.0869,9.6363,11.0234,9.7146,11.0234z"/>
<path d="M9.7146,15.0234h5.7167c0.0782,0,0.1417,0.0634,0.1417,0.1417v1.7167c0,0.0782-0.0634,0.1417-0.1417,0.1417H9.7146
	c-0.0782,0-0.1417-0.0634-0.1417-0.1417v-1.7167C9.5729,15.0869,9.6363,15.0234,9.7146,15.0234z"/>
<path d="M9.7146,6.9999h5.7167c0.0782,0,0.1417,0.0634,0.1417,0.1417v1.7167C15.573,8.9365,15.5096,9,15.4313,9H9.7146
	C9.6364,9,9.5729,8.9366,9.5729,8.8583V7.1416C9.5729,7.0633,9.6363,6.9999,9.7146,6.9999z"/>
<path d="M9.7146,2.9999h9.1437C18.9365,2.9999,19,3.0633,19,3.1416v1.7167C19,4.9365,18.9366,5,18.8583,5H9.7146
	C9.6364,5,9.5729,4.9366,9.5729,4.8583V3.1416C9.5729,3.0633,9.6363,2.9999,9.7146,2.9999z"/>
<path d="M1.3848,3.4075C1.3848,3.1824,1.5672,3,1.7923,3h5.3308c0.2251,0,0.4075,0.1824,0.4075,0.4075v5.2466
	c0,0.2251-0.1824,0.4075-0.4075,0.4075H1.7923c-0.2251,0-0.4075-0.1824-0.4075-0.4075V3.4075z"/>
<path d="M1.3848,11.4601c0-0.2251,0.1824-0.4075,0.4075-0.4075h5.3308c0.2251,0,0.4075,0.1824,0.4075,0.4075v5.1324
	C7.5306,16.8176,7.3481,17,7.1231,17H1.7923c-0.2251,0-0.4075-0.1824-0.4075-0.4075V11.4601z"/>
</svg>
