<?xml version="1.0" encoding="UTF-8" standalone="no"?>
<svg width="69px" height="50px" viewBox="0 0 69 50" version="1.1" xmlns="http://www.w3.org/2000/svg" xmlns:xlink="http://www.w3.org/1999/xlink" xmlns:sketch="http://www.bohemiancoding.com/sketch/ns">
    <!-- Generator: Sketch 3.4.2 (15855) - http://www.bohemiancoding.com/sketch -->
    <title>purchase</title>
    <desc>Created with Sketch.</desc>
    <defs></defs>
    <g id="Icons" stroke="none" stroke-width="1" fill="none" fill-rule="evenodd" sketch:type="MSPage">
        <g id="purchase" sketch:type="MSLayerGroup">
            <path d="M64.161557,21.6296349 L60.2666962,39.2424242 L60.2561419,39.2424242 C60.1415521,39.6969697 59.8279379,40.0757576 59.4027494,40.2727273 C59.9681596,41.1818182 60.3104213,42.2575758 60.3104213,43.4242424 C60.3104213,46.7727273 57.6100222,49.4848485 54.2793792,49.4848485 C50.9487361,49.4848485 48.248337,46.7727273 48.248337,43.4242424 C48.248337,42.3181818 48.5664745,41.2878788 49.0851441,40.3939394 L32.3339246,40.3939394 C32.8525942,41.2878788 33.1707317,42.3181818 33.1707317,43.4242424 C33.1707317,46.7727273 30.4703326,49.4848485 27.1396896,49.4848485 C23.8090466,49.4848485 21.1086475,46.7727273 21.1086475,43.4242424 C21.1086475,42.2575758 21.4509091,41.1818182 22.0163193,40.2727273 C21.6122395,40.0909091 21.3031486,39.7424242 21.1734812,39.3181818 L21.1719734,39.3181818 L11.7545011,4.03030303 L1.50776053,4.03030303 C0.673968958,4.03030303 0,3.34848485 0,2.51515152 C0,1.68181818 0.673968958,1 1.50776053,1 L12.9109534,1 C13.5924612,1 14.1443016,1.46969697 14.3327716,2.09090909 L14.3538803,2.07575758 L16.4918847,10.0909091 L45.1510248,10.0909091 C46.0654591,4.37081871 51.0222998,0 57,0 C63.627417,0 69,5.372583 69,12 C69,15.9431966 67.0980837,19.4421768 64.161557,21.6296349 Z M47.3854911,19.1818182 L42.2172949,19.1818182 L42.2172949,13.1212121 L45.0516889,13.1212121 C45.2611466,15.3817367 46.0975978,17.4604558 47.3854911,19.1818182 Z M52.994499,23.3152313 L52.4444346,28.2727273 L59.6032816,28.2727273 L60.6750359,23.426797 C59.5168351,23.7989998 58.2818906,24 57,24 C55.5954025,24 54.2471689,23.7586772 52.994499,23.3152313 Z M27.1396896,46.4545455 C25.475122,46.4545455 24.1241685,45.0909091 24.1241685,43.4242424 C24.1241685,41.7575758 25.475122,40.3939394 27.1396896,40.3939394 C28.8042572,40.3939394 30.1552106,41.7575758 30.1552106,43.4242424 C30.1552106,45.0909091 28.8042572,46.4545455 27.1396896,46.4545455 Z M54.2793792,46.4545455 C52.6148115,46.4545455 51.2638581,45.0909091 51.2638581,43.4242424 C51.2638581,41.7575758 52.6148115,40.3939394 54.2793792,40.3939394 C55.9439468,40.3939394 57.2949002,41.7575758 57.2949002,43.4242424 C57.2949002,45.0909091 55.9439468,46.4545455 54.2793792,46.4545455 Z M57.5934368,37.3636364 L51.4402661,37.3636364 L52.1112195,31.3030303 L58.9338359,31.3030303 L57.5934368,37.3636364 Z M49.4108204,28.2727273 L42.2172949,28.2727273 L42.2172949,22.2121212 L50.0832816,22.2121212 L49.4108204,28.2727273 Z M48.4081596,37.3636364 L42.2172949,37.3636364 L42.2172949,31.3030303 L49.0760976,31.3030303 L48.4081596,37.3636364 Z M39.2017738,19.1818182 L31.0025721,19.1818182 L30.3316186,13.1212121 L39.2017738,13.1212121 L39.2017738,19.1818182 Z M39.2017738,28.2727273 L32.0082483,28.2727273 L31.3357871,22.2121212 L39.2017738,22.2121212 L39.2017738,28.2727273 Z M39.2017738,37.3636364 L33.0109091,37.3636364 L32.3429712,31.3030303 L39.2017738,31.3030303 L39.2017738,37.3636364 Z M22.1535255,31.3030303 L29.3078492,31.3030303 L29.9788027,37.3636364 L23.7728603,37.3636364 L22.1535255,31.3030303 Z M21.3453659,28.2727273 L19.7275388,22.2121212 L28.3021729,22.2121212 L28.9746341,28.2727273 L21.3453659,28.2727273 Z M17.3015521,13.1212121 L27.2995122,13.1212121 L27.9674501,19.1818182 L18.9193792,19.1818182 L17.3015521,13.1212121 Z" id="Path" fill="#383E49" sketch:type="MSShapeGroup"></path>
            <path d="M59.8315334,12.1383931 C59.4943499,11.8752635 59.1056136,11.6606051 58.6667177,11.494418 C58.2271252,11.3282308 57.9087516,11.1828171 57.4482593,11.0581767 L57.4482593,7.74828291 C58.0000141,7.74828291 58.2710148,7.88677219 58.5211158,8.17067522 C58.7712168,8.45457824 58.9063688,8.86312162 58.9272686,9.39630535 L60.6744921,9.39630535 C60.6744921,8.88389501 60.5846229,8.43380485 60.406278,8.04603486 C60.2272363,7.65826488 59.9875852,7.33973953 59.6859314,7.08353436 C59.3842776,6.83425366 59.0296776,6.64729313 58.6207382,6.52265277 C58.2117987,6.39801242 57.9087516,6.33569225 57.4482593,6.33569225 L57.4482593,5.3039471 L56.528668,5.3039471 L56.528668,6.33569225 C56.0688723,6.33569225 55.7595553,6.40493689 55.3408626,6.5365017 C54.9221699,6.67499098 54.5515467,6.86887598 54.2296897,7.12508115 C53.9078328,7.38128632 53.6521585,7.69981166 53.4633637,8.08065718 C53.2738721,8.4615027 53.179823,8.9046684 53.179823,9.41015428 C53.179823,9.98488479 53.282232,10.4626728 53.4863534,10.8504428 C53.6904748,11.2382128 53.958689,11.5636626 54.2909958,11.8198678 C54.622606,12.0760729 54.9960158,12.2838069 55.4098319,12.4430695 C55.823648,12.6092567 56.1092786,12.7477459 56.528668,12.8585374 L56.528668,16.6600681 C55.8229513,16.6392947 55.4481482,16.4246363 55.1416178,16.0299419 C54.8350873,15.6352474 54.6866987,15.0882148 54.6971486,14.3957684 L52.9499252,14.3957684 C52.9394753,14.9843478 53.0237712,15.5036826 53.2028128,15.9537728 C53.3818544,16.403863 53.6340454,16.777784 53.9614756,17.0893849 C54.2882092,17.4009858 54.6818221,17.6364176 55.1416178,17.8026047 C55.6014134,17.9687918 55.9769132,18.0588099 56.528668,18.0726588 L56.528668,19.1459507 L57.4482593,19.1459507 L57.4482593,18.0726588 C57.9596078,18.0518854 58.3037578,17.9618674 58.7433504,17.8095292 C59.1822462,17.6571909 59.5661059,17.4425326 59.8928395,17.1517051 C60.2195731,16.867802 60.4780339,16.5008054 60.6668288,16.0714887 C60.8556237,15.6352474 60.9503695,15.1228371 60.9503695,14.5411821 C60.9503695,13.9733761 60.8479604,13.5025125 60.643839,13.1147425 C60.4397176,12.7269726 60.1687169,12.4015227 59.8315334,12.1383931 Z M56.528668,10.8850651 C56.3140967,10.8296694 56.2318908,10.7673492 56.0228928,10.6842557 C55.8131981,10.6080866 55.6292798,10.5042196 55.471138,10.3795792 C55.3129962,10.2549389 55.1827207,10.1026007 55.0803117,9.92948908 C54.9779027,9.74945302 54.9270465,9.53479463 54.9270465,9.28551393 C54.9270465,8.7315568 55.077525,8.33686235 55.3791789,8.10143058 C55.680136,7.8659988 55.9769132,7.74828291 56.528668,7.74828291 L56.528668,10.8850651 Z M57.4482593,16.6600681 L57.4482593,13.0039511 C57.6837304,13.0662713 57.7826561,13.1355159 58.0076773,13.2186095 C58.2320019,13.3086275 58.4340333,13.4124945 58.6130749,13.5509838 C58.7914199,13.6894731 58.9349319,13.8556602 59.0422175,14.0564696 C59.1495032,14.2503546 59.203146,14.4996353 59.203146,14.7904628 C59.203146,15.4205891 59.026891,15.8776037 58.674381,16.1615067 C58.321871,16.4523342 58.0000141,16.6185213 57.4482593,16.6600681 Z" id="Path" fill="#FFFFFF" sketch:type="MSShapeGroup"></path>
        </g>
    </g>
</svg>