<svg xmlns="http://www.w3.org/2000/svg" width="36" height="36" viewBox="0 0 36 36">
  <path fill="#000000" d="M10.7428571,22.2526316 C7.97091368,22.2526316 5.72380952,19.988135 5.72380952,17.1947368 C5.72380952,14.4013387 7.97091368,12.1368421 10.7428571,12.1368421 C13.5148006,12.1368421 15.7619048,14.4013387 15.7619048,17.1947368 C15.7619048,19.988135 13.5148006,22.2526316 10.7428571,22.2526316 Z M10.7428571,24.2105263 C14.3047619,24.2105263 17.3809524,25.3526316 19.3238095,26.9842105 L19.3238095,32.5315789 C19.3238095,33.1842105 18.8380952,33.8368421 18.0285714,33.8368421 L3.45714286,33.8368421 C2.80952381,33.8368421 2.16190476,33.3473684 2.16190476,32.5315789 L2.16190476,26.9842105 C4.26666667,25.3526316 7.34285714,24.2105263 10.7428571,24.2105263 Z M19.647619,7.56842105 L23.047619,7.56842105 L23.047619,18.6631579 L19.647619,18.6631579 L19.647619,7.56842105 Z M25.3142857,4.30526316 L28.7142857,4.30526316 L28.7142857,18.6631579 L25.3142857,18.6631579 L25.3142857,4.30526316 Z M30.9809524,10.8315789 L34.3809524,10.8315789 L34.3809524,18.6631579 L30.9809524,18.6631579 L30.9809524,10.8315789 Z"/>
</svg>
