<?xml version="1.0" encoding="utf-8"?>
<!-- Generator: Adobe Illustrator 22.0.1, SVG Export Plug-In . SVG Version: 6.00 Build 0)  -->
<svg version="1.1" id="Layer_1" xmlns="http://www.w3.org/2000/svg" xmlns:xlink="http://www.w3.org/1999/xlink" x="0px" y="0px"
	 width="34px" height="34px" viewBox="0 0 34 34" style="enable-background:new 0 0 34 34;" xml:space="preserve">
<g>
	<path d="M28.7,2H5.3C3.5,2,2,3.5,2,5.3v23.3C2,30.5,3.5,32,5.3,32H12v-3.3H5.3v-20h23.3v20H22V32h6.7c1.8,0,3.3-1.5,3.3-3.3V5.3
		C32,3.5,30.5,2,28.7,2z"/>
	<polygon points="24,19.6 17,12.6 10,19.6 12.3,22 15.3,19 15.3,32 18.7,32 18.7,19 21.7,22 	"/>
</g>
</svg>
