<svg xmlns="http://www.w3.org/2000/svg" width="36" height="36" viewBox="0 0 36 36">
  <path fill="#000000" d="M8.425,18 C6.05569842,18 4.135,16.0599006 4.135,13.6666667 C4.135,11.2734328 6.05569842,9.33333333 8.425,9.33333333 C10.7943016,9.33333333 12.715,11.2734328 12.715,13.6666667 C12.715,16.0599006 10.7943016,18 8.425,18 Z M8.425,19.6666667 C11.395,19.6666667 14.035,20.5 15.685,22 L15.685,26.6666667 C15.685,27.3333333 15.19,27.8333333 14.53,27.8333333 L2.32,27.8333333 C1.66,27.8333333 1.165,27.3333333 1.165,26.6666667 L1.165,22 C2.98,20.6666667 5.62,19.6666667 8.425,19.6666667 Z M20.635,9.33333333 L33.505,9.33333333 C33.67,9.33333333 33.835,9.5 33.835,9.66666667 L33.835,12.5 C33.835,12.6666667 33.67,12.8333333 33.505,12.8333333 L20.635,12.8333333 C20.47,12.8333333 20.305,12.6666667 20.305,12.5 L20.305,9.66666667 C20.305,9.5 20.47,9.33333333 20.635,9.33333333 Z M20.635,16.8333333 L33.505,16.8333333 C33.67,16.8333333 33.835,17 33.835,17.1666667 L33.835,20 C33.835,20.1666667 33.67,20.3333333 33.505,20.3333333 L20.635,20.3333333 C20.47,20.3333333 20.305,20.1666667 20.305,20 L20.305,17.1666667 C20.305,17 20.47,16.8333333 20.635,16.8333333 Z M20.635,24.3333333 L33.505,24.3333333 C33.67,24.3333333 33.835,24.5 33.835,24.6666667 L33.835,27.5 C33.835,27.6666667 33.67,27.8333333 33.505,27.8333333 L20.635,27.8333333 C20.47,27.8333333 20.305,27.6666667 20.305,27.5 L20.305,24.6666667 C20.305,24.5 20.47,24.3333333 20.635,24.3333333 Z"/>
</svg>
