<?xml version="1.0" encoding="UTF-8" standalone="no"?>
<svg width="60px" height="60px" viewBox="0 0 60 60" version="1.1" xmlns="http://www.w3.org/2000/svg" xmlns:xlink="http://www.w3.org/1999/xlink" xmlns:sketch="http://www.bohemiancoding.com/sketch/ns">
    <!-- Generator: Sketch 3.2.2 (9983) - http://www.bohemiancoding.com/sketch -->
    <title>active filters</title>
    <desc>Created with Sketch.</desc>
    <defs></defs>
    <g id="Page-1" stroke="none" stroke-width="1" fill="none" fill-rule="evenodd" sketch:type="MSPage">
        <g id="active-filters" sketch:type="MSLayerGroup" transform="translate(3.000000, 7.000000)" stroke="#CC5555">
            <path d="M14.0752731,18 L5.04918032,18" id="Path" stroke-width="2" sketch:type="MSShapeGroup"></path>
            <path d="M14.0752731,30.0000002 L5.04918032,30" id="Path-2" stroke-width="2" sketch:type="MSShapeGroup"></path>
            <path d="M14.2072846,38.0147059 L14.2072846,9.91810137 L39.895996,23.9664037 L14.2072846,38.0147059 L14.2072846,38.0147059 Z" id="Path" stroke-width="2" sketch:type="MSShapeGroup"></path>
            <path d="M29,4.84198151 L29,17.9705878" id="Path" stroke-width="2" sketch:type="MSShapeGroup"></path>
            <path d="M29,30.1851187 L29,42.280707" id="Path-2" stroke-width="2" sketch:type="MSShapeGroup"></path>
            <ellipse id="Oval" stroke-width="2" sketch:type="MSShapeGroup" cx="28.8106034" cy="2.30392157" rx="2.30484828" ry="2.30392157"></ellipse>
            <ellipse id="Oval-2" stroke-width="2" sketch:type="MSShapeGroup" cx="29.1778109" cy="44.5117676" rx="2.30484828" ry="2.30392157"></ellipse>
            <ellipse id="Oval-3" stroke-width="2" sketch:type="MSShapeGroup" cx="52.7771189" cy="24.1911765" rx="2.30484828" ry="2.30392157"></ellipse>
            <ellipse id="Oval-4" stroke-width="2" sketch:type="MSShapeGroup" cx="2.30484828" cy="29.9509804" rx="2.30484828" ry="2.30392157"></ellipse>
            <ellipse id="Oval-5" stroke-width="2" sketch:type="MSShapeGroup" cx="2.30484828" cy="18.4313725" rx="2.30484828" ry="2.30392157"></ellipse>
            <path d="M18,17.0490196 L18,28.2590196" id="Line" sketch:type="MSShapeGroup"></path>
            <path d="M17.9016393,28 L26.3169399,28" id="Line" sketch:type="MSShapeGroup"></path>
            <path d="M18.2024206,17.2375631 L19.7471183,17.2375631 L19.7471183,18.4376723 L20.9775871,18.4376723 L20.942623,19.8731234 L22.2129867,19.7529775 L22.4967341,21.0286842 L23.5931736,21.73876 L23.5931736,22.8943206 C23.5931736,22.8943206 24.2775145,23.3413054 24.6196849,23.5647978 L25.0930456,25.0560471 L26.3096183,25.4160348 L26.3096183,26.7263902 L26.782979,28.1172928" id="Path-186" stroke-width="0.918032787" sketch:type="MSShapeGroup"></path>
            <path d="M50.0327867,24 L40.0021673,24.0000002" id="Path" stroke-width="2" sketch:type="MSShapeGroup"></path>
        </g>
    </g>
</svg>