<?xml version="1.0" encoding="UTF-8" standalone="no"?>
<svg width="60px" height="60px" viewBox="0 0 60 60" version="1.1" xmlns="http://www.w3.org/2000/svg" xmlns:xlink="http://www.w3.org/1999/xlink" xmlns:sketch="http://www.bohemiancoding.com/sketch/ns">
    <!-- Generator: Sketch 3.2 (9961) - http://www.bohemiancoding.com/sketch -->
    <title>addaconverters</title>
    <desc>Created with Sketch.</desc>
    <defs></defs>
    <g id="Page-1" stroke="none" stroke-width="1" fill="none" fill-rule="evenodd" sketch:type="MSPage">
        <g id="da-converters" sketch:type="MSLayerGroup" transform="translate(2.000000, 13.000000)">
            <path d="M20.7407407,0 L0,15.5 L20.7407407,31 L56,31 L56,0 L20.7407407,0 L20.7407407,0 Z" id="Rectangle-62" stroke="#CC5555" stroke-width="2" sketch:type="MSShapeGroup"></path>
            <path d="M31.6989074,19.6809288 L29.9893044,19.6809288 L29.3097107,17.7040159 L26.1984457,17.7040159 L25.5560172,19.6809288 L23.8888889,19.6809288 L26.9205139,10.9777626 L28.582333,10.9777626 L31.6989074,19.6809288 L31.6989074,19.6809288 Z M28.8053247,16.2376571 L27.7328408,13.0081056 L26.6815943,16.2376571 L28.8053247,16.2376571 L28.8053247,16.2376571 Z M32.5271621,10.9777626 L35.3995076,10.9777626 C36.0472485,10.9777626 36.5410109,11.033171 36.8808095,11.1439896 C37.3374137,11.294386 37.7285302,11.5615338 38.0541705,11.9454407 C38.3798108,12.3293476 38.6275768,12.7993297 38.7974762,13.3554012 C38.9673755,13.9114725 39.0523237,14.5971517 39.0523237,15.4124591 C39.0523237,16.1288215 38.9726846,16.7462296 38.8134041,17.2647019 C38.6187278,17.8979504 38.340876,18.4104783 37.9798399,18.8023009 C37.7072932,19.099136 37.3391836,19.330664 36.8755001,19.4968918 C36.5286224,19.6195838 36.0649459,19.6809288 35.4844567,19.6809288 L32.5271621,19.6809288 L32.5271621,10.9777626 L32.5271621,10.9777626 Z M34.0987227,12.450058 L34.0987227,18.21457 L35.2720837,18.21457 C35.7109902,18.21457 36.0277768,18.1868658 36.2224531,18.1314564 C36.4773019,18.060216 36.688788,17.9395048 36.8569175,17.7693192 C37.025047,17.5991337 37.1622032,17.3191233 37.2683903,16.9292798 C37.3745773,16.5394361 37.42767,16.008109 37.42767,15.3352823 C37.42767,14.6624558 37.3745773,14.1459702 37.2683903,13.7858101 C37.1622032,13.42565 37.0135435,13.1446501 36.8224068,12.9428021 C36.6312702,12.7409542 36.3888134,12.604412 36.0950292,12.5331716 C35.875576,12.4777622 35.4455248,12.450058 34.804863,12.450058 L34.0987227,12.450058 L34.0987227,12.450058 Z M45.3651123,16.4810608 L46.8888889,17.0212982 C46.6552773,17.971171 46.2668155,18.6766389 45.7234919,19.137723 C45.1801681,19.5988071 44.4908475,19.8293457 43.6555093,19.8293457 C42.6219554,19.8293457 41.7724717,19.4345607 41.1070329,18.6449789 C40.441594,17.8553971 40.1088797,16.7759224 40.1088797,15.4065225 C40.1088797,13.9579664 40.4433639,12.8329777 41.1123423,12.0315225 C41.7813207,11.2300673 42.6608901,10.8293457 43.7510772,10.8293457 C44.7032211,10.8293457 45.4766052,11.1439863 46.0712527,11.7732771 C46.4252095,12.1453107 46.6906731,12.679606 46.8676515,13.3761795 L45.3120191,13.7917467 C45.2199902,13.3405572 45.0279716,12.9843602 44.7359572,12.7231452 C44.4439428,12.4619301 44.0891064,12.3313246 43.6714373,12.3313246 C43.0944877,12.3313246 42.6263868,12.5628526 42.2671206,13.0259157 C41.9078545,13.4889786 41.728224,14.238971 41.728224,15.2759156 C41.728224,16.3761849 41.9051998,17.1598182 42.2591566,17.6268391 C42.6131134,18.0938598 43.0732504,18.3273668 43.6395813,18.3273668 C44.0572504,18.3273668 44.4165112,18.1789514 44.7173746,17.8821161 C45.0182379,17.5852809 45.2341483,17.1182671 45.3651123,16.4810608 L45.3651123,16.4810608 L45.3651123,16.4810608 Z" id="ADC" fill="#CC5555" sketch:type="MSShapeGroup"></path>
        </g>
    </g>
</svg>