<?xml version="1.0" encoding="UTF-8" standalone="no"?>
<svg width="60px" height="60px" viewBox="0 0 60 60" version="1.1" xmlns="http://www.w3.org/2000/svg" xmlns:xlink="http://www.w3.org/1999/xlink" xmlns:sketch="http://www.bohemiancoding.com/sketch/ns">
    <!-- Generator: Sketch 3.2.2 (9983) - http://www.bohemiancoding.com/sketch -->
    <title>circuitprotection</title>
    <desc>Created with Sketch.</desc>
    <defs></defs>
    <g id="Page-1" stroke="none" stroke-width="1" fill="none" fill-rule="evenodd" sketch:type="MSPage">
        <g id="circuit-protection" sketch:type="MSLayerGroup" transform="translate(2.000000, 24.000000)">
            <path d="M43,6.7586207 C43,10.7198354 39.418278,13.9310345 35,13.9310345 C30.581722,13.9310345 27,10.7198354 27,6.7586207 L29,6.7586207 C29,9.7295318 31.6862915,12.137931 35,12.137931 C38.3137085,12.137931 41,9.7295318 41,6.7586207 L43,6.7586207 L43,6.7586207 Z" id="Oval-71" fill="#CC5555" sketch:type="MSShapeGroup"></path>
            <path d="M29,7.7586207 C29,3.79740593 25.418278,0.5862069 21,0.5862069 C16.581722,0.5862069 13,3.79740593 13,7.7586207 L15,7.7586207 C15,4.78770962 17.6862915,2.37931034 21,2.37931034 C24.3137085,2.37931034 27,4.78770962 27,7.7586207 L29,7.7586207 L29,7.7586207 Z" id="Oval-72" fill="#CC5555" sketch:type="MSShapeGroup"></path>
            <path d="M15.0576926,7 L0.5,7" id="Line" stroke="#CC5555" stroke-width="2" sketch:type="MSShapeGroup"></path>
            <path d="M55.5,7 L40.9423077,7" id="Line-2" stroke="#CC5555" stroke-width="2" sketch:type="MSShapeGroup"></path>
        </g>
    </g>
</svg>