<?xml version="1.0" encoding="UTF-8" standalone="no"?>
<svg width="60px" height="60px" viewBox="0 0 60 60" version="1.1" xmlns="http://www.w3.org/2000/svg" xmlns:xlink="http://www.w3.org/1999/xlink" xmlns:sketch="http://www.bohemiancoding.com/sketch/ns">
    <!-- Generator: Sketch 3.2.2 (9983) - http://www.bohemiancoding.com/sketch -->
    <title>connectorsupport</title>
    <desc>Created with Sketch.</desc>
    <defs></defs>
    <g id="Page-1" stroke="none" stroke-width="1" fill="none" fill-rule="evenodd" sketch:type="MSPage">
        <g id="connector-support" sketch:type="MSLayerGroup" transform="translate(8.000000, 3.000000)">
            <path d="M15.5693306,20.5027005 L23.824516,15.8064516 L23.824516,2.25806452 L19.8552329,1.14352972e-14 L19.8552329,1.22679644e-14 L19.8552329,9.48387097 L11.9166667,13.5483871 L3.97810047,9.48387097 L3.97810047,-7.10542736e-15 L0.00881736463,2.25806452 L0.00881736463,15.8064516 L8.26404098,20.5027222 C8.25474591,20.6089822 8.25,20.7165418 8.25,20.8252062 L8.25,38.787697 C8.25,40.8117306 9.89162258,42.4516129 11.9166667,42.4516129 C13.9375902,42.4516129 15.5833333,40.8112219 15.5833333,38.787697 L15.5833333,20.8252062 C15.5833333,20.7165321 15.5786008,20.6089654 15.5693306,20.5027005 Z" id="Polygon-1" stroke="#CC5555" stroke-width="2" sketch:type="MSShapeGroup"></path>
            <g id="Group" transform="translate(11.916667, 24.387097)" sketch:type="MSShapeGroup">
                <polygon id="Path-2" stroke="#CC5555" stroke-width="2" points="21.6885662 -3.01075269 29.6271324 1.50537634 29.6271324 10.5376344 21.6885662 15.0537634 13.75 10.5376344 13.75 1.50537634 "></polygon>
                <ellipse id="Oval-61" fill="#CC5555" cx="22" cy="6.32258065" rx="3.66666667" ry="3.61290323"></ellipse>
                <path d="M10.0833333,25.4589319 C10.9602031,25.9659474 12.0814522,25.6650619 12.5877132,24.7868852 C13.0939743,23.9087086 12.7935365,22.7857885 11.9166667,22.278773 C11.0397969,21.7717575 9.91854778,22.0726431 9.41228676,22.9508197 C8.90602574,23.8289963 9.20646352,24.9519164 10.0833333,25.4589319 L10.0833333,25.4589319 Z" id="Oval-62" fill="#CC5555"></path>
                <path d="M22.4583333,6.77419355 C22.4583333,6.77419355 21.3426425,13.9103434 19.4097971,17.0268055 C17.9815314,19.3296983 12.375,23.0322581 12.375,23.0322581" id="Line" stroke="#CC5555" stroke-width="3" stroke-linecap="square"></path>
                <path d="M10.0833333,23.483871 C10.0833333,23.483871 6.39637587,25.2903226 4.55289714,25.2903226 C3.03526476,25.2903226 0,23.483871 0,23.483871" id="Line" stroke="#CC5555" stroke-linecap="square"></path>
                <path d="M10.3472594,25.0265455 C10.3472594,25.0265455 6.80901163,26.4014182 5.29892225,27.4587941 C4.05575059,28.3292723 2.0874763,30.8101079 2.0874763,30.8101079" id="Line-4" stroke="#CC5555" stroke-linecap="square"></path>
                <path d="M9.70951137,24.5073465 C9.70951137,24.5073465 5.0668592,26.157696 3.39610007,26.9367838 C2.02065802,27.578163 0.570907852,28.7687473 0.570907852,28.7687473" id="Line-5" stroke="#CC5555" stroke-linecap="square"></path>
            </g>
        </g>
    </g>
</svg>