<?xml version="1.0" encoding="UTF-8" standalone="no"?>
<svg width="60px" height="60px" viewBox="0 0 60 60" version="1.1" xmlns="http://www.w3.org/2000/svg" xmlns:xlink="http://www.w3.org/1999/xlink" xmlns:sketch="http://www.bohemiancoding.com/sketch/ns">
    <!-- Generator: Sketch 3.2.2 (9983) - http://www.bohemiancoding.com/sketch -->
    <title>driversandinterfaces</title>
    <desc>Created with Sketch.</desc>
    <defs></defs>
    <g id="Page-1" stroke="none" stroke-width="1" fill="none" fill-rule="evenodd" sketch:type="MSPage">
        <g id="drives-and-interfaces" sketch:type="MSLayerGroup" transform="translate(3.000000, 2.000000)">
            <rect id="Rectangle-62" stroke="#CC5555" stroke-width="2.24" sketch:type="MSShapeGroup" x="4.48979592" y="0" width="44.8979592" height="56"></rect>
            <path d="M0.76949139,10.3325 L20.6265864,10.3325 L20.6265864,21.7680998 L39.3072827,21.7680998 L39.3072827,44.2999806 L21.986567,44.2999806 L21.986567,32.6274951 L0.839644452,32.6274951" id="Path-183" stroke="#CC5555" stroke-width="1.12" sketch:type="MSShapeGroup"></path>
            <path d="M0.626992985,48.7015625 L22.6633046,48.7015625 L22.6633046,40.1462491 L37.7664621,40.1462491 L53.5719819,40.1462491" id="Path-184" stroke="#CC5555" stroke-width="1.12" sketch:type="MSShapeGroup"></path>
            <path d="M1.08737245,18.3706251 L23.7029656,18.3706251 L23.7029656,10.4671875 L54.6045225,10.4671875" id="Path-185" stroke="#CC5555" stroke-width="1.12" sketch:type="MSShapeGroup"></path>
            <path d="M20.2040816,52.16 L20.2040816,45.44 L26.9387755,48.8 L20.2040816,52.16 L20.2040816,52.16 Z" id="Triangle-1" fill="#CC5555" sketch:type="MSShapeGroup"></path>
            <path d="M35.7966102,6.68 L35.7966102,13.4 L29.0847458,10.04 L35.7966102,6.68 L35.7966102,6.68 Z" id="Triangle-2" fill="#CC5555" sketch:type="MSShapeGroup"></path>
            <path d="M33.6734694,9.961875 L33.6734694,40.9241856" id="Path-186" stroke="#CC5555" stroke-width="1.12" sketch:type="MSShapeGroup"></path>
        </g>
    </g>
</svg>