<?xml version="1.0" encoding="UTF-8" standalone="no"?>
<svg width="60px" height="60px" viewBox="0 0 60 60" version="1.1" xmlns="http://www.w3.org/2000/svg" xmlns:xlink="http://www.w3.org/1999/xlink" xmlns:sketch="http://www.bohemiancoding.com/sketch/ns">
    <!-- Generator: Sketch 3.2 (9961) - http://www.bohemiancoding.com/sketch -->
    <title>optoelectronics</title>
    <desc>Created with Sketch.</desc>
    <defs></defs>
    <g id="Page-1" stroke="none" stroke-width="1" fill="none" fill-rule="evenodd" sketch:type="MSPage">
        <g id="optoelectronics" sketch:type="MSLayerGroup" transform="translate(2.000000, 6.000000)" stroke="#CC5555" stroke-width="2">
            <path d="M22.9603659,15.8490566 L29.7484718,0.0123034028" id="Line" sketch:type="MSShapeGroup"></path>
            <path d="M27.529905,15.9571557 C28.2672803,10.4677322 28.8993162,5.76251209 29.6366915,0.273088638 C26.1679816,4.59652501 23.1948017,8.3023276 19.7260918,12.625764" id="Line-decoration-1" sketch:type="MSShapeGroup"></path>
            <path d="M30.0335366,19.4716981 L37.4988474,3.86737821" id="Line-49" sketch:type="MSShapeGroup"></path>
            <path d="M34.5947268,19.7676856 C35.5582164,14.3132617 36.3840647,9.63804145 37.3475543,4.1836177 C33.7032128,8.36068461 30.5794914,11.9410277 26.9351499,16.1180946" id="Line-49-decoration-1" sketch:type="MSShapeGroup"></path>
            <path d="M56.7184158,32.9792912 L42.7184158,32.9792912 L56.7184158,32.9792912 Z M13.3221214,32.9792912 L0.0599263134,32.9792912 L13.3221214,32.9792912 Z M14.07579,48 L14.07579,17.9585826 L41.1750122,32.9792912 L14.07579,48 L14.07579,48 Z M42.0030441,17.4578924 L42.0030441,47.647297 L42.0030441,17.4578924 Z" id="Diode-Icon-6" sketch:type="MSShapeGroup"></path>
        </g>
    </g>
</svg>