<?xml version="1.0" encoding="UTF-8" standalone="no"?>
<svg width="60px" height="60px" viewBox="0 0 60 60" version="1.1" xmlns="http://www.w3.org/2000/svg" xmlns:xlink="http://www.w3.org/1999/xlink" xmlns:sketch="http://www.bohemiancoding.com/sketch/ns">
    <!-- Generator: Sketch 3.2.2 (9983) - http://www.bohemiancoding.com/sketch -->
    <title>oscillators</title>
    <desc>Created with Sketch.</desc>
    <defs></defs>
    <g id="Page-1" stroke="none" stroke-width="1" fill="none" fill-rule="evenodd" sketch:type="MSPage">
        <g id="oscillators" sketch:type="MSLayerGroup" transform="translate(1.000000, 9.000000)" stroke="#CC5555">
            <rect id="Rectangle-60" stroke-width="2" sketch:type="MSShapeGroup" x="6.03404792" y="10.2743902" width="27.4274905" height="23.7804878"></rect>
            <rect id="Rectangle-65" sketch:type="MSShapeGroup" x="8.77679697" y="13.2469512" width="10.9709962" height="17.8353659"></rect>
            <path d="M20,18 L35,18" id="Line" sketch:type="MSShapeGroup"></path>
            <path d="M21.0220681,19.9817073 C21.7570681,19.1067073 24.1870681,18.3567073 27.0220681,17.4817073 C24.1870681,16.6067073 21.7570681,15.8567073 21.0220681,14.9817073" id="Line-decoration-1" sketch:type="MSShapeGroup"></path>
            <path d="M20,25 L35,25" id="Line-2" sketch:type="MSShapeGroup"></path>
            <path d="M21.0220681,27.6890244 C21.7570681,26.8140244 24.1870681,26.0640244 27.0220681,25.1890244 C24.1870681,24.3140244 21.7570681,23.5640244 21.0220681,22.6890244" id="Line-2-decoration-1" sketch:type="MSShapeGroup"></path>
            <path d="M3.56557377,18 L9.00573719,18" id="Line-6" sketch:type="MSShapeGroup"></path>
            <path d="M11.5996216,37 L16.5996216,37" id="Line-7" sketch:type="MSShapeGroup"></path>
            <path d="M11.5996216,39 L16.5996216,39" id="Line-8" sketch:type="MSShapeGroup"></path>
            <path d="M14,30.785061 L14,38.785061" id="Line" sketch:type="MSShapeGroup"></path>
            <path d="M14,12.9496951 L14,1.80259146" id="Line-5" sketch:type="MSShapeGroup"></path>
            <path d="M16.557377,8.48628049 C15.682377,5.68628049 14.932377,3.28628049 14.057377,0.486280488 C13.182377,3.28628049 12.432377,5.68628049 11.557377,8.48628049" id="Line-5-decoration-1" sketch:type="MSShapeGroup"></path>
            <ellipse id="Oval-33" sketch:type="MSShapeGroup" cx="1.64564943" cy="18.1920732" rx="1.64564943" ry="1.78353659"></ellipse>
            <ellipse id="Oval-34" sketch:type="MSShapeGroup" cx="36.7528374" cy="18.1920732" rx="1.64564943" ry="1.78353659"></ellipse>
            <ellipse id="Oval-35" sketch:type="MSShapeGroup" cx="36.7528374" cy="25.1371951" rx="1.64564943" ry="1.78353659"></ellipse>
            <path d="M40.7252522,27.1911031 L43.4200746,24.488775 L46.2163929,27.1911031 L48.6792245,24.488775 L51.3597436,27.2208598 L54.1046505,24.6933814 L56.5974796,27.2341654" id="Line" stroke-width="1.2" sketch:type="MSShapeGroup"></path>
            <path d="M40.1030775,18.6620249 L42.5092486,18.6620249 L42.5092486,15.9069152 L45.0709904,15.9069152 L45.0709904,18.7150731 L47.5148087,18.7150731 L47.5148087,15.772159 L49.941608,15.772159 L49.941608,18.8868671 L52.2880299,18.8868671 L52.2880299,15.8383031 L54.7935046,15.8383031 L54.7935046,18.8946792 L57.1418097,18.8946792" id="Path-167" stroke-width="1.2" sketch:type="MSShapeGroup"></path>
        </g>
    </g>
</svg>