<?xml version="1.0" encoding="UTF-8" standalone="no"?>
<svg width="60px" height="60px" viewBox="0 0 60 60" version="1.1" xmlns="http://www.w3.org/2000/svg" xmlns:xlink="http://www.w3.org/1999/xlink" xmlns:sketch="http://www.bohemiancoding.com/sketch/ns">
    <!-- Generator: Sketch 3.2 (9961) - http://www.bohemiancoding.com/sketch -->
    <title>programmable logic</title>
    <desc>Created with Sketch.</desc>
    <defs></defs>
    <g id="Page-1" stroke="none" stroke-width="1" fill="none" fill-rule="evenodd" sketch:type="MSPage">
        <g id="programmable-logic" sketch:type="MSLayerGroup" transform="translate(2.000000, 5.000000)">
            <rect id="Rectangle-62" stroke="#CC5555" stroke-width="2" sketch:type="MSShapeGroup" x="0" y="0" width="56" height="49"></rect>
            <ellipse id="Oval-44" stroke="#CC5555" sketch:type="MSShapeGroup" cx="7" cy="6.91025641" rx="1.90909091" ry="1.88461538"></ellipse>
            <ellipse id="Oval-45" stroke="#CC5555" sketch:type="MSShapeGroup" cx="17.1818182" cy="6.91025641" rx="1.90909091" ry="1.88461538"></ellipse>
            <ellipse id="Oval-46" stroke="#CC5555" sketch:type="MSShapeGroup" cx="27.3636364" cy="6.91025641" rx="1.90909091" ry="1.88461538"></ellipse>
            <ellipse id="Oval-47" stroke="#CC5555" sketch:type="MSShapeGroup" cx="37.5454545" cy="6.91025641" rx="1.90909091" ry="1.88461538"></ellipse>
            <ellipse id="Oval-48" stroke="#CC5555" sketch:type="MSShapeGroup" cx="49" cy="6.91025641" rx="1.90909091" ry="1.88461538"></ellipse>
            <ellipse id="Oval-44" stroke="#CC5555" sketch:type="MSShapeGroup" cx="7" cy="42.0897436" rx="1.90909091" ry="1.88461538"></ellipse>
            <ellipse id="Oval-45" stroke="#CC5555" sketch:type="MSShapeGroup" cx="17.1818182" cy="42.0897436" rx="1.90909091" ry="1.88461538"></ellipse>
            <ellipse id="Oval-46" stroke="#CC5555" sketch:type="MSShapeGroup" cx="27.3636364" cy="42.0897436" rx="1.90909091" ry="1.88461538"></ellipse>
            <ellipse id="Oval-47" stroke="#CC5555" sketch:type="MSShapeGroup" cx="37.5454545" cy="42.0897436" rx="1.90909091" ry="1.88461538"></ellipse>
            <ellipse id="Oval-48" stroke="#CC5555" sketch:type="MSShapeGroup" cx="49" cy="42.0897436" rx="1.90909091" ry="1.88461538"></ellipse>
            <ellipse id="Oval-46" stroke="#CC5555" sketch:type="MSShapeGroup" transform="translate(49.000000, 33.409091) rotate(-90.000000) translate(-49.000000, -33.409091) " cx="49" cy="33.4090909" rx="1.90909091" ry="1.88461538"></ellipse>
            <ellipse id="Oval-47" stroke="#CC5555" sketch:type="MSShapeGroup" transform="translate(49.000000, 24.500000) rotate(-90.000000) translate(-49.000000, -24.500000) " cx="49" cy="24.5" rx="1.90909091" ry="1.88461538"></ellipse>
            <ellipse id="Oval-48" stroke="#CC5555" sketch:type="MSShapeGroup" transform="translate(49.000000, 15.590909) rotate(-90.000000) translate(-49.000000, -15.590909) " cx="49" cy="15.5909091" rx="1.90909091" ry="1.88461538"></ellipse>
            <ellipse id="Oval-46" stroke="#CC5555" sketch:type="MSShapeGroup" transform="translate(7.000000, 33.409091) rotate(-90.000000) translate(-7.000000, -33.409091) " cx="7" cy="33.4090909" rx="1.90909091" ry="1.88461538"></ellipse>
            <ellipse id="Oval-47" stroke="#CC5555" sketch:type="MSShapeGroup" transform="translate(7.000000, 24.500000) rotate(-90.000000) translate(-7.000000, -24.500000) " cx="7" cy="24.5" rx="1.90909091" ry="1.88461538"></ellipse>
            <ellipse id="Oval-48" stroke="#CC5555" sketch:type="MSShapeGroup" transform="translate(7.000000, 15.590909) rotate(-90.000000) translate(-7.000000, -15.590909) " cx="7" cy="15.5909091" rx="1.90909091" ry="1.88461538"></ellipse>
            <path d="M13.5718217,28.8974359 L13.5718217,20.8031601 L19.1928267,20.8031601 L19.1928267,22.1724509 L15.2273615,22.1724509 L15.2273615,24.0883539 L18.6503019,24.0883539 L18.6503019,25.4576447 L15.2273615,25.4576447 L15.2273615,28.8974359 L13.5718217,28.8974359 L13.5718217,28.8974359 Z M20.5575285,28.8974359 L20.5575285,20.8031601 L23.2142223,20.8031601 C24.2209745,20.8031601 24.8772179,20.8436494 25.1829723,20.9246294 C25.65279,21.0460993 26.0461632,21.3102005 26.3631037,21.7169408 C26.6800442,22.1236812 26.838512,22.6491229 26.838512,23.2932818 C26.838512,23.7902043 26.74716,24.2079811 26.5644531,24.5466246 C26.3817462,24.8852682 26.1496374,25.1512097 25.8681197,25.3444573 C25.586602,25.537705 25.3004276,25.6656146 25.009588,25.7281902 C24.6143446,25.8054892 24.041996,25.8441381 23.2925248,25.8441381 L22.2130682,25.8441381 L22.2130682,28.8974359 L20.5575285,28.8974359 L20.5575285,28.8974359 Z M22.2130682,22.1724509 L22.2130682,24.4693259 L23.1191407,24.4693259 C23.7716651,24.4693259 24.2079179,24.4269962 24.427912,24.3423352 C24.6479059,24.2576744 24.8203563,24.1251637 24.9452681,23.9447992 C25.0701799,23.7644347 25.1326349,23.554626 25.1326349,23.3153671 C25.1326349,23.0208944 25.0450115,22.7779582 24.869762,22.586551 C24.6945126,22.3951438 24.4726576,22.2755161 24.2041903,22.2276642 C24.0065686,22.1908551 23.6094667,22.1724509 23.0128729,22.1724509 L22.2130682,22.1724509 L22.2130682,22.1724509 Z M32.0120739,25.9214369 L32.0120739,24.5576672 L35.5804333,24.5576672 L35.5804333,27.7821264 C35.2336631,28.1134081 34.7312266,28.4051157 34.073109,28.6572579 C33.4149914,28.9094001 32.7484942,29.0354693 32.0735973,29.0354693 C31.2159936,29.0354693 30.468398,28.8578681 29.8307884,28.5026605 C29.1931786,28.147453 28.7140463,27.6394952 28.3933771,26.9787723 C28.0727079,26.3180494 27.9123757,25.5993629 27.9123757,24.8226913 C27.9123757,23.9797634 28.0913511,23.2307099 28.4493075,22.5755083 C28.8072639,21.9203067 29.33114,21.4178703 30.0209517,21.0681841 C30.5467,20.7994778 31.2010791,20.6651267 31.9841087,20.6651267 C33.002047,20.6651267 33.7971829,20.8758555 34.3695402,21.2973194 C34.9418975,21.7187834 35.3101022,22.3012783 35.4741655,23.0448217 L33.8298118,23.3484951 C33.7142217,22.9509571 33.4970275,22.6371644 33.1782226,22.4071076 C32.8594178,22.1770508 32.4613838,22.0620242 31.9841087,22.0620242 C31.2607386,22.0620242 30.6855934,22.2883967 30.2586559,22.7411484 C29.8317184,23.1939 29.6182529,23.8656555 29.6182529,24.7564353 C29.6182529,25.7171522 29.8345149,26.4376791 30.2670455,26.9180376 C30.699576,27.3983961 31.2663317,27.6385717 31.9673295,27.6385717 C32.3140997,27.6385717 32.6617969,27.5713961 33.0104315,27.437043 C33.359066,27.3026899 33.6582907,27.1398122 33.9081143,26.948405 L33.9081143,25.9214369 L32.0120739,25.9214369 L32.0120739,25.9214369 Z M44.5013316,28.8974359 L42.7003729,28.8974359 L41.9844638,27.0588316 L38.7069425,27.0588316 L38.0301847,28.8974359 L36.2739702,28.8974359 L39.4675959,20.8031601 L41.2182173,20.8031601 L44.5013316,28.8974359 L44.5013316,28.8974359 Z M41.453125,25.6950621 L40.323331,22.6914564 L39.2159091,25.6950621 L41.453125,25.6950621 L41.453125,25.6950621 Z" id="FPGA" fill="#CC5555" sketch:type="MSShapeGroup"></path>
        </g>
    </g>
</svg>