<?xml version="1.0" encoding="UTF-8" standalone="no"?>
<svg width="60px" height="60px" viewBox="0 0 60 60" version="1.1" xmlns="http://www.w3.org/2000/svg" xmlns:xlink="http://www.w3.org/1999/xlink" xmlns:sketch="http://www.bohemiancoding.com/sketch/ns">
    <!-- Generator: Sketch 3.2 (9961) - http://www.bohemiancoding.com/sketch -->
    <title>rc network</title>
    <desc>Created with Sketch.</desc>
    <defs></defs>
    <g id="Page-1" stroke="none" stroke-width="1" fill="none" fill-rule="evenodd" sketch:type="MSPage">
        <g id="rc-network" sketch:type="MSLayerGroup" transform="translate(3.000000, 3.000000)" stroke="#CC5555" stroke-width="2">
            <rect id="Rectangle-62" sketch:type="MSShapeGroup" x="4.05" y="0" width="45.9" height="54"></rect>
            <path d="M0.675,10.125 L15.5434571,10.125 L19.369336,7.425 L23.236084,12.825 L27.3243164,7.425 L31.5588867,12.825 L35.7024903,7.425 L39.4387207,10.125 L53.3579268,10.125" id="Line" sketch:type="MSShapeGroup"></path>
            <path d="M0.675,20.925 L15.5434571,20.925 L19.369336,18.225 L23.236084,23.625 L27.3243164,18.225 L31.5588867,23.625 L35.7024903,18.225 L39.4387207,20.925 L53.3579268,20.925" id="Line-2" sketch:type="MSShapeGroup"></path>
            <path d="M0.675,33.075 L15.5434571,33.075 L19.369336,30.375 L23.236084,35.775 L27.3243164,30.375 L31.5588867,35.775 L35.7024903,30.375 L39.4387207,33.075 L53.3579268,33.075" id="Line-3" sketch:type="MSShapeGroup"></path>
            <path d="M0.675,43.875 L15.5434571,43.875 L19.369336,41.175 L23.236084,46.575 L27.3243164,41.175 L31.5588867,46.575 L35.7024903,41.175 L39.4387207,43.875 L53.3579268,43.875" id="Line-4" sketch:type="MSShapeGroup"></path>
        </g>
    </g>
</svg>