<?xml version="1.0" encoding="UTF-8" standalone="no"?>
<svg width="60px" height="60px" viewBox="0 0 60 60" version="1.1" xmlns="http://www.w3.org/2000/svg" xmlns:xlink="http://www.w3.org/1999/xlink" xmlns:sketch="http://www.bohemiancoding.com/sketch/ns">
    <!-- Generator: Sketch 3.2 (9961) - http://www.bohemiancoding.com/sketch -->
    <title>regulatorcircuits</title>
    <desc>Created with Sketch.</desc>
    <defs></defs>
    <g id="Page-1" stroke="none" stroke-width="1" fill="none" fill-rule="evenodd" sketch:type="MSPage">
        <g id="regulator" sketch:type="MSLayerGroup" transform="translate(1.000000, 11.000000)">
            <rect id="Rectangle-62" stroke="#CC5555" stroke-width="2" sketch:type="MSShapeGroup" x="9.66666667" y="0" width="38.6666667" height="29.25"></rect>
            <path d="M47.85,8 L57.5166667,8" id="Line" stroke="#CC5555" stroke-width="2" sketch:type="MSShapeGroup"></path>
            <path d="M27,28.7625 L27,38.5125" id="Line" stroke="#CC5555" stroke-width="2" sketch:type="MSShapeGroup"></path>
            <path d="M0.483333333,8 L10.15,8" id="Line-2" stroke="#CC5555" stroke-width="2" sketch:type="MSShapeGroup"></path>
            <path d="M24.5867513,23.8103759 L24.5867513,23.104834 L26.3935872,23.104834 L26.3935872,24.772998 C26.2180004,24.9443857 25.9635921,25.0952997 25.6303549,25.2257446 C25.2971175,25.3561896 24.9596372,25.4214111 24.6179037,25.4214111 C24.1836567,25.4214111 23.8051123,25.3295297 23.4822591,25.1457641 C23.1594059,24.9619986 22.9167977,24.6992083 22.7544271,24.3573853 C22.5920565,24.0155623 22.5108724,23.643752 22.5108724,23.2419433 C22.5108724,22.8058572 22.6014965,22.4183367 22.7827474,22.0793701 C22.9639983,21.7404036 23.2292625,21.4804696 23.5785482,21.2995605 C23.8447605,21.1605462 24.1761048,21.09104 24.5725912,21.09104 C25.0880234,21.09104 25.4906398,21.2000599 25.7804525,21.4181031 C26.0702651,21.6361461 26.2567053,21.937498 26.3397787,22.3221679 L25.5071615,22.4792725 C25.4486325,22.2736074 25.3386564,22.1112677 25.1772299,21.9922485 C25.0158032,21.8732294 24.814259,21.8137207 24.5725912,21.8137207 C24.2063132,21.8137207 23.915089,21.9308338 23.6989095,22.1650634 C23.4827301,22.3992931 23.374642,22.7468239 23.374642,23.207666 C23.374642,23.7046899 23.4841461,24.0774523 23.7031575,24.3259643 C23.922169,24.5744763 24.2091454,24.6987304 24.564095,24.6987304 C24.7396818,24.6987304 24.915738,24.6639774 25.0922688,24.5944703 C25.2687997,24.524963 25.4203118,24.4406987 25.5468099,24.3416748 L25.5468099,23.8103759 L24.5867513,23.8103759 L24.5867513,23.8103759 Z M27.1752279,25.35 L27.1752279,21.1624511 L27.9908529,21.1624511 L29.6900716,23.9589111 L29.6900716,21.1624511 L30.4688802,21.1624511 L30.4688802,25.35 L29.627767,25.35 L27.9540365,22.6192383 L27.9540365,25.35 L27.1752279,25.35 L27.1752279,25.35 Z M31.352474,21.1624511 L32.8846029,21.1624511 C33.2301124,21.1624511 33.4934887,21.1891111 33.6747396,21.2424317 C33.9182955,21.3147953 34.1269197,21.443334 34.3006185,21.6280518 C34.4743172,21.8127695 34.6064774,22.0389024 34.6971029,22.3064575 C34.7877284,22.5740126 34.8330404,22.9039287 34.8330404,23.2962158 C34.8330404,23.6408953 34.7905603,23.9379626 34.705599,24.1874268 C34.6017573,24.4921157 34.4535492,24.7387198 34.26097,24.927246 C34.1155917,25.0700691 33.9192396,25.1814693 33.6719075,25.2614502 C33.4868806,25.3204837 33.2395523,25.35 32.9299154,25.35 L31.352474,25.35 L31.352474,21.1624511 L31.352474,21.1624511 Z M32.1907552,21.8708496 L32.1907552,24.644458 L32.8166341,24.644458 C33.0507499,24.644458 33.219726,24.631128 33.3235677,24.6044678 C33.4595059,24.5701902 33.572314,24.5121098 33.6619954,24.4302246 C33.7516769,24.3483394 33.8248369,24.2136118 33.8814779,24.0260376 C33.9381187,23.8384634 33.9664388,23.5828142 33.9664388,23.2590821 C33.9664388,22.9353499 33.9381187,22.6868417 33.8814779,22.5135498 C33.8248369,22.3402579 33.7455409,22.2050542 33.6435872,22.1079346 C33.5416336,22.0108149 33.4123054,21.9451174 33.255599,21.9108398 C33.1385411,21.8841796 32.9091489,21.8708496 32.5674154,21.8708496 L32.1907552,21.8708496 L32.1907552,21.8708496 Z" id="GND" fill="#CC5555" sketch:type="MSShapeGroup"></path>
            <path d="M32.1520508,8.65693359 C32.1520508,8.23036896 32.2152988,7.87236472 32.3417968,7.58291016 C32.4361984,7.36962784 32.5650545,7.17824792 32.7283691,7.00876465 C32.8916838,6.83928138 33.0705719,6.71359904 33.2650391,6.63171386 C33.5236992,6.5212641 33.8220035,6.46604004 34.1599609,6.46604004 C34.7716828,6.46604004 35.2611473,6.65741996 35.6283691,7.04018554 C35.995591,7.42295113 36.1791992,7.95519679 36.1791992,8.63693848 C36.1791992,9.31296725 35.997007,9.84188039 35.6326172,10.2236938 C35.2682273,10.6055073 34.7811228,10.7964111 34.1712891,10.7964111 C33.5539032,10.7964111 33.0630227,10.6064594 32.6986328,10.2265503 C32.334243,9.84664112 32.1520508,9.32344083 32.1520508,8.65693359 L32.1520508,8.65693359 L32.1520508,8.65693359 Z M33.0158203,8.62836915 C33.0158203,9.10254143 33.1243804,9.46197388 33.3415039,9.70667725 C33.5586274,9.9513806 33.8342756,10.0737304 34.168457,10.0737304 C34.5026383,10.0737304 34.7768707,9.95233278 34.9911621,9.70953369 C35.2054535,9.46673462 35.3125976,9.10254149 35.3125976,8.61694335 C35.3125976,8.13705814 35.2082856,7.77905392 34.9996582,7.54291992 C34.7910309,7.30678592 34.5139665,7.18872071 34.168457,7.18872071 C33.8229475,7.18872071 33.5444672,7.30821413 33.3330078,7.54720459 C33.1215484,7.78619504 33.0158203,8.14657962 33.0158203,8.62836915 L33.0158203,8.62836915 L33.0158203,8.62836915 Z M36.8277343,6.53745117 L37.6660157,6.53745117 L37.6660157,8.80546875 C37.6660157,9.16538266 37.6763996,9.39865669 37.697168,9.50529785 C37.7330406,9.67668543 37.8184726,9.81426947 37.9534668,9.91805422 C38.088461,10.0218389 38.2730131,10.0737304 38.5071289,10.0737304 C38.7450207,10.0737304 38.9243809,10.0246953 39.0452149,9.92662349 C39.1660488,9.82855175 39.2387368,9.70810618 39.2632812,9.56528321 C39.2878257,9.42246023 39.3000976,9.18537764 39.3000976,8.85402832 L39.3000976,6.53745117 L40.1383789,6.53745117 L40.1383789,8.73691406 C40.1383789,9.23965095 40.1157229,9.59479877 40.0704101,9.80236813 C40.0250974,10.0099375 39.9415534,10.1851311 39.8197754,10.3279541 C39.6979974,10.470777 39.5351573,10.5845577 39.33125,10.6692993 C39.1273427,10.754041 38.8611345,10.7964111 38.5326172,10.7964111 C38.1361308,10.7964111 37.8354665,10.7502324 37.6306153,10.6578735 C37.4257639,10.5655147 37.2638677,10.4455452 37.1449218,10.2979614 C37.025976,10.1503777 36.9476239,9.99565515 36.9098633,9.83378906 C36.8551104,9.59384646 36.8277343,9.23965078 36.8277343,8.77119141 L36.8277343,6.53745117 L36.8277343,6.53745117 Z M41.956543,10.725 L41.956543,7.2458496 L40.7246093,7.2458496 L40.7246093,6.53745117 L44.0239258,6.53745117 L44.0239258,7.2458496 L42.7948242,7.2458496 L42.7948242,10.725 L41.956543,10.725 L41.956543,10.725 Z" id="OUT" fill="#CC5555" sketch:type="MSShapeGroup"></path>
            <path d="M13.9298177,10.725 L13.9298177,6.53745117 L14.768099,6.53745117 L14.768099,10.725 L13.9298177,10.725 L13.9298177,10.725 Z M15.5752279,10.725 L15.5752279,6.53745117 L16.3908529,6.53745117 L18.0900716,9.33391114 L18.0900716,6.53745117 L18.8688802,6.53745117 L18.8688802,10.725 L18.027767,10.725 L16.3540365,7.99423828 L16.3540365,10.725 L15.5752279,10.725 L15.5752279,10.725 Z" id="IN" fill="#CC5555" sketch:type="MSShapeGroup"></path>
        </g>
    </g>
</svg>