<?xml version="1.0" encoding="UTF-8" standalone="no"?>
<svg width="60px" height="60px" viewBox="0 0 60 60" version="1.1" xmlns="http://www.w3.org/2000/svg" xmlns:xlink="http://www.w3.org/1999/xlink" xmlns:sketch="http://www.bohemiancoding.com/sketch/ns">
    <!-- Generator: Sketch 3.2.2 (9983) - http://www.bohemiancoding.com/sketch -->
    <title>telecommunicationcircuits</title>
    <desc>Created with Sketch.</desc>
    <defs></defs>
    <g id="Page-1" stroke="none" stroke-width="1" fill="none" fill-rule="evenodd" sketch:type="MSPage">
        <g id="telecommunications" sketch:type="MSLayerGroup" transform="translate(5.000000, 0.000000)">
            <rect id="Rectangle-62" stroke="#CC5555" stroke-width="2" sketch:type="MSShapeGroup" x="9.44444444" y="9.50819672" width="32.1111111" height="38.0327869"></rect>
            <path d="M17,9.98360656 L17,0.475409836" id="Line" stroke="#CC5555" stroke-width="2" sketch:type="MSShapeGroup"></path>
            <path d="M32,9.98360656 L32,0.475409836" id="Line-2" stroke="#CC5555" stroke-width="2" sketch:type="MSShapeGroup"></path>
            <path d="M17,57.5245902 L17,48.0163934" id="Line-2" stroke="#CC5555" stroke-width="2" sketch:type="MSShapeGroup"></path>
            <path d="M32,57.5245902 L32,48.0163934" id="Line-3" stroke="#CC5555" stroke-width="2" sketch:type="MSShapeGroup"></path>
            <path d="M9.91666667,19 L0.472222222,19" id="Line" stroke="#CC5555" stroke-width="2" sketch:type="MSShapeGroup"></path>
            <path d="M9.91666667,36 L0.472222222,36" id="Line-2" stroke="#CC5555" stroke-width="2" sketch:type="MSShapeGroup"></path>
            <path d="M50.5277778,19 L41.0833333,19" id="Line-2" stroke="#CC5555" stroke-width="2" sketch:type="MSShapeGroup"></path>
            <path d="M50.5277778,36 L41.0833333,36" id="Line-3" stroke="#CC5555" stroke-width="2" sketch:type="MSShapeGroup"></path>
            <path d="M31.7609505,28.5461167 C33.7018871,26.97777 34.9444444,24.5693982 34.9444444,21.8688525 C34.9444444,19.4106555 33.9148961,17.1945456 32.2662269,15.6337207 L32.2662269,15.6337207 L31.598047,16.3064111 C33.0759667,17.6948516 34,19.6732139 34,21.8688525 C34,24.3069819 32.8605916,26.4771919 31.0886041,27.8692318 L31.7609505,28.5461167 L31.7609505,28.5461167 Z M30.4149469,27.1910273 C32.0185335,25.9765691 33.0555556,24.044633 33.0555556,21.8688525 C33.0555556,19.9357707 32.2369809,18.1951678 30.9297648,16.9792043 L30.9297648,16.9792043 L30.4098877,17.5025907 C31.5843799,18.5843127 32.3209876,20.1399799 32.3209876,21.8688525 C32.3209876,23.8406605 31.3628242,25.5871668 29.8896711,26.6622058 L30.4149469,27.1910273 L30.4149469,27.1910273 Z M29.0604569,25.8273941 C30.3301733,24.9752342 31.1666667,23.5203895 31.1666667,21.8688525 C31.1666667,20.4608745 30.5587031,19.1958527 29.5926487,18.3253463 L29.5926487,18.3253463 L29.2209921,18.6995116 C30.0923834,19.4738412 30.6419753,20.6067316 30.6419753,21.8688525 C30.6419753,23.3750049 29.8593097,24.697122 28.6810964,25.4454729 L29.0604569,25.8273941 L29.0604569,25.8273941 Z M27.6792707,24.4368845 C28.6254252,23.9749148 29.2777778,22.9985805 29.2777778,21.8688525 C29.2777778,20.9859273 28.8793199,20.1966951 28.2535634,19.6734707 L28.2535634,19.6734707 L28.0298774,19.8986666 C28.5991355,20.3635345 28.962963,21.0734184 28.962963,21.8688525 C28.962963,22.912495 28.3366511,23.8088671 27.441785,24.1977959 L27.6792707,24.4368845 L27.6792707,24.4368845 Z M25.900934,22.6465437 C26.0546313,22.7556143 26.2421073,22.8196721 26.4444444,22.8196721 C26.9660467,22.8196721 27.3888889,22.3939756 27.3888889,21.8688525 C27.3888889,21.5101418 27.1915809,21.1978259 26.9002661,21.035903 L26.9002661,21.035903 L26.8226114,21.1140819 C27.0962957,21.2533392 27.2839506,21.5390333 27.2839506,21.8688525 C27.2839506,22.3356287 26.9080909,22.7140255 26.4444444,22.7140255 C26.1168367,22.7140255 25.8330581,22.5251038 25.6947346,22.2495722 L25.6170799,22.327751 C25.6338001,22.3582396 25.6521346,22.3877054 25.6719676,22.4160317 L25.900934,22.6465437 L25.900934,22.6465437 Z" id="Oval-63" fill="#CC5555" sketch:type="MSShapeGroup"></path>
            <path d="M25,24.1915736 L25,19 L24,19 L24,24.6511822 C24.3678826,24.433184 24.7082438,24.2881059 25,24.1915736 Z M25,33.7097018 L25,39 L24,39 L24,33.3319698 C24.3520561,33.4833128 24.6977102,33.609372 25,33.7097018 Z M23,25.3938205 L23,19 C23,19 20.9079058,18.9122513 19,24 C17.0920942,29.0877487 17.9489133,32.3722833 19,35 C20.0510867,37.6277167 23,39 23,39 L23,32.8259391 C22.6032645,32.5862165 22.2485648,32.3106166 22,31.9999122 C20.9489133,30.6860602 20.0920942,29.043801 22,26.499939 C22.3317535,26.0576032 22.6690759,25.6935089 23,25.3938205 Z" id="Rectangle-18" fill="#CC5555" sketch:type="MSShapeGroup"></path>
        </g>
    </g>
</svg>