<?xml version="1.0" encoding="UTF-8" standalone="no"?>
<svg width="60px" height="60px" viewBox="0 0 60 60" version="1.1" xmlns="http://www.w3.org/2000/svg" xmlns:xlink="http://www.w3.org/1999/xlink" xmlns:sketch="http://www.bohemiancoding.com/sketch/ns">
    <!-- Generator: Sketch 3.2.2 (9983) - http://www.bohemiancoding.com/sketch -->
    <title>terminalblocks</title>
    <desc>Created with Sketch.</desc>
    <defs></defs>
    <g id="Page-1" stroke="none" stroke-width="1" fill="none" fill-rule="evenodd" sketch:type="MSPage">
        <g id="terminal-blocks" sketch:type="MSLayerGroup" transform="translate(5.000000, 14.000000)">
            <path d="M0.191216661,14.4215145 L14.1011192,19.1609929 L51.4880424,5.55326567 L37.5781399,0.813787297 L0.191216661,14.4215145 L0.191216661,14.4215145 Z" id="Rectangle-45" stroke="#CC5555" stroke-width="2" sketch:type="MSShapeGroup"></path>
            <path d="M13.4502016,18.4384399 L13.4413373,31.8160106 L51.1614521,17.6772867 L51.5156583,5.52916822 L13.4502016,18.4384399 L13.4502016,18.4384399 Z" id="Rectangle-46" stroke="#CC5555" stroke-width="2" sketch:type="MSShapeGroup"></path>
            <path d="M16.1064678,19.7996923 L16.0891751,28.5123674 L24.9629805,25.5154844 L24.9802731,16.8028092 L16.1064678,19.7996923 L16.1064678,19.7996923 Z" id="Rectangle-48" fill="#CC5555" sketch:type="MSShapeGroup"></path>
            <path d="M27.379262,15.7985811 L27.3619694,24.5112562 L37.5135643,20.8163778 L37.806641,12.3092341 L27.379262,15.7985811 L27.379262,15.7985811 Z" id="Rectangle-49" fill="#CC5555" sketch:type="MSShapeGroup"></path>
            <path d="M39.4904905,11.9149268 L39.2978692,19.8432926 L48.4199385,16.5231307 L48.6748033,8.57211036 L39.4904905,11.9149268 L39.4904905,11.9149268 Z" id="Rectangle-50" fill="#CC5555" sketch:type="MSShapeGroup"></path>
            <path d="M-0.792776658,14.4235921 L-0.78317102,27.0456228 L12.4617775,31.7866731 L12.6434425,18.7517852 L-0.792776658,14.4235921 L-0.792776658,14.4235921 Z" id="Rectangle-47" stroke="#CC5555" stroke-width="2" sketch:type="MSShapeGroup"></path>
            <path d="M14.0434506,15.6499702 C15.5003181,15.4968472 16.6188838,14.7784615 16.5418371,14.0454106 C16.4647903,13.3123598 15.2213071,12.8422354 13.7644397,12.9953583 C12.3075722,13.1484813 11.1890065,13.8668671 11.2660532,14.5999179 C11.3430999,15.3329687 12.5865831,15.8030931 14.0434506,15.6499702 L14.0434506,15.6499702 Z" id="Oval-41" stroke="#CC5555" stroke-width="2" sketch:type="MSShapeGroup"></path>
            <path d="M25.9793505,10.9820069 C27.436218,10.828884 28.5547837,10.1104982 28.4777369,9.37744738 C28.4006902,8.64439657 27.157207,8.17427214 25.7003395,8.32739509 C24.243472,8.48051803 23.1249063,9.1989038 23.2019531,9.93195461 C23.2789998,10.6650054 24.522483,11.1351298 25.9793505,10.9820069 L25.9793505,10.9820069 Z" id="Oval-42" stroke="#CC5555" stroke-width="2" sketch:type="MSShapeGroup"></path>
            <path d="M37.9152502,6.98089546 C39.3721177,6.82777252 40.4906834,6.10938675 40.4136367,5.37633594 C40.33659,4.64328513 39.0931068,4.1731607 37.6362393,4.32628364 C36.1793718,4.47940658 35.0608061,5.19779235 35.1378528,5.93084317 C35.2148996,6.66389398 36.4583828,7.1340184 37.9152502,6.98089546 L37.9152502,6.98089546 Z" id="Oval-43" stroke="#CC5555" stroke-width="2" sketch:type="MSShapeGroup"></path>
        </g>
    </g>
</svg>