<?xml version="1.0" encoding="UTF-8" standalone="no"?>
<svg width="60px" height="60px" viewBox="0 0 60 60" version="1.1" xmlns="http://www.w3.org/2000/svg" xmlns:xlink="http://www.w3.org/1999/xlink" xmlns:sketch="http://www.bohemiancoding.com/sketch/ns">
    <!-- Generator: Sketch 3.2.2 (9983) - http://www.bohemiancoding.com/sketch -->
    <title>thermalsupportdevices</title>
    <desc>Created with Sketch.</desc>
    <defs></defs>
    <g id="Page-1" stroke="none" stroke-width="1" fill="none" fill-rule="evenodd" sketch:type="MSPage">
        <g id="thermal-support-devices" sketch:type="MSLayerGroup" transform="translate(1.000000, 11.000000)">
            <path d="M24.0874317,29.9728985 C24.0874317,33.3015747 21.3845868,36 18.0655738,36 L18.0655738,36 C14.7397935,36 12.0437158,33.294005 12.0437158,29.9728985 L12.0437158,28.8128158 C12.0437158,25.4841395 14.3719233,21.4233175 17.2408866,19.7444868 L18.0655738,19.2619048 L18.8902609,19.7444868 C21.7605791,21.4241104 24.0874317,25.4917093 24.0874317,28.8128158 L24.0874317,29.9728985 Z" id="Rectangle-24" stroke="#CC5555" stroke-width="2" sketch:type="MSShapeGroup"></path>
            <path d="M6.26070806,24.0813817 C2.93203182,24.0813817 0.233606557,21.3785368 0.233606557,18.0595238 L0.233606557,18.0595238 C0.233606557,14.7337435 2.93960157,12.0376659 6.26070806,12.0376659 L7.42079076,12.0376659 C10.749467,12.0376659 14.810289,14.3658734 16.4891198,17.2348366 L16.9717018,18.0595238 L16.4891198,18.884211 C14.8094962,21.7545291 10.7418973,24.0813817 7.42079076,24.0813817 L6.26070806,24.0813817 Z" id="Rectangle-25" stroke="#CC5555" stroke-width="2" sketch:type="MSShapeGroup"></path>
            <path d="M29.8704395,12.0376659 C33.1991157,12.0376659 35.897541,14.7405108 35.897541,18.0595238 L35.897541,18.0595238 C35.897541,21.3853041 33.191546,24.0813817 29.8704395,24.0813817 L28.7103568,24.0813817 C25.3816805,24.0813817 21.3208585,21.7531742 19.6420278,18.884211 L19.1594457,18.0595238 L19.6420278,17.2348366 C21.3216513,14.3645185 25.3892503,12.0376659 28.7103568,12.0376659 L29.8704395,12.0376659 Z" id="Rectangle-26" stroke="#CC5555" stroke-width="2" sketch:type="MSShapeGroup"></path>
            <rect id="Rectangle-22" fill="#CC5555" sketch:type="MSShapeGroup" x="13.7642467" y="14.0952381" width="8.60265418" height="8.80952381" rx="40"></rect>
            <g id="Line-+-Line-2-+-Line-3" transform="translate(38.983607, 10.710526)" stroke="#CC5555" stroke-width="2" stroke-linecap="square" sketch:type="MSShapeGroup">
                <path d="M0.352155434,2.57739938 C0.352155434,2.57739938 1.36206772,-0.033772957 5.46732248,0.859133127 C9.57257725,1.75203921 10.4674798,4.84639342 13.0111867,5.17758944 C15.5548937,5.50878546 18.664238,2.57739938 18.664238,2.57739938" id="Line"></path>
                <path d="M0.352155434,7.84674923 C0.352155434,7.84674923 1.36206772,5.23557689 5.46732248,6.12848297 C9.57257725,7.02138906 10.4674798,10.1157433 13.0111867,10.4469393 C15.5548937,10.7781353 18.664238,7.84674923 18.664238,7.84674923" id="Line-2"></path>
                <path d="M0.352155434,13.1160991 C0.352155434,13.1160991 1.36206772,10.5049267 5.46732248,11.3978328 C9.57257725,12.2907389 10.4674798,15.3850931 13.0111867,15.7162891 C15.5548937,16.0474851 18.664238,13.1160991 18.664238,13.1160991" id="Line-3"></path>
            </g>
            <path d="M12.0437158,6.02710151 C12.0437158,2.69842526 14.7465608,0 18.0655738,0 L18.0655738,0 C21.3913541,0 24.0874317,2.70599501 24.0874317,6.02710151 L24.0874317,7.18718421 C24.0874317,10.5158605 21.7592242,14.5766825 18.8902609,16.2555132 L18.0655738,16.7380952 L17.2408866,16.2555132 C14.3705685,14.5758896 12.0437158,10.5082907 12.0437158,7.18718421 L12.0437158,6.02710151 Z" id="Path" stroke="#CC5555" stroke-width="2" sketch:type="MSShapeGroup"></path>
        </g>
    </g>
</svg>