<?xml version="1.0" encoding="UTF-8" standalone="no"?>
<svg width="60px" height="60px" viewBox="0 0 60 60" version="1.1" xmlns="http://www.w3.org/2000/svg" xmlns:xlink="http://www.w3.org/1999/xlink" xmlns:sketch="http://www.bohemiancoding.com/sketch/ns">
    <!-- Generator: Sketch 3.2 (9961) - http://www.bohemiancoding.com/sketch -->
    <title>transformers</title>
    <desc>Created with Sketch.</desc>
    <defs></defs>
    <g id="Page-1" stroke="none" stroke-width="1" fill="none" fill-rule="evenodd" sketch:type="MSPage">
        <g id="transformers" sketch:type="MSLayerGroup" transform="translate(11.000000, 9.000000)" stroke="#CC5555" stroke-width="2">
            <path d="M17,10.2857143 L17,30.1935484" id="Line" sketch:type="MSShapeGroup"></path>
            <path d="M20,10.2857143 L20,30.1935484" id="Line-69" sketch:type="MSShapeGroup"></path>
            <g id="Group" transform="translate(4.300000, 2.142857)" sketch:type="MSShapeGroup">
                <path d="M8,1.85714286 L8,8.87618583" id="Line-76"></path>
                <path d="M8,31.6034808 L8,38.1564626" id="Line-75"></path>
                <path d="M0,1 L9,1" id="Line-77"></path>
                <path d="M0,38 L9,38" id="Line-18"></path>
                <path d="M6.54738307,9.85894929 C6.54738307,13.2959246 11.1735641,13.4722067 11.1735641,9.85894929" id="Line" transform="translate(8.860474, 11.181074) rotate(270.000000) translate(-8.860474, -11.181074) "></path>
                <path d="M6.54738307,13.8827493 C6.54738307,17.3197246 11.1735641,17.4960067 11.1735641,13.8827493" id="Line-52" transform="translate(8.860474, 15.204874) rotate(270.000000) translate(-8.860474, -15.204874) "></path>
                <path d="M6.81600477,18.4565493 C6.81600477,21.8935246 11.4421859,22.0698067 11.4421859,18.4565493" id="Line-53" transform="translate(9.129095, 19.778674) rotate(270.000000) translate(-9.129095, -19.778674) "></path>
                <path d="M6.81600477,22.9940493 C6.81600477,26.4310246 11.4421859,26.6073067 11.4421859,22.9940493" id="Line-78" transform="translate(9.129095, 24.316174) rotate(270.000000) translate(-9.129095, -24.316174) "></path>
                <path d="M6.81600477,27.9440493 C6.81600477,31.3810246 11.4421859,31.5573067 11.4421859,27.9440493" id="Line-79" transform="translate(9.129095, 29.266174) rotate(270.000000) translate(-9.129095, -29.266174) "></path>
                <path d="M4.8,14.1428569 C6.62253967,14.1428569 8.1,12.7142854 8.1,12.7142854 C8.1,12.7142854 6.62253967,11.285714 4.8,11.285714 C2.97746033,11.285714 1.5,11.9253072 1.5,12.7142854 C1.5,13.5032636 2.97746033,14.1428569 4.8,14.1428569 L4.8,14.1428569 Z" id="Oval-15"></path>
                <path d="M4.8,18.7142854 C6.62253967,18.7142854 8.1,17.285714 8.1,17.285714 C8.1,17.285714 6.62253967,15.8571426 4.8,15.8571426 C2.97746033,15.8571426 1.5,16.4967358 1.5,17.285714 C1.5,18.0746922 2.97746033,18.7142854 4.8,18.7142854 L4.8,18.7142854 Z" id="Oval-17"></path>
                <path d="M4.8,23.285714 C6.62253967,23.285714 8.1,21.8571426 8.1,21.8571426 C8.1,21.8571426 6.62253967,20.4285711 4.8,20.4285711 C2.97746033,20.4285711 1.5,21.0681644 1.5,21.8571426 C1.5,22.6461208 2.97746033,23.285714 4.8,23.285714 L4.8,23.285714 Z" id="Oval-18"></path>
                <path d="M4.8,27.8571426 C6.62253967,27.8571426 8.1,26.4285711 8.1,26.4285711 C8.1,26.4285711 6.62253967,24.9999997 4.8,24.9999997 C2.97746033,24.9999997 1.5,25.6395929 1.5,26.4285711 C1.5,27.2175494 2.97746033,27.8571426 4.8,27.8571426 L4.8,27.8571426 Z" id="Oval-19"></path>
            </g>
            <g id="Group" sketch:type="MSShapeGroup">
                <path d="M25,3 L25,9.74658204" id="Line-70"></path>
                <path d="M25,33.2297363 L25,40.1291504" id="Line-74"></path>
                <path d="M24,3 L34,3" id="Line"></path>
                <circle id="Oval-23" cx="2" cy="3" r="2"></circle>
                <circle id="Oval-24" cx="2" cy="39.5714286" r="2"></circle>
                <circle id="Oval-25" cx="35.7" cy="39.5714286" r="2"></circle>
                <path d="M36.7570341,4.64331054 C37.9005885,4.64331054 38.7531738,3.79812355 38.7531738,2.69194493 C38.7531738,1.58576632 37.9005885,0.643310536 36.7570341,0.643310536 C35.6134799,0.643310536 34.7531738,1.58576627 34.7531738,2.69194489 C34.7531738,3.79812351 35.6134799,4.64331054 36.7570341,4.64331054 L36.7570341,4.64331054 Z" id="Oval-26"></path>
                <path d="M24,40 L34,40" id="Line-17"></path>
                <path d="M22.6264369,29.3539433 C22.6264369,32.7909187 27.2526179,32.9672007 27.2526179,29.3539433" id="Line" transform="translate(24.939527, 30.676069) rotate(90.000000) translate(-24.939527, -30.676069) "></path>
                <path d="M22.6264369,25.3301433 C22.6264369,28.7671187 27.2526179,28.9434007 27.2526179,25.3301433" id="Line-52" transform="translate(24.939527, 26.652269) rotate(90.000000) translate(-24.939527, -26.652269) "></path>
                <path d="M22.3578151,20.7563434 C22.3578151,24.1933187 26.9839962,24.3696008 26.9839962,20.7563434" id="Line-53" transform="translate(24.670906, 22.078469) rotate(90.000000) translate(-24.670906, -22.078469) "></path>
                <path d="M22.3578151,16.2188434 C22.3578151,19.6558187 26.9839962,19.8321008 26.9839962,16.2188434" id="Line-78" transform="translate(24.670906, 17.540969) rotate(90.000000) translate(-24.670906, -17.540969) "></path>
                <path d="M22.3578151,11.2688434 C22.3578151,14.7058187 26.9839962,14.8821008 26.9839962,11.2688434" id="Line-79" transform="translate(24.670906, 12.590969) rotate(90.000000) translate(-24.670906, -12.590969) "></path>
                <path d="M29.000001,30.571429 C30.8225407,30.571429 32.300001,29.1428576 32.300001,29.1428576 C32.300001,29.1428576 30.8225407,27.7142861 29.000001,27.7142861 C27.1774613,27.7142861 25.700001,28.3538794 25.700001,29.1428576 C25.700001,29.9318358 27.1774613,30.571429 29.000001,30.571429 L29.000001,30.571429 Z" id="Oval-15" transform="translate(29.000001, 29.142858) rotate(180.000000) translate(-29.000001, -29.142858) "></path>
                <path d="M29.000001,26.0000004 C30.8225407,26.0000004 32.300001,24.571429 32.300001,24.571429 C32.300001,24.571429 30.8225407,23.1428576 29.000001,23.1428576 C27.1774613,23.1428576 25.700001,23.7824508 25.700001,24.571429 C25.700001,25.3604072 27.1774613,26.0000004 29.000001,26.0000004 L29.000001,26.0000004 Z" id="Oval-17" transform="translate(29.000001, 24.571429) rotate(180.000000) translate(-29.000001, -24.571429) "></path>
                <path d="M29.000001,21.4285719 C30.8225407,21.4285719 32.300001,20.0000005 32.300001,20.0000005 C32.300001,20.0000005 30.8225407,18.571429 29.000001,18.571429 C27.1774613,18.571429 25.700001,19.2110222 25.700001,20.0000005 C25.700001,20.7889787 27.1774613,21.4285719 29.000001,21.4285719 L29.000001,21.4285719 Z" id="Oval-18" transform="translate(29.000001, 20.000000) rotate(180.000000) translate(-29.000001, -20.000000) "></path>
                <path d="M29.000001,16.8571433 C30.8225407,16.8571433 32.300001,15.4285718 32.300001,15.4285718 C32.300001,15.4285718 30.8225407,14.0000004 29.000001,14.0000004 C27.1774613,14.0000004 25.700001,14.6395936 25.700001,15.4285718 C25.700001,16.2175501 27.1774613,16.8571433 29.000001,16.8571433 L29.000001,16.8571433 Z" id="Oval-19" transform="translate(29.000001, 15.428572) rotate(180.000000) translate(-29.000001, -15.428572) "></path>
            </g>
        </g>
    </g>
</svg>