<?xml version="1.0" encoding="UTF-8" standalone="no"?>
<svg width="72px" height="63px" viewBox="0 0 72 63" version="1.1" xmlns="http://www.w3.org/2000/svg" xmlns:xlink="http://www.w3.org/1999/xlink" xmlns:sketch="http://www.bohemiancoding.com/sketch/ns">
    <!-- Generator: Sketch 3.5.2 (25235) - http://www.bohemiancoding.com/sketch -->
    <title>alt</title>
    <desc>Created with Sketch.</desc>
    <defs></defs>
    <g id="Resources" stroke="none" stroke-width="1" fill="none" fill-rule="evenodd" sketch:type="MSPage">
        <g id="Group" sketch:type="MSLayerGroup" transform="translate(-720.000000, -185.000000)" fill="#454C55">
            <path d="M746.769208,235.572245 L746.800851,235.538293 C750.691915,238.41939 755.494468,240.125 760.695319,240.125 C773.662979,240.125 784.171915,229.54561 784.171915,216.5 C784.171915,203.446707 773.662979,192.875 760.695319,192.875 C747.988085,192.875 737.64766,203.024146 737.241702,215.708659 L748.171915,215.708659 L734.085957,231.458659 L720,215.708659 L729.413617,215.708659 C729.827234,198.67561 743.668085,185 760.695319,185 C777.982979,185 792,199.098171 792,216.5 C792,233.894146 777.982979,248 760.695319,248 C754.32737,248 748.400304,246.083682 743.45485,242.793425 C742.705133,242.537128 742.055989,242.062873 741.582494,241.445965 C741.526904,241.402778 741.471462,241.359407 741.41617,241.315854 L741.456577,241.272499 C741.015581,240.629469 740.757447,239.850462 740.757447,239.01098 C740.757447,236.804535 742.540687,235.015858 744.740426,235.015858 C745.481346,235.015858 746.175016,235.218782 746.769208,235.572245 Z" id="alt" sketch:type="MSShapeGroup"></path>
        </g>
    </g>
</svg>