<?xml version="1.0" encoding="UTF-8" standalone="no"?>
<svg width="72px" height="72px" viewBox="0 0 72 72" version="1.1" xmlns="http://www.w3.org/2000/svg" xmlns:xlink="http://www.w3.org/1999/xlink" xmlns:sketch="http://www.bohemiancoding.com/sketch/ns">
    <!-- Generator: Sketch 3.5 (25232) - http://www.bohemiancoding.com/sketch -->
    <title>border-arrow-right</title>
    <desc>Created with Sketch.</desc>
    <defs></defs>
    <g id="Resources" stroke="none" stroke-width="1" fill="none" fill-rule="evenodd" sketch:type="MSPage">
        <path d="M36.0035197,42.1838064 L24.0287727,30.2090594 C23.0223553,29.202642 21.3976408,29.2066686 20.3930638,30.2112456 C19.3814831,31.2228263 19.387508,32.8435849 20.3908776,33.8469545 L34.0388644,47.4949413 C34.5759731,48.03205 35.2891843,48.2813656 35.9902521,48.244392 C36.7007609,48.2890543 37.4249506,48.0381657 37.9681749,47.4949413 L51.6161617,33.8469545 C52.6225791,32.8405371 52.6185525,31.2158226 51.6139755,30.2112456 C50.6023948,29.1996649 48.9816362,29.2056898 47.9782666,30.2090594 L36.0035197,42.1838064 Z M-1.13686838e-13,36 C-1.13686838e-13,16.117749 16.1133774,0 36,0 C55.882251,0 72,16.1133774 72,36 C72,55.882251 55.8866226,72 36,72 C16.117749,72 -1.13686838e-13,55.8866226 -1.13686838e-13,36 Z M6.42857143,36 C6.42857143,19.668151 19.66456,6.42857143 36,6.42857143 C52.331849,6.42857143 65.5714286,19.66456 65.5714286,36 C65.5714286,52.331849 52.33544,65.5714286 36,65.5714286 C19.668151,65.5714286 6.42857143,52.33544 6.42857143,36 Z" id="border-arrow-right" fill="#4B5463" sketch:type="MSShapeGroup" transform="translate(36.000000, 36.000000) rotate(-90.000000) translate(-36.000000, -36.000000) "></path>
    </g>
</svg>