<?xml version="1.0" encoding="UTF-8" standalone="no"?>
<svg width="66px" height="66px" viewBox="0 0 66 66" version="1.1" xmlns="http://www.w3.org/2000/svg" xmlns:xlink="http://www.w3.org/1999/xlink" xmlns:sketch="http://www.bohemiancoding.com/sketch/ns">
    <!-- Generator: Sketch 3.5 (25232) - http://www.bohemiancoding.com/sketch -->
    <title>close</title>
    <desc>Created with Sketch.</desc>
    <defs></defs>
    <g id="Resources" stroke="none" stroke-width="1" fill="none" fill-rule="evenodd" sketch:type="MSPage">
        <path d="M38.7894737,27.2105263 L38.7894737,-5.20906893 C38.7894737,-8.41398506 36.197438,-11 33,-11 C29.8090681,-11 27.2105263,-8.40731185 27.2105263,-5.20906893 L27.2105263,27.2105263 L-5.20906893,27.2105263 C-8.41398506,27.2105263 -11,29.802562 -11,33 C-11,36.1909319 -8.40731185,38.7894737 -5.20906893,38.7894737 L27.2105263,38.7894737 L27.2105263,71.2090689 C27.2105263,74.4139851 29.802562,77 33,77 C36.1909319,77 38.7894737,74.4073118 38.7894737,71.2090689 L38.7894737,38.7894737 L71.2090689,38.7894737 C74.4139851,38.7894737 77,36.197438 77,33 C77,29.8090681 74.4073118,27.2105263 71.2090689,27.2105263 L38.7894737,27.2105263 Z" id="close" fill="#454C55" sketch:type="MSShapeGroup" transform="translate(33.000000, 33.000000) rotate(-315.000000) translate(-33.000000, -33.000000) "></path>
    </g>
</svg>