<?xml version="1.0" encoding="UTF-8" standalone="no"?>
<svg width="39px" height="72px" viewBox="0 0 39 72" version="1.1" xmlns="http://www.w3.org/2000/svg" xmlns:xlink="http://www.w3.org/1999/xlink" xmlns:sketch="http://www.bohemiancoding.com/sketch/ns">
    <!-- Generator: Sketch 3.5 (25232) - http://www.bohemiancoding.com/sketch -->
    <title>dolar</title>
    <desc>Created with Sketch.</desc>
    <defs></defs>
    <g id="Resources" stroke="none" stroke-width="1" fill="none" fill-rule="evenodd" sketch:type="MSPage">
        <path d="M25.7067167,49.1476616 C25.7067167,47.1550084 25.2222578,45.6100948 24.2533253,44.5128744 C23.2843928,43.415654 21.5632885,42.3373674 19.0899609,41.2779821 C13.0723801,38.9069771 8.69312598,36.5044788 5.95206697,34.0704151 C3.21100795,31.6363515 1.84049901,28.06098 1.84049901,23.3441934 C1.84049901,19.081429 3.29387594,15.5691152 6.2006734,12.8071466 C9.10747086,10.045178 12.9831427,8.43720668 17.8278051,7.98318445 L17.8278051,0 L23.909101,0 L23.909101,8.13452444 C28.4987812,8.79033434 32.1322235,10.6568422 34.809537,13.734104 C37.4868504,16.8113659 38.7872403,20.7335547 38.7107456,25.5007882 L38.6342513,25.6899632 L25.9744467,25.6899632 C25.9744467,22.9406063 25.4389921,20.8912311 24.3680667,19.5417761 C23.2971413,18.1923212 21.8692622,17.5176038 20.0843866,17.5176038 C18.2740127,17.5176038 16.9353761,18.0725115 16.0684365,19.1823437 C15.2014969,20.2921758 14.7680336,21.7046683 14.7680336,23.4198634 C14.7680336,25.160282 15.2333692,26.5727744 16.1640544,27.6573831 C17.0947395,28.7419918 18.8349672,29.8391957 21.3847895,30.9490279 C27.3003773,33.4461502 31.6477592,35.9369292 34.4270655,38.4214398 C37.2063719,40.9059504 38.5960042,44.4560988 38.5960042,49.0719916 C38.5960042,53.4608732 37.1999974,56.9921043 34.407942,59.6657909 C31.6158865,62.3394774 27.8613294,63.9159198 23.1441581,64.3951655 L23.1441581,72 L17.0628622,72 L17.0628622,64.3573305 C12.1162069,63.8780848 8.01105453,62.1692212 4.74728194,59.2306884 C1.48350935,56.2921556 -0.0973567888,51.9853148 0.00463610462,46.3100368 L0.119377536,46.0830268 L12.7026878,46.0830268 C12.7026878,49.2107356 13.3911296,51.4618954 14.7680336,52.8365738 C16.1449377,54.2112523 17.9297865,54.8985812 20.1226337,54.8985812 C21.9585058,54.8985812 23.3481382,54.3688965 24.2915724,53.3095113 C25.2350067,52.2501261 25.7067167,50.8628567 25.7067167,49.1476616 L25.7067167,49.1476616 Z" id="dolar" fill="#454C55" sketch:type="MSShapeGroup"></path>
    </g>
</svg>