<?xml version="1.0" encoding="UTF-8" standalone="no"?>
<svg width="72px" height="63px" viewBox="0 0 72 63" version="1.1" xmlns="http://www.w3.org/2000/svg" xmlns:xlink="http://www.w3.org/1999/xlink" xmlns:sketch="http://www.bohemiancoding.com/sketch/ns">
    <!-- Generator: Sketch 3.5 (25232) - http://www.bohemiancoding.com/sketch -->
    <title>history</title>
    <desc>Created with Sketch.</desc>
    <defs></defs>
    <g id="Resources" stroke="none" stroke-width="1" fill="none" fill-rule="evenodd" sketch:type="MSPage">
        <path d="M37.9148936,14.597561 L37.9148936,32.6140244 L49.427234,44.1537805 L53.2110638,40.3507317 L43.2765957,30.3859756 L43.2765957,14.597561 L37.9148936,14.597561 L37.9148936,14.597561 Z M26.7692076,50.5722449 L26.8008511,50.5382927 C30.6919149,53.4193902 35.4944681,55.125 40.6953191,55.125 C53.6629787,55.125 64.1719149,44.5456098 64.1719149,31.5 C64.1719149,18.4467073 53.6629787,7.875 40.6953191,7.875 C27.9880851,7.875 17.6476596,18.0241463 17.2417021,30.7086585 L28.1719149,30.7086585 L14.0859574,46.4586585 L0,30.7086585 L9.41361702,30.7086585 C9.82723404,13.6756098 23.6680851,0 40.6953191,0 C57.9829787,0 72,14.0981707 72,31.5 C72,48.8941463 57.9829787,63 40.6953191,63 C34.3273699,63 28.4003036,61.0836822 23.45485,57.7934247 C22.7051332,57.5371276 22.0559891,57.0628727 21.5824936,56.4459647 C21.5269039,56.4027779 21.4714625,56.3594072 21.4161702,56.3158537 L21.456577,56.2724987 C21.0155815,55.6294686 20.7574471,54.8504616 20.7574471,54.0109802 C20.7574471,51.8045353 22.5406874,50.0158583 24.7404257,50.0158583 C25.4813465,50.0158583 26.1750159,50.2187824 26.7692076,50.5722449 Z" id="history" fill="#454C55" sketch:type="MSShapeGroup"></path>
    </g>
</svg>