<?xml version="1.0" encoding="UTF-8" standalone="no"?>
<svg width="72px" height="72px" viewBox="0 0 72 72" version="1.1" xmlns="http://www.w3.org/2000/svg" xmlns:xlink="http://www.w3.org/1999/xlink" xmlns:sketch="http://www.bohemiancoding.com/sketch/ns">
    <!-- Generator: Sketch 3.5 (25232) - http://www.bohemiancoding.com/sketch -->
    <title>info</title>
    <desc>Created with Sketch.</desc>
    <defs></defs>
    <g id="Resources" stroke="none" stroke-width="1" fill="none" fill-rule="evenodd" sketch:type="MSPage">
        <path d="M0,36 C0,55.89 16.11,72 36,72 C55.89,72 72,55.89 72,36 C72,16.11 55.89,0 36,0 C16.11,0 0,16.11 0,36 Z M6.35294118,36 C6.35294118,52.38 19.62,65.6470588 36,65.6470588 C52.38,65.6470588 65.6470588,52.38 65.6470588,36 C65.6470588,19.62 52.38,6.35294118 36,6.35294118 C19.62,6.35294118 6.35294118,19.62 6.35294118,36 Z M39.1764706,50.8328947 C39.1764706,51.9972666 38.2253711,52.9411765 37.0610332,52.9411765 L34.9389668,52.9411765 C33.770643,52.9411765 32.8235294,51.9991688 32.8235294,50.8328947 L32.8235294,31.7553406 C32.8235294,30.5909687 33.7746289,29.6470588 34.9389668,29.6470588 L37.0610332,29.6470588 C38.229357,29.6470588 39.1764706,30.5890665 39.1764706,31.7553406 L39.1764706,50.8328947 Z M36,27.5294118 C38.3390884,27.5294118 40.2352941,25.633206 40.2352941,23.2941176 C40.2352941,20.9550293 38.3390884,19.0588235 36,19.0588235 C33.6609116,19.0588235 31.7647059,20.9550293 31.7647059,23.2941176 C31.7647059,25.633206 33.6609116,27.5294118 36,27.5294118 Z" id="info" fill="#454C55" sketch:type="MSShapeGroup"></path>
    </g>
</svg>