<?xml version="1.0" encoding="UTF-8" standalone="no"?>
<svg width="59px" height="72px" viewBox="0 0 59 72" version="1.1" xmlns="http://www.w3.org/2000/svg" xmlns:xlink="http://www.w3.org/1999/xlink" xmlns:sketch="http://www.bohemiancoding.com/sketch/ns">
    <!-- Generator: Sketch 3.5 (25232) - http://www.bohemiancoding.com/sketch -->
    <title>locked</title>
    <desc>Created with Sketch.</desc>
    <defs></defs>
    <g id="Resources" stroke="none" stroke-width="1" fill="none" fill-rule="evenodd" sketch:type="MSPage">
        <path d="M32.7777778,48.2208862 C34.7368804,47.0905439 36.0555556,44.9722289 36.0555556,42.5454545 C36.0555556,38.9378555 33.129132,36 29.5192057,36 L29.4807943,36 C25.8705147,36 22.9444444,38.9304998 22.9444444,42.5454545 C22.9444444,44.9672262 24.2632083,47.0871846 26.2222222,48.2191951 L26.2222222,55.6369937 C26.2222222,57.4425265 27.6897333,58.9090909 29.5,58.9090909 C31.3065832,58.9090909 32.7777778,57.4441231 32.7777778,55.6369937 L32.7777778,48.2208862 Z M9.83333333,26.1818182 L6.59631199,26.1818182 C2.94600514,26.1818182 0,29.1318181 0,32.7708274 L0,65.4109908 C0,69.0466282 2.95326947,72 6.59631199,72 L52.403688,72 C56.0539949,72 59,69.0500001 59,65.4109908 L59,32.7708274 C59,29.1351899 56.0467305,26.1818182 52.403688,26.1818182 L49.1666667,26.1818182 L49.1666667,6.5788697 C49.1666667,2.9463874 46.2191263,0 42.583151,0 L16.416849,0 C12.7897262,0 9.83333333,2.94546029 9.83333333,6.5788697 L9.83333333,26.1818182 Z M19.6666667,13.1099236 C19.6666667,11.2919448 21.1448631,9.81818182 22.9584245,9.81818182 L36.0415755,9.81818182 C37.8595632,9.81818182 39.3333333,11.2992062 39.3333333,13.1099236 L39.3333333,22.8900764 C39.3333333,24.7080552 37.8551369,26.1818182 36.0415755,26.1818182 L22.9584245,26.1818182 C21.1404368,26.1818182 19.6666667,24.7007938 19.6666667,22.8900764 L19.6666667,13.1099236 Z" id="locked" fill="#454C55" sketch:type="MSShapeGroup"></path>
    </g>
</svg>