<?xml version="1.0" encoding="UTF-8" standalone="no"?>
<svg width="59px" height="72px" viewBox="0 0 59 72" version="1.1" xmlns="http://www.w3.org/2000/svg" xmlns:xlink="http://www.w3.org/1999/xlink" xmlns:sketch="http://www.bohemiancoding.com/sketch/ns">
    <!-- Generator: Sketch 3.5 (25232) - http://www.bohemiancoding.com/sketch -->
    <title>notes</title>
    <desc>Created with Sketch.</desc>
    <defs></defs>
    <g id="Resources" stroke="none" stroke-width="1" fill="none" fill-rule="evenodd" sketch:type="MSPage">
        <path d="M32.7777778,6.54545455 L41.5193109,6.54545455 C43.9325622,6.54545455 45.8888889,8.50871289 45.8888889,10.9090291 L45.8888889,12.0000619 C45.8888889,12.3767302 45.8411975,12.7422517 45.7514928,13.0909091 L52.4605407,13.0909091 C56.0721843,13.0909091 59,16.0122201 59,19.634465 L59,65.4564441 C59,69.0703502 56.0741808,72 52.4605407,72 L6.53945935,72 C2.92781568,72 0,69.078689 0,65.4564441 L0,19.634465 C0,16.0205589 2.92581917,13.0909091 6.53945935,13.0909091 L13.2495904,13.0909091 C13.1591969,12.7419569 13.1111111,12.3763808 13.1111111,12.0000619 L13.1111111,10.9090291 C13.1111111,8.4990934 15.0633497,6.54545455 17.4806891,6.54545455 L26.2222222,6.54545455 L26.2222222,3.26931238 C26.2222222,1.46372101 27.6934168,0 29.5,0 C31.3102667,0 32.7777778,1.46988102 32.7777778,3.26931238 L32.7777778,6.54545455 Z M52.4444444,27.2727273 L52.4444444,24.0088485 C52.4444444,21.5904565 50.4930837,19.6363636 48.0859583,19.6363636 L10.9140417,19.6363636 C8.51266399,19.6363636 6.55555556,21.5939918 6.55555556,24.0088485 L6.55555556,27.2727273 L52.4444444,27.2727273 Z M52.4444444,30.5454545 L52.4444444,61.0820605 C52.4444444,63.4969173 50.487336,65.4545455 48.0859583,65.4545455 L10.9140417,65.4545455 C8.50691626,65.4545455 6.55555556,63.5004526 6.55555556,61.0820605 L6.55555556,30.5454545 L52.4444444,30.5454545 Z M13.9935897,37.0909091 C13.9935897,35.8859242 14.9645201,34.9090909 16.1824687,34.9090909 L28.9500099,34.9090909 C30.1588944,34.9090909 31.1388889,35.8775232 31.1388889,37.0909091 C31.1388889,38.295894 30.1679585,39.2727273 28.9500099,39.2727273 L16.1824687,39.2727273 C14.9735842,39.2727273 13.9935897,38.3042949 13.9935897,37.0909091 Z M13.9935897,45.8181818 C13.9935897,44.6131969 14.9646045,43.6363636 16.1776925,43.6363636 L46.1000852,43.6363636 C47.3063319,43.6363636 48.284188,44.604796 48.284188,45.8181818 C48.284188,47.0231667 47.3131733,48 46.1000852,48 L16.1776925,48 C14.9714459,48 13.9935897,47.0315677 13.9935897,45.8181818 Z M13.9935897,54.5454545 C13.9935897,53.3404696 14.9703595,52.3636364 16.1751934,52.3636364 L37.5299348,52.3636364 C38.7348012,52.3636364 39.7115385,53.3320687 39.7115385,54.5454545 C39.7115385,55.7504395 38.7347687,56.7272727 37.5299348,56.7272727 L16.1751934,56.7272727 C14.970327,56.7272727 13.9935897,55.7588404 13.9935897,54.5454545 Z M19.6666667,11.4545455 C19.6666667,10.5508068 20.3899378,9.81818182 21.309609,9.81818182 L37.690391,9.81818182 C38.597763,9.81818182 39.3333333,10.5445061 39.3333333,11.4545455 C39.3333333,12.3582841 38.6100622,13.0909091 37.690391,13.0909091 L21.309609,13.0909091 C20.402237,13.0909091 19.6666667,12.3645848 19.6666667,11.4545455 Z" id="notes" fill="#454C55" sketch:type="MSShapeGroup"></path>
    </g>
</svg>