<?xml version="1.0" encoding="UTF-8" standalone="no"?>
<svg width="72px" height="56px" viewBox="0 0 72 56" version="1.1" xmlns="http://www.w3.org/2000/svg" xmlns:xlink="http://www.w3.org/1999/xlink" xmlns:sketch="http://www.bohemiancoding.com/sketch/ns">
    <!-- Generator: Sketch 3.5 (25232) - http://www.bohemiancoding.com/sketch -->
    <title>quoteup</title>
    <desc>Created with Sketch.</desc>
    <defs></defs>
    <g id="Resources" stroke="none" stroke-width="1" fill="none" fill-rule="evenodd" sketch:type="MSPage">
        <g id="Group" sketch:type="MSLayerGroup" transform="translate(-180.000000, -188.000000)" fill="#454C55">
            <path d="M213.366084,229.664 C213.366084,233.994688 211.928558,237.466654 209.053461,240.08 C206.178365,242.693346 202.546718,244 198.158413,244 C192.862183,244 188.511773,242.282684 185.107054,238.848 C181.702334,235.413316 180,230.485365 180,224.064 C180,217.194632 182.004971,210.437367 186.014974,203.792 C190.024977,197.146633 195.661595,191.882686 202.924997,188 L208.145541,195.84 C204.211198,198.528013 201.071337,201.51465 198.725864,204.8 C196.38039,208.08535 194.829375,211.893312 194.07277,216.224 C195.434658,215.626664 197.023503,215.328 198.839354,215.328 C203.076338,215.328 206.556666,216.671987 209.280441,219.36 C212.004217,222.048013 213.366084,225.482646 213.366084,229.664 L213.366084,229.664 Z M252,229.664 C252,233.994688 250.562473,237.466654 247.687377,240.08 C244.81228,242.693346 241.180634,244 236.792329,244 C231.496099,244 227.145689,242.282684 223.740969,238.848 C220.33625,235.413316 218.633916,230.485365 218.633916,224.064 C218.633916,217.194632 220.638887,210.437367 224.64889,203.792 C228.658893,197.146633 234.295511,191.882686 241.558912,188 L246.779456,195.84 C242.845114,198.528013 239.705253,201.51465 237.359779,204.8 C235.014306,208.08535 233.46329,211.893312 232.706686,216.224 C234.068574,215.626664 235.657419,215.328 237.473269,215.328 C241.710254,215.328 245.190581,216.671987 247.914357,219.36 C250.638133,222.048013 252,225.482646 252,229.664 L252,229.664 Z" id="quoteup" sketch:type="MSShapeGroup"></path>
        </g>
    </g>
</svg>