<?xml version="1.0" encoding="UTF-8" standalone="no"?>
<svg width="72px" height="56px" viewBox="0 0 72 56" version="1.1" xmlns="http://www.w3.org/2000/svg" xmlns:xlink="http://www.w3.org/1999/xlink" xmlns:sketch="http://www.bohemiancoding.com/sketch/ns">
    <!-- Generator: Sketch 3.5 (25232) - http://www.bohemiancoding.com/sketch -->
    <title>quotedown</title>
    <desc>Created with Sketch.</desc>
    <defs></defs>
    <g id="Resources" stroke="none" stroke-width="1" fill="none" fill-rule="evenodd" sketch:type="MSPage">
        <g id="Group" sketch:type="MSLayerGroup" transform="translate(-270.000000, -188.000000)" fill="#454C55">
            <path d="M303.366084,229.664 C303.366084,233.994688 301.928558,237.466654 299.053461,240.08 C296.178365,242.693346 292.546718,244 288.158413,244 C282.862183,244 278.511773,242.282684 275.107054,238.848 C271.702334,235.413316 270,230.485365 270,224.064 C270,217.194632 272.004971,210.437367 276.014974,203.792 C280.024977,197.146633 285.661595,191.882686 292.924997,188 L298.145541,195.84 C294.211198,198.528013 291.071337,201.51465 288.725864,204.8 C286.38039,208.08535 284.829375,211.893312 284.07277,216.224 C285.434658,215.626664 287.023503,215.328 288.839354,215.328 C293.076338,215.328 296.556666,216.671987 299.280441,219.36 C302.004217,222.048013 303.366084,225.482646 303.366084,229.664 L303.366084,229.664 Z M342,229.664 C342,233.994688 340.562473,237.466654 337.687377,240.08 C334.81228,242.693346 331.180634,244 326.792329,244 C321.496099,244 317.145689,242.282684 313.740969,238.848 C310.33625,235.413316 308.633916,230.485365 308.633916,224.064 C308.633916,217.194632 310.638887,210.437367 314.64889,203.792 C318.658893,197.146633 324.295511,191.882686 331.558912,188 L336.779456,195.84 C332.845114,198.528013 329.705253,201.51465 327.359779,204.8 C325.014306,208.08535 323.46329,211.893312 322.706686,216.224 C324.068574,215.626664 325.657419,215.328 327.473269,215.328 C331.710254,215.328 335.190581,216.671987 337.914357,219.36 C340.638133,222.048013 342,225.482646 342,229.664 L342,229.664 Z" id="quotedown" sketch:type="MSShapeGroup" transform="translate(306.000000, 216.000000) rotate(-180.000000) translate(-306.000000, -216.000000) "></path>
        </g>
    </g>
</svg>