<?xml version="1.0" encoding="UTF-8" standalone="no"?>
<svg width="72px" height="72px" viewBox="0 0 72 72" version="1.1" xmlns="http://www.w3.org/2000/svg" xmlns:xlink="http://www.w3.org/1999/xlink" xmlns:sketch="http://www.bohemiancoding.com/sketch/ns">
    <!-- Generator: Sketch 3.5 (25232) - http://www.bohemiancoding.com/sketch -->
    <title>Rectangle 11</title>
    <desc>Created with Sketch.</desc>
    <defs></defs>
    <g id="Resources" stroke="none" stroke-width="1" fill="none" fill-rule="evenodd" sketch:type="MSPage">
        <path d="M0,36 C0,16.117749 16.1133774,0 36,0 C55.882251,0 72,16.1133774 72,36 C72,55.882251 55.8866226,72 36,72 C16.117749,72 0,55.8866226 0,36 Z M32.3203125,43.890625 C32.3359376,41.6249887 32.5312481,40.0546919 32.90625,39.1796875 C33.2812519,38.3046831 34.265617,37.1484447 35.859375,35.7109375 C37.4062577,33.8828034 38.5078092,32.4765674 39.1640625,31.4921875 C39.8203158,30.5078076 40.1484375,29.3203195 40.1484375,27.9296875 C40.1484375,26.2734292 39.7070357,25.0000045 38.8242187,24.109375 C37.9414018,23.2187455 36.6796957,22.7734375 35.0390625,22.7734375 C33.6171804,22.7734375 32.406255,23.1601524 31.40625,23.9335937 C30.406245,24.7070351 29.90625,25.8437425 29.90625,27.34375 L25.5,27.34375 L25.4296875,27.203125 C25.3828123,24.6874874 26.2695221,22.6718826 28.0898437,21.15625 C29.9101654,19.6406174 32.2265484,18.8828125 35.0390625,18.8828125 C38.1172029,18.8828125 40.507804,19.6679609 42.2109375,21.2382812 C43.914071,22.8086016 44.765625,24.9999859 44.765625,27.8125 C44.765625,29.8281351 44.2148493,31.6718666 43.1132812,33.34375 C42.0117132,35.0156334 40.5546966,36.7265537 38.7421875,38.4765625 C37.8984333,39.3203167 37.3867196,40.0781216 37.2070312,40.75 C37.0273429,41.4218784 36.9375,42.4687429 36.9375,43.890625 L32.3203125,43.890625 Z M37.1015625,53.5 L32.2734375,53.5 L32.2734375,48.625 L37.1015625,48.625 L37.1015625,53.5 Z" id="Rectangle-11" fill="#454C55" sketch:type="MSShapeGroup"></path>
    </g>
</svg>