<?xml version="1.0" encoding="UTF-8" standalone="no"?>
<svg width="74px" height="72px" viewBox="0 0 74 72" version="1.1" xmlns="http://www.w3.org/2000/svg" xmlns:xlink="http://www.w3.org/1999/xlink" xmlns:sketch="http://www.bohemiancoding.com/sketch/ns">
    <!-- Generator: Sketch 3.5 (25232) - http://www.bohemiancoding.com/sketch -->
    <title>search</title>
    <desc>Created with Sketch.</desc>
    <defs></defs>
    <g id="Resources" stroke="none" stroke-width="1" fill="none" fill-rule="evenodd" sketch:type="MSPage">
        <path d="M53.517572,44.2938125 C60.5264179,33.1110277 59.1708488,18.1874814 49.4478676,8.4645002 C38.1435649,-2.83980246 19.8095234,-2.83365676 8.49763961,8.47822699 C-2.81424414,19.7901107 -2.82038984,38.1241523 8.48391282,49.428455 C18.844475,59.7890172 35.1100153,60.648807 46.4623689,52.0114508 C46.7449096,52.7112447 47.1696349,53.3669416 47.7367575,53.9340642 L64.1040949,70.3014016 C66.3652869,72.5625936 70.0353953,72.5646645 72.297772,70.3022878 C74.5555453,68.0445145 74.559752,64.3714768 72.2968859,62.1086107 L55.9295484,45.7412732 C55.2320569,45.0437817 54.4005088,44.5612427 53.517572,44.2938125 Z M41.2468406,41.2274279 C48.0339708,34.4402977 48.0376582,23.4398727 41.2550766,16.6572912 C34.472495,9.87470956 23.4720701,9.87839698 16.6849398,16.6655272 C9.8978096,23.4526575 9.89412218,34.4530824 16.6767038,41.235664 C23.4592854,48.0182456 34.4597103,48.0145582 41.2468406,41.2274279 Z" id="search" fill="#454C55" sketch:type="MSShapeGroup"></path>
    </g>
</svg>