<?xml version="1.0" encoding="UTF-8" standalone="no"?>
<svg width="59px" height="72px" viewBox="0 0 59 72" version="1.1" xmlns="http://www.w3.org/2000/svg" xmlns:xlink="http://www.w3.org/1999/xlink" xmlns:sketch="http://www.bohemiancoding.com/sketch/ns">
    <!-- Generator: Sketch 3.5 (25232) - http://www.bohemiancoding.com/sketch -->
    <title>unlocked</title>
    <desc>Created with Sketch.</desc>
    <defs></defs>
    <g id="Resources" stroke="none" stroke-width="1" fill="none" fill-rule="evenodd" sketch:type="MSPage">
        <path d="M49.1666667,25.9842671 L49.1666667,26.1818182 L52.403688,26.1818182 C56.0467305,26.1818182 59,29.1351899 59,32.7708274 L59,65.4109908 C59,69.0500001 56.0539949,72 52.403688,72 L6.59631199,72 C2.95326947,72 0,69.0466282 0,65.4109908 L0,32.7708274 C0,29.1318181 2.94600514,26.1818182 6.59631199,26.1818182 L9.83333333,26.1818182 L9.83333333,6.5788697 C9.83333333,2.94546029 12.7897262,0 16.416849,0 L42.583151,0 C46.2191263,0 49.1666667,2.9463874 49.1666667,6.5788697 L49.1666667,10.0169464 C48.8142776,9.8883985 48.4338413,9.81818182 48.0370464,9.81818182 L22.966287,9.81818182 C21.1411626,9.81818182 19.6666667,11.2919448 19.6666667,13.1099236 L19.6666667,22.8900764 C19.6666667,24.7007938 21.143957,26.1818182 22.966287,26.1818182 L48.0370464,26.1818182 C48.4340301,26.1818182 48.8144253,26.1120933 49.1666667,25.9842671 Z M32.7777778,48.2208862 C34.7368804,47.0905439 36.0555556,44.9722289 36.0555556,42.5454545 C36.0555556,38.9378555 33.129132,36 29.5192057,36 L29.4807943,36 C25.8705147,36 22.9444444,38.9304998 22.9444444,42.5454545 C22.9444444,44.9672262 24.2632083,47.0871846 26.2222222,48.2191951 L26.2222222,55.6369937 C26.2222222,57.4425265 27.6897333,58.9090909 29.5,58.9090909 C31.3065832,58.9090909 32.7777778,57.4441231 32.7777778,55.6369937 L32.7777778,48.2208862 Z" id="unlocked" fill="#454C55" sketch:type="MSShapeGroup"></path>
    </g>
</svg>