<svg xmlns="http://www.w3.org/2000/svg" width="36" height="36" viewBox="0 0 36 36">
  <path fill="#000000" d="M18,18.7555556 C13.3400974,18.7555556 9.5625,14.9499759 9.5625,10.2555556 C9.5625,5.56113518 13.3400974,1.75555556 18,1.75555556 C22.6599026,1.75555556 26.4375,5.56113518 26.4375,10.2555556 C26.4375,14.9499759 22.6599026,18.7555556 18,18.7555556 Z M17.8125,22.1555556 C23.8125,22.1555556 29.0625,24.2333333 32.625,26.8777778 L32.625,33.8666667 C32.625,34.4333333 32.0625,35 31.5,35 L4.5,35 C3.9375,35 3.375,34.4333333 3.375,33.8666667 L3.375,26.8777778 C6.9375,24.0444444 12,22.1555556 17.8125,22.1555556 Z"/>
</svg>
