<?xml version="1.0" encoding="UTF-8" standalone="no"?>
<svg width="68px" height="60px" viewBox="0 0 68 60" version="1.1" xmlns="http://www.w3.org/2000/svg" xmlns:xlink="http://www.w3.org/1999/xlink" xmlns:sketch="http://www.bohemiancoding.com/sketch/ns">
    <!-- Generator: Sketch 3.4.2 (15855) - http://www.bohemiancoding.com/sketch -->
    <title>avl</title>
    <desc>Created with Sketch.</desc>
    <defs></defs>
    <g id="Icons" stroke="none" stroke-width="1" fill="none" fill-rule="evenodd" sketch:type="MSPage">
        <path d="M52.1061281,52.3735751 C52.4221247,52.3088804 52.7231645,52.1535572 52.9684683,51.9082534 L63.2439823,41.6327394 C63.9037424,40.9729793 63.9080587,39.8871641 63.2410105,39.2201159 C62.5693117,38.5484171 61.4937939,38.5517371 60.828387,39.217144 L51.6914337,48.3540973 L47.9074128,44.5700764 C47.2409936,43.9036571 46.1586354,43.9027979 45.4915872,44.5698461 C44.8198884,45.2415449 44.8246421,46.3184963 45.4918175,46.9856718 L50.4413416,51.9351959 C50.8918023,52.3856566 51.5323043,52.5320246 52.1061281,52.3735751 Z M44.1382577,57.1428571 L15.3521472,57.1428571 L-1.11022302e-16,41.9047619 L0,5.75391954 C0,2.57611753 2.58552914,0 5.75709196,0 L51.8134602,0 C54.9930143,0 57.5705521,2.58502844 57.5705521,5.75391954 L57.5705521,30.8950899 C63.6204655,32.820061 68,38.4490968 68,45.0931677 C68,53.3258046 61.2758505,60 52.9815951,60 C49.6755677,60 46.6189923,58.939631 44.1382577,57.1428571 Z M53.7325153,30.204646 L53.7325153,9.56316569 C53.7325153,6.38510692 51.1591011,3.80952381 47.9846338,3.80952381 L9.58591836,3.80952381 C6.41551528,3.80952381 3.83803681,6.38551702 3.83803681,9.56316569 L3.83803681,38.0952381 L17.2799978,38.0952381 C18.3349645,38.0952381 19.190184,38.9406949 19.190184,40 C19.190184,40.0014687 19.1901824,40.0029369 19.1901791,40.0044048 C19.1901824,40.0058706 19.190184,40.0073388 19.190184,40.0088074 L19.190184,53.3333333 L40.4644797,53.3333333 C38.8840172,50.9728636 37.9631902,48.1397247 37.9631902,45.0931677 C37.9631902,36.8605308 44.6873397,30.1863354 52.9815951,30.1863354 C53.233397,30.1863354 53.4837518,30.1924866 53.7325153,30.204646 Z M15.3521472,51.808529 L15.3521472,41.9047619 L5.44838019,41.9047619 L15.3521472,51.808529 Z M11.7757948,30.2164502 L37.9442276,30.2164502 C38.6664763,30.2164502 39.2526492,29.6359307 39.2526492,28.9177489 C39.2526492,28.2008658 38.6664763,27.6190476 37.9442276,27.6190476 L11.7757948,27.6190476 C11.053546,27.6190476 10.4673731,28.2008658 10.4673731,28.9177489 C10.4673731,29.6359307 11.053546,30.2164502 11.7757948,30.2164502 Z M11.7757948,22.4242424 L45.7947574,22.4242424 C46.5170061,22.4242424 47.103179,21.8437229 47.103179,21.1255411 C47.103179,20.408658 46.5170061,19.8268398 45.7947574,19.8268398 L11.7757948,19.8268398 C11.053546,19.8268398 10.4673731,20.408658 10.4673731,21.1255411 C10.4673731,21.8437229 11.053546,22.4242424 11.7757948,22.4242424 Z M11.7757948,14.6320346 L27.4768544,14.6320346 C28.1991032,14.6320346 28.7852761,14.0515152 28.7852761,13.3333333 C28.7852761,12.6164502 28.1991032,12.034632 27.4768544,12.034632 L11.7757948,12.034632 C11.053546,12.034632 10.4673731,12.6164502 10.4673731,13.3333333 C10.4673731,14.0515152 11.053546,14.6320346 11.7757948,14.6320346 Z" id="avl" fill="#383E49" sketch:type="MSShapeGroup"></path>
    </g>
</svg>