<?xml version="1.0" encoding="UTF-8" standalone="no"?>
<svg width="68px" height="56px" viewBox="0 0 68 56" version="1.1" xmlns="http://www.w3.org/2000/svg" xmlns:xlink="http://www.w3.org/1999/xlink" xmlns:sketch="http://www.bohemiancoding.com/sketch/ns">
    <!-- Generator: Sketch 3.4.2 (15855) - http://www.bohemiancoding.com/sketch -->
    <title>chain</title>
    <desc>Created with Sketch.</desc>
    <defs></defs>
    <g id="Icons" stroke="none" stroke-width="1" fill="none" fill-rule="evenodd" sketch:type="MSPage">
        <path d="M48,52 L28,52 L28,48 L30.9975267,48 C31.544239,48 32,47.5522847 32,47 C32,46.4438648 31.5511774,46 30.9975267,46 L21.0024733,46 C20.455761,46 20,46.4477153 20,47 C20,47.5561352 20.4488226,48 21.0024733,48 L24,48 L24,52 L15.9940093,52 C13.7881789,52 12,50.2035752 12,47.9999745 L12,16.0000255 C12,13.7908724 13.7899577,12 15.9940093,12 L60.0059907,12 C62.2118211,12 64,13.7964248 64,16.0000255 L64,47.9999745 C64,50.2091276 62.2100423,52 60.0059907,52 L52,52 L52,48 L54.9975267,48 C55.544239,48 56,47.5522847 56,47 C56,46.4438648 55.5511774,46 54.9975267,46 L45.0024733,46 C44.455761,46 44,46.4477153 44,47 C44,47.5561352 44.4488226,48 45.0024733,48 L48,48 L48,52 Z M60,8 L60,6.00638655 C60,2.68354127 57.3136914,0 53.9999617,0 L6.0000383,0 C2.69463714,0 0,2.68915086 0,6.00638655 L0,41.9936134 C0,45.3164587 2.68630865,48 6.0000383,48 L8,48 L8,49.9936134 C8,53.3164587 10.6863086,56 14.0000383,56 L61.9999617,56 C65.3053629,56 68,53.3108491 68,49.9936134 L68,14.0063866 C68,10.6835413 65.3136914,8 61.9999617,8 L60,8 Z M56,8 C55.9999862,5.79641089 54.2118126,4 52.0059907,4 L7.99400932,4 C5.7899577,4 4,5.79087243 4,8.00002553 L4,39.9999745 C4,42.2035752 5.78817888,44 7.99400932,44 L8,44 L8,14.0063866 C8,10.6891509 10.6946371,8 14.0000383,8 L56,8 Z M18,20 C18,18.8954305 18.8945138,18 19.9940603,18 L32.0059397,18 C33.1072288,18 34,18.8877296 34,20 C34,21.1045695 33.1054862,22 32.0059397,22 L19.9940603,22 C18.8927712,22 18,21.1122704 18,20 Z M18,26 C18,24.8954305 18.8867064,24 19.9981014,24 L24.0018986,24 C25.1054196,24 26,24.8877296 26,26 C26,27.1045695 25.1132936,28 24.0018986,28 L19.9981014,28 C18.8945804,28 18,27.1122704 18,26 Z M18,32 C18,30.8954305 18.8945138,30 19.9940603,30 L32.0059397,30 C33.1072288,30 34,30.8877296 34,32 C34,33.1045695 33.1054862,34 32.0059397,34 L19.9940603,34 C18.8927712,34 18,33.1122704 18,32 Z M42,20 C42,18.8954305 42.8867064,18 43.9981014,18 L48.0018986,18 C49.1054196,18 50,18.8877296 50,20 C50,21.1045695 49.1132936,22 48.0018986,22 L43.9981014,22 C42.8945804,22 42,21.1122704 42,20 Z M42,26 C42,24.8954305 42.8945138,24 43.9940603,24 L56.0059397,24 C57.1072288,24 58,24.8877296 58,26 C58,27.1045695 57.1054862,28 56.0059397,28 L43.9940603,28 C42.8927712,28 42,27.1122704 42,26 Z M42,32 C42,30.8954305 42.8867064,30 43.9981014,30 L48.0018986,30 C49.1054196,30 50,30.8877296 50,32 C50,33.1045695 49.1132936,34 48.0018986,34 L43.9981014,34 C42.8945804,34 42,33.1122704 42,32 Z" id="chain" fill="#383E49" sketch:type="MSShapeGroup"></path>
    </g>
</svg>