<svg xmlns="http://www.w3.org/2000/svg" width="36" height="36" viewBox="0 0 36 36">
  <path fill="#20282D" fill-rule="evenodd" d="M34.5818,27.5290139 C34.1619,26.9158333 31.6,23.1805556 31.6,23.1805556 L31.6,8.30555556 C31.6,6.48419444 30.07,5 28.2,5 L7.8,5 C5.9283,5 4.4,6.48419444 4.4,8.30555556 L4.4,23.1805556 C4.4,23.1805556 1.8381,26.9158333 1.4182,27.5290139 C1,28.1388889 1,28.4909306 1,28.9652778 L1,29.7916667 C1,30.6180556 1.85,31.4444444 2.6983,31.4444444 L33.3017,31.4444444 C34.15,31.4444444 35,30.6180556 35,29.7916667 L35,28.9652778 C35,28.4909306 35,28.1388889 34.5818,27.5290139 L34.5818,27.5290139 Z M12.9,28.1388889 L13.92,26.4861111 L22.08,26.4861111 L23.1,28.1388889 L12.9,28.1388889 L12.9,28.1388889 Z M28.2,21.5277778 L7.8,21.5277778 L7.8,8.30555556 L28.2,8.30555556 L28.2,21.5277778 L28.2,21.5277778 Z"/>
</svg>
