<?xml version="1.0" encoding="UTF-8" standalone="no"?>
<svg width="68px" height="62px" viewBox="0 0 68 62" version="1.1" xmlns="http://www.w3.org/2000/svg" xmlns:xlink="http://www.w3.org/1999/xlink" xmlns:sketch="http://www.bohemiancoding.com/sketch/ns">
    <!-- Generator: Sketch 3.4.2 (15855) - http://www.bohemiancoding.com/sketch -->
    <title>dashboard</title>
    <desc>Created with Sketch.</desc>
    <defs></defs>
    <g id="Icons" stroke="none" stroke-width="1" fill="none" fill-rule="evenodd" sketch:type="MSPage">
        <path d="M27.625,57.375 L27.625,53.125 L3.00961584,53.125 C1.34745091,53.125 0,51.7852205 0,50.1165558 L0,3.00844423 C0,1.34692636 1.34304017,0 3.00961584,0 L64.9903842,0 C66.6525491,0 68,1.33977951 68,3.00844423 L68,50.1165558 C68,51.7780736 66.6569598,53.125 64.9903842,53.125 L40.375,53.125 L40.375,57.375 L46.7593029,57.375 C47.9277702,57.375 48.875,58.3182127 48.875,59.5 C48.875,60.6736051 47.9188589,61.625 46.7593029,61.625 L21.2406971,61.625 C20.0722298,61.625 19.125,60.6817873 19.125,59.5 C19.125,58.3263949 20.0811411,57.375 21.2406971,57.375 L27.625,57.375 Z M63.75,40.375 L63.75,6.25413637 C63.75,5.14140129 62.8560536,4.25 61.7533148,4.25 L6.24668524,4.25 C5.1372743,4.25 4.25,5.14728242 4.25,6.25413637 L4.25,40.375 L63.75,40.375 Z M63.75,44.625 L63.75,46.8708636 C63.75,47.9777176 62.8627257,48.875 61.7533148,48.875 L6.24668524,48.875 C5.14394643,48.875 4.25,47.9835987 4.25,46.8708636 L4.25,44.625 L63.75,44.625 Z" id="dashboard" fill="#383E49" sketch:type="MSShapeGroup"></path>
    </g>
</svg>