<svg xmlns="http://www.w3.org/2000/svg" width="36" height="36" viewBox="0 0 36 36">
  <path fill="#000000" d="M35,27.4972267 L28.4063861,34 L28.4063861,29.8418322 L5.21480406,29.8418322 L5.21480406,8.5027733 L1,8.5027733 L7.59361393,2 L14.1857765,8.5027733 L9.9724238,8.5027733 L9.9724238,25.1511898 L28.4063861,25.1511898 L28.4063861,20.9944534 L35,27.4972267 Z M31.7039187,19.535874 C30.6865022,19.535874 29.8606676,18.7214171 29.8606676,17.7180175 C29.8606676,16.714618 30.6865022,15.900161 31.7039187,15.900161 C32.7213353,15.900161 33.5471698,16.714618 33.5471698,17.7180175 C33.5471698,18.7214171 32.7213353,19.535874 31.7039187,19.535874 Z M31.7039187,13.3022008 C30.6865022,13.3022008 29.8606676,12.4877438 29.8606676,11.4843442 C29.8606676,10.4809447 30.6865022,9.66648774 31.7039187,9.66648774 C32.7213353,9.66648774 33.5471698,10.4809447 33.5471698,11.4843442 C33.5471698,12.4877438 32.7213353,13.3022008 31.7039187,13.3022008 Z M31.7039187,7.06995885 C30.6865022,7.06995885 29.8606676,6.25550188 29.8606676,5.25210234 C29.8606676,4.24870281 30.6865022,3.43424584 31.7039187,3.43424584 C32.7213353,3.43424584 33.5471698,4.24870281 33.5471698,5.25210234 C33.5471698,6.25550188 32.7213353,7.06995885 31.7039187,7.06995885 Z M24.9114659,7.06995885 C23.8940493,7.06995885 23.0682148,6.25550188 23.0682148,5.25210234 C23.0682148,4.24870281 23.8940493,3.43424584 24.9114659,3.43424584 C25.9288824,3.43424584 26.754717,4.24870281 26.754717,5.25210234 C26.754717,6.25550188 25.9288824,7.06995885 24.9114659,7.06995885 Z M18.1204644,7.06995885 C17.102465,7.06995885 16.2772134,6.25607677 16.2772134,5.25210234 C16.2772134,4.24812792 17.102465,3.43424584 18.1204644,3.43424584 C19.1384639,3.43424584 19.9637155,4.24812792 19.9637155,5.25210234 C19.9637155,6.25607677 19.1384639,7.06995885 18.1204644,7.06995885 Z"/>
</svg>
