<svg xmlns="http://www.w3.org/2000/svg" width="36" height="36" viewBox="0 0 36 36">
  <path fill="#20282D" fill-rule="evenodd" d="M32.6970894,7.54166667 L18.6832936,7.54166667 C17.6897381,7.54166667 12.4332196,4 11.4396641,4 L3.80865547,4 C2.81330652,4 3.0697658,11.0833333 3.0697658,11.0833333 L33.4341856,11.0833333 C33.4341856,11.0833333 33.6924383,7.54166667 32.6970894,7.54166667 Z M18.3136824,25.816449 L18.3136824,16.563657 C18.3136824,16.0703685 17.9174544,15.6808876 17.4286824,15.6808876 C16.9365028,15.6808876 16.5436824,16.0761169 16.5436824,16.563657 L16.5436824,26.010225 L13.0710651,22.5376077 C12.7178545,22.184397 12.1495745,22.1838829 11.7993872,22.5340703 C11.4467584,22.886699 11.4507836,23.4536072 11.8029246,23.8057482 L16.5928001,28.5956238 C16.7952988,28.7981224 17.068487,28.8846958 17.3307412,28.85572 C17.5941076,28.8855289 17.8682184,28.7981941 18.0710651,28.5953474 L22.8609407,23.8054718 C23.2141513,23.4522612 23.2146654,22.8839812 22.8644781,22.5337939 C22.5118493,22.1811651 21.9449411,22.1851903 21.5928001,22.5373313 L18.3136824,25.816449 Z M1.1203166,12.8541667 L34.8796834,12.8541667 C35.4930336,12.8541667 33.597387,32.3333333 32.8853987,32.3333333 L3.11460134,32.3333333 C2.402613,32.3333333 0.506966443,12.8541667 1.1203166,12.8541667 Z"/>
</svg>
