<?xml version="1.0" encoding="utf-8"?>
<!-- Generator: Adobe Illustrator 22.0.1, SVG Export Plug-In . SVG Version: 6.00 Build 0)  -->
<svg version="1.1" id="Layer_1" xmlns="http://www.w3.org/2000/svg" xmlns:xlink="http://www.w3.org/1999/xlink" x="0px" y="0px"
	 width="34px" height="34px" viewBox="0 0 34 34" style="enable-background:new 0 0 34 34;" xml:space="preserve">
<g>
	<path d="M6.9,27.1c-1-1-1.6-2.3-1.6-3.7c0-1.4,0.6-2.7,1.6-3.7l5.1-5.1c2.1-2.1,5.4-2.1,7.5,0l1.1,1.1l2.4-2.4l-1.1-1.1
		c-1.6-1.6-3.8-2.5-6.1-2.5s-4.5,0.9-6.1,2.5l-5.1,5.1C2.9,18.9,2,21.1,2,23.4c0,2.3,0.9,4.5,2.5,6.1c1.6,1.6,3.8,2.5,6.1,2.5
		s4.5-0.9,6.1-2.5l-2.4-2.4C12.4,29.1,8.9,29.1,6.9,27.1z"/>
	<path d="M29.5,4.5c-3.4-3.4-8.9-3.4-12.3,0l2.4,2.4c2.1-2.1,5.4-2.1,7.5,0c2.1,2.1,2.1,5.4,0,7.5L22,19.5c-2,2-5.5,2-7.5,0l0,0
		l-1.1-1.1L11,20.8l1.1,1.1l0,0c1.6,1.6,3.8,2.5,6.1,2.5s4.5-0.9,6.1-2.5l5.1-5.1c1.6-1.6,2.5-3.8,2.5-6.1S31.1,6.2,29.5,4.5z"/>
</g>
</svg>
