<svg xmlns="http://www.w3.org/2000/svg" width="36" height="36" viewBox="0 0 36 36">
  <path fill="#000000" d="M19.4790289,4.51814056 C25.6124931,5.32694748 30.4302038,10.3096143 30.9855115,16.5194913 L34,16.5194913 L34,19.4790289 L30.9239866,19.4790289 C30.1394833,25.4281901 25.4281901,30.1394833 19.4790289,30.9239866 L19.4790289,34 L16.5194913,34 L16.5194913,30.9855115 C10.3096143,30.4302038 5.32694748,25.6124931 4.51814056,19.4790289 L2,19.4790289 L2,16.5194913 L4.45661566,16.5194913 C5.02860968,10.1230152 10.1230152,5.02860968 16.5194913,4.45661566 L16.5194913,2 L19.4790289,2 L19.4790289,4.51814056 Z M17.7210636,26.5996763 C22.624586,26.5996763 26.5996763,22.624586 26.5996763,17.7210636 C26.5996763,12.8175412 22.624586,8.84245087 17.7210636,8.84245087 C12.8175412,8.84245087 8.84245087,12.8175412 8.84245087,17.7210636 C8.84245087,22.624586 12.8175412,26.5996763 17.7210636,26.5996763 Z M17.4843006,14.761526 C18.9880474,14.761526 20.2070751,15.9805537 20.2070751,17.4843006 C20.2070751,18.9880474 18.9880474,20.2070751 17.4843006,20.2070751 C15.9805537,20.2070751 14.761526,18.9880474 14.761526,17.4843006 C14.761526,15.9805537 15.9805537,14.761526 17.4843006,14.761526 Z"/>
</svg>
