<svg xmlns="http://www.w3.org/2000/svg" width="36" height="36" viewBox="0 0 36 36">
  <path fill="#20282D" fill-rule="evenodd" d="M32.6970894,7.54166667 L18.6832936,7.54166667 C17.6897381,7.54166667 12.4332196,4 11.4396641,4 L3.80865547,4 C2.81330652,4 3.0697658,11.0833333 3.0697658,11.0833333 L33.4341856,11.0833333 C33.4341856,11.0833333 33.6924383,7.54166667 32.6970894,7.54166667 Z M13.77,21.405 L13.77,17.8838473 C13.77,17.4018292 13.373772,17 12.885,17 C12.3928204,17 12,17.3957119 12,17.8838473 L12,21.405 L8.47884731,21.405 C7.99682927,21.405 7.59500003,21.801228 7.59500003,22.29 C7.59500003,22.7821796 7.99071194,23.175 8.47884731,23.175 L12,23.175 L12,26.6961526 C12,27.1781707 12.396228,27.5799999 12.885,27.5799999 C13.3771796,27.5799999 13.77,27.184288 13.77,26.6961526 L13.77,23.175 L17.2911527,23.175 C17.7731707,23.175 18.175,22.778772 18.175,22.29 C18.175,21.7978203 17.779288,21.405 17.2911527,21.405 L13.77,21.405 Z M1.1203166,12.8541667 L34.8796834,12.8541667 C35.4930336,12.8541667 33.597387,32.3333333 32.8853987,32.3333333 L3.11460134,32.3333333 C2.402613,32.3333333 0.506966443,12.8541667 1.1203166,12.8541667 Z"/>
</svg>
