<svg xmlns="http://www.w3.org/2000/svg" width="36" height="36" viewBox="0 0 36 36">
  <path fill="#000000" d="M18,2 C9.2,2 2,9.2 2,18 C2,26.8 9.2,34 18,34 C26.8,34 34,26.8 34,18 C34,9.2 26.8,2 18,2 Z M26.352,20.704 C25.056,20.704 24,19.648 24,18.352 C24,17.056 25.056,16 26.352,16 C27.648,16 28.704,17.056 28.704,18.352 C28.704,19.648 27.648,20.704 26.352,20.704 Z M18.352,20.704 C17.056,20.704 16,19.648 16,18.352 C16,17.056 17.056,16 18.352,16 C19.648,16 20.704,17.056 20.704,18.352 C20.704,19.648 19.648,20.704 18.352,20.704 Z M10.352,20.704 C9.056,20.704 8,19.648 8,18.352 C8,17.056 9.056,16 10.352,16 C11.648,16 12.704,17.056 12.704,18.352 C12.704,19.648 11.648,20.704 10.352,20.704 Z"/>
</svg>
