<svg xmlns="http://www.w3.org/2000/svg" width="36" height="36" viewBox="0 0 36 36">
  <path fill="#20282D" fill-rule="evenodd" d="M19.345085,25.3206854 L12,25.3206854 L0,25.3206854 L0,22.5134854 C0,21.6780187 2.05097872,20.452952 5.208,19.251352 C8.35506383,18.0532187 9.36051064,17.0428187 9.36051064,14.879352 C9.36051064,13.5804187 8.4,14.0044187 7.97770213,11.6260187 C7.80255319,10.639352 6.95387234,11.6100187 6.79174468,9.35748535 C6.79174468,8.45961869 7.25489362,8.23668535 7.25489362,8.23668535 C7.25489362,8.23668535 7.01948936,6.90815202 6.92731915,5.88575202 C6.81268085,4.61188535 7.632,1.32068535 11.9997447,1.32068535 C16.3674894,1.32068535 17.1862979,4.61188535 17.0721702,5.88575202 C16.98,6.90815202 16.7445957,8.23668535 16.7445957,8.23668535 C16.7445957,8.23668535 17.2077447,8.45961869 17.2077447,9.35748535 C17.0453617,11.6100187 16.1966809,10.639352 16.0215319,11.6260187 C15.5997447,14.0046854 14.6387234,13.5804187 14.6387234,14.879352 C14.6387234,16.5672567 15.2508877,17.5533132 17.014088,18.4740187 C17.132869,18.295421 17.2548936,18.2366854 17.2548936,18.2366854 C17.2548936,18.2366854 17.0194894,16.908152 16.9273191,15.885752 C16.8126809,14.6118854 17.632,11.3206854 21.9997447,11.3206854 C26.3674894,11.3206854 27.1862979,14.6118854 27.0721702,15.885752 C26.98,16.908152 26.7445957,18.2366854 26.7445957,18.2366854 C26.7445957,18.2366854 27.2077447,18.4596187 27.2077447,19.3574854 C27.0453617,21.6100187 26.1966809,20.639352 26.0215319,21.6260187 C25.5997447,24.0046854 24.6387234,23.5804187 24.6387234,24.879352 C24.6387234,27.0430854 25.6446809,28.0534854 28.7917447,29.251352 C31.948766,30.452952 33.9997447,31.677752 34,32.5134854 L34,35.3206854 L22,35.3206854 L10,35.3206854 L10,32.5134854 C10,31.6780187 12.0509787,30.452952 15.208,29.251352 C18.1329432,28.1377833 19.2079126,27.1863825 19.345085,25.3206854 Z M21.6199718,1.67332582 C23.9240859,-0.015136048 26.8792615,-0.522183105 29.5178052,0.597812272 C33.5085667,2.29179 35.3250748,7.09235914 33.7505961,11.5199526 L35.2733478,12.1663223 L30.8541544,14.2013834 L29.2482251,9.60880946 L31.2318083,10.4507906 C32.16459,7.5528952 30.9491417,4.4644597 28.3456119,3.35932683 C26.3848508,2.52703314 24.1618089,3.04249424 22.5700002,4.49424242 L22.5136722,4.40075809 C22.1998961,4.52353482 21.8519017,4.53131256 21.5318582,4.39546215 C20.8386116,4.10119646 20.5390287,3.24446088 20.862721,2.4818897 C21.0205326,2.1101087 21.2973563,1.82934799 21.6199718,1.67332582 Z"/>
</svg>
