<?xml version="1.0" encoding="UTF-8" standalone="no"?>
<svg width="61px" height="68px" viewBox="0 0 61 68" version="1.1" xmlns="http://www.w3.org/2000/svg" xmlns:xlink="http://www.w3.org/1999/xlink" xmlns:sketch="http://www.bohemiancoding.com/sketch/ns">
    <!-- Generator: Sketch 3.4.2 (15855) - http://www.bohemiancoding.com/sketch -->
    <title>partlist</title>
    <desc>Created with Sketch.</desc>
    <defs></defs>
    <g id="Icons" stroke="none" stroke-width="1" fill="none" fill-rule="evenodd" sketch:type="MSPage">
        <path d="M42.2307692,7.03448276 L39.8846154,7.03448276 L39.8846154,2.33786377 C39.8846154,1.04874027 38.8342065,0 37.5384615,0 C36.2336829,0 35.1923077,1.04669726 35.1923077,2.33786377 L35.1923077,7.03448276 L32.8461538,7.03448276 L32.8461538,2.33786377 C32.8461538,1.04874027 31.795745,0 30.5,0 C29.1952213,0 28.1538462,1.04669726 28.1538462,2.33786377 L28.1538462,7.03448276 L25.8076923,7.03448276 L25.8076923,2.33786377 C25.8076923,1.04874027 24.7572835,0 23.4615385,0 C22.1567598,0 21.1153846,1.04669726 21.1153846,2.33786377 L21.1153846,7.03448276 L18.7692308,7.03448276 L18.7692308,2.33786377 C18.7692308,1.04874027 17.7188219,0 16.4230769,0 C15.1182982,0 14.0769231,1.04669726 14.0769231,2.33786377 L14.0769231,7.03448276 L7.027246,7.03448276 C3.15117407,7.03448276 0,10.1855784 0,14.072652 L0,60.9618308 C0,64.8506073 3.1462052,68 7.027246,68 L53.972754,68 C57.8488259,68 61,64.8489043 61,60.9618308 L61,14.072652 C61,10.1838755 57.8537948,7.03448276 53.972754,7.03448276 L46.9230769,7.03448276 L46.9230769,2.33786377 C46.9230769,1.04874027 45.8726681,0 44.5769231,0 C43.2721444,0 42.2307692,1.04669726 42.2307692,2.33786377 L42.2307692,7.03448276 Z M42.2307692,11.7241379 L39.8846154,11.7241379 L39.8846154,16.4207569 C39.8846154,17.7119234 38.8432402,18.7586207 37.5384615,18.7586207 C36.2427165,18.7586207 35.1923077,17.7098804 35.1923077,16.4207569 L35.1923077,11.7241379 L32.8461538,11.7241379 L32.8461538,16.4207569 C32.8461538,17.7119234 31.8047787,18.7586207 30.5,18.7586207 C29.204255,18.7586207 28.1538462,17.7098804 28.1538462,16.4207569 L28.1538462,11.7241379 L25.8076923,11.7241379 L25.8076923,16.4207569 C25.8076923,17.7119234 24.7663171,18.7586207 23.4615385,18.7586207 C22.1657935,18.7586207 21.1153846,17.7098804 21.1153846,16.4207569 L21.1153846,11.7241379 L18.7692308,11.7241379 L18.7692308,16.4207569 C18.7692308,17.7119234 17.7278556,18.7586207 16.4230769,18.7586207 C15.1273319,18.7586207 14.0769231,17.7098804 14.0769231,16.4207569 L14.0769231,11.7241379 L9.38673865,11.7241379 C6.79574164,11.7241379 4.69230769,13.8247181 4.69230769,16.4159152 L4.69230769,58.6185676 C4.69230769,61.2080999 6.79407602,63.3103448 9.38673865,63.3103448 L51.6132614,63.3103448 C54.2042584,63.3103448 56.3076923,61.2097646 56.3076923,58.6185676 L56.3076923,16.4159152 C56.3076923,13.8263828 54.205924,11.7241379 51.6132614,11.7241379 L46.9230769,11.7241379 L46.9230769,16.4207569 C46.9230769,17.7119234 45.8817018,18.7586207 44.5769231,18.7586207 C43.2811781,18.7586207 42.2307692,17.7098804 42.2307692,16.4207569 L42.2307692,11.7241379 Z M11.7307692,30.4827586 C11.7307692,29.1877461 12.7801027,28.137931 14.0699553,28.137931 L28.1608139,28.137931 C29.4527107,28.137931 30.5,29.1787175 30.5,30.4827586 C30.5,31.7777711 29.4506666,32.8275862 28.1608139,32.8275862 L14.0699553,32.8275862 C12.7780585,32.8275862 11.7307692,31.7867997 11.7307692,30.4827586 Z M11.7307692,39.862069 C11.7307692,38.5670564 12.7739416,37.5172414 14.0789681,37.5172414 L46.9210319,37.5172414 C48.2179063,37.5172414 49.2692308,38.5580279 49.2692308,39.862069 C49.2692308,41.1570815 48.2260584,42.2068966 46.9210319,42.2068966 L14.0789681,42.2068966 C12.7820937,42.2068966 11.7307692,41.1661101 11.7307692,39.862069 Z M11.7307692,49.2413793 C11.7307692,47.9463668 12.78305,46.8965517 14.0827258,46.8965517 L37.5326588,46.8965517 C38.8316086,46.8965517 39.8846154,47.9373382 39.8846154,49.2413793 C39.8846154,50.5363918 38.8323346,51.5862069 37.5326588,51.5862069 L14.0827258,51.5862069 C12.7837761,51.5862069 11.7307692,50.5454204 11.7307692,49.2413793 Z" id="partlist" fill="#383E49" sketch:type="MSShapeGroup"></path>
    </g>
</svg>