<svg xmlns="http://www.w3.org/2000/svg" width="36" height="36" viewBox="0 0 36 36">
  <path fill="#20282D" fill-rule="evenodd" d="M4.49182987,7.67724435 L8.8584037,12.0438182 L8.35481818,12.0438182 L8.35481818,24.1818182 L11.0238182,24.1818182 L11.0238182,19.8298182 L13.8288182,19.8298182 C14.5881553,19.8298182 15.2341489,19.7193193 15.7668182,19.4983182 C15.8966601,19.4444476 16.0206094,19.3863685 16.1386663,19.3240807 L19.4388182,22.6242327 L19.4388182,24.1818182 L20.9964037,24.1818182 L28.3227557,31.5081701 C25.4607763,33.6985698 21.8823708,35 18,35 C8.61115925,35 1,27.3888407 1,18 C1,14.1176292 2.30143022,10.5392237 4.49182987,7.67724435 Z M6.58594557,5.40144026 C9.6030482,2.6663405 13.6069268,1 18,1 C27.3888407,1 35,8.61115925 35,18 C35,22.3930732 33.3336595,26.3969518 30.5985597,29.4140544 L25.4808367,24.2963314 C25.643624,24.2538631 25.8056176,24.1986921 25.9668182,24.1308182 C26.397487,23.9494839 26.7856498,23.6718201 27.1313182,23.2978182 C27.4769866,22.9238163 27.7574838,22.4449878 27.9728182,21.8613182 C28.1881526,21.2776486 28.2958182,20.5834889 28.2958182,19.7788182 C28.2958182,18.9741475 28.1881526,18.2799878 27.9728182,17.6963182 C27.7574838,17.1126486 27.4769866,16.6338201 27.1313182,16.2598182 C26.7856498,15.8858163 26.397487,15.6081524 25.9668182,15.4268182 C25.5361494,15.2454839 25.0998204,15.1548182 24.6578182,15.1548182 C24.1138155,15.1548182 23.589654,15.2596505 23.0853182,15.4693182 C22.5809823,15.6789859 22.1814863,16.0104826 21.8868182,16.4638182 L21.8528182,16.4638182 L21.8528182,12.0438182 L19.4388182,12.0438182 L19.4388182,18.2543129 L17.9521891,16.7676838 C18.0026086,16.4935303 18.0278182,16.216576 18.0278182,15.9368182 C18.0278182,15.438149 17.9513189,14.9564872 17.7983182,14.4918182 C17.6453174,14.0271492 17.4016532,13.6134867 17.0673182,13.2508182 C16.7329832,12.8881497 16.2994875,12.5963193 15.7668182,12.3753182 C15.2341489,12.1543171 14.5881553,12.0438182 13.8288182,12.0438182 L13.2283235,12.0438182 L6.58594557,5.40144026 Z M11.0238182,14.2092327 L14.3969502,17.5823646 C14.2678008,17.6290503 14.1294238,17.6642013 13.9818182,17.6878182 C13.6984834,17.7331517 13.4038197,17.7558182 13.0978182,17.7558182 L11.0238182,17.7558182 L11.0238182,14.2092327 Z M23.7849926,22.6004873 L21.8474175,20.6629122 C21.7943511,20.3814615 21.7678182,20.0924321 21.7678182,19.7958182 C21.7678182,19.4218163 21.8074845,19.0648199 21.8868182,18.7248182 C21.9661519,18.3848165 22.0908173,18.0844862 22.2608182,17.8238182 C22.430819,17.5631502 22.6461502,17.3563189 22.9068182,17.2033182 C23.1674862,17.0503174 23.4734831,16.9738182 23.8248182,16.9738182 C24.1874867,16.9738182 24.4963169,17.0503174 24.7513182,17.2033182 C25.0063195,17.3563189 25.2188173,17.5631502 25.3888182,17.8238182 C25.558819,18.0844862 25.6834845,18.3848165 25.7628182,18.7248182 C25.8421519,19.0648199 25.8818182,19.4218163 25.8818182,19.7958182 C25.8818182,20.1584867 25.8421519,20.5098165 25.7628182,20.8498182 C25.6834845,21.1898199 25.558819,21.4901502 25.3888182,21.7508182 C25.2188173,22.0114862 25.0063195,22.2183174 24.7513182,22.3713182 C24.4963169,22.5243189 24.1874867,22.6008182 23.8248182,22.6008182 C23.8114776,22.6008182 23.7982024,22.6007079 23.7849926,22.6004873 Z"/>
</svg>
