<svg xmlns="http://www.w3.org/2000/svg" width="36" height="36" viewBox="0 0 36 36">
  <path fill="#20282D" fill-rule="evenodd" d="M19.4204545,23.0653795 C20.4011513,22.4973116 21.0625,21.436491 21.0625,20.2215909 C21.0625,18.4115282 19.5921624,16.9375 17.7784091,16.9375 C15.9683464,16.9375 14.4943182,18.4078376 14.4943182,20.2215909 C14.4943182,21.4346947 15.1547466,22.4968626 16.1363636,23.0655218 L16.1363636,26.8293134 C16.1363636,27.7175769 16.8543033,28.4318182 17.7399268,28.4318182 L17.8168914,28.4318182 C18.7078557,28.4318182 19.4204545,27.7143523 19.4204545,26.8293134 L19.4204545,23.0653795 Z M7.92613636,12.0113636 L7.92613636,2.60392763 C7.92613636,1.71810286 8.65080054,1 9.52195105,1 L26.0348671,1 C26.9162112,1 27.6306818,1.7163577 27.6306818,2.60392763 L27.6306818,12.0113636 L30.9572354,12.0113636 C31.8406606,12.0113636 32.5568182,12.7245763 32.5568182,13.6096282 L32.5568182,33.4017354 C32.5568182,34.2844326 31.8408413,35 30.9572354,35 L4.59958274,35 C3.71615759,35 3,34.2867873 3,33.4017354 L3,13.6096282 C3,12.7269311 3.71597688,12.0113636 4.59958274,12.0113636 L7.92613636,12.0113636 Z M12.8522727,7.53087619 L12.8522727,13.0767614 L22.7045455,13.0767614 L22.7045455,7.53087619 C22.7045455,6.63790784 21.9860228,5.92613636 21.0996802,5.92613636 L14.4571379,5.92613636 C13.5608239,5.92613636 12.8522727,6.64460286 12.8522727,7.53087619 Z"/>
</svg>
