<svg xmlns="http://www.w3.org/2000/svg" width="36" height="36" viewBox="0 0 36 36">
  <path fill="#000000" d="M5.52,26.7714286 C6.32,24.9904762 8.08,23.6952381 10.32,23.8571429 C12.4,23.8571429 14.32,25.152381 15.12,26.9333333 L32.24,26.9333333 C32.56,26.9333333 32.88,27.2571429 32.88,27.5809524 L32.88,30.8190476 C32.88,31.1428571 32.56,31.4666667 32.24,31.4666667 L15.12,31.4666667 C14.32,33.247619 12.56,34.5428571 10.32,34.5428571 C8.08,34.5428571 6.32,33.247619 5.52,31.3047619 L2.96,31.3047619 C2.64,31.3047619 2.32,30.9809524 2.32,30.6571429 L2.32,27.4190476 C2.32,27.0952381 2.64,26.7714286 2.96,26.7714286 L5.52,26.7714286 Z M12.56,29.0380952 C12.56,27.7428571 11.44,26.7714286 10.32,26.7714286 C9.04,26.7714286 8.08,27.7428571 8.08,29.0380952 C8.08,30.3333333 9.04,31.3047619 10.32,31.3047619 C11.6,31.3047619 12.56,30.3333333 12.56,29.0380952 Z M13.04,5.23809524 C14,3.45714286 15.76,2.16190476 17.84,2.16190476 C19.92,2.16190476 21.84,3.45714286 22.64,5.23809524 L32.08,5.23809524 C32.4,5.23809524 32.72,5.56190476 32.72,5.88571429 L32.72,9.12380952 C32.72,9.44761905 32.4,9.77142857 32.08,9.77142857 L22.64,9.77142857 C21.84,11.552381 19.92,12.847619 17.84,12.847619 C15.76,12.847619 13.84,11.552381 13.04,9.77142857 L2.96,9.77142857 C2.64,9.77142857 2.32,9.44761905 2.32,9.12380952 L2.32,5.88571429 C2.32,5.56190476 2.64,5.23809524 2.96,5.23809524 L13.04,5.23809524 Z M20.24,7.66666667 C20.24,6.37142857 19.12,5.23809524 18,5.4 C16.72,5.4 15.76,6.37142857 15.76,7.66666667 C15.76,8.96190476 16.72,9.93333333 18,9.93333333 C19.28,9.93333333 20.24,8.96190476 20.24,7.66666667 Z M23.28,16.0857143 C24.24,14.3047619 26,13.0095238 28.24,13.0095238 C31.6,13.0095238 34.16,15.9238095 33.52,19.3238095 C33.2,21.2666667 31.6,23.047619 29.68,23.5333333 C26.96,24.1809524 24.4,22.8857143 23.44,20.6190476 L2.96,20.6190476 C2.64,20.6190476 2.32,20.2952381 2.32,19.9714286 L2.32,16.7333333 C2.32,16.4095238 2.64,16.0857143 2.96,16.0857143 L23.28,16.0857143 Z M30.48,18.352381 C30.48,17.0571429 29.36,16.0857143 28.24,16.0857143 C26.96,16.0857143 26,17.0571429 26,18.352381 C26,19.647619 26.96,20.6190476 28.24,20.6190476 C29.52,20.6190476 30.48,19.647619 30.48,18.352381 Z"/>
</svg>
