<svg xmlns="http://www.w3.org/2000/svg" width="36" height="36" viewBox="0 0 36 36">
  <path fill="#000000" d="M25.2105263,2.31578947 L23,2.31578947 L6.26315789,2.31578947 L4.05263158,2.31578947 C2.94736842,2.31578947 2,3.26315789 2,4.36842105 L2,24.1052632 C2,25.2105263 2.94736842,26.1578947 4.05263158,26.1578947 L24.1052632,26.1578947 L25.0526316,26.1578947 L25.3684211,26.1578947 C26.4736842,26.1578947 27.2631579,25.3684211 27.2631579,24.2631579 L27.2631579,4.36842105 C27.2631579,3.26315789 26.3157895,2.31578947 25.2105263,2.31578947 Z M11.1578947,4.52631579 C11.9473684,4.52631579 12.4210526,5.15789474 12.4210526,5.78947368 C12.4210526,6.57894737 11.7894737,7.05263158 11.1578947,7.05263158 C10.3684211,7.21052632 9.89473684,6.57894737 9.89473684,5.78947368 C9.89473684,5.15789474 10.3684211,4.52631579 11.1578947,4.52631579 Z M6.57894737,4.52631579 C7.36842105,4.52631579 7.84210526,5.15789474 7.84210526,5.78947368 C7.84210526,6.57894737 7.21052632,7.05263158 6.57894737,7.05263158 C5.94736842,7.05263158 5.31578947,6.57894737 5.31578947,5.78947368 C5.31578947,5.15789474 5.94736842,4.52631579 6.57894737,4.52631579 Z M5.15789474,23 L5.15789474,9.42105263 L24.1052632,9.42105263 L24.1052632,23.1578947 L5.15789474,23.1578947 L5.15789474,23 Z M30.4210526,13.3684211 L26.9473684,13.3684211 L26.9473684,10.2105263 L30.7368421,10.2105263 C32.2404496,10.2105263 33.5789474,11.5490241 33.5789474,13.0526316 L33.5789474,30.7368421 C33.5789474,32.2404496 32.2404496,33.5789474 30.7368421,33.5789474 L10.8421053,33.5789474 C9.33849776,33.5789474 8,32.2404496 8,30.7368421 L8,27.8947368 L11.1578947,27.8947368 L11.1578947,30.4210526 L30.4210526,30.4210526 L30.4210526,13.3684211 Z"/>
</svg>
