<svg xmlns="http://www.w3.org/2000/svg" width="36" height="36" viewBox="0 0 36 36">
  <path fill="#20282D" fill-rule="evenodd" d="M7.66086317,31.4956172 C7.6094083,31.5437043 7.55771281,31.5918715 7.50576939,31.6401241 C6.23076923,31.0769231 6.58651278,31.0769231 5.96387103,30.4423837 C6.033754,30.3663126 6.10405586,30.2899445 6.17477178,30.2132898 C2.9836407,27.1229309 1,22.7931175 1,18 C1,8.61115925 8.61115925,1 18,1 C27.3888407,1 35,8.61115925 35,18 C35,27.3888407 27.3888407,35 18,35 C14.1102185,35 10.5255638,33.6935966 7.66086317,31.4956172 Z M9.44655196,29.7651804 C27.3939536,30.1058266 28.4615385,8.84615385 28.4615385,8.84615385 C8.43241349,10.4162583 7.45335615,24.9469386 7.54321971,28.7500577 C11.341978,24.743827 16.1082072,20.1789736 21.2329257,16.3710694 C15.8637364,22.463951 13.1270621,26.0655035 9.44655196,29.7651804 Z"/>
</svg>
