<?xml version="1.0" encoding="utf-8"?>
<!-- Generator: Adobe Illustrator 22.0.1, SVG Export Plug-In . SVG Version: 6.00 Build 0)  -->
<svg version="1.1" id="Layer_1" xmlns="http://www.w3.org/2000/svg" xmlns:xlink="http://www.w3.org/1999/xlink" x="0px" y="0px"
	 width="34px" height="34px" viewBox="0 0 34 34" style="enable-background:new 0 0 34 34;" xml:space="preserve">
<g>
	<path d="M29.8,11l-8-8c-0.6-0.6-1.5-1-2.4-1H8.9C7.1,2,5.6,3.5,5.6,5.4v8.3h3.3V5.4h10.2V12c0,0.9,0.7,1.7,1.7,1.7h1.5h5.2v15h-4.4
		V32h4.4c1.8,0,3.3-1.5,3.3-3.3V13.4C30.8,12.5,30.4,11.7,29.8,11z"/>
</g>
<g>
	<g>
		<circle cx="16.6" cy="17" r="3.4"/>
	</g>
	<g>
		<circle cx="5.9" cy="22.8" r="3.4"/>
	</g>
	<g>
		<circle cx="16.6" cy="28.6" r="3.4"/>
	</g>
	<g>
		<rect x="10.1" y="19.8" transform="matrix(0.4832 -0.8755 0.8755 0.4832 -16.8634 23.2204)" width="2.3" height="12.3"/>
	</g>
	<g>
		<rect x="5.1" y="18.6" transform="matrix(0.8847 -0.4661 0.4661 0.8847 -7.9382 7.4817)" width="12.1" height="2.3"/>
	</g>
</g>
</svg>
