<svg xmlns="http://www.w3.org/2000/svg" width="36" height="36" viewBox="0 0 36 36">
  <path fill="#20282D" fill-rule="evenodd" d="M12.7111111,6.28888889 L12.7111111,4.77777778 C12.7111111,2.69136872 14.4078256,1 16.484947,1 L20.2706085,1 C22.3548406,1 24.0444444,2.69561415 24.0444444,4.77777778 L24.0444444,6.28888889 L33.2198832,6.28888889 C34.2030145,6.28888889 35,7.08317331 35,8.07836257 C35,9.0666616 34.1930809,9.86783626 33.2198832,9.86783626 L32.0003039,9.86783626 L30.4781954,33.0038854 C30.4056675,34.1063091 29.4594815,35 28.3486201,35 L7.41179068,35 C6.30818661,35 5.35493676,34.10925 5.28221541,33.0038854 L3.76010691,9.86783626 L2.78011683,9.86783626 C1.79698545,9.86783626 1,9.07355184 1,8.07836257 C1,7.09006355 1.80691913,6.28888889 2.78011683,6.28888889 L12.7111111,6.28888889 Z M28.5620689,9.86783626 L7.56849065,9.86783626 L8.81471002,29.0973788 C8.88586545,30.1953286 9.84096827,31.0845313 10.9480608,31.0845313 L25.1824988,31.0845313 C26.2823654,31.0845313 27.2447249,30.1948528 27.3158495,29.0973788 L28.5620689,9.86783626 Z M15.7333333,5.02929827 L15.7333333,6.34456145 L21.0222222,6.34456145 L21.0222222,5.02929827 C21.0222222,4.29783415 20.4368945,3.71403509 19.7148561,3.71403509 L17.0406994,3.71403509 C16.3195448,3.71403509 15.7333333,4.30289847 15.7333333,5.02929827 Z M18,13.0888889 C18.6259227,13.0888889 19.1333333,13.5916626 19.1333333,14.2246782 L19.1333333,27.0642107 C19.1333333,27.6914898 18.6302865,28.2 18,28.2 C17.3740773,28.2 16.8666667,27.6972263 16.8666667,27.0642107 L16.8666667,14.2246782 C16.8666667,13.5973991 17.3697135,13.0888889 18,13.0888889 Z M23.6843161,13.0992435 C24.309381,13.1320018 24.7897831,13.6606423 24.7566536,14.2927904 L24.0846844,27.1147267 C24.0518552,27.7411461 23.5228844,28.222632 22.8934617,28.1896454 C22.2683968,28.1568871 21.7879947,27.6282466 21.8211241,26.9960985 L22.4930934,14.1741622 C22.5259226,13.5477427 23.0548934,13.0662569 23.6843161,13.0992435 Z M12.3156839,13.0992435 C12.9407488,13.0664853 13.4737772,13.5420141 13.5069066,14.1741622 L14.1788759,26.9960985 C14.2117051,27.622518 13.7359611,28.1566587 13.1065383,28.1896454 C12.4814734,28.2224036 11.9484451,27.7468748 11.9153156,27.1147267 L11.2433464,14.2927904 C11.2105171,13.6663709 11.6862611,13.1322302 12.3156839,13.0992435 Z"/>
</svg>
