<svg xmlns="http://www.w3.org/2000/svg" width="36" height="36" viewBox="0 0 36 36">
  <path fill="#000000" d="M18,18 C16.1222319,18 14.6,16.4777681 14.6,14.6 C14.6,12.7222319 16.1222319,11.2 18,11.2 C19.8777681,11.2 21.4,12.7222319 21.4,14.6 C21.4,16.4777681 19.8777681,18 18,18 Z M12.22,21.57 C13.58,20.38 15.62,19.7 18,19.7 C20.38,19.7 22.42,20.55 23.78,21.57 C22.59,23.44 20.38,24.8 18,24.8 C15.62,24.8 13.41,23.61 12.22,21.57 Z M34.66,15.79 L31.26,15.28 C31.09,15.28 30.92,15.11 30.75,14.94 L29.39,11.2 C29.22,11.03 29.39,10.69 29.39,10.69 L31.26,7.63 C31.43,7.46 31.26,7.29 31.26,7.12 L28.88,4.74 C28.88,4.74 28.71,4.57 28.54,4.57 C28.54,4.57 28.37,4.57 28.37,4.57 L25.31,6.44 C25.14,6.44 25.14,6.44 24.97,6.44 C24.8,6.44 24.8,6.44 24.63,6.44 L21.06,4.91 C20.89,4.91 20.72,4.74 20.72,4.4 L20.21,1 C20.21,1.17 20.04,1 19.7,1 L16.3,1 C15.96,1 15.79,1.17 15.79,1.34 L15.28,4.74 C15.28,4.91 15.11,5.08 14.94,5.25 L11.2,6.61 C11.2,6.61 11.03,6.61 10.86,6.61 C10.69,6.61 10.69,6.61 10.52,6.61 L7.63,4.74 C7.63,4.74 7.46,4.74 7.46,4.74 C7.29,4.74 7.29,4.74 7.12,4.91 L4.74,7.12 C4.57,7.29 4.57,7.46 4.74,7.63 L6.61,10.69 C6.78,10.86 6.78,11.03 6.61,11.2 L5.25,14.94 C5.25,15.11 5.08,15.28 4.74,15.28 L1.34,15.79 C1.17,15.79 1,15.96 1,16.3 L1,19.7 C1,19.87 1.17,20.04 1.34,20.04 L4.74,20.55 C4.91,20.55 5.08,20.72 5.25,20.89 L6.61,24.8 C6.78,24.97 6.61,25.31 6.61,25.31 L4.74,28.37 C4.57,28.54 4.74,28.71 4.74,28.88 L7.12,31.26 C7.12,31.26 7.29,31.43 7.46,31.43 C7.46,31.43 7.63,31.43 7.63,31.43 L10.69,29.56 C10.86,29.56 10.86,29.56 11.03,29.56 C11.2,29.56 11.2,29.56 11.37,29.56 L14.94,31.09 C15.11,31.09 15.28,31.26 15.28,31.6 L15.79,35 C15.79,34.83 15.96,35 16.3,35 L19.7,35 C19.87,35 20.04,34.83 20.04,34.66 L20.55,31.26 C20.55,31.09 20.72,30.92 20.89,30.75 L24.46,29.22 C24.46,29.22 24.63,29.22 24.8,29.22 C24.97,29.22 24.97,29.22 25.14,29.22 L28.2,31.09 C28.2,31.09 28.37,31.09 28.37,31.09 C28.54,31.09 28.54,31.09 28.71,30.92 L31.09,28.54 C31.26,28.37 31.26,28.2 31.09,28.03 L29.22,24.97 C29.05,24.8 29.05,24.63 29.22,24.46 L30.75,20.89 C30.75,20.72 30.92,20.55 31.26,20.55 L34.66,20.04 C34.83,20.04 35,19.87 35,19.7 L35,16.3 C35,15.96 34.83,15.79 34.66,15.79 Z M18,27.35 C12.9,27.35 8.65,23.1 8.65,18 C8.65,12.9 12.9,8.65 18,8.65 C23.1,8.65 27.35,12.9 27.35,18 C27.35,23.1 23.1,27.35 18,27.35 Z"/>
</svg>
