<?xml version="1.0" encoding="UTF-8" standalone="no"?>
<svg width="16px" height="16px" viewBox="0 0 16 16" version="1.1" xmlns="http://www.w3.org/2000/svg" xmlns:xlink="http://www.w3.org/1999/xlink">
    <!-- Generator: Sketch 41.2 (35397) - http://www.bohemiancoding.com/sketch -->
    <title>add-circle</title>
    <desc>Created with Sketch.</desc>
    <defs></defs>
    <g id="Icons" stroke="none" stroke-width="1" fill="none" fill-rule="evenodd">
        <g id="Icon-Set-Example" transform="translate(-216.000000, -96.000000)" fill="#000000">
            <g id="add-circle" transform="translate(216.000000, 96.000000)">
                <path d="M10.4218145,8.59514873 L8.54700198,8.59514873 L8.54700198,10.4701487 C8.54700198,10.7808362 8.29500198,11.0326487 7.98431448,11.0326487 C7.67381448,11.0326487 7.42200198,10.7808362 7.42200198,10.4701487 L7.42200198,8.59514873 L5.54681448,8.59514873 C5.23612698,8.59514873 4.98431448,8.34333623 4.98431448,8.03264873 C4.98431448,7.72196123 5.23612698,7.47014873 5.54681448,7.47014873 L7.42200198,7.47014873 L7.42200198,5.59514873 C7.42200198,5.28446123 7.67381448,5.03264873 7.98431448,5.03264873 C8.29500198,5.03264873 8.54700198,5.28446123 8.54700198,5.59514873 L8.54700198,7.47014873 L10.4218145,7.47014873 C10.732502,7.47014873 10.984502,7.72196123 10.984502,8.03264873 C10.984502,8.34333623 10.732502,8.59514873 10.4218145,8.59514873 L10.4218145,8.59514873 Z M7.98431448,3.15764873 C5.29200198,3.15764873 3.10931448,5.34033623 3.10931448,8.03264873 C3.10931448,10.7249612 5.29200198,12.9076487 7.98431448,12.9076487 C10.6768145,12.9076487 12.8593145,10.7249612 12.8593145,8.03264873 C12.8593145,5.34033623 10.6768145,3.15764873 7.98431448,3.15764873 L7.98431448,3.15764873 Z M7.98431448,14.0326487 C4.67062698,14.0326487 1.98431448,11.3463362 1.98431448,8.03264873 C1.98431448,4.71896123 4.67062698,2.03264873 7.98431448,2.03264873 C11.2981895,2.03264873 13.9843145,4.71896123 13.9843145,8.03264873 C13.9843145,11.3463362 11.2981895,14.0326487 7.98431448,14.0326487 L7.98431448,14.0326487 Z" id="Add-Gray"></path>
            </g>
        </g>
    </g>
</svg>