<?xml version="1.0" encoding="UTF-8" standalone="no"?>
<svg width="16px" height="16px" viewBox="0 0 16 16" version="1.1" xmlns="http://www.w3.org/2000/svg" xmlns:xlink="http://www.w3.org/1999/xlink">
    <!-- Generator: Sketch 41.2 (35397) - http://www.bohemiancoding.com/sketch -->
    <title>add</title>
    <desc>Created with Sketch.</desc>
    <defs></defs>
    <g id="Icons" stroke="none" stroke-width="1" fill="none" fill-rule="evenodd">
        <g id="Icon-Set-Example" transform="translate(-72.000000, -24.000000)" fill="#000000">
            <g id="add" transform="translate(72.000000, 24.000000)">
                <path d="M8.72788812,7.30191798 L8.72788812,2.73014192 C8.72788812,2.33641751 8.40843298,2.01550293 8.01438425,2.01550293 C7.62114632,2.01550293 7.30088038,2.33544455 7.30088038,2.73014192 L7.30088038,7.30191798 L2.72926648,7.30191798 C2.33554207,7.30191798 2.01446533,7.62137312 2.01446533,8.01542185 C2.01446533,8.40865978 2.33440695,8.72892572 2.72926648,8.72892572 L7.30088038,8.72892572 L7.30088038,13.3007018 C7.30088038,13.694264 7.62033552,14.0153408 8.01438425,14.0153408 C8.40762218,14.0153408 8.72788812,13.695237 8.72788812,13.3007018 L8.72788812,8.72892572 L13.299502,8.72892572 C13.6933886,8.72892572 14.0144653,8.40947058 14.0144653,8.01542185 C14.0144653,7.62218392 13.6943615,7.30191798 13.299502,7.30191798 L8.72788812,7.30191798 Z" id="Fill-1"></path>
            </g>
        </g>
    </g>
</svg>