<?xml version="1.0" encoding="UTF-8" standalone="no"?>
<svg width="16px" height="16px" viewBox="0 0 16 16" version="1.1" xmlns="http://www.w3.org/2000/svg" xmlns:xlink="http://www.w3.org/1999/xlink">
    <!-- Generator: Sketch 41.2 (35397) - http://www.bohemiancoding.com/sketch -->
    <title>bell-ringing</title>
    <desc>Created with Sketch.</desc>
    <defs></defs>
    <g id="Icons" stroke="none" stroke-width="1" fill="none" fill-rule="evenodd">
        <g id="Icon-Set-Example" transform="translate(-264.000000, -144.000000)" fill="#000000">
            <g id="bell-ringing" transform="translate(264.000000, 144.000000)">
                <g transform="translate(1.482400, 0.239223)">
                    <path d="M6.32477114,13.6251131 C6.75119525,14.1052425 7.62475103,14.3030883 8.54088461,14.0675636 C9.70742545,13.7676869 10.4974048,12.8807758 10.3045567,12.0865222 C10.3025946,12.0769208 10.2990546,12.0681974 10.2955921,12.0587366 C10.1055144,12.1003493 9.910486,12.1466612 9.70745947,12.1983959 C8.15763518,12.5971262 7.05493756,13.1235307 6.32477114,13.6251131 Z M5.85870122,2.33094457 C4.87912327,2.35126346 5.11404468,1.61830058 4.36791065,1.89638748 C3.62029912,2.17462266 4.26153114,2.58159354 3.49766719,3.21103393 C1.35234716,4.97759014 1.55033124,6.61214775 2.54468412,10.5077371 C2.96429218,12.1482273 1.53555631,12.2289095 2.09995869,13.8195665 C2.51365678,14.9792259 14.0055984,10.6987643 13.5933778,9.53910489 C13.0274979,7.94844792 11.8824407,8.82660921 11.1717665,7.29453588 C9.48742437,3.65567633 8.61274842,2.27384407 5.85870122,2.33094457 Z" id="bell" transform="translate(7.715316, 8.000081) rotate(21.000000) translate(-7.715316, -8.000081) "></path>
                    <path d="M3.80566932,1.84512296 L3.80179578,1.83800392 C3.16306367,2.10254048 2.64837626,2.6098062 2.37030112,3.24614515 C2.34143831,3.28920886 2.32458115,3.34114621 2.32458115,3.39705883 C2.32458115,3.54595913 2.44413286,3.66666666 2.59160735,3.66666666 C2.69522482,3.66666666 2.78505779,3.60707762 2.8293243,3.51998874 L2.83464188,3.52199994 C3.040813,3.00967552 3.43638463,2.59544634 3.93361075,2.36790679 C3.97158484,2.36070489 4.00672359,2.3453866 4.03719243,2.32380428 C4.04513397,2.3206704 4.05309864,2.31758313 4.06108612,2.31454279 L4.05748071,2.30791654 C4.11474298,2.25846746 4.15103777,2.18498385 4.15103777,2.10294117 C4.15103777,1.95404087 4.03148607,1.83333333 3.88401155,1.83333333 C3.8567504,1.83333333 3.8304434,1.837458 3.80566932,1.84512296 Z" id="Oval-31"></path>
                    <path d="M10.7794128,1.84512291 L10.7755392,1.83800388 C10.1368072,2.10254044 9.62211975,2.60980615 9.34404461,3.24614511 C9.31518178,3.28920881 9.29832463,3.34114617 9.29832463,3.39705878 C9.29832463,3.54595908 9.41787633,3.66666662 9.56535084,3.66666662 C9.66896829,3.66666662 9.75880126,3.60707757 9.80306777,3.5199887 L9.80838535,3.5219999 C10.0145565,3.00967547 10.4101281,2.5954463 10.9073542,2.36790675 C10.9453283,2.36070485 10.9804671,2.34538656 11.0109359,2.32380424 C11.0188775,2.32067036 11.0268421,2.31758308 11.0348296,2.31454275 L11.0312242,2.3079165 C11.0884865,2.25846742 11.1247812,2.18498381 11.1247812,2.10294113 C11.1247812,1.95404083 11.0052295,1.83333329 10.857755,1.83333329 C10.8304939,1.83333329 10.8041869,1.83745796 10.7794128,1.84512291 Z" id="Oval-31" transform="translate(10.211553, 2.750000) rotate(90.000000) translate(-10.211553, -2.750000) "></path>
                    <path d="M11.7999921,0.651554132 L11.7939705,0.640551983 C10.8010339,1.04938121 10.0009301,1.83333731 9.56865021,2.81677027 C9.52378173,2.88332324 9.49757656,2.96359007 9.49757656,3.05000047 C9.49757656,3.28011913 9.68342484,3.46666714 9.91268033,3.46666714 C10.0737582,3.46666714 10.2134074,3.37457496 10.2822216,3.23998307 L10.290488,3.24309129 C10.61099,2.45131717 11.2259231,1.81114481 11.9988826,1.45949277 C12.057915,1.44836257 12.1125397,1.42468887 12.1599048,1.39133436 C12.1722503,1.38649109 12.1846317,1.38171984 12.1970486,1.37702114 L12.1914438,1.36678058 C12.2804605,1.29035927 12.3368823,1.17679369 12.3368823,1.05000047 C12.3368823,0.819881825 12.151034,0.633333805 11.9217785,0.633333805 C11.8793999,0.633333805 11.8385045,0.63970829 11.7999921,0.651554132 Z" id="Oval-31" transform="translate(10.917229, 2.050000) rotate(90.000000) translate(-10.917229, -2.050000) "></path>
                    <path d="M3.4979165,0.651554169 L3.4918949,0.64055202 C2.49895825,1.04938125 1.69885442,1.83333735 1.26657457,2.81677031 C1.22170608,2.88332327 1.1955009,2.9635901 1.1955009,3.0500005 C1.1955009,3.28011916 1.38134919,3.46666718 1.61060468,3.46666718 C1.77168251,3.46666718 1.91133174,3.374575 1.98014595,3.23998311 L1.98841235,3.24309133 C2.30891431,2.45131721 2.9238475,1.81114485 3.696807,1.45949281 C3.75583935,1.44836261 3.81046406,1.4246889 3.85782919,1.39133439 C3.87017466,1.38649113 3.88255609,1.38171988 3.89497295,1.37702118 L3.88936819,1.36678062 C3.97838487,1.2903593 4.03480668,1.17679372 4.03480668,1.05000051 C4.03480668,0.819881862 3.84895838,0.633333842 3.6197029,0.633333842 C3.57732426,0.633333842 3.53642889,0.639708327 3.4979165,0.651554169 Z" id="Oval-31"></path>
                </g>
            </g>
        </g>
    </g>
</svg>