<?xml version="1.0" encoding="UTF-8" standalone="no"?>
<svg width="16px" height="16px" viewBox="0 0 16 16" version="1.1" xmlns="http://www.w3.org/2000/svg" xmlns:xlink="http://www.w3.org/1999/xlink">
    <!-- Generator: Sketch 41.2 (35397) - http://www.bohemiancoding.com/sketch -->
    <title>blank-circle</title>
    <desc>Created with Sketch.</desc>
    <defs></defs>
    <g id="Icons" stroke="none" stroke-width="1" fill="none" fill-rule="evenodd">
        <g id="Icon-Set-Example" transform="translate(-24.000000, -144.000000)" fill="#000000">
            <g id="blank-circle" transform="translate(24.000000, 144.000000)">
                <path d="M8.02001953,13.9882812 C11.333728,13.9882812 14.0200195,11.3019897 14.0200195,7.98828125 C14.0200195,4.67457275 11.333728,1.98828125 8.02001953,1.98828125 C4.70631103,1.98828125 2.02001953,4.67457275 2.02001953,7.98828125 C2.02001953,11.3019897 4.70631103,13.9882812 8.02001953,13.9882812 Z M10.7100186,8.0674707 C10.4362958,8.0674707 10.2153389,7.84651376 10.2153389,7.57279098 L10.2153389,6.78789915 L7.75678068,9.2481063 L7.75513175,9.24645737 C7.6660894,9.33385079 7.54571733,9.38661663 7.41215381,9.38661663 C7.13843103,9.38661663 6.91747409,9.16565968 6.91747409,8.8919369 C6.91747409,8.75837338 6.97188886,8.63800131 7.05763334,8.54895896 L7.05598441,8.54731003 L9.51619156,6.08875181 L8.73129974,6.08875181 C8.45757696,6.08875181 8.23662001,5.86779486 8.23662001,5.59407208 C8.23662001,5.3203493 8.45757696,5.09939236 8.73129974,5.09939236 L10.7100186,5.09939236 C10.9837414,5.09939236 11.2046984,5.3203493 11.2046984,5.59407208 L11.2046984,7.57279098 C11.2046984,7.84651376 10.9837414,8.0674707 10.7100186,8.0674707 Z M6.12049009,6.08875181 L6.12049009,10.1836006 L10.2153389,10.1836006 L10.2153389,8.42528903 C10.3620939,8.50938458 10.5286361,8.56215042 10.7100186,8.56215042 C10.8914012,8.56215042 11.0595923,8.50938458 11.2046984,8.42528903 L11.2046984,10.6782803 C11.2046984,10.9520031 10.9837414,11.1729601 10.7100186,11.1729601 L5.62581037,11.1729601 C5.35208759,11.1729601 5.13113064,10.9520031 5.13113064,10.6782803 L5.13113064,5.59407208 C5.13113064,5.3203493 5.35208759,5.09939236 5.62581037,5.09939236 L7.87880168,5.09939236 C7.79470613,5.24614735 7.74194029,5.41268952 7.74194029,5.59407208 C7.74194029,5.77545465 7.79470613,5.94199682 7.87880168,6.08875181 L6.75258085,6.08875181 L6.12049009,6.08875181 Z" id="Combined-Shape"></path>
            </g>
        </g>
    </g>
</svg>