<?xml version="1.0" encoding="UTF-8" standalone="no"?>
<svg width="16px" height="16px" viewBox="0 0 16 16" version="1.1" xmlns="http://www.w3.org/2000/svg" xmlns:xlink="http://www.w3.org/1999/xlink">
    <!-- Generator: Sketch 41.2 (35397) - http://www.bohemiancoding.com/sketch -->
    <title>close</title>
    <desc>Created with Sketch.</desc>
    <defs></defs>
    <g id="Icons" stroke="none" stroke-width="1" fill="none" fill-rule="evenodd">
        <g id="Icon-Set-Example" transform="translate(-96.000000, -24.000000)" fill="#000000">
            <g id="close" transform="translate(95.000000, 23.000000)">
                <path d="M9.71351351,8.28648649 L9.71351351,3.71471786 C9.71351351,3.32097101 9.39406263,3 9,3 C8.60319004,3 8.28648649,3.31999009 8.28648649,3.71471786 L8.28648649,8.28648649 L3.71471786,8.28648649 C3.32097101,8.28648649 3,8.60593737 3,9 C3,9.39680996 3.31999009,9.71351351 3.71471786,9.71351351 L8.28648649,9.71351351 L8.28648649,14.2852821 C8.28648649,14.679029 8.60593737,15 9,15 C9.39680996,15 9.71351351,14.6800099 9.71351351,14.2852821 L9.71351351,9.71351351 L14.2852821,9.71351351 C14.679029,9.71351351 15,9.39406263 15,9 C15,8.60319004 14.6800099,8.28648649 14.2852821,8.28648649 L9.71351351,8.28648649 Z" transform="translate(9.000000, 9.000000) rotate(-45.000000) translate(-9.000000, -9.000000) "></path>
            </g>
        </g>
    </g>
</svg>