<?xml version="1.0" encoding="UTF-8" standalone="no"?>
<svg width="16px" height="16px" viewBox="0 0 16 16" version="1.1" xmlns="http://www.w3.org/2000/svg" xmlns:xlink="http://www.w3.org/1999/xlink">
    <!-- Generator: Sketch 41.2 (35397) - http://www.bohemiancoding.com/sketch -->
    <title>eye-circle</title>
    <desc>Created with Sketch.</desc>
    <defs></defs>
    <g id="Icons" stroke="none" stroke-width="1" fill="none" fill-rule="evenodd">
        <g id="Icon-Set-Example" transform="translate(-264.000000, -120.000000)" fill="#000000">
            <g id="eye-circle" transform="translate(264.000000, 120.000000)">
                <path d="M8.02624512,14.0179952 C11.3399536,14.0179952 14.0262451,11.3317037 14.0262451,8.01799521 C14.0262451,4.70428671 11.3399536,2.01799521 8.02624512,2.01799521 C4.71253662,2.01799521 2.02624512,4.70428671 2.02624512,8.01799521 C2.02624512,11.3317037 4.71253662,14.0179952 8.02624512,14.0179952 Z M11.2989468,8.09586271 C11.2988436,8.09920891 11.2986372,8.10255511 11.2984307,8.10478591 C11.2982243,8.1070167 11.298121,8.1081321 11.2980178,8.1092475 C11.2979146,8.1114783 11.2975017,8.1137091 11.297192,8.11593989 C11.2969856,8.11817069 11.2966759,8.12151689 11.2963663,8.12374769 C11.2962631,8.12374769 11.2961598,8.12486308 11.2961598,8.12486308 C11.2881085,8.18174843 11.2640579,8.23417217 11.2272077,8.27432653 C11.1578427,8.36578924 11.0821812,8.45055955 11.0060036,8.53421446 C10.5944586,8.98595099 10.1220128,9.38860998 9.604872,9.68084447 C9.27435607,9.86823148 8.92133779,10.0188103 8.55510714,10.0913112 C8.15233601,10.1705046 7.7492552,10.166043 7.34865172,10.0723495 C6.65551789,9.90950124 6.02751697,9.50461145 5.47848066,9.02164376 C5.22352302,8.79633319 4.97279747,8.55094544 4.76212194,8.27432653 C4.66984173,8.15386345 4.66984173,8.0110924 4.76212194,7.89062933 C4.83128049,7.79916662 4.90704524,7.71439631 4.98322286,7.6307414 C5.39476785,7.17900486 5.86711042,6.77634588 6.38435444,6.48411138 C6.71476716,6.29672438 7.06788865,6.14614554 7.4341193,6.07364461 C7.83689044,5.99445129 8.23997124,5.99891289 8.64057473,6.09260639 C9.33370855,6.25545462 9.96160626,6.6603444 10.5106426,7.1433121 C10.7656002,7.36862267 11.0162225,7.61401041 11.2270013,7.89062933 C11.2638514,7.93078369 11.2879021,7.98432283 11.2960566,8.04009277 L11.2961598,8.04120817 C11.2965727,8.04343897 11.2967792,8.04678517 11.2970888,8.04901596 C11.2973985,8.05124676 11.2977082,8.05347756 11.2979146,8.05570836 C11.2980178,8.05682376 11.298121,8.05793915 11.2982243,8.06016995 C11.2984307,8.06240075 11.2987404,8.06574695 11.2988436,8.06909314 C11.29905,8.07355474 11.2992565,8.07801633 11.2992565,8.08247793 C11.2992565,8.08693952 11.2991533,8.09140112 11.2989468,8.09586271 Z M7.96021822,6.67706639 C7.2761679,6.67706639 6.72155762,7.27603557 6.72155762,8.015545 C6.72155762,8.75505444 7.2761679,9.35402362 7.96021822,9.35402362 C8.64437175,9.35402362 9.19887882,8.75505444 9.19887882,8.015545 C9.19887882,7.27603557 8.64437175,6.67706639 7.96021822,6.67706639 Z M7.97890875,8.68980716 C7.6369352,8.68980716 7.35957845,8.38976487 7.35957845,8.02056785 C7.35957845,7.65137083 7.6369352,7.35132854 7.97890875,7.35132854 C8.32098552,7.35132854 8.59823905,7.65137083 8.59823905,8.02056785 C8.59823905,8.38976487 8.32098552,8.68980716 7.97890875,8.68980716 Z" id="Combined-Shape"></path>
            </g>
        </g>
    </g>
</svg>