<?xml version="1.0" encoding="UTF-8" standalone="no"?>
<svg width="16px" height="16px" viewBox="0 0 16 16" version="1.1" xmlns="http://www.w3.org/2000/svg" xmlns:xlink="http://www.w3.org/1999/xlink">
    <!-- Generator: Sketch 41.2 (35397) - http://www.bohemiancoding.com/sketch -->
    <title>eye</title>
    <desc>Created with Sketch.</desc>
    <defs></defs>
    <g id="Icons" stroke="none" stroke-width="1" fill="none" fill-rule="evenodd">
        <g id="Icon-Set-Example" transform="translate(-96.000000, -48.000000)" fill="#000000">
            <g id="eye" transform="translate(96.000000, 48.000000)">
                <path d="M8.01370239,12.1223171 C12.0501423,12.1223171 15.015625,7.97644191 15.015625,7.97644191 C15.015625,7.97644191 11.693667,3.83056668 8.01370239,3.83056668 C4.33373777,3.83056668 1.01177979,7.97644191 1.01177979,7.97644191 C1.01177979,7.97644191 3.97726251,12.1223171 8.01370239,12.1223171 Z M8.01370239,10.5497438 C9.43425324,10.5497438 10.5858372,9.39763729 10.5858372,7.97644191 C10.5858372,6.55524653 9.43425324,5.40314004 8.01370239,5.40314004 C6.59315155,5.40314004 5.44156756,6.55524653 5.44156756,7.97644191 C5.44156756,9.39763729 6.59315155,10.5497438 8.01370239,10.5497438 Z M8.01370239,9.54901527 C8.8818168,9.54901527 9.58556257,8.8449502 9.58556257,7.97644191 C9.58556257,7.10793362 8.8818168,6.40386855 8.01370239,6.40386855 C7.14558799,6.40386855 6.44184222,7.10793362 6.44184222,7.97644191 C6.44184222,8.8449502 7.14558799,9.54901527 8.01370239,9.54901527 Z"></path>
            </g>
        </g>
    </g>
</svg>