<?xml version="1.0" encoding="UTF-8" standalone="no"?>
<svg width="16px" height="16px" viewBox="0 0 16 16" version="1.1" xmlns="http://www.w3.org/2000/svg" xmlns:xlink="http://www.w3.org/1999/xlink">
    <!-- Generator: Sketch 41.2 (35397) - http://www.bohemiancoding.com/sketch -->
    <title>facebook-circle</title>
    <desc>Created with Sketch.</desc>
    <defs></defs>
    <g id="Icons" stroke="none" stroke-width="1" fill="none" fill-rule="evenodd">
        <g id="Icon-Set-Example" transform="translate(-48.000000, -72.000000)" fill="#000000">
            <g id="facebook-circle" transform="translate(48.000000, 72.000000)">
                <path d="M8.02319336,14.0287374 C11.336902,14.0287374 14.0231934,11.3424461 14.0231934,8.0287374 C14.0231934,4.71502874 11.336902,2.0287374 8.02319336,2.0287374 C4.7094847,2.0287374 2.02319336,4.71502874 2.02319336,8.0287374 C2.02319336,11.3424461 4.7094847,14.0287374 8.02319336,14.0287374 Z M7.1762367,11.292672 L7.1762367,8.02848261 L6.50244227,8.02848261 L6.50244227,6.90358097 L7.1762367,6.90358097 L7.1762367,6.2281941 C7.1762367,5.31050113 7.55670315,4.76480281 8.63765336,4.76480281 L9.53757467,4.76480281 L9.53757467,5.88983184 L8.97506016,5.88983184 C8.55427305,5.88983184 8.52643715,6.0470378 8.52643715,6.34042947 L8.52490841,6.90345357 L9.54394444,6.90345357 L9.42470232,8.02835521 L8.52490841,8.02835521 L8.52490841,11.292672 L7.1762367,11.292672 Z"></path>
            </g>
        </g>
    </g>
</svg>