<?xml version="1.0" encoding="UTF-8" standalone="no"?>
<svg width="16px" height="16px" viewBox="0 0 16 16" version="1.1" xmlns="http://www.w3.org/2000/svg" xmlns:xlink="http://www.w3.org/1999/xlink">
    <!-- Generator: Sketch 41.2 (35397) - http://www.bohemiancoding.com/sketch -->
    <title>feed</title>
    <desc>Created with Sketch.</desc>
    <defs></defs>
    <g id="Icons" stroke="none" stroke-width="1" fill="none" fill-rule="evenodd">
        <g id="Icon-Set-Example" transform="translate(-192.000000, -48.000000)" fill="#000000">
            <g id="feed" transform="translate(192.000000, 48.000000)">
                <path d="M2.01442944,2.29583084 C2.01442944,2.13200614 2.14919507,1.99919998 2.3110603,1.99919998 L13.7177986,1.99919998 C13.8816233,1.99919998 14.0144294,2.13396561 14.0144294,2.29583084 L14.0144294,13.7025691 C14.0144294,13.8663938 13.8796638,13.9992 13.7177986,13.9992 L2.3110603,13.9992 C2.1472356,13.9992 2.01442944,13.8644344 2.01442944,13.7025691 L2.01442944,2.29583084 Z M3.31172674,3.29649728 L7.85226728,3.29649728 L7.85226728,8.32352431 L3.31172674,8.32352431 L3.31172674,3.29649728 Z M8.98740241,6.2154162 L12.7171321,6.2154162 L12.7171321,7.18838917 L8.98740241,7.18838917 L8.98740241,6.2154162 Z M8.98740241,4.26947025 L12.7171321,4.26947025 L12.7171321,5.24244322 L8.98740241,5.24244322 L8.98740241,4.26947025 Z M3.31172674,9.6208216 L12.7171321,9.6208216 L12.7171321,12.8640648 L3.31172674,12.8640648 L3.31172674,9.6208216 Z" id="Combined-Shape"></path>
            </g>
        </g>
    </g>
</svg>