<?xml version="1.0" encoding="UTF-8" standalone="no"?>
<svg width="16px" height="16px" viewBox="0 0 16 16" version="1.1" xmlns="http://www.w3.org/2000/svg" xmlns:xlink="http://www.w3.org/1999/xlink">
    <!-- Generator: Sketch 41.2 (35397) - http://www.bohemiancoding.com/sketch -->
    <title>github</title>
    <desc>Created with Sketch.</desc>
    <defs></defs>
    <g id="Icons" stroke="none" stroke-width="1" fill="none" fill-rule="evenodd">
        <g id="Icon-Set-Example" transform="translate(-216.000000, -120.000000)" fill="#000000">
            <g id="github" transform="translate(216.000000, 120.000000)">
                <path d="M3.64325945,7.51277418 C3.48541185,7.06219437 3.41548813,6.54614284 3.41548813,5.96965586 C3.41548813,4.94628235 3.7443373,4.56016702 4.18568749,4.01456927 C3.8481844,2.84782946 4.30684245,2.05041736 4.30684245,2.05041736 C4.30684245,2.05041736 5.01646434,1.90772257 6.35782278,2.83943565 C7.08475251,2.53725843 9.02323181,2.512077 9.94054791,2.77228516 C10.5030531,2.41135126 11.5328702,1.89932875 11.9482586,2.04269506 C12.0607596,2.21829359 12.3030695,2.7303161 12.0953753,3.85508685 C12.2362612,4.10186491 12.9694218,4.62731751 12.9721911,6.11302216 C12.9604217,6.66097018 12.901575,7.12363707 12.7925356,7.51478869 C12.8132869,7.5146214 12.6532793,7.99981756 12.6153032,7.99860799 C12.1289526,9.03470652 11.131328,9.42152693 9.51927482,9.58235236 C10.0416258,9.9013172 10.1915117,10.3015341 10.1915117,11.3843358 C10.1915117,12.4671375 10.176627,12.6125183 10.1800886,12.8616467 C10.1856271,13.2702574 10.8031712,13.4660011 10.7799787,13.5976161 C10.7567862,13.7288953 10.2631662,13.7077429 10.0326257,13.6295125 C9.37908122,13.4085874 9.4445049,12.8811203 9.4445049,12.8811203 L9.42269701,11.4333557 C9.42269701,11.4333557 9.46735126,10.6540742 9.17034854,10.6540742 L9.17034854,13.0238151 C9.17034854,13.5388594 9.54246734,13.69532 9.54246734,13.8856917 C9.54246734,14.2130503 8.86330727,13.8548024 8.65388227,13.650665 C8.33507166,13.3400939 8.37141815,12.6813476 8.3790336,12.1605955 C8.3863029,11.6576383 8.3741874,10.5573775 8.3741874,10.5573775 L8.15783927,10.5617423 C8.15783927,10.5617423 8.24645546,12.9650584 8.04360745,13.4028796 C7.78122043,13.965265 6.98955933,14.1586584 6.98955933,13.9024793 C6.98955933,13.7302383 7.18444573,13.7849659 7.29244672,13.3988506 C7.38452449,13.0704847 7.3530242,10.620499 7.3530242,10.620499 C7.3530242,10.620499 7.09929111,10.7658798 7.09929111,11.2248534 C7.09929111,11.4346987 7.09340644,12.634678 7.09340644,12.9915829 C7.09340644,13.4408197 6.43570811,13.696663 6.11966675,13.696663 C5.95974221,13.696663 5.76070192,13.6889407 5.76070192,13.6066814 C5.76070192,13.3988506 6.36197666,13.2769725 6.36197666,12.844859 C6.36197666,12.4701593 6.35366889,11.506214 6.35366889,11.506214 C6.35366889,11.506214 6.05043535,11.5565768 5.61773907,11.5565768 C4.52734447,11.5565768 4.18257208,10.8817144 4.01849365,10.5039929 C3.80491478,10.0121155 3.52798916,9.78111782 3.2337557,9.59645396 C3.05306173,9.48296963 3.01152289,9.34934015 3.22060173,9.31106437 C4.18568749,9.13479433 4.43249745,10.3727137 5.07704181,10.5701361 C5.53708449,10.7108164 6.12866683,10.6500452 6.4229003,10.4653813 C6.46166988,10.0873241 6.74274938,9.76030116 6.97675152,9.58806015 C5.33735189,9.43529278 4.36534299,8.88297998 3.86133837,7.99525047 C3.85495851,7.99539911 3.62390932,7.51272791 3.64325945,7.51277418 Z"></path>
            </g>
        </g>
    </g>
</svg>