<?xml version="1.0" encoding="UTF-8" standalone="no"?>
<svg width="16px" height="16px" viewBox="0 0 16 16" version="1.1" xmlns="http://www.w3.org/2000/svg" xmlns:xlink="http://www.w3.org/1999/xlink">
    <!-- Generator: Sketch 41.2 (35397) - http://www.bohemiancoding.com/sketch -->
    <title>github-circle</title>
    <desc>Created with Sketch.</desc>
    <defs></defs>
    <g id="Icons" stroke="none" stroke-width="1" fill="none" fill-rule="evenodd">
        <g id="Icon-Set-Example" transform="translate(-144.000000, -96.000000)" fill="#000000">
            <g id="github-circle" transform="translate(144.000000, 96.000000)">
                <path d="M7.98376198,2.03264873 C4.67095311,2.03264873 1.98431448,4.71891903 1.98431448,8.0328329 C1.98431448,10.683743 3.70333594,12.9324308 6.08757118,13.7261937 C6.38776456,13.7810756 6.49716018,13.5958029 6.49716018,13.436682 C6.49716018,13.2945045 6.49200348,12.9169607 6.4890568,12.4163929 C4.82012896,12.7788349 4.46800029,11.6119483 4.46800029,11.6119483 C4.19506374,10.918741 3.8016815,10.734205 3.8016815,10.734205 C3.25691339,10.3621862 3.84293506,10.3695529 3.84293506,10.3695529 C4.44516349,10.4119114 4.76193196,10.9879881 4.76193196,10.9879881 C5.29712335,11.904775 6.16639496,11.6399418 6.50821024,11.4863459 C6.56272389,11.098857 6.7177931,10.8343922 6.88906908,10.6844797 C5.55679982,10.5330938 4.15602018,10.0181609 4.15602018,7.71901112 C4.15602018,7.06411072 4.38991318,6.52818267 4.7737187,6.10901695 C4.71220668,5.95726275 4.50630718,5.34693094 4.83265237,4.52112291 C4.83265237,4.52112291 5.3361669,4.35979199 6.48242676,5.13624307 C6.96126282,5.00290565 7.47435408,4.93660527 7.98449865,4.93402692 C8.49427489,4.93660527 9.00736614,5.00290565 9.48657054,5.13624307 C10.6320937,4.35979199 11.1352399,4.52112291 11.1352399,4.52112291 C11.4623218,5.34693094 11.2564223,5.95726275 11.1949103,6.10901695 C11.5794525,6.52818267 11.8115038,7.06411072 11.8115038,7.71901112 C11.8115038,10.0240542 10.4085141,10.5312521 9.07219318,10.6796913 C9.2876694,10.864964 9.47957216,11.2310894 9.47957216,11.7909593 C9.47957216,12.5928255 9.47183712,13.2399909 9.47183712,13.436682 C9.47183712,13.5972763 9.58012774,13.7840223 9.88474114,13.725457 C12.2667664,12.9302208 13.9843145,10.6830063 13.9843145,8.0328329 C13.9843145,4.71891903 11.2976758,2.03264873 7.98376198,2.03264873" id="Github-Gray"></path>
            </g>
        </g>
    </g>
</svg>