<?xml version="1.0" encoding="UTF-8" standalone="no"?>
<svg width="16px" height="16px" viewBox="0 0 16 16" version="1.1" xmlns="http://www.w3.org/2000/svg" xmlns:xlink="http://www.w3.org/1999/xlink">
    <!-- Generator: Sketch 41.2 (35397) - http://www.bohemiancoding.com/sketch -->
    <title>google-circle</title>
    <desc>Created with Sketch.</desc>
    <defs></defs>
    <g id="Icons" stroke="none" stroke-width="1" fill="none" fill-rule="evenodd">
        <g id="Icon-Set-Example" transform="translate(-72.000000, -72.000000)" fill="#000000">
            <g id="google-circle" transform="translate(72.000000, 72.000000)">
                <path d="M8.02319336,14.0287374 C11.336902,14.0287374 14.0231934,11.3424461 14.0231934,8.0287374 C14.0231934,4.71502874 11.336902,2.0287374 8.02319336,2.0287374 C4.7094847,2.0287374 2.02319336,4.71502874 2.02319336,8.0287374 C2.02319336,11.3424461 4.7094847,14.0287374 8.02319336,14.0287374 Z M12.7970206,6.3912456 L11.3760915,6.3912456 L11.3760915,7.9677912 L10.7063259,7.9677912 L10.7063259,6.3912456 L9.14354791,6.3912456 L9.14354791,5.7350796 L10.7063259,5.7350796 L10.7063259,4.1723856 L11.3760915,4.1723856 L11.3760915,5.7350796 L12.569182,5.7350796 C12.6573018,5.94791354 12.7335271,6.16692169 12.7970206,6.3912456 Z M2.02319336,8.0287374 C2.02319336,9.50964831 2.55970893,10.8652492 3.44897048,11.9117706 C3.61674109,11.62964 3.8768822,11.3522621 4.26226557,11.1243219 C5.13182307,10.5915295 6.30296121,10.5211606 6.93628055,10.4809499 C6.74025313,10.2296327 6.51406765,9.96323646 6.51406765,9.52594454 C6.51406765,9.28970637 6.58443647,9.14896874 6.65480529,8.98309939 C6.49898862,8.99817842 6.3481983,9.01325745 6.20746067,9.01325745 C4.72468921,9.01325745 3.88528977,7.90746178 3.88528977,6.81674515 C3.88528977,6.17337312 4.18184406,5.45862701 4.77997899,4.94141622 C5.57916768,4.28447307 6.52914669,4.1723856 7.28309828,4.1723856 L10.1631934,4.1723856 L9.26850414,4.67552263 L8.40397298,4.67552263 C8.72565899,4.94141622 9.39416274,5.5008483 9.39416274,6.56542795 C9.39416274,7.6008548 8.80608049,8.08841017 8.2230246,8.55083381 C8.03704987,8.73178219 7.83096977,8.92780961 7.83096977,9.23441659 C7.83096977,9.54102357 8.03704987,9.71191926 8.19286653,9.83757786 L8.69550093,10.2296327 C9.31374123,10.7423198 9.87166541,11.2198224 9.87166541,12.1848805 C9.87166541,12.8213005 9.5746675,13.4600683 8.99598914,13.9502785 C8.68463151,14.0010402 8.36522414,14.0278374 8.03972213,14.0287151 C8.62732534,13.7709591 8.93173909,13.2993527 8.93173909,12.732752 C8.93173909,12.0190111 8.47434179,11.6420353 7.40875688,10.8830574 C7.29817731,10.8730047 7.22780849,10.8730047 7.08707086,10.8730047 C6.96141227,10.8730047 6.20746067,10.8981364 5.61937843,11.0941638 C5.31277145,11.2047434 4.41808223,11.5415085 4.41808223,12.5367246 C4.41808223,12.6448802 4.42959593,12.7497377 4.45206003,12.8507271 C2.97831869,11.757483 2.02319336,10.004651 2.02319336,8.0287374 Z M7.81589074,8.2291478 C8.13757675,7.90746178 8.16270847,7.46011717 8.16270847,7.20879998 C8.16270847,6.19850484 7.56457354,4.63380397 6.40348809,4.63380397 C6.04159132,4.63380397 5.6495365,4.81575762 5.42335102,5.09572498 C5.18711285,5.38926347 5.11674404,5.76623926 5.11674404,6.12813603 C5.11674404,7.06806235 5.65958918,8.62120262 6.86591173,8.62120262 C7.21272946,8.62120262 7.58970526,8.45030693 7.81589074,8.2291478 Z" id="googleplus-circle"></path>
            </g>
        </g>
    </g>
</svg>