<?xml version="1.0" encoding="UTF-8" standalone="no"?>
<svg width="16px" height="16px" viewBox="0 0 16 16" version="1.1" xmlns="http://www.w3.org/2000/svg" xmlns:xlink="http://www.w3.org/1999/xlink">
    <!-- Generator: Sketch 41.2 (35397) - http://www.bohemiancoding.com/sketch -->
    <title>google</title>
    <desc>Created with Sketch.</desc>
    <defs></defs>
    <g id="Icons" stroke="none" stroke-width="1" fill="none" fill-rule="evenodd">
        <g id="Icon-Set-Example" transform="translate(-96.000000, -120.000000)" fill="#000000">
            <g id="google" transform="translate(96.000000, 120.000000)">
                <path d="M6.91075131,5.20396219 C6.74960845,3.982144 5.82367988,2.998144 4.89175131,2.97196219 C3.96003703,2.94359855 3.33517988,3.87959855 3.49632274,5.10359855 C3.65703703,6.32759855 4.54267988,7.342144 5.47460845,7.37050764 C6.40589417,7.39887128 7.0714656,6.42796219 6.91075131,5.20396219 L6.91075131,5.20396219 Z M5.35075131,9.74650764 C3.96260845,9.73123491 2.71867988,10.5930531 2.71867988,11.6272349 C2.71867988,12.6832349 3.72153703,13.4534167 5.10967988,13.4534167 C7.06139417,13.4534167 7.7419656,12.7355985 7.7419656,11.6817804 C7.7419656,11.5530531 7.72589417,11.4286895 7.69739417,11.3065076 C7.54482274,10.7108713 7.00439417,10.414144 6.25053703,9.89050764 C5.9764656,9.80105309 5.67475131,9.74868946 5.35075131,9.74650764 L5.35075131,9.74650764 Z M7.00482274,3.15305309 C7.76532274,3.58287128 8.21103703,4.27887128 8.21103703,5.18868946 C8.21103703,5.95232582 7.74732274,6.55450764 7.14925131,7.02359855 C6.56575131,7.47741673 6.4549656,7.66941673 6.4549656,8.05778037 C6.4549656,8.38723491 7.08025131,8.95232582 7.40703703,9.18141673 C8.36253703,9.85778037 8.6449656,10.486144 8.6449656,11.5334167 C8.6449656,12.8403258 7.40703703,14.2977804 5.11717988,14.2977804 C3.1084656,14.2977804 1.36010845,13.3203258 1.36010845,12.0134167 C1.36010845,10.6868713 2.95975131,9.406144 4.96825131,9.406144 C5.18725131,9.406144 5.38760845,9.39741673 5.59525131,9.39741673 C5.32032274,9.13123491 5.10303703,8.79741673 5.10303703,8.39378037 C5.10303703,8.15378037 5.17975131,7.91378037 5.2864656,7.70868946 C5.17717988,7.71523491 5.06575131,7.69778037 4.95110845,7.69778037 C3.30132274,7.69778037 2.19603703,6.48468946 2.19603703,5.02941673 C2.19603703,3.60687128 3.72239417,2.29778037 5.34410845,2.29778037 L8.96103703,2.29778037 L8.15167988,3.15305309 L7.00482274,3.15305309 L7.00482274,3.15305309 Z M12.931537,5.31087128 L12.931537,7.44032582 L12.0743942,7.44032582 L12.0743942,5.31087128 L9.93153703,5.31087128 L9.93153703,4.44032582 L12.0743942,4.44032582 L12.0743942,2.31087128 L12.931537,2.31087128 L12.931537,4.44032582 L15.0743942,4.44032582 L15.0743942,5.31087128 L12.931537,5.31087128 L12.931537,5.31087128 Z" id="GooglePlus-Gray"></path>
            </g>
        </g>
    </g>
</svg>