<?xml version="1.0" encoding="UTF-8" standalone="no"?>
<svg width="16px" height="16px" viewBox="0 0 16 16" version="1.1" xmlns="http://www.w3.org/2000/svg" xmlns:xlink="http://www.w3.org/1999/xlink">
    <!-- Generator: Sketch 41.2 (35397) - http://www.bohemiancoding.com/sketch -->
    <title>info-circle</title>
    <desc>Created with Sketch.</desc>
    <defs></defs>
    <g id="Icons" stroke="none" stroke-width="1" fill="none" fill-rule="evenodd">
        <g id="Icon-Set-Example" transform="translate(-168.000000, -96.000000)" fill="#000000">
            <g id="info-circle" transform="translate(168.000000, 96.000000)">
                <path d="M7.98431448,14.0326487 C11.2980231,14.0326487 13.9843145,11.3463574 13.9843145,8.03264873 C13.9843145,4.71894007 11.2980231,2.03264873 7.98431448,2.03264873 C4.67060582,2.03264873 1.98431448,4.71894007 1.98431448,8.03264873 C1.98431448,11.3463574 4.67060582,14.0326487 7.98431448,14.0326487 Z M8.3809178,9.76539888 L8.3809178,8.67792282 C8.3809178,8.18548083 8.59243957,8.21625845 9.21642879,7.67252042 C9.65004842,7.30318892 9.89329846,6.95437585 9.89329846,6.28752732 C9.89329846,5.14875521 9.14239617,4.45112905 7.97902644,4.45112905 C6.84738496,4.45112905 6.12821094,5.138496 6.0753305,6.22597207 L6.86853714,6.22597207 C6.86853714,5.57964195 7.24927633,5.09745917 7.96845035,5.09745917 C8.68762437,5.09745917 9.10009182,5.57964195 9.10009182,6.25674969 C9.10009182,6.74919168 8.90972223,6.99541268 8.52898304,7.28267051 C7.77808075,7.82640854 7.58771116,8.06237033 7.58771116,8.67792282 L7.58771116,9.76539888 L8.3809178,9.76539888 Z M7.38056448,11.0291684 C7.38056448,11.3591684 7.65806448,11.6141684 7.98806448,11.6141684 C8.31056448,11.6141684 8.58806448,11.3591684 8.58806448,11.0291684 C8.58806448,10.6991684 8.31056448,10.4516684 7.98806448,10.4516684 C7.66556448,10.4516684 7.38056448,10.6991684 7.38056448,11.0291684 Z" id="Combined-Shape"></path>
            </g>
        </g>
    </g>
</svg>