<?xml version="1.0" encoding="UTF-8" standalone="no"?>
<svg width="16px" height="16px" viewBox="0 0 16 16" version="1.1" xmlns="http://www.w3.org/2000/svg" xmlns:xlink="http://www.w3.org/1999/xlink">
    <!-- Generator: Sketch 41.2 (35397) - http://www.bohemiancoding.com/sketch -->
    <title>invader</title>
    <desc>Created with Sketch.</desc>
    <defs></defs>
    <g id="Icons" stroke="none" stroke-width="1" fill="none" fill-rule="evenodd">
        <g id="Icon-Set-Example" transform="translate(-144.000000, -144.000000)" fill="#000000">
            <g id="invader" transform="translate(144.000000, 144.000000)">
                <path d="M2.09645178,4.56441042 C2.01823342,4.48619207 1.99216064,2.19178685 2.09645178,2.0874957 C2.20074293,1.98320456 4.49514815,1.98320456 4.5733665,2.0874957 C4.65158486,2.19178685 4.65158486,4.48619207 4.5733665,4.56441042 C4.49514815,4.64262878 2.14859736,4.64262878 2.09645178,4.56441042 L2.09645178,4.56441042 L2.09645178,4.56441042 Z M11.4826549,4.56441042 C11.4044366,4.48619207 11.3783638,2.19178685 11.4826549,2.0874957 C11.5869461,1.98320456 13.8813513,1.98320456 13.9595697,2.0874957 C14.037788,2.19178685 14.037788,4.48619207 13.9595697,4.56441042 C13.8813513,4.64262878 11.5348005,4.64262878 11.4826549,4.56441042 L11.4826549,4.56441042 L11.4826549,4.56441042 Z M5.22518616,7.69314481 C5.14696781,7.61492646 5.12089503,5.32052124 5.22518616,5.21623008 C5.32947732,5.11193894 7.62388252,5.11193894 7.70210089,5.21623008 C7.78031925,5.32052124 7.78031925,7.61492646 7.70210089,7.69314481 C7.62388252,7.77136317 5.27733174,7.77136317 5.22518616,7.69314481 L5.22518616,7.69314481 L5.22518616,7.69314481 Z M8.35392055,7.69314481 C8.27570219,7.61492646 8.2496294,5.32052124 8.35392055,5.21623008 C8.45821169,5.11193894 10.7526169,5.11193894 10.8308353,5.21623008 C10.9090536,5.32052124 10.9090536,7.61492646 10.8308353,7.69314481 C10.7526169,7.77136317 8.40606613,7.77136317 8.35392055,7.69314481 L8.35392055,7.69314481 L8.35392055,7.69314481 Z M5.22518616,10.8218792 C5.14696781,10.7436608 5.12089503,8.44925561 5.22518616,8.34496447 C5.32947732,8.24067332 7.62388252,8.24067332 7.70210089,8.34496447 C7.78031925,8.44925561 7.78031925,10.7436608 7.70210089,10.8218792 C7.62388252,10.9000975 5.27733174,10.9000975 5.22518616,10.8218792 L5.22518616,10.8218792 L5.22518616,10.8218792 Z M8.35392055,10.8218792 C8.27570219,10.7436608 8.2496294,8.44925561 8.35392055,8.34496447 C8.45821169,8.24067332 10.7526169,8.24067332 10.8308353,8.34496447 C10.9090536,8.44925561 10.9090536,10.7436608 10.8308353,10.8218792 C10.7526169,10.9000975 8.40606613,10.9000975 8.35392055,10.8218792 L8.35392055,10.8218792 L8.35392055,10.8218792 Z M2.09645178,13.9506136 C2.01823342,13.8723952 1.99216064,11.57799 2.09645178,11.4736989 C2.20074293,11.3694077 4.49514815,11.3694077 4.5733665,11.4736989 C4.65158486,11.57799 4.65158486,13.8723952 4.5733665,13.9506136 C4.49514815,14.0288319 2.14859736,14.0288319 2.09645178,13.9506136 L2.09645178,13.9506136 L2.09645178,13.9506136 Z M11.4826549,13.9506136 C11.4044366,13.8723952 11.3783638,11.57799 11.4826549,11.4736989 C11.5869461,11.3694077 13.8813513,11.3694077 13.9595697,11.4736989 C14.037788,11.57799 14.037788,13.8723952 13.9595697,13.9506136 C13.8813513,14.0288319 11.5348005,14.0288319 11.4826549,13.9506136 L11.4826549,13.9506136 L11.4826549,13.9506136 Z" id="Fill-17"></path>
            </g>
        </g>
    </g>
</svg>