<?xml version="1.0" encoding="UTF-8" standalone="no"?>
<svg width="16px" height="16px" viewBox="0 0 16 16" version="1.1" xmlns="http://www.w3.org/2000/svg" xmlns:xlink="http://www.w3.org/1999/xlink">
    <!-- Generator: Sketch 41.2 (35397) - http://www.bohemiancoding.com/sketch -->
    <title>list</title>
    <desc>Created with Sketch.</desc>
    <defs></defs>
    <g id="Icons" stroke="none" stroke-width="1" fill="none" fill-rule="evenodd">
        <g id="Icon-Set-Example" transform="translate(-144.000000, -48.000000)" fill="#000000">
            <g id="list" transform="translate(144.000000, 48.000000)">
                <path d="M2.01370239,1.97644191 L5.28642967,1.97644191 L5.28642967,5.24916918 L2.01370239,5.24916918 L2.01370239,1.97644191 Z M6.37733876,1.97644191 L9.65006603,1.97644191 L9.65006603,5.24916918 L6.37733876,5.24916918 L6.37733876,1.97644191 Z M10.7409751,1.97644191 L14.0137024,1.97644191 L14.0137024,5.24916918 L10.7409751,5.24916918 L10.7409751,1.97644191 Z M2.01370239,6.34007827 L5.28642967,6.34007827 L5.28642967,9.61280555 L2.01370239,9.61280555 L2.01370239,6.34007827 Z M6.37733876,6.34007827 L9.65006603,6.34007827 L9.65006603,9.61280555 L6.37733876,9.61280555 L6.37733876,6.34007827 Z M10.7409751,6.34007827 L14.0137024,6.34007827 L14.0137024,9.61280555 L10.7409751,9.61280555 L10.7409751,6.34007827 Z M2.01370239,10.7037146 L5.28642967,10.7037146 L5.28642967,13.9764419 L2.01370239,13.9764419 L2.01370239,10.7037146 Z M6.37733876,10.7037146 L9.65006603,10.7037146 L9.65006603,13.9764419 L6.37733876,13.9764419 L6.37733876,10.7037146 Z M10.7409751,10.7037146 L14.0137024,10.7037146 L14.0137024,13.9764419 L10.7409751,13.9764419 L10.7409751,10.7037146 Z"></path>
            </g>
        </g>
    </g>
</svg>