<?xml version="1.0" encoding="UTF-8" standalone="no"?>
<svg width="16px" height="16px" viewBox="0 0 16 16" version="1.1" xmlns="http://www.w3.org/2000/svg" xmlns:xlink="http://www.w3.org/1999/xlink">
    <!-- Generator: Sketch 41.2 (35397) - http://www.bohemiancoding.com/sketch -->
    <title>lock</title>
    <desc>Created with Sketch.</desc>
    <defs></defs>
    <g id="Icons" stroke="none" stroke-width="1" fill="none" fill-rule="evenodd">
        <g id="Icon-Set-Example" transform="translate(-96.000000, -144.000000)" fill="#000000">
            <g id="lock" transform="translate(96.000000, 144.000000)">
                <path d="M12.1489766,7.84489378 L12.1489766,4.47503077 C12.1489766,3.11064721 11.0476068,2.00927734 9.68322319,2.00927734 L6.34623689,2.00927734 C4.98185333,2.00927734 3.88048347,3.11064721 3.88048347,4.47503077 L3.88048347,7.84489378 C3.20651086,7.89420885 2.68048347,8.46955132 2.68048347,9.15996228 L2.68048347,12.6942089 C2.68048347,13.4174965 3.27226429,14.0092773 3.99555196,14.0092773 L12.0503465,14.0092773 C12.7736342,14.0092773 13.365415,13.4174965 13.365415,12.6942089 L13.365415,9.15996228 C13.3489766,8.46955132 12.8229492,7.89420885 12.1489766,7.84489378 L12.1489766,7.84489378 Z M5.65582593,7.84489378 L5.65582593,4.70516775 C5.65582593,4.06407186 6.16541497,3.55448282 6.80651086,3.55448282 L9.15719579,3.55448282 C9.79829168,3.55448282 10.3078807,4.06407186 10.3078807,4.70516775 L10.3078807,7.84489378 L5.65582593,7.84489378 L5.65582593,7.84489378 Z" id="Shape"></path>
            </g>
        </g>
    </g>
</svg>