<?xml version="1.0" encoding="UTF-8" standalone="no"?>
<svg width="16px" height="16px" viewBox="0 0 16 16" version="1.1" xmlns="http://www.w3.org/2000/svg" xmlns:xlink="http://www.w3.org/1999/xlink">
    <!-- Generator: Sketch 41.2 (35397) - http://www.bohemiancoding.com/sketch -->
    <title>menu</title>
    <desc>Created with Sketch.</desc>
    <defs></defs>
    <g id="Icons" stroke="none" stroke-width="1" fill="none" fill-rule="evenodd">
        <g id="Icon-Set-Example" transform="translate(-24.000000, -120.000000)" fill="#000000">
            <g id="menu" transform="translate(24.000000, 120.000000)">
                <path d="M1.61889752,11.8767277 L14.3063975,11.8767277 C14.6695225,11.8767277 14.9626475,12.2778462 14.9626475,12.7747541 C14.9626475,13.2716619 14.6695225,13.6727804 14.3063975,13.6727804 L1.61889752,13.6727804 C1.25577252,13.6727804 0.962647517,13.2716619 0.962647517,12.7747541 C0.962647517,12.2778462 1.25577252,11.8767277 1.61889752,11.8767277 L1.61889752,11.8767277 Z M14.3063975,4.093833 L1.61889752,4.093833 C1.25577252,4.093833 0.962647517,3.69271458 0.962647517,3.19580668 C0.962647517,2.69889879 1.25577252,2.29778037 1.61889752,2.29778037 L14.3063975,2.29778037 C14.6695225,2.29778037 14.9626475,2.69889879 14.9626475,3.19580668 C14.9626475,3.69271458 14.6695225,4.093833 14.3063975,4.093833 L14.3063975,4.093833 Z M14.3063975,8.88330668 L1.61889752,8.88330668 C1.25577252,8.88330668 0.962647517,8.48218826 0.962647517,7.98528037 C0.962647517,7.48837247 1.25577252,7.08725405 1.61889752,7.08725405 L14.3063975,7.08725405 C14.6695225,7.08725405 14.9626475,7.48837247 14.9626475,7.98528037 C14.9626475,8.48218826 14.6695225,8.88330668 14.3063975,8.88330668 L14.3063975,8.88330668 Z" id="List-Gray"></path>
            </g>
        </g>
    </g>
</svg>