<?xml version="1.0" encoding="UTF-8" standalone="no"?>
<svg width="16px" height="16px" viewBox="0 0 16 16" version="1.1" xmlns="http://www.w3.org/2000/svg" xmlns:xlink="http://www.w3.org/1999/xlink">
    <!-- Generator: Sketch 41.2 (35397) - http://www.bohemiancoding.com/sketch -->
    <title>menu-large</title>
    <desc>Created with Sketch.</desc>
    <defs></defs>
    <g id="Icons" stroke="none" stroke-width="1" fill="none" fill-rule="evenodd">
        <g id="Icon-Set-Example" transform="translate(-48.000000, -168.000000)" fill="#000000">
            <g id="menu-large" transform="translate(48.000000, 168.000000)">
                <path d="M1.61889752,11.9852482 L14.3063975,11.9852482 C14.6695225,11.9852482 14.9626475,12.3863667 14.9626475,12.8832746 C14.9626475,13.3801825 14.6695225,13.7813009 14.3063975,13.7813009 L1.61889752,13.7813009 C1.25577252,13.7813009 0.962647517,13.3801825 0.962647517,12.8832746 C0.962647517,12.3863667 1.25577252,11.9852482 1.61889752,11.9852482 L1.61889752,11.9852482 Z M14.3063975,7.25498509 L1.61889752,7.25498509 C1.25577252,7.25498509 0.962647517,6.85386666 0.962647517,6.35695877 C0.962647517,5.86005087 1.25577252,5.45893245 1.61889752,5.45893245 L14.3063975,5.45893245 C14.6695225,5.45893245 14.9626475,5.86005087 14.9626475,6.35695877 C14.9626475,6.85386666 14.6695225,7.25498509 14.3063975,7.25498509 L14.3063975,7.25498509 Z M14.3063975,10.518143 L1.61889752,10.518143 C1.25577252,10.518143 0.962647517,10.1170246 0.962647517,9.62011666 C0.962647517,9.12320877 1.25577252,8.72209035 1.61889752,8.72209035 L14.3063975,8.72209035 C14.6695225,8.72209035 14.9626475,9.12320877 14.9626475,9.62011666 C14.9626475,10.1170246 14.6695225,10.518143 14.3063975,10.518143 L14.3063975,10.518143 Z M14.3063975,3.99182719 L1.61889752,3.99182719 C1.25577252,3.99182719 0.962647517,3.59070877 0.962647517,3.09380087 C0.962647517,2.59689298 1.25577252,2.19577456 1.61889752,2.19577456 L14.3063975,2.19577456 C14.6695225,2.19577456 14.9626475,2.59689298 14.9626475,3.09380087 C14.9626475,3.59070877 14.6695225,3.99182719 14.3063975,3.99182719 L14.3063975,3.99182719 Z" id="List-Gray"></path>
            </g>
        </g>
    </g>
</svg>