<?xml version="1.0" encoding="UTF-8" standalone="no"?>
<svg width="16px" height="16px" viewBox="0 0 16 16" version="1.1" xmlns="http://www.w3.org/2000/svg" xmlns:xlink="http://www.w3.org/1999/xlink">
    <!-- Generator: Sketch 41.2 (35397) - http://www.bohemiancoding.com/sketch -->
    <title>messages</title>
    <desc>Created with Sketch.</desc>
    <defs></defs>
    <g id="Icons" stroke="none" stroke-width="1" fill="none" fill-rule="evenodd">
        <g id="Icon-Set-Example" transform="translate(-48.000000, -24.000000)" fill="#000000">
            <g id="messages" transform="translate(48.000000, 24.000000)">
                <path d="M5.43922475,11.124047 L4.33572944,12.2063025 L3.08257205,11.124047 L1.38954338,11.124047 C1.23635114,11.124047 1.1121643,11.0010844 1.1121643,10.8527835 L1.1121643,6.21421209 C1.1121643,6.06439738 1.23663409,5.94294855 1.38954338,5.94294855 L8.75895582,5.94294855 C8.91214807,5.94294855 9.03633492,6.06591113 9.03633492,6.21421209 L9.03633492,10.8527835 C9.03633492,11.0025982 8.91186511,11.124047 8.75895582,11.124047 L5.43922475,11.124047 L5.43922475,11.124047 Z M5.79758097,12.2148046 L4.43058348,13.5554904 L2.87434823,12.2148046 L0.277828074,12.2148046 C0.124387866,12.2148046 0,12.0931555 0,11.9440334 L0,5.12296213 C0,4.97341935 0.12270041,4.85219097 0.277828074,4.85219097 L10.0096917,4.85219097 C10.1631319,4.85219097 10.2875197,4.97384007 10.2875197,5.12296213 L10.2875197,11.9440334 C10.2875197,12.0935762 10.1648193,12.2148046 10.0096917,12.2148046 L5.79758097,12.2148046 L5.79758097,12.2148046 Z" id="Rectangle-37"></path>
                <path d="M11.151705,9.0230992 L10.0482097,10.1053546 L8.7950523,9.0230992 L7.10202363,9.0230992 C6.94883139,9.0230992 6.82464455,8.90013662 6.82464455,8.75183564 L6.82464455,4.11326427 C6.82464455,3.96344956 6.94911435,3.84200073 7.10202363,3.84200073 L14.4714361,3.84200073 C14.6246283,3.84200073 14.7488152,3.96496331 14.7488152,4.11326427 L14.7488152,8.75183564 C14.7488152,8.90165037 14.6243454,9.0230992 14.4714361,9.0230992 L11.151705,9.0230992 L11.151705,9.0230992 Z M11.5100612,10.1138568 L10.1430637,11.4545426 L8.58682848,10.1138568 L5.99030833,10.1138568 C5.83686812,10.1138568 5.71248025,9.99220767 5.71248025,9.84308562 L5.71248025,3.02201431 C5.71248025,2.87247153 5.83518066,2.75124315 5.99030833,2.75124315 L15.7221719,2.75124315 C15.8756121,2.75124315 16,2.87289225 16,3.02201431 L16,9.84308562 C16,9.9926284 15.8772996,10.1138568 15.7221719,10.1138568 L11.5100612,10.1138568 L11.5100612,10.1138568 Z" id="Rectangle-37"></path>
            </g>
        </g>
    </g>
</svg>