<?xml version="1.0" encoding="UTF-8" standalone="no"?>
<svg width="16px" height="16px" viewBox="0 0 16 16" version="1.1" xmlns="http://www.w3.org/2000/svg" xmlns:xlink="http://www.w3.org/1999/xlink">
    <!-- Generator: Sketch 41.2 (35397) - http://www.bohemiancoding.com/sketch -->
    <title>misc-circle</title>
    <desc>Created with Sketch.</desc>
    <defs></defs>
    <g id="Icons" stroke="none" stroke-width="1" fill="none" fill-rule="evenodd">
        <g id="Icon-Set-Example" transform="translate(-168.000000, -72.000000)" fill="#000000">
            <g id="misc-circle" transform="translate(168.000000, 72.000000)">
                <path d="M8.02338086,14.0287374 C4.70950586,14.0287374 2.02319336,11.3424249 2.02319336,8.0287374 C2.02319336,4.7150499 4.70950586,2.0287374 8.02338086,2.0287374 C11.3368809,2.0287374 14.0231934,4.7150499 14.0231934,8.0287374 C14.0231934,11.3424249 11.3368809,14.0287374 8.02338086,14.0287374 L8.02338086,14.0287374 Z M5.42862917,9.00171037 C4.89124404,9.00171037 4.45562579,8.56609213 4.45562579,8.0287374 C4.45562579,7.49138267 4.89124404,7.05576443 5.42862917,7.05576443 C5.96595349,7.05576443 6.40157174,7.49138267 6.40157174,8.0287374 C6.40157174,8.56609213 5.96595349,9.00171037 5.42862917,9.00171037 L5.42862917,9.00171037 Z M8.02322376,9.00171037 C7.48583863,9.00171037 7.05022039,8.56609213 7.05022039,8.0287374 C7.05022039,7.49138267 7.48583863,7.05576443 8.02322376,7.05576443 C8.56054809,7.05576443 8.99616633,7.49138267 8.99616633,8.0287374 C8.99616633,8.56609213 8.56054809,9.00171037 8.02322376,9.00171037 L8.02322376,9.00171037 Z M10.6178184,9.00171037 C10.0804332,9.00171037 9.64481498,8.56609213 9.64481498,8.0287374 C9.64481498,7.49138267 10.0804332,7.05576443 10.6178184,7.05576443 C11.1551427,7.05576443 11.5907609,7.49138267 11.5907609,8.0287374 C11.5907609,8.56609213 11.1551427,9.00171037 10.6178184,9.00171037 L10.6178184,9.00171037 Z" id="misc"></path>
            </g>
        </g>
    </g>
</svg>