<?xml version="1.0" encoding="UTF-8" standalone="no"?>
<svg width="16px" height="16px" viewBox="0 0 16 16" version="1.1" xmlns="http://www.w3.org/2000/svg" xmlns:xlink="http://www.w3.org/1999/xlink">
    <!-- Generator: Sketch 41.2 (35397) - http://www.bohemiancoding.com/sketch -->
    <title>reload</title>
    <desc>Created with Sketch.</desc>
    <defs></defs>
    <g id="Icons" stroke="none" stroke-width="1" fill="none" fill-rule="evenodd">
        <g id="Icon-Set-Example" transform="translate(-96.000000, -168.000000)" fill="#000000">
            <g id="reload" transform="translate(96.000000, 168.000000)">
                <path d="M7.40705462,10.9375844 L7.41209285,10.9321951 C8.03160494,11.3895121 8.79623904,11.6602439 9.62428783,11.6602439 C11.6889221,11.6602439 13.3620928,9.98097559 13.3620928,7.91024397 C13.3620928,5.83829259 11.6889221,4.16024387 9.62428783,4.16024387 C7.60111715,4.16024387 5.95477577,5.77121956 5.89014148,7.7846342 L7.63038544,7.7846342 L5.38770256,10.2846342 L3.14501953,7.7846342 L4.64380015,7.7846342 C4.70965373,5.08097564 6.91331227,2.91024389 9.62428783,2.91024389 C12.3767269,2.91024389 14.6084343,5.14804882 14.6084343,7.91024397 C14.6084343,10.6712195 12.3767269,12.9102439 9.62428783,12.9102439 C8.61042063,12.9102439 7.66674813,12.6060665 6.87936226,12.0838034 C6.75999674,12.0431212 6.65664386,11.9678428 6.58125668,11.8699209 C6.57240601,11.8630658 6.56357893,11.8561815 6.55477577,11.8492684 L6.56120899,11.8423865 C6.49099625,11.7403184 6.44989769,11.6166663 6.44989769,11.4834153 C6.44989769,11.133186 6.73381463,10.8492691 7.08404408,10.8492691 C7.20200904,10.8492691 7.31245092,10.8814792 7.40705462,10.9375844 Z" transform="translate(8.876727, 7.910244) scale(-1, 1) translate(-8.876727, -7.910244) "></path>
            </g>
        </g>
    </g>
</svg>