<?xml version="1.0" encoding="UTF-8" standalone="no"?>
<svg width="16px" height="16px" viewBox="0 0 16 16" version="1.1" xmlns="http://www.w3.org/2000/svg" xmlns:xlink="http://www.w3.org/1999/xlink">
    <!-- Generator: Sketch 41.2 (35397) - http://www.bohemiancoding.com/sketch -->
    <title>search</title>
    <desc>Created with Sketch.</desc>
    <defs></defs>
    <g id="Icons" stroke="none" stroke-width="1" fill="none" fill-rule="evenodd">
        <g id="Icon-Set-Example" transform="translate(-168.000000, -48.000000)" fill="#000000">
            <g id="search" transform="translate(168.000000, 48.000000)">
                <path d="M9.3814962,10.5787842 C11.4701268,10.1684622 13.0457238,8.32757637 13.0457238,6.11869017 C13.0457238,3.60830494 11.0106545,1.57323563 8.50026929,1.57323563 C5.98988406,1.57323563 3.95481474,3.60830494 3.95481474,6.11869017 C3.95481474,8.42611791 5.67412669,10.3319788 7.90154141,10.6250637 C7.8687914,10.7134663 7.85091864,10.8092462 7.85091864,10.9092752 L7.85091864,14.7659317 C7.85091864,15.2142507 8.20909084,15.5732356 8.65091864,15.5732356 C9.09582678,15.5732356 9.45091864,15.2117934 9.45091864,14.7659317 L9.45091864,10.9092752 C9.45091864,10.7912852 9.42610973,10.679483 9.3814962,10.5787842 Z M8.50026929,9.02778108 C10.1069158,9.02778108 11.4093602,7.72533672 11.4093602,6.11869017 C11.4093602,4.51204363 10.1069158,3.20959926 8.50026929,3.20959926 C6.89362274,3.20959926 5.59117838,4.51204363 5.59117838,6.11869017 C5.59117838,7.72533672 6.89362274,9.02778108 8.50026929,9.02778108 Z" transform="translate(8.500269, 8.573236) rotate(-45.000000) translate(-8.500269, -8.573236) "></path>
            </g>
        </g>
    </g>
</svg>