<?xml version="1.0" encoding="UTF-8" standalone="no"?>
<svg width="16px" height="16px" viewBox="0 0 16 16" version="1.1" xmlns="http://www.w3.org/2000/svg" xmlns:xlink="http://www.w3.org/1999/xlink">
    <!-- Generator: Sketch 41.2 (35397) - http://www.bohemiancoding.com/sketch -->
    <title>software</title>
    <desc>Created with Sketch.</desc>
    <defs></defs>
    <g id="Icons" stroke="none" stroke-width="1" fill="none" fill-rule="evenodd">
        <g id="Icon-Set-Example" transform="translate(-144.000000, -120.000000)" fill="#000000">
            <g id="software" transform="translate(144.000000, 120.000000)">
                <path d="M2.07400264,10.1608524 L14.0187031,10.1608524 L14.0187031,2.87513807 L2.07400264,2.87513807 L2.07400264,10.1608524 Z M14.2399013,11.8751381 L10.0371363,11.8751381 L10.0371363,12.9465666 L10.9219289,13.8037095 L10.9219289,14.0179952 L5.17077684,14.0179952 L5.17077684,13.8037095 L6.05556946,12.9465666 L6.05556946,11.8751381 L1.85280449,11.8751381 C1.48650034,11.8751381 1.18921002,11.5873524 1.18921002,11.2322809 L1.18921002,2.66085235 C1.18921002,2.30578093 1.48650034,2.01799521 1.85280449,2.01799521 L14.2399013,2.01799521 C14.6064266,2.01799521 14.9034957,2.30578093 14.9034957,2.66085235 L14.9034957,11.2322809 C14.9034957,11.5873524 14.6064266,11.8751381 14.2399013,11.8751381 L14.2399013,11.8751381 Z" id="Software-Gray"></path>
            </g>
        </g>
    </g>
</svg>