<?xml version="1.0" encoding="UTF-8" standalone="no"?>
<svg width="16px" height="16px" viewBox="0 0 16 16" version="1.1" xmlns="http://www.w3.org/2000/svg" xmlns:xlink="http://www.w3.org/1999/xlink">
    <!-- Generator: Sketch 41.2 (35397) - http://www.bohemiancoding.com/sketch -->
    <title>storage-circle</title>
    <desc>Created with Sketch.</desc>
    <defs></defs>
    <g id="Icons" stroke="none" stroke-width="1" fill="none" fill-rule="evenodd">
        <g id="Icon-Set-Example" transform="translate(-72.000000, -144.000000)" fill="#000000">
            <g id="storage-circle" transform="translate(72.000000, 144.000000)">
                <path d="M8.02313672,14.0092773 C4.70926172,14.0092773 2.02294922,11.3229648 2.02294922,8.00927734 C2.02294922,4.69558984 4.70926172,2.00927734 8.02313672,2.00927734 C11.3366367,2.00927734 14.0229492,4.69558984 14.0229492,8.00927734 C14.0229492,11.3229648 11.3366367,14.0092773 8.02313672,14.0092773 Z M3.98160742,9.4699383 C3.89490917,9.43385774 3.91227802,9.27766319 3.91227802,9.27766319 L3.91227802,5.90608722 C3.91227802,5.90608722 3.87282615,5.71726812 4.01710322,5.6516754 C4.23255565,5.58022083 7.76962156,4.32044896 7.91226322,4.26920063 C8.02294923,4.19205537 8.12843577,4.25594454 8.12843577,4.25594454 L12.047878,5.58008177 C12.047878,5.58008177 12.1913725,5.61610856 12.1768094,5.72048021 C12.1730432,6.7847256 12.1641993,9.18599363 12.1641991,9.28387365 C12.1641989,9.38175367 12.0875793,9.43288433 12.0875793,9.43288433 C12.0875793,9.43288433 9.49625108,11.4696974 8.16390532,12.5114103 C8.04438009,12.641954 7.91226322,12.5285252 7.91226322,12.5285252 C7.91226322,12.5285252 5.32968454,10.5161629 3.98160742,9.4699383 Z M8.02294922,7.33132843 L4.63101322,5.95490805 L8.02294922,4.78271082 L11.6472135,5.95490805 L11.6472135,9.07747273 L8.02294922,11.664484 L8.02294922,7.70734206 L11.1688717,6.26438763 L8.02294922,7.33132843 Z" id="Combined-Shape"></path>
            </g>
        </g>
    </g>
</svg>