<?xml version="1.0" encoding="UTF-8" standalone="no"?>
<svg width="16px" height="16px" viewBox="0 0 16 16" version="1.1" xmlns="http://www.w3.org/2000/svg" xmlns:xlink="http://www.w3.org/1999/xlink">
    <!-- Generator: Sketch 41.2 (35397) - http://www.bohemiancoding.com/sketch -->
    <title>trash-circle</title>
    <desc>Created with Sketch.</desc>
    <defs></defs>
    <g id="Icons" stroke="none" stroke-width="1" fill="none" fill-rule="evenodd">
        <g id="Icon-Set-Example" transform="translate(-48.000000, -144.000000)" fill="#000000">
            <g id="trash-circle" transform="translate(48.000000, 144.000000)">
                <path d="M8.02020703,13.9882812 C4.70633203,13.9882812 2.02001953,11.3019688 2.02001953,7.98828125 C2.02001953,4.67459375 4.70633203,1.98828125 8.02020703,1.98828125 C11.333707,1.98828125 14.0200195,4.67459375 14.0200195,7.98828125 C14.0200195,11.3019688 11.333707,13.9882812 8.02020703,13.9882812 Z M5.02001953,6.26328111 L5.63251353,11.8593368 L10.3725693,11.8593368 L10.9557449,6.26328111 L5.02001953,6.26328111 Z M4.57566664,5.5722685 C4.57566664,5.5722685 4.61497078,5.32851284 4.8301124,5.11658192 C5.04525402,4.904651 6.37182922,4.70325032 6.37182922,4.70325032 L6.7943488,4.25778198 L9.0080572,4.25778198 L9.3895742,4.70325032 C9.3895742,4.70325032 10.788874,4.92898756 11.0099599,5.11658192 C11.2310458,5.30417627 11.3256666,5.5722685 11.3256666,5.5722685 L4.57566664,5.5722685 Z" id="Combined-Shape"></path>
            </g>
        </g>
    </g>
</svg>