<?xml version="1.0" encoding="UTF-8" standalone="no"?>
<svg width="16px" height="16px" viewBox="0 0 16 16" version="1.1" xmlns="http://www.w3.org/2000/svg" xmlns:xlink="http://www.w3.org/1999/xlink">
    <!-- Generator: Sketch 41.2 (35397) - http://www.bohemiancoding.com/sketch -->
    <title>unlock</title>
    <desc>Created with Sketch.</desc>
    <defs></defs>
    <g id="Icons" stroke="none" stroke-width="1" fill="none" fill-rule="evenodd">
        <g id="Icon-Set-Example" transform="translate(-120.000000, -144.000000)" fill="#000000">
            <g id="unlock" transform="translate(120.000000, 144.000000)">
                <path d="M12.158838,5.19597011 L12.1590517,5.19597011 L12.1590517,5.19597011 L12.1590517,4.47423244 C12.1590517,3.11353805 11.0553747,2.00927734 9.69392009,2.00927734 L6.35197835,2.00927734 C4.9896074,2.00927734 3.8868467,3.11287533 3.8868467,4.47423244 L3.8868467,7.84232485 L3.8868467,7.84232485 C3.21195563,7.89789627 2.68048347,8.46402012 2.68048347,9.1542054 L2.68048347,12.6929207 C2.68048347,13.4203304 3.26946915,14.0092773 3.99601982,14.0092773 L12.0498786,14.0092773 C12.7757269,14.0092773 13.365415,13.4199244 13.365415,12.6929207 L13.365415,9.1542054 C13.365415,8.42679571 12.7764293,7.83784876 12.0498786,7.83784876 L5.66838669,7.83784876 L5.66838669,4.70365196 C5.66838669,4.06768641 6.18413006,3.55213449 6.81859526,3.55213449 L9.17129346,3.55213449 C9.80653611,3.55213449 10.321502,4.067139 10.321502,4.70365196 L10.321502,5.19597011 L10.3226736,5.19597011 L10.3226736,5.45583129 C10.3226736,5.81950267 10.617141,6.1137224 10.9803848,6.1137224 L11.5011268,6.1137224 C11.8638265,6.1137224 12.158838,5.81917451 12.158838,5.45583129 L12.158838,5.19597011 Z"></path>
            </g>
        </g>
    </g>
</svg>