<?xml version="1.0" encoding="UTF-8" standalone="no"?>
<svg width="16px" height="16px" viewBox="0 0 16 16" version="1.1" xmlns="http://www.w3.org/2000/svg" xmlns:xlink="http://www.w3.org/1999/xlink">
    <!-- Generator: Sketch 41.2 (35397) - http://www.bohemiancoding.com/sketch -->
    <title>users</title>
    <desc>Created with Sketch.</desc>
    <defs></defs>
    <g id="Icons" stroke="none" stroke-width="1" fill="none" fill-rule="evenodd">
        <g id="Icon-Set-Example" transform="translate(-48.000000, -48.000000)" fill="#000000">
            <g id="users" transform="translate(48.000000, 48.000000)">
                <path d="M9.48121299,10.7891349 C9.82707386,10.5118918 9.95830598,10.1864424 9.95830598,9.72169474 C9.95830598,9.22552561 9.56190476,9.38748597 9.3876231,8.47898003 C9.31533941,8.10209114 8.96509017,8.47286831 8.89818034,7.61244117 C8.89818034,7.26947228 9.08932118,7.18431576 9.08932118,7.18431576 C9.08932118,7.18431576 8.99217021,6.67683997 8.95413171,6.28630159 C8.90682067,5.79970747 9.24495238,4.54252837 11.0475137,4.54252837 C12.850075,4.54252837 13.1879959,5.79970747 13.1408956,6.28630159 C13.1028571,6.67683997 13.0057062,7.18431576 13.0057062,7.18431576 C13.0057062,7.18431576 13.196847,7.26947228 13.196847,7.61244117 C13.1298318,8.47286831 12.7795826,8.10209114 12.7072989,8.47898003 C12.533228,9.38758783 12.136616,9.22552561 12.136616,9.72169474 C12.136616,10.5482019 12.551773,10.9341565 13.8505613,11.39172 C15.153459,11.8507095 15.9998946,12.318561 16,12.6377961 L16,13.7100959 L11.047619,13.7100959 L8.57142857,13.7100959 L6.0952381,13.7100959 L0,13.7100959 L0,12.3697212 C0,11.9708047 1.04176697,11.3858629 2.64533333,10.812126 C4.24384195,10.2400443 4.75454509,9.75760105 4.75454509,8.72459444 C4.75454509,8.10438303 4.26666667,8.30683348 4.05216616,7.17120105 C3.96320162,6.70008994 3.53212563,7.16356141 3.44977508,6.08802747 C3.44977508,5.65931636 3.68502533,5.55287072 3.68502533,5.55287072 C3.68502533,5.55287072 3.56545491,4.91852597 3.5186383,4.430353 C3.46040932,3.82211036 3.87657143,2.25063648 6.09510841,2.25063648 C8.31364539,2.25063648 8.72954813,3.82211036 8.67157852,4.430353 C8.6247619,4.91852597 8.50519149,5.55287072 8.50519149,5.55287072 C8.50519149,5.55287072 8.74044174,5.65931636 8.74044174,6.08802747 C8.6579615,7.16356141 8.22688551,6.70008994 8.13792097,7.17120105 C7.92367984,8.30696081 7.43554205,8.10438303 7.43554205,8.72459444 C7.43554205,9.74385704 7.93287583,10.2271173 9.48121299,10.7891349 Z" id="Combined-Shape"></path>
            </g>
        </g>
    </g>
</svg>