<?xml version="1.0" encoding="UTF-8" standalone="no"?>
<svg width="16px" height="16px" viewBox="0 0 16 16" version="1.1" xmlns="http://www.w3.org/2000/svg" xmlns:xlink="http://www.w3.org/1999/xlink">
    <!-- Generator: Sketch 41.2 (35397) - http://www.bohemiancoding.com/sketch -->
    <title>user</title>
    <desc>Created with Sketch.</desc>
    <defs></defs>
    <g id="Icons" stroke="none" stroke-width="1" fill="none" fill-rule="evenodd">
        <g id="Icon-Set-Example" transform="translate(-72.000000, -48.000000)" fill="#000000">
            <g id="user" transform="translate(72.000000, 48.000000)">
                <path d="M11.417506,10.8118934 C9.82891308,10.239912 9.32112013,9.75744602 9.32112013,8.72426335 C9.32112013,8.10402269 9.80622995,8.30661002 10.0191421,7.17079668 C10.1075548,6.69966335 10.5359568,7.16315668 10.6179254,6.08757201 C10.6179254,5.65884068 10.3841344,5.55239001 10.3841344,5.55239001 C10.3841344,5.55239001 10.5029631,4.91801534 10.5494893,4.42981934 C10.6070993,3.82154801 10.1937765,2.25 7.98900137,2.25 C5.78422624,2.25 5.37064564,3.82154801 5.42851342,4.42981934 C5.47503962,4.91801534 5.59386833,5.55239001 5.59386833,5.55239001 C5.59386833,5.55239001 5.36007736,5.65884068 5.36007736,6.08757201 C5.44191709,7.16315668 5.87031906,6.69966335 5.95873174,7.17079668 C6.17190167,8.30648269 6.65675372,8.10402269 6.65675372,8.72426335 C6.65675372,9.75731869 6.14921854,10.2397847 4.56062567,10.8118934 C2.96700642,11.3856574 1.93170166,11.9706267 1.93170166,12.369562 L1.93170166,13.71 L7.98913025,13.71 L14.0465588,13.71 L14.0465588,12.369562 C14.04643,11.9704994 13.0111252,11.3856574 11.417506,10.8118934 L11.417506,10.8118934 Z"></path>
            </g>
        </g>
    </g>
</svg>