<?xml version="1.0" encoding="UTF-8" standalone="no"?>
<svg width="74px" height="74px" viewBox="0 0 74 74" version="1.1" xmlns="http://www.w3.org/2000/svg" xmlns:xlink="http://www.w3.org/1999/xlink" xmlns:sketch="http://www.bohemiancoding.com/sketch/ns">
    <!-- Generator: Sketch 3.3.1 (12002) - http://www.bohemiancoding.com/sketch -->
    <title>alert</title>
    <desc>Created with Sketch.</desc>
    <defs></defs>
    <g id="Icons-/-Resources" stroke="none" stroke-width="1" fill="none" fill-rule="evenodd" sketch:type="MSPage">
        <path d="M37,74 C57.4345368,74 74,57.4345368 74,37 C74,16.5654632 57.4345368,0 37,0 C16.5654632,0 0,16.5654632 0,37 C0,57.4345368 16.5654632,74 37,74 Z M42,17.5 L32,17.5 L33.7346939,43.5 L40.5714286,43.5 L42,17.5 Z M32,53.3010753 C32,56.1397849 34.2981366,58.3333333 37.0310559,58.3333333 C39.7018634,58.3333333 42,56.1397849 42,53.3010753 C42,50.4623656 39.7018634,48.3333333 37.0310559,48.3333333 C34.3602484,48.3333333 32,50.4623656 32,53.3010753 Z" id="alert" fill="#FFFFFF" sketch:type="MSShapeGroup"></path>
    </g>
</svg>