<?xml version="1.0" encoding="UTF-8" standalone="no"?>
<svg width="75px" height="65px" viewBox="0 0 75 65" version="1.1" xmlns="http://www.w3.org/2000/svg" xmlns:xlink="http://www.w3.org/1999/xlink" xmlns:sketch="http://www.bohemiancoding.com/sketch/ns">
    <!-- Generator: Sketch 3.3.1 (12002) - http://www.bohemiancoding.com/sketch -->
    <title>calendar</title>
    <desc>Created with Sketch.</desc>
    <defs></defs>
    <g id="Icons-/-Resources" stroke="none" stroke-width="1" fill="none" fill-rule="evenodd" sketch:type="MSPage">
        <path d="M62.5123199,0.666666667 L71.6910541,0.666666667 C73.3437881,0.666666667 74.6835938,2.00339762 74.6835938,3.66767852 L74.6835938,61.6656548 C74.6835938,63.3230679 73.3360156,64.6666667 71.6910541,64.6666667 L3.67613339,64.6666667 C2.02339939,64.6666667 0.68359375,63.3299357 0.68359375,61.6656548 L0.68359375,3.66767852 C0.68359375,2.01026544 2.03117189,0.666666667 3.67613339,0.666666667 L12.8546663,0.666666667 L12.8546663,0.666666667 C12.7438488,0.980426134 12.6835938,1.31815579 12.6835938,1.67001791 L12.6835938,9.66331543 C12.6835938,11.3242878 14.0274852,12.6666667 15.6852592,12.6666667 L17.6819283,12.6666667 C19.3445736,12.6666667 20.6835938,11.3220205 20.6835938,9.66331543 L20.6835938,1.67001791 C20.6835938,1.31800992 20.6232344,0.980311193 20.5123199,0.666666667 L54.8546663,0.666666667 C54.7438488,0.980426134 54.6835938,1.31815579 54.6835938,1.67001791 L54.6835938,9.66331543 C54.6835938,11.3242878 56.0274852,12.6666667 57.6852592,12.6666667 L59.6819283,12.6666667 C61.3445736,12.6666667 62.6835938,11.3220205 62.6835938,9.66331543 L62.6835938,1.67001791 C62.6835938,1.31800992 62.6232344,0.980311193 62.5123199,0.666666667 L62.5123199,0.666666667 Z M6.68359375,21.6621737 C6.68359375,20.0078008 8.03621164,18.6666667 9.67398262,18.6666667 L65.6932049,18.6666667 C67.344751,18.6666667 68.6835938,20.0091349 68.6835938,21.6621737 L68.6835938,54.6711597 C68.6835938,56.3255325 67.3309759,57.6666667 65.6932049,57.6666667 L9.67398262,57.6666667 C8.02243645,57.6666667 6.68359375,56.3241984 6.68359375,54.6711597 L6.68359375,21.6621737 Z M28.8185938,26.905 C29.8985992,26.905 30.8710894,27.0624984 31.7360938,27.3775 C32.6010981,27.6925016 33.3385907,28.1299972 33.9485938,28.69 C34.5585968,29.2500028 35.0260921,29.9174961 35.3510938,30.6925 C35.6760954,31.4675039 35.8385938,32.3199953 35.8385938,33.25 C35.8385938,34.050004 35.7260949,34.7899966 35.5010938,35.47 C35.2760926,36.1500034 34.9685957,36.7974969 34.5785937,37.4125 C34.1885918,38.0275031 33.7360963,38.6224971 33.2210938,39.1975 C32.7060912,39.7725029 32.1585967,40.3549971 31.5785937,40.945 L27.3035938,45.325 C27.8535965,45.1649992 28.3960911,45.0375005 28.9310938,44.9425 C29.4660964,44.8474995 29.9685914,44.8 30.4385938,44.8 L34.5185938,44.8 C35.0185963,44.8 35.4135923,44.9374986 35.7035937,45.2125 C35.9935952,45.4875014 36.1385937,45.8499977 36.1385937,46.3 L36.1385937,49 L20.7785937,49 L20.7785937,47.5 C20.7785937,47.2099986 20.8385932,46.9000016 20.9585938,46.57 C21.0785944,46.2399984 21.2885923,45.9400013 21.5885938,45.67 L27.8885937,39.325 C28.4285965,38.7849973 28.8985918,38.2700024 29.2985938,37.78 C29.6985958,37.2899976 30.0285925,36.8075024 30.2885938,36.3325 C30.5485951,35.8574976 30.7435931,35.3825024 30.8735937,34.9075 C31.0035944,34.4324976 31.0685938,33.9300027 31.0685938,33.4 C31.0685938,32.5299956 30.8610958,31.8625023 30.4460938,31.3975 C30.0310917,30.9324977 29.398598,30.7 28.5485938,30.7 C28.198592,30.7 27.8785952,30.7499995 27.5885938,30.85 C27.2985923,30.9500005 27.0385949,31.0849991 26.8085938,31.255 C26.5785926,31.4250009 26.3810946,31.6249988 26.2160937,31.855 C26.0510929,32.0850011 25.9185942,32.3349986 25.8185938,32.605 C25.6585929,33.0550023 25.456095,33.379999 25.2110938,33.58 C24.9660925,33.780001 24.6335959,33.88 24.2135938,33.88 C24.1135933,33.88 24.0060943,33.875 23.8910938,33.865 C23.7760932,33.8549999 23.6585944,33.8400001 23.5385938,33.82 L21.0785938,33.385 C21.2385946,32.2949946 21.5460915,31.3450041 22.0010938,30.535 C22.456096,29.7249959 23.0210904,29.0500027 23.6960938,28.51 C24.3710971,27.9699973 25.1435894,27.5675013 26.0135937,27.3025 C26.8835981,27.0374987 27.8185888,26.905 28.8185938,26.905 Z M52.1585938,29.065 C52.1585938,29.3850016 52.1085942,29.6749987 52.0085938,29.935 C51.9085933,30.1950013 51.7510948,30.422499 51.5360938,30.6175 C51.3210927,30.812501 51.0385955,30.9624995 50.6885938,31.0675 C50.338592,31.1725005 49.9185962,31.225 49.4285938,31.225 L44.2085938,31.225 L43.5935938,34.84 C44.0035958,34.7699996 44.3985919,34.7175002 44.7785937,34.6825 C45.1585957,34.6474998 45.528592,34.63 45.8885937,34.63 C47.0385995,34.63 48.0535893,34.8049982 48.9335938,35.155 C49.8135982,35.5050018 50.5535907,35.982497 51.1535937,36.5875 C51.7535967,37.192503 52.2060922,37.9024959 52.5110938,38.7175 C52.8160953,39.5325041 52.9685938,40.4049953 52.9685938,41.335 C52.9685938,42.5050058 52.7610958,43.5724952 52.3460938,44.5375 C51.9310917,45.5025048 51.3535975,46.3349965 50.6135937,47.035 C49.8735901,47.7350035 48.9910989,48.2774981 47.9660937,48.6625 C46.9410886,49.0475019 45.8185998,49.24 44.5985938,49.24 C43.8885902,49.24 43.211097,49.1650007 42.5660938,49.015 C41.9210905,48.8649992 41.3160966,48.6625013 40.7510938,48.4075 C40.1860909,48.1524987 39.6635962,47.8575017 39.1835938,47.5225 C38.7035913,47.1874983 38.2685957,46.8300019 37.8785938,46.45 L39.3185938,44.53 C39.4685945,44.329999 39.6435927,44.1775005 39.8435938,44.0725 C40.0435947,43.9674995 40.2585926,43.915 40.4885938,43.915 C40.7885953,43.915 41.0710924,43.9974992 41.3360938,44.1625 C41.6010951,44.3275008 41.8910922,44.507499 42.2060937,44.7025 C42.5210953,44.897501 42.8885917,45.0749992 43.3085938,45.235 C43.7285959,45.3950008 44.2485906,45.475 44.8685938,45.475 C45.4885969,45.475 46.0185915,45.372501 46.4585938,45.1675 C46.898596,44.962499 47.2560924,44.6825018 47.5310938,44.3275 C47.8060951,43.9724982 48.0060931,43.5575024 48.1310938,43.0825 C48.2560944,42.6074976 48.3185938,42.1000027 48.3185938,41.56 C48.3185938,40.4999947 48.0185968,39.6925028 47.4185937,39.1375 C46.8185907,38.5824972 45.9685992,38.305 44.8685938,38.305 C43.8885889,38.305 42.9285984,38.4899982 41.9885938,38.86 L39.1085937,38.08 L40.9685938,27.145 L52.1585938,27.145 L52.1585938,29.065 Z" id="calendar" fill="#FFFFFF" sketch:type="MSShapeGroup"></path>
    </g>
</svg>