<?xml version="1.0" encoding="UTF-8" standalone="no"?>
<svg width="82px" height="72px" viewBox="0 0 82 72" version="1.1" xmlns="http://www.w3.org/2000/svg" xmlns:xlink="http://www.w3.org/1999/xlink" xmlns:sketch="http://www.bohemiancoding.com/sketch/ns">
    <!-- Generator: Sketch 3.3.1 (12002) - http://www.bohemiancoding.com/sketch -->
    <title>calendaradd</title>
    <desc>Created with Sketch.</desc>
    <defs></defs>
    <g id="Icons-/-Resources" stroke="none" stroke-width="1" fill="none" fill-rule="evenodd" sketch:type="MSPage">
        <g id="calendaradd" sketch:type="MSLayerGroup" fill="#FFFFFF">
            <path d="M50.2826933,0.533333333 L57.6645435,0.533333333 C58.9939165,0.533333333 60.0715863,1.6027181 60.0715863,2.93414281 L60.0715863,49.3325239 C60.0715863,50.6584543 58.9876647,51.7333333 57.6645435,51.7333333 L2.9568899,51.7333333 C1.6275169,51.7333333 0.549847147,50.6639486 0.549847147,49.3325239 L0.549847147,2.93414281 C0.549847147,1.60821235 1.63376869,0.533333333 2.9568899,0.533333333 L10.3394482,0.533333333 L10.3394482,0.533333333 C10.2504871,0.784340907 10.2020211,1.05452463 10.2020211,1.33601433 L10.2020211,7.73065234 C10.2020211,9.05943025 11.2747806,10.1333333 12.5980966,10.1333333 L14.2407281,10.1333333 C15.5597657,10.1333333 16.6368037,9.05761641 16.6368037,7.73065234 L16.6368037,1.33601433 C16.6368037,1.05440794 16.5886219,0.784248955 16.5000846,0.533333333 L44.1220569,0.533333333 C44.0330958,0.784340907 43.9846298,1.05452463 43.9846298,1.33601433 L43.9846298,7.73065234 C43.9846298,9.05943025 45.0573893,10.1333333 46.3807053,10.1333333 L48.0233368,10.1333333 C49.3423744,10.1333333 50.4194124,9.05761641 50.4194124,7.73065234 L50.4194124,1.33601433 C50.4194124,1.05440794 50.3712306,0.784248955 50.2826933,0.533333333 L50.2826933,0.533333333 Z M5.3759341,17.3297389 C5.3759341,16.0062407 6.44060223,14.9333333 7.78124689,14.9333333 L52.8401865,14.9333333 C54.1686041,14.9333333 55.2454993,16.007308 55.2454993,17.3297389 L55.2454993,43.7369277 C55.2454993,45.060426 54.1808312,46.1333333 52.8401865,46.1333333 L7.78124689,46.1333333 C6.45282932,46.1333333 5.3759341,45.0593587 5.3759341,43.7369277 L5.3759341,17.3297389 Z M23.1801732,21.524 C24.0488732,21.524 24.8310937,21.6499987 25.526858,21.902 C26.2226224,22.1540013 26.815823,22.5039978 27.3064776,22.952 C27.7971322,23.4000022 28.1731611,23.9339969 28.4345754,24.554 C28.6959898,25.1740031 28.826695,25.8559963 28.826695,26.6 C28.826695,27.2400032 28.7362067,27.8319973 28.5552276,28.376 C28.3742484,28.9200027 28.1269139,29.4379975 27.8132167,29.93 C27.4995195,30.4220025 27.1355557,30.8979977 26.7213145,31.358 C26.3070733,31.8180023 25.8666973,32.2839976 25.4001732,32.756 L21.9615863,36.26 C22.4039798,36.1319994 22.8403341,36.0300004 23.2706624,35.954 C23.7009906,35.8779996 24.1051713,35.84 24.4832167,35.84 L27.7649558,35.84 C28.1671318,35.84 28.484846,35.9499989 28.718108,36.17 C28.9513701,36.3900011 29.0679993,36.6799982 29.0679993,37.04 L29.0679993,39.2 L16.7132167,39.2 L16.7132167,38 C16.7132167,37.7679988 16.7614771,37.5200013 16.8579993,37.256 C16.9545215,36.9919987 17.1234329,36.7520011 17.3647385,36.536 L22.4321298,31.46 C22.8664798,31.0279978 23.2445195,30.616002 23.5662602,30.224 C23.8880009,29.831998 24.1534331,29.4460019 24.3625645,29.066 C24.571696,28.6859981 24.7285423,28.3060019 24.833108,27.926 C24.9376738,27.5459981 24.9899558,27.1440021 24.9899558,26.72 C24.9899558,26.0239965 24.8230553,25.4900019 24.4892493,25.118 C24.1554433,24.7459981 23.6466984,24.56 22.9629993,24.56 C22.6814762,24.56 22.4240874,24.5999996 22.1908254,24.68 C21.9575634,24.7600004 21.748435,24.8679993 21.5634341,25.004 C21.3784332,25.1400007 21.2195761,25.2999991 21.086858,25.484 C20.95414,25.6680009 20.8475649,25.8679989 20.7671298,26.084 C20.6384335,26.4440018 20.4755547,26.7039992 20.2784885,26.864 C20.0814222,27.0240008 19.8139793,27.104 19.4761515,27.104 C19.3957163,27.104 19.3092498,27.1 19.2167493,27.092 C19.1242489,27.084 19.0297389,27.0720001 18.9332167,27.056 L16.9545211,26.708 C17.0832174,25.8359956 17.3305518,25.0760032 17.6965319,24.428 C18.062512,23.7799968 18.516964,23.2400022 19.0599015,22.808 C19.602839,22.3759978 20.2241915,22.0540011 20.9239776,21.842 C21.6237637,21.6299989 22.3758214,21.524 23.1801732,21.524 Z M41.9536515,23.252 C41.9536515,23.5080013 41.9134345,23.739999 41.8329993,23.948 C41.7525641,24.156001 41.6258806,24.3379992 41.452945,24.494 C41.2800093,24.6500008 41.0527833,24.7699996 40.7712602,24.854 C40.489737,24.9380004 40.1519143,24.98 39.7577819,24.98 L35.5590863,24.98 L35.0644124,27.872 C35.3941966,27.8159997 35.7119108,27.7740001 36.0175645,27.746 C36.3232182,27.7179999 36.620824,27.704 36.9103906,27.704 C37.8353952,27.704 38.6518001,27.8439986 39.3596298,28.124 C40.0674594,28.4040014 40.6626708,28.7859976 41.1452819,29.27 C41.627893,29.7540024 41.9918568,30.3219967 42.2371841,30.974 C42.4825114,31.6260033 42.6051732,32.3239963 42.6051732,33.068 C42.6051732,34.0040047 42.4382727,34.8579961 42.1044667,35.63 C41.7706607,36.4020039 41.3061545,37.0679972 40.7109341,37.628 C40.1157137,38.1880028 39.4058839,38.6219985 38.5814232,38.93 C37.7569626,39.2380015 36.8540912,39.392 35.8727819,39.392 C35.3016921,39.392 34.7567519,39.3320006 34.237945,39.212 C33.719138,39.0919994 33.2325125,38.930001 32.7780537,38.726 C32.3235949,38.521999 31.9033273,38.2860013 31.5172385,38.018 C31.1311496,37.7499987 30.7812618,37.4640015 30.4675645,37.16 L31.6258254,35.624 C31.7464782,35.4639992 31.8872376,35.3420004 32.048108,35.258 C32.2089784,35.1739996 32.3819114,35.132 32.5669124,35.132 C32.8082179,35.132 33.0354439,35.1979993 33.2485971,35.33 C33.4617504,35.4620007 33.6950089,35.6059992 33.9483798,35.762 C34.2017506,35.9180008 34.4973455,36.0599994 34.8351732,36.188 C35.173001,36.3160006 35.5912577,36.38 36.0899558,36.38 C36.588654,36.38 37.0149541,36.2980008 37.3688689,36.134 C37.7227837,35.9699992 38.0103352,35.7460014 38.2315319,35.462 C38.4527287,35.1779986 38.6135966,34.8460019 38.7141406,34.466 C38.8146846,34.0859981 38.8649558,33.6800022 38.8649558,33.248 C38.8649558,32.3999958 38.6236539,31.7540022 38.1410428,31.31 C37.6584317,30.8659978 36.9747429,30.644 36.0899558,30.644 C35.301691,30.644 34.5295248,30.7919985 33.7734341,31.088 L31.4569124,30.464 L32.9529993,21.716 L41.9536515,21.716 L41.9536515,23.252 Z" id="calendar-copy" sketch:type="MSShapeGroup"></path>
            <path d="M59.6793656,46.5347826 L59.6793656,34.6582664 C59.6793656,33.6345246 58.8442794,32.8 57.8141483,32.8 C56.7768352,32.8 55.9489309,33.6319742 55.9489309,34.6582664 L55.9489309,46.5347826 L44.0724147,46.5347826 C43.0486729,46.5347826 42.2141483,47.3698689 42.2141483,48.4 C42.2141483,49.437313 43.0461225,50.2652174 44.0724147,50.2652174 L55.9489309,50.2652174 L55.9489309,62.1417336 C55.9489309,63.1654754 56.7840171,64 57.8141483,64 C58.8514613,64 59.6793656,63.1680258 59.6793656,62.1417336 L59.6793656,50.2652174 L71.5558818,50.2652174 C72.5796236,50.2652174 73.4141483,49.4301311 73.4141483,48.4 C73.4141483,47.362687 72.582174,46.5347826 71.5558818,46.5347826 L59.6793656,46.5347826 Z" id="add" stroke="#111111" stroke-width="8" sketch:type="MSShapeGroup"></path>
        </g>
    </g>
</svg>