<?xml version="1.0" encoding="UTF-8" standalone="no"?>
<svg width="56px" height="55px" viewBox="0 0 56 55" version="1.1" xmlns="http://www.w3.org/2000/svg" xmlns:xlink="http://www.w3.org/1999/xlink" xmlns:sketch="http://www.bohemiancoding.com/sketch/ns">
    <!-- Generator: Sketch 3.3.1 (12002) - http://www.bohemiancoding.com/sketch -->
    <title>close</title>
    <desc>Created with Sketch.</desc>
    <defs></defs>
    <g id="Icons-/-Resources" stroke="none" stroke-width="1" fill="none" fill-rule="evenodd" sketch:type="MSPage">
        <path d="M32.2375,23.1 L32.2375,-5.09257317 C32.2375,-7.52067876 30.2675529,-9.5 27.8375,-9.5 C25.4123918,-9.5 23.4375,-7.52672779 23.4375,-5.09257317 L23.4375,23.1 L-4.75507317,23.1 C-7.18317876,23.1 -9.1625,25.0699471 -9.1625,27.5 C-9.1625,29.9251082 -7.18922779,31.9 -4.75507317,31.9 L23.4375,31.9 L23.4375,60.0925732 C23.4375,62.5206788 25.4074471,64.5 27.8375,64.5 C30.2626082,64.5 32.2375,62.5267278 32.2375,60.0925732 L32.2375,31.9 L60.4300732,31.9 C62.8581788,31.9 64.8375,29.9300529 64.8375,27.5 C64.8375,25.0748918 62.8642278,23.1 60.4300732,23.1 L32.2375,23.1 Z" id="close" fill="#FFFFFF" sketch:type="MSShapeGroup" transform="translate(27.837500, 27.500000) rotate(-45.000000) translate(-27.837500, -27.500000) "></path>
    </g>
</svg>