<?xml version="1.0" encoding="UTF-8" standalone="no"?>
<svg width="74px" height="74px" viewBox="0 0 74 74" version="1.1" xmlns="http://www.w3.org/2000/svg" xmlns:xlink="http://www.w3.org/1999/xlink" xmlns:sketch="http://www.bohemiancoding.com/sketch/ns">
    <!-- Generator: Sketch 3.3.1 (12002) - http://www.bohemiancoding.com/sketch -->
    <title>completed</title>
    <desc>Created with Sketch.</desc>
    <defs></defs>
    <g id="Icons-/-Resources" stroke="none" stroke-width="1" fill="none" fill-rule="evenodd" sketch:type="MSPage">
        <path d="M37.0011563,74 C16.5655937,74 0,57.4344063 0,37 C0,16.5655937 16.5655937,0 37.0011563,0 C57.4344063,0 74,16.5655937 74,37 C74,57.4344063 57.4344063,74 37.0011563,74 Z M36.6047859,51.2319016 C36.1137819,51.7935568 35.4017514,52.182439 34.583378,52.2540374 C33.7659917,52.3255494 32.9972499,52.066218 32.4161749,51.5983575 L18.4986283,40.3288125 C17.9175532,39.860952 17.523311,39.1750299 17.4540898,38.3838281 C17.3156474,36.8014243 19.4397036,34.3246343 21.0744761,34.1816102 C21.8928495,34.1100118 22.6615913,34.3693432 23.2426664,34.8372037 L33.8052575,43.3600798 L51.766209,22.7361997 C52.2572131,22.1745444 52.9692435,21.7856622 53.7866298,21.7141502 C55.4223895,21.5710398 57.9432794,23.6414497 58.0817218,25.2238534 C58.150943,26.0150553 57.8827864,26.7589298 57.3917824,27.320585 L36.6047859,51.2319016 Z" id="completed" fill="#FFFFFF" sketch:type="MSShapeGroup"></path>
    </g>
</svg>