<?xml version="1.0" encoding="UTF-8" standalone="no"?>
<svg width="74px" height="68px" viewBox="0 0 74 68" version="1.1" xmlns="http://www.w3.org/2000/svg" xmlns:xlink="http://www.w3.org/1999/xlink" xmlns:sketch="http://www.bohemiancoding.com/sketch/ns">
    <!-- Generator: Sketch 3.3.1 (12002) - http://www.bohemiancoding.com/sketch -->
    <title>dropbox</title>
    <desc>Created with Sketch.</desc>
    <defs></defs>
    <g id="Icons-/-Resources" stroke="none" stroke-width="1" fill="none" fill-rule="evenodd" sketch:type="MSPage">
        <path d="M74.0173097,13.9979292 L52.1778968,0.044367585 L37.1641512,12.6345046 L22.4881121,0.044367585 L0.0173097319,14.6813069 L15.4918538,26.4532443 L0.0173097319,38.2269194 L15.4139438,47.3465868 L22.4882569,51.5362032 L37.164296,40.2756044 L51.8355563,51.5362032 L59.0070397,47.2329077 L74.0173097,38.2269194 L59.6839007,25.9420506 L74.0173097,13.9979292 Z M37.2097677,13.286892 L58.4063508,25.4647433 L37.0165857,39.6390016 L15.7597598,26.247029 L37.2097677,13.286892 Z M52.4701316,53.6066102 L59.0070397,49.6847551 L59.0070397,53.2510917 L36.9663352,67.5472834 L15.4139438,53.1536318 L15.4139438,49.7919175 L21.8600534,53.6113891 L22.5776072,54.0351151 L23.239842,53.5287003 L37.1641512,42.8443167 L51.0836816,53.5287003 L51.7508401,54.0384459 L52.4701316,53.6066102 Z" id="dropbox" fill="#FFFFFF" sketch:type="MSShapeGroup"></path>
    </g>
</svg>