<?xml version="1.0" encoding="UTF-8" standalone="no"?>
<svg width="64px" height="73px" viewBox="0 0 64 73" version="1.1" xmlns="http://www.w3.org/2000/svg" xmlns:xlink="http://www.w3.org/1999/xlink" xmlns:sketch="http://www.bohemiancoding.com/sketch/ns">
    <!-- Generator: Sketch 3.3.3 (12072) - http://www.bohemiancoding.com/sketch -->
    <title>edit</title>
    <desc>Created with Sketch.</desc>
    <defs></defs>
    <g id="Icons-/-Resources" stroke="none" stroke-width="1" fill="none" fill-rule="evenodd" sketch:type="MSPage">
        <path d="M17.1159952,67.7796732 L19.9964227,66.7312834 C20.3913168,66.5875537 20.7333163,66.3649523 21.0112767,66.0880534 C21.5718959,65.9578212 22.0961231,65.6520448 22.4938875,65.1780076 L55.3888734,25.9752899 L55.3888734,25.9752899 L55.4495302,26.026187 L62.0252459,18.1895542 C64.041567,15.7865964 63.7236999,12.2071305 61.3193941,10.1896784 L51.6563785,2.08144562 C49.2514945,0.0635083468 45.6699435,0.374723778 43.655469,2.77548107 L40.7012364,6.29619828 C40.570791,6.403051 40.4483999,6.52348176 40.3360908,6.65732663 L4.1241105,49.8130842 C3.79164654,50.2092993 3.59003373,50.6721118 3.51466617,51.1490516 C3.22032198,51.5064513 3.01123721,51.9425895 2.92506624,52.4312893 L0.0530917171,68.7190662 C-0.0739111519,69.4393353 0.0860886863,70.1403029 0.45027638,70.7063177 C0.606655556,71.9963954 1.70659596,73 3.04025214,73 L58.0911816,73 C59.523337,73 60.7002091,71.83139 60.7002091,70.3898366 C60.7002091,68.9512165 59.5321077,67.7796732 58.0911816,67.7796732 L17.1159952,67.7796732 Z M51.1496941,22.4181961 L18.4066713,61.4398112 L18.4066713,61.4398112 C18.3052292,61.4642404 18.2041117,61.4946251 18.1037326,61.5311601 L11.6147618,63.8929524 L11.6147618,63.8929524 C11.6459394,62.8045161 11.1959307,61.7154123 10.2977033,60.96171 C9.40065456,60.2089968 8.24658152,59.9573676 7.17831467,60.1781229 L8.37485011,53.3922332 C8.3774856,53.3772866 8.3799975,53.3623483 8.38238655,53.3474194 L8.38238655,53.3474194 L41.2824773,14.1386181 L44.8071935,17.0962062 C44.7770792,17.1274173 44.7478332,17.159894 44.7195263,17.1936289 L15.8546546,51.5934434 C15.1973263,52.3768167 15.300893,53.5382069 16.0813043,54.1930498 C16.8671566,54.8524581 18.025538,54.7457193 18.6807741,53.9648393 L47.5456458,19.5650247 C47.5739589,19.5312826 47.6008602,19.4968391 47.6263567,19.4617649 L51.1496941,22.4181961 L51.1496941,22.4181961 Z" id="edit" fill="#FFFFFF" sketch:type="MSShapeGroup"></path>
    </g>
</svg>