<?xml version="1.0" encoding="utf-8"?>
<!-- Generator: Adobe Illustrator 21.0.0, SVG Export Plug-In . SVG Version: 6.00 Build 0)  -->
<svg version="1.1" id="Layer_1" xmlns:sketch="http://www.bohemiancoding.com/sketch/ns"
	 xmlns="http://www.w3.org/2000/svg" xmlns:xlink="http://www.w3.org/1999/xlink" x="0px" y="0px" viewBox="0 0 76.3 76.3"
	 style="enable-background:new 0 0 76.3 76.3;" xml:space="preserve">
<style type="text/css">
	.st0{fill:#FFFFFF;}
</style>
<title>eye</title>
<desc>Created with Sketch.</desc>
<g id="Icons-_x2F_-Resources" sketch:type="MSPage">
	<path id="eye" sketch:type="MSShapeGroup" class="st0" d="M38.2,60.7c21.9,0,38-22.5,38-22.5s-18-22.5-38-22.5s-38,22.5-38,22.5
		S16.3,60.7,38.2,60.7z M38.2,52.1c7.7,0,14-6.3,14-14s-6.2-14-14-14s-14,6.3-14,14S30.5,52.1,38.2,52.1z M38.2,46.7
		c4.7,0,8.5-3.8,8.5-8.5s-3.8-8.5-8.5-8.5s-8.5,3.8-8.5,8.5S33.4,46.7,38.2,46.7z"/>
</g>
</svg>
