<?xml version="1.0" encoding="UTF-8" standalone="no"?>
<svg width="75px" height="74px" viewBox="0 0 75 74" version="1.1" xmlns="http://www.w3.org/2000/svg" xmlns:xlink="http://www.w3.org/1999/xlink" xmlns:sketch="http://www.bohemiancoding.com/sketch/ns">
    <!-- Generator: Sketch 3.3.1 (12002) - http://www.bohemiancoding.com/sketch -->
    <title>facebook-circle</title>
    <desc>Created with Sketch.</desc>
    <defs></defs>
    <g id="Icons-/-Resources" stroke="none" stroke-width="1" fill="none" fill-rule="evenodd" sketch:type="MSPage">
        <path d="M37.3770492,74 C57.8115859,74 74.3770492,57.4345368 74.3770492,37 C74.3770492,16.5654632 57.8115859,0 37.3770492,0 C16.9425124,0 0.37704918,16.5654632 0.37704918,37 C0.37704918,57.4345368 16.9425124,74 37.3770492,74 Z M32.1541498,57.1275966 L32.1541498,36.9984288 L27.9990842,36.9984288 L27.9990842,30.0615354 L32.1541498,30.0615354 L32.1541498,25.8966497 C32.1541498,20.237543 34.5003595,16.8724034 41.1662192,16.8724034 L46.7157339,16.8724034 L46.7157339,23.8100824 L43.2468944,23.8100824 C40.6520406,23.8100824 40.4803859,24.7795192 40.4803859,26.5887678 L40.4709586,30.0607497 L46.7550142,30.0607497 L46.0196878,36.9976432 L40.4709586,36.9976432 L40.4709586,57.1275966 L32.1541498,57.1275966 Z" id="facebook-circle" fill="#FFFFFF" sketch:type="MSShapeGroup"></path>
    </g>
</svg>