<?xml version="1.0" encoding="UTF-8" standalone="no"?>
<svg width="74px" height="74px" viewBox="0 0 74 74" version="1.1" xmlns="http://www.w3.org/2000/svg" xmlns:xlink="http://www.w3.org/1999/xlink" xmlns:sketch="http://www.bohemiancoding.com/sketch/ns">
    <!-- Generator: Sketch 3.3.1 (12002) - http://www.bohemiancoding.com/sketch -->
    <title>feed</title>
    <desc>Created with Sketch.</desc>
    <defs></defs>
    <g id="Icons-/-Resources" stroke="none" stroke-width="1" fill="none" fill-rule="evenodd" sketch:type="MSPage">
        <path d="M0,1.99846785 C0,0.894744533 0.895725064,0 1.99846785,0 L72.0015322,0 C73.1052555,0 74,0.895725064 74,1.99846785 L74,72.0015322 C74,73.1052555 73.1042749,74 72.0015322,74 L1.99846785,74 C0.894744533,74 0,73.1042749 0,72.0015322 L0,1.99846785 Z M8,47 L66,47 L66,67 L8,67 L8,47 Z M43,14 L66,14 L66,20 L43,20 L43,14 Z M43,26 L66,26 L66,32 L43,32 L43,26 Z M8,8 L36,8 L36,39 L8,39 L8,8 Z" id="feed" fill="#FFFFFF" sketch:type="MSShapeGroup"></path>
    </g>
</svg>