<?xml version="1.0" encoding="UTF-8" standalone="no"?>
<svg width="70px" height="50px" viewBox="0 0 70 50" version="1.1" xmlns="http://www.w3.org/2000/svg" xmlns:xlink="http://www.w3.org/1999/xlink" xmlns:sketch="http://www.bohemiancoding.com/sketch/ns">
    <!-- Generator: Sketch 3.3.1 (12002) - http://www.bohemiancoding.com/sketch -->
    <title>follow</title>
    <desc>Created with Sketch.</desc>
    <defs></defs>
    <g id="Icons-/-Resources" stroke="none" stroke-width="1" fill="none" fill-rule="evenodd" sketch:type="MSPage">
        <path d="M32.9601024,48.1913085 C32.133278,49.1316787 30.9346113,49.7830874 29.5572338,49.9035924 C28.1815179,50.0239519 26.8879457,49.5905858 25.910389,48.8080785 L2.49661449,29.9594403 C1.51905783,29.1769329 0.856121117,28.0293317 0.740280586,26.7052684 C0.508599525,24.0571417 3.35070737,22.9860665 6.10213924,22.7453474 C7.47951667,22.6248425 8.77308892,23.0582086 9.75064557,23.8407159 L28.603685,39.0044794 L59.670908,2.39476362 C60.4977324,1.45439338 61.6963991,0.802984666 63.0721151,0.682625117 C65.8252084,0.441760658 68.8956228,1.99937703 69.1273038,4.64750369 C69.2431444,5.97156702 68.7912195,7.21670598 67.9643951,8.15707621 L32.9601024,48.1913085 Z" id="follow" fill="#FFFFFF" sketch:type="MSShapeGroup"></path>
    </g>
</svg>