<?xml version="1.0" encoding="UTF-8" standalone="no"?>
<svg width="62px" height="75px" viewBox="0 0 62 75" version="1.1" xmlns="http://www.w3.org/2000/svg" xmlns:xlink="http://www.w3.org/1999/xlink" xmlns:sketch="http://www.bohemiancoding.com/sketch/ns">
    <!-- Generator: Sketch 3.3.1 (12002) - http://www.bohemiancoding.com/sketch -->
    <title>githublogo</title>
    <desc>Created with Sketch.</desc>
    <defs></defs>
    <g id="Icons-/-Resources" stroke="none" stroke-width="1" fill="none" fill-rule="evenodd" sketch:type="MSPage">
        <path d="M3.77158761,34.7596447 C2.79819408,31.9810692 2.36699782,28.7987514 2.36699782,25.2437484 C2.36699782,18.9329451 4.39490101,16.5519006 7.11656056,13.1873811 C5.0352915,5.99248562 7.86368279,1.07511101 7.86368279,1.07511101 C7.86368279,1.07511101 12.2396844,0.195159763 20.5113948,5.94072378 C24.9941282,4.07729761 36.9480838,3.9220121 42.6048664,5.52662908 C46.0736482,3.30087004 52.4241872,0.143397925 54.9857491,1.02749012 C55.6795054,2.11034777 57.1737499,5.26781989 55.8929689,12.2039062 C56.7617654,13.7257042 61.2829222,16.9659953 61.2999992,26.1278406 C61.2274216,29.5068534 60.8645337,32.3599659 60.1921237,34.7720676 C60.3200902,34.7710359 59.3333766,37.7630789 59.0991906,37.7556199 C56.1000285,44.1448941 49.9480106,46.5302867 40.0070157,47.5220435 C43.2281798,49.4889933 44.1524768,51.9569978 44.1524768,58.6342749 C44.1524768,65.311552 44.0606875,66.208067 44.0820338,67.7443584 C44.116188,70.2641246 47.9243767,71.4712107 47.7813562,72.2828363 C47.6383356,73.0923915 44.5943462,72.9619516 43.1726793,72.4795313 C39.1424886,71.1171597 39.5459346,67.8644458 39.5459346,67.8644458 L39.4114526,58.936564 C39.4114526,58.936564 39.6868205,54.130995 37.8553037,54.130995 L37.8553037,68.7443971 C37.8553037,71.9205034 40.1500363,72.8853441 40.1500363,74.0593026 C40.1500363,76.0780143 35.9618825,73.868819 34.6704284,72.6099711 C32.7044296,70.6947831 32.9285663,66.6325141 32.9755282,63.4212096 C33.0203556,60.3196403 32.9456433,53.5346986 32.9456433,53.5346986 L31.6114965,53.5616147 C31.6114965,53.5616147 32.157963,68.3820642 30.907067,71.0819617 C29.2890137,74.5500048 24.4071036,75.7425976 24.4071036,74.1628263 C24.4071036,73.1006734 25.608903,73.4381605 26.2749091,71.057116 C26.842722,69.0321929 26.6484703,53.9239476 26.6484703,53.9239476 C26.6484703,53.9239476 25.0837828,54.8204626 25.0837828,57.6507999 C25.0837828,58.9448459 25.0474941,66.3447183 25.0474941,68.5456316 C25.0474941,71.3159252 20.9916877,72.893626 19.042766,72.893626 C18.0565646,72.893626 16.8291495,72.8460051 16.8291495,72.3387391 C16.8291495,71.057116 20.5370104,70.3055341 20.5370104,67.6408347 C20.5370104,65.3301862 20.4857792,59.3858568 20.4857792,59.3858568 C20.4857792,59.3858568 18.615839,59.6964278 15.9475453,59.6964278 C9.22344525,59.6964278 7.09734885,55.534776 6.08553189,53.2054933 C4.76846213,50.1722496 3.06075418,48.7477638 1.24631448,47.6090034 C0.132035039,46.9091833 -0.124121154,46.0851349 1.16519835,45.8491009 C7.11656056,44.7621023 8.63855527,52.3959382 12.6132455,53.6133766 C15.4501754,54.480905 19.0982665,54.1061493 20.9127062,52.9673888 C21.1517853,50.6360357 22.8851089,48.6193945 24.3281221,47.5572415 C14.218491,46.6151761 8.2244361,43.2092471 5.11640762,37.7349152 C5.07706518,37.7358318 3.65226183,34.7593594 3.77158761,34.7596447 Z" id="githublogo" fill="#FFFFFF" sketch:type="MSShapeGroup"></path>
    </g>
</svg>