<?xml version="1.0" encoding="UTF-8" standalone="no"?>
<svg width="75px" height="74px" viewBox="0 0 75 74" version="1.1" xmlns="http://www.w3.org/2000/svg" xmlns:xlink="http://www.w3.org/1999/xlink" xmlns:sketch="http://www.bohemiancoding.com/sketch/ns">
    <!-- Generator: Sketch 3.3.1 (12002) - http://www.bohemiancoding.com/sketch -->
    <title>googleplus-circle</title>
    <desc>Created with Sketch.</desc>
    <defs></defs>
    <g id="Icons-/-Resources" stroke="none" stroke-width="1" fill="none" fill-rule="evenodd" sketch:type="MSPage">
        <path d="M73.3593661,26.9021339 C74.267908,30.1119742 74.7540984,33.4992091 74.7540984,37 C74.7540984,57.4345368 58.1886351,74 37.7540984,74 C17.3195616,74 0.754098361,57.4345368 0.754098361,37 C0.754098361,16.5654632 17.3195616,0 37.7540984,0 C53.179002,0 66.3993437,9.43884624 71.9543616,22.8557769 C72.497767,24.1682529 72.9678232,25.5188032 73.3593661,26.9021339 Z M73.3593661,26.9021339 C72.9677842,25.5186915 72.4977456,24.1682021 71.9543616,22.8557769 L64.5969703,22.8557769 L64.5969703,13.2191639 L60.4667491,13.2191639 L60.4667491,22.8557769 L50.8296181,22.8557769 L50.8296181,26.9021339 L60.4667491,26.9021339 L60.4667491,36.6241651 L64.5969703,36.6241651 L64.5969703,26.9021339 L73.3593661,26.9021339 Z M0.754098361,37 C0.754098361,46.1322839 4.06261104,54.4918229 9.54639058,60.9453711 C10.580976,59.2055659 12.1851795,57.4950688 14.5617103,56.0894378 C19.9239816,52.8038843 27.1460001,52.3699433 31.0514693,52.121977 C29.8426336,50.5721876 28.4478232,48.9294109 28.4478232,46.2327773 C28.4478232,44.7759753 28.8817642,43.9080933 29.3157052,42.8852323 C28.3548358,42.9782196 27.4249622,43.071207 26.5570801,43.071207 C17.4133228,43.071207 12.2370262,36.2521337 12.2370262,29.5260478 C12.2370262,25.558587 14.0657777,21.150986 17.7542764,17.9615194 C22.6826067,13.91037 28.5408105,13.2191639 33.1901787,13.2191639 L50.950765,13.2191639 L45.4335148,16.3218422 L40.1022393,16.3218422 C42.0859698,17.9615194 46.2084095,21.4113506 46.2084095,27.9762584 C46.2084095,34.3613907 42.5819024,37.3679821 38.986391,40.2195945 C37.8395468,41.3354429 36.5687195,42.5442786 36.5687195,44.4350217 C36.5687195,46.3257647 37.8395468,47.3796215 38.8004163,48.1545162 L41.899995,50.5721876 C45.7124769,53.733758 49.1530093,56.6783578 49.1530093,62.629549 C49.1530093,66.5541391 47.3215222,70.4932074 43.7530057,73.5161704 C41.832967,73.8292003 39.8632882,73.9944499 37.8560258,73.9998626 C41.4795789,72.4103669 43.356797,69.5021277 43.356797,66.0080899 C43.356797,61.606688 40.5361804,59.282004 33.9650734,54.60164 C33.2831661,54.5396484 32.849225,54.5396484 31.981343,54.5396484 C31.2064483,54.5396484 26.5570801,54.6946274 22.930573,55.9034631 C21.0398299,56.5853704 15.5225797,58.6620882 15.5225797,64.7992542 C15.5225797,65.466214 15.5935809,66.112835 15.7321095,66.735603 C6.64403791,59.9939311 0.754098361,49.1848005 0.754098361,37 Z M36.4757322,38.2358641 C38.4594626,36.2521337 38.6144415,33.4935086 38.6144415,31.9437192 C38.6144415,25.7135659 34.9259428,16.0645772 27.7659159,16.0645772 C25.5342191,16.0645772 23.1165477,17.1866247 21.7217373,18.9130901 C20.2649352,20.7232441 19.8309942,23.0479282 19.8309942,25.2796249 C19.8309942,31.0758372 23.1785393,40.6535356 30.6175283,40.6535356 C32.7562377,40.6535356 35.0809217,39.5996788 36.4757322,38.2358641 Z" id="googleplus-circle" fill="#FFFFFF" sketch:type="MSShapeGroup"></path>
    </g>
</svg>