<?xml version="1.0" encoding="UTF-8" standalone="no"?>
<svg width="74px" height="74px" viewBox="0 0 74 74" version="1.1" xmlns="http://www.w3.org/2000/svg" xmlns:xlink="http://www.w3.org/1999/xlink" xmlns:sketch="http://www.bohemiancoding.com/sketch/ns">
    <!-- Generator: Sketch 3.3.1 (12002) - http://www.bohemiancoding.com/sketch -->
    <title>hardware</title>
    <desc>Created with Sketch.</desc>
    <defs></defs>
    <g id="Icons-/-Resources" stroke="none" stroke-width="1" fill="none" fill-rule="evenodd" sketch:type="MSPage">
        <path d="M43.4711191,54.294419 C42.0269534,59.5168101 43.3531271,65.3438228 47.4575888,69.4491739 C51.5380281,73.5294429 57.321403,74.8640971 62.5201169,73.4605552 L53.7127551,64.6524733 L56.0245507,56.0238525 L64.6533348,53.7118767 L73.4610499,62.5196054 C74.8637064,57.3212367 73.5292309,51.5378529 69.4487916,47.4575839 C65.1646924,43.1729482 59.0026126,41.9160134 53.6120733,43.6767113 L30.9187282,20.982987 L30.3229584,20.3872072 C32.0843601,14.9963063 30.8268973,8.83492353 26.5422682,4.551171 C22.4620055,0.470548753 16.678454,-0.86392883 11.4800933,0.539259776 L20.2878084,9.34716509 L17.9758362,17.9754326 L9.34705211,20.2881149 L0.53933702,11.4803862 C-0.864026056,16.6785783 0.470626103,22.4619621 4.55106542,26.5424077 C8.65552707,30.6474056 14.4830607,31.9734047 19.705267,30.5288835 L43.4711191,54.294419 Z M32.8988791,51.0365259 L30.3232887,53.6120733 C32.0839866,59.0026126 30.8270518,65.1646924 26.5424161,69.4487916 C22.4621471,73.5292309 16.6787633,74.8637064 11.4803946,73.4610499 L20.2881233,64.6533348 L17.9761475,56.0245507 L9.34752672,53.7127551 L0.539444769,62.5201169 C-0.864097106,57.321403 0.470557111,51.5380281 4.55082609,47.4575888 C8.65617725,43.3531271 14.4831899,42.0269534 19.705581,43.4711191 L22.519478,40.6571846 L32.8988791,51.0365259 L32.8988791,51.0365259 Z M39.6646967,23.5117375 L43.4711165,19.705267 C42.0265953,14.4830607 43.3525944,8.65552707 47.4575923,4.55106542 C51.5380379,0.470626103 57.3214217,-0.864026056 62.5196138,0.53933702 L53.7118851,9.34705211 L56.0245674,17.9758362 L64.6528349,20.2878084 L73.4607402,11.4800933 C74.8639288,16.678454 73.5294512,22.4620055 69.448829,26.5422682 C65.1650765,30.8268973 59.0036937,32.0843601 53.6127928,30.3229584 L50.0442879,33.8914037 L39.6646967,23.5117375 L39.6646967,23.5117375 Z" id="hardware" fill="#FFFFFF" sketch:type="MSShapeGroup"></path>
    </g>
</svg>