<?xml version="1.0" encoding="UTF-8" standalone="no"?>
<svg width="73px" height="71px" viewBox="0 0 73 71" version="1.1" xmlns="http://www.w3.org/2000/svg" xmlns:xlink="http://www.w3.org/1999/xlink" xmlns:sketch="http://www.bohemiancoding.com/sketch/ns">
    <!-- Generator: Sketch 3.3.1 (12002) - http://www.bohemiancoding.com/sketch -->
    <title>home</title>
    <desc>Created with Sketch.</desc>
    <defs></defs>
    <g id="Icons-/-Resources" stroke="none" stroke-width="1" fill="none" fill-rule="evenodd" sketch:type="MSPage">
        <path d="M36.5562711,9.38977025 L65.3175191,38.1510183 C66.974848,39.8083471 69.6621833,39.8120483 71.3173985,38.1568331 C72.9692457,36.5049859 72.9700103,33.8153804 71.3115836,32.1569537 L40.4318865,1.2772566 C39.3788488,0.224218825 37.9099861,-0.161231388 36.5542565,0.122262583 C35.2002366,-0.159285104 33.7328897,0.225022535 32.6806556,1.2772566 L1.80095853,32.1569537 C0.143629646,33.8142826 0.139928444,36.5016179 1.79514367,38.1568331 C3.44699086,39.8086803 6.1365964,39.8094449 7.79502309,38.1510183 L36.5562711,9.38977025 L36.5562711,9.38977025 Z M10.5989971,44.3173875 C10.5989971,43.209763 11.2268345,41.6829266 12.0108814,40.8975161 L36.5172579,16.3485198 L61.108874,40.8975161 C61.8913484,41.6786344 62.5256692,43.2081071 62.5256692,44.3173875 L62.5256692,68.1928704 C62.5256692,69.3004949 61.6243846,70.198402 60.5218995,70.198402 L12.6027667,70.198402 C11.4961153,70.198402 10.5989971,69.3021508 10.5989971,68.1928704 L10.5989971,44.3173875 Z M18.2918374,45.2690968 C18.2918374,44.1669375 19.1855391,43.2734609 20.2874733,43.2734609 L31.6818821,43.2734609 C32.7840414,43.2734609 33.677518,44.1671626 33.677518,45.2690968 L33.677518,56.6635056 C33.677518,57.7656649 32.7838163,58.6591415 31.6818821,58.6591415 L20.2874733,58.6591415 C19.185314,58.6591415 18.2918374,57.7654398 18.2918374,56.6635056 L18.2918374,45.2690968 Z M39.4471483,45.2752105 C39.4471483,44.1696747 40.34085,43.2734609 41.4427842,43.2734609 L52.837193,43.2734609 C53.9393523,43.2734609 54.8328289,44.1693019 54.8328289,45.2752105 L54.8328289,70.198402 L39.4471483,70.198402 L39.4471483,45.2752105 Z" id="home" fill="#FFFFFF" sketch:type="MSShapeGroup"></path>
    </g>
</svg>