<?xml version="1.0" encoding="UTF-8" standalone="no"?>
<svg width="70px" height="43px" viewBox="0 0 70 43" version="1.1" xmlns="http://www.w3.org/2000/svg" xmlns:xlink="http://www.w3.org/1999/xlink">
    <!-- Generator: Sketch 3.6 (26304) - http://www.bohemiancoding.com/sketch -->
    <title>importimage</title>
    <desc>Created with Sketch.</desc>
    <defs></defs>
    <g id="Page-1" stroke="none" stroke-width="1" fill="none" fill-rule="evenodd">
        <g id="importimage">
            <path d="M23.606,42.3526608 L23.5256,42.3668 L17.5416,8.5248 L66.0186,-0.0002 L67.5070662,8.4191 L23.606,8.4191 L23.606,42.3526608 Z" id="Combined-Shape" fill="#000000"></path>
            <path d="M27.051,39.3471 L69.876,39.3471 L69.876,11.8561 L27.051,11.8561 L27.051,39.3471 Z M39.1367,25.3812 L44.2897,29.4442 L52.7107,17.2562 L57.9217,25.3812 L62.3567,21.3182 L66.4307,35.9442 L30.9897,35.9442 L39.1367,25.3812 Z M34.435,15.7831 C36.338,15.7831 37.881,17.3221 37.881,19.2191 C37.881,21.1171 36.338,22.6561 34.435,22.6561 C32.532,22.6561 30.989,21.1171 30.989,19.2191 C30.989,17.3221 32.532,15.7831 34.435,15.7831 Z" id="Combined-Shape" fill="#111111"></path>
            <path d="M16.0753,23.8013 L7.7583,32.1693 L7.7583,26.2193 L0.0003,26.2193 L0.0003,21.3833 L7.7583,21.3833 L7.7583,15.4333 L16.0753,23.8013 Z" id="Fill-7" fill="#000000"></path>
        </g>
    </g>
</svg>