<?xml version="1.0" encoding="UTF-8" standalone="no"?>
<svg width="73px" height="44px" viewBox="0 0 73 44" version="1.1" xmlns="http://www.w3.org/2000/svg" xmlns:xlink="http://www.w3.org/1999/xlink" xmlns:sketch="http://www.bohemiancoding.com/sketch/ns">
    <!-- Generator: Sketch 3.3.1 (12002) - http://www.bohemiancoding.com/sketch -->
    <title>importimage</title>
    <desc>Created with Sketch.</desc>
    <defs></defs>
    <g id="Icons-/-Resources" stroke="none" stroke-width="1" fill="none" fill-rule="evenodd" sketch:type="MSPage">
        <g id="importimage" sketch:type="MSLayerGroup">
            <path d="M23.6274945,8.83636364 L72.8514412,8.83636364 L72.8514412,43.2 L23.6274945,43.2 L23.6274945,8.83636364 Z M27.0731707,12.2727273 L69.8980044,12.2727273 L69.8980044,39.7636364 L27.0731707,39.7636364 L27.0731707,12.2727273 Z" id="Rectangle-168" fill="#FFFFFF" sketch:type="MSShapeGroup"></path>
            <path d="M17.5640523,8.9414857 L66.0401768,0.416938792 L72.0235308,34.2585143 L23.5474064,42.7830612 L17.5640523,8.9414857 L17.5640523,8.9414857 Z M21.5557164,11.728925 L63.7299447,4.31256916 L68.5166279,31.3858296 L26.3423997,38.8021854 L21.5557164,11.728925 L21.5557164,11.728925 Z" id="Rectangle-168-Copy-3" fill="#FFFFFF" sketch:type="MSShapeGroup"></path>
            <rect id="Rectangle-173" fill="#111111" sketch:type="MSShapeGroup" x="27.0731707" y="12.2727273" width="42.8248337" height="27.4909091"></rect>
            <path d="M39.1584984,25.7981191 L44.3110999,29.860815 L52.7322139,17.6727273 L57.9436931,25.7981191 L62.3786222,21.7354232 L66.4523282,36.3611285 L31.0110865,36.3611285 L39.1584984,25.7981191 Z" id="Rectangle-168-Copy-2" fill="#FFFFFF" sketch:type="MSShapeGroup"></path>
            <ellipse id="Oval-13" fill="#FFFFFF" sketch:type="MSShapeGroup" cx="34.4567627" cy="19.6363636" rx="3.44567627" ry="3.43636364"></ellipse>
            <path d="M16.0970914,24.2181818 L7.78018404,32.5862528 L7.78018404,26.6360803 L0.0217822618,26.6360803 L0.0217822618,21.8002833 L7.78018404,21.8002833 L7.78018404,15.8501109 L16.0970914,24.2181818 Z" id="Path-Copy" fill="#FFFFFF" sketch:type="MSShapeGroup"></path>
        </g>
    </g>
</svg>