<?xml version="1.0" encoding="UTF-8" standalone="no"?>
<svg width="72px" height="72px" viewBox="0 0 72 72" version="1.1" xmlns="http://www.w3.org/2000/svg" xmlns:xlink="http://www.w3.org/1999/xlink">
    <!-- Generator: Sketch 39.1 (31720) - http://www.bohemiancoding.com/sketch -->
    <title>Fill-17</title>
    <desc>Created with Sketch.</desc>
    <defs></defs>
    <g id="Page-1" stroke="none" stroke-width="1" fill="none" fill-rule="evenodd">
        <g id="skull" fill="#FFFFFF">
            <path d="M0.448837361,15.3286687 C-0.0204076003,14.8594238 -0.176822588,1.09490491 0.448837361,0.469244962 C1.07449731,-0.156414987 14.8390162,-0.156414987 15.3082611,0.469244962 C15.7775061,1.09490491 15.7775061,14.8594238 15.3082611,15.3286687 C14.8390162,15.7979137 0.761667336,15.7979137 0.448837361,15.3286687 L0.448837361,15.3286687 L0.448837361,15.3286687 Z M56.7582328,15.3286687 C56.2889878,14.8594238 56.1325728,1.09490491 56.7582328,0.469244962 C57.3838927,-0.156414987 71.1484116,-0.156414987 71.6176565,0.469244962 C72.0869015,1.09490491 72.0869015,14.8594238 71.6176565,15.3286687 C71.1484116,15.7979137 57.0710627,15.7979137 56.7582328,15.3286687 L56.7582328,15.3286687 L56.7582328,15.3286687 Z M19.2186358,34.0984672 C18.7493909,33.6292223 18.5929759,19.8647034 19.2186358,19.2390434 C19.8442958,18.6133835 33.6088146,18.6133835 34.0780596,19.2390434 C34.5473046,19.8647034 34.5473046,33.6292223 34.0780596,34.0984672 C33.6088146,34.5677122 19.5314658,34.5677122 19.2186358,34.0984672 L19.2186358,34.0984672 L19.2186358,34.0984672 Z M37.9884343,34.0984672 C37.5191893,33.6292223 37.3627743,19.8647034 37.9884343,19.2390434 C38.6140942,18.6133835 52.3786131,18.6133835 52.8478581,19.2390434 C53.317103,19.8647034 53.317103,33.6292223 52.8478581,34.0984672 C52.3786131,34.5677122 38.3012643,34.5677122 37.9884343,34.0984672 L37.9884343,34.0984672 L37.9884343,34.0984672 Z M19.2186358,52.8682657 C18.7493909,52.3990207 18.5929759,38.6345018 19.2186358,38.0088419 C19.8442958,37.3831819 33.6088146,37.3831819 34.0780596,38.0088419 C34.5473046,38.6345018 34.5473046,52.3990207 34.0780596,52.8682657 C33.6088146,53.3375106 19.5314658,53.3375106 19.2186358,52.8682657 L19.2186358,52.8682657 L19.2186358,52.8682657 Z M37.9884343,52.8682657 C37.5191893,52.3990207 37.3627743,38.6345018 37.9884343,38.0088419 C38.6140942,37.3831819 52.3786131,37.3831819 52.8478581,38.0088419 C53.317103,38.6345018 53.317103,52.3990207 52.8478581,52.8682657 C52.3786131,53.3375106 38.3012643,53.3375106 37.9884343,52.8682657 L37.9884343,52.8682657 L37.9884343,52.8682657 Z M0.448837361,71.6380641 C-0.0204076003,71.1688192 -0.176822588,57.4043003 0.448837361,56.7786404 C1.07449731,56.1529804 14.8390162,56.1529804 15.3082611,56.7786404 C15.7775061,57.4043003 15.7775061,71.1688192 15.3082611,71.6380641 C14.8390162,72.1073091 0.761667336,72.1073091 0.448837361,71.6380641 L0.448837361,71.6380641 L0.448837361,71.6380641 Z M56.7582328,71.6380641 C56.2889878,71.1688192 56.1325728,57.4043003 56.7582328,56.7786404 C57.3838927,56.1529804 71.1484116,56.1529804 71.6176565,56.7786404 C72.0869015,57.4043003 72.0869015,71.1688192 71.6176565,71.6380641 C71.1484116,72.1073091 57.0710627,72.1073091 56.7582328,71.6380641 L56.7582328,71.6380641 L56.7582328,71.6380641 Z" id="Fill-17"></path>
        </g>
    </g>
</svg>