<?xml version="1.0" encoding="UTF-8" standalone="no"?>
<svg width="106px" height="107px" viewBox="0 0 106 107" version="1.1" xmlns="http://www.w3.org/2000/svg" xmlns:xlink="http://www.w3.org/1999/xlink">
    <!-- Generator: Sketch 3.6 (26304) - http://www.bohemiancoding.com/sketch -->
    <title>join</title>
    <desc>Created with Sketch.</desc>
    <defs>
        <path d="M47.0059212,81.0257124 L42.8278766,81.0257124 L-1.42108547e-14,81.0257124 L-1.42108547e-14,71.5491766 C-1.42108547e-14,68.7283243 7.32009436,64.5925404 18.5872984,60.5354673 C29.8186197,56.4899692 33.4069012,53.0787867 33.4069012,45.7748975 C33.4069012,41.3902489 29.9795136,42.8209315 28.4724353,34.7912834 C27.8473798,31.4611266 24.8181757,34.7380379 24.2394206,27.1331961 C24.2394206,24.1016769 25.8923452,23.3492953 25.8923452,23.3492953 C25.8923452,23.3492953 25.0519928,18.8639434 24.7232599,15.412248 C24.3146588,11.1120977 27.2385295,0 42.8267191,0 C58.4149086,0 61.3376218,11.1120977 60.9301782,15.412248 C60.6014453,18.8639434 59.761093,23.3492953 59.761093,23.3492953 C59.761093,23.3492953 61.4140175,24.1016769 61.4140175,27.1331961 C60.8341049,34.7380379 57.8060583,31.4611266 57.1810028,34.7912834 C55.675082,42.822089 52.2453794,41.3902489 52.2453794,45.7748975 C52.2453794,50.4799212 53.7348922,53.5696254 57.7960622,56.2535747 C51.1698548,62.1861265 47,70.8061023 47,80.4 C47,80.6090391 47.0019796,80.8176158 47.0059212,81.0257124 Z" id="path-1"></path>
    </defs>
    <g id="Page-1" stroke="none" stroke-width="1" fill="none" fill-rule="evenodd">
        <g id="join">
            <g id="Group-2">
                <mask id="mask-2" fill="white">
                    <use xlink:href="#path-1"></use>
                </mask>
                <use id="Combined-Shape" fill="#000000" xlink:href="#path-1"></use>
            </g>
            <g id="Group" transform="translate(53.000000, 54.000000)">
                <ellipse id="Oval-1" fill="#000000" cx="26.4" cy="26.4" rx="26.4" ry="26.4"></ellipse>
                <path d="M27.7932692,12.7865385 C27.7932692,11.8028846 26.9903846,11 26,11 C25.0019231,11 24.2067308,11.8 24.2067308,12.7865385 L24.2067308,24.2067308 L12.7865385,24.2067308 C11.8019231,24.2067308 11,25.0096154 11,26 C11,26.9980769 11.8,27.7932692 12.7865385,27.7932692 L24.2067308,27.7932692 L24.2067308,39.2134615 C24.2067308,40.1980769 25.0096154,41 26,41 C26.9971154,41 27.7932692,40.2 27.7932692,39.2134615 L27.7932692,27.7932692 L39.2134615,27.7932692 C40.1971154,27.7932692 41,26.9903846 41,26 C41,25.0028846 40.2,24.2067308 39.2134615,24.2067308 L27.7932692,24.2067308 L27.7932692,12.7865385 Z" id="Stroke-6" stroke="#FFFFFF" stroke-width="5"></path>
            </g>
        </g>
    </g>
</svg>