<?xml version="1.0" encoding="UTF-8" standalone="no"?>
<svg width="66px" height="66px" viewBox="0 0 66 66" version="1.1" xmlns="http://www.w3.org/2000/svg" xmlns:xlink="http://www.w3.org/1999/xlink" xmlns:sketch="http://www.bohemiancoding.com/sketch/ns">
    <!-- Generator: Sketch 3.3.1 (12002) - http://www.bohemiancoding.com/sketch -->
    <title>list</title>
    <desc>Created with Sketch.</desc>
    <defs></defs>
    <g id="Icons-/-Resources" stroke="none" stroke-width="1" fill="none" fill-rule="evenodd" sketch:type="MSPage">
        <path d="M0,0 L18,0 L18,18 L0,18 L0,0 Z M24,0 L42,0 L42,18 L24,18 L24,0 Z M48,0 L66,0 L66,18 L48,18 L48,0 Z M0,24 L18,24 L18,42 L0,42 L0,24 Z M24,24 L42,24 L42,42 L24,42 L24,24 Z M48,24 L66,24 L66,42 L48,42 L48,24 Z M0,48 L18,48 L18,66 L0,66 L0,48 Z M24,48 L42,48 L42,66 L24,66 L24,48 Z M48,48 L66,48 L66,66 L48,66 L48,48 Z" id="list" fill="#FFFFFF" sketch:type="MSShapeGroup"></path>
    </g>
</svg>