<?xml version="1.0" encoding="UTF-8" standalone="no"?>
<svg width="66px" height="73px" viewBox="0 0 66 73" version="1.1" xmlns="http://www.w3.org/2000/svg" xmlns:xlink="http://www.w3.org/1999/xlink" xmlns:sketch="http://www.bohemiancoding.com/sketch/ns">
    <!-- Generator: Sketch 3.3.3 (12072) - http://www.bohemiancoding.com/sketch -->
    <title>Artboard</title>
    <desc>Created with Sketch.</desc>
    <defs></defs>
    <g id="Page-1" stroke="none" stroke-width="1" fill="none" fill-rule="evenodd" sketch:type="MSPage">
        <g id="Artboard" sketch:type="MSArtboardGroup" fill="#000000">
            <g id="lock" sketch:type="MSLayerGroup">
                <path d="M58.2,35.5 L58.2,15 C58.2,6.7 51.5,0 43.2,0 L22.9,0 C14.6,0 7.9,6.7 7.9,15 L7.9,35.5 C3.8,35.8 0.6,39.3 0.6,43.5 L0.6,65 C0.6,69.4 4.2,73 8.6,73 L57.6,73 C62,73 65.6,69.4 65.6,65 L65.6,43.5 C65.5,39.3 62.3,35.8 58.2,35.5 L58.2,35.5 Z M18.7,35.5 L18.7,16.4 C18.7,12.5 21.8,9.4 25.7,9.4 L40,9.4 C43.9,9.4 47,12.5 47,16.4 L47,35.5 L18.7,35.5 L18.7,35.5 Z" sketch:type="MSShapeGroup"></path>
            </g>
        </g>
    </g>
</svg>