<?xml version="1.0" encoding="UTF-8" standalone="no"?>
<svg width="74px" height="53px" viewBox="0 0 74 53" version="1.1" xmlns="http://www.w3.org/2000/svg" xmlns:xlink="http://www.w3.org/1999/xlink" xmlns:sketch="http://www.bohemiancoding.com/sketch/ns">
    <!-- Generator: Sketch 3.3.3 (12072) - http://www.bohemiancoding.com/sketch -->
    <title>messages</title>
    <desc>Created with Sketch.</desc>
    <defs></defs>
    <g id="Icons-/-Resources" stroke="none" stroke-width="1" fill="none" fill-rule="evenodd" sketch:type="MSPage">
        <g id="messages" sketch:type="MSLayerGroup">
            <path d="M25.6218992,41.0385261 L20.4237971,46.2366282 L14.5206999,41.0385261 L6.54555419,41.0385261 C5.82393002,41.0385261 5.23893805,40.4479335 5.23893805,39.7356399 L5.23893805,17.4564564 C5.23893805,16.7368923 5.8252629,16.1535703 6.54555419,16.1535703 L41.2597555,16.1535703 C41.9813797,16.1535703 42.5663717,16.7441629 42.5663717,17.4564564 L42.5663717,39.7356399 C42.5663717,40.4552041 41.9800468,41.0385261 41.2597555,41.0385261 L25.6218992,41.0385261 Z M27.3099646,46.2774641 L20.8706146,52.7168142 L13.5398451,46.2774641 L1.30873116,46.2774641 C0.585938898,46.2774641 0,45.6931802 0,44.976943 L0,12.2151534 C0,11.4968954 0.577990004,10.9146322 1.30873116,10.9146322 L47.1514458,10.9146322 C47.8742381,10.9146322 48.460177,11.4989161 48.460177,12.2151534 L48.460177,44.976943 C48.460177,45.695201 47.882187,46.2774641 47.1514458,46.2774641 L27.3099646,46.2774641 Z" id="Rectangle-37" fill="#FFFFFF" sketch:type="MSShapeGroup"></path>
            <path d="M52.8497877,35.799588 L46.4104376,42.2389381 L39.0796681,35.799588 L26.8485542,35.799588 C26.1257619,35.799588 25.539823,35.2153041 25.539823,34.4990669 L25.539823,1.73727726 C25.539823,1.01901928 26.117813,0.436756142 26.8485542,0.436756142 L72.6912688,0.436756142 C73.4140611,0.436756142 74,1.02104 74,1.73727726 L74,34.4990669 C74,35.2173249 73.42201,35.799588 72.6912688,35.799588 L52.8497877,35.799588 Z" id="Rectangle-92" fill="#FFFFFF" sketch:type="MSShapeGroup"></path>
            <g id="Rectangle-36-+-Rectangle-107" transform="translate(30.778761, 5.238938)" fill="#111111" sketch:type="MSShapeGroup">
                <path d="M9.10689068,25.1677252 L20.4850638,25.2196092 L15.184859,30.519814 L9.10689068,25.1677252 Z" id="Rectangle-36"></path>
                <rect id="Rectangle-107" x="0" y="0.436756142" width="37.3274336" height="24.8849558" rx="1.30973451"></rect>
            </g>
        </g>
    </g>
</svg>