<?xml version="1.0" encoding="UTF-8" standalone="no"?>
<svg width="74px" height="74px" viewBox="0 0 74 74" version="1.1" xmlns="http://www.w3.org/2000/svg" xmlns:xlink="http://www.w3.org/1999/xlink" xmlns:sketch="http://www.bohemiancoding.com/sketch/ns">
    <!-- Generator: Sketch 3.3.1 (12002) - http://www.bohemiancoding.com/sketch -->
    <title>misc</title>
    <desc>Created with Sketch.</desc>
    <defs></defs>
    <g id="Icons-/-Resources" stroke="none" stroke-width="1" fill="none" fill-rule="evenodd" sketch:type="MSPage">
        <path d="M37.0011563,74 C16.5655938,74 0,57.4344062 0,37 C0,16.5655938 16.5655938,0 37.0011563,0 C57.4344062,0 74,16.5655938 74,37 C74,57.4344062 57.4344062,74 37.0011563,74 L37.0011563,74 Z M21.0001875,43 C17.6863125,43 15,40.3136875 15,37 C15,33.6863125 17.6863125,31 21.0001875,31 C24.3136875,31 27,33.6863125 27,37 C27,40.3136875 24.3136875,43 21.0001875,43 L21.0001875,43 Z M37.0001875,43 C33.6863125,43 31,40.3136875 31,37 C31,33.6863125 33.6863125,31 37.0001875,31 C40.3136875,31 43,33.6863125 43,37 C43,40.3136875 40.3136875,43 37.0001875,43 L37.0001875,43 Z M53.0001875,43 C49.6863125,43 47,40.3136875 47,37 C47,33.6863125 49.6863125,31 53.0001875,31 C56.3136875,31 59,33.6863125 59,37 C59,40.3136875 56.3136875,43 53.0001875,43 L53.0001875,43 Z" id="misc" fill="#FFFFFF" sketch:type="MSShapeGroup"></path>
    </g>
</svg>