<?xml version="1.0" encoding="UTF-8" standalone="no"?>
<svg width="74px" height="75px" viewBox="0 0 74 75" version="1.1" xmlns="http://www.w3.org/2000/svg" xmlns:xlink="http://www.w3.org/1999/xlink" xmlns:sketch="http://www.bohemiancoding.com/sketch/ns">
    <!-- Generator: Sketch 3.3.1 (12002) - http://www.bohemiancoding.com/sketch -->
    <title>options</title>
    <desc>Created with Sketch.</desc>
    <defs></defs>
    <g id="Icons-/-Resources" stroke="none" stroke-width="1" fill="none" fill-rule="evenodd" sketch:type="MSPage">
        <path d="M66.8836667,37.616937 C66.8836667,33.0033894 69.7229762,29.3606513 74,26.8569847 C73.2309286,24.2819609 72.2090238,21.8152942 70.9527857,19.4931037 C66.1577619,20.7484609 62.2754048,18.8685085 59.0114762,15.6063418 C55.7493095,12.3441751 54.7494286,8.46005609 56.0056667,3.66503228 C53.6825952,2.40791324 51.2168095,1.38688943 48.6400238,0.616937047 C46.1363571,4.89484181 41.6144286,7.73415133 37,7.73415133 C32.3873333,7.73415133 27.8654048,4.89484181 25.3599762,0.616937047 C22.7840714,1.38600848 20.3182857,2.40791324 17.9960952,3.66327038 C19.2505714,8.45917514 18.2524524,12.3424132 14.9902857,15.6063418 C11.7263571,18.8693894 7.84311905,20.7484609 3.04721429,19.4948656 C1.79097619,21.8161751 0.770833333,24.2828418 0,26.8569847 C4.27702381,29.3606513 7.11721429,33.0033894 7.11721429,37.616937 C7.11721429,42.2304847 4.27702381,46.7532942 0,49.2560799 C0.770833333,51.8328656 1.79097619,54.2995323 3.04721429,56.6217228 C7.844,55.3663656 11.7263571,56.3653656 14.9902857,59.6284132 C18.2524524,62.8914609 19.2505714,66.773818 17.9960952,71.5706037 C20.3191667,72.8259609 22.7849524,73.8487466 25.3617381,74.616937 C27.8654048,70.3407942 32.3873333,67.4997228 37,67.4997228 C41.6144286,67.4997228 46.1363571,70.3407942 48.6400238,74.616937 C51.2176905,73.8469847 53.6834762,72.8259609 56.0056667,71.5688418 C54.7511905,66.774699 55.7493095,62.8914609 59.0114762,59.6284132 C62.2754048,56.3653656 66.156881,54.4854132 70.9527857,55.7407704 C72.2090238,53.417699 73.2309286,50.9510323 74,48.3751275 C69.7229762,45.8723418 66.8836667,42.2304847 66.8836667,37.616937 L66.8836667,37.616937 Z M37,53.7075323 C28.1138333,53.7075323 20.9102857,46.5022228 20.9102857,37.6160561 C20.9102857,28.7290085 28.1138333,21.5245799 37,21.5245799 C45.8870476,21.5245799 53.0914762,28.7290085 53.0914762,37.6160561 C53.0914762,46.5031037 45.8870476,53.7075323 37,53.7075323 L37,53.7075323 Z" id="options" fill="#FFFFFF" sketch:type="MSShapeGroup"></path>
    </g>
</svg>