<?xml version="1.0" encoding="UTF-8" standalone="no"?>
<svg width="72px" height="75px" viewBox="0 0 72 75" version="1.1" xmlns="http://www.w3.org/2000/svg" xmlns:xlink="http://www.w3.org/1999/xlink" xmlns:sketch="http://www.bohemiancoding.com/sketch/ns">
    <!-- Generator: Sketch 3.3.2 (12043) - http://www.bohemiancoding.com/sketch -->
    <title>prize</title>
    <desc>Created with Sketch.</desc>
    <defs></defs>
    <g id="Icons-/-Resources" stroke="none" stroke-width="1" fill="none" fill-rule="evenodd" sketch:type="MSPage">
        <g id="prize" sketch:type="MSLayerGroup" fill="#FFFFFF">
            <path d="M51.4166667,15.1271477 C53.5429333,16.9045933 55.3732,19.067509 56.8104444,21.5516499 L62.1680444,16.1863669 C64.7136444,16.7711614 67.4960444,16.069408 69.4808889,14.0827543 C71.5019111,12.0582125 72.1909333,9.20672189 71.5512444,6.61880064 L66.6886222,11.4882438 L60.9528,5.74078534 L65.8104889,0.876284092 C63.2287111,0.238775801 60.3887556,0.932292572 58.3710222,2.95189248 C56.3894667,4.93525161 55.6905778,7.71755524 56.2677778,10.2675884 L51.4166667,15.1271477" id="Fill-1" sketch:type="MSShapeGroup"></path>
            <path d="M44.6777333,50.8457324 C44.6777333,50.2856476 44.5083556,49.7618036 44.2222222,49.3269142 C48.0751556,46.4045894 50.6125333,41.4873743 50.6125333,35.9161778 C50.6125333,26.9515263 44.0643556,19.6852496 35.9917778,19.6852496 C27.9192,19.6852496 21.3710222,26.9515263 21.3710222,35.9161778 C21.3710222,41.45937 23.8804444,46.3535228 27.7004889,49.2807896 C27.4488889,49.7090897 27.3041778,50.2098714 27.3041778,50.7468939 C27.3041778,51.2888583 27.4538222,51.7962293 27.712,52.2294713 C28.9617778,52.4815095 30.4006667,52.7203692 31.9563111,52.8867473 C32.5384444,52.3629033 32.9068,51.5985523 32.9068,50.7468939 C32.9068,50.634877 32.8985778,50.5245073 32.8854222,50.4141377 L33.2702222,50.4141377 C33.2488444,50.5558062 33.2373333,50.699122 33.2373333,50.8457324 C33.2373333,51.7616358 33.6829778,52.5704641 34.3687111,53.0712459 C34.9294667,53.0976028 35.5000889,53.1124286 36.0756444,53.1124286 C36.592,53.1124286 37.1017778,53.1008974 37.6049778,53.0794824 C38.2956444,52.5787007 38.7462222,51.7665777 38.7462222,50.8457324 C38.7462222,50.699122 38.7347111,50.5558062 38.7133333,50.4141377 L39.2033778,50.4141377 C39.1803556,50.5558062 39.1704889,50.699122 39.1704889,50.8457324 C39.1688444,51.6627973 39.5289778,52.3925549 40.0930222,52.8966312 C41.6256444,52.7368423 43.0464444,52.5078664 44.2863556,52.2607702 C44.5330222,51.8472958 44.6777333,51.3646345 44.6777333,50.8457324 L44.6777333,50.8457324 Z M32.7144,36.4054283 C32.2161333,36.7398319 31.7359556,37.130244 31.1505333,37.301564 C30.4335556,37.5387764 29.7576889,37.87318 29.0851111,38.2108782 C28.7545778,38.397024 28.5062667,38.6704772 28.4224,39.0460635 C28.1921778,39.423297 28.4059556,39.9273734 28.1510667,40.2733081 C27.7646222,40.5549978 27.3272,40.2172996 27.0262667,39.9751453 C26.3652,39.4875421 25.7830667,38.8170876 25.6153333,37.9917862 C25.4854222,37.2949748 25.3407111,36.580043 25.4245778,35.8684058 C25.4328,35.0052163 25.8455556,34.2062718 26.3767111,33.5473485 C26.9802222,32.726989 27.8550667,32.0202938 28.8927111,31.8885091 C29.1624,31.8275587 29.4337333,31.7979072 29.7067111,31.7962599 C30.5289333,31.7929652 31.3560889,32.0515926 32.0582667,32.4733036 C32.6601333,32.9114875 33.1304444,33.5127551 33.4889333,34.1634418 C33.7980889,34.9755648 33.3656,35.9029993 32.7144,36.4054283 L32.7144,36.4054283 Z M37.3961333,44.6847996 C36.7416444,46.6105029 36.8633333,43.4279034 36.0378222,43.3900153 C35.1761333,43.3933099 35.0149778,46.536374 34.5676889,44.6897415 C34.4262667,43.2961187 35.3241333,40.10693 36.0378222,40.1266977 C36.8205778,40.1481127 37.5934667,43.3998991 37.3961333,44.6847996 L37.3961333,44.6847996 Z M43.8308444,40.2733081 C43.5759556,39.9273734 43.7913778,39.423297 43.5595111,39.0460635 C43.4756444,38.6704772 43.2289778,38.397024 42.8984444,38.2108782 C42.2242222,37.87318 41.5483556,37.5387764 40.8313778,37.301564 C40.2459556,37.130244 39.7674222,36.7398319 39.2691556,36.4054283 C38.6163111,35.9029993 38.1854667,34.9755648 38.4946222,34.1634418 C38.8514667,33.5127551 39.3217778,32.9114875 39.9252889,32.4733036 C40.6274667,32.0515926 41.4546222,31.7929652 42.2752,31.7962599 C42.5498222,31.7979072 42.8195111,31.8275587 43.0892,31.8885091 C44.1284889,32.0202938 45.0033333,32.726989 45.6052,33.5473485 C46.1363556,34.2062718 46.5491111,35.0052163 46.5589778,35.8684058 C46.6412,36.580043 46.4981333,37.2949748 46.3665778,37.9917862 C46.1988444,38.8170876 45.6183556,39.4875421 44.9572889,39.9751453 C44.6547111,40.2172996 44.2172889,40.5549978 43.8308444,40.2733081 L43.8308444,40.2733081 Z" id="Fill-2" sketch:type="MSShapeGroup"></path>
            <path d="M20.7116,60.1876175 L14.1042222,54.9788288 L9.80893333,59.2815979 C7.26168889,58.6951562 4.47928889,59.3969095 2.49608889,61.3852106 C0.475066667,63.4081051 -0.213955556,66.2595957 0.425733333,68.8491642 L5.28671111,63.9780737 L11.0225333,69.7255322 L6.16648889,74.5916808 C8.74662222,75.2275418 11.5882222,74.5356723 13.6043111,72.5144251 C15.5875111,70.5310659 16.2864,67.7504096 15.7092,65.2003765 L20.7116,60.1876175" id="Fill-3" sketch:type="MSShapeGroup"></path>
            <path d="M62.1795556,59.2783033 L57.9122222,55.0035384 L51.3032,60.2123271 L56.2694222,65.187198 C55.6856444,67.7405258 56.3861778,70.526124 58.3693778,72.5144251 C60.3887556,74.5389669 63.2369333,75.2291891 65.8203556,74.5883862 L60.9593778,69.7172957 L66.6968444,63.9714845 L71.5528889,68.8376331 C72.1892889,66.2513591 71.4969778,63.4048105 69.4808889,61.3852106 C67.4993333,59.4002041 64.7235111,58.7000981 62.1795556,59.2783033" id="Fill-4" sketch:type="MSShapeGroup"></path>
            <path d="M9.79742222,16.1880142 L15.2027111,21.6027164 C16.6333778,19.1136337 18.4587111,16.945776 20.5784,15.1617412 L15.7059111,10.2791196 C16.2913333,7.72743909 15.5908,4.94019353 13.6059556,2.95189248 C11.5865778,0.927350647 8.7384,0.238775801 6.15497778,0.879578708 L11.0159556,5.74902188 L5.27848889,11.494833 L0.422444444,6.62868449 C-0.213955556,9.21495843 0.478355556,12.0615071 2.49444444,14.081107 C4.476,16.0677607 7.25182222,16.7678667 9.79742222,16.1880142" id="Fill-5" sketch:type="MSShapeGroup"></path>
            <path d="M56.4815556,23.4378178 L56.4552444,23.3900459 C52.5513333,15.5966306 44.7221333,10.7568389 36.0230222,10.7568389 C27.2400444,10.7568389 19.3779556,15.6641702 15.5036444,23.5646606 L15.4855556,23.599254 C15.4576,23.647026 12.7393333,28.4950541 12.7393333,37.1862524 C12.7393333,45.1443986 13.652,51.9378978 13.8411111,53.2557444 L21.4499556,59.255241 C21.9548,59.3639634 23.9100444,59.7708485 26.6414667,60.1381982 L26.6628444,57.4662643 L27.0328444,57.3180065 C27.1545333,57.26694 30.1112444,56.0989984 36.0164444,56.0989984 C41.9282222,56.0989984 44.9063111,57.3344796 45.0312889,57.3871935 L45.3963556,57.5420404 L45.3749778,60.1332563 C48.1179111,59.7675539 50.0879556,59.362316 50.5960889,59.2535937 L58.2065778,53.2557444 C58.3924,51.9823751 59.2590222,45.5496364 59.2590222,37.1862524 C59.2590222,28.0321605 56.5095111,23.4822951 56.4815556,23.4378178 L56.4815556,23.4378178 Z M54.6200444,48.2116865 L54.5624889,48.3895958 L49.6275111,52.1026286 L49.5403556,52.1339275 C49.2871111,52.2228821 43.2454222,54.3034324 36.0756444,54.3034324 C28.9058667,54.3034324 22.8658222,52.2228821 22.6125778,52.1339275 L22.5237778,52.1026286 L17.5953778,48.3945377 L17.5361778,48.2265123 C17.3750222,47.7735025 13.6421333,37.0379947 17.6924,28.5510626 C20.0225778,23.6667937 25.5331111,15.4730825 36.2368,15.4730825 C44.3718667,15.4730825 50.9118222,20.1234336 54.6512889,28.5658884 C58.2970222,36.7958404 54.7713333,47.7504402 54.6200444,48.2116865 L54.6200444,48.2116865 Z" id="Fill-6" sketch:type="MSShapeGroup"></path>
            <path d="M44.2008444,58.3525161 C43.2618667,58.0428221 40.5172889,57.2900023 36.0164444,57.2900023 C31.5188889,57.2900023 28.7858222,57.9999921 27.8452,58.2965076 L27.8287556,60.2897506 L27.8616444,60.2946925 L27.8320444,62.5020856 C28.7134667,62.8282526 31.3363556,63.6173132 35.9852,63.6173132 C40.662,63.6173132 43.2832444,62.8990868 44.1728889,62.5992767 L44.1926222,61.0442178 L44.1778222,61.0442178 L44.2008444,58.3525161 L44.2008444,58.3525161 Z M33.2981778,61.8382203 C33.2981778,62.0787273 33.1024889,62.274757 32.8607556,62.274757 C32.6206667,62.274757 32.4249778,62.0787273 32.4249778,61.8382203 L32.4249778,58.8318828 C32.4249778,58.5897285 32.6206667,58.3953461 32.8607556,58.3953461 C33.1024889,58.3953461 33.2981778,58.5897285 33.2981778,58.8318828 L33.2981778,61.8382203 L33.2981778,61.8382203 Z M36.3519111,61.8563407 C36.3519111,62.0968477 36.1562222,62.2928774 35.9144889,62.2928774 C35.6727556,62.2928774 35.4770667,62.0968477 35.4770667,61.8563407 L35.4770667,58.8500032 C35.4770667,58.6078489 35.6727556,58.4118192 35.9144889,58.4118192 C36.1562222,58.4118192 36.3519111,58.6078489 36.3519111,58.8500032 L36.3519111,61.8563407 L36.3519111,61.8563407 Z M39.404,61.8563407 C39.404,62.0968477 39.2083111,62.2928774 38.9682222,62.2928774 C38.7264889,62.2928774 38.5308,62.0968477 38.5308,61.8563407 L38.5308,58.8500032 C38.5308,58.6078489 38.7264889,58.4118192 38.9682222,58.4118192 C39.2083111,58.4118192 39.404,58.6078489 39.404,58.8500032 L39.404,61.8563407 L39.404,61.8563407 Z" id="Fill-7" sketch:type="MSShapeGroup"></path>
        </g>
    </g>
</svg>