<?xml version="1.0" encoding="UTF-8" standalone="no"?>
<svg width="62px" height="73px" viewBox="0 0 62 73" version="1.1" xmlns="http://www.w3.org/2000/svg" xmlns:xlink="http://www.w3.org/1999/xlink" xmlns:sketch="http://www.bohemiancoding.com/sketch/ns">
    <!-- Generator: Sketch 3.3.3 (12072) - http://www.bohemiancoding.com/sketch -->
    <title>project-update</title>
    <desc>Created with Sketch.</desc>
    <defs></defs>
    <g id="Icons-/-Resources" stroke="none" stroke-width="1" fill="none" fill-rule="evenodd" sketch:type="MSPage">
        <path d="M27.9,17.3838097 L7.6668806,11.0398781 C6.85789533,10.7862273 6.2,11.2717157 6.2,12.1250524 L6.2,57.1101873 C6.2,57.975682 6.85674482,58.8612072 7.6668806,59.1152187 L27.9,65.4591503 L27.9,17.3838097 L27.9,17.3838097 Z M34.1,65.9237191 L55.1081194,58.856292 C55.9171047,58.5841379 56.575,57.6710466 56.575,56.8177098 L56.575,11.8325749 C56.575,10.9670802 55.9182552,10.5084103 55.1081194,10.7809514 L34.1,17.8483785 L34.1,65.9237191 L34.1,65.9237191 Z M0,1.99538232 C0,1.14652669 0.647479057,0.675385203 1.45361511,0.94554846 L29.5463849,10.3603788 C30.3491943,10.6294272 31.6474791,10.630542 32.4536151,10.3603788 L60.5463849,0.94554846 C61.3491943,0.676500058 62,1.14970229 62,1.99538232 L62,60.4779671 C62,61.3268227 61.3525209,62.2319482 60.5463849,62.5021114 L32.4536151,71.9169417 C31.6508057,72.1859901 30.3525209,72.187105 29.5463849,71.9169417 L1.45361511,62.5021114 C0.650805655,62.233063 0,61.3236471 0,60.4779671 L0,1.99538232 Z M38.75,28.4657568 C38.75,27.6166448 39.4041268,26.6973611 40.2034166,26.415168 L51.2465834,22.5163259 C52.0492832,22.2329289 52.7,22.6854727 52.7,23.5406434 L52.7,26.6213934 C52.7,27.4705053 52.0458732,28.3897891 51.2465834,28.6719822 L40.2034166,32.5708243 C39.4007168,32.8542213 38.75,32.4016775 38.75,31.5465068 L38.75,28.4657568 Z M10.075,23.5406434 C10.075,22.6915315 10.7291268,22.2233225 11.5415282,22.4967186 L22.5584718,26.2042323 C23.368413,26.4768005 24.025,27.3800431 24.025,28.2352138 L24.025,31.3159638 C24.025,32.1650757 23.3708732,32.6332847 22.5584718,32.3598886 L11.5415282,28.6523749 C10.731587,28.3798067 10.075,27.4765641 10.075,26.6213934 L10.075,23.5406434 Z M10.075,34.3130419 C10.075,33.46393 10.7291268,32.995721 11.5415282,33.2691171 L22.5584718,36.9766309 C23.368413,37.249199 24.025,38.1524416 24.025,39.0076123 L24.025,42.0883623 C24.025,42.9374742 23.3708732,43.4056833 22.5584718,43.1322872 L11.5415282,39.4247734 C10.731587,39.1522052 10.075,38.2489626 10.075,37.3937919 L10.075,34.3130419 Z M10.075,45.0854405 C10.075,44.2363285 10.7291268,43.7681195 11.5415282,44.0415156 L22.5584718,47.7490294 C23.368413,48.0215975 24.025,48.9248401 24.025,49.7800108 L24.025,52.8607608 C24.025,53.7098728 23.3708732,54.1780818 22.5584718,53.9046857 L11.5415282,50.1971719 C10.731587,49.9246038 10.075,49.0213612 10.075,48.1661905 L10.075,45.0854405 Z M38.75,39.2381553 C38.75,38.3890433 39.4041268,37.4697596 40.2034166,37.1875665 L51.2465834,33.2887244 C52.0492832,33.0053274 52.7,33.4578712 52.7,34.3130419 L52.7,37.3937919 C52.7,38.2429039 52.0458732,39.1621876 51.2465834,39.4443807 L40.2034166,43.3432228 C39.4007168,43.6266198 38.75,43.174076 38.75,42.3189053 L38.75,39.2381553 Z M38.75,50.0105538 C38.75,49.1614419 39.4041268,48.2421581 40.2034166,47.9599651 L51.2465834,44.0611229 C52.0492832,43.7777259 52.7,44.2302698 52.7,45.0854405 L52.7,48.1661905 C52.7,49.0153024 52.0458732,49.9345862 51.2465834,50.2167792 L40.2034166,54.1156214 C39.4007168,54.3990183 38.75,53.9464745 38.75,53.0913038 L38.75,50.0105538 Z" id="project-update" fill="#FFFFFF" sketch:type="MSShapeGroup"></path>
    </g>
</svg>