<?xml version="1.0" encoding="UTF-8" standalone="no"?>
<svg width="62px" height="76px" viewBox="0 0 62 76" version="1.1" xmlns="http://www.w3.org/2000/svg" xmlns:xlink="http://www.w3.org/1999/xlink" xmlns:sketch="http://www.bohemiancoding.com/sketch/ns">
    <!-- Generator: Sketch 3.3.1 (12002) - http://www.bohemiancoding.com/sketch -->
    <title>project-update</title>
    <desc>Created with Sketch.</desc>
    <defs></defs>
    <g id="Icons-/-Resources" stroke="none" stroke-width="1" fill="none" fill-rule="evenodd" sketch:type="MSPage">
        <path d="M27.9,19.7777491 L7.59318536,10.2346696 C6.83219452,9.877046 6.2,10.2717157 6.2,11.1250524 L6.2,56.1101873 C6.2,56.975682 6.82375033,57.9484183 7.59318536,58.3100102 L27.9,67.8530896 L27.9,19.7777491 L27.9,19.7777491 Z M34.1,68.4388706 L55.1999769,58.0404472 C55.9554777,57.6681237 56.575,56.6710466 56.575,55.8177098 L56.575,10.8325749 C56.575,9.96708023 55.9593812,9.5908594 55.1999769,9.96510659 L34.1,20.36353 L34.1,68.4388706 L34.1,68.4388706 Z M0,0.995382323 C0,0.146526688 0.619236752,-0.234202846 1.37203075,0.139502083 L29.6279693,14.1664251 C30.3857209,14.5425912 31.6192368,14.5401301 32.3720307,14.1664251 L60.6279693,0.139502083 C61.3857209,-0.236663947 62,0.149702291 62,0.995382323 L62,59.4779671 C62,60.3268227 61.3807632,61.3223601 60.6279693,61.6960651 L32.3720307,75.7229881 C31.6142791,76.0991541 30.3807632,76.096693 29.6279693,75.7229881 L1.37203075,61.6960651 C0.61427909,61.319899 0,60.3236471 0,59.4779671 L0,0.995382323 Z M38.75,29.4657568 C38.75,28.6166448 39.3674138,27.6218046 40.1257575,27.2453447 L51.3242425,21.6861492 C52.0840524,21.3089614 52.7,21.6854727 52.7,22.5406434 L52.7,25.6213934 C52.7,26.4705053 52.0825862,27.4653456 51.3242425,27.8418055 L40.1257575,33.401001 C39.3659476,33.7781888 38.75,33.4016775 38.75,32.5465068 L38.75,29.4657568 Z M10.075,22.5406434 C10.075,21.6915315 10.6744141,21.3338163 11.4252599,21.7479695 L22.6747401,27.9529815 C23.4204681,28.3643116 24.025,29.3800431 24.025,30.2352138 L24.025,33.3159638 C24.025,34.1650757 23.4255859,34.5227909 22.6747401,34.1086378 L11.4252599,27.9036258 C10.6795319,27.4922956 10.075,26.4765641 10.075,25.6213934 L10.075,22.5406434 Z M10.075,33.3130419 C10.075,32.46393 10.6744141,32.1062149 11.4252599,32.520368 L22.6747401,38.72538 C23.4204681,39.1367102 24.025,40.1524416 24.025,41.0076123 L24.025,44.0883623 C24.025,44.9374742 23.4255859,45.2951894 22.6747401,44.8810363 L11.4252599,38.6760243 C10.6795319,38.2646941 10.075,37.2489626 10.075,36.3937919 L10.075,33.3130419 Z M10.075,44.0854405 C10.075,43.2363285 10.6744141,42.8786134 11.4252599,43.2927665 L22.6747401,49.4977785 C23.4204681,49.9091087 24.025,50.9248401 24.025,51.7800108 L24.025,54.8607608 C24.025,55.7098728 23.4255859,56.0675879 22.6747401,55.6534348 L11.4252599,49.4484228 C10.6795319,49.0370926 10.075,48.0213612 10.075,47.1661905 L10.075,44.0854405 Z M38.75,40.2381553 C38.75,39.3890433 39.3674138,38.3942031 40.1257575,38.0177432 L51.3242425,32.4585477 C52.0840524,32.0813599 52.7,32.4578712 52.7,33.3130419 L52.7,36.3937919 C52.7,37.2429039 52.0825862,38.2377441 51.3242425,38.614204 L40.1257575,44.1733995 C39.3659476,44.5505873 38.75,44.174076 38.75,43.3189053 L38.75,40.2381553 Z M38.75,51.0105538 C38.75,50.1614419 39.3674138,49.1666017 40.1257575,48.7901417 L51.3242425,43.2309462 C52.0840524,42.8537584 52.7,43.2302698 52.7,44.0854405 L52.7,47.1661905 C52.7,48.0153024 52.0825862,49.0101426 51.3242425,49.3866025 L40.1257575,54.945798 C39.3659476,55.3229858 38.75,54.9464745 38.75,54.0913038 L38.75,51.0105538 Z" id="project-update" fill="#FFFFFF" sketch:type="MSShapeGroup"></path>
    </g>
</svg>