<?xml version="1.0" encoding="UTF-8" standalone="no"?>
<svg width="65px" height="64px" viewBox="0 0 65 64" version="1.1" xmlns="http://www.w3.org/2000/svg" xmlns:xlink="http://www.w3.org/1999/xlink" xmlns:sketch="http://www.bohemiancoding.com/sketch/ns">
    <!-- Generator: Sketch 3.3.1 (12002) - http://www.bohemiancoding.com/sketch -->
    <title>search</title>
    <desc>Created with Sketch.</desc>
    <defs></defs>
    <g id="Icons-/-Resources" stroke="none" stroke-width="1" fill="none" fill-rule="evenodd" sketch:type="MSPage">
        <path d="M40.1954499,46.4594176 C51.5091323,44.0681288 60,34.0256386 60,22 C60,8.19288126 48.8071187,-3 35,-3 C21.1928813,-3 10,8.19288126 10,22 C10,34.5959214 19.3152746,45.0161439 31.4325508,46.7473944 C31.4299085,46.7990585 31.4285714,46.8510684 31.4285714,46.9033918 L31.4285714,71.0046542 C31.4285714,72.6485517 32.77344,74 34.4324195,74 L37.2247234,74 C38.8920408,74 40.2285714,72.658938 40.2285714,71.0046542 L40.2285714,46.9033918 C40.2285714,46.7526699 40.2172661,46.6044065 40.1954499,46.4594176 Z M35,38 C43.836556,38 51,30.836556 51,22 C51,13.163444 43.836556,6 35,6 C26.163444,6 19,13.163444 19,22 C19,30.836556 26.163444,38 35,38 Z" id="search" fill="#FFFFFF" sketch:type="MSShapeGroup" transform="translate(35.000000, 35.500000) rotate(-45.000000) translate(-35.000000, -35.500000) "></path>
    </g>
</svg>