<?xml version="1.0" encoding="UTF-8" standalone="no"?>
<svg width="76px" height="72px" viewBox="0 0 76 72" version="1.1" xmlns="http://www.w3.org/2000/svg" xmlns:xlink="http://www.w3.org/1999/xlink" xmlns:sketch="http://www.bohemiancoding.com/sketch/ns">
    <!-- Generator: Sketch 3.3.1 (12002) - http://www.bohemiancoding.com/sketch -->
    <title>skull</title>
    <desc>Created with Sketch.</desc>
    <defs></defs>
    <g id="Icons-/-Resources" stroke="none" stroke-width="1" fill="none" fill-rule="evenodd" sketch:type="MSPage">
        <path d="M9.67034483,0 C8.77931034,0 7.91448276,0.136191677 7.10206897,0.381336696 L13.1558621,5.9924338 L6.36827586,13.8098361 L0.183448276,8.11702396 C0.0524137931,8.74350567 0,9.39722573 0,10.0781841 C0,15.6348045 4.35034483,20.1291299 9.67034483,20.1291299 C10.6924138,20.1291299 11.662069,19.9656999 12.6055172,19.6388398 L20.4151724,26.8569987 C21.9089655,23.5066835 24.1103448,20.6194199 26.7834483,18.4948298 L19.2358621,11.5490542 C19.3144828,11.0587642 19.3406897,10.5684741 19.3406897,10.0781841 L19.3406897,10.0237074 C19.3144828,4.46708701 14.9903448,0 9.67034483,0 L9.67034483,0 Z M56.1875862,45.5424968 C54.9296552,49.0290038 52.937931,52.0796974 50.422069,54.4494325 L56.737931,60.251198 C56.6593103,60.7959647 56.6068966,61.3407314 56.6068966,61.9127364 C56.6068966,67.4693569 60.9572414,71.9636822 66.2772414,71.9636822 C67.2468966,71.9636822 68.1641379,71.8002522 69.0551724,71.5278689 L62.7393103,65.6988651 L69.5006897,57.9087011 L75.7641379,63.6832282 C75.8689655,63.0839849 75.9213793,62.4847415 75.9213793,61.8582598 L75.9213793,61.7765448 C75.8689655,56.2471627 71.5448276,51.807314 66.2510345,51.807314 C65.2813793,51.807314 64.337931,51.9435057 63.4731034,52.2431274 L56.1875862,45.5424968 Z M66.2772414,0 C60.9572414,0 56.6331034,4.46708701 56.6068966,9.9964691 L56.6068966,10.0509458 C56.6068966,10.5412358 56.6331034,11.0587642 56.7117241,11.5218159 L49.1641379,18.4675914 C51.8634483,20.5921816 54.0386207,23.4794451 55.5324138,26.8297604 L63.3682759,19.6388398 C64.2855172,19.9384615 65.2813793,20.1291299 66.3034483,20.1291299 C71.6496552,20.1291299 75.9737931,15.6075662 75.9737931,10.0781841 C75.9737931,9.39722573 75.8951724,8.74350567 75.7903448,8.11702396 L69.6055172,13.8098361 L62.817931,5.96519546 L68.8717241,0.354098361 C68.0331034,0.136191677 67.1682759,0 66.2772414,0 Z M19.76,45.5424968 L12.4482759,52.2703657 C11.5572414,51.9979823 10.64,51.8345523 9.67034483,51.8345523 C4.35034483,51.8345523 0.0262068966,56.274401 0,61.8037831 L0,61.8854981 C0,62.5119798 0.0524137931,63.1112232 0.157241379,63.7104666 L6.42068966,57.9359395 L13.182069,65.7261034 L6.8662069,71.5551072 C7.75724138,71.8274905 8.67448276,71.9909206 9.64413793,71.9909206 C14.9903448,71.9909206 19.3144828,67.4693569 19.3144828,61.9399748 C19.3144828,61.3679697 19.262069,60.823203 19.1834483,60.2784363 L25.4993103,54.4766709 C23.0096552,52.0796974 21.017931,49.0290038 19.76,45.5424968 Z M37.9737931,16.2340479 C27.9889655,16.2340479 19.8910345,25.5495586 19.8910345,37.0713745 C19.8910345,44.1805801 22.9834483,50.4726356 27.7268966,54.2315259 C27.4124138,54.7762926 27.2289655,55.4300126 27.2289655,56.110971 C27.2289655,58.1266078 28.7751724,59.7881463 30.6882759,59.7881463 C32.6013793,59.7881463 34.1475862,58.1538462 34.1475862,56.110971 C34.1475862,55.9747793 34.1475862,55.8385876 34.1213793,55.6751576 L34.5931034,55.6751576 C34.5668966,55.865826 34.5406897,56.029256 34.5406897,56.2199243 C34.5406897,58.1810845 36.0606897,59.7609079 37.9475862,59.7609079 C39.8344828,59.7609079 41.3544828,58.1810845 41.3544828,56.2199243 C41.3544828,56.029256 41.3282759,55.8385876 41.302069,55.6751576 L41.9048276,55.6751576 C41.8786207,55.865826 41.8524138,56.029256 41.8524138,56.2199243 C41.8524138,58.1810845 43.3724138,59.7609079 45.2593103,59.7609079 C47.1462069,59.7609079 48.6662069,58.1810845 48.6662069,56.2199243 C48.6662069,55.5117276 48.4565517,54.8307692 48.0896552,54.2587642 C52.9117241,50.5271122 56.0565517,44.2078184 56.0565517,37.0713745 C56.0565517,25.5495586 47.9586207,16.2340479 37.9737931,16.2340479 Z M30.1903448,31.7871375 C31.2124138,31.7871375 32.2344828,32.1139975 33.0993103,32.6587642 C33.8331034,33.2307692 34.4358621,33.9934426 34.8813793,34.837831 C35.2744828,35.8728878 34.7241379,37.0713745 33.9117241,37.7250946 C33.3089655,38.1609079 32.7062069,38.651198 31.9724138,38.8691047 C31.0813793,39.1687264 30.2427586,39.6045397 29.4041379,40.0403531 C28.9848276,40.2854981 28.6965517,40.6395965 28.5917241,41.1026482 C28.3034483,41.5929382 28.5655172,42.2466583 28.2510345,42.6824716 C27.7793103,43.03657 27.2289655,42.6007566 26.862069,42.3011349 C26.0496552,41.6746532 25.3158621,40.8030265 25.1062069,39.7679697 C24.9489655,38.8691047 24.7655172,37.9702396 24.8703448,37.0441362 C24.8703448,35.9273644 25.3944828,34.919546 26.0496552,34.0751576 C26.7834483,33.0128625 27.8841379,32.1139975 29.1682759,31.9505675 C29.5351724,31.8143758 29.8758621,31.7871375 30.1903448,31.7871375 L30.1903448,31.7871375 Z M45.7572414,31.7871375 C46.097931,31.7871375 46.4386207,31.8143758 46.7531034,31.8960908 C48.0372414,32.0595208 49.1117241,32.9583859 49.8717241,34.020681 C50.5268966,34.8650694 51.0510345,35.9001261 51.0510345,36.9896595 C51.1558621,37.9157629 50.9724138,38.814628 50.8151724,39.7134931 C50.6055172,40.7757881 49.897931,41.6474149 49.0593103,42.2466583 C48.6924138,42.5462799 48.142069,42.9820933 47.6703448,42.627995 C47.3558621,42.1921816 47.617931,41.5384615 47.3296552,41.0481715 C47.2248276,40.5578815 46.9103448,40.2037831 46.5172414,39.9858764 C45.6786207,39.5500631 44.84,39.1142497 43.9489655,38.814628 C43.2151724,38.5967213 42.6386207,38.1064313 42.0096552,37.6706179 C41.1972414,37.0168979 40.6731034,35.8456494 41.04,34.7833544 C41.4855172,33.938966 42.062069,33.1762926 42.822069,32.6042875 C43.7131034,32.1139975 44.7351724,31.7598991 45.7572414,31.7871375 L45.7572414,31.7871375 Z M38.0262069,42.4645649 C38.9958621,42.4918033 39.9393103,46.6592686 39.7034483,48.3208071 C38.8910345,50.7994956 39.0482759,46.7137453 38.0262069,46.6592686 C36.9517241,46.6592686 36.7682759,50.6905422 36.217931,48.3208071 C36.0344828,46.5230769 37.1613793,42.4373266 38.0262069,42.4645649 L38.0262069,42.4645649 Z" id="skull" fill="#FFFFFF" sketch:type="MSShapeGroup"></path>
    </g>
</svg>