<?xml version="1.0" encoding="UTF-8" standalone="no"?>
<svg width="74px" height="66px" viewBox="0 0 74 66" version="1.1" xmlns="http://www.w3.org/2000/svg" xmlns:xlink="http://www.w3.org/1999/xlink" xmlns:sketch="http://www.bohemiancoding.com/sketch/ns">
    <!-- Generator: Sketch 3.3.1 (12002) - http://www.bohemiancoding.com/sketch -->
    <title>software</title>
    <desc>Created with Sketch.</desc>
    <defs></defs>
    <g id="Icons-/-Resources" stroke="none" stroke-width="1" fill="none" fill-rule="evenodd" sketch:type="MSPage">
        <path d="M7.77419355,46.3652723 L65.7741935,46.3652723 L65.7741935,8.36527229 L7.77419355,8.36527229 L7.77419355,46.3652723 Z M70.4193548,53.9277723 L47.7419355,53.9277723 L47.7419355,59.7090223 L52.516129,64.3340223 L52.516129,65.4902723 L21.483871,65.4902723 L21.483871,64.3340223 L26.2580645,59.7090223 L26.2580645,53.9277723 L3.58064516,53.9277723 C1.60412903,53.9277723 0,52.3749285 0,50.4590223 L0,4.20902229 C0,2.29311604 1.60412903,0.740272291 3.58064516,0.740272291 L70.4193548,0.740272291 C72.3970645,0.740272291 74,2.29311604 74,4.20902229 L74,50.4590223 C74,52.3749285 72.3970645,53.9277723 70.4193548,53.9277723 L70.4193548,53.9277723 Z" id="software" fill="#FFFFFF" sketch:type="MSShapeGroup"></path>
    </g>
</svg>