<?xml version="1.0" encoding="UTF-8" standalone="no"?>
<svg width="75px" height="75px" viewBox="0 0 75 75" version="1.1" xmlns="http://www.w3.org/2000/svg" xmlns:xlink="http://www.w3.org/1999/xlink">
    <!-- Generator: Sketch 3.8.3 (29802) - http://www.bohemiancoding.com/sketch -->
    <title>scrap</title>
    <desc>Created with Sketch.</desc>
    <defs></defs>
    <g id="Page-1" stroke="none" stroke-width="1" fill="none" fill-rule="evenodd">
        <g id="scrap">
            <path d="M37.5011406,74 C17.3417344,74 1,57.6582656 1,37.5 C1,17.3417344 17.3417344,1 37.5011406,1 C57.6582656,1 74,17.3417344 74,37.5 C74,57.6582656 57.6582656,74 37.5011406,74 L37.5011406,74 Z" id="Combined-Shape" fill="#000000"></path>
            <path d="M12.9151708,46.3856875 C12.3877563,46.1661974 12.4934169,45.2160139 12.4934169,45.2160139 L12.4934169,24.7055934 C12.4934169,24.7055934 12.253418,23.5569439 13.1311035,23.1579215 C14.4417725,22.7232395 35.9589234,15.0596273 36.8266602,14.7478667 C37.5,14.2785663 38.1417099,14.6672255 38.1417099,14.6672255 L61.9849835,22.7223936 C61.9849835,22.7223936 62.8579083,22.9415566 62.769316,23.5764841 C62.746405,30.0506435 62.6926049,44.6583574 62.6926035,45.2537942 C62.6926022,45.849231 62.2264996,46.1602758 62.2264996,46.1602758 C62.2264996,46.1602758 46.4625863,58.5508889 38.3574829,64.8879756 C37.6303711,65.6821161 36.8266602,64.992091 36.8266602,64.992091 C36.8266602,64.992091 21.1159732,52.7502204 12.9151708,46.3856875 Z M37.5,33.3758108 L16.8657227,25.0025868 L37.5,17.8717203 L59.5476074,25.0025868 L59.5476074,43.9981886 L37.5,59.7358408 L37.5,35.663227 L56.6376953,26.8852542 L37.5,33.3758108 Z" id="Combined-Shape" fill="#FFFFFF"></path>
        </g>
    </g>
</svg>