<?xml version="1.0" encoding="UTF-8" standalone="no"?>
<svg width="75px" height="75px" viewBox="0 0 75 75" version="1.1" xmlns="http://www.w3.org/2000/svg" xmlns:xlink="http://www.w3.org/1999/xlink">
    <!-- Generator: Sketch 3.8.3 (29802) - http://www.bohemiancoding.com/sketch -->
    <title>stash</title>
    <desc>Created with Sketch.</desc>
    <defs></defs>
    <g id="Page-1" stroke="none" stroke-width="1" fill="none" fill-rule="evenodd">
        <g id="stash" fill="#FFFFFF">
            <path d="M37.5011406,74 C17.3417344,74 1,57.6582656 1,37.5 C1,17.3417344 17.3417344,1 37.5011406,1 C57.6582656,1 74,17.3417344 74,37.5 C74,57.6582656 57.6582656,74 37.5011406,74 Z M19.25,27.0062491 L22.9760051,61.0489214 L51.8113442,61.0489214 L55.3589962,27.0062491 L19.25,27.0062491 Z M16.5468533,22.8025891 C16.5468533,22.8025891 16.7859535,21.3197422 18.0947316,20.0304957 C19.4035098,18.7412493 27.4735089,17.5160619 27.4735089,17.5160619 L30.0438364,14.8061295 L43.5105625,14.8061295 L45.8314576,17.5160619 C45.8314576,17.5160619 54.3438645,18.8892967 55.688804,20.0304957 C57.0337434,21.1716947 57.6093533,22.8025891 57.6093533,22.8025891 L16.5468533,22.8025891 Z" id="Combined-Shape"></path>
        </g>
    </g>
</svg>