<?xml version="1.0" encoding="UTF-8" standalone="no"?>
<svg width="75px" height="62px" viewBox="0 0 75 62" version="1.1" xmlns="http://www.w3.org/2000/svg" xmlns:xlink="http://www.w3.org/1999/xlink" xmlns:sketch="http://www.bohemiancoding.com/sketch/ns">
    <!-- Generator: Sketch 3.3.1 (12002) - http://www.bohemiancoding.com/sketch -->
    <title>twitter</title>
    <desc>Created with Sketch.</desc>
    <defs></defs>
    <g id="Icons-/-Resources" stroke="none" stroke-width="1" fill="none" fill-rule="evenodd" sketch:type="MSPage">
        <path d="M74.2000008,7.4717367 C71.4756747,8.69718677 68.551066,9.52448795 65.4792616,9.8973446 C68.6146095,7.99145155 71.0220225,4.97351559 72.1561529,1.37793738 C69.2218921,3.14186751 65.9723268,4.42361322 62.5152399,5.11466263 C59.7458703,2.12120304 55.7989355,0.252024533 51.4337399,0.252024533 C43.0492182,0.252024533 36.2516747,7.14620103 36.2516747,15.6509224 C36.2516747,16.8576073 36.3851964,18.0332887 36.6441964,19.1600175 C24.0271964,18.5187367 12.8371095,12.3874069 5.35184859,3.07007017 C4.04478337,5.34474047 3.2951312,7.98981979 3.2951312,10.8119448 C3.2951312,16.1543197 5.97521815,20.8668361 10.0484355,23.629402 C7.56139207,23.5494458 5.2191312,22.8583964 3.17206598,21.7047437 C3.17045728,21.7683822 3.17045728,21.8320208 3.17045728,21.8972911 C3.17045728,29.3593193 8.40515294,35.5828434 15.3490877,36.9975773 C14.0766095,37.350037 12.7349573,37.538505 11.349066,37.538505 C10.3717834,37.538505 9.42184859,37.4422313 8.49282685,37.2619221 C10.4248703,43.3793819 16.0335877,47.8324488 22.6758921,47.9556465 C17.4790008,52.0864412 10.9340225,54.5487637 3.82117468,54.5487637 C2.59615294,54.5487637 1.3880225,54.4753346 0.200000763,54.330924 C6.91791381,58.7015872 14.8962399,61.2520245 23.4730008,61.2520245 C51.3975442,61.2520245 66.6688921,37.7849004 66.6688921,17.4344336 C66.6688921,16.7686765 66.6544138,16.1037352 66.6246529,15.4420574 C69.5902834,13.2734514 72.1633921,10.56147 74.2000008,7.4717367 L74.2000008,7.4717367 Z" id="twitter" fill="#FFFFFF" sketch:type="MSShapeGroup"></path>
    </g>
</svg>