<?xml version="1.0" encoding="UTF-8" standalone="no"?>
<svg width="74px" height="74px" viewBox="0 0 74 74" version="1.1" xmlns="http://www.w3.org/2000/svg" xmlns:xlink="http://www.w3.org/1999/xlink" xmlns:sketch="http://www.bohemiancoding.com/sketch/ns">
    <!-- Generator: Sketch 3.3.1 (12002) - http://www.bohemiancoding.com/sketch -->
    <title>twitter-circle</title>
    <desc>Created with Sketch.</desc>
    <defs></defs>
    <g id="Icons-/-Resources" stroke="none" stroke-width="1" fill="none" fill-rule="evenodd" sketch:type="MSPage">
        <path d="M37,74 C57.4345368,74 74,57.4345368 74,37 C74,16.5654632 57.4345368,0 37,0 C16.5654632,0 0,16.5654632 0,37 C0,57.4345368 16.5654632,74 37,74 Z M42.1395518,22.549132 C38.9091282,23.7249026 36.8675004,26.7557777 37.1000909,30.0740635 L37.1776211,31.3543469 L35.8854516,31.1975775 C31.1819548,30.5966281 27.0728559,28.5586259 23.5839983,25.1358272 L21.8783346,23.437492 L21.438997,24.6916472 C20.508635,27.4873683 21.103033,30.4398587 23.0412872,32.4256045 C24.0750227,33.5229904 23.8424322,33.6797598 22.0592384,33.0265539 C21.438997,32.8175281 20.8962858,32.6607586 20.8445991,32.7391433 C20.6636953,32.922041 21.2839367,35.2997103 21.7749611,36.2403267 C22.4468892,37.5467384 23.8165888,38.8270219 25.3155054,39.5847407 L26.5818315,40.1856901 L25.0829149,40.2118183 C23.6356851,40.2118183 23.5839983,40.2379466 23.7390587,40.7866395 C24.2559265,42.4849747 26.2975542,44.2878228 28.5717725,45.0716699 L30.1740626,45.6203628 L28.7785196,46.4564663 C26.7110484,47.6583651 24.2817698,48.3376991 21.8524913,48.3899556 C20.6895387,48.4160838 19.7333333,48.5205968 19.7333333,48.5989815 C19.7333333,48.8602638 22.8862268,50.3234449 24.7211075,50.8982661 C30.2257494,52.5966013 36.7641268,51.8650107 41.6743708,48.9647768 C45.1632284,46.9006463 48.6520859,42.7985135 50.2802194,38.8270219 C51.1588947,36.7106349 52.0375699,32.8436563 52.0375699,30.9885517 C52.0375699,29.7866529 52.1151001,29.6298835 53.5623299,28.1928306 C54.4151617,27.3567271 55.2163068,26.4422389 55.3713671,26.1809566 C55.629801,25.6845201 55.6039576,25.6845201 54.2859448,26.1287001 C52.0892567,26.9125471 51.779136,26.8080342 52.8645583,25.6322637 C53.6657034,24.7961602 54.6219088,23.2807226 54.6219088,22.8365426 C54.6219088,22.7581579 54.234258,22.8887991 53.7949204,23.1239532 C53.3297394,23.3852355 52.2960038,23.777159 51.5207021,24.0123131 L50.1251591,24.4564931 L48.858833,23.5942614 C48.1610615,23.1239532 47.1790127,22.6013885 46.6621449,22.4446191 C45.3441321,22.0788238 43.3283477,22.1310803 42.1395518,22.549132 Z" id="twitter-circle" fill="#FFFFFF" sketch:type="MSShapeGroup"></path>
    </g>
</svg>