<?xml version="1.0" encoding="UTF-8" standalone="no"?>
<svg width="66px" height="74px" viewBox="0 0 66 74" version="1.1" xmlns="http://www.w3.org/2000/svg" xmlns:xlink="http://www.w3.org/1999/xlink" xmlns:sketch="http://www.bohemiancoding.com/sketch/ns">
    <!-- Generator: Sketch 3.3.3 (12072) - http://www.bohemiancoding.com/sketch -->
    <title>unlock</title>
    <desc>Created with Sketch.</desc>
    <defs></defs>
    <g id="Icons-/-Resources" stroke="none" stroke-width="1" fill="none" fill-rule="evenodd" sketch:type="MSPage">
        <path d="M58.1599903,20.0009866 L58.1612903,20.0009866 L58.1612903,20.0009866 L58.1612903,15.6104158 C58.1612903,7.33285828 51.447255,0.615272291 43.1650728,0.615272291 L22.8349272,0.615272291 C14.5471706,0.615272291 7.83870968,7.32882672 7.83870968,15.6104158 L7.83870968,36.0996446 L7.83870968,36.0996446 C3.73312233,36.4377041 0.5,39.8816242 0.5,44.0802513 L0.5,65.6074361 C0.5,70.0325117 4.08299627,73.6152723 8.50284615,73.6152723 L57.4971538,73.6152723 C61.9127306,73.6152723 65.5,70.0300419 65.5,65.6074361 L65.5,44.0802513 C65.5,39.6551757 61.9170037,36.0724151 57.4971538,36.0724151 L18.6764113,36.0724151 L18.6764113,17.0060512 C18.6764113,13.1372608 21.8138501,10.0009866 25.6735134,10.0009866 L39.9857608,10.0009866 C43.8501536,10.0009866 46.9828629,13.1339307 46.9828629,17.0060512 L46.9828629,20.0009866 L46.9899902,20.0009866 L46.9899902,21.5818088 C46.9899902,23.794143 48.7813331,25.5839797 50.9910666,25.5839797 L54.1589139,25.5839797 C56.3653366,25.5839797 58.1599903,23.7921467 58.1599903,21.5818088 L58.1599903,20.0009866 Z" id="unlock" fill="#FFFFFF" sketch:type="MSShapeGroup"></path>
    </g>
</svg>