<?xml version="1.0" encoding="UTF-8" standalone="no"?>
<svg width="74px" height="53px" viewBox="0 0 74 53" version="1.1" xmlns="http://www.w3.org/2000/svg" xmlns:xlink="http://www.w3.org/1999/xlink" xmlns:sketch="http://www.bohemiancoding.com/sketch/ns">
    <!-- Generator: Sketch 3.3.1 (12002) - http://www.bohemiancoding.com/sketch -->
    <title>users</title>
    <desc>Created with Sketch.</desc>
    <defs></defs>
    <g id="Icons-/-Resources" stroke="none" stroke-width="1" fill="none" fill-rule="evenodd" sketch:type="MSPage">
        <g id="users" sketch:type="MSLayerGroup" fill="#FFFFFF">
            <path d="M64.058846,42.2775111 C58.0519504,40.16128 56.131849,38.37624 56.131849,34.5536444 C56.131849,32.2588622 57.9661793,33.0084 58.7712573,28.8060889 C59.1055694,27.0629778 60.7254721,28.7778222 61.0354174,24.7983467 C61.0354174,23.2121156 60.1513911,22.8182667 60.1513911,22.8182667 C60.1513911,22.8182667 60.6007143,20.4711911 60.7766424,18.6649511 C60.9944813,16.4144533 59.4315968,10.6 51.0947508,10.6 C42.7579048,10.6 41.1940456,16.4144533 41.4128592,18.6649511 C41.5887872,20.4711911 42.0381104,22.8182667 42.0381104,22.8182667 C42.0381104,22.8182667 41.1540841,23.2121156 41.1540841,24.7983467 C41.463542,28.7778222 43.0834448,27.0629778 43.4177568,28.8060889 C44.2238095,33.0079289 46.0571651,32.2588622 46.0571651,34.5536444 C46.0571651,38.3757689 44.1380385,40.1608089 38.1311429,42.2775111 C32.1052411,44.4003378 28.1904762,46.5646222 28.1904762,48.0406133 L28.1904762,53 L51.0952381,53 L74,53 L74,48.0406133 C73.9995127,46.5641511 70.0847477,44.4003378 64.058846,42.2775111 L64.058846,42.2775111 Z" id="Shape-3" sketch:type="MSShapeGroup"></path>
            <path d="M44.1456859,39.5968889 C36.7525836,36.9516 34.389382,34.7203 34.389382,29.9420556 C34.389382,27.0735778 36.6470193,28.0105 37.6378845,22.7576111 C38.0493455,20.5787222 40.0430719,22.7222778 40.4245431,17.7479333 C40.4245431,15.7651444 39.3365106,15.2728333 39.3365106,15.2728333 C39.3365106,15.2728333 39.8895238,12.3389889 40.1060507,10.0811889 C40.3741601,7.26806667 38.4506099,0 28.1898764,0 C17.9291429,0 16.0043931,7.26806667 16.2737021,10.0811889 C16.490229,12.3389889 17.0432421,15.2728333 17.0432421,15.2728333 C17.0432421,15.2728333 15.9552097,15.7651444 15.9552097,17.7479333 C16.3360811,22.7222778 18.3298075,20.5787222 18.7412685,22.7576111 C19.7333333,28.0099111 21.989771,27.0735778 21.989771,29.9420556 C21.989771,34.7197111 19.627769,36.9510111 12.2346667,39.5968889 C4.81817224,42.2504222 0,44.9557778 0,46.8007667 L0,53 L28.1904762,53 L56.3809524,53 L56.3809524,46.8007667 C56.3803526,44.9551889 51.5621803,42.2504222 44.1456859,39.5968889 L44.1456859,39.5968889 Z" id="Shape-2" sketch:type="MSShapeGroup"></path>
        </g>
    </g>
</svg>