<?xml version="1.0" encoding="UTF-8" standalone="no"?>
<svg width="74px" height="70px" viewBox="0 0 74 70" version="1.1" xmlns="http://www.w3.org/2000/svg" xmlns:xlink="http://www.w3.org/1999/xlink" xmlns:sketch="http://www.bohemiancoding.com/sketch/ns">
    <!-- Generator: Sketch 3.3.1 (12002) - http://www.bohemiancoding.com/sketch -->
    <title>user</title>
    <desc>Created with Sketch.</desc>
    <defs></defs>
    <g id="Icons-/-Resources" stroke="none" stroke-width="1" fill="none" fill-rule="evenodd" sketch:type="MSPage">
        <path d="M57.9412128,52.2977778 C48.237766,48.804 45.1360638,45.857 45.1360638,39.5461111 C45.1360638,35.7575556 48.0992128,36.995 49.3997234,30.0572222 C49.939766,27.1794444 52.5565319,30.0105556 53.0572128,23.4406667 C53.0572128,20.8218889 51.6291702,20.1716667 51.6291702,20.1716667 C51.6291702,20.1716667 52.355,16.2967778 52.6391915,13.3147778 C52.9910851,9.59933333 50.4664255,0 36.9992128,0 C23.532,0 21.005766,9.59933333 21.359234,13.3147778 C21.6434255,16.2967778 22.3692553,20.1716667 22.3692553,20.1716667 C22.3692553,20.1716667 20.9412128,20.8218889 20.9412128,23.4406667 C21.4411064,30.0105556 24.0578723,27.1794444 24.5979149,30.0572222 C25.9,36.9942222 28.8615745,35.7575556 28.8615745,39.5461111 C28.8615745,45.8562222 25.7614468,48.8032222 16.058,52.2977778 C6.32385106,55.8024444 0,59.3755556 0,61.8123333 L0,70 L37,70 L74,70 L74,61.8123333 C73.9992128,59.3747778 67.6753617,55.8024444 57.9412128,52.2977778 L57.9412128,52.2977778 Z" id="user" fill="#FFFFFF" sketch:type="MSShapeGroup"></path>
    </g>
</svg>