<svg xmlns="http://www.w3.org/2000/svg" width="36" height="36" viewBox="0 0 36 36">
  <path fill="#000000" d="M4.8,12.8 C3,12.8 1.8,11.4 1.8,9.8 C1.8,8 3,6.8 4.8,6.8 C6.4,6.8 7.8,8.2 7.8,9.8 C7.8,11.4 6.4,12.8 4.8,12.8 Z M33.2,8 L33.2,11.4 C33.2,11.6 33,11.8 32.8,11.8 L11.2,11.8 C11,11.8 10.8,11.6 10.8,11.4 L10.8,8 C10.8,7.8 11,7.6 11.2,7.6 L32.8,7.6 C33,7.6 33.2,7.8 33.2,8 Z M33.2,16.8 L33.2,20.2 C33.2,20.4 33,20.6 32.8,20.6 L11.2,20.6 C11,20.6 10.8,20.4 10.8,20.2 L10.8,16.8 C10.8,16.6 11,16.4 11.2,16.4 L32.8,16.4 C33,16.4 33.2,16.6 33.2,16.8 Z M33.2,25.8 L33.2,29.2 C33.2,29.4 33,29.6 32.8,29.6 L11.2,29.6 C11,29.6 10.8,29.4 10.8,29.2 L10.8,25.8 C10.8,25.6 11,25.4 11.2,25.4 L32.8,25.4 C33,25.4 33.2,25.6 33.2,25.8 Z M4.8,21.6 C3.2,21.6 1.8,20.2 1.8,18.6 C1.8,17 3.2,15.6 4.8,15.6 C6.4,15.6 7.8,17 7.8,18.6 C7.8,20.2 6.4,21.6 4.8,21.6 Z M4.8,30.6 C3.2,30.6 1.8,29.2 1.8,27.6 C1.8,26 3.2,24.6 4.8,24.6 C6.4,24.6 7.8,26 7.8,27.6 C7.8,29.2 6.4,30.6 4.8,30.6 Z"/>
</svg>
