<svg xmlns="http://www.w3.org/2000/svg" width="36" height="36" viewBox="0 0 36 36">
  <path fill="#000000" d="M21.7101372,20.9266756 L21.7101372,5.70559081 C21.7101372,3.65862245 20.0498119,2 18.0007419,2 C15.9516719,2 14.2913465,3.65862245 14.2913465,5.70559081 L14.2913465,20.9266756 C12.2749192,22.1732364 10.920248,24.384733 10.920248,26.9267683 C10.920248,30.8339432 14.0895554,34 18.0007419,34 C21.9119284,34 25.0812358,30.8339432 25.0812358,26.9267683 C25.0812358,24.384733 23.7265646,22.1732364 21.7101372,20.9266756 Z M16.5169837,5.70559081 L19.4845,5.70559081 L19.4845,16.3599055 L16.5169837,16.3599055 L16.5169837,5.70559081 Z M18.0007419,28.6758071 C16.9606274,28.6758071 16.116369,27.8324147 16.116369,26.793367 C16.116369,25.7543193 16.9606274,24.9109269 18.0007419,24.9109269 C19.0408563,24.9109269 19.8851147,25.7543193 19.8851147,26.793367 C19.8851147,27.8324147 19.0408563,28.6758071 18.0007419,28.6758071 Z M4,7.5984066 L9.90684118,7.5984066 L9.90684118,10.5628792 L4,10.5628792 L4,7.5984066 Z M26.0946426,15.303071 L32,15.303071 L32,18.2675437 L26.0946426,18.2675437 L26.0946426,15.303071 Z M26.0946426,7.5984066 L32,7.5984066 L32,10.5628792 L26.0946426,10.5628792 L26.0946426,7.5984066 Z M4,15.303071 L9.90684118,15.303071 L9.90684118,18.2675437 L4,18.2675437 L4,15.303071 Z"/>
</svg>
