<svg xmlns="http://www.w3.org/2000/svg" width="36" height="36" viewBox="0 0 36 36">
  <path fill="#20282D" fill-rule="evenodd" d="M26.7957963,29.7359101 L26.8976236,29.8469943 C24.147251,32.3695245 20.4806907,33.9090909 16.4545455,33.9090909 C7.91923568,33.9090909 1,26.9898552 1,18.4545455 C1,9.91923568 7.91923568,3 16.4545455,3 C24.643644,3 31.3451127,9.36930055 31.8752923,17.4242424 L35,17.4242424 L28.8181818,23.6060606 L22.6363636,17.4242424 L26.7067043,17.4242424 C26.1897761,12.2177887 21.7970253,8.15151515 16.4545455,8.15151515 C10.7643389,8.15151515 6.15151515,12.7643389 6.15151515,18.4545455 C6.15151515,24.144752 10.7643389,28.7575758 16.4545455,28.7575758 C18.7731995,28.7575758 20.9129636,27.991657 22.6346344,26.6990229 C23.1044633,26.0722312 23.8533542,25.6666667 24.6969697,25.6666667 C26.1195213,25.6666667 27.2727273,26.8198726 27.2727273,28.2424242 C27.2727273,28.7991706 27.0960887,29.3146608 26.7957963,29.7359101 Z"/>
</svg>
