<svg xmlns="http://www.w3.org/2000/svg" width="30" height="30" viewBox="0 0 30 30">
  <path fill="#383E49" d="M16.3235294,13.6764706 L16.3235294,1.32777169 C16.3235294,0.592517722 15.7309651,0 15,0 C14.2705222,0 13.6764706,0.594463637 13.6764706,1.32777169 L13.6764706,13.6764706 L1.32777169,13.6764706 C0.592517722,13.6764706 0,14.2690349 0,15 C0,15.7294778 0.594463637,16.3235294 1.32777169,16.3235294 L13.6764706,16.3235294 L13.6764706,28.6722283 C13.6764706,29.4074823 14.2690349,30 15,30 C15.7294778,30 16.3235294,29.4055364 16.3235294,28.6722283 L16.3235294,16.3235294 L28.6722283,16.3235294 C29.4074823,16.3235294 30,15.7309651 30,15 C30,14.2705222 29.4055364,13.6764706 28.6722283,13.6764706 L16.3235294,13.6764706 Z"/>
</svg>
