<?xml version="1.0" encoding="UTF-8" standalone="no"?>
<svg width="64px" height="68px" viewBox="0 0 64 68" version="1.1" xmlns="http://www.w3.org/2000/svg" xmlns:xlink="http://www.w3.org/1999/xlink" xmlns:sketch="http://www.bohemiancoding.com/sketch/ns">
    <!-- Generator: Sketch 3.4.2 (15855) - http://www.bohemiancoding.com/sketch -->
    <title>aml</title>
    <desc>Created with Sketch.</desc>
    <defs></defs>
    <g id="Icons" stroke="none" stroke-width="1" fill="none" fill-rule="evenodd" sketch:type="MSPage">
        <path d="M48.0651138,59.9481904 C48.2212363,59.8674953 48.3677147,59.7616436 48.4986385,59.6307199 L59.1552297,48.9741287 C59.8344881,48.2948703 59.8341142,47.1832156 59.1482359,46.4973373 C58.4575758,45.8066771 57.3534603,45.8083277 56.6714445,46.4903435 L47.222245,55.939543 L43.3154873,52.0327854 C42.6344018,51.3516998 41.5179403,51.3472668 40.8320619,52.0331451 C40.1414018,52.7238053 40.1460225,53.8308909 40.8317022,54.5165706 L45.9704106,59.655279 C46.5340686,60.218937 47.3959161,60.3191548 48.0651138,59.9481904 Z M47.3565684,37.1953084 L47.3565684,20.7101449 L33.5351545,20.7101449 C32.4504071,20.7101449 31.5710456,19.8352809 31.5710456,18.7391304 C31.5710456,18.5647543 31.5934555,18.3956671 31.6355793,18.2346488 C31.5934696,18.0735829 31.5710456,17.9044617 31.5710456,17.7300167 L31.5710456,3.94202899 L5.92442839,3.94202899 C4.83318681,3.94202899 3.9463807,4.82739401 3.9463807,5.91954711 L3.9463807,53.2108877 C3.9463807,54.298929 4.83198282,55.1884058 5.92442839,55.1884058 L33.3360661,55.1884058 C33.1908968,54.3388335 33.1152815,53.4655698 33.1152815,52.5746692 C33.1152815,44.4594054 39.389452,37.8075608 47.3565684,37.1953084 Z M51.3029491,37.3923821 L51.3029491,10.8405986 L51.3029491,15.7681159 L50.2686717,14.7349791 L50.2796184,14.7240323 L36.3424413,0.786855205 L36.323806,0.805490509 L35.5174263,-1.33226763e-15 L5.91013842,0 C2.65023808,0 0,2.64737664 0,5.91308122 L0,53.2173536 C0,56.4748504 2.6460591,59.1304348 5.91013842,59.1304348 L34.5753493,59.1304348 C37.0424693,64.371498 42.3759552,68 48.5576408,68 C57.0860346,68 64,61.0936587 64,52.5746692 C64,44.9915765 58.5217258,38.6862641 51.3029491,37.3923821 Z M46.7426769,16.7681159 L35.5174263,5.54286529 L35.5174263,16.7681159 L46.7426769,16.7681159 Z M12.7360468,25.1752306 C12.7360468,25.9183926 13.2652564,26.5191041 13.919961,26.5191041 L35.2304168,26.5191041 C35.8851213,26.5191041 36.414331,25.9183926 36.414331,25.1752306 C36.414331,24.4334124 35.8851213,23.831357 35.2304168,23.831357 L13.919961,23.831357 C13.2652564,23.831357 12.7360468,24.4334124 12.7360468,25.1752306 Z M38.9794784,34.5823452 L14.11728,34.5823452 C13.3534581,34.5823452 12.7360468,35.1844005 12.7360468,35.9262187 C12.7360468,36.6693808 13.3534581,37.2700922 14.11728,37.2700922 L38.9794784,37.2700922 C39.7433004,37.2700922 40.3607117,36.6693808 40.3607117,35.9262187 C40.3607117,35.1844005 39.7433004,34.5823452 38.9794784,34.5823452 Z M13.8635841,15.7681159 L19.5012708,15.7681159 C20.124799,15.7681159 20.6288082,15.1674045 20.6288082,14.4242424 C20.6288082,13.6824242 20.124799,13.0803689 19.5012708,13.0803689 L13.8635841,13.0803689 C13.240056,13.0803689 12.7360468,13.6824242 12.7360468,14.4242424 C12.7360468,15.1674045 13.240056,15.7681159 13.8635841,15.7681159 Z M31.0585286,45.3333333 L14.1454685,45.3333333 C13.3660583,45.3333333 12.7360468,45.9353887 12.7360468,46.6772069 C12.7360468,47.4203689 13.3660583,48.0210804 14.1454685,48.0210804 L31.0585286,48.0210804 C31.8379388,48.0210804 32.4679503,47.4203689 32.4679503,46.6772069 C32.4679503,45.9353887 31.8379388,45.3333333 31.0585286,45.3333333 Z" id="aml" fill="#383E49" sketch:type="MSShapeGroup"></path>
    </g>
</svg>