<svg xmlns="http://www.w3.org/2000/svg" width="36" height="36" viewBox="0 0 36 36">
  <path fill="#20282D" fill-rule="evenodd" d="M2.17335948,20.1772813 L4.49043196,20.761898 L6.23461125,17.9754556 L2.91965062,17.1417714 C2.09006047,16.9324856 1.25197042,17.442728 1.04627286,18.2833307 C0.840575303,19.1187445 1.34376933,19.9662658 2.17335948,20.1772813 L2.17335948,20.1772813 Z M32.4177003,20.6287161 L24.8306904,27.5749313 L15.9108964,20.5508825 C15.7408984,20.4194303 15.5454007,20.320841 15.3363032,20.2706816 L14.1497173,19.9697251 L12.403838,22.7561675 L14.2738158,23.2283579 L23.9586008,30.8525901 C24.2407974,31.0722538 24.5739935,31.1794912 24.9088895,31.1794912 C25.2811851,31.1794912 25.6534807,31.0445796 25.9441772,30.7782158 L34.4916757,22.948157 C35.1240682,22.3704588 35.1733676,21.3811075 34.6004744,20.7394128 C34.0275812,20.0994477 33.0517928,20.0475587 32.4177003,20.6287161 L32.4177003,20.6287161 Z M15.7629981,12.9975654 L24.0707995,18.4095941 C24.7728911,18.8662178 25.7044801,18.6759579 26.1787744,17.9841038 L34.724573,5.45808529 C35.2107672,4.74547556 35.0356693,3.76823164 34.3318776,3.27874487 C33.628086,2.78579882 32.6675974,2.96395125 32.1814032,3.67656098 L24.4838946,14.9555125 L16.1267938,9.51235033 C15.7799979,9.28576811 15.3601029,9.2113938 14.9572077,9.29960519 C14.5560124,9.39127586 14.2058166,9.64034334 13.9865192,9.9914593 L1.24177054,30.3440774 C0.782775989,31.0739834 0.996973446,32.0443088 1.71776489,32.5061214 C1.97276186,32.6721664 2.26005845,32.75 2.54395508,32.75 C3.055649,32.75 3.55714305,32.4922843 3.84953957,32.0235532 L15.7629981,12.9975654 L15.7629981,12.9975654 Z"/>
</svg>
