<svg xmlns="http://www.w3.org/2000/svg" width="30" height="30" viewBox="0 0 30 30">
  <path fill="#010101" d="M23.9075596,19.9130427 L29,25.6195641 L25.1927024,25.6190427 L25.193081,31 L22.6216524,31 L22.6207024,25.6190427 L18.7647024,25.6195641 L23.9075596,19.9130427 Z M17.3950889,1 C18.3571533,1 19.1974037,1.52910207 19.6485312,2.31612214 L22.4483819,2.30434777 C23.9375,2.30434777 25.1428571,3.52781032 25.1428571,5.03150417 L25.1428571,17.956521 L22.5714286,17.956521 L22.5714286,5.03150417 C22.5714286,4.96972635 22.5161827,4.91304331 22.45466,4.91304331 L20,4.924 L20,6.14327412 C20,6.57015063 19.6974791,6.85473453 19.2436991,6.85473453 L7.89915929,6.85473453 C7.445378,6.85473453 7.14285714,6.57015063 7.14285714,6.14327282 L7.142,4.927 L4.68819714,4.92769244 C4.62730186,4.92769113 4.57142857,4.98437548 4.57142857,5.0461533 L4.57142857,27.0130771 C4.57142857,27.0754928 4.62730186,27.131538 4.68819714,27.131538 L16.1428571,27.131538 L16.1428571,29.7402335 L4.68819714,29.7402335 C3.20598457,29.7402335 2,28.5174075 2,27.0130758 L2,5.0461533 C2,3.54245945 3.20598457,2.3189969 4.68819714,2.3189969 L7.49319074,2.31810511 C7.94404312,1.52999095 8.78489694,1 9.74776829,1 L17.3950889,1 Z M12.2857143,20.5652165 L12.2857143,23.1739121 L7.136579,23.1739121 L7.136579,20.5652165 L12.2857143,20.5652165 Z M20,15.3478255 L20,17.956521 L7.14285714,17.956521 L7.14285714,15.3478255 L20,15.3478255 Z M17.4285714,10.1304344 L17.4285714,12.7391299 L7.14285714,12.7391299 L7.14285714,10.1304344 L17.4285714,10.1304344 Z"/>
</svg>
