<?xml version="1.0" encoding="utf-8"?>
<!-- Generator: Adobe Illustrator 24.0.1, SVG Export Plug-In . SVG Version: 6.00 Build 0)  -->
<svg version="1.1" id="Layer_1" xmlns="http://www.w3.org/2000/svg" xmlns:xlink="http://www.w3.org/1999/xlink" x="0px" y="0px"
	 viewBox="0 0 24 24" style="enable-background:new 0 0 24 24;" xml:space="preserve">
<style type="text/css">
	.st0{display:none;fill:#FFFFFF;}
	.st1{fill:#010101;}
</style>
<rect y="10.979167" transform="matrix(6.123234e-17 -1 1 6.123234e-17 0 24)" class="st0" width="24" height="2.041667"/>
<rect y="10.979167" class="st0" width="24" height="2.041667"/>
<g>
	<path class="st1" d="M14,23.03418H5.09082C3.937988,23.03418,3,22.09668,3,20.943359V4.102051
		c0-1.152832,0.937988-2.09082,2.09082-2.09082H8v2H5.09082C5.043457,4.01123,5,4.054688,5,4.102051v16.841309
		c0,0.047852,0.043457,0.09082,0.09082,0.09082H14V23.03418z"/>
</g>
<g>
	<path class="st1" d="M21,14h-2V4.09082C19,4.043457,18.957031,4,18.90918,4l-2.541016,0.01123l-0.009766-2L18.904297,2
		C20.0625,2,21,2.937988,21,4.09082V14z"/>
</g>
<g>
	<g>
		<rect x="7" y="12" class="st1" width="10" height="2"/>
	</g>
	<g>
		<rect x="6.995117" y="16" class="st1" width="4.004883" height="2"/>
	</g>
	<g>
		<rect x="7" y="8" class="st1" width="8" height="2"/>
	</g>
</g>
<g>
	<path class="st1" d="M16.411766,5.48863H7.588235C7.235294,5.48863,7,5.270449,7,4.943176V3.026042C7,1.90709,7.90709,1,9.026042,1
		H11.25h2.5h1.223958C16.092911,1,17,1.90709,17,3.026042v1.917135C17,5.270449,16.764706,5.48863,16.411766,5.48863z"/>
</g>
<g>
	<g>
		<polygon class="st1" points="24,19.875 20.039213,15.5 16.039213,19.875 		"/>
	</g>
	<g>
		<rect x="19.039063" y="16.632813" class="st1" width="2" height="7.367188"/>
	</g>
</g>
</svg>
