<svg xmlns="http://www.w3.org/2000/svg" width="30" height="30" viewBox="0 0 30 30">
  <path fill="#000000" fill-rule="evenodd" d="M26.0839695,9.4 C26.6335878,9.96 27,10.8 27,11.64 L27,25.92 C27,27.6 25.6259542,29 23.9770992,29 L18.1145038,29 L18.1145038,25.92 L23.9770992,25.92 L23.9770992,11.92 L19.2137405,11.92 L17.8396947,11.92 C16.9236641,11.92 16.2824427,11.1733333 16.2824427,10.3333333 L16.2824427,4.08 L6.02290076,4.08 L6.02290076,11.8266667 L3,11.8266667 L3,4.08 C3,2.4 4.3740458,1 6.02290076,1 L16.5572519,1 C17.3816794,1 18.2061069,1.37333333 18.7557252,1.93333333 L26.0839695,9.4 Z M14.8229008,18.5466667 C15.1160305,18.8453333 15.3114504,19.2933333 15.3114504,19.7413333 L15.3114504,27.3573333 C15.3114504,28.2533333 14.578626,29 13.6992366,29 L6.18235715,29 C5.62512812,29 5.0951251,28.759022 4.72881667,28.3391144 L3,26.3573333 L12.6992366,26.3573333 L12.6992366,19.8906667 L11.0748092,19.8906667 L10.3419847,19.8906667 C9.85343511,19.8906667 8.59541985,18.5591111 8.59541985,18.1111111 L8.59541985,16.7093333 L5.61221374,16.7093333 L5.61221374,29 C5.55795924,29.0036185 5.50359928,29.0054293 5.44922425,29.0054293 C4.09655505,29.0054293 3,27.9088742 3,26.556205 L3,15.7093333 C3,14.8133333 3.73282443,14.0666667 4.61221374,14.0666667 L9.74198473,14.0666667 C10.1816794,14.0666667 10.621374,14.2657778 10.9145038,14.5644444 L14.8229008,18.5466667 Z"/>
</svg>
