<?xml version="1.0" encoding="utf-8"?>
<!-- Generator: Adobe Illustrator 24.0.1, SVG Export Plug-In . SVG Version: 6.00 Build 0)  -->
<svg version="1.1" id="Layer_1" xmlns="http://www.w3.org/2000/svg" xmlns:xlink="http://www.w3.org/1999/xlink" x="0px" y="0px"
	 viewBox="0 0 32 32" style="enable-background:new 0 0 32 32;" xml:space="preserve">
<g>
	<rect x="6.863281" y="7" width="10.011719" height="2"/>
</g>
<g>
	<rect x="6.875" y="11" width="14" height="2"/>
</g>
<g>
	<rect x="6.875" y="15" width="6" height="2"/>
</g>
<g>
	<path class="st1" d="M26.984356,8.806986"/>
</g>
<g>
	<path class="st1" d="M2.875,8.806986"/>
</g>
<g>
	<path d="M1.875,28.345703V4.570313C1.875,3.152832,3.027832,2,4.445313,2h9.421875v2H4.445313
		C4.130859,4,3.875,4.255859,3.875,4.570313V24.34375l2.204102-1.65332l2.979492,2.855469l3.359863-2.692383l4.131836,3.78418
		l-1.350586,1.474609l-2.868164-2.625977l-3.390137,2.717773L5.920898,25.30957L1.875,28.345703z"/>
</g>
<g>
	<rect x="13.867188" y="2" width="13.882813" height="2"/>
</g>
<g>
	<path class="st1" d="M26.98436,8.822307"/>
</g>
<g>
	<path class="st2" d="M2.875024,8.822307"/>
</g>
<g>
	<g>
		<path d="M24.119141,26.75293H21.75v-2h2.369141c0.063477,0,0.117188-0.063477,0.117188-0.139648v-0.132813
			c0-0.066406-0.040039-0.123047-0.09375-0.135742l-0.974609-0.231445c-0.962891-0.227539-1.634766-1.083984-1.634766-2.083008
			v-0.131836c0-1.179688,0.950195-2.139648,2.117188-2.139648H26v2h-2.349609c-0.064453,0-0.117188,0.0625-0.117188,0.139648
			v0.131836c0,0.066406,0.040039,0.124023,0.095703,0.137695l0.972656,0.230469
			c0.961914,0.225586,1.634766,1.082031,1.634766,2.082031v0.132813C26.236328,25.792969,25.286133,26.75293,24.119141,26.75293z"/>
	</g>
	<g>
		<rect x="22.984375" y="18.916016" width="2" height="1.94043"/>
	</g>
	<g>
		<rect x="22.984375" y="25.674805" width="2" height="1.87793"/>
	</g>
</g>
<g>
	<g>
		<path d="M24,31c-4.411133,0-8-3.588867-8-8s3.588867-8,8-8s8,3.588867,8,8S28.411133,31,24,31z M24,17c-3.308594,0-6,2.691406-6,6
			s2.691406,6,6,6s6-2.691406,6-6S27.308594,17,24,17z"/>
	</g>
</g>
<g>
	<path d="M31.125,12H24V5.563965C24,3.598633,25.598633,2,27.563477,2C29.527344,2,31.125,3.597656,31.125,5.561035V12z M26,10
		h3.125V5.561035C29.125,4.700195,28.424805,4,27.563477,4C26.701172,4,26,4.70166,26,5.563965V10z"/>
</g>
<g>
	<rect x="24" y="8.75" width="2" height="6.625"/>
</g>
</svg>
