<?xml version="1.0" encoding="UTF-8"?>
<svg width="77px" height="71px" viewBox="0 0 77 71" version="1.1" xmlns="http://www.w3.org/2000/svg" xmlns:xlink="http://www.w3.org/1999/xlink">
    <!-- Generator: Sketch 48.2 (47327) - http://www.bohemiancoding.com/sketch -->
    <title>cost</title>
    <desc>Created with Sketch.</desc>
    <defs></defs>
    <g id="Page-1" stroke="none" stroke-width="1" fill="none" fill-rule="evenodd">
        <g id="standard-cost" fill="#000000" fill-rule="nonzero">
            <path d="M14.8476252,68.9117647 C11.8943285,68.9117647 9.49315068,66.6371616 9.49315068,63.8431596 L9.52743596,14.4634265 C9.52743596,11.6705432 11.9286138,9.39705882 14.8795449,9.39705882 L62.1559219,9.39705882 C65.1068531,9.39705882 67.5068493,11.6705432 67.5068493,14.4645452 L67.5068493,29.9390181 L62.6642956,29.9390181 L62.6642956,14.4645452 C62.6642956,14.1981298 62.4373009,13.9820878 62.1559219,13.9820878 L14.8795449,13.9820878 C14.5981659,13.9820878 14.3699896,14.1981298 14.3699896,14.4645452 L14.3357044,63.8453971 C14.3357044,64.1095727 14.5638806,64.3267357 14.8452597,64.3267357 L28.8562711,64.3065868 L28.8704573,68.8916158 L14.8476252,68.9117647 Z" id="Shape"></path>
            <g id="Group" transform="translate(0.000000, 14.617647)">
                <rect id="Rectangle-path" x="0" y="40.4073529" width="6.32876712" height="3.62308827"></rect>
                <rect id="Rectangle-path" x="0" y="30.3055147" width="6.32876712" height="3.62308827"></rect>
                <rect id="Rectangle-path" x="0" y="20.2036828" width="6.32876712" height="3.62308827"></rect>
                <rect id="Rectangle-path" x="0" y="10.1018418" width="6.32876712" height="3.62308827"></rect>
                <rect id="Rectangle-path" x="0" y="0" width="6.32876712" height="3.62308827"></rect>
            </g>
            <g id="Group" transform="translate(25.315068, 27.147059)">
                <g transform="translate(12.808219, 7.954720)">
                    <path d="M8.40833661,21.8557595 L1.49487941,21.8557595 L1.49487941,17.3684818 L8.40833661,17.3684818 C9.19128959,17.3684818 9.7824547,16.8097641 9.7824547,16.069186 C9.7824547,15.2124839 9.2273935,14.8224767 8.70843158,14.7041606 L5.4976467,13.9635848 C2.77197489,13.3391352 0.867617315,10.9749883 0.867617315,8.21645227 C0.867617315,5.0043669 3.44436802,2.63803018 6.86273997,2.63803018 L13.223391,2.63803018 L13.223391,7.12530788 L6.86273997,7.12530788 C6.4498278,7.12530788 5.48862188,7.22390459 5.48862188,8.14195673 C5.48862188,8.8737689 5.93989301,9.45439796 6.562645,9.59681742 L9.77342988,10.3373932 C12.5419708,10.9727985 14.4034593,13.227393 14.4034593,15.9464904 C14.4034593,19.3141362 11.7702977,21.8557595 8.40833661,21.8557595 Z" id="Shape"></path>
                    <rect id="Rectangle-path" x="5.87219992" y="0" width="4.62100457" height="4.46755836"></rect>
                    <rect id="Rectangle-path" x="5.87219992" y="19.8969573" width="4.62100457" height="4.51137887"></rect>
                </g>
                <path d="M20.9142058,40.6123728 C9.44517974,40.6123728 0.115172813,31.5523662 0.115172813,20.4152413 C0.115172813,9.27921137 9.44517974,0.21920474 20.9142058,0.21920474 C32.3832318,0.21920474 41.7132387,9.27921137 41.7132387,20.4152413 C41.7132387,31.5523662 32.3832318,40.6123728 20.9142058,40.6123728 Z M20.9142058,4.70648244 C11.9937261,4.70648244 4.73617738,11.7540056 4.73617738,20.4152413 C4.73617738,29.0786668 11.9937261,36.1250951 20.9142058,36.1250951 C29.8358129,36.1250951 37.0922342,29.0786668 37.0922342,20.4152413 C37.0922342,11.7540056 29.8358129,4.70648244 20.9142058,4.70648244 Z" id="Shape"></path>
                <rect id="Rectangle-path" transform="translate(39.644202, 37.313745) rotate(-45.724535) translate(-39.644202, -37.313745) " x="37.3337668" y="30.7588676" width="4.62086991" height="13.1097548"></rect>
            </g>
            <rect id="Rectangle-path" x="70.6712329" y="34.8213299" width="6.32876712" height="3.62308827"></rect>
            <rect id="Rectangle-path" x="70.6712329" y="24.7246982" width="6.32876712" height="3.62308827"></rect>
            <rect id="Rectangle-path" x="70.6712329" y="14.6176471" width="6.32876712" height="3.62308827"></rect>
            <g id="Group" transform="translate(14.767123, 0.000000)">
                <rect id="Rectangle-path" x="42.1231795" y="0" width="3.66402307" height="6.26470588"></rect>
                <rect id="Rectangle-path" x="31.5923846" y="0" width="3.66402307" height="6.26470588"></rect>
                <rect id="Rectangle-path" x="21.0615898" y="0" width="3.66402307" height="6.26470588"></rect>
                <rect id="Rectangle-path" x="10.5307949" y="0" width="3.66402307" height="6.26470588"></rect>
                <rect id="Rectangle-path" x="0" y="0" width="3.66402307" height="6.26470588"></rect>
            </g>
        </g>
    </g>
</svg>