<?xml version="1.0" encoding="UTF-8"?>
<svg width="58px" height="68px" viewBox="0 0 58 68" version="1.1" xmlns="http://www.w3.org/2000/svg" xmlns:xlink="http://www.w3.org/1999/xlink">
    <!-- Generator: Sketch 48.2 (47327) - http://www.bohemiancoding.com/sketch -->
    <title>customer-list copy</title>
    <desc>Created with Sketch.</desc>
    <defs></defs>
    <g id="Page-1" stroke="none" stroke-width="1" fill="none" fill-rule="evenodd">
        <g id="customer-list-copy" transform="translate(29.000000, 34.000000) scale(-1, 1) rotate(-180.000000) translate(-29.000000, -34.000000) " fill="#000000" fill-rule="nonzero">
            <path d="M31.2308496,65.7333707 L42.3979186,65.7333707 C44.8546132,65.7333707 46.846183,63.6972081 46.846183,61.2047679 L46.846183,58.9333412 L51.3182879,58.9333412 C55.0085522,58.9333412 58,55.8888922 58,52.1298054 L58,6.80353576 C58,3.04600288 55.003852,0 51.3182879,0 L6.68158158,0 C2.99143473,0 0,3.04444898 0,6.80353576 L0,52.1298054 C0,55.8872055 2.99614799,58.9333412 6.68158158,58.9333412 L11.153817,58.9333412 L11.153817,61.2047679 C11.153817,63.7057745 13.1493428,65.7333707 15.6020814,65.7333707 L26.7691504,65.7333707 L26.7691504,65.7357053 C26.7691504,66.986271 27.7593251,68 28.9999086,68 C30.2319534,68 31.2307974,66.9819864 31.2307974,65.7357053 L31.2307974,65.7333707 L31.2308496,65.7333707 Z M11.7498035,54.3999439 L8.92513477,54.3999439 C6.46155959,54.3999439 4.46156859,52.3694922 4.46156859,49.8646075 L4.46156859,9.06870706 C4.46156859,6.56549581 6.46001896,4.53337071 8.92513477,4.53337071 L49.0749697,4.53337071 C51.5385449,4.53337071 53.5385359,6.56382238 53.5385359,9.06870706 L53.5385359,49.8646075 C53.5385359,52.3678188 51.5400855,54.3999439 49.0749697,54.3999439 L46.2515805,54.3999439 C45.4819827,53.0450964 44.0427435,52.1333117 42.3979839,52.1333117 L15.602225,52.1333117 C13.9563164,52.1333117 12.5192407,53.0471763 11.7498949,54.3999439 L11.7498035,54.3999439 Z M15.6154509,58.9332349 C15.6154509,57.672683 16.6167194,56.6666027 17.8518232,56.6666027 L40.1483073,56.6666027 C41.3840496,56.6666027 42.3846797,57.681373 42.3846797,58.9332349 C42.3846797,60.1937868 41.3834112,61.1998671 40.1483073,61.1998671 L17.8518232,61.1998671 C16.615953,61.1998671 15.6154509,60.1850969 15.6154509,58.9332349 Z" id="Shape"></path>
        </g>
        <g id="Group-Copy-5" transform="translate(14.000000, 24.000000)">
            <g id="Group-2" transform="translate(0.000000, 20.824994)">
                <path d="M20.2259145,0 C17.7095256,0.277459988 17.5807801,0.932638616 14.9812919,0.932638616 C12.3818037,0.932638616 12.2530582,0.282123181 9.73666933,0 C4.36681251,0 0,3.84713429 0,8.57910947 C0,11.5414029 2.22378552,13.0569406 4.49555799,13.0569406 L25.4670258,13.0569406 C27.7387983,13.0569406 29.9625838,11.5414029 29.9625838,8.57910947 C29.9625838,3.84713429 25.5957713,0 20.2259145,0 Z" id="Path-Copy" fill="#000000"></path>
                <path d="M25.3537657,9.67180787 L4.60881813,9.67180787 C3.81921805,9.67180787 3.86668667,9.28614453 3.86668667,8.89685426 C3.86668667,6.12467233 6.52956084,3.86872315 9.79331836,3.86872315 C10.3328398,3.86872315 11.927091,4.83590393 14.9812919,4.83590393 C18.0354928,4.83590393 19.629744,3.86872315 20.1692655,3.86872315 C23.433023,3.86872315 26.0958972,6.12467233 26.0958972,8.89685426 C26.0958972,9.28614453 26.1433658,9.67180787 25.3537657,9.67180787 Z" id="Path-Copy-2" fill="#FFFFFF"></path>
            </g>
            <g id="Group" transform="translate(5.762035, 0.000000)">
                <path d="M9.38388614,18.8416612 C14.5664634,18.8416612 18.7677723,14.6238116 18.7677723,9.42083058 C18.7677723,4.21784952 14.5664634,0 9.38388614,0 C4.20130893,0 0,4.21784952 0,9.42083058 C0.00581787399,14.6213904 4.20372069,18.8358204 9.38388614,18.8416612 Z" id="Path-Copy-3" fill="#000000"></path>
                <path d="M9.38388614,3.86495613 C12.4402778,3.86495613 14.9179728,6.35240585 14.9179728,9.42083058 C14.9179728,12.4892553 12.4402778,14.976705 9.38388614,14.976705 C6.32749445,14.976705 3.84979944,12.4892553 3.84979944,9.42083058 C3.85297685,6.35372813 6.32881155,3.86814605 9.38388614,3.86495613 Z" id="Path-Copy-4" fill="#FFFFFF"></path>
            </g>
        </g>
    </g>
</svg>