<svg xmlns="http://www.w3.org/2000/svg" width="30" height="30" viewBox="0 0 30 30">
  <path fill="#000000" d="M16.3687965,0.208077315 C16.545726,0.365816446 16.6470588,0.592084262 16.6470588,0.830111383 L16.647,3.407 L25.2346053,3.3928578 L29,7.34767766 L28.9847194,25.0010235 C28.9847194,25.9255583 28.2383959,26.6781622 27.3207725,26.6781622 L14.1776771,26.6951932 L14.176,26.034 L14.1764706,29.1695405 C14.1764706,29.4104062 14.0727248,29.6391072 13.8925778,29.7972508 C13.7417854,29.9286328 13.5499772,30 13.3529412,30 C13.3143382,30 13.2753334,29.9975668 13.2363278,29.9918897 L2.96553247,28.5126338 C1.84484153,28.3496238 1,27.3675083 1,26.2264379 L1,3.87418296 C1,2.70999922 1.86414259,1.72504523 3.00976588,1.58271527 L15.7230012,0.00573420583 C15.9562272,-0.0218395397 16.1918661,0.0507442782 16.3687965,0.208077315 Z M15,1.76883868 L3.21082235,3.23146963 C2.88953388,3.27120794 2.64705882,3.54775759 2.64705882,3.87418296 L2.64705882,26.226437 C2.64705882,26.5467801 2.88430612,26.8225184 3.19916118,26.8679346 L12.5294118,28.211755 L12.5294118,10.8714534 C12.5294118,10.5936871 12.6669346,10.3345746 12.8961401,10.1804853 L15,8.76610824 L15,1.76883868 Z M16.647,4.514 L16.6470588,8.76610824 C16.6470588,9.32285656 16.3728169,9.83946048 15.9136029,10.1480451 L14.1764706,11.3158787 L14.176,25.034 L27.3199679,25.0172432 L27.3492641,9.2848578 L25.0319388,9.28555149 C24.0411308,9.28555149 23.2352941,8.47293362 23.2352941,7.47378708 L23.2352641,5.0568578 L16.6486672,5.0687798 L16.647,4.514 Z M25.7074907,11.7298918 L25.7074907,23.3563243 L15.8235294,23.3563243 L15.8235294,21.6954054 L19.9405294,21.6948918 L19.9405294,20.0338918 L15.8235294,20.0344865 L15.8235294,18.3735675 L19.9405294,18.3728918 L19.9405294,16.7118918 L15.8235294,16.7126486 L15.8235294,15.0517297 L19.9405294,15.0508918 L19.9405294,13.3898918 L15.8235294,13.3908108 L15.8235294,11.7298918 L25.7074907,11.7298918 Z M24.0595294,20.0338918 L21.5875294,20.0338918 L21.5875294,21.6948918 L24.0604319,21.6954054 L24.0595294,20.0338918 Z M24.0595294,16.7118918 L21.5875294,16.7118918 L21.5875294,18.3728918 L24.0595294,18.3728918 L24.0595294,16.7118918 Z M21.5875294,13.3898918 L21.5875294,15.0508918 L24.0595294,15.0508918 L24.0604319,13.3908108 L21.5875294,13.3898918 Z M24.8822641,5.4208578 L24.8823529,7.47378708 C24.8823529,7.55691441 24.9491041,7.62463257 25.0319396,7.62463257 L26.9802641,7.6238578 L24.8822641,5.4208578 Z"/>
</svg>
