<?xml version="1.0" encoding="utf-8"?>
<!-- Generator: Adobe Illustrator 24.0.1, SVG Export Plug-In . SVG Version: 6.00 Build 0)  -->
<svg version="1.1" id="Layer_1" xmlns="http://www.w3.org/2000/svg" xmlns:xlink="http://www.w3.org/1999/xlink" x="0px" y="0px"
	 viewBox="0 0 38 38" style="enable-background:new 0 0 38 38;" xml:space="preserve">
<style type="text/css">
	.st0{display:none;fill:#FFFFFF;}
	.st1{display:none;opacity:0;fill:#FFFFFF;}
</style>
<rect x="0" class="st0" width="0.5" height="38"/>
<rect x="18.75" y="18.75" transform="matrix(6.123234e-17 -1 1 6.123234e-17 -18.75 56.75)" class="st1" width="0.5" height="38"/>
<g>
	<path d="M17,37c-0.046875,0-0.094238-0.00293-0.141602-0.009766l-12.47168-1.78125C3.025879,35.012695,2,33.830078,2,32.456055
		V5.540527C2,4.138672,3.049316,2.952637,4.44043,2.78125l15.4375-1.898926c0.283203-0.033203,0.569336,0.054199,0.78418,0.243652
		C20.876953,1.315918,21,1.588379,21,1.875v9.556152c0,0.67041-0.333008,1.29248-0.890625,1.664063L18,14.501465V36
		c0,0.290039-0.125977,0.56543-0.344727,0.755859C17.472168,36.914063,17.239258,37,17,37z M19,3.005371L4.68457,4.766602
		C4.294434,4.814453,4,5.147461,4,5.540527v26.915527c0,0.385742,0.288086,0.717773,0.67041,0.772461L16,34.84668V13.966309
		c0-0.334473,0.166992-0.646484,0.445313-0.832031L19,11.431152V3.005371z"/>
</g>
<g>
	<path d="M18.001465,33.020508l-0.00293-2L33.959961,31l0.039063-20.473633l-3.422852-3.563965l-9.574219,0.016602l-0.003906-2
		l10.429688-0.018066L36,9.723145l-0.018555,21.257324C35.981445,32.09375,35.075195,33,33.960938,33L18.001465,33.020508z"/>
</g>
<g>
	<g>
		<polygon points="32.001953,29 20,29 20,27 30.001953,27 30.001953,17 20,17 20,15 32.001953,15 		"/>
	</g>
	<g>
		<rect x="20" y="19" width="11.001953" height="2"/>
	</g>
	<g>
		<rect x="20" y="23" width="11.001953" height="2"/>
	</g>
	<g>
		<rect x="25" y="16" width="2" height="11.5"/>
	</g>
</g>
<g>
	<path d="M34.001953,12.056641h-2.820313C29.978516,12.056641,29,11.078125,29,9.875v-3.75h2v3.75
		c0,0.100098,0.081055,0.181641,0.181641,0.181641h2.820313V12.056641z"/>
</g>
</svg>
