<?xml version="1.0" encoding="utf-8"?>
<!-- Generator: Adobe Illustrator 24.0.1, SVG Export Plug-In . SVG Version: 6.00 Build 0)  -->
<svg version="1.1" id="Layer_1" xmlns="http://www.w3.org/2000/svg" xmlns:xlink="http://www.w3.org/1999/xlink" x="0px" y="0px"
	 viewBox="0 0 38 38" style="enable-background:new 0 0 38 38;" xml:space="preserve">
<style type="text/css">
	.st0{display:none;fill:#FFFFFF;}
	.st1{display:none;opacity:0;fill:#FFFFFF;}
</style>
<rect x="0" class="st0" width="0.5" height="38"/>
<rect x="18.75" y="18.75" transform="matrix(6.123234e-17 -1 1 6.123234e-17 -18.75 56.75)" class="st1" width="0.5" height="38"/>
<g>
	<path d="M31.663086,36H14.659668L8,28.52832V4.3125C8,3.037598,9.037598,2,10.3125,2h21.375C32.962891,2,34,3.037598,34,4.3125
		V8.125h-2V4.3125C32,4.140137,31.859375,4,31.6875,4h-21.375C10.140137,4,10,4.140137,10,4.3125v23.454102L15.556152,34h16.106934
		c0.171875,0,0.3125-0.140625,0.3125-0.3125L32,28.870117l2,0.009766l-0.024414,4.8125
		C33.975586,34.962891,32.938477,36,31.663086,36z"/>
</g>
<g>
	<path d="M16.98291,34.271484h-2V29.875c0-0.500977-0.407227-0.908203-0.908203-0.908203H9.149902v-2h4.924805
		c1.603516,0,2.908203,1.304688,2.908203,2.908203V34.271484z"/>
</g>
<g>
	<path d="M30.467773,29.05957h-5.15918l-0.375977-2.780273c-0.5-0.21875-0.97168-0.490234-1.40918-0.813477l-2.594727,1.064453
		l-2.57959-4.466797l2.192871-1.696289c-0.032227-0.279297-0.048828-0.557617-0.048828-0.833008
		c0-0.274902,0.016602-0.553711,0.047852-0.833496l-2.192871-1.697266l2.57959-4.46582l2.594727,1.0625
		c0.4375-0.322754,0.90918-0.594727,1.40918-0.813477l0.375977-2.777832h5.158203l0.375977,2.779297
		c0.500977,0.219238,0.97168,0.491211,1.410156,0.813965l2.594727-1.063965l2.579102,4.466797l-2.192383,1.694824
		c0.032227,0.279297,0.048828,0.558105,0.048828,0.834473c0,0.275391-0.016602,0.553711-0.048828,0.833008l2.194336,1.696289
		l-2.579102,4.466797l-2.594727-1.064453c-0.438477,0.323242-0.910156,0.594727-1.410156,0.813477L30.467773,29.05957z
		 M27.056641,27.05957h1.663086l0.303711-2.246094l0.586914-0.199219c0.674805-0.229492,1.286133-0.582031,1.817383-1.047852
		l0.46582-0.40918l2.097656,0.859375l0.831055-1.439453l-1.770508-1.369141l0.12207-0.608398
		c0.072266-0.357422,0.108398-0.71582,0.108398-1.06543c0-0.350586-0.037109-0.708496-0.108398-1.063965l-0.124023-0.609863
		l1.770508-1.369141l-0.831055-1.439453l-2.097656,0.859375l-0.46582-0.408691
		c-0.530273-0.466309-1.142578-0.819824-1.818359-1.050293l-0.585938-0.199219l-0.303711-2.244141h-1.662109l-0.303711,2.243164
		l-0.585938,0.199219c-0.674805,0.229492-1.286133,0.58252-1.817383,1.049316l-0.46582,0.408691l-2.097656-0.858887
		l-0.831055,1.44043l1.767578,1.368164l-0.121094,0.606934c-0.071289,0.360352-0.107422,0.719727-0.107422,1.068359
		c0,0.349609,0.036133,0.708008,0.108398,1.06543l0.12207,0.608398l-1.768555,1.369141l0.831055,1.439453l2.097656-0.859375
		l0.46582,0.40918c0.530273,0.46582,1.141602,0.818359,1.817383,1.048828l0.585938,0.199219L27.056641,27.05957z
		 M27.887695,22.921875c-1.868164,0-3.387695-1.519531-3.387695-3.387695s1.519531-3.387695,3.387695-3.387695
		s3.387695,1.519531,3.387695,3.387695S29.755859,22.921875,27.887695,22.921875z M27.887695,18.146484
		c-0.765625,0-1.387695,0.622559-1.387695,1.387695c0,0.765625,0.62207,1.387695,1.387695,1.387695
		s1.387695-0.62207,1.387695-1.387695C29.275391,18.769043,28.65332,18.146484,27.887695,18.146484z"/>
</g>
<g>
	<path d="M10,36H4.25C3.560547,36,3,35.439453,3,34.75V2h2v32h5V36z"/>
</g>
</svg>
