<svg xmlns="http://www.w3.org/2000/svg" width="30" height="30" viewBox="0 0 30 30">
  <path fill="#000000" d="M25.0164474,1.57894737 C26.023335,1.57894737 26.8421053,2.39810368 26.8421053,3.40460526 L26.8421053,6.41447368 L25.2631579,6.41447368 L25.2631579,3.40460526 C25.2631579,3.26852921 25.1521382,3.15789474 25.0164474,3.15789474 L8.14144737,3.15789474 C8.00537132,3.15789474 7.89473684,3.26852921 7.89473684,3.40460526 L7.89442105,21.2889474 L11.1116108,21.2895766 C12.3775445,21.2895766 13.4075605,22.3195934 13.4075605,23.5855263 L13.4074211,26.8419474 L24.9971732,26.8421053 C25.1328639,26.8421053 25.2438837,26.7310855 25.2438837,26.5953947 L25.2631579,22.7921976 L26.8421053,22.7999076 L26.8228311,26.5992497 C26.8228311,27.6022824 26.0040608,28.4210526 24.9971732,28.4210526 L11.5734221,28.4210526 L6.31578947,22.5223579 L6.31578947,3.40460526 C6.31578947,2.39810368 7.13494579,1.57894737 8.14144737,1.57894737 L25.0164474,1.57894737 Z M3.94736842,1.57894737 L3.94736842,26.8421053 L7.89473684,26.8421053 L7.89473684,28.4210526 L3.35526316,28.4210526 C2.81095816,28.4210526 2.36842105,27.9785155 2.36842105,27.4342105 L2.36842105,1.57894737 L3.94736842,1.57894737 Z M11.1116108,22.8685239 L8.73842105,22.8679474 L11.8284211,26.3349474 L11.8286132,23.5855263 C11.8286132,23.1900182 11.5071182,22.8685239 11.1116108,22.8685239 Z M24.0519632,7.90167474 L24.3487871,10.0958566 C24.7442953,10.2689392 25.1159029,10.4836547 25.4620682,10.7384605 L27.5105368,9.89848816 L29.54667,13.4249068 L27.8158413,14.7629258 C27.8412837,14.9834234 27.8543897,15.203535 27.8543897,15.4217203 C27.8543897,15.6391342 27.8412829,15.8588605 27.8158413,16.0793582 L29.5482118,17.4185337 L27.5120787,20.9449524 L25.46361,20.1045947 C25.1174439,20.3597858 24.7450658,20.5741161 24.3503289,20.7468134 L24.053505,22.9417658 L19.9804682,22.9417658 L19.6836442,20.7468134 C19.2889074,20.5741161 18.9165284,20.3597866 18.5711337,20.1045947 L16.522665,20.9449524 L14.4861466,17.4185337 L16.2173605,16.0793582 C16.1919182,15.8588605 16.1788121,15.6391342 16.1788121,15.4217203 C16.1788121,15.2046924 16.1919189,14.98458 16.21659,14.7636971 L14.4853761,13.4237503 L16.5218945,9.89810289 L18.5703632,10.7369187 C18.9157579,10.4821129 19.2881368,10.2673974 19.6828737,10.0947 L19.9796976,7.90167474 L24.0519632,7.90167474 Z M22.6719268,9.48062132 L21.3597355,9.48062132 L21.1199637,11.2515403 L20.6573811,11.4088184 C20.1246403,11.5899963 19.6420129,11.8687026 19.222605,12.2372258 L18.8548524,12.5598766 L17.1988082,11.8818079 L16.5427121,13.0189895 L17.9381684,14.0991189 L17.8425679,14.5782774 C17.7862871,14.8627658 17.7577611,15.1464829 17.7577611,15.4217187 C17.7577611,15.6977258 17.7862871,15.9806724 17.8433384,16.2628476 L17.9397095,16.7431618 L16.5434818,17.8240626 L17.1995779,18.9604729 L18.8556221,18.2820189 L19.2233747,18.6050558 C19.6420113,18.9728084 20.1246395,19.2511287 20.6581508,19.4330779 L21.1207334,19.5903561 L21.3605061,21.3628184 L22.6734687,21.3628184 L22.9132405,19.5895863 L23.3765937,19.4323082 C23.9093345,19.2511303 24.3919618,18.97281 24.8113697,18.6050566 L25.1791224,18.2820197 L26.8351666,18.9604737 L27.4912626,17.8240634 L26.0934932,16.7431626 L26.1898642,16.2628484 C26.2469163,15.9806732 26.2754416,15.6977274 26.2754416,15.4217195 C26.2754416,15.1449411 26.246145,14.8623805 26.1898642,14.5817471 L26.0919513,14.1002763 L27.4897208,13.0193755 L26.8336247,11.8829653 L25.1775805,12.5614192 L24.8098279,12.2387684 C24.3911913,11.8706297 23.9077926,11.5915389 23.3742813,11.4095897 L22.9116987,11.2523116 L22.6719268,9.48062132 Z M22.0166013,12.747225 C23.4914676,12.747225 24.6910974,13.9468547 24.6910974,15.4217211 C24.6910974,16.8965874 23.4914676,18.0962171 22.0166013,18.0962171 C20.541735,18.0962171 19.3421053,16.8965874 19.3421053,15.4217211 C19.3421053,13.9468547 20.541735,12.747225 22.0166013,12.747225 Z M22.0166013,14.3261716 C21.4121605,14.3261716 20.9210526,14.8176655 20.9210526,15.4217203 C20.9210526,16.0261611 21.4121605,16.5172689 22.0166013,16.5172689 C22.6210421,16.5172689 23.11215,16.0261611 23.11215,15.4217203 C23.11215,14.8176655 22.6210421,14.3261716 22.0166013,14.3261716 Z"/>
</svg>
