<?xml version="1.0" encoding="UTF-8"?>
<svg width="20px" height="20px" viewBox="0 0 20 20" version="1.1" xmlns="http://www.w3.org/2000/svg" xmlns:xlink="http://www.w3.org/1999/xlink">
    <!-- Generator: Sketch 48.2 (47327) - http://www.bohemiancoding.com/sketch -->
    <title>edit-history</title>
    <desc>Created with Sketch.</desc>
    <defs></defs>
    <g id="Page-1" stroke="none" stroke-width="1" fill="none" fill-rule="evenodd">
        <g id="edit-history" fill="#000000" fill-rule="nonzero">
            <g id="Group">
                <path d="M10,0 C7.563843,0 5.210449,0.899231 3.394592,2.494568 L1.900024,1 L1.900024,5.5 L6.400024,5.5 L4.816223,3.916199 C6.255432,2.692261 8.094238,2 10,2 C14.411133,2 18,5.588867 18,10 C18,14.411133 14.411133,18 10,18 C5.588867,18 2,14.411133 2,10 L0,10 C0,15.513672 4.48584,20 10,20 C15.513672,20 20,15.513672 20,10 C20,4.48584 15.513672,0 10,0 Z" id="Shape"></path>
                <path d="M5.055969,14.249146 C5.018778,14.407042 5.160658,14.548922 5.318554,14.511731 L8.367956,13.793464 C8.418189,13.781632 8.435925,13.719253 8.399433,13.682761 L5.884927,11.168313 C5.848435,11.131822 5.786057,11.149559 5.774225,11.199791 L5.055969,14.249146 Z" id="Shape"></path>
                <path d="M14.532959,7.716431 C15.089003,7.160388 15.089003,6.258863 14.532959,5.70282 L13.864929,5.03479 C13.308869,4.47873 12.407317,4.47873 11.851257,5.03479 L6.536754,10.349294 C6.511028,10.375019 6.511028,10.416729 6.536753,10.442456 L9.125233,13.030994 C9.150959,13.05672 9.192669,13.056721 9.218396,13.030995 L14.532959,7.716431 Z" id="Shape"></path>
            </g>
        </g>
    </g>
</svg>