<?xml version="1.0" encoding="UTF-8" standalone="no"?>
<svg width="53px" height="67px" viewBox="0 0 53 67" version="1.1" xmlns="http://www.w3.org/2000/svg" xmlns:xlink="http://www.w3.org/1999/xlink" xmlns:sketch="http://www.bohemiancoding.com/sketch/ns">
    <!-- Generator: Sketch 3.4.2 (15855) - http://www.bohemiancoding.com/sketch -->
    <title>empty</title>
    <desc>Created with Sketch.</desc>
    <defs></defs>
    <g id="Icons" stroke="none" stroke-width="1" fill="none" fill-rule="evenodd" sketch:type="MSPage">
        <g id="empty" sketch:type="MSLayerGroup" fill="#383E49">
            <path d="M48.0613636,29.5536231 L48.0613636,61.5700483 L4.93863636,61.5700483 L4.93863636,4.79710145 L23.0068182,4.79710145 L23.0068182,29.5466665 L24.3318182,29.5466665 L24.3318182,29.5536231 L48.0613636,29.5536231 Z M46.5526411,25.0869565 L27.458818,5.76726189 L27.458818,25.0869565 L46.5526411,25.0869565 Z M28.4272727,0.333333333 L0.481818182,0.333333333 L0.481818182,66.0338164 L52.5181818,66.0338164 L52.5181818,24.6811594 L28.4272727,0.333333333 Z" id="Path" sketch:type="MSShapeGroup"></path>
            <path d="M14.2239879,50.6135266 L9.7314098,50.6135266 L9.7314098,42.9989432 L14.2239879,42.9989432 L14.2239879,44.6499849 L11.7758434,44.6499849 L11.7758434,45.8479016 L14.0428356,45.8479016 L14.0428356,47.4989432 L11.7758434,47.4989432 L11.7758434,48.9364432 L14.2239879,48.9364432 L14.2239879,50.6135266 Z M18.6472106,50.6135266 L17.099652,45.1291516 L17.0530699,45.1291516 C17.1255312,46.063184 17.1617614,46.7888712 17.1617614,47.3062349 L17.1617614,50.6135266 L15.3502379,50.6135266 L15.3502379,42.9989432 L18.0726989,42.9989432 L19.6513121,48.4051932 L19.6927184,48.4051932 L21.240277,42.9989432 L23.9679137,42.9989432 L23.9679137,50.6135266 L22.0891051,50.6135266 L22.0891051,47.2749849 C22.0891051,47.1013729 22.091693,46.9086665 22.0968688,46.6968599 C22.1020446,46.4850533 22.1253354,45.9659613 22.1667418,45.1395682 L22.1201598,45.1395682 L20.5933043,50.6135266 L18.6472106,50.6135266 Z M30.8910387,45.4208182 C30.8910387,46.2715169 30.6417411,46.9286284 30.1431383,47.3921724 C29.6445355,47.8557164 28.9363232,48.0874849 28.0184801,48.0874849 L27.4439684,48.0874849 L27.4439684,50.6135266 L25.3995348,50.6135266 L25.3995348,42.9989432 L28.0184801,42.9989432 C28.9742791,42.9989432 29.6919803,43.2090106 30.1716051,43.6291516 C30.6512299,44.0492926 30.8910387,44.6465088 30.8910387,45.4208182 L30.8910387,45.4208182 Z M27.4439684,46.4104016 L27.8166246,46.4104016 C28.1237225,46.4104016 28.3678444,46.3235969 28.5489977,46.1499849 C28.7301509,45.9763729 28.8207262,45.736792 28.8207262,45.4312349 C28.8207262,44.9173434 28.5377863,44.6604016 27.9718981,44.6604016 L27.4439684,44.6604016 L27.4439684,46.4104016 Z M35.2366246,50.6135266 L33.192191,50.6135266 L33.192191,44.6812349 L31.3444371,44.6812349 L31.3444371,42.9989432 L37.0792027,42.9989432 L37.0792027,44.6812349 L35.2366246,44.6812349 L35.2366246,50.6135266 Z M40.6639488,45.8218599 L41.9682457,42.9989432 L44.1834801,42.9989432 L41.6939293,47.6395682 L41.6939293,50.6135266 L39.6339684,50.6135266 L39.6339684,47.7020682 L37.1444176,42.9989432 L39.3700035,42.9989432 L40.6639488,45.8218599 Z" id="EMPTY" sketch:type="MSShapeGroup"></path>
        </g>
    </g>
</svg>