<?xml version="1.0" encoding="utf-8"?>
<!-- Generator: Adobe Illustrator 22.0.1, SVG Export Plug-In . SVG Version: 6.00 Build 0)  -->
<svg version="1.1" id="Layer_1" xmlns="http://www.w3.org/2000/svg" xmlns:xlink="http://www.w3.org/1999/xlink" x="0px" y="0px"
	 width="34px" height="34px" viewBox="0 0 34 34" style="enable-background:new 0 0 34 34;" xml:space="preserve">
<g>
	<path d="M28.7,23.6v5.1H5.3v-20h23.3v2.6H32v-6C32,3.5,30.5,2,28.7,2H5.3C3.5,2,2,3.5,2,5.3v23.3C2,30.5,3.5,32,5.3,32H12h16.7
		c1.8,0,3.3-1.5,3.3-3.3v-5.1H28.7z"/>
	<polygon points="28.7,14.4 28.7,20.4 32,17.4 	"/>
</g>
<path d="M32,17.4l-7.7-7v3.9c-6.9,0-12.3,5.1-12.3,13.1c1.4-3.8,5-7,10.8-7h1.5v3.9L32,17.4z"/>
</svg>
