<?xml version="1.0" encoding="utf-8"?>
<!-- Generator: Adobe Illustrator 24.0.1, SVG Export Plug-In . SVG Version: 6.00 Build 0)  -->
<svg version="1.1" id="Layer_1" xmlns="http://www.w3.org/2000/svg" xmlns:xlink="http://www.w3.org/1999/xlink" x="0px" y="0px"
	 viewBox="0 0 24 24" style="enable-background:new 0 0 24 24;" xml:space="preserve">
<style type="text/css">
	.st0{display:none;opacity:0;}
	.st1{display:inline;fill:#FFFFFF;}
</style>
<g class="st0">
	<rect class="st1" width="0.958333" height="24"/>
	
		<rect x="11.520833" y="11.520833" transform="matrix(-1.836970e-16 1 -1 -1.836970e-16 35.520832 11.520833)" class="st1" width="0.958333" height="24"/>
</g>
<g>
	<path d="M14,22H6c-1.103027,0-2-0.897461-2-2V4c0-1.103027,0.896973-2,2-2h10.414063L21,6.585938V12h-2V7.414063L15.585938,4H6v16
		h8V22z"/>
</g>
<g>
	<path d="M15,3v5h5L15,3z"/>
</g>
<g>
	<g>
		<polygon points="23.960787,19 20,14.625 16,19 		"/>
	</g>
	<g>
		<rect x="19" y="15.757813" width="2" height="7.367188"/>
	</g>
</g>
<g>
	<polygon points="13.5,18 8,18 8,10 17,10 17,15 15,15 15,12 10,12 10,16 13.5,16 	"/>
</g>
<g>
	<rect x="11.5" y="10.5" width="2" height="7"/>
</g>
<g>
	<rect x="8.875" y="13" width="7.125" height="2"/>
</g>
</svg>
