<svg xmlns="http://www.w3.org/2000/svg" width="30" height="30" viewBox="0 0 30 30">
  <path fill="#000000" d="M23.4440048,18.9289932 L29,25.1420107 L24.8460036,25.1419932 L24.8467551,31 L22.0412545,31 L22.0410036,25.1419932 L17.8330036,25.1420107 L23.4440048,18.9289932 Z M18.4138306,1 L24.8467551,7.51257437 L24.8467551,15.2011828 L22.0412545,15.2011828 L22.041,9.52 L16.4302533,9.52070966 L16.43,3.84 L3.8055006,3.84023655 L3.8055006,26.562129 L15.027503,26.562129 L15.027503,29.4023655 L3.8055006,29.4023655 C2.25822915,29.4023655 1,28.1278648 1,26.562129 L1,3.84023655 C1,2.27380775 2.25822915,1 3.8055006,1 L18.4138306,1 Z M19.2357539,12.3609462 L19.2357539,19.4615376 L14.3260012,19.4609462 L14.3261279,23.7218924 L6.61100121,23.7218924 L6.61100121,12.3609462 L19.2357539,12.3609462 Z M11.5200012,19.4609462 L9.41600121,19.4609462 L9.41650181,20.8816559 L11.5200012,20.8809462 L11.5200012,19.4609462 Z M11.5200012,15.2009462 L9.41650181,15.2011828 L9.41600121,16.6209462 L11.5200012,16.6209462 L11.5200012,15.2009462 Z M14.3260012,15.2009462 L14.3260012,16.6209462 L16.4300012,16.6209462 L16.4302533,15.2011828 L14.3260012,15.2009462 Z"/>
</svg>
