<?xml version="1.0" encoding="UTF-8"?>
<svg width="30px" height="30px" viewBox="0 0 30 30" version="1.1" xmlns="http://www.w3.org/2000/svg" xmlns:xlink="http://www.w3.org/1999/xlink">
    <title>list-versions</title>
    <g id="list-versions" stroke="none" stroke-width="1" fill="none" fill-rule="evenodd">
        <path d="M24.5454545,2 L29,6.375 L29,24.5 C29,25.8750125 26.5818182,27 25.1818182,27 L13.7272727,27 C12.3272727,27 11.1818182,25.875 11.1818182,24.5 L11.1818182,4.5 C11.1818182,3.125 12.3272727,2 13.7272727,2 L24.5454545,2 Z M22.6358182,4.5 L13.7272727,4.5000125 L13.7272727,24.5000125 L26.4545455,24.5000125 L26.4538182,8.25 L22.6363636,8.2500125 L22.6358182,4.5 Z M8.63636364,4.5 L8.63636364,7 L3.54545455,7 L3.54545455,22 L8.63636364,22 L8.63636364,24.5 L3.54545455,24.5 C2.14545455,24.5 1,23.375 1,22 L1,7 C1,5.625 2.14545455,4.5 3.54545455,4.5 L8.63636364,4.5 Z" fill="#000000" fill-rule="nonzero"></path>
    </g>
</svg>