<svg xmlns="http://www.w3.org/2000/svg" width="30" height="30" viewBox="0 0 30 30">
  <path fill="#000000" d="M10.3333343,21.7975399 L14.5144674,25.8987713 L10.3333343,30 L10.333,27.3035399 L6.16666644,27.3041322 C3.86903184,27.3041322 2,25.4708189 2,23.2170937 L2,21.8254789 L4.77777762,21.8254789 L4.77777762,23.2170937 C4.77777762,23.9687791 5.4010137,24.5794399 6.16666644,24.5794399 L10.333,24.5785399 L10.3333343,21.7975399 Z M20.630642,0 L27,6.24763502 L27,24.5222322 C27,26.024272 25.7535265,27.2469246 24.2222224,27.2469246 L18.6666671,27.2469246 L18.6666671,24.5222322 L24.2222224,24.5222322 L24.2217776,8.173 L18.6666671,8.17354156 L18.6657776,2.724 L7.55555525,2.72469232 L7.55555525,10.9267083 L4.77777762,10.9267083 L4.77777762,2.72469232 C4.77777762,1.22265255 6.02357339,0 7.55555525,0 L20.630642,0 Z M7.5700233,13.6230188 L7.5698902,16.3440188 L11.7222231,16.3441622 C14.0198577,16.3441622 15.8888895,18.1774756 15.8888895,20.4312021 L15.8888895,21.7975399 L13.1111119,21.7975399 L13.1111119,20.4312021 C13.1111119,19.6795167 12.4878758,19.0688546 11.7222231,19.0688546 L7.5698902,19.0680188 L7.5700233,21.8254789 L3.3888902,17.8803506 L7.5700233,13.6230188 Z"/>
</svg>
