<?xml version="1.0" encoding="utf-8"?>
<!-- Generator: Adobe Illustrator 24.0.1, SVG Export Plug-In . SVG Version: 6.00 Build 0)  -->
<svg version="1.1" id="Layer_1" xmlns="http://www.w3.org/2000/svg" xmlns:xlink="http://www.w3.org/1999/xlink" x="0px" y="0px"
	 viewBox="0 0 24 24" style="enable-background:new 0 0 24 24;" xml:space="preserve">
<style type="text/css">
	.st0{display:none;opacity:0;}
	.st1{display:inline;fill:#FFFFFF;}
</style>
<g class="st0">
	<rect x="0.004984" y="-27.000326" class="st1" width="0.9375" height="24"/>
	
		<rect x="11.536234" y="-15.469077" transform="matrix(-1.836970e-16 1 -1 -1.836970e-16 8.535907 -15.47406)" class="st1" width="0.9375" height="24"/>
</g>
<g>
	<path d="M18.004984,21.979166h-4v-2h4V7.393228l-3.414063-3.414063H6.004983v6.020508h-2V3.979165c0-1.102539,0.896973-2,2-2
		h9.414063l4.585938,4.585938v13.414063C20.004984,21.081705,19.107523,21.979166,18.004984,21.979166z"/>
</g>
<g>
	<path d="M14.004984,2.978772v5h5L14.004984,2.978772z"/>
</g>
<g>
	<path d="M9.448832,22.021158H5.004983c-1.654297,0-3-1.345703-3-3v-1.021484h2v1.021484c0,0.551758,0.44873,1,1,1h4.443848
		V22.021158z"/>
</g>
<g>
	<polygon points="8.004984,17.979166 11.0154,20.989584 8.004984,24 	"/>
</g>
<g>
	<path d="M12.004984,17.979166h-2v-1.00293c0-0.551758-0.44873-1.000001-1-1.000001H4.517679v-2h4.487305
		c1.654297,0,3,1.345703,3,3.000001V17.979166z"/>
</g>
<g>
	<polyline points="3.004984,15.10384 6.0154,11.97884 6.0154,17.999674 3.004984,15.10384 	"/>
</g>
</svg>
