<?xml version="1.0" encoding="UTF-8"?>
<svg width="30px" height="30px" viewBox="0 0 30 30" version="1.1" xmlns="http://www.w3.org/2000/svg" xmlns:xlink="http://www.w3.org/1999/xlink">
    <title>mapping-tables</title>
    <g id="mapping-tables" stroke="none" stroke-width="1" fill="none" fill-rule="evenodd">
        <path d="M26.8449526,2 C28.0327668,2 29,2.96840584 29,4.15874855 L29,26.8412514 C29,28.0320827 28.0327668,29 26.8449526,29 L21.0044618,29 L21.0044618,2 L26.8449526,2 Z M15.0273282,2 L15.0273282,11.0104287 L9.02677078,11.0104287 L9.02677078,21.0220162 L15.0273282,21.0220162 L15.0273282,29 L3.15504741,29 C1.96674552,29 1,28.0320827 1,26.8412514 L1,4.15874855 C1,2.96840584 1.96674552,2 3.15504741,2 L15.0273282,2 Z M27.001,23.003 L23.003,23.003 L23.0033463,26.9976825 L26.8449526,26.9976825 C26.9308427,26.9976825 27.0011154,26.927289 27.0011154,26.8412514 L27.001,23.003 Z M13.0284437,23.0243337 L9.02677078,23.0243337 L9.02677078,26.9976825 L13.0284437,26.9976825 L13.0284437,23.0243337 Z M7.02788622,23.0243337 L2.99888455,23.0243337 L2.99888455,26.8412514 C2.99888455,26.927289 3.06915834,26.9976825 3.15504741,26.9976825 L7.02788622,26.9976825 L7.02788622,23.0243337 Z M7.02788622,17.0066268 L2.99888455,17.0066268 L2.99888455,21.0220162 L7.02788622,21.0220162 L7.02788622,17.0066268 Z M27.001,17.048 L23.003,17.048 L23.003,21.001 L27.001,21.001 L27.001,17.048 Z M15.6051318,12.4300398 C15.995539,12.8211174 15.995539,13.4546637 15.6051318,13.8457413 L14.423039,15.0297316 L18.2559955,15.0307068 C18.8084213,15.0307068 19.2554378,15.4789797 19.2554378,16.0318656 C19.2554378,16.5852401 18.8084213,17.0330243 18.2559955,17.0330243 L14.422039,17.0327316 L15.6051318,18.2179888 C15.995539,18.6090665 15.995539,19.2426127 15.6051318,19.6336904 C15.4099277,19.8292297 15.1542104,19.9269988 14.8984941,19.9269988 C14.6427778,19.9269988 14.3870605,19.8292297 14.1918575,19.6336904 L11.3113419,16.7484287 L11.2654136,16.7004591 L11.2654136,16.7004591 L11.2521747,16.6851009 L11.2521747,16.6851009 L11.3028446,16.7397159 L11.235,16.664 L11.206315,16.6277692 L11.206315,16.6277692 C11.1884402,16.6038551 11.1716774,16.5789726 11.1560341,16.5533288 C11.1486046,16.5409746 11.1414987,16.5287423 11.1346731,16.5163965 C11.1239792,16.4972618 11.1137454,16.4772147 11.10418,16.45679 C11.0952271,16.4374059 11.0869327,16.4180857 11.0792738,16.3985735 C11.0728891,16.3826898 11.0668216,16.3659826 11.0611919,16.349074 C11.0551667,16.3304823 11.0497529,16.3124808 11.0448556,16.2943686 L11.0303963,16.2340104 L11.0303963,16.2340104 C11.0268301,16.2159402 11.023703,16.198233 11.0210538,16.1804682 C11.0181362,16.1615271 11.0157843,16.1417668 11.0140146,16.1218376 C11.0119237,16.0978084 11.0106619,16.0743607 11.010219,16.0509005 L11.010219,16.0128296 L11.011,15.977 L11.011,16.012 L11.013,15.95 L11.0210531,15.8827406 L11.0210531,15.8827406 C11.0236911,15.8656057 11.0267525,15.8482425 11.0302733,15.8309543 C11.034667,15.8088734 11.0398583,15.7871587 11.0457428,15.7657314 C11.0502014,15.7498617 11.054921,15.7341835 11.0600327,15.7186059 C11.0661068,15.6998514 11.0728771,15.6811582 11.0801776,15.6627335 C11.0874766,15.6444027 11.0953381,15.6261313 11.1037683,15.6080597 C11.1139831,15.5861631 11.1250161,15.5646307 11.1367871,15.543568 L11.1577356,15.5078402 C11.1721099,15.4844475 11.1874176,15.4616918 11.2036069,15.4396252 C11.2098657,15.4311078 11.2163246,15.4226004 11.2229375,15.4141746 C11.2476428,15.3826026 11.2743613,15.352425 11.3027834,15.323954 L14.1918575,12.4300398 C14.5822646,12.0389622 15.2147247,12.0389622 15.6051318,12.4300398 Z M27.001,10.968 L23.003,10.968 L23.003,15.046 L27.001,15.046 L27.001,10.968 Z M7.02788622,11.0104287 L2.99888455,11.0104287 L2.99888455,15.0047978 L7.02788622,15.0047978 L7.02788622,11.0104287 Z M13.0284437,4.0023175 L3.15504741,4.0023175 C3.06915734,4.0023175 2.99888455,4.07271197 2.99888455,4.15874855 L2.99888455,9.00811124 L13.0284437,9.00811124 L13.0284437,4.0023175 Z M26.8449526,4.0023175 L23.0033463,4.0023175 L23.003,8.966 L27.001,8.966 L27.0011154,4.15874855 C27.0011154,4.07271197 26.9308427,4.0023175 26.8449526,4.0023175 Z" id="Combined-Shape" fill="#000000" fill-rule="nonzero"></path>
    </g>
</svg>