<svg xmlns="http://www.w3.org/2000/svg" width="36" height="36" viewBox="0 0 36 36">
  <path fill="#20282D" fill-rule="evenodd" d="M32.6970894,7.54166667 L18.6832936,7.54166667 C17.6897381,7.54166667 12.4332196,4 11.4396641,4 L3.80865547,4 C2.81330652,4 3.0697658,11.0833333 3.0697658,11.0833333 L33.4341856,11.0833333 C33.4341856,11.0833333 33.6924383,7.54166667 32.6970894,7.54166667 Z M21.2872685,22.8428629 L17.8029246,26.3272069 C17.4497139,26.6804175 17.4491998,27.2486974 17.7993872,27.5988848 C18.152016,27.9515136 18.7189241,27.9474884 19.0710651,27.5953474 L23.8609407,22.8054718 C24.1133397,22.5530728 24.1856407,22.1908525 24.0785716,21.8768674 C24.1868532,21.5618528 24.1132626,21.1992642 23.8609407,20.9469423 L19.0710651,16.1570667 C18.7178545,15.8038561 18.1495745,15.803342 17.7993872,16.1535293 C17.4467584,16.5061581 17.4507836,17.0730662 17.8029246,17.4252072 L21.4505802,21.0728629 L12.0344765,21.0728629 C11.541188,21.0728629 11.1517071,21.4690909 11.1517071,21.9578629 C11.1517071,22.4500425 11.5469364,22.8428629 12.0344765,22.8428629 L21.2872685,22.8428629 Z M1.1203166,12.8541667 L34.8796834,12.8541667 C35.4930336,12.8541667 33.597387,32.3333333 32.8853987,32.3333333 L3.11460134,32.3333333 C2.402613,32.3333333 0.506966443,12.8541667 1.1203166,12.8541667 Z"/>
</svg>
