<?xml version="1.0" encoding="utf-8"?>
<!-- Generator: Adobe Illustrator 22.0.1, SVG Export Plug-In . SVG Version: 6.00 Build 0)  -->
<svg version="1.1" id="Layer_1" xmlns="http://www.w3.org/2000/svg" xmlns:xlink="http://www.w3.org/1999/xlink" x="0px" y="0px"
	 width="20px" height="20px" viewBox="0 0 20 20" style="enable-background:new 0 0 20 20;" xml:space="preserve">
<circle cx="5.1875" cy="6.7106" r="2.8991"/>
<path d="M5.1875,10.7248c-1.8956,0-3.6797,0.669-4.9063,1.5611v2.9642c0,0.446,0.3345,0.7805,0.7805,0.7805h8.2514
	c0.4462,0,0.7807-0.3346,0.7807-0.7806v-2.9642C8.9787,11.2823,7.1947,10.7248,5.1875,10.7248z"/>
<path d="M10.2,4.025h8.6c0.1,0,0.2,0.1,0.2,0.2V5.8C19,5.9,18.9,6,18.8,6h-8.6C10.1,6,10,5.9,10,5.8V4.225
	C10,4.125,10.1,4.025,10.2,4.025z"/>
<path d="M12.2,9h6.6C18.9,9,19,9.1,19,9.2v1.6c0,0.1-0.1,0.2-0.2,0.2h-6.6c-0.1,0-0.2-0.1-0.2-0.2V9.2C12,9.1,12.1,9,12.2,9z"/>
<path d="M12.2,14h6.6c0.1,0,0.2,0.1,0.2,0.2v1.6c0,0.1-0.1,0.2-0.2,0.2h-6.6c-0.1,0-0.2-0.1-0.2-0.2v-1.6C12,14.1,12.1,14,12.2,14z"
	/>
</svg>
