<?xml version="1.0" encoding="utf-8"?>
<!-- Generator: Adobe Illustrator 24.0.1, SVG Export Plug-In . SVG Version: 6.00 Build 0)  -->
<svg version="1.1" id="Layer_1" xmlns="http://www.w3.org/2000/svg" xmlns:xlink="http://www.w3.org/1999/xlink" x="0px" y="0px"
	 viewBox="0 0 32 32" style="enable-background:new 0 0 32 32;" xml:space="preserve">
<g>
	<path class="st1" d="M28.783772,8.297024"/>
</g>
<g>
	<path class="st1" d="M28.783773,8.3139"/>
</g>
<g>
	<path d="M29,23H11.291992c-0.86084,0-1.638184-0.441406-2.078613-1.180664c-0.440918-0.739258-0.459473-1.633789-0.049805-2.390625
		l1.932129-2.981934L6.112305,5H2V3h4.302734c0.656738,0,1.263184,0.383789,1.544922,0.977539l5.510742,12.65625l-2.476563,3.81543
		c-0.058105,0.113281,0.003906,0.269531,0.049316,0.345703C10.977051,20.87207,11.084473,21,11.291992,21H29V23z"/>
</g>
<g>
	<path d="M10.984863,31.030273c-1.662598,0-3.015137-1.352539-3.015137-3.014648C7.969727,26.352539,9.322266,25,10.984863,25
		S14,26.352539,14,28.015625C14,29.677734,12.647461,31.030273,10.984863,31.030273z M10.984863,27
		c-0.55957,0-1.015137,0.456055-1.015137,1.015625s0.455566,1.014648,1.015137,1.014648S12,28.575195,12,28.015625
		S11.544434,27,10.984863,27z"/>
</g>
<g>
	<path d="M25.541016,17.972656h-13.98291v-2.000488h13.98291C26.896484,15.972168,28,14.869141,28,13.513184V5h2v8.513184
		C30,15.97168,28,17.972656,25.541016,17.972656z"/>
</g>
<g>
	<path d="M26.984375,31.030273c-1.662109,0-3.014648-1.352539-3.014648-3.014648C23.969727,26.352539,25.322266,25,26.984375,25
		C28.647461,25,30,26.352539,30,28.015625C30,29.677734,28.647461,31.030273,26.984375,31.030273z M26.984375,27
		c-0.55957,0-1.014648,0.456055-1.014648,1.015625s0.455078,1.014648,1.014648,1.014648S28,28.575195,28,28.015625
		S27.543945,27,26.984375,27z"/>
</g>
<g>
	<path d="M19.5,14c-3.032715,0-5.5-2.467285-5.5-5.5h2c0,1.929688,1.570313,3.5,3.5,3.5S23,10.429688,23,8.5S21.429688,5,19.5,5H17
		V3h2.5C22.532227,3,25,5.467285,25,8.5S22.532227,14,19.5,14z"/>
</g>
<g>
	<polygon points="19.19043,7.626465 15.585938,4.021973 19.19043,0.417969 20.604492,1.832031 18.414063,4.021973 
		20.604492,6.212402 	"/>
</g>
</svg>
