<svg xmlns="http://www.w3.org/2000/svg" width="59" height="68" viewBox="0 0 59 68">
  <path fill="#383E49" d="M31.7692308,2.26666667 L43.1288632,2.26666667 C45.6279423,2.26666667 47.6538462,4.30272408 47.6538462,6.79526974 L47.6538462,9.06666667 L52.2031555,9.06666667 C55.9569491,9.06666667 59,12.1110796 59,15.8702302 L59,61.1964364 C59,64.9539408 55.9521431,68 52.2031555,68 L6.79684449,68 C3.04305093,68 0,64.955587 0,61.1964364 L0,15.8702302 C0,12.1127258 3.04785688,9.06666667 6.79684449,9.06666667 L11.3461538,9.06666667 L11.3461538,6.79526974 C11.3461538,4.29419133 13.376012,2.26666667 15.8711368,2.26666667 L27.2307692,2.26666667 L27.2307692,2.26430154 C27.2307692,1.01376233 28.2380009,2.27373675e-13 29.5,2.27373675e-13 C30.7532615,2.27373675e-13 31.7692308,1.01802871 31.7692308,2.26430154 L31.7692308,2.26666667 Z M11.9523411,13.6 L9.07897672,13.6 C6.57293044,13.6 4.53846154,15.6305609 4.53846154,18.1353847 L4.53846154,58.931282 C4.53846154,61.4344966 6.57131943,63.4666667 9.07897672,63.4666667 L49.9210233,63.4666667 C52.4270696,63.4666667 54.4615385,61.4361058 54.4615385,58.931282 L54.4615385,18.1353847 C54.4615385,15.6321701 52.4286806,13.6 49.9210233,13.6 L47.0489869,13.6 C46.2660492,14.9549068 44.8020693,15.8666667 43.1288632,15.8666667 L15.8711368,15.8666667 C14.1968429,15.8666667 12.7349347,14.9527777 11.9523411,13.6 Z M15.8846154,9.06666667 C15.8846154,10.3272397 16.9030974,11.3333333 18.1594586,11.3333333 L40.8405414,11.3333333 C42.0976049,11.3333333 43.1153846,10.3185121 43.1153846,9.06666667 C43.1153846,7.8060936 42.0969026,6.8 40.8405414,6.8 L18.1594586,6.8 C16.9023951,6.8 15.8846154,7.81482123 15.8846154,9.06666667 Z M20.7307692,34.4827586 C20.7307692,33.1877461 21.7801027,32.137931 23.0699553,32.137931 L37.1608139,32.137931 C38.4527107,32.137931 39.5,33.1787175 39.5,34.4827586 C39.5,35.7777711 38.4506666,36.8275862 37.1608139,36.8275862 L23.0699553,36.8275862 C21.7780585,36.8275862 20.7307692,35.7867997 20.7307692,34.4827586 Z M20.7307692,43.862069 C20.7307692,42.5670564 21.4682579,41.5172414 22.3908689,41.5172414 L45.6091315,41.5172414 C46.5259792,41.5172414 47.2692312,42.5580279 47.2692312,43.862069 C47.2692312,45.1570815 46.5317425,46.2068966 45.6091315,46.2068966 L22.3908689,46.2068966 C21.4740212,46.2068966 20.7307692,45.1661101 20.7307692,43.862069 Z M20.7307692,53.2413793 C20.7307692,51.9463668 21.78305,50.8965517 23.0827258,50.8965517 L46.5326588,50.8965517 C47.8316086,50.8965517 48.8846154,51.9373382 48.8846154,53.2413793 C48.8846154,54.5363918 47.8323346,55.5862069 46.5326588,55.5862069 L23.0827258,55.5862069 C21.7837761,55.5862069 20.7307692,54.5454204 20.7307692,53.2413793 Z M10.7307692,53.2413793 C10.7307692,51.9463668 10.9434392,50.8965517 11.2061086,50.8965517 L15.9454298,50.8965517 C16.2079525,50.8965517 16.4207692,51.9373382 16.4207692,53.2413793 C16.4207692,54.5363918 16.2080992,55.5862069 15.9454298,55.5862069 L11.2061086,55.5862069 C10.9435859,55.5862069 10.7307692,54.5454204 10.7307692,53.2413793 Z M10.7307692,44.2413793 C10.7307692,42.9463668 10.9434392,41.8965517 11.2061086,41.8965517 L15.9454298,41.8965517 C16.2079525,41.8965517 16.4207692,42.9373382 16.4207692,44.2413793 C16.4207692,45.5363918 16.2080992,46.5862069 15.9454298,46.5862069 L11.2061086,46.5862069 C10.9435859,46.5862069 10.7307692,45.5454204 10.7307692,44.2413793 Z M10.7307692,34.2413793 C10.7307692,32.9463668 10.9434392,31.8965517 11.2061086,31.8965517 L15.9454298,31.8965517 C16.2079525,31.8965517 16.4207692,32.9373382 16.4207692,34.2413793 C16.4207692,35.5363918 16.2080992,36.5862069 15.9454298,36.5862069 L11.2061086,36.5862069 C10.9435859,36.5862069 10.7307692,35.5454204 10.7307692,34.2413793 Z M20.7307692,25.4827586 C20.7307692,24.1877461 21.7801027,23.137931 23.0699553,23.137931 L37.1608139,23.137931 C38.4527107,23.137931 39.5,24.1787175 39.5,25.4827586 C39.5,26.7777711 38.4506666,27.8275862 37.1608139,27.8275862 L23.0699553,27.8275862 C21.7780585,27.8275862 20.7307692,26.7867997 20.7307692,25.4827586 Z M10.7307692,25.2413793 C10.7307692,23.9463668 10.9434392,22.8965517 11.2061086,22.8965517 L15.9454298,22.8965517 C16.2079525,22.8965517 16.4207692,23.9373382 16.4207692,25.2413793 C16.4207692,26.5363918 16.2080992,27.5862069 15.9454298,27.5862069 L11.2061086,27.5862069 C10.9435859,27.5862069 10.7307692,26.5454204 10.7307692,25.2413793 Z"/>
</svg>
