<?xml version="1.0" encoding="utf-8"?>
<!-- Generator: Adobe Illustrator 24.0.1, SVG Export Plug-In . SVG Version: 6.00 Build 0)  -->
<svg version="1.1" id="Layer_1" xmlns="http://www.w3.org/2000/svg" xmlns:xlink="http://www.w3.org/1999/xlink" x="0px" y="0px"
	 viewBox="0 0 32 32" style="enable-background:new 0 0 32 32;" xml:space="preserve">
<style type="text/css">
	.st0{display:none;fill:#FFFFFF;fill-opacity:0;}
</style>
<g>
	<path d="M4.111816,28c-1.219727,0-2.211426-0.992188-2.211426-2.210938l0.01416-19.579102C1.914551,4.991699,2.90625,4,4.125,4
		h23.665039C29.008789,4,30,4.991699,30,6.210449V13h-2V6.210449C28,6.094238,27.90625,6,27.790039,6H4.125
		C4.008789,6,3.914551,6.094238,3.914551,6.210449l-0.01416,19.57959C3.900391,25.905273,3.994629,26,4.11084,26
		c-0.000977,0,5.458984-0.004883,6.88623-0.008789l0.005859,2C9.574707,27.995117,4.111816,28,4.111816,28z"/>
</g>
<g>
	<g>
		<g>
			<path d="M23.132813,27.479492H20v-2h3.132813c0.338867,0,0.594727-0.293945,0.594727-0.68457
				s-0.183594-0.642578-0.478516-0.716797l-1.389648-0.350586c-1.19043-0.300781-1.990234-1.34082-1.990234-2.587891
				c0-1.506836,1.139648-2.660156,2.594727-2.660156H25.375v2h-2.911133c-0.295898,0-0.594727,0.193359-0.594727,0.625
				c0,0.365234,0.179688,0.608398,0.479492,0.683594l1.388672,0.350586c1.19043,0.298828,1.990234,1.342773,1.990234,2.597656
				C25.727539,26.299805,24.587891,27.479492,23.132813,27.479492z"/>
		</g>
		<g>
			<rect x="21.994141" y="17.5" width="2" height="1.991211"/>
		</g>
		<g>
			<rect x="21.994141" y="26.472656" width="2" height="2.009766"/>
		</g>
	</g>
	<g>
		<path d="M23.001953,32C18.038086,32,14,27.961914,14,22.998047s4.038086-9.001953,9.001953-9.001953
			s9.001953,4.038086,9.001953,9.001953S27.96582,32,23.001953,32z M23.001953,15.996094
			C19.140625,15.996094,16,19.136719,16,22.998047S19.140625,30,23.001953,30s7.001953-3.140625,7.001953-7.001953
			S26.863281,15.996094,23.001953,15.996094z"/>
	</g>
</g>
<g>
	<rect x="3.75" y="9" width="11.375" height="2"/>
</g>
</svg>
