<?xml version="1.0" encoding="utf-8"?>
<!-- Generator: Adobe Illustrator 24.0.1, SVG Export Plug-In . SVG Version: 6.00 Build 0)  -->
<svg version="1.1" id="Layer_1" xmlns="http://www.w3.org/2000/svg" xmlns:xlink="http://www.w3.org/1999/xlink" x="0px" y="0px"
	 viewBox="0 0 32 32" style="enable-background:new 0 0 32 32;" xml:space="preserve">
<g>
	<path d="M6.637207,31H2V18h4.637207C7.939941,18,9,19.05957,9,20.362305v8.275391C9,29.94043,7.939941,31,6.637207,31z M4,29
		h2.637207C6.837402,29,7,28.837891,7,28.637695v-8.275391C7,20.162109,6.837402,20,6.637207,20H4V29z"/>
</g>
<g>
	<path d="M14.280762,31.914063c-0.613281,0-1.227539-0.192383-1.742188-0.583008l-2.239258-1.696289l-3.132813,0.072266v-8.926758
		l4.454102-2.083008c1.239258-0.617188,2.898438-0.236328,3.729492,0.834961l1.79541-1.012695
		C17.990234,18.042969,19,17.951172,19.917969,18.267578l3.920898,1.352539l-0.652344,1.890625l-3.921875-1.352539
		c-0.37793-0.129883-0.790039-0.091797-1.136719,0.103516l-3.134277,1.768555
		c-0.118652,0.067383-0.159668,0.172852-0.173828,0.229492c-0.013672,0.056641-0.026367,0.169922,0.04834,0.28418l0.132813,0.203125
		c0.104004,0.160156,0.313477,0.211914,0.478516,0.123047l2.114258-1.147461l2.053711,2.645508
		c1.000977,1.225586,0.890625,2.998047-0.266602,4.017578l-3.189941,2.810547
		C15.649414,31.673828,14.96582,31.914063,14.280762,31.914063z M10.950684,27.619141l2.795898,2.118164
		c0.335449,0.254883,0.808105,0.235352,1.122559-0.041992l3.189453-2.810547c0.386719-0.34082,0.316406-0.913086,0.024414-1.270508
		l-1.02832-1.323242l-0.621094,0.336914c-1.075684,0.583008-2.44043,0.237305-3.107422-0.788086l-0.132324-0.202148
		c-0.356445-0.546875-0.471191-1.22168-0.316895-1.852539c0.112793-0.460938,0.362793-0.875,0.709473-1.19043
		c-0.302246-0.194336-0.784668-0.253906-1.094238-0.09668l-3.325684,1.555664v5.606445L10.950684,27.619141z"/>
</g>
<g>
	
		<rect x="17.476761" y="27.023682" transform="matrix(0.9773 -0.211862 0.211862 0.9773 -5.471185 4.985536)" width="6.105072" height="2.00049"/>
</g>
<g>
	<path d="M28,16h-2V6.487793L21.97168,3H6.490234C6.219727,3,6,3.219727,6,3.490234V16H4V3.490234C4,2.117188,5.117188,1,6.490234,1
		h16.227539L28,5.57373V16z"/>
</g>
<g>
	<path d="M30,31h-4.625c-1.302734,0-2.362305-1.05957-2.362305-2.362305v-8.275391C23.012695,19.05957,24.072266,18,25.375,18H30V31
		z M25.375,20c-0.200195,0-0.362305,0.162109-0.362305,0.362305v8.275391C25.012695,28.837891,25.174805,29,25.375,29H28v-9H25.375z
		"/>
</g>
<g>
	<g>
		<rect x="15" y="14.046875" width="2" height="2.953125"/>
	</g>
	<g>
		<rect x="15" y="5" width="2" height="3.046875"/>
	</g>
	<g>
		<path d="M17.5,15.046875H12v-2h5.5c0.275391,0,0.5-0.224121,0.5-0.5s-0.224609-0.5-0.5-0.5h-3c-1.378418,0-2.5-1.121582-2.5-2.5
			s1.121582-2.5,2.5-2.5H20v2h-5.5c-0.275879,0-0.5,0.224121-0.5,0.5s0.224121,0.5,0.5,0.5h3c1.378906,0,2.5,1.121582,2.5,2.5
			S18.878906,15.046875,17.5,15.046875z"/>
	</g>
</g>
</svg>
