<?xml version="1.0" encoding="utf-8"?>
<svg version="1.1" id="Layer_1" xmlns="http://www.w3.org/2000/svg" xmlns:xlink="http://www.w3.org/1999/xlink" x="0px" y="0px"
	 viewBox="0 0 32 32" style="enable-background:new 0 0 32 32;" xml:space="preserve">
<style type="text/css">
	.st0{display:none;opacity:0;fill:#FFFFFF;}
</style>
<g>
	<path d="M13,27H8.984863c-0.321777,0-0.623535-0.154297-0.811523-0.416016l-7.109863-9.874512
		c-0.249512-0.34668-0.251465-0.812988-0.005371-1.161621l7.125-10.085449C8.370605,5.197266,8.675293,5.039551,9,5.039551
		h18.790039C29.008789,5.039551,30,6.03125,30,7.25V13h-2V7.25c0-0.116211-0.09375-0.210449-0.209961-0.210449H9.518066
		l-6.415039,9.080078L9.49707,25H13V27z"/>
</g>
<g>
	<path d="M23.001953,32C18.038086,32,14,27.961914,14,22.998047s4.038086-9.001953,9.001953-9.001953
		s9.001953,4.038086,9.001953,9.001953S27.96582,32,23.001953,32z M23.001953,15.996094
		C19.140625,15.996094,16,19.136719,16,22.998047S19.140625,30,23.001953,30s7.001953-3.140625,7.001953-7.001953
		S26.863281,15.996094,23.001953,15.996094z"/>
</g>
<g>
	<path d="M10,19c-1.654297,0-3-1.345703-3-3s1.345703-3,3-3s3,1.345703,3,3S11.654297,19,10,19z M10,15c-0.55127,0-1,0.44873-1,1
		s0.44873,1,1,1s1-0.44873,1-1S10.55127,15,10,15z"/>
</g>
<g>
	<g>
		<rect x="22" y="26.046875" width="2" height="2.953125"/>
	</g>
	<g>
		<rect x="22" y="17" width="2" height="3.046875"/>
	</g>
	<g>
		<path d="M24.5,27.046875H19v-2h5.5c0.275391,0,0.5-0.224609,0.5-0.5s-0.224609-0.5-0.5-0.5h-3c-1.378906,0-2.5-1.121094-2.5-2.5
			s1.121094-2.5,2.5-2.5H27v2h-5.5c-0.275391,0-0.5,0.224609-0.5,0.5s0.224609,0.5,0.5,0.5h3c1.378906,0,2.5,1.121094,2.5,2.5
			S25.878906,27.046875,24.5,27.046875z"/>
	</g>
</g>
</svg>
