<svg enable-background="new 0 0 32 32" viewBox="0 0 32 32" xmlns="http://www.w3.org/2000/svg"><path d="m16.3989258 20.1386719h-2.8051758v-2h2.8051758c.2436523 0 .4272461-.21875.4272461-.5087891 0-.2988281-.1337891-.4853516-.3496094-.5400391l-1.2436523-.3139648c-1.112793-.2807617-1.8608398-1.2524414-1.8608398-2.4179688 0-1.4086914 1.0664063-2.4873047 2.4282227-2.4873047h2.605957v2h-2.605957c-.2070313 0-.4282227.1196289-.4282227.4550781 0 .2768555.1308594.4555664.3500977.5107422l1.2436523.3139648c1.1123047.2807617 1.8603516 1.2563477 1.8603516 2.4277344-.0000001 1.4589845-1.0664064 2.560547-2.4272462 2.560547z"/><path d="m15.273926 10.706055h1.999512v2.174805h-1.999512z"/><path d="m15.273926 19.131836h1.999512v2.150391h-1.999512z"/><path d="m16 24.8310547c-4.8696289 0-8.8310547-3.9619141-8.8310547-8.8310547 0-4.8696289 3.9614258-8.8310547 8.8310547-8.8310547 4.8691406 0 8.8310547 3.9614258 8.8310547 8.8310547 0 4.8691406-3.9619141 8.8310547-8.8310547 8.8310547zm0-15.6621094c-3.7666016 0-6.8310547 3.0644531-6.8310547 6.8310547s3.0644531 6.8310547 6.8310547 6.8310547 6.8310547-3.0644531 6.8310547-6.8310547-3.0644531-6.8310547-6.8310547-6.8310547z"/><path d="m24.26466 19.414616h1.999977v11.700068h-1.999977z" transform="matrix(.7164756 -.6976122 .6976122 .7164756 -10.461782 24.788071)"/><path d="m19.8759766 32h-7.75l-.3823242-2.8271484c-.1445313-1.0683594-.8076172-2.0146484-1.8188477-2.5947266-1.0546875-.6113281-2.2084961-.7148438-3.2055664-.3046875l-2.6391602 1.0810547-3.8740234-6.7089844 2.2055664-1.7060547c.8549805-.6611328 1.3422852-1.7119141 1.3369141-2.8813477v-.1162109c.0053711-1.1694336-.4814453-2.21875-1.3354492-2.8798828l-2.2089844-1.7094727 3.8745117-6.708496 2.6381836 1.0805664c.9985351.4072265 2.1508789.3046875 3.1640625-.2817383 1.0537109-.6049805 1.7167969-1.5507813 1.8618164-2.6191406l.3823242-2.8237305h7.7470703l.3828125 2.8266602c.1445313 1.0693359.8076172 2.0151367 1.8193359 2.5957031 1.0546875.6108398 2.2080078.7138672 3.2041016.3046875l2.6396484-1.0820313 3.8740234 6.7094727-2.2060547 1.7060547c-.8544922.6611328-1.3417969 1.7114258-1.3359375 2.8813477v.1147461c-.0058594 1.1699219.4814453 2.2197266 1.3369141 2.8818359l2.2050781 1.7041016-2.3496094 4.125-1.7382813-.9902344 1.4902344-2.6152344-.8300781-.6416016c-1.3525389-1.0458984-2.1230468-2.6757812-2.1142577-4.4736328-.0087891-1.8925781.7617188-3.5229492 2.1123047-4.5683594l.8242188-.6367188-2.1259766-3.6831055-1.0234375.4189453c-1.5742188.6459961-3.3681641.5-4.9248047-.4008789-1.5888672-.9116211-2.6113281-2.3920898-2.8398438-4.0820313l-.1484375-1.0947264h-4.2519531l-.1479492 1.0922852c-.2285156 1.6884766-1.2509766 3.168457-2.8046875 4.0605469-1.5908203.9208984-3.3857422 1.067871-4.9604492.4223632l-1.0219727-.418457-2.1274414 3.6831055.8271484.6401367c1.3505859 1.0449219 2.1206055 2.6748047 2.1118164 4.4716797.0087891 1.894043-.7617188 3.5239258-2.1132813 4.5698242l-.8237305.6376953 2.1269531 3.6816406 1.0224609-.4189453c1.574707-.6445313 3.3710938-.4980469 4.9248047.4013672 1.5883789.9111328 2.6108398 2.3916016 2.8398438 4.0810547l.1484376 1.0957031h4.2539063l.1787109-1.3261719c.1259766-.9228516.5126953-1.7910156 1.1181641-2.5146484.4140625-.4941406.9169922-.90625 1.4941406-1.2246094l1.0966797 1.6777344-.140625.0791016c-.3505859.1933594-.6621094.4482422-.9169922.7519531-.3632813.4345703-.5947266.9521484-.6689453 1.4990234z"/></svg>