<?xml version="1.0" encoding="UTF-8"?>
<svg width="20px" height="20px" viewBox="0 0 20 20" version="1.1" xmlns="http://www.w3.org/2000/svg" xmlns:xlink="http://www.w3.org/1999/xlink">
    <!-- Generator: Sketch 48.2 (47327) - http://www.bohemiancoding.com/sketch -->
    <title>icon-send-to-quotewin-alt</title>
    <desc>Created with Sketch.</desc>
    <defs></defs>
    <g id="Page-1" stroke="none" stroke-width="1" fill="none" fill-rule="evenodd">
        <g id="icon-send-to-quotewin-alt" fill="#000000" fill-rule="nonzero">
            <path d="M18,2 L18,18 L2,18 L2,2 L18,2 Z M18,0 L2,0 C0.89545,0 0,0.895451 0,2 L0,18 C0,19.104549 0.89545,20 2,20 L18,20 C19.104549,20 20,19.104549 20,18 L20,2 C20,0.895451 19.104549,0 18,0 Z" id="Shape"></path>
            <polygon id="Shape" points="10 10 7 10 7 15 5 15 5 5 6.875 5 7 5 10 5"></polygon>
            <polygon id="Shape" points="15 15 13.125 15 13 15 10 15 10 10 13 10 13 5 15 5"></polygon>
        </g>
    </g>
</svg>