<?xml version="1.0" encoding="UTF-8"?>
<svg width="16px" height="20px" viewBox="0 0 16 20" version="1.1" xmlns="http://www.w3.org/2000/svg" xmlns:xlink="http://www.w3.org/1999/xlink">
    <!-- Generator: Sketch 48.2 (47327) - http://www.bohemiancoding.com/sketch -->
    <title>quote-from-sales</title>
    <desc>Created with Sketch.</desc>
    <defs></defs>
    <g id="Page-2" stroke="none" stroke-width="1" fill="none" fill-rule="evenodd">
        <g id="quote-from-sales" fill="#000000">
            <g id="Group">
                <path d="M14,20 L2,20 C0.896973,20 0,19.102539 0,18 L0,2 C0,0.896973 0.896973,0 2,0 L11.414063,0 L16,4.585938 L16,18 C16,19.102539 15.102539,20 14,20 Z M2,2 L2,18.000977 L14,18 L14,5.414063 L10.585938,2 L2,2 Z" id="Shape" fill-rule="nonzero"></path>
                <polygon id="Path-2" stroke="#000000" stroke-width="0.05" points="10 2 10 5.99332182 14.0152541 5.99332182 14.0152541 5.01696392 11.0253111 2"></polygon>
            </g>
            <g id="Group" transform="translate(5.000000, 5.000000)" fill-rule="nonzero">
                <path d="M3.813965,9.915039 L2.144531,9.915039 C0.961914,9.915039 0,8.953125 0,7.770508 L0,7.398438 L2,7.398438 L2,7.770508 C2,7.850586 2.064941,7.915039 2.144531,7.915039 L3.813965,7.915039 C3.893555,7.915039 3.958008,7.850586 3.958008,7.770508 L3.958008,6.941406 C3.958008,6.862304 3.893555,6.796875 3.813965,6.796875 L2.144531,6.796875 C0.961914,6.796875 0,5.835449 0,4.65332 L0,3.888183 C0,2.706054 0.961914,1.74414 2.144531,1.74414 L3.813965,1.74414 C4.996094,1.74414 5.958008,2.706054 5.958008,3.888183 L5.958008,4.196777 L3.958008,4.196777 L3.958008,3.888183 C3.958008,3.808593 3.893555,3.74414 3.813965,3.74414 L2.144531,3.74414 C2.064941,3.744141 2,3.808594 2,3.888184 L2,4.653321 C2,4.732911 2.064941,4.797364 2.144531,4.797364 L3.813965,4.797364 C4.996094,4.797364 5.958008,5.759278 5.958008,6.941407 L5.958008,7.770509 C5.958008,8.953125 4.996094,9.915039 3.813965,9.915039 Z" id="Shape"></path>
                <rect id="Rectangle-path" x="1.995605" y="0.75" width="2" height="1.657715"></rect>
                <rect id="Rectangle-path" x="1.995605" y="9.251953" width="2" height="1.748047"></rect>
            </g>
        </g>
    </g>
</svg>