<?xml version="1.0" encoding="UTF-8" standalone="no"?>
<svg width="68px" height="56px" viewBox="0 0 68 56" version="1.1" xmlns="http://www.w3.org/2000/svg" xmlns:xlink="http://www.w3.org/1999/xlink" xmlns:sketch="http://www.bohemiancoding.com/sketch/ns">
    <!-- Generator: Sketch 3.4.2 (15855) - http://www.bohemiancoding.com/sketch -->
    <title>reports</title>
    <desc>Created with Sketch.</desc>
    <defs></defs>
    <g id="Icons" stroke="none" stroke-width="1" fill="none" fill-rule="evenodd" sketch:type="MSPage">
        <path d="M58.7272727,3.11111111 L64.9090909,3.11111111 L64.9090909,52.8888889 L58.7272727,52.8888889 L58.7272727,3.11111111 Z M66.4545455,0 L57.1818182,0 C56.3287273,0 55.6363636,0.696888889 55.6363636,1.55555556 L55.6363636,54.4444444 C55.6363636,55.3046667 56.3287273,56 57.1818182,56 L66.4545455,56 C67.3076364,56 68,55.3046667 68,54.4444444 L68,1.55555556 C68,0.696888889 67.3076364,0 66.4545455,0 L66.4545455,0 Z M21.6363636,9.33333333 L27.8181818,9.33333333 L27.8181818,52.8888889 L21.6363636,52.8888889 L21.6363636,9.33333333 Z M29.3636364,6.22222222 L20.0909091,6.22222222 C19.2378182,6.22222222 18.5454545,6.91911111 18.5454545,7.77777778 L18.5454545,54.4444444 C18.5454545,55.3046667 19.2378182,56 20.0909091,56 L29.3636364,56 C30.2167273,56 30.9090909,55.3046667 30.9090909,54.4444444 L30.9090909,7.77777778 C30.9090909,6.91911111 30.2167273,6.22222222 29.3636364,6.22222222 L29.3636364,6.22222222 Z M40.1818182,28 L46.3636364,28 L46.3636364,52.8888889 L40.1818182,52.8888889 L40.1818182,28 Z M47.9090909,24.8888889 L38.6363636,24.8888889 C37.7832727,24.8888889 37.0909091,25.5857778 37.0909091,26.4444444 L37.0909091,54.4444444 C37.0909091,55.3046667 37.7832727,56 38.6363636,56 L47.9090909,56 C48.7621818,56 49.4545455,55.3046667 49.4545455,54.4444444 L49.4545455,26.4444444 C49.4545455,25.5857778 48.7621818,24.8888889 47.9090909,24.8888889 L47.9090909,24.8888889 Z M3.09090909,37.3333333 L9.27272727,37.3333333 L9.27272727,52.8888889 L3.09090909,52.8888889 L3.09090909,37.3333333 Z M10.8181818,34.2222222 L1.54545455,34.2222222 C0.692363636,34.2222222 0,34.9191111 0,35.7777778 L0,54.4444444 C0,55.3046667 0.692363636,56 1.54545455,56 L10.8181818,56 C11.6712727,56 12.3636364,55.3046667 12.3636364,54.4444444 L12.3636364,35.7777778 C12.3636364,34.9191111 11.6712727,34.2222222 10.8181818,34.2222222 L10.8181818,34.2222222 Z" id="reports" fill="#383E49" sketch:type="MSShapeGroup"></path>
    </g>
</svg>