<?xml version="1.0" encoding="utf-8"?>
<!-- Generator: Adobe Illustrator 24.0.1, SVG Export Plug-In . SVG Version: 6.00 Build 0)  -->
<svg version="1.1" id="Layer_1" xmlns="http://www.w3.org/2000/svg" xmlns:xlink="http://www.w3.org/1999/xlink" x="0px" y="0px"
	 viewBox="0 0 24 24" style="enable-background:new 0 0 24 24;" xml:space="preserve">
<g>
	<circle cx="7.992645" cy="10.614327" r="3.774272"/>
</g>
<g>
	<path d="M7.962391,15.698902c-2.253057,0-5.525837,0.552147-6.98374,1.612473v4.693859h12.815117
		c0.000066,0,1.212871-0.000053,1.212871-0.00012v-4.628944C13.681261,16.183435,10.348095,15.698904,7.962391,15.698902z"/>
</g>
<g>
	<g>
		<path d="M20.165039,14.931641h-2.43457c-1.47168,0-2.668945-1.197266-2.668945-2.668457v-0.543457h2v0.543457
			c0,0.368652,0.299805,0.668457,0.668945,0.668457h2.43457c0.368164,0,0.667969-0.299805,0.667969-0.668457v-1.208984
			c0-0.368652-0.299805-0.668457-0.667969-0.668457h-2.43457c-1.47168,0-2.668945-1.197266-2.668945-2.668457V6.602051
			c0-1.471191,1.197266-2.668457,2.668945-2.668457h2.43457c1.470703,0,2.667969,1.197266,2.667969,2.668457v0.449707h-2V6.602051
			c0-0.368652-0.299805-0.668457-0.667969-0.668457h-2.43457c-0.369141,0-0.668945,0.299805-0.668945,0.668457v1.115234
			c0,0.368652,0.299805,0.668457,0.668945,0.668457h2.43457c1.470703,0,2.667969,1.197266,2.667969,2.668457v1.208984
			C22.833008,13.734375,21.635742,14.931641,20.165039,14.931641z"/>
	</g>
	<g>
		<rect x="17.97168" y="2.025879" width="2" height="2.416504"/>
	</g>
	<g>
		<rect x="17.97168" y="14.422852" width="2" height="2.549805"/>
	</g>
</g>
</svg>
