<svg xmlns="http://www.w3.org/2000/svg" width="36" height="36" viewBox="0 0 36 36">
  <path fill="#000000" d="M18,1 C8.65,1 1,8.65 1,18 C1,27.35 8.65,35 18,35 C27.35,35 35,27.35 35,18 C35,8.65 27.35,1 18,1 Z M19.7,29.9 L16.3,29.9 L16.3,26.5 L19.7,26.5 L19.7,29.9 Z M23.27,16.81 L21.74,18.34 C20.38,19.53 19.7,20.55 19.7,23.1 L16.3,23.1 L16.3,22.25 C16.3,20.38 16.98,18.68 18.34,17.49 L20.38,15.28 C21.06,14.77 21.4,13.92 21.4,12.9 C21.4,11.03 19.87,9.5 18,9.5 C16.13,9.5 14.6,11.03 14.6,12.9 L11.2,12.9 C11.2,9.16 14.26,6.1 18,6.1 C21.74,6.1 24.8,9.16 24.8,12.9 C24.8,14.43 24.12,15.79 23.27,16.81 Z"/>
</svg>
