<?xml version="1.0" encoding="UTF-8"?>
<svg width="32px" height="33px" viewBox="0 0 32 33" version="1.1" xmlns="http://www.w3.org/2000/svg" xmlns:xlink="http://www.w3.org/1999/xlink">
    <!-- Generator: Sketch 48.2 (47327) - http://www.bohemiancoding.com/sketch -->
    <title>system-settings</title>
    <desc>Created with Sketch.</desc>
    <defs></defs>
    <g id="Page-1" stroke="none" stroke-width="1" fill="none" fill-rule="evenodd">
        <g id="system-settings" stroke="#000000" stroke-width="2">
            <path d="M22.751003,25 C22.751003,24.542883 22.702884,24.097795 22.615671,23.66674 L24.694753,22.058811 L22.894351,18.941189 L20.432334,19.950657 C19.772721,19.371241 19.004844,18.92515 18.156772,18.636444 L17.7999,16 L14.200102,16 L13.843228,18.634439 C12.994153,18.923145 12.227278,19.369236 11.567666,19.948652 L9.105648,18.940187 L7.305247,22.057807 L9.384329,23.666739 C9.298119,24.097795 9.250001,24.542883 9.250001,25 M13.701511,25 C13.701511,23.731886 14.733525,22.70101 16.000501,22.70101 C17.267477,22.70101 18.299494,23.732454 18.299494,25" id="Shape"></path>
            <path d="M27.731707,27 L4.268293,27 C3.567561,27 3,26.432438 3,25.731707 L3,6.314024 C3,5.613292 3.567561,5.045731 4.268293,5.045731 L27.731706,5.045731 C28.432438,5.045732 29,5.613293 29,6.314024 L29,25.731707 C29,26.432438 28.432438,27 27.731707,27 Z" id="Shape"></path>
            <path d="M4,9 L28,9" id="Shape"></path>
        </g>
    </g>
</svg>