<?xml version="1.0" standalone="no"?>
<!DOCTYPE svg PUBLIC "-//W3C//DTD SVG 1.1//EN" "http://www.w3.org/Graphics/SVG/1.1/DTD/svg11.dtd" >
<!--
2017-2-28: Created with FontForge (http://fontforge.org)
-->
<svg xmlns="http://www.w3.org/2000/svg" xmlns:xlink="http://www.w3.org/1999/xlink" version="1.1">
<metadata>
Created by FontForge 20150828 at Tue Feb 28 19:56:25 2017
 By Jovan Stojanovic
Copyright (c) 2017, Jovan Stojanovic
</metadata>
<defs>
<font id="fontcustom" horiz-adv-x="512" >
  <font-face 
    font-family="fontcustom"
    font-weight="400"
    font-stretch="normal"
    units-per-em="512"
    panose-1="2 0 5 3 0 0 0 0 0 0"
    ascent="448"
    descent="-64"
    bbox="12.7998 -51.2002 489.211 423.597"
    underline-thickness="25.6"
    underline-position="-51.2"
    unicode-range="U+0020-F120"
  />
    <missing-glyph />
    <glyph glyph-name="space" unicode=" " horiz-adv-x="200" 
 />
    <glyph glyph-name="uniF10A" unicode="&#xf10a;" 
d="M292.206 93.2568h85.5771l-118.492 -131.657l-118.491 131.657h85.5771v329.144h65.8291v-329.144z" />
    <glyph glyph-name="uniF105" unicode="&#xf105;" 
d="M292.206 290.743v-329.144h-65.8291v329.144h-85.5771l118.491 131.657l118.492 -131.657h-85.5771z" />
    <glyph glyph-name="uniF11C" unicode="&#xf11c;" 
d="M25.5996 383.905c0 21.2598 17.2236 38.4951 38.4951 38.4951h383.811c21.2598 0 38.4951 -17.2236 38.4951 -38.4951v-383.811c0 -21.2598 -17.2236 -38.4951 -38.4951 -38.4951h-383.811c-21.2598 0 -38.4951 17.2236 -38.4951 38.4951v383.811zM288.004 281.986
c-20.1152 -7.32227 -32.8291 -26.1953 -31.3809 -46.8584l0.483398 -7.97266l-8.04688 0.976562c-29.2891 3.74219 -54.876 16.4326 -76.6016 37.7471l-10.6211 10.5752l-2.73535 -7.80957c-5.79395 -17.4092 -2.09277 -35.7939 9.97754 -48.1592
c6.43652 -6.83398 4.98828 -7.81055 -6.11523 -3.74219c-3.8623 1.30078 -7.24219 2.27734 -7.56445 1.78906c-1.12598 -1.13867 2.73633 -15.9443 5.79395 -21.8018c4.18359 -8.13477 12.7129 -16.1074 22.0469 -20.8262l7.88574 -3.74121l-9.33398 -0.163086
c-9.01172 0 -9.33398 -0.163086 -8.36816 -3.5791c3.21875 -10.5762 15.9316 -21.8027 30.0938 -26.6836l9.97754 -3.41699l-8.69043 -5.20605c-12.874 -7.48438 -28.001 -11.7148 -43.1289 -12.04c-7.24121 -0.162109 -13.1953 -0.813477 -13.1953 -1.30176
c0 -1.62695 19.6328 -10.7383 31.0586 -14.3174c34.2773 -10.5752 74.9922 -6.01953 105.568 12.04c21.7256 12.8535 43.4502 38.3975 53.5889 63.1279c5.47168 13.1787 10.9434 37.2588 10.9434 48.8105c0 7.48438 0.482422 8.45996 9.49414 17.4092
c5.31055 5.20605 10.2998 10.9004 11.2656 12.5273c1.6084 3.0918 1.44824 3.0918 -6.75977 0.326172c-13.6787 -4.88184 -15.6094 -4.23047 -8.85059 3.09082c4.98828 5.20605 10.9434 14.6436 10.9434 17.4092c0 0.488281 -2.41406 -0.325195 -5.15039 -1.79004
c-2.89648 -1.62695 -9.33301 -4.06738 -14.1611 -5.53125l-8.69043 -2.7666l-7.88477 5.36914c-4.3457 2.92871 -10.4609 6.18262 -13.6797 7.15918c-8.20703 2.27832 -20.7588 1.95215 -28.1621 -0.650391z" />
    <glyph glyph-name="uniF11A" unicode="&#xf11a;" 
d="M311.297 388.308c19.6074 16.4609 43.501 24.4941 67.2363 24.4941c29.8701 0 59.5195 -12.6982 80.1387 -37.3027c37.1133 -44.2285 31.4209 -110.105 -12.9824 -147.36l-34.6934 -29.1113c-32.1943 -27.0234 -75.917 -31.3252 -111.622 -14.6738l106.119 89.0732
c18.7705 15.7344 21.0791 43.4062 5.47168 62.0342c-15.6074 18.5801 -43.4062 21.0312 -62.0498 5.3916l-106.167 -89.0732c-10.2627 38.0293 1.5498 80.2979 33.8711 107.416zM299.627 277.949c5.13867 4.31738 11.4004 6.43555 17.6309 6.43555
c7.82715 0 15.5918 -3.33594 21.0625 -9.86719c9.77246 -11.6377 8.31836 -28.9375 -3.35156 -38.7256l-132.243 -110.958c-11.6221 -9.75684 -28.874 -8.30176 -38.6943 3.43066c-9.78809 11.6387 -8.33301 28.9219 3.33691 38.71zM94.5029 206.396
c19.6074 16.4453 43.501 24.4785 67.252 24.4785c15.2432 0 30.4238 -3.30566 44.3867 -9.80469l-106.136 -89.0576c-18.7705 -15.75 -21.0791 -43.4375 -5.45605 -62.0498c15.5918 -18.5801 43.4062 -21.0312 62.0498 -5.3916l106.167 89.0732
c10.2471 -38.0459 -1.54883 -80.2979 -33.8711 -107.416l-34.6934 -29.1113c-44.291 -37.1611 -110.342 -31.3418 -147.375 12.8076c-37.1133 44.2285 -31.4199 110.105 12.9824 147.36z" />
    <glyph glyph-name="uniF116" unicode="&#xf116;" 
d="M273.745 123.35c13.292 7.69824 22.2549 22.0762 22.2549 38.541c0 24.5322 -19.9277 44.5098 -44.5088 44.5098c-24.5322 0 -44.5098 -19.9277 -44.5098 -44.5098c0 -16.4404 8.95117 -30.8359 22.2549 -38.543v-52.3203c0 -11.3037 9.14746 -20.4092 20.4307 -20.4092
h3.64746c11.209 0 20.4307 9.1377 20.4307 20.4092v52.3223zM117.964 273.164v128.813c0 11.2783 9.19238 20.4229 20.5117 20.4229h226.03c11.3291 0 20.5127 -9.16016 20.5127 -20.4229v-128.813h46.3477c11.2754 0 20.416 -9.15625 20.416 -20.4434v-270.678
c0 -11.29 -9.12012 -20.4434 -20.416 -20.4434h-359.751c-11.2744 0 -20.415 9.15625 -20.415 20.4434v270.678c0 11.29 9.11914 20.4434 20.415 20.4434h46.3486zM184.728 335.084v-76.3594h133.527v76.3594c0 11.2598 -9.20996 20.5527 -20.5713 20.5527h-92.3857
c-11.3926 0 -20.5703 -9.20215 -20.5703 -20.5527z" />
    <glyph glyph-name="uniF10F" unicode="&#xf10f;" 
d="M380.404 355.874l-54.9375 54.9375l160.268 5.16992l-5.16992 -160.268l-45.8545 45.8545l-157.244 -157.244c-9.96387 -9.96484 -26.1719 -9.91211 -36.125 0.0410156l-18.1396 18.1396c-9.9873 9.9873 -9.93164 26.2344 -0.0410156 36.125zM254.293 422.4v-75.459
h-140.425c-7.08105 0 -12.8096 -5.73535 -12.8096 -12.8096v-281.582c0 -7.08105 5.73535 -12.8086 12.8096 -12.8086h281.582c7.08105 0 12.8086 5.73438 12.8086 12.8086v136.891h78.1416v-202.244c0 -14.1367 -11.3906 -25.5967 -25.5967 -25.5967h-409.607
c-14.1367 0 -25.5967 11.3906 -25.5967 25.5967v409.607c0 14.1367 11.3906 25.5967 25.5967 25.5967h203.097z" />
    <glyph glyph-name="uniF10C" unicode="&#xf10c;" 
d="M415.098 410.031c6.93262 6.93359 16.0176 10.418 25.1016 10.418c9.12012 0 18.2402 -3.48438 25.2266 -10.4707l12.4629 -12.4629c13.9023 -13.9199 13.9727 -36.4082 0.0527344 -50.3281l-157.138 -157.139l157.138 -157.155
c13.8848 -13.8662 13.9023 -36.373 -0.0527344 -50.3105l-12.4629 -12.4443c-13.9014 -13.9385 -36.4082 -14.0098 -50.3281 -0.0888672l-157.138 157.138l-157.138 -157.138c-13.8848 -13.8848 -36.3916 -13.9023 -50.3467 0.0888672l-12.4443 12.4443
c-13.9209 13.9023 -13.9912 36.3906 -0.0712891 50.3105l157.138 157.155l-157.138 157.139c-13.8672 13.8662 -13.9023 36.373 0.0712891 50.3281l12.4443 12.4629c13.9199 13.9023 36.4082 13.9727 50.3467 0.0527344l157.138 -157.138z" />
    <glyph glyph-name="uniF11F" unicode="&#xf11f;" 
d="M410.291 354.2c6.97656 8.61426 17.1904 13.082 27.4941 13.082c7.83398 0 15.7188 -2.58594 22.2725 -7.89746c15.1934 -12.3008 17.5615 -34.5605 5.27344 -49.7539l-230.259 -284.326c-11.0977 -13.709 -30.3623 -16.9219 -45.1582 -8.37109
c-3.34082 1.66309 -6.47754 3.89062 -9.26758 6.68066l-129.024 129.024c-13.8623 13.8877 -13.875 36.3652 -0.0761719 50.1631c13.8232 13.8242 36.2363 13.8242 50.1504 -0.0761719l102.745 -102.759z" />
    <glyph glyph-name="uniF107" unicode="&#xf107;" 
d="M140.8 409.6l230.4 -230.399l-230.4 -230.4v460.8z" />
    <glyph glyph-name="uniF110" unicode="&#xf110;" 
d="M256 241.234c25.6006 0 51.2041 -24.6172 51.2041 -49.2344s-22.9336 -49.2344 -51.2041 -49.2344c-28.2744 0 -51.1992 22.0801 -51.1992 49.2344c0 27.2002 25.5986 49.2344 51.1992 49.2344zM256 93.5771v0c56.5586 0 102.403 44.0684 102.403 98.4229
c0 54.4004 -45.8447 98.4688 -102.403 98.4688c-56.5537 0 -102.399 -44.0684 -102.399 -98.4688c0 -54.3545 45.8457 -98.4229 102.399 -98.4229zM25.5996 192c0 17.5547 79.249 128 230.4 128c151.147 0 230.4 -110.445 230.4 -128c0 -17.5088 -79.2529 -128 -230.4 -128
c-151.151 0 -230.4 110.491 -230.4 128z" />
    <glyph glyph-name="uniF109" unicode="&#xf109;" 
d="M292.379 228.379h157.671c20.0752 0 36.3506 -16.3281 36.3506 -36.3789c0 -20.0918 -16.4004 -36.3789 -36.3506 -36.3789h-157.671v-157.671c0 -20.0752 -16.3281 -36.3506 -36.3789 -36.3506c-20.0918 0 -36.3789 16.4004 -36.3789 36.3506v157.671h-157.671
c-20.0752 0 -36.3506 16.3281 -36.3506 36.3789c0 20.0918 16.4004 36.3789 36.3506 36.3789h157.671v157.671c0 20.0752 16.3281 36.3506 36.3789 36.3506c20.0918 0 36.3789 -16.4004 36.3789 -36.3506v-157.671z" />
    <glyph glyph-name="uniF108" unicode="&#xf108;" 
d="M256 307.2l230.4 -230.4h-460.801z" />
    <glyph glyph-name="uniF117" unicode="&#xf117;" 
d="M450.887 258.725c0.582031 -1.89844 0.895508 -3.91504 0.895508 -6.00391v-270.678c0 -11.29 -9.12012 -20.4434 -20.416 -20.4434h-359.751c-11.2744 0 -20.415 9.15625 -20.415 20.4434v270.678c0 11.29 9.11914 20.4434 20.415 20.4434h46.3486v128.813
c0 11.2783 9.19238 20.4229 20.5117 20.4229h226.03c11.3291 0 20.5127 -9.16016 20.5127 -20.4229v-46.3408h-179.887c-11.1719 0 -20.4043 -9.20215 -20.4043 -20.5527v-76.3594h266.159zM273.745 123.35c13.292 7.69824 22.2549 22.0762 22.2549 38.541
c0 24.5322 -19.9277 44.5098 -44.5088 44.5098c-24.5322 0 -44.5098 -19.9277 -44.5098 -44.5098c0 -16.4404 8.95117 -30.8359 22.2549 -38.543v-52.3203c0 -11.3037 9.14746 -20.4092 20.4307 -20.4092h3.64746c11.209 0 20.4307 9.1377 20.4307 20.4092v52.3223z" />
    <glyph glyph-name="uniF11B" unicode="&#xf11b;" 
d="M254.477 85.9268l-142.399 -101.773l40.6523 172.02l-128.652 98.8291l172.659 9.67676l57.7402 157.722l57.7412 -157.722l172.659 -9.67676l-128.653 -98.8291l40.6533 -172.02z" />
    <glyph glyph-name="uniF114" unicode="&#xf114;" 
d="M12.7998 323.051c0 19.5225 15.7988 35.3496 35.3125 35.3496h3.01953c19.502 0 35.3115 -15.8662 35.3115 -35.3496c0 -19.5225 -15.7979 -35.3486 -35.3115 -35.3486h-3.01953c-19.5029 0 -35.3125 15.8662 -35.3125 35.3486zM12.7998 196.384
c0 19.5225 15.7988 35.3486 35.3125 35.3486h3.01953c19.502 0 35.3115 -15.8662 35.3115 -35.3486c0 -19.5234 -15.7979 -35.3496 -35.3115 -35.3496h-3.01953c-19.5029 0 -35.3125 15.8662 -35.3125 35.3496zM12.7998 69.7158c0 19.5234 15.7988 35.3496 35.3125 35.3496
h3.01953c19.502 0 35.3115 -15.8662 35.3115 -35.3496c0 -19.5225 -15.7979 -35.3486 -35.3115 -35.3486h-3.01953c-19.5029 0 -35.3125 15.8662 -35.3125 35.3486zM120.109 321.578c0 20.3359 16.5752 36.8223 36.8291 36.8223h279.832
c20.3408 0 36.8291 -16.5273 36.8291 -36.8223c0 -20.3359 -16.5752 -36.8223 -36.8291 -36.8223h-279.832c-20.3398 0 -36.8291 16.5273 -36.8291 36.8223zM120.109 194.911c0 20.3359 16.5752 36.8213 36.8291 36.8213h279.832
c20.3408 0 36.8291 -16.5273 36.8291 -36.8213c0 -20.3369 -16.5752 -36.8223 -36.8291 -36.8223h-279.832c-20.3398 0 -36.8291 16.5273 -36.8291 36.8223zM120.109 68.2432c0 20.3359 16.5752 36.8223 36.8291 36.8223h279.832
c20.3408 0 36.8291 -16.5273 36.8291 -36.8223c0 -20.3359 -16.5752 -36.8223 -36.8291 -36.8223h-279.832c-20.3398 0 -36.8291 16.5273 -36.8291 36.8223z" />
    <glyph glyph-name="uniF111" unicode="&#xf111;" 
d="M25.5996 383.905c0 21.2598 17.2236 38.4951 38.4951 38.4951h383.811c21.2598 0 38.4951 -17.2236 38.4951 -38.4951v-383.811c0 -21.2598 -17.2236 -38.4951 -38.4951 -38.4951h-383.811c-21.2598 0 -38.4951 17.2236 -38.4951 38.4951v383.811zM223.477 66.665
h51.7891v125.35h34.5527l4.57812 43.1963h-39.1309l0.0585938 21.6201c0 11.2666 1.06934 17.3027 17.2275 17.3027h21.6006v43.2012h-34.5566c-41.5088 0 -56.1191 -20.9551 -56.1191 -56.1943v-25.9346h-25.873v-43.1963h25.873v-125.345z" />
    <glyph glyph-name="uniF104" unicode="&#xf104;" 
d="M256 76.7998l-230.4 230.4h460.801z" />
    <glyph glyph-name="uniF113" unicode="&#xf113;" 
d="M320.898 269.197l-0.800781 -248.459c0 -21.4326 17.4766 -34.2656 52.4307 -38.5v-20.2412l-218.929 -0.397461v19.8457c17.0771 0 30.2852 3.1084 39.624 9.32715c9.33887 6.21777 14.0078 15.0156 14.0078 26.3936v169.476
c0 21.6973 -17.7432 34.5303 -53.2314 38.499l0.400391 25.4023zM264.465 422.4c16.543 0 30.3516 -5.55664 41.4248 -16.6699s16.6094 -24.8721 16.6094 -41.2773c0 -15.876 -5.53613 -29.3711 -16.6094 -40.4844s-24.4814 -16.6699 -40.2236 -16.6699
c-17.0771 0 -31.2188 5.16016 -42.4248 15.4795c-11.207 10.3193 -16.8105 23.417 -16.8105 39.293c0 17.7285 5.40332 32.2148 16.21 43.4609c10.8066 11.2451 24.748 16.8682 41.8242 16.8682v0z" />
    <glyph glyph-name="uniF10B" unicode="&#xf10b;" 
d="M283.858 327.529h88.0947l-121.977 -135.529l-121.977 135.529h88.0938v94.8711h67.7646v-94.8711zM216.094 56.4707h-88.0938l121.977 135.529l121.977 -135.529h-88.0947v-94.8711h-67.7646v94.8711z" />
    <glyph glyph-name="uniF119" unicode="&#xf119;" 
d="M72.8184 362.382c34.6885 34.6729 80.0908 52.0166 125.493 52.0166c45.418 0 90.8203 -17.3438 125.509 -52.0166c69.3623 -69.3623 69.3623 -181.625 0 -251.003c-69.3779 -69.3613 -181.641 -69.3613 -251.002 0c-69.3623 69.3779 -69.3623 181.641 0 251.003z
M129.854 168.43c18.877 -18.877 43.6758 -28.3154 68.458 -28.3154c24.7979 0 49.5811 9.43848 68.458 28.3154c37.7539 37.7549 37.7539 99.1621 0 136.917c-37.7549 37.7383 -99.1621 37.7383 -136.916 0c-37.7383 -37.7549 -37.7383 -99.1621 0 -136.917zM346.57 111.347
c6.34082 6.32422 14.6494 9.4707 22.9268 9.4707c8.24512 0 16.457 -3.12988 22.6846 -9.3418l80.043 -80.043c12.5361 -12.5518 12.5039 -32.9297 -0.145508 -45.5957l-11.3096 -11.2939c-12.6338 -12.6328 -33.124 -12.6006 -45.5957 -0.144531l-80.0273 80.042
c-12.5684 12.5371 -12.5361 32.9141 0.129883 45.5957z" />
    <glyph glyph-name="uniF106" unicode="&#xf106;" 
d="M140.8 192l230.4 230.387v-460.787z" />
    <glyph glyph-name="uniF10E" unicode="&#xf10e;" 
d="M181.258 -6.25488h128.809c8.92676 0 16.1631 -7.13379 16.1631 -16.0723c0 -8.87695 -7.13477 -16.0732 -16.1631 -16.0732h-268.304c-8.92578 0 -16.1631 7.13477 -16.1631 16.0732c0 8.87598 7.13477 16.0723 16.1631 16.0723h26.7051l17.2021 97.5547
c1.13086 6.41504 5.41211 11.4756 10.9873 13.8301c0.705078 1.64355 1.66211 3.21484 2.875 4.66113l230.362 274.535c2.55566 3.0459 5.86719 5.0752 9.42285 6.0332l16.4609 19.6182c13.5459 16.1426 37.6162 18.2451 53.8232 4.64551l63.7178 -53.4658
c16.1807 -13.5762 18.3564 -37.6211 4.77051 -53.8115l-40.8398 -48.6719l-4.25684 3.57227l-211.149 -251.638c-4.45703 -5.31152 -11.2139 -7.5332 -17.5498 -6.37012c-1.92188 -2.04785 -4.34668 -3.69043 -7.18457 -4.72363zM404.767 285.931l-23.2969 19.5488
c-0.46875 -1.44141 -1.21777 -2.82031 -2.25781 -4.05957l-184.071 -219.367c-4.32422 -5.15332 -12.0059 -5.82715 -17.2383 -1.43652c-5.19629 4.36035 -5.94141 12.0264 -1.5791 17.2266l184.071 219.366c1.03711 1.23633 2.2666 2.21387 3.60938 2.92676
l-23.3984 19.6328l-212.848 -253.662c-1.83008 -2.18066 -4.04688 -3.83984 -6.46387 -4.95898l-6.75879 -38.334c6.78516 1.10254 14.0107 -0.657227 19.752 -5.47461c5.64355 -4.73535 8.62305 -11.4678 8.78125 -18.2822l41.4395 15.082
c3.21582 1.1709 6.54199 1.40137 9.6748 0.827148z" />
    <glyph glyph-name="uniF112" unicode="&#xf112;" 
d="M25.5996 383.905c0 21.2598 17.2236 38.4951 38.4951 38.4951h383.811c21.2598 0 38.4951 -17.2236 38.4951 -38.4951v-383.811c0 -21.2598 -17.2236 -38.4951 -38.4951 -38.4951h-383.811c-21.2598 0 -38.4951 17.2236 -38.4951 38.4951v383.811zM464.673 277.739
c-2.29492 8.13574 -5.0498 16.0781 -8.23438 23.7969h-43.1191v56.6738h-24.207v-56.6738h-56.4805v-23.7969h56.4805v-57.1758h24.207v57.1758h51.3535zM39.1533 218.353c0 -71.6592 34.5186 -135.229 87.7812 -174.877
c-0.811523 3.66211 -1.22754 7.46484 -1.22754 11.3877c0 36.0928 32.335 48.3066 43.416 52.3164c21.2539 7.10938 48.5029 8.02148 53.0439 8.02148c5.08691 0 7.62988 0 11.627 -0.365234c38.5107 -27.5254 55.042 -41.1973 55.042 -67.082
c0 -20.5488 -11.002 -37.6523 -32.2383 -47c11.7637 0.03125 23.3076 1.00391 34.5605 2.84473c20.9141 17.7783 31.6475 40.9443 31.6475 64.0244c0 35 -20.1641 52.3174 -42.5078 70.9111l-18.166 14.2178c-5.63086 4.55762 -13.0791 10.7559 -13.0791 21.875
c0 11.1201 7.44824 18.2285 14.1689 24.791c21.0732 16.7705 42.3271 34.4531 42.3271 72.0039c0 38.6094 -24.1611 58.8975 -35.7871 68.541h31.2451l32.335 18.2471h-104.09c-27.249 0 -61.582 -4.06543 -90.4658 -27.8906
c-21.6172 -18.7568 -32.335 -44.6787 -32.335 -68.0117c0 -39.5566 30.3369 -79.6602 83.9258 -79.6602c5.08691 0 10.5361 0.546875 16.168 1.09375c-2.54297 -6.01562 -5.08691 -11.1191 -5.08691 -19.6865c0 -15.8594 8.1748 -25.5205 15.2598 -34.6357
c-22.8887 -1.45801 -65.2148 -4.00977 -96.6426 -23.333c-13.9277 -8.2666 -23.3291 -18.3262 -29.3926 -28.5576c-32.1396 37.9541 -51.5293 87.1172 -51.5293 140.824zM248.508 211.085c-8.1748 -8.02051 -21.7988 -14.2188 -34.333 -14.2188
c-43.5986 0 -63.2178 56.3271 -63.2178 90.415c0 13.125 2.54395 26.7969 11.082 37.4424c8.17383 10.1533 22.3438 16.752 35.4229 16.752c41.9629 0 63.5801 -56.7461 63.5801 -93.3867c0 -9.11426 -0.908203 -25.3379 -12.5342 -37.0039z" />
    <glyph glyph-name="uniF11D" unicode="&#xf11d;" 
d="M455.188 336c13.4902 0 9.99023 -48 9.99023 -48h-411.527s-3.47559 96 10.0146 96h103.422c13.4658 0 84.707 -48 98.1729 -48h189.928zM277.774 177.597l47.2109 -47.2119c4.78711 -4.78711 12.4893 -4.79395 17.2354 -0.0478516
c4.7793 4.7793 4.72461 12.4629 -0.0478516 17.2354l-64.917 64.917c-3.4209 3.4209 -8.33008 4.40039 -12.585 2.94922c-4.26953 1.46777 -9.18359 0.470703 -12.6035 -2.94922l-64.917 -64.917c-4.78711 -4.78711 -4.79395 -12.4893 -0.0478516 -17.2354
c4.7793 -4.7793 12.4629 -4.72461 17.2354 0.0478516l49.4365 49.4365v-127.615c0 -6.68555 5.37207 -11.9648 12 -11.9648c6.67285 0 12 5.35645 12 11.9648v125.391zM27.2305 264h457.539c8.3125 0 -17.3789 -264 -27.0283 -264h-403.482
c-9.64941 0 -35.3408 264 -27.0283 264z" />
    <glyph glyph-name="uniF118" unicode="&#xf118;" 
d="M375.209 47.25l1.37988 -1.50586c-37.2754 -34.1875 -86.9678 -55.0537 -141.534 -55.0537c-115.679 0 -209.455 93.7764 -209.455 209.455s93.7764 209.454 209.455 209.454c110.986 0 201.811 -86.3223 208.996 -195.49h42.3496l-83.7822 -83.7822l-83.7822 83.7822
h55.165c-7.00586 70.5625 -66.54 125.673 -138.946 125.673c-77.1191 0 -139.637 -62.5176 -139.637 -139.637s62.5176 -139.637 139.637 -139.637c31.4248 0 60.4248 10.3809 83.7578 27.8994c6.36816 8.49512 16.5176 13.9922 27.9512 13.9922
c19.2793 0 34.9092 -15.6299 34.9092 -34.9092c0 -7.5459 -2.39453 -14.5322 -6.46387 -20.2412z" />
    <glyph glyph-name="uniF120" unicode="&#xf120;" 
d="M422.108 378.928c7.44043 9.18945 18.3369 13.9541 29.3281 13.9541c8.35547 0 16.7666 -2.75781 23.7568 -8.42383c16.207 -13.1221 18.7334 -36.8652 5.62598 -53.0723l-245.617 -303.291c-11.8379 -14.623 -32.3867 -18.0498 -48.1709 -8.92871
c-3.56348 1.77441 -6.9082 4.15039 -9.88477 7.12695l-137.63 137.63c-14.7871 14.8135 -14.8008 38.79 -0.0820312 53.5088c14.7461 14.7461 38.6543 14.7461 53.4961 -0.0820312l109.598 -109.612z" />
    <glyph glyph-name="uniF115" unicode="&#xf115;" 
d="M442.086 192v0c0 -28.7285 17.6807 -51.4062 44.3145 -66.9912c-4.78906 -16.041 -11.1533 -31.4004 -18.9756 -45.8662c-29.8643 7.81738 -54.0342 -3.88965 -74.3584 -24.209c-20.3135 -20.3184 -26.5293 -44.5 -18.7178 -74.3525
c-14.46 -7.82812 -29.8145 -14.1865 -45.8662 -18.9814c-15.5898 26.6279 -43.748 44.3193 -72.4824 44.3193c-28.7236 0 -56.8818 -17.6914 -72.4717 -44.3193c-16.0459 4.78418 -31.4004 11.1533 -45.8662 18.9697c7.81152 29.8701 1.59668 54.0459 -18.7168 74.3643
c-20.3252 20.3193 -44.501 26.54 -74.3701 18.7227c-7.82227 14.4609 -14.1748 29.8203 -18.9756 45.8662c26.6338 15.585 44.3193 43.749 44.3193 72.4775s-17.6855 51.4121 -44.3193 67.0029c4.80078 16.0293 11.1533 31.3887 18.9756 45.8438
c29.8643 -7.80664 54.0449 3.89453 74.3701 24.2139c20.3135 20.3242 26.5283 44.5059 18.7168 74.3701c14.46 7.81641 29.8145 14.1807 45.8555 18.9697c15.6006 -26.6387 43.7588 -44.3193 72.4824 -44.3193c28.7344 0 56.8926 17.6807 72.4824 44.3193
c16.0459 -4.79492 31.4004 -11.1533 45.8662 -18.9814c-7.82227 -29.8584 -1.5957 -54.0449 18.7178 -74.3584c20.3242 -20.3135 44.5 -32.0205 74.3584 -24.2031c7.82227 -14.46 14.1865 -29.8203 18.9756 -45.8545c-26.6338 -15.5908 -44.3145 -38.2744 -44.3145 -67.0029
zM256 91.8037v0c55.3398 0 100.202 44.8623 100.202 100.202s-44.8623 100.202 -100.202 100.202c-55.334 0 -100.191 -44.8623 -100.191 -100.202c0 -55.335 44.8574 -100.202 100.191 -100.202z" />
    <glyph glyph-name="uniF10D" unicode="&#xf10d;" 
d="M102.4 192c0 84.8311 68.7686 153.6 153.6 153.6s153.6 -68.7686 153.6 -153.6s-68.7686 -153.6 -153.6 -153.6s-153.6 68.7686 -153.6 153.6z" />
  </font>
</defs>
</svg>
