<?xml version="1.0" encoding="UTF-8" standalone="no"?>
<svg width="77px" height="76px" viewBox="0 0 77 76" version="1.1" xmlns="http://www.w3.org/2000/svg" xmlns:xlink="http://www.w3.org/1999/xlink" xmlns:sketch="http://www.bohemiancoding.com/sketch/ns">
    <!-- Generator: Sketch 3.3.3 (12072) - http://www.bohemiancoding.com/sketch -->
    <title>add</title>
    <desc>Created with Sketch.</desc>
    <defs></defs>
    <g id="Resources" stroke="none" stroke-width="1" fill="none" fill-rule="evenodd" sketch:type="MSPage">
        <path d="M44.9228412,32 L44.9228412,5.99531974 C44.9228412,2.68255679 42.2365497,0 38.9228412,0 C35.6158755,0 32.9228412,2.68419608 32.9228412,5.99531974 L32.9228412,32 L6.91816097,32 C3.60539803,32 0.922841238,34.6862915 0.922841238,38 C0.922841238,41.3069658 3.60703731,44 6.91816097,44 L32.9228412,44 L32.9228412,70.0046803 C32.9228412,73.3174432 35.6091327,76 38.9228412,76 C42.229807,76 44.9228412,73.3158039 44.9228412,70.0046803 L44.9228412,44 L70.9275215,44 C74.2402844,44 76.9228412,41.3137085 76.9228412,38 C76.9228412,34.6930342 74.2386452,32 70.9275215,32 L44.9228412,32 Z" id="add" fill="#333333" sketch:type="MSShapeGroup"></path>
    </g>
</svg>