<?xml version="1.0" encoding="UTF-8" standalone="no"?>
<svg width="77px" height="76px" viewBox="0 0 77 76" version="1.1" xmlns="http://www.w3.org/2000/svg" xmlns:xlink="http://www.w3.org/1999/xlink" xmlns:sketch="http://www.bohemiancoding.com/sketch/ns">
    <!-- Generator: Sketch 3.5.2 (25235) - http://www.bohemiancoding.com/sketch -->
    <title>add</title>
    <desc>Created with Sketch.</desc>
    <defs></defs>
    <g id="Resources" stroke="none" stroke-width="1" fill="none" fill-rule="evenodd" sketch:type="MSPage">
        <g id="Icons" sketch:type="MSLayerGroup" transform="translate(-392.000000, -123.000000)" fill="#333333">
            <path d="M436.922841,155 L436.922841,128.99532 C436.922841,125.682557 434.23655,123 430.922841,123 C427.615875,123 424.922841,125.684196 424.922841,128.99532 L424.922841,155 L398.918161,155 C395.605398,155 392.922841,157.686292 392.922841,161 C392.922841,164.306966 395.607037,167 398.918161,167 L424.922841,167 L424.922841,193.00468 C424.922841,196.317443 427.609133,199 430.922841,199 C434.229807,199 436.922841,196.315804 436.922841,193.00468 L436.922841,167 L462.927522,167 C466.240284,167 468.922841,164.313708 468.922841,161 C468.922841,157.693034 466.238645,155 462.927522,155 L436.922841,155 Z" id="add" sketch:type="MSShapeGroup"></path>
        </g>
    </g>
</svg>