<?xml version="1.0" encoding="UTF-8" standalone="no"?>
<svg width="74px" height="55px" viewBox="0 0 74 55" version="1.1" xmlns="http://www.w3.org/2000/svg" xmlns:xlink="http://www.w3.org/1999/xlink" xmlns:sketch="http://www.bohemiancoding.com/sketch/ns">
    <!-- Generator: Sketch 3.3.3 (12072) - http://www.bohemiancoding.com/sketch -->
    <title>adduser</title>
    <desc>Created with Sketch.</desc>
    <defs></defs>
    <g id="Resources" stroke="none" stroke-width="1" fill="none" fill-rule="evenodd" sketch:type="MSPage">
        <path d="M15.1363636,25.9666928 L15.1363636,18.3985271 C15.1363636,17.0087561 14.0069002,15.8757837 12.6136364,15.8757837 C11.210659,15.8757837 10.0909091,17.0052544 10.0909091,18.3985271 L10.0909091,25.9666928 L2.52274337,25.9666928 C1.13297243,25.9666928 2.39785297e-16,27.0961563 1.54472494e-16,28.4894201 C6.85649061e-17,29.8923974 1.12947068,31.0121473 2.52274337,31.0121473 L10.0909091,31.0121473 L10.0909091,38.5803131 C10.0909091,39.970084 11.2203726,41.1030564 12.6136364,41.1030564 C14.0166137,41.1030564 15.1363636,39.9735857 15.1363636,38.5803131 L15.1363636,31.0121473 L22.7045294,31.0121473 C24.0943003,31.0121473 25.2272727,29.8826839 25.2272727,28.4894201 C25.2272727,27.0864427 24.097802,25.9666928 22.7045294,25.9666928 L15.1363636,25.9666928 Z M61.6821802,40.8364141 C54.2391955,38.1083182 51.860049,35.8071705 51.860049,30.8793497 C51.860049,27.9210783 54.1329189,28.8873295 55.1304697,23.4700063 C55.5447068,21.2229104 57.5518853,23.4335669 57.9359302,18.3035076 C57.9359302,16.2586503 56.8405567,15.750928 56.8405567,15.750928 C56.8405567,15.750928 57.3973011,12.7252437 57.6152889,10.3967664 C57.8852073,7.49558333 55.9486787,0 45.6187143,0 C35.28875,0 33.3510137,7.49558333 33.6221397,10.3967664 C33.8401275,12.7252437 34.396872,15.750928 34.396872,15.750928 C34.396872,15.750928 33.3014984,16.2586503 33.3014984,18.3035076 C33.6849396,23.4335669 35.692118,21.2229104 36.1063552,23.4700063 C37.1051136,28.8867222 39.3767759,27.9210783 39.3767759,30.8793497 C39.3767759,35.8065631 36.998837,38.1077109 29.5558523,40.8364141 C22.0893176,43.5730126 17.2386364,46.3630556 17.2386364,48.2657992 L17.2386364,54.6590909 L45.6193182,54.6590909 L74,54.6590909 L74,48.2657992 C73.9993962,46.3624482 69.1487149,43.5730126 61.6821802,40.8364141 Z" id="adduser" fill="#333333" sketch:type="MSShapeGroup"></path>
    </g>
</svg>