<?xml version="1.0" encoding="UTF-8" standalone="no"?>
<svg width="74px" height="55px" viewBox="0 0 74 55" version="1.1" xmlns="http://www.w3.org/2000/svg" xmlns:xlink="http://www.w3.org/1999/xlink" xmlns:sketch="http://www.bohemiancoding.com/sketch/ns">
    <!-- Generator: Sketch 3.5.2 (25235) - http://www.bohemiancoding.com/sketch -->
    <title>adduser</title>
    <desc>Created with Sketch.</desc>
    <defs></defs>
    <g id="Resources" stroke="none" stroke-width="1" fill="none" fill-rule="evenodd" sketch:type="MSPage">
        <g id="Icons" sketch:type="MSLayerGroup" transform="translate(-844.000000, -133.000000)" fill="#333333">
            <path d="M859.136364,158.966693 L859.136364,151.398527 C859.136364,150.008756 858.0069,148.875784 856.613636,148.875784 C855.210659,148.875784 854.090909,150.005254 854.090909,151.398527 L854.090909,158.966693 L846.522743,158.966693 C845.132972,158.966693 844,160.096156 844,161.48942 C844,162.892397 845.129471,164.012147 846.522743,164.012147 L854.090909,164.012147 L854.090909,171.580313 C854.090909,172.970084 855.220373,174.103056 856.613636,174.103056 C858.016614,174.103056 859.136364,172.973586 859.136364,171.580313 L859.136364,164.012147 L866.704529,164.012147 C868.0943,164.012147 869.227273,162.882684 869.227273,161.48942 C869.227273,160.086443 868.097802,158.966693 866.704529,158.966693 L859.136364,158.966693 Z M905.68218,173.836414 C898.239195,171.108318 895.860049,168.80717 895.860049,163.87935 C895.860049,160.921078 898.132919,161.88733 899.13047,156.470006 C899.544707,154.22291 901.551885,156.433567 901.93593,151.303508 C901.93593,149.25865 900.840557,148.750928 900.840557,148.750928 C900.840557,148.750928 901.397301,145.725244 901.615289,143.396766 C901.885207,140.495583 899.948679,133 889.618714,133 C879.28875,133 877.351014,140.495583 877.62214,143.396766 C877.840128,145.725244 878.396872,148.750928 878.396872,148.750928 C878.396872,148.750928 877.301498,149.25865 877.301498,151.303508 C877.68494,156.433567 879.692118,154.22291 880.106355,156.470006 C881.105114,161.886722 883.376776,160.921078 883.376776,163.87935 C883.376776,168.806563 880.998837,171.107711 873.555852,173.836414 C866.089318,176.573013 861.238636,179.363056 861.238636,181.265799 L861.238636,187.659091 L889.619318,187.659091 L918,187.659091 L918,181.265799 C917.999396,179.362448 913.148715,176.573013 905.68218,173.836414 Z" id="adduser" sketch:type="MSShapeGroup"></path>
        </g>
    </g>
</svg>