<svg xmlns="http://www.w3.org/2000/svg" width="80" height="80" viewBox="0 0 80 80" style="background:#fff">
  <path fill="#2980B9" fill-rule="evenodd" d="M58,42.53125 L58,42.53125 L74,42.53125 L74,70.965421 C74,72.0890879 73.0901515,73 71.9648951,73 L8.03510493,73 C6.91114751,73 6,72.0881308 6,70.965421 L6,42.53125 L22,42.53125 L22,42.53125 L2,42.53125 L2,22.21875 L78,22.21875 L78,42.53125 L58,42.53125 Z M22,43.546875 L13,43.546875 L13,65.890625 L67,65.890625 L67,43.546875 L58,43.546875 L58,52.6875 L22,52.6875 L22,43.546875 Z M12,8 L68,8 L78,22.21875 L2,22.21875 L12,8 Z M15,15.109375 L10,22.21875 L70,22.21875 L65,15.109375 L15,15.109375 Z M10,27.296875 L10,37.453125 L70,37.453125 L70,27.296875 L10,27.296875 Z M28,43.546875 L28,47.609375 L53,47.609375 L53,43.546875 L28,43.546875 Z"/>
</svg>
