<?xml version="1.0" encoding="UTF-8" standalone="no"?>
<svg width="63px" height="70px" viewBox="0 0 63 70" version="1.1" xmlns="http://www.w3.org/2000/svg" xmlns:xlink="http://www.w3.org/1999/xlink" xmlns:sketch="http://www.bohemiancoding.com/sketch/ns">
    <!-- Generator: Sketch 3.5.2 (25235) - http://www.bohemiancoding.com/sketch -->
    <title>attachment</title>
    <desc>Created with Sketch.</desc>
    <defs>
        <filter x="-50%" y="-50%" width="200%" height="200%" filterUnits="objectBoundingBox" id="filter-1">
            <feOffset dx="0" dy="3" in="SourceAlpha" result="shadowOffsetOuter1"></feOffset>
            <feGaussianBlur stdDeviation="1.5" in="shadowOffsetOuter1" result="shadowBlurOuter1"></feGaussianBlur>
            <feColorMatrix values="0 0 0 0 1   0 0 0 0 1   0 0 0 0 1  0 0 0 0.7 0" in="shadowBlurOuter1" type="matrix" result="shadowMatrixOuter1"></feColorMatrix>
            <feMerge>
                <feMergeNode in="shadowMatrixOuter1"></feMergeNode>
                <feMergeNode in="SourceGraphic"></feMergeNode>
            </feMerge>
        </filter>
    </defs>
    <g id="Resources" stroke="none" stroke-width="1" fill="none" fill-rule="evenodd" sketch:type="MSPage">
        <g id="Icons" sketch:type="MSLayerGroup" transform="translate(-848.000000, -35.000000)" fill="#333333">
            <g id="attachment" transform="translate(851.000000, 35.000000)" sketch:type="MSShapeGroup">
                <path d="M16.3842912,12.0586993 L16.3842912,2.94229495 C16.3842912,1.67914399 15.3639235,0.656435519 14.1052363,0.656435519 C12.8377737,0.656435519 11.8261814,1.67984965 11.8261814,2.94229495 L11.8261814,12.0586993 L2.70977703,12.0586993 C1.44662606,12.0586993 0.423917589,13.0790669 0.423917589,14.3377542 C0.423917589,15.6052168 1.44733172,16.6168091 2.70977703,16.6168091 L11.8261814,16.6168091 L11.8261814,25.7332134 C11.8261814,26.9963644 12.846549,28.0190729 14.1052363,28.0190729 C15.3726989,28.0190729 16.3842912,26.9956588 16.3842912,25.7332134 L16.3842912,16.6168091 L25.5006955,16.6168091 C26.7638465,16.6168091 27.786555,15.5964415 27.786555,14.3377542 C27.786555,13.0702916 26.7631408,12.0586993 25.5006955,12.0586993 L16.3842912,12.0586993 Z" id="Path" filter="url(#filter-1)"></path>
                <path d="M37.3982574,35.4430013 L50.4787831,21.435312 L54.438581,25.6757854 L25.0079041,57.1925447 L24.9768317,57.1592699 L24.9768317,57.1592699 C24.8115349,57.3802574 24.6332341,57.5937718 24.4419295,57.7986363 C21.6287175,60.8112522 17.0687646,60.8124998 14.2569897,57.8014229 C11.4452148,54.7903459 11.4463798,49.907178 14.2595919,46.894562 C14.4508964,46.6896976 14.6502784,46.4987586 14.8566389,46.3217454 L14.8566389,46.3217454 L14.8255665,46.2884705 L36.6106875,22.9591934 C37.7074202,21.7847229 39.4851538,21.7842714 40.5763968,22.952863 C41.6698648,24.1238374 41.6678313,26.0245397 40.5704855,27.1996667 L31.8787124,36.5075233 L18.2176407,51.1369085 C17.5955027,51.8031444 17.5939727,52.889654 18.2188116,53.5587822 C18.8480067,54.2325755 19.8561902,54.2284718 20.4803824,53.5600361 L37.3982574,35.4430013 L37.3982574,35.4430013 Z M31.2165477,63.8412646 C31.0382807,64.0519313 30.8542545,64.2589997 30.6644692,64.4622372 C24.4128869,71.1569393 14.2796583,71.1597118 8.03126959,64.4684297 C1.78288093,57.7771476 1.7854699,46.9256633 8.03705222,40.2309611 C8.22683751,40.0277236 8.42020015,39.8306534 8.61692284,39.6397506 L8.61692284,39.6397506 L8.60302678,39.6248696 L38.0337037,8.10811021 L41.9935017,12.3485835 L16.5810096,39.5623442 L11.9968502,44.4714344 C7.93332168,48.8229908 7.93163885,55.8764556 11.9930915,60.225789 C16.0545441,64.5751224 22.6411427,64.5733203 26.7046712,60.2217639 C26.8951058,60.017831 27.0766195,59.8079641 27.2492122,59.5927195 L27.2706458,59.6156723 L31.2888307,55.3126736 L54.7245937,30.215755 C55.816311,29.0466554 57.5899787,29.0505579 58.6812217,30.2191496 C59.7746897,31.390124 59.780319,33.2826203 58.6843917,34.4562283 L31.2304438,63.8561457 L31.2165477,63.8412646 L31.2165477,63.8412646 L31.2165477,63.8412646 Z M38.0384889,8.11323458 C42.5889235,3.55953217 49.7243684,3.65686078 54.1597862,8.40666641 C58.5952039,13.156472 58.6860904,20.797686 54.4337958,25.670661 L50.4695045,21.4253758 C52.5363611,18.9002909 52.4460668,15.0567579 50.1979643,12.6493071 C47.9498617,10.2418563 44.3607307,10.1451618 42.0027802,12.3585197 L41.9981409,12.3535516 L38.0384889,8.11323458 L38.0384889,8.11323458 L38.0384889,8.11323458 Z" id="Oval-21-Copy-3"></path>
            </g>
        </g>
    </g>
</svg>