<?xml version="1.0" encoding="UTF-8" standalone="no"?>
<svg width="70px" height="75px" viewBox="0 0 70 75" version="1.1" xmlns="http://www.w3.org/2000/svg" xmlns:xlink="http://www.w3.org/1999/xlink" xmlns:sketch="http://www.bohemiancoding.com/sketch/ns">
    <!-- Generator: Sketch 3.3.3 (12072) - http://www.bohemiancoding.com/sketch -->
    <title>bell</title>
    <desc>Created with Sketch.</desc>
    <defs></defs>
    <g id="Resources" stroke="none" stroke-width="1" fill="none" fill-rule="evenodd" sketch:type="MSPage">
        <path d="M47.8068918,51.2329226 C39.023159,53.481262 32.774083,56.4516092 28.6365094,59.2826008 C31.0546003,61.994996 36.0064701,63.114229 41.1987188,61.7861667 C47.8101675,60.0952394 52.285917,55.0882987 51.1910726,50.6024535 C51.1799298,50.5482268 51.1598451,50.4989552 51.1401982,50.445519 C50.0629045,50.6800999 48.9575593,50.9412078 47.8068918,51.2329226 L47.8068918,51.2329226 Z M45.1656705,69.5240032 C28.909845,75.5559611 15.5517607,72.0073072 14.9822624,70.4310583 C14.0107654,67.7107307 20.2333714,58.6376678 38.8174398,51.7405319 C57.4015083,44.8442336 67.7781017,47.4020785 68.8584734,50.4398334 C69.5033464,52.2338426 61.421496,63.4920454 45.1656705,69.5240032 L45.1656705,69.5240032 Z M60.768248,35.6740161 C51.2207771,15.1249901 46.2627922,7.32163674 30.6518397,7.64408936 C25.0992316,7.75883224 26.4308526,3.61971317 22.2014904,5.1900993 C17.9637533,6.76132297 21.5984923,9.05953073 17.2686305,12.6140474 C5.1081675,22.5899776 6.23041408,31.8204979 11.8667719,53.8193044 C14.2452647,63.0833263 6.14666433,63.5389476 9.34590459,72.5215563 C11.6908975,79.0702758 28.9433449,81.8123794 47.1421645,75.0576252 C65.3409841,68.3045461 76.8314491,54.898055 74.4948312,48.3493354 C71.287216,39.3667268 64.7966107,44.3257968 60.768248,35.6740161 L60.768248,35.6740161 Z" id="bell" fill="#333333" sketch:type="MSShapeGroup" transform="translate(41.295418, 41.901742) rotate(21.000000) translate(-41.295418, -41.901742) "></path>
    </g>
</svg>