<?xml version="1.0" encoding="UTF-8" standalone="no"?>
<svg width="67px" height="71px" viewBox="0 0 67 71" version="1.1" xmlns="http://www.w3.org/2000/svg" xmlns:xlink="http://www.w3.org/1999/xlink" xmlns:sketch="http://www.bohemiancoding.com/sketch/ns">
    <!-- Generator: Sketch 3.4.4 (17249) - http://www.bohemiancoding.com/sketch -->
    <title>bell-silent</title>
    <desc>Created with Sketch.</desc>
    <defs></defs>
    <g id="Resources" stroke="none" stroke-width="1" fill="none" fill-rule="evenodd" sketch:type="MSPage">
        <g id="Icons" sketch:type="MSLayerGroup" transform="translate(-398.000000, -305.000000)" fill="#333333">
            <g id="bell-silent" transform="translate(396.000000, 300.000000)" sketch:type="MSShapeGroup">
                <path d="M33.9958119,73.2350139 C36.2878415,75.815709 40.9832038,76.8791302 45.9074218,75.6131853 C52.1775788,74.0013477 56.4237177,69.2342008 55.3871594,64.9650876 C55.376613,64.91348 55.3575853,64.866592 55.3389743,64.81574 C54.3173071,65.0394083 53.2690293,65.2883348 52.1777617,65.5664089 C43.8474561,67.7095843 37.9204564,70.5390086 33.9958119,73.2350139 Z M31.4906861,12.5288579 C26.2254546,12.6380719 27.4881572,8.69839645 23.4776868,10.1931135 C19.4592748,11.6886276 22.9058969,13.8760961 18.8001282,17.2593382 C7.26903303,26.7545778 8.33319746,35.540325 13.6778442,56.4791178 C15.9332375,65.2967523 8.2537822,65.7304195 11.287445,74.2802008 C13.5110722,80.5133699 75.2802583,57.5058888 73.0645726,51.2727196 C70.0229683,42.7229384 63.868286,47.4430553 60.0484122,39.2081612 C50.995073,19.6492911 46.2936898,12.2219427 31.4906861,12.5288579 Z" id="bell" transform="translate(41.469989, 43.000000) rotate(21.000000) translate(-41.469989, -43.000000) "></path>
                <path d="M68.2384946,6.71875 L68.2384946,6.27083333 L67.7922581,6.27083333 L58.0643011,6.27083333 L57.6180645,6.27083333 L57.6180645,6.71875 L57.6180645,9.04791667 L57.6180645,9.49583333 L58.0643011,9.49583333 L63.9546237,9.49583333 L63.5890524,8.79105332 L57.4666868,17.57022 C57.363701,17.7102897 57.277666,17.8731942 57.2154633,18.0487978 C57.1509605,18.2308951 57.1182796,18.4174676 57.1182796,18.6064583 L57.1182796,19.7710417 L57.1182796,20.2189583 L57.5645161,20.2189583 L67.595914,20.2189583 L68.0421505,20.2189583 L68.0421505,19.7710417 L68.0421505,17.441875 L68.0421505,16.9939583 L67.595914,16.9939583 L61.4021505,16.9939583 L61.7677042,17.6987635 L67.8722203,8.94647188 C67.9872754,8.77714998 68.0753007,8.60043653 68.1388825,8.41272727 C68.2051224,8.21717028 68.2384946,8.01618328 68.2384946,7.81166667 L68.2384946,6.71875 L68.2384946,6.71875 Z" id="Shape"></path>
                <path d="M10.7119702,9.24601263 L10.7119702,8.95833333 L10.42537,8.95833333 L4.17748496,8.95833333 L3.89088473,8.95833333 L3.89088473,9.24601263 L3.89088473,10.741945 L3.89088473,11.0296243 L4.17748496,11.0296243 L7.96060801,11.0296243 L7.72581595,10.5769717 L3.79366078,16.215486 C3.72751704,16.3054473 3.6722601,16.4100744 3.63230979,16.5228577 C3.59088214,16.6398117 3.56989247,16.7596398 3.56989247,16.8810212 L3.56989247,17.6289874 L3.56989247,17.9166667 L3.8564927,17.9166667 L10.2992659,17.9166667 L10.5858661,17.9166667 L10.5858661,17.6289874 L10.5858661,16.133055 L10.5858661,15.8453757 L10.2992659,15.8453757 L6.32125469,15.8453757 L6.55603545,16.2980445 L10.4767266,10.676791 C10.550622,10.5680422 10.6071572,10.454546 10.6479932,10.3339878 C10.6905366,10.2083892 10.7119702,10.0793031 10.7119702,9.94795012 L10.7119702,9.24601263 L10.7119702,9.24601263 Z" id="Shape"></path>
            </g>
        </g>
    </g>
</svg>