<?xml version="1.0" encoding="UTF-8" standalone="no"?>
<svg width="70px" height="75px" viewBox="0 0 70 75" version="1.1" xmlns="http://www.w3.org/2000/svg" xmlns:xlink="http://www.w3.org/1999/xlink" xmlns:sketch="http://www.bohemiancoding.com/sketch/ns">
    <!-- Generator: Sketch 3.5.2 (25235) - http://www.bohemiancoding.com/sketch -->
    <title>bell</title>
    <desc>Created with Sketch.</desc>
    <defs></defs>
    <g id="Resources" stroke="none" stroke-width="1" fill="none" fill-rule="evenodd" sketch:type="MSPage">
        <g id="Icons" sketch:type="MSLayerGroup" transform="translate(-126.000000, -213.000000)" fill="#333333">
            <path d="M173.806892,264.232923 C165.023159,266.481262 158.774083,269.451609 154.636509,272.282601 C157.0546,274.994996 162.00647,276.114229 167.198719,274.786167 C173.810168,273.095239 178.285917,268.088299 177.191073,263.602454 C177.17993,263.548227 177.159845,263.498955 177.140198,263.445519 C176.062904,263.6801 174.957559,263.941208 173.806892,264.232923 L173.806892,264.232923 Z M171.165671,282.524003 C154.909845,288.555961 141.551761,285.007307 140.982262,283.431058 C140.010765,280.710731 146.233371,271.637668 164.81744,264.740532 C183.401508,257.844234 193.778102,260.402079 194.858473,263.439833 C195.503346,265.233843 187.421496,276.492045 171.165671,282.524003 L171.165671,282.524003 Z M186.768248,248.674016 C177.220777,228.12499 172.262792,220.321637 156.65184,220.644089 C151.099232,220.758832 152.430853,216.619713 148.20149,218.190099 C143.963753,219.761323 147.598492,222.059531 143.26863,225.614047 C131.108167,235.589978 132.230414,244.820498 137.866772,266.819304 C140.245265,276.083326 132.146664,276.538948 135.345905,285.521556 C137.690897,292.070276 154.943345,294.812379 173.142164,288.057625 C191.340984,281.304546 202.831449,267.898055 200.494831,261.349335 C197.287216,252.366727 190.796611,257.325797 186.768248,248.674016 L186.768248,248.674016 Z" id="bell" sketch:type="MSShapeGroup" transform="translate(167.295418, 254.901742) rotate(21.000000) translate(-167.295418, -254.901742) "></path>
        </g>
    </g>
</svg>