<?xml version="1.0" encoding="UTF-8" standalone="no"?>
<svg width="70px" height="71px" viewBox="0 0 70 71" version="1.1" xmlns="http://www.w3.org/2000/svg" xmlns:xlink="http://www.w3.org/1999/xlink" xmlns:sketch="http://www.bohemiancoding.com/sketch/ns">
    <!-- Generator: Sketch 3.5.2 (25235) - http://www.bohemiancoding.com/sketch -->
    <title>bell-silent</title>
    <desc>Created with Sketch.</desc>
    <defs></defs>
    <g id="Resources" stroke="none" stroke-width="1" fill="none" fill-rule="evenodd" sketch:type="MSPage">
        <g id="Icons" sketch:type="MSLayerGroup" transform="translate(-397.000000, -305.000000)" fill="#333333">
            <g id="bell-silent" transform="translate(396.000000, 300.000000)" sketch:type="MSShapeGroup">
                <path d="M33.9958119,73.2350139 C36.2878415,75.815709 40.9832038,76.8791302 45.9074218,75.6131853 C52.1775788,74.0013477 56.4237177,69.2342008 55.3871594,64.9650876 C55.376613,64.91348 55.3575853,64.866592 55.3389743,64.81574 C54.3173071,65.0394083 53.2690293,65.2883348 52.1777617,65.5664089 C43.8474561,67.7095843 37.9204564,70.5390086 33.9958119,73.2350139 Z M31.4906861,12.5288579 C26.2254546,12.6380719 27.4881572,8.69839645 23.4776868,10.1931135 C19.4592748,11.6886276 22.9058969,13.8760961 18.8001282,17.2593382 C7.26903303,26.7545778 8.33319746,35.540325 13.6778442,56.4791178 C15.9332375,65.2967523 8.2537822,65.7304195 11.287445,74.2802008 C13.5110722,80.5133699 75.2802583,57.5058888 73.0645726,51.2727196 C70.0229683,42.7229384 63.868286,47.4430553 60.0484122,39.2081612 C50.995073,19.6492911 46.2936898,12.2219427 31.4906861,12.5288579 Z" id="bell" transform="translate(41.469989, 43.000000) rotate(21.000000) translate(-41.469989, -43.000000) "></path>
                <path d="M70.2384946,6.71875 L70.2384946,6.27083333 L69.7922581,6.27083333 L60.0643011,6.27083333 L59.6180645,6.27083333 L59.6180645,6.71875 L59.6180645,9.04791667 L59.6180645,9.49583333 L60.0643011,9.49583333 L65.9546237,9.49583333 L65.5890524,8.79105332 L59.4666868,17.57022 C59.363701,17.7102897 59.277666,17.8731942 59.2154633,18.0487978 C59.1509605,18.2308951 59.1182796,18.4174676 59.1182796,18.6064583 L59.1182796,19.7710417 L59.1182796,20.2189583 L59.5645161,20.2189583 L69.595914,20.2189583 L70.0421505,20.2189583 L70.0421505,19.7710417 L70.0421505,17.441875 L70.0421505,16.9939583 L69.595914,16.9939583 L63.4021505,16.9939583 L63.7677042,17.6987635 L69.8722203,8.94647188 C69.9872754,8.77714998 70.0753007,8.60043653 70.1388825,8.41272727 C70.2051224,8.21717028 70.2384946,8.01618328 70.2384946,7.81166667 L70.2384946,6.71875 L70.2384946,6.71875 Z" id="Shape"></path>
                <path d="M8.71197022,9.24601263 L8.71197022,8.95833333 L8.42536999,8.95833333 L2.17748496,8.95833333 L1.89088473,8.95833333 L1.89088473,9.24601263 L1.89088473,10.741945 L1.89088473,11.0296243 L2.17748496,11.0296243 L5.96060801,11.0296243 L5.72581595,10.5769717 L1.79366078,16.215486 C1.72751704,16.3054473 1.6722601,16.4100744 1.63230979,16.5228577 C1.59088214,16.6398117 1.56989247,16.7596398 1.56989247,16.8810212 L1.56989247,17.6289874 L1.56989247,17.9166667 L1.8564927,17.9166667 L8.29926589,17.9166667 L8.58586612,17.9166667 L8.58586612,17.6289874 L8.58586612,16.133055 L8.58586612,15.8453757 L8.29926589,15.8453757 L4.32125469,15.8453757 L4.55603545,16.2980445 L8.47672661,10.676791 C8.55062197,10.5680422 8.60715717,10.454546 8.64799324,10.3339878 C8.69053658,10.2083892 8.71197022,10.0793031 8.71197022,9.94795012 L8.71197022,9.24601263 L8.71197022,9.24601263 Z" id="Shape"></path>
            </g>
        </g>
    </g>
</svg>