<?xml version="1.0" encoding="UTF-8" standalone="no"?>
<svg width="66px" height="73px" viewBox="0 0 66 73" version="1.1" xmlns="http://www.w3.org/2000/svg" xmlns:xlink="http://www.w3.org/1999/xlink" xmlns:sketch="http://www.bohemiancoding.com/sketch/ns">
    <!-- Generator: Sketch 3.4.4 (17249) - http://www.bohemiancoding.com/sketch -->
    <title>bell-ringing</title>
    <desc>Created with Sketch.</desc>
    <defs></defs>
    <g id="Resources" stroke="none" stroke-width="1" fill="none" fill-rule="evenodd" sketch:type="MSPage">
        <g id="Icons" sketch:type="MSLayerGroup" transform="translate(-489.000000, -304.000000)" fill="#333333">
            <g id="bell-ringing" transform="translate(487.000000, 301.000000)" sketch:type="MSShapeGroup">
                <path d="M33.9958119,73.2350139 C36.2878415,75.815709 40.9832038,76.8791302 45.9074218,75.6131853 C52.1775788,74.0013477 56.4237177,69.2342008 55.3871594,64.9650876 C55.376613,64.91348 55.3575853,64.866592 55.3389743,64.81574 C54.3173071,65.0394083 53.2690293,65.2883348 52.1777617,65.5664089 C43.8474561,67.7095843 37.9204564,70.5390086 33.9958119,73.2350139 Z M31.4906861,12.5288579 C26.2254546,12.6380719 27.4881572,8.69839645 23.4776868,10.1931135 C19.4592748,11.6886276 22.9058969,13.8760961 18.8001282,17.2593382 C7.26903303,26.7545778 8.33319746,35.540325 13.6778442,56.4791178 C15.9332375,65.2967523 8.2537822,65.7304195 11.287445,74.2802008 C13.5110722,80.5133699 75.2802583,57.5058888 73.0645726,51.2727196 C70.0229683,42.7229384 63.868286,47.4430553 60.0484122,39.2081612 C50.995073,19.6492911 46.2936898,12.2219427 31.4906861,12.5288579 Z" id="bell" transform="translate(41.469989, 43.000000) rotate(21.000000) translate(-41.469989, -43.000000) "></path>
                <path d="M20.4554726,9.91753589 L20.4346523,9.87927107 C17.0014672,11.3011551 14.2350224,14.0277083 12.7403685,17.4480302 C12.5852309,17.6794976 12.4946237,17.9586609 12.4946237,18.2591912 C12.4946237,19.0595303 13.1372141,19.7083333 13.9298895,19.7083333 C14.4868334,19.7083333 14.9696856,19.3880422 15.2076181,18.9199395 L15.2362001,18.9307497 C16.3443699,16.1770059 18.4705674,13.9505241 21.1431578,12.727499 C21.3472685,12.6887888 21.5361393,12.606453 21.6999093,12.490448 C21.7425951,12.4736034 21.7854052,12.4570093 21.8283379,12.4406675 L21.8089588,12.4050514 C22.1167435,12.1392626 22.311828,11.7442882 22.311828,11.3033088 C22.311828,10.5029697 21.6692376,9.85416667 20.8765621,9.85416667 C20.7300334,9.85416667 20.5886333,9.87633675 20.4554726,9.91753589 Z" id="Oval-31"></path>
                <path d="M57.9393436,9.91753589 L57.9185232,9.87927107 C54.4853382,11.3011551 51.7188934,14.0277083 50.2242395,17.4480302 C50.0691018,17.6794976 49.9784946,17.9586609 49.9784946,18.2591912 C49.9784946,19.0595303 50.621085,19.7083333 51.4137605,19.7083333 C51.9707043,19.7083333 52.4535565,19.3880422 52.691489,18.9199395 L52.720071,18.9307497 C53.8282409,16.1770059 55.9544384,13.9505241 58.6270288,12.727499 C58.8311395,12.6887888 59.0200103,12.606453 59.1837803,12.490448 C59.2264661,12.4736034 59.2692762,12.4570093 59.3122088,12.4406675 L59.2928297,12.4050514 C59.6006145,12.1392626 59.7956989,11.7442882 59.7956989,11.3033088 C59.7956989,10.5029697 59.1531085,9.85416667 58.3604331,9.85416667 C58.2139044,9.85416667 58.0725043,9.87633675 57.9393436,9.91753589 Z" id="Oval-31" transform="translate(54.887097, 14.781250) rotate(-270.000000) translate(-54.887097, -14.781250) "></path>
                <path d="M63.4249571,3.50210366 L63.392591,3.44296711 C58.0555565,5.64042422 53.7549984,9.85418824 51.4314942,15.1401404 C51.1903261,15.4978626 51.0494733,15.9292968 51.0494733,16.3937527 C51.0494733,17.6306405 52.0484078,18.6333361 53.2806561,18.6333361 C54.1464494,18.6333361 54.897064,18.1383406 55.2669404,17.4149092 L55.3113723,17.4316159 C57.0340703,13.17583 60.3393362,9.73490355 64.4939935,7.84477384 C64.8112924,7.78494901 65.1049003,7.65770285 65.3594878,7.47842237 C65.4258447,7.4523898 65.4923949,7.42674436 65.5591356,7.40148883 L65.5290099,7.34644582 C66.0074746,6.93568125 66.3107418,6.32526626 66.3107418,5.64375273 C66.3107418,4.40686501 65.3118072,3.4041694 64.079559,3.4041694 C63.8517738,3.4041694 63.6319612,3.43843226 63.4249571,3.50210366 Z" id="Oval-31" transform="translate(58.680108, 11.018753) rotate(-270.000000) translate(-58.680108, -11.018753) "></path>
                <path d="M18.8013012,3.50210366 L18.7689351,3.44296711 C13.4319006,5.64042422 9.13134249,9.85418824 6.80783833,15.1401404 C6.56667016,15.4978626 6.42581735,15.9292968 6.42581735,16.3937527 C6.42581735,17.6306405 7.42475191,18.6333361 8.65700014,18.6333361 C9.52279348,18.6333361 10.2734081,18.1383406 10.6432845,17.4149092 L10.6877164,17.4316159 C12.4104144,13.17583 15.7156803,9.73490355 19.8703376,7.84477384 C20.1876365,7.78494901 20.4812443,7.65770285 20.7358319,7.47842237 C20.8021888,7.4523898 20.868739,7.42674436 20.9354796,7.40148883 L20.905354,7.34644582 C21.3838187,6.93568125 21.6870859,6.32526626 21.6870859,5.64375273 C21.6870859,4.40686501 20.6881513,3.4041694 19.4559031,3.4041694 C19.2281179,3.4041694 19.0083053,3.43843226 18.8013012,3.50210366 Z" id="Oval-31"></path>
            </g>
        </g>
    </g>
</svg>