<?xml version="1.0" encoding="UTF-8" standalone="no"?>
<svg width="65px" height="68px" viewBox="0 0 65 68" version="1.1" xmlns="http://www.w3.org/2000/svg" xmlns:xlink="http://www.w3.org/1999/xlink" xmlns:sketch="http://www.bohemiancoding.com/sketch/ns">
    <!-- Generator: Sketch 3.5.2 (25235) - http://www.bohemiancoding.com/sketch -->
    <title>bell-normal</title>
    <desc>Created with Sketch.</desc>
    <defs></defs>
    <g id="Resources" stroke="none" stroke-width="1" fill="none" fill-rule="evenodd" sketch:type="MSPage">
        <g id="Icons" sketch:type="MSLayerGroup" transform="translate(-309.000000, -308.000000)" fill="#333333">
            <path d="M340.297283,373.191823 C342.505387,375.682811 347.029636,376.708546 351.774859,375.485443 C357.817095,373.928152 361.909594,369.325082 360.911587,365.203836 C360.901434,365.154015 360.883108,365.108753 360.865184,365.059663 C359.880662,365.275791 358.870493,365.516309 357.818894,365.784975 C349.791395,367.855621 344.079591,370.588316 340.297283,373.191823 Z M337.88414,314.582229 C332.810667,314.687667 334.027382,310.884184 330.162972,312.32723 C326.290909,313.771045 329.612006,315.882894 325.655768,319.149179 C314.544632,328.316173 315.57004,336.798202 320.720037,357.013152 C322.893289,365.525966 315.493517,365.944641 318.416695,374.198861 C320.559338,380.216553 380.078909,358.004428 377.943918,351.986736 C375.013088,343.732516 369.082557,348.289461 365.401802,340.339243 C356.678183,321.456512 352.148023,314.285923 337.88414,314.582229 Z" id="bell-normal" sketch:type="MSShapeGroup" transform="translate(347.500000, 344.000000) rotate(21.000000) translate(-347.500000, -344.000000) "></path>
        </g>
    </g>
</svg>