<?xml version="1.0" encoding="UTF-8" standalone="no"?>
<svg width="70px" height="51px" viewBox="0 0 70 51" version="1.1" xmlns="http://www.w3.org/2000/svg" xmlns:xlink="http://www.w3.org/1999/xlink" xmlns:sketch="http://www.bohemiancoding.com/sketch/ns">
    <!-- Generator: Sketch 3.3.3 (12072) - http://www.bohemiancoding.com/sketch -->
    <title>bigerspacing</title>
    <desc>Created with Sketch.</desc>
    <defs></defs>
    <g id="Resources" stroke="none" stroke-width="1" fill="none" fill-rule="evenodd" sketch:type="MSPage">
        <path d="M0,3.93040936 C0,1.75970421 1.75748426,0 3.92118296,0 L65.7666654,0 C67.932275,0 69.6878484,1.76412116 69.6878484,3.93040936 C69.6878484,6.1011145 67.9303641,7.86081871 65.7666654,7.86081871 L3.92118296,7.86081871 C1.75557341,7.86081871 0,6.09669756 0,3.93040936 Z M0,25.397076 C0,23.2263709 1.75748426,21.4666667 3.92118296,21.4666667 L65.7666654,21.4666667 C67.932275,21.4666667 69.6878484,23.2307878 69.6878484,25.397076 C69.6878484,27.5677812 67.9303641,29.3274854 65.7666654,29.3274854 L3.92118296,29.3274854 C1.75557341,29.3274854 0,27.5633642 0,25.397076 Z M0,46.1304094 C0,43.9597042 1.75748426,42.2 3.92118296,42.2 L65.7666654,42.2 C67.932275,42.2 69.6878484,43.9641212 69.6878484,46.1304094 C69.6878484,48.3011145 67.9303641,50.0608187 65.7666654,50.0608187 L3.92118296,50.0608187 C1.75557341,50.0608187 0,48.2966976 0,46.1304094 Z" id="bigerspacing" fill="#333333" sketch:type="MSShapeGroup"></path>
    </g>
</svg>