<?xml version="1.0" encoding="UTF-8" standalone="no"?>
<svg width="70px" height="51px" viewBox="0 0 70 51" version="1.1" xmlns="http://www.w3.org/2000/svg" xmlns:xlink="http://www.w3.org/1999/xlink" xmlns:sketch="http://www.bohemiancoding.com/sketch/ns">
    <!-- Generator: Sketch 3.5.2 (25235) - http://www.bohemiancoding.com/sketch -->
    <title>bigerspacing</title>
    <desc>Created with Sketch.</desc>
    <defs></defs>
    <g id="Resources" stroke="none" stroke-width="1" fill="none" fill-rule="evenodd" sketch:type="MSPage">
        <g id="Icons" sketch:type="MSLayerGroup" transform="translate(-666.000000, -135.000000)" fill="#333333">
            <path d="M666,138.930409 C666,136.759704 667.757484,135 669.921183,135 L731.766665,135 C733.932275,135 735.687848,136.764121 735.687848,138.930409 C735.687848,141.101115 733.930364,142.860819 731.766665,142.860819 L669.921183,142.860819 C667.755573,142.860819 666,141.096698 666,138.930409 Z M666,160.397076 C666,158.226371 667.757484,156.466667 669.921183,156.466667 L731.766665,156.466667 C733.932275,156.466667 735.687848,158.230788 735.687848,160.397076 C735.687848,162.567781 733.930364,164.327485 731.766665,164.327485 L669.921183,164.327485 C667.755573,164.327485 666,162.563364 666,160.397076 Z M666,181.130409 C666,178.959704 667.757484,177.2 669.921183,177.2 L731.766665,177.2 C733.932275,177.2 735.687848,178.964121 735.687848,181.130409 C735.687848,183.301115 733.930364,185.060819 731.766665,185.060819 L669.921183,185.060819 C667.755573,185.060819 666,183.296698 666,181.130409 Z" id="bigerspacing" sketch:type="MSShapeGroup"></path>
        </g>
    </g>
</svg>