<?xml version="1.0" encoding="UTF-8" standalone="no"?>
<svg width="75px" height="75px" viewBox="0 0 75 75" version="1.1" xmlns="http://www.w3.org/2000/svg" xmlns:xlink="http://www.w3.org/1999/xlink" xmlns:sketch="http://www.bohemiancoding.com/sketch/ns">
    <!-- Generator: Sketch 3.3.3 (12072) - http://www.bohemiancoding.com/sketch -->
    <title>close</title>
    <desc>Created with Sketch.</desc>
    <defs></defs>
    <g id="Resources" stroke="none" stroke-width="1" fill="none" fill-rule="evenodd" sketch:type="MSPage">
        <path d="M43.363313,31.4625888 L43.363313,-6.54434638 C43.363313,-9.84973027 40.6770215,-12.5374112 37.363313,-12.5374112 C34.0563473,-12.5374112 31.363313,-9.85422469 31.363313,-6.54434638 L31.363313,31.4625888 L-6.64362213,31.4625888 C-9.94900602,31.4625888 -12.636687,34.1488803 -12.636687,37.4625888 C-12.636687,40.7695545 -9.95350045,43.4625888 -6.64362213,43.4625888 L31.363313,43.4625888 L31.363313,81.4695239 C31.363313,84.7749078 34.0496045,87.4625888 37.363313,87.4625888 C40.6702788,87.4625888 43.363313,84.7794023 43.363313,81.4695239 L43.363313,43.4625888 L81.3702482,43.4625888 C84.6756321,43.4625888 87.363313,40.7762973 87.363313,37.4625888 C87.363313,34.155623 84.6801265,31.4625888 81.3702482,31.4625888 L43.363313,31.4625888 Z" id="close" fill="#333333" sketch:type="MSShapeGroup" transform="translate(37.363313, 37.462589) rotate(-45.000000) translate(-37.363313, -37.462589) "></path>
    </g>
</svg>