<?xml version="1.0" encoding="UTF-8" standalone="no"?>
<svg width="75px" height="75px" viewBox="0 0 75 75" version="1.1" xmlns="http://www.w3.org/2000/svg" xmlns:xlink="http://www.w3.org/1999/xlink" xmlns:sketch="http://www.bohemiancoding.com/sketch/ns">
    <!-- Generator: Sketch 3.5.1 (25234) - http://www.bohemiancoding.com/sketch -->
    <title>close</title>
    <desc>Created with Sketch.</desc>
    <defs></defs>
    <g id="Resources" stroke="none" stroke-width="1" fill="none" fill-rule="evenodd" sketch:type="MSPage">
        <g id="Icons" sketch:type="MSLayerGroup" transform="translate(-34.000000, -34.000000)" fill="#333333">
            <path d="M77.363313,65.4625888 L77.363313,27.4556536 C77.363313,24.1502697 74.6770215,21.4625888 71.363313,21.4625888 C68.0563473,21.4625888 65.363313,24.1457753 65.363313,27.4556536 L65.363313,65.4625888 L27.3563779,65.4625888 C24.050994,65.4625888 21.363313,68.1488803 21.363313,71.4625888 C21.363313,74.7695545 24.0464996,77.4625888 27.3563779,77.4625888 L65.363313,77.4625888 L65.363313,115.469524 C65.363313,118.774908 68.0496045,121.462589 71.363313,121.462589 C74.6702788,121.462589 77.363313,118.779402 77.363313,115.469524 L77.363313,77.4625888 L115.370248,77.4625888 C118.675632,77.4625888 121.363313,74.7762973 121.363313,71.4625888 C121.363313,68.155623 118.680127,65.4625888 115.370248,65.4625888 L77.363313,65.4625888 Z" id="close" sketch:type="MSShapeGroup" transform="translate(71.363313, 71.462589) rotate(-45.000000) translate(-71.363313, -71.462589) "></path>
        </g>
    </g>
</svg>