<?xml version="1.0" encoding="UTF-8" standalone="no"?>
<svg width="72px" height="72px" viewBox="0 0 72 72" version="1.1" xmlns="http://www.w3.org/2000/svg" xmlns:xlink="http://www.w3.org/1999/xlink" xmlns:sketch="http://www.bohemiancoding.com/sketch/ns">
    <!-- Generator: Sketch 3.5.1 (25234) - http://www.bohemiancoding.com/sketch -->
    <title>download</title>
    <desc>Created with Sketch.</desc>
    <defs></defs>
    <g id="Resources" stroke="none" stroke-width="1" fill="none" fill-rule="evenodd" sketch:type="MSPage">
        <g id="Icons" sketch:type="MSLayerGroup" transform="translate(-755.000000, -305.000000)" fill="#333333">
            <path d="M788.372332,350.906067 L777.500731,340.034466 C776.357675,338.89141 774.499216,338.891669 773.352793,340.038092 C772.208703,341.182182 772.204747,343.04161 773.349167,344.18603 L788.740446,359.577309 C789.360013,360.196876 790.189762,360.480545 791.002379,360.427862 C791.812671,360.47881 792.639875,360.195726 793.258292,359.577309 L808.649572,344.18603 C809.792627,343.042974 809.792368,341.184515 808.645945,340.038092 C807.501855,338.894002 805.642428,338.890046 804.498008,340.034466 L794.18814,350.344334 L794.18814,323.413864 C794.18814,321.798024 792.886227,320.5 791.280236,320.5 C789.677513,320.5 788.372332,321.804581 788.372332,323.413864 L788.372332,350.906067 Z M791,377 C810.882251,377 827,360.882251 827,341 C827,321.117749 810.882251,305 791,305 C771.117749,305 755,321.117749 755,341 C755,360.882251 771.117749,377 791,377 Z" id="download" sketch:type="MSShapeGroup"></path>
        </g>
    </g>
</svg>