<?xml version="1.0" encoding="UTF-8" standalone="no"?>
<svg width="75px" height="51px" viewBox="0 0 75 51" version="1.1" xmlns="http://www.w3.org/2000/svg" xmlns:xlink="http://www.w3.org/1999/xlink" xmlns:sketch="http://www.bohemiancoding.com/sketch/ns">
    <!-- Generator: Sketch 3.5.2 (25235) - http://www.bohemiancoding.com/sketch -->
    <title>email</title>
    <desc>Created with Sketch.</desc>
    <defs></defs>
    <g id="Resources" stroke="none" stroke-width="1" fill="none" fill-rule="evenodd" sketch:type="MSPage">
        <g id="Icons" sketch:type="MSLayerGroup" transform="translate(-213.000000, -225.000000)" fill="#333333">
            <path d="M285.908994,237.502347 C283.628972,238.788674 255.622442,254.622848 254.226309,255.409579 C252.829353,256.198087 251.850909,256.301206 250.499998,256.301206 C249.149909,256.301206 248.171465,256.198087 246.77451,255.409579 C245.378376,254.622848 217.37349,238.788674 215.091824,237.502347 C213.486846,236.598274 213.500002,237.658804 213.500002,238.478427 L213.500002,271.084629 C213.500002,272.947891 215.795646,275.347197 217.577401,275.347197 L283.423417,275.347197 C285.20435,275.347197 287.499994,272.947891 287.499994,271.084629 L287.499994,238.478427 C287.499994,237.658804 287.515617,236.598274 285.908994,237.502347 L285.908994,237.502347 Z M215.942001,230.727023 C217.949046,231.894229 245.740154,248.033316 246.77451,248.634254 C247.809687,249.235191 249.149909,249.525882 250.499998,249.525882 C251.850909,249.525882 253.191131,249.235191 254.226309,248.634254 C255.260664,248.033316 283.05095,231.894229 285.058817,230.727023 C287.066683,229.561595 288.967661,225.901742 285.277528,225.901742 L215.722468,225.901742 C212.035624,225.901742 213.934135,229.561595 215.942001,230.727023 L215.942001,230.727023 Z" id="email" sketch:type="MSShapeGroup"></path>
        </g>
    </g>
</svg>