<?xml version="1.0" encoding="UTF-8" standalone="no"?>
<svg width="75px" height="51px" viewBox="0 0 75 51" version="1.1" xmlns="http://www.w3.org/2000/svg" xmlns:xlink="http://www.w3.org/1999/xlink" xmlns:sketch="http://www.bohemiancoding.com/sketch/ns">
    <!-- Generator: Sketch 3.3.3 (12072) - http://www.bohemiancoding.com/sketch -->
    <title>email</title>
    <desc>Created with Sketch.</desc>
    <defs></defs>
    <g id="Resources" stroke="none" stroke-width="1" fill="none" fill-rule="evenodd" sketch:type="MSPage">
        <path d="M72.9089945,12.5023473 C70.6289725,13.788674 42.622442,29.622848 41.2263088,30.4095785 C39.8293533,31.1980869 38.850909,31.3012064 37.499998,31.3012064 C36.1499093,31.3012064 35.1714649,31.1980869 33.7745095,30.4095785 C32.3783763,29.622848 4.37349023,13.788674 2.09182379,12.5023473 C0.486846178,11.598274 0.500001732,12.6588045 0.500001732,13.4784266 L0.500001732,46.0846285 C0.500001732,47.9478908 2.79564595,50.3471967 4.57740132,50.3471967 L70.4234169,50.3471967 C72.2043501,50.3471967 74.4999943,47.9478908 74.4999943,46.0846285 L74.4999943,13.4784266 C74.4999943,12.6588045 74.5156165,11.598274 72.9089945,12.5023473 L72.9089945,12.5023473 Z M2.94200149,5.72702266 C4.94904573,6.8942285 32.7401541,23.0333162 33.7745095,23.6342538 C34.8096872,24.2351915 36.1499093,24.5258817 37.499998,24.5258817 C38.850909,24.5258817 40.1911311,24.2351915 41.2263088,23.6342538 C42.2606642,23.0333162 70.0509503,6.8942285 72.0588168,5.72702266 C74.0666832,4.56159474 75.9676608,0.901742138 72.2775279,0.901742138 L2.72246818,0.901742138 C-0.964375899,0.901742138 0.934135022,4.56159474 2.94200149,5.72702266 L2.94200149,5.72702266 Z" id="email" fill="#333333" sketch:type="MSShapeGroup"></path>
    </g>
</svg>