<?xml version="1.0" encoding="UTF-8" standalone="no"?>
<svg width="75px" height="51px" viewBox="0 0 75 51" version="1.1" xmlns="http://www.w3.org/2000/svg" xmlns:xlink="http://www.w3.org/1999/xlink" xmlns:sketch="http://www.bohemiancoding.com/sketch/ns">
    <!-- Generator: Sketch 3.5.1 (25234) - http://www.bohemiancoding.com/sketch -->
    <title>eye</title>
    <desc>Created with Sketch.</desc>
    <defs></defs>
    <g id="Resources" stroke="none" stroke-width="1" fill="none" fill-rule="evenodd" sketch:type="MSPage">
        <g id="Icons" sketch:type="MSLayerGroup" transform="translate(-754.000000, -225.000000)" fill="#333333">
            <path d="M791.150394,287.5 C791.150394,287.5 815.952592,270.580387 815.952592,250.161172 C815.952592,229.75037 791.150394,213.5 791.150394,213.5 C791.150394,213.5 766.348196,229.580387 766.348196,250.161172 C766.348196,270.75037 791.150394,287.5 791.150394,287.5 Z M790.743801,265.543956 C798.827793,265.543956 805.381163,258.990586 805.381163,250.906593 C805.381163,242.822601 798.827793,236.269231 790.743801,236.269231 C782.659809,236.269231 776.106438,242.822601 776.106438,250.906593 C776.106438,258.990586 782.659809,265.543956 790.743801,265.543956 Z M790.743801,259.851648 C795.684018,259.851648 799.688856,255.846811 799.688856,250.906593 C799.688856,245.966376 795.684018,241.961538 790.743801,241.961538 C785.803583,241.961538 781.798746,245.966376 781.798746,250.906593 C781.798746,255.846811 785.803583,259.851648 790.743801,259.851648 Z" id="eye" sketch:type="MSShapeGroup" transform="translate(791.150394, 250.500000) rotate(-270.000000) translate(-791.150394, -250.500000) "></path>
        </g>
    </g>
</svg>