<?xml version="1.0" encoding="UTF-8" standalone="no"?>
<svg width="74px" height="65px" viewBox="0 0 74 65" version="1.1" xmlns="http://www.w3.org/2000/svg" xmlns:xlink="http://www.w3.org/1999/xlink" xmlns:sketch="http://www.bohemiancoding.com/sketch/ns">
    <!-- Generator: Sketch 3.5.1 (25234) - http://www.bohemiancoding.com/sketch -->
    <title>history</title>
    <desc>Created with Sketch.</desc>
    <defs></defs>
    <g id="Resources" stroke="none" stroke-width="1" fill="none" fill-rule="evenodd" sketch:type="MSPage">
        <g id="Icons" sketch:type="MSLayerGroup" transform="translate(-34.000000, -309.000000)" fill="#333333">
            <path d="M72.9680851,323.957447 L72.9680851,342.418085 L84.8002128,354.24234 L88.6891489,350.345532 L78.4787234,340.135106 L78.4787234,323.957447 L72.9680851,323.957447 L72.9680851,323.957447 Z M61.5127967,360.819045 L61.5453191,360.784255 C65.5444681,363.736383 70.4804255,365.484043 75.8257447,365.484043 C89.153617,365.484043 99.9544681,354.64383 99.9544681,341.276596 C99.9544681,327.901489 89.153617,317.069149 75.8257447,317.069149 C62.7655319,317.069149 52.1378723,327.468511 51.7206383,340.465745 L62.9544681,340.465745 L48.477234,356.604043 L34,340.465745 L43.6751064,340.465745 C44.1002128,323.012766 58.3255319,309 75.8257447,309 C93.593617,309 108,323.445745 108,341.276596 C108,359.099574 93.593617,373.553191 75.8257447,373.553191 C69.2809079,373.553191 63.1892009,371.589629 58.1063736,368.218254 C57.3358314,367.955638 56.6686555,367.469691 56.1820073,366.837574 C56.1248735,366.793323 56.067892,366.748883 56.0110638,366.704255 L56.0525931,366.659831 C55.5993476,366.000948 55.3340429,365.202736 55.3340429,364.342558 C55.3340429,362.081716 57.1668176,360.248941 59.4276597,360.248941 C60.1891616,360.248941 60.9020996,360.456868 61.5127967,360.819045 Z" id="history" sketch:type="MSShapeGroup"></path>
        </g>
    </g>
</svg>