<?xml version="1.0" encoding="UTF-8" standalone="no"?>
<svg width="75px" height="64px" viewBox="0 0 75 64" version="1.1" xmlns="http://www.w3.org/2000/svg" xmlns:xlink="http://www.w3.org/1999/xlink" xmlns:sketch="http://www.bohemiancoding.com/sketch/ns">
    <!-- Generator: Sketch 3.5.2 (25235) - http://www.bohemiancoding.com/sketch -->
    <title>images</title>
    <desc>Created with Sketch.</desc>
    <defs></defs>
    <g id="Resources" stroke="none" stroke-width="1" fill="none" fill-rule="evenodd" sketch:type="MSPage">
        <g id="Icons" sketch:type="MSLayerGroup" transform="translate(-663.000000, -219.000000)">
            <g id="images" transform="translate(663.000000, 219.000000)" sketch:type="MSShapeGroup">
                <path d="M66.6398028,17.8157895 L63.1631853,1.4595903 C62.96892,0.545643832 62.0538412,-0.0564657192 61.1248794,0.140991218 L2.20596805,12.6645924 C1.27783148,12.8618739 0.684230482,13.7762563 0.881966425,14.7065308 L10.8350538,61.5321253 C11.0339861,62.4680284 11.9475549,63.056169 12.8782389,62.858346 L31.6493598,58.8684211 L16.347963,58.8684211 C15.8732241,58.8684211 15.4883721,58.4882303 15.4883721,58.0109785 L15.4883721,54.8364813 C15.228955,54.7334547 15.0241641,54.5068805 14.9626502,54.2174805 L7.13986934,17.4141902 C7.04131335,16.9505208 7.33684562,16.4948428 7.80222475,16.3959234 L58.3036483,5.66151446 C58.768013,5.56281068 59.2254123,5.86366915 59.3229065,6.32234326 L61.7659139,17.8157895 L66.6398028,17.8157895 Z M68.8372093,28.1537745 L68.8637733,28.2787483 L68.8372093,28.5383071 L68.8372093,28.1537745 Z" id="Rectangle-343" fill="#333333"></path>
                <g id="Group-3" transform="translate(11.000000, 12.000000)">
                    <rect id="Rectangle-343" fill="#333333" x="0.325581395" y="0.684210526" width="63.6744186" height="51.3157895" rx="1.72093023"></rect>
                    <rect id="Rectangle-343" fill="#FFFFFF" x="5.3255814" y="5.68421053" width="53.6699982" height="41.3199997" rx="1.72093023"></rect>
                    <path d="M21.1082416,26.6932189 L26.9423645,31.8666227 L36.4773177,16.3464115 L42.378106,26.6932189 L47.3996318,21.5198152 L52.0121564,40.1440686 L11.8831924,40.1440686 L21.1082416,26.6932189 Z M15.3250529,21.3131579 C17.7011617,21.3131579 19.6273784,19.3985861 19.6273784,17.0368421 C19.6273784,14.6750981 17.7011617,12.7605263 15.3250529,12.7605263 C12.948944,12.7605263 11.0227273,14.6750981 11.0227273,17.0368421 C11.0227273,19.3985861 12.948944,21.3131579 15.3250529,21.3131579 Z" id="Rectangle-168-Copy-2" fill="#333333"></path>
                </g>
            </g>
        </g>
    </g>
</svg>