<?xml version="1.0" encoding="UTF-8" standalone="no"?>
<svg width="77px" height="76px" viewBox="0 0 77 76" version="1.1" xmlns="http://www.w3.org/2000/svg" xmlns:xlink="http://www.w3.org/1999/xlink" xmlns:sketch="http://www.bohemiancoding.com/sketch/ns">
    <!-- Generator: Sketch 3.5.1 (25234) - http://www.bohemiancoding.com/sketch -->
    <title>info</title>
    <desc>Created with Sketch.</desc>
    <defs></defs>
    <g id="Resources" stroke="none" stroke-width="1" fill="none" fill-rule="evenodd" sketch:type="MSPage">
        <g id="Icons" sketch:type="MSLayerGroup" transform="translate(-573.000000, -123.000000)" fill="#333333">
            <path d="M573.117648,161 C573.117648,181.995 590.122648,199 611.117648,199 C632.112648,199 649.117648,181.995 649.117648,161 C649.117648,140.005 632.112648,123 611.117648,123 C590.122648,123 573.117648,140.005 573.117648,161 Z M611.117648,189 C626.587648,189 639.117648,176.47 639.117648,161 C639.117648,145.53 626.587648,133 611.117648,133 C595.647648,133 583.117648,145.53 583.117648,161 C583.117648,176.47 595.647648,189 611.117648,189 Z M611.117648,150 C613.879071,150 616.117648,147.761424 616.117648,145 C616.117648,142.238576 613.879071,140 611.117648,140 C608.356224,140 606.117648,142.238576 606.117648,145 C606.117648,147.761424 608.356224,150 611.117648,150 Z M606.117648,158.005839 C606.117648,155.24119 608.361843,153 611.117648,153 L611.117648,153 C613.879071,153 616.117648,155.244026 616.117648,158.005839 L616.117648,175.994161 C616.117648,178.75881 613.873453,181 611.117648,181 L611.117648,181 C608.356224,181 606.117648,178.755974 606.117648,175.994161 L606.117648,158.005839 Z" id="info" sketch:type="MSShapeGroup"></path>
        </g>
    </g>
</svg>