<?xml version="1.0" encoding="UTF-8" standalone="no"?>
<svg width="77px" height="76px" viewBox="0 0 77 76" version="1.1" xmlns="http://www.w3.org/2000/svg" xmlns:xlink="http://www.w3.org/1999/xlink" xmlns:sketch="http://www.bohemiancoding.com/sketch/ns">
    <!-- Generator: Sketch 3.3.3 (12072) - http://www.bohemiancoding.com/sketch -->
    <title>info</title>
    <desc>Created with Sketch.</desc>
    <defs></defs>
    <g id="Resources" stroke="none" stroke-width="1" fill="none" fill-rule="evenodd" sketch:type="MSPage">
        <path d="M0.117647722,38 C0.117647722,58.995 17.1226477,76 38.1176477,76 C59.1126477,76 76.1176477,58.995 76.1176477,38 C76.1176477,17.005 59.1126477,0 38.1176477,0 C17.1226477,0 0.117647722,17.005 0.117647722,38 Z M38.1176477,66 C53.5876477,66 66.1176477,53.47 66.1176477,38 C66.1176477,22.53 53.5876477,10 38.1176477,10 C22.6476477,10 10.1176477,22.53 10.1176477,38 C10.1176477,53.47 22.6476477,66 38.1176477,66 Z M38.1176477,27 C40.8790715,27 43.1176477,24.7614237 43.1176477,22 C43.1176477,19.2385763 40.8790715,17 38.1176477,17 C35.356224,17 33.1176477,19.2385763 33.1176477,22 C33.1176477,24.7614237 35.356224,27 38.1176477,27 Z M33.1176477,35.0058389 C33.1176477,32.2411904 35.3618429,30 38.1176477,30 L38.1176477,30 C40.8790715,30 43.1176477,32.2440262 43.1176477,35.0058389 L43.1176477,52.9941611 C43.1176477,55.7588096 40.8734525,58 38.1176477,58 L38.1176477,58 C35.356224,58 33.1176477,55.7559738 33.1176477,52.9941611 L33.1176477,35.0058389 Z" id="info" fill="#333333" sketch:type="MSShapeGroup"></path>
    </g>
</svg>