<?xml version="1.0" encoding="UTF-8" standalone="no"?>
<svg width="74px" height="64px" viewBox="0 0 74 64" version="1.1" xmlns="http://www.w3.org/2000/svg" xmlns:xlink="http://www.w3.org/1999/xlink" xmlns:sketch="http://www.bohemiancoding.com/sketch/ns">
    <!-- Generator: Sketch 3.4.4 (17249) - http://www.bohemiancoding.com/sketch -->
    <title>leave</title>
    <desc>Created with Sketch.</desc>
    <defs></defs>
    <g id="Resources" stroke="none" stroke-width="1" fill="none" fill-rule="evenodd" sketch:type="MSPage">
        <g id="Icons" sketch:type="MSLayerGroup" transform="translate(-124.000000, -309.000000)" fill="#333333">
            <path d="M166.466755,343.82484 L154.691203,355.600392 C153.487531,356.804063 153.481631,358.768296 154.689494,359.976159 C155.894899,361.181564 157.856454,361.183257 159.065261,359.97445 L175.695457,343.344254 C176.334901,342.70481 176.636309,341.85072 176.597284,341.009415 C176.642059,340.163321 176.341796,339.301775 175.695457,338.655437 L159.065261,322.02524 C157.86159,320.821569 155.897357,320.815668 154.689494,322.023531 C153.484089,323.228936 153.482396,325.190492 154.691203,326.399299 L165.862692,337.570789 L127.127738,337.570789 C125.40554,337.570789 124,338.970806 124,340.697814 C124,342.421309 125.400336,343.82484 127.127738,343.82484 L166.466755,343.82484 Z M141.209302,349.648649 L141.209302,367.0078 C141.209302,370.311214 143.894261,373 147.206326,373 L192.002976,373 C195.318085,373 198,370.3172 198,367.0078 L198,314.9922 C198,311.688786 195.315041,309 192.002976,309 L147.206326,309 C143.891217,309 141.209302,311.6828 141.209302,314.9922 L141.209302,332.351351 L148.093023,332.351351 L148.093023,319.918023 C148.093023,317.709379 149.886904,315.918919 152.101912,315.918919 L187.10739,315.918919 C189.321438,315.918919 191.116279,317.704217 191.116279,319.918023 L191.116279,362.081977 C191.116279,364.290621 189.322398,366.081081 187.10739,366.081081 L152.101912,366.081081 C149.887864,366.081081 148.093023,364.295783 148.093023,362.081977 L148.093023,349.648649 L141.209302,349.648649 Z" id="leave" sketch:type="MSShapeGroup"></path>
        </g>
    </g>
</svg>