<?xml version="1.0" encoding="UTF-8" standalone="no"?>
<svg width="62px" height="77px" viewBox="0 0 62 77" version="1.1" xmlns="http://www.w3.org/2000/svg" xmlns:xlink="http://www.w3.org/1999/xlink" xmlns:sketch="http://www.bohemiancoding.com/sketch/ns">
    <!-- Generator: Sketch 3.5.2 (25235) - http://www.bohemiancoding.com/sketch -->
    <title>location</title>
    <desc>Created with Sketch.</desc>
    <defs></defs>
    <g id="Resources" stroke="none" stroke-width="1" fill="none" fill-rule="evenodd" sketch:type="MSPage">
        <g id="Icons" sketch:type="MSLayerGroup" transform="translate(-310.000000, -33.000000)" fill="#333333">
            <path d="M340.848196,109.5 C340.848196,109.5 371.348196,80.1978996 371.348196,63.5833333 C371.348196,46.9687671 357.692881,33.5 340.848196,33.5 C324.003512,33.5 310.348196,46.9687671 310.348196,63.5833333 C310.348196,80.1978996 340.848196,109.5 340.848196,109.5 Z M340.348196,82.5 C350.289322,82.5 358.348196,74.4411255 358.348196,64.5 C358.348196,54.5588745 350.289322,46.5 340.348196,46.5 C330.407071,46.5 322.348196,54.5588745 322.348196,64.5 C322.348196,74.4411255 330.407071,82.5 340.348196,82.5 Z M340.348196,75.5 C346.423329,75.5 351.348196,70.5751322 351.348196,64.5 C351.348196,58.4248678 346.423329,53.5 340.348196,53.5 C334.273064,53.5 329.348196,58.4248678 329.348196,64.5 C329.348196,70.5751322 334.273064,75.5 340.348196,75.5 Z" id="location" sketch:type="MSShapeGroup"></path>
        </g>
    </g>
</svg>