<?xml version="1.0" encoding="UTF-8" standalone="no"?>
<svg width="62px" height="77px" viewBox="0 0 62 77" version="1.1" xmlns="http://www.w3.org/2000/svg" xmlns:xlink="http://www.w3.org/1999/xlink" xmlns:sketch="http://www.bohemiancoding.com/sketch/ns">
    <!-- Generator: Sketch 3.3.3 (12072) - http://www.bohemiancoding.com/sketch -->
    <title>location</title>
    <desc>Created with Sketch.</desc>
    <defs></defs>
    <g id="Resources" stroke="none" stroke-width="1" fill="none" fill-rule="evenodd" sketch:type="MSPage">
        <path d="M30.8481964,76.5 C30.8481964,76.5 61.3481964,47.1978996 61.3481964,30.5833333 C61.3481964,13.9687671 47.6928813,0.5 30.8481964,0.5 C14.0035115,0.5 0.348196384,13.9687671 0.348196384,30.5833333 C0.348196384,47.1978996 30.8481964,76.5 30.8481964,76.5 Z M30.3481964,49.5 C40.2893219,49.5 48.3481964,41.4411255 48.3481964,31.5 C48.3481964,21.5588745 40.2893219,13.5 30.3481964,13.5 C20.4070709,13.5 12.3481964,21.5588745 12.3481964,31.5 C12.3481964,41.4411255 20.4070709,49.5 30.3481964,49.5 Z M30.3481964,42.5 C36.4233286,42.5 41.3481964,37.5751322 41.3481964,31.5 C41.3481964,25.4248678 36.4233286,20.5 30.3481964,20.5 C24.2730641,20.5 19.3481964,25.4248678 19.3481964,31.5 C19.3481964,37.5751322 24.2730641,42.5 30.3481964,42.5 Z" id="location" fill="#333333" sketch:type="MSShapeGroup"></path>
    </g>
</svg>