<?xml version="1.0" encoding="UTF-8" standalone="no"?>
<svg width="76px" height="75px" viewBox="0 0 76 75" version="1.1" xmlns="http://www.w3.org/2000/svg" xmlns:xlink="http://www.w3.org/1999/xlink" xmlns:sketch="http://www.bohemiancoding.com/sketch/ns">
    <!-- Generator: Sketch 3.3.3 (12072) - http://www.bohemiancoding.com/sketch -->
    <title>messages</title>
    <desc>Created with Sketch.</desc>
    <defs></defs>
    <g id="Resources" stroke="none" stroke-width="1" fill="none" fill-rule="evenodd" sketch:type="MSPage">
        <path d="M69.2142857,48.5699997 L71.995984,48.5699997 C74.2040175,48.5699997 75.9971422,46.7812316 75.9971422,44.5746743 L75.9971422,3.99532544 C75.9971422,1.78623449 74.2057627,0 71.995984,0 L14.8583011,0 C12.6502676,0 10.8571429,1.78876813 10.8571429,3.99532544 L10.8571429,44.5746743 C10.8571429,46.7837652 12.6485224,48.5699997 14.8583011,48.5699997 L49.7676186,48.5699997 L66.6915708,59.4496833 C68.0770212,60.34033 69.2142857,59.7303323 69.2142857,58.0760062 L69.2142857,48.5699997 Z M63.2202559,62.9173165 C62.614239,63.2861133 61.9025223,63.4985711 61.1415233,63.4985711 L27.5895243,63.4985711 L27.5895243,63.4985711 L10.665572,74.3782547 C9.27231508,75.2739199 8.14285714,74.6518174 8.14285714,73.0045776 L8.14285714,63.4985711 L4.00133382,63.4985711 C1.79145817,63.4985711 0,61.7123366 0,59.5032457 L0,18.9238969 C0,16.7173396 1.79320345,14.9285714 4.00133382,14.9285714 L6.78571429,14.9285714 L6.78571429,48.6462473 C6.78571429,50.8540801 8.57717246,52.6428571 10.7870481,52.6428571 L48.0789474,52.6428571 L63.2202559,62.9173165 L63.2202559,62.9173165 Z" id="messages" fill="#333333" sketch:type="MSShapeGroup"></path>
    </g>
</svg>