<?xml version="1.0" encoding="UTF-8" standalone="no"?>
<svg width="74px" height="74px" viewBox="0 0 74 74" version="1.1" xmlns="http://www.w3.org/2000/svg" xmlns:xlink="http://www.w3.org/1999/xlink" xmlns:sketch="http://www.bohemiancoding.com/sketch/ns">
    <!-- Generator: Sketch 3.5.2 (25235) - http://www.bohemiancoding.com/sketch -->
    <title>options</title>
    <desc>Created with Sketch.</desc>
    <defs></defs>
    <g id="Resources" stroke="none" stroke-width="1" fill="none" fill-rule="evenodd" sketch:type="MSPage">
        <g id="Icons" sketch:type="MSLayerGroup" transform="translate(-214.000000, -35.000000)" fill="#333333">
            <path d="M280.883667,71.9789116 C280.883667,67.365364 283.722976,63.7226259 288,61.2189592 C287.230929,58.6439354 286.209024,56.1772687 284.952786,53.8550782 C280.157762,55.1104354 276.275405,53.230483 273.011476,49.9683163 C269.74931,46.7061497 268.749429,42.8220306 270.005667,38.0270068 C267.682595,36.7698878 265.21681,35.748864 262.640024,34.9789116 C260.136357,39.2568163 255.614429,42.0961259 251,42.0961259 C246.387333,42.0961259 241.865405,39.2568163 239.359976,34.9789116 C236.784071,35.747983 234.318286,36.7698878 231.996095,38.0252449 C233.250571,42.8211497 232.252452,46.7043878 228.990286,49.9683163 C225.726357,53.231364 221.843119,55.1104354 217.047214,53.8568402 C215.790976,56.1781497 214.770833,58.6448163 214,61.2189592 C218.277024,63.7226259 221.117214,67.365364 221.117214,71.9789116 C221.117214,76.5924592 218.277024,81.1152687 214,83.6180544 C214.770833,86.1948402 215.790976,88.6615068 217.047214,90.9836973 C221.844,89.7283402 225.726357,90.7273402 228.990286,93.9903878 C232.252452,97.2534354 233.250571,101.135793 231.996095,105.932578 C234.319167,107.187935 236.784952,108.210721 239.361738,108.978912 C241.865405,104.702769 246.387333,101.861697 251,101.861697 C255.614429,101.861697 260.136357,104.702769 262.640024,108.978912 C265.21769,108.208959 267.683476,107.187935 270.005667,105.930816 C268.75119,101.136673 269.74931,97.2534354 273.011476,93.9903878 C276.275405,90.7273402 280.156881,88.8473878 284.952786,90.1027449 C286.209024,87.7796735 287.230929,85.3130068 288,82.7371021 C283.722976,80.2343163 280.883667,76.5924592 280.883667,71.9789116 L280.883667,71.9789116 Z M251,88.0695068 C242.113833,88.0695068 234.910286,80.8641973 234.910286,71.9780306 C234.910286,63.090983 242.113833,55.8865544 251,55.8865544 C259.887048,55.8865544 267.091476,63.090983 267.091476,71.9780306 C267.091476,80.8650782 259.887048,88.0695068 251,88.0695068 L251,88.0695068 Z" id="options" sketch:type="MSShapeGroup"></path>
        </g>
    </g>
</svg>