<?xml version="1.0" encoding="UTF-8" standalone="no"?>
<svg width="74px" height="74px" viewBox="0 0 74 74" version="1.1" xmlns="http://www.w3.org/2000/svg" xmlns:xlink="http://www.w3.org/1999/xlink" xmlns:sketch="http://www.bohemiancoding.com/sketch/ns">
    <!-- Generator: Sketch 3.3.3 (12072) - http://www.bohemiancoding.com/sketch -->
    <title>options</title>
    <desc>Created with Sketch.</desc>
    <defs></defs>
    <g id="Resources" stroke="none" stroke-width="1" fill="none" fill-rule="evenodd" sketch:type="MSPage">
        <path d="M66.8836667,36.9789116 C66.8836667,32.365364 69.7229762,28.7226259 74,26.2189592 C73.2309286,23.6439354 72.2090238,21.1772687 70.9527857,18.8550782 C66.1577619,20.1104354 62.2754048,18.230483 59.0114762,14.9683163 C55.7493095,11.7061497 54.7494286,7.82203063 56.0056667,3.02700682 C53.6825952,1.76988777 51.2168095,0.748863961 48.6400238,-0.0210884198 C46.1363571,4.25681634 41.6144286,7.09612587 37,7.09612587 C32.3873333,7.09612587 27.8654048,4.25681634 25.3599762,-0.0210884198 C22.7840714,0.747983009 20.3182857,1.76988777 17.9960952,3.02524491 C19.2505714,7.82114968 18.2524524,11.7043878 14.9902857,14.9683163 C11.7263571,18.231364 7.84311905,20.1104354 3.04721429,18.8568402 C1.79097619,21.1781497 0.770833333,23.6448163 0,26.2189592 C4.27702381,28.7226259 7.11721429,32.365364 7.11721429,36.9789116 C7.11721429,41.5924592 4.27702381,46.1152687 0,48.6180544 C0.770833333,51.1948402 1.79097619,53.6615068 3.04721429,55.9836973 C7.844,54.7283402 11.7263571,55.7273402 14.9902857,58.9903878 C18.2524524,62.2534354 19.2505714,66.1357925 17.9960952,70.9325782 C20.3191667,72.1879354 22.7849524,73.2107211 25.3617381,73.9789116 C27.8654048,69.7027687 32.3873333,66.8616973 37,66.8616973 C41.6144286,66.8616973 46.1363571,69.7027687 48.6400238,73.9789116 C51.2176905,73.2089592 53.6834762,72.1879354 56.0056667,70.9308163 C54.7511905,66.1366735 55.7493095,62.2534354 59.0114762,58.9903878 C62.2754048,55.7273402 66.156881,53.8473878 70.9527857,55.1027449 C72.2090238,52.7796735 73.2309286,50.3130068 74,47.7371021 C69.7229762,45.2343163 66.8836667,41.5924592 66.8836667,36.9789116 L66.8836667,36.9789116 Z M37,53.0695068 C28.1138333,53.0695068 20.9102857,45.8641973 20.9102857,36.9780306 C20.9102857,28.090983 28.1138333,20.8865544 37,20.8865544 C45.8870476,20.8865544 53.0914762,28.090983 53.0914762,36.9780306 C53.0914762,45.8650782 45.8870476,53.0695068 37,53.0695068 L37,53.0695068 Z" id="options" fill="#333333" sketch:type="MSShapeGroup"></path>
    </g>
</svg>