<?xml version="1.0" encoding="UTF-8" standalone="no"?>
<svg width="76px" height="70px" viewBox="0 0 76 70" version="1.1" xmlns="http://www.w3.org/2000/svg" xmlns:xlink="http://www.w3.org/1999/xlink" xmlns:sketch="http://www.bohemiancoding.com/sketch/ns">
    <!-- Generator: Sketch 3.5.1 (25234) - http://www.bohemiancoding.com/sketch -->
    <title>phone</title>
    <desc>Created with Sketch.</desc>
    <defs></defs>
    <g id="Resources" stroke="none" stroke-width="1" fill="none" fill-rule="evenodd" sketch:type="MSPage">
        <g id="Icons" sketch:type="MSLayerGroup" transform="translate(-483.000000, -36.000000)" fill="#333333">
            <path d="M535.96342,104.55975 C535.758195,104.4705 535.547268,104.4005 535.330641,104.34975 C513.730641,94.19975 495.830404,77.71825 484.805226,57.82775 C484.746318,57.623 484.666508,57.42 484.565796,57.22575 C483.528266,55.2045 483,53.06775 483,50.875 C483,42.3875 491.070309,36 496.301663,36 C496.985748,36 497.438005,36.322 497.645131,36.51275 C497.694537,36.55825 497.778147,36.64925 497.903563,36.83475 C497.971971,36.93275 498.044181,37.029 498.12209,37.12175 L510.635154,51.93725 C510.730166,52.05275 510.83658,52.1595 510.946793,52.26275 C511.155819,52.4535 511.503563,52.87175 511.503563,53.5 C511.503563,53.80975 511.410451,54.102 511.228029,54.3715 L506.994299,58.24075 C505.4,59.625 504.525891,61.46775 504.525891,63.398 C504.525891,65.20575 505.287886,66.9295 506.614252,68.221 C506.659857,68.28925 506.709264,68.3575 506.76247,68.424 C511.433254,74.36875 517.173872,79.6345 523.822803,84.07775 C525.382898,85.4165 527.267933,86.1305 529.24038,86.1305 C531.226128,86.1305 533.137767,85.40075 534.557245,84.1145 C534.631354,84.05675 534.701663,83.9955 534.770071,83.93075 L539.026603,79.981 C539.324941,79.8095 539.644181,79.722 539.978622,79.722 C540.660808,79.722 541.113064,80.044 541.32209,80.23475 C541.432304,80.338 541.550119,80.43425 541.673634,80.52525 L557.762945,92.04725 C557.867458,92.12075 557.973872,92.189 558.084086,92.25375 C558.285511,92.36925 558.378622,92.4445 558.424228,92.48475 C558.631354,92.67725 558.980998,93.092 558.980998,93.722 C558.980998,93.841 558.986698,93.9565 559,94.0755 C558.703563,98.89325 551.870309,106 542.857482,106 C540.474584,106 538.156295,105.51525 535.96342,104.55975 Z" id="phone" sketch:type="MSShapeGroup"></path>
        </g>
    </g>
</svg>