<?xml version="1.0" encoding="UTF-8" standalone="no"?>
<svg width="76px" height="70px" viewBox="0 0 76 70" version="1.1" xmlns="http://www.w3.org/2000/svg" xmlns:xlink="http://www.w3.org/1999/xlink" xmlns:sketch="http://www.bohemiancoding.com/sketch/ns">
    <!-- Generator: Sketch 3.3.3 (12072) - http://www.bohemiancoding.com/sketch -->
    <title>phone</title>
    <desc>Created with Sketch.</desc>
    <defs></defs>
    <g id="Resources" stroke="none" stroke-width="1" fill="none" fill-rule="evenodd" sketch:type="MSPage">
        <path d="M52.9634204,68.55975 C52.7581948,68.4705 52.5472684,68.4005 52.3306413,68.34975 C30.7306413,58.19975 12.8304038,41.71825 1.80522565,21.82775 C1.74631829,21.623 1.66650831,21.42 1.56579572,21.22575 C0.528266033,19.2045 0,17.06775 0,14.875 C0,6.3875 8.07030879,0 13.3016627,0 C13.9857482,0 14.4380048,0.322 14.6451306,0.51275 C14.6945368,0.55825 14.7781473,0.64925 14.9035629,0.83475 C14.9719715,0.93275 15.0441805,1.029 15.1220903,1.12175 L27.6351544,15.93725 C27.7301663,16.05275 27.8365796,16.1595 27.9467933,16.26275 C28.1558195,16.4535 28.5035629,16.87175 28.5035629,17.5 C28.5035629,17.80975 28.4104513,18.102 28.2280285,18.3715 L23.9942993,22.24075 C22.4,23.625 21.5258907,25.46775 21.5258907,27.398 C21.5258907,29.20575 22.287886,30.9295 23.6142518,32.221 C23.6598575,32.28925 23.7092637,32.3575 23.7624703,32.424 C28.4332542,38.36875 34.1738717,43.6345 40.8228029,48.07775 C42.3828979,49.4165 44.2679335,50.1305 46.24038,50.1305 C48.2261283,50.1305 50.1377672,49.40075 51.5572447,48.1145 C51.6313539,48.05675 51.7016627,47.9955 51.7700713,47.93075 L56.0266033,43.981 C56.3249406,43.8095 56.6441805,43.722 56.9786223,43.722 C57.6608076,43.722 58.1130641,44.044 58.3220903,44.23475 C58.432304,44.338 58.5501188,44.43425 58.6736342,44.52525 L74.7629454,56.04725 C74.8674584,56.12075 74.9738717,56.189 75.0840855,56.25375 C75.2855107,56.36925 75.3786223,56.4445 75.424228,56.48475 C75.6313539,56.67725 75.9809976,57.092 75.9809976,57.722 C75.9809976,57.841 75.9866983,57.9565 76,58.0755 C75.7035629,62.89325 68.8703088,70 59.8574822,70 C57.4745843,70 55.1562945,69.51525 52.9634204,68.55975 Z" id="phone" fill="#333333" sketch:type="MSShapeGroup"></path>
    </g>
</svg>