<?xml version="1.0" encoding="UTF-8" standalone="no"?>
<svg width="74px" height="57px" viewBox="0 0 74 57" version="1.1" xmlns="http://www.w3.org/2000/svg" xmlns:xlink="http://www.w3.org/1999/xlink" xmlns:sketch="http://www.bohemiancoding.com/sketch/ns">
    <!-- Generator: Sketch 3.3.3 (12072) - http://www.bohemiancoding.com/sketch -->
    <title>photo</title>
    <desc>Created with Sketch.</desc>
    <defs></defs>
    <g id="Resources" stroke="none" stroke-width="1" fill="none" fill-rule="evenodd" sketch:type="MSPage">
        <path d="M14.1964438,7.4 L4.00479924,7.4 C1.79255726,7.4 0,9.18942034 0,11.3967822 L0,52.2432178 C0,54.4438358 1.7930097,56.24 4.00479924,56.24 L69.9952008,56.24 C72.2074427,56.24 74,54.4505797 74,52.2432178 L74,11.3967822 C74,9.19616416 72.2069903,7.4 69.9952008,7.4 L58.3220739,7.4 C58.412003,7.06671899 58.46,6.71623446 58.46,6.35455351 L58.46,4.00544649 C58.46,1.78094749 56.6696425,0 54.4611245,0 L18.0588755,0 C15.8555238,0 14.06,1.79329948 14.06,4.00544649 L14.06,6.35455351 C14.06,6.71671618 14.1074551,7.06712212 14.1964438,7.4 Z M37,47.3627232 C27.598152,47.3627232 19.98,39.7377632 19.98,30.3427232 C19.98,20.9408752 27.598152,13.32 37,13.32 C46.401848,13.32 54.02,20.9408752 54.02,30.3427232 C54.02,39.7377632 46.401848,47.3627232 37,47.3627232 Z M37,20.72 C31.68976,20.72 27.38,25.0284773 27.38,30.3425653 C27.38,35.6528053 31.68976,39.9625653 37,39.9625653 C42.31024,39.9625653 46.62,35.6528053 46.62,30.3425653 C46.62,25.0284773 42.31024,20.72 37,20.72 Z M65.12,19.24 C66.7547629,19.24 68.08,17.9147629 68.08,16.28 C68.08,14.6452371 66.7547629,13.32 65.12,13.32 C63.4852371,13.32 62.16,14.6452371 62.16,16.28 C62.16,17.9147629 63.4852371,19.24 65.12,19.24 Z" id="photo" fill="#333333" sketch:type="MSShapeGroup"></path>
    </g>
</svg>