<?xml version="1.0" encoding="UTF-8" standalone="no"?>
<svg width="74px" height="57px" viewBox="0 0 74 57" version="1.1" xmlns="http://www.w3.org/2000/svg" xmlns:xlink="http://www.w3.org/1999/xlink" xmlns:sketch="http://www.bohemiancoding.com/sketch/ns">
    <!-- Generator: Sketch 3.4.4 (17249) - http://www.bohemiancoding.com/sketch -->
    <title>photo</title>
    <desc>Created with Sketch.</desc>
    <defs></defs>
    <g id="Resources" stroke="none" stroke-width="1" fill="none" fill-rule="evenodd" sketch:type="MSPage">
        <g id="Icons" sketch:type="MSLayerGroup" transform="translate(-484.000000, -222.000000)" fill="#333333">
            <path d="M498.196444,229.4 L488.004799,229.4 C485.792557,229.4 484,231.18942 484,233.396782 L484,274.243218 C484,276.443836 485.79301,278.24 488.004799,278.24 L553.995201,278.24 C556.207443,278.24 558,276.45058 558,274.243218 L558,233.396782 C558,231.196164 556.20699,229.4 553.995201,229.4 L542.322074,229.4 C542.412003,229.066719 542.46,228.716234 542.46,228.354554 L542.46,226.005446 C542.46,223.780947 540.669642,222 538.461125,222 L502.058875,222 C499.855524,222 498.06,223.793299 498.06,226.005446 L498.06,228.354554 C498.06,228.716716 498.107455,229.067122 498.196444,229.4 Z M521,269.362723 C511.598152,269.362723 503.98,261.737763 503.98,252.342723 C503.98,242.940875 511.598152,235.32 521,235.32 C530.401848,235.32 538.02,242.940875 538.02,252.342723 C538.02,261.737763 530.401848,269.362723 521,269.362723 Z M521,242.72 C515.68976,242.72 511.38,247.028477 511.38,252.342565 C511.38,257.652805 515.68976,261.962565 521,261.962565 C526.31024,261.962565 530.62,257.652805 530.62,252.342565 C530.62,247.028477 526.31024,242.72 521,242.72 Z M549.12,241.24 C550.754763,241.24 552.08,239.914763 552.08,238.28 C552.08,236.645237 550.754763,235.32 549.12,235.32 C547.485237,235.32 546.16,236.645237 546.16,238.28 C546.16,239.914763 547.485237,241.24 549.12,241.24 Z" id="photo" sketch:type="MSShapeGroup"></path>
        </g>
    </g>
</svg>