<?xml version="1.0" encoding="UTF-8" standalone="no"?>
<svg width="68px" height="52px" viewBox="0 0 68 52" version="1.1" xmlns="http://www.w3.org/2000/svg" xmlns:xlink="http://www.w3.org/1999/xlink" xmlns:sketch="http://www.bohemiancoding.com/sketch/ns">
    <!-- Generator: Sketch 3.3.3 (12072) - http://www.bohemiancoding.com/sketch -->
    <title>quoteup</title>
    <desc>Created with Sketch.</desc>
    <defs></defs>
    <g id="Resources" stroke="none" stroke-width="1" fill="none" fill-rule="evenodd" sketch:type="MSPage">
        <path d="M30.115014,38.1047116 C30.115014,42.0654362 28.8175547,45.2407971 26.2225972,47.6308895 C23.6276397,50.020982 20.3498479,51.2160102 16.3891233,51.2160102 C11.6089384,51.2160102 7.6824169,49.6454016 4.60944092,46.5041373 C1.53646494,43.362873 0,38.8559091 0,32.9831106 C0,26.7005819 1.80961427,20.5205785 5.42889709,14.4429149 C9.04817991,8.36525128 14.135586,3.55099446 20.6912681,0 L25.4031411,7.17024143 C21.8521466,9.62862222 19.0182224,12.3601154 16.9012834,15.3648031 C14.7843444,18.3694907 13.3844541,21.8521446 12.7015705,25.8128692 C13.9307609,25.2665623 15.3647949,24.993413 17.0037154,24.993413 C20.8278633,24.993413 23.9690805,26.222585 26.4274613,28.6809657 C28.8858421,31.1393465 30.115014,34.2805637 30.115014,38.1047116 L30.115014,38.1047116 Z M67.8099976,38.1047116 C67.8099976,42.0654362 66.5125383,45.2407971 63.9175808,47.6308895 C61.3226233,50.020982 58.0448314,51.2160102 54.0841068,51.2160102 C49.303922,51.2160102 45.3774004,49.6454016 42.3044245,46.5041373 C39.2314485,43.362873 37.6949835,38.8559091 37.6949835,32.9831106 C37.6949835,26.7005819 39.5045978,20.5205785 43.1238806,14.4429149 C46.7431634,8.36525128 51.8305696,3.55099446 58.3862517,0 L63.0981246,7.17024143 C59.5471302,9.62862222 56.7132059,12.3601154 54.5962669,15.3648031 C52.4793279,18.3694907 51.0794376,21.8521446 50.3965541,25.8128692 C51.6257445,25.2665623 53.0597784,24.993413 54.6986989,24.993413 C58.5228468,24.993413 61.664064,26.222585 64.1224448,28.6809657 C66.5808256,31.1393465 67.8099976,34.2805637 67.8099976,38.1047116 L67.8099976,38.1047116 Z" id="quoteup" fill="#333333" sketch:type="MSShapeGroup"></path>
    </g>
</svg>