<?xml version="1.0" encoding="UTF-8" standalone="no"?>
<svg width="68px" height="52px" viewBox="0 0 68 52" version="1.1" xmlns="http://www.w3.org/2000/svg" xmlns:xlink="http://www.w3.org/1999/xlink" xmlns:sketch="http://www.bohemiancoding.com/sketch/ns">
    <!-- Generator: Sketch 3.3.3 (12072) - http://www.bohemiancoding.com/sketch -->
    <title>quotedown</title>
    <desc>Created with Sketch.</desc>
    <defs></defs>
    <g id="Resources" stroke="none" stroke-width="1" fill="none" fill-rule="evenodd" sketch:type="MSPage">
        <path d="M37.6949835,13.1112986 C37.6949835,9.15057403 38.9924428,5.97521315 41.5874003,3.58512072 C44.1823578,1.19502829 47.4601497,0 51.4208743,0 C56.2010591,0 60.1275807,1.57060861 63.2005566,4.71187294 C66.2735326,7.85313728 67.8099976,12.3601011 67.8099976,18.2328996 C67.8099976,24.5154283 66.0003833,30.6954317 62.3811005,36.7730954 C58.7618177,42.850759 53.6744115,47.6650158 47.1187294,51.2160102 L42.4068565,44.0457688 C45.9578509,41.587388 48.7917752,38.8558948 50.9087142,35.8512072 C53.0256532,32.8465195 54.4255435,29.3638657 55.108427,25.4031411 C53.8792366,25.9494479 52.4452027,26.2225972 50.8062822,26.2225972 C46.9821343,26.2225972 43.8409171,24.9934253 41.3825363,22.5350445 C38.9241555,20.0766637 37.6949835,16.9354465 37.6949835,13.1112986 L37.6949835,13.1112986 Z M0,13.1112986 C0,9.15057403 1.29745928,5.97521315 3.89241678,3.58512072 C6.48737427,1.19502829 9.76516615,0 13.7258907,0 C18.5060756,0 22.4325971,1.57060861 25.5055731,4.71187294 C28.5785491,7.85313728 30.115014,12.3601011 30.115014,18.2328996 C30.115014,24.5154283 28.3053998,30.6954317 24.6861169,36.7730954 C21.0668341,42.850759 15.979428,47.6650158 9.42374588,51.2160102 L4.71187294,44.0457688 C8.26286741,41.587388 11.0967916,38.8558948 13.2137306,35.8512072 C15.3306697,32.8465195 16.7305599,29.3638657 17.4134435,25.4031411 C16.1842531,25.9494479 14.7502191,26.2225972 13.1112986,26.2225972 C9.28715074,26.2225972 6.14593352,24.9934253 3.68755274,22.5350445 C1.22917195,20.0766637 0,16.9354465 0,13.1112986 L0,13.1112986 Z" id="quotedown" fill="#333333" sketch:type="MSShapeGroup"></path>
    </g>
</svg>