<?xml version="1.0" encoding="UTF-8" standalone="no"?>
<svg width="68px" height="52px" viewBox="0 0 68 52" version="1.1" xmlns="http://www.w3.org/2000/svg" xmlns:xlink="http://www.w3.org/1999/xlink" xmlns:sketch="http://www.bohemiancoding.com/sketch/ns">
    <!-- Generator: Sketch 3.5.1 (25234) - http://www.bohemiancoding.com/sketch -->
    <title>quotedown</title>
    <desc>Created with Sketch.</desc>
    <defs></defs>
    <g id="Resources" stroke="none" stroke-width="1" fill="none" fill-rule="evenodd" sketch:type="MSPage">
        <g id="Icons" sketch:type="MSLayerGroup" transform="translate(-397.000000, -225.000000)" fill="#333333">
            <path d="M434.694984,238.111299 C434.694984,234.150574 435.992443,230.975213 438.5874,228.585121 C441.182358,226.195028 444.46015,225 448.420874,225 C453.201059,225 457.127581,226.570609 460.200557,229.711873 C463.273533,232.853137 464.809998,237.360101 464.809998,243.2329 C464.809998,249.515428 463.000383,255.695432 459.3811,261.773095 C455.761818,267.850759 450.674412,272.665016 444.118729,276.21601 L439.406856,269.045769 C442.957851,266.587388 445.791775,263.855895 447.908714,260.851207 C450.025653,257.84652 451.425543,254.363866 452.108427,250.403141 C450.879237,250.949448 449.445203,251.222597 447.806282,251.222597 C443.982134,251.222597 440.840917,249.993425 438.382536,247.535045 C435.924155,245.076664 434.694984,241.935447 434.694984,238.111299 L434.694984,238.111299 Z M397,238.111299 C397,234.150574 398.297459,230.975213 400.892417,228.585121 C403.487374,226.195028 406.765166,225 410.725891,225 C415.506076,225 419.432597,226.570609 422.505573,229.711873 C425.578549,232.853137 427.115014,237.360101 427.115014,243.2329 C427.115014,249.515428 425.3054,255.695432 421.686117,261.773095 C418.066834,267.850759 412.979428,272.665016 406.423746,276.21601 L401.711873,269.045769 C405.262867,266.587388 408.096792,263.855895 410.213731,260.851207 C412.33067,257.84652 413.73056,254.363866 414.413443,250.403141 C413.184253,250.949448 411.750219,251.222597 410.111299,251.222597 C406.287151,251.222597 403.145934,249.993425 400.687553,247.535045 C398.229172,245.076664 397,241.935447 397,238.111299 L397,238.111299 Z" id="quotedown" sketch:type="MSShapeGroup"></path>
        </g>
    </g>
</svg>