<?xml version="1.0" encoding="UTF-8" standalone="no"?>
<svg width="68px" height="52px" viewBox="0 0 68 52" version="1.1" xmlns="http://www.w3.org/2000/svg" xmlns:xlink="http://www.w3.org/1999/xlink" xmlns:sketch="http://www.bohemiancoding.com/sketch/ns">
    <!-- Generator: Sketch 3.5.1 (25234) - http://www.bohemiancoding.com/sketch -->
    <title>quoteup</title>
    <desc>Created with Sketch.</desc>
    <defs></defs>
    <g id="Resources" stroke="none" stroke-width="1" fill="none" fill-rule="evenodd" sketch:type="MSPage">
        <g id="Icons" sketch:type="MSLayerGroup" transform="translate(-307.000000, -225.000000)" fill="#333333">
            <path d="M337.115014,263.104712 C337.115014,267.065436 335.817555,270.240797 333.222597,272.63089 C330.62764,275.020982 327.349848,276.21601 323.389123,276.21601 C318.608938,276.21601 314.682417,274.645402 311.609441,271.504137 C308.536465,268.362873 307,263.855909 307,257.983111 C307,251.700582 308.809614,245.520578 312.428897,239.442915 C316.04818,233.365251 321.135586,228.550994 327.691268,225 L332.403141,232.170241 C328.852147,234.628622 326.018222,237.360115 323.901283,240.364803 C321.784344,243.369491 320.384454,246.852145 319.701571,250.812869 C320.930761,250.266562 322.364795,249.993413 324.003715,249.993413 C327.827863,249.993413 330.969081,251.222585 333.427461,253.680966 C335.885842,256.139347 337.115014,259.280564 337.115014,263.104712 L337.115014,263.104712 Z M374.809998,263.104712 C374.809998,267.065436 373.512538,270.240797 370.917581,272.63089 C368.322623,275.020982 365.044831,276.21601 361.084107,276.21601 C356.303922,276.21601 352.3774,274.645402 349.304424,271.504137 C346.231448,268.362873 344.694984,263.855909 344.694984,257.983111 C344.694984,251.700582 346.504598,245.520578 350.123881,239.442915 C353.743163,233.365251 358.83057,228.550994 365.386252,225 L370.098125,232.170241 C366.54713,234.628622 363.713206,237.360115 361.596267,240.364803 C359.479328,243.369491 358.079438,246.852145 357.396554,250.812869 C358.625744,250.266562 360.059778,249.993413 361.698699,249.993413 C365.522847,249.993413 368.664064,251.222585 371.122445,253.680966 C373.580826,256.139347 374.809998,259.280564 374.809998,263.104712 L374.809998,263.104712 Z" id="quoteup" sketch:type="MSShapeGroup"></path>
        </g>
    </g>
</svg>