<?xml version="1.0" encoding="UTF-8" standalone="no"?>
<svg width="76px" height="66px" viewBox="0 0 76 66" version="1.1" xmlns="http://www.w3.org/2000/svg" xmlns:xlink="http://www.w3.org/1999/xlink" xmlns:sketch="http://www.bohemiancoding.com/sketch/ns">
    <!-- Generator: Sketch 3.5.2 (25235) - http://www.bohemiancoding.com/sketch -->
    <title>reload</title>
    <desc>Created with Sketch.</desc>
    <defs></defs>
    <g id="Resources" stroke="none" stroke-width="1" fill="none" fill-rule="evenodd" sketch:type="MSPage">
        <g id="Icons" sketch:type="MSLayerGroup" transform="translate(-303.000000, -397.000000)" fill="#333333">
            <path d="M331.472935,449.89956 L331.505595,449.864624 C335.521546,452.829155 340.478242,454.584158 345.84602,454.584158 C359.229891,454.584158 370.076123,443.698399 370.076123,430.275002 C370.076123,416.843698 359.229891,405.965845 345.84602,405.965845 C332.730934,405.965845 322.058622,416.408901 321.639634,429.460744 L332.920664,429.460744 L318.382603,445.666848 L303.844541,429.460744 L313.560299,429.460744 C313.987191,411.934435 328.272279,397.862793 345.84602,397.862793 C363.688546,397.862793 378.155459,412.369233 378.155459,430.275002 C378.155459,448.172865 363.688546,462.68721 345.84602,462.68721 C339.273685,462.68721 333.156383,460.715398 328.0522,457.329858 C327.27842,457.066138 326.608441,456.57815 326.119748,455.943377 C326.062374,455.898939 326.005153,455.854312 325.948087,455.809498 L325.98979,455.764887 C325.53464,455.103236 325.268221,454.301669 325.268221,453.437877 C325.268221,451.167536 327.108696,449.327061 329.379038,449.327061 C330.143739,449.327061 330.859672,449.535861 331.472935,449.89956 Z" id="reload" sketch:type="MSShapeGroup" transform="translate(341.000000, 430.275002) scale(-1, 1) translate(-341.000000, -430.275002) "></path>
        </g>
    </g>
</svg>