<?xml version="1.0" encoding="UTF-8" standalone="no"?>
<svg width="78px" height="76px" viewBox="0 0 78 76" version="1.1" xmlns="http://www.w3.org/2000/svg" xmlns:xlink="http://www.w3.org/1999/xlink" xmlns:sketch="http://www.bohemiancoding.com/sketch/ns">
    <!-- Generator: Sketch 3.5.2 (25235) - http://www.bohemiancoding.com/sketch -->
    <title>search</title>
    <desc>Created with Sketch.</desc>
    <defs></defs>
    <g id="Resources" stroke="none" stroke-width="1" fill="none" fill-rule="evenodd" sketch:type="MSPage">
        <g id="Icons" sketch:type="MSLayerGroup" transform="translate(-392.000000, -33.000000)" fill="#333333">
            <path d="M448.137133,79.3615011 C455.396239,67.7777994 453.98706,52.314554 443.909596,42.2370903 C432.193867,30.5213616 413.198918,30.5213616 401.483189,42.2370903 C389.767461,53.9528191 389.767461,72.9477684 401.483189,84.6634972 C412.216037,95.3963444 429.057969,96.2967679 440.815849,87.3647677 C441.108818,88.085135 441.547372,88.7601298 442.131714,89.3444716 L459.094749,106.307507 C461.448625,108.661382 465.240648,108.654416 467.583794,106.311271 C469.922172,103.972893 469.925255,100.16745 467.58003,97.8222255 L450.616995,80.8591902 C449.897308,80.1395031 449.043182,79.6405084 448.137133,79.3615011 Z M435.424315,76.1782158 C442.453752,69.1487786 442.453752,57.7518089 435.424315,50.7223717 C428.394878,43.6929344 416.997908,43.6929344 409.968471,50.7223717 C402.939033,57.7518089 402.939033,69.1487786 409.968471,76.1782158 C416.997908,83.2076531 428.394878,83.2076531 435.424315,76.1782158 Z" id="search" sketch:type="MSShapeGroup"></path>
        </g>
    </g>
</svg>