<?xml version="1.0" encoding="UTF-8" standalone="no"?>
<svg width="78px" height="76px" viewBox="0 0 78 76" version="1.1" xmlns="http://www.w3.org/2000/svg" xmlns:xlink="http://www.w3.org/1999/xlink" xmlns:sketch="http://www.bohemiancoding.com/sketch/ns">
    <!-- Generator: Sketch 3.3.3 (12072) - http://www.bohemiancoding.com/sketch -->
    <title>search</title>
    <desc>Created with Sketch.</desc>
    <defs></defs>
    <g id="Resources" stroke="none" stroke-width="1" fill="none" fill-rule="evenodd" sketch:type="MSPage">
        <path d="M56.1371326,46.3615011 C63.3962387,34.7777994 61.9870599,19.314554 51.9095962,9.23709031 C40.1938675,-2.47863844 21.1989181,-2.47863844 9.48318933,9.23709031 C-2.23253942,20.9528191 -2.23253942,39.9477684 9.48318933,51.6634972 C20.2160365,62.3963444 37.0579687,63.2967679 48.8158493,54.3647677 C49.1088175,55.085135 49.5473719,55.7601298 50.1317136,56.3444716 L67.094749,73.3075069 C69.4486245,75.6613825 73.2406483,75.6544164 75.583794,73.3112706 C77.922172,70.9728927 77.9252547,67.1674499 75.5800303,64.8222255 L58.616995,47.8591902 C57.8973079,47.1395031 57.0431822,46.6405084 56.1371326,46.3615011 Z M43.4243148,43.1782158 C50.4537521,36.1487786 50.4537521,24.7518089 43.4243148,17.7223717 C36.3948776,10.6929344 24.997908,10.6929344 17.9684707,17.7223717 C10.9390335,24.7518089 10.9390335,36.1487786 17.9684707,43.1782158 C24.997908,50.2076531 36.3948776,50.2076531 43.4243148,43.1782158 Z" id="search" fill="#333333" sketch:type="MSShapeGroup"></path>
    </g>
</svg>