<?xml version="1.0" encoding="UTF-8" standalone="no"?>
<svg width="68px" height="68px" viewBox="0 0 68 68" version="1.1" xmlns="http://www.w3.org/2000/svg" xmlns:xlink="http://www.w3.org/1999/xlink" xmlns:sketch="http://www.bohemiancoding.com/sketch/ns">
    <!-- Generator: Sketch 3.5.1 (25234) - http://www.bohemiancoding.com/sketch -->
    <title>share</title>
    <desc>Created with Sketch.</desc>
    <defs></defs>
    <g id="Resources" stroke="none" stroke-width="1" fill="none" fill-rule="evenodd" sketch:type="MSPage">
        <g id="Icons" sketch:type="MSLayerGroup" transform="translate(-578.000000, -306.000000)" fill="#333333">
            <path d="M596.104496,347.368973 C594.188426,349.332582 591.512779,350.551724 588.551724,350.551724 C582.724168,350.551724 578,345.828838 578,340 C578,334.172444 582.722886,329.448276 588.551724,329.448276 C591.512372,329.448276 594.188228,330.667288 596.104499,332.631026 L624.934841,317.457162 C624.909488,317.158723 624.896552,316.856738 624.896552,316.551724 C624.896552,310.724168 629.619438,306 635.448276,306 C641.275832,306 646,310.722886 646,316.551724 C646,322.37928 641.277114,327.103448 635.448276,327.103448 C632.163619,327.103448 629.229501,325.603022 627.294275,323.249837 L598.945434,338.17028 C599.049296,338.76455 599.103448,339.375936 599.103448,340 C599.103448,340.624038 599.049291,341.235424 598.945418,341.829712 L627.294293,356.750172 C629.229305,354.397162 632.163141,352.896552 635.448276,352.896552 C641.275832,352.896552 646,357.619438 646,363.448276 C646,369.275832 641.277114,374 635.448276,374 C629.62072,374 624.896552,369.277114 624.896552,363.448276 C624.896552,363.143269 624.909489,362.841284 624.934846,362.542841 L596.104496,347.368973 Z" id="share" sketch:type="MSShapeGroup"></path>
        </g>
    </g>
</svg>