<?xml version="1.0" encoding="UTF-8" standalone="no"?>
<svg width="70px" height="54px" viewBox="0 0 70 54" version="1.1" xmlns="http://www.w3.org/2000/svg" xmlns:xlink="http://www.w3.org/1999/xlink" xmlns:sketch="http://www.bohemiancoding.com/sketch/ns">
    <!-- Generator: Sketch 3.3.3 (12072) - http://www.bohemiancoding.com/sketch -->
    <title>smallspacing</title>
    <desc>Created with Sketch.</desc>
    <defs></defs>
    <g id="Resources" stroke="none" stroke-width="1" fill="none" fill-rule="evenodd" sketch:type="MSPage">
        <path d="M0,3.85714286 C0,1.72690168 1.73034668,0 3.86321321,0 L66.1367868,0 C68.2703805,0 70,1.73123629 70,3.85714286 C70,5.98738403 68.2696533,7.71428571 66.1367868,7.71428571 L3.86321321,7.71428571 C1.72961947,7.71428571 0,5.98304942 0,3.85714286 Z M0,15.4285714 C0,13.2983303 1.73034668,11.5714286 3.86321321,11.5714286 L66.1367868,11.5714286 C68.2703805,11.5714286 70,13.3026649 70,15.4285714 C70,17.5588126 68.2696533,19.2857143 66.1367868,19.2857143 L3.86321321,19.2857143 C1.72961947,19.2857143 0,17.554478 0,15.4285714 Z M0,27 C0,24.8697588 1.73034668,23.1428571 3.86321321,23.1428571 L66.1367868,23.1428571 C68.2703805,23.1428571 70,24.8740934 70,27 C70,29.1302412 68.2696533,30.8571429 66.1367868,30.8571429 L3.86321321,30.8571429 C1.72961947,30.8571429 0,29.1259066 0,27 Z M0,38.5714286 C0,36.4411874 1.73034668,34.7142857 3.86321321,34.7142857 L66.1367868,34.7142857 C68.2703805,34.7142857 70,36.445522 70,38.5714286 C70,40.7016697 68.2696533,42.4285714 66.1367868,42.4285714 L3.86321321,42.4285714 C1.72961947,42.4285714 0,40.6973351 0,38.5714286 Z M0,50.1428571 C0,48.012616 1.73034668,46.2857143 3.86321321,46.2857143 L66.1367868,46.2857143 C68.2703805,46.2857143 70,48.0169506 70,50.1428571 C70,52.2730983 68.2696533,54 66.1367868,54 L3.86321321,54 C1.72961947,54 0,52.2687637 0,50.1428571 Z" id="smallspacing" fill="#333333" sketch:type="MSShapeGroup"></path>
    </g>
</svg>