<?xml version="1.0" encoding="UTF-8" standalone="no"?>
<svg width="70px" height="54px" viewBox="0 0 70 54" version="1.1" xmlns="http://www.w3.org/2000/svg" xmlns:xlink="http://www.w3.org/1999/xlink" xmlns:sketch="http://www.bohemiancoding.com/sketch/ns">
    <!-- Generator: Sketch 3.5.1 (25234) - http://www.bohemiancoding.com/sketch -->
    <title>smallspacing</title>
    <desc>Created with Sketch.</desc>
    <defs></defs>
    <g id="Resources" stroke="none" stroke-width="1" fill="none" fill-rule="evenodd" sketch:type="MSPage">
        <g id="Icons" sketch:type="MSLayerGroup" transform="translate(-756.000000, -133.000000)" fill="#333333">
            <path d="M756,136.857143 C756,134.726902 757.730347,133 759.863213,133 L822.136787,133 C824.270381,133 826,134.731236 826,136.857143 C826,138.987384 824.269653,140.714286 822.136787,140.714286 L759.863213,140.714286 C757.729619,140.714286 756,138.983049 756,136.857143 Z M756,148.428571 C756,146.29833 757.730347,144.571429 759.863213,144.571429 L822.136787,144.571429 C824.270381,144.571429 826,146.302665 826,148.428571 C826,150.558813 824.269653,152.285714 822.136787,152.285714 L759.863213,152.285714 C757.729619,152.285714 756,150.554478 756,148.428571 Z M756,160 C756,157.869759 757.730347,156.142857 759.863213,156.142857 L822.136787,156.142857 C824.270381,156.142857 826,157.874093 826,160 C826,162.130241 824.269653,163.857143 822.136787,163.857143 L759.863213,163.857143 C757.729619,163.857143 756,162.125907 756,160 Z M756,171.571429 C756,169.441187 757.730347,167.714286 759.863213,167.714286 L822.136787,167.714286 C824.270381,167.714286 826,169.445522 826,171.571429 C826,173.70167 824.269653,175.428571 822.136787,175.428571 L759.863213,175.428571 C757.729619,175.428571 756,173.697335 756,171.571429 Z M756,183.142857 C756,181.012616 757.730347,179.285714 759.863213,179.285714 L822.136787,179.285714 C824.270381,179.285714 826,181.016951 826,183.142857 C826,185.273098 824.269653,187 822.136787,187 L759.863213,187 C757.729619,187 756,185.268764 756,183.142857 Z" id="smallspacing" sketch:type="MSShapeGroup"></path>
        </g>
    </g>
</svg>