<svg xmlns="http://www.w3.org/2000/svg" width="80" height="80" viewBox="0 0 80 80" style="background:#fff">
  <path fill="#2980B9" fill-rule="evenodd" d="M70.0863202,60.9871139 L70.0863202,72.3974628 C70.0863202,74.0544112 68.9458325,74.6732653 67.5595517,73.7927846 L47.3975465,60.9871139 L9.06462869,60.9871139 C5.162942,60.9871139 2,57.8165894 2,53.9246745 L2,12.0624394 C2,8.16196183 5.16886634,5 9.06462869,5 L70.9353713,5 C74.837058,5 78,8.17052442 78,12.0624394 L78,53.9246745 C78,57.825152 74.8311337,60.9871139 70.9353713,60.9871139 L70.0863202,60.9871139 Z M14.8338963,32.6650348 C14.8338963,33.9471597 15.8626343,34.9704544 17.1316468,34.9704544 L61.5382955,34.9704544 C62.8125665,34.9704544 63.836046,33.9382829 63.836046,32.6650348 C63.836046,31.3829099 62.8073081,30.3596153 61.5382955,30.3596153 L17.1316468,30.3596153 C15.8573759,30.3596153 14.8338963,31.3917868 14.8338963,32.6650348 Z M14.8338963,43.0394229 C14.8338963,44.3215478 15.8626343,45.3448425 17.1316468,45.3448425 L61.5382955,45.3448425 C62.8125665,45.3448425 63.836046,44.312671 63.836046,43.0394229 C63.836046,41.757298 62.8073081,40.7340033 61.5382955,40.7340033 L17.1316468,40.7340033 C15.8573759,40.7340033 14.8338963,41.7661748 14.8338963,43.0394229 Z M14.8338963,21.137937 C14.8338963,22.4200619 15.8620961,23.4433565 17.1304448,23.4433565 L47.5388833,23.4433565 C48.806858,23.4433565 49.8354318,22.411185 49.8354318,21.137937 C49.8354318,19.8558121 48.807232,18.8325174 47.5388833,18.8325174 L17.1304448,18.8325174 C15.8624701,18.8325174 14.8338963,19.8646889 14.8338963,21.137937 Z"/>
</svg>
