<?xml version="1.0" encoding="UTF-8" standalone="no"?>
<svg width="76px" height="76px" viewBox="0 0 76 76" version="1.1" xmlns="http://www.w3.org/2000/svg" xmlns:xlink="http://www.w3.org/1999/xlink" xmlns:sketch="http://www.bohemiancoding.com/sketch/ns">
    <!-- Generator: Sketch 3.5.1 (25234) - http://www.bohemiancoding.com/sketch -->
    <title>trash</title>
    <desc>Created with Sketch.</desc>
    <defs></defs>
    <g id="Resources" stroke="none" stroke-width="1" fill="none" fill-rule="evenodd" sketch:type="MSPage">
        <g id="Icons" sketch:type="MSLayerGroup" transform="translate(-843.000000, -213.000000)" fill="#333333">
            <path d="M869.177778,224.822222 L847.005718,224.822222 C844.785183,224.822222 843,226.613083 843,228.822222 C843,231.026866 844.793421,232.822222 847.005718,232.822222 L849.169651,232.822222 L852.588525,284.789117 C852.741481,287.114038 854.756414,289 857.088904,289 L904.375544,289 C906.712607,289 908.722922,287.114723 908.875922,284.789117 L912.294797,232.822222 L914.994282,232.822222 C917.214817,232.822222 919,231.031361 919,228.822222 C919,226.617578 917.206579,224.822222 914.994282,224.822222 L894.511111,224.822222 L894.511111,221.444444 C894.511111,216.790196 890.734349,213 886.075478,213 L877.613411,213 C872.956747,213 869.177778,216.780707 869.177778,221.444444 L869.177778,224.822222 Z M904.60933,232.822222 L901.808603,276.038293 C901.657936,278.363126 899.650691,280.247776 897.306165,280.247776 L864.985674,280.247776 C862.649713,280.247776 860.633983,278.364373 860.483236,276.038293 L857.682509,232.822222 L904.60933,232.822222 Z M875.933333,222.006667 C875.933333,220.38295 877.243688,219.066667 878.87087,219.066667 L884.818019,219.066667 C886.440375,219.066667 887.755556,220.386253 887.755556,222.006667 L887.755556,224.946667 L875.933333,224.946667 L875.933333,222.006667 Z M881,240.022222 C882.399121,240.022222 883.533333,241.165424 883.533333,242.561045 L883.533333,271.261177 C883.533333,272.66333 882.408876,273.8 881,273.8 C879.600879,273.8 878.466667,272.656798 878.466667,271.261177 L878.466667,242.561045 C878.466667,241.158892 879.591124,240.022222 881,240.022222 Z M893.706118,240.045368 C895.103322,240.118592 896.176149,241.319588 896.103108,242.713296 L894.601059,271.374095 C894.527676,272.774327 893.345271,273.850589 891.938326,273.776854 C890.541122,273.70363 889.468295,272.502635 889.541336,271.108926 L891.043385,242.448127 C891.116768,241.047896 892.299173,239.971633 893.706118,240.045368 Z M868.293882,240.045368 C869.691086,239.972144 870.883574,241.054419 870.956615,242.448127 L872.458664,271.108926 C872.532047,272.509158 871.468619,273.70312 870.061674,273.776854 C868.66447,273.850079 867.471982,272.767803 867.398941,271.374095 L865.896892,242.713296 C865.823509,241.313064 866.886937,240.119103 868.293882,240.045368 Z" id="trash" sketch:type="MSShapeGroup"></path>
        </g>
    </g>
</svg>