<?xml version="1.0" encoding="UTF-8" standalone="no"?>
<svg width="75px" height="72px" viewBox="0 0 75 72" version="1.1" xmlns="http://www.w3.org/2000/svg" xmlns:xlink="http://www.w3.org/1999/xlink" xmlns:sketch="http://www.bohemiancoding.com/sketch/ns">
    <!-- Generator: Sketch 3.5.1 (25234) - http://www.bohemiancoding.com/sketch -->
    <title>user</title>
    <desc>Created with Sketch.</desc>
    <defs></defs>
    <g id="Resources" stroke="none" stroke-width="1" fill="none" fill-rule="evenodd" sketch:type="MSPage">
        <g id="Icons" sketch:type="MSLayerGroup" transform="translate(-844.000000, -305.000000)" fill="#333333">
            <path d="M902.724202,358.792 C892.889628,355.1984 889.746011,352.1672 889.746011,345.676 C889.746011,341.7792 892.749202,343.052 894.067287,335.916 C894.614628,332.956 897.266755,335.868 897.774202,329.1104 C897.774202,326.4168 896.326862,325.748 896.326862,325.748 C896.326862,325.748 897.0625,321.7624 897.350532,318.6952 C897.707181,314.8736 895.148404,305 881.499202,305 C867.85,305 865.289628,314.8736 865.647872,318.6952 C865.935904,321.7624 866.671543,325.748 866.671543,325.748 C866.671543,325.748 865.224202,326.4168 865.224202,329.1104 C865.730851,335.868 868.382979,332.956 868.930319,335.916 C870.25,343.0512 873.251596,341.7792 873.251596,345.676 C873.251596,352.1664 870.109574,355.1976 860.275,358.792 C850.409309,362.3968 844,366.072 844,368.5784 L844,377 L881.5,377 L919,377 L919,368.5784 C918.999202,366.0712 912.589894,362.3968 902.724202,358.792 L902.724202,358.792 Z" id="user" sketch:type="MSShapeGroup"></path>
        </g>
    </g>
</svg>