<?xml version="1.0" encoding="UTF-8" standalone="no"?>
<svg width="76px" height="65px" viewBox="0 0 76 65" version="1.1" xmlns="http://www.w3.org/2000/svg" xmlns:xlink="http://www.w3.org/1999/xlink" xmlns:sketch="http://www.bohemiancoding.com/sketch/ns">
    <!-- Generator: Sketch 3.3.3 (12072) - http://www.bohemiancoding.com/sketch -->
    <title>users</title>
    <desc>Created with Sketch.</desc>
    <defs></defs>
    <g id="Resources" stroke="none" stroke-width="1" fill="none" fill-rule="evenodd" sketch:type="MSPage">
        <g id="users" sketch:type="MSLayerGroup" fill="#333333">
            <path d="M45.7629391,7.68159086 C44.1881954,4.27507871 40.5328638,0.772038567 32.9548832,0.772038567 C21.0597727,0.772038567 18.82844,9.40331635 19.1406458,12.7440726 C19.391662,15.4253495 20.0327617,18.9094708 20.0327617,18.9094708 C20.0327617,18.9094708 18.7714224,19.4941207 18.7714224,21.8488049 C19.2129607,27.7561459 21.5242571,25.2105414 22.0012575,27.7981064 C23.151343,34.0355369 25.7671965,32.9235833 25.7671965,36.3300777 C25.7671965,42.0038385 23.0289639,44.653645 14.4582541,47.7957882 C5.8604263,50.9470228 0.274793388,54.1597995 0.274793388,56.3508377 L0.274793388,63.7128099 L16.3960055,63.7128099 L16.3960055,57.3835956 C16.3960055,55.4242153 21.3910708,52.5511247 29.0798524,49.7330694 C36.744383,46.9231442 39.1931029,44.5535012 39.1931029,39.4796257 C39.1931029,36.4332991 36.853823,37.4276861 35.8253358,31.8497377 C35.3987685,29.5357553 33.3318449,31.8122137 32.9369904,26.5294543 C32.9369904,24.4237304 34.0649686,23.9008954 34.0649686,23.9008954 C34.0649686,23.9008954 33.4916522,20.7851494 33.2671759,18.3873633 C32.9879795,15.3998243 34.983394,7.68112948 45.6208373,7.68112948 C45.668377,7.68112948 45.7157441,7.68128364 45.7629391,7.68159086 Z" id="adduser-copy-2" sketch:type="MSShapeGroup"></path>
            <path d="M63.5638502,50.0561381 C56.050315,47.3021831 53.6486171,44.9792233 53.6486171,40.0046929 C53.6486171,37.0183806 55.943031,37.9937908 56.9500374,32.5251179 C57.368201,30.2567222 59.3944051,32.4883331 59.7820903,27.3096471 C59.7820903,25.245407 58.676334,24.7328722 58.676334,24.7328722 C58.676334,24.7328722 59.2383557,21.6785081 59.4584097,19.3279597 C59.7308866,16.3992769 57.776002,8.83264463 47.3481222,8.83264463 C36.9202425,8.83264463 34.9641388,16.3992769 35.2378348,19.3279597 C35.4578888,21.6785081 36.0199105,24.7328722 36.0199105,24.7328722 C36.0199105,24.7328722 34.9141542,25.245407 34.9141542,27.3096471 C35.3012299,32.4883331 37.3274339,30.2567222 37.7455975,32.5251179 C38.753823,37.9931777 41.0470178,37.0183806 41.0470178,40.0046929 C41.0470178,44.9786102 38.646539,47.30157 31.1330039,50.0561381 C23.5956956,52.8186762 18.6990358,55.6351653 18.6990358,57.5559447 L18.6990358,64.0098369 L47.3487318,64.0098369 L75.9984278,64.0098369 L75.9984278,57.5559447 C75.9978183,55.6345522 71.1011585,52.8186762 63.5638502,50.0561381 L63.5638502,50.0561381 Z" id="adduser-copy-3" sketch:type="MSShapeGroup"></path>
        </g>
    </g>
</svg>