<?xml version="1.0" encoding="UTF-8" standalone="no"?>
<svg width="74px" height="74px" viewBox="0 0 74 74" version="1.1" xmlns="http://www.w3.org/2000/svg" xmlns:xlink="http://www.w3.org/1999/xlink" xmlns:sketch="http://www.bohemiancoding.com/sketch/ns">
    <!-- Generator: Sketch 3.5.2 (25235) - http://www.bohemiancoding.com/sketch -->
    <title>world</title>
    <desc>Created with Sketch.</desc>
    <defs>
        <path d="M3.61365846,21.0316924 C1.29730325,25.8659594 0,31.281479 0,37 C0,57.4345357 16.5654643,74 37,74 C57.4345357,74 74,57.4345357 74,37 C74,36.6292225 73.9945462,36.2597187 73.9837144,35.8915646 C73.9175242,35.9182647 73.8495897,35.9427725 73.792419,35.9810748 C73.5955995,36.1138075 73.4522245,36.3796119 73.237419,36.5918486 C73.1329282,36.6959328 72.9816736,36.7605192 72.8874606,36.8562969 C72.8091782,36.9369875 72.7843403,37.0653128 72.7021181,37.1415959 C72.4828588,37.3470519 72.1532847,37.3641732 72.0028866,37.6509979 C71.9944931,37.9893561 72.1647616,38.2453285 72.1265625,38.5665654 C72.108919,38.7125205 71.9980903,38.8433885 71.9819884,38.9942596 C71.9682847,39.1234324 72.0359468,39.2631154 72.0028866,39.4016117 C71.9850718,39.475013 71.9018218,39.5146803 71.8382708,39.605203 C71.7810579,39.6862326 71.7582755,39.7942157 71.7151088,39.8491396 C71.6462477,39.9367804 71.5321644,39.997807 71.4675856,40.0729035 C71.3634375,40.1954651 71.3413403,40.2832755 71.2416458,40.297515 C70.7909653,40.3612538 70.6796227,39.5124766 70.4805764,39.1573361 C70.3885903,38.9932425 70.2018773,38.8455922 70.1102338,38.6482731 C70.0047153,38.4195931 69.9726829,38.133616 69.8221134,37.8740838 C69.6936412,37.6535407 69.5177199,37.431811 69.4313866,37.202792 C69.3580718,37.0088632 69.2948634,36.7662828 69.2256597,36.5513338 C69.1523449,36.32401 69.0726921,36.0383719 69.061044,35.8593608 C69.0435718,35.5949125 69.111919,35.431497 68.8964282,35.3297861 C68.6980671,35.3760646 68.6093356,35.5740617 68.3818542,35.5740617 C68.162081,35.5740617 67.5724792,35.1977315 67.7444606,34.861238 C67.6009144,34.66002 67.2389653,34.5494941 66.9626644,34.3119992 C66.8047292,34.1755371 66.6618681,33.8510794 66.3871088,33.823448 C66.3112245,33.8153111 66.2125579,33.8578602 66.1399282,33.8641323 C65.9655486,33.8788804 65.6572153,33.8487062 65.4607384,33.8641323 C65.2142431,33.8836269 64.9089931,33.9380422 64.5968912,33.9048167 C64.3951042,33.8831184 64.1458681,33.8444682 63.9387708,33.823448 C63.6751458,33.7968336 63.3251875,33.7349595 63.1773588,33.599345 C63.0867431,33.5161116 63.0499144,33.2492901 62.8892384,33.2128437 C62.6985856,33.169108 62.5939236,33.3145545 62.4162894,33.3552389 C62.0394375,33.439998 61.7247662,33.2784472 61.4700486,33.1107937 C61.2895023,32.9923006 61.124544,32.9304264 60.9967569,32.8463454 C60.6841412,32.6390248 60.627956,32.0158761 60.153294,32.0112991 C59.9879931,32.0096039 59.7250532,32.1116539 59.7005579,32.2965981 C59.684456,32.42611 59.8567801,32.6661477 59.9270116,32.7649767 C60.157919,33.0867222 60.5815347,33.2075886 60.7089792,33.6398598 C60.7942847,33.6729159 60.9676366,33.5654414 61.0585949,33.6603715 C61.1382477,33.8461634 61.0575671,34.1904547 61.2435949,34.2713149 C62.0983634,34.4104893 62.3426319,33.9468572 62.7246227,33.6198567 C62.9464514,33.7634386 62.8736505,33.888882 62.9512477,34.0472119 C63.0302153,34.2096103 63.1535486,34.3370879 63.3008634,34.393707 C63.4041551,34.4326961 63.5367384,34.3960802 63.6919329,34.4542249 C63.7892292,34.4908409 64.1945162,34.870731 64.2068495,35.0043113 C64.2164421,35.1241606 63.9401412,35.5316822 63.856206,35.6352578 C63.7741551,35.735443 63.648081,35.7883327 63.6093681,35.8793639 C63.5802477,35.9497139 63.5894977,36.0993984 63.5680856,36.1441512 C63.5304005,36.2253504 63.3454005,36.3306212 63.2385116,36.4289417 C63.1264838,36.5326868 62.9957847,36.6135469 62.8892384,36.693729 C62.7595671,36.7925581 62.6788866,36.9281726 62.5396227,36.979028 C62.2660625,37.0787047 62.0056921,37.0361556 61.7785532,37.1821108 C61.6300394,37.2782275 61.6293542,37.4941936 61.4489792,37.6099745 C61.261581,37.730841 60.9402292,37.73118 60.6671829,37.8540806 C60.4921181,37.9329066 60.387456,38.0854729 60.2362014,38.1393797 C60.1743634,38.1609085 60.0967662,38.142092 60.0297894,38.1593828 C59.8932662,38.1939645 59.7671921,38.2905898 59.6387199,38.3217812 C59.5376551,38.3480565 59.4299097,38.3348341 59.3302153,38.3631436 C59.0133171,38.4540053 58.7226273,38.7728689 58.4045301,38.5872466 C58.2543032,38.2441419 58.2298079,37.8120401 58.0549144,37.5077551 C57.9654977,37.3528155 57.789919,37.3050114 57.7260255,37.1415959 C57.7169468,37.011067 57.8772801,37.0468353 57.889956,36.9385132 C57.8377106,36.7183091 57.628044,36.6150726 57.4995718,36.4289417 C57.4372199,36.3379105 57.4074144,36.20789 57.334956,36.1034669 C57.0896597,35.7503606 56.605919,35.5667725 56.5118773,35.1261948 C56.4865255,35.0060065 56.5161597,34.9122629 56.4918356,34.8208927 C56.4512384,34.6701911 56.3482894,34.5120306 56.2444838,34.393707 C56.1655162,34.3030148 56.0053542,34.2414797 55.9155949,34.1082384 C55.8558125,34.0202585 55.842794,33.8965103 55.791919,33.8027668 C55.5872199,33.4250804 55.2910486,33.0914687 54.9691829,32.8256642 C54.8013125,32.8497358 54.6209375,32.860585 54.5373449,32.9683985 C54.6209375,33.234881 54.7494097,33.4577974 54.8869606,33.6808832 C55.0126921,33.884305 55.1913542,34.1031529 55.2776875,34.3318329 C55.3097199,34.4167614 55.3040671,34.5283044 55.3395255,34.6173014 C55.4686829,34.9397249 55.8755116,35.0394015 55.9568773,35.4114939 C56.0113495,35.660177 55.9447153,35.833594 56.0183727,36.0829552 C56.0896319,36.3224843 56.4462708,36.4638624 56.5944421,36.693729 C56.7150347,36.8812161 56.7162338,37.1466815 56.8003403,37.3250145 C56.923331,37.585903 57.2676366,37.698802 57.5202986,37.8740838 C57.7467523,38.0324137 57.9089699,38.2751637 58.0956829,38.4443428 C58.206169,38.5430023 58.3572523,38.5614798 58.3841458,38.6682762 C58.418919,38.806264 58.3255625,38.8528815 58.3017523,38.9730698 C58.4596875,39.1363158 58.6135116,39.4375495 58.8776505,39.4628077 C58.9862523,39.4729788 59.1234606,39.3644872 59.2894468,39.3397376 C59.3726968,39.3280408 59.4657106,39.352621 59.5359421,39.3397376 C59.6457431,39.320243 59.7413264,39.2241262 59.8658588,39.1973423 C60.0756968,39.1532676 60.3194514,39.170728 60.5851319,39.1363158 C60.8367662,39.1039378 61.0090903,38.8939049 61.2024838,38.9539143 C61.4138634,39.1831028 61.2622662,39.4436522 61.2024838,39.6662295 C61.1817569,39.7438688 61.1814144,39.824729 61.161544,39.8903325 C61.0508866,40.2524232 60.7598542,40.5214485 60.6262431,40.8465843 C60.5851319,40.9464304 60.5924977,41.0689921 60.544706,41.1727372 C60.3913958,41.4992291 60.0719282,41.8209745 59.8240625,42.0888132 C59.684456,42.2395148 59.5614653,42.3751293 59.4129514,42.4959957 C59.265294,42.6156755 59.084919,42.6816181 58.9187616,42.8014674 C58.5895301,43.0394708 58.2465949,43.3812194 58.0138032,43.6968622 C57.9243866,43.8194238 57.8808773,43.9608019 57.7871782,44.0633604 C57.6533958,44.2115192 57.445956,44.284412 57.334956,44.4300281 C57.2472523,44.5447919 57.1890116,44.7524516 57.0882894,44.9590942 C56.9748912,45.1918426 56.7386736,45.3494945 56.7794421,45.6714094 C56.7952014,45.7951576 56.9067153,45.8716103 56.9447431,45.9975623 C57.0079514,46.2145455 56.9591319,46.3977946 56.923331,46.6290173 C57.0398125,46.9075356 57.1234051,47.2177538 57.334956,47.4026981 C57.3603079,47.8144576 57.3006968,48.2138424 57.334956,48.5625412 C57.3567106,48.7844404 57.4439005,48.9480254 57.3556829,49.1531424 C57.2777431,49.3331706 56.9790023,49.650339 56.8003403,49.7634076 C56.605919,49.8876644 56.3087199,49.9200424 56.1004236,50.0698964 C55.9555069,50.173472 55.8361134,50.355704 55.6887986,50.4769095 C55.4462431,50.6771104 55.1140995,50.8639194 55.0926875,51.0671716 C55.0803542,51.1838001 55.1857014,51.3606075 55.2158495,51.4736761 C55.2960162,51.7747403 55.3742986,52.206842 55.2365764,52.5328254 C55.0873773,52.8849146 54.3328171,52.8115132 54.2488819,53.1841141 C54.2238727,53.2975217 54.2994144,53.3873663 54.2899931,53.510267 C54.2826273,53.6135035 54.1452477,53.9879691 54.0842662,54.1003596 C53.9936505,54.2685216 53.7865532,54.3439571 53.6531134,54.4872 C53.484044,54.6675673 53.3997662,54.9286252 53.220419,55.118316 C52.9778634,55.375814 52.6500023,55.6483992 52.3355023,55.870807 C52.062456,56.0662614 51.5720347,56.2688355 51.1429375,56.2986707 C50.8931875,56.3166397 50.6249375,56.2412041 50.3611412,56.2791762 C50.2647014,56.2920595 50.1595255,56.380548 50.0317384,56.4008902 C49.9575671,56.4127564 49.8815116,56.3880068 49.8057986,56.4008902 C49.6764699,56.4220799 49.5553634,56.5237908 49.4352847,56.5232823 C49.168919,56.5197224 48.8264977,56.2050967 48.8182755,55.8919967 C48.8151921,55.7711303 48.9227662,55.6568751 48.9210532,55.5461797 C48.9189977,55.4158203 48.7581505,55.2525743 48.6327616,55.0160965 C48.5128542,54.7891118 48.4655764,54.5311052 48.3449838,54.3451438 C48.2171968,54.1471466 48.0484699,54.0525555 47.9542569,53.8969378 C47.7648032,53.5838378 47.7507569,53.2131017 47.6868634,52.8382971 C47.6661366,52.7153964 47.5813449,52.5826637 47.5630162,52.4304364 C47.5407477,52.2436275 47.5859699,52.0363068 47.5428032,51.8813672 C47.5097431,51.762196 47.3759606,51.6404819 47.295794,51.4943573 C47.150706,51.2304176 47.0487847,50.8851091 46.925794,50.6805007 C46.8099977,50.4880977 46.5761782,50.2873882 46.5552801,50.0698964 C46.5412338,49.9219071 46.5741227,49.645084 46.5965625,49.4989593 C46.618831,49.3562251 46.7257199,49.2431565 46.7611782,49.0924549 C46.7843032,48.9924392 46.7563819,48.8776754 46.7812199,48.7664715 C46.8862245,48.3006357 47.4047384,48.1314566 47.3372477,47.564927 C47.3081273,47.3247198 47.1366597,47.2067351 47.110794,46.9338109 C47.0986319,46.8063333 47.1752014,46.6941123 47.1726319,46.5673127 C47.1688634,46.3954213 47.0217199,46.1404661 46.9460069,45.9768811 C46.7377106,45.5281666 46.6099236,45.1172546 46.3084421,44.7760146 C46.1445116,44.5900532 45.9293634,44.4586767 45.7942106,44.2871243 C45.6837245,44.1477804 45.5489144,43.8857054 45.5470301,43.7785699 C45.5449745,43.662111 45.6373032,43.5898962 45.6705347,43.4732678 C45.7137014,43.3229052 45.716956,43.0387928 45.7734838,42.8014674 C45.7993495,42.6922977 45.9184005,42.4281885 45.8971597,42.2520591 C45.8764329,42.0813544 45.6201736,41.7552015 45.4031412,41.7016337 C45.115706,41.6316227 44.8203912,41.7928345 44.4569005,41.7628298 C44.144456,41.5672059 44.1677523,41.0544135 43.7163866,40.9896576 C43.1235301,40.9037119 42.5173125,41.1403592 42.1116829,41.3146238 C41.8771782,41.4158262 41.6387338,41.5705962 41.4324931,41.5792416 C41.2372153,41.5887347 41.0450208,41.4770222 40.8569375,41.4575276 C40.6118125,41.4329475 40.2974838,41.456002 40.0544144,41.4983815 C39.8180255,41.5402525 39.604419,41.7068888 39.3961227,41.7223149 C38.9971736,41.7519806 38.6180949,41.3664964 38.3676597,41.1727372 C38.2143495,41.0544135 38.0582986,40.9577882 37.9150949,40.8465843 C37.7612708,40.7277521 37.5618819,40.6557068 37.4418032,40.5421297 C37.2797569,40.3860035 37.2797569,40.1161306 37.1949653,39.9105051 C37.0947569,39.6674161 36.7898495,39.4894221 36.5570579,39.2587079 C36.3830208,39.086308 35.9835579,38.8293185 35.9398773,38.6072497 C35.9181227,38.4940116 35.9886968,38.3636522 35.9809884,38.2407515 C35.9701968,38.0627575 35.8345301,37.9613856 35.8370995,37.8340775 C35.8413819,37.6545578 36.0543032,37.5167396 36.1046644,37.3656989 C36.1307014,37.2885682 36.1180255,37.179568 36.1457755,37.0809084 C36.203331,36.8740963 36.3415671,36.7518737 36.3103912,36.4489448 C36.2978866,36.329265 36.1935671,36.2190782 36.1867153,36.0627825 C36.1824329,35.9558166 36.2578032,35.8963157 36.2485532,35.7981647 C36.2329653,35.6244086 36.0049699,35.5903355 35.9809884,35.3909822 C35.9570069,35.1843396 36.1800347,35.0146519 36.3103912,34.7802083 C36.3689745,34.6752766 36.4013495,34.5140649 36.4542801,34.4342218 C36.5695625,34.2604657 36.7576458,34.1772323 36.8453495,34.006358 C36.9097569,33.8805756 36.9306551,33.6935971 36.9892384,33.599345 C37.0651227,33.47797 37.2158634,33.4127055 37.3597523,33.2533585 C37.4765764,33.1231686 37.5243681,32.9661948 37.6065903,32.9072025 C37.7098819,32.8332926 37.8642199,32.8154931 37.9767616,32.7649767 C38.3577245,32.5932549 38.636081,32.3722032 38.8198819,32.0112991 C38.7638681,31.683112 38.8486597,31.5454633 38.984669,31.3193261 C39.1104005,31.1099712 39.2023866,30.9094312 39.4168495,30.7897514 C39.6741366,30.645661 39.9156644,30.6324386 40.0953542,30.3623962 C40.1852847,30.2267817 40.3204375,29.9938638 40.3218079,29.8535028 C40.3240347,29.6521152 40.113169,29.3939391 39.9312523,29.3646125 C39.7452245,29.3354554 39.4595023,29.5046345 39.3551829,29.303925 C39.3219514,29.2396776 39.3676875,29.0896541 39.3551829,29.018626 C39.3312014,28.8853847 39.215919,28.7914717 39.2111227,28.6931512 C39.2013588,28.5021042 39.4014329,28.3030899 39.4579606,28.0825468 C39.5348727,27.7823302 39.4605301,27.5524636 39.4372338,27.2069857 C39.7248403,26.7581017 40.3639468,26.9808485 41.0009977,27.0235671 C41.0964097,27.0301783 41.2060394,27.0006821 41.309331,27.0033944 C41.6872106,27.0122093 41.9842384,27.1247694 42.1116829,26.7998031 C42.1593032,26.6775805 42.201956,26.2224244 42.1733495,26.1073215 C42.1396042,25.9705204 41.8692986,25.6179227 41.741169,25.5377406 C41.5369838,25.4092459 41.2409838,25.4651869 41.1239884,25.2322689 C41.2190579,24.8303414 41.6741921,25.1649702 41.9468958,25.0688535 C42.0861597,25.0205408 42.0704005,24.7818593 42.1940764,24.7428701 C42.2783542,24.7171033 42.3859282,24.8271206 42.5027523,24.8252559 C42.6026181,24.8230522 42.9635394,24.6431934 43.0580949,24.5804717 C43.1896505,24.4919832 43.2300764,24.3100903 43.3458727,24.2344852 C43.4243264,24.1834602 43.5276181,24.1897324 43.6134375,24.1531165 C43.7885023,24.078698 44.0098171,23.9269793 44.1278403,23.7866183 C44.2977662,23.5850612 44.3739931,23.335361 44.5800625,23.2982365 C44.8561921,23.2483982 45.4800532,23.3521433 45.5269884,23.0534524 C45.5708403,22.7691705 45.2738125,22.545576 45.3829282,22.2392568 C45.4690903,21.9970153 45.6888634,22.0397339 45.9999375,21.8925922 C46.1501644,21.998541 46.1063125,22.2997747 46.1230995,22.4838714 C46.3142662,22.4855666 46.7034514,22.4277609 46.7404514,22.2592599 C46.7865301,22.049905 46.4619236,21.8366512 46.3908356,21.7101907 C46.3137523,21.572881 46.2971366,21.3316567 46.1438264,21.3030081 C45.8306968,21.2433377 45.5263032,21.7301938 45.1354051,21.7301938 C44.8788032,21.7301938 44.6066134,21.5342308 44.539294,21.3436925 C44.5007523,21.2346923 44.5355255,21.1317948 44.5182245,21.0177091 C44.4933866,20.8505642 44.3926644,20.6783338 44.4361736,20.4479586 C44.5935949,20.18012 44.9567431,20.1375709 45.2181412,19.9997527 C45.3168079,19.9478801 45.3964606,19.8368458 45.505919,19.7961614 C45.6905764,19.7288627 45.9631088,19.79667 46.1438264,19.6944505 C46.2582523,19.6300336 46.2260486,19.5189993 46.3084421,19.3889789 C46.3600023,19.3071016 46.4857338,19.2587889 46.5552801,19.1653844 C46.6035856,19.10012 46.6092384,19.0012909 46.6580579,18.9412815 C46.8370625,18.7210774 47.1632106,18.6398782 47.295794,18.4122154 C47.3543773,18.3115216 47.1943866,18.2738886 47.2342986,18.1269163 C47.3007616,17.9843516 47.5573634,18.0892833 47.7070764,18.0657203 C47.9116042,18.0343594 48.1008866,17.7877106 48.3242569,17.740076 C48.5573912,17.6904072 48.8073125,17.7207509 49.0241736,17.6383651 C49.1531597,17.5892048 49.2723819,17.4729154 49.3945162,17.4549465 C49.4376829,17.4486743 49.5591319,17.4774924 49.6202847,17.4754582 C49.6989097,17.4724068 49.7835301,17.4246027 49.8880208,17.4142621 C50.0391042,17.3990055 50.2265023,17.4507085 50.4229792,17.4549465 C50.7480995,17.4615577 51.0572894,17.3581516 51.3279375,17.4754582 C51.4702847,17.5366542 51.453669,17.6954927 51.636956,17.7602486 C51.7289421,17.7931351 51.8500486,17.7468567 51.9862292,17.7602486 C52.1876736,17.7792347 52.3980255,17.9170529 52.6650764,17.9438368 C52.7601458,17.9531603 52.8584699,17.9314619 52.9531968,17.9438368 C53.2467986,17.9792661 53.5700347,18.1320019 53.8584977,18.2286272 C54.0993403,18.3093179 54.6098032,18.4096726 54.6195671,18.6358098 C54.6308727,18.9036484 54.1752245,18.9817963 53.9814884,18.9817963 C53.658081,18.9817963 53.2291551,18.7948178 52.8915301,18.9005971 C52.8964977,19.3611779 53.3997662,19.7097072 53.8584977,19.6537662 C53.8989236,19.437461 53.5988125,19.5576494 53.6318727,19.3482945 C53.8370856,19.1952196 54.0825532,19.4506835 54.3727292,19.4094906 C54.4857847,19.3791468 54.4667708,19.217257 54.4957199,19.1041884 C54.740331,18.9572162 55.0471227,18.7412501 55.4215764,18.9005971 C55.4405903,18.8646593 55.4676551,18.8368583 55.5037986,18.8193979 C55.5286366,18.5958035 55.2573032,18.4790055 55.4015347,18.2693116 C55.4731366,18.1247126 55.8561551,18.1747205 55.9155949,18.2898233 C55.9450579,18.4276415 55.8203542,18.4127239 55.8333727,18.5339294 C55.9056597,18.6964973 56.0731875,18.722264 56.1622616,18.7175175 C56.3643912,18.7066684 56.4044745,18.5278267 56.5944421,18.4322185 C56.6715255,18.3937379 56.7842384,18.3889914 56.8822199,18.3510193 C56.9987014,18.3052494 57.0973681,18.212523 57.1910671,18.1879429 C57.2595856,18.169974 57.362706,18.1879429 57.4582894,18.1674312 C57.580081,18.1418339 57.7082106,18.0450391 57.8079051,18.0457172 C57.9324375,18.0457172 58.021169,18.1876038 58.1785903,18.2086241 C58.264581,18.2193037 58.3620486,18.1601419 58.4870949,18.147428 C58.5878171,18.1365789 58.6921366,18.1592943 58.7748727,18.147428 C58.9711782,18.1191185 59.106331,18.0163905 59.2694051,18.025036 C59.383831,18.0313081 59.5808218,18.184383 59.6594468,18.1062351 C59.792544,17.9762147 59.4818125,17.8785723 59.5773958,17.7602486 C59.8932662,17.7839812 60.2284931,17.7766919 60.544706,17.8214447 C61.0144005,17.8872177 61.4577153,18.1181014 61.8816736,18.1269163 C61.841419,17.8441601 61.5139005,17.9253593 61.3670995,17.8014415 C61.3225625,17.7633 61.1385903,17.4652871 61.1411597,17.3737473 C61.1421875,17.3279774 61.3737801,16.936221 61.4289375,16.885196 C61.6099977,16.7160169 62.205081,16.7177121 62.3750069,16.9458835 C62.4911458,17.1021792 62.4527755,17.3376399 62.6216736,17.3330629 C62.7672755,17.3289945 62.8438449,16.9753797 63.0127431,16.9665647 C63.1523495,16.9592754 63.2222384,17.1932105 63.3623588,17.1906677 C63.5329699,17.1871078 63.6515069,16.8724822 63.8769329,16.8648538 C63.9983819,16.8601073 64.0388079,16.9265584 64.2265486,16.9458835 C64.3553634,16.8636672 64.1833819,16.7561927 64.2472755,16.6405814 C64.4774977,16.4749621 65.0016644,16.6005751 65.2961227,16.4981861 C65.377831,16.4015608 65.1918032,16.333245 65.2757384,16.2333988 C65.5294282,16.0579475 65.9556134,16.0421823 66.3871088,15.9692895 C66.6503912,15.9238587 66.8999699,15.7429828 67.1065532,15.7245054 C67.1671548,15.7189885 67.2269743,15.7264411 67.2859891,15.739949 C60.5912318,6.22049823 49.5220535,0 37,0 C23.7968432,0 12.2089105,6.9155961 5.66087674,17.3221133 C5.74107522,17.3531264 5.81868438,17.3992112 5.9047162,17.4142621 C6.02685046,17.4354519 6.16662824,17.4081595 6.29595694,17.4349433 C6.3951375,17.455455 6.48438287,17.5217366 6.58356343,17.5366542 C6.73944306,17.5597087 6.90679954,17.5144473 7.05685509,17.5366542 C7.1952625,17.5561488 7.31260046,17.6415859 7.44775324,17.6583682 C7.76448009,17.6992221 8.12711435,17.6420945 8.43510509,17.6997307 C8.55192917,17.7212595 8.65761898,17.7778785 8.78489213,17.8014415 C8.90531343,17.8231399 9.03772546,17.7983902 9.15523472,17.8214447 C9.31882269,17.8538226 9.45551713,18.0065585 9.62852639,18.025036 C9.9469662,18.0579225 10.3042903,17.8884043 10.6362625,17.862129 C10.8767625,17.8436515 11.1246282,17.8717916 11.377119,17.8214447 C11.606656,17.7751662 11.8291699,17.6876949 12.0354106,17.6790494 C12.1474384,17.6744724 12.2414801,17.712614 12.3439153,17.6997307 C12.4504616,17.6851521 12.5780773,17.5588611 12.693531,17.577169 C12.8468412,17.6014101 12.8197764,17.7931351 12.9818227,17.8419564 C13.1609986,17.749569 13.3396606,17.8482285 13.5371653,17.8419564 C13.7293597,17.8353452 13.9011699,17.7480433 14.1132347,17.7809298 C14.4878597,17.8390746 15.0109986,18.2018434 15.3061421,18.0050328 C15.3803134,17.9551945 15.3626699,17.8687402 15.4296468,17.740076 C15.5206051,17.5649637 15.699781,17.3581516 15.6562718,17.10896 C15.2437903,17.1155712 14.8499801,17.3152635 14.3802856,17.3330629 C13.9059662,17.0384404 14.5072162,16.8563779 14.8535773,16.7222891 C15.1392995,16.6112547 15.3652394,16.3649449 15.7179384,16.3151065 C16.0058875,16.2739136 16.3222718,16.3778282 16.6640079,16.4169869 C16.8635681,16.4395328 17.0629569,16.4030864 17.1784106,16.4369901 C17.380369,16.497169 17.4843458,16.6951662 17.651531,16.7424617 C17.7238181,16.7629734 17.8421838,16.7604307 17.9394801,16.7834851 C18.1243088,16.8256952 18.2901236,16.9223205 18.4744384,16.7834851 C18.6193551,16.8092519 18.6364847,16.9619877 18.7829431,16.9870764 C18.9196375,16.9140141 19.025156,16.7285613 19.2355079,16.6817743 C19.3269801,16.661093 19.4230773,16.6972004 19.5234569,16.6817743 C19.691156,16.6549904 19.9145264,16.4303789 20.0173042,16.6405814 C19.9751653,16.7875536 19.7509384,16.8097604 19.6262347,16.9258804 C19.515406,17.0292864 19.3451375,17.2662728 19.3591838,17.3737473 C19.3835079,17.5680151 19.6776236,17.49241 19.6880727,17.740076 C19.6443921,17.8826407 19.4770356,17.8183933 19.3384569,17.8826407 C19.2115264,17.9407854 19.1644199,18.0609738 19.029781,18.086232 C18.6558412,18.1560735 18.3456236,17.9933361 18.0220449,18.0050328 C18.0069708,18.1438682 18.1820356,18.2245588 18.2688829,18.2693116 C18.5621421,18.4220474 18.8012718,18.4008577 19.214781,18.3917037 C19.4266745,18.3869572 19.6704292,18.4544254 19.8526884,18.3305076 C19.9679708,18.2523598 19.9618042,18.0801293 20.0584153,17.9843516 C20.1747255,17.8699269 20.4428042,17.7531289 20.6137579,17.7809298 C20.7071144,17.796356 20.8386699,17.9062037 20.8402116,17.9843516 C20.8432949,18.1689568 20.5757301,18.1099645 20.5726468,18.310335 C20.7466838,18.413741 21.2064431,18.1972664 21.2309384,18.025036 C21.2485819,17.8995925 21.0812255,17.8272083 21.0870495,17.6997307 C21.0968134,17.4863073 21.3897301,17.4898672 21.3546144,17.2718669 C21.2132949,17.1613411 21.0658088,17.2955994 20.9222625,17.2718669 C20.7203042,17.2384718 20.5385588,16.9989427 20.4491421,16.8441726 C20.5385588,16.7346639 20.7254431,16.8070482 20.8604245,16.8241695 C21.0116792,16.6163403 21.2932903,16.5361582 21.6833319,16.4981861 C21.8220819,16.4847942 22.0070819,16.4303789 22.0745727,16.5593822 C22.1078042,16.7521243 21.786281,16.8677356 21.848119,17.0887873 C22.1249338,17.1571031 22.2158921,16.7875536 22.4449153,16.6405814 C22.5456375,16.5758254 22.6902116,16.5325983 22.8356421,16.478183 C22.9624014,16.4303789 23.1021792,16.3120552 23.2059847,16.3151065 C23.3197255,16.3183274 23.3401097,16.4107148 23.4528227,16.4575018 C23.5540588,16.4997118 23.6866421,16.4283446 23.7203875,16.5593822 C23.4819431,16.9680904 22.5930866,16.7331383 22.3623505,17.1494748 C22.4137394,17.4286712 22.2230866,17.6949841 22.3832486,17.8826407 C22.4975032,18.0163905 22.7551329,17.9253593 22.8149153,18.0657203 C22.8952532,18.2533769 22.5655079,18.2533769 22.6508134,18.4729029 C22.8683597,18.6019062 23.127531,18.3500022 23.3293181,18.2491389 C23.5453227,18.1408168 23.8185403,18.0128306 23.8433782,17.7602486 C23.7347764,17.553606 23.3296606,17.7134616 23.2678227,17.4961394 C23.2340773,17.3778157 23.3920125,17.1131979 23.4320958,17.0682756 C23.6465588,16.8302721 24.3958088,16.4908968 24.9338505,16.538701 C25.0361144,16.5475159 25.1395773,16.609729 25.2423551,16.6205782 C25.5962532,16.6565161 26.0138736,16.4688595 26.2918875,16.6205782 C26.5152579,16.4908968 26.7833366,16.6373605 27.0940681,16.599897 C27.3335403,16.7397495 27.2674199,17.0374233 27.6290264,17.170156 C27.7271792,17.2060938 27.8498273,17.1798185 27.9786421,17.2106708 C28.0742255,17.2328777 28.1776884,17.3444206 28.2873181,17.394259 C28.4431977,17.4641004 28.5625912,17.4483353 28.5958227,17.5566573 C28.6285403,17.6631147 28.4825958,17.7321086 28.4930449,17.8419564 C28.5819477,17.9145101 28.5076051,18.0235103 28.5548829,18.1269163 C28.6436144,18.31559 28.8674986,18.3016895 29.0893273,18.3917037 C29.2452069,18.4544254 29.5776931,18.6486932 29.562619,18.7987167 C29.5526838,18.89958 29.2503458,19.0763874 29.1511653,19.1247001 C29.0809338,19.1586037 28.7340588,19.3247315 28.6165495,19.3077797 C28.4221282,19.2794701 28.3464153,18.8899175 28.0815912,18.9005971 C27.9661375,18.9051741 27.8577069,18.974168 27.8549662,19.1247001 C27.8508551,19.3920302 28.1574755,19.4023708 28.1636421,19.633763 C28.1718644,19.9102471 28.0108458,19.9292332 27.7729153,20.1016331 C27.6024755,20.0326392 27.4591005,19.9368615 27.2377856,19.9185535 C27.1064014,20.0733236 27.4539616,20.128756 27.3405634,20.3255665 C27.0103042,20.395069 26.7583273,20.2330096 26.4565032,20.1421479 C26.362119,20.1138384 26.2259384,20.1257047 26.1479986,20.0814604 C26.0310032,20.0141617 25.996744,19.8166731 25.9006468,19.7149622 C25.7894755,19.5966386 25.5676468,19.4284766 25.3864153,19.4301718 C25.1323829,19.4306803 24.7644384,19.7432718 24.5635079,19.4501749 C24.7027718,18.983322 25.3624338,19.329817 25.797869,19.1653844 C25.9599153,19.1041884 26.0155866,18.9339922 26.1479986,18.8600823 C26.4140218,18.7098892 26.8462023,18.688869 26.806119,18.3917037 C26.785906,18.2415106 26.5743551,18.2440534 26.4565032,18.1674312 C26.2954847,18.063008 26.1723227,17.6965098 25.9422718,17.6790494 C25.8237347,17.6697259 25.7386005,17.7690636 25.612869,17.7809298 C25.3468458,17.80551 25.0508458,17.6744724 24.8106884,17.7809298 C24.6991745,17.8441601 24.7743736,17.9453624 24.6871838,18.0657203 C24.6154106,18.1643799 24.4461699,18.1921808 24.3785079,18.2898233 C24.2995403,18.403909 24.3158134,18.5469823 24.2138921,18.6358098 C24.044994,18.7839686 23.6876699,18.8075317 23.4735495,18.8799159 C23.3779662,18.9119548 23.2575449,19.0234978 23.1650449,19.0229892 C22.995119,19.021294 22.9223181,18.7966825 22.7328644,18.8799159 C22.7160773,19.0980857 22.9654847,19.1864047 23.1234199,19.287268 C23.2943736,19.3960986 23.4740634,19.5045902 23.5348736,19.6944505 C23.3676884,20.0460311 23.1006375,19.6758035 22.8356421,19.6742779 C22.5437532,19.6722437 22.1175681,20.2243642 21.8688458,19.7756497 C21.9306838,19.5381548 22.194994,19.5015389 22.2595727,19.2672648 C21.9690542,19.3155775 21.7160495,19.5579884 21.3748273,19.633763 C21.2314523,19.6651239 21.0916745,19.6573261 20.9633736,19.6944505 C20.7172208,19.7658177 20.5452394,19.9453374 20.284869,20.0409456 C20.183119,20.0779006 20.0614986,20.0665428 19.9556375,20.1016331 C19.7072579,20.1836799 19.4095449,20.3303131 19.1534569,20.4681313 C18.8915449,20.6083228 18.5960588,20.7559731 18.4333273,20.8958256 C18.3456236,20.9709221 18.1171144,21.2382522 18.1248227,21.3230112 C18.1352718,21.4443862 18.3658366,21.484562 18.3716606,21.6084798 C18.3663505,21.6835763 18.2382208,21.8454661 18.3305495,21.9542968 C18.4148273,22.0536344 18.5835542,21.9734523 18.7622162,21.9949811 C19.0765449,22.0336313 19.2822718,22.2906208 19.5234569,22.4226754 C19.7057162,22.522352 19.9763644,22.6411843 20.1820912,22.6664425 C20.4647301,22.7018718 20.7811144,22.5850738 20.8194847,22.8093462 C20.8568273,23.0248038 20.5534616,23.101765 20.5315356,23.2370405 C20.6839894,23.4360548 20.428244,23.5311545 20.4289292,23.7054191 C20.4292718,23.8467972 20.6043366,24.0586949 20.7576468,24.0714088 C20.9649153,24.0883606 21.268281,23.8693431 21.3546144,23.6642262 C21.4568782,23.4201201 21.4131977,23.0890512 21.601281,22.9110571 C22.5598551,22.9373324 23.3707718,22.4803116 23.3089338,21.5065994 C23.3025958,21.4104826 23.2476097,21.2865649 23.2678227,21.180616 C23.2979708,21.0227946 23.5711884,20.8912486 23.5348736,20.6922343 C23.8034662,20.6105265 23.7921606,20.1841884 24.0700032,20.1221448 C24.3026236,20.0701027 24.5660773,20.2852212 24.8720125,20.26454 C24.9718782,20.2577593 25.1012069,20.1692708 25.2014153,20.1826628 C25.4025171,20.2111418 25.5234523,20.4557565 25.6747069,20.5698422 C25.8081468,20.671214 25.9489523,20.6388361 25.9832116,20.7734335 C25.9432995,21.0017744 25.7810819,21.0068599 25.797869,21.2213004 C25.8129431,21.4077703 26.0087347,21.549318 26.1062023,21.5677954 C26.2564292,21.5955964 26.4710634,21.5159229 26.6206051,21.4448948 C26.8960495,21.3164 27.1319245,20.927695 27.3614616,20.9770247 C27.5426931,21.0161834 27.6846977,21.5862729 27.7110773,21.7913899 C27.7396838,22.0114244 27.6809292,22.1794169 27.6906931,22.381991 C27.717244,22.7256043 28.1542208,22.690514 28.3691977,22.8705423 C28.4342903,22.9249576 28.4598134,23.0643015 28.5137718,23.1353296 C28.6182625,23.2729783 28.7443366,23.2729783 28.7606097,23.4201201 C28.7989801,23.7717007 28.4384014,23.8015359 28.4721468,24.1938008 C28.3978042,24.3455196 28.210406,24.3367046 28.2254801,24.5397874 C28.2492903,24.8611937 28.7159014,24.6148839 28.8426606,24.8657707 C28.9111792,24.9998596 28.8311838,25.1007229 28.7808227,25.2929564 C28.9401282,25.4811216 28.9392718,25.7813382 28.6576606,25.7818467 C28.4867069,25.7818467 28.4394292,25.5999538 28.2664199,25.5572352 C28.1703227,25.5340112 28.0394523,25.5387577 27.9168042,25.5165508 C27.8117995,25.4980734 27.6870958,25.4677296 27.5879153,25.4558634 C27.3338829,25.4255196 27.0591236,25.4990905 26.9088968,25.3541525 C27.1536792,25.0322375 27.4789708,24.7145606 27.7936421,24.4380765 C27.8871699,24.3551821 28.0882718,24.2985631 28.0404801,24.1326048 C27.8654153,23.9803775 27.6502671,24.1414197 27.4851375,24.2344852 C27.3116144,24.3311105 27.1048597,24.4704544 26.9088968,24.499103 C26.5687023,24.5484328 26.1173366,24.4004435 25.8393227,24.5804717 C25.8009523,24.7342247 26.1558782,24.6738762 26.1062023,24.9064551 C25.9701931,24.9284924 25.8415495,24.9393416 25.7365449,24.8450895 C25.6409616,24.7598219 25.6954338,24.6318357 25.6335958,24.5804717 C25.5282486,24.4940175 25.131869,24.4704544 24.9547486,24.499103 C24.7385727,24.5340237 24.547406,24.6616709 24.5223968,24.8450895 C24.7820819,24.9654474 25.2101514,24.7208327 25.3043644,25.0283386 C25.1620171,25.2817682 24.8269616,25.4214512 24.8720125,25.761335 C24.889656,25.891864 25.0472486,26.0676543 25.1603042,26.0873184 C25.2742162,26.106813 25.3381097,25.9952701 25.4480819,26.0049326 C25.5645634,26.0162903 25.5381838,26.1478364 25.6747069,26.1278332 C25.8725542,26.0440913 25.9821838,25.7689634 26.2091514,25.7818467 C26.4813412,26.1083387 25.9635125,26.2681943 25.6747069,26.3714308 C25.3453042,26.490263 24.9172347,26.5531542 24.6662856,26.6568993 C24.5349014,26.7118232 24.0371144,27.1879997 23.9672255,26.8192977 C23.9166931,26.5545104 24.2133782,26.6313021 24.2757301,26.4122847 C23.9572903,26.3515972 23.6606051,26.5484077 23.3707718,26.6568993 C22.9572625,26.8121779 22.2563181,26.9103289 22.1566236,27.3698926 C22.1369245,27.4614324 22.1972208,27.6336628 22.1364106,27.6953674 C22.0870773,27.7446972 21.7919338,27.7530036 21.663119,27.7972478 C21.4645866,27.864377 21.2915773,28.0084674 21.1691005,28.0408454 C21.0766005,28.0664426 20.9400773,28.0593229 20.8813227,28.0825468 C20.7175634,28.145099 20.6572671,28.364286 20.469869,28.5097325 C20.3929569,28.5692334 20.2225171,28.61263 20.1613644,28.672809 C20.0546468,28.7775712 20.0407718,29.0398157 19.8526884,29.079822 C19.7331236,29.0899931 19.6359986,28.9909945 19.5234569,29.0593103 C19.5099245,29.3188426 19.6157856,29.6721184 19.5030727,29.934702 C19.2594894,30.1311735 18.9919245,30.2703479 18.6801653,30.4439345 C18.5076699,30.5392036 18.3535032,30.5644618 18.1450356,30.6680374 C17.9975495,30.7409302 17.8625681,30.9146863 17.6926421,31.0138544 C17.2998597,31.2428734 16.8255403,31.5135939 16.8287949,32.0930069 C16.8291375,32.2186198 16.894744,32.3535562 16.9108458,32.5003589 C16.9206097,32.5864741 16.9002255,32.6708942 16.9108458,32.7649767 C16.9351699,32.977722 17.0910495,33.2487815 16.9108458,33.3957537 C16.6338597,33.2831937 16.2816745,33.2450521 16.0879384,33.0499367 C16.0348366,32.8482101 16.1948273,32.683269 16.1705032,32.5003589 C16.1508042,32.3527086 15.9418227,32.0916507 15.8203736,32.0724952 C15.695156,32.0523225 15.5797023,32.1840381 15.4503736,32.174206 C15.2967208,32.1620007 15.1538597,31.9526458 14.9563551,31.9299304 C14.6670356,31.8960268 14.4541144,31.9953644 14.133619,31.9506116 C13.8234014,32.1145357 13.7324431,32.4066154 13.3521653,32.3777973 C13.2182116,32.3679653 13.0955634,32.2669325 12.9407116,32.2354021 C12.7730125,32.2009899 12.5184662,32.1423366 12.3439153,32.1543724 C11.9937856,32.1772574 11.7397532,32.4267881 11.4387856,32.5813886 C11.1734477,32.7181897 10.7977949,32.8883859 10.7188273,33.1721593 C10.6758319,33.3243866 10.7121468,33.5396746 10.6569894,33.6808832 C10.6208458,33.7739487 10.5411931,33.856843 10.4923736,33.9453315 C10.2616375,34.3623461 10.0706421,34.9134496 10.2457069,35.5128657 C10.2715727,35.6022018 10.5007671,36.1039754 10.5951514,36.2051778 C10.7011838,36.3179073 11.0134569,36.4869169 11.1916051,36.4903073 C11.3421745,36.4931891 11.5189523,36.4145327 11.6648968,36.3882573 C11.8343088,36.3584221 12.0462023,36.3555403 12.2000264,36.3072277 C12.6447116,36.1663581 12.5568366,35.5708409 13.0020356,35.3704705 C13.1964569,35.2836772 13.421369,35.2655387 13.7631051,35.2487564 C13.8718782,35.3391096 13.9225819,35.49727 13.9076792,35.6352578 C13.8962023,35.7390029 13.7963366,35.8325769 13.7428921,35.9810748 C13.6961282,36.1107562 13.6863644,36.263492 13.6401144,36.3677456 C13.5787903,36.5057334 13.4420958,36.6057491 13.3932764,36.7342439 C13.3610727,36.8186639 13.3787162,36.9225785 13.3521653,36.9992007 C13.3050588,37.1332895 13.123656,37.2278807 13.2077625,37.3656989 C13.6483366,37.5387769 14.1814106,37.3163691 14.5657995,37.3862106 C14.7278458,37.4157068 15.0623875,37.6074318 15.0593042,37.8540806 C15.0572486,38.039703 14.9149014,38.1609085 14.8945171,38.3631436 C14.8696792,38.6184379 14.7621051,38.9306903 14.7506282,39.1363158 C14.7324708,39.474335 15.2514986,40.0574774 15.6144755,40.0525613 C16.0058875,40.0473063 16.2338829,39.6674161 16.705119,39.8693122 C16.8615125,39.9367804 17.0266421,40.1878368 17.1989662,40.1756315 C17.3413134,40.1647823 17.5564616,39.9179639 17.651531,39.7475982 C17.7674986,39.5392604 17.7757208,39.3639787 17.9802486,39.2587079 C18.2012208,39.1454698 18.3767995,39.1998851 18.6594384,39.09614 C18.7856838,39.0498616 18.8953134,38.970188 19.0090542,38.8920402 C19.1087486,38.824572 19.2137532,38.6464084 19.3384569,38.7696481 C19.5025588,38.9327245 19.1373551,39.0240948 19.276619,39.1973423 C19.561656,39.3475354 19.7077718,38.9193326 19.9145264,38.9132299 C19.9804755,38.9110262 20.2086421,39.0396905 20.3259801,39.1161432 C20.4864847,39.2210749 20.5409569,39.36703 20.7167069,39.4016117 C20.8292486,39.4234795 21.0104801,39.3588931 21.1691005,39.3809305 C21.3789384,39.4107657 21.504156,39.5885902 21.663119,39.5840132 C21.8568551,39.5789277 21.949869,39.3707594 22.1156838,39.3397376 C22.4788319,39.2741341 22.6138134,39.3805914 22.7738042,39.605203 C22.9531514,39.6353772 22.9593181,39.3995775 23.1234199,39.4826414 C23.0334894,39.6601268 23.1540819,39.7423431 23.2261977,39.8903325 C23.2729616,39.9856017 23.2652532,40.0525613 23.3089338,40.0940933 C23.4070866,40.1863111 23.5967116,40.1863111 23.7406005,40.2771729 C23.892369,40.371764 23.9780171,40.5475543 24.1520542,40.7448734 C24.3312301,40.9481256 24.6325403,41.157311 24.8720125,41.1727372 C25.0981236,41.1869767 25.2819245,41.1088288 25.4689801,41.1318833 C25.8944801,41.1840949 26.1589616,41.3937888 26.4565032,41.6209431 C26.6228319,41.7474036 26.7728875,41.8353835 26.8265032,41.9865937 C26.8638458,42.0928816 26.8456884,42.2349378 26.8881699,42.3529224 C26.9791282,42.6065215 27.3527255,42.7289136 27.2175727,43.1679656 C27.2794106,43.2964603 27.4181606,43.3422302 27.5673597,43.4325834 C27.6867532,43.5046286 27.7874755,43.6563473 27.9168042,43.67652 C28.0005681,43.690251 28.0913551,43.6516008 28.1636421,43.6563473 C28.3972903,43.672282 28.5579662,43.7616181 28.7606097,43.8399355 C28.8861699,43.8874006 29.0471884,43.9060475 29.1309523,43.9623276 C29.2354431,44.032169 29.2488042,44.2659345 29.377619,44.3284867 C29.4618968,44.3688321 29.648781,44.3130606 29.7890727,44.3284867 C30.0098736,44.3534059 30.3096421,44.4871557 30.5092023,44.4912241 C30.6303088,44.4935974 30.7305171,44.4418944 30.8379199,44.4503703 C31.3418736,44.4888509 31.6275958,45.0848767 32.113906,45.2643964 C32.2644755,45.3205069 32.5034338,45.2813482 32.6074106,45.3255924 C32.7896699,45.4035707 32.943494,45.9560303 32.9570264,46.200645 C32.9984801,46.9409307 32.4244662,47.1780866 32.0931792,47.6668074 C32.0239755,47.7693658 31.9856051,47.9315947 31.887281,48.0743289 C31.6899477,48.3620012 31.4701745,48.4215021 31.4967255,48.9495511 C31.5040912,49.0949976 31.5787764,49.2365453 31.5787764,49.397757 C31.5787764,49.5942285 31.5616468,49.8517266 31.5169384,50.028873 C31.4831931,50.1631314 31.3704801,50.2729791 31.3521514,50.3953712 C31.333994,50.5197975 31.3891514,50.6155753 31.3730495,50.7210156 C31.355406,50.8383221 31.2370403,51.0041109 31.1464245,51.1682044 C30.9564569,51.5165642 30.9148319,51.9245943 30.5294153,52.0639382 C30.3027903,52.1470021 29.9958273,52.1005541 29.7481329,52.1863303 C29.6477532,52.2214206 29.520994,52.3132994 29.3980032,52.3692404 C29.039994,52.5343511 28.5298736,52.7569284 28.4312069,53.1230875 C28.3433319,53.4482233 28.5538551,53.7080946 28.4930449,54.0798479 C28.4289801,54.1903737 28.3428181,54.301069 28.2462069,54.4258344 C28.1574755,54.5416153 28.113281,54.6777383 28.0197532,54.7921631 C27.8960773,54.945577 27.7038829,55.0133842 27.6290264,55.2201964 C27.6036745,55.2902074 27.6196051,55.3732712 27.5879153,55.4848142 C27.5760958,55.525329 27.5002116,55.5890678 27.4644106,55.6678938 C27.4310079,55.739939 27.4327208,55.8323264 27.4025727,55.8919967 C27.308531,56.0803314 27.0289755,56.506839 26.8265032,56.5639666 C26.3992903,56.6821208 25.9489523,56.3846164 25.6539801,56.441744 C25.6964616,56.6456744 25.8461745,56.6246541 25.9422718,56.7673884 C25.9982856,56.8512999 26.029119,56.9630123 26.1062023,57.0521788 C26.1988736,57.1579582 26.2804106,57.1967778 26.2918875,57.3166271 C26.3151838,57.567514 26.1178505,57.8202655 25.9832116,57.9079064 C25.8600495,57.9869018 25.6046468,58.0338584 25.3864153,58.0703048 C25.2341329,58.0950544 24.8413505,58.0964106 24.7692347,58.1926969 C24.6632023,58.334075 24.8252486,58.6836214 24.7490218,58.8238129 C24.5951977,59.1214867 24.1816884,58.815337 23.9672255,58.904673 C23.9488968,59.058426 24.0061097,59.2192987 24.1318412,59.2918524 C24.2609986,59.3664404 24.4574755,59.268798 24.5432949,59.4142445 C24.501156,59.6166492 24.280869,59.642755 24.234619,59.8417693 C24.2404431,60.035698 24.3005681,60.086723 24.2757301,60.2074199 C24.2221144,60.4696644 23.8113458,60.4581372 23.8231653,60.7375031 C23.8408088,61.1545177 24.6315125,60.9833044 24.646244,61.3887917 C24.6544662,61.6344235 24.419619,61.6371358 24.3373968,61.8771735 C24.2933736,62.0058378 24.3629199,62.0351644 24.3373968,62.1416218 C24.3033088,62.2858817 24.1318412,62.3275832 24.1318412,62.4881168 C24.131156,62.6823846 24.419619,62.8968251 24.5635079,63.0576978 C24.7043134,63.2160277 24.885031,63.4411478 25.0779106,63.5465881 C25.3667162,63.7047485 25.7966699,63.6688107 25.9213736,63.9542792 C25.8833056,64.1192208 25.7264131,64.1672044 25.5676724,64.2136862 C25.6011863,64.2247361 25.6290818,64.2401989 25.6468713,64.2600749 L25.2015009,64.2600749 C25.2368943,64.2205304 25.3122913,64.1984543 25.3923493,64.1938468 C25.3184361,64.1898707 25.2346629,64.1981078 25.2014153,64.218558 L24.9136375,64.218558 C24.6381931,64.0924365 24.3041653,64.0119154 23.9672255,63.8924051 C23.8456051,63.8505341 23.7083968,63.7479756 23.5763273,63.6894919 C23.4771468,63.6452476 23.3654616,63.6272787 23.2880356,63.587781 C23.1110866,63.4953936 22.9115264,63.1970417 22.7328644,63.0785485 C22.6240912,63.0065033 22.4538227,62.9681922 22.3832486,62.8951299 C22.3155866,62.8251189 22.2787579,62.6744173 22.2184616,62.5896582 C22.1519986,62.4960842 22.0298644,62.4282769 21.9508968,62.325549 C21.7801144,62.1007679 21.5618829,61.7980085 21.5601699,61.6328979 C21.5587995,61.4694824 21.7170773,61.3589566 21.663119,61.2058817 C21.6127579,61.0612827 21.2968875,61.0926436 21.2516653,60.9204131 C21.2240866,60.8164985 21.3426236,60.6412168 21.3337162,60.4930579 C21.3290912,60.4074513 21.1670449,60.2906533 21.2309384,60.1667355 C21.3047671,60.0246793 21.4438597,60.1787713 21.5601699,60.1062175 C21.4729801,59.8119341 21.5670218,59.3389785 21.2720495,59.2506595 C21.120281,59.3776286 21.4267301,59.6615715 21.1691005,59.7395498 C20.9202069,59.6302106 20.9779338,59.306092 20.9222625,59.068258 C20.8859477,58.9102671 20.8069801,58.7695671 20.7992718,58.5992013 C20.7951606,58.5110519 20.8345588,58.4071373 20.8194847,58.3149194 C20.7758042,58.0404696 20.4672995,57.815858 20.4491421,57.5412387 C20.4407486,57.408845 20.5311931,57.296624 20.5519199,57.1543983 C20.5664801,57.058112 20.5385588,56.9499594 20.5519199,56.8489266 C20.5700773,56.7197538 20.6423644,56.600413 20.6546977,56.4822589 C20.6791931,56.2586645 20.6541838,55.8750449 20.6137579,55.6880664 C20.5628829,55.4534533 20.3742856,55.2534219 20.3461931,54.9964324 C20.3364292,54.9038755 20.377369,54.7491055 20.3670912,54.6297647 C20.357156,54.5194084 20.2958319,54.4098997 20.284869,54.2839477 C20.2745912,54.1671497 20.3139894,54.0564544 20.3259801,53.91728 C20.3477347,53.6611381 20.2754477,53.3765171 20.284869,53.1230875 C20.2874384,53.0478215 20.3270079,52.9932366 20.3259801,52.9194963 C20.3232394,52.7096328 20.2526653,52.4979047 20.243244,52.2887193 C20.2271421,51.9015399 20.2864106,51.6281071 20.223031,51.2709324 C20.1752394,51.0003815 20.1161421,50.5859096 20.0173042,50.4157134 C19.9071606,50.2261921 19.4744662,49.9047858 19.256406,49.7839193 C19.1123458,49.7047544 18.9398505,49.6776315 18.7829431,49.6010093 C18.4478875,49.4384414 17.7985032,49.0949976 17.651531,48.7664715 C17.6088782,48.6715413 17.6147023,48.5466065 17.5689662,48.4408272 C17.4795495,48.2316418 17.2911236,48.051444 17.1575125,47.8497174 C16.9034801,47.4662674 16.6984384,46.9841578 16.4375542,46.5879939 C16.305656,46.3862674 16.1912301,46.158435 16.0468273,45.9975623 C15.9622069,45.9029712 15.6910449,45.8144827 15.6562718,45.6714094 C15.6100218,45.4839223 15.4692162,45.2254072 15.4914847,45.0813168 C15.521119,44.88671 15.9034523,44.7293971 15.9029384,44.5524202 C15.9024245,44.40121 15.6989245,44.3133996 15.6562718,44.1857525 C15.5522949,43.8748562 15.7170819,43.6917766 15.8412718,43.4325834 C15.8820403,43.3473158 15.9221236,43.2106842 15.9647764,43.1474539 C16.0399755,43.0352329 16.1934569,43.003872 16.293494,42.8830056 C16.3496792,42.8153679 16.3849662,42.6739898 16.458281,42.5775339 C16.6146745,42.372078 16.8671653,42.2944386 16.9315727,42.1089858 C16.9841606,41.9577756 17.0146514,41.2013857 16.9519569,40.9489732 C16.9159847,40.8025096 16.7782625,40.680287 16.7258458,40.5421297 C16.6328319,40.2956503 16.6110773,40.0276422 16.3555032,40.0330667 C16.1975681,40.03544 16.0862255,40.208179 15.9849894,40.3171791 C15.960494,40.4627952 15.9736838,40.6189214 15.8203736,40.6631656 C15.5865542,40.7321595 15.4966236,40.4200766 15.2239199,40.3383689 C15.1153181,40.3054824 14.9424801,40.3068385 14.8743042,40.2771729 C14.6754292,40.1886844 14.6110218,39.9001645 14.4010125,39.7876045 C14.2254338,39.694539 14.0753782,39.7274255 13.9688319,39.5840132 C13.9248088,39.4863708 13.9595819,39.3085462 13.948619,39.1773392 C13.7230218,39.0468102 13.5320264,38.5599542 13.2696005,38.4443428 C13.0955634,38.3682291 12.8290264,38.3753489 12.6113088,38.301778 C12.5090449,38.2673659 12.4300773,38.2231216 12.3231884,38.2005757 C12.1912903,38.1712491 12.0556236,38.1692149 11.9531884,38.118868 C11.5458458,37.918328 11.3260727,37.2705992 10.8216051,37.2844997 C10.6067995,37.2902633 10.3993597,37.4889386 10.2045958,37.4875824 C10.0108597,37.4870739 9.68608194,37.3346771 9.4430125,37.2226256 C9.19052176,37.1070142 8.9111375,37.043784 8.7028412,36.9385132 C8.53445694,36.8530761 8.41746157,36.6972889 8.27048935,36.632533 C8.15777639,36.5832032 7.99298935,36.5743883 7.90066065,36.5313306 C7.76927639,36.469626 7.63206806,36.3379105 7.46848009,36.2253504 C7.31311435,36.1190625 7.14541528,35.9564947 7.13890602,35.8188459 C7.13222546,35.6593294 7.28707731,35.5237149 7.30369306,35.3704705 C7.35662361,34.8854791 6.99553102,34.5369498 6.76856343,34.2508032 C6.60035046,34.0378884 6.40284583,33.8575211 6.23411898,33.6603715 C6.24336898,33.5300121 6.24336898,33.50611 6.23411898,33.3757506 C6.10616065,33.2528499 5.99875787,33.0707875 5.86377639,32.8866908 C5.74164213,32.7207325 5.50354028,32.5439251 5.47287824,32.3577942 C5.43519306,32.1289447 5.56092454,31.9280657 5.47287824,31.7058274 C5.3265912,31.3371255 4.80961898,31.5039313 4.87608194,31.991296 C4.89492454,32.1248763 5.08591991,32.3059216 5.14347546,32.4389934 C5.20291528,32.5747774 5.19143843,32.7439565 5.24642454,32.9072025 C5.29952639,33.0634982 5.45900324,33.1989432 5.51398935,33.3757506 C5.60135046,33.6542689 5.59878102,33.954655 5.67877639,34.1289196 C5.74935046,34.2835202 6.00972083,34.4301534 5.86377639,34.6173014 C5.6688412,34.6573077 5.59398472,34.4647351 5.47287824,34.3523446 C5.4053875,34.2903009 5.16077639,34.1719773 5.1232625,34.0270393 C5.09225787,33.9071899 5.20034583,33.7458087 5.16437361,33.599345 C5.09362824,33.3118422 4.50779491,33.304892 4.50573935,33.0092524 C4.50471157,32.8234605 4.75086435,32.8014231 4.75291991,32.622073 C4.75446157,32.4250929 4.48227176,32.2591346 4.42351713,32.0930069 C4.37007269,31.940271 4.36133657,31.6970125 4.3416375,31.482233 C4.32245231,31.280676 4.34729028,31.047419 4.3000125,30.8911233 C4.25787361,30.7517794 4.0454662,30.5590373 3.90928565,30.4839407 C3.72908194,30.3851117 3.58622083,30.4263046 3.49783194,30.280858 C3.42091991,30.1538889 3.3705588,29.8884235 3.35394306,29.7519614 C3.3243088,29.5070077 3.3472625,29.2391691 3.3332162,28.9781111 C3.3196838,28.7162056 3.29261898,28.4654883 3.3332162,28.1842577 C3.4349662,27.9874472 3.62048009,27.8901438 3.72445694,27.6953674 C3.79657269,27.5595834 3.80702176,27.39193 3.8883875,27.2475005 C4.03929954,26.9818656 4.36750324,26.7360643 4.58830417,26.4738198 C4.82623472,26.1915721 5.04532269,25.9211906 5.18475787,25.59775 C5.23460509,25.4836643 5.3685588,25.2297262 5.34937361,25.0893652 C5.3223088,24.8930632 4.94939676,24.7320209 4.97903102,24.499103 C4.99770231,24.354165 5.20548472,24.3568773 5.26732269,24.213804 C5.2990125,24.1409112 5.32761898,23.9357942 5.32916065,23.8473058 C5.33224398,23.6513428 5.22723935,23.4462259 5.26732269,23.2370405 C5.30106806,23.0575208 5.57017454,22.9856451 5.43193843,22.7893431 C5.29473009,22.5949058 5.04857731,22.8941053 4.89698009,22.7686619 C4.7577162,22.6530505 4.92507269,22.5126895 4.93791991,22.2997747 C4.9430588,22.2155242 4.88807269,22.1188989 4.89698009,22.0561772 C4.90931343,21.9651459 5.08848935,21.811393 5.04069769,21.7507055 C4.92952639,21.6110226 4.80482269,21.2577468 4.56757731,21.1401012 C4.28886835,21.0014106 3.98883409,21.0770838 3.61365846,21.0316924 Z M72.208562,39.7475304 C72.3855111,39.8051666 72.9766546,40.5162951 72.8050157,40.9083906 C72.7558537,41.019425 72.552525,41.1631763 72.3521083,41.131985 C71.944937,41.0682462 72.0232194,40.1708172 72.1470667,39.8087264 C72.1580296,39.7793998 72.1790991,39.75821 72.208562,39.7475304 Z M60.3586782,50.6600229 C60.2221551,50.9761743 60.1428449,51.3231779 60.0297894,51.5961021 C59.9890208,51.6957787 59.9026875,51.773079 59.8658588,51.8608894 C59.7173449,52.2068759 59.6627014,52.7513682 59.3920532,52.899188 C59.2947569,52.9520776 58.9194468,53.0431089 58.8159838,53.0412442 C58.5636644,53.0376843 58.3456042,52.8505363 58.2813681,52.6345702 C58.2465949,52.5189588 58.2806829,52.3982619 58.2602986,52.268072 C58.2354606,52.105165 58.1374792,51.9654821 58.1575208,51.7793512 C58.2034282,51.3647098 58.6109421,51.1643394 58.6309838,50.8224213 C58.6460579,50.5654318 58.4994282,50.3104766 58.528206,50.0490796 C58.5463634,49.8851556 58.664044,49.6164693 58.7955995,49.5196745 C58.9859097,49.379822 59.2418264,49.3940615 59.4329931,49.295402 C59.5914421,49.2143723 59.8100162,49.0792663 59.9270116,48.9290733 C60.0265347,48.8026128 60.0315023,48.6573357 60.1121829,48.5625751 C60.1676829,48.4971411 60.2923866,48.4801893 60.3586782,48.3998377 C60.4186319,48.327962 60.4054421,48.1942122 60.5032523,48.1152167 C60.7889745,47.9943503 60.8708542,48.5125672 60.9153912,48.8678772 C60.9284097,48.9794202 60.9863079,49.0975743 60.9760301,49.1531763 C60.9462245,49.3150661 60.7655069,49.3486307 60.7089792,49.4591565 C60.6949329,49.9058368 60.5176412,50.2935247 60.3586782,50.6600229 Z M56.4530702,18.1899341 C56.3649109,17.7276663 56.9847971,17.8024554 56.8772427,18.233383 C56.7797636,18.3605245 56.5145299,18.3509087 56.4530702,18.1899341 Z M43.2638389,23.6848566 C43.2878204,23.8791243 43.0195704,23.9557465 43.058112,24.1732383 C42.7754731,24.3922557 42.304237,24.2791871 41.8441352,24.3356367 C41.6356676,24.3624205 41.4061306,24.5675375 41.1858435,24.3973413 C41.1347972,24.2605401 41.368788,24.2422322 41.3915704,24.1125508 C41.3754685,23.9921929 41.2216444,24.0093143 41.1858435,23.9089595 C41.2456259,23.750121 41.4319963,23.7182516 41.4122972,23.4805872 C41.5270657,23.3573475 41.7478667,23.4041345 41.7828111,23.2369896 C41.8066213,23.1203612 41.7146352,22.9764403 41.5972972,22.9111758 C41.5296352,22.8730342 41.4263435,22.8910031 41.3504593,22.8498102 C41.1500426,22.7409796 41.0772417,22.5136558 40.9597324,22.4633089 C40.9749778,22.240223 40.8980657,22.0781637 40.9597324,21.9332257 C40.9972463,21.8459238 41.2673806,21.5975798 41.4122972,21.5472329 C41.591987,21.4845112 41.7800704,21.5406217 41.8855889,21.4041596 C41.9328667,21.3980569 41.9645565,21.4077195 41.9883667,21.4248408 C41.9873389,21.5533355 41.8783944,21.5738472 41.864862,21.6896281 C41.8902139,21.8740638 42.2196167,21.7584525 42.2554176,21.9332257 C42.224413,22.1239336 42.0512324,22.1615666 42.049862,22.2998934 C42.0493481,22.4210989 42.2990981,22.6504569 42.4200333,22.8092954 C42.5104778,22.926941 42.668413,23.0144123 42.7494361,23.1352788 C42.8201815,23.2405495 42.8357694,23.3661625 42.893325,23.4200692 C43.001413,23.5212716 43.2456815,23.5383929 43.2638389,23.6848566 Z M41.0211764,22.911108 C41.0413894,23.0638438 40.8750606,23.0858812 40.8154495,23.257264 C40.7620051,23.4128817 40.8257273,23.5979955 40.7541255,23.70547 C40.6912597,23.7983659 40.520306,23.7927718 40.4038245,23.827184 C40.1451671,23.9038062 39.6454958,24.2041923 39.4371995,23.8678683 C39.4673477,23.687501 39.6439542,23.6513937 39.7047644,23.5017092 C39.7083616,23.383555 39.5816023,23.3218504 39.6018153,23.196407 C39.6268245,23.0426541 39.7436486,23.0957132 39.9104912,23.0329915 C40.0315977,22.9877302 40.0835005,22.8422836 40.2397227,22.7476925 C40.5146532,22.5815647 40.9946255,22.7090424 41.0211764,22.911108 Z M26.1889898,18.3473256 C26.2319852,18.5579155 25.6476935,18.8346116 25.5921935,18.5608843 C25.5478278,18.3425754 26.0397907,18.0700356 26.1889898,18.3473256 Z M22.7536255,20.1799718 C22.7577366,20.3489307 22.3445699,20.6281469 22.3003755,20.3022246 C22.293181,20.2450541 22.3026023,20.1304581 22.3831116,20.057719 C22.4927412,19.9563946 22.7493431,20.0143307 22.7536255,20.1799718 Z M4.8688875,23.2264581 C4.81935857,23.4032347 4.6838365,23.4808275 4.5407096,23.5498738 C4.49566557,23.5116397 4.45666641,23.4664335 4.42351713,23.4153797 C4.43365691,23.1589861 4.75013507,22.9700646 4.8688875,23.2264581 Z" id="path-1"></path>
    </defs>
    <g id="Resources" stroke="none" stroke-width="1" fill="none" fill-rule="evenodd" sketch:type="MSPage">
        <g id="Icons" sketch:type="MSLayerGroup" transform="translate(-214.000000, -394.000000)">
            <g id="world" transform="translate(214.000000, 394.000000)">
                <mask id="mask-2" sketch:name="Mask" fill="white">
                    <use xlink:href="#path-1"></use>
                </mask>
                <use id="Mask" fill="#333333" sketch:type="MSShapeGroup" xlink:href="#path-1"></use>
            </g>
        </g>
    </g>
</svg>