<?xml version="1.0" encoding="UTF-8" standalone="no"?>
<svg width="67px" height="77px" viewBox="0 0 67 77" version="1.1" xmlns="http://www.w3.org/2000/svg" xmlns:xlink="http://www.w3.org/1999/xlink" xmlns:sketch="http://www.bohemiancoding.com/sketch/ns">
    <!-- Generator: Sketch 3.3.3 (12072) - http://www.bohemiancoding.com/sketch -->
    <title>write</title>
    <desc>Created with Sketch.</desc>
    <defs></defs>
    <g id="Resources" stroke="none" stroke-width="1" fill="none" fill-rule="evenodd" sketch:type="MSPage">
        <path d="M17.8881,70.8329059 L20.9002235,69.7365826 C21.3131725,69.5862814 21.6708085,69.3535025 21.9614776,69.0639435 C22.5477288,68.9277569 23.0959242,68.6080001 23.5118748,68.1122895 L57.910852,27.1171848 L57.910852,27.1171848 L57.9742821,27.170409 L65.015725,18.778744 C67.0296248,16.3786718 66.7187401,12.7967163 64.3179765,10.7822364 L53.8022492,1.95849352 C51.4029209,-0.0547819562 47.8214714,0.258054933 45.8060637,2.6599243 L42.5516817,6.5383457 C42.4152722,6.65008383 42.2872853,6.77602081 42.1698412,6.91598519 L4.30221345,52.0448666 C3.95454891,52.4591971 3.74371816,52.9431698 3.66490473,53.4419158 C3.35710283,53.8156562 3.13845849,54.271735 3.04834771,54.7827787 L0.0450636682,71.8152488 C-0.0877458975,72.5684493 0.0795692914,73.3014659 0.460408007,73.8933595 C0.623936993,75.2424207 1.77416776,76.2919111 3.16880002,76.2919111 L60.7367123,76.2919111 C62.2343473,76.2919111 63.4650272,75.0698712 63.4650272,73.5624085 C63.4650272,72.0580132 62.243519,70.8329059 60.7367123,70.8329059 L17.8881,70.8329059 Z M53.4778532,23.3974572 L19.237787,64.2031791 L19.237787,64.2031791 C19.1317069,64.2287252 19.0259662,64.2604992 18.9209977,64.2987046 L12.1353447,66.7684803 L12.1353447,66.7684803 C12.1679478,65.6302796 11.6973643,64.491381 10.758069,63.7032186 C9.82000632,62.9160906 8.61316792,62.6529567 7.49605886,62.8838051 L8.74730107,55.7876579 C8.75005706,55.7720279 8.75268381,55.7564066 8.75518209,55.7407951 L8.75518209,55.7407951 L43.1594975,14.7393287 L46.8453672,17.8321407 C46.813876,17.8647788 46.7832929,17.8987403 46.7536918,17.9340176 L16.5690896,53.9066257 C15.8817076,54.7258156 15.9900095,55.9403056 16.806102,56.6250886 C17.6278842,57.3146457 18.8392279,57.2030267 19.5244221,56.3864441 L49.7090243,20.413836 C49.7386318,20.3785511 49.7667631,20.3425328 49.7934253,20.3058551 L53.4778532,23.3974572 L53.4778532,23.3974572 Z" id="write" fill="#333333" sketch:type="MSShapeGroup"></path>
    </g>
</svg>