<?xml version="1.0" encoding="UTF-8" standalone="no"?>
<svg width="67px" height="77px" viewBox="0 0 67 77" version="1.1" xmlns="http://www.w3.org/2000/svg" xmlns:xlink="http://www.w3.org/1999/xlink" xmlns:sketch="http://www.bohemiancoding.com/sketch/ns">
    <!-- Generator: Sketch 3.4.4 (17249) - http://www.bohemiancoding.com/sketch -->
    <title>write</title>
    <desc>Created with Sketch.</desc>
    <defs></defs>
    <g id="Resources" stroke="none" stroke-width="1" fill="none" fill-rule="evenodd" sketch:type="MSPage">
        <g id="Icons" sketch:type="MSLayerGroup" transform="translate(-668.000000, -32.000000)" fill="#333333">
            <path d="M685.8881,102.832906 L688.900223,101.736583 C689.313172,101.586281 689.670809,101.353503 689.961478,101.063944 C690.547729,100.927757 691.095924,100.608 691.511875,100.112289 L725.910852,59.1171848 L725.974282,59.170409 L733.015725,50.778744 C735.029625,48.3786718 734.71874,44.7967163 732.317976,42.7822364 L721.802249,33.9584935 C719.402921,31.945218 715.821471,32.2580549 713.806064,34.6599243 L710.551682,38.5383457 C710.415272,38.6500838 710.287285,38.7760208 710.169841,38.9159852 L672.302213,84.0448666 C671.954549,84.4591971 671.743718,84.9431698 671.664905,85.4419158 C671.357103,85.8156562 671.138458,86.271735 671.048348,86.7827787 L668.045064,103.815249 C667.912254,104.568449 668.079569,105.301466 668.460408,105.893359 C668.623937,107.242421 669.774168,108.291911 671.1688,108.291911 L728.736712,108.291911 C730.234347,108.291911 731.465027,107.069871 731.465027,105.562408 C731.465027,104.058013 730.243519,102.832906 728.736712,102.832906 L685.8881,102.832906 Z M721.477853,55.3974572 L687.237787,96.2031791 C687.131707,96.2287252 687.025966,96.2604992 686.920998,96.2987046 L680.135345,98.7684803 C680.167948,97.6302796 679.697364,96.491381 678.758069,95.7032186 C677.820006,94.9160906 676.613168,94.6529567 675.496059,94.8838051 L676.747301,87.7876579 C676.750057,87.7720279 676.752684,87.7564066 676.755182,87.7407951 L711.159497,46.7393287 L714.845367,49.8321407 C714.813876,49.8647788 714.783293,49.8987403 714.753692,49.9340176 L684.56909,85.9066257 C683.881708,86.7258156 683.990009,87.9403056 684.806102,88.6250886 C685.627884,89.3146457 686.839228,89.2030267 687.524422,88.3864441 L717.709024,52.413836 C717.738632,52.3785511 717.766763,52.3425328 717.793425,52.3058551 L721.477853,55.3974572 Z" id="write" sketch:type="MSShapeGroup"></path>
        </g>
    </g>
</svg>