<?xml version="1.0" encoding="UTF-8" standalone="no"?>
<svg width="72px" height="71px" viewBox="0 0 72 71" version="1.1" xmlns="http://www.w3.org/2000/svg" xmlns:xlink="http://www.w3.org/1999/xlink" xmlns:sketch="http://www.bohemiancoding.com/sketch/ns">
    <!-- Generator: Sketch 3.5.1 (25234) - http://www.bohemiancoding.com/sketch -->
    <title>zoom-in</title>
    <desc>Created with Sketch.</desc>
    <defs></defs>
    <g id="Resources" stroke="none" stroke-width="1" fill="none" fill-rule="evenodd" sketch:type="MSPage">
        <g id="Icons" sketch:type="MSLayerGroup" transform="translate(-665.000000, -305.000000)" fill="#333333">
            <path d="M695.617269,332.938952 L695.617269,325.079171 C695.617269,324.073484 694.802943,323.25468 693.798422,323.25468 C692.786896,323.25468 691.979574,324.071532 691.979574,325.079171 L691.979574,332.938952 L684.119793,332.938952 C683.114106,332.938952 682.295302,333.753278 682.295302,334.757799 C682.295302,335.769325 683.112154,336.576647 684.119793,336.576647 L691.979574,336.576647 L691.979574,344.436428 C691.979574,345.442115 692.7939,346.260919 693.798422,346.260919 C694.809947,346.260919 695.617269,345.444067 695.617269,344.436428 L695.617269,336.576647 L703.47705,336.576647 C704.482737,336.576647 705.301541,335.762321 705.301541,334.757799 C705.301541,333.746274 704.484689,332.938952 703.47705,332.938952 L695.617269,332.938952 Z M717.056978,349.054193 C723.874073,338.176286 722.560059,323.66567 713.108802,314.214413 C702.118772,303.224384 684.287828,303.236968 673.282274,314.242522 C662.27672,325.248076 662.264136,343.07902 673.254165,354.06905 C683.33167,364.146555 699.161222,364.972729 710.205905,356.55501 C710.480415,357.240447 710.895014,357.882673 711.449928,358.437587 L727.362235,374.349893 C729.560563,376.548222 733.12996,376.548913 735.331071,374.347802 C737.527703,372.15117 737.533118,368.578922 735.333162,366.378966 L719.420856,350.46666 C718.737858,349.783662 717.922515,349.312798 717.056978,349.054193 Z M705.121009,346.081257 C711.724342,339.477925 711.731893,328.779359 705.137875,322.185341 C698.543857,315.591323 687.845291,315.598874 681.241958,322.202206 C674.638626,328.805539 674.631075,339.504105 681.225093,346.098123 C687.819111,352.692141 698.517677,352.68459 705.121009,346.081257 Z" id="zoom-in" sketch:type="MSShapeGroup"></path>
        </g>
    </g>
</svg>