<?xml version="1.0" encoding="utf-8"?>
<!-- Generator: Adobe Illustrator 22.0.1, SVG Export Plug-In . SVG Version: 6.00 Build 0)  -->
<svg version="1.1" id="Layer_1" xmlns="http://www.w3.org/2000/svg" xmlns:xlink="http://www.w3.org/1999/xlink" x="0px" y="0px"
	 width="24px" height="24px" viewBox="0 0 24 24" style="enable-background:new 0 0 24 24;" xml:space="preserve">
<style type="text/css">
	.st0{fill:#4860A2;}
</style>
<path class="st0" d="M19.3,3c-1-0.4-1.9-0.4-2.5,0l0,0c0,0-0.1,0-0.1,0.1L7.6,9.8c0,0,0,0,0,0c0,0-0.1,0-0.1,0
	c-0.7,0.5-1,1.4-0.9,2.5c0,0.2,0.1,0.4,0.1,0.6L1.1,17c-0.2,0.2-0.3,0.4-0.1,0.7c0.1,0.1,0.2,0.2,0.4,0.2c0.1,0,0.2,0,0.3-0.1
	L7,13.8c0.1,0.4,0.3,0.7,0.5,1.1l-3.7,2.7c-0.2,0.2-0.3,0.4-0.1,0.7c0.1,0.1,0.2,0.2,0.4,0.2c0.1,0,0.2,0,0.3-0.1L8,15.6
	c0.4,0.5,0.8,0.9,1.2,1.2l-4.9,3.6c-0.2,0.2-0.3,0.4-0.1,0.7c0.1,0.1,0.2,0.2,0.4,0.2c0.1,0,0.2,0,0.3-0.1l5.2-3.8
	c0.1,0.1,0.2,0.1,0.3,0.2c0.5,0.2,1,0.3,1.4,0.3c0.4,0,0.7-0.1,1-0.3c0,0,0.1,0,0.1,0l0.1,0c0,0,0,0,0.1,0c0,0,0,0,0.1-0.1l9.1-6.6
	c0,0,0,0,0,0c0.7-0.5,1-1.4,0.9-2.5C22.9,6.3,21.2,3.9,19.3,3z M8.6,12.1c-0.2-0.2-0.4-0.3-0.7-0.1l-0.2,0.1c0-0.1,0-0.2,0-0.2
	c0-0.4,0.4-0.6,0.7-0.4s0.7,0.7,0.6,1.1c0,0.4-0.4,0.6-0.7,0.4c0,0-0.1,0-0.1-0.1l0.2-0.2C8.7,12.6,8.7,12.3,8.6,12.1z M11,12.9
	c-0.2-0.2-0.4-0.3-0.6-0.1l-0.2,0.2c0-0.1,0-0.2,0-0.2c0-0.4,0.4-0.6,0.7-0.4c0.4,0.2,0.7,0.7,0.6,1.1c0,0.4-0.4,0.6-0.7,0.4
	c0,0-0.1,0-0.1-0.1l0.3-0.2C11.1,13.4,11.2,13.1,11,12.9z M11.4,16.6C11.3,16.6,11.3,16.5,11.4,16.6l0.2-0.3
	c0.2-0.2,0.3-0.4,0.1-0.7c-0.2-0.2-0.4-0.3-0.7-0.1l-0.2,0.2c0-0.1,0-0.2,0-0.2c0-0.4,0.4-0.6,0.7-0.4c0.4,0.2,0.7,0.7,0.6,1.1
	C12.1,16.6,11.7,16.8,11.4,16.6z M21.6,10.1C21.6,10.1,21.5,10.1,21.6,10.1l-7.7,5.7c0-0.2,0-0.4,0-0.6c-0.1-1.2-0.7-2.5-1.6-3.6
	c-0.6-0.7-0.4-1.8,0.3-2.3l7-4.9c1.3,0.9,2.5,2.7,2.6,4.2v0C22.2,9.2,22,9.8,21.6,10.1z"/>
</svg>
