<?xml version="1.0" encoding="utf-8"?>
<!-- Generator: Adobe Illustrator 22.0.1, SVG Export Plug-In . SVG Version: 6.00 Build 0)  -->
<svg version="1.1" id="Layer_1" xmlns="http://www.w3.org/2000/svg" xmlns:xlink="http://www.w3.org/1999/xlink" x="0px" y="0px"
	 viewBox="0 0 24 24" style="enable-background:new 0 0 24 24;" xml:space="preserve">
<style type="text/css">
	.st0{fill:#4860A2;}
</style>
<g>
	<path class="st0" d="M23.6958008,8.5480957c-0.0110474-0.0407104-0.0116577-0.0847168-0.0323486-0.1210327
		c-0.0228882-0.0402222-0.0634766-0.0662231-0.0968018-0.098877c-0.0282593-0.02771-0.0473022-0.0633545-0.0822754-0.0840454
		l-0.0036011-0.0021362c-0.0001221-0.000061-0.0001831-0.0002441-0.0003052-0.0003052s-0.0002441-0.000061-0.0003662-0.0001221
		l-8.8453369-5.2386475c-0.15625-0.0917969-0.3486328-0.0927734-0.5029297-0.0039063L0.5219727,10.7900391
		c-0.0771484,0.0443115-0.1394653,0.1074219-0.1828613,0.1815796c-0.0057983,0.0098877-0.0041504,0.0228271-0.0092773,0.0331421
		c-0.0328979,0.0662231-0.0584717,0.1370239-0.0593262,0.213501c0,0.0010986,0.0007935,0.0019531,0.0007935,0.0030518
		c0,0.0010376-0.0007935,0.00177-0.0007935,0.0028076v2.3432617c0,0.1728516,0.0893555,0.3330078,0.2363281,0.4248047
		l0.8119507,0.5045776V16.25c0,0.2199707,0.1558838,0.3099976,0.3464355,0.1999512l0.3987427-0.2301636
		c0.1904907-0.1100464,0.3463745-0.3800049,0.3463745-0.6000366v-0.4446411l6.8543091,4.2594604
		c0.0092773,0.0057373,0.020813,0.0036011,0.0303955,0.008667c0.0697632,0.0379028,0.1461182,0.064209,0.229126,0.0653687
		c0.0014648,0,0.0026855,0.0011597,0.0041504,0.0011597c0.0003662,0,0.0007324-0.0003052,0.0011597-0.0003052
		c0.0006104,0,0.0011597,0.0003052,0.00177,0.0003052c0.0050049,0,0.0089722-0.0042114,0.0139771-0.0043335
		c0.0777588-0.0026245,0.1558228-0.019104,0.2262573-0.0581665c0.0076904-0.0043335,0.0108643-0.0131836,0.0182495-0.0178833
		c0.0073242-0.0044556,0.0170898-0.0026245,0.024231-0.0075073l1.2131958-0.7006226v1.4453735
		c0,0.2200317,0.1558838,0.3099976,0.3463745,0.2000122l0.3987427-0.2302246
		c0.1905518-0.1099854,0.3464355-0.3800049,0.3464355-0.5999756v-1.4456177l1.534729-0.8862915v1.4490967
		c0,0.2199707,0.1558838,0.3099976,0.3464355,0.2000122l0.3986816-0.2302246
		c0.1905518-0.1099854,0.3464355-0.3800049,0.3464355-0.5999756v-1.4493408l1.534729-0.8862915v1.4528198
		c0,0.2199707,0.1558838,0.3099976,0.3464355,0.1999512l0.3987427-0.2301636
		c0.1904907-0.1100464,0.3463745-0.3800049,0.3463745-0.6000366V15.057373l1.53479-0.8863525v1.456543
		c0,0.2200317,0.1558838,0.3099976,0.3463745,0.2000122l0.3987427-0.2302246
		c0.1905518-0.1099854,0.3464355-0.3800049,0.3464355-0.5999756v-1.4567261l1.534729-0.8863525v1.4602661
		c0,0.2199707,0.1558838,0.3099976,0.3464355,0.2000122l0.3986816-0.2302246
		c0.1905518-0.1099854,0.3464355-0.3800049,0.3464355-0.5999756v-1.4604492l0.8555908-0.4941406
		c0.1542969-0.0893555,0.25-0.2543945,0.25-0.4331055V8.6743164C23.7294922,8.6292725,23.7073364,8.5904541,23.6958008,8.5480957z
		 M14.3759766,4.0117188l7.8601685,4.6551514l-5.1957397,2.9744263L9.5351563,15.9375l-2.4771729-1.4972534
		c0.2249146-0.2428589,0.3551025-0.531189,0.3551025-0.8347778c0-0.8349609-0.9145508-1.4892578-2.0820313-1.4892578
		c-0.5415039,0-1.0517578,0.1420898-1.4365234,0.4003906c-0.0029297,0.0019531-0.0043335,0.005249-0.0072021,0.0072632
		l-1.6035156-0.9692383l-0.5274658-0.3187866L14.3759766,4.0117188z"/>
	<path class="st0" d="M12.7107544,11.6773071c0.1523438,0.0879517,0.4125366,0.046936,0.4663696-0.0734863l1.4108276-3.1577759
		c0.0529175-0.1184692-0.1338501-0.2263184-0.3390503-0.1957397L8.77948,9.0648804
		C8.5708618,9.0958862,8.4998779,9.2461548,8.6521606,9.3341064L12.7107544,11.6773071z"/>
</g>
</svg>
