<?xml version="1.0" encoding="utf-8"?>
<!-- Generator: Adobe Illustrator 22.0.1, SVG Export Plug-In . SVG Version: 6.00 Build 0)  -->
<svg version="1.1" id="Layer_1" xmlns="http://www.w3.org/2000/svg" xmlns:xlink="http://www.w3.org/1999/xlink" x="0px" y="0px"
	 viewBox="0 0 24 24" style="enable-background:new 0 0 24 24;" xml:space="preserve">
<style type="text/css">
	.st0{fill:#4860A2;}
</style>
<path class="st0" d="M21.1566162,4.5606079c0.0008545-0.0828857-0.0113525-0.1663208-0.0540771-0.2442017l-1.0742188-1.9667969
	c-0.3134766-0.5712891-0.9130859-0.9262695-1.5644531-0.9262695H5.9526367c-0.5522461,0-1.0820313,0.2617188-1.4169922,0.7001953
	L3.1005859,4.0024414c-0.0578613,0.0758667-0.0819702,0.1633301-0.0911865,0.25177
	C2.8103638,4.5499268,2.6938477,4.9055786,2.6938477,5.2880859v5.1142578v4.0693359
	c0,0.0722656,0.015625,0.1435547,0.0458984,0.2099609l1.6010742,3.46875
	c0.0820313,0.1767578,0.2592773,0.2900391,0.4541016,0.2900391h1.734375h0.5049438v3.7886963
	c0,0.2416382,0.1958618,0.4375,0.4375,0.4375h2.0408325c0.2416382,0,0.4375-0.1958618,0.4375-0.4375v-3.7886963h0.5118408h3.1425781
	h0.4714355v3.7886963c0,0.2416382,0.1958618,0.4375,0.4375,0.4375h2.0408325c0.2415771,0,0.4375-0.1958618,0.4375-0.4375v-3.7886963
	h0.4789429h1.734375c0.1953125,0,0.3720703-0.1132813,0.4541016-0.2900391l1.6005859-3.46875
	c0.0302734-0.0664063,0.0458984-0.1376953,0.0458984-0.2099609v-4.0693359V5.2880859
	C21.3056641,5.0299072,21.2521973,4.7841797,21.1566162,4.5606079z M14.1044922,17.4404297v-0.0061646h1.3916626
	c0,0-0.5880737-0.0006104-1.0100098-0.4225464c-0.2372437-0.2372437-0.3357544-0.5118408-0.3816528-0.7155762v-5.8937988
	c0-0.2763672-0.2236328-0.5-0.5-0.5h-3.1425781c-0.2763672,0-0.5,0.2236328-0.5,0.5v5.7115479
	c-0.0200806,0.1812744-0.1002197,0.5859985-0.420166,0.9059448c-0.3401489,0.3400879-0.7730103,0.4067383-0.9386597,0.4205933
	H7.0292969v-7.0380859c0-0.2763672-0.2236328-0.5-0.5-0.5H3.6938477V5.2880859c0-0.4726563,0.3842773-0.8569336,0.8569336-0.8569336
	h14.8984375c0.4726563,0,0.8564453,0.3842773,0.8564453,0.8569336v4.6142578h-2.8349609c-0.2763672,0-0.5,0.2236328-0.5,0.5
	v7.0380859H14.1044922z M5.3305664,2.7304688c0.1469727-0.1923828,0.3793945-0.3071289,0.6220703-0.3071289h12.5112305
	c0.2861328,0,0.5498047,0.15625,0.6875,0.4067383l0.3302612,0.6043701
	c-0.0110474-0.0001831-0.0213013-0.0032959-0.0324097-0.0032959H4.7955322L5.3305664,2.7304688z"/>
</svg>
