<?xml version="1.0" encoding="utf-8"?>
<!-- Generator: Adobe Illustrator 22.0.1, SVG Export Plug-In . SVG Version: 6.00 Build 0)  -->
<svg version="1.1" id="Layer_1" xmlns="http://www.w3.org/2000/svg" xmlns:xlink="http://www.w3.org/1999/xlink" x="0px" y="0px"
	 viewBox="0 0 24 24" style="enable-background:new 0 0 24 24;" xml:space="preserve">
<style type="text/css">
	.st0{fill:#4860A2;}
</style>
<path class="st0" d="M22.7294922,7.0703125c0-0.0439453-0.0143433-0.0831909-0.0249634-0.1237793
	c-0.0292969-0.4069824-0.2837524-0.7815552-0.7230835-1.0339355l-5.2832031-3.0527344
	c-0.1533203-0.090332-0.3447266-0.0898438-0.5009766-0.0009766l-2.234375,1.2900391
	c-0.012207,0.0070801-0.0172729,0.0210571-0.0287476,0.0289917c-0.0508423,0.0351563-0.0928955,0.0775757-0.1276245,0.1287231
	c-0.0119019,0.0174561-0.0247192,0.0319824-0.0343018,0.0508423C13.7372437,4.4257813,13.7128906,4.5,13.7128906,4.5820313
	v2.2194824l-6.8203125,3.9963379c-0.4150391,0.2451172-1.1445313,0.2485352-1.5625,0.0068359l-1.1166992-0.6445313
	c-0.15625-0.0898438-0.3476563-0.0898438-0.5029297,0.0019531l-2.5361328,1.4863281H1.1738281c0,0,0,0.0004883-0.0004883,0.0004883
	c-0.1054688,0.0620117-0.1801758,0.1572266-0.2177734,0.2651367c0,0,0,0-0.0004883,0.0004883c0,0,0,0,0,0.0004883
	c-0.0092773,0.0273438-0.0166016,0.0556641-0.0214844,0.0844727c-0.0048828,0.0292969-0.0068359,0.059082-0.0063477,0.0893555
	v4.9667969c0,0.1777344,0.0947266,0.3427734,0.2485352,0.4316406l5.5585938,3.2392578
	c0.3061523,0.1777344,0.6904297,0.2675781,1.0761719,0.2675781c0.3876953,0,0.777832-0.0908203,1.0917969-0.2724609
	l1.2663574-0.7827759l1.8015137,0.894104c0.0712891,0.0351563,0.1469727,0.0517578,0.2216797,0.0517578
	c0.0985718,0,0.1918945-0.0332031,0.2736816-0.0872803c0.0411377-0.0117188,0.0848389-0.0115967,0.1223145-0.03479
	l9.7216797-6.0869141c0.1357422-0.0849609,0.2177734-0.234375,0.2177734-0.3945313v-2.373291
	c0.1292725-0.2330322,0.2021484-0.4974976,0.2021484-0.7702637V7.0703125z M3.965332,11.171875l0.8647461,0.4990234
	c0.7216797,0.4160156,1.8496094,0.4116211,2.5688477-0.0102539l8.2719727-4.847168
	c0.4296875-0.2529297,0.671875-0.6303711,0.6640625-1.034668c-0.0087891-0.4042969-0.2666016-0.7714844-0.7070313-1.0068359
	l-0.3857422-0.206543l1.2041016-0.6958008l5.0371094,2.909668c0.1835938,0.1054688,0.2324219,0.2041016,0.2324219,0.2412109
	S21.6669922,7.15625,21.4833984,7.2626953L8.3891602,14.8535156c-0.1503906,0.0864868-0.3623047,0.1303711-0.5744629,0.1314087
	c-0.0009155,0-0.00177-0.0005493-0.0026855-0.0005493c-0.0010376,0-0.0018921,0.0006104-0.0029297,0.0006104
	c-0.2122803,0.0002441-0.4244385-0.0424805-0.5751953-0.1295166l-4.8125-2.7792969L3.965332,11.171875z M8.3891602,19.8632813
	c-0.0219727,0.0127563-0.0527344,0.0178223-0.0771484,0.0286865v-3.9639893
	c0.2075195-0.0440674,0.406189-0.1090698,0.5786133-0.2092285l12.8388672-7.4425049v2.4415894l-1.0410156-0.5103149
	c-0.2441406-0.121582-0.546875-0.019043-0.6689453,0.2285156c-0.1210938,0.2480469-0.0185547,0.5478516,0.2294922,0.6689453
	l0.6118164,0.2999268l-8.5140381,5.1731567l-1.5733643-0.7255249c-0.2529297-0.1171875-0.5478516-0.0068359-0.6635742,0.2451172
	c-0.1157227,0.25-0.0058594,0.5478516,0.2446289,0.6630859l1.5209961,0.701355v2.2069092l-1.5112305-0.750061
	c-0.0181274-0.0089722-0.0375977-0.0084229-0.0562134-0.0150146c-0.0307617-0.0109863-0.0605469-0.0198364-0.0928345-0.0247192
	c-0.0331421-0.0048828-0.0646362-0.0056763-0.0975952-0.0039063c-0.031189,0.0014648-0.06073,0.0048828-0.0914917,0.0122681
	c-0.0327759,0.0079956-0.0625,0.0198364-0.0930176,0.0341187c-0.0175781,0.0081177-0.0368042,0.0093384-0.0537109,0.0197144
	L8.3891602,19.8632813z"/>
</svg>
