<?xml version="1.0" encoding="utf-8"?>
<!-- Generator: Adobe Illustrator 22.0.1, SVG Export Plug-In . SVG Version: 6.00 Build 0)  -->
<svg version="1.1" id="Layer_1" xmlns="http://www.w3.org/2000/svg" xmlns:xlink="http://www.w3.org/1999/xlink" x="0px" y="0px"
	 viewBox="0 0 24 24" style="enable-background:new 0 0 24 24;" xml:space="preserve">
<style type="text/css">
	.st0{fill:#4860A2;}
</style>
<path class="st0" d="M17.5224609,1h-2.6435547c-0.1543579,0-0.2870483,0.0737915-0.3787231,0.1835938
	c-0.1923218,0.109375-0.3759155,0.2539673-0.5435791,0.4586182l-0.0005493-0.0006104L9.505127,5.5860596
	C8.9504395,4.9353027,8.394043,4.7792969,8.0175781,4.7792969h-1.956543c-2.0419922,0-3.144043,3.7202148-3.144043,7.2207031
	c0,3.5,1.1020508,7.2207031,3.144043,7.2207031H8.222168v-0.0204468c0.3359985-0.0437012,0.7643433-0.2131348,1.203186-0.6899414
	l4.5320435,3.8486328C14.2915649,22.7665405,14.6734009,23,15.1074219,23h2.4150391c2.3066406,0,3.1435547-6.578125,3.1435547-11
	S19.8291016,1,17.5224609,1z M16.6611328,3.7041016c0.7841797,0,1.8789063,3.1777344,1.8789063,8.3520508
	s-1.0947266,8.3520508-1.8789063,8.3520508c-0.0661011,0-0.1383057-0.0368652-0.2123413-0.0895386
	c-0.475708-1.3859253-0.9080811-3.6126099-1.0315552-6.6055298C16.0413208,13.6157837,16.5,12.7824707,16.5,11.6860352
	c0-1.0803833-0.4452515-1.9053345-1.0553589-2.0227051c0.1481934-2.579895,0.5305786-4.5374756,0.9530029-5.8308105
	C16.4902954,3.7537231,16.5802002,3.7041016,16.6611328,3.7041016z M8.6882324,6.1599121
	C7.5339355,6.7911377,7.0009766,9.526001,7.0009766,12.09375c0,2.4697266,0.493103,5.0948486,1.5578613,5.8537598
	c-0.1845703,0.1644897-0.3669434,0.2731934-0.5412598,0.2731934c-0.8950195,0-2.1435547-2.3662109-2.1435547-6.2207031
	c0-3.8540039,1.2485352-6.2207031,2.1435547-6.2207031C8.2747803,5.7792969,8.5091553,5.9646606,8.6882324,6.1599121z M3.9169922,12
	c0-3.8540039,1.2485352-6.2207031,2.144043-6.2207031h0.3026733C5.3882446,7.1203003,4.8740234,9.6103516,4.8740234,12
	c0,2.3894043,0.5142212,4.8796387,1.4897461,6.2207031H6.0610352C5.1655273,18.2207031,3.9169922,15.8544922,3.9169922,12z
	 M12.9633789,12c0-6.4702148,1.4165039-10,2.144043-10H16.125c-1.2561035,2.0040894-1.7460938,6.6254272-1.7460938,10
	S14.8688965,19.9959106,16.125,22h-1.0175781C14.3798828,22,12.9633789,18.4707031,12.9633789,12z M17.5224609,22
	c-0.2254639,0-0.5170288-0.3405151-0.8120728-1.0007935c1.5940552-0.0922852,2.4292603-4.5405884,2.4292603-8.9430542
	c0-4.4433594-0.8496094-8.9398193-2.4727783-8.9506836C16.9766235,2.3794556,17.2858887,2,17.5224609,2
	C18.25,2,19.6660156,5.5297852,19.6660156,12C19.6660156,18.4707031,18.25,22,17.5224609,22z"/>
</svg>
