<?xml version="1.0" encoding="utf-8"?>
<!-- Generator: Adobe Illustrator 22.0.1, SVG Export Plug-In . SVG Version: 6.00 Build 0)  -->
<svg version="1.1" id="Layer_1" xmlns="http://www.w3.org/2000/svg" xmlns:xlink="http://www.w3.org/1999/xlink" x="0px" y="0px"
	 viewBox="0 0 24 24" style="enable-background:new 0 0 24 24;" xml:space="preserve">
<style type="text/css">
	.st0{fill:#4860A2;}
</style>
<path class="st0" d="M23.6958008,9.6813965c-0.0110474-0.0407104-0.0116577-0.0847168-0.0323486-0.1210327
	c-0.0228882-0.0402222-0.0634766-0.0662231-0.0968018-0.098877c-0.0282593-0.02771-0.0473022-0.0633545-0.0822754-0.0840454
	l-0.0036011-0.0021362C23.4806519,9.3752441,23.4805908,9.375061,23.4804688,9.375s-0.0003052-0.000061-0.0004272-0.0001221
	l-5.8022461-3.4360352c0.0002441-0.0063477,0.0048218-0.0115356,0.0048218-0.0179443V4.7763672
	c0-0.0450439-0.0221558-0.0838623-0.0336914-0.1262207c-0.0110474-0.0407104-0.0116577-0.0847168-0.0323486-0.1210327
	c-0.0228882-0.0402222-0.0634766-0.0662231-0.0968018-0.098877c-0.0282593-0.02771-0.0473022-0.0633545-0.0822754-0.0840454
	l-0.0036011-0.0021362c-0.0001221-0.000061-0.0001831-0.0002441-0.0003052-0.0003052s-0.0002441-0.000061-0.0003662-0.0001221
	l-4.1773682-2.473999c-0.1542969-0.0913086-0.3476563-0.0922852-0.503418-0.0039063L6.3217773,5.5473633
	C6.2446289,5.5916748,6.182312,5.6547852,6.138916,5.7289429C6.1331177,5.7388306,6.1347656,5.75177,6.1296387,5.762085
	C6.0967407,5.8283081,6.071167,5.8991089,6.0703125,5.9755859c0,0.0010986,0.0007935,0.0019531,0.0007935,0.0030518
	c0,0.0010376-0.0007935,0.00177-0.0007935,0.0028076v1.1069336c0,0.1728516,0.0893555,0.3334961,0.2358398,0.4248047
	l0.9207153,0.5722046l-6.704895,3.8379517c-0.0771484,0.0443115-0.1394653,0.1074219-0.1828613,0.1815796
	c-0.0057983,0.0098877-0.0041504,0.0228271-0.0092773,0.0331421c-0.0328979,0.0662231-0.0584717,0.1370239-0.0593262,0.213501
	c0,0.0010986,0.0007935,0.0019531,0.0007935,0.0030518c0,0.0010376-0.0007935,0.00177-0.0007935,0.0028076v2.3427734
	c0,0.1728516,0.0893555,0.3330078,0.2358398,0.4248047l0.812439,0.5049438v1.7533569
	c0,0.2200317,0.1558838,0.3099976,0.3464355,0.2000122l0.3987427-0.2302246
	c0.1904907-0.1099854,0.3463745-0.3800049,0.3463745-0.5999756v-0.4447021l6.8538208,4.2599487
	c0.0096436,0.0059204,0.0214844,0.0036621,0.0313721,0.0089111c0.0696411,0.0377808,0.145813,0.0639648,0.2286377,0.0651245
	c0.0014648,0,0.0026855,0.0011597,0.0041504,0.0011597c0.0003662,0,0.0007324-0.0003052,0.0011597-0.0003052
	c0.0006104,0,0.0011597,0.0003052,0.00177,0.0003052c0.0050049,0,0.0089111-0.0042114,0.013855-0.0043335
	c0.0778198-0.0026245,0.1559448-0.019043,0.2263794-0.0581665c0.0077515-0.0043335,0.0109863-0.0133667,0.0184326-0.0180664
	c0.0070801-0.0043945,0.0166626-0.0025635,0.0235596-0.0073242l1.2136841-0.7009277v1.4452515
	c0,0.2199707,0.1558838,0.3099976,0.3463745,0.2000122l0.3987427-0.2302246
	c0.1905518-0.1099854,0.3464355-0.3800049,0.3464355-0.5999756v-1.4454956l1.534729-0.8863525v1.4490356
	c0,0.2199707,0.1558838,0.3099976,0.3464355,0.1999512l0.3986816-0.2301636
	c0.1905518-0.1100464,0.3464355-0.3800049,0.3464355-0.6000366v-1.4492188l1.534729-0.8863525v1.4527588
	c0,0.2200317,0.1558838,0.3099976,0.3464355,0.2000122l0.3987427-0.2302246
	c0.1904907-0.1099854,0.3463745-0.3800049,0.3463745-0.5999756v-1.4529419l1.53479-0.8864136v1.456543
	c0,0.2199707,0.1558838,0.3099976,0.3463745,0.2000122l0.3987427-0.2302246
	c0.1905518-0.1099854,0.3464355-0.3800049,0.3464355-0.5999756v-1.4567261l1.534729-0.8864136v1.4603271
	c0,0.2199707,0.1558838,0.3099976,0.3464355,0.1999512l0.3986816-0.2301636
	c0.1905518-0.1100464,0.3464355-0.3800049,0.3464355-0.6000366v-1.4604492l0.8555908-0.4941406
	c0.1542969-0.0893555,0.25-0.2543945,0.25-0.4331055V9.8076172C23.7294922,9.7625732,23.7073364,9.7237549,23.6958008,9.6813965z
	 M13.93573,8.7613525l3.3687744,1.9702148l-7.302063,4.180542L6.6749878,12.940979L13.93573,8.7613525z M12.996582,2.878418
	l3.192627,1.8905029L10.71521,7.9022827L8.8289185,6.7623291l-1.2727051-0.769165L12.996582,2.878418z M16.7542725,12.9381714
	l-7.2191162,4.1321411L4.770813,14.190979l-3.0144043-1.8218384l6.4356689-3.6838989l0.9335327,0.5801392l-4.5362549,2.6179199
	c-0.0097046,0.0056152-0.013855,0.0164185-0.0227051,0.0229492c-0.0340576,0.0249023-0.0664673,0.0519409-0.0870361,0.0878296
	c-0.0089722,0.015625-0.0081787,0.034729-0.0142212,0.0517578c-0.0109863,0.0310669-0.0257568,0.0609131-0.0259399,0.0947876
	c0,0.0014038,0.0009766,0.0024414,0.0009766,0.0038452s-0.0009766,0.0025635-0.0009766,0.0039673
	c0.0003662,0.0215454,0.0126343,0.0393066,0.0174561,0.0598145c0.006958,0.0297241,0.0098877,0.0603027,0.0252075,0.0863647
	c0.0117188,0.0199585,0.0319824,0.0323486,0.0480957,0.0491943c0.0186768,0.0195313,0.0323486,0.043335,0.0562134,0.0575562
	l5.2607422,3.1152344C9.894043,15.5449219,9.9472656,15.5585938,10,15.5585938c0.0512695,0,0.1030273-0.0126953,0.1489258-0.0390625
	l9.3676758-5.362793c0.0249634-0.0143433,0.0397339-0.0387573,0.0591431-0.05896
	c0.0166626-0.0172119,0.0385742-0.0297241,0.0505371-0.050293c0.0094604-0.0163574,0.008667-0.0367432,0.0149536-0.0546265
	c0.0108643-0.0309448,0.0257568-0.0606689,0.0257568-0.0944214c0-0.0002441-0.0001831-0.0004883-0.0001831-0.0007324
	s0.0001831-0.0004883,0.0001831-0.0007324c0-0.0338745-0.0145874-0.0639038-0.0252686-0.0950317
	c-0.0062256-0.0180054-0.005188-0.0383911-0.0145874-0.0548096c-0.0257568-0.0450439-0.0631104-0.0834961-0.1095581-0.1104126
	l-3.8811035-2.2453003L16.918335,6.651062l5.3178101,3.1491089L16.7542725,12.9381714z"/>
</svg>
