<?xml version="1.0" encoding="utf-8"?>
<!-- Generator: Adobe Illustrator 22.0.1, SVG Export Plug-In . SVG Version: 6.00 Build 0)  -->
<svg version="1.1" id="Layer_1" xmlns="http://www.w3.org/2000/svg" xmlns:xlink="http://www.w3.org/1999/xlink" x="0px" y="0px"
	 viewBox="0 0 24 24" style="enable-background:new 0 0 24 24;" xml:space="preserve">
<style type="text/css">
	.st0{fill:#4860A2;}
</style>
<path class="st0" d="M20.8896484,14.7919922l-5.1320801-4.7409668l0.9191895-1.592041
	c0.3779297-0.6533203,0.3867188-1.2836914,0.0244141-1.6860352l-0.6308594-0.7016602L16.062439,6.0783691
	c-0.3796387-0.3344727-1.0457153-0.3980103-1.7649536-0.1449585l-3.0050049-3.6638794
	c-0.0166016-0.0219727-0.0351563-0.0429688-0.0551758-0.0625c-0.013916-0.0137939-0.0319214-0.0194702-0.0469971-0.03125
	c-0.2188721-0.338501-0.6105347-0.5356445-1.1087646-0.5356445c-0.9155273,0-2.0366211,0.7001953-2.5522461,1.59375
	l-4.3056641,7.456543c-0.3168945,0.5493164-0.3613281,1.1020508-0.121582,1.5161133
	c0.0447998,0.0776367,0.1028442,0.1442261,0.1643066,0.2073364c0.0623779,0.0992432,0.2107544,0.3035889,0.4660645,0.4596558
	l3.5415649,3.4210205l-0.0825806,0.1654053c-0.324707,0.5625-0.3779297,1.1162109-0.1459961,1.5175781
	c0.098938,0.1715088,0.2433472,0.3040161,0.4252319,0.3956909l-0.0077515,0.0115356l1.0673828,0.7167969l0.0986328,0.0507813
	h0.0913086c1,0,2.2294922-0.7734375,2.7988281-1.7597656l0.4631348-0.8021851l5.779541,5.3451538
	c0.0966797,0.0888672,0.21875,0.1328125,0.3398438,0.1328125c0.1347656,0,0.2685547-0.0537109,0.3671875-0.1601563
	c0.1875-0.203125,0.1748047-0.5195313-0.0273438-0.7070313l-5.9465332-5.4987793l2.7504883-4.7640991l4.9665527,4.5880737
	c0.0957031,0.0888672,0.2177734,0.1328125,0.3388672,0.1328125c0.1347656,0,0.2685547-0.0537109,0.3671875-0.1611328
	C21.1054688,15.2958984,21.0927734,14.9794922,20.8896484,14.7919922z M15.1708984,6.3657227
	c0.1943359,0,0.4511719,0.0424805,0.5664063,0.2426758c0.1201172,0.2075195,0.0654297,0.5507813-0.1455078,0.9174805
	l-5.1582031,8.934082c-0.456543,0.7910156-1.5004883,1.4599609-2.3017578,1.4599609
	c-0.1948242,0-0.4511719-0.0419922-0.5668945-0.2421875c-0.1201172-0.2080078-0.0654297-0.5517578,0.1542969-0.9335938
	l0.0521851-0.104187C7.9715576,16.7299194,8.1875,16.78125,8.4101563,16.78125c0.0668945,0,0.1342773-0.0039063,0.2016602-0.0126953
	c0.4760742-0.0605469,0.8925781-0.3310547,1.1430664-0.7402344l4.8417969-7.9257813
	c0.3135986-0.5137939,0.3133545-1.1368408,0.0501099-1.6546021C14.8276978,6.3956909,15.0045776,6.3657227,15.1708984,6.3657227z
	 M4.0898438,11.1904297l4.3056641-7.456543c0.3359375-0.5825195,1.1240234-1.09375,1.7045898-1.09375
	c0.1289063,0,0.2299805,0.0302734,0.2573242,0.0776367c0.0302734,0.0527344,0.0439453,0.2280273-0.1225586,0.5161133
	L5.9403687,10.671875c-0.0145264,0.0214844-0.0270996,0.0369263-0.0413818,0.0578003
	c-0.3483887,0.5653076-1.1065674,1.0545044-1.6553345,1.0545044h-0.019043c-0.1289063,0-0.2294922-0.0302734-0.2568359-0.0776367
	C3.9375,11.6538086,3.9238281,11.4780273,4.0898438,11.1904297z"/>
</svg>
