<?xml version="1.0" encoding="utf-8"?>
<!-- Generator: Adobe Illustrator 22.0.1, SVG Export Plug-In . SVG Version: 6.00 Build 0)  -->
<svg version="1.1" id="Layer_1" xmlns="http://www.w3.org/2000/svg" xmlns:xlink="http://www.w3.org/1999/xlink" x="0px" y="0px"
	 viewBox="0 0 24 24" style="enable-background:new 0 0 24 24;" xml:space="preserve">
<style type="text/css">
	.st0{fill:#4860A2;}
</style>
<g>
	<path class="st0" d="M23.6958008,9.2565918c-0.0110474-0.0407104-0.0116577-0.0847168-0.0323486-0.1210327
		c-0.0228882-0.0402222-0.0634766-0.0662231-0.0968018-0.098877c-0.0282593-0.02771-0.0473022-0.0633545-0.0822754-0.0840454
		l-0.0036011-0.0021362c-0.0001221-0.000061-0.0001831-0.0002441-0.0003052-0.0003052s-0.0002441-0.000061-0.0003662-0.0001221
		l-8.8453369-5.2386475c-0.15625-0.0922852-0.3486328-0.0932617-0.5029297-0.0039063L0.5219727,11.4985352
		c-0.0771484,0.0443115-0.1394653,0.1074219-0.1828613,0.1815796c-0.0057983,0.0098877-0.0041504,0.0228271-0.0092773,0.0331421
		c-0.0328979,0.0662231-0.0584717,0.1370239-0.0593262,0.213501c0,0.0010986,0.0007935,0.0019531,0.0007935,0.0030518
		c0,0.0010376-0.0007935,0.00177-0.0007935,0.0028076v2.3427734c0,0.1728516,0.0893555,0.3330078,0.2358398,0.4248047
		l0.812439,0.5049438v1.7531738c0,0.2199707,0.1558838,0.3099976,0.3464355,0.2000122l0.3987427-0.2302246
		c0.1904907-0.1099854,0.3463745-0.3800049,0.3463745-0.5999756v-0.444519l6.8538208,4.2599487
		c0.0096436,0.0059204,0.0214844,0.0036621,0.0313721,0.0089111c0.0696411,0.0377808,0.145813,0.0639648,0.2286377,0.0651245
		c0.0014648,0,0.0026855,0.0011597,0.0041504,0.0011597c0.0003662,0,0.0007324-0.0003052,0.0011597-0.0003052
		c0.0006104,0,0.0011597,0.0003052,0.00177,0.0003052c0.0050049,0,0.0089111-0.0042114,0.013855-0.0043335
		c0.0778198-0.0026245,0.1559448-0.019043,0.2263794-0.0581665c0.0077515-0.0043335,0.0109863-0.0133667,0.0184326-0.0180664
		c0.0070801-0.0043945,0.0166626-0.0025635,0.0235596-0.0073242l1.2136841-0.7009277V20.875
		c0,0.2199707,0.1558838,0.3099976,0.3463745,0.1999512l0.3987427-0.2301636
		c0.1905518-0.1100464,0.3464355-0.3800049,0.3464355-0.6000366v-1.4452515l1.534729-0.8863525v1.4487915
		c0,0.2200317,0.1558838,0.3099976,0.3464355,0.2000122l0.3986816-0.2302246
		c0.1905518-0.1099854,0.3464355-0.3800049,0.3464355-0.5999756v-1.4490356l1.534729-0.8863525v1.4525757
		c0,0.2199707,0.1558838,0.3099976,0.3464355,0.2000122l0.3987427-0.2302246
		c0.1904907-0.1099854,0.3463745-0.3800049,0.3463745-0.5999756v-1.4527588l1.53479-0.8864136v1.4563599
		c0,0.2199707,0.1558838,0.3099976,0.3463745,0.1999512l0.3987427-0.2301636
		c0.1905518-0.1100464,0.3464355-0.3800049,0.3464355-0.6000366v-1.4564819l1.534729-0.8864136v1.460083
		c0,0.2200317,0.1558838,0.3099976,0.3464355,0.2000122l0.3986816-0.2302246
		c0.1905518-0.1099854,0.3464355-0.3800049,0.3464355-0.5999756v-1.4602661l0.8555908-0.4941406
		c0.1542969-0.0893555,0.25-0.2543945,0.25-0.4331055V9.3828125C23.7294922,9.3377686,23.7073364,9.2989502,23.6958008,9.2565918z
		 M14.3759766,4.7202148l7.8601685,4.6551514l-5.4818726,3.1380005l-7.2191162,4.1321411l-2.4772949-1.4971313
		c0.2249756-0.2428589,0.3552246-0.53125,0.3552246-0.8348999c0-0.8349609-0.9145508-1.4892578-2.0820313-1.4892578
		c-0.5415039,0-1.0522461,0.1425781-1.4370117,0.4013672c-0.0026855,0.0018311-0.0039063,0.0047607-0.0065918,0.0066528
		l-2.1310425-1.2879028L14.3759766,4.7202148z"/>
	<path class="st0" d="M10.722168,14.5498047c0.046875,0.0283203,0.1000977,0.0419922,0.152832,0.0419922
		c0.0512695,0,0.1025391-0.0126953,0.1489258-0.0390625L19.4814453,9.71875
		c0.09375-0.0532227,0.1513672-0.1518555,0.1513672-0.2592773s-0.0566406-0.2070313-0.1494141-0.2607422l-5.3232422-3.0800781
		c-0.09375-0.0537109-0.2070313-0.0532227-0.2988281-0.0004883L5.465332,10.9160156
		c-0.0927734,0.0527344-0.1503906,0.1508789-0.1508789,0.2578125c-0.0009766,0.1069336,0.0551758,0.2060547,0.1469727,0.2607422
		L10.722168,14.5498047z M10.1088867,9.0249023l2.4458008,1.3920898c0.0913086,0.0532227,0.2050781,0.0522461,0.2958984,0.0004883
		l1.5501709-0.8910522l2.0714722,1.2217407l-3.177063,1.8156738L8.605957,9.8764648L10.1088867,9.0249023z M17.0717773,10.4055176
		l-2.0731201-1.2227783l1.6346436-0.9396362l2.0981445,1.2139282L17.0717773,10.4055176z M14.0087891,6.7246094L16.03302,7.895813
		l-3.3294067,1.9157104l-2.052124-1.168396L14.0087891,6.7246094z M7.9453125,10.1895752l4.7451172,2.7199097l-1.8125,1.0358276
		l-4.6669922-2.7646484L7.9453125,10.1895752z"/>
</g>
</svg>
