<?xml version="1.0" encoding="utf-8"?>
<!-- Generator: Adobe Illustrator 22.0.1, SVG Export Plug-In . SVG Version: 6.00 Build 0)  -->
<svg version="1.1" id="Layer_1" xmlns="http://www.w3.org/2000/svg" xmlns:xlink="http://www.w3.org/1999/xlink" x="0px" y="0px"
	 width="24px" height="24px" viewBox="0 0 24 24" style="enable-background:new 0 0 24 24;" xml:space="preserve">
<style type="text/css">
	.st0{fill:#4860A2;}
</style>
<g>
	<path class="st0" d="M8.7202,19.2246H5.6821c-0.2183-0.567-0.765-0.9717-1.4081-0.9717c-0.8335,0-1.5117,0.6777-1.5117,1.5117
		s0.6782,1.5117,1.5117,1.5117c0.6984,0,1.2818-0.4777,1.4549-1.1221h2.9914c0.2568,0,0.4653-0.208,0.4653-0.4648
		S8.9771,19.2246,8.7202,19.2246z M4.2739,20.3467c-0.3203,0-0.5811-0.2617-0.5811-0.582s0.2607-0.582,0.5811-0.582
		c0.3208,0,0.5815,0.2617,0.5815,0.582S4.5947,20.3467,4.2739,20.3467z"/>
	<path class="st0" d="M4.2739,11.147c0.7,0,1.2847-0.4802,1.4563-1.127h3.7964c0.1976,0.6054,0.7607,1.0469,1.4309,1.0469
		c0.834,0,1.5122-0.6782,1.5122-1.5122s-0.6782-1.5122-1.5122-1.5122c-0.6702,0-1.2333,0.4415-1.4309,1.0469H5.6803
		c-0.1638-0.4203-0.5098-0.7448-0.941-0.8855v-3.428h1.8339c0.2094,0.584,0.763,1.0054,1.418,1.0054
		c0.834,0,1.5122-0.6782,1.5122-1.5117c0-0.834-0.6782-1.5122-1.5122-1.5122c-0.6853,0-1.259,0.4613-1.4437,1.0879H4.2739
		c-0.2568,0-0.4653,0.2085-0.4653,0.4653v3.8934c-0.605,0.1976-1.0464,0.7607-1.0464,1.4308
		C2.7622,10.4688,3.4404,11.147,4.2739,11.147z M10.9575,8.9731c0.3208,0,0.5815,0.2607,0.5815,0.5815s-0.2607,0.5815-0.5815,0.5815
		c-0.3203,0-0.5811-0.2607-0.5811-0.5815S10.6372,8.9731,10.9575,8.9731z M7.9912,3.688c0.3208,0,0.5815,0.2607,0.5815,0.5815
		c0,0.3203-0.2607,0.5811-0.5815,0.5811c-0.3203,0-0.5811-0.2607-0.5811-0.5811C7.4102,3.9487,7.6709,3.688,7.9912,3.688z"/>
	<path class="st0" d="M21.1641,14.4453c0-0.834-0.6777-1.5122-1.5107-1.5122c-0.834,0-1.5117,0.6782-1.5117,1.5122
		c0,0.6708,0.4413,1.2338,1.0469,1.4311v2.4572c-0.4332,0.1411-0.7801,0.468-0.9429,0.8911h-6.8228v-3.4977
		c0.6054-0.1974,1.0469-0.7604,1.0469-1.431c0-0.834-0.6782-1.5122-1.5122-1.5122c-0.7253,0-1.3319,0.5139-1.4775,1.1968H5.7054
		c-0.1974-0.6057-0.7607-1.0474-1.4315-1.0474c-0.8335,0-1.5117,0.6782-1.5117,1.5122s0.6782,1.5117,1.5117,1.5117
		c0.6708,0,1.2341-0.4413,1.4315-1.0469h3.8737c0.1734,0.3874,0.5059,0.6837,0.9131,0.8166v3.9627
		c0,0.2568,0.2085,0.4648,0.4653,0.4648h7.2413c0.173,0.6443,0.756,1.1221,1.4545,1.1221c0.833,0,1.5107-0.6777,1.5107-1.5117
		c0-0.6706-0.4412-1.2335-1.0459-1.431v-2.4575C20.7229,15.6788,21.1641,15.1159,21.1641,14.4453z M4.2739,15.0273
		c-0.3203,0-0.5811-0.2617-0.5811-0.582s0.2607-0.582,0.5811-0.582c0.3208,0,0.5815,0.2617,0.5815,0.582
		S4.5947,15.0273,4.2739,15.0273z M10.9575,13.7139c0.3208,0,0.5815,0.2617,0.5815,0.582s-0.2607,0.582-0.5815,0.582
		c-0.3203,0-0.5811-0.2617-0.5811-0.582S10.6372,13.7139,10.9575,13.7139z M19.6533,20.3467c-0.3203,0-0.582-0.2617-0.582-0.582
		s0.2617-0.582,0.582-0.582s0.5811,0.2617,0.5811,0.582S19.9736,20.3467,19.6533,20.3467z"/>
	<path class="st0" d="M20.1182,8.1233V5.7004c0.6047-0.1975,1.0459-0.7607,1.0459-1.4309c0-0.834-0.6777-1.5122-1.5107-1.5122
		c-0.6857,0-1.259,0.4613-1.4437,1.0879h-2.1204c-0.1846-0.6266-0.7581-1.0879-1.4437-1.0879c-0.834,0-1.5117,0.6782-1.5117,1.5122
		c0,0.8335,0.6777,1.5117,1.5117,1.5117c0.6555,0,1.2089-0.4214,1.4182-1.0054h2.1716c0.1571,0.4385,0.5089,0.7798,0.9532,0.9247
		v2.4226c-0.6055,0.1974-1.0469,0.7607-1.0469,1.4315c0,0.834,0.6777,1.5122,1.5117,1.5122c0.833,0,1.5107-0.6782,1.5107-1.5122
		C21.1641,8.8841,20.7229,8.3208,20.1182,8.1233z M14.6455,4.8506c-0.3203,0-0.582-0.2607-0.582-0.5811
		c0-0.3208,0.2617-0.5815,0.582-0.5815s0.582,0.2607,0.582,0.5815C15.2275,4.5898,14.9658,4.8506,14.6455,4.8506z M19.6533,3.688
		c0.3203,0,0.5811,0.2607,0.5811,0.5815c0,0.3203-0.2607,0.5811-0.5811,0.5811s-0.582-0.2607-0.582-0.5811
		C19.0713,3.9487,19.333,3.688,19.6533,3.688z M19.6533,10.1362c-0.3203,0-0.582-0.2607-0.582-0.5815s0.2617-0.5815,0.582-0.5815
		s0.5811,0.2607,0.5811,0.5815S19.9736,10.1362,19.6533,10.1362z"/>
</g>
</svg>
