<?xml version="1.0" encoding="utf-8"?>
<!-- Generator: Adobe Illustrator 22.0.1, SVG Export Plug-In . SVG Version: 6.00 Build 0)  -->
<svg version="1.1" id="Layer_1" xmlns="http://www.w3.org/2000/svg" xmlns:xlink="http://www.w3.org/1999/xlink" x="0px" y="0px"
	 viewBox="0 0 24 24" style="enable-background:new 0 0 24 24;" xml:space="preserve">
<style type="text/css">
	.st0{fill:#4860A2;}
</style>
<g>
	<path class="st0" d="M23.7294922,11.2182617c-0.0008545-0.0791016-0.0263672-0.1529541-0.0614624-0.2209473
		c-0.0040894-0.0079346-0.0026245-0.0179443-0.0071411-0.0256348c-0.043457-0.0742188-0.105957-0.1373291-0.1833496-0.1816406
		l-0.0010986-0.0006104c-0.0003662-0.0001831-0.0004883-0.0006714-0.0008545-0.0008545s-0.0007324-0.0001221-0.0010986-0.0003052
		L9.8686523,2.9990234c-0.15625-0.0888672-0.3481445-0.0874023-0.503418,0.0039063L0.5198975,8.2415771
		c-0.0001221,0.000061-0.0002441,0.000061-0.0003662,0.0001221S0.5193481,8.2419434,0.5192261,8.2420044L0.515625,8.2441406
		C0.4807739,8.2648315,0.4616089,8.3004761,0.4333496,8.328186C0.4000244,8.3608398,0.359436,8.3868408,0.3365479,8.427063
		c-0.020752,0.0363159-0.0212402,0.0803223-0.0323486,0.1210327C0.2926636,8.5904541,0.2705078,8.6292725,0.2705078,8.6743164
		v2.4223633c0,0.1787109,0.0952148,0.34375,0.25,0.4331055l0.8555908,0.4941406v1.4604492
		c0,0.2199707,0.1558838,0.4899902,0.3464355,0.5999756l0.3986816,0.2302246
		c0.1905518,0.1099854,0.3464355,0.0199585,0.3464355-0.2000122v-1.4602661l1.534729,0.8864136v1.456665
		c0,0.2199707,0.1558838,0.4899902,0.3464355,0.5999756l0.3987427,0.2302246
		c0.1904907,0.1099854,0.3463745,0.0200195,0.3463745-0.2000122v-1.4564819l1.53479,0.8864136v1.4528809
		c0,0.2200317,0.1558838,0.4899902,0.3463745,0.6000366l0.3987427,0.2301636
		c0.1905518,0.1100464,0.3464355,0.0200195,0.3464355-0.1999512v-1.4527588l1.534729,0.8863525v1.4492188
		c0,0.2199707,0.1558838,0.4899902,0.3464355,0.5999756l0.3986816,0.2302246
		c0.1905518,0.1099854,0.3464355,0.0199585,0.3464355-0.2000122v-1.4489746l1.534729,0.8863525v1.4454346
		c0,0.2199707,0.1558838,0.4899902,0.3464355,0.5999756l0.3987427,0.2302246
		c0.1904907,0.1099854,0.3463745,0.0200195,0.3463745-0.2000122v-1.4451904l1.2263794,0.708252
		c0.0048218,0.0030518,0.0112915,0.0018311,0.0162354,0.0047607c0.0053711,0.0032959,0.0075684,0.0097046,0.0130615,0.0128174
		c0.0761719,0.0419922,0.1591797,0.0625,0.2431641,0.0625c0.0871582,0,0.1668091-0.0281372,0.2391968-0.0682373
		c0.0076294-0.0042114,0.0170288-0.0023193,0.0244751-0.006958l6.8543091-4.2594604v0.4446411
		c0,0.2200317,0.1558838,0.4899902,0.3463745,0.6000366l0.3987427,0.2301636
		c0.1905518,0.1100464,0.3464355,0.0200195,0.3464355-0.1999512v-1.7532349l0.8119507-0.5045776
		c0.1474609-0.0917969,0.2363281-0.2519531,0.2363281-0.4248047v-2.3432617c0-0.0010376-0.0007935-0.00177-0.0007935-0.0028076
		C23.7286987,11.2202148,23.7294922,11.2193604,23.7294922,11.2182617z M20.8356934,11.078125
		c0.1942749-0.1121826,0.5093384-0.1121826,0.7036133,0c0.1943359,0.1121826,0.1943359,0.2940674,0,0.40625
		c-0.1942749,0.1121826-0.5093384,0.1121826-0.7036133,0C20.6413574,11.3721924,20.6413574,11.1903076,20.8356934,11.078125z
		 M9.6245117,4.0117188l10.130249,5.7994995v2.928772L14.4648438,15.9375L4.744751,10.37323L1.7642822,8.6669312
		L9.6245117,4.0117188z"/>
	<polygon class="st0" points="6.2666016,9.0756836 9.9140625,6.9697266 9.9267578,6.9775391 7.0751953,9.5424805 
		7.96875,10.0585938 12.4306641,8.4228516 12.4423828,8.4296875 8.7949219,10.5356445 9.6464844,11.0268555 14.0107422,8.5068359 
		12.6923828,7.7460938 8.4736328,9.2832031 8.4609375,9.2753906 11.1113281,6.8330078 9.7802734,6.0644531 5.4160156,8.5844727 	"/>
	<path class="st0" d="M12.3681641,12.5981445c0.8935547,0.5161133,1.2822266,0.5649414,1.7753906,0.5688477
		c0.4550781,0.0029297,0.9287109-0.1025391,1.2753906-0.3022461c0.4316406-0.2490234,0.7177734-0.5756836,0.3837891-0.9995117
		c0.2734375,0.0517578,0.8017578,0.1538086,1.4277344-0.2075195c0.4501953-0.2597656,0.8457031-0.8032227-0.2246094-1.4213867
		l-2.1220703-1.2246094L10.5195313,11.53125L12.3681641,12.5981445z M15.0068359,9.9521484l1.0449219,0.6035156
		c0.4140625,0.2382813,0.5595703,0.4492188,0.2001953,0.65625c-0.3457031,0.2001953-0.7714844,0.1157227-1.1308594-0.0913086
		l-1.0683594-0.6176758L15.0068359,9.9521484z M14.4775391,11.5981445c0.328125,0.1894531,0.5107422,0.4628906,0.1279297,0.684082
		c-0.4443359,0.2563477-0.8945313,0.2211914-1.3378906-0.034668l-1.1181641-0.6459961l1.1669922-0.6738281L14.4775391,11.5981445z"
		/>
</g>
</svg>
