<?xml version="1.0" encoding="utf-8"?>
<!-- Generator: Adobe Illustrator 22.0.1, SVG Export Plug-In . SVG Version: 6.00 Build 0)  -->
<svg version="1.1" id="Layer_1" xmlns="http://www.w3.org/2000/svg" xmlns:xlink="http://www.w3.org/1999/xlink" x="0px" y="0px"
	 viewBox="0 0 24 24" style="enable-background:new 0 0 24 24;" xml:space="preserve">
<style type="text/css">
	.st0{fill:#4860A2;}
</style>
<path class="st0" d="M21.0097656,6.6741943c-0.0075684-0.0137939-0.0166016-0.0247192-0.0253906-0.0377197
	c-0.0397339-0.0584106-0.0892334-0.1062012-0.1494751-0.1433105c-0.008606-0.0053711-0.0123901-0.015625-0.0214233-0.0205078
	l-8.6010742-4.6621094c-0.1508789-0.0820313-0.3334961-0.0810547-0.4829102,0.003418L2.6777344,6.8969727
	C2.6657104,6.9037476,2.6606445,6.9174194,2.649353,6.9250488c-0.0525513,0.0352783-0.0960693,0.0782471-0.131897,0.1303711
	C2.5055542,7.0726929,2.493103,7.0872192,2.4834595,7.105835C2.4475708,7.1748047,2.4223633,7.2498169,2.4223633,7.3330078
	v10.2988281c0,0.1962891,0.1147461,0.3671875,0.2807617,0.4482422l8.5351563,4.6103516
	c0.0049438,0.0026855,0.0108643,0.0014648,0.0159302,0.0039673C11.3209839,22.727417,11.3934937,22.75,11.4731445,22.75
	c0.0005493,0,0.0010986-0.0003052,0.0016479-0.0003052c0.0004272,0,0.0008545,0.0003052,0.0012817,0.0003052
	c0.0036011,0,0.0068359-0.0026245,0.010437-0.0026855c0.0745239-0.0020752,0.1430664-0.0219116,0.2059937-0.0531616
	c0.0081787-0.0039673,0.0177612-0.0021973,0.0257568-0.0066528l9.1020508-5.0390625
	c0.1591797-0.0878906,0.2578125-0.2558594,0.2578125-0.4375V6.9121094
	C21.078125,6.8242188,21.0494995,6.7459106,21.0097656,6.6741943z M11.9785156,2.8208008l7.5498047,4.0927734l-8.0581055,4.3935547
	L3.965332,7.3208008L11.9785156,2.8208008z"/>
</svg>
