<?xml version="1.0" encoding="utf-8"?>
<!-- Generator: Adobe Illustrator 22.0.1, SVG Export Plug-In . SVG Version: 6.00 Build 0)  -->
<svg version="1.1" id="Layer_1" xmlns="http://www.w3.org/2000/svg" xmlns:xlink="http://www.w3.org/1999/xlink" x="0px" y="0px"
	 viewBox="0 0 24 24" style="enable-background:new 0 0 24 24;" xml:space="preserve">
<style type="text/css">
	.st0{fill:#4860A2;}
</style>
<path class="st0" d="M20.1455078,17.2294922l-4.2918091-4.2981567c0.1990967-0.3643188,0.3718262-0.7296143,0.4832153-1.088562
	c0.3320313-1.0722656,0.2099609-1.9672852-0.3417969-2.519043c-0.0002441-0.0002441-0.0006104-0.0001221-0.0008545-0.0003662
	l-1.7559814-1.7559814c-0.3962402-0.3974609-0.9945679-0.5592651-1.6994019-0.4957886L8.7045898,3.2373047
	C7.730957,2.2641602,5.1865234,2.4355469,3.6035156,4.0200195C2.8706055,4.7529297,2.390625,5.7250977,2.2514648,6.7573242
	C2.1181641,7.7475586,2.3310547,8.6313477,2.8208008,9.1210938l3.8343506,3.8347778
	c-0.0483398,0.5386963,0.0386963,1.0098877,0.262146,1.3800049c0.0123901,0.0522461,0.0204468,0.1067505,0.0612183,0.147522
	l0.1717529,0.1717529c0.000061,0.000061,0.000061,0.000061,0.0001221,0.0001221s0.0001221,0.0001221,0.0001831,0.0001831
	l1.7563477,1.7559204c0.0001831,0.0001831,0.0001221,0.0005493,0.0003052,0.0007324
	c0.0006714,0.0006714,0.0015259,0.0010986,0.0021973,0.00177l0.2102051,0.210144
	c0.0585938,0.0585938,0.1352539,0.0878906,0.2119141,0.0878906c0.0011597,0,0.0020752-0.0013428,0.0032349-0.0013428
	c0.2828369,0.1447754,0.6104736,0.2259521,0.9830933,0.2259521c0.3393555,0,0.7119141-0.0605469,1.1083984-0.1835938
	c0.3539429-0.1094971,0.7141113-0.2791748,1.0734253-0.4744873l5.2493286,5.2489014
	c0.0976563,0.0976563,0.2255859,0.1464844,0.3535156,0.1464844s0.2558594-0.0488281,0.3535156-0.1464844
	c0.1953125-0.1953125,0.1953125-0.5117188,0-0.7070313l-5.0923462-5.0919189
	c0.3631592-0.2655029,0.7203979-0.5556641,1.0562134-0.8914795c0.3320923-0.3317261,0.6192017-0.6845093,0.8823853-1.0430908
	l4.1361694,4.1427002c0.0976563,0.0976563,0.2255859,0.1464844,0.3535156,0.1464844s0.2558594-0.0488281,0.3535156-0.1464844
	C20.3408203,17.7421875,20.3408203,17.4248047,20.1455078,17.2294922z M8.3564453,13.8291016
	c0.2827148,0,0.5893555-0.0458984,0.9130859-0.1386719c0.8486328-0.2441406,1.7246094-0.7866211,2.4667969-1.5292969
	c1.5170288-1.5170288,2.0616455-3.449646,1.3354492-4.4933472c0.3047485,0.0390015,0.5614624,0.1430054,0.7426758,0.3239136
	c0.3867188,0.3867188,0.4550781,1.0673828,0.1923828,1.9169922c-0.2832031,0.9155273-0.9111328,1.8911133-1.7670898,2.7470703
	c-0.8564453,0.855957-1.8320313,1.4838867-2.7475586,1.7670898c-0.8496094,0.2636719-1.5307617,0.1943359-1.9174805-0.1914063
	c-0.1771851-0.1774292-0.2816772-0.4266357-0.3227539-0.7229614C7.5532837,13.7179565,7.9260864,13.8291016,8.3564453,13.8291016z
	 M4.3105469,4.7270508C4.3386841,4.6988525,4.3706055,4.6798096,4.399292,4.6528931
	C4.6792603,4.6066895,5.4510498,4.5760498,6.291687,5.416626c0.5900269,0.5900879,4.3015747,4.3529053,5.3027344,5.368042
	c-0.1661377,0.2269287-0.3483276,0.4526367-0.5651245,0.6694336c-0.6152344,0.6157227-1.3574219,1.0800781-2.0356445,1.2749023
	c-0.5585938,0.159668-1.0292969,0.1225586-1.2543945-0.1035156L3.527832,8.4140625
	C3.0307617,7.9169922,3.0195313,6.0180664,4.3105469,4.7270508z"/>
</svg>
