<?xml version="1.0" encoding="utf-8"?>
<!-- Generator: Adobe Illustrator 22.0.1, SVG Export Plug-In . SVG Version: 6.00 Build 0)  -->
<svg version="1.1" id="Layer_1" xmlns="http://www.w3.org/2000/svg" xmlns:xlink="http://www.w3.org/1999/xlink" x="0px" y="0px"
	 viewBox="0 0 24 24" style="enable-background:new 0 0 24 24;" xml:space="preserve">
<style type="text/css">
	.st0{fill:#FFFFFF;}
	.st1{fill:#4860A2;}
</style>
<path class="st0" d="M16.9699631,3.0244699"/>
<g>
	<path class="st1" d="M19.7806396,4.0321045c-0.0071411-0.0136108-0.0165405-0.0241089-0.0249023-0.0369873
		c-0.036499-0.0556641-0.0818481-0.1015625-0.1369629-0.1387329c-0.0096436-0.0065918-0.013855-0.0183716-0.0240479-0.024353
		l-4.3935547-2.5732422c-0.1552734-0.0893555-0.3476563-0.0908203-0.5029297-0.0014648L4.3442383,7.2353516
		c-0.0124512,0.0072021-0.0178223,0.0213013-0.02948,0.02948C4.265564,7.2990112,4.2247925,7.3397827,4.1906128,7.3889771
		C4.1781616,7.4069214,4.1652222,7.4221191,4.1552124,7.4415283C4.1202393,7.508728,4.0963745,7.5818481,4.0953979,7.6627197
		c0,0.0015259-0.0011597,0.0027466-0.0011597,0.0042725c0,0.0002441,0.0001831,0.0003662,0.0001831,0.0006104
		c0,0.0003052-0.0001831,0.0005493-0.0001831,0.0008545v12.0952148c0,0.1914063,0.109375,0.3583984,0.2680664,0.4423828
		l4.3198242,2.5224609c0.0057373,0.003418,0.0127563,0.0019531,0.0186157,0.0050659
		c0.0698242,0.0370483,0.145813,0.0632935,0.2304077,0.0632935c0.0006104,0,0.0010986-0.0003662,0.001709-0.0003662
		c0.0004272,0,0.0007935,0.0003662,0.0012207,0.0003662c0.0032349,0,0.0061646-0.0024414,0.0093994-0.0025024
		c0.076355-0.0019531,0.1462402-0.0230713,0.2103271-0.055542c0.0088501-0.0043945,0.0192261-0.0024414,0.027832-0.0073853
		l10.4111328-5.9384766c0.1552734-0.0888672,0.2519531-0.2548828,0.2519531-0.4345703V4.2636719
		C19.8447266,4.1785889,19.8180542,4.1022339,19.7806396,4.0321045z M6.605957,14.4379883
		c0.0571289-0.03125,0.1269531-0.019043,0.1743164-0.0043945c0.1484375,0.0463867,0.2988281,0.1879883,0.394043,0.3691406
		c0.0795898,0.1523438,0.1142578,0.3203125,0.0942383,0.4604492c-0.0083008,0.0610352-0.0351563,0.1704102-0.1235352,0.2167969
		l-0.578064,0.3155518c-0.0133667-0.1912231-0.0537109-0.3849487-0.1494751-0.5679932
		c-0.1046143-0.199646-0.2489624-0.3464355-0.404541-0.4658203L6.605957,14.4379883z M5.9816895,11.5117188l0.5930176-0.3237305
		c0.0571289-0.03125,0.1269531-0.019043,0.1743164-0.0043945c0.1484375,0.0463867,0.2988281,0.1879883,0.394043,0.3691406
		c0.0795898,0.1523438,0.1142578,0.3203125,0.0942383,0.4604492c-0.0083008,0.0610352-0.0351563,0.1704102-0.1235352,0.2167969
		l-0.578064,0.3155518c-0.0133667-0.1912231-0.0537109-0.3849487-0.1494751-0.5679932
		C6.2816162,11.7778931,6.1372681,11.6311035,5.9816895,11.5117188z M5.2866211,11.8911133
		c0.1411133-0.0717773,0.4130859,0.0678711,0.5683594,0.3647461c0.0795898,0.1523438,0.1142578,0.3208008,0.0942383,0.4609375
		c-0.0083008,0.0610352-0.0351563,0.1699219-0.1196289,0.2138672C5.7709961,12.9604492,5.703125,12.9492188,5.65625,12.9350586
		c-0.1479492-0.0463867-0.2988281-0.1875-0.394043-0.3691406c-0.0795898-0.1523438-0.1142578-0.3203125-0.0947266-0.4609375
		C5.1762695,12.0439453,5.2026367,11.9350586,5.2866211,11.8911133z M5.9804688,15.9667969
		c-0.0083008,0.0610352-0.0351563,0.1699219-0.1196289,0.2138672C5.8022461,16.2104492,5.734375,16.1992188,5.6875,16.1850586
		c-0.1479492-0.0463867-0.2988281-0.1875-0.394043-0.3691406c-0.0795898-0.1523438-0.1142578-0.3203125-0.0947266-0.4609375
		c0.0087891-0.0610352,0.0351563-0.1699219,0.1191406-0.2138672c0.1411133-0.0717773,0.4130859,0.0678711,0.5683594,0.3647461
		C5.9658203,15.6582031,6.0004883,15.8266602,5.9804688,15.9667969z M17.1009521,14.5765991
		c-1.1858521,2.2658691-3.4615479,3.4147949-5.0828857,2.5662842c-1.6213379-0.8485718-1.9743652-3.373291-0.7884521-5.6391602
		C12.4154663,9.237854,14.6911621,8.0889282,16.3125,8.9375S18.2868652,12.310791,17.1009521,14.5765991z M14.9462891,2.269043
		l3.3964844,1.9887695L8.934082,9.6245117L5.5898438,7.6708984L14.9462891,2.269043z"/>
	<path class="st1" d="M15.6699219,12.0673828c-0.0625,0.0361328-0.109375,0.0932617-0.1328125,0.1616211l-0.7099609,2.0483398
		l-0.7978516-3.2246094c-0.0322266-0.1289063-0.1445313-0.2216797-0.2783203-0.2275391
		c-0.1328125-0.0083008-0.2539063,0.0771484-0.296875,0.2026367l-1.0029297,2.9301758l-0.9384766,0.5097656
		c-0.1455078,0.0791016-0.199707,0.2607422-0.1206055,0.4072266c0.0786133,0.1445313,0.2617188,0.1982422,0.4067383,0.1201172
		l1.0415039-0.5654297c0.0664063-0.0361328,0.1162109-0.0957031,0.140625-0.1669922l0.7114258-2.0761719l0.7958984,3.21875
		c0.03125,0.1289063,0.1445313,0.2216797,0.2773438,0.2275391c0.0048828,0,0.0087891,0,0.0136719,0
		c0.1269531,0,0.2412109-0.0800781,0.2832031-0.2011719l1.0048828-2.9003906l0.9443359-0.5454102
		c0.1435547-0.0830078,0.1923828-0.2661133,0.109375-0.409668c-0.0830078-0.144043-0.265625-0.1938477-0.4101563-0.1098633
		L15.6699219,12.0673828z"/>
</g>
</svg>
