<?xml version="1.0" encoding="utf-8"?>
<!-- Generator: Adobe Illustrator 22.0.1, SVG Export Plug-In . SVG Version: 6.00 Build 0)  -->
<svg version="1.1" id="Layer_1" xmlns="http://www.w3.org/2000/svg" xmlns:xlink="http://www.w3.org/1999/xlink" x="0px" y="0px"
	 width="24px" height="24px" viewBox="0 0 24 24" style="enable-background:new 0 0 24 24;" xml:space="preserve">
<style type="text/css">
	.st0{fill:#4860A2;}
</style>
<path class="st0" d="M19.5127,3.2144c-0.5124-0.2333-1.0038-0.3326-1.4561-0.3174c-0.0468-0.0027-0.0892,0.0065-0.1348,0.0179
	c-0.3423,0.0314-0.6646,0.1182-0.9413,0.2971l0.001,0.0024c-0.0322,0.0146-0.0625,0.0317-0.0889,0.0503l-1.2689,0.886
	c-0.7708,0.0095-1.4198,0.2491-1.8805,0.7029c-0.0371,0.0249-0.0713,0.0562-0.1016,0.0928
	c-0.0029,0.0039-0.0674,0.083-0.0703,0.0869c-0.1299,0.1703-0.0964,0.3715,0.0352,0.5258l-0.5762,0.4023
	c-0.8394-0.0024-1.5425,0.2585-2.0176,0.774l0.0024,0.0024c-0.0347,0.0273-0.054,0.0815-0.0681,0.1181
	c-0.017,0.0441-0.0216,0.1833,0.0333,0.2539c0.0455,0.0585,0.1306,0.1916,0.1306,0.1916l-0.8858,0.6186
	C9.6265,7.9937,9.1077,8.2035,8.728,8.5781C8.6904,8.603,8.6563,8.6333,8.6274,8.6689C8.624,8.6729,8.5591,8.7524,8.5562,8.7563
	C8.4664,8.8726,8.4571,9.0038,8.4979,9.1258L7.5977,9.7544C7.5888,9.7606,7.5844,9.7701,7.576,9.7769
	C7.5453,9.7963,7.5087,9.804,7.479,9.8252c-0.6777,0.4834-0.9922,1.3555-0.8862,2.4561c0.019,0.197,0.0629,0.397,0.1068,0.5967
	l-5.6199,4.121c-0.207,0.1514-0.252,0.4434-0.0996,0.6504c0.0908,0.124,0.2324,0.1904,0.3755,0.1904
	c0.0952,0,0.1919-0.0303,0.2749-0.0908l5.3533-3.9255c0.4633,1.1641,1.2839,2.2623,2.2558,3.035l-4.8816,3.58
	c-0.207,0.1514-0.252,0.4434-0.0996,0.6504c0.0908,0.124,0.2324,0.1904,0.3755,0.1904c0.0952,0,0.1919-0.0303,0.2749-0.0908
	l5.1562-3.7813c0.1033,0.0563,0.2037,0.1241,0.3087,0.1719c0.4888,0.2227,0.959,0.333,1.3906,0.333
	c0.3748,0,0.7105-0.1049,1.015-0.2723c0.0253-0.0121,0.0558-0.0087,0.0787-0.0255l0.0555-0.0405
	c0.022-0.0145,0.0489-0.0193,0.0704-0.0347c0.0253-0.0181,0.0413-0.0455,0.0656-0.0646l2.6945-1.9669
	c0.0272,0.0736,0.066,0.1422,0.1271,0.1946l0.0068,0.0059c0.0869,0.0742,0.1924,0.1104,0.2979,0.1104
	c0.1318,0,0.2617-0.0557,0.3545-0.1641c0.0107-0.0117,0.0195-0.0234,0.0283-0.0361c0.2668-0.2964,0.4212-0.6684,0.5056-1.0744
	l1.121-0.8183c0.0083,0.0098,0.0117,0.0221,0.0209,0.0314l0.0068,0.0068c0.0898,0.0898,0.207,0.1348,0.3242,0.1348
	c0.1191,0,0.2393-0.0469,0.3301-0.1387c0.0205-0.0195,0.0381-0.041,0.0537-0.0635c0.2122-0.2358,0.3455-0.5235,0.4424-0.8309
	l1.4132-1.0316c0.0274,0.0538,0.0641,0.1031,0.1111,0.1433l0.0068,0.0059c0.0869,0.0742,0.1924,0.1104,0.2979,0.1104
	c0.1318,0,0.2617-0.0557,0.3545-0.1641c0.0107-0.0117,0.0195-0.0239,0.0283-0.0361c0.2497-0.2774,0.3959-0.6234,0.4861-0.9972
	l0.0627-0.0458c0.0166-0.0122,0.0313-0.0249,0.0459-0.0391c0.6914-0.4741,1.0264-1.3657,0.9199-2.4644
	C22.8857,6.2241,21.3809,4.0654,19.5127,3.2144z M19.4721,11.6337c-0.0374-0.2984-0.1071-0.6072-0.2231-0.9261
	c-0.5223-1.4341-1.6097-2.738-2.9163-3.6172l1.8002-1.2275c1.2884,0.7662,2.4036,2.0042,2.8963,3.3585
	c0.1522,0.4168,0.2114,0.7966,0.1946,1.1335L19.4721,11.6337z M17.0794,13.3804c-0.0422-0.245-0.098-0.4944-0.1917-0.752
	c-0.5539-1.5212-1.7473-2.8854-3.1596-3.7621l1.7541-1.196c1.2863,0.7665,2.3998,2.0029,2.8918,3.3556
	c0.1741,0.4786,0.2274,0.908,0.1799,1.2781L17.0794,13.3804z M8.3278,12.965c-0.032-0.015-0.058-0.0432-0.0884-0.0623l0.2435-0.1786
	c0.207-0.1519,0.252-0.4429,0.0996-0.6504c-0.1504-0.2065-0.4414-0.2524-0.6504-0.0996l-0.2024,0.1484
	c-0.0127-0.0769-0.027-0.1543-0.0206-0.2291c0.0356-0.4151,0.3702-0.6083,0.7474-0.4315s0.6542,0.6566,0.6187,1.0716
	C9.0397,12.9485,8.7051,13.1417,8.3278,12.965z M11.3641,16.5821c-0.0321-0.0151-0.0583-0.0433-0.0888-0.0626l0.277-0.2031
	c0.207-0.1514,0.252-0.4434,0.0996-0.6504c-0.1509-0.2061-0.4429-0.251-0.6504-0.0996l-0.2355,0.1727
	c-0.0126-0.0767-0.027-0.154-0.0206-0.2286c0.0355-0.4151,0.3702-0.6083,0.7474-0.4315c0.3773,0.1768,0.6542,0.6566,0.6187,1.0716
	C12.0759,16.5657,11.7413,16.7589,11.3641,16.5821z M13.8691,15.084c-0.1245-1.2973-0.8103-2.6759-1.7684-3.7479
	c-0.4027-0.4506-0.2974-1.1574,0.2019-1.4978l0.5741-0.3915c1.3891,0.7484,2.612,2.0615,3.1359,3.5
	c0.1431,0.3931,0.1982,0.7502,0.1914,1.0728l-2.3334,1.7036C13.8837,15.5182,13.8909,15.3094,13.8691,15.084z M22.054,9.4883
	c-0.0418-0.1932-0.0765-0.3849-0.1497-0.5855c-0.5223-1.4359-1.6113-2.7413-2.92-3.6205l0.9962-0.6793
	c0.0013-0.0009,0.0017-0.0026,0.003-0.0035c1.1564,0.8992,2.0416,2.3942,2.1806,3.8365v0.0005
	C22.2038,8.851,22.1622,9.2035,22.054,9.4883z"/>
</svg>
