<?xml version="1.0" encoding="utf-8"?>
<!-- Generator: Adobe Illustrator 22.0.1, SVG Export Plug-In . SVG Version: 6.00 Build 0)  -->
<svg version="1.1" id="Layer_1" xmlns="http://www.w3.org/2000/svg" xmlns:xlink="http://www.w3.org/1999/xlink" x="0px" y="0px"
	 viewBox="0 0 24 24" style="enable-background:new 0 0 24 24;" xml:space="preserve">
<style type="text/css">
	.st0{fill:#4860A2;}
</style>
<g>
	<path class="st0" d="M23.6958008,8.5480957c-0.0110474-0.0407104-0.0116577-0.0847168-0.0323486-0.1210327
		c-0.0228882-0.0402222-0.0634766-0.0662231-0.0968018-0.098877c-0.0282593-0.02771-0.0473022-0.0633545-0.0822754-0.0840454
		l-0.0036011-0.0021362c-0.0001221-0.000061-0.0001831-0.0002441-0.0003052-0.0003052s-0.0002441-0.000061-0.0003662-0.0001221
		l-8.8453369-5.2386475c-0.15625-0.0917969-0.3486328-0.0927734-0.5029297-0.0039063L0.5219727,10.7900391
		c-0.0771484,0.0443115-0.1394653,0.1074219-0.1828613,0.1815796c-0.0057983,0.0098877-0.0041504,0.0228271-0.0092773,0.0331421
		c-0.0328979,0.0662231-0.0584717,0.1370239-0.0593262,0.213501c0,0.0010986,0.0007935,0.0019531,0.0007935,0.0030518
		c0,0.0010376-0.0007935,0.00177-0.0007935,0.0028076v2.3432617c0,0.1728516,0.0893555,0.3330078,0.2363281,0.4248047
		l0.8119507,0.5045776V16.25c0,0.2199707,0.1558838,0.3099976,0.3464355,0.1999512l0.3987427-0.2301636
		c0.1904907-0.1100464,0.3463745-0.3800049,0.3463745-0.6000366v-0.4446411l6.8543091,4.2594604
		c0.0092773,0.0057373,0.020813,0.0036011,0.0303955,0.008667c0.0697632,0.0379028,0.1461182,0.064209,0.229126,0.0653687
		c0.0014648,0,0.0026855,0.0011597,0.0041504,0.0011597c0.0003662,0,0.0007324-0.0003052,0.0011597-0.0003052
		c0.0006104,0,0.0011597,0.0003052,0.00177,0.0003052c0.0050049,0,0.0089722-0.0042114,0.0139771-0.0043335
		c0.0777588-0.0026245,0.1558228-0.019104,0.2262573-0.0581665c0.0076904-0.0043335,0.0108643-0.0131836,0.0182495-0.0178833
		c0.0073242-0.0044556,0.0170898-0.0026245,0.024231-0.0075073l1.2131958-0.7006226v1.4453735
		c0,0.2200317,0.1558838,0.3099976,0.3463745,0.2000122l0.3987427-0.2302246
		c0.1905518-0.1099854,0.3464355-0.3800049,0.3464355-0.5999756v-1.4456177l1.534729-0.8862915v1.4490967
		c0,0.2199707,0.1558838,0.3099976,0.3464355,0.2000122l0.3986816-0.2302246
		c0.1905518-0.1099854,0.3464355-0.3800049,0.3464355-0.5999756v-1.4493408l1.534729-0.8862915v1.4528198
		c0,0.2199707,0.1558838,0.3099976,0.3464355,0.1999512l0.3987427-0.2301636
		c0.1904907-0.1100464,0.3463745-0.3800049,0.3463745-0.6000366V15.057373l1.53479-0.8863525v1.456543
		c0,0.2200317,0.1558838,0.3099976,0.3463745,0.2000122l0.3987427-0.2302246
		c0.1905518-0.1099854,0.3464355-0.3800049,0.3464355-0.5999756v-1.4567261l1.534729-0.8863525v1.4602661
		c0,0.2199707,0.1558838,0.3099976,0.3464355,0.2000122l0.3986816-0.2302246
		c0.1905518-0.1099854,0.3464355-0.3800049,0.3464355-0.5999756v-1.4604492l0.8555908-0.4941406
		c0.1542969-0.0893555,0.25-0.2543945,0.25-0.4331055V8.6743164C23.7294922,8.6292725,23.7073364,8.5904541,23.6958008,8.5480957z
		 M14.3759766,4.0117188l7.8601685,4.6551514l-5.1957397,2.9744263L9.5351563,15.9375l-7.2513428-4.3828735l-0.5274658-0.3187866
		L14.3759766,4.0117188z"/>
	<path class="st0" d="M13.3964844,10.730957c0.0022583,0.0014038,0.005188,0.0007324,0.0075073,0.0021362
		c0.0025635,0.0015259,0.00354,0.0046387,0.0061646,0.0061646c0.0771484,0.0444336,0.1640625,0.0668945,0.25,0.0668945
		c0.0839844,0,0.1669922-0.0209961,0.2431641-0.0629883c0.0012207-0.0006714,0.001709-0.0021973,0.0029297-0.0028687
		s0.0026855-0.0003662,0.0039063-0.0010376l3.5068359-2.0249023c0.1542969-0.0893555,0.25-0.2543945,0.25-0.4331055V7.6616211
		c0-0.0450439-0.0221558-0.0838623-0.0336914-0.1262207c-0.0110474-0.0407104-0.0116577-0.0847168-0.0323486-0.1210327
		c-0.0228882-0.0402222-0.0634766-0.0662231-0.0968018-0.098877c-0.0282593-0.02771-0.0473022-0.0633545-0.0822754-0.0840454
		l-0.0036011-0.0021362c-0.0001221-0.000061-0.0001831-0.0002441-0.0003052-0.0003052s-0.0002441-0.000061-0.0003662-0.0001221
		l-2.260376-1.3387451c-0.1542969-0.0922852-0.3486328-0.0932617-0.5029297-0.0039063l-3.4833984,1.9936523
		c-0.0771484,0.0443115-0.1394653,0.1074219-0.1828613,0.1815796c-0.0057983,0.0098877-0.0041504,0.0228271-0.0092773,0.0331421
		c-0.0328979,0.0662231-0.0584717,0.1370239-0.0593262,0.213501c0,0.0010986,0.0007935,0.0019531,0.0007935,0.0030518
		c0,0.0010376-0.0007935,0.00177-0.0007935,0.0028076v0.5996094c0,0.1728516,0.0893555,0.3334961,0.2358398,0.4248047
		L13.3964844,10.730957z M14.8984375,6.8989258l1.2744141,0.7553711l-2.5058594,1.434082l-1.2617188-0.7626953L14.8984375,6.8989258
		z"/>
	<path class="st0" d="M7.0209961,12.5019531c0.6767578,0,1.1870117-0.3300781,1.1870117-0.7675781V9.4907227
		c0-0.4375-0.5102539-0.7675781-1.1870117-0.7675781S5.8339844,9.0532227,5.8339844,9.4907227v2.2436523
		C5.8339844,12.171875,6.3442383,12.5019531,7.0209961,12.5019531z M6.4335938,11.7304688l0.0221558,0.0221558
		c-0.0067749-0.0059814-0.0198364-0.0142212-0.0221558-0.0182495V11.7304688z M7.6005859,9.4907227
		C7.5498047,9.5493164,7.3461914,9.6586914,7.0209961,9.6586914c-0.3513184,0-0.5594482-0.1270752-0.5874023-0.1517334V9.5029907
		c0.0279541-0.0529785,0.236084-0.1802368,0.5874023-0.1802368C7.3461914,9.3227539,7.5498047,9.4321289,7.6005859,9.4907227z"/>
	<path class="st0" d="M9.875,14.0019531c0.6767578,0,1.1870117-0.3300781,1.1870117-0.7675781v-2.2436523
		c0-0.4375-0.5102539-0.7675781-1.1870117-0.7675781s-1.1870117,0.3300781-1.1870117,0.7675781v2.2436523
		C8.6879883,13.671875,9.1982422,14.0019531,9.875,14.0019531z M10.4545898,10.9907227
		c-0.0507813,0.0585938-0.2543945,0.1679688-0.5795898,0.1679688c-0.3508301,0-0.5594482-0.1270752-0.5874023-0.1517334v-0.0039063
		C9.3155518,10.9500732,9.5241699,10.8227539,9.875,10.8227539C10.2001953,10.8227539,10.4038086,10.9321289,10.4545898,10.9907227z
		"/>
</g>
</svg>
