<?xml version="1.0" encoding="utf-8"?>
<!-- Generator: Adobe Illustrator 22.0.1, SVG Export Plug-In . SVG Version: 6.00 Build 0)  -->
<svg version="1.1" id="Layer_1" xmlns="http://www.w3.org/2000/svg" xmlns:xlink="http://www.w3.org/1999/xlink" x="0px" y="0px"
	 viewBox="0 0 24 24" style="enable-background:new 0 0 24 24;" xml:space="preserve">
<style type="text/css">
	.st0{fill:#4860A2;}
</style>
<path class="st0" d="M5.1694336,12.8095703l2.4472656,1.4130859c0.0016479,0.0009155,0.0036011,0.0004883,0.005249,0.0014038
	c0.0010986,0.0006104,0.0014648,0.0018921,0.0025635,0.0025024c0.06604,0.0374756,0.1393433,0.0507202,0.2121582,0.0553589
	c0.010376,0.0006714,0.0196533,0.0081177,0.0300293,0.0081177c0.0001831,0,0.0003052-0.0001221,0.0004883-0.0001221
	s0.0003052,0.0001221,0.0004883,0.0001221c0.0047607,0,0.0089111-0.0037842,0.0136719-0.0039063
	c0.0808716-0.0025024,0.1622314-0.0211182,0.2348633-0.0625c0.0026245-0.0015259,0.0036621-0.0046997,0.0062866-0.0062866
	c0.0027466-0.0016479,0.0061646-0.0008545,0.0088501-0.0025024l1.5644531-0.9726563
	c0.1469727-0.0908203,0.2363281-0.2514648,0.2363281-0.4243164v-0.418457c0-0.0010376-0.0007935-0.00177-0.0007935-0.0028076
	c0-0.0010986,0.0007935-0.0019531,0.0007935-0.0030518c-0.0008545-0.0786133-0.0263672-0.1518555-0.0610352-0.2194824
	c-0.0042725-0.0083618-0.0027466-0.0188599-0.0074463-0.0269165c-0.043396-0.0742188-0.1057739-0.1374512-0.1829834-0.1818237
	l-2.4316406-1.3920898c-0.15625-0.0883789-0.3481445-0.0869141-0.503418,0.0039063l-1.5767822,0.93396
	c-0.0001221,0.000061-0.0002441,0.000061-0.0003662,0.0001221s-0.0001831,0.0002441-0.0003052,0.0003052l-0.0036011,0.0021362
	c-0.0348511,0.0206909-0.0540161,0.0563354-0.0822754,0.0840454c-0.0333252,0.0326538-0.0739136,0.0586548-0.0968018,0.098877
	c-0.020752,0.0363159-0.0212402,0.0803223-0.0323486,0.1210327c-0.0115356,0.0423584-0.0336914,0.0811768-0.0336914,0.1262207
	v0.4326172C4.9194336,12.5551758,5.0146484,12.7202148,5.1694336,12.8095703z M7.0048828,11.5859375l1.4412842,0.8251343
	l-0.3344116,0.2020874l-0.2507935,0.1514282l-1.4475098-0.8282471L7.0048828,11.5859375z"/>
<path class="st0" d="M15.4501953,10.0151367c0.0016479,0.0009155,0.0036011,0.0004883,0.005249,0.0014038
	c0.0010986,0.0006104,0.0014648,0.0018921,0.0025635,0.0025024c0.0665894,0.0366821,0.1394653,0.050415,0.2125854,0.0550537
	c0.0101929,0.0006104,0.0194092,0.0079346,0.0296021,0.0079346c0.0001831,0,0.0003052-0.0001221,0.0004883-0.0001221
	s0.0003052,0.0001221,0.0004883,0.0001221c0.0054932,0,0.010376-0.0043335,0.0158691-0.0045166
	c0.0800781-0.0028076,0.1602173-0.0209351,0.2321777-0.0623779c0.0023193-0.0013428,0.0031738-0.0040283,0.0054321-0.0053711
	c0.0031128-0.0018311,0.0070801-0.0009766,0.0101929-0.0029297l1.5644531-0.9726563
	c0.1474609-0.0913086,0.2363281-0.2519531,0.2363281-0.4248047V8.190918c0-0.0010376-0.0007935-0.00177-0.0007935-0.0028076
	c0-0.0010986,0.0007935-0.0019531,0.0007935-0.0030518c-0.0008545-0.0791016-0.0263672-0.1529541-0.0614624-0.2209473
	c-0.0040894-0.0079346-0.0026245-0.0179443-0.0071411-0.0256348c-0.043457-0.0742188-0.105957-0.1373291-0.1833496-0.1816406
	l-0.0010986-0.0006104c-0.0003662-0.0001831-0.0004883-0.0006714-0.0008545-0.0008545s-0.0007324-0.000061-0.0010986-0.0002441
	l-2.4285889-1.3903809c-0.1542969-0.0888672-0.3486328-0.0878906-0.5029297,0.0039063l-1.5767822,0.93396
	c-0.0001221,0.000061-0.0002441,0.000061-0.0003662,0.0001221S13.00177,7.3029785,13.0016479,7.3030396l-0.0036011,0.0021362
	c-0.0348511,0.0206909-0.0540161,0.0563354-0.0822754,0.0840454c-0.0333252,0.0326538-0.0739136,0.0586548-0.0968018,0.098877
	c-0.020752,0.0363159-0.0212402,0.0803223-0.0323486,0.1210327c-0.0115356,0.0423584-0.0336914,0.0811768-0.0336914,0.1262207
	v0.4326172c0,0.1787109,0.0952148,0.34375,0.25,0.4331055L15.4501953,10.0151367z M14.8378906,7.3774414l1.4414063,0.8251953
	l-0.5849609,0.3540039l-0.4136963-0.2366943l-1.0343018-0.592041L14.8378906,7.3774414z"/>
<path class="st0" d="M11.6166992,12.0566406c0.0016479,0.0009155,0.0036011,0.0004883,0.005249,0.0014038
	c0.0010986,0.0006104,0.0014648,0.0018921,0.0025635,0.0025024c0.0661621,0.0366821,0.1395874,0.050415,0.2125854,0.0550537
	c0.0101929,0.0006104,0.0193481,0.0079346,0.0296021,0.0079346c0.0001831,0,0.0003052-0.0001221,0.0004883-0.0001221
	s0.0003052,0.0001221,0.0004883,0.0001221c0.0053101,0,0.0100098-0.0042114,0.0153198-0.0043945
	c0.0803833-0.0027466,0.1611328-0.0209961,0.2332153-0.0625c0.0023804-0.0013428,0.0032959-0.0041504,0.0056152-0.0055542
	c0.0029297-0.001709,0.0065918-0.0009766,0.0095215-0.0027466l1.5649414-0.972168
	c0.1474609-0.0913086,0.2363281-0.2519531,0.2363281-0.4248047v-0.4189453c0-0.0010376-0.0007935-0.00177-0.0007935-0.0028076
	c0-0.0010986,0.0007935-0.0019531,0.0007935-0.0030518c-0.0008545-0.0791016-0.0263672-0.1529541-0.0614624-0.2209473
	c-0.0040894-0.0079346-0.0026245-0.0179443-0.0071411-0.0256348c-0.043457-0.0742188-0.105957-0.1373291-0.1833496-0.1816406
	l-0.0010986-0.0006104c-0.0003662-0.0001831-0.0004883-0.0006714-0.0008545-0.0008545s-0.0007324-0.0001221-0.0010986-0.0003052
	L11.2490234,8.40625c-0.1572266-0.0898438-0.3496094-0.0869141-0.503418,0.0039063l-1.5767822,0.93396
	c-0.0001221,0.000061-0.0002441,0.000061-0.0003662,0.0001221S9.1682739,9.3444824,9.1681519,9.3445435L9.1645508,9.3466797
	C9.1296997,9.3673706,9.1105347,9.4030151,9.0822754,9.4307251c-0.0333252,0.0326538-0.0739136,0.0586548-0.0968018,0.098877
	C8.9647217,9.565918,8.9642334,9.6099243,8.953125,9.6506348C8.9415894,9.6929932,8.9194336,9.7318115,8.9194336,9.7768555
	v0.4331055c0,0.1787109,0.0952148,0.34375,0.25,0.4331055L11.6166992,12.0566406z M11.0048828,9.4189453l1.4418335,0.8251953
	l-0.2320557,0.1402588l-0.3536987,0.2136841l-1.4476318-0.8286743L11.0048828,9.4189453z"/>
<path class="st0" d="M23.6958008,9.6813965c-0.0110474-0.0407104-0.0116577-0.0847168-0.0323486-0.1210327
	c-0.0228882-0.0402222-0.0634766-0.0662231-0.0968018-0.098877c-0.0282593-0.02771-0.0473022-0.0633545-0.0822754-0.0840454
	l-0.0036011-0.0021362C23.4806519,9.3752441,23.4805908,9.375061,23.4804688,9.375s-0.0003052-0.000061-0.0004272-0.0001221
	l-8.8452759-5.2381592c-0.15625-0.0917969-0.3486328-0.0927734-0.5029297-0.0039063L0.5219727,11.9233398
	c-0.0771484,0.0443115-0.1394653,0.1074219-0.1828613,0.1815796c-0.0057983,0.0098877-0.0041504,0.0228271-0.0092773,0.0331421
	c-0.0328979,0.0662231-0.0584717,0.1370239-0.0593262,0.213501c0,0.0010986,0.0007935,0.0019531,0.0007935,0.0030518
	c0,0.0010376-0.0007935,0.00177-0.0007935,0.0028076v2.3427734c0,0.1728516,0.0893555,0.3330078,0.2358398,0.4248047
	l8.7578125,5.4433594c0.0096436,0.0059204,0.0214844,0.0036621,0.0313721,0.0089111
	c0.0696411,0.0377808,0.145813,0.0639648,0.2286377,0.0651245c0.0014648,0,0.0026855,0.0011597,0.0041504,0.0011597
	c0.0003662,0,0.0007324-0.0003052,0.0011597-0.0003052c0.0006104,0,0.0011597,0.0003052,0.00177,0.0003052
	c0.0050049,0,0.0089111-0.0042114,0.013855-0.0043335c0.0778198-0.0026245,0.1559448-0.019043,0.2263794-0.0581665
	c0.0077515-0.0043335,0.0109863-0.0133667,0.0184326-0.0180664c0.0070801-0.0043945,0.0166626-0.0025635,0.0235596-0.0073242
	l2.0206909-1.1669922C11.8261108,19.3530273,11.8125,19.3193359,11.8125,19.28125V17.25c0-0.2763672,0.2236328-0.5,0.5-0.5
	s0.5,0.2236328,0.5,0.5v1.5736084l3.2722778-1.8898315C16.0762329,16.8971558,16.0625,16.8624878,16.0625,16.8232422v-2.03125
	c0-0.2763672,0.2236328-0.5,0.5-0.5s0.5,0.2236328,0.5,0.5v1.5771484l2.7272949-1.5751343
	c-0.0064697-0.0320435-0.0192871-0.0617676-0.0192871-0.0957642v-2.0317383c0-0.2763672,0.2236328-0.5,0.5-0.5
	s0.5,0.2236328,0.5,0.5v1.5610962l2.7089844-1.5645142c0.1542969-0.0893555,0.25-0.2543945,0.25-0.4331055V9.8076172
	C23.7294922,9.7625732,23.7073364,9.7237549,23.6958008,9.6813965z M20.3081055,10.9038696
	c-0.0062256-0.0039673-0.0096436-0.010498-0.0161133-0.0142212l-1.875-1.0830078
	C18.1787109,9.6708984,17.8720703,9.75,17.734375,9.9897461c-0.1386719,0.2392578-0.0566406,0.5449219,0.1826172,0.6831055
	l1.3910522,0.8034668l-2.553772,1.461853l-0.1679688,0.0961304L14.75,11.9731445
	c-0.2373047-0.137207-0.5449219-0.0566406-0.6826172,0.1831055c-0.1386719,0.2392578-0.0566406,0.5449219,0.1826172,0.6831055
	l1.3327026,0.7694092l-2.9841919,1.7081299c-0.0411987-0.0613403-0.0926514-0.116394-0.1610107-0.1557617l-1.875-1.0830078
	c-0.2392578-0.1396484-0.5449219-0.0566406-0.6831055,0.1826172S9.8232422,14.8056641,10.0625,14.9433594l1.5870361,0.916687
	l-2.1143799,1.2102661L4.770813,14.190979l-3.0144043-1.8218384l12.6195679-7.2236328l7.8601685,4.6546631L20.3081055,10.9038696z"
	/>
</svg>
