<?xml version="1.0" encoding="utf-8"?>
<!-- Generator: Adobe Illustrator 22.0.1, SVG Export Plug-In . SVG Version: 6.00 Build 0)  -->
<svg version="1.1" id="Layer_1" xmlns="http://www.w3.org/2000/svg" xmlns:xlink="http://www.w3.org/1999/xlink" x="0px" y="0px"
	 viewBox="0 0 24 24" style="enable-background:new 0 0 24 24;" xml:space="preserve">
<style type="text/css">
	.st0{fill:#4860A2;}
</style>
<path class="st0" d="M22.2128906,15.8876953l-2.4615479-2.4615479l0.5201416-2.0643311
	c0.0419922-0.1674805-0.0058594-0.3447266-0.125-0.4692383l-8.9926758-9.3232422
	c-0.0018921-0.0020142-0.0048828-0.0021973-0.0068359-0.0041504c-0.0018921-0.0018921-0.0020142-0.0047607-0.0039063-0.0065918
	c-0.0250854-0.0244141-0.0597534-0.0307007-0.088623-0.0490112c-0.0443115-0.0282593-0.0848999-0.0617676-0.1352539-0.0748291
	c-0.0340576-0.0087891-0.0696411,0.0006714-0.1050415-0.0008545c-0.048645-0.0020142-0.0964966-0.0140381-0.1452026-0.0012817
	c-0.0037231,0.0009766-0.0060425,0.0045166-0.0097656,0.0055542c-0.0039063,0.0010986-0.0078125-0.0008545-0.0117188,0.0003052
	L5.8405762,2.9118042c-0.5184937-0.1140747-1.2097168,0.093689-1.8487549,0.5666504L3.6044922,3.597168
	C3.4438477,3.6464844,3.3188477,3.7729492,3.2714844,3.934082L3.1618652,4.3063354
	c-0.242981,0.3261108-0.427124,0.6726685-0.5231934,1.0130005C2.5491333,5.6362915,2.5476074,5.9255371,2.6116333,6.1745605
	l-1.3792114,4.6828613c-0.0039673,0.0133667,0.0018921,0.0268555-0.0009155,0.0404053
	c-0.0125732,0.0603638-0.0139771,0.119873-0.0040283,0.180603c0.0036621,0.022583,0.0059204,0.0430908,0.0126343,0.0648804
	c0.0210571,0.0692139,0.0545044,0.1340332,0.1062012,0.1905518c0.0036621,0.0040283,0.0038452,0.0098877,0.0076904,0.0137939
	c0.0007935,0.0007935,0.0018921,0.0010376,0.0026855,0.0018311c0.0007324,0.0007324,0.0009766,0.0018311,0.001709,0.0025635
	l9.1611328,9.1606445c0.0932617,0.0927734,0.2182617,0.1376953,0.3447266,0.1376953
	c0.0668945,0,0.1347656-0.0126953,0.1982422-0.0371094l2.0341187-0.5447998l2.2246704,2.2254639
	c0.1787109,0.1787109,0.4648438,0.2851563,0.7314453,0.2851563c0.0810547,0,0.1611328-0.0097656,0.2353516-0.0302734
	l1.2832031-0.3544922c0.2080078-0.0576172,0.3544922-0.1933594,0.4013672-0.3720703
	c0.0478516-0.1787109-0.0126953-0.3691406-0.1650391-0.5224609l-1.9664307-1.9664307l2.1797485-0.5838623
	c0.0802612-0.0119019,0.1554565-0.0430908,0.2233887-0.0941772c0.0130615-0.0089722,0.0269165-0.0158691,0.0390015-0.0258789
	c0.0056152-0.005127,0.0130005-0.0068359,0.0184326-0.0122681c0.0112305-0.0112305,0.0153809-0.026062,0.0253296-0.0380859
	c0.0106201-0.0115967,0.0212402-0.0228882,0.0307007-0.0354004c0.0783081-0.0665283,0.1416626-0.1485596,0.1676025-0.251709
	l0.5259399-2.0873413l2.1674194,2.1674194c0.1181641,0.1191406,0.2597656,0.1816406,0.4013672,0.1816406
	c0.0400391,0,0.0800781-0.0048828,0.1201172-0.0146484c0.1796875-0.0478516,0.3154297-0.1933594,0.3730469-0.4023438
	l0.3544922-1.2832031C22.5566406,16.5351563,22.4462891,16.1191406,22.2128906,15.8876953z M3.28125,6.2148438
	c-0.1328125-0.1323242-0.1572266-0.40625-0.0649414-0.7324219c0.1118164-0.3969727,0.3842773-0.8325195,0.746582-1.1953125
	c0.7446289-0.7441406,1.65625-0.9868164,1.9448242-0.6987305C5.977478,3.6582642,6.0142212,3.7652588,6.0184937,3.8981934
	C6.0184326,3.8988037,6.0183716,3.899353,6.0183105,3.9000244C6.0210571,3.9915771,5.9880371,4.1077271,5.960144,4.2200928
	C5.9361572,4.3093872,5.9034424,4.4065552,5.8613281,4.5090942c-0.0461426,0.1078491-0.0969238,0.21698-0.1658936,0.3308716
	c-0.0307617,0.0526733-0.0707397,0.107666-0.1072998,0.1619263c-0.1144409,0.164917-0.2404175,0.331543-0.401123,0.4922485
	C5.0723267,5.6087646,4.9581909,5.706604,4.8458862,5.7919312C4.8374634,5.7984619,4.8289185,5.8039551,4.8204956,5.8103638
	C4.2895508,6.2051392,3.8112793,6.2973022,3.5371704,6.3140869C3.4324341,6.3015747,3.34021,6.2738037,3.2817383,6.215332
	c-0.0001221-0.0001221-0.0002441,0-0.0003662-0.0001221S3.2813721,6.2149658,3.28125,6.2148438z M3.3669434,7.1495361
	l1.0100098,1.0096436c0.190918,0.190918,0.4516602,0.2880859,0.7597656,0.2880859
	c0.1723633,0,0.3588867-0.0302734,0.5566406-0.0913086c0.4858398-0.1503906,0.9960938-0.4760742,1.4375-0.9179688
	c0.9052734-0.9047852,1.2426758-2.0131836,0.8291016-2.6230469C7.9453125,4.7856445,7.9262695,4.7583008,7.9018555,4.7338867
	L6.8240356,3.6564331l3.2423706-0.9938354l-1.6845703,6.03125l-5.9384766,1.5913086L3.3669434,7.1495361z M17.7714844,17.1914063
	l-8.315918-8.3491211l1.5922852-5.9423828l8.1855469,8.4868164L17.7714844,17.1914063z"/>
</svg>
