<?xml version="1.0" encoding="utf-8"?>
<!-- Generator: Adobe Illustrator 22.0.1, SVG Export Plug-In . SVG Version: 6.00 Build 0)  -->
<svg version="1.1" id="Layer_1" xmlns="http://www.w3.org/2000/svg" xmlns:xlink="http://www.w3.org/1999/xlink" x="0px" y="0px"
	 viewBox="0 0 24 24" style="enable-background:new 0 0 24 24;" xml:space="preserve">
<style type="text/css">
	.st0{fill:#4860A2;}
</style>
<path class="st0" d="M23.5166016,5.3911133c-0.1396484-0.2407227-0.4462891-0.3217773-0.6826172-0.1845703l-2.0696411,1.1888428
	c-0.5755615-0.6834106-1.3722534-1.1855469-2.2526245-1.3406982c-0.6230469-0.1113281-1.2275391-0.0410156-1.796875,0.2182617
	l-1.8447266,1.0410156L14.87854,6.3285522c-0.4205933,0.2664795-0.7591553,0.6469116-0.9798584,1.1184692l-1.8677979,1.0410767
	c-0.0001831,0.000061-0.0004272,0.0001221-0.0006104,0.0001831l0.000061,0.0001221l-4.6504517,2.5921021
	c-0.5108643-0.0407104-1.0099487,0.036499-1.487793,0.2549438l-2.1035156,1.2163086l0.0123901,0.0219116
	c-0.7896118,0.5009766-1.2687378,1.3659668-1.2687378,2.3735962c0,0.5793457,0.1670532,1.1452637,0.4383545,1.6615601
	l-2.1810303,1.2730103c-0.2387695,0.1386719-0.3188477,0.4453125-0.1796875,0.6835938
	c0.0927734,0.1591797,0.2602539,0.2480469,0.4321289,0.2480469c0.0854492,0,0.1723633-0.0214844,0.2514648-0.0683594
	l2.2446899-1.3101807c0.5687256,0.6367188,1.3291016,1.105896,2.1698608,1.2545166
	c0.190918,0.0341797,0.3798828,0.0507813,0.5664063,0.0507813c0.4622192,0,0.9030151-0.1064453,1.2962646-0.3045044
	l0.0015869,0.0027466l0.1101074-0.0658569c0.0596924-0.0337524,0.1219482-0.0628052,0.1789551-0.1011353
	c0.0078735-0.0053101,0.0132446-0.0131226,0.0210571-0.0184937l1.2640991-0.7559204
	c0.689209-0.3972778,1.1567993-0.8522339,1.430603-1.385376l6.3969116-3.6463013
	c0.1325073,0.0162964,0.265686,0.0355835,0.3951416,0.0355835c0.4619141,0,0.8959961-0.1094971,1.2860718-0.3074341
	l0.0029907,0.005188l0.0502319-0.02948c0.0485229-0.026001,0.0952759-0.0545654,0.1422119-0.0835571l1.1708374-0.6877441
	c1.0273438-0.4267578,1.6650391-1.4233398,1.6650391-2.6010742c0-0.5404663-0.147644-1.0681152-0.3857422-1.5563354
	l2.03125-1.1668091C23.5712891,5.9360352,23.6542969,5.6303711,23.5166016,5.3911133z M8.7178345,11.4786377l0.9404297-0.5248413
	c0.15625-0.0596924,0.5654297-0.2087402,0.8881226-0.1554565c1.015625,0.1791992,1.8735352,1.1855469,1.8735352,2.1972656
	c0,0.4661865-0.2806396,0.9838867-0.5581055,1.2324829l-0.9975586,0.5685425
	C10.8392334,13.4238892,9.9475098,12.1185913,8.7178345,11.4786377z M11.3562622,10.0060425l1.0612183-0.5922852
	c0.3076172-0.114624,0.5929565-0.1531372,0.8413086-0.1090698c1.015625,0.1791992,1.8730469,1.1855469,1.8730469,2.1972656
	c0,0.4770508-0.3056641,0.9555664-0.5898438,1.1977539l0.0004272,0.0004883l-1.1681519,0.6658325
	c0.0203857-0.1244507,0.0456543-0.2498169,0.0456543-0.3704224C13.4199219,11.6995239,12.5516968,10.4973145,11.3562622,10.0060425z
	 M14.0491943,8.5030518L15.2304688,7.84375c0.3183594-0.1220703,0.6113281-0.1621094,0.8691406-0.1162109
	c1.015625,0.1791992,1.8730469,1.1855469,1.8730469,2.1972656c0,0.4814453-0.2578125,0.9604492-0.4892578,1.0991211
	l-1.3960571,0.7957153c0.015686-0.105896,0.0444946-0.2073364,0.0444946-0.317688
	C16.1318359,10.1990356,15.2549438,8.9890137,14.0491943,8.5030518z M5.8818359,17.7050781
	c-0.5560913-0.0985107-1.0608521-0.3894043-1.4637451-0.7837524l1.6219482-0.9467163
	c0.2387695-0.1386719,0.3188477-0.4453125,0.1796875-0.6835938c-0.1381836-0.2382813-0.4448242-0.3203125-0.6835938-0.1796875
	l-1.7102051,0.99823c-0.1812744-0.3640137-0.2937012-0.7583618-0.2937012-1.1622925
	c0-0.7109375,0.324707-1.2949219,0.8911133-1.6025391c0.2641602-0.1435547,0.565918-0.2158203,0.8876953-0.2158203
	c0.1293945,0,0.262207,0.0117188,0.3969727,0.0351563c1.2954102,0.2285156,2.3496094,1.4658203,2.3496094,2.7578125
	c0,0.6328125-0.2683716,1.1760864-0.7334595,1.5006104l-0.1068726,0.0639648
	C6.8390503,17.7096558,6.3700562,17.7915039,5.8818359,17.7050781z"/>
</svg>
