<?xml version="1.0" encoding="utf-8"?>
<!-- Generator: Adobe Illustrator 22.0.1, SVG Export Plug-In . SVG Version: 6.00 Build 0)  -->
<svg version="1.1" id="Layer_1" xmlns="http://www.w3.org/2000/svg" xmlns:xlink="http://www.w3.org/1999/xlink" x="0px" y="0px"
	 viewBox="0 0 24 24" style="enable-background:new 0 0 24 24;" xml:space="preserve">
<style type="text/css">
	.st0{fill:#4860A2;}
</style>
<g>
	<ellipse class="st0" cx="9.8206787" cy="9.3478088" rx="0.6881313" ry="0.3972647"/>
	<path class="st0" d="M12.0426025,10.6237793c0.2687378-0.1550903,0.2687378-0.4066772,0-0.5617676
		c-0.2686768-0.1551514-0.7044067-0.1551514-0.9730835,0c-0.2687378,0.1550903-0.2687378,0.4066772,0,0.5617676
		C11.3382568,10.7789307,11.7739258,10.7789307,12.0426025,10.6237793z"/>
	<ellipse class="st0" cx="11.1798706" cy="7.6245422" rx="0.6880974" ry="0.3972842"/>
	<path class="st0" d="M12.4287109,8.9005737c0.2686768,0.1551514,0.7043457,0.1551514,0.9730835,0s0.2687378-0.4066772,0-0.5618286
		s-0.7044067-0.1551514-0.9730835,0C12.1599731,8.4938965,12.1599731,8.7454224,12.4287109,8.9005737z"/>
	<path class="st0" d="M15.137146,9.3338623c-0.2686768-0.1551514-0.7043457-0.1551514-0.9730835,0s-0.2687378,0.4066772,0,0.5618286
		s0.7044067,0.1551514,0.9730835,0C15.4058838,9.7405396,15.4058838,9.4890137,15.137146,9.3338623z"/>
	<path class="st0" d="M13.8861084,6.9934692c0.2686768,0.1551514,0.7043457,0.1551514,0.9730835,0
		c0.2687378-0.1550903,0.2687378-0.4066772,0-0.5618286c-0.2687378-0.1550903-0.7044067-0.1550903-0.9730835,0
		C13.6173706,6.586792,13.6173706,6.8383179,13.8861084,6.9934692z"/>
	<path class="st0" d="M15.62146,7.4267578c-0.2687378,0.1551514-0.2687378,0.4066772,0,0.5618286s0.7044067,0.1551514,0.9730835,0
		c0.2687378-0.1551514,0.2687378-0.4066772,0-0.5618286C16.3258667,7.2716675,15.8901978,7.2716064,15.62146,7.4267578z"/>
	<ellipse class="st0" cx="15.7318115" cy="4.9893494" rx="0.6880974" ry="0.3972842"/>
	<ellipse class="st0" cx="17.4671936" cy="5.9844666" rx="0.6880651" ry="0.397278"/>
	<path class="st0" d="M18.7160034,7.260498c0.2687378,0.1550903,0.7044067,0.1550903,0.9731445,0
		c0.2686768-0.1551514,0.2686768-0.4066772,0-0.5618286c-0.2687378-0.1551514-0.7044067-0.1551514-0.9731445,0
		C18.4473267,6.8538208,18.4473267,7.1053467,18.7160034,7.260498z"/>
	<path class="st0" d="M23.3929443,6.3664551c-0.0096436-0.019104-0.0228271-0.0338745-0.0348511-0.0516357
		c-0.0332642-0.0491333-0.072937-0.090271-0.1210938-0.1248169c-0.0115356-0.0083008-0.0167236-0.0224609-0.0289917-0.0298462
		l-5.8583984-3.5019531c-0.328125-0.1962891-0.7392578-0.2011719-1.0683594-0.0146484L4.6987305,9.1323242
		C4.6865234,9.1390991,4.6812134,9.152771,4.6697388,9.1604614c-0.0501099,0.0336914-0.092041,0.0742188-0.1270752,0.1233521
		C4.529541,9.3021851,4.5166626,9.3181152,4.5061035,9.3380737c-0.0325928,0.0614624-0.0531616,0.12854-0.0574951,0.2019043
		C4.4481812,9.5471191,4.4429932,9.5528564,4.4428711,9.5600586c0,0.0013428,0.0009155,0.0023804,0.0009155,0.0037231
		c0,0.0016479-0.0009155,0.0029297-0.0009155,0.0045776v3.6350708l-3.6523438,2.1334839
		c-0.2387695,0.1396484-0.3188477,0.4453125-0.1796875,0.6835938c0.0927734,0.1591797,0.2602539,0.2480469,0.4321289,0.2480469
		c0.0854492,0,0.1723633-0.0214844,0.2514648-0.0683594l3.1628418-1.8475952
		c0.0291138,0.3955688,0.2035522,0.7544556,0.4924927,1.019165l-2.2315063,1.3030396
		c-0.2387695,0.1386719-0.3188477,0.4453125-0.1796875,0.6835938c0.0927734,0.1591797,0.2602539,0.2480469,0.4321289,0.2480469
		c0.0854492,0,0.1723633-0.0214844,0.2514648-0.0683594l2.6521606-1.5487061l1.0518799,0.6537476l-2.3002319,1.3432007
		C4.387207,18.125,4.3071289,18.4316406,4.4462891,18.6699219c0.0927734,0.1591797,0.2602539,0.2480469,0.4321289,0.2480469
		c0.0854492,0,0.1723633-0.0214844,0.2514648-0.0683594l2.7565918-1.6096802l2.2678223,1.4094849
		c0.3100586,0.1923828,0.6606445,0.2890625,1.0117188,0.2890625c0.3286133,0,0.6572266-0.0849609,0.9526367-0.2548828
		l10.6040039-6.0771484c0.4492188-0.2583008,0.7285156-0.7397461,0.7285156-1.2573242V6.5893555
		C23.4511719,6.5079956,23.4273071,6.4343262,23.3929443,6.3664551z M13.3306885,14.6131592
		c0-0.3000488,0.2106323-0.664856,0.470459-0.8148804s0.470459-0.0284424,0.470459,0.2716064
		s-0.2106323,0.664856-0.470459,0.8148804S13.3306885,14.913147,13.3306885,14.6131592z M16.0061646,12.5638428
		c-0.2598267,0.1500244-0.470459,0.0283813-0.470459-0.2716064c0-0.3000488,0.2106323-0.664856,0.470459-0.8148804
		s0.470459-0.0284424,0.470459,0.2716064S16.2659912,12.4138184,16.0061646,12.5638428z M16.5109253,13.9953003
		c0,0.2999878-0.2106323,0.664856-0.470459,0.8148804c-0.2598267,0.1499634-0.470459,0.0283813-0.470459-0.2716675
		c0-0.2999878,0.2106323-0.664856,0.470459-0.8148193C16.300293,13.5736694,16.5109253,13.6952515,16.5109253,13.9953003z
		 M17.8244629,11.9008789c0-0.3000488,0.2106323-0.664856,0.470459-0.8148804s0.470459-0.0283813,0.470459,0.2716675
		c0,0.2999878-0.2106323,0.6647949-0.470459,0.8148193S17.8244629,12.2009277,17.8244629,11.9008789z M20.499939,9.8515625
		c-0.2598267,0.1500244-0.470459,0.0284424-0.470459-0.2716064c0-0.2999878,0.2106323-0.664856,0.470459-0.8148804
		c0.2598267-0.1499634,0.470459-0.0283813,0.470459,0.2716675C20.9703979,9.336731,20.7597656,9.7015991,20.499939,9.8515625z
		 M21.0046997,11.28302c0,0.3000488-0.2106323,0.664856-0.470459,0.8148804s-0.470459,0.0284424-0.470459-0.2716064
		s0.2106323-0.664856,0.470459-0.8148804S21.0046997,10.9830322,21.0046997,11.28302z M7.628418,8.6449585
		C7.8985596,8.7852173,8.3118896,8.7836304,8.5718384,8.633606c0.2538452-0.1465454,0.2592163-0.376709,0.0334473-0.5327759
		l3.6813354-2.050354c0.2646484,0.0925903,0.6085815,0.079895,0.8372192-0.052124
		c0.2227173-0.12854,0.249939-0.3206177,0.1034546-0.4718018l3.6086426-2.0099487l5.1230469,3.0620117l-3.4766846,1.9780884
		c-0.0335693-0.0490723-0.0836182-0.0951538-0.1523438-0.1348267c-0.2687378-0.1551514-0.7044067-0.1551514-0.9731445,0
		c-0.2686768,0.1551514-0.2686768,0.4066772,0.000061,0.5618286c0.0661011,0.038147,0.1426392,0.0664673,0.223999,0.0858765
		l-3.6803589,2.0939941c-0.0324097-0.0377808-0.0680542-0.0750732-0.1224976-0.1065063
		c-0.2687378-0.1550903-0.7044067-0.1550903-0.9731445,0c-0.2686768,0.1551514-0.2686768,0.4066772,0,0.5618286
		c0.052063,0.0300903,0.1143188,0.0492554,0.1765137,0.067688l-1.8373413,1.0453491L5.9389648,9.5859375L7.628418,8.6449585z
		 M6.1132813,12.8061523c-0.1386719-0.2373047-0.4438477-0.3183594-0.6835938-0.1791992l-0.2505493,0.1463623
		c-0.0166016-0.0792847-0.0373535-0.1594238-0.0373535-0.2351685c0-0.4549561,0.319397-0.6394043,0.7133789-0.4118652
		c0.394043,0.227478,0.7134399,0.7807007,0.7134399,1.2356567c0,0.454895-0.319397,0.6393433-0.7134399,0.4118652
		c-0.0604858-0.0349121-0.1143799-0.0894775-0.1704712-0.1381836l0.2489014-0.1453857
		C6.1723633,13.3505859,6.2524414,13.0449219,6.1132813,12.8061523z M8.0410156,14.1455078
		c-0.1386719-0.2373047-0.4438477-0.3203125-0.6835938-0.1796875l-0.2508545,0.1464844
		c-0.0166626-0.0794067-0.0374146-0.159668-0.0374146-0.2355347c0-0.4549561,0.319458-0.6393433,0.7134399-0.4118652
		s0.7133789,0.7807007,0.7133789,1.2356567s-0.319397,0.6393433-0.7133789,0.4118652
		c-0.0603638-0.0348511-0.1142578-0.0892944-0.1702271-0.1379395l0.2489624-0.1453857
		C8.1000977,14.6904297,8.1801758,14.3837891,8.0410156,14.1455078z M9.6902466,16.4239502
		c-0.0603638-0.0348511-0.1141968-0.0892944-0.170166-0.1379395L9.769043,16.140625
		c0.2387695-0.1386719,0.3188477-0.4453125,0.1796875-0.6835938c-0.1391602-0.2373047-0.4448242-0.3193359-0.6835938-0.1796875
		l-0.2508545,0.1464844c-0.0166626-0.0794067-0.0374146-0.159668-0.0374146-0.2355347
		c0-0.4549561,0.319397-0.6393433,0.7133789-0.4118652c0.394043,0.227478,0.7134399,0.7807007,0.7134399,1.2356567
		S10.0842896,16.6514282,9.6902466,16.4239502z"/>
</g>
</svg>
