<?xml version="1.0" encoding="utf-8"?>
<!-- Generator: Adobe Illustrator 22.0.1, SVG Export Plug-In . SVG Version: 6.00 Build 0)  -->
<svg version="1.1" id="Layer_1" xmlns="http://www.w3.org/2000/svg" xmlns:xlink="http://www.w3.org/1999/xlink" x="0px" y="0px"
	 viewBox="0 0 24 24" style="enable-background:new 0 0 24 24;" xml:space="preserve">
<style type="text/css">
	.st0{fill:#4860A2;}
</style>
<path class="st0" d="M23.6958008,8.5480957c-0.0110474-0.0407104-0.0116577-0.0847168-0.0323486-0.1210327
	c-0.0228882-0.0402222-0.0634766-0.0662231-0.0968018-0.098877c-0.0282593-0.02771-0.0473022-0.0633545-0.0822754-0.0840454
	l-0.0036011-0.0021362c-0.0001221-0.000061-0.0001831-0.0002441-0.0003052-0.0003052s-0.0002441-0.000061-0.0003662-0.0001221
	l-8.8453369-5.2386475c-0.15625-0.0917969-0.3486328-0.0927734-0.5029297-0.0039063L0.5219727,10.7900391
	c-0.0771484,0.0443115-0.1394653,0.1074219-0.1828613,0.1815796c-0.0057983,0.0098877-0.0041504,0.0228271-0.0092773,0.0331421
	c-0.0328979,0.0662231-0.0584717,0.1370239-0.0593262,0.213501c0,0.0010986,0.0007935,0.0019531,0.0007935,0.0030518
	c0,0.0010376-0.0007935,0.00177-0.0007935,0.0028076v2.3432617c0,0.1728516,0.0893555,0.3330078,0.2363281,0.4248047
	l0.8119507,0.5045776V16.25c0,0.2199707,0.1558838,0.3099976,0.3464355,0.1999512l0.3987427-0.2301636
	c0.1904907-0.1100464,0.3463745-0.3800049,0.3463745-0.6000366v-0.4446411l6.8543091,4.2594604
	c0.0092773,0.0057373,0.020813,0.0036011,0.0303955,0.008667c0.0697632,0.0379028,0.1461182,0.064209,0.229126,0.0653687
	c0.0014648,0,0.0026855,0.0011597,0.0041504,0.0011597c0.0003662,0,0.0007324-0.0003052,0.0011597-0.0003052
	c0.0006104,0,0.0011597,0.0003052,0.00177,0.0003052c0.0050049,0,0.0089722-0.0042114,0.0139771-0.0043335
	c0.0777588-0.0026245,0.1558228-0.019104,0.2262573-0.0581665c0.0076904-0.0043335,0.0108643-0.0131836,0.0182495-0.0178833
	c0.0073242-0.0044556,0.0170898-0.0026245,0.024231-0.0075073l1.2131958-0.7006226v1.4453735
	c0,0.2200317,0.1558838,0.3099976,0.3463745,0.2000122l0.3987427-0.2302246
	c0.1905518-0.1099854,0.3464355-0.3800049,0.3464355-0.5999756v-1.4456177l1.534729-0.8862915v1.4490967
	c0,0.2199707,0.1558838,0.3099976,0.3464355,0.2000122l0.3986816-0.2302246
	c0.1905518-0.1099854,0.3464355-0.3800049,0.3464355-0.5999756v-1.4493408l1.534729-0.8862915v1.4528198
	c0,0.2199707,0.1558838,0.3099976,0.3464355,0.1999512l0.3987427-0.2301636
	c0.1904907-0.1100464,0.3463745-0.3800049,0.3463745-0.6000366V15.057373l1.53479-0.8863525v1.456543
	c0,0.2200317,0.1558838,0.3099976,0.3463745,0.2000122l0.3987427-0.2302246
	c0.1905518-0.1099854,0.3464355-0.3800049,0.3464355-0.5999756v-1.4567261l1.534729-0.8863525v1.4602661
	c0,0.2199707,0.1558838,0.3099976,0.3464355,0.2000122l0.3986816-0.2302246
	c0.1905518-0.1099854,0.3464355-0.3800049,0.3464355-0.5999756v-1.4604492l0.8555908-0.4941406
	c0.1542969-0.0893555,0.25-0.2543945,0.25-0.4331055V8.6743164C23.7294922,8.6292725,23.7073364,8.5904541,23.6958008,8.5480957z
	 M11.1665039,10.3862305c-0.2236328-0.2646484-0.6396484-0.7573242-0.5961914-0.9287109
	c0.3945313-0.2270508,1.4790039,0.0776367,2.3496094,0.3227539c1.1748047,0.3310547,2.2841797,0.6435547,2.9726563,0.2451172
	C16.1640625,9.8686523,16.3261719,9.6645508,16.375,9.4189453c0.0830078-0.4238281-0.1982422-0.7900391-0.4472656-1.1132813
	c-0.1035156-0.1333008-0.2939453-0.3818359-0.2988281-0.4545898c0,0,0.0175781-0.0297852,0.0927734-0.0727539l2.5058594-1.3950195
	c0.0249634-0.013916,0.041748-0.0354004,0.0625-0.0534668l3.946106,2.3370361l-5.1957397,2.9744263L9.5351563,15.9375
	l-2.4771729-1.4972534c0.2249146-0.2428589,0.3551025-0.531189,0.3551025-0.8347778
	c0-0.3100586-0.1270142-0.5947266-0.3453979-0.8307495l0.5807495-0.3352661
	c0.4013672-0.2314453,1.0083008-0.0761719,1.6494141,0.0878906c0.7695313,0.1972656,1.5654297,0.4013672,2.2519531,0.0053711
	c0.2958984-0.1708984,0.3920898-0.4033203,0.4208984-0.5678711C12.0615234,11.4462891,11.6264648,10.9311523,11.1665039,10.3862305z
	 M14.3759766,4.0117188l3.1273193,1.8521729l-2.1790771,1.2132568c-0.2714844,0.1567383-0.4335938,0.3608398-0.4824219,0.6069336
	c-0.0839844,0.4233398,0.1982422,0.7900391,0.4472656,1.1132813c0.1025391,0.1333008,0.2939453,0.3818359,0.2988281,0.4541016
	c-0.0009766,0.0004883-0.0185547,0.0297852-0.0976563,0.0756836c-0.3974609,0.2294922-1.4804688-0.0766602-2.3515625-0.3227539
	c-1.1728516-0.3300781-2.2807617-0.6420898-2.9716797-0.2451172C9.8710938,8.9301758,9.7749023,9.1625977,9.7460938,9.3271484
	c-0.0908203,0.5185547,0.3442383,1.0336914,0.8041992,1.5786133c0.2236328,0.2646484,0.6396484,0.7573242,0.5961914,0.9287109
	c-0.4013672,0.2319336-1.0068359,0.0766602-1.6489258-0.0878906c-0.7695313-0.1972656-1.5668945-0.4003906-2.2524414-0.0053711
	l-0.7392578,0.4267578c-0.0622559,0.0360107-0.1057129,0.0888062-0.1398315,0.1467896
	c-0.3043213-0.1231689-0.6535645-0.1985474-1.0349731-0.1985474c-0.5415039,0-1.0517578,0.1420898-1.4365234,0.4003906
	c-0.0029297,0.0019531-0.0043335,0.005249-0.0072021,0.0072632l-1.6035156-0.9692383l-0.5274658-0.3187866L14.3759766,4.0117188z"/>
</svg>
