<?xml version="1.0" encoding="utf-8"?>
<!-- Generator: Adobe Illustrator 22.0.1, SVG Export Plug-In . SVG Version: 6.00 Build 0)  -->
<svg version="1.1" id="Layer_1" xmlns="http://www.w3.org/2000/svg" xmlns:xlink="http://www.w3.org/1999/xlink" x="0px" y="0px"
	 viewBox="0 0 24 24" style="enable-background:new 0 0 24 24;" xml:space="preserve">
<style type="text/css">
	.st0{fill:#4860A2;}
</style>
<g>
	<path class="st0" d="M23.6958008,8.9230957c-0.0110474-0.0407104-0.0116577-0.0847168-0.0323486-0.1210327
		c-0.0228882-0.0402222-0.0634766-0.0662231-0.0968018-0.098877c-0.0282593-0.02771-0.0473022-0.0633545-0.0822754-0.0840454
		l-0.0036011-0.0021362c-0.0001221-0.000061-0.0001831-0.0002441-0.0003052-0.0003052s-0.0002441-0.000061-0.0003662-0.0001221
		l-8.8453369-5.2386475c-0.15625-0.0908203-0.3486328-0.0927734-0.5029297-0.0039063L0.5219727,11.1650391
		c-0.0771484,0.0443115-0.1394653,0.1074219-0.1828613,0.1815796c-0.0057983,0.0098877-0.0041504,0.0228271-0.0092773,0.0331421
		c-0.0328979,0.0662231-0.0584717,0.1370239-0.0593262,0.213501c0,0.0010986,0.0007935,0.0019531,0.0007935,0.0030518
		c0,0.0010376-0.0007935,0.00177-0.0007935,0.0028076v2.3432617c0,0.1728516,0.0893555,0.3330078,0.2363281,0.4248047
		l0.8119507,0.5045776V16.625c0,0.2199707,0.1558838,0.3099976,0.3464355,0.1999512l0.3987427-0.2301636
		c0.1904907-0.1100464,0.3463745-0.3800049,0.3463745-0.6000366v-0.4446411l6.8543091,4.2594604
		c0.0092773,0.0057373,0.020813,0.0036011,0.0303955,0.008667c0.0697632,0.0379028,0.1461182,0.064209,0.229126,0.0653687
		c0.0014648,0,0.0026855,0.0011597,0.0041504,0.0011597c0.0003662,0,0.0007324-0.0003052,0.0011597-0.0003052
		c0.0006104,0,0.0011597,0.0003052,0.00177,0.0003052c0.0050049,0,0.0089722-0.0042114,0.0139771-0.0043335
		c0.0777588-0.0026245,0.1558228-0.019104,0.2262573-0.0581665c0.0076904-0.0043335,0.0108643-0.0131836,0.0182495-0.0178833
		c0.0073242-0.0044556,0.0170898-0.0026245,0.024231-0.0075073l1.2131958-0.7006226v1.4453735
		c0,0.2200317,0.1558838,0.3099976,0.3463745,0.2000122l0.3987427-0.2302246
		c0.1905518-0.1099854,0.3464355-0.3800049,0.3464355-0.5999756v-1.4456177l1.534729-0.8862915v1.4490967
		c0,0.2199707,0.1558838,0.3099976,0.3464355,0.2000122l0.3986816-0.2302246
		c0.1905518-0.1099854,0.3464355-0.3800049,0.3464355-0.5999756v-1.4493408l1.534729-0.8862915v1.4528198
		c0,0.2199707,0.1558838,0.3099976,0.3464355,0.1999512l0.3987427-0.2301636
		c0.1904907-0.1100464,0.3463745-0.3800049,0.3463745-0.6000366V15.432373l1.53479-0.8863525v1.456543
		c0,0.2200317,0.1558838,0.3099976,0.3463745,0.2000122l0.3987427-0.2302246
		c0.1905518-0.1099854,0.3464355-0.3800049,0.3464355-0.5999756v-1.4567261l1.534729-0.8863525v1.4602661
		c0,0.2199707,0.1558838,0.3099976,0.3464355,0.2000122l0.3986816-0.2302246
		c0.1905518-0.1099854,0.3464355-0.3800049,0.3464355-0.5999756v-1.4604492l0.8555908-0.4941406
		c0.1542969-0.0893555,0.25-0.2543945,0.25-0.4331055V9.0493164C23.7294922,9.0042725,23.7073364,8.9654541,23.6958008,8.9230957z
		 M14.3759766,4.3867188l7.8601685,4.6551514l-5.1957397,2.9744263L9.5351563,16.3125l-7.2513428-4.3828735l-0.5274658-0.3187866
		L14.3759766,4.3867188z"/>
	<path class="st0" d="M4.4394531,11.3491211c0,0.0014038,0.0009766,0.0024414,0.0009766,0.0038452
		s-0.0009766,0.0025635-0.0009766,0.0039673c0.0003662,0.0215454,0.0126343,0.0393066,0.0174561,0.0598145
		c0.006958,0.0297241,0.0098877,0.0603027,0.0252075,0.0863647c0.0117188,0.0199585,0.0319824,0.0323486,0.0480957,0.0491943
		c0.0186768,0.0195313,0.0323486,0.043335,0.0562134,0.0575562l5.2607422,3.1147461
		C9.894043,14.7529297,9.9472656,14.7666016,10,14.7666016c0.0512695,0,0.1030273-0.0126953,0.1489258-0.0390625
		l9.3676758-5.3623047c0.0249634-0.0143433,0.0397339-0.0387573,0.0591431-0.05896
		c0.0166626-0.0172119,0.0385742-0.0297241,0.0505371-0.050293c0.0094604-0.0163574,0.008667-0.0367432,0.0149536-0.0546265
		c0.0108643-0.0309448,0.0257568-0.0606689,0.0257568-0.0944214c0-0.0002441-0.0001831-0.0004883-0.0001831-0.0007324
		s0.0001831-0.0004883,0.0001831-0.0007324c0-0.0338745-0.0145874-0.0639038-0.0252686-0.0950317
		c-0.0062256-0.0180054-0.005188-0.0383911-0.0145874-0.0548096c-0.0257568-0.0450439-0.0631104-0.0834961-0.1095581-0.1104126
		l-5.3232422-3.0800781c-0.0469971-0.0269165-0.0986328-0.0401001-0.1502686-0.0400391
		c-0.0130615,0-0.0246582,0.0081177-0.0376587,0.0098267c-0.06427-0.0084839-0.1292725-0.003418-0.1880493,0.0302124
		l-9.2290039,5.3266602c-0.0097046,0.0056152-0.013855,0.0164185-0.0227051,0.0229492
		c-0.0340576,0.0249023-0.0664673,0.0519409-0.0870361,0.0878296c-0.0089722,0.015625-0.0081787,0.034729-0.0142212,0.0517578
		C4.4544067,11.2854004,4.4396362,11.3152466,4.4394531,11.3491211z M10.0024414,14.1201172l-3.3273315-1.9707031
		l2.7999268-1.6117554v1.3908081c0,0.2200317,0.1558838,0.3099976,0.3464355,0.2000122l0.3987427-0.2302246
		c0.1904907-0.1099854,0.3463745-0.3799438,0.3463745-0.5999756V9.9093018l1.6271973-0.9367065v1.3903809
		c0,0.2200317,0.1558838,0.3099976,0.3464355,0.2000122l0.3987427-0.2302246
		c0.1904907-0.1099854,0.3463745-0.3800049,0.3463745-0.5999756V8.3442383l0.6789551-0.3908691l3.3432617,1.9848633
		L10.0024414,14.1201172z"/>
</g>
</svg>
