<?xml version="1.0" encoding="utf-8"?>
<!-- Generator: Adobe Illustrator 22.0.1, SVG Export Plug-In . SVG Version: 6.00 Build 0)  -->
<svg version="1.1" id="Layer_1" xmlns="http://www.w3.org/2000/svg" xmlns:xlink="http://www.w3.org/1999/xlink" x="0px" y="0px"
	 viewBox="0 0 24 24" style="enable-background:new 0 0 24 24;" xml:space="preserve">
<style type="text/css">
	.st0{fill:#FFFFFF;}
	.st1{fill:#4860A2;}
</style>
<path class="st0" d="M16.9699631,3.0244699"/>
<g>
	<path class="st1" d="M19.8111572,4.0321045c-0.0071411-0.0136108-0.0165405-0.0241089-0.0249023-0.0369873
		c-0.036499-0.0556641-0.0818481-0.1015625-0.1369629-0.1387329c-0.0096436-0.0065918-0.013855-0.0183716-0.0240479-0.024353
		l-4.3935547-2.5732422c-0.1552734-0.0893555-0.3476563-0.0908203-0.5029297-0.0014648L4.3747559,7.2353516
		c-0.0124512,0.0072021-0.0178223,0.0213013-0.02948,0.02948C4.2960815,7.2990112,4.2553101,7.3397827,4.2211304,7.3889771
		C4.2086792,7.4069214,4.1957397,7.4221191,4.18573,7.4415283C4.1507568,7.508728,4.1268921,7.5818481,4.1259155,7.6627197
		c0,0.0015259-0.0011597,0.0027466-0.0011597,0.0042725c0,0.0002441,0.0001831,0.0003662,0.0001831,0.0006104
		c0,0.0003052-0.0001831,0.0005493-0.0001831,0.0008545v12.0952148c0,0.1914063,0.109375,0.3583984,0.2680664,0.4423828
		l4.3198242,2.5224609c0.0057373,0.003418,0.0127563,0.0019531,0.0186157,0.0050659
		c0.0698242,0.0370483,0.145813,0.0632935,0.2304077,0.0632935c0.0006104,0,0.0010986-0.0003662,0.001709-0.0003662
		c0.0004272,0,0.0007935,0.0003662,0.0012207,0.0003662c0.0032349,0,0.0061646-0.0024414,0.0093994-0.0025024
		c0.076355-0.0019531,0.1462402-0.0230713,0.2103271-0.055542c0.0088501-0.0043945,0.0192261-0.0024414,0.027832-0.0073853
		l10.4111328-5.9384766c0.1552734-0.0888672,0.2519531-0.2548828,0.2519531-0.4345703V4.2636719
		C19.8752441,4.1785889,19.8485718,4.1022339,19.8111572,4.0321045z M5.9403481,10.9570313
		c0.1411133-0.0717773,0.4130859,0.0678711,0.5683594,0.3647461c0.0795898,0.1523438,0.1142578,0.3208008,0.0942383,0.4609375
		C6.594645,11.84375,6.5677896,11.9526367,6.4833169,11.996582c-0.0585938,0.0297852-0.1264648,0.0185547-0.1733398,0.0043945
		c-0.1479492-0.0463867-0.2988281-0.1875-0.394043-0.3691406c-0.0795898-0.1523438-0.1142578-0.3203125-0.0947266-0.4609375
		C5.8299966,11.1098633,5.8563638,11.0009766,5.9403481,10.9570313z M6.6341958,14.0685225
		c-0.0083008,0.0610352-0.0351563,0.1699219-0.1196289,0.2138672c-0.0585938,0.0297852-0.1264648,0.0185547-0.1733398,0.0043945
		c-0.1479492-0.0463867-0.2988281-0.1875-0.394043-0.3691406c-0.0795898-0.1523438-0.1142578-0.3203125-0.0947266-0.4609375
		c0.0087891-0.0610352,0.0351563-0.1699219,0.1191406-0.2138672c0.1411133-0.0717773,0.4130859,0.0678711,0.5683594,0.3647461
		C6.6195474,13.7599287,6.6542153,13.9283857,6.6341958,14.0685225z M17.8514347,15.2034025
		c-1.4766788,2.8215685-4.310483,4.252265-6.3294497,3.1956587c-2.0189667-1.0566807-2.4585733-4.2005816-0.9818182-7.0221491
		c1.4766788-2.8215675,4.310483-4.252264,6.3294506-3.1955824S19.3281898,12.3819113,17.8514347,15.2034025z M14.9768066,2.269043
		l3.3964844,1.9887695L8.9645996,9.6245117L5.6203613,7.6708984L14.9768066,2.269043z M6.0132651,15.3494463
		c0.1411133-0.0717773,0.4130859,0.0678711,0.5683594,0.3647461c0.0795898,0.1523438,0.1142578,0.3208017,0.0942383,0.4609385
		C6.667562,16.236166,6.6407065,16.3450527,6.5562339,16.388998c-0.0585938,0.0297852-0.1264648,0.0185547-0.1733398,0.0043945
		c-0.1479492-0.0463867-0.2988281-0.1875-0.394043-0.3691406c-0.0795898-0.1523447-0.1142578-0.3203135-0.0947266-0.4609385
		C5.9029136,15.5022783,5.9292808,15.3933916,6.0132651,15.3494463z M6.7071128,18.4609375
		c-0.0083008,0.0610352-0.0351563,0.1699219-0.1196289,0.2138672c-0.0585938,0.0297852-0.1264648,0.0185547-0.1733398,0.0043945
		c-0.1479492-0.0463867-0.2988281-0.1875-0.394043-0.3691406c-0.0795898-0.1523438-0.1142578-0.3203125-0.0947266-0.4609375
		c0.0087891-0.0610352,0.0351563-0.1699219,0.1191406-0.2138672C6.1856284,17.5634766,6.4576011,17.703125,6.6128745,18
		C6.6924644,18.1523438,6.7271323,18.3208008,6.7071128,18.4609375z"/>
</g>
<path class="st1" d="M17.9554234,13.0014648c0.0212402-0.5936279-0.2750854-1.1027222-0.5944214-1.2163086
	c-0.3522949-0.1275635-1.4126577,0.2723389-2.3012075,0.661377c0.1426392-0.5348511,0.5029907-1.890686,0.5541382-2.1281738
	c0.0585938-0.269043,0.0625-0.8540039-0.3408203-1.1455078c-0.0239868-0.0172729-0.0587158-0.0292969-0.0871582-0.0447998
	c-0.3510132-0.2774048-1.09375-0.3572998-1.657959-0.026001c-1.1503906,0.6777344-1.109375,1.4321289-0.9785156,1.9418945
	c0.1036987,0.4021606,0.5025635,1.7114258,0.6690674,2.2560425c-0.729248,0.3474731-2.4979858,1.2431641-2.7999268,1.8865356
	c-0.4287109,0.9140625,0.6855469,2.0322266,0.9453125,2.1904297l0,0c0.0275269,0.0219116,0.0565796,0.0476074,0.0810547,0.0625
	c0.1425781,0.0878906,0.3222656,0.171875,0.5351563,0.171875c0.2480469,0,0.5400391-0.1142578,0.8710938-0.4707031
	c0.4086304-0.4396362,1.0043335-1.7297363,1.2412109-2.2624512c0.0290527,0.0028687,0.0545044,0.0202637,0.0839844,0.0202637
	c0.1582031,0,0.3222656-0.0400391,0.4804688-0.1201172c0.0430908-0.0217285,0.0778809-0.0614014,0.1190186-0.0881958
	l0.1837158,0.1311646c0.0722656,0.0517578,0.1523438,0.1132813,0.2324219,0.1748047
	c0.1669922,0.1269531,0.3349609,0.2529297,0.4863281,0.3330078c0.1816406,0.0976563,0.3847647,0.2080078,0.5751944,0.2080078
	c0.0214844,0,0.0419922-0.0019531,0.0625-0.0048828c0.2509766-0.0341797,0.7529297-0.2353516,1.2949219-1.2001953
	C17.9344273,13.7557983,17.9822178,13.3047485,17.9554234,13.0014648z M14.1373701,12.4541016
	c-0.0278931,0.0140381-0.0498657,0.0408936-0.0769653,0.0570679c-0.1409912-0.4417725-0.3527832-1.1149292-0.4337769-1.4281616
	c-0.0927734-0.3623047-0.1230469-0.7890625,0.7021484-1.2753906c0.2763672-0.1625977,0.4980469-0.2167969,0.5927734-0.1484375
	c0.1083984,0.078125,0.1455078,0.3496094,0.1064453,0.5322266c-0.0448608,0.2068481-0.3718262,1.4404297-0.5689087,2.1782837
	C14.3515425,12.3874512,14.2433271,12.4009399,14.1373701,12.4541016z M12.4117842,16.7324219
	c-0.3535156,0.3808594-0.4990234,0.2900391-0.6542969,0.1953125c-0.1455078-0.0888672-0.5996094-0.6601563-0.3613281-1.1699219
	c0.1641235-0.348938,1.1821899-0.9674683,2.0032349-1.3829346c0.0419922,0.0899048,0.0891724,0.1729126,0.1531372,0.2423096
	C13.279521,15.2294312,12.7281294,16.3917236,12.4117842,16.7324219z M14.0543623,14.2695313
	c-0.0839844-0.0429688-0.125-0.1289063-0.1455078-0.1933594c-0.0595703-0.1894531-0.0234375-0.4375,0.0957031-0.6660156
	c0.0986328-0.1875,0.2451172-0.3408203,0.4023438-0.4199219c0.0488281-0.0253906,0.1279297-0.0566406,0.2099609-0.0566406
	c0.0410156,0,0.0830078,0.0078125,0.1220703,0.0283203h0.0009766c0.0839844,0.0439453,0.1259766,0.1308594,0.1455078,0.1962891
	c0.0595703,0.1884766,0.0234375,0.4365234-0.0957031,0.6640625c-0.0986328,0.1875-0.2451172,0.3408203-0.4023438,0.4199219
	C14.3131514,14.2792969,14.1705732,14.3339844,14.0543623,14.2695313z M17.0875645,14.0390625
	c-0.4707031,0.8378906-0.8369141,0.8964844-0.828125,0.8984375c-0.0576172-0.0078125-0.21875-0.0947266-0.3398428-0.1591797
	c-0.0908203-0.0488281-0.2265625-0.1552734-0.3632813-0.2587891c-0.0859375-0.0664063-0.171875-0.1318359-0.2480469-0.1855469
	l-0.1027832-0.0736084c0.0372925-0.0548096,0.0841064-0.0999146,0.1154785-0.15979
	c0.1384888-0.2637329,0.1998901-0.5465698,0.1873779-0.8114624c0.7480459-0.2758179,1.5914297-0.5394287,1.7657461-0.5049438
	C17.3522129,12.8486328,17.4986973,13.3066406,17.0875645,14.0390625z"/>
</svg>
