<?xml version="1.0" encoding="utf-8"?>
<!-- Generator: Adobe Illustrator 22.0.1, SVG Export Plug-In . SVG Version: 6.00 Build 0)  -->
<svg version="1.1" id="Layer_1" xmlns="http://www.w3.org/2000/svg" xmlns:xlink="http://www.w3.org/1999/xlink" x="0px" y="0px"
	 viewBox="0 0 24 24" style="enable-background:new 0 0 24 24;" xml:space="preserve">
<style type="text/css">
	.st0{fill:#4860A2;}
</style>
<g>
	<path class="st0" d="M23.3931885,8.6586914c0.0003662-0.177063-0.093811-0.3415527-0.2467041-0.4311523L12.2973633,1.8657227
		c-0.1552734-0.0913086-0.3476563-0.0917969-0.5024414-0.0019531L0.8339844,8.1796875
		C0.6796875,8.2680664,0.5844727,8.4321289,0.5834961,8.6098633c0,0.0010376,0.0007324,0.0018921,0.0007324,0.0029297H0.5834961
		v2.921875c0,0.4995117,0.2666016,0.9677734,0.6962891,1.2226563l1.4990234,0.8886719v1.2651367
		c0,0.4365234,0.2333984,0.8466797,0.609375,1.0693359l0.3474121,0.2059937v1.7730713
		c0,0.1814575,0.12854,0.4041748,0.2857056,0.4949341l0.3289185,0.1898804
		c0.1571655,0.0907593,0.2857666,0.0165405,0.2857666-0.164978v-1.7590942l1.2659302,0.7505493v1.7367554
		c0,0.1815186,0.1286011,0.4042358,0.2857666,0.4949341l0.3289185,0.1898804
		c0.1571655,0.0907593,0.2857056,0.0165405,0.2857056-0.164978v-1.7227173l1.2659912,0.7506104v1.7003174
		c0,0.1815186,0.1286011,0.4042358,0.2857666,0.4949341l0.3289185,0.1898804
		c0.1571655,0.0907593,0.2857056,0.0165405,0.2857056-0.164917v-1.6864014l1.2659912,0.7506104v1.6640015
		c0,0.1814575,0.1286011,0.4041748,0.2857666,0.494873l0.3288574,0.1899414
		c0.1571655,0.0906982,0.2857666,0.0164795,0.2857666-0.164978v-1.6500244l0.2267456,0.1344604
		c0.1948242,0.1162109,0.4145508,0.1748047,0.6347656,0.1748047c0.2143555,0,0.4291992-0.0556641,0.621582-0.1669922
		l0.3257446-0.1880493v1.5708008c0,0.1814575,0.1286011,0.2556763,0.2857056,0.164978l0.3289185-0.1899414
		c0.1571655-0.0906982,0.2857666-0.3134155,0.2857666-0.494873v-1.5708618l1.2659912-0.730896v1.5735474
		c0,0.1814575,0.12854,0.2556763,0.2857056,0.164917l0.3289185-0.1898804
		c0.1571655-0.0906982,0.2857666-0.3134155,0.2857666-0.4949341v-1.5734863l1.2659912-0.730957v1.5762329
		c0,0.1815186,0.12854,0.2557373,0.2857056,0.164978l0.3289185-0.1898804
		c0.1571655-0.0906982,0.2857666-0.3134155,0.2857666-0.4949341v-1.5762329l1.2659302-0.730896v1.5789185
		c0,0.1815186,0.1286011,0.2557373,0.2857666,0.164978l0.3289185-0.1898804
		c0.1571655-0.0907593,0.2857056-0.3134766,0.2857056-0.4949341v-1.5789795l0.4105225-0.2369995
		C21.1367188,15.796875,21.375,15.3847656,21.375,14.9423828v-1.3822021l1.3095703-0.7559814
		c0.4375-0.253418,0.7089844-0.7246094,0.7089844-1.2304688V8.6586914H23.3931885z M12.0419922,2.875l9.8574219,5.7802734
		l-10.0131836,5.78125L2.0742188,8.6191406L12.0419922,2.875z M20.375,14.9423828
		c0,0.0869141-0.046875,0.1669922-0.1210938,0.2109375l-8.1352539,4.6962891
		c-0.0761719,0.0449219-0.1699219,0.0429688-0.2460938-0.0009766l-7.9746094-4.7275391
		c-0.0732422-0.0439453-0.1191406-0.1240234-0.1191406-0.2099609v-0.6722412l7.3852539,4.3782959
		c0.2231445,0.1328125,0.4736328,0.1992188,0.7250977,0.1992188c0.2451172,0,0.4907227-0.0634766,0.7104492-0.1904297
		L20.375,14.1374512V14.9423828z"/>
	<path class="st0" d="M12.1083984,11.8579102l5.2773438-2.9208984c0.0196533-0.0109253,0.0317383-0.0289307,0.0493164-0.0419922
		c0.0285645-0.0210571,0.0561523-0.0411987,0.0795898-0.067749c0.0210571-0.0238647,0.0358887-0.0499268,0.0518188-0.0769043
		c0.0166626-0.0279541,0.0327759-0.0546875,0.0438232-0.0858154c0.0115967-0.0327148,0.015625-0.065918,0.0202637-0.1004028
		c0.0029907-0.0220947,0.0130005-0.041687,0.0130005-0.0646362V7.2827148c0-0.4353027-0.2198486-0.7819214-0.5801392-0.9591064
		c-0.0053101-0.0033569-0.0081177-0.0089111-0.0136108-0.012085l-4.324707-2.5131836
		c-0.0726929-0.0424194-0.1513672-0.0578003-0.2301636-0.0609131c-0.4366455-0.1293945-1.0443726-0.1035156-1.7312622,0.27771
		L8.8999023,5.0488281c-0.9555664,0.5302734-1.96875,1.621582-1.9643555,2.5991211l0.0048828,1.2109375
		c0.0001221,0.020813,0.0095825,0.0384521,0.012146,0.0585938c0.0043945,0.0349121,0.0093384,0.0681763,0.0209351,0.1013184
		c0.010437,0.0300903,0.0249634,0.0564575,0.0407104,0.0836182c0.0159912,0.027771,0.0319214,0.0539551,0.0533447,0.0785522
		c0.0228882,0.0263672,0.0491333,0.046936,0.0770264,0.0679932c0.0163574,0.0123901,0.0270996,0.029541,0.0453491,0.0401001
		l4.4252319,2.5636597c0.0076294,0.0044556,0.0172119,0.0032349,0.0250854,0.0072021
		c0.0681763,0.0352173,0.1420898,0.0598145,0.223999,0.0601196c0.0004883,0,0.0009766,0.0003662,0.0014648,0.0003662
		c0.000061,0,0.0001221-0.000061,0.0001831-0.000061c0.0001221,0,0.0001831,0.000061,0.0003052,0.000061
		c0.0004883,0,0.0009766,0,0.0019531,0c0.0799561-0.0003052,0.15271-0.0234985,0.2196655-0.0571899
		C12.0944214,11.8599243,12.1018677,11.8615112,12.1083984,11.8579102z M7.9355469,7.644043
		C7.9351196,7.552124,7.9682007,7.4398804,8.0202026,7.319397l1.5328369,0.8634033
		c-0.1273804,0.260376-0.2052612,0.5161743-0.2044067,0.7463989l0.0018311,0.4560547L7.93927,8.567688L7.9355469,7.644043z
		 M9.9482422,8.9272461c-0.0003662-0.1272583,0.0444336-0.282959,0.1243286-0.4517822l1.5296631,0.8616943
		c-0.147583,0.2902222-0.2418823,0.586853-0.2409058,0.8747559l0.0013428,0.3390503L9.9514771,9.7334595L9.9482422,8.9272461z
		 M15.3729858,6.493103c-0.0615845,0.0301514-0.1210938,0.0507202-0.1835327,0.0855103l-1.0263672,0.5697021L12.7628174,6.329895
		l0.6014404-0.3338013c0.2720947-0.1509399,0.5057983-0.2314453,0.6948853-0.2664185L15.3729858,6.493103z M12.3613281,10.2080078
		c-0.0014648-0.4316406,0.6181641-1.2597656,1.4492188-1.7211914l1.8632813-1.0341797
		c0.5117188-0.2827148,0.8408203-0.284668,0.9697266-0.1699219v0.9219971l-4.2807617,2.3693237L12.3613281,10.2080078z
		 M13.5535889,7.4865723l-0.227417,0.1262207c-0.5064087,0.2807617-1.024292,0.7207642-1.4030762,1.2164917l-1.52771-0.8605347
		c0.2729492-0.34375,0.6547852-0.6883545,1.1055908-0.9384766l0.6523438-0.3620605L13.5535889,7.4865723z M11.2490234,4.8891602
		c0.5532227-0.3076172,0.9355469-0.2333984,1.0595703-0.1513672c0.0440063,0.0288696,0.0924072,0.0427856,0.1404419,0.0563354
		l0.9255371,0.5377808c-0.0999146,0.0437012-0.1988525,0.0828247-0.3013306,0.1397705l-0.9124146,0.5064087l-1.3999634-0.8181763
		L11.2490234,4.8891602z M9.3852539,5.9228516l0.7659302-0.4248047l1.4001465,0.8183594l-0.3413696,0.1894531
		c-0.5343628,0.2963257-1.007019,0.7189941-1.3432007,1.1651001L8.3370361,6.8092651
		C8.5963745,6.4859619,8.9628906,6.1573486,9.3852539,5.9228516z"/>
</g>
</svg>
