<?xml version="1.0" encoding="utf-8"?>
<!-- Generator: Adobe Illustrator 22.0.1, SVG Export Plug-In . SVG Version: 6.00 Build 0)  -->
<svg version="1.1" id="Layer_1" xmlns="http://www.w3.org/2000/svg" xmlns:xlink="http://www.w3.org/1999/xlink" x="0px" y="0px"
	 viewBox="0 0 24 24" style="enable-background:new 0 0 24 24;" xml:space="preserve">
<style type="text/css">
	.st0{fill:#4860A2;}
</style>
<path class="st0" d="M17.5938721,11.352478c0.0010376-0.0132446,0.0076904-0.0245361,0.0076904-0.0380249V1.3476563
	c0-0.0098877-0.0050659-0.0181274-0.0056152-0.027832c-0.0012817-0.0236206-0.0055542-0.0458984-0.0101929-0.069397
	c-0.0046387-0.0228882-0.0094604-0.0444946-0.0171509-0.0662842c-0.006897-0.0197144-0.0142212-0.0380859-0.0234375-0.0565796
	c-0.0043945-0.0089111-0.0040283-0.0187378-0.0090332-0.0274658c-0.0061646-0.0108032-0.0167236-0.0167847-0.0235596-0.0269775
	c-0.0122681-0.0183716-0.0245361-0.0353394-0.0391235-0.052002c-0.0147095-0.0167236-0.0297852-0.0315552-0.0465698-0.0462036
	c-0.0166626-0.0145874-0.03302-0.0274658-0.0512695-0.0395508c-0.0168457-0.0112915-0.0336914-0.020813-0.052002-0.0300293
	c-0.0193481-0.0097656-0.0385132-0.0176392-0.0592041-0.0248413c-0.0228882-0.0079956-0.0449829-0.0137329-0.0687866-0.0183105
	c-0.0111694-0.0021973-0.0200806-0.0091553-0.0315552-0.0106201C14.828125,0.5566406,10.5058594,0.340332,7.8164063,2.2167969
	c-0.9177856,0.6402588-1.4182129,1.456665-1.4161377,2.2758179C6.3999634,4.5,6.3959961,4.5062256,6.3959961,4.5136719V14.375
	c0,0.0073853,0.0038452,0.0134888,0.0041504,0.020752c-0.0213623,0.963623,0.6633301,1.7813721,1.8451538,2.2174683
	c0.0028076,0.0018921,0.0056152,0.0037842,0.0084839,0.0056763c0.0147095,0.0096436,0.0267334,0.0205078,0.0422974,0.0285034
	c0.0687866,0.0355835,0.1434937,0.0606079,0.2263794,0.0606079c0.0006104,0,0.0010376-0.0003052,0.0016479-0.0003052
	c0.0004272,0,0.0008545,0.0003052,0.0012817,0.0003052c0.0031738,0,0.0061646-0.0024414,0.0093384-0.0025024
	c0.069458-0.00177,0.1347046-0.0174561,0.1942749-0.0447388v5.8774414c0,0.2841187,0.2049561,0.6314697,0.4577026,0.7757568
	l0.2280273,0.130188c0.2528076,0.1442871,0.4577637,0.0309448,0.4577637-0.2531738v-7.1758423l2.1082153-1.2025146v5.8477173
	c0,0.2841187,0.204895,0.6314087,0.4577026,0.7756958l0.2280273,0.130188
	c0.2528076,0.1443481,0.4577637,0.0310059,0.4577637-0.2531738v-7.15271l2.1259766-1.2126465v5.8994141
	c0,0.2841187,0.2049561,0.6314087,0.4577637,0.7757568l0.2280273,0.130127
	c0.2528076,0.1443481,0.4577026,0.0310059,0.4577026-0.2531128v-7.2044067l0.9588623-0.546936
	c0.022522-0.0128784,0.036499-0.0334473,0.0562134-0.0491333c0.0217896-0.017334,0.0431519-0.0332642,0.0617065-0.053894
	c0.0276489-0.0305176,0.0480347-0.0637817,0.0670166-0.0994873c0.0106201-0.0197754,0.0214844-0.0380859,0.0293579-0.0593872
	C17.5830688,11.4430542,17.5901489,11.3989258,17.5938721,11.352478z M8.3886719,3.0371094
	c1.9337158-1.3503418,4.9802246-1.4594116,7.0844727-1.3363037l-6.984375,3.9833374
	c-0.630127-0.2555542-1.0211792-0.6224976-1.0834961-1.0581665C7.3320313,4.1118164,7.6992188,3.5180664,8.3886719,3.0371094z"/>
</svg>
