<?xml version="1.0" encoding="utf-8"?>
<!-- Generator: Adobe Illustrator 21.0.0, SVG Export Plug-In . SVG Version: 6.00 Build 0)  -->
<svg version="1.1" id="Layer_1" xmlns="http://www.w3.org/2000/svg" xmlns:xlink="http://www.w3.org/1999/xlink" x="0px" y="0px"
	 viewBox="0 0 30 30" style="enable-background:new 0 0 30 30;" xml:space="preserve">
<style type="text/css">
	.st0{fill:#231F20;}
</style>
<g>
	<path class="st0" d="M29.3755,8.236c-0.0079-0.0156-0.0186-0.0276-0.0285-0.0421c-0.0266-0.0388-0.0582-0.0711-0.0963-0.0984
		c-0.0095-0.0069-0.0139-0.0186-0.0241-0.0247L18.126,1.4966c-0.125-0.0728-0.2764-0.0732-0.4033-0.0029L0.6523,11.2661
		c-0.0105,0.006-0.0151,0.0178-0.0249,0.0246c-0.038,0.0264-0.0696,0.0577-0.0965,0.0953c-0.0109,0.0153-0.022,0.0285-0.0306,0.0453
		c-0.0261,0.05-0.0428,0.1045-0.0456,0.1641c-0.0002,0.0046-0.0035,0.0084-0.0036,0.013c0,0.0008,0.0005,0.0014,0.0005,0.0022
		c0,0.001-0.0005,0.0017-0.0005,0.0027v2.939c0,0.0122,0.0059,0.0225,0.007,0.0344c-0.0011,0.0119-0.007,0.0222-0.007,0.0344v2.2959
		c0,0.0158,0.0072,0.0292,0.009,0.0445c0.0032,0.0282,0.0076,0.0549,0.0165,0.0818c0.0079,0.0235,0.0184,0.0443,0.0303,0.0656
		c0.0129,0.0233,0.0266,0.0449,0.0441,0.0655c0.0172,0.0201,0.0364,0.0363,0.0572,0.0526c0.0129,0.0102,0.0213,0.024,0.0357,0.0328
		l1.665,1.0062v2.2946c0,0.2207,0.1792,0.4004,0.3999,0.4004s0.3999-0.1797,0.3999-0.4004v-1.8112l8.5205,5.1491
		c0.0018,0.001,0.0039,0.0005,0.0057,0.0016c0.0071,0.0042,0.015,0.0048,0.0222,0.0085c0.0545,0.028,0.1138,0.0475,0.1791,0.0475
		c0.0001,0,0.0002-0.0001,0.0003-0.0001c0.0001,0,0.0001,0.0001,0.0002,0.0001c0.0005,0,0.001-0.0004,0.0015-0.0004
		c0.0647-0.0003,0.1234-0.0195,0.1774-0.0472c0.0062-0.0031,0.0134-0.0017,0.0194-0.0051l1.9731-1.1289
		c0.0019-0.0011,0.0029-0.0031,0.0047-0.0042l0.1008-0.0577v3.7894c0,0.2207,0.1792,0.4004,0.3999,0.4004
		s0.3999-0.1797,0.3999-0.4004v-4.2471l2.3149-1.325v3.7713c0,0.2207,0.1797,0.4004,0.4004,0.4004s0.4004-0.1797,0.4004-0.4004
		v-4.2297l2.3145-1.3247v3.7546c0,0.2207,0.1797,0.4004,0.4004,0.4004s0.4004-0.1797,0.4004-0.4004v-4.213l2.3145-1.3247v3.7369
		c0,0.2207,0.1797,0.4004,0.4004,0.4004s0.4004-0.1797,0.4004-0.4004v-4.1952l2.3135-1.3242v3.7186
		c0,0.2207,0.1797,0.4004,0.4004,0.4004s0.4004-0.1797,0.4004-0.4004v-4.1769l1.8467-1.057
		c0.0148-0.0085,0.0236-0.0223,0.0369-0.0323c0.0229-0.0171,0.0447-0.0339,0.0635-0.0554c0.0165-0.0189,0.0285-0.0393,0.041-0.0607
		c0.0135-0.0228,0.0259-0.0449,0.0347-0.0703c0.0086-0.025,0.0119-0.05,0.0154-0.0762c0.0024-0.0179,0.0106-0.0338,0.0106-0.0522
		v-2.2651V8.415C29.4229,8.3497,29.4034,8.2905,29.3755,8.236z M12.2363,20.6873v-2.2029l16.3857-9.3796v2.1182L12.2363,20.6873z
		 M13.6128,22.0784c-0.0006,0.0004-0.0013,0.0003-0.002,0.0007l-1.3745,0.7869v-1.2548l1.8774-1.0844v1.2649L13.6128,22.0784z
		 M1.251,16.6908v-1.4191l3.042,1.8902v1.3675L1.251,16.6908z M11.4365,20.6609l-3.562-2.2147V16.326l3.562,2.1531V20.6609z
		 M7.238,15.0064l-1.6215-0.9801c0.1291-0.0217,0.2556-0.0497,0.3928-0.0497c0.7993,0,1.397,0.3823,1.397,0.7241
		C7.4063,14.803,7.3362,14.9069,7.238,15.0064z M4.293,16.22l-3.042-1.8902v-2.0074l3.042,1.8387V16.22z M5.0928,14.6446
		l1.9819,1.198v4.368l-1.9819-1.1979V14.6446z M7.8745,19.3881l3.562,2.2142v1.2446l-3.562-2.1528V19.3881z M17.918,2.3037
		l10.3096,6.1055l-16.3857,9.3799l-3.9065-2.3612c0.1694-0.2206,0.2708-0.4678,0.2708-0.7272c0-0.8545-0.9648-1.5239-2.1968-1.5239
		c-0.4772,0-0.91,0.1239-1.283,0.3115l-3.0866-1.8657L17.918,2.3037z M14.9136,21.3339v-1.2691l2.3149-1.3371v1.2811
		L14.9136,21.3339z M18.0293,19.5505v-1.2853l2.3145-1.3368v1.2974L18.0293,19.5505z M21.1445,17.7673v-1.3016l2.3145-1.3369v1.3137
		L21.1445,17.7673z M24.2598,15.9843v-1.3179l2.3135-1.3362V14.66L24.2598,15.9843z M27.374,12.8676l1.248-0.7209v1.3406
		l-1.248,0.7144V12.8676z"/>
	<path class="st0" d="M5.0601,11.1743l7.481,4.5244c0.0635,0.0386,0.1353,0.0576,0.207,0.0576c0.0674,0,0.1353-0.0171,0.1963-0.0513
		l12.8301-7.2275c0.124-0.0703,0.2021-0.2017,0.2041-0.3442c0.001-0.1431-0.0732-0.2759-0.1963-0.3486l-7.5615-4.4785
		c-0.124-0.0728-0.2773-0.0737-0.4004-0.0044L5.0708,10.4834c-0.124,0.0698-0.2017,0.2002-0.2036,0.3423
		C4.8647,10.9683,4.9385,11.1006,5.0601,11.1743z M18.0117,4.1123l6.7666,4.0078l-12.0229,6.7734l-6.6948-4.0493L18.0117,4.1123z"/>
	<path class="st0" d="M13.6212,10.182c0.063,0.0384,0.127,0.0775,0.1884,0.1149c0.1132,0.069,0.2242,0.1366,0.3358,0.2045
		l-0.6533,0.3729c-0.1561-0.0139-0.3169,0.0029-0.455,0.0813c-0.1758,0.1016-0.2813,0.271-0.2817,0.4531
		c-0.001,0.1758,0.0947,0.3369,0.2559,0.4316c0.1021,0.0591,0.2256,0.0889,0.3511,0.0889c0.1323,0,0.2671-0.0332,0.3818-0.0981
		c0.1303-0.075,0.2043-0.1921,0.2445-0.319l0.9403-0.5367c0.2587,0.1554,0.5347,0.3202,0.865,0.515
		c0.062,0.0371,0.1323,0.0557,0.2031,0.0557c0.0391,0,0.0781-0.0054,0.1162-0.0171c0.1064-0.0322,0.1953-0.1079,0.2441-0.2085
		c0.1946-0.4028,0.3695-0.7373,0.54-1.0544c0.2031,0.1231,0.3867,0.2333,0.6098,0.3654c0.0142,0.1602,0.0981,0.3063,0.2457,0.3917
		c0.1035,0.0605,0.2314,0.0903,0.3633,0.0903c0.1445,0,0.293-0.0356,0.4219-0.1074c0.1934-0.1089,0.3057-0.2827,0.3066-0.4771
		c0.002-0.1792-0.0947-0.3433-0.2588-0.4385l-0.001-0.0005c-0.1446-0.0833-0.3297-0.0862-0.5115-0.0536
		c-0.3118-0.1838-0.5338-0.3165-0.7939-0.4743c0.1652-0.3024,0.3366-0.6216,0.525-0.9906l0.8399-0.4671
		c0.0284,0.0031,0.0512,0.0208,0.0801,0.0208c0.1299,0,0.2617-0.0313,0.375-0.0933c0.1777-0.0972,0.2852-0.2642,0.2891-0.4468
		c0.0039-0.1768-0.0908-0.3398-0.251-0.437c0-0.0005-0.001-0.0005-0.001-0.0005c-0.2061-0.124-0.5088-0.1255-0.7324-0.0039
		c-0.1326,0.0728-0.2089,0.1897-0.2505,0.3175L17.374,7.8953c-0.8686,0.1277-1.5631,0.24-2.2474,0.3529
		c-0.3115-0.1892-0.5444-0.33-0.8489-0.5102c-0.0159-0.1596-0.0996-0.3055-0.2479-0.3928c-0.0005,0-0.001-0.0005-0.0015-0.0005
		c-0.2222-0.1294-0.5474-0.1211-0.7886,0.019c-0.1855,0.1079-0.2969,0.2856-0.2974,0.4761
		c-0.0005,0.1797,0.0977,0.3447,0.2607,0.4404c0.105,0.0615,0.2329,0.0923,0.3647,0.0923c0.0502,0,0.0957-0.0297,0.1458-0.0386
		c0.0659,0.0389,0.1362,0.0803,0.1947,0.115c-0.4293,0.0701-0.8867,0.1435-1.4142,0.2244c-0.1665,0.0259-0.2993,0.1528-0.332,0.3184
		c-0.0322,0.1655,0.042,0.3335,0.1865,0.4199c0.1785,0.1071,0.3402,0.2047,0.4948,0.2981l-0.6597,0.3852
		c-0.1576-0.0143-0.3195,0.0032-0.4572,0.0848c-0.1743,0.1025-0.2788,0.2725-0.2788,0.4546
		c-0.0005,0.1748,0.0942,0.3359,0.2529,0.4302c0.1021,0.061,0.2261,0.0913,0.3525,0.0913c0.1338,0,0.2705-0.0342,0.3862-0.1016
		c0.1309-0.0764,0.2051-0.1956,0.244-0.3246L13.6212,10.182z M13.3354,11.5963c0.0131,0.01,0.0211,0.0267,0.0351,0.0349
		l-0.0009,0.0016C13.3553,11.6244,13.3479,11.6075,13.3354,11.5963z M13.371,11.6317c0.0012,0.0007,0.0018,0.0023,0.0031,0.0031
		c-0.002-0.001-0.002-0.0003-0.004-0.0015L13.371,11.6317z M13.3839,11.6384c0.0146,0.0079,0.0321,0.0065,0.0475,0.0125
		c-0.0013,0.0009-0.0023,0.0031-0.0037,0.0038C13.4236,11.6548,13.4034,11.6472,13.3839,11.6384z M18.21,10.7925
		c0.0181-0.0114,0.03-0.0311,0.0463-0.0455c-0.0135,0.0266-0.0275,0.0488-0.0258,0.0538
		C18.2283,10.8005,18.2166,10.7947,18.21,10.7925z M18.7839,7.3577c-0.0046-0.0029-0.0096-0.0046-0.0143-0.0074
		c0.0029-0.0005,0.0038-0.0032,0.0068-0.0036C18.7802,7.349,18.7802,7.3552,18.7839,7.3577z M14.8618,9.1025
		c0.6211-0.103,1.2212-0.2021,1.9263-0.3105c-0.1104,0.2051-0.2158,0.397-0.3193,0.5874c-0.209,0.3809-0.4131,0.7544-0.6392,1.2026
		c-0.6392-0.3799-1.1011-0.6616-1.6035-0.9683c-0.168-0.1025-0.3408-0.2075-0.5264-0.3203
		C14.1128,9.2271,14.4912,9.1641,14.8618,9.1025z M12.0201,10.809c0.0149,0.0123,0.025,0.0308,0.0414,0.0406l-0.0015,0.0024
		C12.0433,10.842,12.0343,10.8227,12.0201,10.809z M12.0628,10.8509c0.0017,0.001,0.0025,0.0032,0.0043,0.0042
		c-0.0027-0.0015-0.0027-0.0004-0.0056-0.0021L12.0628,10.8509z M12.0884,10.8631c0.0112,0.0057,0.0244,0.0049,0.036,0.0094
		c-0.0011,0.0007-0.0018,0.0024-0.0029,0.003C12.1183,10.8755,12.1007,10.8673,12.0884,10.8631z"/>
</g>
</svg>
