<?xml version="1.0" encoding="utf-8"?>
<!-- Generator: Adobe Illustrator 21.0.0, SVG Export Plug-In . SVG Version: 6.00 Build 0)  -->
<svg version="1.1" id="Layer_1" xmlns="http://www.w3.org/2000/svg" xmlns:xlink="http://www.w3.org/1999/xlink" x="0px" y="0px"
	 viewBox="0 0 60 60" style="enable-background:new 0 0 60 60;" xml:space="preserve">
<style type="text/css">
	.st0{fill:#231F20;}
</style>
<g>
	<path class="st0" d="M58.6,17.1C58.5,17.1,58.5,17.1,58.6,17.1c-0.1-0.1-0.1-0.1-0.2-0.2c0,0,0,0,0,0L36.2,3.8
		c-0.2-0.1-0.3-0.1-0.5,0L1.5,23.3c0,0,0,0,0,0c0,0-0.1,0.1-0.1,0.1c0,0,0,0,0,0.1c0,0.1-0.1,0.1-0.1,0.2c0,0,0,0,0,0c0,0,0,0,0,0
		c0,0,0,0,0,0v5.9c0,0,0,0,0,0.1c0,0,0,0,0,0c0,0,0,0,0,0.1v4.6c0,0,0,0,0,0.1c0,0,0,0.1,0,0.1c0,0,0,0.1,0,0.1c0,0,0,0.1,0.1,0.1
		c0,0,0,0,0.1,0.1c0,0,0,0,0,0L5,36.9v4.8c0,0.5,0.2,0.9,0.5,1.1c0.2,0.1,0.3,0.1,0.5,0.1c0.2,0,0.4-0.1,0.7-0.2l0.6-0.3
		C8,42,8.6,41.1,8.6,40.3l0-1.2l14.9,9c0,0,0,0,0,0c0.1,0,0.1,0.1,0.2,0.1c0.1,0,0.2,0,0.2-0.1c0,0,0,0,0,0l3.2-1.8v7.9
		c0,0.5,0.2,0.9,0.5,1.1c0.2,0.1,0.3,0.1,0.5,0.1c0.2,0,0.4-0.1,0.7-0.2l0.6-0.3c0.7-0.4,1.3-1.3,1.3-2.1l0-8.6l2.6-1.5v7.8
		c0,0.5,0.2,0.9,0.5,1.1c0.2,0.1,0.3,0.1,0.5,0.1c0.2,0,0.4-0.1,0.7-0.2l0.6-0.3c0.7-0.4,1.3-1.3,1.3-2.1l0-8.5l2.6-1.5v7.8
		c0,0.5,0.2,0.9,0.5,1.1c0.2,0.1,0.3,0.1,0.5,0.1c0.2,0,0.4-0.1,0.7-0.2l0.6-0.3c0.7-0.4,1.3-1.3,1.3-2.1l0-8.5l2.6-1.5v7.8
		c0,0.5,0.2,0.9,0.5,1.1c0.2,0.1,0.3,0.1,0.5,0.1c0.2,0,0.4-0.1,0.7-0.2l0.6-0.3c0.7-0.4,1.3-1.3,1.3-2.1l0-8.5l2.6-1.5v7.7
		c0,0.5,0.2,0.9,0.5,1.1c0.2,0.1,0.3,0.1,0.5,0.1c0.2,0,0.4-0.1,0.7-0.2l0.6-0.3c0.7-0.4,1.3-1.3,1.3-2.1c0,0,0,0,0,0l0-8.4l2.7-1.5
		c0,0,0,0,0,0c0,0,0.1,0,0.1-0.1c0,0,0-0.1,0.1-0.1c0,0,0-0.1,0-0.1c0,0,0-0.1,0-0.1c0,0,0,0,0-0.1v-4.5v-6.1
		C58.6,17.3,58.6,17.2,58.6,17.1z M55,24.6C55,24.6,55,24.6,55,24.6l-2.6,1.5c0,0,0,0,0,0l-3.6,2.1c0,0,0,0,0,0l-2.6,1.5
		c0,0,0,0,0,0l-3.6,2.1c0,0,0,0,0,0l-2.6,1.5c0,0,0,0,0,0l-3.6,2.1c0,0,0,0,0,0L33.7,37c0,0,0,0,0,0l-9.4,5.4v-5.1l33.4-19.1v4.9
		L55,24.6z M2.3,34.1v-3.5l6.7,4.2v3.4L2.3,34.1z M23.2,42.4l-7.7-4.8v-4.9l7.7,4.7V42.4z M14.6,30.9l-4.1-2.5
		c0.5-0.2,1-0.3,1.6-0.3c1.7,0,3.1,0.8,3.1,1.7C15.2,30.3,14.9,30.7,14.6,30.9z M8.9,33.5l-6.7-4.2v-4.7l6.7,4V33.5z M9.9,29.3
		l4.6,2.8v9.4l-4.6-2.8V29.3z M15.5,38.7l7.7,4.8v3.2l-7.7-4.7V38.7z M35.9,4.8l21.2,12.6L23.7,36.4l-8.2-5v0c0.4-0.4,0.7-1,0.7-1.5
		c0-1.5-1.8-2.7-4.1-2.7c-1,0-1.9,0.2-2.6,0.6l-6.7-4.1L35.9,4.8z M7.6,40.3c0,0.4-0.3,1-0.7,1.2l-0.6,0.3C6.1,41.8,6,41.8,6,41.8
		c0,0,0-0.1,0-0.2v-4.2l1.6,1L7.6,40.3z M24.2,46.8v-3.2l2.9-1.7v3.2L24.2,46.8z M29.1,53.9l-0.6,0.3c-0.1,0.1-0.2,0.1-0.2,0.1
		c0,0,0-0.1,0-0.2V41.3l1.6-0.9l0,12.4C29.8,53.2,29.4,53.7,29.1,53.9z M30.8,43l0-3.2l2.6-1.5v3.3L30.8,43z M35.3,50.3l-0.6,0.3
		c-0.1,0.1-0.2,0.1-0.2,0.1s0-0.1,0-0.2V37.7l1.6-0.9l0,12.4C36,49.6,35.7,50.1,35.3,50.3z M37,39.4l0-3.3l2.6-1.5v3.3L37,39.4z
		 M41.5,46.7L40.9,47c-0.1,0.1-0.2,0.1-0.2,0.1c0,0,0-0.1,0-0.2V34.1l1.6-0.9l0,12.4C42.2,46,41.9,46.5,41.5,46.7z M43.2,35.9l0-3.3
		l2.6-1.5v3.3L43.2,35.9z M47.8,43.1l-0.6,0.3c-0.1,0.1-0.2,0.1-0.2,0.1c0,0,0-0.1,0-0.2V30.5l1.6-0.9l0,12.4
		C48.5,42.4,48.1,42.9,47.8,43.1z M49.5,32.3l0-3.3l2.6-1.5v3.3L49.5,32.3z M54,39.5l-0.6,0.3c-0.1,0.1-0.2,0.1-0.2,0.1s0-0.1,0-0.2
		V26.9l1.6-0.9l0,12.4C54.7,38.8,54.4,39.3,54,39.5z M55.7,25.4l1.9-1.1v3.4l-1.9,1.1L55.7,25.4z"/>
	<path class="st0" d="M10.4,22.4l15,9c0,0,0.1,0,0.2,0c0.1,0,0.1,0,0.1,0L51.4,17c0.1-0.1,0.2-0.2,0.2-0.3c0-0.1-0.1-0.2-0.1-0.3
		l-15.1-9c-0.1-0.1-0.2-0.1-0.3,0L10.4,21.9c-0.1,0.1-0.2,0.1-0.2,0.3C10.3,22.3,10.4,22.4,10.4,22.4z M36.1,8.2l14.5,8.6L25.6,30.9
		l-14.4-8.7L36.1,8.2z"/>
	<path class="st0" d="M26.5,24.6c0.2-0.1,0.4-0.3,0.4-0.5c0,0,0-0.1,0-0.1c1-0.6,1.7-1,2.9-1.7c0.7,0.4,1.5,0.9,2.4,1.5
		c0,0,0.1,0,0.2,0c0,0,0.1,0,0.1,0c0.1,0,0.1-0.1,0.2-0.2c0.6-1.3,1.1-2.2,1.7-3.2c0.9,0.6,1.5,0.9,2.5,1.5c0,0.1-0.1,0.2-0.1,0.2
		c0,0.2,0.1,0.4,0.3,0.5c0.1,0.1,0.3,0.1,0.5,0.1c0.2,0,0.5-0.1,0.7-0.2c0.3-0.1,0.4-0.4,0.4-0.6c0-0.2-0.1-0.4-0.3-0.5
		c-0.3-0.2-0.7-0.2-1.1,0c-1.1-0.6-1.7-1-2.7-1.6c0,0,0-0.1,0-0.1c0.5-0.9,1-1.9,1.6-3.1c1-0.5,1.5-0.8,2.4-1.3
		c0.1,0,0.2,0.1,0.4,0.1c0.2,0,0.4,0,0.6-0.1c0.2-0.1,0.3-0.3,0.4-0.5c0-0.2-0.1-0.4-0.3-0.5c-0.3-0.2-0.8-0.2-1.1,0
		c-0.2,0.1-0.4,0.3-0.4,0.5c0,0,0,0.1,0,0.1c-0.8,0.4-1.3,0.7-2.3,1.3c-2.3,0.3-4,0.6-5.8,0.9c-1-0.6-1.6-1-2.6-1.6
		c0-0.1,0.1-0.2,0.1-0.2c0-0.2-0.1-0.4-0.3-0.5v0c-0.3-0.2-0.9-0.2-1.2,0c-0.2,0.1-0.4,0.4-0.4,0.6c0,0.2,0.1,0.4,0.3,0.5
		c0.1,0.1,0.3,0.1,0.5,0.1c0.2,0,0.4,0,0.5-0.1c0.9,0.5,1.5,0.9,2.2,1.3c-1.6,0.3-3.2,0.5-5.2,0.8c-0.1,0-0.2,0.1-0.2,0.2
		c0,0.1,0,0.3,0.1,0.3c0.8,0.5,1.5,0.9,2.2,1.3c-1.1,0.6-1.7,1-2.7,1.6c-0.3-0.1-0.7-0.1-0.9,0.1c-0.2,0.1-0.3,0.3-0.3,0.5
		c0,0.2,0.1,0.4,0.3,0.5c0.1,0.1,0.3,0.1,0.5,0.1c0.2,0,0.4-0.1,0.6-0.2c0.2-0.1,0.4-0.3,0.4-0.5c0,0,0-0.1,0-0.1
		c1-0.6,1.7-1,2.9-1.7c0.3,0.2,0.6,0.3,0.8,0.5c0.6,0.4,1.2,0.7,1.8,1.1c-1.1,0.6-1.7,1-2.7,1.6c-0.3-0.1-0.7-0.1-0.9,0.1
		c-0.2,0.1-0.3,0.3-0.3,0.5c0,0.2,0.1,0.4,0.3,0.5c0.1,0.1,0.3,0.1,0.5,0.1C26.1,24.7,26.3,24.7,26.5,24.6z M38.1,21.8L38,22.1
		c0,0,0,0,0,0L38.1,21.8z M37.9,22C37.9,22,37.9,22,37.9,22c-0.2,0.1-0.5,0.2-0.6,0.1c0,0,0,0,0.1,0C37.5,22,37.8,22,37.9,22z
		 M22.6,22.2c0.1-0.1,0.3-0.1,0.4-0.1C22.9,22.3,22.7,22.3,22.6,22.2z M23.1,22.2C23.1,22.2,23.1,22.2,23.1,22.2l0.1-0.3L23.1,22.2z
		 M39.2,14.8c-0.1,0-0.3,0.1-0.4,0C38.9,14.8,39.1,14.8,39.2,14.8z M26.2,15.5C26.2,15.5,26.2,15.5,26.2,15.5
		c0.2-0.1,0.4-0.2,0.5-0.2c0.1,0,0.1,0,0.2,0c-0.1,0-0.1,0.1-0.1,0.1C26.5,15.5,26.3,15.5,26.2,15.5z M24.8,18.6
		c1.8-0.3,3.2-0.5,4.7-0.8c1.9-0.3,3.7-0.6,6-1c-0.5,1-1,1.8-1.4,2.6c-0.6,1.1-1.2,2.2-1.9,3.5c-1.9-1.1-3.1-1.9-4.5-2.7
		C26.8,19.9,25.9,19.3,24.8,18.6z M26.2,24.1c-0.1,0.1-0.3,0.1-0.4,0C25.9,24.1,26.1,24.1,26.2,24.1z"/>
</g>
</svg>
