<?xml version="1.0" encoding="utf-8"?>
<!-- Generator: Adobe Illustrator 21.0.0, SVG Export Plug-In . SVG Version: 6.00 Build 0)  -->
<svg version="1.1" id="Layer_1" xmlns="http://www.w3.org/2000/svg" xmlns:xlink="http://www.w3.org/1999/xlink" x="0px" y="0px"
	 viewBox="0 0 60 60" style="enable-background:new 0 0 60 60;" xml:space="preserve">
<style type="text/css">
	.st0{fill:#231F20;}
</style>
<g>
	<path class="st0" d="M44.3,41.8l-0.1-30.5c0,0,0,0,0,0c0,0,0,0,0,0c0-4.3-6.5-8-14.2-8c-7.6,0-13.8,3.4-14.1,7.7c0,0,0,0.1,0,0.1
		l0,0.2c0,0,0,0,0,0c0,0,0,0,0,0l-0.1,30.6c0,0,0,0,0,0s0,0,0,0v7.3c0,4.4,6.3,7.8,14.3,7.8c8,0,14.3-3.4,14.3-7.8L44.3,41.8
		C44.3,41.8,44.3,41.8,44.3,41.8z M16.8,21.2C18.8,24,23.9,26,30,26c0.4,0,0.7,0,1.1,0v22.6c-0.4,0-0.7,0-1.1,0
		c-7.3,0-13.3-3-13.3-6.8L16.8,21.2z M32.1,26c2.2-0.2,4.2-0.6,5.9-1.2v22.5c-1.7,0.7-3.7,1.1-5.9,1.3V26z M39,24.3
		c1.9-0.8,3.3-1.9,4.2-3.2l0.1,20.8c0,1.9-1.7,3.7-4.3,4.9V24.3z M43.2,18.2C43.2,18.3,43.2,18.3,43.2,18.2C43.2,22,37.3,25,30,25
		c-7.3,0-13.2-3-13.2-6.7c0,0,0-0.1,0-0.1l0-4.1C18.9,17,23.9,19,30,19c6.1,0,11.1-2,13.2-4.8L43.2,18.2z M29.9,4.3
		c7.1,0,13.2,3.3,13.2,7c0,0,0,0,0,0s0,0,0,0v0C43.2,15,37.3,18,30,18c-7.3,0-13.2-3-13.2-6.7c0,0,0,0,0,0v0
		C16.8,7.5,22.8,4.3,29.9,4.3z M16.7,49.1v-4.4c2.1,2.9,7.2,4.9,13.3,4.9c0.4,0,0.7,0,1.1,0v6.3c-0.4,0-0.7,0-1.1,0
		C22.7,55.9,16.7,52.8,16.7,49.1z M32.1,55.8v-6.3c5.2-0.4,9.4-2.2,11.2-4.8v4.4C43.3,52.5,38.4,55.3,32.1,55.8z"/>
	<path class="st0" d="M30,13.2c2.4,0,4.2-1,4.2-2.4V8.2c0,0,0,0,0,0s0,0,0,0C34.2,7,32.4,6,30,6S25.8,7,25.8,8.2c0,0,0,0,0,0
		s0,0,0,0v2.6C25.8,12.1,27.6,13.2,30,13.2z M30,12.2c-1.8,0-3.2-0.7-3.2-1.4V9.6c0.8,0.5,1.9,0.7,3.2,0.7c1.3,0,2.5-0.3,3.2-0.7
		v1.2C33.2,11.4,31.8,12.2,30,12.2z M30,7c1.9,0,3.2,0.7,3.2,1.1S31.9,9.3,30,9.3c-1.9,0-3.2-0.7-3.2-1.1S28.1,7,30,7z"/>
</g>
</svg>
