<?xml version="1.0" encoding="utf-8"?>
<!-- Generator: Adobe Illustrator 21.0.0, SVG Export Plug-In . SVG Version: 6.00 Build 0)  -->
<svg version="1.1" id="Layer_1" xmlns="http://www.w3.org/2000/svg" xmlns:xlink="http://www.w3.org/1999/xlink" x="0px" y="0px"
	 viewBox="0 0 30 30" style="enable-background:new 0 0 30 30;" xml:space="preserve">
<style type="text/css">
	.st0{fill:#231F20;}
</style>
<g>
	<path class="st0" d="M22.2795,20.9572L22.2354,5.6934c0-0.0002-0.0002-0.0005-0.0002-0.0007
		c-0.0017-2.2828-3.2635-4.1399-7.2718-4.1399c-3.8793,0-7.0428,1.7777-7.1816,3.9916C7.778,5.5662,7.7686,5.586,7.7686,5.6089
		L7.7173,20.9746c0,0.0002,0.0001,0.0003,0.0001,0.0005s-0.0001,0.0003-0.0001,0.0005v3.6289c0,2.2588,3.1987,4.0293,7.2827,4.0293
		s7.2832-1.7705,7.2832-4.0293v-3.6289C22.2832,20.9691,22.2798,20.9636,22.2795,20.9572z M21.4399,7.5411l0.0047,1.6223
		c-0.0022,0.0169-0.01,0.0319-0.01,0.0494c0,1.7363-2.9453,3.2031-6.4326,3.2031s-6.4336-1.4668-6.4336-3.2031
		c0-0.0208-0.0088-0.0386-0.0118-0.0585L8.562,7.5388c1.187,1.2913,3.5947,2.158,6.44,2.158
		C17.8453,9.6968,20.252,8.8311,21.4399,7.5411z M8.5502,11.0438c1.1826,1.2988,3.5965,2.172,6.4517,2.172
		c0.1283,0,0.2529-0.0068,0.3794-0.0103v10.9886c-0.1269,0.0039-0.2529,0.0099-0.3813,0.0099c-3.5142,0-6.4829-1.4785-6.4829-3.2285
		L8.5502,11.0438z M16.1816,13.1602c0.9724-0.0851,1.873-0.2728,2.668-0.5447v10.9331c-0.7798,0.293-1.6872,0.5026-2.668,0.5969
		V13.1602z M19.6504,12.3016c0.7461-0.3423,1.3568-0.7687,1.7996-1.2536l0.0288,9.9617c-0.0186,0.838-0.7177,1.6104-1.8284,2.1864
		V12.3016z M14.9634,2.3525c3.4478,0,6.4712,1.5615,6.4712,3.3418c0,1.7358-2.9453,3.2026-6.4326,3.2026
		S8.5684,7.4302,8.5684,5.6943C8.5684,3.9141,11.5566,2.3525,14.9634,2.3525z M8.5171,24.6045v-1.7712
		c1.1954,1.2991,3.619,2.1716,6.4829,2.1716c0.129,0,0.2542-0.0068,0.3813-0.0103v2.8285C15.2545,27.827,15.1285,27.833,15,27.833
		C11.4858,27.833,8.5171,26.3545,8.5171,24.6045z M16.1816,27.7744v-2.825c2.3397-0.2036,4.2737-0.9998,5.3008-2.1151v1.7702
		C21.4824,26.1539,19.1539,27.4883,16.1816,27.7744z"/>
	<path class="st0" d="M15,6.7754c1.2881,0,2.2598-0.5713,2.2598-1.3291v-1.311c0-0.0002-0.0001-0.0004-0.0001-0.0007
		s0.0001-0.0005,0.0001-0.0008c0-1.6045-4.5195-1.6055-4.519,0c0,0.0002,0.0001,0.0005,0.0001,0.0008s-0.0001,0.0004-0.0001,0.0007
		v1.311C12.7407,6.2041,13.7119,6.7754,15,6.7754z M15,5.9756c-0.9478,0-1.4595-0.3755-1.4595-0.5293V5.0817
		C13.9536,5.2608,14.4761,5.356,15,5.356c0.5238,0,1.046-0.0951,1.459-0.2739v0.3643C16.459,5.6001,15.9478,5.9756,15,5.9756z
		 M15,3.7114c0.9116,0,1.4102,0.3003,1.458,0.4224C16.4102,4.2559,15.9116,4.5562,15,4.5562c-0.9247,0-1.4249-0.3092-1.4595-0.416
		v-0.001C13.5751,4.0206,14.0753,3.7114,15,3.7114z"/>
</g>
</svg>
