<?xml version="1.0" encoding="utf-8"?>
<!-- Generator: Adobe Illustrator 21.0.0, SVG Export Plug-In . SVG Version: 6.00 Build 0)  -->
<svg version="1.1" id="Layer_1" xmlns="http://www.w3.org/2000/svg" xmlns:xlink="http://www.w3.org/1999/xlink" x="0px" y="0px"
	 viewBox="0 0 60 60" style="enable-background:new 0 0 60 60;" xml:space="preserve">
<style type="text/css">
	.st0{fill:#231F20;}
</style>
<path class="st0" d="M48.7,10.2c-1.9-0.3-3.8-0.1-5.4,0.6L27.1,20c0,0-1.8,1.1-3.5,2c-0.7,0.4-1.3,1-1.5,1.3c0,0-0.1,0-0.1,0
	c-0.3,0.1-0.5,0.1-0.8,0.2c-0.3,0.1-0.6,0.2-0.8,0.3c-1.7,0.7-6.3,3.5-6.5,3.7l-1.8,1l0,0c-0.3,0.2-0.6,0.4-0.8,0.6
	c-1.9,1.6-3,4-3,6.7c0,1.1,0.2,2.1,0.5,3.2l-8.2,4.7c-0.2,0.1-0.3,0.4-0.2,0.7c0.1,0.2,0.3,0.3,0.4,0.3c0.1,0,0.2,0,0.2-0.1l8-4.6
	c0.6,1.5,1.6,3,2.8,4.2l-5.3,3c-0.2,0.1-0.3,0.4-0.2,0.7c0.1,0.2,0.3,0.3,0.4,0.3c0.1,0,0.2,0,0.2-0.1l5.5-3.2
	c1.6,1.4,3.6,2.4,5.7,2.8c0.6,0.1,1.2,0.2,1.8,0.2c1.4,0,2.7-0.3,3.9-0.9l0,0l0,0c0.3-0.1,0.6-0.3,0.8-0.5l1.9-1.1
	C27,45.2,29.3,44,31,43c1.1-0.6,2.1-1.3,2.9-2.3c0.5-0.1,1.4-0.2,1.7-0.4c1.1-0.6,2.7-1.6,2.7-1.6l15-8.6c3.7-2.1,5.4-4.7,5.4-8.1
	C58.7,16.5,54.2,11.2,48.7,10.2z M24.1,22.9c1.8-0.9,3.6-2,3.6-2l16-9.1c1.4-0.6,3.1-0.8,4.8-0.5c3.7,0.7,6.9,3.5,8.4,6.9L35,30.8
	c-1.6-3.8-5.1-6.8-9.2-7.6c-0.7-0.1-1.4-0.1-2.1-0.1C23.8,23,23.9,23,24.1,22.9z M20.7,24.8C20.7,24.8,20.7,24.8,20.7,24.8
	L20.7,24.8c0.2-0.1,0.5-0.2,0.7-0.2c0.3-0.1,0.5-0.2,0.8-0.2c1.1-0.2,2.2-0.3,3.4-0.1c3.8,0.7,7.1,3.5,8.5,7.1L27.8,35
	c-1.6-3.8-5.1-6.9-9.2-7.7c-0.8-0.1-1.5-0.2-2.3-0.1C17.8,26.3,19.8,25.2,20.7,24.8z M34.9,35.1c0,1.9-0.6,3.6-1.7,5
	c-0.4,0.4-1.2,1.1-1.5,1.4c-0.8,0.6-3,1.8-4.3,2.5c0.8-1.4,1.3-3,1.3-4.7c0-1.1-0.2-2.2-0.5-3.2c0,0,0,0,0.1,0l6.3-3.6
	C34.7,33.2,34.9,34.1,34.9,35.1z M10.1,39.4l2.2-1.3c0.4,1.6,1.4,3.1,2.7,4.2l-2.2,1.3C11.6,42.4,10.7,41,10.1,39.4z M16,36
	c0.2,0.1,0.4,0.2,0.6,0.2c0.6,0,1.1-0.5,1.1-1.1s-0.5-1.1-1.1-1.1s-1.1,0.5-1.1,1.1c0,0,0,0,0,0l-2.5,1.4c0,0,0-0.1,0-0.1
	c0-1.4,0.5-2.7,1.5-3.5c0.8-0.7,1.8-1,2.9-1c0.3,0,0.6,0,1,0.1c3,0.5,5.5,3.5,5.5,6.5c0,1.4-0.5,2.7-1.5,3.5c-1,0.8-2.4,1.2-3.8,0.9
	c-0.6-0.1-1.1-0.3-1.6-0.5l2.5-1.4c0.2,0.1,0.4,0.2,0.6,0.2c0.6,0,1.1-0.5,1.1-1.1s-0.5-1.1-1.1-1.1S19,39.4,19,40c0,0,0,0,0,0
	l-3,1.7c-1.4-1-2.4-2.5-2.8-4.2L16,36z M18.6,46.6c-1.8-0.3-3.5-1.2-5-2.3l2.3-1.3c0.8,0.5,1.6,0.8,2.5,0.9c0.4,0.1,0.8,0.1,1.1,0.1
	c1.3,0,2.5-0.4,3.5-1.2c1.2-1,1.9-2.5,1.9-4.2c0-3.5-2.8-6.9-6.3-7.5c-1.7-0.3-3.4,0.1-4.6,1.1c-1.2,1-1.9,2.5-1.9,4.2
	c0,0.2,0,0.4,0,0.6l-2.4,1.4c-0.2-0.9-0.4-1.8-0.4-2.7c0-2.4,0.9-4.5,2.6-5.9c1.3-1.1,3-1.7,4.9-1.7c0.5,0,1.1,0,1.6,0.1
	c5.1,0.9,9.2,5.8,9.2,10.9c0,2.4-0.9,4.5-2.6,5.9c-0.2,0.2-0.4,0.3-0.6,0.5L23.6,46C22.1,46.7,20.4,47,18.6,46.6z M52.8,29.3
	l-15,8.6c0,0-1.7,1-2.7,1.6c-0.1,0-0.2,0.1-0.4,0.1c0.8-1.3,1.2-2.8,1.2-4.5c0-1.1-0.2-2.2-0.5-3.3L57.2,19c0.3,1,0.5,2,0.5,3
	C57.7,25.1,56.2,27.4,52.8,29.3z"/>
</svg>
