<?xml version="1.0" encoding="utf-8"?>
<!-- Generator: Adobe Illustrator 21.0.0, SVG Export Plug-In . SVG Version: 6.00 Build 0)  -->
<svg version="1.1" id="Layer_1" xmlns="http://www.w3.org/2000/svg" xmlns:xlink="http://www.w3.org/1999/xlink" x="0px" y="0px"
	 viewBox="0 0 30 30" style="enable-background:new 0 0 30 30;" xml:space="preserve">
<style type="text/css">
	.st0{fill:#231F20;}
</style>
<path class="st0" d="M28.5728,8.6428c-0.0037-0.0382-0.0178-0.0748-0.0329-0.1116c-0.7712-2.0154-2.6152-3.6695-4.7674-4.0488
	c-0.9854-0.1729-1.9492-0.0664-2.8232,0.3276l-8.0479,4.5894c-0.0029,0.0015-0.8857,0.5352-1.7588,0.9985
	c-0.3633,0.1929-0.6475,0.4922-0.7871,0.6572c-0.0081,0.0023-0.0204,0.0058-0.0291,0.0082
	c-0.1238,0.0289-0.244,0.0657-0.3641,0.1047c-0.1678,0.0504-0.3345,0.1038-0.432,0.1454C8.668,11.6841,6.373,13.0938,6.2881,13.146
	l-0.8853,0.502l0.0189,0.0334c-0.149,0.0958-0.3064,0.177-0.4437,0.2923c-0.9868,0.8276-1.5298,2.0518-1.5298,3.4463
	c0,0.5121,0.0978,1.0143,0.2372,1.5062l-2.413,1.3874c-0.1919,0.1104-0.2578,0.3545-0.1475,0.5459
	c0.0737,0.1289,0.2085,0.2012,0.3472,0.2012c0.0674,0,0.1362-0.0176,0.1987-0.0537l2.2808-1.3114
	c0.2936,0.6747,0.7066,1.2967,1.2115,1.8423L2.6724,22.96c-0.1919,0.1094-0.2588,0.3545-0.1489,0.5459
	c0.0737,0.1289,0.2085,0.2021,0.3477,0.2021c0.0669,0,0.1353-0.0176,0.1978-0.0527l2.6857-1.5336
	c0.817,0.6888,1.7957,1.1819,2.8489,1.3676c0.3115,0.0557,0.6191,0.082,0.9204,0.082c0.7226,0,1.4005-0.1693,2.0102-0.4733
	l0.0054,0.0095l0.0973-0.0562c0.0732-0.039,0.1443-0.081,0.2151-0.1243l1.065-0.6154c0.0646-0.0336,1.2458-0.6483,2.0851-1.1437
	c0.5665-0.2828,1.0505-0.662,1.4376-1.1161c0.2634-0.0435,0.6677-0.1231,0.8611-0.2285c0.541-0.2979,1.377-0.7852,1.377-0.7852
	l7.4775-4.2837c1.8916-1.0913,2.7734-2.4268,2.7734-4.2026C28.9287,9.8994,28.7944,9.257,28.5728,8.6428z M4.6379,19.3008
	l0.8483-0.4877c0.2214,0.7062,0.6406,1.3538,1.1995,1.8552l-0.8129,0.4642C5.3489,20.6015,4.9187,19.9822,4.6379,19.3008z
	 M9.3309,20.0796c0.043,0.0112,0.0844,0.0272,0.1307,0.0272c0.3021,0,0.5469-0.2518,0.5469-0.5625s-0.2448-0.5625-0.5469-0.5625
	c-0.2442,0-0.4438,0.1677-0.514,0.395l-1.5239,0.8702c-0.6044-0.4583-1.0543-1.1163-1.2303-1.8405l1.4167-0.8146
	c0.0457,0.0127,0.0901,0.029,0.1396,0.029c0.302,0,0.5469-0.2519,0.5469-0.5625c0-0.3107-0.2449-0.5625-0.5469-0.5625
	c-0.2419,0-0.4405,0.1642-0.5126,0.3881l-1.1107,0.6387c0.0518-0.567,0.2843-1.0618,0.6885-1.4005
	c0.3647-0.3062,0.8286-0.4658,1.3374-0.4658c0.147,0,0.2979,0.0132,0.4512,0.0405c1.4541,0.2563,2.6377,1.646,2.6377,3.0972
	c0,0.6641-0.2524,1.2422-0.7104,1.626c-0.4697,0.3955-1.1035,0.543-1.7886,0.4258c-0.1735-0.0306-0.3424-0.0795-0.5067-0.1406
	L9.3309,20.0796z M11.853,21.9561c-0.1832,0.1538-0.3848,0.2784-0.5937,0.3892l-0.0991,0.0572
	c-0.7075,0.3453-1.5397,0.4524-2.4181,0.2997c-0.8166-0.1442-1.5726-0.5128-2.2333-1.0112l0.8879-0.507
	c0.3747,0.2144,0.7799,0.3737,1.2067,0.4489c0.2007,0.0361,0.3994,0.0537,0.5938,0.0537c0.6948,0,1.3359-0.2246,1.8477-0.6533
	c0.6426-0.5391,0.9961-1.335,0.9961-2.2393c0-1.8213-1.4795-3.5645-3.2988-3.8853c-0.9189-0.1597-1.7871,0.0508-2.4414,0.6001
	c-0.6426,0.5391-0.9961,1.335-0.9961,2.2393c0,0.0786,0.0178,0.1555,0.0232,0.2336l-0.9353,0.5378
	c-0.0858-0.361-0.1445-0.7275-0.1445-1.0995c0-1.1543,0.4419-2.1606,1.2441-2.8335c0.6387-0.5361,1.4482-0.8159,2.3335-0.8159
	c0.2539,0,0.5137,0.0229,0.7778,0.0698c2.4775,0.4365,4.4937,2.8062,4.4937,5.2817C13.0972,20.2764,12.6553,21.2832,11.853,21.9561z
	 M8.7422,13.0522c-0.2225-0.0391-0.4377-0.0391-0.6552-0.0502c0.6558-0.3833,1.3754-0.7887,1.7582-0.9532
	c0.0014-0.0006,0.0048-0.0016,0.0063-0.0023l0.0025,0.0057c0.0959-0.043,0.1987-0.0712,0.2988-0.1057
	c0.1304-0.0394,0.2677-0.0789,0.3948-0.114c0.5186-0.1153,1.0738-0.1324,1.6439-0.0328c1.8178,0.3186,3.3782,1.6687,4.0939,3.3332
	l-2.9041,1.6886C12.5511,14.9366,10.7918,13.4135,8.7422,13.0522z M15.8884,19.4575c-0.2315,0.2264-0.5833,0.5602-0.719,0.6588
	c-0.3253,0.2365-1.0776,0.6575-1.6978,0.9938c0.2754-0.5977,0.4253-1.2686,0.4253-1.988c0-0.5212-0.1007-1.0325-0.2449-1.5326
	l2.891-1.681c0.0969,0.3817,0.165,0.7694,0.165,1.1638C16.708,17.9807,16.4135,18.8052,15.8884,19.4575z M12.3296,11.0117
	c-0.1799-0.0314-0.3578-0.0432-0.5358-0.0562c0.7902-0.4303,1.5128-0.8661,1.5124-0.8661l8.0054-4.5669
	c0.6914-0.3105,1.4941-0.3965,2.3223-0.252c1.7751,0.3126,3.2985,1.6229,4.0283,3.2473l-10.6918,6.2169
	C16.1285,12.8718,14.3735,11.37,12.3296,11.0117z M25.7559,14.0605l-7.4785,4.2842c0,0-0.6652,0.3885-1.1866,0.6802
	c0.2701-0.5923,0.418-1.2515,0.418-1.9527c0-0.5359-0.106-1.0615-0.2593-1.5746L27.934,9.285
	c0.1136,0.4143,0.1939,0.8365,0.1939,1.2668C28.1279,12.0322,27.3965,13.1147,25.7559,14.0605z"/>
</svg>
