<?xml version="1.0" encoding="utf-8"?>
<!-- Generator: Adobe Illustrator 21.0.0, SVG Export Plug-In . SVG Version: 6.00 Build 0)  -->
<svg version="1.1" id="Layer_1" xmlns="http://www.w3.org/2000/svg" xmlns:xlink="http://www.w3.org/1999/xlink" x="0px" y="0px"
	 viewBox="0 0 30 30" style="enable-background:new 0 0 30 30;" xml:space="preserve">
<style type="text/css">
	.st0{fill:#231F20;}
</style>
<circle class="st0" cx="-56.9167" cy="-28.5" r="0"/>
<g>
	<path class="st0" d="M9.0249,17.2734v-4.1348h1.8291h0.2368v4.1348c0,0.2207,0.1792,0.4004,0.3999,0.4004h3.1597
		c0.2207,0,0.3999-0.1797,0.3999-0.4004v-4.1348H16c0.0605,0,0.1221-0.0137,0.1807-0.043l1.4258-0.7202
		c0.0898-0.0454,0.1602-0.124,0.1943-0.2188l0.5938-1.6152c0.0166-0.0444,0.0254-0.0913,0.0254-0.1382V2.1699
		c0-0.0319-0.0111-0.0601-0.0182-0.0898c-0.0021-0.0094,0.0034-0.0185,0.0006-0.0278c-0.0016-0.0051-0.007-0.0074-0.0087-0.0123
		c-0.0246-0.0703-0.0677-0.1288-0.1243-0.175c-0.0121-0.0099-0.0239-0.0166-0.037-0.025C18.1697,1.7994,18.0994,1.77,18.0195,1.77
		H3.6885c-0.0757,0-0.1499,0.0215-0.2139,0.062L1.9907,2.7705c-0.0126,0.008-0.0197,0.0206-0.0311,0.0297
		c-0.0214,0.017-0.0405,0.0345-0.058,0.0554C1.8849,2.8757,1.8715,2.8962,1.8591,2.9188c-0.0121,0.022-0.022,0.0438-0.0299,0.0681
		C1.8207,3.0132,1.816,3.0391,1.8131,3.0667C1.8115,3.0811,1.8047,3.0936,1.8047,3.1084v8.167c0,0.0552,0.0112,0.1094,0.0332,0.1597
		l0.6372,1.4634c0.0635,0.146,0.2075,0.2402,0.3667,0.2402h2.2231v4.1348c0,0.2207,0.1792,0.4004,0.3999,0.4004H8.625
		C8.8457,17.6738,9.0249,17.4941,9.0249,17.2734z M8.625,12.3389H8.3877V7.334h2.0664v5.0049H8.625z M5.4648,12.3389H5.228V6.9341
		c0-0.2207-0.1792-0.3999-0.3999-0.3999H2.6045V3.5083h13.6318v3.0259h-2.2227c-0.2207,0-0.3999,0.1792-0.3999,0.3999v5.4048h-2.123
		h-0.2368V6.9341c0-0.2207-0.1792-0.3999-0.3999-0.3999H7.9878c-0.2207,0-0.3999,0.1792-0.3999,0.3999v5.4048H5.4648z
		 M14.6504,12.3389h-0.2368V7.334h1.8228v3.7881l-0.5034,1.2168H14.6504z M14.2505,16.873h-2.3599v-3.7344h2.3599V16.873z
		 M17.1045,11.7324l-0.3225,0.163l0.2239-0.5405c0.0205-0.0488,0.0313-0.1006,0.0313-0.1533V3.3201l0.582-0.395v7.4069
		L17.1045,11.7324z M3.8042,2.5698h12.9136l-0.2043,0.1387H3.585L3.8042,2.5698z M2.6045,11.1919V7.334h1.8237v5.0049H3.104
		L2.6045,11.1919z M8.2251,16.873H5.8647v-3.7344h2.123h0.2373V16.873z"/>
	<path class="st0" d="M28.6045,16.7617c-0.2871-1.6299-1.8496-2.9556-3.4824-2.9556c-0.6494,0-1.0381,0.1929-1.6006,0.5112
		c-0.0013,0.0007-0.002,0.0021-0.0033,0.0029c-0.0005,0.0003-0.0011,0.0002-0.0016,0.0005l-3.4043,2.0044
		c-0.0158,0.0093-0.0252,0.0242-0.0392,0.0352c-0.0035,0.0019-0.0068,0.0038-0.0102,0.0058
		c-0.0039,0.002-0.0082,0.0018-0.0121,0.0039l-9.1514,5.2181c-0.0162,0.0093-0.0302,0.0165-0.0469,0.0261l-0.1606,0.0918
		c-0.0006,0.0004-0.0009,0.001-0.0015,0.0013l-3.5429,2.0201c-0.0263,0.015-0.0441,0.0377-0.0656,0.0572
		c-0.2515,0.1433-0.4843,0.3166-0.6737,0.5424c-0.4946,0.5898-0.687,1.3701-0.541,2.1973c0.2871,1.6299,1.8496,2.9561,3.4824,2.9561
		c0.6155,0,1.1739-0.1838,1.6199-0.5232l3.6656-2.0928c0.0003-0.0002,0.0007-0.0001,0.001-0.0002
		c0.0005-0.0003,0.0009-0.0009,0.0014-0.0012l8.8497-5.0524c0.0193-0.0062,0.0399-0.0045,0.0585-0.0139
		c0.1374-0.0684,0.2639-0.1494,0.3827-0.2383l3.5255-2.079c0.0053-0.0031,0.0081-0.0085,0.0131-0.0118
		c0.0038-0.0024,0.0085-0.0013,0.0123-0.0038C28.373,18.8457,28.7939,17.8359,28.6045,16.7617z M23.328,20.98l-7.7012,4.3967
		c0.066-0.3671,0.0869-0.7634,0.0079-1.2107c-0.0651-0.3693-0.2029-0.7193-0.3848-1.0455l6.5245-3.8442
		c0.1904-0.1123,0.2539-0.3574,0.1416-0.5479c-0.1123-0.1914-0.3594-0.252-0.5479-0.1416l-6.581,3.8774
		c-0.4845-0.5469-1.1257-0.9482-1.8209-1.1333l7.3818-4.2091c0.2944-0.1933,0.655-0.2968,1.0454-0.2968
		c1.2617,0,2.4707,1.0293,2.6943,2.2939C24.227,19.9141,23.9286,20.6017,23.328,20.98z M11.8834,27.5139
		c0.0792-0.3558,0.0917-0.7357,0.0224-1.1282c-0.2455-1.3921-1.4218-2.5546-2.7756-2.8673l2.1824-1.2444
		c0.3365-0.1929,0.4805-0.2633,0.8403-0.2633c1.2627,0,2.4712,1.0293,2.6938,2.2939c0.0747,0.4218,0.1659,1.447-0.5901,1.8543
		L11.8834,27.5139z M6.6553,26.3857c-0.1045-0.5908,0.0259-1.1396,0.3657-1.5449c0.3311-0.3945,0.8291-0.6113,1.4023-0.6113
		c1.2622,0,2.4712,1.0293,2.6943,2.2949c0.1045,0.5898-0.0254,1.1387-0.3657,1.5439c-0.3311,0.3945-0.8291,0.6113-1.4023,0.6113
		C8.0869,28.6797,6.8779,27.6504,6.6553,26.3857z M27.03,18.8005l-2.1763,1.2834c0.0742-0.3479,0.0889-0.7191,0.0212-1.1035
		c-0.2472-1.4034-1.4412-2.5762-2.8096-2.8766l1.8574-1.0936c0.0004-0.0002,0.0005-0.0005,0.0009-0.0007
		c0.5059-0.286,0.7585-0.4036,1.1984-0.4036c1.2627,0,2.4717,1.0293,2.6953,2.2944C27.9517,17.6673,27.6641,18.3589,27.03,18.8005z"
		/>
</g>
</svg>
