<?xml version="1.0" encoding="utf-8"?>
<!-- Generator: Adobe Illustrator 21.0.0, SVG Export Plug-In . SVG Version: 6.00 Build 0)  -->
<svg version="1.1" id="Layer_1" xmlns="http://www.w3.org/2000/svg" xmlns:xlink="http://www.w3.org/1999/xlink" x="0px" y="0px"
	 viewBox="0 0 60 60" style="enable-background:new 0 0 60 60;" xml:space="preserve">
<style type="text/css">
	.st0{fill:#231F20;}
</style>
<g>
	<path class="st0" d="M17.5,34v-8.6h4.8V34c0,0.3,0.2,0.5,0.5,0.5h6.3c0.3,0,0.5-0.2,0.5-0.5v-8.6h2.2c0.1,0,0.2-0.1,0.3-0.1
		l2.9-1.4c0.1-0.1,0.2-0.2,0.2-0.3l1.2-3.2c0-0.1,0-0.1,0-0.2V3.7c0-0.3-0.2-0.5-0.5-0.5c0,0,0,0,0,0c0,0,0,0-0.1,0H7.1
		c0,0-0.1,0-0.2,0.1L4,5.1c-0.1,0-0.1,0.1-0.2,0.1C3.7,5.3,3.7,5.5,3.7,5.6c0,0,0,0,0,0V22c0,0.1,0,0.1,0,0.2L5,25.1
		c0.1,0.2,0.3,0.3,0.5,0.3h4.7V34c0,0.3,0.2,0.5,0.5,0.5H17C17.3,34.5,17.5,34.3,17.5,34z M9.4,12.9H4.7V6.1h27.9v6.8h-4.8
		c-0.2,0-0.3,0.1-0.3,0.3v11.2h-5.7V13.2c0-0.2-0.1-0.3-0.3-0.3h-5.7c-0.2,0-0.3,0.1-0.3,0.3v11.2H9.7V13.2
		C9.7,13,9.6,12.9,9.4,12.9z M31.5,24.4h-3.4V13.5h4.5v8.2L31.5,24.4z M16,24.4V13.6h5.2v10.8H16z M28.6,33.5h-5.3v-8.1h5.3V33.5z
		 M34.3,23l-1.6,0.8l0.8-1.8c0-0.1,0-0.1,0-0.2V5.9l1.9-1.2V20L34.3,23z M7.3,4.2h26.8l-1.3,0.9h-27L7.3,4.2z M4.7,21.8v-8.3h4.4
		v10.9H5.8L4.7,21.8z M11.2,33.5v-8.1h5.3v8.1H11.2z"/>
	<path class="st0" d="M56.7,33c-0.6-3.2-3.6-5.7-6.7-5.7c-1.3,0-2,0.4-3.1,1c0,0-0.1,0.1-0.1,0.1l-6.7,4c0,0-0.1,0-0.1,0l-17.7,10
		c-0.1,0.1-0.3,0.2-0.4,0.3L14.2,47c0,0,0,0-0.1,0.1c-0.5,0.3-1,0.6-1.3,1.1c-0.9,1.2-1.3,2.6-1,4.2c0.6,3.2,3.6,5.7,6.7,5.7
		c1,0,1.9-0.3,2.7-0.8c0,0,0,0,0,0l26.2-14.9l7.1-4.2C56.3,36.9,57.1,35,56.7,33z M42.6,32.8c2.7,0,5.2,2.1,5.7,4.8
		c0.3,1.8-0.5,3.4-2,4.2l-15.8,9c0.3-0.9,0.4-1.9,0.2-3c-0.2-0.8-0.5-1.6-0.9-2.3l13.3-7.9c0.1-0.1,0.2-0.3,0.1-0.4
		c-0.1-0.1-0.3-0.2-0.4-0.1l-13.4,7.8c-1.1-1.4-2.7-2.5-4.4-2.7l15.2-8.6c0,0,0.1,0,0.1,0c0.1-0.1,0.3-0.2,0.4-0.2c0,0,0,0,0,0
		l0.1-0.1C41.4,32.9,41.9,32.8,42.6,32.8z M23,55c0.4-0.9,0.5-1.8,0.3-2.9c-0.6-2.9-3.1-5.3-6-5.6l5.1-2.9c0.6-0.3,1-0.4,1.6-0.4
		c2.7,0,5.2,2.1,5.7,4.8c0.4,1.9-0.1,3.4-1.3,4L23,55z M12.8,52.1c-0.2-1.2,0.1-2.4,0.8-3.3c0.7-0.8,1.8-1.3,3-1.3
		c2.7,0,5.2,2.2,5.7,4.8c0.2,1.2-0.1,2.4-0.8,3.3c-0.7,0.8-1.8,1.3-3,1.3C15.8,56.9,13.3,54.8,12.8,52.1z M54,37.2
		c0,0-0.1,0.1-0.2,0.2L49,40.2c0.3-0.8,0.3-1.6,0.2-2.6c-0.6-3.1-3.4-5.5-6.3-5.7l4.8-2.9c0,0,0,0,0,0c0.9-0.5,1.5-0.7,2.3-0.7
		c2.7,0,5.2,2.1,5.7,4.8C56,34.7,55.4,36.2,54,37.2z"/>
</g>
</svg>
