<?xml version="1.0" encoding="utf-8"?>
<!-- Generator: Adobe Illustrator 21.0.0, SVG Export Plug-In . SVG Version: 6.00 Build 0)  -->
<svg version="1.1" id="Layer_1" xmlns="http://www.w3.org/2000/svg" xmlns:xlink="http://www.w3.org/1999/xlink" x="0px" y="0px"
	 viewBox="0 0 60 60" style="enable-background:new 0 0 60 60;" xml:space="preserve">
<style type="text/css">
	.st0{fill:#231F20;}
</style>
<g>
	<path class="st0" d="M7.66,28.756c-0.574-0.045-1.15,0.257-1.285,0.675c-0.135,0.418,0.221,0.793,0.795,0.838
		c0.574,0.045,1.15-0.257,1.285-0.675C8.591,29.176,8.234,28.801,7.66,28.756z"/>
	<path class="st0" d="M39.163,11.511c0.574,0.045,1.15-0.257,1.285-0.675c0.135-0.418-0.221-0.793-0.795-0.838
		c-0.574-0.045-1.15,0.257-1.285,0.675C38.233,11.091,38.589,11.466,39.163,11.511z"/>
	<path class="st0" d="M58.2275,27.8608c-0.056-0.0328-0.1175-0.0512-0.1783-0.0712L54.75,25.8885v-8.8294
		c0-0.0206-0.0093-0.0382-0.0117-0.0582c0.0011-0.0237,0.0108-0.0458,0.0107-0.0697c-0.001-0.6353-0.3936-1.2109-1.1064-1.6201
		L39.6582,7.2329c-0.1523-0.0894-0.3447-0.0898-0.501-0.001l-5.5557,3.207c-0.0131,0.0075-0.0185,0.0224-0.0307,0.031
		c-0.0486,0.0341-0.0889,0.0748-0.1226,0.1237c-0.0133,0.0192-0.0274,0.0353-0.0379,0.0562
		c-0.0342,0.0677-0.0578,0.1412-0.0578,0.2222v0.0045c0,0.0013-0.001,0.0025-0.001,0.0038c0,0.0012,0.001,0.0021,0.001,0.0034
		v5.9388l-1.0291,0.6053l-5.3395-3.0162c-0.2417-0.1348-0.5449-0.0508-0.6816,0.1895c-0.1357,0.2407-0.0508,0.5454,0.1895,0.6816
		l4.8351,2.7313l-2.1358,1.2562l-5.3814-3.0514c-0.2393-0.1357-0.5454-0.0518-0.6816,0.1885s-0.0518,0.5454,0.1885,0.6816
		l4.8792,2.7667l-2.1377,1.2573l-5.4236-3.0855c-0.2412-0.1377-0.5449-0.0532-0.6816,0.1875
		c-0.1367,0.2397-0.0527,0.5449,0.1875,0.6816l4.9237,2.801l-2.1379,1.2574L17.46,19.835c-0.2417-0.1392-0.5454-0.0542-0.6821,0.186
		c-0.1372,0.2402-0.0537,0.5454,0.186,0.6821l4.9687,2.8361l-2.1389,1.2579l-5.5081-3.155
		c-0.2407-0.1372-0.5454-0.0542-0.6826,0.1855s-0.0542,0.5449,0.1855,0.6826l5.0121,2.8709l-2.1389,1.258l-5.5509-3.1899
		c-0.2402-0.1382-0.5449-0.0557-0.6826,0.1846c-0.1377,0.2393-0.0552,0.5449,0.1846,0.6826l5.0571,2.9061l-0.5971,0.3512
		c-1.2524,0.7373-3.3735,0.7461-4.6318,0.019L7.665,25.9907c-0.1553-0.0889-0.3457-0.0889-0.5,0l-5.3477,3.0874
		c-0.0005,0.0005-0.001,0.001-0.0015,0.001c-0.0044,0.0024-0.0088,0.0054-0.0127,0.0078c-0.1011,0.062-0.1724,0.1553-0.209,0.2598
		c-0.0005,0.0005-0.0005,0.0005-0.0005,0.001c-0.0088,0.0254-0.0156,0.0518-0.0205,0.0786
		c-0.0054,0.0313-0.0078,0.0635-0.0073,0.0952v12.3633c0,0.1777,0.0947,0.3428,0.2485,0.4316l13.8203,8.0498
		c0.6479,0.3779,1.4805,0.5664,2.313,0.5664c0.8271,0,1.6543-0.1865,2.3003-0.5596l6.3817-3.6995l4.6115,2.6038
		c0.0608,0.0342,0.1264,0.043,0.1915,0.0502c0.0362,0.0281,0.0671,0.0624,0.1073,0.0856c0.1553,0.0898,0.3301,0.1348,0.5146,0.1348
		c0.2295,0,0.4736-0.0693,0.7109-0.208l24.585-14.2217c0.7139-0.4121,1.2852-1.3818,1.2998-2.209l0.0664-4.0483
		C58.7236,28.4126,58.5459,28.0483,58.2275,27.8608z M24.564,44.3584c-0.416-0.2344-0.7808-0.8594-0.7808-1.3369v-3.458
		c0-0.0411,0.0157-0.0876,0.0225-0.1313l7.2606,4.1c-0.0478,0.1487-0.079,0.2973-0.079,0.4386v4.0143L24.564,44.3584z
		 M31.5935,42.6808l-7.2805-4.111c0.0286-0.0218,0.0552-0.053,0.0845-0.0698l25.2666-14.3877l7.0275,4.0493L32.1055,42.2637
		C31.9153,42.3723,31.7471,42.5195,31.5935,42.6808z M34.3525,11.7067l2.1982,1.1752c0.5254,0.2813,0.8311,0.646,0.8379,1.0015
		c0.0078,0.3555-0.2832,0.7324-0.7979,1.0347l-2.2383,1.3164V11.7067z M7.415,27.001l2.5259,1.458
		c1.5854,0.9146,4.062,0.9053,5.6387-0.0229l1.3317-0.7832c0.0003-0.0002,0.0007-0.0004,0.001-0.0005l20.1864-11.872
		c0.8467-0.498,1.3047-1.1792,1.29-1.917c-0.0146-0.7383-0.5-1.3999-1.3672-1.8633l-2.1406-1.1445l4.5254-2.6128l13.7383,7.9351
		c0.3838,0.2207,0.6035,0.4961,0.6045,0.7554c0,0.2588-0.2188,0.5347-0.6016,0.7563L19.7466,37.0527
		c-0.4887,0.2823-1.1453,0.4241-1.8022,0.4257c-0.0016,0-0.0028-0.0009-0.0044-0.0009c-0.0018,0-0.0033,0.001-0.0051,0.001
		c-0.6578,0.0002-1.3151-0.1402-1.804-0.4219L3.0659,29.5122L7.415,27.001z M2.5659,41.5977V30.3784l13.0654,7.5444
		c0.5172,0.2978,1.1516,0.4709,1.8086,0.5305v11.4484c-0.4813-0.0547-0.9388-0.1873-1.3022-0.3988L2.5659,41.5977z M19.7466,49.5078
		c-0.3649,0.2112-0.824,0.3429-1.3066,0.3959V38.4523c0.6572-0.0608,1.2914-0.2353,1.8081-0.5344l33.4014-19.3633
		c0.0378-0.022,0.0646-0.0492,0.1006-0.0721v6.8297l-3.834-2.2092c-0.1533-0.0879-0.3438-0.0889-0.4971-0.0015L23.9014,37.6318
		c-0.6377,0.3652-1.1182,1.1953-1.1182,1.9316v3.458c0,0.8291,0.5659,1.7988,1.2891,2.208l1.5472,0.8736L19.7466,49.5078z
		 M57.6504,32.8926c-0.0088,0.4834-0.3818,1.1182-0.7998,1.3594L32.2646,48.4746c-0.1387,0.0801-0.2178,0.0771-0.2246,0.0732
		c-0.0117-0.0088-0.0527-0.0752-0.0527-0.2344v-4.3428c0-0.2256,0.2686-0.6406,0.6152-0.8389l25.0127-14.3472
		c0.0439-0.0254,0.0791-0.0386,0.0918-0.0518c0.0059,0.0239,0.0107,0.061,0.0098,0.1118L57.6504,32.8926z"/>
	<path class="st0" d="M34.5303,43.3701c-0.0508-0.0508-0.1201-0.1006-0.1904-0.1299c-0.2197-0.0908-0.4902-0.0303-0.6602,0.1299
		c-0.0498,0.0596-0.0996,0.1201-0.1299,0.1992c-0.0303,0.0703-0.04,0.1504-0.04,0.2305c0,0.1602,0.0596,0.3096,0.1699,0.4199
		c0.1201,0.1104,0.2705,0.1797,0.4297,0.1797c0.0801,0,0.1504-0.0195,0.2305-0.0498c0.0703-0.0303,0.1396-0.0693,0.1904-0.1299
		c0.0596-0.0498,0.0996-0.1201,0.1299-0.1895c0.0293-0.0801,0.0498-0.1504,0.0498-0.2305s-0.0205-0.1602-0.0498-0.2305
		C34.6299,43.4902,34.5898,43.4297,34.5303,43.3701z"/>
	<path class="st0" d="M36.4502,41.7695c-0.29,0.1699-0.3906,0.5303-0.2305,0.8203c0.1104,0.1904,0.3203,0.2998,0.5205,0.2998
		c0.1094,0,0.21-0.0195,0.2998-0.0801c0.29-0.1602,0.3896-0.5293,0.2295-0.8096C37.0996,41.71,36.7295,41.6094,36.4502,41.7695z"/>
	<path class="st0" d="M39.0801,40.2695c-0.29,0.1602-0.3799,0.5303-0.2207,0.8203c0.1104,0.1904,0.3105,0.2998,0.5205,0.2998
		c0.0996,0,0.2002-0.0303,0.2998-0.0801c0.29-0.1602,0.3799-0.5293,0.2197-0.8193C39.7402,40.2002,39.3701,40.0996,39.0801,40.2695z
		"/>
	<path class="st0" d="M46.9902,35.7598c-0.29,0.1602-0.3809,0.5303-0.2207,0.8096c0.1104,0.2002,0.3105,0.3105,0.5205,0.3105
		c0.0996,0,0.2002-0.0303,0.2998-0.0801c0.29-0.1699,0.3896-0.5303,0.2197-0.8203C47.6494,35.6895,47.2803,35.5898,46.9902,35.7598z
		"/>
	<path class="st0" d="M52.2695,32.75c-0.29,0.1602-0.3896,0.5303-0.2295,0.8193c0.1094,0.1904,0.3193,0.3008,0.5195,0.3008
		c0.1104,0,0.21-0.0303,0.2998-0.0801c0.29-0.1602,0.3906-0.5303,0.2207-0.8203C52.9199,32.6797,52.5596,32.5898,52.2695,32.75z"/>
	<path class="st0" d="M44.3594,37.2598c-0.29,0.1699-0.3896,0.5303-0.2295,0.8203c0.1104,0.1895,0.3096,0.2998,0.5195,0.2998
		c0.1006,0,0.21-0.0205,0.3008-0.0801c0.29-0.1602,0.3896-0.5303,0.2295-0.8203C45.0098,37.2002,44.6494,37.0996,44.3594,37.2598z"
		/>
	<path class="st0" d="M49.6299,34.25c-0.29,0.1699-0.3896,0.5303-0.2197,0.8193c0.1094,0.2002,0.3096,0.3008,0.5195,0.3008
		c0.1006,0,0.2002-0.0205,0.2998-0.0801c0.2803-0.1602,0.3799-0.5303,0.2207-0.8105C50.2803,34.1895,49.9199,34.0898,49.6299,34.25z
		"/>
	<path class="st0" d="M41.7197,38.7598c-0.29,0.1699-0.3896,0.54-0.2197,0.8203c0.1094,0.2002,0.3096,0.3096,0.5195,0.3096
		c0.1006,0,0.2002-0.0303,0.29-0.0801c0.29-0.1699,0.3906-0.5293,0.2305-0.8193C42.3701,38.7002,42.0098,38.5996,41.7197,38.7598z"
		/>
	<path class="st0" d="M55.4297,31.21c-0.2197-0.0801-0.4795-0.0303-0.6494,0.1299c-0.1104,0.1104-0.1807,0.2695-0.1807,0.4297
		s0.0605,0.3105,0.1807,0.4199c0.1094,0.1201,0.2598,0.1807,0.4199,0.1807c0.0801,0,0.1592-0.0205,0.2295-0.0508
		C55.5,32.29,55.5693,32.25,55.6201,32.1895c0.1201-0.1094,0.1797-0.2598,0.1797-0.4199s-0.0596-0.3193-0.1699-0.4297
		C55.5693,31.29,55.5,31.2402,55.4297,31.21z"/>
	<path class="st0" d="M33.6494,45.8496c-0.2295-0.2197-0.6396-0.2197-0.8496,0c-0.1104,0.1104-0.1797,0.2705-0.1797,0.4199
		c0,0.1699,0.0596,0.3203,0.1797,0.4307c0.0498,0.0596,0.1201,0.0996,0.1904,0.1299c0.0693,0.0293,0.1494,0.04,0.2295,0.04
		c0.1602,0,0.3105-0.0605,0.4199-0.1699c0.1201-0.1104,0.1797-0.2607,0.1797-0.4307c0-0.0693-0.0195-0.1494-0.0498-0.2295
		C33.7402,45.9697,33.7002,45.8994,33.6494,45.8496z"/>
	<path class="st0" d="M51.0303,35.4297c-0.29,0.1602-0.3906,0.5303-0.2305,0.8203c0.1104,0.1895,0.3203,0.2998,0.5303,0.2998
		c0.0996,0,0.2002-0.0303,0.29-0.0801c0.29-0.1602,0.3896-0.5303,0.2295-0.8203C51.6797,35.3594,51.3096,35.2598,51.0303,35.4297z"
		/>
	<path class="st0" d="M40.6797,41.3301c-0.29,0.1602-0.3896,0.5293-0.2197,0.8193c0.1094,0.1904,0.3096,0.3008,0.5195,0.3008
		c0.1006,0,0.2002-0.0303,0.3008-0.0801c0.2793-0.1699,0.3799-0.5303,0.2197-0.8203S40.9697,41.1602,40.6797,41.3301z"/>
	<path class="st0" d="M45.8496,38.3799c-0.2803,0.1602-0.3799,0.5303-0.2197,0.8203c0.1104,0.1895,0.3096,0.2998,0.5195,0.2998
		c0.1006,0,0.2002-0.0303,0.3008-0.0801c0.29-0.1602,0.3896-0.5303,0.2197-0.8203C46.5098,38.3096,46.1396,38.21,45.8496,38.3799z"
		/>
	<path class="st0" d="M43.2695,39.8496c-0.29,0.1699-0.3896,0.5303-0.2295,0.8203c0.1094,0.1895,0.3193,0.2998,0.5293,0.2998
		c0.1006,0,0.2002-0.0195,0.29-0.0703c0.29-0.1699,0.3906-0.54,0.2305-0.8193C43.9199,39.79,43.5596,39.6895,43.2695,39.8496z"/>
	<path class="st0" d="M48.4395,36.8994c-0.29,0.1699-0.3896,0.5303-0.2197,0.8203c0.1104,0.1904,0.3105,0.2998,0.5205,0.2998
		c0.0996,0,0.1992-0.0195,0.2998-0.0801c0.2793-0.1592,0.3799-0.5293,0.2197-0.8096
		C49.0996,36.8398,48.7295,36.7402,48.4395,36.8994z"/>
	<path class="st0" d="M38.0996,42.7998c-0.29,0.1699-0.3896,0.5303-0.2295,0.8203c0.1094,0.1895,0.3096,0.2998,0.5195,0.2998
		c0.1006,0,0.2002-0.0205,0.2998-0.0801c0.29-0.1602,0.3906-0.5303,0.2207-0.8203C38.75,42.7402,38.3799,42.6396,38.0996,42.7998z"
		/>
	<path class="st0" d="M35.5098,44.2803c-0.29,0.1592-0.3896,0.5293-0.2295,0.8193c0.1191,0.1904,0.3193,0.2998,0.5293,0.2998
		c0.1006,0,0.2002-0.0293,0.29-0.0801c0.29-0.1699,0.3906-0.5293,0.2305-0.8193C36.1602,44.21,35.7998,44.1094,35.5098,44.2803z"/>
	<path class="st0" d="M53.6094,33.9502c-0.2793,0.1699-0.3799,0.5293-0.2197,0.8193c0.1104,0.2002,0.3105,0.2998,0.5205,0.2998
		c0.0996,0,0.1992-0.0195,0.2998-0.0693c0.29-0.1699,0.3896-0.54,0.2197-0.8203C54.2695,33.8896,53.8994,33.79,53.6094,33.9502z"/>
	<path class="st0" d="M56.7295,32.4502c-0.2197-0.0908-0.4893-0.04-0.6602,0.1299c-0.0498,0.0498-0.0898,0.1201-0.1299,0.1895
		c-0.0293,0.0703-0.04,0.1504-0.04,0.2305c0,0.1602,0.0605,0.3096,0.1807,0.4199c0.1094,0.1201,0.2598,0.1797,0.4199,0.1797
		c0.0801,0,0.1602-0.0195,0.2295-0.0498c0.0703-0.0303,0.1299-0.0703,0.1904-0.1299C57.04,33.3096,57.0996,33.1602,57.0996,33
		s-0.0693-0.3105-0.1797-0.4199C56.8701,32.5195,56.7998,32.4795,56.7295,32.4502z"/>
</g>
</svg>
