<?xml version="1.0" encoding="utf-8"?>
<!-- Generator: Adobe Illustrator 21.0.0, SVG Export Plug-In . SVG Version: 6.00 Build 0)  -->
<svg version="1.1" id="Layer_1" xmlns="http://www.w3.org/2000/svg" xmlns:xlink="http://www.w3.org/1999/xlink" x="0px" y="0px"
	 viewBox="0 0 60 60" style="enable-background:new 0 0 60 60;" xml:space="preserve">
<style type="text/css">
	.st0{fill:#231F20;}
</style>
<g>
	<path class="st0" d="M54.62,17.0904c-0.0098-0.0197-0.0235-0.0349-0.0358-0.0532c-0.0314-0.0466-0.0684-0.0863-0.1133-0.1199
		c-0.0109-0.0082-0.0158-0.0217-0.0275-0.0291l-5.126-3.231c-0.0801-0.0503-0.1719-0.0771-0.2666-0.0771h-1.0791V9.2368
		c0-0.0739-0.0179-0.1425-0.0466-0.2056c-0.2141-0.9146-1.791-1.3732-3.4993-1.4471V2.731c0-0.2764-0.2236-0.5-0.5-0.5
		s-0.5,0.2236-0.5,0.5v4.8531c-1.707,0.0739-3.2827,0.5319-3.4988,1.4449c-0.0294,0.0637-0.048,0.133-0.048,0.2078v4.3433h-1.0791
		c-0.0947,0-0.1865,0.0269-0.2666,0.0771l-5.125,3.231c-0.0117,0.0073-0.0165,0.0209-0.0275,0.0291
		c-0.045,0.0336-0.0819,0.0733-0.1133,0.1199c-0.0123,0.0183-0.026,0.0335-0.0358,0.0532
		c-0.0336,0.0673-0.0568,0.1403-0.0568,0.2206v7.0181c0,0.1719,0.0879,0.3315,0.2334,0.4229l5.125,3.2319
		c0.0082,0.0052,0.019,0.0032,0.0275,0.0079c0.072,0.0402,0.1507,0.0692,0.2391,0.0692h1.0791v21.9419c0,0.2764,0.2236,0.5,0.5,0.5
		s0.5-0.2236,0.5-0.5v-9.1151c0.7797,0.351,1.9096,0.5223,3.0469,0.5223c1.1368,0,2.2662-0.1711,3.0459-0.5218v14.2054
		c0,0.2764,0.2236,0.5,0.5,0.5s0.5-0.2236,0.5-0.5V28.061h1.0791c0.0884,0,0.1671-0.0291,0.2391-0.0692
		c0.0085-0.0047,0.0192-0.0027,0.0275-0.0079l5.126-3.2319c0.1455-0.0913,0.2334-0.251,0.2334-0.4229V17.311
		C54.6768,17.2307,54.6536,17.1577,54.62,17.0904z M40.8789,10.3833c0.7797,0.351,1.9096,0.5225,3.0469,0.5225
		c1.1368,0,2.2662-0.1713,3.0459-0.522v6.7828c-0.1103,0.2033-1.1514,0.6953-3.0459,0.6953c-1.9131,0-2.958-0.5015-3.0459-0.6689
		c0-0.0017-0.001-0.0031-0.001-0.0048V10.3833z M43.4258,8.584v0.6528c0,0.2764,0.2236,0.5,0.5,0.5s0.5-0.2236,0.5-0.5V8.584
		c1.5901,0.0774,2.4667,0.4979,2.5518,0.6206c-0.0938,0.1997-1.1387,0.7012-3.0518,0.7012c-1.8984,0-2.9395-0.4929-3.0469-0.6326
		V9.2637C40.9763,9.0798,41.8491,8.6613,43.4258,8.584z M38.9443,14.5801h0.9346v2.6128c0,0.0748,0.0187,0.1441,0.048,0.2078
		c0.2372,1.0021,2.1151,1.4612,3.9988,1.4612c1.8852,0,3.7643-0.4597,3.9993-1.4634c0.0286-0.063,0.0466-0.1317,0.0466-0.2056
		v-2.6128h0.9346l4.333,2.731l-4.333,2.7319h-9.9619l-4.332-2.7319L38.9443,14.5801z M39.2998,27.061V21.043h9.251v6.0181H39.2998z
		 M34.1748,18.2173l4.125,2.6013v5.8359l-4.125-2.6014V18.2173z M43.9258,40.4102c-1.9131,0-2.958-0.502-3.0459-0.6689
		c0-0.0017-0.001-0.0031-0.001-0.0048v-6.1815c0.7797,0.351,1.9096,0.5223,3.0469,0.5223c1.1368,0,2.2662-0.1711,3.0459-0.5218
		v6.1591C46.8614,39.9183,45.8203,40.4102,43.9258,40.4102z M46.9717,32.3815c-0.1103,0.2038-1.1514,0.6957-3.0459,0.6957
		c-1.9131,0-2.958-0.502-3.0459-0.6689c0-0.0017-0.001-0.0031-0.001-0.0048V28.061h6.0928V32.3815z M49.5508,26.6547v-5.836
		l4.126-2.6014v5.836L49.5508,26.6547z"/>
	<path class="st0" d="M23.4536,3.2056c-0.0073-0.0039-0.0153-0.0034-0.0227-0.0069c-0.0309-0.015-0.0645-0.0215-0.0986-0.03
		c-0.031-0.0075-0.0608-0.017-0.092-0.0186c-0.0089-0.0005-0.0164-0.0051-0.0255-0.0051c-0.0255,0-0.0473,0.0108-0.0717,0.0145
		c-0.0319,0.0048-0.0629,0.0081-0.0933,0.0188c-0.0329,0.0117-0.061,0.0289-0.0903,0.0468
		c-0.0256,0.0154-0.0507,0.0295-0.0735,0.0496c-0.0269,0.0239-0.0471,0.0521-0.0684,0.0812
		c-0.0132,0.0179-0.0313,0.0303-0.0423,0.0504c-0.004,0.0073-0.0035,0.0155-0.0071,0.0229
		c-0.0143,0.0295-0.0206,0.0616-0.0289,0.0941c-0.0085,0.0333-0.0184,0.0652-0.0199,0.0988
		c-0.0004,0.0081-0.0046,0.0148-0.0046,0.0229v12.3301l-5.0752,2.9668l-5.0889-2.9385V3.79c0-0.1777-0.0942-0.3418-0.2476-0.4316
		c-0.1538-0.0898-0.3433-0.0913-0.4976-0.0039C7.9883,5.502,5.6172,9.4966,5.6172,13.7798c0,4.7717,2.7781,9.0331,7.105,10.9783
		v27.36c0,2.4814,2.0186,4.5,4.5,4.5h0.875c2.4814,0,4.5-2.0186,4.5-4.5V24.7593c4.3231-1.9462,7.105-6.2217,7.105-10.9796
		C29.7021,9.3516,27.3076,5.2998,23.4536,3.2056z M21.957,23.9556c-0.1562,0.066-0.2523,0.2042-0.2852,0.3583
		c-0.0432,0.074-0.0746,0.1553-0.0746,0.2472v27.5571c0,1.9297-1.5703,3.5-3.5,3.5h-0.875c-1.9297,0-3.5-1.5703-3.5-3.5v-27.441
		c0.0048-0.0099,0.0158-0.014,0.02-0.0244c0.105-0.2554-0.0171-0.5479-0.2725-0.6523c-4.1626-1.709-6.8525-5.7207-6.8525-10.2207
		c0-3.6953,1.8281-7.0371,4.9336-9.0981V16.292c0,0.1787,0.0952,0.3438,0.25,0.4331l5.5903,3.228
		c0.1553,0.0898,0.3467,0.0889,0.5024-0.0015l5.5737-3.2578c0.1533-0.0898,0.2476-0.2539,0.2476-0.4316V4.554
		c3.0873,2.0151,4.9873,5.4623,4.9873,9.2258C28.7021,18.2275,26.0547,22.2217,21.957,23.9556z"/>
	<path class="st0" d="M17.6592,49.3564c-0.9888,0-1.793,0.8047-1.793,1.793s0.8042,1.793,1.793,1.793s1.793-0.8047,1.793-1.793
		S18.6479,49.3564,17.6592,49.3564z M17.6592,51.9424c-0.437,0-0.793-0.3555-0.793-0.793s0.356-0.793,0.793-0.793
		s0.793,0.3555,0.793,0.793S18.0962,51.9424,17.6592,51.9424z"/>
</g>
</svg>
