<?xml version="1.0" encoding="utf-8"?>
<!-- Generator: Adobe Illustrator 21.0.0, SVG Export Plug-In . SVG Version: 6.00 Build 0)  -->
<svg version="1.1" id="Layer_1" xmlns="http://www.w3.org/2000/svg" xmlns:xlink="http://www.w3.org/1999/xlink" x="0px" y="0px"
	 viewBox="0 0 30 30" style="enable-background:new 0 0 30 30;" xml:space="preserve">
<style type="text/css">
	.st0{fill:#231F20;}
</style>
<g>
	<path class="st0" d="M27.5156,8.1907c-0.0077-0.0153-0.0183-0.0269-0.0278-0.0411c-0.0254-0.0377-0.0552-0.0698-0.0917-0.0969
		c-0.0087-0.0065-0.0127-0.0175-0.022-0.0233l-2.5625-1.6157c-0.0635-0.04-0.1377-0.0615-0.2129-0.0615H24.21V4.3306
		c0-0.056-0.012-0.1091-0.0328-0.1575c-0.1389-0.5167-0.9315-0.7556-1.7406-0.8119V1.0776c0-0.2207-0.1797-0.3999-0.4004-0.3999
		s-0.4004,0.1792-0.4004,0.3999v2.2835c-0.8091,0.0563-1.6019,0.2953-1.7407,0.812c-0.0209,0.0484-0.0328,0.1014-0.0328,0.1574
		v2.0215h-0.3887c-0.0752,0-0.1494,0.0215-0.2129,0.0615l-2.5635,1.6157c-0.0093,0.0059-0.0134,0.0167-0.0221,0.0233
		c-0.0364,0.0271-0.0661,0.0591-0.0915,0.0968c-0.0096,0.0143-0.0203,0.0261-0.028,0.0414c-0.0272,0.0539-0.046,0.1125-0.046,0.1769
		v3.5088c0,0.1372,0.0713,0.2651,0.1875,0.3384l2.5635,1.6162c0.0066,0.0042,0.0153,0.0026,0.022,0.0063
		c0.0576,0.032,0.1204,0.0552,0.1909,0.0552h0.3887v10.8213c0,0.2207,0.1797,0.4004,0.4004,0.4004s0.4004-0.1797,0.4004-0.4004
		v-4.3398c0.405,0.1338,0.9053,0.1933,1.373,0.1933s0.9681-0.0595,1.373-0.1933v6.8847c0,0.2207,0.1797,0.4004,0.4004,0.4004
		s0.4004-0.1797,0.4004-0.4004V13.8926h0.3887c0.0702,0,0.1329-0.0229,0.1903-0.0547c0.0073-0.004,0.0165-0.0024,0.0236-0.0068
		l2.5625-1.6162c0.1152-0.0732,0.1865-0.2012,0.1865-0.3384V8.3677C27.5615,8.3032,27.5428,8.2446,27.5156,8.1907z M20.6631,5.1221
		c0.405,0.1335,0.9053,0.1929,1.373,0.1929s0.9681-0.0593,1.373-0.1929v1.6251c0,0.0017-0.001,0.0031-0.001,0.0048
		s0.001,0.0031,0.001,0.0048v1.4747c-0.1379,0.1005-0.6301,0.2617-1.373,0.2617s-1.2352-0.1612-1.373-0.2617V5.1221z
		 M23.2578,4.3306c-0.1771,0.0696-0.4741,0.1409-0.8625,0.17c0.0248-0.052,0.0412-0.1086,0.0412-0.17V4.1629
		C22.8055,4.1938,23.0867,4.2637,23.2578,4.3306z M21.6357,4.1629v0.1677c0,0.0614,0.0164,0.118,0.0413,0.17
		c-0.3885-0.0291-0.6855-0.1003-0.8625-0.17C20.9855,4.2637,21.2668,4.1938,21.6357,4.1629z M19.5889,7.1519h0.2734v1.1567
		c0,0.056,0.0119,0.1089,0.0328,0.1573c0.1616,0.603,1.2167,0.827,2.1411,0.827c0.9243,0,1.9794-0.2239,2.1411-0.8268
		C24.1981,8.4177,24.21,8.3646,24.21,8.3086V7.1519h0.2734l1.9277,1.2158l-1.9277,1.2158h-4.8945l-1.9287-1.2158L19.5889,7.1519z
		 M19.874,13.0928v-2.7095h4.3242v2.7095H19.874z M17.3105,9.0926l1.7627,1.111v2.564l-1.7627-1.1118V9.0926z M20.6631,19.5054
		v-2.7974c0.405,0.1338,0.9053,0.1933,1.373,0.1933s0.9681-0.0595,1.373-0.1933v2.7974c-0.1379,0.1-0.6301,0.2612-1.373,0.2612
		S20.801,19.6054,20.6631,19.5054z M23.4092,15.8389c-0.1379,0.101-0.6301,0.2617-1.373,0.2617s-1.2352-0.1607-1.373-0.2617v-1.9464
		h2.7461V15.8389z M24.999,12.7674v-2.5638l1.7617-1.1108v2.563L24.999,12.7674z"/>
	<path class="st0" d="M11.8716,1.1831c-0.006-0.0032-0.0127-0.0028-0.0188-0.0057c-0.0236-0.0115-0.0493-0.0164-0.0753-0.0231
		c-0.0261-0.0066-0.051-0.0144-0.0774-0.0156c-0.0068-0.0004-0.0125-0.0039-0.0194-0.0039c-0.0192,0-0.0357,0.0084-0.0543,0.011
		c-0.027,0.0038-0.0532,0.0068-0.0789,0.0159c-0.0247,0.0088-0.0457,0.0219-0.0678,0.0352
		c-0.0222,0.0131-0.0436,0.0251-0.0631,0.0425c-0.0204,0.0182-0.0356,0.0399-0.0519,0.062
		c-0.0112,0.015-0.0264,0.0255-0.0355,0.0424c-0.0033,0.006-0.0029,0.0128-0.0058,0.0189
		c-0.0112,0.0231-0.0161,0.0482-0.0226,0.0735c-0.007,0.027-0.0151,0.053-0.0162,0.0804c-0.0003,0.0063-0.0037,0.0117-0.0037,0.0181
		v6.0791l-2.3887,1.396L6.498,7.6274v-6.02c0-0.1421-0.0752-0.2734-0.1978-0.3452S6.0264,1.1899,5.9019,1.2588
		C3.9463,2.3589,2.7314,4.4063,2.7314,6.6021c0,2.4101,1.3895,4.5571,3.5527,5.5734v13.595c0,1.3232,1.0767,2.4004,2.3999,2.4004
		h0.4375c1.3232,0,2.3999-1.0771,2.3999-2.4004V12.1771c2.1616-1.0159,3.5527-3.1713,3.5527-5.5751
		C15.0742,4.333,13.8472,2.2568,11.8716,1.1831z M10.9937,11.5513c-0.1157,0.0491-0.1907,0.1475-0.223,0.2593
		c-0.0287,0.0552-0.049,0.1152-0.049,0.1816v13.7783c0,0.8818-0.7178,1.5996-1.6001,1.5996H8.6841
		c-0.8823,0-1.6001-0.7178-1.6001-1.5996V12.0906c0.0804-0.2029-0.0163-0.4336-0.2192-0.5169
		C4.8398,10.7427,3.5313,8.791,3.5313,6.6021c0-1.7021,0.7983-3.25,2.167-4.2607v5.5171c0,0.1431,0.0762,0.2749,0.1997,0.3462
		l2.7954,1.6138c0.1255,0.0737,0.2788,0.0723,0.4019-0.001l2.7871-1.6289c0.123-0.0718,0.1982-0.2031,0.1982-0.3452V2.2618
		c1.3674,0.9969,2.1938,2.6028,2.1938,4.3403C14.2744,8.7661,12.9863,10.7085,10.9937,11.5513z"/>
	<path class="st0" d="M8.9028,24.2393c-0.5771,0-1.0464,0.4697-1.0464,1.0469s0.4692,1.0469,1.0464,1.0469
		s1.0464-0.4697,1.0464-1.0469S9.48,24.2393,8.9028,24.2393z M8.6563,25.2861c0-0.1357,0.1108-0.2461,0.2466-0.2461
		s0.2466,0.1104,0.2466,0.2461C9.1494,25.5576,8.6563,25.5576,8.6563,25.2861z"/>
</g>
</svg>
