<?xml version="1.0" encoding="utf-8"?>
<!-- Generator: Adobe Illustrator 21.0.0, SVG Export Plug-In . SVG Version: 6.00 Build 0)  -->
<svg version="1.1" id="Layer_1" xmlns="http://www.w3.org/2000/svg" xmlns:xlink="http://www.w3.org/1999/xlink" x="0px" y="0px"
	 viewBox="0 0 60 60" style="enable-background:new 0 0 60 60;" xml:space="preserve">
<style type="text/css">
	.st0{fill:#231F20;}
</style>
<path class="st0" d="M44.3476,3.2089c-0.0034-0.0001-0.0061-0.0019-0.0095-0.0019h-6.2764c-0.1777,0-0.3262,0.0978-0.4149,0.2372
	c-0.4957,0.2414-0.9614,0.6664-1.3963,1.2541l-9.9075,9.2564c-0.8143-0.8392-1.7064-1.2849-2.6177-1.2849
	c-0.0026,0-0.0052,0.001-0.0078,0.001h-8.0562c-3.8008,0-6.7778,7.6118-6.7778,17.3291c0,9.7168,2.9771,17.3291,6.7778,17.3291
	h8.5488v-0.0659c0.6682-0.1118,1.3113-0.4475,1.921-1.0185l10.1279,9.0682c0.7031,0.9457,1.485,1.4791,2.3456,1.4791h5.7334
	c4.4023,0,6.7783-13.8037,6.7783-26.792C51.1165,17.0212,48.7438,3.2289,44.3476,3.2089z M9.8835,30
	c0-9.7676,2.9873-16.3291,5.7778-16.3291h5.7719c-2.6382,2.3553-4.4857,8.6806-4.4857,16.3281
	c0,7.6492,1.8486,13.9762,4.4879,16.3301h-5.774C12.8708,46.3291,9.8835,39.7676,9.8835,30z M23.7253,46.3281
	c-2.7905,0-5.7778-6.5615-5.7778-16.3291c0-9.7598,2.9826-16.3176,5.7711-16.3281h0.0067v-0.001
	c0.6389,0,1.2712,0.3319,1.8872,0.9673l-1.2334,1.1523c-2.8188,0.3452-4.3369,7.605-4.3369,14.4453
	c0,6.8462,1.52,14.1118,4.3433,14.4468l1.006,0.9007C24.8444,46.0764,24.286,46.3281,23.7253,46.3281z M24.781,43.6934h-0.1909
	c-1.6782,0-3.5479-5.5273-3.5479-13.4585s1.8696-13.458,3.5479-13.458h0.1973l10.0632-9.4015
	C32.869,12.4468,31.8264,21.4001,31.8264,30c0,8.6773,1.062,17.7123,3.0787,22.7582L24.781,43.6934z M32.8264,30
	c0-15.2002,3.0449-25.793,5.7783-25.793h3.7822C39.2387,7.5975,37.5608,19.0851,37.5608,30c0,10.9139,1.6776,22.4004,4.8253,25.792
	h-3.7813C35.8713,55.792,32.8264,45.1992,32.8264,30z M40.9785,50.6209c-1.187-3.8757-2.1052-9.7205-2.3511-16.8183
	c0.1403,0.0451,0.2816,0.0841,0.4276,0.0841c1.3711,0,2.4443-2.0527,2.4443-4.6729c0-2.6206-1.0732-4.6729-2.4443-4.6729
	c-0.1216,0-0.2418,0.0222-0.361,0.0544c0.3057-6.0986,1.1125-11.1777,2.1415-14.7413c0.4834-0.7067,0.9803-1.0792,1.4587-1.0792
	c2.3535,0,4.873,8.585,4.873,21.3652c0,12.7798-2.5195,21.3647-4.873,21.3647C41.8619,51.5049,41.4162,51.1985,40.9785,50.6209z
	 M38.5608,30c0-1.6411,0.0374-3.2247,0.1042-4.7508c0.1288-0.0666,0.2589-0.1086,0.39-0.1086c0.8906,0,1.8447,1.6367,1.8447,4.0732
	s-0.9541,4.0732-1.8447,4.0732c-0.1503,0-0.2999-0.0609-0.4485-0.1494C38.5774,32.1152,38.5608,31.0704,38.5608,30z M44.3381,55.792
	c-1.0002,0-2.0417-1.4243-2.9609-3.9692c0.2975,0.1838,0.6032,0.2817,0.917,0.2817c3.4258,0,5.4727-11.168,5.4727-21.9644
	c0-10.7969-2.0469-21.9648-5.4727-21.9648c-0.3594,0-0.7082,0.128-1.0461,0.3688c0.9501-2.7752,2.0427-4.3361,3.09-4.3361
	c2.7334,0,5.7783,10.5923,5.7783,25.792C50.1165,45.1992,47.0715,55.792,44.3381,55.792z"/>
</svg>
