<?xml version="1.0" encoding="utf-8"?>
<!-- Generator: Adobe Illustrator 21.0.0, SVG Export Plug-In . SVG Version: 6.00 Build 0)  -->
<svg version="1.1" id="Layer_1" xmlns="http://www.w3.org/2000/svg" xmlns:xlink="http://www.w3.org/1999/xlink" x="0px" y="0px"
	 viewBox="0 0 30 30" style="enable-background:new 0 0 30 30;" xml:space="preserve">
<style type="text/css">
	.st0{fill:#231F20;}
</style>
<path class="st0" d="M22.1689,1.4536h-3.1387c-0.1364,0-0.2512,0.0729-0.3235,0.1772c-0.2292,0.1259-0.4468,0.3148-0.6499,0.5764
	L18.0566,2.207l-4.8831,4.5629c-0.4995-0.4668-0.9727-0.5844-1.3108-0.5844H7.8306C5.813,6.1855,4.292,9.9751,4.292,15
	c0,5.0244,1.521,8.8145,3.5386,8.8145h4.2749v-0.0328c0.3328-0.0519,0.6582-0.1985,0.9627-0.4556l4.9882,4.4664
	c0.3718,0.4794,0.7861,0.7544,1.2454,0.7544h2.8672c2.3242,0,3.54-6.8154,3.54-13.5469C25.709,8.2681,24.4932,1.4536,22.1689,1.4536
	z M5.0918,15c0-4.7231,1.4434-8.0146,2.7388-8.0146h2.5172C9.1315,8.3494,8.3237,11.3435,8.3237,15
	c0,3.6554,0.8074,6.6491,2.0232,8.0137H7.8306C6.5352,23.0137,5.0918,19.7227,5.0918,15z M11.8628,23.0137
	c-1.2954,0-2.7393-3.291-2.7393-8.0137c0-4.7231,1.4438-8.0146,2.7393-8.0146c0.2704,0,0.5137,0.1485,0.7222,0.3346l-0.4639,0.4335
	c-1.478,0.2603-2.25,3.833-2.25,7.3638c0,3.5352,0.7739,7.1123,2.2549,7.3652l0.3352,0.3001
	C12.261,22.9302,12.0609,23.0137,11.8628,23.0137z M12.4478,21.6963h-0.1528c-0.5669,0-1.624-2.2598-1.624-6.5791
	s1.0571-6.5791,1.624-6.5791h0.1577l4.629-4.3243C16.2125,6.819,15.7632,10.9196,15.7632,15c0,4.1229,0.4581,8.2695,1.3452,10.8702
	L12.4478,21.6963z M16.5635,15c0-6.358,1.0336-10.7347,2.0332-12.2016l0.0068-0.0064l-0.0018-0.0019
	c0.2404-0.3503,0.4786-0.5367,0.7-0.5367h1.5903C19.4039,4.2346,18.6299,9.6375,18.6299,15c0,3.7007,0.3697,7.4199,1.0866,10.025
	l-0.0339,0.017c0.0215,0.0428,0.0455,0.072,0.0674,0.1127c0.315,1.1111,0.6971,1.9996,1.1414,2.5914h-1.5897
	C18.1582,27.7461,16.5635,22.8975,16.5635,15z M21.1475,4.6377c0.8916,0,2.1855,4.064,2.1855,10.4321
	c0,6.3687-1.2939,10.4321-2.1855,10.4321c-0.1769,0-0.4021-0.2245-0.623-0.5968c-0.5087-1.8134-0.9178-4.4418-1.0473-7.7216
	c0.017,0.0009,0.0331,0.0098,0.0502,0.0098c0.8389,0,1.4727-1.1123,1.4727-2.5864c0-1.4746-0.6338-2.5864-1.4727-2.5864
	c-0.0053,0-0.0102,0.0032-0.0155,0.0032c0.152-2.7686,0.5076-5.024,0.9434-6.6716C20.6968,4.9067,20.9531,4.6377,21.1475,4.6377z
	 M19.4307,15c0-0.7526,0.0186-1.468,0.0458-2.1636c0.017-0.006,0.0337-0.0161,0.0509-0.0161c0.2285,0,0.6719,0.6309,0.6719,1.7866
	s-0.4434,1.7856-0.6719,1.7856c-0.0237,0-0.0529-0.0248-0.0797-0.0378C19.4371,15.9132,19.4307,15.4629,19.4307,15z
	 M22.1689,27.7461c-0.3708,0-0.7886-0.5174-1.1846-1.4756c0.0546,0.0087,0.1072,0.0322,0.1631,0.0322
	c1.96,0,2.9863-5.6514,2.9863-11.2329S23.1074,3.8379,21.1475,3.8379c-0.0759,0-0.1481,0.0264-0.2218,0.0425
	c0.4131-1.0529,0.854-1.627,1.2433-1.627c1.1436,0,2.7393,4.8491,2.7393,12.7466S23.3125,27.7461,22.1689,27.7461z"/>
</svg>
