<?xml version="1.0" encoding="utf-8"?>
<!-- Generator: Adobe Illustrator 21.0.0, SVG Export Plug-In . SVG Version: 6.00 Build 0)  -->
<svg version="1.1" id="Layer_1" xmlns="http://www.w3.org/2000/svg" xmlns:xlink="http://www.w3.org/1999/xlink" x="0px" y="0px"
	 viewBox="0 0 30 30" style="enable-background:new 0 0 30 30;" xml:space="preserve">
<style type="text/css">
	.st0{fill:#231F20;}
</style>
<g>
	<path class="st0" d="M20.4473,10.8086l-2.6094-1.4243c-0.1221-0.0664-0.2695-0.0654-0.3916,0.0049l-3.4448,1.9888
		c-0.124,0.0718-0.2002,0.2046-0.1997,0.3481c0.0005,0.1431,0.0781,0.2754,0.2031,0.3462l2.6201,1.4829
		c0.0615,0.0347,0.1289,0.0518,0.1973,0.0518c0.0713,0,0.1416-0.0186,0.2051-0.0562l3.4336-2.0474
		c0.123-0.0737,0.1973-0.208,0.1953-0.3516C20.6533,11.0083,20.5732,10.8774,20.4473,10.8086z M16.8174,12.7446l-1.8096-1.0239
		l2.6445-1.5269l1.7969,0.981L16.8174,12.7446z"/>
	<path class="st0" d="M29.0708,10.4879c-0.0079-0.0156-0.0186-0.0276-0.0285-0.0421c-0.0266-0.0388-0.0582-0.0711-0.0963-0.0984
		c-0.0095-0.0069-0.0139-0.0186-0.0241-0.0247L18.1113,3.9204c-0.125-0.0723-0.2773-0.0737-0.4023-0.0029L1.0835,13.4346
		c-0.0105,0.006-0.0151,0.0178-0.0249,0.0246c-0.038,0.0264-0.0696,0.0577-0.0965,0.0953c-0.0109,0.0153-0.022,0.0285-0.0306,0.0453
		c-0.0261,0.05-0.0428,0.1045-0.0456,0.1641c-0.0002,0.0046-0.0035,0.0084-0.0036,0.013c0,0.0008,0.0005,0.0014,0.0005,0.0022
		c0,0.001-0.0005,0.0017-0.0005,0.0027v3.4077c0,0.0148,0.0068,0.0273,0.0084,0.0416c0.003,0.0282,0.0076,0.0549,0.0165,0.0819
		c0.008,0.0241,0.0182,0.0457,0.0303,0.0676c0.0123,0.0222,0.0255,0.0427,0.0421,0.0625c0.018,0.0215,0.038,0.0392,0.0601,0.0566
		c0.0115,0.0091,0.0187,0.0217,0.0315,0.0297l1.3354,0.83v1.1505c0,0.2207,0.1792,0.4004,0.3999,0.4004s0.3999-0.1797,0.3999-0.4004
		v-0.6533l8.563,5.3223c0.0066,0.0041,0.0148,0.0026,0.0216,0.0062c0.0571,0.0316,0.1195,0.0543,0.1893,0.0543
		c0.066,0,0.1257-0.02,0.1806-0.0485c0.0062-0.0031,0.0135-0.0018,0.0196-0.0052l1.2461-0.7197v1.6914
		c0,0.2207,0.1792,0.4004,0.3999,0.4004s0.3999-0.1797,0.3999-0.4004v-2.1016c0-0.0164-0.0074-0.0305-0.0094-0.0464l1.1442-0.6609
		v1.7043c0,0.2207,0.1792,0.4004,0.3999,0.4004s0.3999-0.1797,0.3999-0.4004v-2.1162c0-0.0159-0.0072-0.0294-0.009-0.0449
		l1.1428-0.6601v1.7167c0,0.2207,0.1797,0.4004,0.4004,0.4004s0.4004-0.1797,0.4004-0.4004v-2.1309
		c0-0.0153-0.0071-0.0284-0.0088-0.0433l1.1426-0.6599v1.7296c0,0.2207,0.1797,0.4004,0.4004,0.4004s0.4004-0.1797,0.4004-0.4004
		v-2.1455c0-0.0148-0.0068-0.0273-0.0084-0.0417l1.1432-0.6603v1.7441c0,0.2207,0.1797,0.4004,0.4004,0.4004
		s0.4004-0.1797,0.4004-0.4004v-2.1621c0-0.0141-0.0067-0.0261-0.0081-0.0399l1.1418-0.6595v1.757
		c0,0.2207,0.1797,0.4004,0.4004,0.4004s0.4004-0.1797,0.4004-0.4004V17.459c0-0.0135-0.0064-0.025-0.0078-0.0383l1.1415-0.6594
		v1.7699c0,0.2207,0.1797,0.4004,0.4004,0.4004s0.4004-0.1797,0.4004-0.4004v-2.1914c0-0.013-0.0062-0.024-0.0074-0.0367
		l1.1412-0.6592v1.7828c0,0.2207,0.1797,0.4004,0.4004,0.4004s0.4004-0.1797,0.4004-0.4004v-2.2065
		c0-0.0123-0.0059-0.0227-0.007-0.0347l1.1555-0.6674c0.0149-0.0086,0.0237-0.0226,0.0371-0.0327
		c0.0223-0.0168,0.0432-0.0333,0.0615-0.0543c0.0169-0.0195,0.0294-0.0402,0.0421-0.0622c0.013-0.0223,0.025-0.0439,0.0335-0.0687
		c0.0089-0.0258,0.0125-0.0516,0.016-0.0788c0.0022-0.017,0.01-0.032,0.01-0.0496V10.667
		C29.1182,10.6016,29.0988,10.5424,29.0708,10.4879z M12.3804,23.1463v-2.6677l15.937-9.1218v2.5845L12.3804,23.1463z
		 M1.6821,16.967v-2.4762l9.8984,5.9824v2.6467L1.6821,16.967z M17.9033,4.7275l10.0195,5.9336l-15.937,9.1221l-9.915-5.9922
		L17.9033,4.7275z"/>
	<path class="st0" d="M24.1237,11.5519c0.0002-0.0001,0.0004-0.0002,0.0005-0.0003l1.4363-0.8157
		c0.124-0.0703,0.2012-0.2012,0.2031-0.3442c0.001-0.1426-0.0742-0.2749-0.1963-0.3477l-7.3643-4.3613
		c-0.0065-0.0038-0.0143-0.0024-0.021-0.0058c-0.0527-0.0277-0.1102-0.0464-0.1736-0.048
		c-0.0026-0.0001-0.0049-0.0015-0.0075-0.0015c-0.0007,0-0.0013-0.0004-0.002-0.0004c-0.001,0-0.002,0-0.0039,0
		c-0.0649,0.0005-0.1238,0.0202-0.1778,0.0482c-0.0049,0.0026-0.0108,0.0013-0.0156,0.004L4.3574,13.3149
		c-0.123,0.0698-0.2002,0.2002-0.2021,0.3423c-0.002,0.1416,0.0713,0.2744,0.1929,0.3477l7.2852,4.4053
		c0.0635,0.0391,0.1353,0.0586,0.207,0.0586c0.0679,0,0.1362-0.0176,0.1978-0.0527L24.1237,11.5519z M23.9334,10.7404
		l-5.5213-3.2689l-0.0065-0.7391l6.1608,3.6485L23.9334,10.7404z M17.6046,6.7111l0.0066,0.753L6.0384,14.0919l-0.6922-0.4186
		L17.6046,6.7111z M6.8214,14.5655l11.184-6.4047l5.1262,3.0349l-11.2849,6.4088L6.8214,14.5655z"/>
	<path class="st0" d="M11.5713,14.2896c0-0.4731-0.4409-0.8433-1.0044-0.8433S9.562,13.8164,9.562,14.2896
		s0.4414,0.8433,1.0049,0.8433S11.5713,14.7627,11.5713,14.2896z M10.377,14.3042c-0.0044,0-0.0078,0.0005-0.0112,0.002
		c0.0464-0.041,0.3013-0.0645,0.3789-0.0166C10.6724,14.334,10.437,14.3037,10.377,14.3042z"/>
	<path class="st0" d="M12.2285,14.3706c-0.5635,0-1.0044,0.3706-1.0044,0.8438s0.4409,0.8433,1.0044,0.8433
		s1.0049-0.3701,1.0049-0.8433S12.792,14.3706,12.2285,14.3706z M12.0386,15.229c-0.0039,0-0.0078,0.0005-0.0107,0.0015
		c0.0449-0.0405,0.2979-0.0645,0.3784-0.0161C12.332,15.2588,12.0991,15.229,12.0386,15.229z"/>
</g>
</svg>
