<?xml version="1.0" encoding="utf-8"?>
<!-- Generator: Adobe Illustrator 21.0.0, SVG Export Plug-In . SVG Version: 6.00 Build 0)  -->
<svg version="1.1" id="Layer_1" xmlns="http://www.w3.org/2000/svg" xmlns:xlink="http://www.w3.org/1999/xlink" x="0px" y="0px"
	 viewBox="0 0 60 60" style="enable-background:new 0 0 60 60;" xml:space="preserve">
<style type="text/css">
	.st0{fill:#231F20;}
</style>
<g>
	<path class="st0" d="M57.8755,21.399c-0.0096-0.019-0.0227-0.0338-0.0347-0.0515c-0.0336-0.0494-0.0739-0.0907-0.1226-0.1252
		c-0.0114-0.0081-0.0165-0.0222-0.0287-0.0294L36.0693,8.3877c-0.1543-0.0918-0.3496-0.0928-0.5029-0.0039L2.3164,27.418
		c-0.0128,0.0074-0.0185,0.0218-0.0305,0.0302c-0.0482,0.0334-0.0885,0.0732-0.1224,0.1211
		c-0.0131,0.0186-0.0264,0.0345-0.0368,0.0547c-0.0329,0.063-0.0542,0.1316-0.0576,0.2068
		c-0.0002,0.0055-0.0042,0.0099-0.0043,0.0154c0,0.0009,0.0007,0.0017,0.0007,0.0026c0,0.0012-0.0007,0.0021-0.0007,0.0032v6.8159
		c0,0.0191,0.0088,0.0353,0.0109,0.0538c0.0038,0.0346,0.0094,0.0672,0.0202,0.1003c0.01,0.0303,0.0228,0.0576,0.0381,0.085
		c0.0154,0.0281,0.0321,0.0538,0.053,0.0787c0.022,0.0261,0.0463,0.0477,0.0731,0.0688c0.0148,0.0117,0.0241,0.028,0.0406,0.0382
		l2.812,1.7477v2.4681c0,0.2764,0.2236,0.5,0.5,0.5s0.5-0.2236,0.5-0.5V37.462l17.584,10.9286
		c0.0085,0.0052,0.0191,0.0032,0.0279,0.0079c0.0713,0.0391,0.1491,0.0673,0.2363,0.0673c0.0833,0,0.1584-0.0253,0.2274-0.0613
		c0.0071-0.0037,0.0156-0.0021,0.0226-0.0061l2.9419-1.6991v3.9042c0,0.2764,0.2236,0.5,0.5,0.5s0.5-0.2236,0.5-0.5v-4.2021
		c0-0.0886-0.0291-0.1674-0.0694-0.2394l2.939-1.6974v3.9301c0,0.2764,0.2236,0.5,0.5,0.5s0.5-0.2236,0.5-0.5v-4.2324
		c0-0.0872-0.0281-0.165-0.0673-0.2363l2.9354-1.6953v3.9551c0,0.2764,0.2236,0.5,0.5,0.5s0.5-0.2236,0.5-0.5v-4.2617
		c0-0.0859-0.0272-0.1627-0.0652-0.2333l2.9354-1.6953v3.9813c0,0.2764,0.2236,0.5,0.5,0.5s0.5-0.2236,0.5-0.5v-4.292
		c0-0.0846-0.0262-0.1605-0.0632-0.2303l2.9324-1.6936v4.0079c0,0.2764,0.2236,0.5,0.5,0.5s0.5-0.2236,0.5-0.5v-4.3223
		c0-0.0834-0.0254-0.1586-0.0615-0.2277l2.9306-1.6926v4.0335c0,0.2764,0.2236,0.5,0.5,0.5s0.5-0.2236,0.5-0.5V35.207
		c0-0.082-0.0243-0.1561-0.0592-0.2243l2.9283-1.6913v4.0591c0,0.2764,0.2236,0.5,0.5,0.5s0.5-0.2236,0.5-0.5v-4.3818
		c0-0.0808-0.0235-0.1542-0.0574-0.2217l2.9276-1.6908v4.0853c0,0.2764,0.2236,0.5,0.5,0.5s0.5-0.2236,0.5-0.5V30.73
		c0-0.0797-0.0226-0.1522-0.0557-0.2191l2.502-1.445c0.0186-0.0107,0.0296-0.0281,0.0463-0.0408
		c0.0279-0.0211,0.0543-0.0417,0.0772-0.0681c0.0211-0.0244,0.0369-0.0505,0.0527-0.0781c0.016-0.0276,0.0308-0.0542,0.0413-0.0848
		c0.0114-0.033,0.016-0.066,0.0203-0.1006c0.0026-0.0208,0.0122-0.0391,0.0122-0.0607V21.623
		C57.9346,21.5412,57.9103,21.4672,57.8755,21.399z M24.4609,47.0994v-6.0255l32.4736-18.5885v5.8588L24.4609,47.0994z
		 M3.0649,34.3898v-5.6514l20.396,12.3277v6.0002L3.0649,34.3898z M35.8105,9.3965l20.6309,12.2192L23.9678,40.2041L3.5508,27.8638
		L35.8105,9.3965z"/>
	<path class="st0" d="M48.0061,22.9554l2.8679-1.6288c0.0928-0.0527,0.1504-0.1509,0.1514-0.2578s-0.0547-0.2065-0.1465-0.2612
		l-14.7275-8.7241c-0.0482-0.0283-0.1014-0.0416-0.1544-0.0415c-0.0006,0-0.0013,0-0.0019,0c-0.0012,0-0.0019,0.0013-0.0031,0.0013
		c-0.0493,0.001-0.0984,0.0123-0.1424,0.0377L8.9629,27.353c-0.0928,0.0522-0.1504,0.1504-0.1519,0.2568
		s0.0532,0.2056,0.1445,0.2607l14.5703,8.812c0.0479,0.0283,0.1016,0.043,0.1553,0.043c0.0513,0,0.1021-0.0127,0.1479-0.0391
		l24.1741-13.7294C48.0042,22.9565,48.0051,22.956,48.0061,22.9554z M47.8611,22.348L36.3257,15.519l-0.0232-2.6485l13.8254,8.19
		L47.8611,22.348z M35.7027,12.8546l0.0232,2.6515L12.0791,29.0488c-0.0026,0.0015-0.0025,0.005-0.0051,0.0065l-2.3699-1.4333
		L35.7027,12.8546z M23.686,36.0781l-11.0282-6.6697L36.015,16.0321l11.2452,6.6571L23.686,36.0781z"/>
	<path class="st0" d="M41.374,24.1201l-0.9609-0.5724l0.4287-0.2684c0.0109-0.0068,0.011-0.0211,0.0207-0.0291
		c0.0309-0.0244,0.0446-0.0552,0.0639-0.0898c0.0193-0.035,0.0383-0.0634,0.0425-0.103c0.0015-0.0123,0.0135-0.0198,0.0135-0.0325
		v-2.0107c0-0.0009-0.0009-0.0013-0.0009-0.0022c0-0.0013,0.0009-0.0024,0.0009-0.0037c-0.0013-0.0702-0.0338-0.1308-0.078-0.1827
		c-0.0116-0.0138-0.0221-0.0228-0.0359-0.0342c-0.0151-0.0127-0.0245-0.0308-0.0423-0.0403l-5.2188-2.8481
		c-0.0918-0.0498-0.2012-0.0493-0.2939,0.0034l-6.8882,3.9771c-0.0159,0.0092-0.0239,0.026-0.0376,0.0377
		c-0.0137,0.0114-0.0233,0.0211-0.0347,0.0347c-0.0443,0.0526-0.0759,0.114-0.0766,0.1848c0,0.001-0.001,0.0016-0.001,0.0026v2.0107
		c0,0.0134,0.0125,0.0214,0.0142,0.0344c0.0047,0.0397,0.023,0.0682,0.0428,0.1033c0.0195,0.0344,0.034,0.0643,0.065,0.0885
		c0.0104,0.0084,0.0108,0.0236,0.0225,0.0307l5.2412,3.1694c0.0479,0.0288,0.1016,0.043,0.1553,0.043
		c0.0557,0,0.1104-0.0151,0.1592-0.0454l0.7825-0.4899l1.1521,0.7633c0.0518,0.0337,0.1084,0.0498,0.166,0.0498
		c0.0967,0,0.1924-0.0469,0.25-0.1343c0.0918-0.1382,0.0537-0.3242-0.084-0.4155l-0.9254-0.6131l1.1357-0.7109l1.1774,0.7527
		c0.0498,0.0317,0.1055,0.0469,0.1611,0.0469c0.0986,0,0.1953-0.0488,0.2529-0.1382c0.0889-0.1396,0.0479-0.3252-0.0918-0.4146
		l-0.9371-0.5991l1.1314-0.7083l1.2021,0.7419c0.0488,0.0303,0.1035,0.0444,0.1572,0.0444c0.1006,0,0.1982-0.0503,0.2549-0.1421
		c0.0879-0.1411,0.0439-0.3262-0.0977-0.4131l-0.9496-0.5861l1.1281-0.7062l1.2258,0.7303c0.0479,0.0288,0.1006,0.042,0.1533,0.042
		c0.1016,0,0.2012-0.0522,0.2578-0.1465C41.5635,24.3892,41.5166,24.2051,41.374,24.1201z M34.1162,26.7817v-1.5023l6.2666-3.7372
		v1.3163L34.1162,26.7817z M28.875,22.6577l4.6416,2.6263v1.5077l-4.6416-2.8073V22.6577z M35.4678,18.5103l4.6094,2.5156
		l-6.2646,3.7358l-4.6328-2.6211L35.4678,18.5103z"/>
	<path class="st0" d="M19.4458,27.5522c-1.0503,0-1.9048,0.6621-1.9048,1.4766s0.8545,1.4771,1.9048,1.4771
		s1.9048-0.6626,1.9048-1.4771S20.4961,27.5522,19.4458,27.5522z M19.4458,29.9063c-0.7075,0-1.3052-0.4019-1.3052-0.8774
		c0-0.4751,0.5977-0.877,1.3052-0.877s1.3052,0.4019,1.3052,0.877C20.751,29.5044,20.1533,29.9063,19.4458,29.9063z"/>
	<path class="st0" d="M23.8579,30.0073c-1.0503,0-1.9048,0.6626-1.9048,1.4771s0.8545,1.4766,1.9048,1.4766
		s1.9048-0.6621,1.9048-1.4766S24.9082,30.0073,23.8579,30.0073z M23.8579,32.3613c-0.7075,0-1.3052-0.4014-1.3052-0.877
		s0.5977-0.8774,1.3052-0.8774s1.3052,0.4019,1.3052,0.8774S24.5654,32.3613,23.8579,32.3613z"/>
</g>
</svg>
