<?xml version="1.0" encoding="utf-8"?>
<!-- Generator: Adobe Illustrator 21.0.0, SVG Export Plug-In . SVG Version: 6.00 Build 0)  -->
<svg version="1.1" id="Layer_1" xmlns="http://www.w3.org/2000/svg" xmlns:xlink="http://www.w3.org/1999/xlink" x="0px" y="0px"
	 viewBox="0 0 60 60" style="enable-background:new 0 0 60 60;" xml:space="preserve">
<style type="text/css">
	.st0{fill:#231F20;}
</style>
<path class="st0" d="M55.5078,24.5098L33.5947,11.8589c-1.4121-0.8149-3.6182-0.8032-5.0273,0.0273l-8.2119,4.9676
	c-1.0954-0.3555-2.1741-0.2572-3.188,0.3195l-3.4507,2.54c-0.0088,0.0065-0.0129,0.0163-0.0211,0.0233
	c-0.8054,0.5062-1.2557,1.4363-1.2557,2.7053c0,2.0001,1.1807,4.3481,2.8906,6.0261L1.7988,36.1934
	c-0.2397,0.1377-0.3232,0.4424-0.186,0.6826c0.0923,0.1611,0.2607,0.252,0.4346,0.252c0.084,0,0.1694-0.0215,0.2476-0.0654
	l13.8272-7.8949c0.3158,0.248,0.643,0.4742,0.9809,0.6693l16.4315,9.4858l-13.3749,7.814
	c-0.2383,0.1396-0.3184,0.4453-0.1792,0.6836c0.0928,0.1592,0.2603,0.248,0.4321,0.248c0.0854,0,0.1724-0.0215,0.252-0.0684
	l13.8668-8.1018l7.0663,4.0793c0.8594,0.4971,1.7051,0.749,2.459,0.749c0.5088,0,0.9756-0.1143,1.3779-0.3467
	c0.2172-0.1252,0.4084-0.2817,0.5746-0.4641l3.3101-2.3894c0.6143-0.5879,1.2129-1.2744,1.2129-2.6797
	c0-0.1694-0.0313-0.3467-0.0479-0.5204l5.0518-3.0147c1.5557-0.9268,2.8203-3.1553,2.8203-4.9663v-0.9023
	C58.3564,27.6299,57.0781,25.417,55.5078,24.5098z M55.7766,25.9871l-9.4684,5.762c-0.1468-0.0983-0.2881-0.2097-0.439-0.2969
	l-8.8241-5.0945l9.8526-5.6638l8.1102,4.6821C55.2769,25.5314,55.5334,25.7454,55.7766,25.9871z M29.0801,12.7446
	c1.0845-0.6406,2.9229-0.6509,4.0146-0.0195l12.8018,7.3907l-9.8526,5.6638L21.4553,17.357L29.0801,12.7446z M17.71,18.0112
	c0.9795-0.5537,2.0146-0.5,3.1641,0.165l14.9197,8.6132c0.002,0.0012,0.0037,0.0021,0.0057,0.0032l3.5698,2.0609l-3.1377,1.9169
	c-0.018,0.011-0.0284,0.0285-0.0446,0.0414L17.603,20.082c-0.6114-0.353-1.213-0.5746-1.7818-0.6779L17.71,18.0112z
	 M42.0977,43.1123l-6.5727-3.7947l2.1758-1.2712c0.1752,0.182,0.3685,0.3418,0.5742,0.4606c0.7599,0.439,1.376,0.179,1.376-0.581
	c0-0.76-0.616-1.731-1.376-2.17c-0.76-0.439-1.376-0.179-1.376,0.581c0,0.2795,0.0845,0.5875,0.2277,0.8871l-2.5984,1.5181
	L17.603,28.9707c-0.1779-0.1027-0.3474-0.2311-0.5195-0.3521l2.3837-1.361c0.168,0.1738,0.351,0.3278,0.5477,0.4413
	c0.734,0.424,1.329,0.172,1.329-0.562c0-0.734-0.595-1.673-1.329-2.097c-0.734-0.424-1.329-0.172-1.329,0.562
	c0,0.2601,0.0942,0.5432,0.2233,0.8228l-2.6614,1.5195c-1.6284-1.5026-2.8079-3.713-2.8079-5.5643
	c0-0.8877,0.2856-1.522,0.8262-1.8335c0.251-0.145,0.5503-0.2168,0.8843-0.2168c0.5713,0,1.2446,0.2095,1.9526,0.6187
	l24.4946,14.1416c2.2959,1.3252,4.1631,4.2549,4.1631,6.5293v0.0605c0,0.8877-0.2861,1.5225-0.8262,1.834
	C44.2559,43.9072,43.2217,43.7617,42.0977,43.1123z M48.6816,40.7598l-1.9703,1.4192c0.0187-0.165,0.0494-0.3221,0.0494-0.4993
	v-0.0605c0-2.6367-2.0479-5.8857-4.6631-7.3945l-4.9363-2.8501l3.1942-1.9515l5.0136,2.8943
	c2.2959,1.3271,4.1631,4.2559,4.1631,6.5918C49.5322,39.7832,49.2402,40.2168,48.6816,40.7598z M57.3564,30.3452
	c0,1.4731-1.0684,3.354-2.332,4.1069l-4.7291,2.8221c-0.4645-1.7659-1.627-3.58-3.1323-4.8758l9.2568-5.6323
	c0.5618,0.825,0.9366,1.8159,0.9366,2.6766V30.3452z"/>
</svg>
