<?xml version="1.0" encoding="utf-8"?>
<!-- Generator: Adobe Illustrator 21.0.0, SVG Export Plug-In . SVG Version: 6.00 Build 0)  -->
<svg version="1.1" id="Layer_1" xmlns="http://www.w3.org/2000/svg" xmlns:xlink="http://www.w3.org/1999/xlink" x="0px" y="0px"
	 viewBox="0 0 60 60" style="enable-background:new 0 0 60 60;" xml:space="preserve">
<style type="text/css">
	.st0{fill:#231F20;}
</style>
<path class="st0" d="M55.5,24.5L33.6,11.8c-1.4-0.8-3.6-0.8-5,0l-8.3,5c-1.1-0.3-2.1-0.2-3.1,0.4l-3.1,2.2c-0.1,0.1-0.3,0.1-0.4,0.2
	c-0.8,0.5-1.3,1.5-1.3,2.8c0,2,1.2,4.3,2.9,6L1.8,36.1c-0.3,0.2-0.3,0.5-0.2,0.7C1.7,37,1.8,37.1,2,37.1c0.1,0,0.2,0,0.3-0.1
	l13.8-7.9c0.3,0.3,0.7,0.5,1,0.7l16.4,9.5l-13.3,7.9c-0.3,0.2-0.3,0.5-0.2,0.7c0.1,0.1,0.2,0.2,0.4,0.2c0.1,0,0.2-0.1,0.3-0.1
	l13.8-8.1l7.1,4.1c0.9,0.4,1.7,0.7,2.5,0.7c0.5,0,0.9-0.1,1.3-0.4c0.1-0.1,0.2-0.1,0.2-0.2c0,0,0,0,0.1,0c0.1,0,0.2-0.1,0.2-0.1
	l3.5-2.5c0.6-0.6,1.2-1.3,1.2-2.7c0-0.2,0-0.4-0.1-0.5l5-3c1.5-1,2.8-3.2,2.8-5v-0.9C58.3,27.6,57.1,25.4,55.5,24.5z M55.8,26.1
	l-9.4,5.7c-0.2-0.1-0.3-0.2-0.5-0.3l-8.8-5.1l9.9-5.6l8,4.7C55.3,25.6,55.5,25.8,55.8,26.1z M29.1,12.7c1.1-0.6,2.9-0.6,4,0
	l12.8,7.4l-9.9,5.6l-14.6-8.4L29.1,12.7z M17.7,18c1-0.5,2.1-0.5,3.2,0.2l14.8,8.5c0.1,0.1,0.2,0.2,0.3,0.2c0,0,0,0,0,0l3.4,2
	l-3.1,1.9c0,0,0,0,0,0L17.5,20c-0.6-0.3-1.1-0.5-1.6-0.7L17.7,18z M42.2,43l-6.5-3.8l2-1.2c0.2,0.2,0.4,0.3,0.6,0.4
	c0.8,0.4,1.4,0.2,1.4-0.6c0-0.7-0.7-1.7-1.4-2.2c-0.8-0.4-1.4-0.2-1.4,0.6c0,0.3,0.1,0.6,0.2,0.9l-2.5,1.5l-17-9.8
	c-0.2-0.1-0.4-0.2-0.6-0.4l2.3-1.3c0.2,0.2,0.4,0.4,0.6,0.5c0.7,0.4,1.3,0.1,1.3-0.6c0-0.7-0.6-1.7-1.3-2.1s-1.3-0.1-1.3,0.6
	c0,0.2,0.1,0.5,0.2,0.7l-2.6,1.5c-1.6-1.5-2.8-3.7-2.8-5.5c0-0.9,0.3-1.5,0.8-1.8c0.3-0.1,0.6-0.2,0.9-0.2c0.5,0,1.2,0.2,1.9,0.6
	L41.6,35c2.3,1.3,4.2,4.2,4.2,6.5v0.1c0,0.9-0.3,1.5-0.8,1.8C44.4,43.8,43.3,43.6,42.2,43z M48.7,40.8l-2.1,1.5
	c0-0.2,0.1-0.5,0.1-0.7v-0.1c0-2.6-2.1-5.9-4.7-7.4l-4.7-2.7l3.2-1.9l4.9,2.8c2.3,1.3,4.2,4.3,4.2,6.6
	C49.6,39.8,49.3,40.3,48.7,40.8z M57.3,30.4c0,1.5-1,3.3-2.3,4.1l-4.6,2.8c-0.5-1.7-1.6-3.6-3.1-4.9l9.1-5.5
	c0.5,0.8,0.9,1.8,0.9,2.6V30.4z"/>
</svg>
