<?xml version="1.0" encoding="utf-8"?>
<!-- Generator: Adobe Illustrator 21.0.0, SVG Export Plug-In . SVG Version: 6.00 Build 0)  -->
<svg version="1.1" id="Layer_1" xmlns="http://www.w3.org/2000/svg" xmlns:xlink="http://www.w3.org/1999/xlink" x="0px" y="0px"
	 viewBox="0 0 30 30" style="enable-background:new 0 0 30 30;" xml:space="preserve">
<style type="text/css">
	.st0{fill:#231F20;}
</style>
<path class="st0" d="M27.8533,12.2935l-10.957-6.3257c-0.749-0.4326-1.9175-0.4268-2.6665,0.0146l-4.0507,2.4506
	C9.4888,8.231,8.9245,8.4015,8.5189,8.6339L6.7933,9.9044C6.7866,9.9093,6.7836,9.9167,6.7774,9.922
	c-0.4378,0.2836-0.6833,0.7875-0.6833,1.4673c0,0.9818,0.5502,2.121,1.3575,2.9763l-6.6022,3.7693
	c-0.1919,0.1094-0.2588,0.3545-0.1489,0.5459c0.0737,0.1289,0.2085,0.2021,0.3477,0.2021c0.0669,0,0.1353-0.0176,0.1978-0.0527
	l6.831-3.9007c0.1378,0.1035,0.2779,0.2025,0.4234,0.2864l7.9921,4.6143l-6.4638,3.7763c-0.1909,0.1113-0.2554,0.3564-0.1436,0.5479
	c0.0742,0.127,0.208,0.1982,0.3457,0.1982c0.0684,0,0.1377-0.0176,0.2012-0.0547l6.8589-4.0067l3.457,1.996
	c0.4531,0.2617,0.9014,0.3945,1.3057,0.3945c0.2803,0,0.5391-0.0645,0.7637-0.1934c0.1194-0.0692,0.2253-0.1544,0.3171-0.2535
	l1.6546-1.1957c0.3145-0.3027,0.6514-0.6865,0.6514-1.4473c0-0.0585-0.0126-0.1203-0.0165-0.1799l2.4452-1.4587
	c0.8311-0.4961,1.4834-1.6436,1.4834-2.6123v-0.4512C29.3524,13.9195,28.6942,12.7789,27.8533,12.2935z M27.648,13.1466
	l-4.4664,2.718c-0.0499-0.0317-0.0969-0.0706-0.1476-0.0999l-4.187-2.4175l4.6254-2.6594l3.9805,2.298
	C27.5211,13.0253,27.5825,13.0935,27.648,13.1466z M14.64,6.669c0.5034-0.2954,1.353-0.2998,1.856-0.0088l6.176,3.5655
	l-4.6254,2.6594l-7-4.0417L14.64,6.669z M8.953,9.3043c0.4395-0.248,0.9097-0.2202,1.4331,0.0815l7.4619,4.3082
	c0.0005,0.0002,0.0009,0.0005,0.0014,0.0008l1.566,0.9042l-1.3055,0.7972l-9.2092-5.3167C8.6897,9.9577,8.4809,9.87,8.2758,9.8044
	L8.953,9.3043z M21.1483,21.5938l-3.0616-1.7675l0.9112-0.5322c0.054,0.0447,0.1058,0.0942,0.164,0.1277
	c0.3799,0.2193,0.6878,0.0892,0.6878-0.2907s-0.3079-0.8656-0.6878-1.0849s-0.6878-0.0892-0.6878,0.2907
	c0,0.0962,0.0203,0.1991,0.056,0.3029l-1.2419,0.7255l-8.3874-4.8419c-0.0176-0.0101-0.034-0.0245-0.0515-0.035l1.0314-0.589
	c0.05,0.0409,0.0977,0.0869,0.1514,0.1179c0.367,0.2119,0.6646,0.0862,0.6646-0.2809s-0.2975-0.8364-0.6646-1.0483
	c-0.3671-0.2119-0.6646-0.0862-0.6646,0.2809c0,0.0872,0.0191,0.1804,0.0496,0.2743l-1.2476,0.7123
	c-0.738-0.7224-1.2755-1.7559-1.2755-2.5972c0-0.27,0.0586-0.6255,0.3379-0.7871c0.1011-0.0581,0.2251-0.0869,0.3657-0.0869
	c0.2593,0,0.5747,0.0981,0.9028,0.2876l12.2476,7.0718c1.0879,0.627,2.0068,2.0625,2.0068,3.1338v0.0303
	c0,0.2705-0.0586,0.626-0.3379,0.7871C22.1268,21.963,21.6532,21.8878,21.1483,21.5938z M24.2782,20.4259l-0.7253,0.5226
	c-0.0145-1.362-1.0643-3.0241-2.4045-3.798l-2.2499-1.299l1.3055-0.7973l2.4297,1.4029c1.0879,0.6279,2.0059,2.0635,2.0059,3.165
	C24.6395,20.0079,24.5145,20.1925,24.2782,20.4259z M28.5516,15.3409c0,0.6899-0.5,1.5713-1.0928,1.9248l-2.1928,1.3082
	c-0.2515-0.7885-0.763-1.5776-1.4094-2.1833l4.3264-2.6328c0.2211,0.3633,0.3686,0.7753,0.3686,1.132V15.3409z"/>
</svg>
