<?xml version="1.0" encoding="utf-8"?>
<!-- Generator: Adobe Illustrator 21.0.0, SVG Export Plug-In . SVG Version: 6.00 Build 0)  -->
<svg version="1.1" id="Layer_1" xmlns="http://www.w3.org/2000/svg" xmlns:xlink="http://www.w3.org/1999/xlink" x="0px" y="0px"
	 viewBox="0 0 60 60" style="enable-background:new 0 0 60 60;" xml:space="preserve">
<style type="text/css">
	.st0{fill:#231F20;}
</style>
<g>
	<path class="st0" d="M45.5425,26.3839c0.0001-0.0024,0.0014-0.0045,0.0014-0.007v-0.0116c-0.0004-0.0198,0.0028-0.0387,0-0.0585
		V6.2412c0-0.0829-0.0251-0.1578-0.0607-0.2266c-0.0098-0.019-0.0226-0.0339-0.0347-0.0515
		c-0.0344-0.0499-0.0756-0.0912-0.1253-0.1257c-0.0116-0.0081-0.0168-0.0222-0.0292-0.0293l-7.4531-4.3032
		c-0.1543-0.0889-0.3457-0.0889-0.5,0l-22.373,12.917c-0.0125,0.0072-0.0177,0.0213-0.0294,0.0294
		c-0.0494,0.0342-0.0905,0.0754-0.1247,0.1248c-0.0123,0.0179-0.0253,0.033-0.0352,0.0522
		c-0.0357,0.0688-0.0607,0.1437-0.0607,0.2266v20.1362c0,0.0385,0.0136,0.0725,0.0219,0.1085
		c0.0024,0.0107,0.0033,0.0212,0.0064,0.0317c0.0153,0.0515,0.0386,0.0969,0.0686,0.14c0.0072,0.0106,0.0129,0.0212,0.021,0.0312
		c0.0321,0.0394,0.0697,0.0706,0.1122,0.0987c0.0101,0.0068,0.016,0.0174,0.0267,0.0236l2.3374,1.3447v18.7139
		c0,0.791,0.5146,1.6924,1.1978,2.0957l0.4727,0.2783c0.2295,0.1357,0.4648,0.2041,0.687,0.2041c0.1738,0,0.3394-0.042,0.4873-0.127
		c0.3379-0.1924,0.5313-0.5752,0.5313-1.0508V38.7115l1.6167,0.9301c0.0042,0.0024,0.0093,0.0013,0.0135,0.0036
		c0.0696,0.0367,0.1454,0.0628,0.2297,0.0628c0.0013,0,0.0023-0.0007,0.0036-0.0007c0.0009,0,0.0018,0.0007,0.0027,0.0007
		c0.007,0,0.0134-0.0051,0.0204-0.0054c0.0698-0.0038,0.1344-0.0216,0.1937-0.0512c0.0107-0.0051,0.0231-0.0029,0.0335-0.0089
		l1.9053-1.0867v12.367c0,0.793,0.5146,1.6934,1.1973,2.0957l0.4736,0.2793c0.229,0.1348,0.4639,0.2031,0.6855,0.2031
		c0.1743,0,0.3403-0.042,0.4888-0.127c0.3374-0.1924,0.5308-0.5752,0.5308-1.0498V36.6303l4.0771-2.3254v12.5174
		c0,0.791,0.5146,1.6924,1.1982,2.0957l0.4717,0.2783c0.2295,0.1357,0.4648,0.2041,0.6875,0.2041
		c0.1738,0,0.3389-0.042,0.4873-0.127c0.3379-0.1924,0.5313-0.5752,0.5313-1.0508V32.3793l4.0419-2.3054l0.0684,12.3967
		c0.0039,0.792,0.5205,1.6914,1.2021,2.0938l0.4746,0.2793c0.2285,0.1348,0.4639,0.2031,0.6855,0.2031
		c0.1738,0,0.3398-0.042,0.4883-0.127c0.3369-0.1934,0.5303-0.5762,0.5293-1.0508l-0.0345-15.7423l2.3069-1.3158
		c0.0278-0.0159,0.0459-0.0406,0.0694-0.0607c0.0133-0.0115,0.027-0.0212,0.039-0.0341c0.0371-0.039,0.0649-0.082,0.0873-0.1296
		c0.0038-0.0083,0.0085-0.0157,0.012-0.0243C45.5298,26.5051,45.5414,26.446,45.5425,26.3839z M42.3347,27.3505
		c-0.065,0.0217-0.1234,0.0543-0.1734,0.0989l-17.0358,9.7164c-0.1212,0.0207-0.2251,0.08-0.2997,0.171l-1.7779,1.014V19.3633
		L44.5439,7.102v18.9885L42.3347,27.3505z M17.9458,35.9799V17.0021l4.1021,2.3606V38.34L17.9458,35.9799z M15.7178,15.7199
		l1.6284,0.9371v18.978l-1.6284-0.9369V15.7199z M22.5488,18.4971l-4.0981-2.3582L39.9623,3.8846l4.0768,2.3542L22.5488,18.4971z
		 M37.5908,2.5151l1.7694,1.0218L17.8476,15.7918l-1.6288-0.9373L37.5908,2.5151z M19.688,56.8838
		c0,0.118-0.0269,0.1776-0.0151,0.1777c-0.0184-0.0029-0.0781-0.0041-0.1826-0.0654l-0.4727-0.2783
		c-0.376-0.2217-0.7056-0.7988-0.7056-1.2344V37.3447l1.376,0.7916V56.8838z M27.083,52.3242c0,0.123-0.0156,0.1797-0.0151,0.1768
		c-0.0103,0.002-0.0781-0.0029-0.1821-0.0645l-0.4736-0.2793c-0.3755-0.2217-0.7051-0.7979-0.7051-1.2344V37.9855l1.376-0.7849
		V52.3242z M34.5361,48.2227c0,0.1289-0.0166,0.1777-0.0146,0.1777c-0.0156,0.002-0.0781-0.0029-0.1836-0.0654l-0.4717-0.2783
		c-0.376-0.2217-0.7061-0.7988-0.7061-1.2344V33.7345l1.376-0.7848V48.2227z M42.0264,43.8711c0,0.117-0.0262,0.1754-0.0146,0.1757
		c-0.0172,0.0009-0.077-0.0033-0.1807-0.0643l-0.4746-0.2793c-0.376-0.2217-0.708-0.7998-0.71-1.2373l-0.0713-12.9219
		c-0.0001-0.0119-0.0063-0.0227-0.0073-0.0345l1.4252-0.8129L42.0264,43.8711z"/>
	<path class="st0" d="M35.8945,16.8486c-0.5645-0.3262-1.4199-0.208-2.3467,0.3262c-1.3828,0.7983-2.4258,2.1992-2.4258,3.2593
		l0.001,3.6738c0,0.1787,0.0957,0.3438,0.25,0.4331c0.0771,0.0444,0.1641,0.0669,0.25,0.0669s0.1729-0.0225,0.25-0.0669
		l4.3506-2.5117c0.1543-0.0894,0.25-0.2544,0.25-0.4331v-3.6743C36.4736,17.4453,36.2686,17.0645,35.8945,16.8486z M35.4736,21.3076
		l-3.3516,1.9351v-2.8086c0-0.6064,0.791-1.7383,1.9258-2.3931c0.4863-0.2803,0.8701-0.3726,1.1123-0.3726
		c0.1064,0,0.1865,0.0186,0.2344,0.0459c0.0234,0.0137,0.0791,0.0459,0.0791,0.2075V21.3076z"/>
</g>
</svg>
