<?xml version="1.0" encoding="utf-8"?>
<!-- Generator: Adobe Illustrator 21.0.0, SVG Export Plug-In . SVG Version: 6.00 Build 0)  -->
<svg version="1.1" id="Layer_1" xmlns="http://www.w3.org/2000/svg" xmlns:xlink="http://www.w3.org/1999/xlink" x="0px" y="0px"
	 viewBox="0 0 60 60" style="enable-background:new 0 0 60 60;" xml:space="preserve">
<style type="text/css">
	.st0{fill:#231F20;}
</style>
<g>
	<path class="st0" d="M58.5894,20.3301c-0.01-0.0197-0.0234-0.035-0.0359-0.0533c-0.0334-0.0486-0.0731-0.0891-0.1211-0.1232
		c-0.0115-0.0082-0.0168-0.0223-0.0291-0.0295L38.6025,8.397c-0.1582-0.0923-0.3496-0.0938-0.5059-0.0024L1.584,29.5674
		c-0.0125,0.0073-0.0178,0.0215-0.0295,0.0297c-0.0491,0.0343-0.0899,0.0753-0.1239,0.1246
		c-0.0124,0.0179-0.0255,0.0331-0.0354,0.0526C1.3597,29.8428,1.335,29.9174,1.335,30v6.2422c0,0.0212,0.0095,0.0393,0.0121,0.0599
		c0.0042,0.0341,0.0089,0.0667,0.02,0.0991c0.0106,0.0312,0.0253,0.0585,0.0415,0.0866c0.0154,0.0269,0.0308,0.0522,0.0513,0.0761
		c0.0234,0.0273,0.0501,0.0488,0.0789,0.0706c0.0156,0.0118,0.0256,0.0283,0.0429,0.0384l2.5454,1.495v2.3243
		c0,0.2764,0.2236,0.5,0.5,0.5s0.5-0.2236,0.5-0.5v-1.737l16.7446,9.8347c0.0073,0.0043,0.0162,0.0026,0.0237,0.0065
		c0.0696,0.0368,0.1454,0.0629,0.2297,0.0629s0.1601-0.0261,0.2297-0.0629c0.0074-0.0039,0.0164-0.0022,0.0237-0.0065l3.8594-2.2697
		v3.3039c0,0.2764,0.2236,0.5,0.5,0.5s0.5-0.2236,0.5-0.5v-3.8486c0-0.0137-0.0067-0.0253-0.0078-0.0388l3.1699-1.8642v3.2936
		c0,0.2764,0.2236,0.5,0.5,0.5c0.2759,0,0.5005-0.2236,0.5005-0.5V43.29c0-0.0019-0.0011-0.0035-0.0011-0.0054l3.1642-1.8608v3.2842
		c0,0.2764,0.2236,0.5,0.5,0.5s0.5-0.2236,0.5-0.5v-3.8723l3.1611-1.8591V42.25c0,0.2764,0.2236,0.5,0.5,0.5s0.5-0.2236,0.5-0.5
		v-3.8614l3.1631-1.8602v3.2636c0,0.2764,0.2236,0.5,0.5,0.5s0.5-0.2236,0.5-0.5v-3.8517l3.1621-1.8596v3.2533
		c0,0.2764,0.2236,0.5,0.5,0.5s0.5-0.2236,0.5-0.5v-3.8414l3.1631-1.8602v3.2436c0,0.2764,0.2236,0.5,0.5,0.5s0.5-0.2236,0.5-0.5
		v-3.8317l3.1621-1.8596v3.2333c0,0.2764,0.2236,0.5,0.5,0.5s0.5-0.2236,0.5-0.5v-3.8214l2.0273-1.1923
		c0.0184-0.0109,0.0293-0.0284,0.0458-0.0411c0.0271-0.0208,0.0524-0.0413,0.0747-0.0672c0.0211-0.0245,0.0371-0.0507,0.0529-0.0784
		c0.0159-0.0276,0.0302-0.0545,0.0406-0.0851c0.0112-0.0328,0.016-0.0656,0.0202-0.1c0.0025-0.0203,0.0119-0.0382,0.0119-0.0592
		v-6.4189C58.6484,20.4723,58.6242,20.3983,58.5894,20.3301z M57.6484,26.6867L22.625,47.285v-5.4171l35.0234-20.4432V26.6867z
		 M2.335,35.9564v-5.0953l19.29,11.0107v5.4136L2.335,35.9564z M13.7527,36.2268l-3.7277-2.1277
		c0.4841-0.2274,1.0817-0.3578,1.707-0.3578c1.4414,0,2.7061,0.7031,2.7061,1.5049C14.438,35.7173,14.017,36.0577,13.7527,36.2268z
		 M38.3447,9.4067l18.8174,11.1445l-35.04,20.4526l-7.4335-4.2429c0.4813-0.4296,0.7495-0.9517,0.7495-1.5149
		c0-1.4043-1.6279-2.5049-3.7061-2.5049c-0.999,0-1.9321,0.2578-2.627,0.7246c-0.0281,0.0189-0.0454,0.046-0.0684,0.0692
		l-6.1992-3.5384L38.3447,9.4067z"/>
	<path class="st0" d="M23.3579,36.625c0.0464,0.0264,0.0981,0.04,0.1499,0.04c0.0513,0,0.103-0.0127,0.1489-0.0391l6.7041-3.8401
		c0.067-0.0115,0.1257-0.0449,0.1717-0.0984l6.6764-3.8242c0.0002-0.0001,0.0004-0.0003,0.0007-0.0004l14.9437-8.5597
		c0.0928-0.0532,0.1494-0.1514,0.1504-0.2583c0.001-0.1064-0.0547-0.2056-0.1465-0.2603l-13.4873-7.9878
		c-0.0938-0.0552-0.2109-0.0562-0.3027-0.0015l-14.9247,8.6021c-0.0981,0.0035-0.1923,0.0369-0.2467,0.1274
		c-0.003,0.0051,0.0003,0.011-0.0024,0.0161L9.7852,28.269c-0.0928,0.0532-0.1499,0.1523-0.1499,0.2598
		c0,0.1069,0.0571,0.2061,0.1499,0.2598L23.3579,36.625z M23.5083,36.0195l-7.4888-4.3242l6.2568-3.6636
		c0.0923-0.0537,0.1489-0.1528,0.1484-0.2598c0-0.1064-0.0571-0.2051-0.1494-0.2588l-1.8022-1.043l6.1-3.5773l6.1788,3.5675
		l-6.2778,3.6543c-0.0928,0.0537-0.1494,0.1528-0.1489,0.2598c0,0.1074,0.0571,0.2061,0.1499,0.2593l3.2079,1.8489L23.5083,36.0195z
		 M32.4545,15.8957l3.0201,1.744c0.0469,0.0269,0.0986,0.04,0.1504,0.04s0.1035-0.0132,0.1504-0.04l5.8643-3.3862l6.0215,3.566
		l-3.0381,1.8109l-2.0977-1.2109c-0.0918-0.0522-0.2041-0.0527-0.2979-0.0015l-6.7959,3.8438
		c-0.0938,0.0527-0.1514,0.1514-0.1523,0.2583c-0.001,0.1074,0.0547,0.2065,0.1475,0.2612l1.8096,1.0688l-3.8867,2.2625
		l-6.6234-3.8237c-0.0001-0.0001-0.0001-0.0002-0.0002-0.0002l-2.631-1.5748L32.4545,15.8957z M30.2855,32.1376l-3.0619-1.765
		l6.1271-3.5664l3.1089,1.7949L30.2855,32.1376z M37.0623,28.2559l-3.1138-1.7976l4.032-2.3469
		c0.0918-0.0537,0.1484-0.1519,0.1484-0.2583c0.001-0.1064-0.0557-0.2051-0.1475-0.2593l-1.8027-1.0649l6.1943-3.5039l2.1016,1.2129
		c0.0947,0.0537,0.2109,0.0537,0.3037-0.002l3.4705-2.0683l3.1594,1.871L37.0623,28.2559z M38.5146,12.4028l2.5323,1.4997
		l-5.422,3.1312l-2.5698-1.4843L38.5146,12.4028z M23.4998,21.0568l2.4836,1.4866l-6.2583,3.6699
		c-0.0918,0.0542-0.1484,0.1528-0.1479,0.2598c0,0.1064,0.0571,0.2051,0.1494,0.2588l1.8022,1.0425l-6.1068,3.5759l-4.8864-2.8215
		L23.4998,21.0568z"/>
</g>
</svg>
