<?xml version="1.0" encoding="utf-8"?>
<!-- Generator: Adobe Illustrator 21.0.0, SVG Export Plug-In . SVG Version: 6.00 Build 0)  -->
<svg version="1.1" id="Layer_1" xmlns="http://www.w3.org/2000/svg" xmlns:xlink="http://www.w3.org/1999/xlink" x="0px" y="0px"
	 viewBox="0 0 30 30" style="enable-background:new 0 0 30 30;" xml:space="preserve">
<style type="text/css">
	.st0{fill:#231F20;}
</style>
<g>
	<path class="st0" d="M29.4221,10.4845c-0.008-0.0159-0.0188-0.0281-0.0289-0.0428c-0.0264-0.0383-0.0577-0.0703-0.0955-0.0973
		c-0.0096-0.0069-0.014-0.0187-0.0243-0.0248L19.374,4.4563c-0.127-0.0742-0.2803-0.0737-0.4043-0.002L0.7124,15.0408
		c-0.0104,0.006-0.0149,0.0178-0.0246,0.0247c-0.0385,0.027-0.0704,0.0592-0.0972,0.0978c-0.0104,0.015-0.0213,0.0275-0.0295,0.0438
		c-0.0281,0.0547-0.0479,0.1142-0.0479,0.1799v3.1206c0,0.0168,0.0076,0.0311,0.0096,0.0474
		c0.0034,0.0278,0.0073,0.0543,0.0163,0.0807c0.0082,0.024,0.0195,0.0449,0.0319,0.0666c0.0128,0.0226,0.0258,0.0439,0.043,0.0638
		c0.0182,0.0211,0.0391,0.0378,0.0613,0.0547c0.0128,0.0097,0.0211,0.0232,0.0353,0.0315l1.1987,0.7041v1.0762
		c0,0.2207,0.1792,0.4004,0.3999,0.4004s0.3999-0.1797,0.3999-0.4004v-0.6064l8.1465,4.7851
		c0.0059,0.0035,0.0131,0.0021,0.0192,0.0052c0.0557,0.0295,0.1162,0.0504,0.1835,0.0504s0.1278-0.0209,0.1835-0.0504
		c0.006-0.0032,0.0132-0.0018,0.0192-0.0052l1.7041-1.0022v1.3899c0,0.2207,0.1792,0.4004,0.3999,0.4004
		s0.3999-0.1797,0.3999-0.4004v-1.8602l1.2813-0.7535v1.3843c0,0.2207,0.1792,0.4004,0.3999,0.4004s0.3999-0.1797,0.3999-0.4004
		v-1.8546l1.2813-0.7535v1.3796c0,0.2207,0.1797,0.4004,0.4004,0.4004s0.4004-0.1797,0.4004-0.4004v-1.8506l1.2803-0.7529v1.374
		c0,0.2207,0.1797,0.4004,0.4004,0.4004s0.4004-0.1797,0.4004-0.4004v-1.845l1.2803-0.7529v1.3694
		c0,0.2207,0.1797,0.4004,0.4004,0.4004s0.4004-0.1797,0.4004-0.4004v-1.8403l1.2803-0.7529v1.3638
		c0,0.2207,0.1797,0.4004,0.4004,0.4004s0.4004-0.1797,0.4004-0.4004v-1.8347l1.2803-0.7529v1.3591
		c0,0.2207,0.1797,0.4004,0.4004,0.4004s0.4004-0.1797,0.4004-0.4004v-1.8301l1.2813-0.7535v1.3546
		c0,0.2212,0.1797,0.3999,0.4004,0.3999s0.4004-0.1787,0.4004-0.3999v-1.8255l0.9385-0.5519
		c0.015-0.0088,0.0237-0.0229,0.0371-0.0332c0.0214-0.0164,0.0413-0.0325,0.0589-0.0528c0.0174-0.0201,0.0305-0.0414,0.0434-0.0642
		c0.0125-0.0218,0.0237-0.043,0.032-0.0671c0.0089-0.0261,0.0127-0.052,0.0161-0.0793c0.0021-0.0165,0.0098-0.031,0.0098-0.0481
		v-3.21C29.4697,10.5984,29.4501,10.5391,29.4221,10.4845z M28.6689,13.6451L11.458,23.7675v-2.36l17.2109-10.0472V13.6451z
		 M1.313,18.2787v-2.2031l9.3452,5.3345v2.3578L1.313,18.2787z M6.8547,18.3177l-1.4858-0.8481
		c0.1543-0.038,0.3202-0.0615,0.4924-0.0615c0.6885,0,1.2031,0.3184,1.2031,0.6025C7.0645,18.1122,6.9802,18.2193,6.8547,18.3177z
		 M19.168,5.2644l9.1123,5.397L11.0557,20.7156l-3.4791-1.9859c0.1802-0.2147,0.2877-0.4604,0.2877-0.7192
		c0-0.7871-0.8799-1.4028-2.0029-1.4028c-0.512,0-0.9885,0.1339-1.3559,0.369l-2.7901-1.5926L19.168,5.2644z"/>
	<path class="st0" d="M4.7632,14.9978l6.7861,3.9189c0.062,0.0352,0.1313,0.0537,0.2002,0.0537s0.1372-0.0176,0.1987-0.0537
		l3.3496-1.9185c0.0328-0.0131,0.0606-0.0294,0.0892-0.051l10.8102-6.1916c0.123-0.0708,0.2002-0.2021,0.2012-0.3442
		c0.001-0.1426-0.0742-0.2744-0.1963-0.3472L19.458,6.0701c-0.126-0.0742-0.2793-0.0747-0.4043-0.0024l-7.4061,4.2691
		c-0.0817,0.0156-0.1536,0.0592-0.2123,0.1224L4.7637,14.305c-0.124,0.0713-0.2002,0.2036-0.2002,0.3467
		C4.5635,14.7942,4.6396,14.9265,4.7632,14.9978z M11.7505,18.1082l-3.2478-1.8749l2.7576-1.6149
		c0.123-0.0718,0.1982-0.2041,0.1978-0.3462c-0.0005-0.1426-0.0762-0.2739-0.1997-0.3452l-0.5288-0.3062l2.554-1.4982l2.5897,1.4951
		l-2.7663,1.6105c-0.1235,0.0718-0.1992,0.2041-0.1987,0.3467c0,0.1426,0.0767,0.2744,0.2002,0.3457l1.2268,0.707L11.7505,18.1082z
		 M16.222,8.6237l1.3864,0.7999c0.0625,0.0356,0.1309,0.0532,0.2002,0.0532s0.1377-0.0176,0.2002-0.0537l2.8056-1.6195
		l2.5224,1.4937l-1.0311,0.6151l-0.9219-0.5317c-0.124-0.0723-0.2734-0.0718-0.3975-0.002l-3.3984,1.9214
		c-0.124,0.0703-0.2012,0.2017-0.2031,0.3442c-0.001,0.1431,0.0742,0.2759,0.1973,0.3481l0.5371,0.3179l-1.4494,0.8438
		l-3.1821-1.8371c-0.0002-0.0001-0.0002-0.0002-0.0004-0.0004l-0.9501-0.569L16.222,8.6237z M15.1389,16.1673l-1.033-0.5953
		l2.5656-1.4933l1.0527,0.6077L15.1389,16.1673z M18.5272,14.2265L17.468,13.615l1.6433-0.9565
		c0.123-0.0713,0.1982-0.2026,0.1992-0.3442c0-0.1421-0.0752-0.2734-0.1973-0.3457L18.584,11.656l2.5977-1.4688l0.9268,0.5352
		c0.127,0.0737,0.2803,0.0723,0.4053-0.0024l1.6072-0.9583l1.0822,0.6409L18.5272,14.2265z M19.251,6.8777l0.7737,0.4582
		L17.8086,8.615l-0.7853-0.4532L19.251,6.8777z M11.7435,11.2052l0.7535,0.4513l-2.7646,1.6216
		c-0.123,0.0723-0.1982,0.2041-0.1978,0.3462c0.0005,0.1426,0.0762,0.2739,0.1997,0.3452l0.5283,0.3057L7.7053,15.773
		l-1.9417-1.1208L11.7435,11.2052z"/>
</g>
</svg>
