<?xml version="1.0" encoding="utf-8"?>
<!-- Generator: Adobe Illustrator 21.0.0, SVG Export Plug-In . SVG Version: 6.00 Build 0)  -->
<svg version="1.1" id="Layer_1" xmlns="http://www.w3.org/2000/svg" xmlns:xlink="http://www.w3.org/1999/xlink" x="0px" y="0px"
	 viewBox="0 0 60 60" style="enable-background:new 0 0 60 60;" xml:space="preserve">
<style type="text/css">
	.st0{fill:#231F20;}
</style>
<g>
	<path class="st0" d="M37.5977,19.9399l5.6074,3.1846c0.4707,0.2646,0.9658,0.3965,1.3975,0.3965
		c0.4385,0,0.8125-0.1367,1.0322-0.4097c0.1631-0.2036,0.2217-0.4565,0.168-0.7314c-0.0908-0.4663-0.501-0.9448-1.0957-1.2788
		l-5.6064-3.1841c-0.9355-0.5249-2.001-0.521-2.4297,0.0127c-0.1631,0.2036-0.2217,0.4565-0.168,0.7314
		C36.5928,19.1274,37.0029,19.606,37.5977,19.9399z M37.1396,18.3047c0.0938-0.1167,0.2969-0.1807,0.5557-0.1807
		c0.3193,0,0.7236,0.0977,1.1094,0.3149l5.6074,3.1846c0.4316,0.2422,0.7461,0.584,0.8018,0.8706
		c0.0195,0.0991,0.0039,0.1782-0.0479,0.2422c-0.208,0.2588-0.9668,0.2573-1.666-0.1343l-5.6074-3.1846
		c-0.4307-0.2422-0.7451-0.584-0.8008-0.8706C37.0723,18.4478,37.0879,18.3687,37.1396,18.3047z"/>
	<path class="st0" d="M55.2064,31.6333l-1.1693-0.5939v-6.1605v-3.1431c0-0.1772-0.0938-0.3413-0.2471-0.4312L35,10.2759
		l0.1582-2.644c0.0117-0.189-0.085-0.3682-0.249-0.4629L29.291,3.9238c-0.1543-0.0889-0.3447-0.0889-0.5,0l-13.5439,7.8159
		l-2.6509,1.5313c-0.0123,0.0071-0.0175,0.0212-0.0291,0.0292c-0.0501,0.0347-0.0916,0.0764-0.1262,0.1267
		c-0.0121,0.0177-0.0251,0.0325-0.0349,0.0517c-0.0353,0.0685-0.0599,0.143-0.0599,0.2255v9.314
		c0,0.0219,0.0097,0.0405,0.0124,0.0616c0.0045,0.0344,0.0089,0.0674,0.0202,0.1001c0.0108,0.0313,0.0262,0.0583,0.0427,0.0864
		c0.0157,0.0269,0.0308,0.0526,0.0515,0.0764c0.0234,0.0269,0.0505,0.0477,0.0791,0.0692c0.0166,0.0125,0.0276,0.0298,0.0461,0.0404
		l5.1338,2.937c0.0688,0.0391,0.146,0.0615,0.2251,0.0654l5.395,0.248l18.8901,11.0649c0.0771,0.0449,0.1641,0.0684,0.2529,0.0684
		h5.4443c0.0231,0,0.043-0.0145,0.0656-0.0177c0.0295,0.0054,0.0566,0.0177,0.0877,0.0177c0.1876,0,0.3446-0.1073,0.4302-0.2599
		l4.5161-2.6073c0.1151-0.0662,0.1913-0.1723,0.2266-0.2902l1.0048,0.5577c0.024,0.0132,0.0505,0.0133,0.076,0.0194
		c0.1904,0.1205,0.4023,0.1935,0.631,0.1935c0.8115,0,1.4473-0.8447,1.4473-1.9229C56.4248,32.5527,55.9046,31.7759,55.2064,31.6333
		z M51.21,32.8506c-0.0027-0.0015-0.0058,0.0004-0.0085-0.001c-0.0025-0.0013-0.0027-0.0046-0.0052-0.0059
		c-0.6494-0.3184-0.9795-0.6143-0.9795-1.3535c0-0.6889,0.3595-1.2693,0.7944-1.3146l2.0259,1.0289v0.1138h0.224l1.0259,0.5211
		c-0.4517,0.3217-0.7558,0.9453-0.7558,1.687c0,0.2354,0.0351,0.4564,0.0908,0.6631L51.21,32.8506z M29.041,4.9341l5.1006,2.9463
		l-0.1582,2.6416c-0.0117,0.1875,0.084,0.3657,0.2461,0.4609L53.0371,22.022v2.5684L47.959,27.522h-5.1748L23.9048,16.4634
		c-0.0082-0.0047-0.0184-0.0036-0.0267-0.0079c-0.049-0.0253-0.1023-0.039-0.159-0.0469c-0.0154-0.0022-0.0287-0.0123-0.0443-0.0131
		l-5.4019-0.2485l-4.4126-2.4512L29.041,4.9341z M13.3462,14.5537l4.2866,2.3815v8.245l-4.2866-2.4523V14.5537z M18.6328,17.1647
		l4.519,0.2077v8.3201l-4.519-0.2081V17.1647z M24.1519,17.7671l12.688,7.4322v2.1137l-2.2002-1.3594
		c-0.0918-0.0571-0.208-0.0605-0.3037-0.0068C34.2412,26,34.1826,26.1001,34.1826,26.209v3.0269
		c0,0.104,0.0537,0.2012,0.1426,0.2554l2.7158,1.6709v2.3997l-12.8892-7.5496V17.7671z M37.498,30.7388l-2.7158-1.6704v-2.3213
		l2.2002,1.3594c0.0918,0.0566,0.207,0.0601,0.3037,0.0068c0.0947-0.0532,0.1533-0.1533,0.1533-0.2622v-2.3005l4.709,2.7584v8.2444
		l-4.5078-2.6404v-2.9188C37.6406,30.8901,37.5869,30.793,37.498,30.7388z M43.1484,28.522h4.4443v8.314h-4.4443V28.522z
		 M48.5928,36.3816v-8.0709l4.4443-2.5657v4.7866l-1.8369-0.9329c-0.0233-0.0117-0.0486-0.0002-0.0734-0.0054
		c-0.0227-0.0055-0.038-0.0258-0.0624-0.0258c-0.8115,0-1.4473,0.8447-1.4473,1.9229c0,1.0287,0.5194,1.4985,1.3001,1.8837
		c0.0008,0.0005,0.0008,0.0016,0.0016,0.0021l1.4684,0.8151L48.5928,36.3816z M54.9775,34.8496
		c-0.459,0-0.8467-0.6064-0.8467-1.3232s0.3877-1.3232,0.8467-1.3232s0.8477,0.6064,0.8477,1.3232S55.4365,34.8496,54.9775,34.8496z
		"/>
	<path class="st0" d="M27.6606,14.4902l4.5903,2.6641c0.0469,0.0273,0.0986,0.0405,0.1504,0.0405
		c0.0566,0,0.1133-0.0156,0.1621-0.0474l1.7148-1.104c0.0879-0.0566,0.1396-0.1543,0.1377-0.2588
		c-0.002-0.104-0.0576-0.1997-0.1475-0.2524l-4.4858-2.6328c-0.0938-0.0547-0.2104-0.0552-0.3042,0.0005l-1.8198,1.0728
		c-0.0918,0.0542-0.1479,0.1528-0.1475,0.2593C27.5112,14.3384,27.5684,14.437,27.6606,14.4902z M29.6313,13.5063l3.9126,2.2964
		l-1.1504,0.7407l-3.9883-2.3145L29.6313,13.5063z"/>
	<path class="st0" d="M43.9904,51.1647c-0.0244-0.0326-0.0366-0.0732-0.0744-0.0944l-4.0372-2.2573
		c0.0457-0.2879,0.0802-0.5796,0.0802-0.8735c0-2.0881-1.1619-3.8804-2.8263-4.7194c-0.0133-0.0098-0.0215-0.0239-0.036-0.0325
		L10.7189,27.5704c-0.0042-0.0026-0.0065-0.007-0.0109-0.0094c-0.7041-0.3984-1.5-0.6089-2.3022-0.6089
		c-2.709,0-4.9126,2.3472-4.9126,5.2324c0,1.7959,0.8486,3.4453,2.2695,4.4121c0.0065,0.0044,0.0146,0.0024,0.0212,0.0065
		c0.004,0.0025,0.006,0.0067,0.0101,0.0091l26.3663,15.5409c0.3378,0.2632,0.7037,0.4824,1.0989,0.6478l0.0163,0.0096
		c0.0227,0.0133,0.0483,0.0103,0.072,0.0197c0.5315,0.2102,1.0991,0.3417,1.6985,0.3417c1.2481,0,2.4154-0.5063,3.3253-1.4039
		l4.414,2.6392c0.0253,0.0146,0.0531,0.0148,0.08,0.0217c0.1783,0.1124,0.3768,0.1804,0.5909,0.1804
		c0.7598,0,1.3545-0.7871,1.3545-1.792C44.8105,52.0642,44.477,51.4339,43.9904,51.1647z M42.1637,53.3357l-6.9518-4.155
		c-0.5879-0.2871-0.8867-0.5557-0.8867-1.2236c0-0.3574,0.1846-0.7061,0.459-0.8672c0.248-0.1455,0.5527-0.1289,0.8779,0.0527
		l7.2305,4.0427c-0.4698,0.2784-0.791,0.8948-0.791,1.6321C42.1016,52.9997,42.1271,53.1711,42.1637,53.3357z M34.9258,49.708
		l0.9635,0.5761c-0.2699,0.1138-0.5504,0.1924-0.8434,0.1924c-1.2939,0-2.3477-1.1396-2.3477-2.541
		c0-1.4004,1.0537-2.54,2.3477-2.54c1.1221,0,2.0603,0.857,2.2916,1.9966l-1.3824-0.7729
		c-0.5127-0.2861-1.0371-0.3037-1.4746-0.0469c-0.459,0.2695-0.7549,0.8125-0.7549,1.3848
		C33.7256,48.9238,34.2139,49.3613,34.9258,49.708z M4.4932,32.1846c0-2.334,1.7554-4.2324,3.9126-4.2324
		c0.6324,0,1.2349,0.1589,1.7919,0.4702c0.0021,0.0013,0.0032,0.0036,0.0054,0.0049l24.2278,14.345
		c-2.4166,0.3265-4.2981,2.5057-4.2981,5.1672c0,0.7511,0.1555,1.462,0.4243,2.1083L6.3018,35.751
		c-0.0009-0.0005-0.002-0.0004-0.0029-0.001C5.1686,34.9661,4.4932,33.6376,4.4932,32.1846z M35.0459,52.1719
		c-0.4782,0-0.9312-0.1065-1.3552-0.2772l-0.9733-0.5737c-0.9559-0.7723-1.5846-1.9946-1.5846-3.3816
		c0-2.334,1.7559-4.2334,3.9131-4.2334s3.9131,1.8994,3.9131,4.2334c0,0.1149-0.0226,0.2274-0.031,0.3419l-0.9515-0.532
		c-0.0925-1.6434-1.3644-2.9534-2.9305-2.9534c-1.625,0-2.9473,1.4082-2.9473,3.1396s1.3223,3.1406,2.9473,3.1406
		c0.5165,0,1.0146-0.1508,1.4611-0.4227l0.9681,0.5789C36.7839,51.8301,35.9422,52.1719,35.0459,52.1719z M43.4561,54.0098
		c-0.4092,0-0.7549-0.5459-0.7549-1.1924s0.3457-1.1934,0.7549-1.1934s0.7549,0.5469,0.7549,1.1934S43.8652,54.0098,43.4561,54.0098
		z"/>
</g>
</svg>
