<?xml version="1.0" encoding="utf-8"?>
<!-- Generator: Adobe Illustrator 21.0.0, SVG Export Plug-In . SVG Version: 6.00 Build 0)  -->
<svg version="1.1" id="Layer_1" xmlns="http://www.w3.org/2000/svg" xmlns:xlink="http://www.w3.org/1999/xlink" x="0px" y="0px"
	 viewBox="0 0 60 60" style="enable-background:new 0 0 60 60;" xml:space="preserve">
<style type="text/css">
	.st0{fill:#231F20;}
</style>
<path class="st0" d="M55.1855,18.0983c-0.0099-0.0195-0.0231-0.0344-0.0354-0.0525c-0.0336-0.0493-0.0737-0.0904-0.1223-0.1249
	c-0.0114-0.0082-0.0166-0.0222-0.0288-0.0294L37.7998,7.7061c-0.1533-0.0908-0.3467-0.0928-0.502-0.0044l-11.329,6.4459
	c-0.0718,0.0201-0.1357,0.059-0.193,0.1098L9.662,23.4257c-0.0563,0.0201-0.1082,0.0484-0.1545,0.088l-4.4987,2.5596
	c-0.0124,0.0071-0.0178,0.0209-0.0294,0.0289c-0.0493,0.0337-0.0904,0.074-0.1248,0.1227c-0.0129,0.0182-0.0259,0.034-0.0362,0.0537
	c-0.0329,0.0624-0.0539,0.1305-0.0576,0.205c-0.0003,0.0062-0.0048,0.0111-0.0049,0.0173c0,0.0011,0.0008,0.002,0.0008,0.0031
	c0,0.0013-0.0008,0.0024-0.0008,0.0038v14.4375c0,0.0191,0.0088,0.0353,0.0109,0.0538c0.0038,0.0346,0.0094,0.0672,0.0202,0.1003
	c0.01,0.0303,0.0228,0.0576,0.0381,0.085c0.0154,0.0281,0.0321,0.0538,0.053,0.0787c0.022,0.0261,0.0463,0.0477,0.0731,0.0688
	c0.0148,0.0117,0.0241,0.028,0.0406,0.0382l17.02,10.5781c0.0085,0.0052,0.0191,0.0032,0.0279,0.0079
	c0.0713,0.0391,0.1491,0.0673,0.2363,0.0673c0.0828,0,0.1574-0.0249,0.2261-0.0604c0.0071-0.0036,0.0154-0.002,0.0224-0.006
	l32.4688-18.6094c0.0188-0.0107,0.0301-0.0283,0.0469-0.0411c0.0276-0.0209,0.054-0.041,0.0767-0.0671
	c0.0216-0.0248,0.0375-0.0515,0.0536-0.0796c0.0157-0.0271,0.0305-0.0533,0.0409-0.0833c0.0115-0.0333,0.0162-0.0667,0.0206-0.1017
	c0.0026-0.0208,0.0122-0.0392,0.0122-0.0607V18.3218C55.2441,18.2402,55.2202,18.1663,55.1855,18.0983z M5.7559,27.3942
	l16.02,9.6827v13.5474l-16.02-9.9572V27.3942z M22.7759,37.0856l3.8042-2.1644v13.5591l-3.8042,2.1804V37.0856z M18.9373,19.2989
	c0.8729,0.4352,1.9488,0.6733,3.1106,0.6733c0.208,0,0.4189-0.0073,0.6313-0.0225c1.377-0.0967,2.6563-0.5049,3.6025-1.1494
	c1.0278-0.6997,1.5571-1.6006,1.4912-2.5361c-0.0397-0.5676-0.3135-1.0997-0.7704-1.5542l6.0186-3.4244l16.3082,9.5415
	l-6.7109,3.8183c-1.0748-0.5447-2.4196-0.8543-3.8488-0.8543c-3.3574,0-5.9873,1.6016-5.9873,3.646
	c0,0.7969,0.4006,1.5418,1.1378,2.1572l-6.822,3.8814L10.8401,23.906L18.9373,19.2989z M26.09,15.2292
	c0.3331,0.2596,0.652,0.625,0.6854,1.1048c0.04,0.5664-0.3354,1.1484-1.0566,1.6396c-0.8022,0.5464-1.9067,0.894-3.1099,0.979
	c-0.9163,0.0631-1.8113-0.0399-2.5692-0.2809L26.09,15.2292z M34.8784,29.049c-0.6974-0.4707-1.0961-1.0311-1.0961-1.612
	c0-1.4341,2.2842-2.646,4.9873-2.646c1.0043,0,1.9573,0.1649,2.7753,0.465L34.8784,29.049z M27.5801,34.3522l6.8271-3.8843v13.5262
	l-6.8271,3.913V34.3522z M35.4072,29.8989l6.7441-3.8372v13.4937l-6.7441,3.8655V29.8989z M43.1514,25.4927l6.708-3.8166v13.3805
	c0,0.0257,0.0109,0.0479,0.0146,0.0725l-6.7226,3.8531V25.4927z M50.8594,21.1072l3.3848-1.9258v13.4429l-3.3848,1.94V21.1072z
	 M37.54,8.7144l16.208,9.5986l-3.4142,1.9426L34.0256,10.714L37.54,8.7144z M9.8383,24.476l16.2579,9.5697l-3.8126,2.1692
	L6.2441,26.521L9.8383,24.476z"/>
</svg>
