<?xml version="1.0" encoding="utf-8"?>
<!-- Generator: Adobe Illustrator 21.0.0, SVG Export Plug-In . SVG Version: 6.00 Build 0)  -->
<svg version="1.1" id="Layer_1" xmlns="http://www.w3.org/2000/svg" xmlns:xlink="http://www.w3.org/1999/xlink" x="0px" y="0px"
	 viewBox="0 0 60 60" style="enable-background:new 0 0 60 60;" xml:space="preserve">
<style type="text/css">
	.st0{fill:#231F20;}
</style>
<path class="st0" d="M42.5313,35.374c0-1.6048-1.009-3.1492-2.8365-4.3598c0.0733-0.2657,0.1246-0.536,0.1246-0.815
	c0-0.2764-0.2236-0.5-0.5-0.5c-0.1658,0-0.3055,0.0859-0.3965,0.21v-0.0206c0.0144-0.0178,0.0347-0.0333,0.0488-0.0511
	c0.5313-0.6733,0.8008-1.3965,0.8008-2.1494c0-0.2764-0.2236-0.5-0.5-0.5c-0.1359,0-0.2583,0.055-0.3484,0.1428
	c0.5339-0.6755,0.8044-1.4,0.8044-2.1526c0-0.2764-0.2236-0.5-0.5-0.5c-0.1173,0-0.2204,0.0465-0.3057,0.114v-0.0405
	c0.4987-0.6548,0.7588-1.3548,0.7588-2.0847c0-0.2764-0.2236-0.5-0.5-0.5c-0.0969,0-0.1822,0.0348-0.2588,0.0825v-0.0723
	c0.4675-0.6374,0.7148-1.3148,0.7148-2.02c0-0.2764-0.2236-0.5-0.5-0.5c-0.0778,0-0.1492,0.0211-0.2148,0.0528v-0.1247
	c1.9423-1.0856,3.2159-2.5306,3.4699-4.1619c0.0325-0.0663,0.0545-0.1384,0.0545-0.2173V8.665c0-3.8159-5.7295-7.04-12.5112-7.04
	c-6.6684,0-12.1073,3.0173-12.3535,6.7767c-0.0094,0.0384-0.0234,0.0751-0.0234,0.1164v6.2969c0,1.8798,1.3335,3.5565,3.5181,4.7753
	v0.0942c-0.0439-0.0126-0.0873-0.0273-0.1353-0.0273c-0.2764,0-0.5,0.2236-0.5,0.5c0,0.663,0.2199,1.3035,0.6353,1.9096v0.1183
	c-0.0304-0.0057-0.0583-0.0182-0.0903-0.0182c-0.2764,0-0.5,0.2236-0.5,0.5c0,0.6389,0.2057,1.256,0.5903,1.8418v0.1783
	c-0.0153-0.0014-0.0284-0.0089-0.0439-0.0089c-0.2764,0-0.5,0.2236-0.5,0.5c0,0.6118,0.1899,1.204,0.5439,1.7684v0.2416
	c-0.2759,0.0006-0.499,0.2238-0.499,0.4998c0,0.5874,0.174,1.1559,0.499,1.6983v0.3222c-0.2537,0.0242-0.4541,0.2307-0.4541,0.4907
	c0,0.2351,0.0335,0.4648,0.0856,0.6909c-0.1112-0.0126-0.2269,0.0049-0.3282,0.0704c-1.8774,1.2192-2.9111,2.7866-2.9111,4.4136
	c0,0.0002,0.0001,0.0004,0.0001,0.0007c0,0.0001-0.0001,0.0002-0.0001,0.0003v6.3428c0,1.7753,1.1886,3.3674,3.1509,4.5715v9.5858
	c0,0.8271,0.6729,1.5,1.5,1.5h0.1431c0.8271,0,1.5-0.6729,1.5-1.5v-8.2c1.8278,0.5624,3.9488,0.8856,6.2368,0.8856
	c2.3165,0,4.4609-0.3319,6.3037-0.9073v8.5547c0,0.8271,0.6729,1.5,1.5,1.5h0.1436c0.8271,0,1.5-0.6729,1.5-1.5v-9.959
	c1.9227-1.1992,3.084-2.7759,3.084-4.5313V35.375c0-0.0001-0.0001-0.0002-0.0001-0.0003
	C42.5312,35.3745,42.5313,35.3743,42.5313,35.374z M29.936,2.625c6.1323,0,11.5112,2.8223,11.5112,6.04
	c0,3.1421-5.2412,5.7969-11.4443,5.7969S18.5591,11.8071,18.5591,8.665C18.5591,5.3911,23.769,2.625,29.936,2.625z M18.5591,14.8149
	v-3.4374c1.883,2.424,6.2415,4.0844,11.4438,4.0844c5.2028,0,9.5613-1.6605,11.4443-4.0844v3.4374
	c0,3.1421-5.2412,5.7969-11.4443,5.7969S18.5591,17.957,18.5591,14.8149z M30.0029,21.6118c3.0396,0,5.7827-0.5716,7.9199-1.5262
	v1.7375c-1.3723,1.5762-4.5005,2.631-7.8828,2.631c-3.4747,0-6.636-1.0926-7.9629-2.7258v-1.6364
	C24.2155,21.0452,26.9653,21.6118,30.0029,21.6118z M30.2212,34.4961c-3.7273,0-6.9859-1.2599-8.144-2.9553v-0.9946
	c1.7257,1.5029,4.7417,2.4392,8.0977,2.4392c3.1246,0,5.976-0.8289,7.748-2.1666v1.2469
	C36.5037,33.489,33.5515,34.4961,30.2212,34.4961z M37.9229,33.3872v1.0718c0,2.1826-3.708,4.0967-7.936,4.0967
	c-4.2134,0-7.9097-1.9141-7.9097-4.0967V33.03c1.6806,1.4901,4.6644,2.4661,8.144,2.4661
	C33.4139,35.4961,36.1875,34.6733,37.9229,33.3872z M30.1748,31.9854c-3.5776,0-6.8257-1.1499-8.083-2.8618
	c-0.0056-0.0076-0.0092-0.0154-0.0146-0.0229v-1.0291c1.7336,1.481,4.727,2.4036,8.0537,2.4036c3.1491,0,6.0237-0.8422,7.792-2.1993
	v1.2144C36.4905,30.9904,33.4617,31.9854,30.1748,31.9854z M30.1309,29.4751c-3.5504,0-6.7778-1.1354-8.0537-2.827V25.598
	c1.7401,1.458,4.7097,2.3658,8.0068,2.3658c3.1751,0,6.0748-0.8566,7.8389-2.2341v1.2061
	C36.5096,28.4603,33.4501,29.4751,30.1309,29.4751z M30.084,26.9639c-3.5117,0-6.7046-1.1136-8.0068-2.7748v-1.0662
	c1.7462,1.4371,4.694,2.3313,7.9629,2.3313c3.1985,0,6.1232-0.8694,7.8828-2.2662v1.1891
	C36.5306,25.9282,33.4364,26.9639,30.084,26.9639z M22.7632,55.875c0,0.2754-0.2241,0.5-0.5,0.5h-0.1431
	c-0.2759,0-0.5-0.2246-0.5-0.5v-9.0392c0.3633,0.1769,0.7423,0.3439,1.1431,0.4966V55.875z M38.4473,56.208
	c0,0.2754-0.2246,0.5-0.5,0.5h-0.1436c-0.2754,0-0.5-0.2246-0.5-0.5v-8.8477c0-0.018-0.0084-0.0332-0.0103-0.0507
	c0.4047-0.156,0.7878-0.3261,1.1538-0.507V56.208z M41.5313,41.7178c0,3.167-5.2803,5.8428-11.5313,5.8428
	c-6.2505,0-11.5308-2.6758-11.5308-5.8428v-3.6212c1.8927,2.4448,6.2864,4.1202,11.5308,4.1202
	c5.2451,0,9.6386-1.6755,11.5313-4.1202V41.7178z M30,41.2168c-6.2505,0-11.5308-2.6758-11.5308-5.8428
	c0-1.2764,0.8721-2.5459,2.4561-3.5752c0.0366-0.0238,0.0615-0.0571,0.0897-0.0878c0.0217,0.0415,0.0388,0.0842,0.0622,0.1252
	v2.6227c0,2.8105,3.9971,5.0967,8.9097,5.0967c4.9272,0,8.936-2.2861,8.936-5.0967v-2.0007
	c0.1372-0.1642,0.2585-0.3336,0.3663-0.5066c1.4435,0.9996,2.2421,2.2062,2.2421,3.4223C41.5313,38.541,36.251,41.2168,30,41.2168z"
	/>
</svg>
