<?xml version="1.0" encoding="utf-8"?>
<!-- Generator: Adobe Illustrator 21.0.0, SVG Export Plug-In . SVG Version: 6.00 Build 0)  -->
<svg version="1.1" id="Layer_1" xmlns="http://www.w3.org/2000/svg" xmlns:xlink="http://www.w3.org/1999/xlink" x="0px" y="0px"
	 viewBox="0 0 60 60" style="enable-background:new 0 0 60 60;" xml:space="preserve">
<style type="text/css">
	.st0{display:none;opacity:0.2;}
	.st1{display:inline;fill:none;stroke:#00ADEE;stroke-width:0.125;stroke-miterlimit:10;}
	.st2{fill:#231F20;}
</style>
<g class="st0">
	<path class="st1" d="M-0.375-1.557"/>
	<line class="st1" x1="1.875" y1="62.156" x2="1.875" y2="-1.36"/>
	<line class="st1" x1="4.125" y1="62.353" x2="4.125" y2="-1.557"/>
	<line class="st1" x1="6.375" y1="61.959" x2="6.375" y2="-1.311"/>
	<line class="st1" x1="8.625" y1="62.746" x2="8.625" y2="-1.655"/>
	<line class="st1" x1="10.875" y1="62.353" x2="10.875" y2="-1.508"/>
	<line class="st1" x1="13.125" y1="62.5" x2="13.125" y2="-1.606"/>
	<line class="st1" x1="15.375" y1="62.353" x2="15.375" y2="-1.557"/>
	<line class="st1" x1="17.625" y1="62.5" x2="17.625" y2="-1.902"/>
	<line class="st1" x1="19.875" y1="62.156" x2="19.875" y2="-1.655"/>
	<line class="st1" x1="22.125" y1="62.303" x2="22.125" y2="-1.852"/>
	<line class="st1" x1="24.375" y1="62.106" x2="24.375" y2="-1.458"/>
	<line class="st1" x1="26.625" y1="62.254" x2="26.625" y2="-1.508"/>
	<line class="st1" x1="28.875" y1="62.303" x2="28.875" y2="-1.508"/>
	<line class="st1" x1="31.125" y1="62.057" x2="31.125" y2="-1.458"/>
	<line class="st1" x1="33.375" y1="62.106" x2="33.375" y2="-1.409"/>
	<line class="st1" x1="35.625" y1="62.353" x2="35.625" y2="-1.606"/>
	<line class="st1" x1="37.875" y1="62.156" x2="37.875" y2="-1.557"/>
	<line class="st1" x1="40.125" y1="62.451" x2="40.125" y2="-1.508"/>
	<line class="st1" x1="42.375" y1="62.254" x2="42.375" y2="-1.36"/>
	<line class="st1" x1="44.625" y1="62.106" x2="44.625" y2="-1.508"/>
	<line class="st1" x1="46.875" y1="62.156" x2="46.875" y2="-1.508"/>
	<line class="st1" x1="49.125" y1="62.106" x2="49.125" y2="-1.508"/>
	<line class="st1" x1="51.375" y1="61.86" x2="51.375" y2="-1.557"/>
	<line class="st1" x1="53.625" y1="62.156" x2="53.625" y2="-1.754"/>
	<line class="st1" x1="55.875" y1="62.156" x2="55.875" y2="-1.606"/>
	<line class="st1" x1="58.125" y1="62.451" x2="58.125" y2="-1.606"/>
	<line class="st1" x1="0.707" y1="62.173" x2="-1.49" y2="60.904"/>
	<line class="st1" x1="5.116" y1="62.12" x2="-1.544" y2="58.275"/>
	<line class="st1" x1="9.971" y1="62.325" x2="-1.555" y2="55.67"/>
	<line class="st1" x1="14.59" y1="62.394" x2="-1.607" y2="53.042"/>
	<line class="st1" x1="18.865" y1="62.263" x2="-1.499" y2="50.506"/>
	<line class="st1" x1="23.182" y1="62.158" x2="-1.459" y2="47.931"/>
	<line class="st1" x1="27.736" y1="62.189" x2="-1.529" y2="45.293"/>
	<line class="st1" x1="32.049" y1="62.081" x2="-1.465" y2="42.732"/>
	<line class="st1" x1="36.749" y1="62.196" x2="-1.522" y2="40.101"/>
	<line class="st1" x1="41.271" y1="62.209" x2="-1.645" y2="37.431"/>
	<line class="st1" x1="45.801" y1="62.226" x2="-1.572" y2="34.876"/>
	<line class="st1" x1="50.08" y1="62.099" x2="-1.576" y2="32.275"/>
	<line class="st1" x1="54.737" y1="62.19" x2="-1.594" y2="29.667"/>
	<line class="st1" x1="59.428" y1="62.3" x2="-1.647" y2="27.038"/>
	<line class="st1" x1="61.539" y1="60.921" x2="-1.545" y2="24.499"/>
	<line class="st1" x1="61.758" y1="58.449" x2="-1.458" y2="21.951"/>
	<line class="st1" x1="61.545" y1="55.728" x2="-1.525" y2="19.314"/>
	<line class="st1" x1="61.597" y1="53.16" x2="-1.558" y2="16.697"/>
	<line class="st1" x1="61.527" y1="50.521" x2="-1.469" y2="14.15"/>
	<line class="st1" x1="61.65" y1="47.994" x2="-1.472" y2="11.551"/>
	<line class="st1" x1="61.538" y1="45.331" x2="-1.42" y2="8.983"/>
	<line class="st1" x1="61.48" y1="42.7" x2="-1.375" y2="6.41"/>
	<polyline class="st1" points="61.578,40.158 -1.135,3.951 -1.529,3.723 	"/>
	<polyline class="st1" points="61.514,37.524 -1.248,1.288 -2.111,0.79 	"/>
	<polyline class="st1" points="61.544,34.943 0,-0.59 -1.761,-1.606 	"/>
	<line class="st1" x1="61.353" y1="32.234" x2="2.933" y2="-1.494"/>
	<line class="st1" x1="61.482" y1="29.711" x2="7.489" y2="-1.462"/>
	<line class="st1" x1="61.479" y1="27.111" x2="11.988" y2="-1.463"/>
	<line class="st1" x1="61.458" y1="24.501" x2="16.186" y2="-1.637"/>
	<line class="st1" x1="61.361" y1="21.847" x2="20.651" y2="-1.657"/>
	<line class="st1" x1="61.563" y1="19.365" x2="25.485" y2="-1.464"/>
	<line class="st1" x1="61.605" y1="16.791" x2="30.1" y2="-1.398"/>
	<line class="st1" x1="61.433" y1="14.094" x2="34.593" y2="-1.402"/>
	<line class="st1" x1="61.589" y1="11.586" x2="38.944" y2="-1.488"/>
	<line class="st1" x1="61.366" y1="8.86" x2="43.447" y2="-1.486"/>
	<line class="st1" x1="61.599" y1="6.396" x2="48.098" y2="-1.399"/>
	<line class="st1" x1="61.587" y1="3.79" x2="52.221" y2="-1.617"/>
	<line class="st1" x1="61.605" y1="1.203" x2="56.949" y2="-1.485"/>
	<path class="st1" d="M-57.75-91.089"/>
	<path class="st1" d="M-56.625-93.038"/>
	<path class="st1" d="M-55.5-94.987"/>
	<path class="st1" d="M-54.375-96.935"/>
	<path class="st1" d="M-53.25-98.884"/>
	<path class="st1" d="M-52.125-100.832"/>
	<path class="st1" d="M-51-102.781"/>
	<path class="st1" d="M-49.875-104.729"/>
	<path class="st1" d="M-48.75-106.678"/>
	<path class="st1" d="M61.631,62.121"/>
	<line class="st1" x1="56.838" y1="62.29" x2="61.535" y2="59.579"/>
	<line class="st1" x1="52.761" y1="62.046" x2="61.655" y2="56.911"/>
	<line class="st1" x1="48.248" y1="62.054" x2="61.639" y2="54.322"/>
	<line class="st1" x1="43.747" y1="62.054" x2="61.555" y2="51.773"/>
	<line class="st1" x1="38.977" y1="62.211" x2="61.555" y2="49.175"/>
	<line class="st1" x1="34.718" y1="62.071" x2="61.602" y2="46.55"/>
	<line class="st1" x1="30.312" y1="62.017" x2="61.607" y2="43.949"/>
	<line class="st1" x1="25.399" y1="62.256" x2="61.575" y2="41.369"/>
	<line class="st1" x1="21.12" y1="62.128" x2="61.516" y2="38.805"/>
	<line class="st1" x1="16.295" y1="62.315" x2="61.616" y2="36.149"/>
	<line class="st1" x1="11.778" y1="62.325" x2="61.415" y2="33.667"/>
	<line class="st1" x1="6.949" y1="62.515" x2="61.557" y2="30.987"/>
	<line class="st1" x1="3.231" y1="62.064" x2="61.44" y2="28.457"/>
	<line class="st1" x1="-1.62" y1="62.266" x2="61.498" y2="25.825"/>
	<line class="st1" x1="-1.625" y1="59.671" x2="61.567" y2="23.187"/>
	<line class="st1" x1="-1.398" y1="56.942" x2="61.477" y2="20.641"/>
	<line class="st1" x1="-1.514" y1="54.411" x2="61.651" y2="17.943"/>
	<line class="st1" x1="-1.367" y1="51.728" x2="61.481" y2="15.443"/>
	<line class="st1" x1="-1.426" y1="49.164" x2="61.624" y2="12.762"/>
	<line class="st1" x1="-1.554" y1="46.64" x2="61.559" y2="10.201"/>
	<line class="st1" x1="-1.659" y1="44.102" x2="61.506" y2="7.634"/>
	<line class="st1" x1="-1.549" y1="41.441" x2="61.496" y2="5.042"/>
	<line class="st1" x1="-1.501" y1="38.815" x2="61.691" y2="2.331"/>
	<line class="st1" x1="-1.687" y1="36.324" x2="61.659" y2="-0.249"/>
	<line class="st1" x1="-1.522" y1="33.631" x2="59.322" y2="-1.497"/>
	<line class="st1" x1="-1.64" y1="31.101" x2="55.116" y2="-1.667"/>
	<line class="st1" x1="-1.454" y1="28.396" x2="50.498" y2="-1.599"/>
	<line class="st1" x1="-1.477" y1="25.811" x2="46.01" y2="-1.606"/>
	<line class="st1" x1="-1.619" y1="23.295" x2="41.374" y2="-1.527"/>
	<line class="st1" x1="-1.589" y1="20.679" x2="36.704" y2="-1.429"/>
	<line class="st1" x1="-1.499" y1="18.029" x2="32.345" y2="-1.51"/>
	<line class="st1" x1="-1.488" y1="15.425" x2="27.96" y2="-1.577"/>
	<line class="st1" x1="-1.537" y1="12.855" x2="23.453" y2="-1.573"/>
	<line class="st1" x1="-1.447" y1="10.205" x2="19.027" y2="-1.616"/>
	<polyline class="st1" points="-1.57,7.678 -0.992,7.344 14.636,-1.679 	"/>
	<line class="st1" x1="-1.692" y1="5.15" x2="9.935" y2="-1.562"/>
	<line class="st1" x1="-1.256" y1="2.301" x2="4.909" y2="-1.259"/>
	<path class="st1" d="M0.826-1.5"/>
</g>
<g>
	<path class="st2" d="M58.5504,17.1099c-0.0096-0.019-0.0227-0.0338-0.0347-0.0515c-0.0336-0.0494-0.0739-0.0907-0.1226-0.1252
		c-0.0114-0.0081-0.0165-0.0222-0.0287-0.0294L36.1631,3.7559c-0.1553-0.0913-0.3496-0.0923-0.5029-0.0039L1.5166,23.2969
		c-0.0128,0.0074-0.0185,0.0218-0.0305,0.0302c-0.0482,0.0334-0.0885,0.0732-0.1224,0.1211
		c-0.0131,0.0186-0.0264,0.0345-0.0368,0.0547c-0.0329,0.063-0.0542,0.1316-0.0576,0.2068
		c-0.0002,0.0055-0.0042,0.0099-0.0043,0.0154c0,0.0009,0.0007,0.0017,0.0007,0.0026c0,0.0012-0.0007,0.0021-0.0007,0.0032v5.877
		c0,0.0191,0.0088,0.0353,0.0109,0.0538c0.0038,0.0344,0.0093,0.0669,0.0201,0.0998c0.0101,0.0307,0.0229,0.0582,0.0385,0.0859
		c0.0153,0.0276,0.0317,0.0531,0.0524,0.0778c0.0221,0.0264,0.0466,0.0482,0.0737,0.0695c0.0148,0.0117,0.024,0.0278,0.0403,0.038
		l3.48,2.163v5.4293c0,0.4746,0.1938,0.8633,0.5317,1.0674c0.1621,0.0977,0.3457,0.1465,0.5396,0.1465
		c0.2114,0,0.4346-0.0586,0.6543-0.1738l0.6216-0.3281C8.0459,37.96,8.5864,37.0615,8.585,36.25l-0.0013-1.815l7.3383,4.5611
		c0.0007,0.0004,0.0015,0.0002,0.0021,0.0006l7.5477,4.6908c0.0811,0.0498,0.1724,0.0752,0.2642,0.0752
		c0.0864,0,0.1729-0.0225,0.25-0.0674l3.1963-1.8459v6.2424c0,0.4746,0.1938,0.8633,0.5317,1.0674
		c0.1616,0.0977,0.3457,0.1465,0.54,0.1465c0.2109,0,0.4341-0.0576,0.6533-0.1729l0.6226-0.3281
		c0.7173-0.3799,1.2578-1.2773,1.2563-2.0889l-0.0136-6.9399l2.6396-1.5244v6.2397c0,0.4746,0.1943,0.8633,0.5322,1.0674
		c0.1621,0.0977,0.3457,0.1465,0.5391,0.1465c0.2119,0,0.4346-0.0586,0.6543-0.1738l0.6221-0.3281
		c0.7178-0.3789,1.2568-1.2764,1.2559-2.0879l-0.0131-6.9372l2.6391-1.5241v6.2357c0,0.4746,0.1943,0.8643,0.5322,1.0684
		c0.1621,0.0977,0.3457,0.1465,0.54,0.1465c0.2109,0,0.4346-0.0586,0.6533-0.1738l0.6221-0.3281
		c0.7178-0.3789,1.2578-1.2764,1.2568-2.0889l-0.0131-6.9338l2.6391-1.5241V37.29c0,0.4746,0.1943,0.8633,0.5322,1.0674
		c0.1621,0.0977,0.3457,0.1465,0.5391,0.1465c0.2119,0,0.4346-0.0586,0.6543-0.1738l0.623-0.3291
		c0.7168-0.3789,1.2559-1.2764,1.2549-2.0869l-0.0131-6.9318l2.6401-1.5247v6.2318c0,0.4746,0.1943,0.8633,0.5322,1.0674
		c0.1621,0.0977,0.3457,0.1465,0.54,0.1465c0.2109,0,0.4346-0.0586,0.6533-0.1738l0.623-0.3291
		c0.7158-0.3799,1.2559-1.2764,1.2559-2.0859v-0.001l-0.0131-6.9299l2.6655-1.5393c0.0186-0.0107,0.0296-0.0281,0.0463-0.0408
		c0.0279-0.0211,0.0543-0.0417,0.0772-0.0681c0.0211-0.0244,0.0369-0.0505,0.0527-0.0781c0.016-0.0276,0.0308-0.0542,0.0413-0.0848
		c0.0114-0.033,0.016-0.066,0.0203-0.1006c0.0026-0.0208,0.0122-0.0391,0.0122-0.0607V17.334
		C58.6094,17.2521,58.5851,17.1781,58.5504,17.1099z M29.0625,47.9199l-0.6216,0.3281c-0.1299,0.0674-0.1992,0.0586-0.21,0.0557
		c-0.0098-0.0078-0.0488-0.0664-0.0488-0.2119v-6.8184l1.5913-0.9199l0.0127,6.3643
		C29.7866,47.1543,29.4487,47.7158,29.0625,47.9199z M54.9763,24.6431c-0.0105,0.0051-0.0228,0.0029-0.033,0.0088l-2.5908,1.4961
		c-0.0104,0.006-0.0147,0.0179-0.0245,0.0245l-3.5905,2.0736c-0.0081,0.0041-0.0176,0.0023-0.0256,0.0068l-2.5898,1.4961
		c-0.0075,0.0043-0.0106,0.0131-0.0178,0.0178l-3.6057,2.0823c-0.0051,0.0027-0.0112,0.0015-0.0162,0.0044l-2.5908,1.4961
		c-0.0052,0.003-0.0072,0.0091-0.0123,0.0123l-3.6188,2.0899c-0.0027,0.0015-0.0059,0.0008-0.0085,0.0023l-2.5898,1.4961
		c-0.0023,0.0013-0.0031,0.004-0.0053,0.0053l-9.421,5.4408v-5.0978l33.3735-19.1022v4.9262L54.9763,24.6431z M2.2651,29.3297
		v-4.7125l6.6841,4.0395v4.8275L2.2651,29.3297z M9.9492,29.2611l4.563,2.7576v4.9232l-4.563-2.8361V29.2611z M15.5122,37.5634
		V32.623l7.7236,4.6677v5.0724L15.5122,37.5634z M35.9043,4.7646l21.2109,12.562L23.7427,36.4287L2.751,23.7427L35.9043,4.7646z
		 M7.585,36.251c0.0005,0.4365-0.3369,0.998-0.7231,1.2012l-0.6221,0.3281c-0.1274,0.0674-0.1997,0.0615-0.21,0.0557
		C6.02,37.8291,5.981,37.7695,5.981,37.625v-4.8077l1.6022,0.9958L7.585,36.251z M36.0156,43.1172
		c0.001,0.4365-0.3369,0.998-0.7227,1.2012l-0.6221,0.3281c-0.1279,0.0674-0.2002,0.0635-0.21,0.0557
		c-0.0098-0.0068-0.0488-0.0664-0.0488-0.2109V37.674l1.5918-0.9193L36.0156,43.1172z M42.2461,39.5156
		c0.001,0.4365-0.3379,0.999-0.7236,1.2021l-0.6221,0.3281c-0.1299,0.0684-0.2012,0.0625-0.21,0.0557
		c-0.0098-0.0068-0.0488-0.0664-0.0488-0.2119v-6.8132l1.5928-0.9198L42.2461,39.5156z M48.4756,35.916
		c0.001,0.4355-0.3369,0.9971-0.7227,1.2012l-0.6221,0.3281c-0.1289,0.0674-0.1992,0.0635-0.21,0.0557
		c-0.0098-0.0068-0.0488-0.0664-0.0488-0.2109v-6.8118l1.5918-0.9193L48.4756,35.916z M54.707,32.3145
		c0,0.4365-0.3389,0.998-0.7236,1.2021l-0.6221,0.3281c-0.1318,0.0703-0.2002,0.0625-0.21,0.0557s-0.0488-0.0654-0.0488-0.2109
		v-6.8093l1.5928-0.9199L54.707,32.3145z"/>
	<path class="st2" d="M51.3672,17.0229c0.0928-0.0532,0.1504-0.1514,0.1514-0.2583s-0.0547-0.2061-0.1465-0.2607L36.25,7.5459
		c-0.0947-0.0557-0.209-0.0562-0.3018-0.0024L8.5566,23.1504c-0.0923,0.0527-0.1504,0.1504-0.1514,0.2568
		c-0.0015,0.1064,0.0537,0.2056,0.1445,0.2607l14.9619,9.0488c0.0479,0.0283,0.1016,0.043,0.1553,0.043
		c0.0513,0,0.1025-0.0127,0.1484-0.0391L51.3672,17.0229z M9.2974,23.4189L36.0938,8.1514l14.5283,8.606l-26.9507,15.355
		L9.2974,23.4189z"/>
	<path class="st2" d="M37.7383,15.1484c-0.0879-0.1406-0.2754-0.1831-0.4131-0.0942c-0.4861,0.3053-0.7659,0.4821-1.2308,0.779
		c-0.6055-0.2975-1.3555-0.3242-1.8239-0.0275c-0.2389,0.1509-0.3632,0.3707-0.39,0.6155c-2.5187-1.1805-5.7071-1.134-7.9371,0.2062
		c-2.1353,1.2842-3.2559,1.9556-5.3862,3.1836l-0.8096,0.4668l0.9302,0.0913c0.0223,0.0023,1.347,0.1395,2.9312,0.5374
		c-0.7387,0.4435-1.2894,0.7692-2.1797,1.2873c-0.1431,0.0835-0.1919,0.2671-0.1084,0.4102
		c0.0557,0.0957,0.1563,0.1489,0.2598,0.1489c0.0508,0,0.103-0.0127,0.1504-0.0405c1.077-0.627,1.6582-0.9727,2.6787-1.5877
		c0.8916,0.2651,1.8093,0.6132,2.5874,1.0667c0.6243,0.3638,1.1014,0.795,1.4824,1.2269c-0.8884,0.5588-1.4552,0.9113-2.4921,1.5411
		c-0.1416,0.0859-0.1865,0.2705-0.1006,0.4121c0.0566,0.0928,0.1553,0.144,0.2568,0.144c0.0527,0,0.1064-0.0137,0.1553-0.0435
		c1.0651-0.6469,1.6329-1.0002,2.5626-1.5854c0.6535,0.9056,0.8589,1.7,0.8622,1.7128l0.0947,0.3936l0.3486-0.2046
		c2.1875-1.2832,3.1934-1.8984,5.0205-3.0156l0.1816-0.1113c1.0459-0.6392,1.626-1.5273,1.6338-2.502
		c0.0063-0.8444-0.4235-1.699-1.2001-2.4515c0.2538-0.0237,0.4946-0.0821,0.6815-0.2037c0.2598-0.1685,0.4014-0.4126,0.3984-0.688
		c-0.0019-0.2128-0.0997-0.4204-0.2626-0.6063c0.3524-0.2249,0.6113-0.3891,1.0234-0.6481
		C37.7842,15.4741,37.8262,15.2886,37.7383,15.1484z M35.0566,22.1499l-0.1826,0.1113c-1.7305,1.0581-2.7236,1.6655-4.6865,2.8193
		c-0.2642-0.7256-1.0288-2.3242-2.8887-3.4077c-0.8388-0.4888-1.8134-0.8548-2.7526-1.133
		c-0.0454-0.0272-0.0862-0.0415-0.1391-0.0422c-1.0778-0.3102-2.0963-0.5022-2.786-0.6085c1.6704-0.9688,2.7632-1.624,4.6318-2.7471
		c2.3145-1.3921,5.7588-1.2837,8.1904,0.2583c1.2529,0.7944,1.9668,1.7983,1.959,2.7544
		C36.3965,20.9253,35.9307,21.6152,35.0566,22.1499z M36.1582,17.0015c-0.3242,0.2085-0.9727,0.1582-1.3926-0.1079
		c-0.2266-0.1436-0.3076-0.2964-0.3076-0.3911c0-0.0698,0.0449-0.1338,0.1328-0.1899c0.1318-0.0835,0.3154-0.1235,0.5156-0.1235
		c0.2871,0,0.6074,0.082,0.8574,0.2378c0.2344,0.1465,0.3184,0.3042,0.3193,0.395C36.2842,16.8867,36.2422,16.9468,36.1582,17.0015z
		"/>
</g>
</svg>
