<?xml version="1.0" encoding="utf-8"?>
<!-- Generator: Adobe Illustrator 21.0.0, SVG Export Plug-In . SVG Version: 6.00 Build 0)  -->
<svg version="1.1" id="Layer_1" xmlns="http://www.w3.org/2000/svg" xmlns:xlink="http://www.w3.org/1999/xlink" x="0px" y="0px"
	 viewBox="0 0 30 30" style="enable-background:new 0 0 30 30;" xml:space="preserve">
<style type="text/css">
	.st0{display:none;opacity:0.2;}
	.st1{display:inline;fill:none;stroke:#00ADEE;stroke-width:0.125;stroke-miterlimit:10;}
	.st2{fill:#231F20;}
</style>
<g class="st0">
	<path class="st1" d="M-15.375-16.557"/>
	<line class="st1" x1="-13.125" y1="47.1558" x2="-13.125" y2="-16.3603"/>
	<line class="st1" x1="-10.875" y1="47.3529" x2="-10.875" y2="-16.5568"/>
	<line class="st1" x1="-8.625" y1="46.959" x2="-8.625" y2="-16.3109"/>
	<line class="st1" x1="-6.375" y1="47.746" x2="-6.375" y2="-16.6546"/>
	<line class="st1" x1="-4.125" y1="47.3529" x2="-4.125" y2="-16.5079"/>
	<line class="st1" x1="-1.875" y1="47.4999" x2="-1.875" y2="-16.6061"/>
	<line class="st1" x1="0.375" y1="47.3529" x2="0.375" y2="-16.5568"/>
	<line class="st1" x1="2.625" y1="47.4999" x2="2.625" y2="-16.9021"/>
	<line class="st1" x1="4.875" y1="47.1558" x2="4.875" y2="-16.6547"/>
	<line class="st1" x1="7.125" y1="47.3029" x2="7.125" y2="-16.8517"/>
	<line class="st1" x1="9.375" y1="47.1063" x2="9.375" y2="-16.4577"/>
	<line class="st1" x1="11.625" y1="47.2541" x2="11.625" y2="-16.5081"/>
	<line class="st1" x1="13.875" y1="47.3029" x2="13.875" y2="-16.5079"/>
	<line class="st1" x1="16.125" y1="47.0567" x2="16.125" y2="-16.458"/>
	<line class="st1" x1="18.375" y1="47.1063" x2="18.375" y2="-16.4089"/>
	<line class="st1" x1="20.625" y1="47.3529" x2="20.625" y2="-16.6058"/>
	<line class="st1" x1="22.875" y1="47.1558" x2="22.875" y2="-16.5569"/>
	<line class="st1" x1="25.125" y1="47.4511" x2="25.125" y2="-16.5082"/>
	<line class="st1" x1="27.375" y1="47.2541" x2="27.375" y2="-16.3603"/>
	<line class="st1" x1="29.625" y1="47.1063" x2="29.625" y2="-16.5077"/>
	<line class="st1" x1="31.875" y1="47.1558" x2="31.875" y2="-16.508"/>
	<line class="st1" x1="34.125" y1="47.1063" x2="34.125" y2="-16.5077"/>
	<line class="st1" x1="36.375" y1="46.8598" x2="36.375" y2="-16.5566"/>
	<line class="st1" x1="38.625" y1="47.1558" x2="38.625" y2="-16.7536"/>
	<line class="st1" x1="40.875" y1="47.1558" x2="40.875" y2="-16.6058"/>
	<line class="st1" x1="43.125" y1="47.4511" x2="43.125" y2="-16.6062"/>
	<line class="st1" x1="-14.2926" y1="47.1726" x2="-16.4896" y2="45.9041"/>
	<line class="st1" x1="-9.8838" y1="47.1199" x2="-16.5439" y2="43.2746"/>
	<line class="st1" x1="-5.0286" y1="47.3248" x2="-16.5547" y2="40.6703"/>
	<line class="st1" x1="-0.4099" y1="47.3936" x2="-16.607" y2="38.0421"/>
	<line class="st1" x1="3.8647" y1="47.2633" x2="-16.4987" y2="35.5065"/>
	<line class="st1" x1="8.1817" y1="47.1575" x2="-16.4585" y2="32.9315"/>
	<line class="st1" x1="12.7364" y1="47.1893" x2="-16.5287" y2="30.2931"/>
	<line class="st1" x1="17.0493" y1="47.0812" x2="-16.4649" y2="27.7317"/>
	<line class="st1" x1="21.7487" y1="47.1965" x2="-16.5216" y2="25.1011"/>
	<line class="st1" x1="26.2708" y1="47.2091" x2="-16.6454" y2="22.4314"/>
	<line class="st1" x1="30.8011" y1="47.2265" x2="-16.5718" y2="19.8757"/>
	<line class="st1" x1="35.0797" y1="47.0989" x2="-16.5759" y2="17.2755"/>
	<line class="st1" x1="39.7372" y1="47.1897" x2="-16.5939" y2="14.6669"/>
	<line class="st1" x1="44.4278" y1="47.2996" x2="-16.6466" y2="12.0384"/>
	<line class="st1" x1="46.5391" y1="45.9207" x2="-16.5451" y2="9.499"/>
	<line class="st1" x1="46.7575" y1="43.4487" x2="-16.4576" y2="6.9515"/>
	<line class="st1" x1="46.5446" y1="40.7275" x2="-16.5248" y2="4.3145"/>
	<line class="st1" x1="46.5973" y1="38.16" x2="-16.5582" y2="1.6972"/>
	<line class="st1" x1="46.5272" y1="35.5214" x2="-16.4693" y2="-0.8496"/>
	<line class="st1" x1="46.6505" y1="32.9944" x2="-16.4717" y2="-3.4492"/>
	<line class="st1" x1="46.5376" y1="30.3314" x2="-16.4197" y2="-6.017"/>
	<line class="st1" x1="46.4796" y1="27.6997" x2="-16.3754" y2="-8.5896"/>
	<polyline class="st1" points="46.5777,25.1581 -16.1346,-11.0488 -16.5294,-11.2767 	"/>
	<polyline class="st1" points="46.5142,22.5236 -16.248,-13.7121 -17.1105,-14.2101 	"/>
	<polyline class="st1" points="46.5439,19.9426 -14.9996,-15.5896 -16.7609,-16.6065 	"/>
	<line class="st1" x1="46.3527" y1="17.2343" x2="-12.0668" y2="-16.4943"/>
	<line class="st1" x1="46.4824" y1="14.711" x2="-7.5112" y2="-16.4622"/>
	<line class="st1" x1="46.479" y1="12.1109" x2="-3.0123" y2="-16.4629"/>
	<line class="st1" x1="46.4578" y1="9.5007" x2="1.1859" y2="-16.637"/>
	<line class="st1" x1="46.3608" y1="6.8466" x2="5.6507" y2="-16.6575"/>
	<line class="st1" x1="46.5626" y1="4.3649" x2="10.4854" y2="-16.4643"/>
	<line class="st1" x1="46.6047" y1="1.7913" x2="15.0995" y2="-16.3983"/>
	<line class="st1" x1="46.4335" y1="-0.9057" x2="19.5934" y2="-16.4018"/>
	<line class="st1" x1="46.5889" y1="-3.4142" x2="23.9443" y2="-16.488"/>
	<line class="st1" x1="46.3665" y1="-6.1405" x2="28.4468" y2="-16.4864"/>
	<line class="st1" x1="46.5992" y1="-8.6043" x2="33.0984" y2="-16.399"/>
	<line class="st1" x1="46.5865" y1="-11.2098" x2="37.2213" y2="-16.6168"/>
	<line class="st1" x1="46.6046" y1="-13.7973" x2="41.9486" y2="-16.4854"/>
	<path class="st1" d="M-72.75-106.0893"/>
	<path class="st1" d="M-71.625-108.0379"/>
	<path class="st1" d="M-70.5-109.9865"/>
	<path class="st1" d="M-69.375-111.935"/>
	<path class="st1" d="M-68.25-113.8836"/>
	<path class="st1" d="M-67.125-115.8321"/>
	<path class="st1" d="M-66-117.7807"/>
	<path class="st1" d="M-64.875-119.7292"/>
	<path class="st1" d="M-63.75-121.6778"/>
	<path class="st1" d="M46.631,47.1215"/>
	<line class="st1" x1="41.8384" y1="47.2903" x2="46.5346" y2="44.579"/>
	<line class="st1" x1="37.761" y1="47.0465" x2="46.6554" y2="41.9113"/>
	<line class="st1" x1="33.2481" y1="47.0539" x2="46.6394" y2="39.3224"/>
	<line class="st1" x1="28.7471" y1="47.0544" x2="46.5552" y2="36.7729"/>
	<line class="st1" x1="23.9766" y1="47.2107" x2="46.5546" y2="34.1753"/>
	<line class="st1" x1="19.718" y1="47.0712" x2="46.6021" y2="31.5497"/>
	<line class="st1" x1="15.3122" y1="47.0167" x2="46.6066" y2="28.9489"/>
	<line class="st1" x1="10.3988" y1="47.2556" x2="46.5751" y2="26.3692"/>
	<line class="st1" x1="6.1197" y1="47.1279" x2="46.5162" y2="23.805"/>
	<line class="st1" x1="1.2953" y1="47.3154" x2="46.6164" y2="21.1493"/>
	<line class="st1" x1="-3.222" y1="47.3253" x2="46.4154" y2="18.6671"/>
	<line class="st1" x1="-8.0514" y1="47.5153" x2="46.5572" y2="15.9871"/>
	<line class="st1" x1="-11.769" y1="47.0639" x2="46.4405" y2="13.4566"/>
	<line class="st1" x1="-16.6198" y1="47.2663" x2="46.4978" y2="10.8253"/>
	<line class="st1" x1="-16.6252" y1="44.6712" x2="46.5671" y2="8.1872"/>
	<line class="st1" x1="-16.3982" y1="41.9423" x2="46.4768" y2="5.6413"/>
	<line class="st1" x1="-16.5136" y1="39.4107" x2="46.6506" y2="2.9429"/>
	<line class="st1" x1="-16.3672" y1="36.728" x2="46.4811" y2="0.4426"/>
	<line class="st1" x1="-16.4261" y1="34.1641" x2="46.6243" y2="-2.2381"/>
	<line class="st1" x1="-16.5537" y1="31.6396" x2="46.5591" y2="-4.7985"/>
	<line class="st1" x1="-16.6591" y1="29.1023" x2="46.5062" y2="-7.3662"/>
	<line class="st1" x1="-16.5488" y1="26.4407" x2="46.4955" y2="-9.9579"/>
	<line class="st1" x1="-16.5014" y1="23.8152" x2="46.6906" y2="-12.6687"/>
	<line class="st1" x1="-16.6869" y1="21.324" x2="46.6589" y2="-15.2486"/>
	<line class="st1" x1="-16.5222" y1="18.6311" x2="44.3216" y2="-16.497"/>
	<line class="st1" x1="-16.6397" y1="16.1008" x2="40.1155" y2="-16.6668"/>
	<line class="st1" x1="-16.4543" y1="13.3959" x2="35.4976" y2="-16.5986"/>
	<line class="st1" x1="-16.4766" y1="10.8105" x2="31.0105" y2="-16.6061"/>
	<line class="st1" x1="-16.6191" y1="8.2947" x2="26.3737" y2="-16.5272"/>
	<line class="st1" x1="-16.5886" y1="5.6791" x2="21.7039" y2="-16.4291"/>
	<line class="st1" x1="-16.4987" y1="3.0291" x2="17.3446" y2="-16.5104"/>
	<line class="st1" x1="-16.4879" y1="0.4247" x2="12.9603" y2="-16.5772"/>
	<line class="st1" x1="-16.5374" y1="-2.1447" x2="8.4534" y2="-16.5731"/>
	<line class="st1" x1="-16.4468" y1="-4.7952" x2="4.0268" y2="-16.6156"/>
	<polyline class="st1" points="-16.5695,-7.3225 -15.9916,-7.6561 -0.3642,-16.6786 	"/>
	<line class="st1" x1="-16.6918" y1="-9.8497" x2="-5.065" y2="-16.5625"/>
	<line class="st1" x1="-16.2564" y1="-12.6993" x2="-10.0909" y2="-16.259"/>
	<path class="st1" d="M-14.1742-16.4997"/>
</g>
<g>
	<path class="st2" d="M29.3755,10.736c-0.0079-0.0156-0.0186-0.0276-0.0285-0.0421c-0.0266-0.0388-0.0582-0.0711-0.0963-0.0984
		c-0.0095-0.0069-0.0139-0.0186-0.0241-0.0247L18.126,3.9966c-0.125-0.0728-0.2764-0.0732-0.4033-0.0029L0.6523,13.7661
		c-0.0105,0.006-0.0151,0.0178-0.0249,0.0246c-0.038,0.0264-0.0696,0.0577-0.0965,0.0953c-0.0109,0.0153-0.022,0.0285-0.0306,0.0453
		c-0.0261,0.05-0.0428,0.1045-0.0456,0.1641c-0.0002,0.0046-0.0035,0.0084-0.0036,0.013c0,0.0008,0.0005,0.0014,0.0005,0.0022
		c0,0.001-0.0005,0.0017-0.0005,0.0027v2.9385c0,0.0148,0.0068,0.0273,0.0084,0.0416c0.003,0.0282,0.0076,0.0549,0.0165,0.0819
		c0.008,0.0241,0.0182,0.0457,0.0303,0.0676c0.0123,0.0222,0.0255,0.0427,0.0421,0.0625c0.018,0.0215,0.038,0.0392,0.0601,0.0566
		c0.0115,0.0091,0.0187,0.0217,0.0315,0.0297l1.6689,1.0373v2.6317c0,0.2207,0.1792,0.4004,0.3999,0.4004
		s0.3999-0.1797,0.3999-0.4004V18.926l4.1533,2.5814c0.0002,0.0001,0.0003,0.0003,0.0005,0.0004l4.3628,2.7119
		c0.0645,0.04,0.1377,0.0605,0.2109,0.0605c0.0688,0,0.1382-0.0186,0.2002-0.0537l2.0771-1.1998v2.9185
		c0,0.2207,0.1792,0.4004,0.3999,0.4004s0.3999-0.1797,0.3999-0.4004v-3.3805l2.3149-1.3371v2.9168
		c0,0.2207,0.1797,0.4004,0.4004,0.4004s0.4004-0.1797,0.4004-0.4004v-3.3794l2.3145-1.3368v2.9154
		c0,0.2207,0.1797,0.4004,0.4004,0.4004s0.4004-0.1797,0.4004-0.4004v-3.378l2.3145-1.3369v2.915
		c0,0.2207,0.1797,0.4004,0.4004,0.4004s0.4004-0.1797,0.4004-0.4004v-3.3776l2.3135-1.3362v2.913
		c0,0.2207,0.1797,0.4004,0.4004,0.4004s0.4004-0.1797,0.4004-0.4004v-3.3755l1.8486-1.0678
		c0.0149-0.0086,0.0237-0.0226,0.0371-0.0327c0.0223-0.0168,0.0432-0.0333,0.0615-0.0543c0.0169-0.0195,0.0294-0.0402,0.0421-0.0622
		c0.013-0.0223,0.025-0.0439,0.0335-0.0687c0.0089-0.0258,0.0125-0.0516,0.016-0.0788c0.0022-0.017,0.01-0.032,0.01-0.0496V10.915
		C29.4229,10.8497,29.4034,10.7905,29.3755,10.736z M12.2363,23.1873v-2.2029l16.3857-9.3796v2.1182L12.2363,23.1873z
		 M8.2733,21.1942c-0.0004-0.0002-0.0005-0.0006-0.0009-0.0009L7.8745,20.946v-2.12l3.562,2.1531v2.1818L8.2733,21.1942z
		 M1.251,16.8293v-2.0069l3.042,1.8387V18.72L1.251,16.8293z M5.0928,17.1446l1.9819,1.198v2.1063l-1.9819-1.2318V17.1446z
		 M17.918,4.8037l10.3096,6.1055l-16.3857,9.3799L1.6396,14.1226L17.918,4.8037z"/>
	<path class="st2" d="M25.7764,10.9766c0.124-0.0708,0.2002-0.2017,0.2021-0.3442c0.001-0.1426-0.0742-0.2749-0.1963-0.3477
		l-7.5615-4.4785c-0.124-0.0728-0.2764-0.0732-0.4023-0.0034L4.123,13.606C4,13.6763,3.9233,13.8066,3.9214,13.9482
		c-0.002,0.1421,0.0713,0.2744,0.1929,0.3477l7.4805,4.5234c0.0635,0.0391,0.1353,0.0586,0.207,0.0586
		c0.0684,0,0.1367-0.0176,0.1982-0.0527L25.7764,10.9766z M5.1113,13.9639l12.9014-7.3511l6.7695,4.0093l-12.9746,7.3916
		L5.1113,13.9639z"/>
	<path class="st2" d="M19.0479,9.689c-0.1172-0.188-0.3672-0.2422-0.5508-0.125l-0.5037,0.3196
		c-0.3539-0.1288-0.7505-0.1172-1.0237,0.0564c-0.0818,0.0516-0.1379,0.1221-0.1898,0.194
		c-1.2895-0.5153-2.8525-0.4566-3.9679,0.2137c-1.0542,0.6338-1.6162,0.9707-2.6895,1.5894l-1.0781,0.6216l1.2383,0.123
		c0.008,0.0008,0.3486,0.0385,0.8188,0.1284c-0.1625,0.0959-0.3318,0.1953-0.5444,0.3189c-0.1909,0.1108-0.2559,0.356-0.1445,0.5469
		c0.0742,0.1274,0.2085,0.1987,0.3462,0.1987c0.0684,0,0.1372-0.0176,0.2007-0.0542c0.5034-0.2926,0.7939-0.4658,1.2444-0.7363
		c0.3964,0.1232,0.796,0.2764,1.1379,0.4755c0.184,0.1072,0.3346,0.2278,0.4704,0.3511c-0.3105,0.1943-0.5696,0.3539-0.9802,0.6035
		c-0.1885,0.1147-0.2485,0.3608-0.1338,0.5498c0.0752,0.1235,0.207,0.1919,0.3423,0.1919c0.0708,0,0.1426-0.0186,0.2075-0.0581
		c0.4531-0.2758,0.7256-0.444,1.0822-0.6675c0.1885,0.312,0.2525,0.5566,0.2571,0.5753l0.125,0.5259l0.4663-0.2734
		c1.1182-0.6563,1.6211-0.9634,2.5732-1.5459l-0.1768-0.3608l0.209,0.3413c0.5986-0.3657,0.9316-0.8848,0.9365-1.4614
		c0.0027-0.3785-0.1524-0.7538-0.4178-1.1022c0.0135-0.0077,0.0308-0.0104,0.0438-0.0189c0.2012-0.1304,0.3154-0.3335,0.3135-0.5566
		c-0.0009-0.0721-0.0394-0.1375-0.0634-0.2059l0.326-0.2067C19.1104,10.123,19.166,9.876,19.0479,9.689z M17.3662,13.1099
		l-0.0313,0.0195c-0.8242,0.5039-1.3096,0.8008-2.1538,1.2988c-0.2109-0.4429-0.6357-1.0933-1.437-1.5601
		c-0.4191-0.2442-0.9003-0.4257-1.3683-0.5676c-0.0558-0.0338-0.1177-0.0505-0.1826-0.0544
		c-0.2457-0.0692-0.4862-0.1308-0.7054-0.1773c0.5562-0.3267,1.0391-0.6167,1.7363-1.0356c1.082-0.6494,2.6924-0.5967,3.8325,0.126
		c0.5518,0.3501,0.8672,0.7749,0.8633,1.165C17.917,12.6958,17.6172,12.9565,17.3662,13.1099z"/>
</g>
</svg>
