<?xml version="1.0" encoding="utf-8"?>
<!-- Generator: Adobe Illustrator 21.0.0, SVG Export Plug-In . SVG Version: 6.00 Build 0)  -->
<svg version="1.1" id="Layer_1" xmlns="http://www.w3.org/2000/svg" xmlns:xlink="http://www.w3.org/1999/xlink" x="0px" y="0px"
	 viewBox="0 0 30 30" style="enable-background:new 0 0 30 30;" xml:space="preserve">
<style type="text/css">
	.st0{display:none;opacity:0.2;}
	.st1{display:inline;fill:none;stroke:#00ADEE;stroke-width:0.125;stroke-miterlimit:10;}
	.st2{fill:#231F20;}
</style>
<g class="st0">
	<path class="st1" d="M-15.375-16.557"/>
	<line class="st1" x1="-13.125" y1="47.1558" x2="-13.125" y2="-16.3603"/>
	<line class="st1" x1="-10.875" y1="47.3529" x2="-10.875" y2="-16.5568"/>
	<line class="st1" x1="-8.625" y1="46.959" x2="-8.625" y2="-16.3109"/>
	<line class="st1" x1="-6.375" y1="47.746" x2="-6.375" y2="-16.6546"/>
	<line class="st1" x1="-4.125" y1="47.3529" x2="-4.125" y2="-16.5079"/>
	<line class="st1" x1="-1.875" y1="47.4999" x2="-1.875" y2="-16.6061"/>
	<line class="st1" x1="0.375" y1="47.3529" x2="0.375" y2="-16.5568"/>
	<line class="st1" x1="2.625" y1="47.4999" x2="2.625" y2="-16.9021"/>
	<line class="st1" x1="4.875" y1="47.1558" x2="4.875" y2="-16.6547"/>
	<line class="st1" x1="7.125" y1="47.3029" x2="7.125" y2="-16.8517"/>
	<line class="st1" x1="9.375" y1="47.1063" x2="9.375" y2="-16.4577"/>
	<line class="st1" x1="11.625" y1="47.2541" x2="11.625" y2="-16.5081"/>
	<line class="st1" x1="13.875" y1="47.3029" x2="13.875" y2="-16.5079"/>
	<line class="st1" x1="16.125" y1="47.0567" x2="16.125" y2="-16.458"/>
	<line class="st1" x1="18.375" y1="47.1063" x2="18.375" y2="-16.4089"/>
	<line class="st1" x1="20.625" y1="47.3529" x2="20.625" y2="-16.6058"/>
	<line class="st1" x1="22.875" y1="47.1558" x2="22.875" y2="-16.5569"/>
	<line class="st1" x1="25.125" y1="47.4511" x2="25.125" y2="-16.5082"/>
	<line class="st1" x1="27.375" y1="47.2541" x2="27.375" y2="-16.3603"/>
	<line class="st1" x1="29.625" y1="47.1063" x2="29.625" y2="-16.5077"/>
	<line class="st1" x1="31.875" y1="47.1558" x2="31.875" y2="-16.508"/>
	<line class="st1" x1="34.125" y1="47.1063" x2="34.125" y2="-16.5077"/>
	<line class="st1" x1="36.375" y1="46.8598" x2="36.375" y2="-16.5566"/>
	<line class="st1" x1="38.625" y1="47.1558" x2="38.625" y2="-16.7536"/>
	<line class="st1" x1="40.875" y1="47.1558" x2="40.875" y2="-16.6058"/>
	<line class="st1" x1="43.125" y1="47.4511" x2="43.125" y2="-16.6062"/>
	<line class="st1" x1="-14.2926" y1="47.1726" x2="-16.4896" y2="45.9041"/>
	<line class="st1" x1="-9.8838" y1="47.1199" x2="-16.5439" y2="43.2746"/>
	<line class="st1" x1="-5.0286" y1="47.3248" x2="-16.5547" y2="40.6703"/>
	<line class="st1" x1="-0.4099" y1="47.3936" x2="-16.607" y2="38.0421"/>
	<line class="st1" x1="3.8647" y1="47.2633" x2="-16.4987" y2="35.5065"/>
	<line class="st1" x1="8.1817" y1="47.1575" x2="-16.4585" y2="32.9315"/>
	<line class="st1" x1="12.7364" y1="47.1893" x2="-16.5287" y2="30.2931"/>
	<line class="st1" x1="17.0493" y1="47.0812" x2="-16.4649" y2="27.7317"/>
	<line class="st1" x1="21.7487" y1="47.1965" x2="-16.5216" y2="25.1011"/>
	<line class="st1" x1="26.2708" y1="47.2091" x2="-16.6454" y2="22.4314"/>
	<line class="st1" x1="30.8011" y1="47.2265" x2="-16.5718" y2="19.8757"/>
	<line class="st1" x1="35.0797" y1="47.0989" x2="-16.5759" y2="17.2755"/>
	<line class="st1" x1="39.7372" y1="47.1897" x2="-16.5939" y2="14.6669"/>
	<line class="st1" x1="44.4278" y1="47.2996" x2="-16.6466" y2="12.0384"/>
	<line class="st1" x1="46.5391" y1="45.9207" x2="-16.5451" y2="9.499"/>
	<line class="st1" x1="46.7575" y1="43.4487" x2="-16.4576" y2="6.9515"/>
	<line class="st1" x1="46.5446" y1="40.7275" x2="-16.5248" y2="4.3145"/>
	<line class="st1" x1="46.5973" y1="38.16" x2="-16.5582" y2="1.6972"/>
	<line class="st1" x1="46.5272" y1="35.5214" x2="-16.4693" y2="-0.8496"/>
	<line class="st1" x1="46.6505" y1="32.9944" x2="-16.4717" y2="-3.4492"/>
	<line class="st1" x1="46.5376" y1="30.3314" x2="-16.4197" y2="-6.017"/>
	<line class="st1" x1="46.4796" y1="27.6997" x2="-16.3754" y2="-8.5896"/>
	<polyline class="st1" points="46.5777,25.1581 -16.1346,-11.0488 -16.5294,-11.2767 	"/>
	<polyline class="st1" points="46.5142,22.5236 -16.248,-13.7121 -17.1105,-14.2101 	"/>
	<polyline class="st1" points="46.5439,19.9426 -14.9996,-15.5896 -16.7609,-16.6065 	"/>
	<line class="st1" x1="46.3527" y1="17.2343" x2="-12.0668" y2="-16.4943"/>
	<line class="st1" x1="46.4824" y1="14.711" x2="-7.5112" y2="-16.4622"/>
	<line class="st1" x1="46.479" y1="12.1109" x2="-3.0123" y2="-16.4629"/>
	<line class="st1" x1="46.4578" y1="9.5007" x2="1.1859" y2="-16.637"/>
	<line class="st1" x1="46.3608" y1="6.8466" x2="5.6507" y2="-16.6575"/>
	<line class="st1" x1="46.5626" y1="4.3649" x2="10.4854" y2="-16.4643"/>
	<line class="st1" x1="46.6047" y1="1.7913" x2="15.0995" y2="-16.3983"/>
	<line class="st1" x1="46.4335" y1="-0.9057" x2="19.5934" y2="-16.4018"/>
	<line class="st1" x1="46.5889" y1="-3.4142" x2="23.9443" y2="-16.488"/>
	<line class="st1" x1="46.3665" y1="-6.1405" x2="28.4468" y2="-16.4864"/>
	<line class="st1" x1="46.5992" y1="-8.6043" x2="33.0984" y2="-16.399"/>
	<line class="st1" x1="46.5865" y1="-11.2098" x2="37.2213" y2="-16.6168"/>
	<line class="st1" x1="46.6046" y1="-13.7973" x2="41.9486" y2="-16.4854"/>
	<path class="st1" d="M46.5364-16.4349"/>
	<path class="st1" d="M-72.75-106.0893"/>
	<path class="st1" d="M-71.625-108.0379"/>
	<path class="st1" d="M-70.5-109.9865"/>
	<path class="st1" d="M-69.375-111.935"/>
	<path class="st1" d="M-68.25-113.8836"/>
	<path class="st1" d="M-67.125-115.8321"/>
	<path class="st1" d="M-66-117.7807"/>
	<path class="st1" d="M-64.875-119.7292"/>
	<path class="st1" d="M-63.75-121.6778"/>
	<path class="st1" d="M46.631,47.1215"/>
	<line class="st1" x1="41.8384" y1="47.2903" x2="46.5346" y2="44.579"/>
	<line class="st1" x1="37.761" y1="47.0465" x2="46.6554" y2="41.9113"/>
	<line class="st1" x1="33.2481" y1="47.0539" x2="46.6394" y2="39.3224"/>
	<line class="st1" x1="28.7471" y1="47.0544" x2="46.5552" y2="36.7729"/>
	<line class="st1" x1="23.9766" y1="47.2107" x2="46.5546" y2="34.1753"/>
	<line class="st1" x1="19.718" y1="47.0712" x2="46.6021" y2="31.5497"/>
	<line class="st1" x1="15.3122" y1="47.0167" x2="46.6066" y2="28.9489"/>
	<line class="st1" x1="10.3988" y1="47.2556" x2="46.5751" y2="26.3692"/>
	<line class="st1" x1="6.1197" y1="47.1279" x2="46.5162" y2="23.805"/>
	<line class="st1" x1="1.2953" y1="47.3154" x2="46.6164" y2="21.1493"/>
	<line class="st1" x1="-3.222" y1="47.3253" x2="46.4154" y2="18.6671"/>
	<line class="st1" x1="-8.0514" y1="47.5153" x2="46.5572" y2="15.9871"/>
	<line class="st1" x1="-11.769" y1="47.0639" x2="46.4405" y2="13.4566"/>
	<line class="st1" x1="-16.6198" y1="47.2663" x2="46.4978" y2="10.8253"/>
	<line class="st1" x1="-16.6252" y1="44.6712" x2="46.5671" y2="8.1872"/>
	<line class="st1" x1="-16.3982" y1="41.9423" x2="46.4768" y2="5.6413"/>
	<line class="st1" x1="-16.5136" y1="39.4107" x2="46.6506" y2="2.9429"/>
	<line class="st1" x1="-16.3672" y1="36.728" x2="46.4811" y2="0.4426"/>
	<line class="st1" x1="-16.4261" y1="34.1641" x2="46.6243" y2="-2.2381"/>
	<line class="st1" x1="-16.5537" y1="31.6396" x2="46.5591" y2="-4.7985"/>
	<line class="st1" x1="-16.6591" y1="29.1023" x2="46.5062" y2="-7.3662"/>
	<line class="st1" x1="-16.5488" y1="26.4407" x2="46.4955" y2="-9.9579"/>
	<line class="st1" x1="-16.5014" y1="23.8152" x2="46.6906" y2="-12.6687"/>
	<line class="st1" x1="-16.6869" y1="21.324" x2="46.6589" y2="-15.2486"/>
	<line class="st1" x1="-16.5222" y1="18.6311" x2="44.3216" y2="-16.497"/>
	<line class="st1" x1="-16.6397" y1="16.1008" x2="40.1155" y2="-16.6668"/>
	<line class="st1" x1="-16.4543" y1="13.3959" x2="35.4976" y2="-16.5986"/>
	<line class="st1" x1="-16.4766" y1="10.8105" x2="31.0105" y2="-16.6061"/>
	<line class="st1" x1="-16.6191" y1="8.2947" x2="26.3737" y2="-16.5272"/>
	<line class="st1" x1="-16.5886" y1="5.6791" x2="21.7039" y2="-16.4291"/>
	<line class="st1" x1="-16.4987" y1="3.0291" x2="17.3446" y2="-16.5104"/>
	<line class="st1" x1="-16.4879" y1="0.4247" x2="12.9603" y2="-16.5772"/>
	<line class="st1" x1="-16.5374" y1="-2.1447" x2="8.4534" y2="-16.5731"/>
	<line class="st1" x1="-16.4468" y1="-4.7952" x2="4.0268" y2="-16.6156"/>
	<polyline class="st1" points="-16.5695,-7.3225 -15.9916,-7.6561 -0.3642,-16.6786 	"/>
	<line class="st1" x1="-16.6918" y1="-9.8497" x2="-5.065" y2="-16.5625"/>
	<line class="st1" x1="-16.2564" y1="-12.6993" x2="-10.0909" y2="-16.259"/>
	<path class="st1" d="M-14.1742-16.4997"/>
</g>
<g>
	<path class="st2" d="M24.0537,15.542c0.1201-0.0659,0.1992-0.1885,0.208-0.3257l0.1201-1.8398
		c0.0098-0.1528-0.0684-0.2979-0.2021-0.3735L13.7935,7.0986c-0.1201-0.0684-0.2681-0.0703-0.3892-0.0034l-6.9595,3.7939
		c-0.1274,0.0693-0.207,0.2021-0.2085,0.3477c-0.0015,0.145,0.0762,0.2793,0.2021,0.3511l11.9707,6.8096
		c0.0615,0.0352,0.1299,0.0527,0.1982,0.0527c0.0654,0,0.1318-0.0166,0.1914-0.0488L24.0537,15.542z M7.4585,11.2476l6.1333-3.3433
		l9.9756,5.6704l-0.0898,1.3696l-4.8662,2.6475L7.4585,11.2476z"/>
	<path class="st2" d="M29.4647,14.1125c-0.0081-0.0157-0.0186-0.028-0.0287-0.0425c-0.0272-0.039-0.0596-0.0713-0.0986-0.0984
		c-0.0098-0.0068-0.0143-0.0187-0.0248-0.0247l-1.5571-0.8914l0.3481-0.2009c0.1914-0.1108,0.2568-0.3555,0.1465-0.5464
		c-0.1113-0.1919-0.3564-0.2554-0.5469-0.147l-0.7519,0.434l-1.7282-0.9893l0.3326-0.1922c0.1914-0.1104,0.2568-0.355,0.1465-0.5464
		c-0.1113-0.1919-0.3564-0.2568-0.5469-0.146l-0.7354,0.4248l-1.7281-0.9893l0.317-0.1831c0.1914-0.1104,0.2568-0.355,0.1465-0.5464
		c-0.1104-0.1929-0.3555-0.2563-0.5469-0.146L21.8887,9.697l-1.7278-0.9891l0.301-0.1738c0.1914-0.1108,0.2568-0.3555,0.1465-0.5464
		c-0.1113-0.1929-0.3545-0.2563-0.5469-0.147l-0.7048,0.4067l-1.7275-0.9889l0.2849-0.1644
		c0.1914-0.1108,0.2568-0.3555,0.1465-0.5464c-0.1113-0.1924-0.3564-0.2559-0.5469-0.147L16.825,6.7983l-2.7371-1.5669
		c-0.1201-0.0688-0.27-0.0703-0.3931-0.0024L3.146,11.0947c-0.0103,0.0057-0.0148,0.0172-0.0244,0.0237
		c-0.0402,0.027-0.0737,0.0597-0.1017,0.0991c-0.0104,0.0147-0.0209,0.0273-0.0292,0.0433c-0.028,0.053-0.0469,0.1108-0.0484,0.1745
		c-0.0001,0.0023-0.0018,0.0042-0.0018,0.0065c0,0.0004,0.0003,0.0007,0.0003,0.001c0,0.0005-0.0003,0.0009-0.0003,0.0014v2.9077
		c0,0.098,0.0394,0.1846,0.098,0.2542c-0.0112,0.0543-0.0123,0.1085-0.0011,0.1616l-0.4162,0.238
		c-0.1245,0.0713-0.2012,0.2036-0.2012,0.3472v1.2651l-1.0283,0.5928c-0.1909,0.1104-0.2568,0.3555-0.146,0.5469
		c0.0737,0.1279,0.2085,0.2002,0.3467,0.2002c0.0679,0,0.1367-0.0176,0.1997-0.0537l1.228-0.709
		c0.1235-0.0713,0.1997-0.2041,0.1997-0.3467V15.585l0.4831-0.2762l2.1906,1.2677l-0.2899,0.1658
		c-0.1245,0.0713-0.2012,0.2041-0.2012,0.3477v1.2646L4.374,18.9473c-0.1909,0.1104-0.2568,0.3555-0.146,0.5469
		c0.0737,0.1279,0.2085,0.2002,0.3467,0.2002c0.0679,0,0.1367-0.0176,0.1997-0.0537l1.228-0.709
		c0.1235-0.0713,0.1997-0.2041,0.1997-0.3467v-1.2627l0.4929-0.2819l2.1898,1.2673l-0.2989,0.1709
		c-0.1245,0.0713-0.2012,0.2041-0.2012,0.3477v1.2646l-1.0278,0.5928c-0.1909,0.1104-0.2568,0.3555-0.146,0.5469
		c0.0737,0.1279,0.2085,0.2002,0.3467,0.2002c0.0679,0,0.1367-0.0176,0.1997-0.0537l1.2275-0.709
		c0.1235-0.0713,0.1997-0.2041,0.1997-0.3467v-1.2627l0.502-0.287l2.1907,1.2678l-0.3084,0.1764
		c-0.1245,0.0713-0.2012,0.2041-0.2012,0.3477v1.2646l-1.0283,0.5928c-0.1909,0.1104-0.2568,0.3555-0.146,0.5469
		c0.0737,0.1279,0.2085,0.2002,0.3467,0.2002c0.0679,0,0.1367-0.0176,0.1997-0.0537l1.228-0.709
		c0.1235-0.0713,0.1997-0.2041,0.1997-0.3467v-1.2627l0.5115-0.2925l2.1898,1.2672l-0.3174,0.1815
		c-0.1245,0.0713-0.2012,0.2041-0.2012,0.3477v1.2646l-1.0283,0.5928c-0.1909,0.1104-0.2568,0.3555-0.146,0.5469
		c0.0737,0.1279,0.2085,0.2002,0.3467,0.2002c0.0679,0,0.1367-0.0176,0.1997-0.0537l1.228-0.709
		c0.1235-0.0713,0.1997-0.2041,0.1997-0.3467v-1.2627l0.5204-0.2977l2.7974,1.619c0.006,0.0034,0.0134,0.0021,0.0195,0.0052
		c0.055,0.0284,0.1147,0.0485,0.1807,0.0485c0.0668,0,0.127-0.0206,0.1824-0.0496c0.0059-0.0031,0.013-0.0017,0.0187-0.0051
		l10.4453-6.0918c0.0143-0.0083,0.0226-0.0218,0.0355-0.0315c0.0228-0.0172,0.0443-0.0342,0.0629-0.0558
		c0.0167-0.0193,0.029-0.0398,0.0415-0.0615c0.0131-0.0225,0.025-0.0444,0.0335-0.0693c0.0088-0.0257,0.0125-0.0514,0.0159-0.0784
		c0.0022-0.0168,0.0099-0.0317,0.0099-0.0492v-3.1211C29.5137,14.2275,29.4934,14.1677,29.4647,14.1125z M19.0684,20.4503
		l9.6445-5.4692v2.2045l-9.6445,5.6244V20.4503z M13.8862,6.0381l14.4194,8.2544l-9.6367,5.4653L4.1543,11.4492L13.8862,6.0381z
		 M17.6709,20.6299c-0.1104-0.1924-0.3555-0.2568-0.5459-0.1494l-1.4526,0.8306l-2.1898-1.2672l1.0569-0.6044
		c0.1914-0.1104,0.2583-0.3545,0.1484-0.5459c-0.1099-0.1934-0.3525-0.2578-0.5459-0.1494l-1.4613,0.8358l-2.1907-1.2677l1.067-0.61
		c0.1914-0.1104,0.2583-0.3545,0.1484-0.5459c-0.1089-0.1924-0.3525-0.2568-0.5459-0.1494l-1.4714,0.8414l-2.1901-1.2673
		l1.076-0.6155c0.1914-0.1094,0.2583-0.354,0.1484-0.5459c-0.1089-0.1914-0.3525-0.2578-0.5459-0.1484l-1.48,0.8461L4.506,14.8494
		l1.0858-0.6208c0.1914-0.1094,0.2583-0.354,0.1484-0.5459c-0.1094-0.1914-0.353-0.2583-0.5459-0.1484l-1.4572,0.8334
		c0.0002-0.0054,0.0031-0.0101,0.0031-0.0156v-2.2179l14.5273,8.3146v2.3641l-1.7936-1.0379l1.0475-0.5991
		C17.7139,21.0654,17.7803,20.8213,17.6709,20.6299z"/>
	<ellipse class="st2" cx="26.0892" cy="14.2938" rx="0.6073" ry="0.4125"/>
	<path class="st2" d="M17.0325,11.1791c-1.4351,0.5823-1.8746,0.7021-3.146,1.1488c-0.0055-0.0032-0.0082-0.0048-0.0138-0.0081
		c0.6161-0.8293,0.8209-1.1887,1.5784-2.0623c-0.3707-0.2159-0.556-0.3238-0.9287-0.539c-1.382,0.831-1.8606,1.1204-3.304,2.0267
		c0.2887,0.169,0.4297,0.2512,0.7065,0.4119c0.6579-0.4301,0.936-0.6127,1.5067-0.985c0.1636-0.1068,0.4661-0.3233,0.9464-0.6676
		c0.008,0.0049,0.012,0.0073,0.02,0.0122c-0.6865,0.8347-0.8812,1.1948-1.6394,2.1219c0.2704,0.1555,0.403,0.2313,0.6639,0.3801
		c1.4332-0.5367,1.8832-0.6569,3.1862-1.1486c0.0078,0.0048,0.0117,0.0071,0.0195,0.0118c-0.4095,0.2667-0.6294,0.411-0.7142,0.4684
		s-0.1583,0.108-0.221,0.1525c-0.5322,0.3768-0.7759,0.5496-1.436,0.9899c0.2548,0.1442,0.3803,0.215,0.6285,0.3547
		c1.4106-0.9189,1.5659-1.0793,3.0844-2.1271C17.5924,11.5039,17.4053,11.3956,17.0325,11.1791z"/>
	<path class="st2" d="M19.8471,12.7751c-0.4247-0.2327-0.6337-0.3494-1.0475-0.5826c-1.5911,1.0759-1.6905,1.1943-3.1339,2.0933
		c0.4583,0.257,0.683,0.3826,1.1318,0.6342c0.3391,0.1901,0.7076,0.2836,1.0934,0.2968c0.3859,0.0132,0.7342-0.0563,1.0168-0.209
		c0.1993-0.1077,0.3071-0.218,0.3318-0.3333c0.0248-0.1158-0.0443-0.2464-0.2058-0.388c0.0081-0.0048,0.0121-0.0073,0.0202-0.0121
		c0.1721,0.0718,0.3607,0.1005,0.5697,0.082c0.2106-0.0177,0.4115-0.083,0.6193-0.2079c0.3061-0.1841,0.4605-0.4069,0.4093-0.6316
		C20.6008,13.291,20.3309,13.0403,19.8471,12.7751z M18.2806,14.5809c-0.1376,0.08-0.2876,0.1163-0.4441,0.1084
		c-0.1566-0.0078-0.3254-0.0612-0.505-0.1624c-0.17-0.0957-0.2551-0.1437-0.4255-0.2398c0.3284-0.2018,0.4712-0.2925,0.7657-0.4829
		c0.1649,0.0958,0.2473,0.1435,0.4126,0.239C18.4573,14.2585,18.5286,14.4369,18.2806,14.5809z M19.4285,13.7982
		c-0.1343,0.0843-0.2669,0.1163-0.4035,0.1027c-0.1381-0.0143-0.2975-0.0747-0.4809-0.1816
		c-0.1571-0.0917-0.2354-0.1375-0.3917-0.2294c0.2606-0.172,0.3944-0.2614,0.7011-0.4651c0.1453,0.0843,0.2183,0.1264,0.3647,0.2106
		c0.1992,0.1144,0.3165,0.2183,0.3504,0.3071C19.6031,13.6325,19.5538,13.7195,19.4285,13.7982z"/>
</g>
</svg>
