<?xml version="1.0" encoding="utf-8"?>
<!-- Generator: Adobe Illustrator 21.0.0, SVG Export Plug-In . SVG Version: 6.00 Build 0)  -->
<svg version="1.1" id="Layer_1" xmlns="http://www.w3.org/2000/svg" xmlns:xlink="http://www.w3.org/1999/xlink" x="0px" y="0px"
	 viewBox="0 0 60 60" style="enable-background:new 0 0 60 60;" xml:space="preserve">
<style type="text/css">
	.st0{display:none;opacity:0.2;}
	.st1{display:inline;fill:none;stroke:#00ADEE;stroke-width:0.125;stroke-miterlimit:10;}
	.st2{fill:#231F20;}
</style>
<g class="st0">
	<path class="st1" d="M-0.375-1.557"/>
	<line class="st1" x1="1.875" y1="62.156" x2="1.875" y2="-1.36"/>
	<line class="st1" x1="4.125" y1="62.353" x2="4.125" y2="-1.557"/>
	<line class="st1" x1="6.375" y1="61.959" x2="6.375" y2="-1.311"/>
	<line class="st1" x1="8.625" y1="62.746" x2="8.625" y2="-1.655"/>
	<line class="st1" x1="10.875" y1="62.353" x2="10.875" y2="-1.508"/>
	<line class="st1" x1="13.125" y1="62.5" x2="13.125" y2="-1.606"/>
	<line class="st1" x1="15.375" y1="62.353" x2="15.375" y2="-1.557"/>
	<line class="st1" x1="17.625" y1="62.5" x2="17.625" y2="-1.902"/>
	<line class="st1" x1="19.875" y1="62.156" x2="19.875" y2="-1.655"/>
	<line class="st1" x1="22.125" y1="62.303" x2="22.125" y2="-1.852"/>
	<line class="st1" x1="24.375" y1="62.106" x2="24.375" y2="-1.458"/>
	<line class="st1" x1="26.625" y1="62.254" x2="26.625" y2="-1.508"/>
	<line class="st1" x1="28.875" y1="62.303" x2="28.875" y2="-1.508"/>
	<line class="st1" x1="31.125" y1="62.057" x2="31.125" y2="-1.458"/>
	<line class="st1" x1="33.375" y1="62.106" x2="33.375" y2="-1.409"/>
	<line class="st1" x1="35.625" y1="62.353" x2="35.625" y2="-1.606"/>
	<line class="st1" x1="37.875" y1="62.156" x2="37.875" y2="-1.557"/>
	<line class="st1" x1="40.125" y1="62.451" x2="40.125" y2="-1.508"/>
	<line class="st1" x1="42.375" y1="62.254" x2="42.375" y2="-1.36"/>
	<line class="st1" x1="44.625" y1="62.106" x2="44.625" y2="-1.508"/>
	<line class="st1" x1="46.875" y1="62.156" x2="46.875" y2="-1.508"/>
	<line class="st1" x1="49.125" y1="62.106" x2="49.125" y2="-1.508"/>
	<line class="st1" x1="51.375" y1="61.86" x2="51.375" y2="-1.557"/>
	<line class="st1" x1="53.625" y1="62.156" x2="53.625" y2="-1.754"/>
	<line class="st1" x1="55.875" y1="62.156" x2="55.875" y2="-1.606"/>
	<line class="st1" x1="58.125" y1="62.451" x2="58.125" y2="-1.606"/>
	<line class="st1" x1="0.707" y1="62.173" x2="-1.49" y2="60.904"/>
	<line class="st1" x1="5.116" y1="62.12" x2="-1.544" y2="58.275"/>
	<line class="st1" x1="9.971" y1="62.325" x2="-1.555" y2="55.67"/>
	<line class="st1" x1="14.59" y1="62.394" x2="-1.607" y2="53.042"/>
	<line class="st1" x1="18.865" y1="62.263" x2="-1.499" y2="50.506"/>
	<line class="st1" x1="23.182" y1="62.158" x2="-1.459" y2="47.931"/>
	<line class="st1" x1="27.736" y1="62.189" x2="-1.529" y2="45.293"/>
	<line class="st1" x1="32.049" y1="62.081" x2="-1.465" y2="42.732"/>
	<line class="st1" x1="36.749" y1="62.196" x2="-1.522" y2="40.101"/>
	<line class="st1" x1="41.271" y1="62.209" x2="-1.645" y2="37.431"/>
	<line class="st1" x1="45.801" y1="62.226" x2="-1.572" y2="34.876"/>
	<line class="st1" x1="50.08" y1="62.099" x2="-1.576" y2="32.275"/>
	<line class="st1" x1="54.737" y1="62.19" x2="-1.594" y2="29.667"/>
	<line class="st1" x1="59.428" y1="62.3" x2="-1.647" y2="27.038"/>
	<line class="st1" x1="61.539" y1="60.921" x2="-1.545" y2="24.499"/>
	<line class="st1" x1="61.758" y1="58.449" x2="-1.458" y2="21.951"/>
	<line class="st1" x1="61.545" y1="55.728" x2="-1.525" y2="19.314"/>
	<line class="st1" x1="61.597" y1="53.16" x2="-1.558" y2="16.697"/>
	<line class="st1" x1="61.527" y1="50.521" x2="-1.469" y2="14.15"/>
	<line class="st1" x1="61.65" y1="47.994" x2="-1.472" y2="11.551"/>
	<line class="st1" x1="61.538" y1="45.331" x2="-1.42" y2="8.983"/>
	<line class="st1" x1="61.48" y1="42.7" x2="-1.375" y2="6.41"/>
	<polyline class="st1" points="61.578,40.158 -1.135,3.951 -1.529,3.723 	"/>
	<polyline class="st1" points="61.514,37.524 -1.248,1.288 -2.111,0.79 	"/>
	<polyline class="st1" points="61.544,34.943 0,-0.59 -1.761,-1.606 	"/>
	<line class="st1" x1="61.353" y1="32.234" x2="2.933" y2="-1.494"/>
	<line class="st1" x1="61.482" y1="29.711" x2="7.489" y2="-1.462"/>
	<line class="st1" x1="61.479" y1="27.111" x2="11.988" y2="-1.463"/>
	<line class="st1" x1="61.458" y1="24.501" x2="16.186" y2="-1.637"/>
	<line class="st1" x1="61.361" y1="21.847" x2="20.651" y2="-1.657"/>
	<line class="st1" x1="61.563" y1="19.365" x2="25.485" y2="-1.464"/>
	<line class="st1" x1="61.605" y1="16.791" x2="30.1" y2="-1.398"/>
	<line class="st1" x1="61.433" y1="14.094" x2="34.593" y2="-1.402"/>
	<line class="st1" x1="61.589" y1="11.586" x2="38.944" y2="-1.488"/>
	<line class="st1" x1="61.366" y1="8.86" x2="43.447" y2="-1.486"/>
	<line class="st1" x1="61.599" y1="6.396" x2="48.098" y2="-1.399"/>
	<line class="st1" x1="61.587" y1="3.79" x2="52.221" y2="-1.617"/>
	<line class="st1" x1="61.605" y1="1.203" x2="56.949" y2="-1.485"/>
	<path class="st1" d="M61.536-1.435"/>
	<path class="st1" d="M-57.75-91.089"/>
	<path class="st1" d="M-56.625-93.038"/>
	<path class="st1" d="M-55.5-94.987"/>
	<path class="st1" d="M-54.375-96.935"/>
	<path class="st1" d="M-53.25-98.884"/>
	<path class="st1" d="M-52.125-100.832"/>
	<path class="st1" d="M-51-102.781"/>
	<path class="st1" d="M-49.875-104.729"/>
	<path class="st1" d="M-48.75-106.678"/>
	<path class="st1" d="M61.631,62.121"/>
	<line class="st1" x1="56.838" y1="62.29" x2="61.535" y2="59.579"/>
	<line class="st1" x1="52.761" y1="62.046" x2="61.655" y2="56.911"/>
	<line class="st1" x1="48.248" y1="62.054" x2="61.639" y2="54.322"/>
	<line class="st1" x1="43.747" y1="62.054" x2="61.555" y2="51.773"/>
	<line class="st1" x1="38.977" y1="62.211" x2="61.555" y2="49.175"/>
	<line class="st1" x1="34.718" y1="62.071" x2="61.602" y2="46.55"/>
	<line class="st1" x1="30.312" y1="62.017" x2="61.607" y2="43.949"/>
	<line class="st1" x1="25.399" y1="62.256" x2="61.575" y2="41.369"/>
	<line class="st1" x1="21.12" y1="62.128" x2="61.516" y2="38.805"/>
	<line class="st1" x1="16.295" y1="62.315" x2="61.616" y2="36.149"/>
	<line class="st1" x1="11.778" y1="62.325" x2="61.415" y2="33.667"/>
	<line class="st1" x1="6.949" y1="62.515" x2="61.557" y2="30.987"/>
	<line class="st1" x1="3.231" y1="62.064" x2="61.44" y2="28.457"/>
	<line class="st1" x1="-1.62" y1="62.266" x2="61.498" y2="25.825"/>
	<line class="st1" x1="-1.625" y1="59.671" x2="61.567" y2="23.187"/>
	<line class="st1" x1="-1.398" y1="56.942" x2="61.477" y2="20.641"/>
	<line class="st1" x1="-1.514" y1="54.411" x2="61.651" y2="17.943"/>
	<line class="st1" x1="-1.367" y1="51.728" x2="61.481" y2="15.443"/>
	<line class="st1" x1="-1.426" y1="49.164" x2="61.624" y2="12.762"/>
	<line class="st1" x1="-1.554" y1="46.64" x2="61.559" y2="10.201"/>
	<line class="st1" x1="-1.659" y1="44.102" x2="61.506" y2="7.634"/>
	<line class="st1" x1="-1.549" y1="41.441" x2="61.496" y2="5.042"/>
	<line class="st1" x1="-1.501" y1="38.815" x2="61.691" y2="2.331"/>
	<line class="st1" x1="-1.687" y1="36.324" x2="61.659" y2="-0.249"/>
	<line class="st1" x1="-1.522" y1="33.631" x2="59.322" y2="-1.497"/>
	<line class="st1" x1="-1.64" y1="31.101" x2="55.116" y2="-1.667"/>
	<line class="st1" x1="-1.454" y1="28.396" x2="50.498" y2="-1.599"/>
	<line class="st1" x1="-1.477" y1="25.811" x2="46.01" y2="-1.606"/>
	<line class="st1" x1="-1.619" y1="23.295" x2="41.374" y2="-1.527"/>
	<line class="st1" x1="-1.589" y1="20.679" x2="36.704" y2="-1.429"/>
	<line class="st1" x1="-1.499" y1="18.029" x2="32.345" y2="-1.51"/>
	<line class="st1" x1="-1.488" y1="15.425" x2="27.96" y2="-1.577"/>
	<line class="st1" x1="-1.537" y1="12.855" x2="23.453" y2="-1.573"/>
	<line class="st1" x1="-1.447" y1="10.205" x2="19.027" y2="-1.616"/>
	<polyline class="st1" points="-1.57,7.678 -0.992,7.344 14.636,-1.679 	"/>
	<line class="st1" x1="-1.692" y1="5.15" x2="9.935" y2="-1.562"/>
	<line class="st1" x1="-1.256" y1="2.301" x2="4.909" y2="-1.259"/>
	<path class="st1" d="M0.826-1.5"/>
</g>
<g>
	<path class="st2" d="M38.0498,36.7002c0.0498,0,0.0986-0.0117,0.1436-0.0361l10.5098-5.7192
		c0.0898-0.0493,0.1494-0.1416,0.1563-0.2441l0.2412-3.6802c0.0068-0.1143-0.0518-0.2231-0.1514-0.2798L26.6489,13.9976
		c-0.0918-0.0522-0.2017-0.0527-0.2925-0.0029L12.4375,21.584c-0.0957,0.0518-0.1553,0.1514-0.1563,0.2603
		c-0.0015,0.1089,0.0566,0.2095,0.1509,0.2632l25.4692,14.5537C37.9473,36.6875,37.998,36.7002,38.0498,36.7002z M26.4966,14.6016
		l21.9927,12.5669l-0.2178,3.3281l-10.2178,5.5601L13.1963,21.8535L26.4966,14.6016z"/>
	<path class="st2" d="M58.6888,28.0867c-0.0099-0.0191-0.0226-0.034-0.0349-0.0516c-0.0348-0.0503-0.0765-0.0919-0.127-0.1265
		c-0.0115-0.0079-0.0167-0.0217-0.0289-0.0287l-2.4124-1.381l0.9935-0.5736c0.1543-0.0894,0.25-0.2544,0.25-0.4331
		s-0.0957-0.3438-0.25-0.4331l-2.3145-1.3364c-0.1611-0.0923-0.3623-0.0879-0.5195,0.0122l-1.3584,0.8711l0.0624,0.0975
		l-1.9269-1.103l0.9621-0.5555c0.1543-0.0894,0.25-0.2544,0.25-0.4331s-0.0957-0.3438-0.25-0.4331l-2.3135-1.3359
		c-0.1602-0.0928-0.3613-0.0889-0.5195,0.0122l-1.3604,0.8711l0.0249,0.0389l-1.8566-1.0627l0.9303-0.5372
		c0.1543-0.0894,0.25-0.2544,0.25-0.4331s-0.0957-0.3438-0.25-0.4331l-2.3135-1.3359c-0.1602-0.0928-0.3613-0.0884-0.5195,0.0122
		l-1.35,0.8651l-1.8099-1.0361l0.8992-0.5189c0.1543-0.0894,0.25-0.2544,0.25-0.4331s-0.0957-0.3438-0.25-0.4331l-2.3135-1.3359
		c-0.1611-0.0923-0.3623-0.0884-0.5195,0.0117l-1.322,0.8456L35.834,14.906l0.8672-0.5007c0.1543-0.0894,0.25-0.2544,0.25-0.4331
		s-0.0957-0.3438-0.25-0.4331l-2.3145-1.3359c-0.1611-0.0923-0.3623-0.0889-0.5195,0.0122l-1.2904,0.8261l-4.5275-2.5917
		c-0.1519-0.0859-0.3374-0.0874-0.4917-0.0029L6.46,22.1792c-0.0125,0.007-0.018,0.0211-0.0298,0.029
		c-0.0507,0.034-0.0929,0.075-0.1281,0.1247c-0.013,0.0182-0.0259,0.0341-0.0363,0.054c-0.035,0.0664-0.0586,0.1387-0.0604,0.2186
		c-0.0001,0.0028-0.0022,0.0051-0.0022,0.0079c0,0.0004,0.0003,0.0009,0.0003,0.0013c0,0.0006-0.0003,0.001-0.0003,0.0016v5.499
		l-2.2168,1.356c-0.1489,0.0913-0.2393,0.2524-0.2393,0.4268v2.647l-2.292,1.3242c-0.1548,0.0889-0.25,0.2539-0.25,0.4326
		s0.0952,0.3438,0.25,0.4326l2.542,1.4668c0.0776,0.0449,0.1636,0.0674,0.25,0.0674s0.1729-0.0225,0.25-0.0674l2.4561-1.418
		c0.1548-0.0889,0.25-0.2539,0.25-0.4326v-2.7002l1.5499-0.8864l2.4479,1.4166l-1.2498,0.7646
		c-0.1489,0.0908-0.2393,0.2529-0.2393,0.4268v2.6465l-2.292,1.3242c-0.1548,0.0889-0.25,0.2539-0.25,0.4326
		s0.0952,0.3438,0.25,0.4326l2.542,1.4678c0.0771,0.0449,0.1636,0.0674,0.25,0.0674s0.1729-0.0225,0.25-0.0674l2.4561-1.418
		c0.1548-0.0889,0.25-0.2539,0.25-0.4326V35.124l1.5685-0.8975l2.4471,1.4161L15.916,36.418
		c-0.1484,0.0908-0.2393,0.2529-0.2393,0.4268v2.6475l-2.292,1.3232c-0.1548,0.0889-0.25,0.2539-0.25,0.4326
		s0.0952,0.3438,0.25,0.4326l2.542,1.4678c0.0771,0.0449,0.1636,0.0674,0.25,0.0674s0.1729-0.0225,0.25-0.0674l2.4561-1.418
		c0.1548-0.0889,0.25-0.2539,0.25-0.4326v-2.7012l1.5872-0.9075l2.4469,1.416l-1.2855,0.7865
		c-0.1489,0.0908-0.2393,0.2529-0.2393,0.4268v2.6465l-2.292,1.3242c-0.1548,0.0889-0.25,0.2539-0.25,0.4326
		s0.0952,0.3438,0.25,0.4326l2.542,1.4678c0.0771,0.0449,0.1636,0.0674,0.25,0.0674s0.1729-0.0225,0.25-0.0674l2.4561-1.418
		c0.1548-0.0889,0.25-0.2539,0.25-0.4326v-2.7012l1.6057-0.9184l2.4467,1.4158l-1.3033,0.7975
		c-0.1489,0.0908-0.2393,0.2529-0.2393,0.4268v2.6455l-2.293,1.3252c-0.1548,0.0889-0.25,0.2539-0.25,0.4326
		s0.0952,0.3438,0.25,0.4326l2.543,1.4678c0.0771,0.0449,0.1636,0.0674,0.25,0.0674s0.1729-0.0225,0.25-0.0674l2.4551-1.418
		c0.1548-0.0889,0.2495-0.2539,0.2495-0.4326v-2.7012l1.6248-0.9296l4.4211,2.5585c0.007,0.004,0.0155,0.0024,0.0226,0.0061
		c0.069,0.0359,0.1441,0.0613,0.2274,0.0613c0.0837,0,0.1591-0.0256,0.2285-0.062c0.0074-0.0038,0.0162-0.0021,0.0235-0.0064
		L58.502,34.9873c0.0177-0.0103,0.0281-0.0271,0.044-0.0391c0.0285-0.0215,0.0553-0.0428,0.0786-0.0699
		c0.0206-0.024,0.0361-0.0496,0.0516-0.0766c0.0162-0.028,0.031-0.0552,0.0416-0.0862c0.0112-0.0327,0.0159-0.0653,0.0201-0.0997
		c0.0026-0.0206,0.0121-0.0388,0.0121-0.0601V28.314C58.75,28.2307,58.7247,28.1557,58.6888,28.0867z M37.8584,40.4532
		L57.75,29.1727v5.096L37.8584,45.8699V40.4532z M54.5283,24.7412l1.3008,0.751l-0.7479,0.4318l-1.2668-0.7252L54.5283,24.7412z
		 M49.4346,21.8608l1.2998,0.751l-0.7165,0.4136l-1.2684-0.7261L49.4346,21.8608z M44.3398,18.981l1.2998,0.751l-0.6847,0.3953
		l-1.2697-0.7269L44.3398,18.981z M39.2461,16.1011l1.2998,0.751l-0.6537,0.377l-1.2715-0.7279L39.2461,16.1011z M34.1504,13.2212
		l1.3008,0.751l-0.6216,0.3589l-1.2739-0.7292L34.1504,13.2212z M27.7974,11.458l29.4429,16.854L37.3594,39.5869L7.7207,22.6226
		L27.7974,11.458z M6.4551,30.9263c-0.1558,0.0894-0.252,0.2544-0.252,0.4341v2.7012l-1.9561,1.1299l-1.542-0.8896l1.792-1.0352
		c0.1548-0.0889,0.25-0.2539,0.25-0.4326v-2.6558l2.0792-1.2719c0.1007-0.0262,0.1874-0.0779,0.2529-0.1547l2.1123-1.2922
		l1.6553,0.9556L6.4551,30.9263z M12.4199,34.4004c-0.1558,0.0889-0.252,0.2539-0.252,0.4336v2.7021l-1.9561,1.1299l-1.5425-0.8906
		l1.7925-1.0361c0.1548-0.0889,0.25-0.2539,0.25-0.4326v-2.6543l4.4443-2.7197l1.6553,0.9551L12.4199,34.4004z M18.3848,37.873
		c-0.1558,0.0889-0.252,0.2539-0.252,0.4336v2.7021l-1.9561,1.1299l-1.542-0.8906l1.792-1.0342
		c0.1548-0.0889,0.25-0.2539,0.25-0.4326V37.125l4.4443-2.7178l1.6548,0.9551L18.3848,37.873z M24.3501,41.3467
		c-0.1558,0.0889-0.252,0.2539-0.252,0.4336v2.7021l-1.9561,1.1299l-1.542-0.8906l1.792-1.0352
		c0.1548-0.0889,0.25-0.2539,0.25-0.4326v-2.6553l4.4443-2.7188l1.6553,0.9551L24.3501,41.3467z M30.3149,44.8203
		c-0.1558,0.0889-0.252,0.2539-0.252,0.4336v2.7021l-1.9551,1.1299l-1.543-0.8906l1.793-1.0361
		c0.1548-0.0889,0.25-0.2539,0.25-0.4326v-2.6543l4.4438-2.7188l1.6543,0.9541L30.3149,44.8203z M35.958,42.7432
		c0.1553-0.0889,0.252-0.2539,0.252-0.4326s-0.0947-0.3447-0.25-0.4336l-2.666-1.5381c-0.1582-0.0918-0.3545-0.0889-0.5107,0.0059
		l-2.6627,1.6294l-2.4129-1.3963l2.2856-1.3073c0.1558-0.0889,0.2515-0.2539,0.252-0.4326s-0.0952-0.3447-0.25-0.4336l-2.666-1.5391
		c-0.1592-0.0928-0.3555-0.0908-0.5107,0.0059l-2.6813,1.6404l-2.413-1.3964l2.3038-1.3173
		c0.1558-0.0879,0.2515-0.2539,0.252-0.4326s-0.0952-0.3447-0.25-0.4336l-2.666-1.5391c-0.1587-0.0918-0.354-0.0898-0.5107,0.0059
		l-2.699,1.6508l-2.4138-1.3969l2.3228-1.329c0.1558-0.0889,0.2515-0.2539,0.252-0.4326s-0.0952-0.3447-0.25-0.4336l-2.666-1.5391
		c-0.1587-0.0918-0.355-0.0903-0.5107,0.0068l-2.7169,1.6622L9.757,30.1899l2.3411-1.3388c0.1558-0.0889,0.2515-0.2539,0.252-0.4331
		s-0.0952-0.3447-0.25-0.4341l-2.666-1.5391c-0.1587-0.0908-0.356-0.0903-0.5107,0.0063l-1.7202,1.0522v-4.0247l29.6553,16.9728
		v5.4219l-3.1676-1.8331L35.958,42.7432z"/>
	<ellipse class="st2" cx="52.201" cy="28.314" rx="1.215" ry="0.825"/>
	<path class="st2" d="M34.714,21.957c-3.618,1.2191-4.589,1.327-7.926,2.263c-0.012-0.007-0.019-0.011-0.031-0.0179
		c1.207-2.164,1.465-3.085,2.888-5.194c-0.308-0.178-0.462-0.267-0.77-0.445c-2.764,1.662-3.721,2.241-6.608,4.053
		c0.225,0.132,0.337,0.198,0.559,0.327c2.146-1.371,2.95-1.88,4.869-3.076c0.379-0.236,0.743-0.479,1.097-0.729
		c0.016,0.009,0.023,0.014,0.039,0.023c-1.415,2.167-1.616,3.109-3.051,5.49c0.1349,0.077,0.202,0.116,0.336,0.193
		c3.688-1.085,4.684-1.178,8.3069-2.34c0.0161,0.009,0.023,0.014,0.039,0.023c-0.4319,0.252-0.803,0.488-1.128,0.718
		c-1.864,1.318-2.394,1.729-4.515,3.134c0.198,0.112,0.297,0.168,0.494,0.279c2.812-1.844,3.145-2.18,6.158-4.264
		C35.168,22.219,35.016,22.132,34.714,21.957z"/>
	<path class="st2" d="M38.201,28.388c-0.038-0.282-0.307-0.608-0.8-0.975c0.01-0.006,0.014-0.009,0.024-0.015
		c0.543,0.237,1.056,0.361,1.548,0.364c0.492,0.004,0.927-0.104,1.33-0.346c0.59-0.355,0.888-0.792,0.798-1.251
		c-0.09-0.459-0.602-0.955-1.534-1.465c-0.827-0.454-1.234-0.681-2.041-1.135c-3.191,2.154-3.384,2.386-6.276,4.182
		c0.828,0.465,1.235,0.693,2.048,1.148c0.744,0.417,1.513,0.628,2.285,0.665c0.772,0.037,1.474-0.1,2.046-0.409
		C38.056,28.92,38.239,28.67,38.201,28.388z M37.559,24.178c0.588,0.337,0.885,0.505,1.484,0.84
		c0.707,0.396,1.125,0.773,1.249,1.122c0.124,0.349-0.072,0.681-0.529,0.961c-0.457,0.28-0.912,0.372-1.407,0.313
		s-1.069-0.281-1.728-0.665c-0.618-0.36-0.925-0.541-1.539-0.903C35.964,25.257,36.395,24.959,37.559,24.178z M37.105,28.855
		c-0.924,0.512-2.126,0.47-3.366-0.225c-0.63-0.353-0.946-0.53-1.583-0.887c1.186-0.733,1.614-1.015,2.585-1.664
		c0.612,0.359,0.917,0.538,1.531,0.895C37.635,27.764,37.948,28.388,37.105,28.855z"/>
</g>
</svg>
