<?xml version="1.0" encoding="utf-8"?>
<!-- Generator: Adobe Illustrator 21.0.0, SVG Export Plug-In . SVG Version: 6.00 Build 0)  -->
<svg version="1.1" id="Layer_1" xmlns="http://www.w3.org/2000/svg" xmlns:xlink="http://www.w3.org/1999/xlink" x="0px" y="0px"
	 viewBox="0 0 60 60" style="enable-background:new 0 0 60 60;" xml:space="preserve">
<style type="text/css">
	.st0{display:none;opacity:0.2;}
	.st1{display:inline;fill:none;stroke:#00ADEE;stroke-width:0.125;stroke-miterlimit:10;}
	.st2{fill:#231F20;}
</style>
<g class="st0">
	<path class="st1" d="M-0.375-1.557"/>
	<line class="st1" x1="1.875" y1="62.156" x2="1.875" y2="-1.36"/>
	<line class="st1" x1="4.125" y1="62.353" x2="4.125" y2="-1.557"/>
	<line class="st1" x1="6.375" y1="61.959" x2="6.375" y2="-1.311"/>
	<line class="st1" x1="8.625" y1="62.746" x2="8.625" y2="-1.655"/>
	<line class="st1" x1="10.875" y1="62.353" x2="10.875" y2="-1.508"/>
	<line class="st1" x1="13.125" y1="62.5" x2="13.125" y2="-1.606"/>
	<line class="st1" x1="15.375" y1="62.353" x2="15.375" y2="-1.557"/>
	<line class="st1" x1="17.625" y1="62.5" x2="17.625" y2="-1.902"/>
	<line class="st1" x1="19.875" y1="62.156" x2="19.875" y2="-1.655"/>
	<line class="st1" x1="22.125" y1="62.303" x2="22.125" y2="-1.852"/>
	<line class="st1" x1="24.375" y1="62.106" x2="24.375" y2="-1.458"/>
	<line class="st1" x1="26.625" y1="62.254" x2="26.625" y2="-1.508"/>
	<line class="st1" x1="28.875" y1="62.303" x2="28.875" y2="-1.508"/>
	<line class="st1" x1="31.125" y1="62.057" x2="31.125" y2="-1.458"/>
	<line class="st1" x1="33.375" y1="62.106" x2="33.375" y2="-1.409"/>
	<line class="st1" x1="35.625" y1="62.353" x2="35.625" y2="-1.606"/>
	<line class="st1" x1="37.875" y1="62.156" x2="37.875" y2="-1.557"/>
	<line class="st1" x1="40.125" y1="62.451" x2="40.125" y2="-1.508"/>
	<line class="st1" x1="42.375" y1="62.254" x2="42.375" y2="-1.36"/>
	<line class="st1" x1="44.625" y1="62.106" x2="44.625" y2="-1.508"/>
	<line class="st1" x1="46.875" y1="62.156" x2="46.875" y2="-1.508"/>
	<line class="st1" x1="49.125" y1="62.106" x2="49.125" y2="-1.508"/>
	<line class="st1" x1="51.375" y1="61.86" x2="51.375" y2="-1.557"/>
	<line class="st1" x1="53.625" y1="62.156" x2="53.625" y2="-1.754"/>
	<line class="st1" x1="55.875" y1="62.156" x2="55.875" y2="-1.606"/>
	<line class="st1" x1="58.125" y1="62.451" x2="58.125" y2="-1.606"/>
	<line class="st1" x1="0.707" y1="62.173" x2="-1.49" y2="60.904"/>
	<line class="st1" x1="5.116" y1="62.12" x2="-1.544" y2="58.275"/>
	<line class="st1" x1="9.971" y1="62.325" x2="-1.555" y2="55.67"/>
	<line class="st1" x1="14.59" y1="62.394" x2="-1.607" y2="53.042"/>
	<line class="st1" x1="18.865" y1="62.263" x2="-1.499" y2="50.506"/>
	<line class="st1" x1="23.182" y1="62.158" x2="-1.459" y2="47.931"/>
	<line class="st1" x1="27.736" y1="62.189" x2="-1.529" y2="45.293"/>
	<line class="st1" x1="32.049" y1="62.081" x2="-1.465" y2="42.732"/>
	<line class="st1" x1="36.749" y1="62.196" x2="-1.522" y2="40.101"/>
	<line class="st1" x1="41.271" y1="62.209" x2="-1.645" y2="37.431"/>
	<line class="st1" x1="45.801" y1="62.226" x2="-1.572" y2="34.876"/>
	<line class="st1" x1="50.08" y1="62.099" x2="-1.576" y2="32.275"/>
	<line class="st1" x1="54.737" y1="62.19" x2="-1.594" y2="29.667"/>
	<line class="st1" x1="59.428" y1="62.3" x2="-1.647" y2="27.038"/>
	<line class="st1" x1="61.539" y1="60.921" x2="-1.545" y2="24.499"/>
	<line class="st1" x1="61.758" y1="58.449" x2="-1.458" y2="21.951"/>
	<line class="st1" x1="61.545" y1="55.728" x2="-1.525" y2="19.314"/>
	<line class="st1" x1="61.597" y1="53.16" x2="-1.558" y2="16.697"/>
	<line class="st1" x1="61.527" y1="50.521" x2="-1.469" y2="14.15"/>
	<line class="st1" x1="61.65" y1="47.994" x2="-1.472" y2="11.551"/>
	<line class="st1" x1="61.538" y1="45.331" x2="-1.42" y2="8.983"/>
	<line class="st1" x1="61.48" y1="42.7" x2="-1.375" y2="6.41"/>
	<polyline class="st1" points="61.578,40.158 -1.135,3.951 -1.529,3.723 	"/>
	<polyline class="st1" points="61.514,37.524 -1.248,1.288 -2.111,0.79 	"/>
	<polyline class="st1" points="61.544,34.943 0,-0.59 -1.761,-1.606 	"/>
	<line class="st1" x1="61.353" y1="32.234" x2="2.933" y2="-1.494"/>
	<line class="st1" x1="61.482" y1="29.711" x2="7.489" y2="-1.462"/>
	<line class="st1" x1="61.479" y1="27.111" x2="11.988" y2="-1.463"/>
	<line class="st1" x1="61.458" y1="24.501" x2="16.186" y2="-1.637"/>
	<line class="st1" x1="61.361" y1="21.847" x2="20.651" y2="-1.657"/>
	<line class="st1" x1="61.563" y1="19.365" x2="25.485" y2="-1.464"/>
	<line class="st1" x1="61.605" y1="16.791" x2="30.1" y2="-1.398"/>
	<line class="st1" x1="61.433" y1="14.094" x2="34.593" y2="-1.402"/>
	<line class="st1" x1="61.589" y1="11.586" x2="38.944" y2="-1.488"/>
	<line class="st1" x1="61.366" y1="8.86" x2="43.447" y2="-1.486"/>
	<line class="st1" x1="61.599" y1="6.396" x2="48.098" y2="-1.399"/>
	<line class="st1" x1="61.587" y1="3.79" x2="52.221" y2="-1.617"/>
	<line class="st1" x1="61.605" y1="1.203" x2="56.949" y2="-1.485"/>
	<path class="st1" d="M-57.75-91.089"/>
	<path class="st1" d="M-56.625-93.038"/>
	<path class="st1" d="M-55.5-94.987"/>
	<path class="st1" d="M-54.375-96.935"/>
	<path class="st1" d="M-53.25-98.884"/>
	<path class="st1" d="M-52.125-100.832"/>
	<path class="st1" d="M-51-102.781"/>
	<path class="st1" d="M-49.875-104.729"/>
	<path class="st1" d="M-48.75-106.678"/>
	<path class="st1" d="M61.631,62.121"/>
	<line class="st1" x1="56.838" y1="62.29" x2="61.535" y2="59.579"/>
	<line class="st1" x1="52.761" y1="62.046" x2="61.655" y2="56.911"/>
	<line class="st1" x1="48.248" y1="62.054" x2="61.639" y2="54.322"/>
	<line class="st1" x1="43.747" y1="62.054" x2="61.555" y2="51.773"/>
	<line class="st1" x1="38.977" y1="62.211" x2="61.555" y2="49.175"/>
	<line class="st1" x1="34.718" y1="62.071" x2="61.602" y2="46.55"/>
	<line class="st1" x1="30.312" y1="62.017" x2="61.607" y2="43.949"/>
	<line class="st1" x1="25.399" y1="62.256" x2="61.575" y2="41.369"/>
	<line class="st1" x1="21.12" y1="62.128" x2="61.516" y2="38.805"/>
	<line class="st1" x1="16.295" y1="62.315" x2="61.616" y2="36.149"/>
	<line class="st1" x1="11.778" y1="62.325" x2="61.415" y2="33.667"/>
	<line class="st1" x1="6.949" y1="62.515" x2="61.557" y2="30.987"/>
	<line class="st1" x1="3.231" y1="62.064" x2="61.44" y2="28.457"/>
	<line class="st1" x1="-1.62" y1="62.266" x2="61.498" y2="25.825"/>
	<line class="st1" x1="-1.625" y1="59.671" x2="61.567" y2="23.187"/>
	<line class="st1" x1="-1.398" y1="56.942" x2="61.477" y2="20.641"/>
	<line class="st1" x1="-1.514" y1="54.411" x2="61.651" y2="17.943"/>
	<line class="st1" x1="-1.367" y1="51.728" x2="61.481" y2="15.443"/>
	<line class="st1" x1="-1.426" y1="49.164" x2="61.624" y2="12.762"/>
	<line class="st1" x1="-1.554" y1="46.64" x2="61.559" y2="10.201"/>
	<line class="st1" x1="-1.659" y1="44.102" x2="61.506" y2="7.634"/>
	<line class="st1" x1="-1.549" y1="41.441" x2="61.496" y2="5.042"/>
	<line class="st1" x1="-1.501" y1="38.815" x2="61.691" y2="2.331"/>
	<line class="st1" x1="-1.687" y1="36.324" x2="61.659" y2="-0.249"/>
	<line class="st1" x1="-1.522" y1="33.631" x2="59.322" y2="-1.497"/>
	<line class="st1" x1="-1.64" y1="31.101" x2="55.116" y2="-1.667"/>
	<line class="st1" x1="-1.454" y1="28.396" x2="50.498" y2="-1.599"/>
	<line class="st1" x1="-1.477" y1="25.811" x2="46.01" y2="-1.606"/>
	<line class="st1" x1="-1.619" y1="23.295" x2="41.374" y2="-1.527"/>
	<line class="st1" x1="-1.589" y1="20.679" x2="36.704" y2="-1.429"/>
	<line class="st1" x1="-1.499" y1="18.029" x2="32.345" y2="-1.51"/>
	<line class="st1" x1="-1.488" y1="15.425" x2="27.96" y2="-1.577"/>
	<line class="st1" x1="-1.537" y1="12.855" x2="23.453" y2="-1.573"/>
	<line class="st1" x1="-1.447" y1="10.205" x2="19.027" y2="-1.616"/>
	<polyline class="st1" points="-1.57,7.678 -0.992,7.344 14.636,-1.679 	"/>
	<line class="st1" x1="-1.692" y1="5.15" x2="9.935" y2="-1.562"/>
	<line class="st1" x1="-1.256" y1="2.301" x2="4.909" y2="-1.259"/>
	<path class="st1" d="M0.826-1.5"/>
</g>
<g>
	<path class="st2" d="M14.0151,25.5205l15.5239,9.2549c0.0786,0.0469,0.1675,0.0703,0.2559,0.0703
		c0.0864,0,0.1729-0.0225,0.2505-0.0674l15.7183-9.0986c0.1533-0.0889,0.248-0.2529,0.249-0.4307s-0.0928-0.3428-0.2461-0.4326
		l-15.6035-9.1899c-0.1548-0.0923-0.3472-0.0918-0.5039-0.0024L14.021,24.6577c-0.1538,0.0889-0.2485,0.2524-0.25,0.4297
		C13.77,25.2646,13.8628,25.4297,14.0151,25.5205z M29.9067,16.6357l14.6147,8.6074l-14.7227,8.5225l-14.54-8.668L29.9067,16.6357z"
		/>
	<path class="st2" d="M58.9785,36.6816l-1.7285-0.999v-1.998c0-0.1738-0.0908-0.3359-0.2393-0.4268l-1.7588-1.076V25.207h-0.0004
		c0.0002-0.0979-0.0333-0.188-0.085-0.2676l0.9779-0.6367c0.1455-0.0947,0.2314-0.2573,0.2275-0.4307s-0.0977-0.332-0.2471-0.4199
		l-2.2344-1.3076c-0.1553-0.0894-0.3477-0.0903-0.5029-0.0015l-1.3408,0.7739c-0.034,0.0197-0.0573,0.049-0.0847,0.0747
		l-1.767-1.0361l0.8879-0.5776c0.1455-0.0942,0.2314-0.2573,0.2275-0.4307s-0.0977-0.332-0.2471-0.4199l-2.2344-1.3081
		c-0.1543-0.0898-0.3467-0.0903-0.5029-0.0015l-1.3408,0.7739c-0.0223,0.0129-0.0361,0.0334-0.0557,0.0491l-1.7612-1.0328
		l0.853-0.5544c0.1455-0.0947,0.2314-0.2578,0.2275-0.4312s-0.0977-0.332-0.2471-0.4199l-2.2354-1.3081
		c-0.1553-0.0898-0.3477-0.0903-0.5029-0.0015l-1.3408,0.7739c-0.0104,0.006-0.0161,0.0162-0.0259,0.0228L40.141,16.06l0.818-0.5322
		c0.1455-0.0942,0.2314-0.2573,0.2275-0.4307s-0.0977-0.332-0.2471-0.4199l-2.2344-1.3081
		c-0.1553-0.0903-0.3477-0.0898-0.5029-0.0015l-1.3364,0.7719l-1.7514-1.027l0.7831-0.509
		c0.1455-0.0947,0.2314-0.2578,0.2275-0.4312s-0.0977-0.332-0.2471-0.4199l-2.2354-1.3081
		c-0.1543-0.0903-0.3467-0.0908-0.5029-0.0015l-1.2992,0.7499l-1.2755-0.7479c-0.1558-0.0918-0.3477-0.0923-0.5024-0.002
		l-0.9028,0.5202L27.998,10.293c-0.1563-0.0894-0.3472-0.0894-0.5024,0.0015l-2.1973,1.2852
		c-0.1499,0.0874-0.2432,0.2466-0.2476,0.4199c-0.0039,0.1733,0.082,0.3364,0.2275,0.4307l0.6272,0.408l-1.729,0.9963L23.022,13.168
		c-0.1558-0.0889-0.3481-0.0889-0.5024,0.0015l-2.1968,1.2861c-0.1499,0.0879-0.2432,0.2466-0.2476,0.4199
		c-0.0039,0.1733,0.082,0.3364,0.2275,0.4312l0.6198,0.4028l-1.7288,0.9962l-1.1478-0.6626
		c-0.1548-0.0894-0.3481-0.0884-0.5024,0.0015l-2.1968,1.2861c-0.1499,0.0879-0.2432,0.2466-0.2476,0.4199
		c-0.0039,0.1733,0.082,0.3364,0.2271,0.4307l0.6136,0.3993l-1.7288,0.9962l-1.1426-0.6586
		c-0.1553-0.0889-0.3477-0.0889-0.502,0.0015l-2.1968,1.2861c-0.1499,0.0879-0.2432,0.2466-0.2476,0.4199
		c-0.0039,0.1733,0.082,0.3364,0.2275,0.4312l0.6076,0.3948L9.227,22.4484l-1.1342-0.6545
		c-0.1558-0.0894-0.3467-0.0884-0.5024,0.0015l-2.1968,1.2852c-0.1499,0.0874-0.2432,0.2466-0.2476,0.4199
		c-0.0039,0.1733,0.082,0.3364,0.2275,0.4307l0.6013,0.3912l-0.6033,0.3476c-0.1543,0.0884-0.2495,0.2524-0.2505,0.4302
		c0,0.001,0.0008,0.0019,0.0008,0.0029H5.1211v6.9011l-2.1323,1.3044C2.8403,33.3994,2.75,33.5615,2.75,33.7354v1.9961l-1.729,0.999
		c-0.1548,0.0889-0.25,0.2539-0.25,0.4326s0.0952,0.3438,0.25,0.4326L3,38.7383c0.0771,0.0449,0.1636,0.0674,0.25,0.0674
		s0.1724-0.0225,0.25-0.0674l1.9121-1.1035c0.1548-0.0889,0.25-0.2539,0.25-0.4326v-2.0391l1.4506-0.8298l1.6584,0.9833
		l-1.1373,0.696c-0.1484,0.0908-0.2388,0.2529-0.2388,0.4268v1.9961l-1.73,1c-0.1548,0.0889-0.25,0.2539-0.25,0.4326
		s0.0957,0.3438,0.2505,0.4336l1.98,1.1416c0.0771,0.0439,0.1631,0.0664,0.2495,0.0664s0.1724-0.0225,0.25-0.0674l1.9121-1.1035
		c0.1548-0.0889,0.25-0.2539,0.25-0.4326v-2.0391l1.4078-0.8051l1.6597,0.984l-1.0963,0.6707
		c-0.1489,0.0908-0.2393,0.2529-0.2393,0.4268v1.9971l-1.729,0.999c-0.1548,0.0889-0.25,0.2539-0.25,0.4326
		s0.0952,0.3438,0.25,0.4326l1.979,1.1426c0.0771,0.0449,0.1636,0.0674,0.25,0.0674s0.1724-0.0225,0.25-0.0664l1.9131-1.1035
		c0.1548-0.0898,0.25-0.2549,0.25-0.4336v-2.0391l1.3654-0.7813l1.6605,0.9846l-1.0547,0.6453
		c-0.1489,0.0908-0.2393,0.2529-0.2393,0.4268v1.998l-1.729,0.999c-0.1548,0.0889-0.25,0.2539-0.25,0.4326
		s0.0952,0.3438,0.25,0.4336l1.979,1.1416c0.0776,0.0439,0.1636,0.0664,0.25,0.0664s0.1724-0.0225,0.25-0.0674l1.9121-1.1035
		c0.1548-0.0889,0.25-0.2539,0.25-0.4326v-2.0391l1.3235-0.7567l1.6628,0.9859l-1.0141,0.6204
		c-0.1489,0.0908-0.2393,0.2529-0.2393,0.4268v1.9961l-1.73,1c-0.1548,0.0889-0.25,0.2539-0.25,0.4326s0.0952,0.3438,0.25,0.4326
		l1.98,1.1426c0.0776,0.0449,0.1636,0.0674,0.25,0.0674s0.1729-0.0225,0.25-0.0674l1.9121-1.1045
		c0.1548-0.0889,0.25-0.2539,0.25-0.4326v-2.0381l1.2809-0.7329l4.1712,2.4731c0.0786,0.0469,0.1665,0.0703,0.2549,0.0703
		c0.0864,0,0.1729-0.0225,0.25-0.0674l4.3279-2.4989l1.2326,0.705v2.0391c0,0.1787,0.0957,0.3438,0.25,0.4326l1.9121,1.1045
		c0.0771,0.0449,0.1641,0.0674,0.25,0.0674s0.1729-0.0225,0.25-0.0674l1.9805-1.1426c0.1543-0.0889,0.25-0.2539,0.25-0.4326
		s-0.0957-0.3438-0.25-0.4326L38.6709,46.5v-1.9971c0-0.1738-0.0908-0.3359-0.2393-0.4268l-0.9296-0.5687l1.6887-0.9751
		l1.2135,0.6942v2.0391c0,0.1787,0.0957,0.3438,0.25,0.4326l1.9121,1.1045c0.0771,0.0449,0.1641,0.0674,0.25,0.0674
		s0.1729-0.0225,0.25-0.0674l1.9785-1.1436c0.1553-0.0889,0.25-0.2539,0.25-0.4326s-0.0957-0.3438-0.25-0.4326l-1.7285-0.999
		v-1.9961c0-0.1738-0.0908-0.3359-0.2393-0.4268l-0.9113-0.5574l1.6884-0.9749l1.1936,0.6826v2.0381
		c0,0.1787,0.0957,0.3438,0.25,0.4326l1.9131,1.1045c0.0771,0.0449,0.1641,0.0674,0.25,0.0674s0.1729-0.0225,0.25-0.0664
		l1.9795-1.1416c0.1543-0.0898,0.25-0.2549,0.25-0.4336s-0.0947-0.3438-0.25-0.4326l-1.7295-1v-1.9971
		c0-0.1738-0.0908-0.3359-0.2393-0.4268l-0.8915-0.5454l1.6887-0.975l1.1745,0.6718v2.0391c0,0.1787,0.0957,0.3438,0.25,0.4326
		l1.9121,1.1035c0.0771,0.0449,0.1641,0.0674,0.25,0.0674s0.1729-0.0225,0.25-0.0674l1.9795-1.1426
		c0.1543-0.0889,0.25-0.2539,0.25-0.4326s-0.0957-0.3438-0.25-0.4326l-1.7295-1v-1.9961c0-0.1738-0.0908-0.3359-0.2393-0.4268
		l-0.8728-0.5338l1.6898-0.9756l1.1547,0.6599v2.0391c0,0.1787,0.0957,0.3438,0.25,0.4326L56.5,38.6885
		c0.0771,0.0449,0.1641,0.0674,0.25,0.0674s0.1729-0.0225,0.25-0.0674l1.9785-1.1416c0.1543-0.0889,0.25-0.2539,0.25-0.4326
		S59.1338,36.7705,58.9785,36.6816z M53.6357,23.1543l1.2852,0.752l-0.3525,0.23c-0.1003,0.0652-0.1626,0.1627-0.1965,0.2684
		l-1.4396-0.8441L53.6357,23.1543z M48.5742,20.229l1.2852,0.7524l-0.3525,0.2295c-0.0891,0.0579-0.145,0.1427-0.1821,0.2343
		l-1.4173-0.8311L48.5742,20.229z M43.5117,17.3042l1.2852,0.7524l-0.3525,0.229c-0.0777,0.0507-0.1289,0.1222-0.1673,0.1996
		l-1.3945-0.8177L43.5117,17.3042z M38.4502,14.3794l1.2852,0.752l-0.3525,0.2295c-0.0664,0.0432-0.1148,0.1013-0.1527,0.165
		l-1.372-0.8045L38.4502,14.3794z M33.3877,11.4541l1.2852,0.7524l-0.3525,0.229c-0.055,0.0359-0.0991,0.0818-0.1347,0.1324
		l-1.3528-0.7933L33.3877,11.4541z M30.3096,11.4541l23.4482,13.7495L29.9517,38.9482L6.6118,25.1094L30.3096,11.4541z
		 M26.8374,12.252l-0.335-0.2183l1.2476-0.7295l0.4085,0.2358l-1.2895,0.743C26.8571,12.2736,26.8503,12.2604,26.8374,12.252z
		 M21.8613,15.1265l-0.3345-0.2173l1.2471-0.73l0.4016,0.232l-1.2873,0.7417C21.878,15.145,21.8723,15.1336,21.8613,15.1265z
		 M16.8857,18.0029l-0.3354-0.2183l1.2476-0.7305l0.3949,0.2281l-1.2861,0.7411C16.8986,18.0174,16.8943,18.0085,16.8857,18.0029z
		 M11.9097,20.8774l-0.3359-0.2183l1.2471-0.73l0.3889,0.2244l-1.2839,0.7397C11.9195,20.8887,11.9163,20.8817,11.9097,20.8774z
		 M6.9326,23.7529l-0.335-0.2183l1.2471-0.7295l0.3812,0.2201l-1.282,0.7387C6.9394,23.7609,6.9372,23.7559,6.9326,23.7529z
		 M4.9141,34.4395c-0.1558,0.0889-0.252,0.2539-0.252,0.4336v2.04L3.25,37.7285l-0.9795-0.5654L3.5,36.4521
		c0.1548-0.0889,0.25-0.2539,0.25-0.4326v-2.0039l3.3516-2.0508l1.0649,0.6143L4.9141,34.4395z M9.5591,37.1436
		c-0.1558,0.0889-0.252,0.2539-0.252,0.4336v2.04L7.895,40.4326l-0.9795-0.5645l1.2295-0.7109
		c0.1548-0.0889,0.25-0.2539,0.25-0.4326v-2.0049l3.3511-2.0508l1.0645,0.6152L9.5591,37.1436z M14.2041,39.8486
		c-0.1558,0.0889-0.252,0.2539-0.252,0.4336v2.04l-1.4131,0.8154l-0.9795-0.5654l1.2295-0.7109
		c0.1548-0.0889,0.25-0.2539,0.25-0.4326v-2.0049l3.3511-2.0498l1.0654,0.6143L14.2041,39.8486z M18.8481,42.5518
		c-0.1558,0.0898-0.252,0.2549-0.252,0.4346v2.04l-1.4121,0.8154l-0.979-0.5645l1.229-0.7109c0.1548-0.0889,0.25-0.2539,0.25-0.4326
		v-2.0059l3.3511-2.0498l1.0654,0.6152L18.8481,42.5518z M23.4932,45.2578c-0.1558,0.0889-0.252,0.2539-0.252,0.4336v2.0391
		l-1.4121,0.8164l-0.98-0.5654l1.23-0.7109c0.1548-0.0889,0.25-0.2539,0.25-0.4326V44.833l3.3511-2.0498l1.0645,0.6143
		L23.4932,45.2578z M27.9961,43.833c0.1558-0.0889,0.2515-0.2539,0.252-0.4326s-0.0952-0.3447-0.25-0.4336l-2.0752-1.1982
		c-0.1592-0.0928-0.3555-0.0908-0.5107,0.0059l-1.8651,1.141l-1.6296-0.9662l1.4346-0.8203
		c0.1553-0.0879,0.2515-0.2539,0.252-0.4326s-0.0947-0.3447-0.25-0.4336l-2.0762-1.1992c-0.1577-0.0918-0.356-0.0898-0.5107,0.0059
		l-1.8243,1.1161l-1.6277-0.9651l1.392-0.7964c0.1558-0.0889,0.2515-0.2539,0.252-0.4326s-0.0952-0.3447-0.25-0.4336l-2.0762-1.1982
		c-0.1592-0.0918-0.3555-0.0898-0.5107,0.0059l-1.7827,1.0906l-1.6266-0.9645l1.3492-0.7717
		c0.1553-0.0879,0.2515-0.2539,0.252-0.4326s-0.0947-0.3447-0.25-0.4336l-2.0752-1.1992c-0.1582-0.0928-0.3555-0.0898-0.5112,0.0059
		l-1.7418,1.0661l-1.6253-0.9637l1.3076-0.7479c0.1558-0.0889,0.2515-0.2539,0.252-0.4326s-0.0952-0.3447-0.25-0.4336
		l-2.0757-1.1987c-0.1592-0.0908-0.3555-0.0903-0.5107,0.0068l-0.7124,0.4358v-5.4116l23.3271,13.8309v6.6027l-2.9287-1.7365
		L27.9961,43.833z M37.9209,47.2217l1.2295,0.71l-0.9795,0.5654l-1.4121-0.8164v-2.04c0-0.1797-0.0957-0.3447-0.252-0.4336
		l-3.251-1.8594l1.0635-0.6143l3.3516,2.0498v2.0059C37.6709,46.9678,37.7666,47.1328,37.9209,47.2217z M42.5664,44.5166
		l1.2295,0.71l-0.9795,0.5664l-1.4121-0.8164v-2.04c0-0.1797-0.0957-0.3447-0.252-0.4336l-3.252-1.8604l1.0635-0.6133l3.3525,2.0498
		v2.0049C42.3164,44.2627,42.4121,44.4277,42.5664,44.5166z M47.2109,41.8125l1.2295,0.7109l-0.9795,0.5645l-1.4131-0.8164v-2.0391
		c0-0.1797-0.0957-0.3447-0.252-0.4336l-3.251-1.8594l1.0645-0.6152l3.3516,2.0498v2.0059
		C46.9609,41.5586,47.0566,41.7236,47.2109,41.8125z M51.8555,39.1074l1.2295,0.7109l-0.9795,0.5654l-1.4121-0.8154v-2.04
		c0-0.1797-0.0957-0.3447-0.252-0.4336l-3.252-1.8604l1.0635-0.6143l3.3525,2.0498v2.0049
		C51.6055,38.8535,51.7012,39.0186,51.8555,39.1074z M50.5224,34.8351l-2.0009-1.2238c-0.1553-0.0938-0.3516-0.0977-0.5107-0.0059
		l-2.0752,1.1982c-0.1553,0.0889-0.25,0.2549-0.25,0.4336s0.0967,0.3438,0.252,0.4326l1.577,0.902l-1.6552,0.9557l-1.9814-1.2122
		c-0.1553-0.0947-0.3516-0.0977-0.5107-0.0059l-2.0762,1.1992c-0.1553,0.0889-0.25,0.2549-0.25,0.4336s0.0967,0.3438,0.252,0.4326
		l1.5568,0.8904l-1.6548,0.9555l-1.9626-1.2004c-0.1553-0.0938-0.3516-0.0977-0.5107-0.0059l-2.0752,1.1973
		c-0.1553,0.0889-0.25,0.2549-0.25,0.4336s0.0967,0.3438,0.252,0.4326l1.5381,0.8798l-1.6552,0.9557l-1.9435-1.189
		c-0.1553-0.0947-0.3516-0.0977-0.5107-0.0059L32.002,42.917c-0.1553,0.0889-0.25,0.2549-0.25,0.4336s0.0967,0.3438,0.252,0.4326
		l1.518,0.8682l-3.0737,1.7748v-6.6105L54.252,26.0731V31.57l-1.085-0.6638c-0.1553-0.0942-0.3516-0.0977-0.5107-0.0063
		l-2.0762,1.1997c-0.1553,0.0889-0.25,0.2549-0.25,0.4336s0.0967,0.3447,0.252,0.4336l1.5962,0.9122L50.5224,34.8351z
		 M56.75,37.6787l-1.4121-0.8154v-2.04c0-0.1797-0.0957-0.3447-0.252-0.4336l-3.252-1.8594l1.0645-0.6152l3.3516,2.0498v2.0059
		c0,0.1787,0.0947,0.3438,0.25,0.4326l1.2285,0.7109L56.75,37.6787z"/>
	<path class="st2" d="M30.0098,30.0889l8.0703-4.6719c0.1025-0.0596,0.167-0.1699,0.167-0.2886c0-0.1191-0.0625-0.2295-0.165-0.29
		l-8.0112-4.7188c-0.103-0.061-0.2324-0.0605-0.3374-0.0015l-8.0298,4.6387c-0.103,0.0596-0.1665,0.1689-0.1675,0.2876
		c-0.001,0.1191,0.0615,0.2295,0.1636,0.29l7.9707,4.752c0.0527,0.0317,0.1118,0.0474,0.1714,0.0474
		C29.8999,30.1338,29.9575,30.1187,30.0098,30.0889z M22.5327,25.0513l7.3667-4.2554l7.3486,4.3286l-7.4038,4.2856L22.5327,25.0513z
		"/>
</g>
</svg>
