<?xml version="1.0" encoding="utf-8"?>
<!-- Generator: Adobe Illustrator 21.0.0, SVG Export Plug-In . SVG Version: 6.00 Build 0)  -->
<svg version="1.1" id="Layer_1" xmlns="http://www.w3.org/2000/svg" xmlns:xlink="http://www.w3.org/1999/xlink" x="0px" y="0px"
	 viewBox="0 0 60 60" style="enable-background:new 0 0 60 60;" xml:space="preserve">
<style type="text/css">
	.st0{display:none;opacity:0.2;}
	.st1{display:inline;fill:none;stroke:#00ADEE;stroke-width:0.125;stroke-miterlimit:10;}
	.st2{fill:#231F20;}
</style>
<g class="st0">
	<path class="st1" d="M-0.375-1.557"/>
	<line class="st1" x1="1.875" y1="62.156" x2="1.875" y2="-1.36"/>
	<line class="st1" x1="4.125" y1="62.353" x2="4.125" y2="-1.557"/>
	<line class="st1" x1="6.375" y1="61.959" x2="6.375" y2="-1.311"/>
	<line class="st1" x1="8.625" y1="62.746" x2="8.625" y2="-1.655"/>
	<line class="st1" x1="10.875" y1="62.353" x2="10.875" y2="-1.508"/>
	<line class="st1" x1="13.125" y1="62.5" x2="13.125" y2="-1.606"/>
	<line class="st1" x1="15.375" y1="62.353" x2="15.375" y2="-1.557"/>
	<line class="st1" x1="17.625" y1="62.5" x2="17.625" y2="-1.902"/>
	<line class="st1" x1="19.875" y1="62.156" x2="19.875" y2="-1.655"/>
	<line class="st1" x1="22.125" y1="62.303" x2="22.125" y2="-1.852"/>
	<line class="st1" x1="24.375" y1="62.106" x2="24.375" y2="-1.458"/>
	<line class="st1" x1="26.625" y1="62.254" x2="26.625" y2="-1.508"/>
	<line class="st1" x1="28.875" y1="62.303" x2="28.875" y2="-1.508"/>
	<line class="st1" x1="31.125" y1="62.057" x2="31.125" y2="-1.458"/>
	<line class="st1" x1="33.375" y1="62.106" x2="33.375" y2="-1.409"/>
	<line class="st1" x1="35.625" y1="62.353" x2="35.625" y2="-1.606"/>
	<line class="st1" x1="37.875" y1="62.156" x2="37.875" y2="-1.557"/>
	<line class="st1" x1="40.125" y1="62.451" x2="40.125" y2="-1.508"/>
	<line class="st1" x1="42.375" y1="62.254" x2="42.375" y2="-1.36"/>
	<line class="st1" x1="44.625" y1="62.106" x2="44.625" y2="-1.508"/>
	<line class="st1" x1="46.875" y1="62.156" x2="46.875" y2="-1.508"/>
	<line class="st1" x1="49.125" y1="62.106" x2="49.125" y2="-1.508"/>
	<line class="st1" x1="51.375" y1="61.86" x2="51.375" y2="-1.557"/>
	<line class="st1" x1="53.625" y1="62.156" x2="53.625" y2="-1.754"/>
	<line class="st1" x1="55.875" y1="62.156" x2="55.875" y2="-1.606"/>
	<line class="st1" x1="58.125" y1="62.451" x2="58.125" y2="-1.606"/>
	<line class="st1" x1="0.707" y1="62.173" x2="-1.49" y2="60.904"/>
	<line class="st1" x1="5.116" y1="62.12" x2="-1.544" y2="58.275"/>
	<line class="st1" x1="9.971" y1="62.325" x2="-1.555" y2="55.67"/>
	<line class="st1" x1="14.59" y1="62.394" x2="-1.607" y2="53.042"/>
	<line class="st1" x1="18.865" y1="62.263" x2="-1.499" y2="50.506"/>
	<line class="st1" x1="23.182" y1="62.158" x2="-1.459" y2="47.931"/>
	<line class="st1" x1="27.736" y1="62.189" x2="-1.529" y2="45.293"/>
	<line class="st1" x1="32.049" y1="62.081" x2="-1.465" y2="42.732"/>
	<line class="st1" x1="36.749" y1="62.196" x2="-1.522" y2="40.101"/>
	<line class="st1" x1="41.271" y1="62.209" x2="-1.645" y2="37.431"/>
	<line class="st1" x1="45.801" y1="62.226" x2="-1.572" y2="34.876"/>
	<line class="st1" x1="50.08" y1="62.099" x2="-1.576" y2="32.275"/>
	<line class="st1" x1="54.737" y1="62.19" x2="-1.594" y2="29.667"/>
	<line class="st1" x1="59.428" y1="62.3" x2="-1.647" y2="27.038"/>
	<line class="st1" x1="61.539" y1="60.921" x2="-1.545" y2="24.499"/>
	<line class="st1" x1="61.758" y1="58.449" x2="-1.458" y2="21.951"/>
	<line class="st1" x1="61.545" y1="55.728" x2="-1.525" y2="19.314"/>
	<line class="st1" x1="61.597" y1="53.16" x2="-1.558" y2="16.697"/>
	<line class="st1" x1="61.527" y1="50.521" x2="-1.469" y2="14.15"/>
	<line class="st1" x1="61.65" y1="47.994" x2="-1.472" y2="11.551"/>
	<line class="st1" x1="61.538" y1="45.331" x2="-1.42" y2="8.983"/>
	<line class="st1" x1="61.48" y1="42.7" x2="-1.375" y2="6.41"/>
	<polyline class="st1" points="61.578,40.158 -1.135,3.951 -1.529,3.723 	"/>
	<polyline class="st1" points="61.514,37.524 -1.248,1.288 -2.111,0.79 	"/>
	<polyline class="st1" points="61.544,34.943 0,-0.59 -1.761,-1.606 	"/>
	<line class="st1" x1="61.353" y1="32.234" x2="2.933" y2="-1.494"/>
	<line class="st1" x1="61.482" y1="29.711" x2="7.489" y2="-1.462"/>
	<line class="st1" x1="61.479" y1="27.111" x2="11.988" y2="-1.463"/>
	<line class="st1" x1="61.458" y1="24.501" x2="16.186" y2="-1.637"/>
	<line class="st1" x1="61.361" y1="21.847" x2="20.651" y2="-1.657"/>
	<line class="st1" x1="61.563" y1="19.365" x2="25.485" y2="-1.464"/>
	<line class="st1" x1="61.605" y1="16.791" x2="30.1" y2="-1.398"/>
	<line class="st1" x1="61.433" y1="14.094" x2="34.593" y2="-1.402"/>
	<line class="st1" x1="61.589" y1="11.586" x2="38.944" y2="-1.488"/>
	<line class="st1" x1="61.366" y1="8.86" x2="43.447" y2="-1.486"/>
	<line class="st1" x1="61.599" y1="6.396" x2="48.098" y2="-1.399"/>
	<line class="st1" x1="61.587" y1="3.79" x2="52.221" y2="-1.617"/>
	<line class="st1" x1="61.605" y1="1.203" x2="56.949" y2="-1.485"/>
	<path class="st1" d="M-57.75-91.089"/>
	<path class="st1" d="M-56.625-93.038"/>
	<path class="st1" d="M-55.5-94.987"/>
	<path class="st1" d="M-54.375-96.935"/>
	<path class="st1" d="M-53.25-98.884"/>
	<path class="st1" d="M-52.125-100.832"/>
	<path class="st1" d="M-51-102.781"/>
	<path class="st1" d="M-49.875-104.729"/>
	<path class="st1" d="M-48.75-106.678"/>
	<path class="st1" d="M61.631,62.121"/>
	<line class="st1" x1="56.838" y1="62.29" x2="61.535" y2="59.579"/>
	<line class="st1" x1="52.761" y1="62.046" x2="61.655" y2="56.911"/>
	<line class="st1" x1="48.248" y1="62.054" x2="61.639" y2="54.322"/>
	<line class="st1" x1="43.747" y1="62.054" x2="61.555" y2="51.773"/>
	<line class="st1" x1="38.977" y1="62.211" x2="61.555" y2="49.175"/>
	<line class="st1" x1="34.718" y1="62.071" x2="61.602" y2="46.55"/>
	<line class="st1" x1="30.312" y1="62.017" x2="61.607" y2="43.949"/>
	<line class="st1" x1="25.399" y1="62.256" x2="61.575" y2="41.369"/>
	<line class="st1" x1="21.12" y1="62.128" x2="61.516" y2="38.805"/>
	<line class="st1" x1="16.295" y1="62.315" x2="61.616" y2="36.149"/>
	<line class="st1" x1="11.778" y1="62.325" x2="61.415" y2="33.667"/>
	<line class="st1" x1="6.949" y1="62.515" x2="61.557" y2="30.987"/>
	<line class="st1" x1="3.231" y1="62.064" x2="61.44" y2="28.457"/>
	<line class="st1" x1="-1.62" y1="62.266" x2="61.498" y2="25.825"/>
	<line class="st1" x1="-1.625" y1="59.671" x2="61.567" y2="23.187"/>
	<line class="st1" x1="-1.398" y1="56.942" x2="61.477" y2="20.641"/>
	<line class="st1" x1="-1.514" y1="54.411" x2="61.651" y2="17.943"/>
	<line class="st1" x1="-1.367" y1="51.728" x2="61.481" y2="15.443"/>
	<line class="st1" x1="-1.426" y1="49.164" x2="61.624" y2="12.762"/>
	<line class="st1" x1="-1.554" y1="46.64" x2="61.559" y2="10.201"/>
	<line class="st1" x1="-1.659" y1="44.102" x2="61.506" y2="7.634"/>
	<line class="st1" x1="-1.549" y1="41.441" x2="61.496" y2="5.042"/>
	<line class="st1" x1="-1.501" y1="38.815" x2="61.691" y2="2.331"/>
	<line class="st1" x1="-1.687" y1="36.324" x2="61.659" y2="-0.249"/>
	<line class="st1" x1="-1.522" y1="33.631" x2="59.322" y2="-1.497"/>
	<line class="st1" x1="-1.64" y1="31.101" x2="55.116" y2="-1.667"/>
	<line class="st1" x1="-1.454" y1="28.396" x2="50.498" y2="-1.599"/>
	<line class="st1" x1="-1.477" y1="25.811" x2="46.01" y2="-1.606"/>
	<line class="st1" x1="-1.619" y1="23.295" x2="41.374" y2="-1.527"/>
	<line class="st1" x1="-1.589" y1="20.679" x2="36.704" y2="-1.429"/>
	<line class="st1" x1="-1.499" y1="18.029" x2="32.345" y2="-1.51"/>
	<line class="st1" x1="-1.488" y1="15.425" x2="27.96" y2="-1.577"/>
	<line class="st1" x1="-1.537" y1="12.855" x2="23.453" y2="-1.573"/>
	<line class="st1" x1="-1.447" y1="10.205" x2="19.027" y2="-1.616"/>
	<polyline class="st1" points="-1.57,7.678 -0.992,7.344 14.636,-1.679 	"/>
	<line class="st1" x1="-1.692" y1="5.15" x2="9.935" y2="-1.562"/>
	<line class="st1" x1="-1.256" y1="2.301" x2="4.909" y2="-1.259"/>
	<path class="st1" d="M0.826-1.5"/>
</g>
<path class="st2" d="M57.4043,29.7471c0-0.1777-0.0947-0.3418-0.248-0.4312l-13.2539-7.7147l1.3945-0.8718l0.2373-0.2075
	c0.624-0.5537,0.9248-1.3823,0.8467-2.333c-0.0742-0.8975-0.4824-1.8052-1.1484-2.5562c-1.3428-1.5107-3.2051-1.876-4.752-0.9282
	l-4.0679,2.537L22.6123,9.209c-0.1553-0.0908-0.3477-0.0908-0.5029,0L1.9585,20.937C1.8047,21.0264,1.71,21.1909,1.71,21.3687
	c0,0.0002,0.0001,0.0003,0.0001,0.0005H1.71v8.3156c-0.7833,1.1828-0.5245,3.0312,0.708,4.4197
	c0.8701,0.9795,2.0254,1.5049,3.0752,1.5049c0.4786,0,0.9344-0.1118,1.3325-0.337l0.0001,0.0001l0.0008-0.0005
	c0.0159-0.009,0.0318-0.0177,0.0475-0.0271l1.557-0.8885l3.9213,2.2958c-0.4093,1.1556-0.0682,2.6751,0.9841,3.8596
	c0.667,0.751,1.5195,1.2627,2.4019,1.4424c0.23,0.0469,0.4556,0.0703,0.6743,0.0703c0.4883,0,0.9401-0.1183,1.3322-0.3434
	l0.0004,0.0006l0.0082-0.0047c0.0134-0.0077,0.0269-0.015,0.0402-0.0229l1.5706-0.897l3.9048,2.2863
	c-0.1453,0.3971-0.2028,0.844-0.1635,1.322c0.0742,0.8975,0.4819,1.8047,1.1484,2.5557c0.8701,0.9795,2.0254,1.5049,3.0752,1.5049
	c0.479,0,0.9347-0.1118,1.3328-0.337l0.0012,0.0021l0.0238-0.0136c0.0021-0.0012,0.0042-0.0023,0.0062-0.0035l1.6031-0.9158
	l6.2047,3.6332c0.0781,0.0459,0.166,0.0684,0.2529,0.0684c0.0879,0,0.1748-0.0234,0.2539-0.0693l20.1504-11.8477
	c0.1523-0.0898,0.2461-0.2539,0.2461-0.4307V29.748h-0.0002C57.4041,29.7477,57.4043,29.7474,57.4043,29.7471z M36.7529,41.0146
	l-3.8159-2.2342l5.7348-3.216c0.1572-0.0879,0.2549-0.2539,0.2559-0.4336s-0.0947-0.3457-0.25-0.4355l-11.9313-6.889l13.0358-7.4461
	L55.9141,29.75L36.7529,41.0146z M10.7075,25.7652l5.2163-3.0533l8.8145,5.0895l-5.3419,3.0511L10.7075,25.7652z M25.7411,28.3804
	l11.6758,6.7416l-5.4804,3.0726l-11.5442-6.759L25.7411,28.3804z M41.0068,15.5552c1.1074-0.6797,2.4736-0.3892,3.4775,0.7417
	c0.5234,0.5898,0.8428,1.291,0.8994,1.9741c0.0518,0.6294-0.1309,1.1631-0.5107,1.5005l-1.9517,1.2587l-5.5312-3.2195
	L41.0068,15.5552z M22.3608,10.2197l16.4229,9.5593l-13.0402,7.4482l-9.5717-5.5266c-0.1553-0.0894-0.3472-0.0884-0.5024,0.0015
	l-5.9517,3.4836l-6.5161-3.8151L22.3608,10.2197z M8.0502,33.4084c0.156-1.0613-0.222-2.3082-1.1156-3.3152
	c-0.5881-0.6622-1.3066-1.1028-2.0347-1.3278l0.6987-0.3895c0.4761-0.25,2.1338-0.9355,3.4946,0.7114
	c0.6162,0.7461,0.9238,1.7764,0.7832,2.6235c-0.0522,0.3154-0.1914,0.7373-0.5581,0.9639L8.0502,33.4084z M3.166,33.4404
	c-0.9744-1.0977-1.1796-2.5186-0.5305-3.3066H2.71v-0.0879c0.0252-0.0261,0.0424-0.0582,0.0698-0.0825
	c0.0478-0.0424,0.1052-0.0686,0.1573-0.1038l0.2664-0.1485c0.8627-0.3525,2.0952,0.0468,2.9831,1.0463
	c1.0454,1.1772,1.2183,2.7378,0.3857,3.4771C5.7407,34.9756,4.2114,34.6182,3.166,33.4404z M18.9726,39.8156
	c0.0357-0.2424,0.0501-0.4943,0.0284-0.7589c-0.0742-0.8965-0.4819-1.8037-1.1484-2.5547
	c-0.5715-0.6439-1.2823-1.0979-2.0289-1.3311l0.6934-0.3867c0.4771-0.248,2.1348-0.9355,3.4951,0.7119
	c0.6167,0.7461,0.9238,1.7764,0.7832,2.625c-0.0522,0.3145-0.1914,0.7363-0.5581,0.9629L18.9726,39.8156z M15.9375,40.9746
	c-0.6714-0.1367-1.3296-0.5371-1.853-1.127c-1.0459-1.1768-1.2188-2.7363-0.3862-3.4766c0.0397-0.0352,0.0885-0.058,0.1318-0.0884
	l0.2838-0.1583c0.3279-0.1351,0.715-0.1721,1.1376-0.0853c0.6714,0.1367,1.3296,0.5371,1.853,1.127
	c0.5239,0.5898,0.8433,1.29,0.8994,1.9727c0.0518,0.6299-0.1304,1.1631-0.5132,1.5029
	C17.1074,40.9824,16.5562,41.0977,15.9375,40.9746z M20.3602,40.1813l0.401-0.2457c0.5366-0.3301,0.8989-0.917,1.021-1.6514
	c0.1885-1.1377-0.1943-2.4502-0.999-3.4248c-1.4619-1.7705-3.4028-1.6582-4.7417-0.9541l-2.3799,1.3266
	c-0.1046,0.047-0.2018,0.1055-0.2986,0.1665l-0.1017,0.0567l0.0052,0.0093c-0.077,0.0538-0.1611,0.0956-0.2322,0.1587
	c-0.0601,0.0533-0.1016,0.1203-0.1553,0.1785l-3.451-2.0206l0.4144-0.2546c0.5366-0.3301,0.8989-0.917,1.021-1.6514
	c0.1885-1.1382-0.1943-2.4502-0.999-3.4243c-1.4629-1.771-3.4028-1.6582-4.7417-0.9541l-2.4013,1.3386
	c-0.0037,0.0016-0.0077,0.0024-0.0113,0.0041v-6.5979l33.5439,19.6404v7.6054l-4.962-2.9052l0.3878-0.2372
	c0.5361-0.3301,0.8984-0.917,1.0205-1.6514c0.1885-1.1387-0.1943-2.4512-0.998-3.4248c-1.4658-1.7734-3.4048-1.6572-4.7427-0.9541
	l-2.3923,1.3335c-0.0982,0.0442-0.1896,0.0999-0.2814,0.1569l-0.1066,0.0594l0.0053,0.0095
	c-0.0773,0.0536-0.1613,0.095-0.2328,0.1584c-0.0559,0.0496-0.095,0.1126-0.1457,0.1666L20.3602,40.1813z M29.8901,46.225
	c0.0358-0.2426,0.0502-0.4945,0.0284-0.7592c-0.0737-0.8975-0.4814-1.8047-1.1479-2.5557c-0.5878-0.6611-1.306-1.1018-2.0336-1.3273
	l0.6986-0.3895c0.4761-0.249,2.1338-0.9355,3.4951,0.7119c0.6162,0.7461,0.9238,1.7764,0.7832,2.624
	c-0.0527,0.3154-0.1914,0.7373-0.5586,0.9639L29.8901,46.225z M25.002,46.2568c-0.5239-0.5898-0.8433-1.291-0.8994-1.9736
	c-0.0518-0.6289,0.1304-1.1631,0.5132-1.5029c0.2939-0.2607,0.6748-0.3857,1.0903-0.3857c0.7617,0,1.6401,0.418,2.3164,1.1797
	c0.5239,0.5898,0.8433,1.291,0.8994,1.9736c0.0518,0.6299-0.1304,1.1631-0.5132,1.5029
	C27.5767,47.7871,26.0479,47.4346,25.002,46.2568z M37.2539,49.4847v-7.6046l19.1504-11.2583v7.6038L37.2539,49.4847z"/>
</svg>
