<?xml version="1.0" encoding="utf-8"?>
<!-- Generator: Adobe Illustrator 21.0.0, SVG Export Plug-In . SVG Version: 6.00 Build 0)  -->
<svg version="1.1" id="Layer_1" xmlns="http://www.w3.org/2000/svg" xmlns:xlink="http://www.w3.org/1999/xlink" x="0px" y="0px"
	 viewBox="0 0 30 30" style="enable-background:new 0 0 30 30;" xml:space="preserve">
<style type="text/css">
	.st0{display:none;opacity:0.2;}
	.st1{display:inline;fill:none;stroke:#00ADEE;stroke-width:0.125;stroke-miterlimit:10;}
	.st2{fill:#231F20;}
</style>
<g class="st0">
	<path class="st1" d="M-15.375-16.557"/>
	<line class="st1" x1="-13.125" y1="47.1558" x2="-13.125" y2="-16.3603"/>
	<line class="st1" x1="-10.875" y1="47.3529" x2="-10.875" y2="-16.5568"/>
	<line class="st1" x1="-8.625" y1="46.959" x2="-8.625" y2="-16.3109"/>
	<line class="st1" x1="-6.375" y1="47.746" x2="-6.375" y2="-16.6546"/>
	<line class="st1" x1="-4.125" y1="47.3529" x2="-4.125" y2="-16.5079"/>
	<line class="st1" x1="-1.875" y1="47.4999" x2="-1.875" y2="-16.6061"/>
	<line class="st1" x1="0.375" y1="47.3529" x2="0.375" y2="-16.5568"/>
	<line class="st1" x1="2.625" y1="47.4999" x2="2.625" y2="-16.9021"/>
	<line class="st1" x1="4.875" y1="47.1558" x2="4.875" y2="-16.6547"/>
	<line class="st1" x1="7.125" y1="47.3029" x2="7.125" y2="-16.8517"/>
	<line class="st1" x1="9.375" y1="47.1063" x2="9.375" y2="-16.4577"/>
	<line class="st1" x1="11.625" y1="47.2541" x2="11.625" y2="-16.5081"/>
	<line class="st1" x1="13.875" y1="47.3029" x2="13.875" y2="-16.5079"/>
	<line class="st1" x1="16.125" y1="47.0567" x2="16.125" y2="-16.458"/>
	<line class="st1" x1="18.375" y1="47.1063" x2="18.375" y2="-16.4089"/>
	<line class="st1" x1="20.625" y1="47.3529" x2="20.625" y2="-16.6058"/>
	<line class="st1" x1="22.875" y1="47.1558" x2="22.875" y2="-16.5569"/>
	<line class="st1" x1="25.125" y1="47.4511" x2="25.125" y2="-16.5082"/>
	<line class="st1" x1="27.375" y1="47.2541" x2="27.375" y2="-16.3603"/>
	<line class="st1" x1="29.625" y1="47.1063" x2="29.625" y2="-16.5077"/>
	<line class="st1" x1="31.875" y1="47.1558" x2="31.875" y2="-16.508"/>
	<line class="st1" x1="34.125" y1="47.1063" x2="34.125" y2="-16.5077"/>
	<line class="st1" x1="36.375" y1="46.8598" x2="36.375" y2="-16.5566"/>
	<line class="st1" x1="38.625" y1="47.1558" x2="38.625" y2="-16.7536"/>
	<line class="st1" x1="40.875" y1="47.1558" x2="40.875" y2="-16.6058"/>
	<line class="st1" x1="43.125" y1="47.4511" x2="43.125" y2="-16.6062"/>
	<line class="st1" x1="-14.2926" y1="47.1726" x2="-16.4896" y2="45.9041"/>
	<line class="st1" x1="-9.8838" y1="47.1199" x2="-16.5439" y2="43.2746"/>
	<line class="st1" x1="-5.0286" y1="47.3248" x2="-16.5547" y2="40.6703"/>
	<line class="st1" x1="-0.4099" y1="47.3936" x2="-16.607" y2="38.0421"/>
	<line class="st1" x1="3.8647" y1="47.2633" x2="-16.4987" y2="35.5065"/>
	<line class="st1" x1="8.1817" y1="47.1575" x2="-16.4585" y2="32.9315"/>
	<line class="st1" x1="12.7364" y1="47.1893" x2="-16.5287" y2="30.2931"/>
	<line class="st1" x1="17.0493" y1="47.0812" x2="-16.4649" y2="27.7317"/>
	<line class="st1" x1="21.7487" y1="47.1965" x2="-16.5216" y2="25.1011"/>
	<line class="st1" x1="26.2708" y1="47.2091" x2="-16.6454" y2="22.4314"/>
	<line class="st1" x1="30.8011" y1="47.2265" x2="-16.5718" y2="19.8757"/>
	<line class="st1" x1="35.0797" y1="47.0989" x2="-16.5759" y2="17.2755"/>
	<line class="st1" x1="39.7372" y1="47.1897" x2="-16.5939" y2="14.6669"/>
	<line class="st1" x1="44.4278" y1="47.2996" x2="-16.6466" y2="12.0384"/>
	<line class="st1" x1="46.5391" y1="45.9207" x2="-16.5451" y2="9.499"/>
	<line class="st1" x1="46.7575" y1="43.4487" x2="-16.4576" y2="6.9515"/>
	<line class="st1" x1="46.5446" y1="40.7275" x2="-16.5248" y2="4.3145"/>
	<line class="st1" x1="46.5973" y1="38.16" x2="-16.5582" y2="1.6972"/>
	<line class="st1" x1="46.5272" y1="35.5214" x2="-16.4693" y2="-0.8496"/>
	<line class="st1" x1="46.6505" y1="32.9944" x2="-16.4717" y2="-3.4492"/>
	<line class="st1" x1="46.5376" y1="30.3314" x2="-16.4197" y2="-6.017"/>
	<line class="st1" x1="46.4796" y1="27.6997" x2="-16.3754" y2="-8.5896"/>
	<polyline class="st1" points="46.5777,25.1581 -16.1346,-11.0488 -16.5294,-11.2767 	"/>
	<polyline class="st1" points="46.5142,22.5236 -16.248,-13.7121 -17.1105,-14.2101 	"/>
	<polyline class="st1" points="46.5439,19.9426 -14.9996,-15.5896 -16.7609,-16.6065 	"/>
	<line class="st1" x1="46.3527" y1="17.2343" x2="-12.0668" y2="-16.4943"/>
	<line class="st1" x1="46.4824" y1="14.711" x2="-7.5112" y2="-16.4622"/>
	<line class="st1" x1="46.479" y1="12.1109" x2="-3.0123" y2="-16.4629"/>
	<line class="st1" x1="46.4578" y1="9.5007" x2="1.1859" y2="-16.637"/>
	<line class="st1" x1="46.3608" y1="6.8466" x2="5.6507" y2="-16.6575"/>
	<line class="st1" x1="46.5626" y1="4.3649" x2="10.4854" y2="-16.4643"/>
	<line class="st1" x1="46.6047" y1="1.7913" x2="15.0995" y2="-16.3983"/>
	<line class="st1" x1="46.4335" y1="-0.9057" x2="19.5934" y2="-16.4018"/>
	<line class="st1" x1="46.5889" y1="-3.4142" x2="23.9443" y2="-16.488"/>
	<line class="st1" x1="46.3665" y1="-6.1405" x2="28.4468" y2="-16.4864"/>
	<line class="st1" x1="46.5992" y1="-8.6043" x2="33.0984" y2="-16.399"/>
	<line class="st1" x1="46.5865" y1="-11.2098" x2="37.2213" y2="-16.6168"/>
	<line class="st1" x1="46.6046" y1="-13.7973" x2="41.9486" y2="-16.4854"/>
	<path class="st1" d="M-72.75-106.0893"/>
	<path class="st1" d="M-71.625-108.0379"/>
	<path class="st1" d="M-70.5-109.9865"/>
	<path class="st1" d="M-69.375-111.935"/>
	<path class="st1" d="M-68.25-113.8836"/>
	<path class="st1" d="M-67.125-115.8321"/>
	<path class="st1" d="M-66-117.7807"/>
	<path class="st1" d="M-64.875-119.7292"/>
	<path class="st1" d="M-63.75-121.6778"/>
	<path class="st1" d="M46.631,47.1215"/>
	<line class="st1" x1="41.8384" y1="47.2903" x2="46.5346" y2="44.579"/>
	<line class="st1" x1="37.761" y1="47.0465" x2="46.6554" y2="41.9113"/>
	<line class="st1" x1="33.2481" y1="47.0539" x2="46.6394" y2="39.3224"/>
	<line class="st1" x1="28.7471" y1="47.0544" x2="46.5552" y2="36.7729"/>
	<line class="st1" x1="23.9766" y1="47.2107" x2="46.5546" y2="34.1753"/>
	<line class="st1" x1="19.718" y1="47.0712" x2="46.6021" y2="31.5497"/>
	<line class="st1" x1="15.3122" y1="47.0167" x2="46.6066" y2="28.9489"/>
	<line class="st1" x1="10.3988" y1="47.2556" x2="46.5751" y2="26.3692"/>
	<line class="st1" x1="6.1197" y1="47.1279" x2="46.5162" y2="23.805"/>
	<line class="st1" x1="1.2953" y1="47.3154" x2="46.6164" y2="21.1493"/>
	<line class="st1" x1="-3.222" y1="47.3253" x2="46.4154" y2="18.6671"/>
	<line class="st1" x1="-8.0514" y1="47.5153" x2="46.5572" y2="15.9871"/>
	<line class="st1" x1="-11.769" y1="47.0639" x2="46.4405" y2="13.4566"/>
	<line class="st1" x1="-16.6198" y1="47.2663" x2="46.4978" y2="10.8253"/>
	<line class="st1" x1="-16.6252" y1="44.6712" x2="46.5671" y2="8.1872"/>
	<line class="st1" x1="-16.3982" y1="41.9423" x2="46.4768" y2="5.6413"/>
	<line class="st1" x1="-16.5136" y1="39.4107" x2="46.6506" y2="2.9429"/>
	<line class="st1" x1="-16.3672" y1="36.728" x2="46.4811" y2="0.4426"/>
	<line class="st1" x1="-16.4261" y1="34.1641" x2="46.6243" y2="-2.2381"/>
	<line class="st1" x1="-16.5537" y1="31.6396" x2="46.5591" y2="-4.7985"/>
	<line class="st1" x1="-16.6591" y1="29.1023" x2="46.5062" y2="-7.3662"/>
	<line class="st1" x1="-16.5488" y1="26.4407" x2="46.4955" y2="-9.9579"/>
	<line class="st1" x1="-16.5014" y1="23.8152" x2="46.6906" y2="-12.6687"/>
	<line class="st1" x1="-16.6869" y1="21.324" x2="46.6589" y2="-15.2486"/>
	<line class="st1" x1="-16.5222" y1="18.6311" x2="44.3216" y2="-16.497"/>
	<line class="st1" x1="-16.6397" y1="16.1008" x2="40.1155" y2="-16.6668"/>
	<line class="st1" x1="-16.4543" y1="13.3959" x2="35.4976" y2="-16.5986"/>
	<line class="st1" x1="-16.4766" y1="10.8105" x2="31.0105" y2="-16.6061"/>
	<line class="st1" x1="-16.6191" y1="8.2947" x2="26.3737" y2="-16.5272"/>
	<line class="st1" x1="-16.5886" y1="5.6791" x2="21.7039" y2="-16.4291"/>
	<line class="st1" x1="-16.4987" y1="3.0291" x2="17.3446" y2="-16.5104"/>
	<line class="st1" x1="-16.4879" y1="0.4247" x2="12.9603" y2="-16.5772"/>
	<line class="st1" x1="-16.5374" y1="-2.1447" x2="8.4534" y2="-16.5731"/>
	<line class="st1" x1="-16.4468" y1="-4.7952" x2="4.0268" y2="-16.6156"/>
	<polyline class="st1" points="-16.5695,-7.3225 -15.9916,-7.6561 -0.3642,-16.6786 	"/>
	<line class="st1" x1="-16.6918" y1="-9.8497" x2="-5.065" y2="-16.5625"/>
	<line class="st1" x1="-16.2564" y1="-12.6993" x2="-10.0909" y2="-16.259"/>
	<path class="st1" d="M-14.1742-16.4997"/>
</g>
<g>
	<path class="st2" d="M6.9302,12.8516l7.7622,4.6279c0.0635,0.0371,0.1343,0.0566,0.2051,0.0566
		c0.0693,0,0.1382-0.0186,0.2007-0.0547l7.8579-4.5498c0.123-0.0713,0.1992-0.2026,0.2002-0.3447
		c0-0.1421-0.0752-0.2739-0.1973-0.3462L15.1577,7.646c-0.125-0.0718-0.2778-0.0747-0.4033-0.0015l-7.8193,4.5171
		c-0.1226,0.0708-0.1987,0.2017-0.1997,0.3433C6.7344,12.647,6.8086,12.7788,6.9302,12.8516z M14.9526,8.4536l7.0103,4.1289
		l-7.0625,4.0894l-6.9751-4.1587L14.9526,8.4536z"/>
	<path class="st2" d="M28.5752,18.7441l-0.7559-0.4365V17.374c0-0.1436-0.0771-0.2764-0.2021-0.3477l-0.2221-0.1269l0.1811-0.1046
		c0.124-0.0713,0.2002-0.2041,0.2002-0.3467v-3.8828H27.776c-0.0006-0.1419-0.0753-0.2732-0.1979-0.3452l-0.4873-0.2858
		l0.249-0.1395c0.1934-0.1079,0.2617-0.3521,0.1533-0.5444c-0.1084-0.1938-0.3535-0.2617-0.5439-0.1538l-0.6583,0.3688
		l-1.6949-0.9938l0.235-0.1528c0.1855-0.1206,0.2383-0.3682,0.1172-0.5537c-0.1191-0.1851-0.3672-0.2358-0.5527-0.1172
		l-0.5156,0.3354c-0.0178,0.0116-0.0283,0.0291-0.0436,0.0428L22.083,8.9981l0.2178-0.1417
		c0.1855-0.1206,0.2383-0.3682,0.1172-0.5537c-0.1201-0.186-0.3672-0.2358-0.5527-0.1172L21.3496,8.521
		c-0.0123,0.008-0.019,0.0204-0.0301,0.0295l-1.7502-1.0262l0.2002-0.1302c0.1855-0.1206,0.2383-0.3682,0.1172-0.5537
		c-0.1201-0.186-0.3682-0.2358-0.5527-0.1172l-0.5156,0.3354c-0.0066,0.0043-0.0099,0.0113-0.0162,0.0159l-1.7465-1.024
		l0.1826-0.1188c0.1855-0.1206,0.2383-0.3682,0.1172-0.5537c-0.1201-0.186-0.3682-0.2358-0.5527-0.1172l-0.5156,0.3354
		c-0.0009,0.0006-0.0013,0.0016-0.0023,0.0022l-0.9265-0.5432c-0.1235-0.0723-0.2769-0.0732-0.4019-0.0015l-0.7177,0.4135
		l-0.4948-0.3217c-0.1855-0.1196-0.4336-0.0674-0.5537,0.1172c-0.1201,0.1855-0.0679,0.4331,0.1172,0.5537l0.1528,0.0994
		l-1.7137,0.9874l-0.4909-0.3197c-0.1855-0.1216-0.4326-0.0679-0.5532,0.1167c-0.1206,0.1851-0.0684,0.4331,0.1167,0.5532
		l0.1501,0.0977L9.2561,8.3384L8.7676,8.0205C8.582,7.9009,8.334,7.9531,8.2139,8.1377C8.0938,8.3228,8.146,8.5708,8.3311,8.6914
		l0.1467,0.0955L6.7645,9.774L6.2788,9.4585C6.0938,9.3374,5.8457,9.3906,5.7256,9.5762c-0.1201,0.1851-0.0679,0.4326,0.1177,0.5532
		l0.1432,0.093l-1.713,0.987l-0.482-0.3134c-0.186-0.1196-0.4331-0.0684-0.5537,0.1172c-0.1201,0.1855-0.0679,0.4331,0.1172,0.5537
		l0.1401,0.0911l-0.8842,0.5095c-0.123,0.0713-0.1992,0.2021-0.2002,0.3442c0,0.0009,0.0006,0.0016,0.0006,0.0024H2.4106v3.8823
		c0,0.1416,0.0742,0.2725,0.1958,0.3438l0.1567,0.093l-0.3809,0.2176c-0.1245,0.0713-0.2012,0.2041-0.2012,0.3477v0.9336
		l-0.7559,0.4365c-0.1914,0.1104-0.2573,0.3555-0.147,0.5469c0.0742,0.1279,0.209,0.2002,0.3472,0.2002
		c0.0679,0,0.1367-0.0176,0.1992-0.0537l0.9561-0.5518c0.124-0.0713,0.2002-0.2041,0.2002-0.3467v-0.9326l0.5742-0.3281
		l1.5093,0.8949l-0.3599,0.2057c-0.1245,0.0713-0.2012,0.2041-0.2012,0.3477v0.9336l-0.7563,0.4365
		c-0.1914,0.1113-0.2568,0.3555-0.146,0.5469c0.0742,0.1279,0.2085,0.2002,0.3467,0.2002c0.0679,0,0.1367-0.0176,0.1997-0.0537
		l0.9561-0.5527c0.1235-0.0723,0.1997-0.2041,0.1997-0.3467v-0.9316l0.5532-0.3162l1.5094,0.8949l-0.3385,0.1937
		c-0.1245,0.0713-0.2012,0.2041-0.2012,0.3477v0.9326l-0.7563,0.4365c-0.1914,0.1104-0.2573,0.3555-0.147,0.5469
		c0.0742,0.1279,0.209,0.2002,0.3472,0.2002c0.0679,0,0.1362-0.0176,0.1992-0.0537l0.9565-0.5518
		c0.124-0.0713,0.2002-0.2041,0.2002-0.3467v-0.9316l0.5317-0.3043l1.5095,0.895l-0.3176,0.1818
		c-0.1245,0.0713-0.2012,0.2041-0.2012,0.3477v0.9326l-0.7559,0.4365c-0.1914,0.1104-0.2573,0.3555-0.147,0.5469
		c0.0742,0.1279,0.209,0.2002,0.3472,0.2002c0.0679,0,0.1367-0.0176,0.1992-0.0537l0.9561-0.5518
		c0.124-0.0713,0.2002-0.2041,0.2002-0.3467v-0.9316l0.5109-0.2923l1.5087,0.8945l-0.296,0.1693
		c-0.1245,0.0713-0.2012,0.2041-0.2012,0.3477v0.9336l-0.7559,0.4365c-0.1914,0.1104-0.2573,0.3555-0.147,0.5469
		c0.0742,0.1279,0.209,0.2002,0.3472,0.2002c0.0679,0,0.1367-0.0176,0.1992-0.0537l0.9561-0.5518
		c0.124-0.0713,0.2002-0.2041,0.2002-0.3467V23.04l0.4893-0.2797l2.0102,1.1918c0.063,0.0371,0.1333,0.0566,0.2041,0.0566
		c0.0688,0,0.1382-0.0186,0.2002-0.0537l2.0891-1.2061l0.4661,0.2667v0.9316c0,0.1426,0.0762,0.2754,0.2002,0.3467l0.9561,0.5518
		c0.0635,0.0361,0.1318,0.0537,0.2002,0.0537c0.1377,0,0.2725-0.0723,0.3467-0.2002c0.1104-0.1914,0.0449-0.4365-0.1465-0.5469
		l-0.7559-0.4365v-0.9326c0-0.1436-0.0771-0.2764-0.2021-0.3477l-0.2621-0.15l1.5298-0.8832l0.456,0.2607v0.9326
		c0,0.1426,0.0762,0.2754,0.2002,0.3467l0.9561,0.5518c0.0635,0.0361,0.1318,0.0537,0.2002,0.0537
		c0.1377,0,0.2725-0.0723,0.3467-0.2002c0.1104-0.1914,0.0449-0.4365-0.1465-0.5469l-0.7559-0.4365v-0.9336
		c0-0.1436-0.0771-0.2764-0.2021-0.3477l-0.252-0.144l1.5299-0.8833l0.4457,0.2549v0.9326c0,0.1426,0.0762,0.2754,0.2002,0.3467
		l0.9561,0.5518c0.0635,0.0361,0.1318,0.0537,0.2002,0.0537c0.1377,0,0.2725-0.0723,0.3467-0.2002
		c0.1104-0.1914,0.0449-0.4365-0.1465-0.5469l-0.7559-0.4365v-0.9336c0-0.1436-0.0771-0.2764-0.2021-0.3477l-0.2417-0.1382
		l1.5292-0.8829l0.4361,0.2496v0.9316c0,0.1426,0.0762,0.2754,0.2002,0.3467l0.9561,0.5518
		c0.0635,0.0361,0.1318,0.0537,0.2002,0.0537c0.1377,0,0.2725-0.0723,0.3467-0.2002c0.1104-0.1914,0.0449-0.4365-0.1465-0.5469
		l-0.7559-0.4365v-0.9326c0-0.1436-0.0771-0.2764-0.2021-0.3477l-0.2322-0.1329l1.5298-0.8832l0.426,0.2436v0.9316
		c0,0.1426,0.0762,0.2744,0.2002,0.3467l0.9561,0.5527c0.0635,0.0361,0.1318,0.0537,0.2002,0.0537
		c0.1377,0,0.2725-0.0723,0.3467-0.2002C28.832,19.0996,28.7666,18.8555,28.5752,18.7441z M15.1543,5.8633l10.9322,6.4097
		c0.0003,0.0002,0.0007,0.0004,0.001,0.0005l0.4936,0.2894l-11.6045,6.6987L3.603,12.519L15.1543,5.8633z M14.2212,21.4639
		c-0.1099-0.1924-0.3525-0.2568-0.5459-0.1494l-0.909,0.5197l-1.5091-0.8947l0.4933-0.2823
		c0.1919-0.1104,0.2583-0.3545,0.1484-0.5459c-0.1099-0.1934-0.3545-0.2578-0.5459-0.1494L10.4652,20.47l-1.5095-0.8949
		l0.4725-0.2704c0.1919-0.1104,0.2583-0.3545,0.1484-0.5459c-0.1094-0.1934-0.354-0.2559-0.5459-0.1494l-0.867,0.4962
		l-1.5089-0.8946l0.4511-0.2578c0.1914-0.1104,0.2583-0.3545,0.1484-0.5459c-0.1089-0.1924-0.3525-0.2578-0.5459-0.1494
		l-0.8458,0.4835l-1.5093-0.8948l0.4304-0.2459c0.1914-0.1104,0.2583-0.3545,0.1484-0.5459
		c-0.1094-0.1924-0.3535-0.2598-0.5459-0.1489L3.5615,16.377l-0.351-0.2081v-2.9525l11.3638,6.7368v2.9528l-1.0158-0.6022
		l0.5143-0.294C14.2642,21.8994,14.3311,21.6553,14.2212,21.4639z M24.2588,17.7861l-0.9678-0.5537
		c-0.1914-0.1084-0.4365-0.0439-0.5459,0.1494c-0.1094,0.1914-0.043,0.4355,0.1494,0.5459l0.5619,0.3216l-1.5299,0.8831
		l-0.9578-0.5475c-0.1904-0.1074-0.4355-0.0439-0.5459,0.1494c-0.1094,0.1914-0.043,0.4355,0.1494,0.5459l0.5518,0.3155
		l-1.5302,0.8833l-0.9474-0.5416c-0.1914-0.1074-0.4355-0.0439-0.5459,0.1494c-0.1094,0.1914-0.043,0.4355,0.1494,0.5459
		l0.5413,0.3096l-1.5297,0.883l-0.9374-0.5363c-0.1904-0.1064-0.436-0.0439-0.5454,0.1494
		c-0.1099,0.1914-0.0435,0.4355,0.1484,0.5459l0.5319,0.3043l-1.0851,0.6264V19.957l11.6016-6.6986v2.9594l-0.3848,0.2221
		l-0.9775-0.5585c-0.1914-0.1099-0.4355-0.0439-0.5459,0.1489c-0.1094,0.1914-0.043,0.4355,0.1494,0.5459l0.5717,0.3269
		L24.2588,17.7861z"/>
	<path class="st2" d="M15.1211,15.208l4.0352-2.3364c0.123-0.0713,0.1992-0.2026,0.2002-0.3447
		c0-0.1421-0.0752-0.2739-0.1973-0.3462l-4.0059-2.3589C15.0288,9.7495,14.875,9.7476,14.75,9.8203l-4.0151,2.3193
		c-0.1226,0.0708-0.1987,0.2017-0.1997,0.3433c-0.001,0.1421,0.0732,0.2739,0.1953,0.3467l3.9858,2.376
		c0.063,0.0376,0.1338,0.0562,0.2046,0.0562C14.9902,15.2617,15.0591,15.2437,15.1211,15.208z M11.7256,12.4912l3.2227-1.8618
		l3.2148,1.8931l-3.2393,1.8755L11.7256,12.4912z"/>
</g>
</svg>
