<?xml version="1.0" encoding="utf-8"?>
<!-- Generator: Adobe Illustrator 21.0.0, SVG Export Plug-In . SVG Version: 6.00 Build 0)  -->
<svg version="1.1" id="Layer_1" xmlns="http://www.w3.org/2000/svg" xmlns:xlink="http://www.w3.org/1999/xlink" x="0px" y="0px"
	 viewBox="0 0 60 60" style="enable-background:new 0 0 60 60;" xml:space="preserve">
<style type="text/css">
	.st0{display:none;opacity:0.2;}
	.st1{display:inline;fill:none;stroke:#00ADEE;stroke-width:0.125;stroke-miterlimit:10;}
	.st2{fill:#231F20;}
</style>
<g class="st0">
	<path class="st1" d="M-0.375-1.557"/>
	<line class="st1" x1="1.875" y1="62.156" x2="1.875" y2="-1.36"/>
	<line class="st1" x1="4.125" y1="62.353" x2="4.125" y2="-1.557"/>
	<line class="st1" x1="6.375" y1="61.959" x2="6.375" y2="-1.311"/>
	<line class="st1" x1="8.625" y1="62.746" x2="8.625" y2="-1.655"/>
	<line class="st1" x1="10.875" y1="62.353" x2="10.875" y2="-1.508"/>
	<line class="st1" x1="13.125" y1="62.5" x2="13.125" y2="-1.606"/>
	<line class="st1" x1="15.375" y1="62.353" x2="15.375" y2="-1.557"/>
	<line class="st1" x1="17.625" y1="62.5" x2="17.625" y2="-1.902"/>
	<line class="st1" x1="19.875" y1="62.156" x2="19.875" y2="-1.655"/>
	<line class="st1" x1="22.125" y1="62.303" x2="22.125" y2="-1.852"/>
	<line class="st1" x1="24.375" y1="62.106" x2="24.375" y2="-1.458"/>
	<line class="st1" x1="26.625" y1="62.254" x2="26.625" y2="-1.508"/>
	<line class="st1" x1="28.875" y1="62.303" x2="28.875" y2="-1.508"/>
	<line class="st1" x1="31.125" y1="62.057" x2="31.125" y2="-1.458"/>
	<line class="st1" x1="33.375" y1="62.106" x2="33.375" y2="-1.409"/>
	<line class="st1" x1="35.625" y1="62.353" x2="35.625" y2="-1.606"/>
	<line class="st1" x1="37.875" y1="62.156" x2="37.875" y2="-1.557"/>
	<line class="st1" x1="40.125" y1="62.451" x2="40.125" y2="-1.508"/>
	<line class="st1" x1="42.375" y1="62.254" x2="42.375" y2="-1.36"/>
	<line class="st1" x1="44.625" y1="62.106" x2="44.625" y2="-1.508"/>
	<line class="st1" x1="46.875" y1="62.156" x2="46.875" y2="-1.508"/>
	<line class="st1" x1="49.125" y1="62.106" x2="49.125" y2="-1.508"/>
	<line class="st1" x1="51.375" y1="61.86" x2="51.375" y2="-1.557"/>
	<line class="st1" x1="53.625" y1="62.156" x2="53.625" y2="-1.754"/>
	<line class="st1" x1="55.875" y1="62.156" x2="55.875" y2="-1.606"/>
	<line class="st1" x1="58.125" y1="62.451" x2="58.125" y2="-1.606"/>
	<line class="st1" x1="0.707" y1="62.173" x2="-1.49" y2="60.904"/>
	<line class="st1" x1="5.116" y1="62.12" x2="-1.544" y2="58.275"/>
	<line class="st1" x1="9.971" y1="62.325" x2="-1.555" y2="55.67"/>
	<line class="st1" x1="14.59" y1="62.394" x2="-1.607" y2="53.042"/>
	<line class="st1" x1="18.865" y1="62.263" x2="-1.499" y2="50.506"/>
	<line class="st1" x1="23.182" y1="62.158" x2="-1.459" y2="47.931"/>
	<line class="st1" x1="27.736" y1="62.189" x2="-1.529" y2="45.293"/>
	<line class="st1" x1="32.049" y1="62.081" x2="-1.465" y2="42.732"/>
	<line class="st1" x1="36.749" y1="62.196" x2="-1.522" y2="40.101"/>
	<line class="st1" x1="41.271" y1="62.209" x2="-1.645" y2="37.431"/>
	<line class="st1" x1="45.801" y1="62.226" x2="-1.572" y2="34.876"/>
	<line class="st1" x1="50.08" y1="62.099" x2="-1.576" y2="32.275"/>
	<line class="st1" x1="54.737" y1="62.19" x2="-1.594" y2="29.667"/>
	<line class="st1" x1="59.428" y1="62.3" x2="-1.647" y2="27.038"/>
	<line class="st1" x1="61.539" y1="60.921" x2="-1.545" y2="24.499"/>
	<line class="st1" x1="61.758" y1="58.449" x2="-1.458" y2="21.951"/>
	<line class="st1" x1="61.545" y1="55.728" x2="-1.525" y2="19.314"/>
	<line class="st1" x1="61.597" y1="53.16" x2="-1.558" y2="16.697"/>
	<line class="st1" x1="61.527" y1="50.521" x2="-1.469" y2="14.15"/>
	<line class="st1" x1="61.65" y1="47.994" x2="-1.472" y2="11.551"/>
	<line class="st1" x1="61.538" y1="45.331" x2="-1.42" y2="8.983"/>
	<line class="st1" x1="61.48" y1="42.7" x2="-1.375" y2="6.41"/>
	<polyline class="st1" points="61.578,40.158 -1.135,3.951 -1.529,3.723 	"/>
	<polyline class="st1" points="61.514,37.524 -1.248,1.288 -2.111,0.79 	"/>
	<polyline class="st1" points="61.544,34.943 0,-0.59 -1.761,-1.606 	"/>
	<line class="st1" x1="61.353" y1="32.234" x2="2.933" y2="-1.494"/>
	<line class="st1" x1="61.482" y1="29.711" x2="7.489" y2="-1.462"/>
	<line class="st1" x1="61.479" y1="27.111" x2="11.988" y2="-1.463"/>
	<line class="st1" x1="61.458" y1="24.501" x2="16.186" y2="-1.637"/>
	<line class="st1" x1="61.361" y1="21.847" x2="20.651" y2="-1.657"/>
	<line class="st1" x1="61.563" y1="19.365" x2="25.485" y2="-1.464"/>
	<line class="st1" x1="61.605" y1="16.791" x2="30.1" y2="-1.398"/>
	<line class="st1" x1="61.433" y1="14.094" x2="34.593" y2="-1.402"/>
	<line class="st1" x1="61.589" y1="11.586" x2="38.944" y2="-1.488"/>
	<line class="st1" x1="61.366" y1="8.86" x2="43.447" y2="-1.486"/>
	<line class="st1" x1="61.599" y1="6.396" x2="48.098" y2="-1.399"/>
	<line class="st1" x1="61.587" y1="3.79" x2="52.221" y2="-1.617"/>
	<line class="st1" x1="61.605" y1="1.203" x2="56.949" y2="-1.485"/>
	<path class="st1" d="M61.536-1.435"/>
	<path class="st1" d="M-57.75-91.089"/>
	<path class="st1" d="M-56.625-93.038"/>
	<path class="st1" d="M-55.5-94.987"/>
	<path class="st1" d="M-54.375-96.935"/>
	<path class="st1" d="M-53.25-98.884"/>
	<path class="st1" d="M-52.125-100.832"/>
	<path class="st1" d="M-51-102.781"/>
	<path class="st1" d="M-49.875-104.729"/>
	<path class="st1" d="M-48.75-106.678"/>
	<path class="st1" d="M61.631,62.121"/>
	<line class="st1" x1="56.838" y1="62.29" x2="61.535" y2="59.579"/>
	<line class="st1" x1="52.761" y1="62.046" x2="61.655" y2="56.911"/>
	<line class="st1" x1="48.248" y1="62.054" x2="61.639" y2="54.322"/>
	<line class="st1" x1="43.747" y1="62.054" x2="61.555" y2="51.773"/>
	<line class="st1" x1="38.977" y1="62.211" x2="61.555" y2="49.175"/>
	<line class="st1" x1="34.718" y1="62.071" x2="61.602" y2="46.55"/>
	<line class="st1" x1="30.312" y1="62.017" x2="61.607" y2="43.949"/>
	<line class="st1" x1="25.399" y1="62.256" x2="61.575" y2="41.369"/>
	<line class="st1" x1="21.12" y1="62.128" x2="61.516" y2="38.805"/>
	<line class="st1" x1="16.295" y1="62.315" x2="61.616" y2="36.149"/>
	<line class="st1" x1="11.778" y1="62.325" x2="61.415" y2="33.667"/>
	<line class="st1" x1="6.949" y1="62.515" x2="61.557" y2="30.987"/>
	<line class="st1" x1="3.231" y1="62.064" x2="61.44" y2="28.457"/>
	<line class="st1" x1="-1.62" y1="62.266" x2="61.498" y2="25.825"/>
	<line class="st1" x1="-1.625" y1="59.671" x2="61.567" y2="23.187"/>
	<line class="st1" x1="-1.398" y1="56.942" x2="61.477" y2="20.641"/>
	<line class="st1" x1="-1.514" y1="54.411" x2="61.651" y2="17.943"/>
	<line class="st1" x1="-1.367" y1="51.728" x2="61.481" y2="15.443"/>
	<line class="st1" x1="-1.426" y1="49.164" x2="61.624" y2="12.762"/>
	<line class="st1" x1="-1.554" y1="46.64" x2="61.559" y2="10.201"/>
	<line class="st1" x1="-1.659" y1="44.102" x2="61.506" y2="7.634"/>
	<line class="st1" x1="-1.549" y1="41.441" x2="61.496" y2="5.042"/>
	<line class="st1" x1="-1.501" y1="38.815" x2="61.691" y2="2.331"/>
	<line class="st1" x1="-1.687" y1="36.324" x2="61.659" y2="-0.249"/>
	<line class="st1" x1="-1.522" y1="33.631" x2="59.322" y2="-1.497"/>
	<line class="st1" x1="-1.64" y1="31.101" x2="55.116" y2="-1.667"/>
	<line class="st1" x1="-1.454" y1="28.396" x2="50.498" y2="-1.599"/>
	<line class="st1" x1="-1.477" y1="25.811" x2="46.01" y2="-1.606"/>
	<line class="st1" x1="-1.619" y1="23.295" x2="41.374" y2="-1.527"/>
	<line class="st1" x1="-1.589" y1="20.679" x2="36.704" y2="-1.429"/>
	<line class="st1" x1="-1.499" y1="18.029" x2="32.345" y2="-1.51"/>
	<line class="st1" x1="-1.488" y1="15.425" x2="27.96" y2="-1.577"/>
	<line class="st1" x1="-1.537" y1="12.855" x2="23.453" y2="-1.573"/>
	<line class="st1" x1="-1.447" y1="10.205" x2="19.027" y2="-1.616"/>
	<polyline class="st1" points="-1.57,7.678 -0.992,7.344 14.636,-1.679 	"/>
	<line class="st1" x1="-1.692" y1="5.15" x2="9.935" y2="-1.562"/>
	<line class="st1" x1="-1.256" y1="2.301" x2="4.909" y2="-1.259"/>
	<path class="st1" d="M0.826-1.5"/>
</g>
<g>
	<path class="st2" d="M37.9318,23.017c-0.0007-0.0811-0.0247-0.1544-0.0594-0.2219c-0.0101-0.0196-0.0232-0.0349-0.0357-0.0529
		c-0.034-0.0491-0.0745-0.0899-0.1235-0.1241c-0.0114-0.0079-0.0165-0.0217-0.0286-0.0287l-1.893-1.1069l1.7114-1.0601
		c0.1475-0.0918,0.2373-0.2539,0.2363-0.4282s-0.0928-0.3354-0.2412-0.4253l-4.9541-2.9893
		c-0.1572-0.0938-0.3516-0.0962-0.5088-0.0049l-2.3333,1.347l-4.7244-2.7625c-0.1548-0.0903-0.3472-0.0903-0.5024-0.0015
		L6.5278,25.5171c-0.0125,0.0073-0.0179,0.0214-0.0296,0.0295c-0.049,0.034-0.0896,0.0747-0.1237,0.1236
		c-0.0126,0.0181-0.0257,0.0336-0.0358,0.0532C6.3038,25.7905,6.28,25.8636,6.279,25.9445c0,0.0015-0.0012,0.0027-0.0012,0.0043
		c0,0.0002,0.0002,0.0004,0.0002,0.0006c0,0.0003-0.0002,0.0005-0.0002,0.0009v5.4997l-2.2173,1.3568
		c-0.1484,0.0908-0.2388,0.2529-0.2388,0.4268v2.6455l-2.292,1.3242c-0.1548,0.0889-0.25,0.2539-0.25,0.4326
		s0.0952,0.3438,0.25,0.4326l2.542,1.4668c0.0776,0.0449,0.1636,0.0674,0.25,0.0674s0.1729-0.0225,0.25-0.0674l2.4561-1.418
		c0.1548-0.0889,0.25-0.2539,0.25-0.4326v-2.6992l1.5681-0.8972l1.4929,0.8501l-1.1816,0.7229
		C9.0083,35.752,8.918,35.9141,8.918,36.0879v2.6465l-2.292,1.3242c-0.1548,0.0889-0.25,0.2539-0.25,0.4326
		s0.0952,0.3438,0.25,0.4326l2.542,1.4678c0.0771,0.0449,0.1636,0.0674,0.25,0.0674s0.1729-0.0225,0.25-0.0674l2.4561-1.418
		c0.1548-0.0889,0.25-0.2539,0.25-0.4326v-2.7012l1.5269-0.8733l5.5435,3.1565c0.0072,0.0041,0.0157,0.0024,0.0231,0.0061
		c0.0683,0.035,0.1425,0.0593,0.2245,0.0593c0.0863,0,0.1635-0.0275,0.2343-0.0659c0.0082-0.0044,0.0179-0.0024,0.0259-0.0073
		l17.7402-10.8115c0.016-0.0097,0.025-0.0253,0.0396-0.0365c0.0289-0.0221,0.0551-0.0447,0.0784-0.0724
		c0.02-0.0237,0.0356-0.0484,0.0506-0.0751c0.0162-0.0284,0.03-0.0565,0.0405-0.0881c0.0106-0.0321,0.0157-0.0639,0.0197-0.0975
		c0.0023-0.0197,0.0115-0.0369,0.0115-0.0571v-5.856c0-0.0002-0.0001-0.0004-0.0001-0.0005c0-0.0001,0.0001-0.0003,0.0001-0.0004
		C37.9326,23.019,37.9318,23.0181,37.9318,23.017z M36.9326,28.5966L20.1919,38.7983v-5.0176l16.7407-9.884V28.5966z
		 M32.2793,17.5884l4.001,2.4141l-1.4663,0.9084l-4.1183-2.4081L32.2793,17.5884z M24.7236,16.1689l4.6157,2.699
		c0.0631,0.06,0.1351,0.1065,0.2175,0.1272l6.8884,4.0278L19.6904,32.915l-11.917-6.9624L24.7236,16.1689z M6.5298,34.2617
		c-0.1558,0.0889-0.252,0.2539-0.252,0.4336v2.7002l-1.9561,1.1299l-1.542-0.8896l1.792-1.0352
		c0.1548-0.0889,0.25-0.2539,0.25-0.4326v-2.6543l2.0822-1.2745c0.0986-0.0264,0.1839-0.077,0.2485-0.152l2.1136-1.2937
		l1.6553,0.9556L6.5298,34.2617z M11.626,37.1162c-0.1558,0.0889-0.252,0.2539-0.252,0.4336v2.7021L9.418,41.3818l-1.542-0.8906
		l1.792-1.0352c0.1548-0.0889,0.25-0.2539,0.25-0.4326v-2.6553l4.4443-2.7188l1.6553,0.9551L11.626,37.1162z M17.269,35.04
		c0.1558-0.0889,0.2515-0.2539,0.252-0.4326s-0.0952-0.3447-0.25-0.4336l-2.666-1.5391c-0.1587-0.0928-0.356-0.0908-0.5107,0.0059
		l-2.7811,1.7015l-1.459-0.8308l2.3187-1.3267c0.1558-0.0889,0.2515-0.2539,0.252-0.4326s-0.0952-0.3447-0.25-0.4336l-2.666-1.5396
		c-0.1597-0.0913-0.355-0.0898-0.5112,0.0068L7.2778,30.838v-4.0165l11.9141,6.9606v5.0466l-4.2828-2.4388L17.269,35.04z"/>
	<path class="st2" d="M20.4048,30.0078c0.0527,0,0.1055-0.0137,0.1523-0.0415l10.644-6.2852
		c0.0918-0.0542,0.1475-0.1528,0.1475-0.2588c0-0.1064-0.0566-0.2046-0.1484-0.2583l-7.625-4.457
		c-0.0938-0.0542-0.2075-0.0552-0.3013-0.001l-10.7681,6.2153c-0.0928,0.0532-0.1499,0.1519-0.1499,0.2588
		c-0.0005,0.1069,0.0562,0.2061,0.1484,0.2603l7.749,4.5269C20.3003,29.9941,20.3525,30.0078,20.4048,30.0078z M23.4229,19.313
		l7.0337,4.1113l-10.0527,5.9355l-7.1509-4.1772L23.4229,19.313z"/>
	<path class="st2" d="M56.0654,24.895c0-1.0159-0.6009-1.9882-1.6865-2.7648v-8.4134c0-2.0674-2.9375-4.5928-6.3662-4.5928
		c-3.4277,0-6.3652,2.5254-6.3652,4.5928v8.4139c-0.8472,0.6055-1.3945,1.3299-1.5944,2.1025
		c-0.0529,0.0793-0.0911,0.1691-0.0911,0.2717v0.3776c0,0.0042-0.001,0.0083-0.001,0.0125c0,0.0038,0.001,0.0073,0.001,0.0111v3.966
		c0,0.0017-0.001,0.0031-0.001,0.0048c0,0.0038,0.001,0.0073,0.001,0.0111v0.4698c0,0.1299,0.0524,0.2457,0.1335,0.3345
		c0.4339,1.3641,1.9348,2.4969,4.0296,3.127v14.8358c0,0.2764,0.2236,0.5,0.5,0.5s0.5-0.2236,0.5-0.5V33.0674
		c0.8937,0.186,1.8635,0.2919,2.8877,0.2919c1.0146,0,1.9755-0.1041,2.8623-0.2867v14.8785c0,0.2764,0.2236,0.5,0.5,0.5
		s0.5-0.2236,0.5-0.5V32.8277c2.5157-0.7498,4.1904-2.2212,4.1904-3.9507v-3.981c0-0.0001-0.0001-0.0002-0.0001-0.0003
		C56.0654,24.8954,56.0654,24.8953,56.0654,24.895z M48.0127,10.124c2.9619,0,5.3662,2.1738,5.3662,3.5928v9.5454
		c0,0.0009,0.0005,0.0015,0.0005,0.0023c-0.0028,1.2747-2.3002,2.6993-5.3745,2.6993c-3.0654,0-5.3564-1.4263-5.3564-2.7017
		c0-0.0017-0.001-0.0031-0.001-0.0048v-9.5406C42.6475,12.2979,45.0508,10.124,48.0127,10.124z M41.6635,23.4348
		c0.1564,1.9606,2.9366,3.5291,6.3414,3.5291c3.4138,0,6.2007-1.5671,6.3597-3.5266c0.4456,0.4609,0.7008,0.9589,0.7008,1.4577
		c0,1.8872-3.2295,3.4819-7.0527,3.4819c-3.816,0-7.0402-1.5897-7.0508-3.4728v-0.0148
		C40.9637,24.3913,41.2184,23.8945,41.6635,23.4348z M48.0127,32.3594c-3.816,0-7.0402-1.5896-7.0508-3.4732v-1.7983
		c1.3598,1.3755,3.9772,2.2891,7.0508,2.2891c3.075,0,5.6932-0.914,7.0527-2.2901v1.7901
		C55.0654,30.7646,51.8359,32.3594,48.0127,32.3594z"/>
</g>
</svg>
