<?xml version="1.0" encoding="utf-8"?>
<!-- Generator: Adobe Illustrator 21.0.0, SVG Export Plug-In . SVG Version: 6.00 Build 0)  -->
<svg version="1.1" id="Layer_1" xmlns="http://www.w3.org/2000/svg" xmlns:xlink="http://www.w3.org/1999/xlink" x="0px" y="0px"
	 viewBox="0 0 60 60" style="enable-background:new 0 0 60 60;" xml:space="preserve">
<style type="text/css">
	.st0{display:none;opacity:0.2;}
	.st1{display:inline;fill:none;stroke:#00ADEE;stroke-width:0.125;stroke-miterlimit:10;}
	.st2{fill:#231F20;}
</style>
<g class="st0">
	<path class="st1" d="M-0.375-1.557"/>
	<line class="st1" x1="1.875" y1="62.156" x2="1.875" y2="-1.36"/>
	<line class="st1" x1="4.125" y1="62.353" x2="4.125" y2="-1.557"/>
	<line class="st1" x1="6.375" y1="61.959" x2="6.375" y2="-1.311"/>
	<line class="st1" x1="8.625" y1="62.746" x2="8.625" y2="-1.655"/>
	<line class="st1" x1="10.875" y1="62.353" x2="10.875" y2="-1.508"/>
	<line class="st1" x1="13.125" y1="62.5" x2="13.125" y2="-1.606"/>
	<line class="st1" x1="15.375" y1="62.353" x2="15.375" y2="-1.557"/>
	<line class="st1" x1="17.625" y1="62.5" x2="17.625" y2="-1.902"/>
	<line class="st1" x1="19.875" y1="62.156" x2="19.875" y2="-1.655"/>
	<line class="st1" x1="22.125" y1="62.303" x2="22.125" y2="-1.852"/>
	<line class="st1" x1="24.375" y1="62.106" x2="24.375" y2="-1.458"/>
	<line class="st1" x1="26.625" y1="62.254" x2="26.625" y2="-1.508"/>
	<line class="st1" x1="28.875" y1="62.303" x2="28.875" y2="-1.508"/>
	<line class="st1" x1="31.125" y1="62.057" x2="31.125" y2="-1.458"/>
	<line class="st1" x1="33.375" y1="62.106" x2="33.375" y2="-1.409"/>
	<line class="st1" x1="35.625" y1="62.353" x2="35.625" y2="-1.606"/>
	<line class="st1" x1="37.875" y1="62.156" x2="37.875" y2="-1.557"/>
	<line class="st1" x1="40.125" y1="62.451" x2="40.125" y2="-1.508"/>
	<line class="st1" x1="42.375" y1="62.254" x2="42.375" y2="-1.36"/>
	<line class="st1" x1="44.625" y1="62.106" x2="44.625" y2="-1.508"/>
	<line class="st1" x1="46.875" y1="62.156" x2="46.875" y2="-1.508"/>
	<line class="st1" x1="49.125" y1="62.106" x2="49.125" y2="-1.508"/>
	<line class="st1" x1="51.375" y1="61.86" x2="51.375" y2="-1.557"/>
	<line class="st1" x1="53.625" y1="62.156" x2="53.625" y2="-1.754"/>
	<line class="st1" x1="55.875" y1="62.156" x2="55.875" y2="-1.606"/>
	<line class="st1" x1="58.125" y1="62.451" x2="58.125" y2="-1.606"/>
	<line class="st1" x1="0.707" y1="62.173" x2="-1.49" y2="60.904"/>
	<line class="st1" x1="5.116" y1="62.12" x2="-1.544" y2="58.275"/>
	<line class="st1" x1="9.971" y1="62.325" x2="-1.555" y2="55.67"/>
	<line class="st1" x1="14.59" y1="62.394" x2="-1.607" y2="53.042"/>
	<line class="st1" x1="18.865" y1="62.263" x2="-1.499" y2="50.506"/>
	<line class="st1" x1="23.182" y1="62.158" x2="-1.459" y2="47.931"/>
	<line class="st1" x1="27.736" y1="62.189" x2="-1.529" y2="45.293"/>
	<line class="st1" x1="32.049" y1="62.081" x2="-1.465" y2="42.732"/>
	<line class="st1" x1="36.749" y1="62.196" x2="-1.522" y2="40.101"/>
	<line class="st1" x1="41.271" y1="62.209" x2="-1.645" y2="37.431"/>
	<line class="st1" x1="45.801" y1="62.226" x2="-1.572" y2="34.876"/>
	<line class="st1" x1="50.08" y1="62.099" x2="-1.576" y2="32.275"/>
	<line class="st1" x1="54.737" y1="62.19" x2="-1.594" y2="29.667"/>
	<line class="st1" x1="59.428" y1="62.3" x2="-1.647" y2="27.038"/>
	<line class="st1" x1="61.539" y1="60.921" x2="-1.545" y2="24.499"/>
	<line class="st1" x1="61.758" y1="58.449" x2="-1.458" y2="21.951"/>
	<line class="st1" x1="61.545" y1="55.728" x2="-1.525" y2="19.314"/>
	<line class="st1" x1="61.597" y1="53.16" x2="-1.558" y2="16.697"/>
	<line class="st1" x1="61.527" y1="50.521" x2="-1.469" y2="14.15"/>
	<line class="st1" x1="61.65" y1="47.994" x2="-1.472" y2="11.551"/>
	<line class="st1" x1="61.538" y1="45.331" x2="-1.42" y2="8.983"/>
	<line class="st1" x1="61.48" y1="42.7" x2="-1.375" y2="6.41"/>
	<polyline class="st1" points="61.578,40.158 -1.135,3.951 -1.529,3.723 	"/>
	<polyline class="st1" points="61.514,37.524 -1.248,1.288 -2.111,0.79 	"/>
	<polyline class="st1" points="61.544,34.943 0,-0.59 -1.761,-1.606 	"/>
	<line class="st1" x1="61.353" y1="32.234" x2="2.933" y2="-1.494"/>
	<line class="st1" x1="61.482" y1="29.711" x2="7.489" y2="-1.462"/>
	<line class="st1" x1="61.479" y1="27.111" x2="11.988" y2="-1.463"/>
	<line class="st1" x1="61.458" y1="24.501" x2="16.186" y2="-1.637"/>
	<line class="st1" x1="61.361" y1="21.847" x2="20.651" y2="-1.657"/>
	<line class="st1" x1="61.563" y1="19.365" x2="25.485" y2="-1.464"/>
	<line class="st1" x1="61.605" y1="16.791" x2="30.1" y2="-1.398"/>
	<line class="st1" x1="61.433" y1="14.094" x2="34.593" y2="-1.402"/>
	<line class="st1" x1="61.589" y1="11.586" x2="38.944" y2="-1.488"/>
	<line class="st1" x1="61.366" y1="8.86" x2="43.447" y2="-1.486"/>
	<line class="st1" x1="61.599" y1="6.396" x2="48.098" y2="-1.399"/>
	<line class="st1" x1="61.587" y1="3.79" x2="52.221" y2="-1.617"/>
	<line class="st1" x1="61.605" y1="1.203" x2="56.949" y2="-1.485"/>
	<path class="st1" d="M61.536-1.435"/>
	<path class="st1" d="M-57.75-91.089"/>
	<path class="st1" d="M-56.625-93.038"/>
	<path class="st1" d="M-55.5-94.987"/>
	<path class="st1" d="M-54.375-96.935"/>
	<path class="st1" d="M-53.25-98.884"/>
	<path class="st1" d="M-52.125-100.832"/>
	<path class="st1" d="M-51-102.781"/>
	<path class="st1" d="M-49.875-104.729"/>
	<path class="st1" d="M-48.75-106.678"/>
	<path class="st1" d="M61.631,62.121"/>
	<line class="st1" x1="56.838" y1="62.29" x2="61.535" y2="59.579"/>
	<line class="st1" x1="52.761" y1="62.046" x2="61.655" y2="56.911"/>
	<line class="st1" x1="48.248" y1="62.054" x2="61.639" y2="54.322"/>
	<line class="st1" x1="43.747" y1="62.054" x2="61.555" y2="51.773"/>
	<line class="st1" x1="38.977" y1="62.211" x2="61.555" y2="49.175"/>
	<line class="st1" x1="34.718" y1="62.071" x2="61.602" y2="46.55"/>
	<line class="st1" x1="30.312" y1="62.017" x2="61.607" y2="43.949"/>
	<line class="st1" x1="25.399" y1="62.256" x2="61.575" y2="41.369"/>
	<line class="st1" x1="21.12" y1="62.128" x2="61.516" y2="38.805"/>
	<line class="st1" x1="16.295" y1="62.315" x2="61.616" y2="36.149"/>
	<line class="st1" x1="11.778" y1="62.325" x2="61.415" y2="33.667"/>
	<line class="st1" x1="6.949" y1="62.515" x2="61.557" y2="30.987"/>
	<line class="st1" x1="3.231" y1="62.064" x2="61.44" y2="28.457"/>
	<line class="st1" x1="-1.62" y1="62.266" x2="61.498" y2="25.825"/>
	<line class="st1" x1="-1.625" y1="59.671" x2="61.567" y2="23.187"/>
	<line class="st1" x1="-1.398" y1="56.942" x2="61.477" y2="20.641"/>
	<line class="st1" x1="-1.514" y1="54.411" x2="61.651" y2="17.943"/>
	<line class="st1" x1="-1.367" y1="51.728" x2="61.481" y2="15.443"/>
	<line class="st1" x1="-1.426" y1="49.164" x2="61.624" y2="12.762"/>
	<line class="st1" x1="-1.554" y1="46.64" x2="61.559" y2="10.201"/>
	<line class="st1" x1="-1.659" y1="44.102" x2="61.506" y2="7.634"/>
	<line class="st1" x1="-1.549" y1="41.441" x2="61.496" y2="5.042"/>
	<line class="st1" x1="-1.501" y1="38.815" x2="61.691" y2="2.331"/>
	<line class="st1" x1="-1.687" y1="36.324" x2="61.659" y2="-0.249"/>
	<line class="st1" x1="-1.522" y1="33.631" x2="59.322" y2="-1.497"/>
	<line class="st1" x1="-1.64" y1="31.101" x2="55.116" y2="-1.667"/>
	<line class="st1" x1="-1.454" y1="28.396" x2="50.498" y2="-1.599"/>
	<line class="st1" x1="-1.477" y1="25.811" x2="46.01" y2="-1.606"/>
	<line class="st1" x1="-1.619" y1="23.295" x2="41.374" y2="-1.527"/>
	<line class="st1" x1="-1.589" y1="20.679" x2="36.704" y2="-1.429"/>
	<line class="st1" x1="-1.499" y1="18.029" x2="32.345" y2="-1.51"/>
	<line class="st1" x1="-1.488" y1="15.425" x2="27.96" y2="-1.577"/>
	<line class="st1" x1="-1.537" y1="12.855" x2="23.453" y2="-1.573"/>
	<line class="st1" x1="-1.447" y1="10.205" x2="19.027" y2="-1.616"/>
	<polyline class="st1" points="-1.57,7.678 -0.992,7.344 14.636,-1.679 	"/>
	<line class="st1" x1="-1.692" y1="5.15" x2="9.935" y2="-1.562"/>
	<line class="st1" x1="-1.256" y1="2.301" x2="4.909" y2="-1.259"/>
	<path class="st1" d="M0.826-1.5"/>
</g>
<g>
	<path class="st2" d="M50.3611,41.5453c0.0022-0.0049,0.005-0.0093,0.007-0.0143c0.0346-0.0833,0.0515-0.1718,0.0381-0.2625V8.5249
		c0-0.082-0.0244-0.1562-0.0593-0.2244c-0.0101-0.0198-0.0234-0.0352-0.036-0.0535c-0.0336-0.0488-0.0735-0.0894-0.1219-0.1235
		c-0.0118-0.0084-0.0172-0.0228-0.0298-0.0303L38.2373,1.1113c-0.1553-0.0894-0.3477-0.0908-0.5029-0.0015L9.6411,17.3301
		c-0.0125,0.0073-0.0179,0.0214-0.0296,0.0295c-0.049,0.034-0.0896,0.0747-0.1237,0.1236
		c-0.0126,0.0181-0.0257,0.0336-0.0358,0.0532c-0.0349,0.0671-0.0588,0.1403-0.0598,0.2211c0,0.0015-0.0012,0.0027-0.0012,0.0043
		c0,0.0002,0.0002,0.0004,0.0002,0.0006c0,0.0003-0.0002,0.0005-0.0002,0.0009v32.8169c0,0.0416,0.0141,0.0786,0.0236,0.1171
		c0.0012,0.0049,0.0016,0.0096,0.0029,0.0145c0.0159,0.0571,0.0407,0.1078,0.0744,0.1547c0.0045,0.0063,0.008,0.0127,0.0127,0.0188
		c0.0342,0.0432,0.0746,0.0781,0.121,0.108c0.0079,0.0053,0.0123,0.0136,0.0207,0.0185l11.7671,6.874
		c0.0035,0.0021,0.0077,0.0011,0.0112,0.0031c0.0706,0.0381,0.1475,0.0653,0.2334,0.0653c0.0016,0,0.0029-0.0009,0.0045-0.0009
		c0.0012,0,0.0022,0.0009,0.0034,0.0009c0.0087,0,0.0164-0.0062,0.0251-0.0067c0.067-0.0046,0.1294-0.021,0.1866-0.0493
		c0.0115-0.0054,0.0248-0.0031,0.0359-0.0095l28.2485-16.1123c0.03-0.0172,0.0499-0.0435,0.075-0.0656
		c0.0102-0.0092,0.0209-0.0165,0.0303-0.0265C50.3075,41.6428,50.3378,41.5967,50.3611,41.5453z M10.3911,18.6344l10.7671,6.2899
		v31.6543l-10.7671-6.29V18.6344z M22.1582,24.9273l27.248-15.5416v31.6697l-27.248,15.5425V24.9273z M37.9824,2.1216L48.9072,8.519
		l-27.2461,15.541l-10.7744-6.2944L37.9824,2.1216z"/>
	<path class="st2" d="M44.21,18.5703c-3.7402-1.959-8.9717,0.6245-11.6582,5.7573c-1.2871,2.46-1.8115,5.1387-1.4756,7.5425
		c0.3447,2.4658,1.5488,4.3555,3.3906,5.3193c0.8486,0.4434,1.7744,0.6543,2.7295,0.6543c3.2549,0,6.8525-2.4443,8.9297-6.4131
		C48.8115,26.2983,47.9531,20.5288,44.21,18.5703z M45.2393,30.9673c-2.4307,4.644-7.0547,7.0386-10.3096,5.3354
		c-1.5469-0.8096-2.5645-2.4326-2.8633-4.5703c-0.3066-2.1997,0.1797-4.6646,1.3721-6.9409
		c1.8984-3.6294,5.1377-5.8838,8.0146-5.8838c0.8057,0,1.582,0.1763,2.2939,0.5483C47.001,21.1592,47.6699,26.3232,45.2393,30.9673z
		"/>
	<path class="st2" d="M30.895,45.4159c-0.0007-0.0004-0.0007-0.0014-0.0015-0.0018l-3.2896-1.7959
		c-0.939-0.4932-2.2314,0.1289-2.8857,1.3799c-0.3091,0.5898-0.4346,1.2354-0.353,1.8164c0.0864,0.6182,0.3936,1.0947,0.8599,1.3389
		l3.2847,1.7939c0.001,0.0005,0.0023,0.0003,0.0033,0.0009c0.0006,0.0003,0.001,0.0008,0.0016,0.0011
		c0.2192,0.1152,0.459,0.1719,0.7095,0.1719c0.2871,0,0.5879-0.0752,0.8857-0.2256c0.5239-0.2646,0.9829-0.7354,1.2915-1.3262
		c0.3086-0.5898,0.4346-1.2354,0.3525-1.8164C31.6683,46.1373,31.3624,45.6629,30.895,45.4159z M24.9595,46.7314
		c-0.064-0.459,0.0391-0.9756,0.29-1.4551c0.4937-0.9424,1.4438-1.458,2.0718-1.1289l2.2313,1.2184
		c-0.0861,0.0309-0.1721,0.0565-0.2582,0.0999c-0.5239,0.2646-0.9829,0.7354-1.2915,1.3262
		c-0.3608,0.6898-0.4439,1.4246-0.2969,2.0318l-2.1977-1.1998C25.2134,47.4697,25.0186,47.1523,24.9595,46.7314z M30.8701,48.292
		c-0.2515,0.4795-0.6177,0.8594-1.0308,1.0684c-0.3793,0.1897-0.7488,0.2103-1.0427,0.0589l-0.0074-0.004
		c-0.6292-0.3335-0.7462-1.4056-0.2551-2.3459c0.2515-0.4795,0.6177-0.8594,1.0308-1.0684
		c0.3794-0.1924,0.7505-0.2119,1.0464-0.0576c0.2949,0.1543,0.4893,0.4717,0.5488,0.8926
		C31.2246,47.2949,31.1211,47.8115,30.8701,48.292z"/>
	<path class="st2" d="M37.5533,41.3632c-0.0008-0.0004-0.0007-0.0015-0.0015-0.0019l-3.29-1.7959
		c-0.4707-0.248-1.0361-0.2275-1.5938,0.0537c-0.5244,0.2646-0.9834,0.7354-1.292,1.3262c-0.6543,1.251-0.4243,2.668,0.5078,3.1553
		l3.2842,1.7939c0.0009,0.0004,0.0018,0.0002,0.0026,0.0007c0.0012,0.0006,0.0021,0.0016,0.0032,0.0023
		c0.2188,0.1152,0.459,0.1719,0.709,0.1719c0.2871,0,0.5879-0.0752,0.8857-0.2256c0.5244-0.2646,0.9834-0.7354,1.291-1.3262
		C38.7134,43.2703,38.4857,41.8574,37.5533,41.3632z M31.9072,41.2227c0.251-0.4795,0.6172-0.8584,1.0313-1.0674
		c0.3789-0.1924,0.751-0.2139,1.041-0.0605l2.2327,1.2192c-0.0864,0.0309-0.1728,0.0566-0.2591,0.1001
		c-0.5244,0.2646-0.9824,0.7354-1.291,1.3262c-0.3096,0.5898-0.4346,1.2344-0.3535,1.8154
		c0.0106,0.0759,0.0345,0.1423,0.0517,0.2137l-2.1943-1.1981C31.5225,43.2344,31.4072,42.1816,31.9072,41.2227z M37.5283,44.2402
		c-0.251,0.4795-0.6172,0.8594-1.0303,1.0674c-0.3791,0.1915-0.7492,0.2111-1.0425,0.0601
		c-0.0002-0.0001-0.0002-0.0004-0.0004-0.0005l-0.0106-0.0057c-0.2908-0.1557-0.4831-0.4704-0.5412-0.8878
		c-0.0645-0.459,0.0391-0.9756,0.29-1.4551c0-0.001,0-0.001,0-0.001c0.251-0.4795,0.6172-0.8594,1.0303-1.0684
		c0.2119-0.1064,0.4209-0.1602,0.6162-0.1602c0.1543,0,0.2998,0.0332,0.4297,0.1016
		C37.9141,42.2285,38.0293,43.2822,37.5283,44.2402z"/>
	<path class="st2" d="M44.4746,24.9141l-2.25,1.2993c-0.0625,0.0361-0.1094,0.0933-0.1328,0.1616l-1.9189,5.5391l-2.0068-8.1104
		c-0.0322-0.1289-0.1445-0.2217-0.2783-0.2275c-0.1387,0.0005-0.2539,0.0771-0.2969,0.2026l-2.2119,6.4604l-2.1475,1.167
		c-0.1455,0.0791-0.1992,0.2617-0.1201,0.4072c0.0801,0.1455,0.2617,0.1973,0.4072,0.1201l2.25-1.2231
		c0.0654-0.0361,0.1162-0.0952,0.1406-0.1665l1.9199-5.6064l2.0049,8.1035c0.0313,0.1289,0.1445,0.2217,0.2773,0.2275
		c0.0049,0,0.0088,0,0.0137,0c0.127,0,0.2412-0.0801,0.2832-0.2012l2.2139-6.3906l2.1533-1.2432
		c0.1436-0.083,0.1924-0.2661,0.1094-0.4097C44.8018,24.8799,44.6191,24.8306,44.4746,24.9141z"/>
	<path class="st2" d="M24.2524,29.3013c0.0483,0,0.0977-0.0122,0.1436-0.0371l4.623-2.5269
		c0.145-0.0796,0.1987-0.2617,0.1191-0.4072c-0.0786-0.1445-0.2598-0.1987-0.4072-0.1191l-4.623,2.5269
		c-0.145,0.0796-0.1987,0.2617-0.1191,0.4072C24.043,29.2446,24.146,29.3013,24.2524,29.3013z"/>
	<path class="st2" d="M24.2495,31.9033c0.0483,0,0.0977-0.0117,0.1431-0.0361l4.6318-2.5288
		c0.1455-0.0791,0.1992-0.2617,0.1196-0.4067c-0.0786-0.1455-0.2612-0.1987-0.4067-0.1196l-4.6318,2.5278
		c-0.1455,0.0801-0.1992,0.2617-0.1196,0.4072C24.04,31.8467,24.1431,31.9033,24.2495,31.9033z"/>
	<path class="st2" d="M24.2456,34.5068c0.0483,0,0.0977-0.0117,0.1431-0.0361l4.6421-2.5303
		c0.1455-0.0791,0.1992-0.2617,0.1196-0.4072c-0.0786-0.1445-0.2612-0.1982-0.4067-0.1201l-4.6421,2.5303
		c-0.1455,0.0791-0.1992,0.2617-0.1196,0.4072C24.0361,34.4502,24.1392,34.5068,24.2456,34.5068z"/>
	<path class="st2" d="M24.2427,37.1094c0.0483,0,0.0972-0.0117,0.1431-0.0361l4.6509-2.5313
		c0.1455-0.0791,0.1992-0.2617,0.1201-0.4072c-0.0796-0.1445-0.2598-0.1982-0.4072-0.1201l-4.6509,2.5313
		c-0.1455,0.0791-0.1992,0.2617-0.1201,0.4072C24.0332,37.0527,24.1362,37.1094,24.2427,37.1094z"/>
	<path class="st2" d="M29.043,37.1436c0.146-0.0791,0.1997-0.2617,0.1206-0.4072c-0.0791-0.1445-0.2617-0.1982-0.4067-0.1201
		l-4.6611,2.5342c-0.146,0.0791-0.1997,0.2617-0.1206,0.4072c0.0547,0.0996,0.1577,0.1563,0.2642,0.1563
		c0.0483,0,0.0972-0.0117,0.1426-0.0361L29.043,37.1436z"/>
</g>
</svg>
