<?xml version="1.0" encoding="utf-8"?>
<!-- Generator: Adobe Illustrator 21.0.0, SVG Export Plug-In . SVG Version: 6.00 Build 0)  -->
<svg version="1.1" id="Layer_1" xmlns="http://www.w3.org/2000/svg" xmlns:xlink="http://www.w3.org/1999/xlink" x="0px" y="0px"
	 viewBox="0 0 30 30" style="enable-background:new 0 0 30 30;" xml:space="preserve">
<style type="text/css">
	.st0{display:none;opacity:0.2;}
	.st1{display:inline;fill:none;stroke:#00ADEE;stroke-width:0.125;stroke-miterlimit:10;}
	.st2{fill:#231F20;}
</style>
<g class="st0">
	<path class="st1" d="M-15.375-16.557"/>
	<line class="st1" x1="-13.125" y1="47.1558" x2="-13.125" y2="-16.3603"/>
	<line class="st1" x1="-10.875" y1="47.3529" x2="-10.875" y2="-16.5568"/>
	<line class="st1" x1="-8.625" y1="46.959" x2="-8.625" y2="-16.3109"/>
	<line class="st1" x1="-6.375" y1="47.746" x2="-6.375" y2="-16.6546"/>
	<line class="st1" x1="-4.125" y1="47.3529" x2="-4.125" y2="-16.5079"/>
	<line class="st1" x1="-1.875" y1="47.4999" x2="-1.875" y2="-16.6061"/>
	<line class="st1" x1="0.375" y1="47.3529" x2="0.375" y2="-16.5568"/>
	<line class="st1" x1="2.625" y1="47.4999" x2="2.625" y2="-16.9021"/>
	<line class="st1" x1="4.875" y1="47.1558" x2="4.875" y2="-16.6547"/>
	<line class="st1" x1="7.125" y1="47.3029" x2="7.125" y2="-16.8517"/>
	<line class="st1" x1="9.375" y1="47.1063" x2="9.375" y2="-16.4577"/>
	<line class="st1" x1="11.625" y1="47.2541" x2="11.625" y2="-16.5081"/>
	<line class="st1" x1="13.875" y1="47.3029" x2="13.875" y2="-16.5079"/>
	<line class="st1" x1="16.125" y1="47.0567" x2="16.125" y2="-16.458"/>
	<line class="st1" x1="18.375" y1="47.1063" x2="18.375" y2="-16.4089"/>
	<line class="st1" x1="20.625" y1="47.3529" x2="20.625" y2="-16.6058"/>
	<line class="st1" x1="22.875" y1="47.1558" x2="22.875" y2="-16.5569"/>
	<line class="st1" x1="25.125" y1="47.4511" x2="25.125" y2="-16.5082"/>
	<line class="st1" x1="27.375" y1="47.2541" x2="27.375" y2="-16.3603"/>
	<line class="st1" x1="29.625" y1="47.1063" x2="29.625" y2="-16.5077"/>
	<line class="st1" x1="31.875" y1="47.1558" x2="31.875" y2="-16.508"/>
	<line class="st1" x1="34.125" y1="47.1063" x2="34.125" y2="-16.5077"/>
	<line class="st1" x1="36.375" y1="46.8598" x2="36.375" y2="-16.5566"/>
	<line class="st1" x1="38.625" y1="47.1558" x2="38.625" y2="-16.7536"/>
	<line class="st1" x1="40.875" y1="47.1558" x2="40.875" y2="-16.6058"/>
	<line class="st1" x1="43.125" y1="47.4511" x2="43.125" y2="-16.6062"/>
	<line class="st1" x1="-14.2926" y1="47.1726" x2="-16.4896" y2="45.9041"/>
	<line class="st1" x1="-9.8838" y1="47.1199" x2="-16.5439" y2="43.2746"/>
	<line class="st1" x1="-5.0286" y1="47.3248" x2="-16.5547" y2="40.6703"/>
	<line class="st1" x1="-0.4099" y1="47.3936" x2="-16.607" y2="38.0421"/>
	<line class="st1" x1="3.8647" y1="47.2633" x2="-16.4987" y2="35.5065"/>
	<line class="st1" x1="8.1817" y1="47.1575" x2="-16.4585" y2="32.9315"/>
	<line class="st1" x1="12.7364" y1="47.1893" x2="-16.5287" y2="30.2931"/>
	<line class="st1" x1="17.0493" y1="47.0812" x2="-16.4649" y2="27.7317"/>
	<line class="st1" x1="21.7487" y1="47.1965" x2="-16.5216" y2="25.1011"/>
	<line class="st1" x1="26.2708" y1="47.2091" x2="-16.6454" y2="22.4314"/>
	<line class="st1" x1="30.8011" y1="47.2265" x2="-16.5718" y2="19.8757"/>
	<line class="st1" x1="35.0797" y1="47.0989" x2="-16.5759" y2="17.2755"/>
	<line class="st1" x1="39.7372" y1="47.1897" x2="-16.5939" y2="14.6669"/>
	<line class="st1" x1="44.4278" y1="47.2996" x2="-16.6466" y2="12.0384"/>
	<line class="st1" x1="46.5391" y1="45.9207" x2="-16.5451" y2="9.499"/>
	<line class="st1" x1="46.7575" y1="43.4487" x2="-16.4576" y2="6.9515"/>
	<line class="st1" x1="46.5446" y1="40.7275" x2="-16.5248" y2="4.3145"/>
	<line class="st1" x1="46.5973" y1="38.16" x2="-16.5582" y2="1.6972"/>
	<line class="st1" x1="46.5272" y1="35.5214" x2="-16.4693" y2="-0.8496"/>
	<line class="st1" x1="46.6505" y1="32.9944" x2="-16.4717" y2="-3.4492"/>
	<line class="st1" x1="46.5376" y1="30.3314" x2="-16.4197" y2="-6.017"/>
	<line class="st1" x1="46.4796" y1="27.6997" x2="-16.3754" y2="-8.5896"/>
	<polyline class="st1" points="46.5777,25.1581 -16.1346,-11.0488 -16.5294,-11.2767 	"/>
	<polyline class="st1" points="46.5142,22.5236 -16.248,-13.7121 -17.1105,-14.2101 	"/>
	<polyline class="st1" points="46.5439,19.9426 -14.9996,-15.5896 -16.7609,-16.6065 	"/>
	<line class="st1" x1="46.3527" y1="17.2343" x2="-12.0668" y2="-16.4943"/>
	<line class="st1" x1="46.4824" y1="14.711" x2="-7.5112" y2="-16.4622"/>
	<line class="st1" x1="46.479" y1="12.1109" x2="-3.0123" y2="-16.4629"/>
	<line class="st1" x1="46.4578" y1="9.5007" x2="1.1859" y2="-16.637"/>
	<line class="st1" x1="46.3608" y1="6.8466" x2="5.6507" y2="-16.6575"/>
	<line class="st1" x1="46.5626" y1="4.3649" x2="10.4854" y2="-16.4643"/>
	<line class="st1" x1="46.6047" y1="1.7913" x2="15.0995" y2="-16.3983"/>
	<line class="st1" x1="46.4335" y1="-0.9057" x2="19.5934" y2="-16.4018"/>
	<line class="st1" x1="46.5889" y1="-3.4142" x2="23.9443" y2="-16.488"/>
	<line class="st1" x1="46.3665" y1="-6.1405" x2="28.4468" y2="-16.4864"/>
	<line class="st1" x1="46.5992" y1="-8.6043" x2="33.0984" y2="-16.399"/>
	<line class="st1" x1="46.5865" y1="-11.2098" x2="37.2213" y2="-16.6168"/>
	<line class="st1" x1="46.6046" y1="-13.7973" x2="41.9486" y2="-16.4854"/>
	<path class="st1" d="M46.5364-16.4349"/>
	<path class="st1" d="M-72.75-106.0893"/>
	<path class="st1" d="M-71.625-108.0379"/>
	<path class="st1" d="M-70.5-109.9865"/>
	<path class="st1" d="M-69.375-111.935"/>
	<path class="st1" d="M-68.25-113.8836"/>
	<path class="st1" d="M-67.125-115.8321"/>
	<path class="st1" d="M-66-117.7807"/>
	<path class="st1" d="M-64.875-119.7292"/>
	<path class="st1" d="M-63.75-121.6778"/>
	<path class="st1" d="M46.631,47.1215"/>
	<line class="st1" x1="41.8384" y1="47.2903" x2="46.5346" y2="44.579"/>
	<line class="st1" x1="37.761" y1="47.0465" x2="46.6554" y2="41.9113"/>
	<line class="st1" x1="33.2481" y1="47.0539" x2="46.6394" y2="39.3224"/>
	<line class="st1" x1="28.7471" y1="47.0544" x2="46.5552" y2="36.7729"/>
	<line class="st1" x1="23.9766" y1="47.2107" x2="46.5546" y2="34.1753"/>
	<line class="st1" x1="19.718" y1="47.0712" x2="46.6021" y2="31.5497"/>
	<line class="st1" x1="15.3122" y1="47.0167" x2="46.6066" y2="28.9489"/>
	<line class="st1" x1="10.3988" y1="47.2556" x2="46.5751" y2="26.3692"/>
	<line class="st1" x1="6.1197" y1="47.1279" x2="46.5162" y2="23.805"/>
	<line class="st1" x1="1.2953" y1="47.3154" x2="46.6164" y2="21.1493"/>
	<line class="st1" x1="-3.222" y1="47.3253" x2="46.4154" y2="18.6671"/>
	<line class="st1" x1="-8.0514" y1="47.5153" x2="46.5572" y2="15.9871"/>
	<line class="st1" x1="-11.769" y1="47.0639" x2="46.4405" y2="13.4566"/>
	<line class="st1" x1="-16.6198" y1="47.2663" x2="46.4978" y2="10.8253"/>
	<line class="st1" x1="-16.6252" y1="44.6712" x2="46.5671" y2="8.1872"/>
	<line class="st1" x1="-16.3982" y1="41.9423" x2="46.4768" y2="5.6413"/>
	<line class="st1" x1="-16.5136" y1="39.4107" x2="46.6506" y2="2.9429"/>
	<line class="st1" x1="-16.3672" y1="36.728" x2="46.4811" y2="0.4426"/>
	<line class="st1" x1="-16.4261" y1="34.1641" x2="46.6243" y2="-2.2381"/>
	<line class="st1" x1="-16.5537" y1="31.6396" x2="46.5591" y2="-4.7985"/>
	<line class="st1" x1="-16.6591" y1="29.1023" x2="46.5062" y2="-7.3662"/>
	<line class="st1" x1="-16.5488" y1="26.4407" x2="46.4955" y2="-9.9579"/>
	<line class="st1" x1="-16.5014" y1="23.8152" x2="46.6906" y2="-12.6687"/>
	<line class="st1" x1="-16.6869" y1="21.324" x2="46.6589" y2="-15.2486"/>
	<line class="st1" x1="-16.5222" y1="18.6311" x2="44.3216" y2="-16.497"/>
	<line class="st1" x1="-16.6397" y1="16.1008" x2="40.1155" y2="-16.6668"/>
	<line class="st1" x1="-16.4543" y1="13.3959" x2="35.4976" y2="-16.5986"/>
	<line class="st1" x1="-16.4766" y1="10.8105" x2="31.0105" y2="-16.6061"/>
	<line class="st1" x1="-16.6191" y1="8.2947" x2="26.3737" y2="-16.5272"/>
	<line class="st1" x1="-16.5886" y1="5.6791" x2="21.7039" y2="-16.4291"/>
	<line class="st1" x1="-16.4987" y1="3.0291" x2="17.3446" y2="-16.5104"/>
	<line class="st1" x1="-16.4879" y1="0.4247" x2="12.9603" y2="-16.5772"/>
	<line class="st1" x1="-16.5374" y1="-2.1447" x2="8.4534" y2="-16.5731"/>
	<line class="st1" x1="-16.4468" y1="-4.7952" x2="4.0268" y2="-16.6156"/>
	<polyline class="st1" points="-16.5695,-7.3225 -15.9916,-7.6561 -0.3642,-16.6786 	"/>
	<line class="st1" x1="-16.6918" y1="-9.8497" x2="-5.065" y2="-16.5625"/>
	<line class="st1" x1="-16.2564" y1="-12.6993" x2="-10.0909" y2="-16.259"/>
	<path class="st1" d="M-14.1742-16.4997"/>
</g>
<g>
	<path class="st2" d="M25.3414,20.9426c0.0004-0.0074,0.0043-0.0137,0.0043-0.0212v-0.0352c-0.0004-0.005,0.0006-0.0098,0-0.0148
		V4.5132c0-0.066-0.02-0.1256-0.0484-0.1805c-0.0077-0.015-0.0178-0.0265-0.0273-0.0404c-0.0272-0.0396-0.0596-0.0726-0.0989-0.1003
		c-0.0094-0.0067-0.0137-0.0181-0.0237-0.024l-5.9609-3.4907c-0.124-0.0732-0.2773-0.0747-0.4023-0.001L4.7378,8.7861
		c-0.0101,0.0059-0.0145,0.0173-0.024,0.024C4.675,8.8372,4.6428,8.8694,4.6157,8.9082c-0.0102,0.0146-0.0208,0.027-0.0289,0.0428
		c-0.028,0.054-0.0472,0.1125-0.0479,0.1774c0,0.001-0.0008,0.0018-0.0008,0.0029c0,0.0001,0.0001,0.0003,0.0001,0.0004
		c0,0.0002-0.0001,0.0004-0.0001,0.0005v16.4082c0,0.0278,0.0104,0.0521,0.0158,0.0784c0.0024,0.0119,0.0037,0.0234,0.0071,0.035
		c0.0115,0.038,0.0284,0.0715,0.05,0.1039c0.0072,0.0111,0.0135,0.022,0.0219,0.0325c0.0243,0.0297,0.0526,0.0534,0.0844,0.0751
		c0.0088,0.0061,0.014,0.0154,0.0234,0.0209l5.8833,3.4375c0.0041,0.0024,0.0091,0.0014,0.0132,0.0036
		c0.0559,0.0298,0.1168,0.0511,0.1845,0.0511c0.0008,0,0.0015-0.0004,0.0023-0.0004c0.0005,0,0.0011,0.0004,0.0016,0.0004
		c0.0043,0,0.0082-0.0032,0.0125-0.0034c0.058-0.0025,0.1116-0.0179,0.1606-0.0427c0.008-0.0039,0.0173-0.0022,0.0251-0.0067
		l14.1235-8.0566c0.0205-0.0117,0.0336-0.0302,0.0512-0.0447c0.0136-0.0114,0.0273-0.0212,0.0392-0.0343
		c0.0258-0.0278,0.045-0.0582,0.0618-0.0914c0.0059-0.0117,0.0125-0.0225,0.0172-0.0349
		C25.332,21.0246,25.3391,20.9847,25.3414,20.9426z M5.3379,9.8289l5.084,2.9694v15.4805l-5.084-2.9706V9.8289z M11.2217,12.8014
		l13.3232-7.5992v15.489l-13.3232,7.6003V12.8014z M18.9834,1.4853l5.1621,3.0234l-13.3213,7.5981L5.7344,9.1342L18.9834,1.4853z"/>
	<path class="st2" d="M22.167,9.4028c-1.9463-1.0186-4.6514,0.3027-6.0322,2.9419c-1.3809,2.6401-0.9229,5.6157,1.0215,6.6333
		c0.4463,0.2334,0.9355,0.3496,1.4463,0.3496c0.5957,0,1.2207-0.1572,1.8418-0.4717c1.1113-0.5605,2.0859-1.5625,2.7441-2.8198
		C24.5693,13.3965,24.1113,10.4209,22.167,9.4028z M22.4795,15.665c-0.5811,1.1108-1.4316,1.9907-2.3955,2.4771
		c-0.918,0.4648-1.8262,0.5098-2.5566,0.127c-1.5537-0.8135-1.8604-3.3042-0.6836-5.5532c0.9238-1.7637,2.4893-2.8623,3.8711-2.8623
		c0.3799,0,0.7461,0.083,1.0811,0.2583C23.3496,10.9248,23.6563,13.4165,22.4795,15.665z"/>
	<path class="st2" d="M15.6888,22.8552c-0.0338-0.0466-0.0755-0.0879-0.1293-0.1174l-1.6484-0.8994
		c-0.6016-0.3145-1.3823,0.0342-1.7808,0.7949c-0.1782,0.3418-0.2505,0.7178-0.2026,1.0596
		c0.0542,0.3857,0.2598,0.6982,0.5576,0.8545l1.6421,0.8965c0.0011,0.0006,0.0023,0.0002,0.0034,0.0009
		c0.001,0.0005,0.0019,0.0015,0.0029,0.0021c0.1494,0.0781,0.3096,0.1152,0.4727,0.1152c0.4927,0,1.0088-0.3389,1.3081-0.9102
		C16.2758,23.9623,16.1589,23.2251,15.6888,22.8552z M12.7202,23.5815c-0.0244-0.1748,0.019-0.3857,0.1191-0.5771
		c0.1938-0.3701,0.5337-0.5459,0.6943-0.46l0.7241,0.3953c-0.188,0.1512-0.3577,0.3473-0.4854,0.591
		c-0.1183,0.2263-0.1707,0.4656-0.1912,0.7026l-0.7184-0.392C12.7627,23.7895,12.7305,23.6567,12.7202,23.5815z M15.2056,24.2807
		c-0.193,0.3694-0.5278,0.5457-0.6994,0.4572l-0.0021-0.0011c-0.1025-0.0543-0.1335-0.1985-0.1417-0.2588
		c-0.0244-0.1748,0.019-0.3848,0.1191-0.5762c0.1606-0.3066,0.4189-0.4814,0.5996-0.4814c0.0376,0,0.0718,0.0078,0.1011,0.0234
		C15.353,23.5337,15.3994,23.9106,15.2056,24.2807z"/>
	<path class="st2" d="M19.0179,20.8297c-0.0338-0.0462-0.0756-0.0872-0.1293-0.1163l-0.0038-0.0021
		c-0.0009-0.0004-0.0012-0.0014-0.0021-0.0018c-0.0013-0.0007-0.0027-0.0009-0.0041-0.0015l-1.6385-0.8959
		c-0.3066-0.1592-0.6787-0.1494-1.0264,0.0254c-0.3081,0.1563-0.5762,0.4297-0.7544,0.7705s-0.25,0.7168-0.2021,1.0586
		c0.0537,0.3857,0.2598,0.6982,0.5576,0.8535l1.6421,0.8975c0.0007,0.0004,0.0014,0.0002,0.0021,0.0005
		c0.0015,0.0008,0.0023,0.0026,0.0038,0.0034c0.1494,0.0781,0.3096,0.1143,0.4717,0.1143c0.4932,0,1.0098-0.3389,1.3096-0.9102
		C19.6049,21.9351,19.4872,21.1988,19.0179,20.8297z M16.0498,21.5551c-0.0254-0.1748,0.0186-0.3848,0.1182-0.5762
		c0.1006-0.1914,0.249-0.3477,0.4072-0.4277c0.0537-0.0264,0.1885-0.082,0.2881-0.0342l0.7245,0.3959
		c-0.1884,0.1511-0.3583,0.3474-0.4863,0.5914c-0.1221,0.2333-0.1746,0.4701-0.195,0.7013l-0.7142-0.3907
		C16.0928,21.7632,16.0596,21.6303,16.0498,21.5551z M18.5352,22.2544c-0.1934,0.3701-0.5342,0.5518-0.7002,0.458
		c-0.1719-0.0898-0.2178-0.4668-0.0244-0.8369c0.1602-0.3057,0.4189-0.4795,0.6006-0.4795c0.0371,0,0.0713,0.0068,0.1006,0.0225
		C18.6826,21.5083,18.7285,21.8842,18.5352,22.2544z"/>
	<path class="st2" d="M22.6523,12.6377c-0.1113-0.1914-0.3555-0.2559-0.5469-0.146l-1.125,0.6494
		c-0.083,0.0479-0.1465,0.1245-0.1777,0.2153l-0.6826,1.9717l-0.8008-3.2358c-0.043-0.1719-0.1943-0.2959-0.3711-0.3032
		c-0.1748-0.0088-0.3389,0.1021-0.3965,0.27l-1.0742,3.1382l-0.9883,0.5366c-0.1934,0.1055-0.2656,0.3486-0.1602,0.5425
		c0.1055,0.1943,0.3477,0.2651,0.543,0.1606l1.125-0.6113c0.0879-0.0479,0.1543-0.127,0.1875-0.2222l0.6846-1.9995l0.7979,3.2266
		c0.043,0.1719,0.1934,0.2959,0.3701,0.3037c0.0068,0,0.0127,0.001,0.0186,0.001c0.1699,0,0.3223-0.1074,0.3779-0.2695
		l1.0762-3.1064l0.9961-0.5752C22.6973,13.0737,22.7627,12.8291,22.6523,12.6377z"/>
	<path class="st2" d="M12.1191,15.1509c0.0649,0,0.1304-0.0156,0.1914-0.0488l2.3115-1.2637
		c0.1938-0.106,0.2651-0.3491,0.1592-0.543c-0.106-0.1934-0.3481-0.2642-0.543-0.1592l-2.3115,1.2637
		c-0.1938,0.106-0.2651,0.3491-0.1592,0.543C11.8403,15.0757,11.9775,15.1509,12.1191,15.1509z"/>
	<path class="st2" d="M12.1177,16.4526c0.0645,0,0.1304-0.0156,0.1914-0.0488l2.3159-1.2646
		c0.1938-0.106,0.2651-0.3491,0.1592-0.543c-0.106-0.1924-0.3477-0.2646-0.543-0.1592l-2.3159,1.2646
		c-0.1938,0.106-0.2651,0.3491-0.1592,0.543C11.8389,16.3774,11.9761,16.4526,12.1177,16.4526z"/>
	<path class="st2" d="M12.1157,17.7544c0.0645,0,0.1304-0.0156,0.1909-0.0488l2.3213-1.2656
		c0.1938-0.1055,0.2656-0.3486,0.1597-0.5425c-0.105-0.1934-0.3477-0.2656-0.5425-0.1597l-2.3213,1.2646
		c-0.1938,0.1064-0.2656,0.3486-0.1597,0.543C11.8364,17.6782,11.9741,17.7544,12.1157,17.7544z"/>
	<path class="st2" d="M12.1143,19.0561c0.0645,0,0.1299-0.0156,0.1909-0.0488l2.3257-1.2656
		c0.1938-0.1055,0.2656-0.3486,0.1602-0.543c-0.1064-0.1934-0.3486-0.2676-0.543-0.1602l-2.3257,1.2656
		c-0.1938,0.1055-0.2656,0.3486-0.1602,0.543C11.835,18.98,11.9722,19.0561,12.1143,19.0561z"/>
	<path class="st2" d="M12.3032,20.3091l2.3301-1.2666c0.1943-0.1055,0.2661-0.3486,0.1606-0.543
		c-0.1064-0.1934-0.3486-0.2676-0.5425-0.1602l-2.3301,1.2666c-0.1943,0.1055-0.2661,0.3486-0.1606,0.543
		c0.0728,0.1328,0.21,0.209,0.3521,0.209C12.1772,20.3579,12.2427,20.3423,12.3032,20.3091z"/>
</g>
</svg>
