<?xml version="1.0" encoding="utf-8"?>
<!-- Generator: Adobe Illustrator 21.0.0, SVG Export Plug-In . SVG Version: 6.00 Build 0)  -->
<svg version="1.1" id="Layer_1" xmlns="http://www.w3.org/2000/svg" xmlns:xlink="http://www.w3.org/1999/xlink" x="0px" y="0px"
	 viewBox="0 0 30 30" style="enable-background:new 0 0 30 30;" xml:space="preserve">
<style type="text/css">
	.st0{display:none;opacity:0.2;}
	.st1{display:inline;fill:none;stroke:#00ADEE;stroke-width:0.125;stroke-miterlimit:10;}
	.st2{fill:#231F20;}
</style>
<g class="st0">
	<path class="st1" d="M-15.375-16.557"/>
	<line class="st1" x1="-13.125" y1="47.1558" x2="-13.125" y2="-16.3603"/>
	<line class="st1" x1="-10.875" y1="47.3529" x2="-10.875" y2="-16.5568"/>
	<line class="st1" x1="-8.625" y1="46.959" x2="-8.625" y2="-16.3109"/>
	<line class="st1" x1="-6.375" y1="47.746" x2="-6.375" y2="-16.6546"/>
	<line class="st1" x1="-4.125" y1="47.3529" x2="-4.125" y2="-16.5079"/>
	<line class="st1" x1="-1.875" y1="47.4999" x2="-1.875" y2="-16.6061"/>
	<line class="st1" x1="0.375" y1="47.3529" x2="0.375" y2="-16.5568"/>
	<line class="st1" x1="2.625" y1="47.4999" x2="2.625" y2="-16.9021"/>
	<line class="st1" x1="4.875" y1="47.1558" x2="4.875" y2="-16.6547"/>
	<line class="st1" x1="7.125" y1="47.3029" x2="7.125" y2="-16.8517"/>
	<line class="st1" x1="9.375" y1="47.1063" x2="9.375" y2="-16.4577"/>
	<line class="st1" x1="11.625" y1="47.2541" x2="11.625" y2="-16.5081"/>
	<line class="st1" x1="13.875" y1="47.3029" x2="13.875" y2="-16.5079"/>
	<line class="st1" x1="16.125" y1="47.0567" x2="16.125" y2="-16.458"/>
	<line class="st1" x1="18.375" y1="47.1063" x2="18.375" y2="-16.4089"/>
	<line class="st1" x1="20.625" y1="47.3529" x2="20.625" y2="-16.6058"/>
	<line class="st1" x1="22.875" y1="47.1558" x2="22.875" y2="-16.5569"/>
	<line class="st1" x1="25.125" y1="47.4511" x2="25.125" y2="-16.5082"/>
	<line class="st1" x1="27.375" y1="47.2541" x2="27.375" y2="-16.3603"/>
	<line class="st1" x1="29.625" y1="47.1063" x2="29.625" y2="-16.5077"/>
	<line class="st1" x1="31.875" y1="47.1558" x2="31.875" y2="-16.508"/>
	<line class="st1" x1="34.125" y1="47.1063" x2="34.125" y2="-16.5077"/>
	<line class="st1" x1="36.375" y1="46.8598" x2="36.375" y2="-16.5566"/>
	<line class="st1" x1="38.625" y1="47.1558" x2="38.625" y2="-16.7536"/>
	<line class="st1" x1="40.875" y1="47.1558" x2="40.875" y2="-16.6058"/>
	<line class="st1" x1="43.125" y1="47.4511" x2="43.125" y2="-16.6062"/>
	<line class="st1" x1="-14.2926" y1="47.1726" x2="-16.4896" y2="45.9041"/>
	<line class="st1" x1="-9.8838" y1="47.1199" x2="-16.5439" y2="43.2746"/>
	<line class="st1" x1="-5.0286" y1="47.3248" x2="-16.5547" y2="40.6703"/>
	<line class="st1" x1="-0.4099" y1="47.3936" x2="-16.607" y2="38.0421"/>
	<line class="st1" x1="3.8647" y1="47.2633" x2="-16.4987" y2="35.5065"/>
	<line class="st1" x1="8.1817" y1="47.1575" x2="-16.4585" y2="32.9315"/>
	<line class="st1" x1="12.7364" y1="47.1893" x2="-16.5287" y2="30.2931"/>
	<line class="st1" x1="17.0493" y1="47.0812" x2="-16.4649" y2="27.7317"/>
	<line class="st1" x1="21.7487" y1="47.1965" x2="-16.5216" y2="25.1011"/>
	<line class="st1" x1="26.2708" y1="47.2091" x2="-16.6454" y2="22.4314"/>
	<line class="st1" x1="30.8011" y1="47.2265" x2="-16.5718" y2="19.8757"/>
	<line class="st1" x1="35.0797" y1="47.0989" x2="-16.5759" y2="17.2755"/>
	<line class="st1" x1="39.7372" y1="47.1897" x2="-16.5939" y2="14.6669"/>
	<line class="st1" x1="44.4278" y1="47.2996" x2="-16.6466" y2="12.0384"/>
	<line class="st1" x1="46.5391" y1="45.9207" x2="-16.5451" y2="9.499"/>
	<line class="st1" x1="46.7575" y1="43.4487" x2="-16.4576" y2="6.9515"/>
	<line class="st1" x1="46.5446" y1="40.7275" x2="-16.5248" y2="4.3145"/>
	<line class="st1" x1="46.5973" y1="38.16" x2="-16.5582" y2="1.6972"/>
	<line class="st1" x1="46.5272" y1="35.5214" x2="-16.4693" y2="-0.8496"/>
	<line class="st1" x1="46.6505" y1="32.9944" x2="-16.4717" y2="-3.4492"/>
	<line class="st1" x1="46.5376" y1="30.3314" x2="-16.4197" y2="-6.017"/>
	<line class="st1" x1="46.4796" y1="27.6997" x2="-16.3754" y2="-8.5896"/>
	<polyline class="st1" points="46.5777,25.1581 -16.1346,-11.0488 -16.5294,-11.2767 	"/>
	<polyline class="st1" points="46.5142,22.5236 -16.248,-13.7121 -17.1105,-14.2101 	"/>
	<polyline class="st1" points="46.5439,19.9426 -14.9996,-15.5896 -16.7609,-16.6065 	"/>
	<line class="st1" x1="46.3527" y1="17.2343" x2="-12.0668" y2="-16.4943"/>
	<line class="st1" x1="46.4824" y1="14.711" x2="-7.5112" y2="-16.4622"/>
	<line class="st1" x1="46.479" y1="12.1109" x2="-3.0123" y2="-16.4629"/>
	<line class="st1" x1="46.4578" y1="9.5007" x2="1.1859" y2="-16.637"/>
	<line class="st1" x1="46.3608" y1="6.8466" x2="5.6507" y2="-16.6575"/>
	<line class="st1" x1="46.5626" y1="4.3649" x2="10.4854" y2="-16.4643"/>
	<line class="st1" x1="46.6047" y1="1.7913" x2="15.0995" y2="-16.3983"/>
	<line class="st1" x1="46.4335" y1="-0.9057" x2="19.5934" y2="-16.4018"/>
	<line class="st1" x1="46.5889" y1="-3.4142" x2="23.9443" y2="-16.488"/>
	<line class="st1" x1="46.3665" y1="-6.1405" x2="28.4468" y2="-16.4864"/>
	<line class="st1" x1="46.5992" y1="-8.6043" x2="33.0984" y2="-16.399"/>
	<line class="st1" x1="46.5865" y1="-11.2098" x2="37.2213" y2="-16.6168"/>
	<line class="st1" x1="46.6046" y1="-13.7973" x2="41.9486" y2="-16.4854"/>
	<path class="st1" d="M46.5364-16.4349"/>
	<path class="st1" d="M-72.75-106.0893"/>
	<path class="st1" d="M-71.625-108.0379"/>
	<path class="st1" d="M-70.5-109.9865"/>
	<path class="st1" d="M-69.375-111.935"/>
	<path class="st1" d="M-68.25-113.8836"/>
	<path class="st1" d="M-67.125-115.8321"/>
	<path class="st1" d="M-66-117.7807"/>
	<path class="st1" d="M-64.875-119.7292"/>
	<path class="st1" d="M-63.75-121.6778"/>
	<path class="st1" d="M46.631,47.1215"/>
	<line class="st1" x1="41.8384" y1="47.2903" x2="46.5346" y2="44.579"/>
	<line class="st1" x1="37.761" y1="47.0465" x2="46.6554" y2="41.9113"/>
	<line class="st1" x1="33.2481" y1="47.0539" x2="46.6394" y2="39.3224"/>
	<line class="st1" x1="28.7471" y1="47.0544" x2="46.5552" y2="36.7729"/>
	<line class="st1" x1="23.9766" y1="47.2107" x2="46.5546" y2="34.1753"/>
	<line class="st1" x1="19.718" y1="47.0712" x2="46.6021" y2="31.5497"/>
	<line class="st1" x1="15.3122" y1="47.0167" x2="46.6066" y2="28.9489"/>
	<line class="st1" x1="10.3988" y1="47.2556" x2="46.5751" y2="26.3692"/>
	<line class="st1" x1="6.1197" y1="47.1279" x2="46.5162" y2="23.805"/>
	<line class="st1" x1="1.2953" y1="47.3154" x2="46.6164" y2="21.1493"/>
	<line class="st1" x1="-3.222" y1="47.3253" x2="46.4154" y2="18.6671"/>
	<line class="st1" x1="-8.0514" y1="47.5153" x2="46.5572" y2="15.9871"/>
	<line class="st1" x1="-11.769" y1="47.0639" x2="46.4405" y2="13.4566"/>
	<line class="st1" x1="-16.6198" y1="47.2663" x2="46.4978" y2="10.8253"/>
	<line class="st1" x1="-16.6252" y1="44.6712" x2="46.5671" y2="8.1872"/>
	<line class="st1" x1="-16.3982" y1="41.9423" x2="46.4768" y2="5.6413"/>
	<line class="st1" x1="-16.5136" y1="39.4107" x2="46.6506" y2="2.9429"/>
	<line class="st1" x1="-16.3672" y1="36.728" x2="46.4811" y2="0.4426"/>
	<line class="st1" x1="-16.4261" y1="34.1641" x2="46.6243" y2="-2.2381"/>
	<line class="st1" x1="-16.5537" y1="31.6396" x2="46.5591" y2="-4.7985"/>
	<line class="st1" x1="-16.6591" y1="29.1023" x2="46.5062" y2="-7.3662"/>
	<line class="st1" x1="-16.5488" y1="26.4407" x2="46.4955" y2="-9.9579"/>
	<line class="st1" x1="-16.5014" y1="23.8152" x2="46.6906" y2="-12.6687"/>
	<line class="st1" x1="-16.6869" y1="21.324" x2="46.6589" y2="-15.2486"/>
	<line class="st1" x1="-16.5222" y1="18.6311" x2="44.3216" y2="-16.497"/>
	<line class="st1" x1="-16.6397" y1="16.1008" x2="40.1155" y2="-16.6668"/>
	<line class="st1" x1="-16.4543" y1="13.3959" x2="35.4976" y2="-16.5986"/>
	<line class="st1" x1="-16.4766" y1="10.8105" x2="31.0105" y2="-16.6061"/>
	<line class="st1" x1="-16.6191" y1="8.2947" x2="26.3737" y2="-16.5272"/>
	<line class="st1" x1="-16.5886" y1="5.6791" x2="21.7039" y2="-16.4291"/>
	<line class="st1" x1="-16.4987" y1="3.0291" x2="17.3446" y2="-16.5104"/>
	<line class="st1" x1="-16.4879" y1="0.4247" x2="12.9603" y2="-16.5772"/>
	<line class="st1" x1="-16.5374" y1="-2.1447" x2="8.4534" y2="-16.5731"/>
	<line class="st1" x1="-16.4468" y1="-4.7952" x2="4.0268" y2="-16.6156"/>
	<polyline class="st1" points="-16.5695,-7.3225 -15.9916,-7.6561 -0.3642,-16.6786 	"/>
	<line class="st1" x1="-16.6918" y1="-9.8497" x2="-5.065" y2="-16.5625"/>
	<line class="st1" x1="-16.2564" y1="-12.6993" x2="-10.0909" y2="-16.259"/>
	<path class="st1" d="M-14.1742-16.4997"/>
</g>
<g>
	<path class="st2" d="M29.4824,15.7905c0-0.0054-0.0038-0.0096-0.004-0.015c-0.0023-0.0593-0.0183-0.1138-0.0438-0.1639
		c-0.0084-0.0166-0.0187-0.03-0.0293-0.0453c-0.0272-0.0393-0.0599-0.0717-0.0992-0.0991
		c-0.0095-0.0066-0.0138-0.0181-0.0239-0.0239l-17.499-10.103c-0.125-0.0732-0.2769-0.0718-0.4009,0l-0.8271,0.4794
		c-0.2256-0.3581-0.7565-0.5975-1.4078-0.5975c-0.8696,0-1.5254,0.4268-1.5254,0.9932V6.512
		C7.4077,6.4394,7.1643,6.395,6.8965,6.395c-0.8696,0-1.5254,0.4268-1.5254,0.9932v1.4362l-4.4619,2.5863
		c-0.0134,0.0078-0.0195,0.0228-0.0318,0.0319c-0.0328,0.024-0.0598,0.0519-0.084,0.0844
		c-0.0122,0.0168-0.0257,0.0306-0.0352,0.0491c-0.0276,0.0523-0.047,0.1094-0.0483,0.1729L0.666,13.998
		c-0.0029,0.1455,0.0732,0.2808,0.1992,0.3535l2.0435,1.1865v2.5889c0,0.1426,0.0762,0.2754,0.2002,0.3467l1.2017,0.6934
		c0.0615,0.0352,0.1309,0.0537,0.1997,0.0537s0.1382-0.0186,0.2002-0.0537c0.1235-0.0713,0.1997-0.2041,0.1997-0.3467v-2.1201
		l3.8213,2.2188v2.5098c0,0.1445,0.0781,0.2783,0.2046,0.3486l1.2075,0.6758c0.0605,0.0342,0.1279,0.0518,0.1953,0.0518
		c0.0698,0,0.1401-0.0186,0.2021-0.0557c0.1226-0.0713,0.1978-0.2031,0.1978-0.3447v-2.02l3.8853,2.2559v2.5786
		c0,0.1436,0.0767,0.2764,0.2017,0.3477l1.1782,0.6729c0.0615,0.0352,0.1299,0.0527,0.1982,0.0527
		c0.0693,0,0.1387-0.0186,0.2012-0.0547c0.123-0.0713,0.1992-0.2031,0.1992-0.3457v-2.1026l1.6904,0.9815
		c0.0051,0.003,0.0113,0.0017,0.0165,0.0045c0.0536,0.0285,0.1121,0.0488,0.1769,0.0502c0.0029,0,0.0049,0,0.0078,0
		c0.0659,0,0.1255-0.02,0.1804-0.0484c0.0063-0.0032,0.0137-0.0018,0.0198-0.0053l10.5439-6.0879
		c0.1211-0.0703,0.1973-0.1992,0.2002-0.3389l0.0439-2.2476c0-0.0015-0.0007-0.0026-0.0007-0.0041
		C29.4817,15.7923,29.4824,15.7915,29.4824,15.7905z M6.1709,8.2648c0.2144,0.0726,0.4578,0.1171,0.7256,0.1171
		s0.5112-0.0444,0.7256-0.1171v0.7968v1.1505c-0.0411,0.067-0.2951,0.2162-0.7256,0.2162c-0.4385,0-0.6968-0.1558-0.7256-0.1938
		V8.2648z M8.4219,7.3882V7.0915c0.2144,0.0726,0.4578,0.117,0.7256,0.117c0.2676,0,0.5109-0.0444,0.7251-0.1169v1.9471
		c-0.0411,0.067-0.2951,0.2162-0.7251,0.2162c-0.438,0-0.6968-0.1558-0.7256-0.1934V7.3882z M9.8555,6.2153
		c-0.0771,0.0732-0.3232,0.1934-0.708,0.1934c-0.43,0-0.6844-0.1486-0.7256-0.1638V6.2382C8.463,6.1711,8.7175,6.022,9.1475,6.022
		C9.5322,6.022,9.7783,6.1421,9.8555,6.2153z M7.605,7.3882C7.5278,7.4614,7.2817,7.582,6.8965,7.582
		c-0.4305,0-0.6845-0.1486-0.7256-0.1642V7.411C6.212,7.344,6.4665,7.1948,6.8965,7.1948C7.2813,7.1948,7.5278,7.3149,7.605,7.3882z
		 M5.3711,9.7494v0.485c0,0.5664,0.6558,0.9937,1.5254,0.9937s1.5254-0.4272,1.5254-0.9937V9.9377
		c0.2144,0.0726,0.4578,0.117,0.7256,0.117c0.8696,0,1.5249-0.4268,1.5249-0.9932V6.6768l0.9111-0.5284l16.6958,9.6396
		l-9.7402,5.5703L1.9087,11.7563L5.3711,9.7494z M1.4965,12.4418l16.6367,9.606l-0.0265,1.3897l-7.6017-4.4136
		c-0.0047-0.0021-0.0084-0.0057-0.0131-0.0076l-9.0216-5.238L1.4965,12.4418z M4.1104,18.1279l-0.4019-0.2324v-1.8931l0.4019,0.2333
		V18.1279z M9.939,21.4219l-0.4077-0.2275v-1.811l0.4077,0.2367V21.4219z M15.8022,24.9023l-0.3784-0.2158v-1.8817l0.3784,0.2197
		V24.9023z M18.908,23.4247l0.0261-1.3708l9.7339-5.567l-0.0255,1.3168L18.908,23.4247z"/>
	<path class="st2" d="M4.6968,10.9644c-0.5898,0-1.0698,0.4146-1.0698,0.9248s0.48,0.9248,1.0698,0.9248
		s1.0698-0.4146,1.0698-0.9248S5.2866,10.9644,4.6968,10.9644z M4.6968,12.0425c-0.1851,0-0.2983-0.0991-0.2983-0.1533
		s0.1133-0.1533,0.2983-0.1533s0.2983,0.0991,0.2983,0.1533S4.8818,12.0425,4.6968,12.0425z"/>
	<path class="st2" d="M11.833,15.0122c-0.6367,0-1.1353,0.4126-1.1353,0.939s0.4985,0.9395,1.1353,0.9395
		c0.6362,0,1.1348-0.4131,1.1348-0.9395S12.4692,15.0122,11.833,15.0122z M11.833,16.0898c-0.2236,0-0.3354-0.1123-0.3354-0.1387
		s0.1118-0.1392,0.3354-0.1392c0.2231,0,0.335,0.1128,0.335,0.1392S12.0562,16.0898,11.833,16.0898z"/>
	<path class="st2" d="M19.4629,19.7998c0-0.5264-0.499-0.9395-1.1357-0.9395c-0.6357,0-1.1348,0.4131-1.1348,0.9395
		s0.499,0.9395,1.1348,0.9395C18.9639,20.7393,19.4629,20.3262,19.4629,19.7998z M18.3271,19.9385
		c-0.2188,0-0.3311-0.1104-0.334-0.1387c0-0.0264,0.1113-0.1387,0.334-0.1387c0.2236,0,0.335,0.1123,0.335,0.1387
		C18.6592,19.8281,18.5469,19.9385,18.3271,19.9385z"/>
	<path class="st2" d="M17.8516,11.8999c-0.0029-0.1436-0.083-0.2744-0.209-0.3433l-3.0649-1.6733
		c-0.123-0.0664-0.271-0.0649-0.3921,0.0049l-4.0469,2.3369c-0.124,0.0718-0.2002,0.2046-0.1997,0.3481
		c0.0005,0.1431,0.0781,0.2754,0.2031,0.3462l3.0786,1.7422c0.061,0.0347,0.1289,0.0518,0.1968,0.0518
		c0.0708,0,0.1416-0.0186,0.2051-0.0562l4.0337-2.4058C17.7793,12.1777,17.8535,12.0435,17.8516,11.8999z M13.4121,13.8511
		l-2.2671-1.2832l3.2461-1.875l2.2534,1.23L13.4121,13.8511z"/>
	<path class="st2" d="M12.1602,8.7676c0.6362,0,1.1348-0.4126,1.1348-0.939s-0.4985-0.939-1.1348-0.939
		c-0.6367,0-1.1353,0.4126-1.1353,0.939S11.5234,8.7676,12.1602,8.7676z M12.1602,7.6895c0.2231,0,0.335,0.1128,0.335,0.1392
		s-0.1118,0.1392-0.335,0.1392c-0.2236,0-0.3354-0.1128-0.3354-0.1392S11.9365,7.6895,12.1602,7.6895z"/>
	<path class="st2" d="M25.6924,16.584c0.6367,0,1.1357-0.4131,1.1357-0.939c0-0.5264-0.499-0.939-1.1357-0.939
		s-1.1357,0.4126-1.1357,0.939C24.5566,16.1709,25.0557,16.584,25.6924,16.584z M25.6924,15.5059
		c0.2236,0,0.335,0.1128,0.335,0.1392s-0.1113,0.1387-0.335,0.1387s-0.335-0.1123-0.335-0.1387S25.4688,15.5059,25.6924,15.5059z"/>
	<path class="st2" d="M18.8232,17.6436c0.0713,0,0.1416-0.0195,0.2051-0.0566l4.0332-2.4053
		c0.123-0.0737,0.1973-0.208,0.1953-0.3516c-0.0029-0.1436-0.083-0.2744-0.209-0.3433l-3.0654-1.6733
		c-0.1221-0.0674-0.2705-0.0664-0.3916,0.0049l-4.0464,2.3364c-0.124,0.0718-0.2002,0.2046-0.1997,0.3481
		c0.0005,0.1431,0.0781,0.2754,0.2031,0.3462l3.0781,1.7417C18.6875,17.626,18.7549,17.6436,18.8232,17.6436z M19.7969,13.623
		l2.2529,1.23l-3.2314,1.9272l-2.2676-1.2827L19.7969,13.623z"/>
</g>
</svg>
