<?xml version="1.0" encoding="utf-8"?>
<!-- Generator: Adobe Illustrator 21.0.0, SVG Export Plug-In . SVG Version: 6.00 Build 0)  -->
<svg version="1.1" id="Layer_1" xmlns="http://www.w3.org/2000/svg" xmlns:xlink="http://www.w3.org/1999/xlink" x="0px" y="0px"
	 viewBox="0 0 60 60" style="enable-background:new 0 0 60 60;" xml:space="preserve">
<style type="text/css">
	.st0{display:none;opacity:0.2;}
	.st1{display:inline;fill:none;stroke:#00ADEE;stroke-width:0.125;stroke-miterlimit:10;}
	.st2{fill:#231F20;}
</style>
<g class="st0">
	<path class="st1" d="M-0.375-1.557"/>
	<line class="st1" x1="1.875" y1="62.156" x2="1.875" y2="-1.36"/>
	<line class="st1" x1="4.125" y1="62.353" x2="4.125" y2="-1.557"/>
	<line class="st1" x1="6.375" y1="61.959" x2="6.375" y2="-1.311"/>
	<line class="st1" x1="8.625" y1="62.746" x2="8.625" y2="-1.655"/>
	<line class="st1" x1="10.875" y1="62.353" x2="10.875" y2="-1.508"/>
	<line class="st1" x1="13.125" y1="62.5" x2="13.125" y2="-1.606"/>
	<line class="st1" x1="15.375" y1="62.353" x2="15.375" y2="-1.557"/>
	<line class="st1" x1="17.625" y1="62.5" x2="17.625" y2="-1.902"/>
	<line class="st1" x1="19.875" y1="62.156" x2="19.875" y2="-1.655"/>
	<line class="st1" x1="22.125" y1="62.303" x2="22.125" y2="-1.852"/>
	<line class="st1" x1="24.375" y1="62.106" x2="24.375" y2="-1.458"/>
	<line class="st1" x1="26.625" y1="62.254" x2="26.625" y2="-1.508"/>
	<line class="st1" x1="28.875" y1="62.303" x2="28.875" y2="-1.508"/>
	<line class="st1" x1="31.125" y1="62.057" x2="31.125" y2="-1.458"/>
	<line class="st1" x1="33.375" y1="62.106" x2="33.375" y2="-1.409"/>
	<line class="st1" x1="35.625" y1="62.353" x2="35.625" y2="-1.606"/>
	<line class="st1" x1="37.875" y1="62.156" x2="37.875" y2="-1.557"/>
	<line class="st1" x1="40.125" y1="62.451" x2="40.125" y2="-1.508"/>
	<line class="st1" x1="42.375" y1="62.254" x2="42.375" y2="-1.36"/>
	<line class="st1" x1="44.625" y1="62.106" x2="44.625" y2="-1.508"/>
	<line class="st1" x1="46.875" y1="62.156" x2="46.875" y2="-1.508"/>
	<line class="st1" x1="49.125" y1="62.106" x2="49.125" y2="-1.508"/>
	<line class="st1" x1="51.375" y1="61.86" x2="51.375" y2="-1.557"/>
	<line class="st1" x1="53.625" y1="62.156" x2="53.625" y2="-1.754"/>
	<line class="st1" x1="55.875" y1="62.156" x2="55.875" y2="-1.606"/>
	<line class="st1" x1="58.125" y1="62.451" x2="58.125" y2="-1.606"/>
	<line class="st1" x1="0.707" y1="62.173" x2="-1.49" y2="60.904"/>
	<line class="st1" x1="5.116" y1="62.12" x2="-1.544" y2="58.275"/>
	<line class="st1" x1="9.971" y1="62.325" x2="-1.555" y2="55.67"/>
	<line class="st1" x1="14.59" y1="62.394" x2="-1.607" y2="53.042"/>
	<line class="st1" x1="18.865" y1="62.263" x2="-1.499" y2="50.506"/>
	<line class="st1" x1="23.182" y1="62.158" x2="-1.459" y2="47.931"/>
	<line class="st1" x1="27.736" y1="62.189" x2="-1.529" y2="45.293"/>
	<line class="st1" x1="32.049" y1="62.081" x2="-1.465" y2="42.732"/>
	<line class="st1" x1="36.749" y1="62.196" x2="-1.522" y2="40.101"/>
	<line class="st1" x1="41.271" y1="62.209" x2="-1.645" y2="37.431"/>
	<line class="st1" x1="45.801" y1="62.226" x2="-1.572" y2="34.876"/>
	<line class="st1" x1="50.08" y1="62.099" x2="-1.576" y2="32.275"/>
	<line class="st1" x1="54.737" y1="62.19" x2="-1.594" y2="29.667"/>
	<line class="st1" x1="59.428" y1="62.3" x2="-1.647" y2="27.038"/>
	<line class="st1" x1="61.539" y1="60.921" x2="-1.545" y2="24.499"/>
	<line class="st1" x1="61.758" y1="58.449" x2="-1.458" y2="21.951"/>
	<line class="st1" x1="61.545" y1="55.728" x2="-1.525" y2="19.314"/>
	<line class="st1" x1="61.597" y1="53.16" x2="-1.558" y2="16.697"/>
	<line class="st1" x1="61.527" y1="50.521" x2="-1.469" y2="14.15"/>
	<line class="st1" x1="61.65" y1="47.994" x2="-1.472" y2="11.551"/>
	<line class="st1" x1="61.538" y1="45.331" x2="-1.42" y2="8.983"/>
	<line class="st1" x1="61.48" y1="42.7" x2="-1.375" y2="6.41"/>
	<polyline class="st1" points="61.578,40.158 -1.135,3.951 -1.529,3.723 	"/>
	<polyline class="st1" points="61.514,37.524 -1.248,1.288 -2.111,0.79 	"/>
	<polyline class="st1" points="61.544,34.943 0,-0.59 -1.761,-1.606 	"/>
	<line class="st1" x1="61.353" y1="32.234" x2="2.933" y2="-1.494"/>
	<line class="st1" x1="61.482" y1="29.711" x2="7.489" y2="-1.462"/>
	<line class="st1" x1="61.479" y1="27.111" x2="11.988" y2="-1.463"/>
	<line class="st1" x1="61.458" y1="24.501" x2="16.186" y2="-1.637"/>
	<line class="st1" x1="61.361" y1="21.847" x2="20.651" y2="-1.657"/>
	<line class="st1" x1="61.563" y1="19.365" x2="25.485" y2="-1.464"/>
	<line class="st1" x1="61.605" y1="16.791" x2="30.1" y2="-1.398"/>
	<line class="st1" x1="61.433" y1="14.094" x2="34.593" y2="-1.402"/>
	<line class="st1" x1="61.589" y1="11.586" x2="38.944" y2="-1.488"/>
	<line class="st1" x1="61.366" y1="8.86" x2="43.447" y2="-1.486"/>
	<line class="st1" x1="61.599" y1="6.396" x2="48.098" y2="-1.399"/>
	<line class="st1" x1="61.587" y1="3.79" x2="52.221" y2="-1.617"/>
	<line class="st1" x1="61.605" y1="1.203" x2="56.949" y2="-1.485"/>
	<path class="st1" d="M61.536-1.435"/>
	<path class="st1" d="M-57.75-91.089"/>
	<path class="st1" d="M-56.625-93.038"/>
	<path class="st1" d="M-55.5-94.987"/>
	<path class="st1" d="M-54.375-96.935"/>
	<path class="st1" d="M-53.25-98.884"/>
	<path class="st1" d="M-52.125-100.832"/>
	<path class="st1" d="M-51-102.781"/>
	<path class="st1" d="M-49.875-104.729"/>
	<path class="st1" d="M-48.75-106.678"/>
	<path class="st1" d="M61.631,62.121"/>
	<line class="st1" x1="56.838" y1="62.29" x2="61.535" y2="59.579"/>
	<line class="st1" x1="52.761" y1="62.046" x2="61.655" y2="56.911"/>
	<line class="st1" x1="48.248" y1="62.054" x2="61.639" y2="54.322"/>
	<line class="st1" x1="43.747" y1="62.054" x2="61.555" y2="51.773"/>
	<line class="st1" x1="38.977" y1="62.211" x2="61.555" y2="49.175"/>
	<line class="st1" x1="34.718" y1="62.071" x2="61.602" y2="46.55"/>
	<line class="st1" x1="30.312" y1="62.017" x2="61.607" y2="43.949"/>
	<line class="st1" x1="25.399" y1="62.256" x2="61.575" y2="41.369"/>
	<line class="st1" x1="21.12" y1="62.128" x2="61.516" y2="38.805"/>
	<line class="st1" x1="16.295" y1="62.315" x2="61.616" y2="36.149"/>
	<line class="st1" x1="11.778" y1="62.325" x2="61.415" y2="33.667"/>
	<line class="st1" x1="6.949" y1="62.515" x2="61.557" y2="30.987"/>
	<line class="st1" x1="3.231" y1="62.064" x2="61.44" y2="28.457"/>
	<line class="st1" x1="-1.62" y1="62.266" x2="61.498" y2="25.825"/>
	<line class="st1" x1="-1.625" y1="59.671" x2="61.567" y2="23.187"/>
	<line class="st1" x1="-1.398" y1="56.942" x2="61.477" y2="20.641"/>
	<line class="st1" x1="-1.514" y1="54.411" x2="61.651" y2="17.943"/>
	<line class="st1" x1="-1.367" y1="51.728" x2="61.481" y2="15.443"/>
	<line class="st1" x1="-1.426" y1="49.164" x2="61.624" y2="12.762"/>
	<line class="st1" x1="-1.554" y1="46.64" x2="61.559" y2="10.201"/>
	<line class="st1" x1="-1.659" y1="44.102" x2="61.506" y2="7.634"/>
	<line class="st1" x1="-1.549" y1="41.441" x2="61.496" y2="5.042"/>
	<line class="st1" x1="-1.501" y1="38.815" x2="61.691" y2="2.331"/>
	<line class="st1" x1="-1.687" y1="36.324" x2="61.659" y2="-0.249"/>
	<line class="st1" x1="-1.522" y1="33.631" x2="59.322" y2="-1.497"/>
	<line class="st1" x1="-1.64" y1="31.101" x2="55.116" y2="-1.667"/>
	<line class="st1" x1="-1.454" y1="28.396" x2="50.498" y2="-1.599"/>
	<line class="st1" x1="-1.477" y1="25.811" x2="46.01" y2="-1.606"/>
	<line class="st1" x1="-1.619" y1="23.295" x2="41.374" y2="-1.527"/>
	<line class="st1" x1="-1.589" y1="20.679" x2="36.704" y2="-1.429"/>
	<line class="st1" x1="-1.499" y1="18.029" x2="32.345" y2="-1.51"/>
	<line class="st1" x1="-1.488" y1="15.425" x2="27.96" y2="-1.577"/>
	<line class="st1" x1="-1.537" y1="12.855" x2="23.453" y2="-1.573"/>
	<line class="st1" x1="-1.447" y1="10.205" x2="19.027" y2="-1.616"/>
	<polyline class="st1" points="-1.57,7.678 -0.992,7.344 14.636,-1.679 	"/>
	<line class="st1" x1="-1.692" y1="5.15" x2="9.935" y2="-1.562"/>
	<line class="st1" x1="-1.256" y1="2.301" x2="4.909" y2="-1.259"/>
	<path class="st1" d="M0.826-1.5"/>
</g>
<g>
	<path class="st2" d="M58.5957,30.9731c0-0.0068-0.0048-0.0123-0.0051-0.0191c-0.003-0.074-0.0226-0.142-0.0545-0.2045
		c-0.0104-0.0205-0.0231-0.037-0.0362-0.056c-0.0341-0.0494-0.0753-0.0903-0.1246-0.1248
		c-0.0118-0.0082-0.0171-0.0225-0.0297-0.0297L23.3481,10.333c-0.1543-0.0889-0.3457-0.0894-0.501,0.0005l-2.1138,1.2256
		c-0.2094-0.7026-1.2319-1.2217-2.5063-1.2217c-1.4307,0-2.5508,0.6528-2.5508,1.4868v1.3884
		c-0.4643-0.3229-1.1552-0.5295-1.9512-0.5295c-1.4307,0-2.5508,0.6528-2.5508,1.4868v2.9732
		c-0.0615,0.0087-0.1226,0.0275-0.1797,0.0605l-9.0137,5.2234c-0.2025,0.0599-0.3248,0.2522-0.329,0.4689L1.564,27.395
		c-0.0034,0.1816,0.0918,0.3511,0.249,0.4424l4.2368,2.4598v5.3493c0,0.1787,0.0952,0.3438,0.25,0.4326l2.3948,1.3828
		c0.0002,0.0001,0.0005,0.0002,0.0007,0.0004l0.0078,0.0045c0.0771,0.0449,0.1636,0.0674,0.25,0.0674
		c0.0001,0,0.0002-0.0001,0.0002-0.0001s0.0002,0.0001,0.0002,0.0001c0.0757,0,0.1528-0.0176,0.2256-0.0537l0.8472-0.4287
		c0.6401-0.3232,1.1226-1.1299,1.1226-1.876v-1.9182l6.5459,3.8003V42.25c0,0.1807,0.0981,0.3477,0.2559,0.4365l2.415,1.3506
		c0.0762,0.042,0.1602,0.0635,0.2441,0.0635c0.0001,0,0.0002-0.0001,0.0002-0.0001s0.0002,0.0001,0.0002,0.0001
		c0.0806,0,0.1621-0.0195,0.2378-0.0605l0.0141-0.0077c0.0002-0.0001,0.0004,0,0.0005-0.0001
		c0.0001-0.0001,0.0002-0.0002,0.0003-0.0003l0.8137-0.4421c0.6211-0.3379,1.0894-1.1504,1.0894-1.8906v-1.6971L29.48,43.9v5.3315
		c0,0.1797,0.0962,0.3447,0.252,0.4346l2.356,1.3457c0.001,0.0005,0.0021,0.0002,0.0031,0.0008
		c0.0749,0.0421,0.1592,0.0646,0.2449,0.0646c0.0869,0,0.1738-0.0225,0.251-0.0674c0.0009-0.0005,0.0013-0.0016,0.0022-0.0022
		c0.0009-0.0005,0.0018-0.0002,0.0027-0.0007l1.0586-0.6318c0.6289-0.376,1.1035-1.2109,1.1035-1.9434v-1.4698l1.916,1.1124
		c0.0064,0.0037,0.0142,0.0021,0.0208,0.0056c0.0669,0.0354,0.1398,0.0604,0.2205,0.0618c0.0039,0,0.0068,0,0.0098,0
		c0.0826,0,0.1573-0.0253,0.2263-0.061c0.0075-0.0038,0.0164-0.0021,0.0237-0.0064l21.0869-12.1738
		c0.1514-0.0869,0.2461-0.248,0.25-0.4229l0.0879-4.4956c0.0001-0.0018-0.001-0.0034-0.001-0.0052
		C58.5947,30.9754,58.5957,30.9744,58.5957,30.9731z M11.7739,15.1273c0.4643,0.3229,1.1552,0.5295,1.9512,0.5295
		s1.4869-0.2066,1.9512-0.5295v2.3865c0,0.0009-0.001,0.0015-0.001,0.0024c0,0.002,0.001,0.0038,0.001,0.0058v2.3399
		c0,0.4189-0.8345,0.8872-1.9512,0.8872s-1.9512-0.4683-1.9512-0.8872V15.1273z M16.2759,17.5161v-3.3462v-1.3884
		c0.4643,0.3229,1.1552,0.5295,1.9512,0.5295c0.7953,0,1.4859-0.2063,1.9502-0.5288v4.7339c0,0.4189-0.8345,0.8872-1.9512,0.8872
		c-1.1131,0-1.9448-0.4651-1.9502-0.8831V17.5161z M18.2271,10.937c1.1154,0,1.9489,0.4672,1.9508,0.8857
		c0,0.0006-0.0006,0.0009-0.0006,0.0015v0.0041c-0.0054,0.418-0.8371,0.8831-1.9502,0.8831c-1.1167,0-1.9512-0.4683-1.9512-0.8872
		S17.1104,10.937,18.2271,10.937z M13.7251,13.2827c1.1167,0,1.9512,0.4683,1.9512,0.8872s-0.8345,0.8872-1.9512,0.8872
		s-1.9512-0.4683-1.9512-0.8872S12.6084,13.2827,13.7251,13.2827z M11.1743,18.255v1.6068c0,0.834,1.1201,1.4868,2.5508,1.4868
		s2.5508-0.6528,2.5508-1.4868v-1.3877c0.4643,0.3225,1.1548,0.5288,1.9502,0.5288c1.4307,0,2.5508-0.6528,2.5508-1.4868v-4.8455
		c0.0273-0.0101,0.056-0.0128,0.082-0.0281l2.2397-1.2988l33.9932,19.6265l-20.082,11.4839L3.1504,22.9048L11.1743,18.255z
		 M2.6353,23.7623l33.8679,19.554l-0.0661,3.4658l-15.6094-9.0622c-0.0101-0.0049-0.0183-0.0124-0.0288-0.0167l-9.908-5.7521
		c-0.02-0.0114-0.0373-0.0256-0.0589-0.0342l-8.2621-4.7967L2.6353,23.7623z M8.4531,36.168l-1.4033-0.8105v-4.4797l1.4172,0.8228
		c-0.0034,0.0236-0.0139,0.0446-0.0139,0.069V36.168z M10.1489,35.1758c0,0.3633-0.2734,0.832-0.5737,0.9834l-0.1221,0.0617V32.273
		l0.6958,0.404V35.1758z M18.6948,41.957v-4.3186l1.415,0.8215v4.2881L18.6948,41.957z M21.7661,41.6992
		c0,0.3682-0.27,0.8506-0.5674,1.0117l-0.0889,0.0483v-3.7188l0.6563,0.381V41.6992z M30.48,48.9414v-4.4609l1.356,0.7872v4.4481
		L30.48,48.9414z M33.7539,48.4316c0,0.375-0.293,0.8916-0.6152,1.084l-0.3027,0.1807v-3.848l0.918,0.533V48.4316z M37.4378,46.7656
		l0.0656-3.4418l20.0751-11.48l-0.0649,3.332L37.4378,46.7656z"/>
	<path class="st2" d="M39.9639,36.3408c0.0479,0.0283,0.1006,0.042,0.1543,0.042s0.1074-0.0146,0.1553-0.043l8.9961-5.4341
		c0.0117-0.0071,0.0121-0.0223,0.0225-0.0306c0.0309-0.0242,0.0455-0.054,0.065-0.0883c0.02-0.0352,0.0382-0.0637,0.0428-0.1036
		c0.0017-0.0129,0.0142-0.0209,0.0142-0.0342v-3.0537c0-0.0007-0.0007-0.0011-0.0007-0.0018c0-0.0011,0.0007-0.002,0.0007-0.0031
		c-0.0013-0.0708-0.0338-0.1318-0.0781-0.184c-0.011-0.013-0.0204-0.0221-0.0334-0.033c-0.014-0.012-0.0225-0.0291-0.0389-0.0384
		l-6.7451-3.8594c-0.0938-0.0527-0.2061-0.0532-0.2998,0.0005l-9.332,5.3882c-0.0159,0.0092-0.0239,0.0261-0.0377,0.0378
		c-0.0134,0.0112-0.0229,0.0208-0.0342,0.0342c-0.0444,0.0526-0.0761,0.114-0.0765,0.1851c0,0.001-0.001,0.0016-0.001,0.0026v2.7236
		c0,0.0137,0.0126,0.0217,0.0144,0.0349c0.0048,0.0402,0.0229,0.0689,0.043,0.1041c0.0195,0.0341,0.0341,0.0635,0.0649,0.0875
		c0.0106,0.0085,0.0112,0.0242,0.0233,0.0314L39.9639,36.3408z M48.8145,30.4794l-8.3789,5.0616v-2.2327l8.3789-5.1755V30.4794z
		 M39.8359,35.5651l-6.499-3.8882v-2.0385l6.499,3.6778V35.5651z M42.3701,24.082l6.1572,3.5229l-8.3984,5.188l-6.4873-3.6714
		L42.3701,24.082z"/>
	<path class="st2" d="M9.1802,21.8398c-1.105,0-1.9702,0.6934-1.9702,1.5781s0.8652,1.5781,1.9702,1.5781
		c1.1045,0,1.9697-0.6934,1.9697-1.5781S10.2847,21.8398,9.1802,21.8398z M9.1802,23.9961c-0.5718,0-0.9702-0.3047-0.9702-0.5781
		s0.3984-0.5781,0.9702-0.5781c0.5713,0,0.9697,0.3047,0.9697,0.5781S9.7515,23.9961,9.1802,23.9961z"/>
	<path class="st2" d="M23.3628,30.0161c-1.1045,0-1.9697,0.6929-1.9697,1.5776s0.8652,1.5781,1.9697,1.5781
		c1.105,0,1.9702-0.6934,1.9702-1.5781S24.4678,30.0161,23.3628,30.0161z M23.3628,32.1719c-0.5713,0-0.9697-0.3047-0.9697-0.5781
		s0.3984-0.5781,0.9697-0.5781c0.5718,0,0.9702,0.3047,0.9702,0.5781S23.9346,32.1719,23.3628,32.1719z"/>
	<path class="st2" d="M38.5566,38.9922c0-0.8848-0.8652-1.5781-1.9697-1.5781s-1.9697,0.6934-1.9697,1.5781
		s0.8652,1.5781,1.9697,1.5781S38.5566,39.877,38.5566,38.9922z M36.5869,39.5703c-0.5547,0-0.9697-0.3057-0.9697-0.5781
		c0-0.2734,0.3984-0.5781,0.9697-0.5781s0.9697,0.3047,0.9697,0.5781C37.5566,39.2646,37.1416,39.5703,36.5869,39.5703z"/>
	<path class="st2" d="M32.8691,24.8105l-1.724-1.0956l1.4267-0.8932l1.978,1.232c0.0488,0.0303,0.1035,0.0449,0.1582,0.0449
		c0.0996,0,0.1982-0.0498,0.2549-0.1411c0.0869-0.1406,0.0439-0.3257-0.0967-0.4136l-1.7284-1.0765l0.5829-0.3649
		c0.0109-0.0068,0.011-0.0211,0.0207-0.0291c0.0309-0.0244,0.0446-0.0552,0.0639-0.0898c0.0193-0.035,0.0383-0.0634,0.0425-0.103
		c0.0015-0.0123,0.0135-0.0198,0.0135-0.0325v-2.3623c0-0.0009-0.0009-0.0013-0.0009-0.0022c0-0.0013,0.0009-0.0024,0.0009-0.0037
		c-0.0013-0.0702-0.0338-0.1308-0.078-0.1827c-0.0116-0.0138-0.0221-0.0228-0.0359-0.0342
		c-0.0151-0.0127-0.0245-0.0308-0.0423-0.0403l-6.1304-3.3467c-0.0908-0.0498-0.2031-0.0483-0.2935,0.0034l-8.0933,4.6729
		c-0.0159,0.0092-0.0239,0.026-0.0376,0.0377c-0.0137,0.0114-0.0233,0.0211-0.0347,0.0347
		c-0.0443,0.0526-0.0759,0.114-0.0766,0.1848c0,0.001-0.001,0.0016-0.001,0.0026v2.3628c0,0.0134,0.0125,0.0214,0.0142,0.0344
		c0.0047,0.0397,0.023,0.0682,0.0428,0.1033c0.0195,0.0344,0.034,0.0643,0.065,0.0885c0.0104,0.0084,0.0108,0.0236,0.0225,0.0307
		l6.1572,3.7231c0.0479,0.0288,0.1016,0.043,0.1553,0.043c0.0552,0,0.1104-0.0151,0.1592-0.0454l0.9477-0.5933l1.9405,1.2862
		c0.0508,0.0337,0.1084,0.0498,0.165,0.0498c0.0977,0,0.1929-0.0469,0.2505-0.1343c0.0918-0.1377,0.0537-0.3242-0.0845-0.4155
		l-1.7133-1.1356l1.431-0.8958l1.9532,1.2678c0.0508,0.0327,0.1074,0.0483,0.1631,0.0483c0.0986,0,0.1948-0.0479,0.252-0.1367
		c0.0903-0.1387,0.0513-0.3247-0.0884-0.4146l-1.7192-1.1158l1.4292-0.8947l1.9658,1.2493
		c0.0498,0.0313,0.1055,0.0464,0.1611,0.0464c0.0986,0,0.1963-0.0488,0.2529-0.1387C33.0498,25.085,33.0088,24.8994,32.8691,24.8105
		z M25.7949,26.3564v-1.8888l7.4668-4.4537v1.6678L25.7949,26.3564z M19.6377,21.3267l5.5576,3.1455v1.8942l-5.5576-3.361V21.3267z
		 M27.4351,16.4834l5.521,3.0142l-7.4648,4.4521l-5.5488-3.1401L27.4351,16.4834z"/>
	<path class="st2" d="M24.252,16.2949c1.105,0,1.9702-0.6934,1.9702-1.5781s-0.8652-1.5776-1.9702-1.5776
		c-1.1045,0-1.9697,0.6929-1.9697,1.5776S23.1475,16.2949,24.252,16.2949z M24.252,14.1392c0.5718,0,0.9702,0.3042,0.9702,0.5776
		s-0.3984,0.5781-0.9702,0.5781c-0.5713,0-0.9697-0.3047-0.9697-0.5781S23.6807,14.1392,24.252,14.1392z"/>
	<path class="st2" d="M52.0674,32.2266c1.1045,0,1.9697-0.6934,1.9697-1.5776c0-0.8848-0.8652-1.5781-1.9697-1.5781
		c-1.1055,0-1.9707,0.6934-1.9707,1.5781C50.0967,31.5332,50.9619,32.2266,52.0674,32.2266z M52.0674,30.0708
		c0.5713,0,0.9697,0.3047,0.9697,0.5781s-0.3984,0.5776-0.9697,0.5776c-0.5723,0-0.9707-0.3042-0.9707-0.5776
		S51.4951,30.0708,52.0674,30.0708z"/>
</g>
</svg>
