<?xml version="1.0" encoding="utf-8"?>
<!-- Generator: Adobe Illustrator 21.0.0, SVG Export Plug-In . SVG Version: 6.00 Build 0)  -->
<svg version="1.1" id="Layer_1" xmlns="http://www.w3.org/2000/svg" xmlns:xlink="http://www.w3.org/1999/xlink" x="0px" y="0px"
	 viewBox="0 0 60 60" style="enable-background:new 0 0 60 60;" xml:space="preserve">
<g>
	<path d="M10.9922,25.3267l18.6299,11.106c0.0474,0.0283,0.1006,0.042,0.1538,0.042c0.0518,0,0.104-0.0137,0.1504-0.04
		l18.8618-10.9189c0.0918-0.0537,0.1494-0.1519,0.1494-0.2588c0.001-0.1064-0.0557-0.2056-0.1475-0.2593L30.0654,13.9697
		c-0.0928-0.0552-0.209-0.0562-0.3022-0.0015L10.9961,24.8091c-0.0923,0.0532-0.1494,0.1514-0.1499,0.2578
		C10.8452,25.1733,10.9009,25.272,10.9922,25.3267z M29.9116,14.5752L48.043,25.2534L29.7783,35.8271L11.7388,25.0728
		L29.9116,14.5752z"/>
	<path d="M58.9785,36.6816l-1.7285-0.999v-1.998c0-0.1738-0.0908-0.3359-0.2393-0.4268l-1.7588-1.076V25.207h-0.0004
		c0.0004-0.1771-0.0938-0.3416-0.2467-0.4312l-0.9718-0.5698l1.2706-0.7339c0.2393-0.1382,0.3213-0.4438,0.1826-0.6831
		c-0.1377-0.2407-0.4453-0.3213-0.6826-0.1831l-1.6934,0.978c-0.0222,0.0128-0.0358,0.0332-0.0552,0.0486l-1.6835-0.9872
		l1.2426-0.7172c0.2393-0.1382,0.3213-0.4438,0.1826-0.6831c-0.1377-0.2397-0.4443-0.3213-0.6826-0.1831l-1.6943,0.978
		c-0.0129,0.0074-0.0202,0.02-0.0322,0.0284l-1.6771-0.9835l1.2133-0.7007c0.2393-0.1382,0.3213-0.4438,0.1826-0.6831
		c-0.1377-0.2407-0.4434-0.3213-0.6826-0.1831l-1.6934,0.978c-0.0039,0.0023-0.0059,0.0062-0.0097,0.0085l-1.6719-0.9803
		l1.1855-0.684c0.2393-0.1382,0.3213-0.4438,0.1826-0.6831c-0.1377-0.2393-0.4434-0.3213-0.6826-0.1831l-1.678,0.9681
		l-1.6691-0.9787l1.1567-0.6677c0.2393-0.1382,0.3213-0.4438,0.1826-0.6831c-0.1377-0.2402-0.4443-0.3213-0.6826-0.1831
		l-1.6491,0.9519l-1.6688-0.9785l1.1274-0.6512c0.2393-0.1382,0.3213-0.4438,0.1826-0.6831
		c-0.1377-0.2402-0.4443-0.3213-0.6826-0.1831l-1.6198,0.9355l-1.669-0.9787l1.0993-0.6345
		c0.2393-0.1382,0.3213-0.4438,0.1826-0.6831c-0.1377-0.2402-0.4443-0.3213-0.6826-0.1831l-1.5917,0.9188l-1.6689-0.9786
		l1.0693-0.6179c0.2393-0.1382,0.3213-0.4443,0.1826-0.6831c-0.1387-0.2402-0.4473-0.3213-0.6826-0.1831l-1.5614,0.9023
		l-1.6692-0.9788l1.0411-0.6013c0.2393-0.1382,0.3213-0.4438,0.1826-0.6831c-0.1377-0.2402-0.4443-0.3213-0.6826-0.1831
		l-1.5334,0.8857l-1.1848-0.6948c-0.1558-0.0918-0.3477-0.0923-0.5024-0.002l-1.3876,0.7995
		c-0.0046-0.0029-0.0071-0.0077-0.0118-0.0104l-1.6938-0.978c-0.2388-0.1392-0.5449-0.0571-0.6831,0.1831
		c-0.1382,0.2393-0.0562,0.5449,0.1831,0.6831l1.2077,0.6973L25.9891,12.79c-0.0062-0.004-0.0096-0.0104-0.016-0.0141l-1.6943-0.978
		c-0.2388-0.1392-0.5449-0.0557-0.6831,0.1831c-0.1382,0.2393-0.0562,0.5449,0.1831,0.6831l1.2133,0.7004l-1.6894,0.9734
		c-0.0079-0.0051-0.0123-0.0133-0.0205-0.0181l-1.6934-0.978c-0.2397-0.1392-0.5454-0.0571-0.6831,0.1831
		c-0.1382,0.2393-0.0562,0.5449,0.1831,0.6831l1.2182,0.7036l-1.6905,0.9741c-0.0094-0.0063-0.0148-0.0162-0.0248-0.0219
		l-1.6929-0.978c-0.2393-0.1392-0.5454-0.0571-0.6831,0.1831c-0.1382,0.2388-0.0562,0.5449,0.1831,0.6831l1.2232,0.7067
		l-1.6913,0.9745c-0.0109-0.0074-0.0173-0.0188-0.0289-0.0255l-1.6929-0.978c-0.2397-0.1392-0.5454-0.0571-0.6831,0.1831
		c-0.1382,0.2388-0.0562,0.5449,0.1831,0.6831l1.2285,0.7097l-1.6924,0.9752c-0.0123-0.0087-0.0198-0.0215-0.0331-0.0292
		l-1.6929-0.9775c-0.2393-0.1382-0.5449-0.0571-0.6831,0.1831c-0.1382,0.2393-0.0562,0.5449,0.1831,0.6831l1.2335,0.7123
		l-1.6937,0.976c-0.0135-0.0098-0.0221-0.024-0.0369-0.0325l-1.6929-0.978c-0.2402-0.1382-0.5449-0.0571-0.6831,0.1831
		c-0.1382,0.2388-0.0562,0.5449,0.1831,0.6831l1.2385,0.7155L9.873,22.0762c-0.015-0.011-0.0245-0.0266-0.041-0.0361l-1.6929-0.978
		c-0.2393-0.1382-0.5454-0.0571-0.6831,0.1831c-0.1382,0.2388-0.0562,0.5449,0.1831,0.6831l1.2437,0.7185l-1.6956,0.9771
		c-0.0163-0.0123-0.027-0.0294-0.0451-0.0398l-1.6929-0.978c-0.2388-0.1382-0.5449-0.0571-0.6831,0.1831
		C4.6279,23.0278,4.71,23.334,4.9492,23.4722l1.2489,0.7215l-0.8265,0.4763c-0.1543,0.0884-0.2495,0.2524-0.2505,0.4302
		c0,0.001,0.0008,0.0019,0.0008,0.0029H5.1211V32.08l-1.9199,1.174c-0.1484,0.0908-0.2393,0.2529-0.2393,0.4268v1.9971l-1.73,1
		c-0.2393,0.1377-0.3213,0.4434-0.1831,0.6826c0.0928,0.1602,0.2607,0.25,0.4336,0.25c0.085,0,0.1709-0.0215,0.2495-0.0674
		l1.98-1.1436c0.1548-0.0889,0.25-0.2539,0.25-0.4326v-2.0059l1.2841-0.7851c0.0364,0.0443,0.0693,0.0919,0.1202,0.122
		l1.7734,1.0515l-1.0097,0.6116c-0.1494,0.0908-0.2407,0.2529-0.2407,0.4277v2.0039l-1.7202,0.9941
		c-0.2393,0.1377-0.3213,0.4434-0.1831,0.6826c0.0928,0.1602,0.2607,0.25,0.4336,0.25c0.085,0,0.1709-0.0215,0.2495-0.0674
		l1.9702-1.1387c0.1548-0.0889,0.25-0.2539,0.25-0.4326v-2.0107l1.2258-0.7423l1.9343,1.1469l-0.9907,0.5945
		c-0.1504,0.0908-0.2427,0.2529-0.2427,0.4287v2.0098l-1.71,0.9873c-0.2393,0.1377-0.3213,0.4434-0.1831,0.6826
		c0.0928,0.1602,0.2607,0.25,0.4336,0.25c0.085,0,0.1709-0.0215,0.2495-0.0674l1.96-1.1309c0.1548-0.0889,0.25-0.2539,0.25-0.4326
		v-2.0156l1.211-0.7267l1.9316,1.1453l-0.9697,0.5766c-0.1519,0.0898-0.2446,0.2529-0.2446,0.4297v2.0156l-1.7012,0.9824
		c-0.2393,0.1377-0.3213,0.4434-0.1831,0.6826c0.0928,0.1602,0.2607,0.25,0.4336,0.25c0.085,0,0.1709-0.0215,0.2495-0.0674
		l1.9512-1.126c0.1548-0.0889,0.25-0.2539,0.25-0.4326v-2.0205l1.1938-0.7097l1.9293,1.1439l-0.9497,0.559
		c-0.1528,0.0898-0.2466,0.2539-0.2466,0.4307v2.0215L12.98,43.5127c-0.2393,0.1377-0.3213,0.4434-0.1831,0.6826
		c0.0928,0.1602,0.2607,0.25,0.4336,0.25c0.085,0,0.1709-0.0215,0.2495-0.0674l1.9409-1.1211c0.1548-0.0889,0.25-0.2539,0.25-0.4326
		v-2.0244l1.1782-0.6937l1.9265,1.1422L17.8462,41.79c-0.1533,0.0889-0.248,0.2539-0.248,0.4316v2.0273l-1.6812,0.9717
		c-0.2393,0.1377-0.3213,0.4434-0.1831,0.6826c0.0928,0.1602,0.2607,0.25,0.4336,0.25c0.085,0,0.1709-0.0215,0.2495-0.0674
		l1.9312-1.1152c0.1548-0.0889,0.25-0.2539,0.25-0.4326v-2.0293l1.1614-0.6769l1.9242,1.1409l-0.9079,0.5244
		c-0.1548,0.0889-0.25,0.2539-0.25,0.4326v2.0332l-1.6719,0.9668c-0.2393,0.1377-0.3213,0.4434-0.1831,0.6826
		c0.0928,0.1602,0.2607,0.25,0.4336,0.25c0.085,0,0.1709-0.0215,0.2495-0.0674l1.9219-1.1104c0.1548-0.0889,0.25-0.2539,0.25-0.4326
		v-2.0332l1.1443-0.6611l1.9216,1.1393l-0.8867,0.5072c-0.1558,0.0889-0.252,0.2539-0.252,0.4336v2.04l-1.6621,0.9609
		c-0.2393,0.1377-0.3213,0.4434-0.1831,0.6826c0.0928,0.1602,0.2607,0.25,0.4336,0.25c0.085,0,0.1709-0.0215,0.2495-0.0674
		l1.9121-1.1045c0.1548-0.0889,0.25-0.2539,0.25-0.4326v-2.0391l1.127-0.6448l4.1132,2.4388
		c0.0786,0.0469,0.1665,0.0703,0.2549,0.0703c0.0864,0,0.1729-0.0225,0.25-0.0674l4.3279-2.4989l1.2326,0.705v2.0391
		c0,0.1787,0.0957,0.3438,0.25,0.4326l1.9121,1.1045c0.0791,0.0459,0.165,0.0674,0.25,0.0674c0.1719,0,0.3408-0.0898,0.4326-0.25
		c0.1387-0.2393,0.0566-0.5449-0.1826-0.6826l-1.6621-0.9609v-2.04c0-0.1797-0.0957-0.3447-0.252-0.4336l-0.9789-0.5597
		l1.9476-1.1245l1.21,0.6989v2.0342c0,0.1787,0.0957,0.3438,0.25,0.4326l1.9229,1.1104c0.0791,0.0459,0.165,0.0674,0.25,0.0674
		c0.1719,0,0.3408-0.0898,0.4326-0.25c0.1387-0.2393,0.0566-0.5449-0.1826-0.6826l-1.6729-0.9668v-2.0342
		c0-0.1787-0.0957-0.3438-0.25-0.4326l-0.9603-0.5544l1.9505-1.1262l1.1875,0.6923v2.0303c0,0.1787,0.0957,0.3438,0.25,0.4326
		l1.9316,1.1152c0.0791,0.0459,0.165,0.0674,0.25,0.0674c0.1719,0,0.3408-0.0898,0.4326-0.25
		c0.1387-0.2393,0.0566-0.5449-0.1826-0.6826l-1.6816-0.9717v-2.0283c0-0.1777-0.0947-0.3428-0.248-0.4316l-0.9423-0.5493
		l1.9517-1.127l1.1663,0.686v2.0254c0,0.1787,0.0957,0.3438,0.25,0.4326l1.9414,1.1201c0.0791,0.0459,0.165,0.0674,0.25,0.0674
		c0.1729,0,0.3408-0.0898,0.4326-0.25c0.1387-0.2393,0.0566-0.5449-0.1826-0.6826l-1.6914-0.9766v-2.0225
		c0-0.1768-0.0938-0.3408-0.2461-0.4307l-0.9248-0.5439l1.9542-1.1284l1.1434,0.6791v2.0205c0,0.1787,0.0957,0.3438,0.25,0.4326
		l1.9512,1.127c0.0791,0.0459,0.165,0.0674,0.25,0.0674c0.1719,0,0.3408-0.0898,0.4326-0.25
		c0.1387-0.2393,0.0566-0.5449-0.1826-0.6826l-1.7012-0.9834v-2.0156c0-0.1768-0.0928-0.3398-0.2451-0.4297l-0.906-0.5382
		l1.9568-1.1298l1.121,0.6729v2.0156c0,0.1787,0.0957,0.3438,0.25,0.4326l1.9619,1.1318c0.0791,0.0459,0.165,0.0674,0.25,0.0674
		c0.1729,0,0.3408-0.0898,0.4326-0.25c0.1387-0.2393,0.0566-0.5449-0.1826-0.6826l-1.7119-0.9883v-2.0098
		c0-0.1758-0.0918-0.3379-0.2422-0.4287l-0.8881-0.5331l1.9589-1.1311l1.1,0.6661v2.0107c0,0.1787,0.0957,0.3438,0.25,0.4326
		l1.9688,1.1377c0.0791,0.0459,0.165,0.0674,0.25,0.0674c0.1719,0,0.3398-0.0898,0.4326-0.25
		c0.1387-0.2393,0.0566-0.5449-0.1826-0.6826l-1.7188-0.9932v-2.0039c0-0.1748-0.0918-0.3369-0.2412-0.4277l-0.871-0.5275
		l1.7909-1.034c0.0529-0.0305,0.0878-0.0793,0.1254-0.1252l1.1226,0.6868v2.0059c0,0.1787,0.0947,0.3438,0.25,0.4326l1.9785,1.1436
		c0.0781,0.0459,0.165,0.0674,0.25,0.0674c0.1719,0,0.3398-0.0898,0.4326-0.25C59.2998,37.125,59.2178,36.8193,58.9785,36.6816z
		 M30.3096,11.4541l23.4482,13.7495L29.9517,38.9482L6.6118,25.1094L30.3096,11.4541z M28.394,43.0977
		c-0.1367-0.2393-0.4429-0.3232-0.6821-0.1855l-2.1226,1.2142l-1.9264-1.1422l1.5969-0.9225
		c0.2393-0.1377,0.3213-0.4434,0.1831-0.6826c-0.1387-0.2393-0.4458-0.3223-0.6831-0.1826l-2.0831,1.2031l-1.9287-1.1436
		l1.563-0.911c0.2383-0.1387,0.3188-0.4453,0.1802-0.6836c-0.1392-0.2383-0.4438-0.3203-0.6841-0.1797l-2.0432,1.1909
		l-1.9315-1.1452l1.5288-0.9001c0.2383-0.1396,0.3174-0.4463,0.1772-0.6846c-0.1396-0.2383-0.4458-0.3174-0.6841-0.1768
		l-2.0037,1.1794l-1.9341-1.1469l1.4969-0.89c0.2373-0.1406,0.3154-0.4482,0.1743-0.6855s-0.4478-0.3164-0.6851-0.1738
		l-1.9656,1.1686l-1.9361-1.148l1.4632-0.8781c0.2368-0.1416,0.3135-0.4492,0.1714-0.6855s-0.4487-0.3154-0.686-0.1719
		l-1.9261,1.1558l-1.9387-1.1495l1.4313-0.8667c0.2358-0.1436,0.3115-0.4502,0.1685-0.6865
		c-0.1436-0.2354-0.4502-0.3105-0.687-0.1689l-1.8882,1.1437l-1.9403-1.1505l1.3978-0.8546
		c0.2358-0.1445,0.3101-0.4521,0.166-0.6875c-0.1436-0.2358-0.4521-0.3096-0.6875-0.166l-0.9243,0.5652v-5.4877l23.3271,13.8309
		v6.6027l-2.8708-1.7022l1.6306-0.9329C28.4478,43.6426,28.5313,43.3369,28.394,43.0977z M52.235,33.8462l-2.0212-1.2241
		c-0.2344-0.1406-0.543-0.0674-0.6865,0.1689c-0.1426,0.2363-0.0674,0.543,0.1689,0.6865l1.5508,0.9391l-1.9633,1.1336
		l-2.0212-1.2133c-0.2373-0.1416-0.5439-0.0645-0.6865,0.1709c-0.1426,0.2373-0.0654,0.5439,0.1709,0.6865l1.546,0.928
		l-1.962,1.1328l-2.0225-1.2015c-0.2363-0.1416-0.543-0.0635-0.6846,0.1748c-0.1416,0.2373-0.0635,0.5439,0.1738,0.6846
		l1.5408,0.9152l-1.9591,1.1312l-2.0231-1.1899c-0.2383-0.1387-0.5439-0.0615-0.6846,0.1768s-0.0605,0.5449,0.1768,0.6846
		l1.5356,0.9033l-1.9562,1.1296l-2.0228-1.1793c-0.2383-0.1416-0.5449-0.0596-0.6836,0.1797
		c-0.1396,0.2383-0.0586,0.5449,0.1797,0.6836l1.5296,0.8918l-1.9553,1.129l-2.0235-1.1683
		c-0.2383-0.1387-0.5459-0.0566-0.6826,0.1826c-0.1387,0.2393-0.0566,0.5449,0.1826,0.6826l1.524,0.8802l-1.9526,1.1274L32.5,42.916
		c-0.2383-0.1377-0.5449-0.0557-0.6816,0.1855c-0.1377,0.2393-0.0547,0.5449,0.1855,0.6816l1.518,0.8682l-3.0737,1.7748v-6.6105
		L54.252,26.0731V31.57l-1.085-0.6638c-0.2324-0.1436-0.543-0.0713-0.6875,0.166c-0.1436,0.2354-0.0693,0.543,0.166,0.6875
		l1.5552,0.9514L52.235,33.8462z"/>
	<path d="M25.343,22.166c-0.878-0.484-1.337-0.737-2.321-1.278c1.283-0.746,1.9951-1.162,3.037-1.785
		c1.028,0.5959,1.514,0.877,2.449,1.4189c0.16-0.092,0.238-0.136,0.385-0.2209c-1.077-0.625-1.638-0.951-2.835-1.645
		c-2.238,1.353-4.978,2.925-6.69,3.914c0.153,0.084,0.229,0.126,0.379,0.208c0.774-0.444,1.454-0.835,2.787-1.607
		c0.986,0.538,1.444,0.788,2.321,1.268C25.049,22.331,25.147,22.276,25.343,22.166z"/>
	<path d="M28.312,23.981c0.68-0.044,1.402-0.258,2.123-0.626c1.429-0.73,1.463-1.311,0.364-1.95
		c-0.453-0.262-0.683-0.396-1.152-0.668c-2.3199,1.305-4.8539,2.711-6.835,3.737c0.123,0.069,0.184,0.103,0.305,0.171
		c0.831-0.424,1.447-0.753,2.677-1.418c0.284,0.155,0.424,0.232,0.701,0.383C27.035,23.905,27.631,24.025,28.312,23.981z
		 M26.245,22.982c1.4-0.76,2.185-1.192,3.352-1.839c0.312,0.181,0.466,0.27,0.77,0.447c0.457,0.265,0.67,0.519,0.63,0.772
		s-0.336,0.52-0.91,0.816c-0.623,0.321-1.201,0.5-1.706,0.525c-0.505,0.026-1.002-0.097-1.509-0.376
		C26.624,23.191,26.499,23.122,26.245,22.982z"/>
	<path d="M31.455,25.616c-0.204,0.097-0.307,0.145-0.511,0.2419c0.512,0.284,0.77,0.427,1.299,0.72
		c-1.083,0.507-1.634,0.762-2.607,1.191c-0.465-0.081-0.89-0.236-1.279-0.456c-0.601-0.34-0.801-0.688-0.579-1.1
		s0.904-0.896,2.069-1.467c1.07-0.524,2.072-0.847,2.983-0.94c0.912-0.093,1.619,0.044,2.184,0.372
		c0.399,0.232,0.653,0.517,0.751,0.866c0.222-0.055,0.331-0.082,0.546-0.133c-0.1089-0.343-0.405-0.645-0.873-0.916
		c-0.433-0.251-0.948-0.412-1.564-0.469c-0.616-0.058-1.286-0.004-2.043,0.18c-0.756,0.183-1.542,0.481-2.328,0.87
		c-1.261,0.624-2.005,1.163-2.256,1.63c-0.251,0.466-0.027,0.85,0.629,1.228c0.5031,0.289,1.099,0.507,1.812,0.631
		c1.24-0.543,1.977-0.887,3.38-1.55C32.409,26.147,32.089,25.969,31.455,25.616z"/>
	<path d="M30.224,28.697c1.206-0.263,1.881-0.44,3.208-0.796c0.786,0.434,1.195,0.661,2.072,1.147
		c-0.708,0.694-1.05,1.044-1.653,1.73c0.188,0.108,0.284,0.163,0.479,0.274c1.668-2.002,3.024-3.145,4.787-4.851
		c-0.08-0.046-0.12-0.069-0.199-0.115c-3.2,0.873-5.645,1.668-9.054,2.404C30.007,28.572,30.079,28.613,30.224,28.697z
		 M37.317,26.811c0.315-0.087,0.988-0.312,0.991-0.3069c0,0-0.461,0.389-0.602,0.521c-0.735,0.663-1.132,1.016-1.877,1.718
		c-0.756-0.42-1.114-0.619-1.804-1.002C35.373,27.37,36.057,27.172,37.317,26.811z"/>
</g>
</svg>
