<?xml version="1.0" encoding="utf-8"?>
<!-- Generator: Adobe Illustrator 21.0.0, SVG Export Plug-In . SVG Version: 6.00 Build 0)  -->
<svg version="1.1" id="Layer_1" xmlns="http://www.w3.org/2000/svg" xmlns:xlink="http://www.w3.org/1999/xlink" x="0px" y="0px"
	 viewBox="0 0 60 60" style="enable-background:new 0 0 60 60;" xml:space="preserve">
<style type="text/css">
	.st0{display:none;opacity:0.2;}
	.st1{display:inline;fill:none;stroke:#00ADEE;stroke-width:0.125;stroke-miterlimit:10;}
	.st2{fill:#231F20;}
</style>
<g class="st0">
	<path class="st1" d="M-0.375-1.557"/>
	<line class="st1" x1="1.875" y1="62.156" x2="1.875" y2="-1.36"/>
	<line class="st1" x1="4.125" y1="62.353" x2="4.125" y2="-1.557"/>
	<line class="st1" x1="6.375" y1="61.959" x2="6.375" y2="-1.311"/>
	<line class="st1" x1="8.625" y1="62.746" x2="8.625" y2="-1.655"/>
	<line class="st1" x1="10.875" y1="62.353" x2="10.875" y2="-1.508"/>
	<line class="st1" x1="13.125" y1="62.5" x2="13.125" y2="-1.606"/>
	<line class="st1" x1="15.375" y1="62.353" x2="15.375" y2="-1.557"/>
	<line class="st1" x1="17.625" y1="62.5" x2="17.625" y2="-1.902"/>
	<line class="st1" x1="19.875" y1="62.156" x2="19.875" y2="-1.655"/>
	<line class="st1" x1="22.125" y1="62.303" x2="22.125" y2="-1.852"/>
	<line class="st1" x1="24.375" y1="62.106" x2="24.375" y2="-1.458"/>
	<line class="st1" x1="26.625" y1="62.254" x2="26.625" y2="-1.508"/>
	<line class="st1" x1="28.875" y1="62.303" x2="28.875" y2="-1.508"/>
	<line class="st1" x1="31.125" y1="62.057" x2="31.125" y2="-1.458"/>
	<line class="st1" x1="33.375" y1="62.106" x2="33.375" y2="-1.409"/>
	<line class="st1" x1="35.625" y1="62.353" x2="35.625" y2="-1.606"/>
	<line class="st1" x1="37.875" y1="62.156" x2="37.875" y2="-1.557"/>
	<line class="st1" x1="40.125" y1="62.451" x2="40.125" y2="-1.508"/>
	<line class="st1" x1="42.375" y1="62.254" x2="42.375" y2="-1.36"/>
	<line class="st1" x1="44.625" y1="62.106" x2="44.625" y2="-1.508"/>
	<line class="st1" x1="46.875" y1="62.156" x2="46.875" y2="-1.508"/>
	<line class="st1" x1="49.125" y1="62.106" x2="49.125" y2="-1.508"/>
	<line class="st1" x1="51.375" y1="61.86" x2="51.375" y2="-1.557"/>
	<line class="st1" x1="53.625" y1="62.156" x2="53.625" y2="-1.754"/>
	<line class="st1" x1="55.875" y1="62.156" x2="55.875" y2="-1.606"/>
	<line class="st1" x1="58.125" y1="62.451" x2="58.125" y2="-1.606"/>
	<line class="st1" x1="0.707" y1="62.173" x2="-1.49" y2="60.904"/>
	<line class="st1" x1="5.116" y1="62.12" x2="-1.544" y2="58.275"/>
	<line class="st1" x1="9.971" y1="62.325" x2="-1.555" y2="55.67"/>
	<line class="st1" x1="14.59" y1="62.394" x2="-1.607" y2="53.042"/>
	<line class="st1" x1="18.865" y1="62.263" x2="-1.499" y2="50.506"/>
	<line class="st1" x1="23.182" y1="62.158" x2="-1.459" y2="47.931"/>
	<line class="st1" x1="27.736" y1="62.189" x2="-1.529" y2="45.293"/>
	<line class="st1" x1="32.049" y1="62.081" x2="-1.465" y2="42.732"/>
	<line class="st1" x1="36.749" y1="62.196" x2="-1.522" y2="40.101"/>
	<line class="st1" x1="41.271" y1="62.209" x2="-1.645" y2="37.431"/>
	<line class="st1" x1="45.801" y1="62.226" x2="-1.572" y2="34.876"/>
	<line class="st1" x1="50.08" y1="62.099" x2="-1.576" y2="32.275"/>
	<line class="st1" x1="54.737" y1="62.19" x2="-1.594" y2="29.667"/>
	<line class="st1" x1="59.428" y1="62.3" x2="-1.647" y2="27.038"/>
	<line class="st1" x1="61.539" y1="60.921" x2="-1.545" y2="24.499"/>
	<line class="st1" x1="61.758" y1="58.449" x2="-1.458" y2="21.951"/>
	<line class="st1" x1="61.545" y1="55.728" x2="-1.525" y2="19.314"/>
	<line class="st1" x1="61.597" y1="53.16" x2="-1.558" y2="16.697"/>
	<line class="st1" x1="61.527" y1="50.521" x2="-1.469" y2="14.15"/>
	<line class="st1" x1="61.65" y1="47.994" x2="-1.472" y2="11.551"/>
	<line class="st1" x1="61.538" y1="45.331" x2="-1.42" y2="8.983"/>
	<line class="st1" x1="61.48" y1="42.7" x2="-1.375" y2="6.41"/>
	<polyline class="st1" points="61.578,40.158 -1.135,3.951 -1.529,3.723 	"/>
	<polyline class="st1" points="61.514,37.524 -1.248,1.288 -2.111,0.79 	"/>
	<polyline class="st1" points="61.544,34.943 0,-0.59 -1.761,-1.606 	"/>
	<line class="st1" x1="61.353" y1="32.234" x2="2.933" y2="-1.494"/>
	<line class="st1" x1="61.482" y1="29.711" x2="7.489" y2="-1.462"/>
	<line class="st1" x1="61.479" y1="27.111" x2="11.988" y2="-1.463"/>
	<line class="st1" x1="61.458" y1="24.501" x2="16.186" y2="-1.637"/>
	<line class="st1" x1="61.361" y1="21.847" x2="20.651" y2="-1.657"/>
	<line class="st1" x1="61.563" y1="19.365" x2="25.485" y2="-1.464"/>
	<line class="st1" x1="61.605" y1="16.791" x2="30.1" y2="-1.398"/>
	<line class="st1" x1="61.433" y1="14.094" x2="34.593" y2="-1.402"/>
	<line class="st1" x1="61.589" y1="11.586" x2="38.944" y2="-1.488"/>
	<line class="st1" x1="61.366" y1="8.86" x2="43.447" y2="-1.486"/>
	<line class="st1" x1="61.599" y1="6.396" x2="48.098" y2="-1.399"/>
	<line class="st1" x1="61.587" y1="3.79" x2="52.221" y2="-1.617"/>
	<line class="st1" x1="61.605" y1="1.203" x2="56.949" y2="-1.485"/>
	<path class="st1" d="M61.536-1.435"/>
	<path class="st1" d="M-57.75-91.089"/>
	<path class="st1" d="M-56.625-93.038"/>
	<path class="st1" d="M-55.5-94.987"/>
	<path class="st1" d="M-54.375-96.935"/>
	<path class="st1" d="M-53.25-98.884"/>
	<path class="st1" d="M-52.125-100.832"/>
	<path class="st1" d="M-51-102.781"/>
	<path class="st1" d="M-49.875-104.729"/>
	<path class="st1" d="M-48.75-106.678"/>
	<path class="st1" d="M61.631,62.121"/>
	<line class="st1" x1="56.838" y1="62.29" x2="61.535" y2="59.579"/>
	<line class="st1" x1="52.761" y1="62.046" x2="61.655" y2="56.911"/>
	<line class="st1" x1="48.248" y1="62.054" x2="61.639" y2="54.322"/>
	<line class="st1" x1="43.747" y1="62.054" x2="61.555" y2="51.773"/>
	<line class="st1" x1="38.977" y1="62.211" x2="61.555" y2="49.175"/>
	<line class="st1" x1="34.718" y1="62.071" x2="61.602" y2="46.55"/>
	<line class="st1" x1="30.312" y1="62.017" x2="61.607" y2="43.949"/>
	<line class="st1" x1="25.399" y1="62.256" x2="61.575" y2="41.369"/>
	<line class="st1" x1="21.12" y1="62.128" x2="61.516" y2="38.805"/>
	<line class="st1" x1="16.295" y1="62.315" x2="61.616" y2="36.149"/>
	<line class="st1" x1="11.778" y1="62.325" x2="61.415" y2="33.667"/>
	<line class="st1" x1="6.949" y1="62.515" x2="61.557" y2="30.987"/>
	<line class="st1" x1="3.231" y1="62.064" x2="61.44" y2="28.457"/>
	<line class="st1" x1="-1.62" y1="62.266" x2="61.498" y2="25.825"/>
	<line class="st1" x1="-1.625" y1="59.671" x2="61.567" y2="23.187"/>
	<line class="st1" x1="-1.398" y1="56.942" x2="61.477" y2="20.641"/>
	<line class="st1" x1="-1.514" y1="54.411" x2="61.651" y2="17.943"/>
	<line class="st1" x1="-1.367" y1="51.728" x2="61.481" y2="15.443"/>
	<line class="st1" x1="-1.426" y1="49.164" x2="61.624" y2="12.762"/>
	<line class="st1" x1="-1.554" y1="46.64" x2="61.559" y2="10.201"/>
	<line class="st1" x1="-1.659" y1="44.102" x2="61.506" y2="7.634"/>
	<line class="st1" x1="-1.549" y1="41.441" x2="61.496" y2="5.042"/>
	<line class="st1" x1="-1.501" y1="38.815" x2="61.691" y2="2.331"/>
	<line class="st1" x1="-1.687" y1="36.324" x2="61.659" y2="-0.249"/>
	<line class="st1" x1="-1.522" y1="33.631" x2="59.322" y2="-1.497"/>
	<line class="st1" x1="-1.64" y1="31.101" x2="55.116" y2="-1.667"/>
	<line class="st1" x1="-1.454" y1="28.396" x2="50.498" y2="-1.599"/>
	<line class="st1" x1="-1.477" y1="25.811" x2="46.01" y2="-1.606"/>
	<line class="st1" x1="-1.619" y1="23.295" x2="41.374" y2="-1.527"/>
	<line class="st1" x1="-1.589" y1="20.679" x2="36.704" y2="-1.429"/>
	<line class="st1" x1="-1.499" y1="18.029" x2="32.345" y2="-1.51"/>
	<line class="st1" x1="-1.488" y1="15.425" x2="27.96" y2="-1.577"/>
	<line class="st1" x1="-1.537" y1="12.855" x2="23.453" y2="-1.573"/>
	<line class="st1" x1="-1.447" y1="10.205" x2="19.027" y2="-1.616"/>
	<polyline class="st1" points="-1.57,7.678 -0.992,7.344 14.636,-1.679 	"/>
	<line class="st1" x1="-1.692" y1="5.15" x2="9.935" y2="-1.562"/>
	<line class="st1" x1="-1.256" y1="2.301" x2="4.909" y2="-1.259"/>
	<path class="st1" d="M0.826-1.5"/>
</g>
<g>
	<path class="st2" d="M58.5957,30.9731c0-0.0068-0.0048-0.0123-0.0051-0.0191c-0.003-0.074-0.0226-0.142-0.0545-0.2045
		c-0.0104-0.0205-0.0231-0.037-0.0362-0.056c-0.0341-0.0494-0.0753-0.0903-0.1246-0.1248
		c-0.0118-0.0082-0.0171-0.0225-0.0297-0.0297L23.3481,10.333c-0.1543-0.0889-0.3457-0.0894-0.501,0.0005l-2.4902,1.4438h0.0005
		L1.9809,22.4271c-0.2025,0.0599-0.3248,0.2522-0.329,0.4689L1.564,27.395c-0.0034,0.1816,0.0918,0.3511,0.249,0.4424
		l16.8248,9.7679c0.0457,0.06,0.1083,0.0957,0.186,0.108l17.8461,10.3609c0.0064,0.0037,0.0142,0.0021,0.0208,0.0056
		c0.0669,0.0354,0.1398,0.0604,0.2205,0.0618c0.0039,0,0.0068,0,0.0098,0c0.0826,0,0.1573-0.0253,0.2263-0.061
		c0.0075-0.0038,0.0164-0.0021,0.0237-0.0064l21.0869-12.1738c0.1514-0.0869,0.2461-0.248,0.25-0.4229l0.0879-4.4956
		c0.0001-0.0018-0.001-0.0034-0.001-0.0052C58.5947,30.9754,58.5957,30.9744,58.5957,30.9731z M20.8584,12.6426
		c0.0005,0,0.0005,0,0.0005,0l2.2397-1.2988l33.9932,19.6265l-20.082,11.4839l-2.637-1.5225l1.7659-1.082
		c0.0928-0.0566,0.1475-0.1592,0.1436-0.2676s-0.0664-0.2061-0.1631-0.2559l-2.8457-1.4541
		c-0.0898-0.0449-0.1982-0.042-0.2871,0.0078l-1.9492,1.1259l-2.8464-1.6434l1.7585-1.0537
		c0.0928-0.0566,0.1484-0.1582,0.1455-0.2666s-0.0645-0.2061-0.1602-0.2568l-2.834-1.4902
		c-0.0908-0.0469-0.2007-0.0459-0.2891,0.0059l-1.9657,1.1302l-2.8377-1.6384l1.7507-1.027
		c0.0933-0.0547,0.1499-0.1553,0.1479-0.2637s-0.062-0.208-0.1572-0.2588l-2.8218-1.5254
		c-0.0903-0.0488-0.2007-0.0479-0.2915,0.0039l-1.9841,1.1334l-2.8265-1.632l1.7437-0.9999
		c0.0938-0.0537,0.1514-0.1543,0.1504-0.2622c-0.0005-0.1084-0.0596-0.208-0.1543-0.2603l-2.812-1.5601
		c-0.0928-0.0518-0.2036-0.0513-0.2939,0.0015l-1.8201,1.0353c-0.0727,0.0137-0.133,0.0448-0.1771,0.1007l-0.0027,0.0015
		l-2.815-1.6252l1.7343-0.9727c0.0942-0.0527,0.1528-0.1523,0.1528-0.2607c0.0005-0.1079-0.0571-0.208-0.1514-0.2617l-2.7998-1.5957
		c-0.0908-0.0522-0.2046-0.0522-0.2964-0.0005L6.268,24.7048l-3.1176-1.8L20.8584,12.6426z M6.8712,25.053l1.5605-0.8836
		l2.1909,1.2485L9.04,26.3052L6.8712,25.053z M8.6372,27.2276v3.415l-2.0806-1.2079v-3.4083L8.6372,27.2276z M9.2368,27.5738
		l3.1514,1.8195v3.427l-3.1514-1.8295V27.5738z M13.0669,28.6245l1.543-0.8774l2.1997,1.2202l-1.5849,0.9088L13.21,28.7128
		L13.0669,28.6245z M12.9878,29.7394l2.0044,1.1573v3.4353l-2.0044-1.1637V29.7394z M15.5918,31.2429l2.9736,1.7169v3.4467
		l-2.9736-1.7264V31.2429z M19.2881,32.1826l1.501-0.8574l2.2065,1.1924L21.41,33.4473l-1.1642-0.6722L19.2881,32.1826z
		 M19.165,33.306l2.1602,1.2471v3.4556l-2.1602-1.2542V33.306z M21.9248,34.8993l2.7124,1.566v3.4662l-2.7124-1.5747V34.8993z
		 M25.5083,35.7422l1.459-0.8389l2.2153,1.1641l-1.5872,0.9512l-0.3784-0.2185L25.5083,35.7422z M25.2368,36.8115l2.3584,1.3616
		v3.4756l-2.3584-1.3692V36.8115z M28.1948,38.5193l2.6499,1.53v3.486l-2.6499-1.5385V38.5193z M31.7285,39.2998l1.417-0.8184
		l2.2236,1.1357l-1.5742,0.9648L31.7285,39.2998z M31.4443,40.3955l2.0498,1.1835v3.4945l-2.0498-1.1901V40.3955z M34.0938,41.9252
		l2.4094,1.3911l-0.0661,3.4658l-2.3433-1.3605V41.9252z M2.6353,23.7623l3.3217,1.9178v3.4064l-3.3872-1.9665L2.6353,23.7623z
		 M37.4378,46.7656l0.0656-3.4418l20.0751-11.48l-0.0649,3.332L37.4378,46.7656z"/>
	<path class="st2" d="M41.487,31.3217c-0.0135,0.0114-0.0231,0.0211-0.0345,0.0346c-0.0446,0.0529-0.0768,0.1147-0.0768,0.1859
		c0,0.0007-0.0007,0.001-0.0007,0.0017v1.7148c0,0.013,0.0121,0.0207,0.0137,0.0333c0.0045,0.04,0.0231,0.0685,0.0429,0.1039
		c0.0193,0.0343,0.0334,0.0646,0.0643,0.0887c0.0101,0.0082,0.0103,0.0229,0.0217,0.03l2.8652,1.7598
		c0.0488,0.0293,0.1025,0.0439,0.1572,0.0439c0.0537,0,0.1074-0.0146,0.1553-0.043l5.6621-3.4199
		c0.0117-0.0071,0.012-0.0221,0.0223-0.0304c0.0313-0.0243,0.0458-0.0544,0.0654-0.089c0.0198-0.0351,0.038-0.0635,0.0427-0.1033
		c0.0017-0.0129,0.0141-0.0208,0.0141-0.0342v-1.9219c0-0.0007-0.0007-0.0011-0.0007-0.0018c0-0.0011,0.0007-0.002,0.0007-0.0031
		c-0.0013-0.0704-0.0337-0.1313-0.0779-0.1835c-0.0111-0.0132-0.0207-0.0225-0.0339-0.0335c-0.014-0.012-0.0223-0.029-0.0386-0.0383
		l-2.6543-1.5239c-0.0918-0.0527-0.2061-0.0532-0.2998,0.0005l-5.873,3.3911C41.5086,31.2933,41.5007,31.3101,41.487,31.3217z
		 M49.9023,31.4291l-5.0518,3.051v-1.1453l5.0518-3.1204V31.4291z M44.251,34.4888l-2.2764-1.3983v-1.0324l2.2764,1.2846V34.4888z
		 M47.5479,28.499l2.0684,1.187l-5.0723,3.1333l-2.2637-1.2783L47.5479,28.499z"/>
	<path class="st2" d="M35.2993,27.7791c-0.0134,0.0112-0.0229,0.0208-0.0342,0.0342c-0.0444,0.0526-0.0761,0.114-0.0765,0.1851
		c0,0.001-0.001,0.0016-0.001,0.0026v1.7139c0,0.0129,0.0121,0.0206,0.0137,0.0331c0.0045,0.0399,0.023,0.0682,0.0427,0.1034
		c0.0195,0.0346,0.0337,0.065,0.0648,0.0894c0.0099,0.0081,0.0102,0.0226,0.0214,0.0295l2.8643,1.7612
		c0.0479,0.0293,0.1025,0.0439,0.1572,0.0439c0.0537,0,0.1074-0.0146,0.1553-0.043l5.6631-3.4204
		c0.0117-0.0071,0.0121-0.0223,0.0225-0.0306c0.0309-0.0242,0.0455-0.054,0.065-0.0883c0.02-0.0352,0.0382-0.0637,0.0428-0.1036
		c0.0017-0.0129,0.0142-0.0209,0.0142-0.0342v-1.9224c0-0.0007-0.0007-0.0011-0.0007-0.0018c0-0.0011,0.0007-0.002,0.0007-0.0031
		c-0.0013-0.0704-0.0337-0.1313-0.0779-0.1835c-0.0111-0.0132-0.0207-0.0225-0.0339-0.0335c-0.014-0.012-0.0223-0.029-0.0386-0.0383
		l-2.6533-1.5229c-0.0918-0.0527-0.2061-0.0532-0.2998,0.0005l-5.874,3.3911C35.321,27.7504,35.313,27.7673,35.2993,27.7791z
		 M43.7148,27.8856l-5.0508,3.0503v-1.1446l5.0508-3.1207V27.8856z M38.0645,30.947l-2.2773-1.3998v-1.0326l2.2773,1.2848V30.947z
		 M41.3613,24.9561l2.0674,1.186l-5.0713,3.1338l-2.2646-1.2778L41.3613,24.9561z"/>
	<path class="st2" d="M29.1123,24.2349c-0.0137,0.0114-0.0233,0.0211-0.0347,0.0347c-0.0443,0.0526-0.0759,0.114-0.0766,0.1848
		c0,0.001-0.001,0.0016-0.001,0.0026v1.7148c0,0.0129,0.0121,0.0206,0.0137,0.0331c0.0045,0.0401,0.0232,0.0687,0.0431,0.1041
		c0.0194,0.0342,0.0334,0.0644,0.0643,0.0886c0.01,0.0081,0.0103,0.0227,0.0215,0.0296l2.8652,1.7603
		c0.0488,0.0298,0.1025,0.0444,0.1572,0.0444c0.0537,0,0.1074-0.0142,0.1553-0.043l5.6621-3.4209
		c0.0117-0.0071,0.0121-0.0223,0.0225-0.0306c0.0309-0.0242,0.0455-0.054,0.065-0.0883c0.02-0.0352,0.0382-0.0637,0.0428-0.1036
		c0.0017-0.0129,0.0142-0.0209,0.0142-0.0342v-1.9224c0-0.0007-0.0007-0.0011-0.0007-0.0018c0-0.0011,0.0007-0.002,0.0007-0.0031
		c-0.0013-0.0704-0.0337-0.1313-0.0779-0.1835c-0.0111-0.0132-0.0207-0.0225-0.0339-0.0335c-0.014-0.012-0.0223-0.029-0.0386-0.0383
		l-2.6543-1.5229c-0.0918-0.0527-0.2061-0.0532-0.2998,0.0005l-5.8726,3.3911C29.134,24.2064,29.126,24.2233,29.1123,24.2349z
		 M37.5273,24.3417l-5.0518,3.0522v-1.1457l5.0518-3.1216V24.3417z M31.876,27.4028l-2.2764-1.3991v-1.0328l2.2764,1.2855V27.4028z
		 M35.1729,21.4121l2.0684,1.1865l-5.0723,3.1338l-2.2642-1.2783L35.1729,21.4121z"/>
	<path class="st2" d="M22.9243,20.691c-0.0137,0.0114-0.0233,0.0211-0.0347,0.0347c-0.0443,0.0526-0.0759,0.114-0.0766,0.1848
		c0,0.001-0.001,0.0016-0.001,0.0026v1.7148c0,0.0129,0.0121,0.0206,0.0137,0.0331c0.0045,0.0401,0.0232,0.0687,0.0431,0.1041
		c0.0194,0.0342,0.0334,0.0644,0.0643,0.0886c0.01,0.0081,0.0103,0.0227,0.0215,0.0296l2.8652,1.7603
		c0.0483,0.0298,0.1025,0.0444,0.1572,0.0444c0.0537,0,0.1074-0.0142,0.1553-0.043l5.6626-3.4204
		c0.0117-0.0071,0.0121-0.0223,0.0225-0.0306c0.0309-0.0242,0.0455-0.054,0.065-0.0883c0.02-0.0352,0.0382-0.0637,0.0428-0.1036
		c0.0017-0.0129,0.0142-0.0209,0.0142-0.0342v-1.9219c0-0.0007-0.0007-0.0011-0.0007-0.0018c0-0.0011,0.0007-0.002,0.0007-0.0031
		c-0.0013-0.0704-0.0337-0.1313-0.0779-0.1835c-0.0111-0.0132-0.0207-0.0225-0.0339-0.0335c-0.014-0.012-0.0223-0.029-0.0386-0.0383
		l-2.6538-1.5239c-0.0928-0.0527-0.2065-0.0532-0.2993,0.0005l-5.874,3.3911C22.946,20.6625,22.938,20.6793,22.9243,20.691z
		 M31.3398,20.7983l-5.0513,3.0515v-1.1451l5.0513-3.121V20.7983z M25.689,23.8592l-2.2773-1.3995v-1.0329l2.2773,1.2855V23.8592z
		 M28.9863,17.8682l2.0674,1.187l-5.0718,3.1338l-2.2651-1.2788L28.9863,17.8682z"/>
	<path class="st2" d="M16.6817,19.2208c0.0195,0.0344,0.0335,0.0647,0.0645,0.089c0.01,0.0081,0.0102,0.0227,0.0214,0.0296
		l2.8652,1.7612c0.0483,0.0298,0.1025,0.0444,0.1572,0.0444c0.0537,0,0.1074-0.0142,0.1553-0.043l5.6621-3.4214
		c0.0118-0.0071,0.0121-0.0223,0.0226-0.0307c0.0309-0.0241,0.0453-0.054,0.0648-0.0883c0.0199-0.0351,0.0382-0.0636,0.0428-0.1035
		c0.0017-0.013,0.0143-0.021,0.0143-0.0344V15.502c0-0.0007-0.0007-0.0011-0.0007-0.0018c0-0.0011,0.0007-0.002,0.0007-0.0031
		c-0.001-0.0706-0.0337-0.1317-0.0782-0.184c-0.0109-0.0129-0.0203-0.022-0.0333-0.0329c-0.014-0.012-0.0225-0.0291-0.0389-0.0385
		l-2.6543-1.5229c-0.0928-0.0527-0.2065-0.0532-0.2993,0.0005l-5.873,3.3911c-0.0159,0.0092-0.0239,0.026-0.0376,0.0377
		c-0.0137,0.0114-0.0233,0.0211-0.0347,0.0347c-0.0443,0.0526-0.0759,0.114-0.0766,0.1848c0,0.001-0.001,0.0016-0.001,0.0026v1.7139
		c0,0.013,0.0122,0.0208,0.0138,0.0333C16.6432,19.1572,16.662,19.1856,16.6817,19.2208z M25.1523,17.2543l-5.0518,3.0526v-1.1461
		l5.0518-3.1208V17.2543z M19.501,20.3151l-2.2764-1.3989v-1.0325l2.2764,1.2846V20.3151z M22.7983,14.3252l2.0674,1.186
		l-5.0718,3.1338l-2.2642-1.2778L22.7983,14.3252z"/>
	<path class="st2" d="M40.4844,36.6152l-2.8447-1.4551c-0.0908-0.0479-0.1982-0.0439-0.2871,0.0068l-1.9932,1.1514
		c-0.0908,0.0527-0.1475,0.1494-0.1494,0.2549s0.0518,0.2041,0.1416,0.2598l2.6504,1.6436
		c0.0488,0.0303,0.1035,0.0449,0.1582,0.0449s0.1084-0.0146,0.1563-0.0439l2.1875-1.3398c0.0928-0.0566,0.1475-0.1592,0.1436-0.2676
		S40.5811,36.6641,40.4844,36.6152z M38.1611,37.8691l-2.0674-1.2822l1.418-0.8184l2.2236,1.1367L38.1611,37.8691z"/>
	<path class="st2" d="M34.2998,33.0723l-2.834-1.4902c-0.0918-0.0459-0.2012-0.0469-0.2891,0.0059l-2.0381,1.1709
		c-0.0918,0.0527-0.1489,0.1494-0.1504,0.2549c-0.002,0.1055,0.0522,0.2041,0.1416,0.2598l2.6582,1.6465
		c0.0488,0.0303,0.1035,0.0449,0.1582,0.0449c0.0537,0,0.1064-0.0137,0.1543-0.043l2.2139-1.3271
		c0.0928-0.0557,0.1484-0.1572,0.1455-0.2656S34.3955,33.123,34.2998,33.0723z M31.9492,34.3135l-2.0757-1.2852l1.4595-0.8379
		l2.2148,1.165L31.9492,34.3135z"/>
	<path class="st2" d="M28.1157,29.5298l-2.8232-1.5239c-0.0908-0.0483-0.2012-0.0469-0.2915,0.0034l-2.084,1.1899
		c-0.0918,0.0527-0.1494,0.1499-0.1509,0.2554c-0.002,0.106,0.0522,0.2051,0.1421,0.2607l2.665,1.6479
		c0.0483,0.0303,0.103,0.0449,0.1577,0.0449c0.0522,0,0.105-0.0137,0.1519-0.041l2.2422-1.3145
		c0.0933-0.0547,0.1499-0.1558,0.1479-0.2642S28.2109,29.5815,28.1157,29.5298z M25.7349,30.7583l-2.082-1.2881l1.501-0.8569
		l2.2075,1.1914L25.7349,30.7583z"/>
	<path class="st2" d="M19.3594,27.8062c0.0483,0.0298,0.103,0.0444,0.1577,0.0444c0.0513,0,0.103-0.0132,0.1489-0.0396
		l2.2681-1.2998c0.0942-0.0537,0.1519-0.1543,0.1509-0.2622c-0.0005-0.1084-0.0596-0.208-0.1543-0.2603l-2.811-1.5601
		c-0.0928-0.0513-0.2036-0.0508-0.2939,0.0015l-2.1289,1.2109c-0.0918,0.0522-0.1494,0.1494-0.1514,0.2554
		s0.0522,0.2051,0.1421,0.2607L19.3594,27.8062z M18.9761,25.0352l2.1982,1.2202l-1.6514,0.9463l-2.0894-1.2891L18.9761,25.0352z"/>
	<path class="st2" d="M13.146,24.2505c0.0479,0.0298,0.1025,0.0444,0.1572,0.0444c0.0508,0,0.1011-0.0127,0.147-0.0381
		l2.2949-1.2881c0.0942-0.0532,0.1528-0.1528,0.1528-0.2607c0.0005-0.1084-0.0571-0.208-0.1514-0.2617l-2.8003-1.5952
		c-0.0908-0.0522-0.2046-0.0522-0.2964-0.0005l-2.1748,1.231c-0.0923,0.0522-0.1499,0.1494-0.1519,0.2559
		c-0.002,0.106,0.0522,0.2051,0.1426,0.2607L13.146,24.2505z M12.7974,21.457l2.1914,1.248l-1.6782,0.9419l-2.0981-1.293
		L12.7974,21.457z"/>
</g>
</svg>
