<?xml version="1.0" encoding="utf-8"?>
<!-- Generator: Adobe Illustrator 21.0.0, SVG Export Plug-In . SVG Version: 6.00 Build 0)  -->
<svg version="1.1" id="Layer_1" xmlns="http://www.w3.org/2000/svg" xmlns:xlink="http://www.w3.org/1999/xlink" x="0px" y="0px"
	 viewBox="0 0 30 30" style="enable-background:new 0 0 30 30;" xml:space="preserve">
<style type="text/css">
	.st0{display:none;opacity:0.2;}
	.st1{display:inline;fill:none;stroke:#00ADEE;stroke-width:0.125;stroke-miterlimit:10;}
	.st2{fill:#231F20;}
</style>
<g class="st0">
	<path class="st1" d="M-15.375-16.557"/>
	<line class="st1" x1="-13.125" y1="47.1558" x2="-13.125" y2="-16.3603"/>
	<line class="st1" x1="-10.875" y1="47.3529" x2="-10.875" y2="-16.5568"/>
	<line class="st1" x1="-8.625" y1="46.959" x2="-8.625" y2="-16.3109"/>
	<line class="st1" x1="-6.375" y1="47.746" x2="-6.375" y2="-16.6546"/>
	<line class="st1" x1="-4.125" y1="47.3529" x2="-4.125" y2="-16.5079"/>
	<line class="st1" x1="-1.875" y1="47.4999" x2="-1.875" y2="-16.6061"/>
	<line class="st1" x1="0.375" y1="47.3529" x2="0.375" y2="-16.5568"/>
	<line class="st1" x1="2.625" y1="47.4999" x2="2.625" y2="-16.9021"/>
	<line class="st1" x1="4.875" y1="47.1558" x2="4.875" y2="-16.6547"/>
	<line class="st1" x1="7.125" y1="47.3029" x2="7.125" y2="-16.8517"/>
	<line class="st1" x1="9.375" y1="47.1063" x2="9.375" y2="-16.4577"/>
	<line class="st1" x1="11.625" y1="47.2541" x2="11.625" y2="-16.5081"/>
	<line class="st1" x1="13.875" y1="47.3029" x2="13.875" y2="-16.5079"/>
	<line class="st1" x1="16.125" y1="47.0567" x2="16.125" y2="-16.458"/>
	<line class="st1" x1="18.375" y1="47.1063" x2="18.375" y2="-16.4089"/>
	<line class="st1" x1="20.625" y1="47.3529" x2="20.625" y2="-16.6058"/>
	<line class="st1" x1="22.875" y1="47.1558" x2="22.875" y2="-16.5569"/>
	<line class="st1" x1="25.125" y1="47.4511" x2="25.125" y2="-16.5082"/>
	<line class="st1" x1="27.375" y1="47.2541" x2="27.375" y2="-16.3603"/>
	<line class="st1" x1="29.625" y1="47.1063" x2="29.625" y2="-16.5077"/>
	<line class="st1" x1="31.875" y1="47.1558" x2="31.875" y2="-16.508"/>
	<line class="st1" x1="34.125" y1="47.1063" x2="34.125" y2="-16.5077"/>
	<line class="st1" x1="36.375" y1="46.8598" x2="36.375" y2="-16.5566"/>
	<line class="st1" x1="38.625" y1="47.1558" x2="38.625" y2="-16.7536"/>
	<line class="st1" x1="40.875" y1="47.1558" x2="40.875" y2="-16.6058"/>
	<line class="st1" x1="43.125" y1="47.4511" x2="43.125" y2="-16.6062"/>
	<line class="st1" x1="-14.2926" y1="47.1726" x2="-16.4896" y2="45.9041"/>
	<line class="st1" x1="-9.8838" y1="47.1199" x2="-16.5439" y2="43.2746"/>
	<line class="st1" x1="-5.0286" y1="47.3248" x2="-16.5547" y2="40.6703"/>
	<line class="st1" x1="-0.4099" y1="47.3936" x2="-16.607" y2="38.0421"/>
	<line class="st1" x1="3.8647" y1="47.2633" x2="-16.4987" y2="35.5065"/>
	<line class="st1" x1="8.1817" y1="47.1575" x2="-16.4585" y2="32.9315"/>
	<line class="st1" x1="12.7364" y1="47.1893" x2="-16.5287" y2="30.2931"/>
	<line class="st1" x1="17.0493" y1="47.0812" x2="-16.4649" y2="27.7317"/>
	<line class="st1" x1="21.7487" y1="47.1965" x2="-16.5216" y2="25.1011"/>
	<line class="st1" x1="26.2708" y1="47.2091" x2="-16.6454" y2="22.4314"/>
	<line class="st1" x1="30.8011" y1="47.2265" x2="-16.5718" y2="19.8757"/>
	<line class="st1" x1="35.0797" y1="47.0989" x2="-16.5759" y2="17.2755"/>
	<line class="st1" x1="39.7372" y1="47.1897" x2="-16.5939" y2="14.6669"/>
	<line class="st1" x1="44.4278" y1="47.2996" x2="-16.6466" y2="12.0384"/>
	<line class="st1" x1="46.5391" y1="45.9207" x2="-16.5451" y2="9.499"/>
	<line class="st1" x1="46.7575" y1="43.4487" x2="-16.4576" y2="6.9515"/>
	<line class="st1" x1="46.5446" y1="40.7275" x2="-16.5248" y2="4.3145"/>
	<line class="st1" x1="46.5973" y1="38.16" x2="-16.5582" y2="1.6972"/>
	<line class="st1" x1="46.5272" y1="35.5214" x2="-16.4693" y2="-0.8496"/>
	<line class="st1" x1="46.6505" y1="32.9944" x2="-16.4717" y2="-3.4492"/>
	<line class="st1" x1="46.5376" y1="30.3314" x2="-16.4197" y2="-6.017"/>
	<line class="st1" x1="46.4796" y1="27.6997" x2="-16.3754" y2="-8.5896"/>
	<polyline class="st1" points="46.5777,25.1581 -16.1346,-11.0488 -16.5294,-11.2767 	"/>
	<polyline class="st1" points="46.5142,22.5236 -16.248,-13.7121 -17.1105,-14.2101 	"/>
	<polyline class="st1" points="46.5439,19.9426 -14.9996,-15.5896 -16.7609,-16.6065 	"/>
	<line class="st1" x1="46.3527" y1="17.2343" x2="-12.0668" y2="-16.4943"/>
	<line class="st1" x1="46.4824" y1="14.711" x2="-7.5112" y2="-16.4622"/>
	<line class="st1" x1="46.479" y1="12.1109" x2="-3.0123" y2="-16.4629"/>
	<line class="st1" x1="46.4578" y1="9.5007" x2="1.1859" y2="-16.637"/>
	<line class="st1" x1="46.3608" y1="6.8466" x2="5.6507" y2="-16.6575"/>
	<line class="st1" x1="46.5626" y1="4.3649" x2="10.4854" y2="-16.4643"/>
	<line class="st1" x1="46.6047" y1="1.7913" x2="15.0995" y2="-16.3983"/>
	<line class="st1" x1="46.4335" y1="-0.9057" x2="19.5934" y2="-16.4018"/>
	<line class="st1" x1="46.5889" y1="-3.4142" x2="23.9443" y2="-16.488"/>
	<line class="st1" x1="46.3665" y1="-6.1405" x2="28.4468" y2="-16.4864"/>
	<line class="st1" x1="46.5992" y1="-8.6043" x2="33.0984" y2="-16.399"/>
	<line class="st1" x1="46.5865" y1="-11.2098" x2="37.2213" y2="-16.6168"/>
	<line class="st1" x1="46.6046" y1="-13.7973" x2="41.9486" y2="-16.4854"/>
	<path class="st1" d="M-72.75-106.0893"/>
	<path class="st1" d="M-71.625-108.0379"/>
	<path class="st1" d="M-70.5-109.9865"/>
	<path class="st1" d="M-69.375-111.935"/>
	<path class="st1" d="M-68.25-113.8836"/>
	<path class="st1" d="M-67.125-115.8321"/>
	<path class="st1" d="M-66-117.7807"/>
	<path class="st1" d="M-64.875-119.7292"/>
	<path class="st1" d="M-63.75-121.6778"/>
	<path class="st1" d="M46.631,47.1215"/>
	<line class="st1" x1="41.8384" y1="47.2903" x2="46.5346" y2="44.579"/>
	<line class="st1" x1="37.761" y1="47.0465" x2="46.6554" y2="41.9113"/>
	<line class="st1" x1="33.2481" y1="47.0539" x2="46.6394" y2="39.3224"/>
	<line class="st1" x1="28.7471" y1="47.0544" x2="46.5552" y2="36.7729"/>
	<line class="st1" x1="23.9766" y1="47.2107" x2="46.5546" y2="34.1753"/>
	<line class="st1" x1="19.718" y1="47.0712" x2="46.6021" y2="31.5497"/>
	<line class="st1" x1="15.3122" y1="47.0167" x2="46.6066" y2="28.9489"/>
	<line class="st1" x1="10.3988" y1="47.2556" x2="46.5751" y2="26.3692"/>
	<line class="st1" x1="6.1197" y1="47.1279" x2="46.5162" y2="23.805"/>
	<line class="st1" x1="1.2953" y1="47.3154" x2="46.6164" y2="21.1493"/>
	<line class="st1" x1="-3.222" y1="47.3253" x2="46.4154" y2="18.6671"/>
	<line class="st1" x1="-8.0514" y1="47.5153" x2="46.5572" y2="15.9871"/>
	<line class="st1" x1="-11.769" y1="47.0639" x2="46.4405" y2="13.4566"/>
	<line class="st1" x1="-16.6198" y1="47.2663" x2="46.4978" y2="10.8253"/>
	<line class="st1" x1="-16.6252" y1="44.6712" x2="46.5671" y2="8.1872"/>
	<line class="st1" x1="-16.3982" y1="41.9423" x2="46.4768" y2="5.6413"/>
	<line class="st1" x1="-16.5136" y1="39.4107" x2="46.6506" y2="2.9429"/>
	<line class="st1" x1="-16.3672" y1="36.728" x2="46.4811" y2="0.4426"/>
	<line class="st1" x1="-16.4261" y1="34.1641" x2="46.6243" y2="-2.2381"/>
	<line class="st1" x1="-16.5537" y1="31.6396" x2="46.5591" y2="-4.7985"/>
	<line class="st1" x1="-16.6591" y1="29.1023" x2="46.5062" y2="-7.3662"/>
	<line class="st1" x1="-16.5488" y1="26.4407" x2="46.4955" y2="-9.9579"/>
	<line class="st1" x1="-16.5014" y1="23.8152" x2="46.6906" y2="-12.6687"/>
	<line class="st1" x1="-16.6869" y1="21.324" x2="46.6589" y2="-15.2486"/>
	<line class="st1" x1="-16.5222" y1="18.6311" x2="44.3216" y2="-16.497"/>
	<line class="st1" x1="-16.6397" y1="16.1008" x2="40.1155" y2="-16.6668"/>
	<line class="st1" x1="-16.4543" y1="13.3959" x2="35.4976" y2="-16.5986"/>
	<line class="st1" x1="-16.4766" y1="10.8105" x2="31.0105" y2="-16.6061"/>
	<line class="st1" x1="-16.6191" y1="8.2947" x2="26.3737" y2="-16.5272"/>
	<line class="st1" x1="-16.5886" y1="5.6791" x2="21.7039" y2="-16.4291"/>
	<line class="st1" x1="-16.4987" y1="3.0291" x2="17.3446" y2="-16.5104"/>
	<line class="st1" x1="-16.4879" y1="0.4247" x2="12.9603" y2="-16.5772"/>
	<line class="st1" x1="-16.5374" y1="-2.1447" x2="8.4534" y2="-16.5731"/>
	<line class="st1" x1="-16.4468" y1="-4.7952" x2="4.0268" y2="-16.6156"/>
	<polyline class="st1" points="-16.5695,-7.3225 -15.9916,-7.6561 -0.3642,-16.6786 	"/>
	<line class="st1" x1="-16.6918" y1="-9.8497" x2="-5.065" y2="-16.5625"/>
	<line class="st1" x1="-16.2564" y1="-12.6993" x2="-10.0909" y2="-16.259"/>
	<path class="st1" d="M-14.1742-16.4997"/>
</g>
<g>
	<path class="st2" d="M27.1721,8.295c-0.0003-0.0655-0.02-0.1248-0.048-0.1792c-0.0081-0.0158-0.0188-0.028-0.0289-0.0425
		c-0.0275-0.0397-0.0604-0.0728-0.1002-0.1003c-0.0092-0.0064-0.0134-0.0176-0.0232-0.0232l-3.7435-2.1647
		c-0.2473-0.4426-0.8216-0.777-1.5559-0.8998l-0.3207-0.1855c-0.1221-0.0728-0.2754-0.0732-0.3975-0.0015l-0.2708,0.1539
		c-0.899,0.0897-1.6016,0.4958-1.8295,1.0394l-3.5745,2.0308c-0.0103,0.0058-0.0146,0.0174-0.0242,0.024
		c-0.0393,0.027-0.0721,0.0594-0.0995,0.0984c-0.0104,0.0148-0.021,0.0273-0.0292,0.0434c-0.028,0.0536-0.0471,0.1119-0.048,0.1762
		c0,0.0015-0.0012,0.0027-0.0012,0.0042c0,0.0002,0.0002,0.0004,0.0002,0.0006c0,0.0003-0.0002,0.0005-0.0002,0.0009v11.4082
		c0,0.1621,0.1089,0.3027,0.2544,0.3652l1.0884,0.6285v3.1332c0,0.3408,0.2158,0.71,0.5127,0.8779l1.0195,0.5781
		c0.1104,0.0625,0.2246,0.0938,0.335,0.0938c0.0986,0,0.1953-0.0254,0.2822-0.0762c0.1836-0.1064,0.29-0.3057,0.29-0.5459v-2.6523
		l1.9565,1.1297c0.0686,0.0551,0.152,0.093,0.2466,0.093c0.0043,0,0.0079-0.0024,0.0123-0.0025
		c0.0032,0.0001,0.006,0.0025,0.0092,0.0025c0.0241,0,0.046-0.014,0.0698-0.0185c0.0252-0.006,0.051-0.009,0.0742-0.0197
		c0.0167-0.0067,0.0354-0.0046,0.0513-0.0136l2.1875-1.2256v2.6817c0,0.2393,0.1055,0.4385,0.29,0.5459
		c0.0869,0.0508,0.1836,0.0762,0.2832,0.0762c0.1104,0,0.2246-0.0313,0.334-0.0938l1.0215-0.5781
		c0.2959-0.168,0.5107-0.5381,0.5107-0.8789v-3.1198l1.083-0.6068c0.127-0.0703,0.2051-0.2041,0.2051-0.3486L27.1721,8.295z
		 M21.0569,5.629c0.9365,0,1.5098,0.4146,1.5098,0.6401c0,0.2393-0.5977,0.6016-1.499,0.6016s-1.499-0.3623-1.499-0.6016
		C19.5686,6.0436,20.1331,5.629,21.0569,5.629z M19.5686,7.3403c0.3978,0.2048,0.9128,0.3302,1.499,0.3302
		s1.1012-0.1254,1.499-0.3302v0.8219c0,0.2393-0.5977,0.6016-1.499,0.6016s-1.499-0.3623-1.499-0.6016V7.3403z M18.7678,6.8606
		v1.3016c0,0.7988,0.9893,1.4014,2.2998,1.4014c1.1849,0,2.0992-0.4944,2.2653-1.1793c0.0217-0.0492,0.0345-0.103,0.0345-0.1601
		V6.7895l2.5957,1.5012l-4.8975,2.7441l-4.7832-2.7617L18.7678,6.8606z M15.8772,8.9628l4.7852,2.7626v10.4724l-4.7852-2.7635
		V8.9628z M18.0588,24.402l-0.7314-0.415c-0.0449-0.0244-0.1064-0.1309-0.1064-0.1816v-2.6708l0.8379,0.4838V24.402z
		 M25.1057,23.7789c0,0.0518-0.0615,0.1582-0.1055,0.1836l-0.7324,0.415v-2.8003l0.8379-0.4694V23.7789z M21.4631,22.2323V11.7289
		l4.9095-2.7508l0.0211,10.4912L21.4631,22.2323z"/>
	<path class="st2" d="M17.6156,23.5187c0.1796,0.1036,0.3251,0.0421,0.3251-0.1375s-0.1456-0.4092-0.3251-0.5129
		s-0.3251-0.0422-0.3251,0.1375C17.2905,23.1854,17.436,23.415,17.6156,23.5187z"/>
	<path class="st2" d="M24.7115,23.4932c0.1796-0.1037,0.3252-0.3333,0.3252-0.5129s-0.1456-0.2411-0.3252-0.1375
		s-0.3251,0.3333-0.3251,0.5129S24.5319,23.5969,24.7115,23.4932z"/>
	<path class="st2" d="M12.8917,15.3179c-0.0273-0.0394-0.0599-0.0722-0.0992-0.0996c-0.0094-0.0066-0.0137-0.018-0.0237-0.0238
		l-4.6597-2.6948c-0.1235-0.0723-0.2744-0.0728-0.3979-0.0015l-4.7036,2.6733c-0.0103,0.0058-0.0146,0.0174-0.0242,0.024
		c-0.0393,0.027-0.0721,0.0594-0.0995,0.0984c-0.0104,0.0148-0.021,0.0273-0.0292,0.0434c-0.028,0.0536-0.0471,0.1119-0.048,0.1762
		c0,0.0015-0.0012,0.0027-0.0012,0.0042c0,0.0002,0.0002,0.0004,0.0002,0.0006c0,0.0003-0.0002,0.0005-0.0002,0.0009v4.8975
		c0,0.1611,0.1055,0.3008,0.2485,0.3633l0.9922,0.5732v2.9571c0,0.5283,0.4297,0.958,1.0376,0.958
		c0.5278,0,0.9575-0.4297,0.9575-0.958v-1.8045l1.5691,0.9065c0.065,0.0458,0.1399,0.0787,0.2253,0.0787
		c0.0037,0,0.0067-0.002,0.0103-0.0021c0.0027,0.0001,0.0051,0.0021,0.0078,0.0021c0.0203,0,0.0388-0.0125,0.059-0.0156
		c0.0312-0.0063,0.0623-0.0108,0.0905-0.024c0.0149-0.0062,0.0317-0.0041,0.0459-0.0121l1.3198-0.7396v1.6155
		c0,0.5283,0.4297,0.958,1.0371,0.958c0.5278,0,0.9575-0.4297,0.9575-0.958v-2.7332l1.4189-0.7951
		c0.1543-0.0859,0.2241-0.2627,0.186-0.4346v-4.8115c0-0.0657-0.0197-0.1252-0.0479-0.18
		C12.9125,15.3448,12.9019,15.3325,12.8917,15.3179z M7.907,13.3068l3.853,2.2285L7.8386,17.733L4.01,15.5221L7.907,13.3068z
		 M3.6052,16.212l3.8306,2.2123v3.9631l-3.8306-2.212V16.212z M5.2415,24.3102c0,0.0869-0.0708,0.1572-0.2378,0.1572
		c-0.0869,0-0.1577-0.0703-0.1577-0.1572v-2.4951l0.3955,0.2285V24.3102z M10.5637,24.3151c0,0.0869-0.0708,0.1572-0.2373,0.1572
		c-0.0869,0-0.1577-0.0703-0.1577-0.1572v-2.0637l0.395-0.2213V24.3151z M9.6267,21.6387c-0.0202,0.0078-0.0368,0.0202-0.0552,0.031
		l-1.3359,0.7485V18.427l3.9331-2.2037v3.9912L9.6267,21.6387z"/>
</g>
</svg>
