<?xml version="1.0" encoding="utf-8"?>
<!-- Generator: Adobe Illustrator 21.0.0, SVG Export Plug-In . SVG Version: 6.00 Build 0)  -->
<svg version="1.1" id="Layer_1" xmlns="http://www.w3.org/2000/svg" xmlns:xlink="http://www.w3.org/1999/xlink" x="0px" y="0px"
	 viewBox="0 0 60 60" style="enable-background:new 0 0 60 60;" xml:space="preserve">
<style type="text/css">
	.st0{display:none;opacity:0.2;}
	.st1{display:inline;fill:none;stroke:#00ADEE;stroke-width:0.125;stroke-miterlimit:10;}
	.st2{fill:#231F20;}
</style>
<g class="st0">
	<path class="st1" d="M-0.375-1.557"/>
	<line class="st1" x1="1.875" y1="62.156" x2="1.875" y2="-1.36"/>
	<line class="st1" x1="4.125" y1="62.353" x2="4.125" y2="-1.557"/>
	<line class="st1" x1="6.375" y1="61.959" x2="6.375" y2="-1.311"/>
	<line class="st1" x1="8.625" y1="62.746" x2="8.625" y2="-1.655"/>
	<line class="st1" x1="10.875" y1="62.353" x2="10.875" y2="-1.508"/>
	<line class="st1" x1="13.125" y1="62.5" x2="13.125" y2="-1.606"/>
	<line class="st1" x1="15.375" y1="62.353" x2="15.375" y2="-1.557"/>
	<line class="st1" x1="17.625" y1="62.5" x2="17.625" y2="-1.902"/>
	<line class="st1" x1="19.875" y1="62.156" x2="19.875" y2="-1.655"/>
	<line class="st1" x1="22.125" y1="62.303" x2="22.125" y2="-1.852"/>
	<line class="st1" x1="24.375" y1="62.106" x2="24.375" y2="-1.458"/>
	<line class="st1" x1="26.625" y1="62.254" x2="26.625" y2="-1.508"/>
	<line class="st1" x1="28.875" y1="62.303" x2="28.875" y2="-1.508"/>
	<line class="st1" x1="31.125" y1="62.057" x2="31.125" y2="-1.458"/>
	<line class="st1" x1="33.375" y1="62.106" x2="33.375" y2="-1.409"/>
	<line class="st1" x1="35.625" y1="62.353" x2="35.625" y2="-1.606"/>
	<line class="st1" x1="37.875" y1="62.156" x2="37.875" y2="-1.557"/>
	<line class="st1" x1="40.125" y1="62.451" x2="40.125" y2="-1.508"/>
	<line class="st1" x1="42.375" y1="62.254" x2="42.375" y2="-1.36"/>
	<line class="st1" x1="44.625" y1="62.106" x2="44.625" y2="-1.508"/>
	<line class="st1" x1="46.875" y1="62.156" x2="46.875" y2="-1.508"/>
	<line class="st1" x1="49.125" y1="62.106" x2="49.125" y2="-1.508"/>
	<line class="st1" x1="51.375" y1="61.86" x2="51.375" y2="-1.557"/>
	<line class="st1" x1="53.625" y1="62.156" x2="53.625" y2="-1.754"/>
	<line class="st1" x1="55.875" y1="62.156" x2="55.875" y2="-1.606"/>
	<line class="st1" x1="58.125" y1="62.451" x2="58.125" y2="-1.606"/>
	<line class="st1" x1="0.707" y1="62.173" x2="-1.49" y2="60.904"/>
	<line class="st1" x1="5.116" y1="62.12" x2="-1.544" y2="58.275"/>
	<line class="st1" x1="9.971" y1="62.325" x2="-1.555" y2="55.67"/>
	<line class="st1" x1="14.59" y1="62.394" x2="-1.607" y2="53.042"/>
	<line class="st1" x1="18.865" y1="62.263" x2="-1.499" y2="50.506"/>
	<line class="st1" x1="23.182" y1="62.158" x2="-1.459" y2="47.931"/>
	<line class="st1" x1="27.736" y1="62.189" x2="-1.529" y2="45.293"/>
	<line class="st1" x1="32.049" y1="62.081" x2="-1.465" y2="42.732"/>
	<line class="st1" x1="36.749" y1="62.196" x2="-1.522" y2="40.101"/>
	<line class="st1" x1="41.271" y1="62.209" x2="-1.645" y2="37.431"/>
	<line class="st1" x1="45.801" y1="62.226" x2="-1.572" y2="34.876"/>
	<line class="st1" x1="50.08" y1="62.099" x2="-1.576" y2="32.275"/>
	<line class="st1" x1="54.737" y1="62.19" x2="-1.594" y2="29.667"/>
	<line class="st1" x1="59.428" y1="62.3" x2="-1.647" y2="27.038"/>
	<line class="st1" x1="61.539" y1="60.921" x2="-1.545" y2="24.499"/>
	<line class="st1" x1="61.758" y1="58.449" x2="-1.458" y2="21.951"/>
	<line class="st1" x1="61.545" y1="55.728" x2="-1.525" y2="19.314"/>
	<line class="st1" x1="61.597" y1="53.16" x2="-1.558" y2="16.697"/>
	<line class="st1" x1="61.527" y1="50.521" x2="-1.469" y2="14.15"/>
	<line class="st1" x1="61.65" y1="47.994" x2="-1.472" y2="11.551"/>
	<line class="st1" x1="61.538" y1="45.331" x2="-1.42" y2="8.983"/>
	<line class="st1" x1="61.48" y1="42.7" x2="-1.375" y2="6.41"/>
	<polyline class="st1" points="61.578,40.158 -1.135,3.951 -1.529,3.723 	"/>
	<polyline class="st1" points="61.514,37.524 -1.248,1.288 -2.111,0.79 	"/>
	<polyline class="st1" points="61.544,34.943 0,-0.59 -1.761,-1.606 	"/>
	<line class="st1" x1="61.353" y1="32.234" x2="2.933" y2="-1.494"/>
	<line class="st1" x1="61.482" y1="29.711" x2="7.489" y2="-1.462"/>
	<line class="st1" x1="61.479" y1="27.111" x2="11.988" y2="-1.463"/>
	<line class="st1" x1="61.458" y1="24.501" x2="16.186" y2="-1.637"/>
	<line class="st1" x1="61.361" y1="21.847" x2="20.651" y2="-1.657"/>
	<line class="st1" x1="61.563" y1="19.365" x2="25.485" y2="-1.464"/>
	<line class="st1" x1="61.605" y1="16.791" x2="30.1" y2="-1.398"/>
	<line class="st1" x1="61.433" y1="14.094" x2="34.593" y2="-1.402"/>
	<line class="st1" x1="61.589" y1="11.586" x2="38.944" y2="-1.488"/>
	<line class="st1" x1="61.366" y1="8.86" x2="43.447" y2="-1.486"/>
	<line class="st1" x1="61.599" y1="6.396" x2="48.098" y2="-1.399"/>
	<line class="st1" x1="61.587" y1="3.79" x2="52.221" y2="-1.617"/>
	<line class="st1" x1="61.605" y1="1.203" x2="56.949" y2="-1.485"/>
	<path class="st1" d="M-57.75-91.089"/>
	<path class="st1" d="M-56.625-93.038"/>
	<path class="st1" d="M-55.5-94.987"/>
	<path class="st1" d="M-54.375-96.935"/>
	<path class="st1" d="M-53.25-98.884"/>
	<path class="st1" d="M-52.125-100.832"/>
	<path class="st1" d="M-51-102.781"/>
	<path class="st1" d="M-49.875-104.729"/>
	<path class="st1" d="M-48.75-106.678"/>
	<path class="st1" d="M61.631,62.121"/>
	<line class="st1" x1="56.838" y1="62.29" x2="61.535" y2="59.579"/>
	<line class="st1" x1="52.761" y1="62.046" x2="61.655" y2="56.911"/>
	<line class="st1" x1="48.248" y1="62.054" x2="61.639" y2="54.322"/>
	<line class="st1" x1="43.747" y1="62.054" x2="61.555" y2="51.773"/>
	<line class="st1" x1="38.977" y1="62.211" x2="61.555" y2="49.175"/>
	<line class="st1" x1="34.718" y1="62.071" x2="61.602" y2="46.55"/>
	<line class="st1" x1="30.312" y1="62.017" x2="61.607" y2="43.949"/>
	<line class="st1" x1="25.399" y1="62.256" x2="61.575" y2="41.369"/>
	<line class="st1" x1="21.12" y1="62.128" x2="61.516" y2="38.805"/>
	<line class="st1" x1="16.295" y1="62.315" x2="61.616" y2="36.149"/>
	<line class="st1" x1="11.778" y1="62.325" x2="61.415" y2="33.667"/>
	<line class="st1" x1="6.949" y1="62.515" x2="61.557" y2="30.987"/>
	<line class="st1" x1="3.231" y1="62.064" x2="61.44" y2="28.457"/>
	<line class="st1" x1="-1.62" y1="62.266" x2="61.498" y2="25.825"/>
	<line class="st1" x1="-1.625" y1="59.671" x2="61.567" y2="23.187"/>
	<line class="st1" x1="-1.398" y1="56.942" x2="61.477" y2="20.641"/>
	<line class="st1" x1="-1.514" y1="54.411" x2="61.651" y2="17.943"/>
	<line class="st1" x1="-1.367" y1="51.728" x2="61.481" y2="15.443"/>
	<line class="st1" x1="-1.426" y1="49.164" x2="61.624" y2="12.762"/>
	<line class="st1" x1="-1.554" y1="46.64" x2="61.559" y2="10.201"/>
	<line class="st1" x1="-1.659" y1="44.102" x2="61.506" y2="7.634"/>
	<line class="st1" x1="-1.549" y1="41.441" x2="61.496" y2="5.042"/>
	<line class="st1" x1="-1.501" y1="38.815" x2="61.691" y2="2.331"/>
	<line class="st1" x1="-1.687" y1="36.324" x2="61.659" y2="-0.249"/>
	<line class="st1" x1="-1.522" y1="33.631" x2="59.322" y2="-1.497"/>
	<line class="st1" x1="-1.64" y1="31.101" x2="55.116" y2="-1.667"/>
	<line class="st1" x1="-1.454" y1="28.396" x2="50.498" y2="-1.599"/>
	<line class="st1" x1="-1.477" y1="25.811" x2="46.01" y2="-1.606"/>
	<line class="st1" x1="-1.619" y1="23.295" x2="41.374" y2="-1.527"/>
	<line class="st1" x1="-1.589" y1="20.679" x2="36.704" y2="-1.429"/>
	<line class="st1" x1="-1.499" y1="18.029" x2="32.345" y2="-1.51"/>
	<line class="st1" x1="-1.488" y1="15.425" x2="27.96" y2="-1.577"/>
	<line class="st1" x1="-1.537" y1="12.855" x2="23.453" y2="-1.573"/>
	<line class="st1" x1="-1.447" y1="10.205" x2="19.027" y2="-1.616"/>
	<polyline class="st1" points="-1.57,7.678 -0.992,7.344 14.636,-1.679 	"/>
	<line class="st1" x1="-1.692" y1="5.15" x2="9.935" y2="-1.562"/>
	<line class="st1" x1="-1.256" y1="2.301" x2="4.909" y2="-1.259"/>
	<path class="st1" d="M0.826-1.5"/>
</g>
<g>
	<path class="st2" d="M34.4775,19.2988c0.1445-0.2349,0.0723-0.543-0.1631-0.688L32.583,17.541v-1.6467l1.1758-0.679
		c0.0186-0.0107,0.0296-0.0281,0.0463-0.0408c0.0279-0.0211,0.0543-0.0417,0.0772-0.0681c0.0211-0.0244,0.0369-0.0505,0.0527-0.0781
		c0.016-0.0276,0.0308-0.0542,0.0413-0.0848c0.0114-0.033,0.016-0.066,0.0203-0.1006c0.0026-0.0208,0.0122-0.0391,0.0122-0.0607
		V9.1001c0-0.0818-0.0242-0.1559-0.059-0.2241c-0.0096-0.019-0.0227-0.0338-0.0347-0.0515
		c-0.0336-0.0494-0.0739-0.0907-0.1226-0.1252c-0.0114-0.0081-0.0165-0.0222-0.0287-0.0294L21.8208,1.5957
		c-0.1548-0.0918-0.3467-0.0928-0.5034-0.0039L2.9507,12.1069c-0.0128,0.0074-0.0185,0.0218-0.0305,0.0302
		c-0.0482,0.0334-0.0885,0.0732-0.1224,0.1211c-0.0131,0.0186-0.0264,0.0345-0.0368,0.0547
		c-0.0329,0.063-0.0542,0.1316-0.0576,0.2068c-0.0002,0.0055-0.0042,0.0099-0.0043,0.0154c0,0.0009,0.0007,0.0017,0.0007,0.0026
		c0,0.0012-0.0007,0.0021-0.0007,0.0032v5.5742c0,0.0191,0.0088,0.0353,0.0109,0.0538c0.0038,0.0344,0.0093,0.0669,0.0201,0.0998
		c0.0101,0.0307,0.0229,0.0582,0.0385,0.0859c0.0153,0.0276,0.0317,0.0531,0.0524,0.0778c0.0221,0.0264,0.0466,0.0482,0.0737,0.0695
		c0.0148,0.0117,0.024,0.0278,0.0403,0.038l1.4478,0.8998v0.358l-0.6143-0.3672c-0.2363-0.1411-0.5439-0.0645-0.6855,0.1729
		c-0.1416,0.2368-0.0645,0.5439,0.1729,0.6855l1.3706,0.8193c0.0786,0.0474,0.1675,0.0708,0.2563,0.0708
		c0.085,0,0.1699-0.0215,0.2466-0.0649c0.1567-0.0889,0.2534-0.2549,0.2534-0.4351v-0.6178l9.3711,5.8243
		c0.0085,0.0052,0.0191,0.0032,0.0279,0.0079c0.0713,0.0391,0.1491,0.0673,0.2363,0.0673c0.0828,0,0.1576-0.025,0.2263-0.0605
		c0.0074-0.0038,0.0164-0.0021,0.0237-0.0063l1.2891-0.7444v1.7684c0,0.1733,0.0898,0.3345,0.2373,0.4253l1.9688,1.2158
		c0.082,0.0508,0.1724,0.0747,0.2622,0.0747c0.1675,0,0.3315-0.084,0.4258-0.2373c0.145-0.2349,0.0723-0.543-0.1626-0.688
		l-1.7314-1.0693v-2.042c0-0.008-0.0042-0.0146-0.0045-0.0225l2.7614-1.5948v1.6641c0,0.1733,0.0898,0.3345,0.2373,0.4253
		l1.9683,1.2148c0.082,0.0508,0.1729,0.0747,0.2622,0.0747c0.1675,0,0.3315-0.0845,0.4258-0.2373
		c0.145-0.2349,0.0723-0.543-0.1626-0.688l-1.731-1.0684v-1.9628l2.7559-1.5916v1.5583c0,0.1733,0.0898,0.3345,0.2373,0.4253
		l1.9692,1.2158c0.082,0.0508,0.1724,0.0747,0.2622,0.0747c0.1675,0,0.3315-0.084,0.4258-0.2373
		c0.145-0.2349,0.0723-0.543-0.1626-0.688l-1.7319-1.0693v-1.857l2.7573-1.5924v1.4533c0,0.1733,0.0898,0.3345,0.2373,0.4253
		l1.9678,1.2158c0.0815,0.0508,0.1724,0.0747,0.2622,0.0747c0.1675,0,0.3315-0.084,0.4258-0.2373
		c0.145-0.2349,0.0723-0.543-0.1626-0.688l-1.7305-1.0693v-1.752l2.7559-1.5916v1.348c0,0.1733,0.0898,0.3345,0.2373,0.4253
		l1.9688,1.2163c0.082,0.0508,0.1729,0.0747,0.2627,0.0747C34.2188,19.5361,34.3828,19.4521,34.4775,19.2988z M15.5181,24.5945
		v-4.6203L33.0088,9.9623v4.5311L15.5181,24.5945z M3.6992,17.837v-4.4097l10.8188,6.5386v4.5954L3.6992,17.837z M21.5615,2.6045
		l10.9541,6.4883L15.0249,19.104L4.1851,12.5527L21.5615,2.6045z"/>
	<path class="st2" d="M57.498,21.5801c-0.0003-0.0819-0.0248-0.156-0.0599-0.2242c-0.01-0.0196-0.0234-0.0349-0.0359-0.053
		c-0.0345-0.0499-0.0757-0.0914-0.1256-0.1259c-0.0114-0.0079-0.0164-0.0217-0.0286-0.0286l-7.5723-4.3792
		c-0.4348-0.8379-1.5544-1.4892-2.9766-1.7214l-0.6923-0.4004c-0.1533-0.0884-0.3428-0.0903-0.4971-0.002l-0.6009,0.3415
		c-1.7501,0.1652-3.1534,0.9644-3.5206,2.0007l-7.2261,4.1065c-0.0123,0.007-0.0176,0.0209-0.0291,0.0287
		c-0.0499,0.0341-0.0916,0.075-0.1262,0.1245c-0.0128,0.0182-0.0258,0.0338-0.036,0.0535c-0.035,0.067-0.0588,0.1398-0.0601,0.2203
		c-0.0001,0.002-0.0015,0.0035-0.0015,0.0056c0,0.0003,0.0002,0.0005,0.0002,0.0009c0,0.0004-0.0002,0.0007-0.0002,0.0011v22.8159
		c0,0.2061,0.1494,0.3838,0.3408,0.46l2.3457,1.3543v6.4387c0,0.5693,0.374,1.2129,0.8721,1.4961l2.04,1.1572
		c0.0987,0.0555,0.199,0.0907,0.299,0.1144c0.0914,0.0787,0.1983,0.1336,0.3162,0.1336c0.0938,0,0.1875-0.0254,0.2705-0.0801
		l1.1143-0.7178c0.4707-0.3037,0.8252-0.9551,0.8252-1.5166v-3.7132l2.8856,1.666c0.0911,0.0956,0.2179,0.1566,0.3605,0.1566
		c0.0089,0,0.0164-0.0046,0.0251-0.0051c0.0065,0.0002,0.0123,0.0051,0.0188,0.0051c0.084,0,0.168-0.0215,0.2441-0.0635
		l3.3613-1.8832v3.7865c0,0.5596,0.3555,1.2109,0.8271,1.5166l1.1133,0.7178c0.083,0.0547,0.1768,0.0801,0.2705,0.0801
		c0.118,0,0.2251-0.0551,0.3165-0.1339c0.0996-0.0239,0.1995-0.0593,0.2977-0.1151l2.041-1.1563
		c0.4971-0.2822,0.8711-0.9258,0.8711-1.4961v-6.4139l2.3203-1.2999c0.1582-0.0889,0.2559-0.2559,0.2559-0.4365L57.498,21.5801z
		 M42.291,19.1306c0.7825,0.5481,1.9517,0.8992,3.2988,0.8992c1.3466,0,2.5153-0.3509,3.2979-0.8986v2.1859
		c-0.0054,0.7085-1.4138,1.4988-3.2979,1.4988c-1.8877,0-3.2988-0.7935-3.2988-1.5029V19.1306z M45.5684,15.9468
		c1.8691,0,3.3193,0.8496,3.3193,1.5801v0.0041c-0.0054,0.7085-1.4138,1.4988-3.2979,1.4988c-1.8877,0-3.2988-0.7935-3.2988-1.5029
		C42.291,16.7808,43.6924,15.9468,45.5684,15.9468z M41.291,18.193v3.12c0,1.4033,1.8887,2.5029,4.2988,2.5029
		c2.2064,0,3.9573-0.9253,4.2407-2.1577c0.0338-0.0674,0.0571-0.1406,0.0571-0.2212v-0.1182c0-0.002,0.001-0.0038,0.001-0.0058
		c0-0.0017-0.001-0.0031-0.001-0.0048v-3.2617l6.0996,3.5277L45.583,27.4028l-10.168-5.8706L41.291,18.193z M34.9092,22.395
		l10.1699,5.8718v21.6356l-10.1699-5.8721V22.395z M37.9619,53.2246c-0.1846-0.1055-0.3662-0.416-0.3662-0.627v-5.8613
		l2.2762,1.3141l-0.0037,6.2552L37.9619,53.2246z M41.333,53.1846c0,0.2217-0.1816,0.5566-0.3672,0.6768l-0.0938,0.0604v-5.2938
		l0.4609,0.2661V53.1846z M50.2285,53.1338v-4.3115c0-0.0112-0.0057-0.0206-0.0064-0.0317l0.4683-0.2623v5.3422l-0.0928-0.0599
		C50.4082,53.6875,50.2285,53.3584,50.2285,53.1338z M53.9658,52.5469c0,0.2119-0.1807,0.5225-0.3643,0.626l-1.9111,1.0781v-6.283
		l2.2754-1.2748V52.5469z M46.0791,49.9655V28.2708l10.4206-5.8377l0.0423,21.6705L46.0791,49.9655z"/>
	<path class="st2" d="M38.686,50.725c-0.3589-0.207-0.65-0.084-0.65,0.275s0.291,0.819,0.65,1.026
		c0.359,0.207,0.65,0.084,0.65-0.275S39.045,50.932,38.686,50.725z"/>
	<path class="st2" d="M52.877,51.975c0.359-0.207,0.65-0.667,0.65-1.026c0-0.3589-0.291-0.482-0.65-0.275
		c-0.359,0.208-0.65,0.667-0.65,1.026S52.518,52.182,52.877,51.975z"/>
	<path class="st2" d="M27.0918,36.0703c0-0.0826-0.0248-0.1572-0.0602-0.2258c-0.0098-0.0192-0.0228-0.0341-0.035-0.0518
		c-0.0344-0.05-0.0757-0.0916-0.1257-0.1262c-0.0114-0.0079-0.0165-0.0218-0.0287-0.0288l-9.3198-5.3892
		c-0.1528-0.0879-0.3423-0.0894-0.4976-0.002l-9.4067,5.3462c-0.0122,0.007-0.0175,0.0208-0.0289,0.0286
		c-0.0504,0.0343-0.0922,0.0756-0.127,0.1255C7.4498,35.7648,7.437,35.78,7.4269,35.7993c-0.035,0.067-0.059,0.1399-0.0602,0.2206
		c0,0.002-0.0015,0.0035-0.0015,0.0055c0,0.0003,0.0002,0.0005,0.0002,0.0009c0,0.0004-0.0002,0.0007-0.0002,0.0011v9.7959
		c0,0.2051,0.1426,0.3809,0.3291,0.458l2.1647,1.2495c-0.0029,0.0219-0.0129,0.0413-0.0129,0.064v6.0146
		c0,0.8896,0.7246,1.6143,1.6147,1.6143h0.1602c0.8901,0,1.6147-0.7246,1.6147-1.6143v-4.1297l3.533,2.0392
		c0.0907,0.0923,0.2164,0.1501,0.3561,0.1501c0.0075,0,0.0138-0.004,0.0212-0.0043c0.0055,0.0002,0.0104,0.0043,0.0159,0.0043
		c0.044,0,0.085-0.0216,0.128-0.0333c0.011-0.0038,0.0231-0.0042,0.0338-0.0088c0.0272-0.0095,0.0569-0.0073,0.0824-0.0214
		l3.0859-1.7289v3.7426c0,0.8906,0.7246,1.6152,1.6147,1.6152h0.1602c0.8901,0,1.6147-0.7246,1.6147-1.6152v-5.6416l2.9912-1.6758
		c0.1987-0.1113,0.2783-0.3428,0.2212-0.5625c-0.001-0.0029-0.0015-0.0059-0.0024-0.0088V36.0703z M17.27,31.2578l8.311,4.8057
		l-8.4521,4.7354l-8.2578-4.7676L17.27,31.2578z M8.3652,36.893l8.2598,4.7693v8.6191l-8.2598-4.7678V36.893z M12.2358,49v4.6094
		c0,0.3389-0.2759,0.6143-0.6147,0.6143h-0.1602c-0.3389,0-0.6147-0.2754-0.6147-0.6143v-5.5089l1.4072,0.8122
		C12.248,48.9421,12.2358,48.969,12.2358,49z M22.8818,53.6191c0,0.3389-0.2759,0.6152-0.6147,0.6152h-0.1602
		c-0.3389,0-0.6147-0.2764-0.6147-0.6152v-4.3028l1.3896-0.7786V53.6191z M20.8256,48.5433
		c-0.0432,0.0154-0.0801,0.0394-0.1168,0.0654l-3.0838,1.7278v-8.6691l8.4668-4.7437v8.669L20.8256,48.5433z"/>
</g>
</svg>
