<?xml version="1.0" encoding="utf-8"?>
<!-- Generator: Adobe Illustrator 21.0.0, SVG Export Plug-In . SVG Version: 6.00 Build 0)  -->
<svg version="1.1" id="Layer_1" xmlns="http://www.w3.org/2000/svg" xmlns:xlink="http://www.w3.org/1999/xlink" x="0px" y="0px"
	 viewBox="0 0 60 60" style="enable-background:new 0 0 60 60;" xml:space="preserve">
<style type="text/css">
	.st0{display:none;opacity:0.2;}
	.st1{display:inline;fill:none;stroke:#00ADEE;stroke-width:0.125;stroke-miterlimit:10;}
	.st2{fill:#231F20;}
</style>
<g class="st0">
	<path class="st1" d="M-0.375-1.557"/>
	<line class="st1" x1="1.875" y1="62.156" x2="1.875" y2="-1.36"/>
	<line class="st1" x1="4.125" y1="62.353" x2="4.125" y2="-1.557"/>
	<line class="st1" x1="6.375" y1="61.959" x2="6.375" y2="-1.311"/>
	<line class="st1" x1="8.625" y1="62.746" x2="8.625" y2="-1.655"/>
	<line class="st1" x1="10.875" y1="62.353" x2="10.875" y2="-1.508"/>
	<line class="st1" x1="13.125" y1="62.5" x2="13.125" y2="-1.606"/>
	<line class="st1" x1="15.375" y1="62.353" x2="15.375" y2="-1.557"/>
	<line class="st1" x1="17.625" y1="62.5" x2="17.625" y2="-1.902"/>
	<line class="st1" x1="19.875" y1="62.156" x2="19.875" y2="-1.655"/>
	<line class="st1" x1="22.125" y1="62.303" x2="22.125" y2="-1.852"/>
	<line class="st1" x1="24.375" y1="62.106" x2="24.375" y2="-1.458"/>
	<line class="st1" x1="26.625" y1="62.254" x2="26.625" y2="-1.508"/>
	<line class="st1" x1="28.875" y1="62.303" x2="28.875" y2="-1.508"/>
	<line class="st1" x1="31.125" y1="62.057" x2="31.125" y2="-1.458"/>
	<line class="st1" x1="33.375" y1="62.106" x2="33.375" y2="-1.409"/>
	<line class="st1" x1="35.625" y1="62.353" x2="35.625" y2="-1.606"/>
	<line class="st1" x1="37.875" y1="62.156" x2="37.875" y2="-1.557"/>
	<line class="st1" x1="40.125" y1="62.451" x2="40.125" y2="-1.508"/>
	<line class="st1" x1="42.375" y1="62.254" x2="42.375" y2="-1.36"/>
	<line class="st1" x1="44.625" y1="62.106" x2="44.625" y2="-1.508"/>
	<line class="st1" x1="46.875" y1="62.156" x2="46.875" y2="-1.508"/>
	<line class="st1" x1="49.125" y1="62.106" x2="49.125" y2="-1.508"/>
	<line class="st1" x1="51.375" y1="61.86" x2="51.375" y2="-1.557"/>
	<line class="st1" x1="53.625" y1="62.156" x2="53.625" y2="-1.754"/>
	<line class="st1" x1="55.875" y1="62.156" x2="55.875" y2="-1.606"/>
	<line class="st1" x1="58.125" y1="62.451" x2="58.125" y2="-1.606"/>
	<line class="st1" x1="0.707" y1="62.173" x2="-1.49" y2="60.904"/>
	<line class="st1" x1="5.116" y1="62.12" x2="-1.544" y2="58.275"/>
	<line class="st1" x1="9.971" y1="62.325" x2="-1.555" y2="55.67"/>
	<line class="st1" x1="14.59" y1="62.394" x2="-1.607" y2="53.042"/>
	<line class="st1" x1="18.865" y1="62.263" x2="-1.499" y2="50.506"/>
	<line class="st1" x1="23.182" y1="62.158" x2="-1.459" y2="47.931"/>
	<line class="st1" x1="27.736" y1="62.189" x2="-1.529" y2="45.293"/>
	<line class="st1" x1="32.049" y1="62.081" x2="-1.465" y2="42.732"/>
	<line class="st1" x1="36.749" y1="62.196" x2="-1.522" y2="40.101"/>
	<line class="st1" x1="41.271" y1="62.209" x2="-1.645" y2="37.431"/>
	<line class="st1" x1="45.801" y1="62.226" x2="-1.572" y2="34.876"/>
	<line class="st1" x1="50.08" y1="62.099" x2="-1.576" y2="32.275"/>
	<line class="st1" x1="54.737" y1="62.19" x2="-1.594" y2="29.667"/>
	<line class="st1" x1="59.428" y1="62.3" x2="-1.647" y2="27.038"/>
	<line class="st1" x1="61.539" y1="60.921" x2="-1.545" y2="24.499"/>
	<line class="st1" x1="61.758" y1="58.449" x2="-1.458" y2="21.951"/>
	<line class="st1" x1="61.545" y1="55.728" x2="-1.525" y2="19.314"/>
	<line class="st1" x1="61.597" y1="53.16" x2="-1.558" y2="16.697"/>
	<line class="st1" x1="61.527" y1="50.521" x2="-1.469" y2="14.15"/>
	<line class="st1" x1="61.65" y1="47.994" x2="-1.472" y2="11.551"/>
	<line class="st1" x1="61.538" y1="45.331" x2="-1.42" y2="8.983"/>
	<line class="st1" x1="61.48" y1="42.7" x2="-1.375" y2="6.41"/>
	<polyline class="st1" points="61.578,40.158 -1.135,3.951 -1.529,3.723 	"/>
	<polyline class="st1" points="61.514,37.524 -1.248,1.288 -2.111,0.79 	"/>
	<polyline class="st1" points="61.544,34.943 0,-0.59 -1.761,-1.606 	"/>
	<line class="st1" x1="61.353" y1="32.234" x2="2.933" y2="-1.494"/>
	<line class="st1" x1="61.482" y1="29.711" x2="7.489" y2="-1.462"/>
	<line class="st1" x1="61.479" y1="27.111" x2="11.988" y2="-1.463"/>
	<line class="st1" x1="61.458" y1="24.501" x2="16.186" y2="-1.637"/>
	<line class="st1" x1="61.361" y1="21.847" x2="20.651" y2="-1.657"/>
	<line class="st1" x1="61.563" y1="19.365" x2="25.485" y2="-1.464"/>
	<line class="st1" x1="61.605" y1="16.791" x2="30.1" y2="-1.398"/>
	<line class="st1" x1="61.433" y1="14.094" x2="34.593" y2="-1.402"/>
	<line class="st1" x1="61.589" y1="11.586" x2="38.944" y2="-1.488"/>
	<line class="st1" x1="61.366" y1="8.86" x2="43.447" y2="-1.486"/>
	<line class="st1" x1="61.599" y1="6.396" x2="48.098" y2="-1.399"/>
	<line class="st1" x1="61.587" y1="3.79" x2="52.221" y2="-1.617"/>
	<line class="st1" x1="61.605" y1="1.203" x2="56.949" y2="-1.485"/>
	<path class="st1" d="M61.536-1.435"/>
	<path class="st1" d="M-57.75-91.089"/>
	<path class="st1" d="M-56.625-93.038"/>
	<path class="st1" d="M-55.5-94.987"/>
	<path class="st1" d="M-54.375-96.935"/>
	<path class="st1" d="M-53.25-98.884"/>
	<path class="st1" d="M-52.125-100.832"/>
	<path class="st1" d="M-51-102.781"/>
	<path class="st1" d="M-49.875-104.729"/>
	<path class="st1" d="M-48.75-106.678"/>
	<path class="st1" d="M61.631,62.121"/>
	<line class="st1" x1="56.838" y1="62.29" x2="61.535" y2="59.579"/>
	<line class="st1" x1="52.761" y1="62.046" x2="61.655" y2="56.911"/>
	<line class="st1" x1="48.248" y1="62.054" x2="61.639" y2="54.322"/>
	<line class="st1" x1="43.747" y1="62.054" x2="61.555" y2="51.773"/>
	<line class="st1" x1="38.977" y1="62.211" x2="61.555" y2="49.175"/>
	<line class="st1" x1="34.718" y1="62.071" x2="61.602" y2="46.55"/>
	<line class="st1" x1="30.312" y1="62.017" x2="61.607" y2="43.949"/>
	<line class="st1" x1="25.399" y1="62.256" x2="61.575" y2="41.369"/>
	<line class="st1" x1="21.12" y1="62.128" x2="61.516" y2="38.805"/>
	<line class="st1" x1="16.295" y1="62.315" x2="61.616" y2="36.149"/>
	<line class="st1" x1="11.778" y1="62.325" x2="61.415" y2="33.667"/>
	<line class="st1" x1="6.949" y1="62.515" x2="61.557" y2="30.987"/>
	<line class="st1" x1="3.231" y1="62.064" x2="61.44" y2="28.457"/>
	<line class="st1" x1="-1.62" y1="62.266" x2="61.498" y2="25.825"/>
	<line class="st1" x1="-1.625" y1="59.671" x2="61.567" y2="23.187"/>
	<line class="st1" x1="-1.398" y1="56.942" x2="61.477" y2="20.641"/>
	<line class="st1" x1="-1.514" y1="54.411" x2="61.651" y2="17.943"/>
	<line class="st1" x1="-1.367" y1="51.728" x2="61.481" y2="15.443"/>
	<line class="st1" x1="-1.426" y1="49.164" x2="61.624" y2="12.762"/>
	<line class="st1" x1="-1.554" y1="46.64" x2="61.559" y2="10.201"/>
	<line class="st1" x1="-1.659" y1="44.102" x2="61.506" y2="7.634"/>
	<line class="st1" x1="-1.549" y1="41.441" x2="61.496" y2="5.042"/>
	<line class="st1" x1="-1.501" y1="38.815" x2="61.691" y2="2.331"/>
	<line class="st1" x1="-1.687" y1="36.324" x2="61.659" y2="-0.249"/>
	<line class="st1" x1="-1.522" y1="33.631" x2="59.322" y2="-1.497"/>
	<line class="st1" x1="-1.64" y1="31.101" x2="55.116" y2="-1.667"/>
	<line class="st1" x1="-1.454" y1="28.396" x2="50.498" y2="-1.599"/>
	<line class="st1" x1="-1.477" y1="25.811" x2="46.01" y2="-1.606"/>
	<line class="st1" x1="-1.619" y1="23.295" x2="41.374" y2="-1.527"/>
	<line class="st1" x1="-1.589" y1="20.679" x2="36.704" y2="-1.429"/>
	<line class="st1" x1="-1.499" y1="18.029" x2="32.345" y2="-1.51"/>
	<line class="st1" x1="-1.488" y1="15.425" x2="27.96" y2="-1.577"/>
	<line class="st1" x1="-1.537" y1="12.855" x2="23.453" y2="-1.573"/>
	<line class="st1" x1="-1.447" y1="10.205" x2="19.027" y2="-1.616"/>
	<polyline class="st1" points="-1.57,7.678 -0.992,7.344 14.636,-1.679 	"/>
	<line class="st1" x1="-1.692" y1="5.15" x2="9.935" y2="-1.562"/>
	<line class="st1" x1="-1.256" y1="2.301" x2="4.909" y2="-1.259"/>
	<path class="st1" d="M0.826-1.5"/>
</g>
<path class="st2" d="M56.2412,14.8057c-0.1396-0.2402-0.4482-0.3179-0.6846-0.1777l-6.2533,3.6797
	c-1.2021-1.6089-2.9776-2.8112-4.9596-3.1606c-1.2559-0.2222-2.4785-0.0854-3.584,0.4146l-4.0918,2.3086l0.0189,0.0328
	c-0.8809,0.5637-1.5766,1.3785-2.0078,2.39l-4.3714,2.4366c-0.0117,0.0045-0.023,0.0067-0.0347,0.0112l0.0026,0.0067L19.853,28.5568
	c-1.0911-0.1172-2.1548,0.0258-3.1294,0.4671l-4.6782,2.7056l0.0136,0.024c-1.5641,1.0029-2.4951,2.7506-2.4951,4.768
	c0,1.3892,0.4372,2.7536,1.1768,3.9456l-6.8721,4.0437c-0.2383,0.1396-0.3174,0.4463-0.1777,0.6846
	c0.0933,0.1582,0.2603,0.2461,0.4316,0.2461c0.0859,0,0.1733-0.0225,0.2529-0.0693l6.9461-4.0872
	c1.197,1.5002,2.8997,2.6133,4.7927,2.9476c0.3882,0.0684,0.7734,0.1025,1.1519,0.1025c0.919,0,1.7945-0.2065,2.5747-0.5928
	l0.0034,0.0059l0.567-0.3276c0.0125-0.0082,0.0266-0.0137,0.039-0.022c0.001-0.0007,0.0018-0.0015,0.0028-0.0021l1.1759-0.6795
	l1.7124-1.0615c1.4875-0.8577,2.4805-1.8354,3.0233-2.9901l14.5326-8.282c0.3419,0.0525,0.6815,0.0905,1.013,0.0905
	c0.9174,0,1.7778-0.2148,2.5519-0.6006l0.0076,0.0132l0.1286-0.0752c0.0955-0.051,0.1876-0.1069,0.2799-0.1637l2.6931-1.5751
	c2.0488-0.8525,3.3223-2.8506,3.3223-5.2144c0-1.3001-0.3846-2.5776-1.0393-3.7133l6.2102-3.6544
	C56.3018,15.3501,56.3818,15.0435,56.2412,14.8057z M38.0911,30.8316c0.2782-0.6074,0.4626-1.277,0.4626-1.9644
	c0-3.0317-2.4639-5.9331-5.4922-6.4673c-0.0324-0.0057-0.0665-0.0048-0.0991-0.0098l2.4171-1.3481l0.0541,0.0175
	c0.0071-0.0222,0.0192-0.0405,0.0267-0.0625l1.4821-0.8267c0.8086-0.3125,1.5684-0.4097,2.2549-0.2891
	c2.5732,0.4541,4.666,2.9131,4.666,5.4824c0,1.1963-0.6172,2.5049-1.3936,2.9727L38.0911,30.8316z M32.8877,23.3843
	c2.5732,0.4541,4.666,2.9136,4.666,5.4829c0,1.2622-0.7666,2.4785-1.5264,3.124l0.0094,0.011l-3.9804,2.2682
	c0.2964-0.6775,0.472-1.4052,0.472-2.0859c0-3.0313-2.4639-5.9326-5.4917-6.4668c-0.0121-0.0022-0.0243-0.0002-0.0365-0.0023
	l3.7013-2.0643C31.4837,23.3592,32.2198,23.2676,32.8877,23.3843z M16.2881,43.248c-1.6109-0.2846-3.0659-1.212-4.1071-2.4689
	l1.8511-1.0892c0.5588,0.5898,1.282,1.0255,2.0822,1.1665c0.1948,0.0342,0.3867,0.0518,0.5752,0.0518
	c0.6763,0,1.3013-0.2188,1.8003-0.6377c0.627-0.5264,0.9722-1.3008,0.9722-2.1807c0-1.7529-1.4238-3.4307-3.1738-3.7402
	c-0.896-0.1582-1.7383,0.0508-2.3765,0.5859c-0.6265,0.5264-0.9717,1.3008-0.9717,2.1807c0,0.6187,0.1846,1.2247,0.4911,1.7679
	l-1.8369,1.0809c-0.6473-1.0403-1.0302-2.2311-1.0302-3.4435c0-1.7852,0.8589-3.3164,2.2974-4.0967
	c0.6787-0.3682,1.4482-0.5547,2.2642-0.5547c0.3228,0,0.6533,0.0293,0.9878,0.0879c3.1567,0.5576,5.7246,3.5752,5.7246,6.7266
	c0,1.6313-0.7061,3.0435-1.9367,3.8764l-0.0482,0.0278C18.8603,43.2432,17.5963,43.4767,16.2881,43.248z M16.6172,37.5889
	c-0.1396-0.2383-0.4468-0.3164-0.6846-0.1768l-1.6476,0.9695c-0.2144-0.391-0.345-0.8233-0.345-1.2654
	c0-0.5791,0.2183-1.0811,0.6147-1.4141c0.3159-0.2656,0.7192-0.4033,1.1626-0.4033c0.1294,0,0.2622,0.0117,0.397,0.0352
	c1.2944,0.2285,2.3477,1.4648,2.3477,2.7559c0,0.5791-0.2183,1.082-0.6147,1.4141c-0.4077,0.3428-0.9609,0.4727-1.5591,0.3682
	c-0.5165-0.0911-0.9904-0.347-1.3785-0.6984l1.5298-0.9002C16.6777,38.1338,16.7568,37.8271,16.6172,37.5889z M22.8281,40.7969
	l-0.485,0.3009c0.3175-0.7316,0.4948-1.5449,0.4948-2.4132c0-3.6143-2.9385-7.0732-6.5508-7.7109
	c-0.2711-0.0475-0.5377-0.0641-0.8036-0.0788l1.6967-0.9827c0.8823-0.3965,1.9053-0.5083,2.96-0.3218
	c3.1563,0.5566,5.7236,3.5747,5.7236,6.7271C25.8638,38.2051,24.9316,39.584,22.8281,40.7969z M21.3364,28.8743l3.2062-1.7882
	c0.6153-0.2366,1.513-0.5243,2.3197-0.384c2.5728,0.4546,4.666,2.9136,4.666,5.4824c0,1.2688-0.7543,2.5989-1.473,3.2262
	l-3.2729,1.8651c0.0492-0.3091,0.0814-0.6259,0.0814-0.9585C26.8638,33.0511,24.4626,29.9194,21.3364,28.8743z M42.9746,29.1992
	c1.0947-0.6587,1.8887-2.2715,1.8887-3.8354c0-3.0317-2.4639-5.9331-5.4922-6.4673c-0.8549-0.1486-1.7801-0.0388-2.8059,0.3557
	c0.2618-0.2532,0.5433-0.4838,0.8621-0.6624l0.0068-0.0038c0.9288-0.5181,2.0756-0.7071,3.3062-0.4908
	c3.1563,0.5571,5.7236,3.5747,5.7236,6.7266c0,1.4717-0.5635,2.7549-1.5859,3.6128c-0.2396,0.2008-0.5026,0.3652-0.7766,0.5087
	l-0.0969,0.0565c-0.423,0.2079-0.8892,0.3244-1.3723,0.3946L42.9746,29.1992z M47.125,27.1802l-0.1598,0.0932
	c0.3269-0.7397,0.4987-1.5686,0.4987-2.4516c0-3.6143-2.9385-7.0737-6.5498-7.7109c-0.252-0.0446-0.4979-0.0546-0.7447-0.0699
	l1.0406-0.5878c0.8828-0.3965,1.9053-0.5083,2.96-0.3218c1.8021,0.3178,3.4098,1.4393,4.4597,2.9286
	c0.0087,0.064,0.0297,0.1274,0.0647,0.1866c0.0419,0.0716,0.1022,0.1237,0.1678,0.1649c0.6481,1.0409,1.0314,2.2328,1.0314,3.4464
	C49.8936,24.8398,48.8818,26.4438,47.125,27.1802z"/>
</svg>
