<?xml version="1.0" encoding="utf-8"?>
<!-- Generator: Adobe Illustrator 21.0.0, SVG Export Plug-In . SVG Version: 6.00 Build 0)  -->
<svg version="1.1" id="Layer_1" xmlns="http://www.w3.org/2000/svg" xmlns:xlink="http://www.w3.org/1999/xlink" x="0px" y="0px"
	 viewBox="0 0 30 30" style="enable-background:new 0 0 30 30;" xml:space="preserve">
<style type="text/css">
	.st0{display:none;opacity:0.2;}
	.st1{display:inline;fill:none;stroke:#00ADEE;stroke-width:0.125;stroke-miterlimit:10;}
	.st2{fill:#231F20;}
</style>
<g class="st0">
	<path class="st1" d="M-15.375-16.557"/>
	<line class="st1" x1="-13.125" y1="47.1558" x2="-13.125" y2="-16.3603"/>
	<line class="st1" x1="-10.875" y1="47.3529" x2="-10.875" y2="-16.5568"/>
	<line class="st1" x1="-8.625" y1="46.959" x2="-8.625" y2="-16.3109"/>
	<line class="st1" x1="-6.375" y1="47.746" x2="-6.375" y2="-16.6546"/>
	<line class="st1" x1="-4.125" y1="47.3529" x2="-4.125" y2="-16.5079"/>
	<line class="st1" x1="-1.875" y1="47.4999" x2="-1.875" y2="-16.6061"/>
	<line class="st1" x1="0.375" y1="47.3529" x2="0.375" y2="-16.5568"/>
	<line class="st1" x1="2.625" y1="47.4999" x2="2.625" y2="-16.9021"/>
	<line class="st1" x1="4.875" y1="47.1558" x2="4.875" y2="-16.6547"/>
	<line class="st1" x1="7.125" y1="47.3029" x2="7.125" y2="-16.8517"/>
	<line class="st1" x1="9.375" y1="47.1063" x2="9.375" y2="-16.4577"/>
	<line class="st1" x1="11.625" y1="47.2541" x2="11.625" y2="-16.5081"/>
	<line class="st1" x1="13.875" y1="47.3029" x2="13.875" y2="-16.5079"/>
	<line class="st1" x1="16.125" y1="47.0567" x2="16.125" y2="-16.458"/>
	<line class="st1" x1="18.375" y1="47.1063" x2="18.375" y2="-16.4089"/>
	<line class="st1" x1="20.625" y1="47.3529" x2="20.625" y2="-16.6058"/>
	<line class="st1" x1="22.875" y1="47.1558" x2="22.875" y2="-16.5569"/>
	<line class="st1" x1="25.125" y1="47.4511" x2="25.125" y2="-16.5082"/>
	<line class="st1" x1="27.375" y1="47.2541" x2="27.375" y2="-16.3603"/>
	<line class="st1" x1="29.625" y1="47.1063" x2="29.625" y2="-16.5077"/>
	<line class="st1" x1="31.875" y1="47.1558" x2="31.875" y2="-16.508"/>
	<line class="st1" x1="34.125" y1="47.1063" x2="34.125" y2="-16.5077"/>
	<line class="st1" x1="36.375" y1="46.8598" x2="36.375" y2="-16.5566"/>
	<line class="st1" x1="38.625" y1="47.1558" x2="38.625" y2="-16.7536"/>
	<line class="st1" x1="40.875" y1="47.1558" x2="40.875" y2="-16.6058"/>
	<line class="st1" x1="43.125" y1="47.4511" x2="43.125" y2="-16.6062"/>
	<line class="st1" x1="-14.2926" y1="47.1726" x2="-16.4896" y2="45.9041"/>
	<line class="st1" x1="-9.8838" y1="47.1199" x2="-16.5439" y2="43.2746"/>
	<line class="st1" x1="-5.0286" y1="47.3248" x2="-16.5547" y2="40.6703"/>
	<line class="st1" x1="-0.4099" y1="47.3936" x2="-16.607" y2="38.0421"/>
	<line class="st1" x1="3.8647" y1="47.2633" x2="-16.4987" y2="35.5065"/>
	<line class="st1" x1="8.1817" y1="47.1575" x2="-16.4585" y2="32.9315"/>
	<line class="st1" x1="12.7364" y1="47.1893" x2="-16.5287" y2="30.2931"/>
	<line class="st1" x1="17.0493" y1="47.0812" x2="-16.4649" y2="27.7317"/>
	<line class="st1" x1="21.7487" y1="47.1965" x2="-16.5216" y2="25.1011"/>
	<line class="st1" x1="26.2708" y1="47.2091" x2="-16.6454" y2="22.4314"/>
	<line class="st1" x1="30.8011" y1="47.2265" x2="-16.5718" y2="19.8757"/>
	<line class="st1" x1="35.0797" y1="47.0989" x2="-16.5759" y2="17.2755"/>
	<line class="st1" x1="39.7372" y1="47.1897" x2="-16.5939" y2="14.6669"/>
	<line class="st1" x1="44.4278" y1="47.2996" x2="-16.6466" y2="12.0384"/>
	<line class="st1" x1="46.5391" y1="45.9207" x2="-16.5451" y2="9.499"/>
	<line class="st1" x1="46.7575" y1="43.4487" x2="-16.4576" y2="6.9515"/>
	<line class="st1" x1="46.5446" y1="40.7275" x2="-16.5248" y2="4.3145"/>
	<line class="st1" x1="46.5973" y1="38.16" x2="-16.5582" y2="1.6972"/>
	<line class="st1" x1="46.5272" y1="35.5214" x2="-16.4693" y2="-0.8496"/>
	<line class="st1" x1="46.6505" y1="32.9944" x2="-16.4717" y2="-3.4492"/>
	<line class="st1" x1="46.5376" y1="30.3314" x2="-16.4197" y2="-6.017"/>
	<line class="st1" x1="46.4796" y1="27.6997" x2="-16.3754" y2="-8.5896"/>
	<polyline class="st1" points="46.5777,25.1581 -16.1346,-11.0488 -16.5294,-11.2767 	"/>
	<polyline class="st1" points="46.5142,22.5236 -16.248,-13.7121 -17.1105,-14.2101 	"/>
	<polyline class="st1" points="46.5439,19.9426 -14.9996,-15.5896 -16.7609,-16.6065 	"/>
	<line class="st1" x1="46.3527" y1="17.2343" x2="-12.0668" y2="-16.4943"/>
	<line class="st1" x1="46.4824" y1="14.711" x2="-7.5112" y2="-16.4622"/>
	<line class="st1" x1="46.479" y1="12.1109" x2="-3.0123" y2="-16.4629"/>
	<line class="st1" x1="46.4578" y1="9.5007" x2="1.1859" y2="-16.637"/>
	<line class="st1" x1="46.3608" y1="6.8466" x2="5.6507" y2="-16.6575"/>
	<line class="st1" x1="46.5626" y1="4.3649" x2="10.4854" y2="-16.4643"/>
	<line class="st1" x1="46.6047" y1="1.7913" x2="15.0995" y2="-16.3983"/>
	<line class="st1" x1="46.4335" y1="-0.9057" x2="19.5934" y2="-16.4018"/>
	<line class="st1" x1="46.5889" y1="-3.4142" x2="23.9443" y2="-16.488"/>
	<line class="st1" x1="46.3665" y1="-6.1405" x2="28.4468" y2="-16.4864"/>
	<line class="st1" x1="46.5992" y1="-8.6043" x2="33.0984" y2="-16.399"/>
	<line class="st1" x1="46.5865" y1="-11.2098" x2="37.2213" y2="-16.6168"/>
	<line class="st1" x1="46.6046" y1="-13.7973" x2="41.9486" y2="-16.4854"/>
	<path class="st1" d="M46.5364-16.4349"/>
	<path class="st1" d="M-72.75-106.0893"/>
	<path class="st1" d="M-71.625-108.0379"/>
	<path class="st1" d="M-70.5-109.9865"/>
	<path class="st1" d="M-69.375-111.935"/>
	<path class="st1" d="M-68.25-113.8836"/>
	<path class="st1" d="M-67.125-115.8321"/>
	<path class="st1" d="M-66-117.7807"/>
	<path class="st1" d="M-64.875-119.7292"/>
	<path class="st1" d="M-63.75-121.6778"/>
	<path class="st1" d="M46.631,47.1215"/>
	<line class="st1" x1="41.8384" y1="47.2903" x2="46.5346" y2="44.579"/>
	<line class="st1" x1="37.761" y1="47.0465" x2="46.6554" y2="41.9113"/>
	<line class="st1" x1="33.2481" y1="47.0539" x2="46.6394" y2="39.3224"/>
	<line class="st1" x1="28.7471" y1="47.0544" x2="46.5552" y2="36.7729"/>
	<line class="st1" x1="23.9766" y1="47.2107" x2="46.5546" y2="34.1753"/>
	<line class="st1" x1="19.718" y1="47.0712" x2="46.6021" y2="31.5497"/>
	<line class="st1" x1="15.3122" y1="47.0167" x2="46.6066" y2="28.9489"/>
	<line class="st1" x1="10.3988" y1="47.2556" x2="46.5751" y2="26.3692"/>
	<line class="st1" x1="6.1197" y1="47.1279" x2="46.5162" y2="23.805"/>
	<line class="st1" x1="1.2953" y1="47.3154" x2="46.6164" y2="21.1493"/>
	<line class="st1" x1="-3.222" y1="47.3253" x2="46.4154" y2="18.6671"/>
	<line class="st1" x1="-8.0514" y1="47.5153" x2="46.5572" y2="15.9871"/>
	<line class="st1" x1="-11.769" y1="47.0639" x2="46.4405" y2="13.4566"/>
	<line class="st1" x1="-16.6198" y1="47.2663" x2="46.4978" y2="10.8253"/>
	<line class="st1" x1="-16.6252" y1="44.6712" x2="46.5671" y2="8.1872"/>
	<line class="st1" x1="-16.3982" y1="41.9423" x2="46.4768" y2="5.6413"/>
	<line class="st1" x1="-16.5136" y1="39.4107" x2="46.6506" y2="2.9429"/>
	<line class="st1" x1="-16.3672" y1="36.728" x2="46.4811" y2="0.4426"/>
	<line class="st1" x1="-16.4261" y1="34.1641" x2="46.6243" y2="-2.2381"/>
	<line class="st1" x1="-16.5537" y1="31.6396" x2="46.5591" y2="-4.7985"/>
	<line class="st1" x1="-16.6591" y1="29.1023" x2="46.5062" y2="-7.3662"/>
	<line class="st1" x1="-16.5488" y1="26.4407" x2="46.4955" y2="-9.9579"/>
	<line class="st1" x1="-16.5014" y1="23.8152" x2="46.6906" y2="-12.6687"/>
	<line class="st1" x1="-16.6869" y1="21.324" x2="46.6589" y2="-15.2486"/>
	<line class="st1" x1="-16.5222" y1="18.6311" x2="44.3216" y2="-16.497"/>
	<line class="st1" x1="-16.6397" y1="16.1008" x2="40.1155" y2="-16.6668"/>
	<line class="st1" x1="-16.4543" y1="13.3959" x2="35.4976" y2="-16.5986"/>
	<line class="st1" x1="-16.4766" y1="10.8105" x2="31.0105" y2="-16.6061"/>
	<line class="st1" x1="-16.6191" y1="8.2947" x2="26.3737" y2="-16.5272"/>
	<line class="st1" x1="-16.5886" y1="5.6791" x2="21.7039" y2="-16.4291"/>
	<line class="st1" x1="-16.4987" y1="3.0291" x2="17.3446" y2="-16.5104"/>
	<line class="st1" x1="-16.4879" y1="0.4247" x2="12.9603" y2="-16.5772"/>
	<line class="st1" x1="-16.5374" y1="-2.1447" x2="8.4534" y2="-16.5731"/>
	<line class="st1" x1="-16.4468" y1="-4.7952" x2="4.0268" y2="-16.6156"/>
	<polyline class="st1" points="-16.5695,-7.3225 -15.9916,-7.6561 -0.3642,-16.6786 	"/>
	<line class="st1" x1="-16.6918" y1="-9.8497" x2="-5.065" y2="-16.5625"/>
	<line class="st1" x1="-16.2564" y1="-12.6993" x2="-10.0909" y2="-16.259"/>
	<path class="st1" d="M-14.1742-16.4997"/>
</g>
<path class="st2" d="M28.9893,6.8896c-0.1182-0.2012-0.3779-0.2661-0.5791-0.1499l-3.1917,1.8781
	c-0.6566-0.8251-1.5867-1.4407-2.6267-1.6242c-0.6914-0.1211-1.373-0.0459-2,0.2378l-2.1631,1.2202L18.44,8.4713
	c-0.4796,0.3045-0.8621,0.7421-1.1059,1.2853l-2.2551,1.257c-0.0028,0.001-0.0054,0.001-0.0082,0.0021l0.0008,0.002l-5.485,3.0573
	c-0.5864-0.0535-1.1606,0.0285-1.6989,0.2727l-2.4702,1.4292l0.014,0.0247c-0.8752,0.559-1.4061,1.5217-1.4061,2.6447
	c0,0.7097,0.213,1.4052,0.5684,2.0258l-3.5001,2.0592c-0.2012,0.1182-0.2686,0.377-0.1499,0.5791
	c0.0786,0.1338,0.2197,0.208,0.3647,0.208c0.0728,0,0.1465-0.0186,0.2139-0.0586l3.5526-2.0901
	c0.6509,0.7686,1.5502,1.3325,2.5426,1.5071c0.2144,0.0381,0.4277,0.0566,0.6377,0.0566c0.5131,0,1.0021-0.1165,1.439-0.3345
	l0.002,0.0034l0.1324-0.0792c0.0657-0.0372,0.1343-0.069,0.1971-0.1112c0.0091-0.0061,0.0153-0.0151,0.0243-0.0213l1.4938-0.8937
	c0.7977-0.4598,1.334-0.9853,1.6382-1.6031l7.5964-4.3292c0.1684,0.0231,0.3366,0.0446,0.5007,0.0446
	c0.5129,0,0.9946-0.121,1.4279-0.339l0.0037,0.0065l0.0629-0.0369c0.0543-0.029,0.1066-0.0609,0.1591-0.0933l1.3972-0.8191
	c1.1436-0.4756,1.8545-1.5874,1.8545-2.9023c0-0.662-0.192-1.3088-0.5048-1.8973l3.16-1.8595
	C29.041,7.3501,29.1074,7.0908,28.9893,6.8896z M16.4824,11.6602c1.2871,0.2266,2.335,1.4565,2.335,2.7412
	c0,0.6123-0.3887,1.2227-0.751,1.5308l0.003,0.0035l-1.7159,0.9778c0.074-0.255,0.126-0.5118,0.126-0.7592
	c0-1.5487-1.1669-3.0216-2.6633-3.4709l1.5892-0.8866C15.7938,11.6513,16.1533,11.6016,16.4824,11.6602z M16.9724,10.9225
	L18.71,9.9531c0.4014-0.1548,0.7754-0.2021,1.1074-0.1445c1.2871,0.2266,2.335,1.4565,2.335,2.7407
	c0,0.5728-0.2988,1.2178-0.6563,1.4336l-1.9287,1.0991c0.0604-0.2159,0.0957-0.4443,0.0957-0.6807
	C19.6631,12.8434,18.4821,11.362,16.9724,10.9225z M22.7451,14.0513c-0.1092,0.0916-0.2303,0.1646-0.3543,0.2321
	c0.3661-0.4537,0.6072-1.0988,0.6072-1.734c0-1.6758-1.3613-3.2788-3.0342-3.5737c-0.2001-0.0349-0.4087-0.0382-0.624-0.0216
	c0.387-0.1344,0.8272-0.1705,1.293-0.0887c1.5957,0.2813,2.8936,1.8057,2.8936,3.3984
	C23.5264,12.9937,23.249,13.6284,22.7451,14.0513z M7.7646,21.8447c-0.753-0.1327-1.4335-0.5481-1.9487-1.111l0.6986-0.4111
	c0.3041,0.2868,0.6824,0.4961,1.1031,0.5699c0.1128,0.0205,0.2241,0.0303,0.3335,0.0303c0.394,0,0.7593-0.1279,1.0518-0.374
	c0.3682-0.3086,0.5708-0.7607,0.5708-1.2734c0-1.0166-0.7944-1.9541-1.8091-2.1328c-0.5186-0.0947-1.0107,0.0313-1.3848,0.3447
	c-0.3677,0.3086-0.5703,0.7607-0.5703,1.2734c0,0.306,0.0788,0.6014,0.2068,0.8743l-0.7003,0.412
	c-0.2775-0.4921-0.445-1.0406-0.445-1.6008c0-0.8975,0.4126-1.6357,1.1318-2.0254c0.3345-0.1816,0.7148-0.2744,1.1196-0.2744
	c0.1616,0,0.3276,0.0146,0.4956,0.0449c1.5957,0.2813,2.8936,1.8057,2.8936,3.3984c0,0.7958-0.34,1.4818-0.9284,1.8948
	l-0.147,0.0879C8.9594,21.8499,8.3736,21.9523,7.7646,21.8447z M8.0479,18.9297c-0.1182-0.2012-0.3779-0.2705-0.5786-0.1494
	l-0.7227,0.4252c-0.0581-0.1429-0.0912-0.2936-0.0912-0.4448c0-0.2578,0.0952-0.4805,0.2681-0.626
	c0.1382-0.1152,0.3164-0.1758,0.5137-0.1758c0.0586,0,0.1191,0.0049,0.1807,0.0156c0.6021,0.1064,1.1104,0.7021,1.1104,1.3008
	c0,0.2588-0.0952,0.4805-0.2686,0.626c-0.1792,0.1504-0.4253,0.207-0.6948,0.1592c-0.1676-0.0297-0.3234-0.1033-0.4675-0.1983
	l0.6008-0.3535C8.0991,19.3906,8.1665,19.1318,8.0479,18.9297z M11.2263,20.4985c0.0789-0.2889,0.1312-0.59,0.1312-0.9086
	c0-1.9694-1.5901-3.8511-3.5513-4.22l0.4678-0.2712c0.4375-0.1973,0.9448-0.251,1.4722-0.1587
	c1.5957,0.2813,2.8936,1.8062,2.8936,3.3989C12.6396,19.2485,12.2139,19.8986,11.2263,20.4985z M10.7698,14.3829l1.3896-0.7753
	c0.1876-0.0723,0.7096-0.2687,1.1393-0.1941c1.2876,0.2266,2.335,1.4565,2.335,2.7407c0,0.6196-0.3668,1.2676-0.7185,1.5787
	l-1.4438,0.8228c0.0044-0.0724,0.0139-0.1423,0.0139-0.2169C13.4854,16.6592,12.3257,15.0522,10.7698,14.3829z M24.2274,13.2079
	c0.0853-0.2994,0.1447-0.6112,0.1447-0.9442c0-1.9583-1.5718-3.8264-3.5181-4.2107l0.1196-0.0676
	c0.4355-0.1968,0.9424-0.2515,1.4717-0.1587c0.9186,0.1619,1.7288,0.7425,2.2592,1.5043c0.0084,0.0222,0.0106,0.0454,0.023,0.0665
	c0.0214,0.0363,0.0561,0.0565,0.0854,0.0837c0.3292,0.5269,0.5259,1.1293,0.5259,1.7439
	C25.3389,12.0927,24.9309,12.7947,24.2274,13.2079z"/>
</svg>
