<?xml version="1.0" encoding="utf-8"?>
<!-- Generator: Adobe Illustrator 21.0.0, SVG Export Plug-In . SVG Version: 6.00 Build 0)  -->
<svg version="1.1" id="Layer_1" xmlns="http://www.w3.org/2000/svg" xmlns:xlink="http://www.w3.org/1999/xlink" x="0px" y="0px"
	 viewBox="0 0 60 60" style="enable-background:new 0 0 60 60;" xml:space="preserve">
<style type="text/css">
	.st0{display:none;opacity:0.2;}
	.st1{display:inline;fill:none;stroke:#00ADEE;stroke-width:0.125;stroke-miterlimit:10;}
	.st2{fill:#231F20;}
</style>
<g class="st0">
	<path class="st1" d="M-0.375-1.557"/>
	<line class="st1" x1="1.875" y1="62.156" x2="1.875" y2="-1.36"/>
	<line class="st1" x1="4.125" y1="62.353" x2="4.125" y2="-1.557"/>
	<line class="st1" x1="6.375" y1="61.959" x2="6.375" y2="-1.311"/>
	<line class="st1" x1="8.625" y1="62.746" x2="8.625" y2="-1.655"/>
	<line class="st1" x1="10.875" y1="62.353" x2="10.875" y2="-1.508"/>
	<line class="st1" x1="13.125" y1="62.5" x2="13.125" y2="-1.606"/>
	<line class="st1" x1="15.375" y1="62.353" x2="15.375" y2="-1.557"/>
	<line class="st1" x1="17.625" y1="62.5" x2="17.625" y2="-1.902"/>
	<line class="st1" x1="19.875" y1="62.156" x2="19.875" y2="-1.655"/>
	<line class="st1" x1="22.125" y1="62.303" x2="22.125" y2="-1.852"/>
	<line class="st1" x1="24.375" y1="62.106" x2="24.375" y2="-1.458"/>
	<line class="st1" x1="26.625" y1="62.254" x2="26.625" y2="-1.508"/>
	<line class="st1" x1="28.875" y1="62.303" x2="28.875" y2="-1.508"/>
	<line class="st1" x1="31.125" y1="62.057" x2="31.125" y2="-1.458"/>
	<line class="st1" x1="33.375" y1="62.106" x2="33.375" y2="-1.409"/>
	<line class="st1" x1="35.625" y1="62.353" x2="35.625" y2="-1.606"/>
	<line class="st1" x1="37.875" y1="62.156" x2="37.875" y2="-1.557"/>
	<line class="st1" x1="40.125" y1="62.451" x2="40.125" y2="-1.508"/>
	<line class="st1" x1="42.375" y1="62.254" x2="42.375" y2="-1.36"/>
	<line class="st1" x1="44.625" y1="62.106" x2="44.625" y2="-1.508"/>
	<line class="st1" x1="46.875" y1="62.156" x2="46.875" y2="-1.508"/>
	<line class="st1" x1="49.125" y1="62.106" x2="49.125" y2="-1.508"/>
	<line class="st1" x1="51.375" y1="61.86" x2="51.375" y2="-1.557"/>
	<line class="st1" x1="53.625" y1="62.156" x2="53.625" y2="-1.754"/>
	<line class="st1" x1="55.875" y1="62.156" x2="55.875" y2="-1.606"/>
	<line class="st1" x1="58.125" y1="62.451" x2="58.125" y2="-1.606"/>
	<line class="st1" x1="0.707" y1="62.173" x2="-1.49" y2="60.904"/>
	<line class="st1" x1="5.116" y1="62.12" x2="-1.544" y2="58.275"/>
	<line class="st1" x1="9.971" y1="62.325" x2="-1.555" y2="55.67"/>
	<line class="st1" x1="14.59" y1="62.394" x2="-1.607" y2="53.042"/>
	<line class="st1" x1="18.865" y1="62.263" x2="-1.499" y2="50.506"/>
	<line class="st1" x1="23.182" y1="62.158" x2="-1.459" y2="47.931"/>
	<line class="st1" x1="27.736" y1="62.189" x2="-1.529" y2="45.293"/>
	<line class="st1" x1="32.049" y1="62.081" x2="-1.465" y2="42.732"/>
	<line class="st1" x1="36.749" y1="62.196" x2="-1.522" y2="40.101"/>
	<line class="st1" x1="41.271" y1="62.209" x2="-1.645" y2="37.431"/>
	<line class="st1" x1="45.801" y1="62.226" x2="-1.572" y2="34.876"/>
	<line class="st1" x1="50.08" y1="62.099" x2="-1.576" y2="32.275"/>
	<line class="st1" x1="54.737" y1="62.19" x2="-1.594" y2="29.667"/>
	<line class="st1" x1="59.428" y1="62.3" x2="-1.647" y2="27.038"/>
	<line class="st1" x1="61.539" y1="60.921" x2="-1.545" y2="24.499"/>
	<line class="st1" x1="61.758" y1="58.449" x2="-1.458" y2="21.951"/>
	<line class="st1" x1="61.545" y1="55.728" x2="-1.525" y2="19.314"/>
	<line class="st1" x1="61.597" y1="53.16" x2="-1.558" y2="16.697"/>
	<line class="st1" x1="61.527" y1="50.521" x2="-1.469" y2="14.15"/>
	<line class="st1" x1="61.65" y1="47.994" x2="-1.472" y2="11.551"/>
	<line class="st1" x1="61.538" y1="45.331" x2="-1.42" y2="8.983"/>
	<line class="st1" x1="61.48" y1="42.7" x2="-1.375" y2="6.41"/>
	<polyline class="st1" points="61.578,40.158 -1.135,3.951 -1.529,3.723 	"/>
	<polyline class="st1" points="61.514,37.524 -1.248,1.288 -2.111,0.79 	"/>
	<polyline class="st1" points="61.544,34.943 0,-0.59 -1.761,-1.606 	"/>
	<line class="st1" x1="61.353" y1="32.234" x2="2.933" y2="-1.494"/>
	<line class="st1" x1="61.482" y1="29.711" x2="7.489" y2="-1.462"/>
	<line class="st1" x1="61.479" y1="27.111" x2="11.988" y2="-1.463"/>
	<line class="st1" x1="61.458" y1="24.501" x2="16.186" y2="-1.637"/>
	<line class="st1" x1="61.361" y1="21.847" x2="20.651" y2="-1.657"/>
	<line class="st1" x1="61.563" y1="19.365" x2="25.485" y2="-1.464"/>
	<line class="st1" x1="61.605" y1="16.791" x2="30.1" y2="-1.398"/>
	<line class="st1" x1="61.433" y1="14.094" x2="34.593" y2="-1.402"/>
	<line class="st1" x1="61.589" y1="11.586" x2="38.944" y2="-1.488"/>
	<line class="st1" x1="61.366" y1="8.86" x2="43.447" y2="-1.486"/>
	<line class="st1" x1="61.599" y1="6.396" x2="48.098" y2="-1.399"/>
	<line class="st1" x1="61.587" y1="3.79" x2="52.221" y2="-1.617"/>
	<line class="st1" x1="61.605" y1="1.203" x2="56.949" y2="-1.485"/>
	<path class="st1" d="M61.536-1.435"/>
	<path class="st1" d="M-57.75-91.089"/>
	<path class="st1" d="M-56.625-93.038"/>
	<path class="st1" d="M-55.5-94.987"/>
	<path class="st1" d="M-54.375-96.935"/>
	<path class="st1" d="M-53.25-98.884"/>
	<path class="st1" d="M-52.125-100.832"/>
	<path class="st1" d="M-51-102.781"/>
	<path class="st1" d="M-49.875-104.729"/>
	<path class="st1" d="M-48.75-106.678"/>
	<path class="st1" d="M61.631,62.121"/>
	<line class="st1" x1="56.838" y1="62.29" x2="61.535" y2="59.579"/>
	<line class="st1" x1="52.761" y1="62.046" x2="61.655" y2="56.911"/>
	<line class="st1" x1="48.248" y1="62.054" x2="61.639" y2="54.322"/>
	<line class="st1" x1="43.747" y1="62.054" x2="61.555" y2="51.773"/>
	<line class="st1" x1="38.977" y1="62.211" x2="61.555" y2="49.175"/>
	<line class="st1" x1="34.718" y1="62.071" x2="61.602" y2="46.55"/>
	<line class="st1" x1="30.312" y1="62.017" x2="61.607" y2="43.949"/>
	<line class="st1" x1="25.399" y1="62.256" x2="61.575" y2="41.369"/>
	<line class="st1" x1="21.12" y1="62.128" x2="61.516" y2="38.805"/>
	<line class="st1" x1="16.295" y1="62.315" x2="61.616" y2="36.149"/>
	<line class="st1" x1="11.778" y1="62.325" x2="61.415" y2="33.667"/>
	<line class="st1" x1="6.949" y1="62.515" x2="61.557" y2="30.987"/>
	<line class="st1" x1="3.231" y1="62.064" x2="61.44" y2="28.457"/>
	<line class="st1" x1="-1.62" y1="62.266" x2="61.498" y2="25.825"/>
	<line class="st1" x1="-1.625" y1="59.671" x2="61.567" y2="23.187"/>
	<line class="st1" x1="-1.398" y1="56.942" x2="61.477" y2="20.641"/>
	<line class="st1" x1="-1.514" y1="54.411" x2="61.651" y2="17.943"/>
	<line class="st1" x1="-1.367" y1="51.728" x2="61.481" y2="15.443"/>
	<line class="st1" x1="-1.426" y1="49.164" x2="61.624" y2="12.762"/>
	<line class="st1" x1="-1.554" y1="46.64" x2="61.559" y2="10.201"/>
	<line class="st1" x1="-1.659" y1="44.102" x2="61.506" y2="7.634"/>
	<line class="st1" x1="-1.549" y1="41.441" x2="61.496" y2="5.042"/>
	<line class="st1" x1="-1.501" y1="38.815" x2="61.691" y2="2.331"/>
	<line class="st1" x1="-1.687" y1="36.324" x2="61.659" y2="-0.249"/>
	<line class="st1" x1="-1.522" y1="33.631" x2="59.322" y2="-1.497"/>
	<line class="st1" x1="-1.64" y1="31.101" x2="55.116" y2="-1.667"/>
	<line class="st1" x1="-1.454" y1="28.396" x2="50.498" y2="-1.599"/>
	<line class="st1" x1="-1.477" y1="25.811" x2="46.01" y2="-1.606"/>
	<line class="st1" x1="-1.619" y1="23.295" x2="41.374" y2="-1.527"/>
	<line class="st1" x1="-1.589" y1="20.679" x2="36.704" y2="-1.429"/>
	<line class="st1" x1="-1.499" y1="18.029" x2="32.345" y2="-1.51"/>
	<line class="st1" x1="-1.488" y1="15.425" x2="27.96" y2="-1.577"/>
	<line class="st1" x1="-1.537" y1="12.855" x2="23.453" y2="-1.573"/>
	<line class="st1" x1="-1.447" y1="10.205" x2="19.027" y2="-1.616"/>
	<polyline class="st1" points="-1.57,7.678 -0.992,7.344 14.636,-1.679 	"/>
	<line class="st1" x1="-1.692" y1="5.15" x2="9.935" y2="-1.562"/>
	<line class="st1" x1="-1.256" y1="2.301" x2="4.909" y2="-1.259"/>
	<path class="st1" d="M0.826-1.5"/>
</g>
<path class="st2" d="M58.3086,37.7559l-3.1641-1.8281v-3.6523c0-0.1738-0.0908-0.3359-0.2393-0.4268l-4.4219-2.7054v-5.5724
	c0-0.2764-0.2236-0.5-0.5-0.5c-0.0066,0-0.0121,0.0035-0.0186,0.0038l-2.3242-1.3637V16.709c0-0.016-0.0076-0.0295-0.0091-0.0451
	c0.0009-0.012,0.0091-0.0219,0.0091-0.034c0-0.1777-0.0947-0.3418-0.248-0.4316l-10.2383-5.9858
	c-0.1533-0.0894-0.3467-0.0908-0.502-0.0015l-7.6589,4.4166l-3.9294-2.2086c-0.1548-0.0864-0.3438-0.0854-0.4966,0.0039
	l-2.9727,1.73c-0.0084,0.0049-0.0129,0.0132-0.0209,0.0185c-0.0281,0.0184-0.0509,0.0425-0.0752,0.0667
	c-0.0239,0.024-0.0476,0.0465-0.0658,0.0742c-0.0054,0.0081-0.0139,0.0127-0.0188,0.0212c-0.011,0.019-0.0121,0.0401-0.0204,0.0598
	c-0.0135,0.0321-0.0264,0.0629-0.033,0.097c-0.0063,0.0323-0.0065,0.0635-0.0063,0.096c0,0.0312,0.0002,0.061,0.0061,0.092
	c0.0067,0.0351,0.0198,0.0667,0.0338,0.0996c0.0082,0.0192,0.009,0.0399,0.0198,0.0585c0.0049,0.0084,0.0133,0.0129,0.0186,0.021
	c0.0184,0.028,0.0422,0.0507,0.0663,0.0748c0.0239,0.0238,0.0463,0.0475,0.074,0.0656c0.0083,0.0055,0.0129,0.0142,0.0217,0.0192
	l3.348,1.9463l-4.0511,2.3361l-3.4966-1.989c-0.1543-0.0879-0.3438-0.0869-0.4985,0.0024l-2.9731,1.73
	c-0.009,0.0052-0.0137,0.0141-0.0223,0.0198c-0.0273,0.0181-0.0496,0.0414-0.0733,0.065c-0.0245,0.0245-0.0485,0.0479-0.0671,0.0764
	c-0.0054,0.0082-0.014,0.0129-0.0189,0.0215c-0.0105,0.0182-0.0112,0.0384-0.0192,0.0573c-0.014,0.0329-0.0268,0.0646-0.0335,0.0998
	c-0.006,0.0314-0.0062,0.0614-0.0062,0.0928c-0.0001,0.0322,0.0004,0.0629,0.0067,0.095c0.0067,0.0341,0.0193,0.0649,0.033,0.097
	c0.0082,0.0195,0.0092,0.0403,0.0201,0.0591c0.0052,0.009,0.0141,0.0137,0.0197,0.0222c0.0181,0.0274,0.0414,0.0496,0.065,0.0733
	c0.0244,0.0244,0.0475,0.0483,0.0759,0.0668c0.0084,0.0055,0.0131,0.0143,0.022,0.0193l2.9564,1.7036l-3.9741,2.2917l-4.0492-2.0891
	c-0.144-0.0737-0.313-0.0747-0.4565-0.001l-3.0259,1.542c-0.0123,0.0062-0.0195,0.0175-0.0311,0.0246
	c-0.0304,0.0185-0.0568,0.0405-0.0829,0.0656c-0.0238,0.0229-0.045,0.0459-0.0635,0.0725
	c-0.0084,0.0121-0.0211,0.0195-0.0286,0.0326c-0.0088,0.0153-0.0091,0.0323-0.0161,0.048
	c-0.0141,0.0314-0.0248,0.0623-0.0322,0.0959c-0.0069,0.0316-0.0107,0.0617-0.0114,0.0935
	c-0.0009,0.0313,0.0013,0.0612,0.0065,0.0926c0.0057,0.0345,0.015,0.0665,0.0277,0.0992c0.0061,0.0157,0.0056,0.0324,0.0134,0.0478
	c0.0066,0.0129,0.0184,0.0207,0.026,0.0328c0.018,0.0292,0.0392,0.0545,0.0634,0.0798c0.0229,0.024,0.0459,0.0455,0.0727,0.0641
	c0.0123,0.0087,0.0199,0.0216,0.0333,0.0293l4.162,2.4001l-0.9409,0.5281c-0.0124,0.007-0.0178,0.0209-0.0294,0.0287
	c-0.0504,0.034-0.0923,0.0749-0.1274,0.1245c-0.0128,0.0181-0.0256,0.0336-0.0359,0.0533
	c-0.0342,0.0649-0.0569,0.1356-0.0594,0.2136c-0.0001,0.0041-0.0032,0.0074-0.0032,0.0115c0,0.0007,0.0005,0.0012,0.0005,0.0019
	c0,0.0009-0.0005,0.0016-0.0005,0.0025v4.5795c-0.2772,0.0383-0.551,0.1132-0.8184,0.2344l-2.0503,1.1865l0.0117,0.0206
	c-0.7735,0.4902-1.2427,1.3373-1.2427,2.3251c0,1.7158,1.3931,3.3574,3.1064,3.6602c0.186,0.0332,0.3706,0.0488,0.5522,0.0488
	c0.4532,0,0.8857-0.104,1.2712-0.2979l0.0017,0.003l0.1178-0.0704c0.0547-0.0312,0.1121-0.0576,0.1644-0.0927
	c0.0074-0.005,0.0125-0.0124,0.0199-0.0175l1.2325-0.7365c0.3842-0.2217,0.6937-0.463,0.9438-0.7242l14.2706,8.7535
	c0.0078,0.0048,0.0174,0.0029,0.0253,0.0072c0.0712,0.039,0.1489,0.067,0.2359,0.067c0.0863,0,0.1635-0.0275,0.2343-0.0659
	c0.0082-0.0044,0.0179-0.0024,0.0259-0.0073l6.8717-4.1872l2.5184,1.4401v3.7275c0,0.1787,0.0957,0.3438,0.25,0.4326l3.2988,1.9043
	c0.0771,0.0449,0.1641,0.0674,0.25,0.0674s0.1729-0.0225,0.25-0.0674l3.4141-1.9717c0.1543-0.0889,0.25-0.2539,0.25-0.4326
	s-0.0957-0.3438-0.25-0.4326l-3.1641-1.8271v-3.6533c0-0.1738-0.0908-0.3359-0.2393-0.4268l-2.2673-1.3871l3.3096-2.0167
	l2.4528,1.4028v3.7275c0,0.1787,0.0957,0.3438,0.25,0.4326l3.2979,1.9033c0.0771,0.0449,0.1641,0.0674,0.25,0.0674
	s0.1729-0.0225,0.25-0.0674l3.4131-1.9707c0.1543-0.0889,0.25-0.2539,0.25-0.4326s-0.0957-0.3438-0.25-0.4326l-3.1631-1.8271V36.791
	c0-0.1738-0.0908-0.3359-0.2393-0.4268l-2.2037-1.3481l3.1374-1.9117l2.4892,1.4238v3.7256c0,0.1787,0.0957,0.3438,0.25,0.4326
	l3.2969,1.9043c0.0771,0.0449,0.1641,0.0674,0.25,0.0674s0.1729-0.0225,0.25-0.0674l3.4141-1.9697
	c0.1543-0.0889,0.25-0.2539,0.25-0.4326S58.4629,37.8447,58.3086,37.7559z M26.1597,37.1504l-2.0212-1.1808l22.9553-13.4203
	l1.9042,1.1173L26.1597,37.1504z M12.3152,35.2825c-0.1892-1.0637-0.8822-2.04-1.8168-2.6121l5.5797-3.3013
	c0.2212-0.0996,0.4824-0.127,0.7549-0.0791c0.8477,0.1494,1.564,0.9888,1.564,1.833c0,0.4854-0.2329,0.8174-0.8174,1.1553
	L12.3152,35.2825z M10.7705,27.0759c0.0017-0.0009,0.0032-0.0018,0.0048-0.0027l1.6456-0.9238v2.9743l-2.5962-1.5168
	L10.7705,27.0759z M12.4983,30.327l-3.1794,1.8792v-3.7368L12.4983,30.327z M17.0068,28.3057
	c-0.4702-0.0845-0.9331-0.0308-1.3853,0.1753l-2.1379,1.2636l-0.0627-0.0366v-4.3636l9.4053,5.4944v4.3641l-4.1943-2.4504
	c0.5104-0.4438,0.7651-0.98,0.7651-1.6294C19.397,29.7793,18.3472,28.5415,17.0068,28.3057z M46.6406,21.6563L23.8262,34.9937
	v-4.155l22.8145-13.3376V21.6563z M22.8406,14.5848l1.9826-1.1536l3.1624,1.7775l-2.0441,1.1788L22.8406,14.5848z M15.1724,19.4731
	l1.9785-1.1513l2.7366,1.5568l-2.005,1.1562L15.1724,19.4731z M21.1401,20.3107c0.001-0.0005,0.0018-0.001,0.0027-0.0016
	l15.7576-9.087l9.25,5.4077L23.3262,29.9727l-9.4092-5.4966L21.1401,20.3107z M6.651,23.8278l1.9764-1.007l3.7935,1.9571v0.2248
	l-1.8914,1.0618L6.651,23.8278z M7.499,38.6201c-1.2568-0.2227-2.2798-1.4229-2.2798-2.6758c0-0.6895,0.3135-1.2539,0.8613-1.5508
	c0.2559-0.1387,0.5483-0.21,0.8608-0.21c0.125,0,0.2534,0.0117,0.3838,0.0342c1.2568,0.2227,2.2798,1.4229,2.2798,2.6758
	c0,0.6124-0.2595,1.1382-0.7087,1.4529l-0.1072,0.0641C8.4247,38.624,7.9748,38.7036,7.499,38.6201z M10.557,37.3192
	c0.0197-0.1407,0.048-0.2783,0.048-0.4256c0-1.5831-1.1902-3.0892-2.7194-3.5526l0.071-0.0411
	c0.3374-0.1504,0.731-0.1914,1.1357-0.1211c1.2568,0.2227,2.2798,1.4229,2.2798,2.6768
	C11.3721,36.4529,11.1135,36.9053,10.557,37.3192z M12.3094,36.439l4.6559-2.6295l0.7389-0.441l7.9569,4.6489v7.1342
	l-13.4826-8.2698C12.2356,36.7402,12.2784,36.5923,12.3094,36.439z M39.3604,45.8467l2.6641,1.5381l-2.4141,1.3945l-2.7988-1.6162
	v-3.7285c0-0.1797-0.0957-0.3447-0.252-0.4336l-6.1553-3.5195l2.5693-1.4834l6.1367,3.7539v3.6621
	C39.1104,45.5928,39.2061,45.7578,39.3604,45.8467z M46.9141,41.166l2.6631,1.5381l-2.4131,1.3936l-2.7979-1.6152v-3.7285
	c0-0.1797-0.0957-0.3447-0.252-0.4336l-6.1553-3.5205l2.5674-1.4824l6.1377,3.7539v3.6621
	C46.6641,40.9121,46.7598,41.0771,46.9141,41.166z M44.2628,34.43l-3.4678-2.1214c-0.1563-0.0947-0.3516-0.0977-0.5107-0.0059
	l-3.5791,2.0664c-0.1553,0.0889-0.25,0.2549-0.25,0.4336s0.0967,0.3438,0.252,0.4326l3.2156,1.8391l-3.2773,1.9969l-3.4031-2.0821
	c-0.1553-0.0947-0.3516-0.0977-0.5107-0.0059l-3.5806,2.0674c-0.1553,0.0889-0.2505,0.2549-0.25,0.4336s0.0962,0.3438,0.252,0.4326
	l3.1492,1.8008l-5.6409,3.4371v-7.1388l22.8223-13.4753v3.9906l-1.207-0.7385c-0.1553-0.0952-0.3516-0.0977-0.5107-0.0068
	l-3.5791,2.0659c-0.1553,0.0894-0.25,0.2549-0.25,0.4341s0.0967,0.3442,0.252,0.4331l3.1794,1.8187L44.2628,34.43z M54.6445,39.5811
	l-2.7969-1.6162v-3.7266c0-0.1797-0.0957-0.3447-0.252-0.4336l-6.1553-3.5215l2.5674-1.4824l6.1367,3.7549v3.6611
	c0,0.1787,0.0957,0.3438,0.25,0.4326l2.6641,1.5391L54.6445,39.5811z"/>
</svg>
