<?xml version="1.0" encoding="utf-8"?>
<!-- Generator: Adobe Illustrator 21.0.0, SVG Export Plug-In . SVG Version: 6.00 Build 0)  -->
<svg version="1.1" id="Layer_1" xmlns="http://www.w3.org/2000/svg" xmlns:xlink="http://www.w3.org/1999/xlink" x="0px" y="0px"
	 viewBox="0 0 60 60" style="enable-background:new 0 0 60 60;" xml:space="preserve">
<style type="text/css">
	.st0{display:none;opacity:0.2;}
	.st1{display:inline;fill:none;stroke:#00ADEE;stroke-width:0.125;stroke-miterlimit:10;}
	.st2{fill:#231F20;}
</style>
<g class="st0">
	<path class="st1" d="M-0.375-1.557"/>
	<line class="st1" x1="1.875" y1="62.156" x2="1.875" y2="-1.36"/>
	<line class="st1" x1="4.125" y1="62.353" x2="4.125" y2="-1.557"/>
	<line class="st1" x1="6.375" y1="61.959" x2="6.375" y2="-1.311"/>
	<line class="st1" x1="8.625" y1="62.746" x2="8.625" y2="-1.655"/>
	<line class="st1" x1="10.875" y1="62.353" x2="10.875" y2="-1.508"/>
	<line class="st1" x1="13.125" y1="62.5" x2="13.125" y2="-1.606"/>
	<line class="st1" x1="15.375" y1="62.353" x2="15.375" y2="-1.557"/>
	<line class="st1" x1="17.625" y1="62.5" x2="17.625" y2="-1.902"/>
	<line class="st1" x1="19.875" y1="62.156" x2="19.875" y2="-1.655"/>
	<line class="st1" x1="22.125" y1="62.303" x2="22.125" y2="-1.852"/>
	<line class="st1" x1="24.375" y1="62.106" x2="24.375" y2="-1.458"/>
	<line class="st1" x1="26.625" y1="62.254" x2="26.625" y2="-1.508"/>
	<line class="st1" x1="28.875" y1="62.303" x2="28.875" y2="-1.508"/>
	<line class="st1" x1="31.125" y1="62.057" x2="31.125" y2="-1.458"/>
	<line class="st1" x1="33.375" y1="62.106" x2="33.375" y2="-1.409"/>
	<line class="st1" x1="35.625" y1="62.353" x2="35.625" y2="-1.606"/>
	<line class="st1" x1="37.875" y1="62.156" x2="37.875" y2="-1.557"/>
	<line class="st1" x1="40.125" y1="62.451" x2="40.125" y2="-1.508"/>
	<line class="st1" x1="42.375" y1="62.254" x2="42.375" y2="-1.36"/>
	<line class="st1" x1="44.625" y1="62.106" x2="44.625" y2="-1.508"/>
	<line class="st1" x1="46.875" y1="62.156" x2="46.875" y2="-1.508"/>
	<line class="st1" x1="49.125" y1="62.106" x2="49.125" y2="-1.508"/>
	<line class="st1" x1="51.375" y1="61.86" x2="51.375" y2="-1.557"/>
	<line class="st1" x1="53.625" y1="62.156" x2="53.625" y2="-1.754"/>
	<line class="st1" x1="55.875" y1="62.156" x2="55.875" y2="-1.606"/>
	<line class="st1" x1="58.125" y1="62.451" x2="58.125" y2="-1.606"/>
	<line class="st1" x1="0.707" y1="62.173" x2="-1.49" y2="60.904"/>
	<line class="st1" x1="5.116" y1="62.12" x2="-1.544" y2="58.275"/>
	<line class="st1" x1="9.971" y1="62.325" x2="-1.555" y2="55.67"/>
	<line class="st1" x1="14.59" y1="62.394" x2="-1.607" y2="53.042"/>
	<line class="st1" x1="18.865" y1="62.263" x2="-1.499" y2="50.506"/>
	<line class="st1" x1="23.182" y1="62.158" x2="-1.459" y2="47.931"/>
	<line class="st1" x1="27.736" y1="62.189" x2="-1.529" y2="45.293"/>
	<line class="st1" x1="32.049" y1="62.081" x2="-1.465" y2="42.732"/>
	<line class="st1" x1="36.749" y1="62.196" x2="-1.522" y2="40.101"/>
	<line class="st1" x1="41.271" y1="62.209" x2="-1.645" y2="37.431"/>
	<line class="st1" x1="45.801" y1="62.226" x2="-1.572" y2="34.876"/>
	<line class="st1" x1="50.08" y1="62.099" x2="-1.576" y2="32.275"/>
	<line class="st1" x1="54.737" y1="62.19" x2="-1.594" y2="29.667"/>
	<line class="st1" x1="59.428" y1="62.3" x2="-1.647" y2="27.038"/>
	<line class="st1" x1="61.539" y1="60.921" x2="-1.545" y2="24.499"/>
	<line class="st1" x1="61.758" y1="58.449" x2="-1.458" y2="21.951"/>
	<line class="st1" x1="61.545" y1="55.728" x2="-1.525" y2="19.314"/>
	<line class="st1" x1="61.597" y1="53.16" x2="-1.558" y2="16.697"/>
	<line class="st1" x1="61.527" y1="50.521" x2="-1.469" y2="14.15"/>
	<line class="st1" x1="61.65" y1="47.994" x2="-1.472" y2="11.551"/>
	<line class="st1" x1="61.538" y1="45.331" x2="-1.42" y2="8.983"/>
	<line class="st1" x1="61.48" y1="42.7" x2="-1.375" y2="6.41"/>
	<polyline class="st1" points="61.578,40.158 -1.135,3.951 -1.529,3.723 	"/>
	<polyline class="st1" points="61.514,37.524 -1.248,1.288 -2.111,0.79 	"/>
	<polyline class="st1" points="61.544,34.943 0,-0.59 -1.761,-1.606 	"/>
	<line class="st1" x1="61.353" y1="32.234" x2="2.933" y2="-1.494"/>
	<line class="st1" x1="61.482" y1="29.711" x2="7.489" y2="-1.462"/>
	<line class="st1" x1="61.479" y1="27.111" x2="11.988" y2="-1.463"/>
	<line class="st1" x1="61.458" y1="24.501" x2="16.186" y2="-1.637"/>
	<line class="st1" x1="61.361" y1="21.847" x2="20.651" y2="-1.657"/>
	<line class="st1" x1="61.563" y1="19.365" x2="25.485" y2="-1.464"/>
	<line class="st1" x1="61.605" y1="16.791" x2="30.1" y2="-1.398"/>
	<line class="st1" x1="61.433" y1="14.094" x2="34.593" y2="-1.402"/>
	<line class="st1" x1="61.589" y1="11.586" x2="38.944" y2="-1.488"/>
	<line class="st1" x1="61.366" y1="8.86" x2="43.447" y2="-1.486"/>
	<line class="st1" x1="61.599" y1="6.396" x2="48.098" y2="-1.399"/>
	<line class="st1" x1="61.587" y1="3.79" x2="52.221" y2="-1.617"/>
	<line class="st1" x1="61.605" y1="1.203" x2="56.949" y2="-1.485"/>
	<path class="st1" d="M61.536-1.435"/>
	<path class="st1" d="M-57.75-91.089"/>
	<path class="st1" d="M-56.625-93.038"/>
	<path class="st1" d="M-55.5-94.987"/>
	<path class="st1" d="M-54.375-96.935"/>
	<path class="st1" d="M-53.25-98.884"/>
	<path class="st1" d="M-52.125-100.832"/>
	<path class="st1" d="M-51-102.781"/>
	<path class="st1" d="M-49.875-104.729"/>
	<path class="st1" d="M-48.75-106.678"/>
	<path class="st1" d="M61.631,62.121"/>
	<line class="st1" x1="56.838" y1="62.29" x2="61.535" y2="59.579"/>
	<line class="st1" x1="52.761" y1="62.046" x2="61.655" y2="56.911"/>
	<line class="st1" x1="48.248" y1="62.054" x2="61.639" y2="54.322"/>
	<line class="st1" x1="43.747" y1="62.054" x2="61.555" y2="51.773"/>
	<line class="st1" x1="38.977" y1="62.211" x2="61.555" y2="49.175"/>
	<line class="st1" x1="34.718" y1="62.071" x2="61.602" y2="46.55"/>
	<line class="st1" x1="30.312" y1="62.017" x2="61.607" y2="43.949"/>
	<line class="st1" x1="25.399" y1="62.256" x2="61.575" y2="41.369"/>
	<line class="st1" x1="21.12" y1="62.128" x2="61.516" y2="38.805"/>
	<line class="st1" x1="16.295" y1="62.315" x2="61.616" y2="36.149"/>
	<line class="st1" x1="11.778" y1="62.325" x2="61.415" y2="33.667"/>
	<line class="st1" x1="6.949" y1="62.515" x2="61.557" y2="30.987"/>
	<line class="st1" x1="3.231" y1="62.064" x2="61.44" y2="28.457"/>
	<line class="st1" x1="-1.62" y1="62.266" x2="61.498" y2="25.825"/>
	<line class="st1" x1="-1.625" y1="59.671" x2="61.567" y2="23.187"/>
	<line class="st1" x1="-1.398" y1="56.942" x2="61.477" y2="20.641"/>
	<line class="st1" x1="-1.514" y1="54.411" x2="61.651" y2="17.943"/>
	<line class="st1" x1="-1.367" y1="51.728" x2="61.481" y2="15.443"/>
	<line class="st1" x1="-1.426" y1="49.164" x2="61.624" y2="12.762"/>
	<line class="st1" x1="-1.554" y1="46.64" x2="61.559" y2="10.201"/>
	<line class="st1" x1="-1.659" y1="44.102" x2="61.506" y2="7.634"/>
	<line class="st1" x1="-1.549" y1="41.441" x2="61.496" y2="5.042"/>
	<line class="st1" x1="-1.501" y1="38.815" x2="61.691" y2="2.331"/>
	<line class="st1" x1="-1.687" y1="36.324" x2="61.659" y2="-0.249"/>
	<line class="st1" x1="-1.522" y1="33.631" x2="59.322" y2="-1.497"/>
	<line class="st1" x1="-1.64" y1="31.101" x2="55.116" y2="-1.667"/>
	<line class="st1" x1="-1.454" y1="28.396" x2="50.498" y2="-1.599"/>
	<line class="st1" x1="-1.477" y1="25.811" x2="46.01" y2="-1.606"/>
	<line class="st1" x1="-1.619" y1="23.295" x2="41.374" y2="-1.527"/>
	<line class="st1" x1="-1.589" y1="20.679" x2="36.704" y2="-1.429"/>
	<line class="st1" x1="-1.499" y1="18.029" x2="32.345" y2="-1.51"/>
	<line class="st1" x1="-1.488" y1="15.425" x2="27.96" y2="-1.577"/>
	<line class="st1" x1="-1.537" y1="12.855" x2="23.453" y2="-1.573"/>
	<line class="st1" x1="-1.447" y1="10.205" x2="19.027" y2="-1.616"/>
	<polyline class="st1" points="-1.57,7.678 -0.992,7.344 14.636,-1.679 	"/>
	<line class="st1" x1="-1.692" y1="5.15" x2="9.935" y2="-1.562"/>
	<line class="st1" x1="-1.256" y1="2.301" x2="4.909" y2="-1.259"/>
	<path class="st1" d="M0.826-1.5"/>
</g>
<path class="st2" d="M58.1221,36.4268l-13.0078-9.1264V21.772c0-0.0008-0.0004-0.0014-0.0004-0.0022
	c0-0.0006,0.0004-0.0011,0.0004-0.0017c0-0.0038-0.0028-0.0069-0.0029-0.0107c-0.0023-0.0778-0.0248-0.1483-0.0587-0.2132
	c-0.0105-0.0203-0.0238-0.0362-0.037-0.0549c-0.0339-0.048-0.0742-0.0878-0.1225-0.1213c-0.0121-0.0085-0.0179-0.0231-0.0309-0.0306
	l-15.5669-8.875c-0.1553-0.0884-0.3442-0.0879-0.4971,0.0015L7.2393,24.8867c-0.0122,0.007-0.0174,0.0208-0.0289,0.0287
	c-0.0494,0.0341-0.0906,0.075-0.1249,0.1243c-0.0126,0.0181-0.0257,0.0335-0.0358,0.0532
	c-0.0349,0.0672-0.0588,0.1403-0.0598,0.2211c0,0.0015-0.0012,0.0027-0.0012,0.0043c0,0.0002,0.0002,0.0004,0.0002,0.0006
	c0,0.0003-0.0002,0.0005-0.0002,0.0009v7.0435c0,0.1801,0.1002,0.3305,0.2427,0.4186l-0.0045,0.0072l1.6208,0.9944l-1.7251,1.0194
	c-0.0159-0.0031-0.0306-0.0101-0.0466-0.0129c-0.6069-0.1055-1.2002-0.0391-1.7656,0.2168l-2.0503,1.1865l0.0117,0.0206
	c-0.7739,0.4902-1.2431,1.3373-1.2431,2.3251c0,1.7168,1.3936,3.3594,3.1064,3.6602c0.187,0.0332,0.3726,0.0498,0.5552,0.0498
	c0.4526,0,0.8839-0.1045,1.2685-0.2985l0.0015,0.0026l0.1093-0.0652c0.0577-0.0327,0.1179-0.0607,0.173-0.0978
	c0.0074-0.005,0.0125-0.0123,0.0198-0.0173l1.2331-0.7366c0.9368-0.5405,1.4595-1.1882,1.624-2.0029l3.7944-2.1429l8.9537,5.4925
	c0.0078,0.0048,0.0174,0.0029,0.0253,0.0072c0.0712,0.039,0.1489,0.067,0.2359,0.067c0.0863,0,0.1635-0.0275,0.2343-0.0659
	c0.0082-0.0044,0.0179-0.0024,0.0259-0.0073l4.3959-2.6786l13.3555,7.6142c0.3311,0.1885,0.7207,0.2832,1.0918,0.2832
	c0.3604,0,0.7021-0.0889,0.9561-0.2686c0.2754-0.1953,0.4336-0.4922,0.4326-0.8135c-0.001-0.3848-0.2236-0.7617-0.6113-1.0322
	l-11.4875-8.0604l3.971-2.4197l13.3017,7.5836c0.3311,0.1885,0.7207,0.2832,1.0908,0.2832c0.3604,0,0.7021-0.0898,0.9551-0.2686
	c0.2754-0.1953,0.4336-0.4922,0.4326-0.8135c0-0.3848-0.2227-0.7617-0.6104-1.0332l-11.4385-8.0253l3.5474-2.1616l13.4819,7.6859
	c0.3311,0.1885,0.7207,0.2832,1.0918,0.2832c0.3594,0,0.7012-0.0889,0.9531-0.2686c0.2764-0.1953,0.4346-0.4912,0.4346-0.8125
	C58.7324,37.0762,58.5098,36.6992,58.1221,36.4268z M23.1274,33.8779l-3.1114-1.8179l20.5782-12.0044l3.0239,1.7241L23.1274,33.8779
	z M29.0493,13.4731l10.9424,6.239L19.4215,31.7127l-10.9366-6.39L29.0493,13.4731z M7.9888,32.0837v-5.8926l14.6401,8.5539v6.3188
	l-7.7236-4.7374l0.9985-0.5959c0.8774-0.5068,1.3042-1.165,1.3042-2.0137c0-1.3438-1.0498-2.5811-2.3906-2.8179
	c-0.4707-0.0811-0.9331-0.0293-1.3848,0.1753l-3.6112,2.134L7.9888,32.0837z M5.3086,41.2148
	c-1.2568-0.2217-2.2798-1.4219-2.2798-2.6758c0-0.6895,0.314-1.2539,0.8618-1.5508c0.2554-0.1387,0.5469-0.209,0.8584-0.209
	c0.126,0,0.2554,0.0117,0.3867,0.0342c1.2568,0.2217,2.2793,1.4219,2.2793,2.6758c0,0.6104-0.2582,1.1343-0.7052,1.4484
	l-0.1303,0.0778C6.218,41.2216,5.7737,41.2951,5.3086,41.2148z M8.3672,39.9138c0.0195-0.1404,0.0479-0.2776,0.0479-0.4246
	c0-1.5837-1.1902-3.0904-2.7183-3.5527l0.0708-0.041c0.3354-0.1523,0.728-0.1914,1.1348-0.1211
	c1.2568,0.2217,2.2798,1.4219,2.2798,2.6758C9.1821,39.0476,8.9236,39.4999,8.3672,39.9138z M8.3069,35.264l5.5817-3.3011
	c0.2222-0.0986,0.4844-0.124,0.7554-0.0791c0.8477,0.1494,1.564,0.9893,1.564,1.833c0,0.4854-0.2329,0.8174-0.8174,1.1553
	l-5.2653,3.0047C9.9359,36.8122,9.2421,35.8352,8.3069,35.264z M42.6104,46.5176c-0.1758,0.126-0.6416,0.124-0.9736-0.0674
	l-16.0103-9.127l2.1978-1.2686l14.6113,10.252C42.5869,46.4131,42.6201,46.5049,42.6104,46.5176z M50.2627,41.791
	c-0.1563,0.1084-0.6104,0.1377-0.9727-0.0684l-16.0098-9.1279l2.1963-1.2686l14.6123,10.252
	C50.2402,41.6846,50.2734,41.7764,50.2627,41.791z M38.3319,32.1081L35.79,30.3247c-0.1582-0.1113-0.3691-0.1211-0.5371-0.0239
	l-3.2275,1.8643c-0.1553,0.0889-0.251,0.2549-0.25,0.4336c0.001,0.1797,0.0967,0.3447,0.252,0.4336l2.4736,1.4103l-3.8715,2.3589
	l-2.4922-1.7487c-0.1587-0.1113-0.3682-0.1201-0.5371-0.0234l-3.228,1.8643c-0.1553,0.0889-0.2505,0.2549-0.25,0.4336
	c0.0005,0.1797,0.0967,0.3447,0.2524,0.4336l2.418,1.3785l-3.1636,1.9277v-6.3234l20.4854-12.0959v3.951l-0.8652-0.6071
	c-0.1582-0.1118-0.3691-0.1206-0.5371-0.0239l-3.2275,1.8643c-0.1553,0.0898-0.251,0.2554-0.25,0.4346s0.0967,0.3442,0.252,0.4331
	l2.2935,1.3075L38.3319,32.1081z M56.749,37.3896l-16.0098-9.1274l2.1963-1.269l14.6123,10.252
	c0.1514,0.1064,0.1846,0.1982,0.1738,0.2129C57.5654,37.5664,57.1113,37.5957,56.749,37.3896z"/>
</svg>
