<?xml version="1.0" encoding="utf-8"?>
<!-- Generator: Adobe Illustrator 21.0.0, SVG Export Plug-In . SVG Version: 6.00 Build 0)  -->
<svg version="1.1" id="Layer_1" xmlns="http://www.w3.org/2000/svg" xmlns:xlink="http://www.w3.org/1999/xlink" x="0px" y="0px"
	 viewBox="0 0 60 60" style="enable-background:new 0 0 60 60;" xml:space="preserve">
<style type="text/css">
	.st0{display:none;opacity:0.2;}
	.st1{display:inline;fill:none;stroke:#00ADEE;stroke-width:0.125;stroke-miterlimit:10;}
	.st2{fill:#231F20;}
</style>
<g class="st0">
	<path class="st1" d="M-0.375-1.557"/>
	<line class="st1" x1="1.875" y1="62.156" x2="1.875" y2="-1.36"/>
	<line class="st1" x1="4.125" y1="62.353" x2="4.125" y2="-1.557"/>
	<line class="st1" x1="6.375" y1="61.959" x2="6.375" y2="-1.311"/>
	<line class="st1" x1="8.625" y1="62.746" x2="8.625" y2="-1.655"/>
	<line class="st1" x1="10.875" y1="62.353" x2="10.875" y2="-1.508"/>
	<line class="st1" x1="13.125" y1="62.5" x2="13.125" y2="-1.606"/>
	<line class="st1" x1="15.375" y1="62.353" x2="15.375" y2="-1.557"/>
	<line class="st1" x1="17.625" y1="62.5" x2="17.625" y2="-1.902"/>
	<line class="st1" x1="19.875" y1="62.156" x2="19.875" y2="-1.655"/>
	<line class="st1" x1="22.125" y1="62.303" x2="22.125" y2="-1.852"/>
	<line class="st1" x1="24.375" y1="62.106" x2="24.375" y2="-1.458"/>
	<line class="st1" x1="26.625" y1="62.254" x2="26.625" y2="-1.508"/>
	<line class="st1" x1="28.875" y1="62.303" x2="28.875" y2="-1.508"/>
	<line class="st1" x1="31.125" y1="62.057" x2="31.125" y2="-1.458"/>
	<line class="st1" x1="33.375" y1="62.106" x2="33.375" y2="-1.409"/>
	<line class="st1" x1="35.625" y1="62.353" x2="35.625" y2="-1.606"/>
	<line class="st1" x1="37.875" y1="62.156" x2="37.875" y2="-1.557"/>
	<line class="st1" x1="40.125" y1="62.451" x2="40.125" y2="-1.508"/>
	<line class="st1" x1="42.375" y1="62.254" x2="42.375" y2="-1.36"/>
	<line class="st1" x1="44.625" y1="62.106" x2="44.625" y2="-1.508"/>
	<line class="st1" x1="46.875" y1="62.156" x2="46.875" y2="-1.508"/>
	<line class="st1" x1="49.125" y1="62.106" x2="49.125" y2="-1.508"/>
	<line class="st1" x1="51.375" y1="61.86" x2="51.375" y2="-1.557"/>
	<line class="st1" x1="53.625" y1="62.156" x2="53.625" y2="-1.754"/>
	<line class="st1" x1="55.875" y1="62.156" x2="55.875" y2="-1.606"/>
	<line class="st1" x1="58.125" y1="62.451" x2="58.125" y2="-1.606"/>
	<line class="st1" x1="0.707" y1="62.173" x2="-1.49" y2="60.904"/>
	<line class="st1" x1="5.116" y1="62.12" x2="-1.544" y2="58.275"/>
	<line class="st1" x1="9.971" y1="62.325" x2="-1.555" y2="55.67"/>
	<line class="st1" x1="14.59" y1="62.394" x2="-1.607" y2="53.042"/>
	<line class="st1" x1="18.865" y1="62.263" x2="-1.499" y2="50.506"/>
	<line class="st1" x1="23.182" y1="62.158" x2="-1.459" y2="47.931"/>
	<line class="st1" x1="27.736" y1="62.189" x2="-1.529" y2="45.293"/>
	<line class="st1" x1="32.049" y1="62.081" x2="-1.465" y2="42.732"/>
	<line class="st1" x1="36.749" y1="62.196" x2="-1.522" y2="40.101"/>
	<line class="st1" x1="41.271" y1="62.209" x2="-1.645" y2="37.431"/>
	<line class="st1" x1="45.801" y1="62.226" x2="-1.572" y2="34.876"/>
	<line class="st1" x1="50.08" y1="62.099" x2="-1.576" y2="32.275"/>
	<line class="st1" x1="54.737" y1="62.19" x2="-1.594" y2="29.667"/>
	<line class="st1" x1="59.428" y1="62.3" x2="-1.647" y2="27.038"/>
	<line class="st1" x1="61.539" y1="60.921" x2="-1.545" y2="24.499"/>
	<line class="st1" x1="61.758" y1="58.449" x2="-1.458" y2="21.951"/>
	<line class="st1" x1="61.545" y1="55.728" x2="-1.525" y2="19.314"/>
	<line class="st1" x1="61.597" y1="53.16" x2="-1.558" y2="16.697"/>
	<line class="st1" x1="61.527" y1="50.521" x2="-1.469" y2="14.15"/>
	<line class="st1" x1="61.65" y1="47.994" x2="-1.472" y2="11.551"/>
	<line class="st1" x1="61.538" y1="45.331" x2="-1.42" y2="8.983"/>
	<line class="st1" x1="61.48" y1="42.7" x2="-1.375" y2="6.41"/>
	<polyline class="st1" points="61.578,40.158 -1.135,3.951 -1.529,3.723 	"/>
	<polyline class="st1" points="61.514,37.524 -1.248,1.288 -2.111,0.79 	"/>
	<polyline class="st1" points="61.544,34.943 0,-0.59 -1.761,-1.606 	"/>
	<line class="st1" x1="61.353" y1="32.234" x2="2.933" y2="-1.494"/>
	<line class="st1" x1="61.482" y1="29.711" x2="7.489" y2="-1.462"/>
	<line class="st1" x1="61.479" y1="27.111" x2="11.988" y2="-1.463"/>
	<line class="st1" x1="61.458" y1="24.501" x2="16.186" y2="-1.637"/>
	<line class="st1" x1="61.361" y1="21.847" x2="20.651" y2="-1.657"/>
	<line class="st1" x1="61.563" y1="19.365" x2="25.485" y2="-1.464"/>
	<line class="st1" x1="61.605" y1="16.791" x2="30.1" y2="-1.398"/>
	<line class="st1" x1="61.433" y1="14.094" x2="34.593" y2="-1.402"/>
	<line class="st1" x1="61.589" y1="11.586" x2="38.944" y2="-1.488"/>
	<line class="st1" x1="61.366" y1="8.86" x2="43.447" y2="-1.486"/>
	<line class="st1" x1="61.599" y1="6.396" x2="48.098" y2="-1.399"/>
	<line class="st1" x1="61.587" y1="3.79" x2="52.221" y2="-1.617"/>
	<line class="st1" x1="61.605" y1="1.203" x2="56.949" y2="-1.485"/>
	<path class="st1" d="M61.536-1.435"/>
	<path class="st1" d="M-57.75-91.089"/>
	<path class="st1" d="M-56.625-93.038"/>
	<path class="st1" d="M-55.5-94.987"/>
	<path class="st1" d="M-54.375-96.935"/>
	<path class="st1" d="M-53.25-98.884"/>
	<path class="st1" d="M-52.125-100.832"/>
	<path class="st1" d="M-51-102.781"/>
	<path class="st1" d="M-49.875-104.729"/>
	<path class="st1" d="M-48.75-106.678"/>
	<path class="st1" d="M61.631,62.121"/>
	<line class="st1" x1="56.838" y1="62.29" x2="61.535" y2="59.579"/>
	<line class="st1" x1="52.761" y1="62.046" x2="61.655" y2="56.911"/>
	<line class="st1" x1="48.248" y1="62.054" x2="61.639" y2="54.322"/>
	<line class="st1" x1="43.747" y1="62.054" x2="61.555" y2="51.773"/>
	<line class="st1" x1="38.977" y1="62.211" x2="61.555" y2="49.175"/>
	<line class="st1" x1="34.718" y1="62.071" x2="61.602" y2="46.55"/>
	<line class="st1" x1="30.312" y1="62.017" x2="61.607" y2="43.949"/>
	<line class="st1" x1="25.399" y1="62.256" x2="61.575" y2="41.369"/>
	<line class="st1" x1="21.12" y1="62.128" x2="61.516" y2="38.805"/>
	<line class="st1" x1="16.295" y1="62.315" x2="61.616" y2="36.149"/>
	<line class="st1" x1="11.778" y1="62.325" x2="61.415" y2="33.667"/>
	<line class="st1" x1="6.949" y1="62.515" x2="61.557" y2="30.987"/>
	<line class="st1" x1="3.231" y1="62.064" x2="61.44" y2="28.457"/>
	<line class="st1" x1="-1.62" y1="62.266" x2="61.498" y2="25.825"/>
	<line class="st1" x1="-1.625" y1="59.671" x2="61.567" y2="23.187"/>
	<line class="st1" x1="-1.398" y1="56.942" x2="61.477" y2="20.641"/>
	<line class="st1" x1="-1.514" y1="54.411" x2="61.651" y2="17.943"/>
	<line class="st1" x1="-1.367" y1="51.728" x2="61.481" y2="15.443"/>
	<line class="st1" x1="-1.426" y1="49.164" x2="61.624" y2="12.762"/>
	<line class="st1" x1="-1.554" y1="46.64" x2="61.559" y2="10.201"/>
	<line class="st1" x1="-1.659" y1="44.102" x2="61.506" y2="7.634"/>
	<line class="st1" x1="-1.549" y1="41.441" x2="61.496" y2="5.042"/>
	<line class="st1" x1="-1.501" y1="38.815" x2="61.691" y2="2.331"/>
	<line class="st1" x1="-1.687" y1="36.324" x2="61.659" y2="-0.249"/>
	<line class="st1" x1="-1.522" y1="33.631" x2="59.322" y2="-1.497"/>
	<line class="st1" x1="-1.64" y1="31.101" x2="55.116" y2="-1.667"/>
	<line class="st1" x1="-1.454" y1="28.396" x2="50.498" y2="-1.599"/>
	<line class="st1" x1="-1.477" y1="25.811" x2="46.01" y2="-1.606"/>
	<line class="st1" x1="-1.619" y1="23.295" x2="41.374" y2="-1.527"/>
	<line class="st1" x1="-1.589" y1="20.679" x2="36.704" y2="-1.429"/>
	<line class="st1" x1="-1.499" y1="18.029" x2="32.345" y2="-1.51"/>
	<line class="st1" x1="-1.488" y1="15.425" x2="27.96" y2="-1.577"/>
	<line class="st1" x1="-1.537" y1="12.855" x2="23.453" y2="-1.573"/>
	<line class="st1" x1="-1.447" y1="10.205" x2="19.027" y2="-1.616"/>
	<polyline class="st1" points="-1.57,7.678 -0.992,7.344 14.636,-1.679 	"/>
	<line class="st1" x1="-1.692" y1="5.15" x2="9.935" y2="-1.562"/>
	<line class="st1" x1="-1.256" y1="2.301" x2="4.909" y2="-1.259"/>
	<path class="st1" d="M0.826-1.5"/>
</g>
<g>
	<path class="st2" d="M53.625,20.2178c0-0.0034-0.0025-0.006-0.0026-0.0094c-0.0021-0.0785-0.0249-0.1498-0.0591-0.2152
		c-0.0103-0.02-0.0235-0.0357-0.0364-0.0541c-0.034-0.0483-0.0745-0.0884-0.123-0.1219c-0.0121-0.0084-0.0178-0.0231-0.0308-0.0305
		l-15.5664-8.875c-0.1553-0.0874-0.3438-0.0874-0.4971,0.001L14,24.2983c-0.0125,0.0071-0.0178,0.0212-0.0295,0.0294
		c-0.0492,0.0339-0.0901,0.0745-0.1243,0.1235c-0.0128,0.0182-0.0259,0.0339-0.0361,0.0536
		c-0.0347,0.0667-0.0582,0.1393-0.0595,0.2194c0,0.002-0.0015,0.0037-0.0015,0.0057c0,0.0003,0.0002,0.0005,0.0002,0.0009
		c0,0.0004-0.0002,0.0007-0.0002,0.0011v6.0205L3.5103,36.6123c-0.644,0.3691-1.1069,1.2012-1.0757,1.9375
		c0.019,0.4346,0.2153,0.7852,0.5391,0.9629c0.144,0.0791,0.3042,0.1182,0.4717,0.1182c0.2109,0,0.4331-0.0625,0.6475-0.1875
		l9.6563-5.5725v0.6018c0,0.1804,0.1004,0.3311,0.2435,0.4191l-0.0047,0.0077l1.9419,1.1905l-6.7729,3.8759
		c-0.6445,0.3682-1.1074,1.2002-1.0762,1.9375c0.019,0.4346,0.2153,0.7852,0.5386,0.9619c0.1445,0.0801,0.3052,0.1191,0.4727,0.1191
		c0.2104,0,0.4321-0.0625,0.647-0.1865l8.825-5.0928l2.9194,1.7912l-6.6808,3.8231c-0.644,0.3691-1.1069,1.2012-1.0757,1.9375
		c0.019,0.4346,0.2153,0.7852,0.5391,0.9629c0.144,0.0791,0.3042,0.1182,0.4717,0.1182c0.2109,0,0.4331-0.0625,0.6475-0.1875
		l8.7313-5.0387l5.5114,3.3815c0.0081,0.0049,0.0179,0.0029,0.0261,0.0074c0.0712,0.0389,0.1487,0.0668,0.2356,0.0668
		c0.0858,0,0.1625-0.0271,0.233-0.0651c0.0081-0.0043,0.0178-0.0024,0.0258-0.0072l23.2358-14.0552l-0.0044-0.0072
		c0.1443-0.0876,0.2456-0.2392,0.2456-0.4205v-9.791c0-0.0007-0.0004-0.0013-0.0004-0.002
		C53.6246,20.2187,53.625,20.2183,53.625,20.2178z M30.3892,34.1559l2.4858-1.4602V37c0,0.2764,0.2236,0.5,0.5,0.5
		s0.5-0.2236,0.5-0.5v-4.8917l3.1758-1.8654v4.345c0,0.2764,0.2236,0.5,0.5,0.5s0.5-0.2236,0.5-0.5v-4.9324l3.1758-1.8655v4.3848
		c0,0.2764,0.2236,0.5,0.5,0.5s0.5-0.2236,0.5-0.5v-4.9722l3.1768-1.866v4.4266c0,0.2764,0.2236,0.5,0.5,0.5s0.5-0.2236,0.5-0.5
		v-5.014l3.1768-1.866v4.4669c0,0.2764,0.2236,0.5,0.5,0.5s0.5-0.2236,0.5-0.5v-5.0543l2.0449-1.2012v8.6357L30.3892,43.1802
		V34.1559z M17.7575,23.2939l2.305,1.3467c0.0796,0.0464,0.1665,0.0684,0.252,0.0684c0.1719,0,0.3394-0.0889,0.4321-0.2476
		c0.1392-0.2388,0.0591-0.5449-0.1792-0.6841l-1.8101-1.0576l3.1704-1.8206l2.3145,1.3303
		c0.0786,0.0449,0.1641,0.0664,0.2485,0.0664c0.1733,0,0.3413-0.0898,0.4341-0.251c0.1377-0.2393,0.0552-0.5449-0.1846-0.6826
		l-1.8087-1.0396l3.1666-1.8184l2.3228,1.3146c0.0776,0.0439,0.1621,0.0649,0.2456,0.0649c0.1743,0,0.3438-0.0913,0.4355-0.2539
		c0.1362-0.2402,0.0518-0.5454-0.189-0.6812l-1.8076-1.023l3.1612-1.8154l2.3329,1.2979c0.0771,0.043,0.1602,0.063,0.2432,0.063
		c0.1748,0,0.3457-0.0928,0.4365-0.2568c0.1348-0.2412,0.0479-0.5459-0.1934-0.6802l-1.8068-1.0052l3.1575-1.8132l2.3417,1.2818
		c0.0762,0.042,0.1582,0.0615,0.2402,0.0615c0.1768,0,0.3477-0.0938,0.4385-0.2598c0.1328-0.2422,0.0439-0.5464-0.1982-0.6787
		l-1.8058-0.9885l2.1066-1.2097l14.5674,8.3052l-2.1898,1.2864l-2.0485-1.1213c-0.2402-0.1323-0.5459-0.0449-0.6787,0.1982
		c-0.1328,0.2422-0.0439,0.5464,0.1982,0.6787l1.5244,0.8345l-3.1328,1.8403l-2.0928-1.1645
		c-0.2402-0.1338-0.5459-0.0483-0.6797,0.1938c-0.1348,0.2412-0.0479,0.5459,0.1934,0.6802l1.5784,0.8783l-3.1379,1.8433
		l-2.1348-1.2084c-0.2383-0.1348-0.5439-0.0527-0.6816,0.189c-0.1357,0.2402-0.0508,0.5454,0.1895,0.6812l1.6312,0.9233
		l-3.1422,1.8458l-2.1784-1.2521c-0.2383-0.1377-0.5449-0.0566-0.6826,0.1846c-0.1377,0.2393-0.0547,0.5449,0.1846,0.6826
		l1.684,0.9679l-3.1469,1.8486l-2.2197-1.2955c-0.2368-0.1387-0.5444-0.0581-0.6836,0.1797
		c-0.1392,0.2383-0.0591,0.5444,0.1797,0.6836l1.7353,1.0128l-2.5068,1.4725l-14.6421-8.5552L17.7575,23.2939z M3.5923,38.5781
		c-0.0771,0.0449-0.124,0.0518-0.1313,0.0586c-0.0078-0.0146-0.0239-0.0537-0.0273-0.1309
		c-0.0151-0.3564,0.2583-0.8457,0.5737-1.0264l11.8867-6.8022v0.8013L3.5923,38.5781z M9.2388,41.9316
		c-0.0776,0.0449-0.1245,0.0518-0.1318,0.0586c-0.0078-0.0146-0.0239-0.0527-0.0273-0.1309
		c-0.0151-0.3564,0.2583-0.8447,0.5732-1.0244c0,0,0-0.001,0.0005-0.001L21.54,34.0313v0.8018L9.2388,41.9316z M14.8843,45.2852
		c-0.0771,0.0449-0.124,0.0518-0.1313,0.0586c-0.0078-0.0146-0.0239-0.0537-0.0273-0.1309
		c-0.0151-0.3564,0.2583-0.8457,0.5737-1.0264l11.8867-6.8018v0.8008L14.8843,45.2852z M27.936,38.9072
		c0.1548-0.0889,0.25-0.2539,0.25-0.4326v-1.9521c0-0.1787-0.0947-0.3428-0.249-0.4326C27.7817,36,27.5923,36,27.4375,36.0889
		l-4.9651,2.8413l-2.9235-1.7936l2.7412-1.5819c0.1548-0.0889,0.25-0.2539,0.25-0.4326v-1.9531c0-0.1787-0.0947-0.3428-0.249-0.4326
		c-0.1558-0.0908-0.3457-0.0898-0.4995-0.001l-4.8721,2.7881l-0.0287-0.0176l-0.0323,0.0526l-0.0015,0.0009l0.0333-0.0544
		l-2.1411-1.3126v-0.8985l1.895-1.0936c0.1548-0.0889,0.25-0.2539,0.25-0.4326v-1.9526c0-0.1782-0.0947-0.3433-0.249-0.4326
		c-0.1553-0.0903-0.3452-0.0908-0.4995-0.0015l-1.3965,0.7993v-4.5769l14.6401,8.5539v9.0164l-4.2877-2.6305L27.936,38.9072z"/>
	<path class="st2" d="M23.1865,25.2627l-0.8721-0.4912c-0.2417-0.1372-0.5459-0.0503-0.6812,0.1899
		c-0.1357,0.2407-0.0503,0.5459,0.1899,0.6812l0.8721,0.4912c0.0776,0.0439,0.1621,0.0645,0.2451,0.0645
		c0.1748,0,0.3442-0.0918,0.436-0.2544C23.5122,25.7031,23.4268,25.3979,23.1865,25.2627z"/>
	<path class="st2" d="M26.2393,26.9834l-1.0176-0.5737c-0.2417-0.1377-0.5459-0.0508-0.6812,0.1899
		c-0.1357,0.2407-0.0508,0.5454,0.1899,0.6812l1.0176,0.5737c0.0776,0.0439,0.1621,0.0645,0.2451,0.0645
		c0.1748,0,0.3442-0.0913,0.436-0.2544C26.5649,27.4238,26.48,27.1191,26.2393,26.9834z"/>
	<path class="st2" d="M29.1455,28.6216l-0.8711-0.4912c-0.2417-0.1367-0.5459-0.0508-0.6812,0.1899
		c-0.1357,0.2407-0.0508,0.5454,0.1899,0.6812l0.8711,0.4912c0.0776,0.0439,0.1621,0.0645,0.2451,0.0645
		c0.1748,0,0.3442-0.0913,0.436-0.2544C29.4712,29.062,29.3862,28.7573,29.1455,28.6216z"/>
	<path class="st2" d="M27.3745,22.8843l-0.8711-0.4907c-0.2417-0.1372-0.5464-0.0503-0.6812,0.1899
		c-0.1357,0.2407-0.0503,0.5459,0.1899,0.6812l0.8711,0.4907c0.0776,0.0439,0.1621,0.0645,0.2451,0.0645
		c0.1748,0,0.3442-0.0918,0.436-0.2544C27.7002,23.3247,27.6147,23.0195,27.3745,22.8843z"/>
	<path class="st2" d="M28.9185,24.9033l1.0176,0.5737c0.0776,0.0439,0.1621,0.0645,0.2451,0.0645
		c0.1748,0,0.3442-0.0913,0.436-0.2544c0.1357-0.2407,0.0508-0.5454-0.1899-0.6812l-1.0176-0.5737
		c-0.2422-0.1382-0.5464-0.0508-0.6812,0.1899C28.5928,24.4629,28.6777,24.7676,28.9185,24.9033z"/>
	<path class="st2" d="M31.9717,26.6245l0.8711,0.4912c0.0771,0.0439,0.1611,0.0645,0.2451,0.0645
		c0.1738,0,0.3438-0.0913,0.4355-0.2544c0.1357-0.2407,0.0508-0.5454-0.1904-0.6812l-0.8711-0.4912
		c-0.2383-0.1353-0.5439-0.0522-0.6807,0.1899C31.6455,26.1841,31.7305,26.4888,31.9717,26.6245z"/>
	<path class="st2" d="M30.2007,20.8877l0.8716,0.4907c0.0771,0.0439,0.1611,0.0645,0.2451,0.0645
		c0.1738,0,0.3438-0.0918,0.4355-0.2549c0.1357-0.2402,0.0508-0.5454-0.1904-0.6807l-0.8716-0.4907
		c-0.2407-0.1367-0.5459-0.0498-0.6807,0.1904C29.8745,20.4473,29.96,20.7524,30.2007,20.8877z"/>
	<path class="st2" d="M33.1064,22.5254l1.0176,0.5737c0.0771,0.0439,0.1611,0.0645,0.2451,0.0645
		c0.1738,0,0.3438-0.0913,0.4355-0.2544c0.1357-0.2407,0.0508-0.5454-0.1904-0.6812l-1.0176-0.5737
		c-0.2383-0.1357-0.5449-0.0522-0.6807,0.1899C32.7803,22.085,32.8652,22.3896,33.1064,22.5254z"/>
	<path class="st2" d="M36.1602,24.2466l0.8711,0.4907c0.0771,0.0439,0.1611,0.0645,0.2451,0.0645
		c0.1738,0,0.3438-0.0918,0.4355-0.2544c0.1357-0.2407,0.0508-0.5459-0.1904-0.6812l-0.8711-0.4907
		c-0.2373-0.1362-0.5449-0.0513-0.6807,0.1899C35.834,23.8062,35.9189,24.1113,36.1602,24.2466z"/>
	<path class="st2" d="M34.3887,18.5098l0.8711,0.4907c0.0771,0.0439,0.1611,0.0645,0.2451,0.0645
		c0.1738,0,0.3438-0.0918,0.4355-0.2544c0.1357-0.2407,0.0508-0.5459-0.1904-0.6812l-0.8711-0.4907
		c-0.2373-0.1357-0.5449-0.0513-0.6807,0.1899C34.0625,18.0693,34.1475,18.3745,34.3887,18.5098z"/>
	<path class="st2" d="M37.2949,20.1484l1.0176,0.5737c0.0771,0.0439,0.1611,0.0645,0.2451,0.0645
		c0.1738,0,0.3438-0.0913,0.4355-0.2544c0.1357-0.2407,0.0508-0.5454-0.1904-0.6812l-1.0176-0.5737
		c-0.2373-0.1357-0.5449-0.0518-0.6807,0.1899C36.9688,19.708,37.0537,20.0127,37.2949,20.1484z"/>
	<path class="st2" d="M40.3477,21.8696l0.8711,0.4907c0.0771,0.0439,0.1611,0.0645,0.2451,0.0645
		c0.1738,0,0.3438-0.0918,0.4355-0.2544c0.1357-0.2407,0.0508-0.5459-0.1904-0.6812l-0.8711-0.4907
		c-0.2383-0.1348-0.5449-0.0513-0.6807,0.1899C40.0215,21.4292,40.1064,21.7344,40.3477,21.8696z"/>
	<path class="st2" d="M38.5771,16.1323l0.8711,0.4912c0.0771,0.0439,0.1611,0.0645,0.2451,0.0645
		c0.1738,0,0.3438-0.0913,0.4355-0.2544c0.1357-0.2407,0.0508-0.5454-0.1904-0.6812l-0.8711-0.4912
		c-0.2383-0.1353-0.5449-0.0522-0.6807,0.1899C38.251,15.6919,38.3359,15.9966,38.5771,16.1323z"/>
	<path class="st2" d="M41.4824,17.7705L42.5,18.3442c0.0771,0.0439,0.1611,0.0645,0.2451,0.0645
		c0.1738,0,0.3438-0.0913,0.4355-0.2544c0.1357-0.2407,0.0508-0.5454-0.1904-0.6812l-1.0176-0.5737
		c-0.2383-0.1353-0.5449-0.0522-0.6807,0.1899C41.1563,17.3301,41.2412,17.6348,41.4824,17.7705z"/>
	<path class="st2" d="M44.5352,19.4917l0.8711,0.4917c0.0781,0.0439,0.1621,0.0645,0.2461,0.0645
		c0.1738,0,0.3438-0.0913,0.4355-0.2544c0.1357-0.2402,0.0508-0.5454-0.1895-0.6812l-0.8711-0.4917
		c-0.2412-0.1357-0.5459-0.0527-0.6816,0.1899C44.21,19.0508,44.2949,19.356,44.5352,19.4917z"/>
</g>
</svg>
