<?xml version="1.0" encoding="utf-8"?>
<!-- Generator: Adobe Illustrator 21.0.0, SVG Export Plug-In . SVG Version: 6.00 Build 0)  -->
<svg version="1.1" id="Layer_1" xmlns="http://www.w3.org/2000/svg" xmlns:xlink="http://www.w3.org/1999/xlink" x="0px" y="0px"
	 viewBox="0 0 30 30" style="enable-background:new 0 0 30 30;" xml:space="preserve">
<style type="text/css">
	.st0{display:none;opacity:0.2;}
	.st1{display:inline;fill:none;stroke:#00ADEE;stroke-width:0.125;stroke-miterlimit:10;}
	.st2{fill:#231F20;}
</style>
<g class="st0">
	<path class="st1" d="M-15.375-16.557"/>
	<line class="st1" x1="-13.125" y1="47.1558" x2="-13.125" y2="-16.3603"/>
	<line class="st1" x1="-10.875" y1="47.3529" x2="-10.875" y2="-16.5568"/>
	<line class="st1" x1="-8.625" y1="46.959" x2="-8.625" y2="-16.3109"/>
	<line class="st1" x1="-6.375" y1="47.746" x2="-6.375" y2="-16.6546"/>
	<line class="st1" x1="-4.125" y1="47.3529" x2="-4.125" y2="-16.5079"/>
	<line class="st1" x1="-1.875" y1="47.4999" x2="-1.875" y2="-16.6061"/>
	<line class="st1" x1="0.375" y1="47.3529" x2="0.375" y2="-16.5568"/>
	<line class="st1" x1="2.625" y1="47.4999" x2="2.625" y2="-16.9021"/>
	<line class="st1" x1="4.875" y1="47.1558" x2="4.875" y2="-16.6547"/>
	<line class="st1" x1="7.125" y1="47.3029" x2="7.125" y2="-16.8517"/>
	<line class="st1" x1="9.375" y1="47.1063" x2="9.375" y2="-16.4577"/>
	<line class="st1" x1="11.625" y1="47.2541" x2="11.625" y2="-16.5081"/>
	<line class="st1" x1="13.875" y1="47.3029" x2="13.875" y2="-16.5079"/>
	<line class="st1" x1="16.125" y1="47.0567" x2="16.125" y2="-16.458"/>
	<line class="st1" x1="18.375" y1="47.1063" x2="18.375" y2="-16.4089"/>
	<line class="st1" x1="20.625" y1="47.3529" x2="20.625" y2="-16.6058"/>
	<line class="st1" x1="22.875" y1="47.1558" x2="22.875" y2="-16.5569"/>
	<line class="st1" x1="25.125" y1="47.4511" x2="25.125" y2="-16.5082"/>
	<line class="st1" x1="27.375" y1="47.2541" x2="27.375" y2="-16.3603"/>
	<line class="st1" x1="29.625" y1="47.1063" x2="29.625" y2="-16.5077"/>
	<line class="st1" x1="31.875" y1="47.1558" x2="31.875" y2="-16.508"/>
	<line class="st1" x1="34.125" y1="47.1063" x2="34.125" y2="-16.5077"/>
	<line class="st1" x1="36.375" y1="46.8598" x2="36.375" y2="-16.5566"/>
	<line class="st1" x1="38.625" y1="47.1558" x2="38.625" y2="-16.7536"/>
	<line class="st1" x1="40.875" y1="47.1558" x2="40.875" y2="-16.6058"/>
	<line class="st1" x1="43.125" y1="47.4511" x2="43.125" y2="-16.6062"/>
	<line class="st1" x1="-14.2926" y1="47.1726" x2="-16.4896" y2="45.9041"/>
	<line class="st1" x1="-9.8838" y1="47.1199" x2="-16.5439" y2="43.2746"/>
	<line class="st1" x1="-5.0286" y1="47.3248" x2="-16.5547" y2="40.6703"/>
	<line class="st1" x1="-0.4099" y1="47.3936" x2="-16.607" y2="38.0421"/>
	<line class="st1" x1="3.8647" y1="47.2633" x2="-16.4987" y2="35.5065"/>
	<line class="st1" x1="8.1817" y1="47.1575" x2="-16.4585" y2="32.9315"/>
	<line class="st1" x1="12.7364" y1="47.1893" x2="-16.5287" y2="30.2931"/>
	<line class="st1" x1="17.0493" y1="47.0812" x2="-16.4649" y2="27.7317"/>
	<line class="st1" x1="21.7487" y1="47.1965" x2="-16.5216" y2="25.1011"/>
	<line class="st1" x1="26.2708" y1="47.2091" x2="-16.6454" y2="22.4314"/>
	<line class="st1" x1="30.8011" y1="47.2265" x2="-16.5718" y2="19.8757"/>
	<line class="st1" x1="35.0797" y1="47.0989" x2="-16.5759" y2="17.2755"/>
	<line class="st1" x1="39.7372" y1="47.1897" x2="-16.5939" y2="14.6669"/>
	<line class="st1" x1="44.4278" y1="47.2996" x2="-16.6466" y2="12.0384"/>
	<line class="st1" x1="46.5391" y1="45.9207" x2="-16.5451" y2="9.499"/>
	<line class="st1" x1="46.7575" y1="43.4487" x2="-16.4576" y2="6.9515"/>
	<line class="st1" x1="46.5446" y1="40.7275" x2="-16.5248" y2="4.3145"/>
	<line class="st1" x1="46.5973" y1="38.16" x2="-16.5582" y2="1.6972"/>
	<line class="st1" x1="46.5272" y1="35.5214" x2="-16.4693" y2="-0.8496"/>
	<line class="st1" x1="46.6505" y1="32.9944" x2="-16.4717" y2="-3.4492"/>
	<line class="st1" x1="46.5376" y1="30.3314" x2="-16.4197" y2="-6.017"/>
	<line class="st1" x1="46.4796" y1="27.6997" x2="-16.3754" y2="-8.5896"/>
	<polyline class="st1" points="46.5777,25.1581 -16.1346,-11.0488 -16.5294,-11.2767 	"/>
	<polyline class="st1" points="46.5142,22.5236 -16.248,-13.7121 -17.1105,-14.2101 	"/>
	<polyline class="st1" points="46.5439,19.9426 -14.9996,-15.5896 -16.7609,-16.6065 	"/>
	<line class="st1" x1="46.3527" y1="17.2343" x2="-12.0668" y2="-16.4943"/>
	<line class="st1" x1="46.4824" y1="14.711" x2="-7.5112" y2="-16.4622"/>
	<line class="st1" x1="46.479" y1="12.1109" x2="-3.0123" y2="-16.4629"/>
	<line class="st1" x1="46.4578" y1="9.5007" x2="1.1859" y2="-16.637"/>
	<line class="st1" x1="46.3608" y1="6.8466" x2="5.6507" y2="-16.6575"/>
	<line class="st1" x1="46.5626" y1="4.3649" x2="10.4854" y2="-16.4643"/>
	<line class="st1" x1="46.6047" y1="1.7913" x2="15.0995" y2="-16.3983"/>
	<line class="st1" x1="46.4335" y1="-0.9057" x2="19.5934" y2="-16.4018"/>
	<line class="st1" x1="46.5889" y1="-3.4142" x2="23.9443" y2="-16.488"/>
	<line class="st1" x1="46.3665" y1="-6.1405" x2="28.4468" y2="-16.4864"/>
	<line class="st1" x1="46.5992" y1="-8.6043" x2="33.0984" y2="-16.399"/>
	<line class="st1" x1="46.5865" y1="-11.2098" x2="37.2213" y2="-16.6168"/>
	<line class="st1" x1="46.6046" y1="-13.7973" x2="41.9486" y2="-16.4854"/>
	<path class="st1" d="M46.5364-16.4349"/>
	<path class="st1" d="M-72.75-106.0893"/>
	<path class="st1" d="M-71.625-108.0379"/>
	<path class="st1" d="M-70.5-109.9865"/>
	<path class="st1" d="M-69.375-111.935"/>
	<path class="st1" d="M-68.25-113.8836"/>
	<path class="st1" d="M-67.125-115.8321"/>
	<path class="st1" d="M-66-117.7807"/>
	<path class="st1" d="M-64.875-119.7292"/>
	<path class="st1" d="M-63.75-121.6778"/>
	<path class="st1" d="M46.631,47.1215"/>
	<line class="st1" x1="41.8384" y1="47.2903" x2="46.5346" y2="44.579"/>
	<line class="st1" x1="37.761" y1="47.0465" x2="46.6554" y2="41.9113"/>
	<line class="st1" x1="33.2481" y1="47.0539" x2="46.6394" y2="39.3224"/>
	<line class="st1" x1="28.7471" y1="47.0544" x2="46.5552" y2="36.7729"/>
	<line class="st1" x1="23.9766" y1="47.2107" x2="46.5546" y2="34.1753"/>
	<line class="st1" x1="19.718" y1="47.0712" x2="46.6021" y2="31.5497"/>
	<line class="st1" x1="15.3122" y1="47.0167" x2="46.6066" y2="28.9489"/>
	<line class="st1" x1="10.3988" y1="47.2556" x2="46.5751" y2="26.3692"/>
	<line class="st1" x1="6.1197" y1="47.1279" x2="46.5162" y2="23.805"/>
	<line class="st1" x1="1.2953" y1="47.3154" x2="46.6164" y2="21.1493"/>
	<line class="st1" x1="-3.222" y1="47.3253" x2="46.4154" y2="18.6671"/>
	<line class="st1" x1="-8.0514" y1="47.5153" x2="46.5572" y2="15.9871"/>
	<line class="st1" x1="-11.769" y1="47.0639" x2="46.4405" y2="13.4566"/>
	<line class="st1" x1="-16.6198" y1="47.2663" x2="46.4978" y2="10.8253"/>
	<line class="st1" x1="-16.6252" y1="44.6712" x2="46.5671" y2="8.1872"/>
	<line class="st1" x1="-16.3982" y1="41.9423" x2="46.4768" y2="5.6413"/>
	<line class="st1" x1="-16.5136" y1="39.4107" x2="46.6506" y2="2.9429"/>
	<line class="st1" x1="-16.3672" y1="36.728" x2="46.4811" y2="0.4426"/>
	<line class="st1" x1="-16.4261" y1="34.1641" x2="46.6243" y2="-2.2381"/>
	<line class="st1" x1="-16.5537" y1="31.6396" x2="46.5591" y2="-4.7985"/>
	<line class="st1" x1="-16.6591" y1="29.1023" x2="46.5062" y2="-7.3662"/>
	<line class="st1" x1="-16.5488" y1="26.4407" x2="46.4955" y2="-9.9579"/>
	<line class="st1" x1="-16.5014" y1="23.8152" x2="46.6906" y2="-12.6687"/>
	<line class="st1" x1="-16.6869" y1="21.324" x2="46.6589" y2="-15.2486"/>
	<line class="st1" x1="-16.5222" y1="18.6311" x2="44.3216" y2="-16.497"/>
	<line class="st1" x1="-16.6397" y1="16.1008" x2="40.1155" y2="-16.6668"/>
	<line class="st1" x1="-16.4543" y1="13.3959" x2="35.4976" y2="-16.5986"/>
	<line class="st1" x1="-16.4766" y1="10.8105" x2="31.0105" y2="-16.6061"/>
	<line class="st1" x1="-16.6191" y1="8.2947" x2="26.3737" y2="-16.5272"/>
	<line class="st1" x1="-16.5886" y1="5.6791" x2="21.7039" y2="-16.4291"/>
	<line class="st1" x1="-16.4987" y1="3.0291" x2="17.3446" y2="-16.5104"/>
	<line class="st1" x1="-16.4879" y1="0.4247" x2="12.9603" y2="-16.5772"/>
	<line class="st1" x1="-16.5374" y1="-2.1447" x2="8.4534" y2="-16.5731"/>
	<line class="st1" x1="-16.4468" y1="-4.7952" x2="4.0268" y2="-16.6156"/>
	<polyline class="st1" points="-16.5695,-7.3225 -15.9916,-7.6561 -0.3642,-16.6786 	"/>
	<line class="st1" x1="-16.6918" y1="-9.8497" x2="-5.065" y2="-16.5625"/>
	<line class="st1" x1="-16.2564" y1="-12.6993" x2="-10.0909" y2="-16.259"/>
	<path class="st1" d="M-14.1742-16.4997"/>
</g>
<path class="st2" d="M29.7363,18.6094l-1.6396-0.9463v-1.894c0-0.1392-0.0732-0.2686-0.1914-0.3413l-2.3381-1.4307
	c0.006-0.0276,0.0168-0.0535,0.0168-0.0829v-2.8369c0-0.2087-0.1623-0.375-0.3664-0.3931l-1.1658-0.6836V7.3789
	c0-0.0086-0.0043-0.0158-0.0049-0.0242c0.0003-0.0065,0.0049-0.0117,0.0049-0.0182c0-0.1421-0.0762-0.2734-0.1982-0.3452
	L18.335,3.7646c-0.125-0.0732-0.2773-0.0728-0.4023-0.0015l-4.0638,2.3436l-2.0529-1.1536
	c-0.1226-0.0688-0.2749-0.0688-0.397,0.0029L9.8164,5.8882C9.8097,5.8921,9.8061,5.8988,9.7997,5.903
	C9.7773,5.9177,9.759,5.937,9.7396,5.9563C9.7205,5.9756,9.7014,5.9936,9.6868,6.0159c-0.0043,0.0065-0.011,0.0101-0.015,0.0168
	c-0.0087,0.015-0.0094,0.0316-0.016,0.0471C9.6448,6.106,9.6343,6.131,9.629,6.1589C9.624,6.1842,9.624,6.2086,9.624,6.234
	c-0.0001,0.0255,0,0.0498,0.0049,0.0751c0.0054,0.0278,0.0158,0.0529,0.027,0.0791c0.0065,0.0154,0.0073,0.032,0.0159,0.0468
	c0.0039,0.0067,0.0106,0.0103,0.0148,0.0167c0.0148,0.0226,0.0341,0.0408,0.0536,0.0603c0.019,0.0189,0.0368,0.0377,0.0587,0.0521
	c0.0067,0.0044,0.0104,0.0114,0.0174,0.0154l1.6099,0.9357L9.5029,8.6245L7.6831,7.5898C7.5586,7.5186,7.4067,7.519,7.2842,7.5918
	L5.6821,8.5239C5.6754,8.5278,5.6718,8.5345,5.6654,8.5388C5.6423,8.554,5.6234,8.5735,5.6036,8.5936
	C5.585,8.6125,5.5666,8.6302,5.5524,8.652C5.5479,8.6588,5.5408,8.6627,5.5366,8.6699C5.528,8.685,5.5273,8.7017,5.5208,8.7173
	C5.51,8.743,5.4999,8.7676,5.4947,8.795c-0.0049,0.0255-0.0051,0.05-0.005,0.0756c0,0.0254,0.0004,0.0497,0.0053,0.075
	C5.5004,8.9732,5.5106,8.9981,5.5217,9.024c0.0065,0.0154,0.0073,0.0319,0.0159,0.0468c0.0041,0.0071,0.0111,0.0108,0.0156,0.0175
	C5.5679,9.1107,5.587,9.129,5.6063,9.1483c0.019,0.0189,0.037,0.0375,0.059,0.0519c0.007,0.0046,0.0109,0.0119,0.0182,0.0161
	l1.3968,0.8052L5.1965,11.108l-2.1199-1.0928c-0.1147-0.0601-0.2505-0.0596-0.3647-0.001l-1.6309,0.8311
	c-0.0098,0.005-0.0156,0.014-0.0249,0.0198c-0.0242,0.0148-0.0453,0.0325-0.0662,0.0526c-0.019,0.0182-0.0359,0.0366-0.0507,0.0579
	c-0.0069,0.0099-0.0172,0.0159-0.0233,0.0266c-0.0071,0.0124-0.0074,0.0262-0.0131,0.0391c-0.011,0.0247-0.0194,0.049-0.0253,0.0754
	c-0.0056,0.0256-0.0087,0.05-0.0093,0.0757c-0.0007,0.0249,0.0011,0.0487,0.0052,0.0737c0.0046,0.0274,0.0119,0.0528,0.022,0.0787
	c0.0049,0.0128,0.0044,0.0262,0.0107,0.0387c0.0054,0.0107,0.0152,0.0171,0.0214,0.0271c0.0139,0.0225,0.0303,0.0421,0.0488,0.0616
	c0.0194,0.0206,0.039,0.0388,0.062,0.0546c0.0092,0.0063,0.0147,0.016,0.0246,0.0217l2.045,1.1786l-0.3072,0.1725
	c-0.0102,0.0057-0.0147,0.0172-0.0242,0.0236c-0.0394,0.0268-0.0723,0.0587-0.1,0.0975c-0.0109,0.0151-0.0215,0.0283-0.0302,0.0448
	c-0.0272,0.0518-0.0451,0.1082-0.0472,0.1701c-0.0001,0.0033-0.0026,0.0059-0.0026,0.0092c0,0.0005,0.0004,0.001,0.0004,0.0015
	c0,0.0007-0.0004,0.0012-0.0004,0.0019v2.3734c-0.1262,0.0266-0.2524,0.0516-0.377,0.109l-1.104,0.6387l0.0063,0.0112
	c-0.4584,0.2885-0.7358,0.7867-0.7358,1.3667c0,1.0029,0.7827,1.9258,1.7817,2.1006c0.1084,0.0195,0.2163,0.0293,0.3228,0.0293
	c0.266,0,0.5142-0.0754,0.7413-0.191l0.0082,0.0142l0.1382-0.0827c0.0067-0.0043,0.0149-0.0057,0.0215-0.0101
	c0.0038-0.0026,0.0063-0.0063,0.0101-0.0089l0.6573-0.3935c0.1802-0.1039,0.3294-0.2186,0.459-0.3404l7.6078,4.6675
	c0.0063,0.0038,0.0142,0.0024,0.0206,0.0059c0.0569,0.0313,0.119,0.0537,0.1884,0.0537c0.0687,0,0.1303-0.022,0.1868-0.0526
	c0.0067-0.0036,0.0147-0.002,0.0212-0.006l3.6384-2.2172l1.2254,0.7006v1.9326c0,0.1426,0.0762,0.2754,0.2002,0.3467l1.7773,1.0264
	c0.0625,0.0352,0.1309,0.0537,0.2002,0.0537s0.1377-0.0186,0.2002-0.0537l1.8398-1.0625c0.124-0.0713,0.2002-0.2041,0.2002-0.3467
	s-0.0762-0.2754-0.2002-0.3467l-1.6396-0.9463v-1.8936c0-0.1396-0.0732-0.2686-0.1914-0.3408l-1.0406-0.6368l1.5352-0.9355
	l1.1899,0.6807v1.9316c0,0.1426,0.0762,0.2754,0.2002,0.3467l1.7773,1.0264c0.0625,0.0352,0.1309,0.0537,0.2002,0.0537
	s0.1377-0.0186,0.2002-0.0537l1.8398-1.0615c0.123-0.0713,0.2002-0.2041,0.2002-0.3467s-0.0762-0.2754-0.2002-0.3467l-1.6396-0.9463
	v-1.8945c0-0.1396-0.0732-0.2686-0.1914-0.3408l-1.0057-0.6155l1.4423-0.879l1.2089,0.6918v1.9316
	c0,0.1426,0.0762,0.2754,0.2002,0.3467l1.7773,1.0264c0.0625,0.0352,0.1309,0.0537,0.2002,0.0537s0.1377-0.0186,0.2002-0.0537
	l1.8398-1.0615c0.123-0.0713,0.2002-0.2041,0.2002-0.3467S29.8604,18.6807,29.7363,18.6094z M10.8134,6.2338l0.8101-0.4711
	l1.4395,0.8087l-0.8376,0.483L10.8134,6.2338z M6.6815,8.868l0.8063-0.4691l1.2117,0.689L7.8813,9.5597L6.6815,8.868z
	 M18.1318,4.5723l4.7266,2.7642l-12.043,7.0405l-4.811-2.811L18.1318,4.5723z M23.251,8.0339v1.937l-12.0356,7.0358v-1.9371
	L23.251,8.0339z M5.6074,12.2602l4.8081,2.8095v2.0497L8.4911,15.995c0.2183-0.2387,0.337-0.5162,0.337-0.848
	c0-0.7856-0.6133-1.5093-1.396-1.647c-0.2808-0.0493-0.5557-0.0176-0.8354,0.1104l-0.9893,0.5845V12.2602z M3.8013,13.2549
	l0.3122-0.1753c0.0005-0.0002,0.0009-0.0005,0.0013-0.0007l0.6928-0.389v1.153L3.8013,13.2549z M4.721,14.7187l-1.3245,0.7827
	v-1.5566L4.721,14.7187z M2.1015,11.2233l0.7911-0.403l1.8831,0.9704l-0.8559,0.4805L2.1015,11.2233z M2.961,18.9349l-0.0272,0.0163
	c-0.1735,0.1092-0.3948,0.1481-0.6266,0.1094c-0.6079-0.1074-1.1211-0.708-1.1211-1.3135c0-0.3223,0.1445-0.585,0.396-0.7217
	c0.1191-0.0645,0.2563-0.0967,0.4028-0.0967c0.0596,0,0.1211,0.0049,0.1836,0.0156c0.6074,0.1074,1.1211,0.71,1.1211,1.3145
	C3.2896,18.5503,3.1713,18.7887,2.961,18.9349z M4.0811,18.1727c-0.0339-0.7511-0.4995-1.4422-1.1614-1.796
	c0.0659-0.0013,0.1316-0.0041,0.2009,0.0081c0.6074,0.1074,1.1211,0.709,1.1211,1.3135
	C4.2417,17.8814,4.1893,18.0333,4.0811,18.1727z M4.1424,15.9897l2.8195-1.6689c0.0952-0.0435,0.21-0.0557,0.3315-0.0327
	c0.3984,0.0698,0.7349,0.4634,0.7349,0.8589c0,0.1758-0.0625,0.3291-0.3794,0.5117l-2.6825,1.5316
	C4.8391,16.7119,4.5426,16.2863,4.1424,15.9897z M11.9434,22.477l-6.9821-4.2836c0.0097-0.0304,0.0188-0.0612,0.0266-0.0923
	l2.4648-1.392l0.3328-0.1997l4.158,2.4296V22.477z M12.3423,18.2451l-0.8299-0.4849l12.1136-7.0818l0.7685,0.4505L12.3423,18.2451z
	 M19.1924,20.9512v1.8994c0,0.1426,0.0762,0.2754,0.2002,0.3467l1.2402,0.7158l-1.04,0.6006l-1.377-0.7949v-1.9346
	c0-0.1436-0.0771-0.2764-0.2021-0.3477l-3.1211-1.7842l1.1211-0.6475L19.1924,20.9512z M23.2637,18.4277v1.9004
	c0,0.1426,0.0762,0.2754,0.2002,0.3467l1.2402,0.7158l-1.04,0.5996l-1.377-0.7949v-1.9336c0-0.1436-0.0771-0.2764-0.2021-0.3477
	l-3.1211-1.7852l1.1211-0.6475L23.2637,18.4277z M22.1001,16.7772l-1.8003-1.1019c-0.125-0.0762-0.2803-0.0786-0.4092-0.0049
	l-1.9297,1.1138c-0.124,0.0723-0.2002,0.2041-0.2002,0.3477c0.001,0.1426,0.0771,0.2754,0.2021,0.3467l1.5404,0.8812l-1.5093,0.9197
	l-1.7654-1.0803c-0.126-0.0771-0.2827-0.0771-0.4092-0.0059l-1.9297,1.1143c-0.124,0.0723-0.2002,0.2041-0.1997,0.3477
	c0,0.1436,0.0771,0.2754,0.2012,0.3467l1.5051,0.8605l-2.6531,1.6168v-3.5417l12.04-7.109v1.6888l-0.4512-0.2761
	c-0.126-0.0762-0.2813-0.0776-0.4092-0.0049l-1.9287,1.1143c-0.124,0.0713-0.2002,0.2041-0.2002,0.3472
	c0.001,0.1431,0.0771,0.2754,0.2021,0.3462l1.5205,0.8701L22.1001,16.7772z M27.6963,19.5557l-1.377-0.7949v-1.9336
	c0-0.1436-0.0771-0.2764-0.2021-0.3477l-3.1201-1.7847l1.1201-0.647l3.1787,1.9453v1.9004c0,0.1426,0.0762,0.2754,0.2002,0.3467
	l1.2402,0.7158L27.6963,19.5557z"/>
</svg>
