<?xml version="1.0" encoding="utf-8"?>
<!-- Generator: Adobe Illustrator 21.0.0, SVG Export Plug-In . SVG Version: 6.00 Build 0)  -->
<svg version="1.1" id="Layer_1" xmlns="http://www.w3.org/2000/svg" xmlns:xlink="http://www.w3.org/1999/xlink" x="0px" y="0px"
	 viewBox="0 0 30 30" style="enable-background:new 0 0 30 30;" xml:space="preserve">
<style type="text/css">
	.st0{display:none;opacity:0.2;}
	.st1{display:inline;fill:none;stroke:#00ADEE;stroke-width:0.125;stroke-miterlimit:10;}
	.st2{fill:#231F20;}
</style>
<g class="st0">
	<path class="st1" d="M-15.375-16.557"/>
	<line class="st1" x1="-13.125" y1="47.1558" x2="-13.125" y2="-16.3603"/>
	<line class="st1" x1="-10.875" y1="47.3529" x2="-10.875" y2="-16.5568"/>
	<line class="st1" x1="-8.625" y1="46.959" x2="-8.625" y2="-16.3109"/>
	<line class="st1" x1="-6.375" y1="47.746" x2="-6.375" y2="-16.6546"/>
	<line class="st1" x1="-4.125" y1="47.3529" x2="-4.125" y2="-16.5079"/>
	<line class="st1" x1="-1.875" y1="47.4999" x2="-1.875" y2="-16.6061"/>
	<line class="st1" x1="0.375" y1="47.3529" x2="0.375" y2="-16.5568"/>
	<line class="st1" x1="2.625" y1="47.4999" x2="2.625" y2="-16.9021"/>
	<line class="st1" x1="4.875" y1="47.1558" x2="4.875" y2="-16.6547"/>
	<line class="st1" x1="7.125" y1="47.3029" x2="7.125" y2="-16.8517"/>
	<line class="st1" x1="9.375" y1="47.1063" x2="9.375" y2="-16.4577"/>
	<line class="st1" x1="11.625" y1="47.2541" x2="11.625" y2="-16.5081"/>
	<line class="st1" x1="13.875" y1="47.3029" x2="13.875" y2="-16.5079"/>
	<line class="st1" x1="16.125" y1="47.0567" x2="16.125" y2="-16.458"/>
	<line class="st1" x1="18.375" y1="47.1063" x2="18.375" y2="-16.4089"/>
	<line class="st1" x1="20.625" y1="47.3529" x2="20.625" y2="-16.6058"/>
	<line class="st1" x1="22.875" y1="47.1558" x2="22.875" y2="-16.5569"/>
	<line class="st1" x1="25.125" y1="47.4511" x2="25.125" y2="-16.5082"/>
	<line class="st1" x1="27.375" y1="47.2541" x2="27.375" y2="-16.3603"/>
	<line class="st1" x1="29.625" y1="47.1063" x2="29.625" y2="-16.5077"/>
	<line class="st1" x1="31.875" y1="47.1558" x2="31.875" y2="-16.508"/>
	<line class="st1" x1="34.125" y1="47.1063" x2="34.125" y2="-16.5077"/>
	<line class="st1" x1="36.375" y1="46.8598" x2="36.375" y2="-16.5566"/>
	<line class="st1" x1="38.625" y1="47.1558" x2="38.625" y2="-16.7536"/>
	<line class="st1" x1="40.875" y1="47.1558" x2="40.875" y2="-16.6058"/>
	<line class="st1" x1="43.125" y1="47.4511" x2="43.125" y2="-16.6062"/>
	<line class="st1" x1="-14.2926" y1="47.1726" x2="-16.4896" y2="45.9041"/>
	<line class="st1" x1="-9.8838" y1="47.1199" x2="-16.5439" y2="43.2746"/>
	<line class="st1" x1="-5.0286" y1="47.3248" x2="-16.5547" y2="40.6703"/>
	<line class="st1" x1="-0.4099" y1="47.3936" x2="-16.607" y2="38.0421"/>
	<line class="st1" x1="3.8647" y1="47.2633" x2="-16.4987" y2="35.5065"/>
	<line class="st1" x1="8.1817" y1="47.1575" x2="-16.4585" y2="32.9315"/>
	<line class="st1" x1="12.7364" y1="47.1893" x2="-16.5287" y2="30.2931"/>
	<line class="st1" x1="17.0493" y1="47.0812" x2="-16.4649" y2="27.7317"/>
	<line class="st1" x1="21.7487" y1="47.1965" x2="-16.5216" y2="25.1011"/>
	<line class="st1" x1="26.2708" y1="47.2091" x2="-16.6454" y2="22.4314"/>
	<line class="st1" x1="30.8011" y1="47.2265" x2="-16.5718" y2="19.8757"/>
	<line class="st1" x1="35.0797" y1="47.0989" x2="-16.5759" y2="17.2755"/>
	<line class="st1" x1="39.7372" y1="47.1897" x2="-16.5939" y2="14.6669"/>
	<line class="st1" x1="44.4278" y1="47.2996" x2="-16.6466" y2="12.0384"/>
	<line class="st1" x1="46.5391" y1="45.9207" x2="-16.5451" y2="9.499"/>
	<line class="st1" x1="46.7575" y1="43.4487" x2="-16.4576" y2="6.9515"/>
	<line class="st1" x1="46.5446" y1="40.7275" x2="-16.5248" y2="4.3145"/>
	<line class="st1" x1="46.5973" y1="38.16" x2="-16.5582" y2="1.6972"/>
	<line class="st1" x1="46.5272" y1="35.5214" x2="-16.4693" y2="-0.8496"/>
	<line class="st1" x1="46.6505" y1="32.9944" x2="-16.4717" y2="-3.4492"/>
	<line class="st1" x1="46.5376" y1="30.3314" x2="-16.4197" y2="-6.017"/>
	<line class="st1" x1="46.4796" y1="27.6997" x2="-16.3754" y2="-8.5896"/>
	<polyline class="st1" points="46.5777,25.1581 -16.1346,-11.0488 -16.5294,-11.2767 	"/>
	<polyline class="st1" points="46.5142,22.5236 -16.248,-13.7121 -17.1105,-14.2101 	"/>
	<polyline class="st1" points="46.5439,19.9426 -14.9996,-15.5896 -16.7609,-16.6065 	"/>
	<line class="st1" x1="46.3527" y1="17.2343" x2="-12.0668" y2="-16.4943"/>
	<line class="st1" x1="46.4824" y1="14.711" x2="-7.5112" y2="-16.4622"/>
	<line class="st1" x1="46.479" y1="12.1109" x2="-3.0123" y2="-16.4629"/>
	<line class="st1" x1="46.4578" y1="9.5007" x2="1.1859" y2="-16.637"/>
	<line class="st1" x1="46.3608" y1="6.8466" x2="5.6507" y2="-16.6575"/>
	<line class="st1" x1="46.5626" y1="4.3649" x2="10.4854" y2="-16.4643"/>
	<line class="st1" x1="46.6047" y1="1.7913" x2="15.0995" y2="-16.3983"/>
	<line class="st1" x1="46.4335" y1="-0.9057" x2="19.5934" y2="-16.4018"/>
	<line class="st1" x1="46.5889" y1="-3.4142" x2="23.9443" y2="-16.488"/>
	<line class="st1" x1="46.3665" y1="-6.1405" x2="28.4468" y2="-16.4864"/>
	<line class="st1" x1="46.5992" y1="-8.6043" x2="33.0984" y2="-16.399"/>
	<line class="st1" x1="46.5865" y1="-11.2098" x2="37.2213" y2="-16.6168"/>
	<line class="st1" x1="46.6046" y1="-13.7973" x2="41.9486" y2="-16.4854"/>
	<path class="st1" d="M46.5364-16.4349"/>
	<path class="st1" d="M-72.75-106.0893"/>
	<path class="st1" d="M-71.625-108.0379"/>
	<path class="st1" d="M-70.5-109.9865"/>
	<path class="st1" d="M-69.375-111.935"/>
	<path class="st1" d="M-68.25-113.8836"/>
	<path class="st1" d="M-67.125-115.8321"/>
	<path class="st1" d="M-66-117.7807"/>
	<path class="st1" d="M-64.875-119.7292"/>
	<path class="st1" d="M-63.75-121.6778"/>
	<path class="st1" d="M46.631,47.1215"/>
	<line class="st1" x1="41.8384" y1="47.2903" x2="46.5346" y2="44.579"/>
	<line class="st1" x1="37.761" y1="47.0465" x2="46.6554" y2="41.9113"/>
	<line class="st1" x1="33.2481" y1="47.0539" x2="46.6394" y2="39.3224"/>
	<line class="st1" x1="28.7471" y1="47.0544" x2="46.5552" y2="36.7729"/>
	<line class="st1" x1="23.9766" y1="47.2107" x2="46.5546" y2="34.1753"/>
	<line class="st1" x1="19.718" y1="47.0712" x2="46.6021" y2="31.5497"/>
	<line class="st1" x1="15.3122" y1="47.0167" x2="46.6066" y2="28.9489"/>
	<line class="st1" x1="10.3988" y1="47.2556" x2="46.5751" y2="26.3692"/>
	<line class="st1" x1="6.1197" y1="47.1279" x2="46.5162" y2="23.805"/>
	<line class="st1" x1="1.2953" y1="47.3154" x2="46.6164" y2="21.1493"/>
	<line class="st1" x1="-3.222" y1="47.3253" x2="46.4154" y2="18.6671"/>
	<line class="st1" x1="-8.0514" y1="47.5153" x2="46.5572" y2="15.9871"/>
	<line class="st1" x1="-11.769" y1="47.0639" x2="46.4405" y2="13.4566"/>
	<line class="st1" x1="-16.6198" y1="47.2663" x2="46.4978" y2="10.8253"/>
	<line class="st1" x1="-16.6252" y1="44.6712" x2="46.5671" y2="8.1872"/>
	<line class="st1" x1="-16.3982" y1="41.9423" x2="46.4768" y2="5.6413"/>
	<line class="st1" x1="-16.5136" y1="39.4107" x2="46.6506" y2="2.9429"/>
	<line class="st1" x1="-16.3672" y1="36.728" x2="46.4811" y2="0.4426"/>
	<line class="st1" x1="-16.4261" y1="34.1641" x2="46.6243" y2="-2.2381"/>
	<line class="st1" x1="-16.5537" y1="31.6396" x2="46.5591" y2="-4.7985"/>
	<line class="st1" x1="-16.6591" y1="29.1023" x2="46.5062" y2="-7.3662"/>
	<line class="st1" x1="-16.5488" y1="26.4407" x2="46.4955" y2="-9.9579"/>
	<line class="st1" x1="-16.5014" y1="23.8152" x2="46.6906" y2="-12.6687"/>
	<line class="st1" x1="-16.6869" y1="21.324" x2="46.6589" y2="-15.2486"/>
	<line class="st1" x1="-16.5222" y1="18.6311" x2="44.3216" y2="-16.497"/>
	<line class="st1" x1="-16.6397" y1="16.1008" x2="40.1155" y2="-16.6668"/>
	<line class="st1" x1="-16.4543" y1="13.3959" x2="35.4976" y2="-16.5986"/>
	<line class="st1" x1="-16.4766" y1="10.8105" x2="31.0105" y2="-16.6061"/>
	<line class="st1" x1="-16.6191" y1="8.2947" x2="26.3737" y2="-16.5272"/>
	<line class="st1" x1="-16.5886" y1="5.6791" x2="21.7039" y2="-16.4291"/>
	<line class="st1" x1="-16.4987" y1="3.0291" x2="17.3446" y2="-16.5104"/>
	<line class="st1" x1="-16.4879" y1="0.4247" x2="12.9603" y2="-16.5772"/>
	<line class="st1" x1="-16.5374" y1="-2.1447" x2="8.4534" y2="-16.5731"/>
	<line class="st1" x1="-16.4468" y1="-4.7952" x2="4.0268" y2="-16.6156"/>
	<polyline class="st1" points="-16.5695,-7.3225 -15.9916,-7.6561 -0.3642,-16.6786 	"/>
	<line class="st1" x1="-16.6918" y1="-9.8497" x2="-5.065" y2="-16.5625"/>
	<line class="st1" x1="-16.2564" y1="-12.6993" x2="-10.0909" y2="-16.259"/>
	<path class="st1" d="M-14.1742-16.4997"/>
</g>
<path class="st2" d="M29.335,18.0127l-6.554-4.5984c0.0037-0.0217,0.013-0.0414,0.013-0.0641v-2.6572
	c0-0.0006-0.0003-0.001-0.0003-0.0016c0-0.0004,0.0003-0.0009,0.0003-0.0013c-0.0001-0.0028-0.0021-0.0051-0.0022-0.0079
	c-0.0018-0.0627-0.0201-0.1198-0.0477-0.1721c-0.0082-0.0156-0.0186-0.028-0.0287-0.0425
	c-0.0273-0.0388-0.0597-0.0707-0.0987-0.0977c-0.0098-0.0068-0.0143-0.0186-0.0248-0.0246l-7.9019-4.5054
	C14.5664,5.77,14.416,5.77,14.292,5.8408L3.3477,12.147c-0.0104,0.006-0.015,0.0178-0.0247,0.0246
	c-0.0384,0.0269-0.0704,0.0588-0.0973,0.0971c-0.0105,0.0149-0.0213,0.0277-0.0296,0.0439
	c-0.028,0.0539-0.0472,0.1124-0.0479,0.1772c0,0.001-0.0008,0.0019-0.0008,0.0029c0,0.0001,0.0001,0.0003,0.0001,0.0004
	c0,0.0002-0.0001,0.0004-0.0001,0.0005v3.5747c0,0.1439,0.0803,0.2646,0.1944,0.3351l-0.0035,0.0057l0.616,0.3779l-0.6245,0.3691
	c-0.3235-0.0529-0.6436-0.0155-0.9622,0.128l-1.0386,0.6006l0.0064,0.0114c-0.4392,0.2752-0.7056,0.7531-0.7056,1.3079
	c0,0.9541,0.7456,1.834,1.6973,2.002c0.103,0.0186,0.2061,0.0273,0.3071,0.0273c0.2551,0,0.4933-0.0721,0.7113-0.1836l0.0079,0.0137
	l0.1341-0.0803c0.0051-0.0033,0.0113-0.0043,0.0163-0.0076c0.0029-0.002,0.0049-0.0048,0.0078-0.0068l0.6202-0.3712
	c0.4826-0.278,0.7691-0.6237,0.8769-1.0453l1.7968-1.0156l4.4723,2.7435c0.0063,0.0038,0.0142,0.0024,0.0206,0.0059
	c0.0569,0.0313,0.119,0.0537,0.1884,0.0537c0.0687,0,0.1303-0.022,0.1868-0.0526c0.0067-0.0036,0.0147-0.002,0.0212-0.006
	l2.1589-1.3155l6.7039,3.8214c0.1914,0.1104,0.4141,0.165,0.627,0.165c0.2119,0,0.415-0.0547,0.5713-0.1641
	c0.1787-0.1279,0.2803-0.3213,0.2803-0.5332c-0.001-0.2432-0.1367-0.4775-0.373-0.6426l-5.648-3.9636l1.7509-1.0669l6.6774,3.8068
	c0.1924,0.1094,0.4141,0.1641,0.626,0.1641c0.2129,0,0.416-0.0547,0.5693-0.1641c0.1797-0.127,0.2822-0.3213,0.2822-0.5322
	c-0.001-0.2441-0.1367-0.4785-0.373-0.6445l-5.6231-3.9455l1.5364-0.9362l6.7684,3.8583c0.1914,0.1094,0.4131,0.1641,0.626,0.1641
	c0.2119,0,0.416-0.0547,0.5723-0.1641c0.1787-0.1279,0.2803-0.3213,0.2803-0.5332C29.707,18.4121,29.5713,18.1777,29.335,18.0127z
	 M8.097,15.6154l2.9899,1.7473v2.8624l-3.4932-2.1429l0.2974-0.1779c0.4951-0.2842,0.7358-0.6602,0.7358-1.1484
	C8.627,16.3174,8.4129,15.9141,8.097,15.6154z M11.4858,16.6689l-1.1888-0.6946l10.1584-5.9263l1.1412,0.6506L11.4858,16.6689z
	 M14.4927,6.6484l5.1599,2.9419L9.5035,15.5106l-5.1592-3.0145L14.4927,6.6484z M3.9473,15.8447v-2.6542l3.5165,2.0549
	c-0.0587-0.018-0.1102-0.0533-0.1713-0.0642c-0.2681-0.0464-0.5327-0.0156-0.8018,0.1069l-1.7576,1.0388L3.9473,15.8447z
	 M2.4668,20.4189c-0.562-0.0996-1.0371-0.6563-1.0371-1.2148c0-0.2949,0.1318-0.5352,0.3604-0.6592
	c0.1089-0.0586,0.2334-0.0879,0.3672-0.0879c0.0557,0,0.1123,0.0049,0.1704,0.0146c0.562,0.0996,1.0366,0.6553,1.0366,1.2148
	c0,0.2673-0.1079,0.4856-0.3008,0.6189l-0.0198,0.0118C2.8848,20.4183,2.6835,20.456,2.4668,20.4189z M4.1501,19.5411
	c-0.0522-0.6561-0.4426-1.2607-1.0058-1.5999c0.0272,0.0024,0.0527-0.0015,0.0803,0.0031c0.562,0.0996,1.0366,0.6553,1.0366,1.2148
	C4.2612,19.2803,4.2379,19.4077,4.1501,19.5411z M4.2333,17.5511l2.6231-1.5526c0.085-0.0386,0.189-0.0488,0.2974-0.0293
	c0.3647,0.064,0.6733,0.4243,0.6733,0.7866c0,0.1621-0.0562,0.2949-0.3457,0.4619L4.981,18.6453
	C4.8585,18.2125,4.5922,17.8264,4.2333,17.5511z M11.8867,20.2273v-1.4835c0.0339,0.078,0.0833,0.1479,0.1597,0.1917l1.0128,0.5773
	L11.8867,20.2273z M20.9551,23.0928l-7.9067-4.5068l0.8145-0.4707l7.0972,4.9805C20.958,23.0947,20.957,23.0938,20.9551,23.0928z
	 M24.8398,20.6934l-7.9063-4.5068l0.8145-0.4702l7.1025,4.9829C24.8467,20.6973,24.8428,20.6953,24.8398,20.6934z M19.2099,15.7649
	l-1.2119-0.8503c-0.127-0.0889-0.2949-0.0972-0.4297-0.0186l-1.6387,0.9463c-0.124,0.0713-0.2002,0.2036-0.1997,0.3472
	s0.0771,0.2754,0.2017,0.3467l1.0398,0.5928l-1.671,1.0182l-1.1866-0.8327c-0.1279-0.0898-0.2944-0.0957-0.4302-0.0195
	l-1.6392,0.9463c-0.075,0.0437-0.1241,0.1125-0.1577,0.1892v-1.0688l10.1064-5.9681v1.468l-0.209-0.1466
	c-0.127-0.0889-0.2939-0.0972-0.4297-0.0186l-1.6387,0.9463c-0.124,0.0713-0.2002,0.2041-0.2002,0.3472
	c0.001,0.1436,0.0781,0.2754,0.2021,0.3467l0.9488,0.5408L19.2099,15.7649z M28.626,18.4932l-7.9063-4.5068l0.8145-0.4697
	l7.1006,4.9814C28.6318,18.4971,28.6289,18.4951,28.626,18.4932z"/>
</svg>
