<?xml version="1.0" encoding="utf-8"?>
<!-- Generator: Adobe Illustrator 21.0.0, SVG Export Plug-In . SVG Version: 6.00 Build 0)  -->
<svg version="1.1" id="Layer_1" xmlns="http://www.w3.org/2000/svg" xmlns:xlink="http://www.w3.org/1999/xlink" x="0px" y="0px"
	 viewBox="0 0 30 30" style="enable-background:new 0 0 30 30;" xml:space="preserve">
<style type="text/css">
	.st0{fill:#231F20;}
</style>
<g>
	<path class="st0" d="M28.8799,16.7959l-1.0752-0.6201V14.854c0-0.1436-0.0771-0.2759-0.2021-0.3472l-0.8846-0.506l0.0877-3.3207
		c0.0001-0.0015-0.0007-0.0027-0.0007-0.0041c0.0001-0.0022,0.0017-0.004,0.0017-0.0062c0-0.0105-0.0071-0.019-0.0079-0.0294
		c-0.004-0.0528-0.0168-0.1018-0.0393-0.147c-0.0087-0.0176-0.0193-0.0319-0.0305-0.0479c-0.0272-0.0392-0.0599-0.0717-0.0991-0.099
		c-0.0093-0.0065-0.0135-0.0178-0.0234-0.0234L17.292,4.9468c-0.124-0.0728-0.2744-0.0723-0.3984-0.001l-2.3882,1.3671
		l-0.6001-0.3466c-0.1919-0.1128-0.437-0.0449-0.5464,0.146c-0.1108,0.1914-0.0449,0.436,0.146,0.5464l0.1973,0.114L11.8778,7.817
		l-0.6166-0.3561c-0.1924-0.1113-0.4365-0.0454-0.5464,0.146c-0.1108,0.1914-0.0449,0.436,0.146,0.5464l0.2137,0.1235L9.2498,9.3214
		L8.6172,8.9561c-0.1914-0.1123-0.437-0.0449-0.5464,0.146C7.96,9.2935,8.0259,9.5381,8.2168,9.6484l0.2298,0.1327l-1.8244,1.0444
		l-0.649-0.3748c-0.1919-0.1113-0.437-0.0454-0.5464,0.146c-0.1108,0.1914-0.0449,0.436,0.146,0.5464l0.2462,0.1422l-1.8243,1.0443
		l-0.6661-0.3843c-0.1924-0.1104-0.436-0.0444-0.5464,0.147s-0.0444,0.436,0.147,0.5464l0.2617,0.151l-2.1016,1.203
		c-0.0104,0.0059-0.0149,0.0176-0.0246,0.0244c-0.0386,0.0269-0.0708,0.0587-0.0978,0.0971
		c-0.0105,0.015-0.0212,0.0277-0.0296,0.0439c-0.0271,0.052-0.0451,0.1086-0.0469,0.1708
		c-0.0001,0.0029-0.0023,0.0052-0.0023,0.0081c0,0.0004,0.0003,0.0009,0.0003,0.0013c0,0.0006-0.0003,0.001-0.0003,0.0016v3.2393
		c0,0.0154,0.007,0.0284,0.0087,0.0433c0.0032,0.0283,0.0076,0.055,0.0165,0.0819c0.0081,0.0239,0.0186,0.0452,0.0308,0.0669
		c0.0126,0.0226,0.0258,0.0435,0.0428,0.0635c0.0178,0.0211,0.0378,0.0381,0.0596,0.0551c0.0122,0.0095,0.02,0.0227,0.0335,0.031
		l9.2075,5.6113c0.0065,0.004,0.0146,0.0024,0.0212,0.006c0.0565,0.0306,0.118,0.0526,0.1868,0.0526
		c0.066,0,0.1257-0.02,0.1806-0.0485c0.0062-0.0031,0.0135-0.0018,0.0196-0.0052l3.0286-1.7528l0.8967,0.5126v1.3203
		c0,0.1426,0.0762,0.2754,0.2002,0.3467l1.2744,0.7354c0.0635,0.0361,0.1318,0.0537,0.2002,0.0537
		c0.1377,0,0.2725-0.0723,0.3467-0.2002c0.1104-0.1914,0.0449-0.4365-0.1465-0.5469l-1.0752-0.6201v-1.3213
		c0-0.1436-0.0767-0.2764-0.2012-0.3477l-0.6935-0.3965l2.3037-1.3333l0.8869,0.5071v1.3203c0,0.1426,0.0771,0.2754,0.2002,0.3467
		l1.2744,0.7354c0.0635,0.0361,0.1318,0.0537,0.2002,0.0537c0.1377,0,0.2725-0.0723,0.3467-0.2002
		c0.1104-0.1914,0.0449-0.4365-0.1465-0.5469l-1.0742-0.6201v-1.3213c0-0.1436-0.0771-0.2764-0.2021-0.3477l-0.6838-0.391
		l2.3038-1.3333l0.8771,0.5016v1.3203c0,0.1426,0.0771,0.2754,0.2002,0.3467l1.2744,0.7354
		c0.0635,0.0361,0.1318,0.0537,0.2002,0.0537c0.1377,0,0.2725-0.0723,0.3467-0.2002c0.1104-0.1914,0.0449-0.4365-0.1465-0.5469
		l-1.0742-0.6201V18.459c0-0.1436-0.0771-0.2764-0.2021-0.3477l-0.6741-0.3855l2.304-1.3334l0.8672,0.4962v1.3203
		c0,0.1426,0.0762,0.2744,0.2002,0.3467l1.2744,0.7363c0.0635,0.0361,0.1318,0.0537,0.2002,0.0537
		c0.1377,0,0.2725-0.0723,0.3467-0.2002c0.1104-0.1914,0.0449-0.4355-0.1465-0.5469l-1.0742-0.6201v-1.3223
		c0-0.1436-0.0771-0.2764-0.2021-0.3477l-0.6646-0.3799l2.304-1.3335l0.8576,0.4907v1.3203c0,0.1426,0.0762,0.2754,0.2002,0.3467
		l1.2754,0.7363c0.0635,0.0361,0.1318,0.0537,0.2002,0.0537c0.1377,0,0.2725-0.0723,0.3467-0.2002
		C29.1367,17.1514,29.0713,16.9063,28.8799,16.7959z M9.4208,10.1452c0.0217-0.0098,0.0403-0.0208,0.0601-0.0344l2.5242-1.4451
		c0.0626-0.0172,0.1158-0.048,0.164-0.0938l2.4188-1.3847c0.1066-0.0118,0.2029-0.0653,0.2706-0.1549l2.2323-1.2779l8.5127,4.9136
		l-15.105,8.6455L2.084,14.3452L9.4208,10.1452z M1.688,15.0402l8.4077,4.965v2.4734L1.688,17.3542V15.0402z M23.0389,15.4695
		l-1.203-0.6877c-0.1914-0.1094-0.4355-0.043-0.5459,0.1484c-0.1094,0.1919-0.043,0.4365,0.1494,0.5459l0.7985,0.4569
		l-2.3042,1.3336l-1.1935-0.6826c-0.1914-0.1074-0.4355-0.043-0.5459,0.1494c-0.1094,0.1914-0.043,0.4355,0.1494,0.5459
		l0.7886,0.451l-2.304,1.3334l-1.1838-0.677c-0.1938-0.1074-0.4365-0.043-0.5459,0.1494c-0.1099,0.1914-0.043,0.4355,0.1484,0.5459
		l0.7795,0.4457l-2.3038,1.3333l-1.1745-0.6715c-0.1929-0.1084-0.4365-0.043-0.5459,0.1494
		c-0.1099,0.1914-0.043,0.4355,0.1484,0.5459l0.7701,0.4402l-2.0255,1.1722v-2.4894l15.0925-8.6384l-0.0576,2.1809l-0.9988-0.5714
		c-0.1904-0.1089-0.4355-0.043-0.5459,0.1484c-0.1094,0.1919-0.043,0.436,0.1494,0.5459l0.8082,0.4625L23.0389,15.4695z"/>
	<path class="st0" d="M10.7788,18.2725l12.854-7.3008c0.125-0.0708,0.2021-0.2026,0.2031-0.3462
		c0-0.1436-0.0762-0.2764-0.2002-0.3477l-6.5205-3.7637c-0.124-0.0723-0.2754-0.0728-0.3975-0.0015L3.938,13.7715
		c-0.124,0.0703-0.2012,0.2017-0.2021,0.3442c-0.0015,0.1426,0.0737,0.2754,0.1963,0.3477l6.4453,3.8062
		c0.063,0.0371,0.1333,0.0557,0.2036,0.0557C10.6489,18.3252,10.7173,18.3076,10.7788,18.2725z M4.9336,14.126l11.9795-6.8047
		l5.7178,3.2998L10.585,17.4629L4.9336,14.126z"/>
	<path class="st0" d="M12.1821,15.4819c0.6416-0.3667,0.374-1.3286,0.0908-2.3472c-0.124-0.4468-0.3555-1.2788-0.3179-1.4272
		c0.2095,0.0073,0.8091,0.6289,1.1309,0.9629c0.7339,0.7612,1.4268,1.4819,2.0684,1.1128c0.6421-0.3662,0.375-1.3281,0.0918-2.3462
		c-0.124-0.4473-0.3555-1.2793-0.3169-1.4282c0.21,0.0068,0.8096,0.6284,1.1323,0.9624c0.7334,0.7607,1.4258,1.4805,2.0684,1.1123
		c0.6436-0.3667,0.376-1.3291,0.0938-2.3477c-0.0596-0.2124-0.2744-0.3384-0.4932-0.2783
		c-0.2129,0.0591-0.3369,0.2793-0.2783,0.4922c0.124,0.4473,0.3555,1.2793,0.3154,1.4282c-0.209-0.0068-0.8086-0.6284-1.1309-0.9619
		c-0.7339-0.7607-1.4277-1.481-2.0693-1.1123c-0.6426,0.3667-0.375,1.3286-0.0918,2.3477c0.124,0.4468,0.355,1.2783,0.3174,1.4268
		c-0.2095-0.0073-0.8091-0.6289-1.1309-0.9629c-0.7339-0.7612-1.4258-1.4819-2.0684-1.1128
		c-0.6421,0.3662-0.3745,1.3281-0.0913,2.3467c0.124,0.4468,0.3555,1.2793,0.3184,1.4277
		c-0.2095-0.0078-0.8071-0.6279-1.1284-0.9614l-0.0771-0.0796c-0.1533-0.1592-0.4067-0.1631-0.5654-0.0098
		s-0.1636,0.4067-0.0098,0.5654l0.0762,0.0791c0.5967,0.6191,1.166,1.21,1.7036,1.21
		C11.9424,15.5806,12.063,15.5498,12.1821,15.4819z"/>
</g>
</svg>
