<?xml version="1.0" encoding="utf-8"?>
<!-- Generator: Adobe Illustrator 21.0.0, SVG Export Plug-In . SVG Version: 6.00 Build 0)  -->
<svg version="1.1" id="Layer_1" xmlns="http://www.w3.org/2000/svg" xmlns:xlink="http://www.w3.org/1999/xlink" x="0px" y="0px"
	 viewBox="0 0 60 60" style="enable-background:new 0 0 60 60;" xml:space="preserve">
<style type="text/css">
	.st0{fill:#231F20;}
</style>
<g>
	<path class="st0" d="M56.9473,32.9092l-2.292-1.3242v-2.646c0-0.1743-0.0908-0.3354-0.2393-0.4263l-2.2168-1.3563v-5.5006
		c0-0.0828-0.0249-0.1575-0.0605-0.2263c-0.01-0.0195-0.0232-0.0349-0.0357-0.0529c-0.0342-0.0493-0.0751-0.0902-0.1244-0.1245
		c-0.0117-0.0081-0.017-0.0223-0.0294-0.0295L34.002,10.8638c-0.1543-0.0889-0.3457-0.0889-0.498-0.001l-4.5279,2.592l-1.29-0.8269
		c-0.1572-0.1016-0.3574-0.104-0.52-0.0122l-2.314,1.3359c-0.1548,0.0894-0.25,0.2544-0.25,0.4331s0.0952,0.3438,0.25,0.4331
		l0.8677,0.501l-1.8085,1.0353l-1.3209-0.8459c-0.1572-0.1011-0.3574-0.1045-0.5195-0.0122l-2.314,1.3359
		c-0.1548,0.0894-0.25,0.2544-0.25,0.4331s0.0952,0.3438,0.25,0.4331l0.8997,0.5192l-1.8099,1.0361l-1.35-0.8644
		c-0.1572-0.1011-0.3574-0.105-0.5195-0.0122l-2.314,1.3359c-0.1548,0.0894-0.25,0.2544-0.25,0.4331s0.0952,0.3438,0.25,0.4331
		l0.9301,0.537l-1.8575,1.0634l0.0261-0.0408l-1.3604-0.8701c-0.1567-0.0996-0.3569-0.1035-0.5195-0.0117l-2.314,1.3359
		c-0.1548,0.0894-0.25,0.2544-0.25,0.4331s0.0952,0.3438,0.25,0.4331l0.9625,0.5554l-1.9252,1.1021L8.667,25.02l-1.3589-0.8711
		c-0.1572-0.1006-0.3574-0.104-0.52-0.0122l-2.314,1.3359c-0.1548,0.0894-0.25,0.2544-0.25,0.4331s0.0952,0.3438,0.25,0.4331
		l0.9936,0.5737l-2.413,1.3813c-0.0127,0.0073-0.0182,0.0217-0.0302,0.03c-0.0488,0.0337-0.0894,0.074-0.1235,0.1225
		c-0.0129,0.0184-0.0261,0.0341-0.0363,0.0539c-0.0341,0.0653-0.0568,0.1365-0.0589,0.2148
		c-0.0001,0.0034-0.0026,0.006-0.0026,0.0095c0,0.0005,0.0004,0.0009,0.0004,0.0015c0,0.0007-0.0004,0.0013-0.0004,0.002v6.2417
		c0,0.0197,0.009,0.0364,0.0112,0.0555c0.0039,0.0345,0.0092,0.0672,0.0202,0.1002c0.0103,0.0308,0.0238,0.0581,0.0395,0.0859
		c0.0153,0.0273,0.0313,0.0526,0.0518,0.077c0.0228,0.027,0.0484,0.049,0.0764,0.0707c0.0148,0.0115,0.0242,0.0275,0.0406,0.0375
		L20.7837,46.207c0.008,0.0049,0.0178,0.0029,0.0259,0.0073c0.0708,0.0385,0.148,0.0659,0.2343,0.0659
		c0.0832,0,0.1581-0.0252,0.2271-0.0611c0.0074-0.0038,0.0161-0.0021,0.0234-0.0063l4.42-2.5579l1.6234,0.929v2.7012
		c0,0.1787,0.0952,0.3438,0.25,0.4326l2.4561,1.418c0.0771,0.0449,0.1636,0.0674,0.25,0.0674s0.1729-0.0225,0.25-0.0674
		l2.542-1.4678c0.1543-0.0889,0.25-0.2539,0.25-0.4326s-0.0957-0.3438-0.25-0.4326l-2.292-1.3242V42.832
		c0-0.1738-0.0903-0.3359-0.2388-0.4268l-1.3031-0.7975l2.4454-1.4151l1.6053,0.9187v2.6992c0,0.1787,0.0957,0.3438,0.25,0.4326
		l2.4561,1.418c0.0771,0.0449,0.1641,0.0674,0.25,0.0674s0.1729-0.0225,0.25-0.0664l2.543-1.4668
		c0.1543-0.0898,0.25-0.2549,0.25-0.4336s-0.0957-0.3438-0.25-0.4326l-2.293-1.3242v-2.6455c0-0.1738-0.0908-0.3359-0.2393-0.4268
		l-1.2852-0.7868l2.4476-1.4164l1.5867,0.9073v2.7012c0,0.1787,0.0957,0.3438,0.25,0.4326l2.4561,1.418
		c0.0771,0.0449,0.1641,0.0674,0.25,0.0674s0.1729-0.0225,0.25-0.0674l2.542-1.4668c0.1543-0.0889,0.25-0.2539,0.25-0.4326
		s-0.0957-0.3438-0.25-0.4326l-2.292-1.3242v-2.6475c0-0.1738-0.0908-0.3359-0.2393-0.4268l-1.2672-0.7751l2.4472-1.4162
		l1.569,0.8973v2.7012c0,0.1787,0.0957,0.3438,0.25,0.4326l2.4561,1.418c0.0771,0.0449,0.1641,0.0674,0.25,0.0674
		s0.1729-0.0225,0.25-0.0674l2.542-1.4678c0.1543-0.0889,0.25-0.2539,0.25-0.4326s-0.0957-0.3438-0.25-0.4326l-2.292-1.3242v-2.6465
		c0-0.1738-0.0908-0.3359-0.2393-0.4268l-1.2501-0.7647l2.4476-1.4164l1.5505,0.8867v2.6997c0,0.1787,0.0957,0.3438,0.25,0.4326
		l2.4561,1.418c0.0771,0.0449,0.1641,0.0674,0.25,0.0674s0.1729-0.0225,0.25-0.0674l2.542-1.4668
		c0.1543-0.0889,0.25-0.2539,0.25-0.4326S57.1016,32.998,56.9473,32.9092z M26.1021,14.3848l1.3003-0.751l0.5948,0.3814
		l-1.2729,0.7288L26.1021,14.3848z M21.0068,17.2651l1.3003-0.751l0.6254,0.4004l-1.2714,0.7279L21.0068,17.2651z M15.9131,20.146
		l1.3003-0.751l0.6544,0.4189l-1.2703,0.7272L15.9131,20.146z M10.8179,23.0259l1.3008-0.751l0.6848,0.4382l-1.2686,0.7262
		L10.8179,23.0259z M5.7241,25.9058l1.3003-0.751l0.714,0.4579l-1.2663,0.7249L5.7241,25.9058z M33.751,11.8735l16.9453,9.7803
		L21.0479,38.625l-16.75-9.8901L33.751,11.8735z M3.8032,29.6041l16.7407,9.8846v5.4019L3.8032,34.6891V29.6041z M30.0439,46.1992
		l1.792,1.0361l-1.542,0.8906l-1.9561-1.1299v-2.7021c0-0.1797-0.0962-0.3447-0.2515-0.4336l-4.3911-2.5127l1.6543-0.9551
		l4.4443,2.7197v2.6543C29.7939,45.9453,29.8892,46.1104,30.0439,46.1992z M36.0088,42.7266l1.793,1.0352l-1.543,0.8896
		l-1.9561-1.1299v-2.7002c0-0.1797-0.0957-0.3447-0.252-0.4336l-4.3901-2.5127l1.6548-0.9551l4.4434,2.7197v2.6543
		C35.7588,42.4727,35.8545,42.6377,36.0088,42.7266z M41.9746,39.2539l1.792,1.0352l-1.542,0.8896l-1.9561-1.1299v-2.7021
		c0-0.1797-0.0957-0.3447-0.252-0.4336l-4.3906-2.5107l1.6543-0.9551l4.4443,2.7178v2.6563
		C41.7246,39,41.8203,39.165,41.9746,39.2539z M47.9404,35.7793l1.792,1.0361l-1.542,0.8906l-1.9561-1.1299V33.874
		c0-0.1797-0.0957-0.3447-0.252-0.4336l-4.3916-2.5122l1.6543-0.9556l4.4453,2.7197v2.6543
		C47.6904,35.5254,47.7861,35.6904,47.9404,35.7793z M46.2312,30.6273l-2.7175-1.6624c-0.1553-0.0952-0.3516-0.0977-0.5107-0.0068
		l-2.666,1.5391c-0.1553,0.0894-0.25,0.2549-0.25,0.4341s0.0967,0.3442,0.252,0.4331l2.323,1.3286l-2.4137,1.3968l-2.6993-1.6511
		c-0.1563-0.0947-0.3516-0.0986-0.5107-0.0059l-2.666,1.5391c-0.1553,0.0889-0.25,0.2549-0.25,0.4336s0.0967,0.3438,0.252,0.4326
		l2.3041,1.3176l-2.4135,1.3967l-2.6807-1.6411c-0.1553-0.0938-0.3516-0.0977-0.5107-0.0059l-2.666,1.5391
		c-0.1548,0.0889-0.2505,0.2549-0.25,0.4336s0.0962,0.3438,0.2515,0.4326l2.2854,1.3079l-2.4119,1.3957l-2.664-1.6304
		c-0.1577-0.0967-0.354-0.0986-0.5112-0.0059l-2.665,1.5391c-0.1553,0.0889-0.2505,0.2549-0.25,0.4336s0.0962,0.3438,0.2515,0.4326
		l2.2676,1.2976l-3.1671,1.8328v-5.4208L51.1992,22.518v4.0265l-1.7207-1.0528c-0.1553-0.0957-0.3516-0.0972-0.5107-0.0068
		l-2.666,1.5391c-0.1553,0.0894-0.25,0.2549-0.25,0.4341s0.0967,0.3442,0.252,0.4331l2.3416,1.3392L46.2312,30.6273z
		 M54.1553,34.2314l-1.9561-1.1299v-2.7007c0-0.1792-0.0957-0.3452-0.252-0.4341l-4.3916-2.5117l1.6543-0.9556l4.4453,2.7197v2.6548
		c0,0.1787,0.0957,0.3438,0.25,0.4326l1.792,1.0352L54.1553,34.2314z"/>
	<path class="st0" d="M21.209,35.9346c0.0513,0,0.1021-0.0127,0.1479-0.0391L46.124,21.8286
		c0.0928-0.0532,0.1514-0.1523,0.1514-0.2598c0.001-0.1074-0.0566-0.207-0.1494-0.2607l-12.5625-7.251
		c-0.0918-0.0527-0.2061-0.0537-0.2988-0.001L8.6421,28.0425c-0.0933,0.0527-0.1514,0.1514-0.1519,0.2583
		c-0.001,0.1069,0.0552,0.2065,0.1475,0.2607l12.4189,7.332C21.1035,35.9209,21.1563,35.9346,21.209,35.9346z M33.4121,14.6626
		l11.96,6.9033L21.2119,35.2881l-11.8232-6.98L33.4121,14.6626z"/>
	<path class="st0" d="M23.5986,30.6411c0.1602,0,0.314-0.0381,0.4604-0.1221c0.9185-0.5244,0.4507-2.2061-0.0439-3.9863
		c-0.373-1.3423-0.8379-3.0132-0.3242-3.3062c0.5132-0.2905,1.7168,0.9551,2.6831,1.958c1.2827,1.3311,2.4941,2.5854,3.4131,2.063
		c0.9189-0.5249,0.4512-2.2065-0.0435-3.9873c-0.373-1.3423-0.8374-3.0127-0.3237-3.3062c0.5186-0.2925,1.7188,0.9546,2.6855,1.9565
		c1.2832,1.3301,2.4922,2.5874,3.416,2.0605c0.918-0.5254,0.4531-2.2041-0.041-3.9883l-0.5762,0.1665
		c0.3711,1.3398,0.832,3.0073,0.3193,3.3008c-0.5195,0.2998-1.7197-0.9536-2.6865-1.9561c-1.2832-1.3301-2.4951-2.584-3.415-2.0605
		c-0.9189,0.5249-0.4512,2.2065,0.0435,3.9873c0.373,1.3423,0.8369,3.0122,0.3237,3.3057
		c-0.5122,0.2876-1.7173-0.9561-2.6836-1.9585c-1.2817-1.3301-2.4897-2.5874-3.4126-2.0625
		c-0.9189,0.5249-0.4512,2.207,0.0439,3.9878c0.373,1.3418,0.8374,3.0117,0.3242,3.3052c-0.5137,0.2891-1.7173-0.958-2.6851-1.9634
		l-0.1392-0.144c-0.1152-0.1201-0.3057-0.1235-0.4238-0.0078c-0.1196,0.1147-0.123,0.3047-0.0078,0.4238l0.1387,0.1445
		C21.7236,29.5723,22.7524,30.6411,23.5986,30.6411z"/>
</g>
</svg>
