<?xml version="1.0" encoding="utf-8"?>
<!-- Generator: Adobe Illustrator 21.0.0, SVG Export Plug-In . SVG Version: 6.00 Build 0)  -->
<svg version="1.1" id="Layer_1" xmlns="http://www.w3.org/2000/svg" xmlns:xlink="http://www.w3.org/1999/xlink" x="0px" y="0px"
	 viewBox="0 0 30 30" style="enable-background:new 0 0 30 30;" xml:space="preserve">
<style type="text/css">
	.st0{display:none;opacity:0.2;}
	.st1{display:inline;fill:none;stroke:#00ADEE;stroke-width:0.125;stroke-miterlimit:10;}
	.st2{fill:#231F20;}
</style>
<g class="st0">
	<path class="st1" d="M-15.375-16.557"/>
	<line class="st1" x1="-13.125" y1="47.1558" x2="-13.125" y2="-16.3603"/>
	<line class="st1" x1="-10.875" y1="47.3529" x2="-10.875" y2="-16.5568"/>
	<line class="st1" x1="-8.625" y1="46.959" x2="-8.625" y2="-16.3109"/>
	<line class="st1" x1="-6.375" y1="47.746" x2="-6.375" y2="-16.6546"/>
	<line class="st1" x1="-4.125" y1="47.3529" x2="-4.125" y2="-16.5079"/>
	<line class="st1" x1="-1.875" y1="47.4999" x2="-1.875" y2="-16.6061"/>
	<line class="st1" x1="0.375" y1="47.3529" x2="0.375" y2="-16.5568"/>
	<line class="st1" x1="2.625" y1="47.4999" x2="2.625" y2="-16.9021"/>
	<line class="st1" x1="4.875" y1="47.1558" x2="4.875" y2="-16.6547"/>
	<line class="st1" x1="7.125" y1="47.3029" x2="7.125" y2="-16.8517"/>
	<line class="st1" x1="9.375" y1="47.1063" x2="9.375" y2="-16.4577"/>
	<line class="st1" x1="11.625" y1="47.2541" x2="11.625" y2="-16.5081"/>
	<line class="st1" x1="13.875" y1="47.3029" x2="13.875" y2="-16.5079"/>
	<line class="st1" x1="16.125" y1="47.0567" x2="16.125" y2="-16.458"/>
	<line class="st1" x1="18.375" y1="47.1063" x2="18.375" y2="-16.4089"/>
	<line class="st1" x1="20.625" y1="47.3529" x2="20.625" y2="-16.6058"/>
	<line class="st1" x1="22.875" y1="47.1558" x2="22.875" y2="-16.5569"/>
	<line class="st1" x1="25.125" y1="47.4511" x2="25.125" y2="-16.5082"/>
	<line class="st1" x1="27.375" y1="47.2541" x2="27.375" y2="-16.3603"/>
	<line class="st1" x1="29.625" y1="47.1063" x2="29.625" y2="-16.5077"/>
	<line class="st1" x1="31.875" y1="47.1558" x2="31.875" y2="-16.508"/>
	<line class="st1" x1="34.125" y1="47.1063" x2="34.125" y2="-16.5077"/>
	<line class="st1" x1="36.375" y1="46.8598" x2="36.375" y2="-16.5566"/>
	<line class="st1" x1="38.625" y1="47.1558" x2="38.625" y2="-16.7536"/>
	<line class="st1" x1="40.875" y1="47.1558" x2="40.875" y2="-16.6058"/>
	<line class="st1" x1="43.125" y1="47.4511" x2="43.125" y2="-16.6062"/>
	<line class="st1" x1="-14.2926" y1="47.1726" x2="-16.4896" y2="45.9041"/>
	<line class="st1" x1="-9.8838" y1="47.1199" x2="-16.5439" y2="43.2746"/>
	<line class="st1" x1="-5.0286" y1="47.3248" x2="-16.5547" y2="40.6703"/>
	<line class="st1" x1="-0.4099" y1="47.3936" x2="-16.607" y2="38.0421"/>
	<line class="st1" x1="3.8647" y1="47.2633" x2="-16.4987" y2="35.5065"/>
	<line class="st1" x1="8.1817" y1="47.1575" x2="-16.4585" y2="32.9315"/>
	<line class="st1" x1="12.7364" y1="47.1893" x2="-16.5287" y2="30.2931"/>
	<line class="st1" x1="17.0493" y1="47.0812" x2="-16.4649" y2="27.7317"/>
	<line class="st1" x1="21.7487" y1="47.1965" x2="-16.5216" y2="25.1011"/>
	<line class="st1" x1="26.2708" y1="47.2091" x2="-16.6454" y2="22.4314"/>
	<line class="st1" x1="30.8011" y1="47.2265" x2="-16.5718" y2="19.8757"/>
	<line class="st1" x1="35.0797" y1="47.0989" x2="-16.5759" y2="17.2755"/>
	<line class="st1" x1="39.7372" y1="47.1897" x2="-16.5939" y2="14.6669"/>
	<line class="st1" x1="44.4278" y1="47.2996" x2="-16.6466" y2="12.0384"/>
	<line class="st1" x1="46.5391" y1="45.9207" x2="-16.5451" y2="9.499"/>
	<line class="st1" x1="46.7575" y1="43.4487" x2="-16.4576" y2="6.9515"/>
	<line class="st1" x1="46.5446" y1="40.7275" x2="-16.5248" y2="4.3145"/>
	<line class="st1" x1="46.5973" y1="38.16" x2="-16.5582" y2="1.6972"/>
	<line class="st1" x1="46.5272" y1="35.5214" x2="-16.4693" y2="-0.8496"/>
	<line class="st1" x1="46.6505" y1="32.9944" x2="-16.4717" y2="-3.4492"/>
	<line class="st1" x1="46.5376" y1="30.3314" x2="-16.4197" y2="-6.017"/>
	<line class="st1" x1="46.4796" y1="27.6997" x2="-16.3754" y2="-8.5896"/>
	<polyline class="st1" points="46.5777,25.1581 -16.1346,-11.0488 -16.5294,-11.2767 	"/>
	<polyline class="st1" points="46.5142,22.5236 -16.248,-13.7121 -17.1105,-14.2101 	"/>
	<polyline class="st1" points="46.5439,19.9426 -14.9996,-15.5896 -16.7609,-16.6065 	"/>
	<line class="st1" x1="46.3527" y1="17.2343" x2="-12.0668" y2="-16.4943"/>
	<line class="st1" x1="46.4824" y1="14.711" x2="-7.5112" y2="-16.4622"/>
	<line class="st1" x1="46.479" y1="12.1109" x2="-3.0123" y2="-16.4629"/>
	<line class="st1" x1="46.4578" y1="9.5007" x2="1.1859" y2="-16.637"/>
	<line class="st1" x1="46.3608" y1="6.8466" x2="5.6507" y2="-16.6575"/>
	<line class="st1" x1="46.5626" y1="4.3649" x2="10.4854" y2="-16.4643"/>
	<line class="st1" x1="46.6047" y1="1.7913" x2="15.0995" y2="-16.3983"/>
	<line class="st1" x1="46.4335" y1="-0.9057" x2="19.5934" y2="-16.4018"/>
	<line class="st1" x1="46.5889" y1="-3.4142" x2="23.9443" y2="-16.488"/>
	<line class="st1" x1="46.3665" y1="-6.1405" x2="28.4468" y2="-16.4864"/>
	<line class="st1" x1="46.5992" y1="-8.6043" x2="33.0984" y2="-16.399"/>
	<line class="st1" x1="46.5865" y1="-11.2098" x2="37.2213" y2="-16.6168"/>
	<line class="st1" x1="46.6046" y1="-13.7973" x2="41.9486" y2="-16.4854"/>
	<path class="st1" d="M-72.75-106.0893"/>
	<path class="st1" d="M-71.625-108.0379"/>
	<path class="st1" d="M-70.5-109.9865"/>
	<path class="st1" d="M-69.375-111.935"/>
	<path class="st1" d="M-68.25-113.8836"/>
	<path class="st1" d="M-67.125-115.8321"/>
	<path class="st1" d="M-66-117.7807"/>
	<path class="st1" d="M-64.875-119.7292"/>
	<path class="st1" d="M-63.75-121.6778"/>
	<path class="st1" d="M46.631,47.1215"/>
	<line class="st1" x1="41.8384" y1="47.2903" x2="46.5346" y2="44.579"/>
	<line class="st1" x1="37.761" y1="47.0465" x2="46.6554" y2="41.9113"/>
	<line class="st1" x1="33.2481" y1="47.0539" x2="46.6394" y2="39.3224"/>
	<line class="st1" x1="28.7471" y1="47.0544" x2="46.5552" y2="36.7729"/>
	<line class="st1" x1="23.9766" y1="47.2107" x2="46.5546" y2="34.1753"/>
	<line class="st1" x1="19.718" y1="47.0712" x2="46.6021" y2="31.5497"/>
	<line class="st1" x1="15.3122" y1="47.0167" x2="46.6066" y2="28.9489"/>
	<line class="st1" x1="10.3988" y1="47.2556" x2="46.5751" y2="26.3692"/>
	<line class="st1" x1="6.1197" y1="47.1279" x2="46.5162" y2="23.805"/>
	<line class="st1" x1="1.2953" y1="47.3154" x2="46.6164" y2="21.1493"/>
	<line class="st1" x1="-3.222" y1="47.3253" x2="46.4154" y2="18.6671"/>
	<line class="st1" x1="-8.0514" y1="47.5153" x2="46.5572" y2="15.9871"/>
	<line class="st1" x1="-11.769" y1="47.0639" x2="46.4405" y2="13.4566"/>
	<line class="st1" x1="-16.6198" y1="47.2663" x2="46.4978" y2="10.8253"/>
	<line class="st1" x1="-16.6252" y1="44.6712" x2="46.5671" y2="8.1872"/>
	<line class="st1" x1="-16.3982" y1="41.9423" x2="46.4768" y2="5.6413"/>
	<line class="st1" x1="-16.5136" y1="39.4107" x2="46.6506" y2="2.9429"/>
	<line class="st1" x1="-16.3672" y1="36.728" x2="46.4811" y2="0.4426"/>
	<line class="st1" x1="-16.4261" y1="34.1641" x2="46.6243" y2="-2.2381"/>
	<line class="st1" x1="-16.5537" y1="31.6396" x2="46.5591" y2="-4.7985"/>
	<line class="st1" x1="-16.6591" y1="29.1023" x2="46.5062" y2="-7.3662"/>
	<line class="st1" x1="-16.5488" y1="26.4407" x2="46.4955" y2="-9.9579"/>
	<line class="st1" x1="-16.5014" y1="23.8152" x2="46.6906" y2="-12.6687"/>
	<line class="st1" x1="-16.6869" y1="21.324" x2="46.6589" y2="-15.2486"/>
	<line class="st1" x1="-16.5222" y1="18.6311" x2="44.3216" y2="-16.497"/>
	<line class="st1" x1="-16.6397" y1="16.1008" x2="40.1155" y2="-16.6668"/>
	<line class="st1" x1="-16.4543" y1="13.3959" x2="35.4976" y2="-16.5986"/>
	<line class="st1" x1="-16.4766" y1="10.8105" x2="31.0105" y2="-16.6061"/>
	<line class="st1" x1="-16.6191" y1="8.2947" x2="26.3737" y2="-16.5272"/>
	<line class="st1" x1="-16.5886" y1="5.6791" x2="21.7039" y2="-16.4291"/>
	<line class="st1" x1="-16.4987" y1="3.0291" x2="17.3446" y2="-16.5104"/>
	<line class="st1" x1="-16.4879" y1="0.4247" x2="12.9603" y2="-16.5772"/>
	<line class="st1" x1="-16.5374" y1="-2.1447" x2="8.4534" y2="-16.5731"/>
	<line class="st1" x1="-16.4468" y1="-4.7952" x2="4.0268" y2="-16.6156"/>
	<polyline class="st1" points="-16.5695,-7.3225 -15.9916,-7.6561 -0.3642,-16.6786 	"/>
	<line class="st1" x1="-16.6918" y1="-9.8497" x2="-5.065" y2="-16.5625"/>
	<line class="st1" x1="-16.2564" y1="-12.6993" x2="-10.0909" y2="-16.259"/>
	<path class="st1" d="M-14.1742-16.4997"/>
</g>
<g>
	<path class="st2" d="M28.52,10.9391c-0.0079-0.0156-0.0186-0.0276-0.0285-0.0421c-0.0266-0.0388-0.0582-0.0711-0.0963-0.0984
		c-0.0095-0.0069-0.0139-0.0186-0.0241-0.0247l-10.377-6.145c-0.125-0.0723-0.2773-0.0737-0.4023-0.0029l-15.957,9.1348
		c-0.0105,0.006-0.0151,0.0178-0.0249,0.0246c-0.038,0.0264-0.0696,0.0577-0.0965,0.0953c-0.0109,0.0153-0.022,0.0285-0.0306,0.0453
		c-0.0261,0.05-0.0428,0.1045-0.0456,0.1641c-0.0002,0.0046-0.0035,0.0084-0.0036,0.013c0,0.0008,0.0005,0.0014,0.0005,0.0022
		c0,0.001-0.0005,0.0017-0.0005,0.0027v3.271c0,0.0148,0.0068,0.0273,0.0084,0.0416c0.003,0.0282,0.0076,0.0549,0.0165,0.0819
		c0.008,0.0241,0.0182,0.0457,0.0303,0.0676c0.0123,0.0222,0.0255,0.0427,0.0421,0.0625c0.018,0.0215,0.038,0.0392,0.0601,0.0566
		c0.0115,0.0091,0.0187,0.0217,0.0315,0.0297l1.2739,0.7917v1.0959c0,0.2207,0.1792,0.4004,0.3999,0.4004
		s0.3999-0.1797,0.3999-0.4004v-0.5988l8.1943,5.093c0.0066,0.0041,0.0148,0.0026,0.0216,0.0062
		c0.0571,0.0316,0.1195,0.0543,0.1893,0.0543c0.066,0,0.1257-0.02,0.1806-0.0485c0.0062-0.0031,0.0135-0.0018,0.0196-0.0052
		l1.1719-0.6768v1.5958c0,0.2207,0.1792,0.4004,0.3999,0.4004s0.3999-0.1797,0.3999-0.4004v-2.0166
		c0-0.0131-0.0062-0.024-0.0074-0.0368l1.0646-0.6149v1.6087c0,0.2207,0.1792,0.4004,0.3999,0.4004s0.4004-0.1797,0.4004-0.4004
		v-2.0313c0-0.0126-0.006-0.0233-0.0072-0.0355l1.0638-0.6144v1.6216c0,0.2207,0.1797,0.4004,0.4004,0.4004
		s0.4004-0.1797,0.4004-0.4004v-2.0459c0-0.0121-0.0059-0.0224-0.0069-0.0342l1.0626-0.6137v1.6333
		c0,0.2207,0.1797,0.4004,0.4004,0.4004s0.4004-0.1797,0.4004-0.4004v-2.0596c0-0.0115-0.0056-0.0212-0.0066-0.0325l1.0632-0.614
		v1.6465c0,0.2207,0.1797,0.4004,0.4004,0.4004s0.4004-0.1797,0.4004-0.4004v-2.0752c0-0.0107-0.0052-0.0198-0.0061-0.0303
		l1.0618-0.6133v1.6582c0,0.2207,0.1797,0.4004,0.4004,0.4004s0.4004-0.1797,0.4004-0.4004v-2.0889
		c0-0.0101-0.005-0.0186-0.0057-0.0285l1.0614-0.613v1.6708c0,0.2207,0.1797,0.4004,0.4004,0.4004s0.4004-0.1797,0.4004-0.4004
		v-2.1035c0-0.0095-0.0047-0.0174-0.0054-0.0267l1.062-0.6134v1.683c0,0.2207,0.1797,0.4004,0.4004,0.4004
		s0.4004-0.1797,0.4004-0.4004v-2.1177c0-0.0089-0.0045-0.0162-0.0051-0.025l1.0998-0.6352
		c0.0149-0.0086,0.0237-0.0226,0.0371-0.0327c0.0223-0.0168,0.0432-0.0333,0.0615-0.0543c0.0169-0.0195,0.0294-0.0402,0.0421-0.0622
		c0.013-0.0223,0.025-0.0439,0.0335-0.0687c0.0089-0.0258,0.0125-0.0516,0.016-0.0788c0.0022-0.017,0.01-0.032,0.01-0.0496v-3.3643
		C28.5674,11.0528,28.548,10.9936,28.52,10.9391z M12.5015,23.0682V20.545l15.2651-8.7371v2.4438L12.5015,23.0682z M2.2334,17.1565
		V14.817l9.4683,5.7227v2.5021L2.2334,17.1565z M17.7871,5.436l9.585,5.6763l-15.2651,8.7373l-9.4849-5.7324L17.7871,5.436z"/>
	<path class="st2" d="M22.4023,12.1161l2.2549-1.2807c0.125-0.0708,0.2021-0.2031,0.2031-0.3467
		c0-0.1431-0.0762-0.2759-0.2012-0.3477l-5.9063-3.4004c-0.0058-0.0033-0.0128-0.0021-0.0187-0.0051
		c-0.0522-0.027-0.1091-0.0449-0.1716-0.0463C18.557,6.6891,18.552,6.689,18.5463,6.689c-0.0626,0.0012-0.1196,0.0191-0.1721,0.046
		c-0.0056,0.0029-0.0123,0.0015-0.0178,0.0048L5.4521,14.0688c-0.124,0.0703-0.2012,0.2017-0.2021,0.3442
		c-0.0015,0.1426,0.0737,0.2754,0.1963,0.3477l5.8306,3.4434c0.063,0.0371,0.1333,0.0557,0.2036,0.0557
		c0.0679,0,0.1362-0.0176,0.1978-0.0527l10.6874-6.07C22.3787,12.1307,22.39,12.1238,22.4023,12.1161z M22.1936,11.315
		l-3.2395-1.9588V7.7794l4.7002,2.7059L22.1936,11.315z M18.1533,7.7752v1.5737L7.8175,15.2322l-1.3698-0.8088L18.1533,7.7752z
		 M11.4844,17.3975l-2.8735-1.6968L9.7539,15.05v0.5491c0,0.2207,0.1792,0.3999,0.3999,0.3999s0.3999-0.1792,0.3999-0.3999v-1.0042
		l1.0571-0.6016v0.5458c0,0.2207,0.1792,0.3999,0.3999,0.3999s0.3999-0.1792,0.3999-0.3999v-1.001l1.0571-0.6016v0.5425
		c0,0.2207,0.1792,0.3999,0.3999,0.3999s0.3999-0.1792,0.3999-0.3999v-0.9977l1.0571-0.6016v0.5392
		c0,0.2207,0.1792,0.3999,0.3999,0.3999s0.4004-0.1792,0.4004-0.3999v-0.9948l1.0557-0.6008v0.5355
		c0,0.2207,0.1797,0.3999,0.4004,0.3999s0.4004-0.1792,0.4004-0.3999v-0.9912l0.5663-0.3223l2.8486,1.7224L11.4844,17.3975z"/>
</g>
</svg>
