<?xml version="1.0" encoding="utf-8"?>
<!-- Generator: Adobe Illustrator 21.0.0, SVG Export Plug-In . SVG Version: 6.00 Build 0)  -->
<svg version="1.1" id="Layer_1" xmlns="http://www.w3.org/2000/svg" xmlns:xlink="http://www.w3.org/1999/xlink" x="0px" y="0px"
	 viewBox="0 0 60 60" style="enable-background:new 0 0 60 60;" xml:space="preserve">
<style type="text/css">
	.st0{display:none;opacity:0.2;}
	.st1{display:inline;fill:none;stroke:#00ADEE;stroke-width:0.125;stroke-miterlimit:10;}
	.st2{fill:#231F20;}
</style>
<g class="st0">
	<path class="st1" d="M-0.375-1.557"/>
	<line class="st1" x1="1.875" y1="62.156" x2="1.875" y2="-1.36"/>
	<line class="st1" x1="4.125" y1="62.353" x2="4.125" y2="-1.557"/>
	<line class="st1" x1="6.375" y1="61.959" x2="6.375" y2="-1.311"/>
	<line class="st1" x1="8.625" y1="62.746" x2="8.625" y2="-1.655"/>
	<line class="st1" x1="10.875" y1="62.353" x2="10.875" y2="-1.508"/>
	<line class="st1" x1="13.125" y1="62.5" x2="13.125" y2="-1.606"/>
	<line class="st1" x1="15.375" y1="62.353" x2="15.375" y2="-1.557"/>
	<line class="st1" x1="17.625" y1="62.5" x2="17.625" y2="-1.902"/>
	<line class="st1" x1="19.875" y1="62.156" x2="19.875" y2="-1.655"/>
	<line class="st1" x1="22.125" y1="62.303" x2="22.125" y2="-1.852"/>
	<line class="st1" x1="24.375" y1="62.106" x2="24.375" y2="-1.458"/>
	<line class="st1" x1="26.625" y1="62.254" x2="26.625" y2="-1.508"/>
	<line class="st1" x1="28.875" y1="62.303" x2="28.875" y2="-1.508"/>
	<line class="st1" x1="31.125" y1="62.057" x2="31.125" y2="-1.458"/>
	<line class="st1" x1="33.375" y1="62.106" x2="33.375" y2="-1.409"/>
	<line class="st1" x1="35.625" y1="62.353" x2="35.625" y2="-1.606"/>
	<line class="st1" x1="37.875" y1="62.156" x2="37.875" y2="-1.557"/>
	<line class="st1" x1="40.125" y1="62.451" x2="40.125" y2="-1.508"/>
	<line class="st1" x1="42.375" y1="62.254" x2="42.375" y2="-1.36"/>
	<line class="st1" x1="44.625" y1="62.106" x2="44.625" y2="-1.508"/>
	<line class="st1" x1="46.875" y1="62.156" x2="46.875" y2="-1.508"/>
	<line class="st1" x1="49.125" y1="62.106" x2="49.125" y2="-1.508"/>
	<line class="st1" x1="51.375" y1="61.86" x2="51.375" y2="-1.557"/>
	<line class="st1" x1="53.625" y1="62.156" x2="53.625" y2="-1.754"/>
	<line class="st1" x1="55.875" y1="62.156" x2="55.875" y2="-1.606"/>
	<line class="st1" x1="58.125" y1="62.451" x2="58.125" y2="-1.606"/>
	<line class="st1" x1="0.707" y1="62.173" x2="-1.49" y2="60.904"/>
	<line class="st1" x1="5.116" y1="62.12" x2="-1.544" y2="58.275"/>
	<line class="st1" x1="9.971" y1="62.325" x2="-1.555" y2="55.67"/>
	<line class="st1" x1="14.59" y1="62.394" x2="-1.607" y2="53.042"/>
	<line class="st1" x1="18.865" y1="62.263" x2="-1.499" y2="50.506"/>
	<line class="st1" x1="23.182" y1="62.158" x2="-1.459" y2="47.931"/>
	<line class="st1" x1="27.736" y1="62.189" x2="-1.529" y2="45.293"/>
	<line class="st1" x1="32.049" y1="62.081" x2="-1.465" y2="42.732"/>
	<line class="st1" x1="36.749" y1="62.196" x2="-1.522" y2="40.101"/>
	<line class="st1" x1="41.271" y1="62.209" x2="-1.645" y2="37.431"/>
	<line class="st1" x1="45.801" y1="62.226" x2="-1.572" y2="34.876"/>
	<line class="st1" x1="50.08" y1="62.099" x2="-1.576" y2="32.275"/>
	<line class="st1" x1="54.737" y1="62.19" x2="-1.594" y2="29.667"/>
	<line class="st1" x1="59.428" y1="62.3" x2="-1.647" y2="27.038"/>
	<line class="st1" x1="61.539" y1="60.921" x2="-1.545" y2="24.499"/>
	<line class="st1" x1="61.758" y1="58.449" x2="-1.458" y2="21.951"/>
	<line class="st1" x1="61.545" y1="55.728" x2="-1.525" y2="19.314"/>
	<line class="st1" x1="61.597" y1="53.16" x2="-1.558" y2="16.697"/>
	<line class="st1" x1="61.527" y1="50.521" x2="-1.469" y2="14.15"/>
	<line class="st1" x1="61.65" y1="47.994" x2="-1.472" y2="11.551"/>
	<line class="st1" x1="61.538" y1="45.331" x2="-1.42" y2="8.983"/>
	<line class="st1" x1="61.48" y1="42.7" x2="-1.375" y2="6.41"/>
	<polyline class="st1" points="61.578,40.158 -1.135,3.951 -1.529,3.723 	"/>
	<polyline class="st1" points="61.514,37.524 -1.248,1.288 -2.111,0.79 	"/>
	<polyline class="st1" points="61.544,34.943 0,-0.59 -1.761,-1.606 	"/>
	<line class="st1" x1="61.353" y1="32.234" x2="2.933" y2="-1.494"/>
	<line class="st1" x1="61.482" y1="29.711" x2="7.489" y2="-1.462"/>
	<line class="st1" x1="61.479" y1="27.111" x2="11.988" y2="-1.463"/>
	<line class="st1" x1="61.458" y1="24.501" x2="16.186" y2="-1.637"/>
	<line class="st1" x1="61.361" y1="21.847" x2="20.651" y2="-1.657"/>
	<line class="st1" x1="61.563" y1="19.365" x2="25.485" y2="-1.464"/>
	<line class="st1" x1="61.605" y1="16.791" x2="30.1" y2="-1.398"/>
	<line class="st1" x1="61.433" y1="14.094" x2="34.593" y2="-1.402"/>
	<line class="st1" x1="61.589" y1="11.586" x2="38.944" y2="-1.488"/>
	<line class="st1" x1="61.366" y1="8.86" x2="43.447" y2="-1.486"/>
	<line class="st1" x1="61.599" y1="6.396" x2="48.098" y2="-1.399"/>
	<line class="st1" x1="61.587" y1="3.79" x2="52.221" y2="-1.617"/>
	<line class="st1" x1="61.605" y1="1.203" x2="56.949" y2="-1.485"/>
	<path class="st1" d="M61.536-1.435"/>
	<path class="st1" d="M-57.75-91.089"/>
	<path class="st1" d="M-56.625-93.038"/>
	<path class="st1" d="M-55.5-94.987"/>
	<path class="st1" d="M-54.375-96.935"/>
	<path class="st1" d="M-53.25-98.884"/>
	<path class="st1" d="M-52.125-100.832"/>
	<path class="st1" d="M-51-102.781"/>
	<path class="st1" d="M-49.875-104.729"/>
	<path class="st1" d="M-48.75-106.678"/>
	<path class="st1" d="M61.631,62.121"/>
	<line class="st1" x1="56.838" y1="62.29" x2="61.535" y2="59.579"/>
	<line class="st1" x1="52.761" y1="62.046" x2="61.655" y2="56.911"/>
	<line class="st1" x1="48.248" y1="62.054" x2="61.639" y2="54.322"/>
	<line class="st1" x1="43.747" y1="62.054" x2="61.555" y2="51.773"/>
	<line class="st1" x1="38.977" y1="62.211" x2="61.555" y2="49.175"/>
	<line class="st1" x1="34.718" y1="62.071" x2="61.602" y2="46.55"/>
	<line class="st1" x1="30.312" y1="62.017" x2="61.607" y2="43.949"/>
	<line class="st1" x1="25.399" y1="62.256" x2="61.575" y2="41.369"/>
	<line class="st1" x1="21.12" y1="62.128" x2="61.516" y2="38.805"/>
	<line class="st1" x1="16.295" y1="62.315" x2="61.616" y2="36.149"/>
	<line class="st1" x1="11.778" y1="62.325" x2="61.415" y2="33.667"/>
	<line class="st1" x1="6.949" y1="62.515" x2="61.557" y2="30.987"/>
	<line class="st1" x1="3.231" y1="62.064" x2="61.44" y2="28.457"/>
	<line class="st1" x1="-1.62" y1="62.266" x2="61.498" y2="25.825"/>
	<line class="st1" x1="-1.625" y1="59.671" x2="61.567" y2="23.187"/>
	<line class="st1" x1="-1.398" y1="56.942" x2="61.477" y2="20.641"/>
	<line class="st1" x1="-1.514" y1="54.411" x2="61.651" y2="17.943"/>
	<line class="st1" x1="-1.367" y1="51.728" x2="61.481" y2="15.443"/>
	<line class="st1" x1="-1.426" y1="49.164" x2="61.624" y2="12.762"/>
	<line class="st1" x1="-1.554" y1="46.64" x2="61.559" y2="10.201"/>
	<line class="st1" x1="-1.659" y1="44.102" x2="61.506" y2="7.634"/>
	<line class="st1" x1="-1.549" y1="41.441" x2="61.496" y2="5.042"/>
	<line class="st1" x1="-1.501" y1="38.815" x2="61.691" y2="2.331"/>
	<line class="st1" x1="-1.687" y1="36.324" x2="61.659" y2="-0.249"/>
	<line class="st1" x1="-1.522" y1="33.631" x2="59.322" y2="-1.497"/>
	<line class="st1" x1="-1.64" y1="31.101" x2="55.116" y2="-1.667"/>
	<line class="st1" x1="-1.454" y1="28.396" x2="50.498" y2="-1.599"/>
	<line class="st1" x1="-1.477" y1="25.811" x2="46.01" y2="-1.606"/>
	<line class="st1" x1="-1.619" y1="23.295" x2="41.374" y2="-1.527"/>
	<line class="st1" x1="-1.589" y1="20.679" x2="36.704" y2="-1.429"/>
	<line class="st1" x1="-1.499" y1="18.029" x2="32.345" y2="-1.51"/>
	<line class="st1" x1="-1.488" y1="15.425" x2="27.96" y2="-1.577"/>
	<line class="st1" x1="-1.537" y1="12.855" x2="23.453" y2="-1.573"/>
	<line class="st1" x1="-1.447" y1="10.205" x2="19.027" y2="-1.616"/>
	<polyline class="st1" points="-1.57,7.678 -0.992,7.344 14.636,-1.679 	"/>
	<line class="st1" x1="-1.692" y1="5.15" x2="9.935" y2="-1.562"/>
	<line class="st1" x1="-1.256" y1="2.301" x2="4.909" y2="-1.259"/>
	<path class="st1" d="M0.826-1.5"/>
</g>
<g>
	<path class="st2" d="M46.3418,21.5239c0-4.959-7.5039-9.1489-16.3857-9.1489c-8.7228,0-15.8388,3.9124-16.1758,8.7906
		c-0.0183,0.052-0.0331,0.1061-0.0331,0.1644v8.3291c0,1.7709,0.9766,3.4183,2.6401,4.8021v9.403c0,0.8271,0.6729,1.5,1.5,1.5
		h0.1426c0.8271,0,1.5-0.6729,1.5-1.5v-7.4705c0.3629,0.1666,0.7415,0.3226,1.1305,0.4717
		c-0.0019,0.0178-0.0104,0.0332-0.0104,0.0515v12.875c0,0.8271,0.6729,1.5,1.5,1.5h0.1431c0.8271,0,1.5-0.6729,1.5-1.5V37.8105
		c1.4651,0.331,3.037,0.5491,4.6802,0.6346v5.4191c0,0.8271,0.6729,1.5,1.5,1.5h0.1431c0.8271,0,1.5-0.6729,1.5-1.5v-5.4191
		c1.6569-0.0864,3.2422-0.3065,4.7178-0.6423V50.125c0,0.8271,0.6729,1.5,1.5,1.5h0.1426c0.8271,0,1.5-0.6729,1.5-1.5V36.8456
		c0.4462-0.1724,0.8738-0.3569,1.2852-0.5521v7.5707c0,0.8271,0.6729,1.5,1.5,1.5h0.1436c0.8271,0,1.5-0.6729,1.5-1.5V34.279
		c1.3023-1.1426,2.1418-2.4531,2.3646-3.861c0.0417-0.073,0.072-0.1531,0.072-0.2432V21.5239z M29.9561,13.375
		c8.1943,0,15.3819,3.8062,15.3854,8.1457c0,0.0012-0.0007,0.0021-0.0007,0.0032c0,4.3169-6.8623,7.8291-15.2969,7.8291
		c-8.4324,0-15.293-3.5104-15.2966-7.8259c0-0.0012,0.0007-0.0021,0.0007-0.0032C14.748,17.1069,21.7124,13.375,29.9561,13.375z
		 M18.5298,43.8643c0,0.2754-0.2241,0.5-0.5,0.5h-0.1426c-0.2759,0-0.5-0.2246-0.5-0.5v-8.6545
		c0.3602,0.2406,0.7385,0.4728,1.1426,0.6915V43.8643z M22.793,37.5703V49.792c0,0.2754-0.2241,0.5-0.5,0.5h-0.1431
		c-0.2759,0-0.5-0.2246-0.5-0.5V37.2127c0.3732,0.1222,0.7543,0.2366,1.1461,0.3427C22.7958,37.5606,22.793,37.565,22.793,37.5703z
		 M30.6162,43.8643c0,0.2754-0.2241,0.5-0.5,0.5h-0.1431c-0.2759,0-0.5-0.2246-0.5-0.5v-5.3917
		c0.1911,0.0036,0.3781,0.0157,0.5708,0.0157c0.1932,0,0.3807-0.0121,0.5723-0.0157V43.8643z M38.4766,50.125
		c0,0.2754-0.2246,0.5-0.5,0.5H37.834c-0.2754,0-0.5-0.2246-0.5-0.5V37.5443c0.3907-0.1065,0.7705-0.2217,1.1426-0.3443V50.125z
		 M42.9053,43.8643c0,0.2754-0.2246,0.5-0.5,0.5h-0.1436c-0.2754,0-0.5-0.2246-0.5-0.5v-8.083c0-0.0002-0.0001-0.0005-0.0001-0.0007
		c0.4056-0.2278,0.7847-0.4686,1.1437-0.7189V43.8643z M38.8295,36.0579c-0.027,0.0085-0.0526,0.017-0.0774,0.0297
		c-2.4741,0.8806-5.4729,1.4007-8.7082,1.4007c-4.1682,0-7.9484-0.8598-10.7102-2.2485c-0.0504-0.0396-0.1069-0.0679-0.1702-0.0859
		c-0.6852-0.3553-1.3045-0.7437-1.848-1.1603c-0.0596-0.1046-0.1516-0.1849-0.2671-0.2247
		c-1.4496-1.1963-2.3015-2.6014-2.3015-4.1097v-5.1196c2.2819,3.3854,8.2678,5.8134,15.2969,5.8134
		c7.03,0,13.0167-2.4286,15.2979-5.8148v5.1161c0,0.0017-0.001,0.0031-0.001,0.0048
		C45.3408,32.3028,42.7609,34.6397,38.8295,36.0579z"/>
	<path class="st2" d="M30.1338,17.1636c1.1885,0,2.1191-0.5933,2.1191-1.3506s-0.9307-1.3506-2.1191-1.3506
		c-1.188,0-2.1187,0.5933-2.1187,1.3506S28.9458,17.1636,30.1338,17.1636z M30.1338,15.062c0.8955,0,1.5195,0.396,1.5195,0.751
		s-0.624,0.751-1.5195,0.751c-0.895,0-1.519-0.396-1.519-0.751S29.2388,15.062,30.1338,15.062z"/>
	<path class="st2" d="M19.7441,22.5547c1.188,0,2.1187-0.5933,2.1187-1.3506c0-0.7578-0.9307-1.3511-2.1187-1.3511
		c-1.1885,0-2.1191,0.5933-2.1191,1.3511C17.625,21.9614,18.5557,22.5547,19.7441,22.5547z M19.7441,20.4526
		c0.895,0,1.519,0.396,1.519,0.7515c0,0.355-0.624,0.751-1.519,0.751c-0.8955,0-1.5195-0.396-1.5195-0.751
		C18.2246,20.8486,18.8486,20.4526,19.7441,20.4526z"/>
	<path class="st2" d="M40.5146,22.5547c1.1885,0,2.1191-0.5933,2.1191-1.3506c0-0.7578-0.9307-1.3511-2.1191-1.3511
		c-1.1875,0-2.1182,0.5933-2.1182,1.3511C38.3965,21.9614,39.3271,22.5547,40.5146,22.5547z M40.5146,20.4526
		c0.8955,0,1.5195,0.396,1.5195,0.7515c0,0.355-0.624,0.751-1.5195,0.751c-0.8945,0-1.5186-0.396-1.5186-0.751
		C38.9961,20.8486,39.6201,20.4526,40.5146,20.4526z"/>
	<path class="st2" d="M30.1338,27.897c1.1885,0,2.1191-0.5933,2.1191-1.3511c0-0.7573-0.9307-1.3506-2.1191-1.3506
		c-1.188,0-2.1187,0.5933-2.1187,1.3506C28.0151,27.3037,28.9458,27.897,30.1338,27.897z M30.1338,25.7949
		c0.8955,0,1.5195,0.396,1.5195,0.751c0,0.3555-0.624,0.7515-1.5195,0.7515c-0.895,0-1.519-0.396-1.519-0.7515
		C28.6147,26.1909,29.2388,25.7949,30.1338,25.7949z"/>
	<path class="st2" d="M21.1753,24.7988c0,0.7578,0.9307,1.3511,2.1187,1.3511s2.1187-0.5933,2.1187-1.3511
		c0-0.7573-0.9307-1.3506-2.1187-1.3506S21.1753,24.0415,21.1753,24.7988z M23.2939,24.0479c0.895,0,1.519,0.396,1.519,0.751
		c0,0.3555-0.624,0.7515-1.519,0.7515s-1.519-0.396-1.519-0.7515C21.7749,24.4438,22.3989,24.0479,23.2939,24.0479z"/>
	<path class="st2" d="M36.834,26.1499c1.1885,0,2.1191-0.5933,2.1191-1.3511c0-0.7573-0.9307-1.3506-2.1191-1.3506
		s-2.1191,0.5933-2.1191,1.3506C34.7148,25.5566,35.6455,26.1499,36.834,26.1499z M36.834,24.0479
		c0.8955,0,1.5195,0.396,1.5195,0.751c0,0.3555-0.624,0.7515-1.5195,0.7515s-1.5195-0.396-1.5195-0.7515
		C35.3145,24.4438,35.9385,24.0479,36.834,24.0479z"/>
</g>
</svg>
