<?xml version="1.0" encoding="utf-8"?>
<!-- Generator: Adobe Illustrator 21.0.0, SVG Export Plug-In . SVG Version: 6.00 Build 0)  -->
<svg version="1.1" id="Layer_1" xmlns="http://www.w3.org/2000/svg" xmlns:xlink="http://www.w3.org/1999/xlink" x="0px" y="0px"
	 viewBox="0 0 30 30" style="enable-background:new 0 0 30 30;" xml:space="preserve">
<style type="text/css">
	.st0{display:none;opacity:0.2;}
	.st1{display:inline;fill:none;stroke:#00ADEE;stroke-width:0.125;stroke-miterlimit:10;}
	.st2{fill:#231F20;}
</style>
<g class="st0">
	<path class="st1" d="M-15.375-16.557"/>
	<line class="st1" x1="-13.125" y1="47.1558" x2="-13.125" y2="-16.3603"/>
	<line class="st1" x1="-10.875" y1="47.3529" x2="-10.875" y2="-16.5568"/>
	<line class="st1" x1="-8.625" y1="46.959" x2="-8.625" y2="-16.3109"/>
	<line class="st1" x1="-6.375" y1="47.746" x2="-6.375" y2="-16.6546"/>
	<line class="st1" x1="-4.125" y1="47.3529" x2="-4.125" y2="-16.5079"/>
	<line class="st1" x1="-1.875" y1="47.4999" x2="-1.875" y2="-16.6061"/>
	<line class="st1" x1="0.375" y1="47.3529" x2="0.375" y2="-16.5568"/>
	<line class="st1" x1="2.625" y1="47.4999" x2="2.625" y2="-16.9021"/>
	<line class="st1" x1="4.875" y1="47.1558" x2="4.875" y2="-16.6547"/>
	<line class="st1" x1="7.125" y1="47.3029" x2="7.125" y2="-16.8517"/>
	<line class="st1" x1="9.375" y1="47.1063" x2="9.375" y2="-16.4577"/>
	<line class="st1" x1="11.625" y1="47.2541" x2="11.625" y2="-16.5081"/>
	<line class="st1" x1="13.875" y1="47.3029" x2="13.875" y2="-16.5079"/>
	<line class="st1" x1="16.125" y1="47.0567" x2="16.125" y2="-16.458"/>
	<line class="st1" x1="18.375" y1="47.1063" x2="18.375" y2="-16.4089"/>
	<line class="st1" x1="20.625" y1="47.3529" x2="20.625" y2="-16.6058"/>
	<line class="st1" x1="22.875" y1="47.1558" x2="22.875" y2="-16.5569"/>
	<line class="st1" x1="25.125" y1="47.4511" x2="25.125" y2="-16.5082"/>
	<line class="st1" x1="27.375" y1="47.2541" x2="27.375" y2="-16.3603"/>
	<line class="st1" x1="29.625" y1="47.1063" x2="29.625" y2="-16.5077"/>
	<line class="st1" x1="31.875" y1="47.1558" x2="31.875" y2="-16.508"/>
	<line class="st1" x1="34.125" y1="47.1063" x2="34.125" y2="-16.5077"/>
	<line class="st1" x1="36.375" y1="46.8598" x2="36.375" y2="-16.5566"/>
	<line class="st1" x1="38.625" y1="47.1558" x2="38.625" y2="-16.7536"/>
	<line class="st1" x1="40.875" y1="47.1558" x2="40.875" y2="-16.6058"/>
	<line class="st1" x1="43.125" y1="47.4511" x2="43.125" y2="-16.6062"/>
	<line class="st1" x1="-14.2926" y1="47.1726" x2="-16.4896" y2="45.9041"/>
	<line class="st1" x1="-9.8838" y1="47.1199" x2="-16.5439" y2="43.2746"/>
	<line class="st1" x1="-5.0286" y1="47.3248" x2="-16.5547" y2="40.6703"/>
	<line class="st1" x1="-0.4099" y1="47.3936" x2="-16.607" y2="38.0421"/>
	<line class="st1" x1="3.8647" y1="47.2633" x2="-16.4987" y2="35.5065"/>
	<line class="st1" x1="8.1817" y1="47.1575" x2="-16.4585" y2="32.9315"/>
	<line class="st1" x1="12.7364" y1="47.1893" x2="-16.5287" y2="30.2931"/>
	<line class="st1" x1="17.0493" y1="47.0812" x2="-16.4649" y2="27.7317"/>
	<line class="st1" x1="21.7487" y1="47.1965" x2="-16.5216" y2="25.1011"/>
	<line class="st1" x1="26.2708" y1="47.2091" x2="-16.6454" y2="22.4314"/>
	<line class="st1" x1="30.8011" y1="47.2265" x2="-16.5718" y2="19.8757"/>
	<line class="st1" x1="35.0797" y1="47.0989" x2="-16.5759" y2="17.2755"/>
	<line class="st1" x1="39.7372" y1="47.1897" x2="-16.5939" y2="14.6669"/>
	<line class="st1" x1="44.4278" y1="47.2996" x2="-16.6466" y2="12.0384"/>
	<line class="st1" x1="46.5391" y1="45.9207" x2="-16.5451" y2="9.499"/>
	<line class="st1" x1="46.7575" y1="43.4487" x2="-16.4576" y2="6.9515"/>
	<line class="st1" x1="46.5446" y1="40.7275" x2="-16.5248" y2="4.3145"/>
	<line class="st1" x1="46.5973" y1="38.16" x2="-16.5582" y2="1.6972"/>
	<line class="st1" x1="46.5272" y1="35.5214" x2="-16.4693" y2="-0.8496"/>
	<line class="st1" x1="46.6505" y1="32.9944" x2="-16.4717" y2="-3.4492"/>
	<line class="st1" x1="46.5376" y1="30.3314" x2="-16.4197" y2="-6.017"/>
	<line class="st1" x1="46.4796" y1="27.6997" x2="-16.3754" y2="-8.5896"/>
	<polyline class="st1" points="46.5777,25.1581 -16.1346,-11.0488 -16.5294,-11.2767 	"/>
	<polyline class="st1" points="46.5142,22.5236 -16.248,-13.7121 -17.1105,-14.2101 	"/>
	<polyline class="st1" points="46.5439,19.9426 -14.9996,-15.5896 -16.7609,-16.6065 	"/>
	<line class="st1" x1="46.3527" y1="17.2343" x2="-12.0668" y2="-16.4943"/>
	<line class="st1" x1="46.4824" y1="14.711" x2="-7.5112" y2="-16.4622"/>
	<line class="st1" x1="46.479" y1="12.1109" x2="-3.0123" y2="-16.4629"/>
	<line class="st1" x1="46.4578" y1="9.5007" x2="1.1859" y2="-16.637"/>
	<line class="st1" x1="46.3608" y1="6.8466" x2="5.6507" y2="-16.6575"/>
	<line class="st1" x1="46.5626" y1="4.3649" x2="10.4854" y2="-16.4643"/>
	<line class="st1" x1="46.6047" y1="1.7913" x2="15.0995" y2="-16.3983"/>
	<line class="st1" x1="46.4335" y1="-0.9057" x2="19.5934" y2="-16.4018"/>
	<line class="st1" x1="46.5889" y1="-3.4142" x2="23.9443" y2="-16.488"/>
	<line class="st1" x1="46.3665" y1="-6.1405" x2="28.4468" y2="-16.4864"/>
	<line class="st1" x1="46.5992" y1="-8.6043" x2="33.0984" y2="-16.399"/>
	<line class="st1" x1="46.5865" y1="-11.2098" x2="37.2213" y2="-16.6168"/>
	<line class="st1" x1="46.6046" y1="-13.7973" x2="41.9486" y2="-16.4854"/>
	<path class="st1" d="M46.5364-16.4349"/>
	<path class="st1" d="M-72.75-106.0893"/>
	<path class="st1" d="M-71.625-108.0379"/>
	<path class="st1" d="M-70.5-109.9865"/>
	<path class="st1" d="M-69.375-111.935"/>
	<path class="st1" d="M-68.25-113.8836"/>
	<path class="st1" d="M-67.125-115.8321"/>
	<path class="st1" d="M-66-117.7807"/>
	<path class="st1" d="M-64.875-119.7292"/>
	<path class="st1" d="M-63.75-121.6778"/>
	<path class="st1" d="M46.631,47.1215"/>
	<line class="st1" x1="41.8384" y1="47.2903" x2="46.5346" y2="44.579"/>
	<line class="st1" x1="37.761" y1="47.0465" x2="46.6554" y2="41.9113"/>
	<line class="st1" x1="33.2481" y1="47.0539" x2="46.6394" y2="39.3224"/>
	<line class="st1" x1="28.7471" y1="47.0544" x2="46.5552" y2="36.7729"/>
	<line class="st1" x1="23.9766" y1="47.2107" x2="46.5546" y2="34.1753"/>
	<line class="st1" x1="19.718" y1="47.0712" x2="46.6021" y2="31.5497"/>
	<line class="st1" x1="15.3122" y1="47.0167" x2="46.6066" y2="28.9489"/>
	<line class="st1" x1="10.3988" y1="47.2556" x2="46.5751" y2="26.3692"/>
	<line class="st1" x1="6.1197" y1="47.1279" x2="46.5162" y2="23.805"/>
	<line class="st1" x1="1.2953" y1="47.3154" x2="46.6164" y2="21.1493"/>
	<line class="st1" x1="-3.222" y1="47.3253" x2="46.4154" y2="18.6671"/>
	<line class="st1" x1="-8.0514" y1="47.5153" x2="46.5572" y2="15.9871"/>
	<line class="st1" x1="-11.769" y1="47.0639" x2="46.4405" y2="13.4566"/>
	<line class="st1" x1="-16.6198" y1="47.2663" x2="46.4978" y2="10.8253"/>
	<line class="st1" x1="-16.6252" y1="44.6712" x2="46.5671" y2="8.1872"/>
	<line class="st1" x1="-16.3982" y1="41.9423" x2="46.4768" y2="5.6413"/>
	<line class="st1" x1="-16.5136" y1="39.4107" x2="46.6506" y2="2.9429"/>
	<line class="st1" x1="-16.3672" y1="36.728" x2="46.4811" y2="0.4426"/>
	<line class="st1" x1="-16.4261" y1="34.1641" x2="46.6243" y2="-2.2381"/>
	<line class="st1" x1="-16.5537" y1="31.6396" x2="46.5591" y2="-4.7985"/>
	<line class="st1" x1="-16.6591" y1="29.1023" x2="46.5062" y2="-7.3662"/>
	<line class="st1" x1="-16.5488" y1="26.4407" x2="46.4955" y2="-9.9579"/>
	<line class="st1" x1="-16.5014" y1="23.8152" x2="46.6906" y2="-12.6687"/>
	<line class="st1" x1="-16.6869" y1="21.324" x2="46.6589" y2="-15.2486"/>
	<line class="st1" x1="-16.5222" y1="18.6311" x2="44.3216" y2="-16.497"/>
	<line class="st1" x1="-16.6397" y1="16.1008" x2="40.1155" y2="-16.6668"/>
	<line class="st1" x1="-16.4543" y1="13.3959" x2="35.4976" y2="-16.5986"/>
	<line class="st1" x1="-16.4766" y1="10.8105" x2="31.0105" y2="-16.6061"/>
	<line class="st1" x1="-16.6191" y1="8.2947" x2="26.3737" y2="-16.5272"/>
	<line class="st1" x1="-16.5886" y1="5.6791" x2="21.7039" y2="-16.4291"/>
	<line class="st1" x1="-16.4987" y1="3.0291" x2="17.3446" y2="-16.5104"/>
	<line class="st1" x1="-16.4879" y1="0.4247" x2="12.9603" y2="-16.5772"/>
	<line class="st1" x1="-16.5374" y1="-2.1447" x2="8.4534" y2="-16.5731"/>
	<line class="st1" x1="-16.4468" y1="-4.7952" x2="4.0268" y2="-16.6156"/>
	<polyline class="st1" points="-16.5695,-7.3225 -15.9916,-7.6561 -0.3642,-16.6786 	"/>
	<line class="st1" x1="-16.6918" y1="-9.8497" x2="-5.065" y2="-16.5625"/>
	<line class="st1" x1="-16.2564" y1="-12.6993" x2="-10.0909" y2="-16.259"/>
	<path class="st1" d="M-14.1742-16.4997"/>
</g>
<g>
	<path class="st2" d="M14.9741,3.3857c-5.1121,0-9.2814,2.317-9.4681,5.2031C5.4993,8.618,5.4883,8.6456,5.4883,8.6768v4.8174
		c0,1.0659,0.5613,2.0457,1.5269,2.8632v5.3536c0,0.5391,0.439,0.9785,1.0615,0.9785c0.5396,0,0.978-0.4395,0.978-0.9785v-4.1238
		c0.1385,0.0602,0.2814,0.1174,0.4263,0.1733v7.3792c0,0.54,0.439,0.9795,1.0615,0.9795c0.5396,0,0.978-0.4395,0.978-0.9795v-6.7842
		c0.7817,0.1646,1.6124,0.2788,2.4854,0.3275v3.028c0,0.5391,0.439,0.9785,1.0615,0.9785c0.5396,0,0.9785-0.4395,0.9785-0.9785
		v-3.028c0.8808-0.0491,1.719-0.1646,2.5068-0.3317v6.9808c0,0.54,0.4395,0.9795,1.0615,0.9795
		c0.5391,0,0.9785-0.4395,0.9785-0.9795v-7.5805c0.1769-0.0687,0.3542-0.137,0.5215-0.212v4.1714
		c0,0.5391,0.4395,0.9785,1.0615,0.9785c0.5391,0,0.9785-0.4395,0.9785-0.9785v-5.4606c0.7521-0.6721,1.236-1.4468,1.3672-2.2867
		c0.0252-0.0523,0.0419-0.1092,0.0419-0.1711V8.7886C24.5635,5.8599,20.1719,3.3857,14.9741,3.3857z M14.9741,4.1855
		c4.6821,0,8.7886,2.1509,8.7886,4.603c0,2.3945-4.001,4.418-8.7368,4.418c-4.7363,0-8.7378-2.0234-8.7378-4.418
		C6.2881,6.2935,10.2656,4.1855,14.9741,4.1855z M8.2549,21.7109c0,0.0986-0.0801,0.1777-0.2612,0.1777
		c-0.0986,0-0.1787-0.0791-0.1787-0.1777v-4.7741c0.1432,0.0901,0.2856,0.1807,0.4399,0.265V21.7109z M10.7207,25.1396
		c0,0.0986-0.0801,0.1787-0.2612,0.1787c-0.0986,0-0.1787-0.0801-0.1787-0.1787v-7.1023c0.1439,0.0443,0.2913,0.0853,0.4399,0.1256
		V25.1396z M15.2456,21.7109c0,0.0986-0.0801,0.1777-0.2612,0.1777c-0.0986,0-0.1787-0.0791-0.1787-0.1777v-3.0049
		c0.074,0.0009,0.1458,0.0059,0.2202,0.0059c0.0743,0,0.1459-0.005,0.2197-0.0059V21.7109z M19.792,25.332
		c0,0.0986-0.0791,0.1787-0.2607,0.1787c-0.0986,0-0.1777-0.0801-0.1777-0.1787v-7.1749c0.1484-0.0405,0.2949-0.0821,0.4385-0.1266
		V25.332z M22.3535,21.7109c0,0.0986-0.0791,0.1777-0.2607,0.1777c-0.0986,0-0.1777-0.0791-0.1777-0.1777v-4.58
		c0.151-0.0857,0.2986-0.1732,0.4385-0.2645V21.7109z M23.7627,13.4941c0,2.3945-4.001,4.417-8.7368,4.417
		c-4.7363,0-8.7378-2.0225-8.7378-4.417v-2.585c1.4596,1.8394,4.7786,3.0972,8.7378,3.0972c3.9584,0,7.2767-1.2573,8.7368-3.0961
		V13.4941z"/>
	<path class="st2" d="M15.0771,6.4932c0.8281,0,1.4531-0.4331,1.4531-1.0078s-0.625-1.0078-1.4531-1.0078
		S13.625,4.9106,13.625,5.4854S14.249,6.4932,15.0771,6.4932z M15.0771,5.2773c0.3779,0,0.604,0.1396,0.6484,0.208
		c-0.0444,0.0679-0.2705,0.208-0.6484,0.208c-0.3994,0-0.6299-0.1567-0.6538-0.1968C14.4473,5.4341,14.6772,5.2773,15.0771,5.2773z"
		/>
	<path class="st2" d="M9.0674,9.6113c0.8281,0,1.4521-0.4331,1.4521-1.0078s-0.624-1.0078-1.4521-1.0078
		S7.6152,8.0288,7.6152,8.6035S8.2393,9.6113,9.0674,9.6113z M9.0674,8.3955c0.3779,0,0.604,0.1401,0.6479,0.208
		c-0.0439,0.0679-0.27,0.208-0.6479,0.208c-0.3994,0-0.6299-0.1567-0.6538-0.1968C8.4375,8.5522,8.6675,8.3955,9.0674,8.3955z"/>
	<path class="st2" d="M21.082,9.6113c0.8281,0,1.4531-0.4331,1.4531-1.0078s-0.625-1.0078-1.4531-1.0078
		s-1.4521,0.4331-1.4521,1.0078S20.2539,9.6113,21.082,9.6113z M21.082,8.3955c0.3779,0,0.6035,0.1396,0.6484,0.208
		c-0.0449,0.0679-0.2715,0.208-0.6484,0.208c-0.3994,0-0.6289-0.1567-0.6533-0.1973C20.4531,8.5522,20.6826,8.3955,21.082,8.3955z"
		/>
	<path class="st2" d="M15.0771,12.7012c0.8281,0,1.4531-0.4331,1.4531-1.0078s-0.625-1.0078-1.4531-1.0078
		s-1.4521,0.4331-1.4521,1.0078S14.249,12.7012,15.0771,12.7012z M15.0771,11.4854c0.3784,0,0.6045,0.1401,0.6484,0.208
		c-0.0439,0.0679-0.27,0.208-0.6484,0.208c-0.3999,0-0.6299-0.1567-0.6538-0.1968C14.4473,11.6421,14.6772,11.4854,15.0771,11.4854z
		"/>
	<path class="st2" d="M9.6689,10.6826c0,0.5747,0.624,1.0078,1.4517,1.0078c0.8281,0,1.4521-0.4331,1.4521-1.0078
		s-0.624-1.0078-1.4521-1.0078C10.293,9.6748,9.6689,10.1079,9.6689,10.6826z M11.1206,10.4746c0.3779,0,0.604,0.1401,0.6479,0.208
		c-0.0439,0.0679-0.27,0.208-0.6479,0.208c-0.3999,0-0.6294-0.1567-0.6533-0.1968C10.4912,10.6313,10.7212,10.4746,11.1206,10.4746z
		"/>
	<path class="st2" d="M18.9531,11.6904c0.8281,0,1.4521-0.4331,1.4521-1.0078s-0.624-1.0078-1.4521-1.0078
		S17.5,10.1079,17.5,10.6826S18.125,11.6904,18.9531,11.6904z M18.9531,10.4746c0.3779,0,0.6035,0.1401,0.6475,0.208
		c-0.0439,0.0679-0.2695,0.208-0.6475,0.208c-0.4004,0-0.6299-0.1567-0.6543-0.1968
		C18.3232,10.6318,18.5537,10.4746,18.9531,10.4746z"/>
</g>
</svg>
