<?xml version="1.0" encoding="utf-8"?>
<!-- Generator: Adobe Illustrator 21.0.0, SVG Export Plug-In . SVG Version: 6.00 Build 0)  -->
<svg version="1.1" id="Layer_1" xmlns="http://www.w3.org/2000/svg" xmlns:xlink="http://www.w3.org/1999/xlink" x="0px" y="0px"
	 viewBox="0 0 60 60" style="enable-background:new 0 0 60 60;" xml:space="preserve">
<style type="text/css">
	.st0{display:none;opacity:0.2;}
	.st1{display:inline;fill:none;stroke:#00ADEE;stroke-width:0.125;stroke-miterlimit:10;}
	.st2{fill:#231F20;}
</style>
<g class="st0">
	<path class="st1" d="M-0.375-1.557"/>
	<line class="st1" x1="1.875" y1="62.156" x2="1.875" y2="-1.36"/>
	<line class="st1" x1="4.125" y1="62.353" x2="4.125" y2="-1.557"/>
	<line class="st1" x1="6.375" y1="61.959" x2="6.375" y2="-1.311"/>
	<line class="st1" x1="8.625" y1="62.746" x2="8.625" y2="-1.655"/>
	<line class="st1" x1="10.875" y1="62.353" x2="10.875" y2="-1.508"/>
	<line class="st1" x1="13.125" y1="62.5" x2="13.125" y2="-1.606"/>
	<line class="st1" x1="15.375" y1="62.353" x2="15.375" y2="-1.557"/>
	<line class="st1" x1="17.625" y1="62.5" x2="17.625" y2="-1.902"/>
	<line class="st1" x1="19.875" y1="62.156" x2="19.875" y2="-1.655"/>
	<line class="st1" x1="22.125" y1="62.303" x2="22.125" y2="-1.852"/>
	<line class="st1" x1="24.375" y1="62.106" x2="24.375" y2="-1.458"/>
	<line class="st1" x1="26.625" y1="62.254" x2="26.625" y2="-1.508"/>
	<line class="st1" x1="28.875" y1="62.303" x2="28.875" y2="-1.508"/>
	<line class="st1" x1="31.125" y1="62.057" x2="31.125" y2="-1.458"/>
	<line class="st1" x1="33.375" y1="62.106" x2="33.375" y2="-1.409"/>
	<line class="st1" x1="35.625" y1="62.353" x2="35.625" y2="-1.606"/>
	<line class="st1" x1="37.875" y1="62.156" x2="37.875" y2="-1.557"/>
	<line class="st1" x1="40.125" y1="62.451" x2="40.125" y2="-1.508"/>
	<line class="st1" x1="42.375" y1="62.254" x2="42.375" y2="-1.36"/>
	<line class="st1" x1="44.625" y1="62.106" x2="44.625" y2="-1.508"/>
	<line class="st1" x1="46.875" y1="62.156" x2="46.875" y2="-1.508"/>
	<line class="st1" x1="49.125" y1="62.106" x2="49.125" y2="-1.508"/>
	<line class="st1" x1="51.375" y1="61.86" x2="51.375" y2="-1.557"/>
	<line class="st1" x1="53.625" y1="62.156" x2="53.625" y2="-1.754"/>
	<line class="st1" x1="55.875" y1="62.156" x2="55.875" y2="-1.606"/>
	<line class="st1" x1="58.125" y1="62.451" x2="58.125" y2="-1.606"/>
	<line class="st1" x1="0.707" y1="62.173" x2="-1.49" y2="60.904"/>
	<line class="st1" x1="5.116" y1="62.12" x2="-1.544" y2="58.275"/>
	<line class="st1" x1="9.971" y1="62.325" x2="-1.555" y2="55.67"/>
	<line class="st1" x1="14.59" y1="62.394" x2="-1.607" y2="53.042"/>
	<line class="st1" x1="18.865" y1="62.263" x2="-1.499" y2="50.506"/>
	<line class="st1" x1="23.182" y1="62.158" x2="-1.459" y2="47.931"/>
	<line class="st1" x1="27.736" y1="62.189" x2="-1.529" y2="45.293"/>
	<line class="st1" x1="32.049" y1="62.081" x2="-1.465" y2="42.732"/>
	<line class="st1" x1="36.749" y1="62.196" x2="-1.522" y2="40.101"/>
	<line class="st1" x1="41.271" y1="62.209" x2="-1.645" y2="37.431"/>
	<line class="st1" x1="45.801" y1="62.226" x2="-1.572" y2="34.876"/>
	<line class="st1" x1="50.08" y1="62.099" x2="-1.576" y2="32.275"/>
	<line class="st1" x1="54.737" y1="62.19" x2="-1.594" y2="29.667"/>
	<line class="st1" x1="59.428" y1="62.3" x2="-1.647" y2="27.038"/>
	<line class="st1" x1="61.539" y1="60.921" x2="-1.545" y2="24.499"/>
	<line class="st1" x1="61.758" y1="58.449" x2="-1.458" y2="21.951"/>
	<line class="st1" x1="61.545" y1="55.728" x2="-1.525" y2="19.314"/>
	<line class="st1" x1="61.597" y1="53.16" x2="-1.558" y2="16.697"/>
	<line class="st1" x1="61.527" y1="50.521" x2="-1.469" y2="14.15"/>
	<line class="st1" x1="61.65" y1="47.994" x2="-1.472" y2="11.551"/>
	<line class="st1" x1="61.538" y1="45.331" x2="-1.42" y2="8.983"/>
	<line class="st1" x1="61.48" y1="42.7" x2="-1.375" y2="6.41"/>
	<polyline class="st1" points="61.578,40.158 -1.135,3.951 -1.529,3.723 	"/>
	<polyline class="st1" points="61.514,37.524 -1.248,1.288 -2.111,0.79 	"/>
	<polyline class="st1" points="61.544,34.943 0,-0.59 -1.761,-1.606 	"/>
	<line class="st1" x1="61.353" y1="32.234" x2="2.933" y2="-1.494"/>
	<line class="st1" x1="61.482" y1="29.711" x2="7.489" y2="-1.462"/>
	<line class="st1" x1="61.479" y1="27.111" x2="11.988" y2="-1.463"/>
	<line class="st1" x1="61.458" y1="24.501" x2="16.186" y2="-1.637"/>
	<line class="st1" x1="61.361" y1="21.847" x2="20.651" y2="-1.657"/>
	<line class="st1" x1="61.563" y1="19.365" x2="25.485" y2="-1.464"/>
	<line class="st1" x1="61.605" y1="16.791" x2="30.1" y2="-1.398"/>
	<line class="st1" x1="61.433" y1="14.094" x2="34.593" y2="-1.402"/>
	<line class="st1" x1="61.589" y1="11.586" x2="38.944" y2="-1.488"/>
	<line class="st1" x1="61.366" y1="8.86" x2="43.447" y2="-1.486"/>
	<line class="st1" x1="61.599" y1="6.396" x2="48.098" y2="-1.399"/>
	<line class="st1" x1="61.587" y1="3.79" x2="52.221" y2="-1.617"/>
	<line class="st1" x1="61.605" y1="1.203" x2="56.949" y2="-1.485"/>
	<path class="st1" d="M-57.75-91.089"/>
	<path class="st1" d="M-56.625-93.038"/>
	<path class="st1" d="M-55.5-94.987"/>
	<path class="st1" d="M-54.375-96.935"/>
	<path class="st1" d="M-53.25-98.884"/>
	<path class="st1" d="M-52.125-100.832"/>
	<path class="st1" d="M-51-102.781"/>
	<path class="st1" d="M-49.875-104.729"/>
	<path class="st1" d="M-48.75-106.678"/>
	<path class="st1" d="M61.631,62.121"/>
	<line class="st1" x1="56.838" y1="62.29" x2="61.535" y2="59.579"/>
	<line class="st1" x1="52.761" y1="62.046" x2="61.655" y2="56.911"/>
	<line class="st1" x1="48.248" y1="62.054" x2="61.639" y2="54.322"/>
	<line class="st1" x1="43.747" y1="62.054" x2="61.555" y2="51.773"/>
	<line class="st1" x1="38.977" y1="62.211" x2="61.555" y2="49.175"/>
	<line class="st1" x1="34.718" y1="62.071" x2="61.602" y2="46.55"/>
	<line class="st1" x1="30.312" y1="62.017" x2="61.607" y2="43.949"/>
	<line class="st1" x1="25.399" y1="62.256" x2="61.575" y2="41.369"/>
	<line class="st1" x1="21.12" y1="62.128" x2="61.516" y2="38.805"/>
	<line class="st1" x1="16.295" y1="62.315" x2="61.616" y2="36.149"/>
	<line class="st1" x1="11.778" y1="62.325" x2="61.415" y2="33.667"/>
	<line class="st1" x1="6.949" y1="62.515" x2="61.557" y2="30.987"/>
	<line class="st1" x1="3.231" y1="62.064" x2="61.44" y2="28.457"/>
	<line class="st1" x1="-1.62" y1="62.266" x2="61.498" y2="25.825"/>
	<line class="st1" x1="-1.625" y1="59.671" x2="61.567" y2="23.187"/>
	<line class="st1" x1="-1.398" y1="56.942" x2="61.477" y2="20.641"/>
	<line class="st1" x1="-1.514" y1="54.411" x2="61.651" y2="17.943"/>
	<line class="st1" x1="-1.367" y1="51.728" x2="61.481" y2="15.443"/>
	<line class="st1" x1="-1.426" y1="49.164" x2="61.624" y2="12.762"/>
	<line class="st1" x1="-1.554" y1="46.64" x2="61.559" y2="10.201"/>
	<line class="st1" x1="-1.659" y1="44.102" x2="61.506" y2="7.634"/>
	<line class="st1" x1="-1.549" y1="41.441" x2="61.496" y2="5.042"/>
	<line class="st1" x1="-1.501" y1="38.815" x2="61.691" y2="2.331"/>
	<line class="st1" x1="-1.687" y1="36.324" x2="61.659" y2="-0.249"/>
	<line class="st1" x1="-1.522" y1="33.631" x2="59.322" y2="-1.497"/>
	<line class="st1" x1="-1.64" y1="31.101" x2="55.116" y2="-1.667"/>
	<line class="st1" x1="-1.454" y1="28.396" x2="50.498" y2="-1.599"/>
	<line class="st1" x1="-1.477" y1="25.811" x2="46.01" y2="-1.606"/>
	<line class="st1" x1="-1.619" y1="23.295" x2="41.374" y2="-1.527"/>
	<line class="st1" x1="-1.589" y1="20.679" x2="36.704" y2="-1.429"/>
	<line class="st1" x1="-1.499" y1="18.029" x2="32.345" y2="-1.51"/>
	<line class="st1" x1="-1.488" y1="15.425" x2="27.96" y2="-1.577"/>
	<line class="st1" x1="-1.537" y1="12.855" x2="23.453" y2="-1.573"/>
	<line class="st1" x1="-1.447" y1="10.205" x2="19.027" y2="-1.616"/>
	<polyline class="st1" points="-1.57,7.678 -0.992,7.344 14.636,-1.679 	"/>
	<line class="st1" x1="-1.692" y1="5.15" x2="9.935" y2="-1.562"/>
	<line class="st1" x1="-1.256" y1="2.301" x2="4.909" y2="-1.259"/>
	<path class="st1" d="M0.826-1.5"/>
</g>
<g>
	<path class="st2" d="M55.565,22.3687c-0.0096-0.019-0.0227-0.0338-0.0347-0.0515c-0.0336-0.0494-0.0739-0.0907-0.1226-0.1252
		c-0.0114-0.0081-0.0165-0.0222-0.0287-0.0294L35.5801,10.437c-0.1572-0.0918-0.3486-0.0928-0.5029-0.0039L4.6274,27.8638
		c-0.0128,0.0074-0.0185,0.0218-0.0305,0.0302c-0.0482,0.0334-0.0885,0.0732-0.1224,0.1211
		c-0.0131,0.0186-0.0264,0.0345-0.0368,0.0547c-0.0329,0.063-0.0542,0.1316-0.0576,0.2068C4.38,28.282,4.376,28.2864,4.376,28.292
		c0,0.0009,0.0007,0.0017,0.0007,0.0026c0,0.0012-0.0007,0.0021-0.0007,0.0032v6.2412c0,0.0191,0.0088,0.0353,0.0109,0.0538
		c0.0038,0.0346,0.0094,0.0672,0.0202,0.1003c0.01,0.0303,0.0228,0.0576,0.0381,0.085c0.0154,0.0281,0.0321,0.0538,0.053,0.0787
		c0.022,0.0261,0.0463,0.0477,0.0731,0.0688c0.0148,0.0117,0.0241,0.028,0.0406,0.0382l2.5552,1.588V38.79
		c0,0.2764,0.2236,0.5,0.5,0.5s0.5-0.2236,0.5-0.5v-1.6166l16.0391,9.9682c0.0085,0.0052,0.0191,0.0032,0.0279,0.0079
		c0.0713,0.0391,0.1491,0.0673,0.2363,0.0673c0.0833,0,0.1584-0.0253,0.2274-0.0613c0.0071-0.0037,0.0156-0.0021,0.0226-0.0061
		l2.6309-1.5193v3.5027c0,0.2764,0.2236,0.5,0.5,0.5s0.5-0.2236,0.5-0.5v-3.8486c0-0.0735-0.0178-0.1421-0.0462-0.205l2.5887-1.495
		v3.5261c0,0.2764,0.2236,0.5,0.5,0.5s0.5-0.2236,0.5-0.5v-3.876c0-0.0723-0.0167-0.1401-0.0443-0.2021l2.5872-1.4941v3.5498
		c0,0.2764,0.2236,0.5,0.5,0.5s0.5-0.2236,0.5-0.5v-3.9043c0-0.0709-0.0154-0.1378-0.042-0.1988l2.5869-1.494v3.5746
		c0,0.2764,0.2236,0.5,0.5,0.5s0.5-0.2236,0.5-0.5v-3.9316c0-0.0701-0.0148-0.1365-0.0408-0.197l2.5837-1.4921v3.5973
		c0,0.2764,0.2236,0.5,0.5,0.5s0.5-0.2236,0.5-0.5v-3.958c0-0.0689-0.014-0.1345-0.0391-0.1942l2.5821-1.4912v3.62
		c0,0.2764,0.2236,0.5,0.5,0.5s0.5-0.2236,0.5-0.5v-3.9854c0-0.0674-0.0142-0.1314-0.0383-0.1901l2.5823-1.4913v3.6452
		c0,0.2764,0.2236,0.5,0.5,0.5s0.5-0.2236,0.5-0.5v-4.0137c0-0.0665-0.0142-0.1293-0.0377-0.1873l2.5807-1.4904v3.6679
		c0,0.2764,0.2236,0.5,0.5,0.5s0.5-0.2236,0.5-0.5v-4.0405c0-0.0651-0.0144-0.1265-0.037-0.1835l2.2567-1.3033
		c0.0186-0.0107,0.0296-0.0281,0.0463-0.0408c0.0279-0.0211,0.0543-0.0417,0.0772-0.0681c0.0211-0.0244,0.0369-0.0505,0.0527-0.0781
		c0.016-0.0276,0.0308-0.0542,0.0413-0.0848c0.0114-0.033,0.016-0.066,0.0203-0.1006c0.0026-0.0208,0.0122-0.0391,0.0122-0.0607
		v-6.4204C55.624,22.5109,55.5998,22.4369,55.565,22.3687z M24.9702,45.8504v-5.4211L54.624,23.4551v5.2694L24.9702,45.8504z
		 M5.376,34.2609v-5.0767l18.5942,11.2375v5.3956L5.376,34.2609z M35.3213,11.4458l18.8096,11.1396L24.4771,39.5596l-18.6152-11.25
		L35.3213,11.4458z"/>
	<path class="st2" d="M43.897,24.0944l4.3022-2.4435c0.0938-0.0532,0.1514-0.1523,0.1514-0.2598
		c0.001-0.1079-0.0566-0.207-0.1504-0.2607l-11.2695-6.4893c-0.0455-0.0262-0.097-0.0395-0.1487-0.0397
		c-0.0003,0-0.0004-0.0003-0.0007-0.0003c-0.0013,0-0.002,0.0013-0.0032,0.0013c-0.05,0.0005-0.1002,0.0121-0.1452,0.0377
		L12.0103,28.6255c-0.0933,0.0527-0.1514,0.1514-0.1519,0.2583c-0.001,0.1069,0.0552,0.2065,0.1475,0.2607l11.126,6.5713
		c0.0469,0.0273,0.0996,0.041,0.1523,0.041c0.0513,0,0.1021-0.0127,0.1479-0.0391l20.4013-11.5873
		C43.8567,24.1212,43.8765,24.1094,43.897,24.0944z M43.7189,23.5053l-6.6378-4.0136v-4.0719l10.3652,5.9684L43.7189,23.5053z
		 M36.4814,15.4163v4.0702l-5.2149,2.9681c-0.098,0.024-0.1849,0.0704-0.2507,0.1427l-14.7253,8.3809l-3.5337-2.087L36.4814,15.4163
		z M23.2871,35.1104l-6.4012-3.7806l3.3671-1.9164v1.7292c0,0.2764,0.2236,0.5,0.5,0.5s0.5-0.2236,0.5-0.5v-1.9614
		c0-0.1068-0.0407-0.2001-0.0976-0.2813l2.6406-1.5029v1.7241c0,0.2764,0.2236,0.5,0.5,0.5s0.5-0.2236,0.5-0.5v-2.0229
		c0-0.0858-0.0272-0.1627-0.0652-0.2332l2.6082-1.4844v1.7177c0,0.2764,0.2236,0.5,0.5,0.5s0.5-0.2236,0.5-0.5v-2.083
		c0-0.0649-0.0144-0.126-0.0369-0.1829l2.5808-1.4688v1.7117c0,0.2764,0.2236,0.5,0.5,0.5s0.5-0.2236,0.5-0.5v-2.144
		c0-0.0436-0.0143-0.0825-0.0247-0.1228l2.5677-1.4614v1.7048c0,0.2764,0.2236,0.5,0.5,0.5s0.5-0.2236,0.5-0.5v-2.0977
		c0-0.0561-0.0148-0.1078-0.0319-0.1581l1.3826-0.7869l6.3442,3.836L23.2871,35.1104z"/>
</g>
</svg>
