<?xml version="1.0" encoding="utf-8"?>
<!-- Generator: Adobe Illustrator 21.0.0, SVG Export Plug-In . SVG Version: 6.00 Build 0)  -->
<svg version="1.1" id="Layer_1" xmlns="http://www.w3.org/2000/svg" xmlns:xlink="http://www.w3.org/1999/xlink" x="0px" y="0px"
	 viewBox="0 0 30 30" style="enable-background:new 0 0 30 30;" xml:space="preserve">
<style type="text/css">
	.st0{display:none;opacity:0.2;}
	.st1{display:inline;fill:none;stroke:#00ADEE;stroke-width:0.125;stroke-miterlimit:10;}
	.st2{fill:#231F20;}
</style>
<g class="st0">
	<path class="st1" d="M-15.375-16.557"/>
	<line class="st1" x1="-13.125" y1="47.1558" x2="-13.125" y2="-16.3603"/>
	<line class="st1" x1="-10.875" y1="47.3529" x2="-10.875" y2="-16.5568"/>
	<line class="st1" x1="-8.625" y1="46.959" x2="-8.625" y2="-16.3109"/>
	<line class="st1" x1="-6.375" y1="47.746" x2="-6.375" y2="-16.6546"/>
	<line class="st1" x1="-4.125" y1="47.3529" x2="-4.125" y2="-16.5079"/>
	<line class="st1" x1="-1.875" y1="47.4999" x2="-1.875" y2="-16.6061"/>
	<line class="st1" x1="0.375" y1="47.3529" x2="0.375" y2="-16.5568"/>
	<line class="st1" x1="2.625" y1="47.4999" x2="2.625" y2="-16.9021"/>
	<line class="st1" x1="4.875" y1="47.1558" x2="4.875" y2="-16.6547"/>
	<line class="st1" x1="7.125" y1="47.3029" x2="7.125" y2="-16.8517"/>
	<line class="st1" x1="9.375" y1="47.1063" x2="9.375" y2="-16.4577"/>
	<line class="st1" x1="11.625" y1="47.2541" x2="11.625" y2="-16.5081"/>
	<line class="st1" x1="13.875" y1="47.3029" x2="13.875" y2="-16.5079"/>
	<line class="st1" x1="16.125" y1="47.0567" x2="16.125" y2="-16.458"/>
	<line class="st1" x1="18.375" y1="47.1063" x2="18.375" y2="-16.4089"/>
	<line class="st1" x1="20.625" y1="47.3529" x2="20.625" y2="-16.6058"/>
	<line class="st1" x1="22.875" y1="47.1558" x2="22.875" y2="-16.5569"/>
	<line class="st1" x1="25.125" y1="47.4511" x2="25.125" y2="-16.5082"/>
	<line class="st1" x1="27.375" y1="47.2541" x2="27.375" y2="-16.3603"/>
	<line class="st1" x1="29.625" y1="47.1063" x2="29.625" y2="-16.5077"/>
	<line class="st1" x1="31.875" y1="47.1558" x2="31.875" y2="-16.508"/>
	<line class="st1" x1="34.125" y1="47.1063" x2="34.125" y2="-16.5077"/>
	<line class="st1" x1="36.375" y1="46.8598" x2="36.375" y2="-16.5566"/>
	<line class="st1" x1="38.625" y1="47.1558" x2="38.625" y2="-16.7536"/>
	<line class="st1" x1="40.875" y1="47.1558" x2="40.875" y2="-16.6058"/>
	<line class="st1" x1="43.125" y1="47.4511" x2="43.125" y2="-16.6062"/>
	<line class="st1" x1="-14.2926" y1="47.1726" x2="-16.4896" y2="45.9041"/>
	<line class="st1" x1="-9.8838" y1="47.1199" x2="-16.5439" y2="43.2746"/>
	<line class="st1" x1="-5.0286" y1="47.3248" x2="-16.5547" y2="40.6703"/>
	<line class="st1" x1="-0.4099" y1="47.3936" x2="-16.607" y2="38.0421"/>
	<line class="st1" x1="3.8647" y1="47.2633" x2="-16.4987" y2="35.5065"/>
	<line class="st1" x1="8.1817" y1="47.1575" x2="-16.4585" y2="32.9315"/>
	<line class="st1" x1="12.7364" y1="47.1893" x2="-16.5287" y2="30.2931"/>
	<line class="st1" x1="17.0493" y1="47.0812" x2="-16.4649" y2="27.7317"/>
	<line class="st1" x1="21.7487" y1="47.1965" x2="-16.5216" y2="25.1011"/>
	<line class="st1" x1="26.2708" y1="47.2091" x2="-16.6454" y2="22.4314"/>
	<line class="st1" x1="30.8011" y1="47.2265" x2="-16.5718" y2="19.8757"/>
	<line class="st1" x1="35.0797" y1="47.0989" x2="-16.5759" y2="17.2755"/>
	<line class="st1" x1="39.7372" y1="47.1897" x2="-16.5939" y2="14.6669"/>
	<line class="st1" x1="44.4278" y1="47.2996" x2="-16.6466" y2="12.0384"/>
	<line class="st1" x1="46.5391" y1="45.9207" x2="-16.5451" y2="9.499"/>
	<line class="st1" x1="46.7575" y1="43.4487" x2="-16.4576" y2="6.9515"/>
	<line class="st1" x1="46.5446" y1="40.7275" x2="-16.5248" y2="4.3145"/>
	<line class="st1" x1="46.5973" y1="38.16" x2="-16.5582" y2="1.6972"/>
	<line class="st1" x1="46.5272" y1="35.5214" x2="-16.4693" y2="-0.8496"/>
	<line class="st1" x1="46.6505" y1="32.9944" x2="-16.4717" y2="-3.4492"/>
	<line class="st1" x1="46.5376" y1="30.3314" x2="-16.4197" y2="-6.017"/>
	<line class="st1" x1="46.4796" y1="27.6997" x2="-16.3754" y2="-8.5896"/>
	<polyline class="st1" points="46.5777,25.1581 -16.1346,-11.0488 -16.5294,-11.2767 	"/>
	<polyline class="st1" points="46.5142,22.5236 -16.248,-13.7121 -17.1105,-14.2101 	"/>
	<polyline class="st1" points="46.5439,19.9426 -14.9996,-15.5896 -16.7609,-16.6065 	"/>
	<line class="st1" x1="46.3527" y1="17.2343" x2="-12.0668" y2="-16.4943"/>
	<line class="st1" x1="46.4824" y1="14.711" x2="-7.5112" y2="-16.4622"/>
	<line class="st1" x1="46.479" y1="12.1109" x2="-3.0123" y2="-16.4629"/>
	<line class="st1" x1="46.4578" y1="9.5007" x2="1.1859" y2="-16.637"/>
	<line class="st1" x1="46.3608" y1="6.8466" x2="5.6507" y2="-16.6575"/>
	<line class="st1" x1="46.5626" y1="4.3649" x2="10.4854" y2="-16.4643"/>
	<line class="st1" x1="46.6047" y1="1.7913" x2="15.0995" y2="-16.3983"/>
	<line class="st1" x1="46.4335" y1="-0.9057" x2="19.5934" y2="-16.4018"/>
	<line class="st1" x1="46.5889" y1="-3.4142" x2="23.9443" y2="-16.488"/>
	<line class="st1" x1="46.3665" y1="-6.1405" x2="28.4468" y2="-16.4864"/>
	<line class="st1" x1="46.5992" y1="-8.6043" x2="33.0984" y2="-16.399"/>
	<line class="st1" x1="46.5865" y1="-11.2098" x2="37.2213" y2="-16.6168"/>
	<line class="st1" x1="46.6046" y1="-13.7973" x2="41.9486" y2="-16.4854"/>
	<path class="st1" d="M46.5364-16.4349"/>
	<path class="st1" d="M-72.75-106.0893"/>
	<path class="st1" d="M-71.625-108.0379"/>
	<path class="st1" d="M-70.5-109.9865"/>
	<path class="st1" d="M-69.375-111.935"/>
	<path class="st1" d="M-68.25-113.8836"/>
	<path class="st1" d="M-67.125-115.8321"/>
	<path class="st1" d="M-66-117.7807"/>
	<path class="st1" d="M-64.875-119.7292"/>
	<path class="st1" d="M-63.75-121.6778"/>
	<path class="st1" d="M46.631,47.1215"/>
	<line class="st1" x1="41.8384" y1="47.2903" x2="46.5346" y2="44.579"/>
	<line class="st1" x1="37.761" y1="47.0465" x2="46.6554" y2="41.9113"/>
	<line class="st1" x1="33.2481" y1="47.0539" x2="46.6394" y2="39.3224"/>
	<line class="st1" x1="28.7471" y1="47.0544" x2="46.5552" y2="36.7729"/>
	<line class="st1" x1="23.9766" y1="47.2107" x2="46.5546" y2="34.1753"/>
	<line class="st1" x1="19.718" y1="47.0712" x2="46.6021" y2="31.5497"/>
	<line class="st1" x1="15.3122" y1="47.0167" x2="46.6066" y2="28.9489"/>
	<line class="st1" x1="10.3988" y1="47.2556" x2="46.5751" y2="26.3692"/>
	<line class="st1" x1="6.1197" y1="47.1279" x2="46.5162" y2="23.805"/>
	<line class="st1" x1="1.2953" y1="47.3154" x2="46.6164" y2="21.1493"/>
	<line class="st1" x1="-3.222" y1="47.3253" x2="46.4154" y2="18.6671"/>
	<line class="st1" x1="-8.0514" y1="47.5153" x2="46.5572" y2="15.9871"/>
	<line class="st1" x1="-11.769" y1="47.0639" x2="46.4405" y2="13.4566"/>
	<line class="st1" x1="-16.6198" y1="47.2663" x2="46.4978" y2="10.8253"/>
	<line class="st1" x1="-16.6252" y1="44.6712" x2="46.5671" y2="8.1872"/>
	<line class="st1" x1="-16.3982" y1="41.9423" x2="46.4768" y2="5.6413"/>
	<line class="st1" x1="-16.5136" y1="39.4107" x2="46.6506" y2="2.9429"/>
	<line class="st1" x1="-16.3672" y1="36.728" x2="46.4811" y2="0.4426"/>
	<line class="st1" x1="-16.4261" y1="34.1641" x2="46.6243" y2="-2.2381"/>
	<line class="st1" x1="-16.5537" y1="31.6396" x2="46.5591" y2="-4.7985"/>
	<line class="st1" x1="-16.6591" y1="29.1023" x2="46.5062" y2="-7.3662"/>
	<line class="st1" x1="-16.5488" y1="26.4407" x2="46.4955" y2="-9.9579"/>
	<line class="st1" x1="-16.5014" y1="23.8152" x2="46.6906" y2="-12.6687"/>
	<line class="st1" x1="-16.6869" y1="21.324" x2="46.6589" y2="-15.2486"/>
	<line class="st1" x1="-16.5222" y1="18.6311" x2="44.3216" y2="-16.497"/>
	<line class="st1" x1="-16.6397" y1="16.1008" x2="40.1155" y2="-16.6668"/>
	<line class="st1" x1="-16.4543" y1="13.3959" x2="35.4976" y2="-16.5986"/>
	<line class="st1" x1="-16.4766" y1="10.8105" x2="31.0105" y2="-16.6061"/>
	<line class="st1" x1="-16.6191" y1="8.2947" x2="26.3737" y2="-16.5272"/>
	<line class="st1" x1="-16.5886" y1="5.6791" x2="21.7039" y2="-16.4291"/>
	<line class="st1" x1="-16.4987" y1="3.0291" x2="17.3446" y2="-16.5104"/>
	<line class="st1" x1="-16.4879" y1="0.4247" x2="12.9603" y2="-16.5772"/>
	<line class="st1" x1="-16.5374" y1="-2.1447" x2="8.4534" y2="-16.5731"/>
	<line class="st1" x1="-16.4468" y1="-4.7952" x2="4.0268" y2="-16.6156"/>
	<polyline class="st1" points="-16.5695,-7.3225 -15.9916,-7.6561 -0.3642,-16.6786 	"/>
	<line class="st1" x1="-16.6918" y1="-9.8497" x2="-5.065" y2="-16.5625"/>
	<line class="st1" x1="-16.2564" y1="-12.6993" x2="-10.0909" y2="-16.259"/>
	<path class="st1" d="M-14.1742-16.4997"/>
</g>
<g>
	<path class="st2" d="M27.995,8.7632c-0.0002-0.1429-0.0762-0.275-0.2001-0.3462l-4.6613-2.6918
		c-0.0357-0.1038-0.0668-0.2087-0.1133-0.309c-0.0016-0.0056-0.0041-0.0106-0.0059-0.0161c-0.0076-0.0162-0.0104-0.0339-0.0183-0.05
		L22.99,5.3531c-0.0338-0.0691-0.0817-0.1319-0.1531-0.1729l-6.4766-3.7402c-0.0967-0.0552-0.2109-0.0684-0.3174-0.0361
		c-0.106,0.0322-0.1938,0.1074-0.2422,0.207c-0.2744,0.5627-0.6068,1.0887-0.9757,1.5814c-0.028,0.0087-0.0569,0.0127-0.0834,0.028
		L2.2051,10.4941c-0.1234,0.0717-0.1993,0.2038-0.1991,0.3462H2.0059v6.3657c0,0.4355,0.2847,0.9287,0.6621,1.1465l0.5371,0.3096
		v4.7597c0,0.4375,0.2866,0.9297,0.6665,1.1436l1.5303,0.8672c0.1333,0.0762,0.2715,0.1143,0.4038,0.1143
		c0.1143,0,0.2241-0.0283,0.3232-0.0859c0.2124-0.124,0.3345-0.3594,0.3345-0.6455v-4.2748l1.5039,0.867v4.8229
		c0,0.4365,0.2866,0.9277,0.667,1.1445l1.5186,0.8574c0.1328,0.0752,0.27,0.1123,0.4014,0.1123
		c0.1152,0,0.2261-0.0283,0.3252-0.0869c0.2119-0.124,0.333-0.3604,0.332-0.6465l-0.0131-4.3411l1.3285,0.7659
		c0.1885,0.1084,0.4248,0.1621,0.6611,0.1621s0.4731-0.0537,0.6616-0.1621c1.4792-0.8505,6.2029-3.567,9.7461-5.6066v0.7198
		c0,0.1426,0.0762,0.2754,0.2002,0.3467l1.1992,0.6924c0.0625,0.0352,0.1309,0.0537,0.2002,0.0537s0.1377-0.0186,0.2002-0.0537
		c0.124-0.0713,0.2002-0.2041,0.2002-0.3467v-2.564c0.7443-0.4288,1.3546-0.7807,1.7383-1.0024
		c0.377-0.2168,0.6611-0.7104,0.6611-1.147V8.7632H27.995z M22.3018,8.9067l-7.9185,4.5535v-0.5777
		c1.0988-0.5522,5.9904-3.1366,8.1339-6.3637C22.6662,7.4986,22.4094,8.5392,22.3018,8.9067z M7.9233,9.5979l5.6602,3.2678v0.5931
		l-5.6602-3.2683V9.5979z M16.3232,2.3423l5.7793,3.3374c-1.835,3.2046-7.0498,5.9663-8.105,6.5015L8.4302,8.9668
		C10.1558,8.2095,14.3032,6.0747,16.3232,2.3423z M12.9534,5.183c-2.5612,2.2325-5.5234,3.3307-5.5662,3.3463
		C7.2412,8.582,7.1387,8.7153,7.125,8.8701C7.1239,8.8825,7.1319,8.893,7.132,8.9053H7.1235v1.5161
		c0,0.1431,0.0762,0.2749,0.1997,0.3462l6.46,3.73c0.062,0.0361,0.1313,0.0537,0.2002,0.0537s0.1377-0.0176,0.1992-0.0532
		l8.6533-4.9761c0.084-0.0479,0.1465-0.1245,0.1787-0.2153c0.0234-0.0677,0.4227-1.2582,0.3336-2.534l3.4457,1.9896l-13.6211,7.8325
		l-9.9688-5.7554L12.9534,5.183z M6.4038,13.6107l1.5635,0.9028v1.886l-1.5635-0.9023V13.6107z M5.6616,24.6602l-1.396-0.791
		c-0.1313-0.0742-0.2607-0.2959-0.2607-0.4473v-4.2986l1.6586,0.9561L5.6616,24.6602z M10.4092,27.458l-1.3809-0.7793
		c-0.1318-0.0752-0.2612-0.2969-0.2612-0.4482v-4.3618l1.63,0.9397L10.4092,27.458z M3.0679,17.6592
		c-0.1323-0.0762-0.2622-0.3008-0.2622-0.4531v-5.673l2.7983,1.6158v2.5792c0,0.1431,0.0762,0.2749,0.1997,0.3462l2.3633,1.3652
		c0.062,0.0352,0.1313,0.0537,0.2002,0.0537s0.1382-0.0186,0.2002-0.0537c0.1235-0.0713,0.1997-0.2041,0.1997-0.3467v-2.1176
		l4.0054,2.3128v5.9664L3.0679,17.6592z M24.7949,19.1494l-0.3984-0.2305v-0.9504c0.1357-0.0782,0.2681-0.1544,0.3984-0.2294
		V19.1494z M26.9336,15.583c-2.1322,1.2314-11.0159,6.341-13.3613,7.6901v-5.9852l13.6221-7.8333v5.6738
		C27.1943,15.2817,27.0654,15.5068,26.9336,15.583z"/>
	<path class="st2" d="M4.7974,22.9928c0.2695,0.1556,0.4879,0.0633,0.4879-0.2062c0-0.2694-0.2184-0.614-0.4879-0.7695
		s-0.4879-0.0632-0.4879,0.2062C4.3096,22.4927,4.528,22.8373,4.7974,22.9928z"/>
	<path class="st2" d="M9.6036,25.8669c0.2695,0.1556,0.4879,0.0632,0.4879-0.2062c0-0.2694-0.2184-0.614-0.4879-0.7695
		c-0.2694-0.1555-0.4879-0.0632-0.4879,0.2062C9.1158,25.3668,9.3342,25.7114,9.6036,25.8669z"/>
</g>
</svg>
