<?xml version="1.0" encoding="utf-8"?>
<!-- Generator: Adobe Illustrator 21.0.0, SVG Export Plug-In . SVG Version: 6.00 Build 0)  -->
<svg version="1.1" id="Layer_1" xmlns="http://www.w3.org/2000/svg" xmlns:xlink="http://www.w3.org/1999/xlink" x="0px" y="0px"
	 viewBox="0 0 30 30" style="enable-background:new 0 0 30 30;" xml:space="preserve">
<style type="text/css">
	.st0{display:none;opacity:0.2;}
	.st1{display:inline;fill:none;stroke:#00ADEE;stroke-width:0.125;stroke-miterlimit:10;}
	.st2{fill:#231F20;}
</style>
<g class="st0">
	<path class="st1" d="M-15.375-16.557"/>
	<line class="st1" x1="-13.125" y1="47.1558" x2="-13.125" y2="-16.3603"/>
	<line class="st1" x1="-10.875" y1="47.3529" x2="-10.875" y2="-16.5568"/>
	<line class="st1" x1="-8.625" y1="46.959" x2="-8.625" y2="-16.3109"/>
	<line class="st1" x1="-6.375" y1="47.746" x2="-6.375" y2="-16.6546"/>
	<line class="st1" x1="-4.125" y1="47.3529" x2="-4.125" y2="-16.5079"/>
	<line class="st1" x1="-1.875" y1="47.4999" x2="-1.875" y2="-16.6061"/>
	<line class="st1" x1="0.375" y1="47.3529" x2="0.375" y2="-16.5568"/>
	<line class="st1" x1="2.625" y1="47.4999" x2="2.625" y2="-16.9021"/>
	<line class="st1" x1="4.875" y1="47.1558" x2="4.875" y2="-16.6547"/>
	<line class="st1" x1="7.125" y1="47.3029" x2="7.125" y2="-16.8517"/>
	<line class="st1" x1="9.375" y1="47.1063" x2="9.375" y2="-16.4577"/>
	<line class="st1" x1="11.625" y1="47.2541" x2="11.625" y2="-16.5081"/>
	<line class="st1" x1="13.875" y1="47.3029" x2="13.875" y2="-16.5079"/>
	<line class="st1" x1="16.125" y1="47.0567" x2="16.125" y2="-16.458"/>
	<line class="st1" x1="18.375" y1="47.1063" x2="18.375" y2="-16.4089"/>
	<line class="st1" x1="20.625" y1="47.3529" x2="20.625" y2="-16.6058"/>
	<line class="st1" x1="22.875" y1="47.1558" x2="22.875" y2="-16.5569"/>
	<line class="st1" x1="25.125" y1="47.4511" x2="25.125" y2="-16.5082"/>
	<line class="st1" x1="27.375" y1="47.2541" x2="27.375" y2="-16.3603"/>
	<line class="st1" x1="29.625" y1="47.1063" x2="29.625" y2="-16.5077"/>
	<line class="st1" x1="31.875" y1="47.1558" x2="31.875" y2="-16.508"/>
	<line class="st1" x1="34.125" y1="47.1063" x2="34.125" y2="-16.5077"/>
	<line class="st1" x1="36.375" y1="46.8598" x2="36.375" y2="-16.5566"/>
	<line class="st1" x1="38.625" y1="47.1558" x2="38.625" y2="-16.7536"/>
	<line class="st1" x1="40.875" y1="47.1558" x2="40.875" y2="-16.6058"/>
	<line class="st1" x1="43.125" y1="47.4511" x2="43.125" y2="-16.6062"/>
	<line class="st1" x1="-14.2926" y1="47.1726" x2="-16.4896" y2="45.9041"/>
	<line class="st1" x1="-9.8838" y1="47.1199" x2="-16.5439" y2="43.2746"/>
	<line class="st1" x1="-5.0286" y1="47.3248" x2="-16.5547" y2="40.6703"/>
	<line class="st1" x1="-0.4099" y1="47.3936" x2="-16.607" y2="38.0421"/>
	<line class="st1" x1="3.8647" y1="47.2633" x2="-16.4987" y2="35.5065"/>
	<line class="st1" x1="8.1817" y1="47.1575" x2="-16.4585" y2="32.9315"/>
	<line class="st1" x1="12.7364" y1="47.1893" x2="-16.5287" y2="30.2931"/>
	<line class="st1" x1="17.0493" y1="47.0812" x2="-16.4649" y2="27.7317"/>
	<line class="st1" x1="21.7487" y1="47.1965" x2="-16.5216" y2="25.1011"/>
	<line class="st1" x1="26.2708" y1="47.2091" x2="-16.6454" y2="22.4314"/>
	<line class="st1" x1="30.8011" y1="47.2265" x2="-16.5718" y2="19.8757"/>
	<line class="st1" x1="35.0797" y1="47.0989" x2="-16.5759" y2="17.2755"/>
	<line class="st1" x1="39.7372" y1="47.1897" x2="-16.5939" y2="14.6669"/>
	<line class="st1" x1="44.4278" y1="47.2996" x2="-16.6466" y2="12.0384"/>
	<line class="st1" x1="46.5391" y1="45.9207" x2="-16.5451" y2="9.499"/>
	<line class="st1" x1="46.7575" y1="43.4487" x2="-16.4576" y2="6.9515"/>
	<line class="st1" x1="46.5446" y1="40.7275" x2="-16.5248" y2="4.3145"/>
	<line class="st1" x1="46.5973" y1="38.16" x2="-16.5582" y2="1.6972"/>
	<line class="st1" x1="46.5272" y1="35.5214" x2="-16.4693" y2="-0.8496"/>
	<line class="st1" x1="46.6505" y1="32.9944" x2="-16.4717" y2="-3.4492"/>
	<line class="st1" x1="46.5376" y1="30.3314" x2="-16.4197" y2="-6.017"/>
	<line class="st1" x1="46.4796" y1="27.6997" x2="-16.3754" y2="-8.5896"/>
	<polyline class="st1" points="46.5777,25.1581 -16.1346,-11.0488 -16.5294,-11.2767 	"/>
	<polyline class="st1" points="46.5142,22.5236 -16.248,-13.7121 -17.1105,-14.2101 	"/>
	<polyline class="st1" points="46.5439,19.9426 -14.9996,-15.5896 -16.7609,-16.6065 	"/>
	<line class="st1" x1="46.3527" y1="17.2343" x2="-12.0668" y2="-16.4943"/>
	<line class="st1" x1="46.4824" y1="14.711" x2="-7.5112" y2="-16.4622"/>
	<line class="st1" x1="46.479" y1="12.1109" x2="-3.0123" y2="-16.4629"/>
	<line class="st1" x1="46.4578" y1="9.5007" x2="1.1859" y2="-16.637"/>
	<line class="st1" x1="46.3608" y1="6.8466" x2="5.6507" y2="-16.6575"/>
	<line class="st1" x1="46.5626" y1="4.3649" x2="10.4854" y2="-16.4643"/>
	<line class="st1" x1="46.6047" y1="1.7913" x2="15.0995" y2="-16.3983"/>
	<line class="st1" x1="46.4335" y1="-0.9057" x2="19.5934" y2="-16.4018"/>
	<line class="st1" x1="46.5889" y1="-3.4142" x2="23.9443" y2="-16.488"/>
	<line class="st1" x1="46.3665" y1="-6.1405" x2="28.4468" y2="-16.4864"/>
	<line class="st1" x1="46.5992" y1="-8.6043" x2="33.0984" y2="-16.399"/>
	<line class="st1" x1="46.5865" y1="-11.2098" x2="37.2213" y2="-16.6168"/>
	<line class="st1" x1="46.6046" y1="-13.7973" x2="41.9486" y2="-16.4854"/>
	<path class="st1" d="M46.5364-16.4349"/>
	<path class="st1" d="M-72.75-106.0893"/>
	<path class="st1" d="M-71.625-108.0379"/>
	<path class="st1" d="M-70.5-109.9865"/>
	<path class="st1" d="M-69.375-111.935"/>
	<path class="st1" d="M-68.25-113.8836"/>
	<path class="st1" d="M-67.125-115.8321"/>
	<path class="st1" d="M-66-117.7807"/>
	<path class="st1" d="M-64.875-119.7292"/>
	<path class="st1" d="M-63.75-121.6778"/>
	<path class="st1" d="M46.631,47.1215"/>
	<line class="st1" x1="41.8384" y1="47.2903" x2="46.5346" y2="44.579"/>
	<line class="st1" x1="37.761" y1="47.0465" x2="46.6554" y2="41.9113"/>
	<line class="st1" x1="33.2481" y1="47.0539" x2="46.6394" y2="39.3224"/>
	<line class="st1" x1="28.7471" y1="47.0544" x2="46.5552" y2="36.7729"/>
	<line class="st1" x1="23.9766" y1="47.2107" x2="46.5546" y2="34.1753"/>
	<line class="st1" x1="19.718" y1="47.0712" x2="46.6021" y2="31.5497"/>
	<line class="st1" x1="15.3122" y1="47.0167" x2="46.6066" y2="28.9489"/>
	<line class="st1" x1="10.3988" y1="47.2556" x2="46.5751" y2="26.3692"/>
	<line class="st1" x1="6.1197" y1="47.1279" x2="46.5162" y2="23.805"/>
	<line class="st1" x1="1.2953" y1="47.3154" x2="46.6164" y2="21.1493"/>
	<line class="st1" x1="-3.222" y1="47.3253" x2="46.4154" y2="18.6671"/>
	<line class="st1" x1="-8.0514" y1="47.5153" x2="46.5572" y2="15.9871"/>
	<line class="st1" x1="-11.769" y1="47.0639" x2="46.4405" y2="13.4566"/>
	<line class="st1" x1="-16.6198" y1="47.2663" x2="46.4978" y2="10.8253"/>
	<line class="st1" x1="-16.6252" y1="44.6712" x2="46.5671" y2="8.1872"/>
	<line class="st1" x1="-16.3982" y1="41.9423" x2="46.4768" y2="5.6413"/>
	<line class="st1" x1="-16.5136" y1="39.4107" x2="46.6506" y2="2.9429"/>
	<line class="st1" x1="-16.3672" y1="36.728" x2="46.4811" y2="0.4426"/>
	<line class="st1" x1="-16.4261" y1="34.1641" x2="46.6243" y2="-2.2381"/>
	<line class="st1" x1="-16.5537" y1="31.6396" x2="46.5591" y2="-4.7985"/>
	<line class="st1" x1="-16.6591" y1="29.1023" x2="46.5062" y2="-7.3662"/>
	<line class="st1" x1="-16.5488" y1="26.4407" x2="46.4955" y2="-9.9579"/>
	<line class="st1" x1="-16.5014" y1="23.8152" x2="46.6906" y2="-12.6687"/>
	<line class="st1" x1="-16.6869" y1="21.324" x2="46.6589" y2="-15.2486"/>
	<line class="st1" x1="-16.5222" y1="18.6311" x2="44.3216" y2="-16.497"/>
	<line class="st1" x1="-16.6397" y1="16.1008" x2="40.1155" y2="-16.6668"/>
	<line class="st1" x1="-16.4543" y1="13.3959" x2="35.4976" y2="-16.5986"/>
	<line class="st1" x1="-16.4766" y1="10.8105" x2="31.0105" y2="-16.6061"/>
	<line class="st1" x1="-16.6191" y1="8.2947" x2="26.3737" y2="-16.5272"/>
	<line class="st1" x1="-16.5886" y1="5.6791" x2="21.7039" y2="-16.4291"/>
	<line class="st1" x1="-16.4987" y1="3.0291" x2="17.3446" y2="-16.5104"/>
	<line class="st1" x1="-16.4879" y1="0.4247" x2="12.9603" y2="-16.5772"/>
	<line class="st1" x1="-16.5374" y1="-2.1447" x2="8.4534" y2="-16.5731"/>
	<line class="st1" x1="-16.4468" y1="-4.7952" x2="4.0268" y2="-16.6156"/>
	<polyline class="st1" points="-16.5695,-7.3225 -15.9916,-7.6561 -0.3642,-16.6786 	"/>
	<line class="st1" x1="-16.6918" y1="-9.8497" x2="-5.065" y2="-16.5625"/>
	<line class="st1" x1="-16.2564" y1="-12.6993" x2="-10.0909" y2="-16.259"/>
	<path class="st1" d="M-14.1742-16.4997"/>
</g>
<g>
	<path class="st2" d="M24.8259,5.3315c-0.004-0.0483-0.0163-0.0936-0.037-0.1375c-0.0073-0.0156-0.0118-0.0309-0.0211-0.0455
		c-0.0326-0.0516-0.0737-0.0983-0.1295-0.132L24.631,5.012c-0.0002-0.0001-0.0002-0.0003-0.0004-0.0004
		c-0.0001-0.0001-0.0003-0.0001-0.0004-0.0001l-3.0581-1.8544l0.1845-0.1602c0.1006-0.0869,0.1514-0.2173,0.1377-0.3491
		s-0.0898-0.2485-0.2061-0.3135l-2.3594-1.3159c-0.1504-0.084-0.3369-0.0654-0.4648,0.0483l-8.2746,7.1855l-5.2191,2.979
		c-0.059,0.0336-0.1019,0.082-0.1362,0.1354c-0.0095,0.0146-0.015,0.0297-0.0225,0.0454c-0.0215,0.045-0.034,0.0915-0.038,0.1412
		c-0.0009,0.0111-0.0085,0.0203-0.0085,0.0315v10.8862c0,0.1455,0.0776,0.2793,0.2031,0.3525l2.4053,1.3885v2.4786
		c0,0.4766,0.3125,1.0127,0.7266,1.2471l1.7188,0.9736c0.1431,0.082,0.291,0.1221,0.4321,0.1221
		c0.1211,0,0.2378-0.0303,0.3418-0.0908c0.2256-0.1309,0.3545-0.3818,0.3545-0.6875v-3.9966l1.8657-1.0753v0.4987
		c0,0.4766,0.3125,1.0127,0.7266,1.248l1.7192,0.9736c0.1431,0.0811,0.291,0.1211,0.4316,0.1211
		c0.1211,0,0.2373-0.0303,0.3418-0.0908c0.2246-0.1309,0.3545-0.3818,0.3545-0.6885v-4.1218l1.7979-1.0362v0.3074
		c0,0.4766,0.3135,1.0127,0.7285,1.2471l1.7178,0.9746c0.1426,0.0811,0.291,0.1211,0.4316,0.1211
		c0.1211,0,0.2383-0.0303,0.3428-0.0908c0.2246-0.1309,0.3545-0.3818,0.3545-0.6885V18.027l2.4707-1.424
		c0.126-0.0723,0.2041-0.207,0.2041-0.3525V5.3642C24.8347,5.3525,24.8269,5.343,24.8259,5.3315z M24.0203,7.4343l-7.2705,4.1818
		l-0.0091-1.3145l7.2796-4.2304V7.4343z M23.6311,5.3568l-7.2824,4.2319L15.1219,8.756l5.8051-5.0389L23.6311,5.3568z
		 M9.6143,13.5021L6.382,11.5912l1.3201-0.7535c-0.0179,0.0521-0.03,0.1068-0.0255,0.1631c0.0107,0.1289,0.082,0.2451,0.1919,0.3135
		l2.2607,1.3975c0.0659,0.0405,0.1401,0.0605,0.2139,0.0605c0.0957,0,0.1909-0.0337,0.2666-0.0996l3.8768-3.3651l1.0818,0.7346
		L9.6143,13.5021z M19.1814,1.8686l1.6035,0.894l-10.4824,9.0996L8.7664,10.913l2.2943-1.9924l0.0792-0.0452
		c0.0629-0.0359,0.1071-0.0887,0.1418-0.1467L19.1814,1.8686z M5.9788,12.2983l3.2266,1.9072l-0.0117,9.8867l-3.2148-1.8564V12.2983
		z M10.53,28.1528l-1.6284-0.9219c-0.1616-0.0918-0.3145-0.3545-0.3145-0.54v-2.009l0.8091,0.467
		c0.0005,0.0003,0.0013,0.0002,0.0018,0.0005c0.0538,0.0307,0.1149,0.0433,0.1765,0.0474c0.0087,0.0005,0.0166,0.0068,0.0253,0.0068
		c0.0001,0,0.0002-0.0001,0.0002-0.0001s0.0002,0.0001,0.0002,0.0001c0.0688,0,0.1387-0.0176,0.2026-0.0547l0.7303-0.4209
		L10.53,28.1528z M15.9685,25.144l-1.6274-0.9219c-0.1587-0.0908-0.3145-0.3574-0.3145-0.54v-0.9675l1.9451-1.1211L15.9685,25.144z
		 M21.3416,21.8569l-1.6279-0.9229c-0.1592-0.0898-0.3145-0.3564-0.3145-0.5391v-0.7769l1.9456-1.1213L21.3416,21.8569z
		 M10.0074,24.0918l0.0116-9.884l5.9109-3.4351l0.0112,1.5471c0.001,0.145,0.0791,0.2778,0.2051,0.3501
		c0.0625,0.0356,0.1318,0.0537,0.2021,0.0537s0.1396-0.0181,0.2031-0.0542l7.4688-4.2963v7.6425L10.0074,24.0918z"/>
	<path class="st2" d="M20.3311,20.5112c0.3026,0.1747,0.5478,0.071,0.5478-0.2316s-0.2452-0.6894-0.5478-0.8641
		s-0.5479-0.071-0.5479,0.2316S20.0285,20.3365,20.3311,20.5112z"/>
	<path class="st2" d="M14.9585,23.7984c0.3026,0.1747,0.5478,0.071,0.5478-0.2316c0-0.3025-0.2452-0.6894-0.5478-0.8641
		s-0.5478-0.071-0.5478,0.2316S14.6559,23.6237,14.9585,23.7984z"/>
	<path class="st2" d="M9.5191,25.7118c-0.3026-0.1747-0.5479-0.071-0.5479,0.2316s0.2453,0.6894,0.5479,0.8641
		s0.5478,0.071,0.5478-0.2316S9.8217,25.8865,9.5191,25.7118z"/>
	<path class="st2" d="M13.866,17.7944c-0.2993-0.0547-0.6084,0.0127-0.873,0.1943c-0.3169,0.2178-0.541,0.5771-0.6162,0.9863
		c-0.1411,0.7764,0.2939,1.5107,0.9707,1.6387c0.0669,0.0117,0.1343,0.0186,0.2017,0.0186c0.2339,0,0.4668-0.0742,0.6719-0.2158
		c0.3159-0.2168,0.54-0.5762,0.6147-0.9844C14.9778,18.6557,14.5427,17.9213,13.866,17.7944z M14.0349,19.2856
		c-0.0352,0.1943-0.1387,0.3672-0.2754,0.4609c-0.061,0.042-0.1577,0.084-0.2627,0.0674c-0.2334-0.0439-0.3799-0.3613-0.3193-0.6924
		c0.0356-0.1953,0.1387-0.3672,0.2759-0.4619c0.0498-0.0342,0.123-0.0713,0.2085-0.0713c0.0176,0,0.0356,0.002,0.0537,0.0049
		C13.9495,18.6371,14.0959,18.9545,14.0349,19.2856z"/>
	<path class="st2" d="M20.5906,13.9618c-0.2969-0.0552-0.6074,0.0127-0.873,0.1948c-0.3164,0.2173-0.541,0.5762-0.6162,0.9863
		c-0.1416,0.7764,0.2939,1.5107,0.9697,1.6367c0.0674,0.0127,0.1357,0.0195,0.2041,0.0195c0.2334,0,0.4658-0.0732,0.6699-0.2148
		c0.3164-0.2168,0.541-0.5762,0.6152-0.9849C21.7029,14.8237,21.2673,14.0888,20.5906,13.9618z M20.7595,15.4531
		c0,0.0005,0,0.0005,0,0.001c-0.0352,0.1938-0.1387,0.3662-0.2754,0.4604c-0.0605,0.041-0.1494,0.0864-0.2637,0.0659
		c-0.2324-0.0435-0.3789-0.3604-0.3184-0.6909c0.0352-0.1953,0.1387-0.3682,0.2764-0.4624c0.0498-0.0337,0.123-0.0703,0.208-0.0703
		c0.0176,0,0.0352,0.0015,0.0537,0.0049C20.6746,14.8056,20.821,15.122,20.7595,15.4531z"/>
</g>
</svg>
