<?xml version="1.0" encoding="utf-8"?>
<!-- Generator: Adobe Illustrator 21.0.0, SVG Export Plug-In . SVG Version: 6.00 Build 0)  -->
<svg version="1.1" id="Layer_1" xmlns="http://www.w3.org/2000/svg" xmlns:xlink="http://www.w3.org/1999/xlink" x="0px" y="0px"
	 viewBox="0 0 60 60" style="enable-background:new 0 0 60 60;" xml:space="preserve">
<style type="text/css">
	.st0{display:none;opacity:0.2;}
	.st1{display:inline;fill:none;stroke:#00ADEE;stroke-width:0.125;stroke-miterlimit:10;}
	.st2{fill:#231F20;}
</style>
<g class="st0">
	<path class="st1" d="M-0.375-1.557"/>
	<line class="st1" x1="1.875" y1="62.156" x2="1.875" y2="-1.36"/>
	<line class="st1" x1="4.125" y1="62.353" x2="4.125" y2="-1.557"/>
	<line class="st1" x1="6.375" y1="61.959" x2="6.375" y2="-1.311"/>
	<line class="st1" x1="8.625" y1="62.746" x2="8.625" y2="-1.655"/>
	<line class="st1" x1="10.875" y1="62.353" x2="10.875" y2="-1.508"/>
	<line class="st1" x1="13.125" y1="62.5" x2="13.125" y2="-1.606"/>
	<line class="st1" x1="15.375" y1="62.353" x2="15.375" y2="-1.557"/>
	<line class="st1" x1="17.625" y1="62.5" x2="17.625" y2="-1.902"/>
	<line class="st1" x1="19.875" y1="62.156" x2="19.875" y2="-1.655"/>
	<line class="st1" x1="22.125" y1="62.303" x2="22.125" y2="-1.852"/>
	<line class="st1" x1="24.375" y1="62.106" x2="24.375" y2="-1.458"/>
	<line class="st1" x1="26.625" y1="62.254" x2="26.625" y2="-1.508"/>
	<line class="st1" x1="28.875" y1="62.303" x2="28.875" y2="-1.508"/>
	<line class="st1" x1="31.125" y1="62.057" x2="31.125" y2="-1.458"/>
	<line class="st1" x1="33.375" y1="62.106" x2="33.375" y2="-1.409"/>
	<line class="st1" x1="35.625" y1="62.353" x2="35.625" y2="-1.606"/>
	<line class="st1" x1="37.875" y1="62.156" x2="37.875" y2="-1.557"/>
	<line class="st1" x1="40.125" y1="62.451" x2="40.125" y2="-1.508"/>
	<line class="st1" x1="42.375" y1="62.254" x2="42.375" y2="-1.36"/>
	<line class="st1" x1="44.625" y1="62.106" x2="44.625" y2="-1.508"/>
	<line class="st1" x1="46.875" y1="62.156" x2="46.875" y2="-1.508"/>
	<line class="st1" x1="49.125" y1="62.106" x2="49.125" y2="-1.508"/>
	<line class="st1" x1="51.375" y1="61.86" x2="51.375" y2="-1.557"/>
	<line class="st1" x1="53.625" y1="62.156" x2="53.625" y2="-1.754"/>
	<line class="st1" x1="55.875" y1="62.156" x2="55.875" y2="-1.606"/>
	<line class="st1" x1="58.125" y1="62.451" x2="58.125" y2="-1.606"/>
	<line class="st1" x1="0.707" y1="62.173" x2="-1.49" y2="60.904"/>
	<line class="st1" x1="5.116" y1="62.12" x2="-1.544" y2="58.275"/>
	<line class="st1" x1="9.971" y1="62.325" x2="-1.555" y2="55.67"/>
	<line class="st1" x1="14.59" y1="62.394" x2="-1.607" y2="53.042"/>
	<line class="st1" x1="18.865" y1="62.263" x2="-1.499" y2="50.506"/>
	<line class="st1" x1="23.182" y1="62.158" x2="-1.459" y2="47.931"/>
	<line class="st1" x1="27.736" y1="62.189" x2="-1.529" y2="45.293"/>
	<line class="st1" x1="32.049" y1="62.081" x2="-1.465" y2="42.732"/>
	<line class="st1" x1="36.749" y1="62.196" x2="-1.522" y2="40.101"/>
	<line class="st1" x1="41.271" y1="62.209" x2="-1.645" y2="37.431"/>
	<line class="st1" x1="45.801" y1="62.226" x2="-1.572" y2="34.876"/>
	<line class="st1" x1="50.08" y1="62.099" x2="-1.576" y2="32.275"/>
	<line class="st1" x1="54.737" y1="62.19" x2="-1.594" y2="29.667"/>
	<line class="st1" x1="59.428" y1="62.3" x2="-1.647" y2="27.038"/>
	<line class="st1" x1="61.539" y1="60.921" x2="-1.545" y2="24.499"/>
	<line class="st1" x1="61.758" y1="58.449" x2="-1.458" y2="21.951"/>
	<line class="st1" x1="61.545" y1="55.728" x2="-1.525" y2="19.314"/>
	<line class="st1" x1="61.597" y1="53.16" x2="-1.558" y2="16.697"/>
	<line class="st1" x1="61.527" y1="50.521" x2="-1.469" y2="14.15"/>
	<line class="st1" x1="61.65" y1="47.994" x2="-1.472" y2="11.551"/>
	<line class="st1" x1="61.538" y1="45.331" x2="-1.42" y2="8.983"/>
	<line class="st1" x1="61.48" y1="42.7" x2="-1.375" y2="6.41"/>
	<polyline class="st1" points="61.578,40.158 -1.135,3.951 -1.529,3.723 	"/>
	<polyline class="st1" points="61.514,37.524 -1.248,1.288 -2.111,0.79 	"/>
	<polyline class="st1" points="61.544,34.943 0,-0.59 -1.761,-1.606 	"/>
	<line class="st1" x1="61.353" y1="32.234" x2="2.933" y2="-1.494"/>
	<line class="st1" x1="61.482" y1="29.711" x2="7.489" y2="-1.462"/>
	<line class="st1" x1="61.479" y1="27.111" x2="11.988" y2="-1.463"/>
	<line class="st1" x1="61.458" y1="24.501" x2="16.186" y2="-1.637"/>
	<line class="st1" x1="61.361" y1="21.847" x2="20.651" y2="-1.657"/>
	<line class="st1" x1="61.563" y1="19.365" x2="25.485" y2="-1.464"/>
	<line class="st1" x1="61.605" y1="16.791" x2="30.1" y2="-1.398"/>
	<line class="st1" x1="61.433" y1="14.094" x2="34.593" y2="-1.402"/>
	<line class="st1" x1="61.589" y1="11.586" x2="38.944" y2="-1.488"/>
	<line class="st1" x1="61.366" y1="8.86" x2="43.447" y2="-1.486"/>
	<line class="st1" x1="61.599" y1="6.396" x2="48.098" y2="-1.399"/>
	<line class="st1" x1="61.587" y1="3.79" x2="52.221" y2="-1.617"/>
	<line class="st1" x1="61.605" y1="1.203" x2="56.949" y2="-1.485"/>
	<path class="st1" d="M61.536-1.435"/>
	<path class="st1" d="M-57.75-91.089"/>
	<path class="st1" d="M-56.625-93.038"/>
	<path class="st1" d="M-55.5-94.987"/>
	<path class="st1" d="M-54.375-96.935"/>
	<path class="st1" d="M-53.25-98.884"/>
	<path class="st1" d="M-52.125-100.832"/>
	<path class="st1" d="M-51-102.781"/>
	<path class="st1" d="M-49.875-104.729"/>
	<path class="st1" d="M-48.75-106.678"/>
	<path class="st1" d="M61.631,62.121"/>
	<line class="st1" x1="56.838" y1="62.29" x2="61.535" y2="59.579"/>
	<line class="st1" x1="52.761" y1="62.046" x2="61.655" y2="56.911"/>
	<line class="st1" x1="48.248" y1="62.054" x2="61.639" y2="54.322"/>
	<line class="st1" x1="43.747" y1="62.054" x2="61.555" y2="51.773"/>
	<line class="st1" x1="38.977" y1="62.211" x2="61.555" y2="49.175"/>
	<line class="st1" x1="34.718" y1="62.071" x2="61.602" y2="46.55"/>
	<line class="st1" x1="30.312" y1="62.017" x2="61.607" y2="43.949"/>
	<line class="st1" x1="25.399" y1="62.256" x2="61.575" y2="41.369"/>
	<line class="st1" x1="21.12" y1="62.128" x2="61.516" y2="38.805"/>
	<line class="st1" x1="16.295" y1="62.315" x2="61.616" y2="36.149"/>
	<line class="st1" x1="11.778" y1="62.325" x2="61.415" y2="33.667"/>
	<line class="st1" x1="6.949" y1="62.515" x2="61.557" y2="30.987"/>
	<line class="st1" x1="3.231" y1="62.064" x2="61.44" y2="28.457"/>
	<line class="st1" x1="-1.62" y1="62.266" x2="61.498" y2="25.825"/>
	<line class="st1" x1="-1.625" y1="59.671" x2="61.567" y2="23.187"/>
	<line class="st1" x1="-1.398" y1="56.942" x2="61.477" y2="20.641"/>
	<line class="st1" x1="-1.514" y1="54.411" x2="61.651" y2="17.943"/>
	<line class="st1" x1="-1.367" y1="51.728" x2="61.481" y2="15.443"/>
	<line class="st1" x1="-1.426" y1="49.164" x2="61.624" y2="12.762"/>
	<line class="st1" x1="-1.554" y1="46.64" x2="61.559" y2="10.201"/>
	<line class="st1" x1="-1.659" y1="44.102" x2="61.506" y2="7.634"/>
	<line class="st1" x1="-1.549" y1="41.441" x2="61.496" y2="5.042"/>
	<line class="st1" x1="-1.501" y1="38.815" x2="61.691" y2="2.331"/>
	<line class="st1" x1="-1.687" y1="36.324" x2="61.659" y2="-0.249"/>
	<line class="st1" x1="-1.522" y1="33.631" x2="59.322" y2="-1.497"/>
	<line class="st1" x1="-1.64" y1="31.101" x2="55.116" y2="-1.667"/>
	<line class="st1" x1="-1.454" y1="28.396" x2="50.498" y2="-1.599"/>
	<line class="st1" x1="-1.477" y1="25.811" x2="46.01" y2="-1.606"/>
	<line class="st1" x1="-1.619" y1="23.295" x2="41.374" y2="-1.527"/>
	<line class="st1" x1="-1.589" y1="20.679" x2="36.704" y2="-1.429"/>
	<line class="st1" x1="-1.499" y1="18.029" x2="32.345" y2="-1.51"/>
	<line class="st1" x1="-1.488" y1="15.425" x2="27.96" y2="-1.577"/>
	<line class="st1" x1="-1.537" y1="12.855" x2="23.453" y2="-1.573"/>
	<line class="st1" x1="-1.447" y1="10.205" x2="19.027" y2="-1.616"/>
	<polyline class="st1" points="-1.57,7.678 -0.992,7.344 14.636,-1.679 	"/>
	<line class="st1" x1="-1.692" y1="5.15" x2="9.935" y2="-1.562"/>
	<line class="st1" x1="-1.256" y1="2.301" x2="4.909" y2="-1.259"/>
	<path class="st1" d="M0.826-1.5"/>
</g>
<g>
	<path class="st2" d="M54.1249,17.3818c-0.0002-0.1785-0.0947-0.3438-0.2499-0.4331l-8.7932-5.0777
		c-0.0859-0.2655-0.1831-0.528-0.3074-0.7812l-0.0078,0.0038c-0.0422-0.0865-0.1021-0.1652-0.1915-0.2167L32.4258,3.8618
		c-0.1201-0.0698-0.2637-0.0864-0.3965-0.0449c-0.1318,0.0405-0.2422,0.1343-0.3027,0.2588
		c-0.5318,1.0905-1.1747,2.1105-1.8921,3.062c-0.0661,0.0076-0.1318,0.0279-0.1934,0.0635L6.124,20.8462
		c-0.1542,0.0898-0.2487,0.2546-0.2489,0.4326H5.875v11.9409c0,0.7344,0.48,1.5654,1.1167,1.9326l1.1333,0.6534v9.0742
		c0,0.7354,0.4829,1.5645,1.1235,1.9277l2.8711,1.627c0.134,0.0762,0.2691,0.1195,0.403,0.1475
		c0.0966,0.1068,0.2241,0.1757,0.3627,0.1757c0.0928,0,0.1865-0.0254,0.2705-0.0801l1.5674-1.0098
		c0.6099-0.3926,1.0698-1.2363,1.0698-1.9619v-5.4796l1.2651,0.7294v9.1936c0,0.7363,0.4839,1.5645,1.125,1.9268l2.8462,1.6084
		c0.2109,0.1201,0.4272,0.1797,0.6318,0.1797c0.0968,0,0.1898-0.0169,0.2796-0.0437c0.0568,0.0215,0.1142,0.0437,0.175,0.0437
		c0.0928,0,0.1865-0.0254,0.2705-0.0801l1.5669-1.0107c0.6099-0.3926,1.0698-1.2363,1.0698-1.9619v-5.2638l0.4609,0.2657
		c0.3184,0.1846,0.7183,0.2764,1.1177,0.2764c0.3989,0,0.7974-0.0918,1.1157-0.2744c0.278-0.1599,0.6219-0.3577,1.0137-0.5831
		l2.1689,1.0939l0.003-0.0059c0.0704,0.0351,0.1452,0.0596,0.2221,0.0596c0.0859,0,0.1709-0.0225,0.248-0.0664l13.4922-7.7148
		c0.1553-0.0879,0.251-0.252,0.252-0.4307l0.0139-2.3713c0.423-0.2435,0.8372-0.4819,1.2439-0.7161v1.7856
		c0,0.1787,0.0957,0.3438,0.25,0.4326l2.25,1.2988c0.0771,0.0449,0.1641,0.0674,0.25,0.0674s0.1729-0.0225,0.25-0.0674
		l1.3838-0.7988c0.6367-0.3672,1.1133-1.2002,1.1084-1.9365l-0.03-3.9279c0.4584-0.2643,0.8586-0.4952,1.1726-0.6766
		c0.6357-0.3667,1.1152-1.1987,1.1152-1.9346V17.3818H54.1249z M43.9072,17.8179l-15.3145,8.8079v-1.6693
		c1.8384-0.9153,11.7672-6.0713,15.6261-12.4288l0.0165,0.0096C44.7716,14.678,44.1097,17.1511,43.9072,17.8179z M16.4751,18.515
		l11.1177,6.4188v1.6904l-11.1177-6.4186V18.515z M32.3838,4.9922l11.2773,6.5117c-3.4375,6.3018-13.8516,11.7212-15.5503,12.5742
		l-10.9917-6.3462C20.0117,16.5142,28.4883,12.4287,32.3838,4.9922z M27.9144,9.3595c-5.1128,5.2333-12.0197,7.7867-12.1092,7.8192
		c-0.1831,0.0664-0.311,0.2324-0.3281,0.4263c-0.0013,0.0155,0.0087,0.0286,0.0087,0.0439h-0.0107v2.8452
		c0,0.1787,0.0952,0.3438,0.25,0.4331l12.1177,6.9961c0.0771,0.0444,0.1636,0.0669,0.25,0.0669c0.0859,0,0.1719-0.022,0.2495-0.0664
		l16.2319-9.3354c0.1045-0.0601,0.1836-0.1558,0.2236-0.269c0.0463-0.1336,0.8885-2.6199,0.5736-5.1262l7.2526,4.1877
		L26.5723,32.3633L7.373,21.2778L27.9144,9.3595z M13.625,26.0422l3.4331,1.9822v4.1162l-3.4331-1.9824V26.0422z M9.7422,45.9385
		C9.4189,45.7549,9.125,45.251,9.125,44.8799v-8.4976l3.6108,2.0817v9.0292c0,0.0654-0.0098,0.1074-0.0015,0.1201
		c-0.0229-0.0039-0.0645-0.0156-0.1216-0.0479L9.7422,45.9385z M14.793,45.7061c0,0.3809-0.2915,0.915-0.6118,1.1221l-0.4453,0.2869
		v-8.0745L14.793,39.65V45.7061z M18.6748,51.2051c-0.3228-0.1816-0.6167-0.6855-0.6167-1.0557v-8.6171l3.559,2.0518l0.027,9.159
		c0,0.0654-0.0093,0.1074-0.0015,0.1201c-0.0229-0.0039-0.064-0.0166-0.1206-0.0488L18.6748,51.2051z M24.0229,50.8115
		c0,0.3809-0.2915,0.915-0.6118,1.1221l-0.768,0.4954l-0.0244-8.2673l1.4042,0.8095V50.8115z M7.4907,34.2852
		c-0.3223-0.1855-0.6157-0.6934-0.6157-1.0654V22.145l5.75,3.3199v4.9819c0,0.1787,0.0952,0.3438,0.25,0.4331l4.4331,2.5596
		c0.0771,0.0449,0.1636,0.0674,0.25,0.0674s0.1729-0.0225,0.25-0.0674c0.1548-0.0889,0.25-0.2539,0.25-0.4326v-4.405l8.0137,4.6269
		V44.98c-0.0281-0.0123-0.0632-0.0181-0.0884-0.0327L7.4907,34.2852z M29.7682,44.6357c0.2702-0.1555,0.5579-0.3209,0.8568-0.4929
		v0.9249L29.7682,44.6357z M44.1191,37.874L31.625,45.0176v-1.4499c3.4579-1.9891,8.2477-4.7446,12.5027-7.1935L44.1191,37.874z
		 M47.375,34.5049c0.4301-0.2476,0.8488-0.4887,1.25-0.7197v3.514l-1.25-0.722V34.5049z M50.8672,35.8701
		c0.0029,0.3711-0.2871,0.8779-0.6084,1.0635l-0.6338,0.3652v-4.0897c0.431-0.2484,0.8381-0.4828,1.2165-0.7008L50.8672,35.8701z
		 M52.5098,30.3921c-4.0625,2.3472-21.2227,12.2163-25.291,14.5562c-0.0419,0.024-0.0974,0.0363-0.147,0.0541V33.23L53.125,18.2462
		v11.077C53.125,29.6968,52.832,30.2061,52.5098,30.3921z"/>
	<path class="st2" d="M10.862,42.244c-0.505-0.292-0.915-0.119-0.915,0.387c0,0.506,0.41,1.152,0.915,1.444s0.915,0.118,0.915-0.387
		S11.367,42.536,10.862,42.244z"/>
	<path class="st2" d="M19.877,47.635c-0.505-0.292-0.915-0.119-0.915,0.387c0,0.506,0.41,1.152,0.915,1.444s0.915,0.118,0.915-0.387
		S20.383,47.928,19.877,47.635z"/>
</g>
</svg>
