<?xml version="1.0" encoding="utf-8"?>
<!-- Generator: Adobe Illustrator 21.0.0, SVG Export Plug-In . SVG Version: 6.00 Build 0)  -->
<svg version="1.1" id="Layer_1" xmlns="http://www.w3.org/2000/svg" xmlns:xlink="http://www.w3.org/1999/xlink" x="0px" y="0px"
	 viewBox="0 0 60 60" style="enable-background:new 0 0 60 60;" xml:space="preserve">
<style type="text/css">
	.st0{display:none;opacity:0.2;}
	.st1{display:inline;fill:none;stroke:#00ADEE;stroke-width:0.125;stroke-miterlimit:10;}
	.st2{fill:#231F20;}
</style>
<g class="st0">
	<path class="st1" d="M-0.375-1.557"/>
	<line class="st1" x1="1.875" y1="62.156" x2="1.875" y2="-1.36"/>
	<line class="st1" x1="4.125" y1="62.353" x2="4.125" y2="-1.557"/>
	<line class="st1" x1="6.375" y1="61.959" x2="6.375" y2="-1.311"/>
	<line class="st1" x1="8.625" y1="62.746" x2="8.625" y2="-1.655"/>
	<line class="st1" x1="10.875" y1="62.353" x2="10.875" y2="-1.508"/>
	<line class="st1" x1="13.125" y1="62.5" x2="13.125" y2="-1.606"/>
	<line class="st1" x1="15.375" y1="62.353" x2="15.375" y2="-1.557"/>
	<line class="st1" x1="17.625" y1="62.5" x2="17.625" y2="-1.902"/>
	<line class="st1" x1="19.875" y1="62.156" x2="19.875" y2="-1.655"/>
	<line class="st1" x1="22.125" y1="62.303" x2="22.125" y2="-1.852"/>
	<line class="st1" x1="24.375" y1="62.106" x2="24.375" y2="-1.458"/>
	<line class="st1" x1="26.625" y1="62.254" x2="26.625" y2="-1.508"/>
	<line class="st1" x1="28.875" y1="62.303" x2="28.875" y2="-1.508"/>
	<line class="st1" x1="31.125" y1="62.057" x2="31.125" y2="-1.458"/>
	<line class="st1" x1="33.375" y1="62.106" x2="33.375" y2="-1.409"/>
	<line class="st1" x1="35.625" y1="62.353" x2="35.625" y2="-1.606"/>
	<line class="st1" x1="37.875" y1="62.156" x2="37.875" y2="-1.557"/>
	<line class="st1" x1="40.125" y1="62.451" x2="40.125" y2="-1.508"/>
	<line class="st1" x1="42.375" y1="62.254" x2="42.375" y2="-1.36"/>
	<line class="st1" x1="44.625" y1="62.106" x2="44.625" y2="-1.508"/>
	<line class="st1" x1="46.875" y1="62.156" x2="46.875" y2="-1.508"/>
	<line class="st1" x1="49.125" y1="62.106" x2="49.125" y2="-1.508"/>
	<line class="st1" x1="51.375" y1="61.86" x2="51.375" y2="-1.557"/>
	<line class="st1" x1="53.625" y1="62.156" x2="53.625" y2="-1.754"/>
	<line class="st1" x1="55.875" y1="62.156" x2="55.875" y2="-1.606"/>
	<line class="st1" x1="58.125" y1="62.451" x2="58.125" y2="-1.606"/>
	<line class="st1" x1="0.707" y1="62.173" x2="-1.49" y2="60.904"/>
	<line class="st1" x1="5.116" y1="62.12" x2="-1.544" y2="58.275"/>
	<line class="st1" x1="9.971" y1="62.325" x2="-1.555" y2="55.67"/>
	<line class="st1" x1="14.59" y1="62.394" x2="-1.607" y2="53.042"/>
	<line class="st1" x1="18.865" y1="62.263" x2="-1.499" y2="50.506"/>
	<line class="st1" x1="23.182" y1="62.158" x2="-1.459" y2="47.931"/>
	<line class="st1" x1="27.736" y1="62.189" x2="-1.529" y2="45.293"/>
	<line class="st1" x1="32.049" y1="62.081" x2="-1.465" y2="42.732"/>
	<line class="st1" x1="36.749" y1="62.196" x2="-1.522" y2="40.101"/>
	<line class="st1" x1="41.271" y1="62.209" x2="-1.645" y2="37.431"/>
	<line class="st1" x1="45.801" y1="62.226" x2="-1.572" y2="34.876"/>
	<line class="st1" x1="50.08" y1="62.099" x2="-1.576" y2="32.275"/>
	<line class="st1" x1="54.737" y1="62.19" x2="-1.594" y2="29.667"/>
	<line class="st1" x1="59.428" y1="62.3" x2="-1.647" y2="27.038"/>
	<line class="st1" x1="61.539" y1="60.921" x2="-1.545" y2="24.499"/>
	<line class="st1" x1="61.758" y1="58.449" x2="-1.458" y2="21.951"/>
	<line class="st1" x1="61.545" y1="55.728" x2="-1.525" y2="19.314"/>
	<line class="st1" x1="61.597" y1="53.16" x2="-1.558" y2="16.697"/>
	<line class="st1" x1="61.527" y1="50.521" x2="-1.469" y2="14.15"/>
	<line class="st1" x1="61.65" y1="47.994" x2="-1.472" y2="11.551"/>
	<line class="st1" x1="61.538" y1="45.331" x2="-1.42" y2="8.983"/>
	<line class="st1" x1="61.48" y1="42.7" x2="-1.375" y2="6.41"/>
	<polyline class="st1" points="61.578,40.158 -1.135,3.951 -1.529,3.723 	"/>
	<polyline class="st1" points="61.514,37.524 -1.248,1.288 -2.111,0.79 	"/>
	<polyline class="st1" points="61.544,34.943 0,-0.59 -1.761,-1.606 	"/>
	<line class="st1" x1="61.353" y1="32.234" x2="2.933" y2="-1.494"/>
	<line class="st1" x1="61.482" y1="29.711" x2="7.489" y2="-1.462"/>
	<line class="st1" x1="61.479" y1="27.111" x2="11.988" y2="-1.463"/>
	<line class="st1" x1="61.458" y1="24.501" x2="16.186" y2="-1.637"/>
	<line class="st1" x1="61.361" y1="21.847" x2="20.651" y2="-1.657"/>
	<line class="st1" x1="61.563" y1="19.365" x2="25.485" y2="-1.464"/>
	<line class="st1" x1="61.605" y1="16.791" x2="30.1" y2="-1.398"/>
	<line class="st1" x1="61.433" y1="14.094" x2="34.593" y2="-1.402"/>
	<line class="st1" x1="61.589" y1="11.586" x2="38.944" y2="-1.488"/>
	<line class="st1" x1="61.366" y1="8.86" x2="43.447" y2="-1.486"/>
	<line class="st1" x1="61.599" y1="6.396" x2="48.098" y2="-1.399"/>
	<line class="st1" x1="61.587" y1="3.79" x2="52.221" y2="-1.617"/>
	<line class="st1" x1="61.605" y1="1.203" x2="56.949" y2="-1.485"/>
	<path class="st1" d="M61.536-1.435"/>
	<path class="st1" d="M-57.75-91.089"/>
	<path class="st1" d="M-56.625-93.038"/>
	<path class="st1" d="M-55.5-94.987"/>
	<path class="st1" d="M-54.375-96.935"/>
	<path class="st1" d="M-53.25-98.884"/>
	<path class="st1" d="M-52.125-100.832"/>
	<path class="st1" d="M-51-102.781"/>
	<path class="st1" d="M-49.875-104.729"/>
	<path class="st1" d="M-48.75-106.678"/>
	<path class="st1" d="M61.631,62.121"/>
	<line class="st1" x1="56.838" y1="62.29" x2="61.535" y2="59.579"/>
	<line class="st1" x1="52.761" y1="62.046" x2="61.655" y2="56.911"/>
	<line class="st1" x1="48.248" y1="62.054" x2="61.639" y2="54.322"/>
	<line class="st1" x1="43.747" y1="62.054" x2="61.555" y2="51.773"/>
	<line class="st1" x1="38.977" y1="62.211" x2="61.555" y2="49.175"/>
	<line class="st1" x1="34.718" y1="62.071" x2="61.602" y2="46.55"/>
	<line class="st1" x1="30.312" y1="62.017" x2="61.607" y2="43.949"/>
	<line class="st1" x1="25.399" y1="62.256" x2="61.575" y2="41.369"/>
	<line class="st1" x1="21.12" y1="62.128" x2="61.516" y2="38.805"/>
	<line class="st1" x1="16.295" y1="62.315" x2="61.616" y2="36.149"/>
	<line class="st1" x1="11.778" y1="62.325" x2="61.415" y2="33.667"/>
	<line class="st1" x1="6.949" y1="62.515" x2="61.557" y2="30.987"/>
	<line class="st1" x1="3.231" y1="62.064" x2="61.44" y2="28.457"/>
	<line class="st1" x1="-1.62" y1="62.266" x2="61.498" y2="25.825"/>
	<line class="st1" x1="-1.625" y1="59.671" x2="61.567" y2="23.187"/>
	<line class="st1" x1="-1.398" y1="56.942" x2="61.477" y2="20.641"/>
	<line class="st1" x1="-1.514" y1="54.411" x2="61.651" y2="17.943"/>
	<line class="st1" x1="-1.367" y1="51.728" x2="61.481" y2="15.443"/>
	<line class="st1" x1="-1.426" y1="49.164" x2="61.624" y2="12.762"/>
	<line class="st1" x1="-1.554" y1="46.64" x2="61.559" y2="10.201"/>
	<line class="st1" x1="-1.659" y1="44.102" x2="61.506" y2="7.634"/>
	<line class="st1" x1="-1.549" y1="41.441" x2="61.496" y2="5.042"/>
	<line class="st1" x1="-1.501" y1="38.815" x2="61.691" y2="2.331"/>
	<line class="st1" x1="-1.687" y1="36.324" x2="61.659" y2="-0.249"/>
	<line class="st1" x1="-1.522" y1="33.631" x2="59.322" y2="-1.497"/>
	<line class="st1" x1="-1.64" y1="31.101" x2="55.116" y2="-1.667"/>
	<line class="st1" x1="-1.454" y1="28.396" x2="50.498" y2="-1.599"/>
	<line class="st1" x1="-1.477" y1="25.811" x2="46.01" y2="-1.606"/>
	<line class="st1" x1="-1.619" y1="23.295" x2="41.374" y2="-1.527"/>
	<line class="st1" x1="-1.589" y1="20.679" x2="36.704" y2="-1.429"/>
	<line class="st1" x1="-1.499" y1="18.029" x2="32.345" y2="-1.51"/>
	<line class="st1" x1="-1.488" y1="15.425" x2="27.96" y2="-1.577"/>
	<line class="st1" x1="-1.537" y1="12.855" x2="23.453" y2="-1.573"/>
	<line class="st1" x1="-1.447" y1="10.205" x2="19.027" y2="-1.616"/>
	<polyline class="st1" points="-1.57,7.678 -0.992,7.344 14.636,-1.679 	"/>
	<line class="st1" x1="-1.692" y1="5.15" x2="9.935" y2="-1.562"/>
	<line class="st1" x1="-1.256" y1="2.301" x2="4.909" y2="-1.259"/>
	<path class="st1" d="M0.826-1.5"/>
</g>
<g>
	<path class="st2" d="M49.3672,10.4677c-0.0049-0.0593-0.02-0.1147-0.0453-0.1687c-0.009-0.0193-0.0145-0.0383-0.026-0.0563
		c-0.04-0.0635-0.0906-0.121-0.1591-0.1626L42.756,6.2113l0.6737-0.5848c0.123-0.1069,0.1855-0.2666,0.1689-0.4287
		s-0.1113-0.3062-0.2539-0.3853l-4.6396-2.5869c-0.1846-0.1025-0.4111-0.0781-0.5713,0.0591L21.8391,16.4355l-10.2839,5.8691
		c-0.0722,0.0412-0.1248,0.1003-0.1669,0.1657c-0.0118,0.0183-0.0187,0.0371-0.0281,0.0568
		c-0.026,0.0547-0.0411,0.1111-0.0461,0.1715c-0.0012,0.0141-0.0108,0.0257-0.0108,0.04v21.4058c0,0.1787,0.0952,0.3438,0.25,0.4326
		l4.8779,2.8167v5.0485c0,0.8232,0.561,1.7861,1.2773,2.1914l3.3799,1.916c0.2344,0.1318,0.4736,0.1992,0.6997,0.1992
		c0.187,0,0.3647-0.0459,0.5225-0.1387c0.1008-0.0589,0.185-0.1382,0.2596-0.2275l0.0157,0.0302l1.6157-0.8408
		c0.7368-0.3828,1.3135-1.333,1.3135-2.1631v-7.4524l1.6118-0.9291v1.4987c0,0.8232,0.561,1.7861,1.2773,2.1914l3.3799,1.916
		c0.2344,0.1318,0.4736,0.1992,0.6992,0.1992c0.0271,0,0.0521-0.0081,0.0787-0.01c0.0015,0,0.0027,0.0012,0.0043,0.0012
		c0.0053,0,0.0105-0.0035,0.0159-0.0037c0.1503-0.0136,0.2949-0.0502,0.4236-0.1262c0.0381-0.0222,0.0674-0.0551,0.1019-0.0818
		l1.6823-0.842c0.7051-0.4375,1.2363-1.3936,1.2363-2.2227v-7.6496l1.665-0.9597v1.123c0,0.8242,0.5605,1.7871,1.2773,2.1924
		l3.3799,1.916c0.2344,0.1318,0.4736,0.1992,0.6992,0.1992c0.1875,0,0.3652-0.0459,0.5234-0.1387
		c0.0837-0.0489,0.1577-0.1103,0.2234-0.1804l1.7404-1.0814c0.7051-0.4375,1.2363-1.3936,1.2363-2.2227v-7.0412l2.3564-1.3582
		c0.1543-0.0898,0.25-0.2549,0.25-0.4336V10.5078C49.3779,10.4935,49.3684,10.4818,49.3672,10.4677z M48.3779,14.7521
		l-14.8916,8.5662l-0.0242-3.2733l14.9158-8.6686V14.7521z M47.8989,10.4988l-14.918,8.6696l-2.8912-1.9622L41.9629,6.8997
		L47.8989,10.4988z M38.5244,3.2695l3.7109,2.0693L21.1343,23.6563l-3.5547-2.1973l4.8405-4.2037l0.183-0.1044
		c0.0928-0.0529,0.1539-0.1348,0.1961-0.2248L38.5244,3.2695z M16.4111,21.1494c-0.1201,0.104-0.1836,0.2593-0.1709,0.418
		c0.0132,0.1582,0.1006,0.3013,0.2358,0.3848l4.4453,2.748c0.0811,0.0503,0.1719,0.0747,0.2627,0.0747
		c0.1177,0,0.2344-0.0415,0.3276-0.1226l7.7967-6.7679l2.7131,1.8416l-12.2715,7.1317l-6.9518-4.111l5.174-2.9528L16.4111,21.1494z
		 M12.3032,23.6152l6.9443,4.1069l-0.0234,20.1304l-6.9209-3.9971V23.6152z M21.8071,55.7471
		c-0.0142,0.0039-0.0903,0.0088-0.2266-0.0674l-3.3794-1.916c-0.4102-0.2314-0.77-0.8496-0.77-1.3213v-4.4711l2.042,1.1791
		c0.0004,0.0002,0.001,0.0001,0.0014,0.0004c0.0698,0.0399,0.149,0.0584,0.2292,0.0618c0.0067,0.0002,0.0127,0.0052,0.0194,0.0052
		c0.0001,0,0.0002-0.0001,0.0002-0.0001s0.0002,0.0001,0.0002,0.0001c0.0845,0,0.1704-0.0215,0.249-0.0664l1.8853-1.0866v7.4518
		C21.8579,55.6748,21.8169,55.7393,21.8071,55.7471z M24.5151,53.4092c0,0.4648-0.3618,1.0615-0.7749,1.2764l-0.8823,0.459v-7.6563
		l1.6572-0.9552V53.4092z M28.897,47.8477c-0.4102-0.2314-0.77-0.8496-0.77-1.3213v-2.075l4.4268-2.5515v7.7007
		c0,0.0974-0.0142,0.1503-0.0284,0.1852l-0.085,0.0424c-0.0383-0.0072-0.0919-0.0242-0.1639-0.0646L28.897,47.8477z
		 M35.0264,47.5479c0,0.4785-0.3574,1.1201-0.7236,1.3506l-0.749,0.374v-7.949l1.4727-0.8488V47.5479z M39.4609,41.3848
		c-0.4102-0.2324-0.7695-0.8506-0.7695-1.3232v-1.6994l4.4268-2.5515v7.3261c0,0.0782-0.0101,0.133-0.0215,0.1699l-0.0916,0.0569
		c-0.0386-0.0068-0.0918-0.0228-0.1652-0.0637L39.4609,41.3848z M45.7715,40.7461c0,0.4785-0.3574,1.1201-0.7637,1.373
		l-0.8896,0.5527v-7.4376l1.6533-0.9529V40.7461z M20.2242,47.8516l0.0235-20.1266l12.2188-7.1011l0.0267,3.5593
		c0.001,0.1777,0.0967,0.3413,0.251,0.4297c0.0771,0.0444,0.1631,0.0664,0.249,0.0664s0.1719-0.022,0.249-0.0664l15.1357-8.707
		V31.624L20.2242,47.8516z"/>
	<path class="st2" d="M40.824,38.137c-0.595-0.3441-1.077-0.14-1.077,0.455c0,0.595,0.482,1.356,1.077,1.699
		c0.595,0.344,1.077,0.14,1.077-0.455S41.418,38.481,40.824,38.137z"/>
	<path class="st2" d="M30.26,44.601c-0.595-0.344-1.077-0.14-1.077,0.455c0,0.595,0.482,1.355,1.077,1.699
		c0.595,0.344,1.077,0.14,1.077-0.455C31.337,45.705,30.855,44.945,30.26,44.601z"/>
	<path class="st2" d="M19.564,50.517c-0.595-0.344-1.077-0.14-1.077,0.455c0,0.595,0.482,1.356,1.077,1.699
		c0.595,0.344,1.077,0.14,1.077-0.455C20.641,51.622,20.159,50.861,19.564,50.517z"/>
	<path class="st2" d="M28.0552,35.2432c-0.5083-0.0967-1.0386,0.0234-1.4927,0.3359c-0.5566,0.3828-0.9521,1.0186-1.084,1.7441
		c-0.249,1.3643,0.4985,2.6533,1.667,2.8721c0.1143,0.0215,0.2295,0.0322,0.3447,0.0322c0.3979,0,0.7959-0.126,1.1479-0.3682
		c0.5566-0.3828,0.9521-1.0186,1.0845-1.7441C29.9717,36.752,29.2236,35.4639,28.0552,35.2432z M28.7393,37.9355
		c-0.0854,0.4658-0.3286,0.8662-0.6675,1.0996c-0.165,0.1143-0.4253,0.2402-0.7417,0.1777c-0.6294-0.1182-1.0186-0.8857-0.8682-1.71
		c0.085-0.4658,0.3281-0.8662,0.667-1.0996c0.1357-0.0928,0.3369-0.1924,0.5786-0.1924c0.0522,0,0.1069,0.0039,0.1626,0.0146
		C28.4995,36.3447,28.8896,37.1113,28.7393,37.9355z"/>
	<path class="st2" d="M41.2783,27.708c-0.5088-0.0947-1.0381,0.0239-1.4932,0.3359c-0.5566,0.3828-0.9521,1.019-1.084,1.7441
		c-0.249,1.3643,0.499,2.6533,1.668,2.8721c0.1143,0.0215,0.2295,0.0322,0.3447,0.0322c0.3975,0,0.7959-0.126,1.1475-0.3682
		c0.5566-0.3828,0.9521-1.0186,1.085-1.7441C43.1953,29.2168,42.4473,27.9282,41.2783,27.708z M41.9619,30.4004
		c-0.085,0.4658-0.3281,0.8662-0.667,1.0996c-0.165,0.1143-0.4258,0.2373-0.7422,0.1777c-0.6289-0.1182-1.0176-0.8853-0.8672-1.7104
		c0.084-0.4653,0.3271-0.8662,0.667-1.0996c0.1348-0.0928,0.3359-0.1924,0.5771-0.1924c0.0527,0,0.1074,0.0049,0.1631,0.0151
		C41.7227,28.8096,42.1123,29.5767,41.9619,30.4004z"/>
</g>
</svg>
