<?xml version="1.0" encoding="utf-8"?>
<!-- Generator: Adobe Illustrator 21.0.0, SVG Export Plug-In . SVG Version: 6.00 Build 0)  -->
<svg version="1.1" id="Layer_1" xmlns="http://www.w3.org/2000/svg" xmlns:xlink="http://www.w3.org/1999/xlink" x="0px" y="0px"
	 viewBox="0 0 60 60" style="enable-background:new 0 0 60 60;" xml:space="preserve">
<style type="text/css">
	.st0{display:none;opacity:0.2;}
	.st1{display:inline;fill:none;stroke:#00ADEE;stroke-width:0.125;stroke-miterlimit:10;}
	.st2{fill:#231F20;}
</style>
<g class="st0">
	<path class="st1" d="M-0.375-1.557"/>
	<line class="st1" x1="1.875" y1="62.156" x2="1.875" y2="-1.36"/>
	<line class="st1" x1="4.125" y1="62.353" x2="4.125" y2="-1.557"/>
	<line class="st1" x1="6.375" y1="61.959" x2="6.375" y2="-1.311"/>
	<line class="st1" x1="8.625" y1="62.746" x2="8.625" y2="-1.655"/>
	<line class="st1" x1="10.875" y1="62.353" x2="10.875" y2="-1.508"/>
	<line class="st1" x1="13.125" y1="62.5" x2="13.125" y2="-1.606"/>
	<line class="st1" x1="15.375" y1="62.353" x2="15.375" y2="-1.557"/>
	<line class="st1" x1="17.625" y1="62.5" x2="17.625" y2="-1.902"/>
	<line class="st1" x1="19.875" y1="62.156" x2="19.875" y2="-1.655"/>
	<line class="st1" x1="22.125" y1="62.303" x2="22.125" y2="-1.852"/>
	<line class="st1" x1="24.375" y1="62.106" x2="24.375" y2="-1.458"/>
	<line class="st1" x1="26.625" y1="62.254" x2="26.625" y2="-1.508"/>
	<line class="st1" x1="28.875" y1="62.303" x2="28.875" y2="-1.508"/>
	<line class="st1" x1="31.125" y1="62.057" x2="31.125" y2="-1.458"/>
	<line class="st1" x1="33.375" y1="62.106" x2="33.375" y2="-1.409"/>
	<line class="st1" x1="35.625" y1="62.353" x2="35.625" y2="-1.606"/>
	<line class="st1" x1="37.875" y1="62.156" x2="37.875" y2="-1.557"/>
	<line class="st1" x1="40.125" y1="62.451" x2="40.125" y2="-1.508"/>
	<line class="st1" x1="42.375" y1="62.254" x2="42.375" y2="-1.36"/>
	<line class="st1" x1="44.625" y1="62.106" x2="44.625" y2="-1.508"/>
	<line class="st1" x1="46.875" y1="62.156" x2="46.875" y2="-1.508"/>
	<line class="st1" x1="49.125" y1="62.106" x2="49.125" y2="-1.508"/>
	<line class="st1" x1="51.375" y1="61.86" x2="51.375" y2="-1.557"/>
	<line class="st1" x1="53.625" y1="62.156" x2="53.625" y2="-1.754"/>
	<line class="st1" x1="55.875" y1="62.156" x2="55.875" y2="-1.606"/>
	<line class="st1" x1="58.125" y1="62.451" x2="58.125" y2="-1.606"/>
	<line class="st1" x1="0.707" y1="62.173" x2="-1.49" y2="60.904"/>
	<line class="st1" x1="5.116" y1="62.12" x2="-1.544" y2="58.275"/>
	<line class="st1" x1="9.971" y1="62.325" x2="-1.555" y2="55.67"/>
	<line class="st1" x1="14.59" y1="62.394" x2="-1.607" y2="53.042"/>
	<line class="st1" x1="18.865" y1="62.263" x2="-1.499" y2="50.506"/>
	<line class="st1" x1="23.182" y1="62.158" x2="-1.459" y2="47.931"/>
	<line class="st1" x1="27.736" y1="62.189" x2="-1.529" y2="45.293"/>
	<line class="st1" x1="32.049" y1="62.081" x2="-1.465" y2="42.732"/>
	<line class="st1" x1="36.749" y1="62.196" x2="-1.522" y2="40.101"/>
	<line class="st1" x1="41.271" y1="62.209" x2="-1.645" y2="37.431"/>
	<line class="st1" x1="45.801" y1="62.226" x2="-1.572" y2="34.876"/>
	<line class="st1" x1="50.08" y1="62.099" x2="-1.576" y2="32.275"/>
	<line class="st1" x1="54.737" y1="62.19" x2="-1.594" y2="29.667"/>
	<line class="st1" x1="59.428" y1="62.3" x2="-1.647" y2="27.038"/>
	<line class="st1" x1="61.539" y1="60.921" x2="-1.545" y2="24.499"/>
	<line class="st1" x1="61.758" y1="58.449" x2="-1.458" y2="21.951"/>
	<line class="st1" x1="61.545" y1="55.728" x2="-1.525" y2="19.314"/>
	<line class="st1" x1="61.597" y1="53.16" x2="-1.558" y2="16.697"/>
	<line class="st1" x1="61.527" y1="50.521" x2="-1.469" y2="14.15"/>
	<line class="st1" x1="61.65" y1="47.994" x2="-1.472" y2="11.551"/>
	<line class="st1" x1="61.538" y1="45.331" x2="-1.42" y2="8.983"/>
	<line class="st1" x1="61.48" y1="42.7" x2="-1.375" y2="6.41"/>
	<polyline class="st1" points="61.578,40.158 -1.135,3.951 -1.529,3.723 	"/>
	<polyline class="st1" points="61.514,37.524 -1.248,1.288 -2.111,0.79 	"/>
	<polyline class="st1" points="61.544,34.943 0,-0.59 -1.761,-1.606 	"/>
	<line class="st1" x1="61.353" y1="32.234" x2="2.933" y2="-1.494"/>
	<line class="st1" x1="61.482" y1="29.711" x2="7.489" y2="-1.462"/>
	<line class="st1" x1="61.479" y1="27.111" x2="11.988" y2="-1.463"/>
	<line class="st1" x1="61.458" y1="24.501" x2="16.186" y2="-1.637"/>
	<line class="st1" x1="61.361" y1="21.847" x2="20.651" y2="-1.657"/>
	<line class="st1" x1="61.563" y1="19.365" x2="25.485" y2="-1.464"/>
	<line class="st1" x1="61.605" y1="16.791" x2="30.1" y2="-1.398"/>
	<line class="st1" x1="61.433" y1="14.094" x2="34.593" y2="-1.402"/>
	<line class="st1" x1="61.589" y1="11.586" x2="38.944" y2="-1.488"/>
	<line class="st1" x1="61.366" y1="8.86" x2="43.447" y2="-1.486"/>
	<line class="st1" x1="61.599" y1="6.396" x2="48.098" y2="-1.399"/>
	<line class="st1" x1="61.587" y1="3.79" x2="52.221" y2="-1.617"/>
	<line class="st1" x1="61.605" y1="1.203" x2="56.949" y2="-1.485"/>
	<path class="st1" d="M61.536-1.435"/>
	<path class="st1" d="M-57.75-91.089"/>
	<path class="st1" d="M-56.625-93.038"/>
	<path class="st1" d="M-55.5-94.987"/>
	<path class="st1" d="M-54.375-96.935"/>
	<path class="st1" d="M-53.25-98.884"/>
	<path class="st1" d="M-52.125-100.832"/>
	<path class="st1" d="M-51-102.781"/>
	<path class="st1" d="M-49.875-104.729"/>
	<path class="st1" d="M-48.75-106.678"/>
	<path class="st1" d="M61.631,62.121"/>
	<line class="st1" x1="56.838" y1="62.29" x2="61.535" y2="59.579"/>
	<line class="st1" x1="52.761" y1="62.046" x2="61.655" y2="56.911"/>
	<line class="st1" x1="48.248" y1="62.054" x2="61.639" y2="54.322"/>
	<line class="st1" x1="43.747" y1="62.054" x2="61.555" y2="51.773"/>
	<line class="st1" x1="38.977" y1="62.211" x2="61.555" y2="49.175"/>
	<line class="st1" x1="34.718" y1="62.071" x2="61.602" y2="46.55"/>
	<line class="st1" x1="30.312" y1="62.017" x2="61.607" y2="43.949"/>
	<line class="st1" x1="25.399" y1="62.256" x2="61.575" y2="41.369"/>
	<line class="st1" x1="21.12" y1="62.128" x2="61.516" y2="38.805"/>
	<line class="st1" x1="16.295" y1="62.315" x2="61.616" y2="36.149"/>
	<line class="st1" x1="11.778" y1="62.325" x2="61.415" y2="33.667"/>
	<line class="st1" x1="6.949" y1="62.515" x2="61.557" y2="30.987"/>
	<line class="st1" x1="3.231" y1="62.064" x2="61.44" y2="28.457"/>
	<line class="st1" x1="-1.62" y1="62.266" x2="61.498" y2="25.825"/>
	<line class="st1" x1="-1.625" y1="59.671" x2="61.567" y2="23.187"/>
	<line class="st1" x1="-1.398" y1="56.942" x2="61.477" y2="20.641"/>
	<line class="st1" x1="-1.514" y1="54.411" x2="61.651" y2="17.943"/>
	<line class="st1" x1="-1.367" y1="51.728" x2="61.481" y2="15.443"/>
	<line class="st1" x1="-1.426" y1="49.164" x2="61.624" y2="12.762"/>
	<line class="st1" x1="-1.554" y1="46.64" x2="61.559" y2="10.201"/>
	<line class="st1" x1="-1.659" y1="44.102" x2="61.506" y2="7.634"/>
	<line class="st1" x1="-1.549" y1="41.441" x2="61.496" y2="5.042"/>
	<line class="st1" x1="-1.501" y1="38.815" x2="61.691" y2="2.331"/>
	<line class="st1" x1="-1.687" y1="36.324" x2="61.659" y2="-0.249"/>
	<line class="st1" x1="-1.522" y1="33.631" x2="59.322" y2="-1.497"/>
	<line class="st1" x1="-1.64" y1="31.101" x2="55.116" y2="-1.667"/>
	<line class="st1" x1="-1.454" y1="28.396" x2="50.498" y2="-1.599"/>
	<line class="st1" x1="-1.477" y1="25.811" x2="46.01" y2="-1.606"/>
	<line class="st1" x1="-1.619" y1="23.295" x2="41.374" y2="-1.527"/>
	<line class="st1" x1="-1.589" y1="20.679" x2="36.704" y2="-1.429"/>
	<line class="st1" x1="-1.499" y1="18.029" x2="32.345" y2="-1.51"/>
	<line class="st1" x1="-1.488" y1="15.425" x2="27.96" y2="-1.577"/>
	<line class="st1" x1="-1.537" y1="12.855" x2="23.453" y2="-1.573"/>
	<line class="st1" x1="-1.447" y1="10.205" x2="19.027" y2="-1.616"/>
	<polyline class="st1" points="-1.57,7.678 -0.992,7.344 14.636,-1.679 	"/>
	<line class="st1" x1="-1.692" y1="5.15" x2="9.935" y2="-1.562"/>
	<line class="st1" x1="-1.256" y1="2.301" x2="4.909" y2="-1.259"/>
	<path class="st1" d="M0.826-1.5"/>
</g>
<g>
	<path class="st2" d="M42.4257,6.3033c-0.0239-0.0217-0.0425-0.0477-0.0712-0.065L37.8994,3.564
		c-1.5967-0.9209-4.0996-0.9219-5.6963,0c-1.6504,0.9531-3.4243,1.9883-5.3623,3.1201l-0.2612,0.1526V3.5488
		c0-0.6968-0.8799-1.2217-2.0474-1.2217c-1.1653,0-2.0439,0.5231-2.0472,1.2178c0,0.0015-0.0016,0.0024-0.0016,0.0038v5.7316
		c-0.0685,0.0071-0.1365,0.0263-0.1997,0.0634c-0.9058,0.5269-1.5229,0.8857-2.3218,1.3462
		c-1.5977,0.9219-2.8491,3.0889-2.8491,4.9331v35.9443c0,1.8438,0.9541,3.8359,2.1724,4.5371
		c1.0684,0.6133,4.8003,2.334,4.959,2.4072c0.0024,0.0012,0.0051,0.0005,0.0076,0.0016c0.0262,0.0172,0.0452,0.043,0.0725,0.0589
		c0.2832,0.1641,0.6001,0.2461,0.938,0.2461c0.4409,0,0.918-0.1396,1.4033-0.416l13.814-7.8789
		c1.6016-0.915,2.8564-3.0771,2.8564-4.9219V8.3379C43.3359,7.4093,43.0075,6.7008,42.4257,6.3033z M23.083,4.4273
		c0.3652,0.2144,0.8715,0.3437,1.4492,0.3437c0.5771,0,1.0828-0.1291,1.4478-0.3431v7.5433c0,0.2534-0.564,0.6221-1.4478,0.6221
		s-1.4482-0.3687-1.4482-0.6221c0-0.0009-0.001-0.0015-0.001-0.0024V4.4273z M24.5322,2.9268c0.8838,0,1.4478,0.3687,1.4478,0.6221
		c0,0.2539-0.564,0.6226-1.4478,0.6226S23.084,3.8027,23.084,3.5488C23.084,3.2954,23.6484,2.9268,24.5322,2.9268z M18.1128,51.5674
		V15.623c0-1.4697,1.0757-3.332,2.3491-4.0669c0.704-0.4062,1.2782-0.7393,2.0215-1.1718v1.5868
		c0,0.0015,0.0016,0.0024,0.0016,0.0038c0.0033,0.6947,0.882,1.2178,2.0472,1.2178c1.1675,0,2.0474-0.5249,2.0474-1.2217V7.9444
		c0.0543-0.0103,0.1098-0.014,0.1602-0.0435l0.6055-0.353c1.9365-1.1309,3.7085-2.1655,5.3579-3.1177
		c1.2725-0.7334,3.4229-0.7349,4.6885-0.0044l2.9808,1.7896c-0.1297,0.0547-0.2585,0.1005-0.39,0.1753L26.1694,14.27
		c-1.6025,0.9136-2.8574,3.0747-2.8574,4.9199v37.2642c0,0.1935,0.0249,0.37,0.0521,0.5445
		c-1.2159-0.571-2.9389-1.3929-3.5804-1.7613C18.8779,54.7168,18.1128,53.0361,18.1128,51.5674z M42.3359,45.6016
		c0,1.4688-1.0771,3.3252-2.3525,4.0537l-13.813,7.8779c-0.5269,0.3008-1.0166,0.3652-1.3438,0.1738
		c-0.3271-0.1895-0.5146-0.6465-0.5146-1.2529V19.1899c0-1.4688,1.0776-3.3242,2.3525-4.0518l13.814-7.8789
		c0.3271-0.1865,0.6396-0.2817,0.9082-0.2817c0.1629,0,0.3102,0.0356,0.434,0.1073l0.0012,0.0007
		c0.3267,0.1903,0.514,0.6464,0.514,1.2523V45.6016z"/>
	<path class="st2" d="M30.3755,35.5898c-0.9893-0.5186-2.3574,0.1387-3.0493,1.4609c0,0.001,0,0.001,0,0.001
		c-0.3271,0.625-0.46,1.3076-0.374,1.9238c0.0913,0.6523,0.415,1.1543,0.9111,1.4141c0.229,0.1201,0.481,0.1807,0.7451,0.1807
		c0.1875,0,0.3818-0.0303,0.5786-0.0918c0.6948-0.2168,1.3237-0.7822,1.7256-1.5508c0.3276-0.625,0.4595-1.3076,0.3735-1.9238
		C31.1953,36.3516,30.8716,35.8496,30.3755,35.5898z M30.3813,38.6504c-0.3237,0.6182-0.8374,1.0879-1.373,1.2549
		c-0.3184,0.0996-0.6172,0.084-0.8667-0.0469c-0.3198-0.168-0.5313-0.5107-0.5952-0.9658c-0.0688-0.4932,0.0415-1.0479,0.311-1.5625
		c0.5396-1.0313,1.5464-1.5693,2.2397-1.209c0.3198,0.168,0.5313,0.5107,0.5952,0.9658
		C30.7612,37.5801,30.6509,38.1348,30.3813,38.6504z"/>
	<path class="st2" d="M27.2739,33.4629c0.0864,0,0.1724-0.0225,0.2495-0.0664l12.6035-7.2651c0.1543-0.0894,0.25-0.2544,0.25-0.4331
		v-12.874c0-0.1777-0.0947-0.3423-0.248-0.4321c-0.1543-0.0898-0.3428-0.0908-0.499-0.0029l-12.6025,7.1479
		c-0.1567,0.0889-0.2534,0.2549-0.2534,0.4351v12.9907c0,0.1787,0.0952,0.3438,0.25,0.4326
		C27.1011,33.4404,27.1875,33.4629,27.2739,33.4629z M27.7739,20.2632l11.603-6.5806v11.7266l-11.603,6.6885V20.2632z"/>
	<path class="st2" d="M34.9766,32.834c-0.4971-0.2607-1.0928-0.2402-1.6826,0.0576c-0.5537,0.2803-1.04,0.7783-1.3672,1.4033
		c-0.6934,1.3232-0.4521,2.8213,0.5371,3.3389c0.2305,0.1211,0.4824,0.1807,0.7461,0.1807c0.3027,0,0.6201-0.0791,0.9355-0.2383
		c0.5547-0.2803,1.041-0.7793,1.3672-1.4033c0.3271-0.626,0.46-1.3086,0.374-1.9248C35.7959,33.5957,35.4727,33.0938,34.9766,32.834
		z M34.9814,35.8945c-0.2695,0.5146-0.6621,0.9219-1.1064,1.1455c-0.4092,0.208-0.8125,0.2305-1.1328,0.0625
		c-0.6963-0.3643-0.8232-1.499-0.2842-2.5293c0.2695-0.5146,0.6631-0.9219,1.1074-1.1465c0.2275-0.1152,0.4531-0.1729,0.6631-0.1729
		c0.1689,0,0.3271,0.0371,0.4697,0.1113c0.3193,0.168,0.5313,0.5107,0.5947,0.9658C35.3613,34.8242,35.251,35.3789,34.9814,35.8945z
		"/>
	<path class="st2" d="M39.707,30.2402c-0.9863-0.5166-2.3555,0.1377-3.0488,1.4609c-0.3271,0.626-0.46,1.3086-0.374,1.9248
		c0.0908,0.6523,0.4141,1.1543,0.9111,1.4141c0.2295,0.1201,0.4785,0.1768,0.7363,0.1768c0.8506,0,1.7803-0.6221,2.3125-1.6377
		c0.3271-0.626,0.46-1.3086,0.374-1.9248C40.5273,31.002,40.2041,30.4995,39.707,30.2402z M39.7129,33.3008
		c-0.54,1.0293-1.542,1.5674-2.2402,1.208c-0.3193-0.168-0.5313-0.5107-0.5947-0.9658c-0.0684-0.4932,0.042-1.0479,0.3115-1.5625
		c0.4258-0.8135,1.1406-1.3223,1.7656-1.3223c0.167,0,0.3271,0.0366,0.4746,0.1133c0.3193,0.1675,0.5313,0.5107,0.5947,0.9658
		C40.0928,32.2305,39.9824,32.7852,39.7129,33.3008z"/>
	<path class="st2" d="M27.7983,46.4902c0.2295,0.1201,0.4795,0.1768,0.7368,0.1768c0.8511,0,1.7813-0.6221,2.3125-1.6377
		c0.3271-0.626,0.46-1.3086,0.374-1.9248c-0.0908-0.6523-0.415-1.1543-0.9111-1.4141c-0.4961-0.2607-1.0938-0.2393-1.6812,0.0576
		c-0.5552,0.2803-1.041,0.7793-1.3677,1.4043c-0.3276,0.625-0.4604,1.3076-0.374,1.9238
		C26.9785,45.7285,27.3022,46.2305,27.7983,46.4902z M27.793,43.4297c0.2695-0.5146,0.6626-0.9219,1.1064-1.1455
		c0.2285-0.1152,0.4541-0.1738,0.6646-0.1738c0.168,0,0.3262,0.0371,0.4683,0.1113c0.3203,0.168,0.5317,0.5107,0.5952,0.9658
		c0.0693,0.4932-0.0415,1.0479-0.311,1.5635c-0.5391,1.0293-1.543,1.5732-2.2397,1.208c-0.3198-0.168-0.5313-0.5107-0.5952-0.9658
		C27.4126,44.5,27.5234,43.9453,27.793,43.4297z"/>
	<path class="st2" d="M32.3984,43.7344c0.2305,0.1211,0.4834,0.1807,0.7461,0.1807c0.3037,0,0.6211-0.0791,0.9355-0.2383
		c0.5547-0.2803,1.041-0.7783,1.3682-1.4043c0.6924-1.3232,0.4512-2.8213-0.5371-3.3379c-0.4971-0.2607-1.0947-0.2393-1.6816,0.0576
		c-0.5547,0.2803-1.041,0.7783-1.3682,1.4033c0,0.001,0,0.001,0,0.001C31.1689,41.7197,31.4102,43.2178,32.3984,43.7344z
		 M32.3926,40.6738c0.2695-0.5146,0.6631-0.9219,1.1074-1.1455c0.4111-0.208,0.8115-0.2295,1.1328-0.0625
		c0.6953,0.3643,0.8223,1.498,0.2842,2.5283c-0.2695,0.5156-0.6631,0.9229-1.1074,1.1465c-0.4121,0.207-0.8125,0.2295-1.1328,0.0625
		C31.9814,42.8389,31.8545,41.7051,32.3926,40.6738z"/>
	<path class="st2" d="M37.1309,41.1406c0.2295,0.1201,0.4785,0.1768,0.7363,0.1768c0.8506,0,1.7803-0.6221,2.3125-1.6377
		c0.6934-1.3232,0.4521-2.8213-0.5361-3.3389c-0.3945-0.2061-0.8525-0.2363-1.3252-0.0889
		c-0.6846,0.2148-1.3291,0.7939-1.7246,1.5508c-0.3271,0.625-0.46,1.3076-0.374,1.9238
		C36.3105,40.3789,36.6338,40.8809,37.1309,41.1406z M37.125,38.0801c0.3232-0.6182,0.8369-1.0869,1.3721-1.2549
		c0.1377-0.043,0.2715-0.0645,0.3994-0.0645c0.1689,0,0.3271,0.0371,0.4678,0.1113c0.6963,0.3643,0.8232,1.499,0.2842,2.5283
		c-0.54,1.0303-1.543,1.5703-2.2402,1.209c-0.3193-0.168-0.5313-0.5107-0.5947-0.9658
		C36.7451,39.1504,36.8555,38.5957,37.125,38.0801z"/>
	<path class="st2" d="M30.353,47.7266c-0.9893-0.5166-2.3579,0.1377-3.0493,1.4619c-0.3276,0.625-0.4604,1.3076-0.374,1.9238
		c0.0908,0.6523,0.4146,1.1543,0.9106,1.4141c0.2295,0.1201,0.4795,0.1768,0.7368,0.1768c0.8511,0,1.7813-0.6221,2.3125-1.6377
		c0.3271-0.626,0.46-1.3086,0.374-1.9248C31.1729,48.4883,30.8491,47.9863,30.353,47.7266z M30.3584,50.7871
		c-0.5396,1.0293-1.5435,1.5723-2.2397,1.208c-0.3198-0.168-0.5313-0.5107-0.5952-0.9658c-0.0688-0.4932,0.042-1.0479,0.3115-1.5625
		c0-0.001,0-0.001,0-0.001c0.4253-0.8125,1.1401-1.3213,1.7651-1.3213c0.167,0,0.3276,0.0361,0.4746,0.1133
		c0.3198,0.168,0.5313,0.5107,0.5952,0.9658C30.7388,49.7168,30.6279,50.2715,30.3584,50.7871z"/>
	<path class="st2" d="M34.9531,44.9707c-0.4971-0.2607-1.0947-0.2393-1.6816,0.0576c-0.5547,0.2803-1.041,0.7783-1.3682,1.4033
		c0,0.001,0,0.001,0,0.001c-0.6924,1.3232-0.4512,2.8213,0.5381,3.3379c0.2295,0.1201,0.4785,0.1768,0.7363,0.1768
		c0.8506,0,1.7803-0.6221,2.3125-1.6387C36.1826,46.9854,35.9414,45.4873,34.9531,44.9707z M34.959,48.0313
		c-0.54,1.0293-1.543,1.5674-2.2402,1.208c-0.6953-0.3643-0.8223-1.498-0.2842-2.5283c0.2695-0.5156,0.6631-0.9229,1.1074-1.1465
		c0.4111-0.208,0.8115-0.2305,1.1328-0.0625C35.3701,45.8662,35.4971,47,34.959,48.0313z"/>
	<path class="st2" d="M39.6846,42.376c-0.4951-0.2598-1.0918-0.2402-1.6816,0.0576c-0.5547,0.2803-1.041,0.7793-1.3672,1.4043
		c-0.6924,1.3223-0.4521,2.8203,0.5371,3.3389c0.2295,0.1201,0.4785,0.1768,0.7363,0.1768c0.8506,0,1.7803-0.6221,2.3125-1.6387
		C40.9141,44.3916,40.6738,42.8936,39.6846,42.376z M39.6904,45.4365c-0.54,1.0303-1.5449,1.5732-2.2393,1.209
		c-0.6963-0.3652-0.8232-1.5-0.2842-2.5293c0-0.001,0-0.001,0-0.001c0.2695-0.5146,0.6621-0.9219,1.1064-1.1455
		c0.2285-0.1152,0.4541-0.1738,0.665-0.1738c0.168,0,0.3262,0.0371,0.4678,0.1113C40.1025,43.2715,40.2295,44.4063,39.6904,45.4365z
		"/>
</g>
</svg>
