<?xml version="1.0" encoding="utf-8"?>
<!-- Generator: Adobe Illustrator 21.0.0, SVG Export Plug-In . SVG Version: 6.00 Build 0)  -->
<svg version="1.1" id="Layer_1" xmlns="http://www.w3.org/2000/svg" xmlns:xlink="http://www.w3.org/1999/xlink" x="0px" y="0px"
	 viewBox="0 0 30 30" style="enable-background:new 0 0 30 30;" xml:space="preserve">
<style type="text/css">
	.st0{display:none;opacity:0.2;}
	.st1{display:inline;fill:none;stroke:#00ADEE;stroke-width:0.125;stroke-miterlimit:10;}
	.st2{fill:#231F20;}
</style>
<g class="st0">
	<path class="st1" d="M-15.375-16.557"/>
	<line class="st1" x1="-13.125" y1="47.1558" x2="-13.125" y2="-16.3603"/>
	<line class="st1" x1="-10.875" y1="47.3529" x2="-10.875" y2="-16.5568"/>
	<line class="st1" x1="-8.625" y1="46.959" x2="-8.625" y2="-16.3109"/>
	<line class="st1" x1="-6.375" y1="47.746" x2="-6.375" y2="-16.6546"/>
	<line class="st1" x1="-4.125" y1="47.3529" x2="-4.125" y2="-16.5079"/>
	<line class="st1" x1="-1.875" y1="47.4999" x2="-1.875" y2="-16.6061"/>
	<line class="st1" x1="0.375" y1="47.3529" x2="0.375" y2="-16.5568"/>
	<line class="st1" x1="2.625" y1="47.4999" x2="2.625" y2="-16.9021"/>
	<line class="st1" x1="4.875" y1="47.1558" x2="4.875" y2="-16.6547"/>
	<line class="st1" x1="7.125" y1="47.3029" x2="7.125" y2="-16.8517"/>
	<line class="st1" x1="9.375" y1="47.1063" x2="9.375" y2="-16.4577"/>
	<line class="st1" x1="11.625" y1="47.2541" x2="11.625" y2="-16.5081"/>
	<line class="st1" x1="13.875" y1="47.3029" x2="13.875" y2="-16.5079"/>
	<line class="st1" x1="16.125" y1="47.0567" x2="16.125" y2="-16.458"/>
	<line class="st1" x1="18.375" y1="47.1063" x2="18.375" y2="-16.4089"/>
	<line class="st1" x1="20.625" y1="47.3529" x2="20.625" y2="-16.6058"/>
	<line class="st1" x1="22.875" y1="47.1558" x2="22.875" y2="-16.5569"/>
	<line class="st1" x1="25.125" y1="47.4511" x2="25.125" y2="-16.5082"/>
	<line class="st1" x1="27.375" y1="47.2541" x2="27.375" y2="-16.3603"/>
	<line class="st1" x1="29.625" y1="47.1063" x2="29.625" y2="-16.5077"/>
	<line class="st1" x1="31.875" y1="47.1558" x2="31.875" y2="-16.508"/>
	<line class="st1" x1="34.125" y1="47.1063" x2="34.125" y2="-16.5077"/>
	<line class="st1" x1="36.375" y1="46.8598" x2="36.375" y2="-16.5566"/>
	<line class="st1" x1="38.625" y1="47.1558" x2="38.625" y2="-16.7536"/>
	<line class="st1" x1="40.875" y1="47.1558" x2="40.875" y2="-16.6058"/>
	<line class="st1" x1="43.125" y1="47.4511" x2="43.125" y2="-16.6062"/>
	<line class="st1" x1="-14.2926" y1="47.1726" x2="-16.4896" y2="45.9041"/>
	<line class="st1" x1="-9.8838" y1="47.1199" x2="-16.5439" y2="43.2746"/>
	<line class="st1" x1="-5.0286" y1="47.3248" x2="-16.5547" y2="40.6703"/>
	<line class="st1" x1="-0.4099" y1="47.3936" x2="-16.607" y2="38.0421"/>
	<line class="st1" x1="3.8647" y1="47.2633" x2="-16.4987" y2="35.5065"/>
	<line class="st1" x1="8.1817" y1="47.1575" x2="-16.4585" y2="32.9315"/>
	<line class="st1" x1="12.7364" y1="47.1893" x2="-16.5287" y2="30.2931"/>
	<line class="st1" x1="17.0493" y1="47.0812" x2="-16.4649" y2="27.7317"/>
	<line class="st1" x1="21.7487" y1="47.1965" x2="-16.5216" y2="25.1011"/>
	<line class="st1" x1="26.2708" y1="47.2091" x2="-16.6454" y2="22.4314"/>
	<line class="st1" x1="30.8011" y1="47.2265" x2="-16.5718" y2="19.8757"/>
	<line class="st1" x1="35.0797" y1="47.0989" x2="-16.5759" y2="17.2755"/>
	<line class="st1" x1="39.7372" y1="47.1897" x2="-16.5939" y2="14.6669"/>
	<line class="st1" x1="44.4278" y1="47.2996" x2="-16.6466" y2="12.0384"/>
	<line class="st1" x1="46.5391" y1="45.9207" x2="-16.5451" y2="9.499"/>
	<line class="st1" x1="46.7575" y1="43.4487" x2="-16.4576" y2="6.9515"/>
	<line class="st1" x1="46.5446" y1="40.7275" x2="-16.5248" y2="4.3145"/>
	<line class="st1" x1="46.5973" y1="38.16" x2="-16.5582" y2="1.6972"/>
	<line class="st1" x1="46.5272" y1="35.5214" x2="-16.4693" y2="-0.8496"/>
	<line class="st1" x1="46.6505" y1="32.9944" x2="-16.4717" y2="-3.4492"/>
	<line class="st1" x1="46.5376" y1="30.3314" x2="-16.4197" y2="-6.017"/>
	<line class="st1" x1="46.4796" y1="27.6997" x2="-16.3754" y2="-8.5896"/>
	<polyline class="st1" points="46.5777,25.1581 -16.1346,-11.0488 -16.5294,-11.2767 	"/>
	<polyline class="st1" points="46.5142,22.5236 -16.248,-13.7121 -17.1105,-14.2101 	"/>
	<polyline class="st1" points="46.5439,19.9426 -14.9996,-15.5896 -16.7609,-16.6065 	"/>
	<line class="st1" x1="46.3527" y1="17.2343" x2="-12.0668" y2="-16.4943"/>
	<line class="st1" x1="46.4824" y1="14.711" x2="-7.5112" y2="-16.4622"/>
	<line class="st1" x1="46.479" y1="12.1109" x2="-3.0123" y2="-16.4629"/>
	<line class="st1" x1="46.4578" y1="9.5007" x2="1.1859" y2="-16.637"/>
	<line class="st1" x1="46.3608" y1="6.8466" x2="5.6507" y2="-16.6575"/>
	<line class="st1" x1="46.5626" y1="4.3649" x2="10.4854" y2="-16.4643"/>
	<line class="st1" x1="46.6047" y1="1.7913" x2="15.0995" y2="-16.3983"/>
	<line class="st1" x1="46.4335" y1="-0.9057" x2="19.5934" y2="-16.4018"/>
	<line class="st1" x1="46.5889" y1="-3.4142" x2="23.9443" y2="-16.488"/>
	<line class="st1" x1="46.3665" y1="-6.1405" x2="28.4468" y2="-16.4864"/>
	<line class="st1" x1="46.5992" y1="-8.6043" x2="33.0984" y2="-16.399"/>
	<line class="st1" x1="46.5865" y1="-11.2098" x2="37.2213" y2="-16.6168"/>
	<line class="st1" x1="46.6046" y1="-13.7973" x2="41.9486" y2="-16.4854"/>
	<path class="st1" d="M46.5364-16.4349"/>
	<path class="st1" d="M-72.75-106.0893"/>
	<path class="st1" d="M-71.625-108.0379"/>
	<path class="st1" d="M-70.5-109.9865"/>
	<path class="st1" d="M-69.375-111.935"/>
	<path class="st1" d="M-68.25-113.8836"/>
	<path class="st1" d="M-67.125-115.8321"/>
	<path class="st1" d="M-66-117.7807"/>
	<path class="st1" d="M-64.875-119.7292"/>
	<path class="st1" d="M-63.75-121.6778"/>
	<path class="st1" d="M46.631,47.1215"/>
	<line class="st1" x1="41.8384" y1="47.2903" x2="46.5346" y2="44.579"/>
	<line class="st1" x1="37.761" y1="47.0465" x2="46.6554" y2="41.9113"/>
	<line class="st1" x1="33.2481" y1="47.0539" x2="46.6394" y2="39.3224"/>
	<line class="st1" x1="28.7471" y1="47.0544" x2="46.5552" y2="36.7729"/>
	<line class="st1" x1="23.9766" y1="47.2107" x2="46.5546" y2="34.1753"/>
	<line class="st1" x1="19.718" y1="47.0712" x2="46.6021" y2="31.5497"/>
	<line class="st1" x1="15.3122" y1="47.0167" x2="46.6066" y2="28.9489"/>
	<line class="st1" x1="10.3988" y1="47.2556" x2="46.5751" y2="26.3692"/>
	<line class="st1" x1="6.1197" y1="47.1279" x2="46.5162" y2="23.805"/>
	<line class="st1" x1="1.2953" y1="47.3154" x2="46.6164" y2="21.1493"/>
	<line class="st1" x1="-3.222" y1="47.3253" x2="46.4154" y2="18.6671"/>
	<line class="st1" x1="-8.0514" y1="47.5153" x2="46.5572" y2="15.9871"/>
	<line class="st1" x1="-11.769" y1="47.0639" x2="46.4405" y2="13.4566"/>
	<line class="st1" x1="-16.6198" y1="47.2663" x2="46.4978" y2="10.8253"/>
	<line class="st1" x1="-16.6252" y1="44.6712" x2="46.5671" y2="8.1872"/>
	<line class="st1" x1="-16.3982" y1="41.9423" x2="46.4768" y2="5.6413"/>
	<line class="st1" x1="-16.5136" y1="39.4107" x2="46.6506" y2="2.9429"/>
	<line class="st1" x1="-16.3672" y1="36.728" x2="46.4811" y2="0.4426"/>
	<line class="st1" x1="-16.4261" y1="34.1641" x2="46.6243" y2="-2.2381"/>
	<line class="st1" x1="-16.5537" y1="31.6396" x2="46.5591" y2="-4.7985"/>
	<line class="st1" x1="-16.6591" y1="29.1023" x2="46.5062" y2="-7.3662"/>
	<line class="st1" x1="-16.5488" y1="26.4407" x2="46.4955" y2="-9.9579"/>
	<line class="st1" x1="-16.5014" y1="23.8152" x2="46.6906" y2="-12.6687"/>
	<line class="st1" x1="-16.6869" y1="21.324" x2="46.6589" y2="-15.2486"/>
	<line class="st1" x1="-16.5222" y1="18.6311" x2="44.3216" y2="-16.497"/>
	<line class="st1" x1="-16.6397" y1="16.1008" x2="40.1155" y2="-16.6668"/>
	<line class="st1" x1="-16.4543" y1="13.3959" x2="35.4976" y2="-16.5986"/>
	<line class="st1" x1="-16.4766" y1="10.8105" x2="31.0105" y2="-16.6061"/>
	<line class="st1" x1="-16.6191" y1="8.2947" x2="26.3737" y2="-16.5272"/>
	<line class="st1" x1="-16.5886" y1="5.6791" x2="21.7039" y2="-16.4291"/>
	<line class="st1" x1="-16.4987" y1="3.0291" x2="17.3446" y2="-16.5104"/>
	<line class="st1" x1="-16.4879" y1="0.4247" x2="12.9603" y2="-16.5772"/>
	<line class="st1" x1="-16.5374" y1="-2.1447" x2="8.4534" y2="-16.5731"/>
	<line class="st1" x1="-16.4468" y1="-4.7952" x2="4.0268" y2="-16.6156"/>
	<polyline class="st1" points="-16.5695,-7.3225 -15.9916,-7.6561 -0.3642,-16.6786 	"/>
	<line class="st1" x1="-16.6918" y1="-9.8497" x2="-5.065" y2="-16.5625"/>
	<line class="st1" x1="-16.2564" y1="-12.6993" x2="-10.0909" y2="-16.259"/>
	<path class="st1" d="M-14.1742-16.4997"/>
</g>
<g>
	<path class="st2" d="M21.1649,2.7775c-0.009-0.0065-0.0143-0.0161-0.024-0.0219l-0.0115-0.0069
		c-0.0015-0.0009-0.0026-0.0024-0.0042-0.0034c-0.0013-0.0007-0.0029-0.0009-0.0042-0.0016l-2.2097-1.3265
		c-0.8418-0.4863-2.1582-0.4858-2.998-0.0005c-0.7656,0.4421-1.5984,0.9279-2.4863,1.4465v-1.324
		c0-0.0693-0.0223-0.1313-0.0534-0.1881c-0.124-0.3904-0.5945-0.6727-1.221-0.6727c-0.6261,0-1.0965,0.2823-1.2205,0.6727
		C10.901,1.408,10.8787,1.47,10.8787,1.5393v2.8109L9.7927,4.9797c-0.8408,0.4858-1.499,1.6265-1.499,2.5967v17.9717
		c0,0.9717,0.5103,2.0244,1.1611,2.3984c0.538,0.3096,2.3995,1.168,2.4887,1.2088c0.011,0.007,0.019,0.018,0.0303,0.0246
		c0.1626,0.0947,0.3472,0.1416,0.5425,0.1416c0.2485,0,0.5151-0.0762,0.7783-0.2256l6.9067-3.9385
		c0.8438-0.4824,1.5049-1.6201,1.5049-2.5918V3.9338C21.7063,3.4146,21.507,2.9999,21.1649,2.7775z M11.6785,2.3387
		c0.1459,0.0375,0.3038,0.0615,0.4741,0.0615c0.1705,0,0.3286-0.0239,0.4746-0.0615v3.3505
		c-0.0436,0.0397-0.1984,0.1216-0.4746,0.1216c-0.2964-0.0005-0.4653-0.0967-0.4741-0.061V2.3387z M12.5222,1.5393
		c-0.168,0.0645-0.5708,0.0645-0.7388,0C11.9514,1.4749,12.3542,1.4749,12.5222,1.5393z M9.0935,25.5481V7.5764
		c0-0.6875,0.5034-1.5596,1.0991-1.9038l0.686-0.3978v0.4749c0,0.0677,0.0212,0.1285,0.0509,0.1844
		c0.1189,0.3971,0.5834,0.6764,1.223,0.6764c0.6396,0,1.1044-0.2792,1.2234-0.6763c0.0298-0.0559,0.051-0.1168,0.051-0.1845V3.7891
		c1.0491-0.6125,2.004-1.1697,2.8867-1.6795c0.5938-0.3442,1.6016-0.3442,2.1914-0.0034l1.2505,0.7507l-6.8579,3.9119
		c-0.8438,0.4814-1.5044,1.6196-1.5044,2.5908v18.6318c0,0.0087,0.0024,0.0161,0.0025,0.0247
		c-0.5751-0.2716-1.2643-0.6033-1.5425-0.763C9.4939,27.0471,9.0935,26.2961,9.0935,25.5481z M20.9055,22.5657
		c0,0.6875-0.5039,1.5557-1.1006,1.8965l-6.9067,3.9385c-0.2134,0.1221-0.4092,0.1523-0.5225,0.0879
		c-0.1143-0.0664-0.1826-0.252-0.1826-0.4971V9.3596c0-0.687,0.5044-1.5552,1.1011-1.8955l6.9063-3.9395
		c0.1396-0.0801,0.2725-0.1216,0.3799-0.1216c0.0552,0,0.1026,0.0114,0.1415,0.0339l0.0016,0.0009
		c0.1138,0.0668,0.1821,0.2518,0.1821,0.4959V22.5657z"/>
	<path class="st2" d="M13.5242,16.6467c0.0688,0,0.1382-0.0186,0.1997-0.0537l6.3018-3.6328
		c0.123-0.0718,0.2002-0.2036,0.2002-0.3467v-6.437c0-0.1426-0.0762-0.2739-0.1992-0.3457
		c-0.125-0.0728-0.2744-0.0732-0.3984-0.0024l-6.3013,3.5742c-0.1255,0.0713-0.2026,0.2041-0.2026,0.3481v6.4956
		c0,0.1426,0.0762,0.2744,0.1997,0.3467C13.386,16.6282,13.4548,16.6467,13.5242,16.6467z M13.9241,9.9836l5.501-3.1206v5.5195
		l-5.501,3.1714V9.9836z"/>
	<path class="st2" d="M19.8567,14.6628c-0.627-0.3262-1.4443,0.0391-1.8623,0.8364c-0.123,0.2352-0.1785,0.4838-0.2012,0.73
		c-0.0868-0.1033-0.1778-0.2042-0.3018-0.2691c-0.3174-0.165-0.707-0.1553-1.0693,0.0273c-0.3242,0.1631-0.606,0.4502-0.793,0.8086
		c-0.1188,0.227-0.1906,0.4658-0.2167,0.7003c-0.0668-0.0621-0.1406-0.1157-0.2218-0.1583
		c-0.6289-0.3271-1.4453,0.0391-1.8623,0.8359c-0.417,0.7979-0.2529,1.6797,0.374,2.0078c0.1553,0.0811,0.3223,0.1201,0.4917,0.1201
		c0.5156,0,1.0566-0.3574,1.3706-0.957c0.1244-0.2378,0.1794-0.4892,0.2013-0.738c0.0732,0.0728,0.1453,0.1478,0.2362,0.1951
		c0.1494,0.0791,0.3174,0.1191,0.4912,0.1191c0.1182,0,0.2393-0.0186,0.3604-0.0566c0.4111-0.1279,0.7793-0.4551,1.0117-0.8984
		c0.123-0.2357,0.1802-0.4748,0.2048-0.7086c0.0858,0.0996,0.1823,0.1879,0.2981,0.2487c0.1553,0.0811,0.3223,0.1201,0.4922,0.1201
		c0.5146,0,1.0557-0.3564,1.3701-0.9561C20.6477,15.8733,20.4836,14.9915,19.8567,14.6628z M14.8557,18.9739
		c-0.2134,0.4072-0.5879,0.5986-0.7822,0.499c-0.1934-0.1016-0.25-0.5195-0.0361-0.9277c0.1758-0.3359,0.4614-0.5244,0.6646-0.5244
		c0.0439,0,0.0835,0.0088,0.1177,0.0264c0.1167,0.0605,0.1543,0.2119,0.166,0.2959C15.0125,18.5354,14.9651,18.7649,14.8557,18.9739
		z M17.1565,17.5959c-0.1299,0.248-0.3369,0.4414-0.54,0.5049c-0.0654,0.0205-0.1582,0.0391-0.2422-0.0068
		c-0.082-0.043-0.124-0.1299-0.1445-0.1963c-0.0635-0.2021-0.0215-0.4824,0.1084-0.7305c0.1084-0.209,0.2705-0.3779,0.4443-0.4658
		c0.0518-0.0254,0.1348-0.0596,0.2197-0.0596c0.04,0,0.0811,0.0078,0.1182,0.0273C17.3127,16.7708,17.3694,17.1887,17.1565,17.5959z
		 M19.5217,16.2991c-0.2129,0.4072-0.585,0.6006-0.7822,0.498c-0.1172-0.0605-0.1543-0.2119-0.166-0.2959
		c-0.0264-0.1924,0.0205-0.4219,0.1299-0.6309c0.1758-0.3359,0.4619-0.5254,0.665-0.5254c0.043,0,0.083,0.0088,0.1172,0.0269
		C19.679,15.4729,19.7356,15.8909,19.5217,16.2991z"/>
	<path class="st2" d="M13.6697,23.2317c0.1553,0.0811,0.3223,0.1201,0.4917,0.1201c0.5156,0,1.0566-0.3574,1.3706-0.957
		c0.121-0.2314,0.1766-0.4755,0.2006-0.7178c0.0711,0.0693,0.1491,0.1305,0.2374,0.1768c0.1553,0.0811,0.3223,0.1201,0.4922,0.1201
		c0.5156,0,1.0557-0.3574,1.3701-0.957c0.1205-0.2303,0.1763-0.4734,0.2007-0.7147c0.0869,0.1023,0.1851,0.1927,0.3032,0.2547
		c0.1494,0.0781,0.3154,0.1172,0.4883,0.1172c0.1914,0,0.3896-0.0479,0.5811-0.1445c0.3232-0.1641,0.6055-0.4512,0.793-0.8096
		c0.416-0.7969,0.252-1.6787-0.374-2.0068c-0.252-0.1309-0.5537-0.1533-0.8545-0.0605c-0.4102,0.1289-0.7773,0.4561-1.0078,0.8975
		c-0.1205,0.2303-0.1763,0.4733-0.2007,0.7146c-0.0869-0.1023-0.1851-0.1926-0.3032-0.2546c-0.626-0.3271-1.4443,0.04-1.8623,0.8369
		c-0.121,0.2313-0.1766,0.4754-0.2006,0.7177c-0.0711-0.0693-0.1491-0.1304-0.2374-0.1766c-0.6279-0.3291-1.4453,0.04-1.8623,0.8369
		c-0.1875,0.3584-0.2632,0.7529-0.2129,1.1123C13.1389,22.7395,13.3528,23.0657,13.6697,23.2317z M18.6711,18.9202
		c0.1289-0.2471,0.3359-0.4404,0.5381-0.5039c0.0361-0.0117,0.0801-0.0215,0.126-0.0215c0.04,0,0.0801,0.0078,0.1182,0.0273
		c0.1924,0.1016,0.249,0.5195,0.0361,0.9268c-0.1094,0.209-0.2715,0.3789-0.4443,0.4668c-0.0752,0.0381-0.2217,0.0938-0.3379,0.0322
		c-0.1172-0.0605-0.1543-0.2119-0.166-0.2959C18.5149,19.3596,18.5618,19.1292,18.6711,18.9202z M16.3049,20.218
		c0.1758-0.3359,0.4619-0.5254,0.665-0.5254c0.043,0,0.083,0.0088,0.1172,0.0264c0.1172,0.0605,0.1543,0.2119,0.166,0.2959
		c0.0264,0.1924-0.0205,0.4229-0.1299,0.6309c-0.2129,0.4072-0.5879,0.5986-0.7822,0.499c-0.1172-0.0605-0.1543-0.2119-0.166-0.2959
		C16.1487,20.6565,16.1956,20.426,16.3049,20.218z M14.0046,21.5959c0.1758-0.3359,0.4614-0.5254,0.665-0.5254
		c0.0435,0,0.083,0.0088,0.1172,0.0264c0.1167,0.0605,0.1543,0.2119,0.166,0.2959c0.0269,0.1924-0.0205,0.4229-0.1299,0.6309
		c-0.2134,0.4072-0.5884,0.5967-0.7822,0.499c-0.1167-0.0605-0.1543-0.2119-0.166-0.2959
		C13.8479,22.0344,13.8953,21.804,14.0046,21.5959z"/>
	<path class="st2" d="M19.8459,20.7317c-0.2529-0.1309-0.5547-0.1553-0.8525-0.0615c-0.4102,0.1279-0.7783,0.4551-1.0107,0.8975
		c-0.1206,0.2306-0.1764,0.4741-0.2007,0.7156c-0.0869-0.1023-0.1851-0.1926-0.3032-0.2546
		c-0.3174-0.165-0.7061-0.1553-1.0693,0.0273c-0.3232,0.1631-0.605,0.4502-0.793,0.8086c-0.1238,0.2371-0.1808,0.4776-0.2051,0.7127
		c-0.0698-0.0669-0.1464-0.1257-0.2324-0.1707c-0.6289-0.3291-1.4453,0.0391-1.8623,0.8359
		c-0.1875,0.3584-0.2632,0.7539-0.2129,1.1123c0.0562,0.4023,0.27,0.7285,0.5869,0.8945c0.1553,0.0811,0.3223,0.1201,0.4917,0.1201
		c0.5156,0,1.0566-0.3564,1.3706-0.9561c0.1268-0.2424,0.1816-0.4988,0.2017-0.7522c0.0743,0.0748,0.139,0.1594,0.2358,0.2102
		c0.1504,0.0781,0.3164,0.1172,0.4883,0.1172c0.1914,0,0.3906-0.0479,0.5811-0.1445c0.3242-0.1631,0.6055-0.4502,0.793-0.8086
		c0.1206-0.2306,0.1764-0.4741,0.2007-0.7156c0.0869,0.1023,0.1851,0.1927,0.3032,0.2547c0.1553,0.0811,0.3223,0.1201,0.4922,0.1201
		c0.5146,0,1.0557-0.3564,1.3701-0.9561c0.1875-0.3584,0.2637-0.7539,0.2129-1.1123
		C20.3762,21.2239,20.1624,20.8977,19.8459,20.7317z M14.844,25.0422c-0.2139,0.4092-0.5898,0.5977-0.7822,0.498
		c-0.1167-0.0605-0.1543-0.2119-0.166-0.2959c-0.0269-0.1924,0.0205-0.4219,0.1299-0.6309
		c0.1758-0.3359,0.4614-0.5244,0.6646-0.5244c0.0439,0,0.0835,0.0088,0.1177,0.0264c0.1167,0.0605,0.1543,0.2119,0.166,0.2959
		C15.0007,24.6038,14.9534,24.8333,14.844,25.0422z M17.1438,23.6643c-0.1084,0.209-0.2705,0.3779-0.4443,0.4658
		c-0.0762,0.0381-0.2227,0.0938-0.3379,0.0322c-0.1934-0.1006-0.249-0.5186-0.0361-0.9268c0.1094-0.208,0.2715-0.3779,0.4443-0.4658
		c0.0518-0.0254,0.1357-0.0596,0.2197-0.0596c0.04,0,0.0811,0.0078,0.1182,0.0273c0.1172,0.0605,0.1543,0.2119,0.166,0.2959
		C17.3,23.2258,17.2532,23.4553,17.1438,23.6643z M19.51,22.3674c-0.2129,0.4072-0.585,0.5996-0.7822,0.498
		c-0.1172-0.0605-0.1543-0.2119-0.166-0.2959c-0.0264-0.1924,0.0205-0.4219,0.1299-0.6309c0.1299-0.248,0.3369-0.4414,0.54-0.5049
		c0.0352-0.0107,0.0781-0.0205,0.124-0.0205c0.0391,0,0.0801,0.0068,0.1172,0.0273c0.001,0,0.001,0,0.001,0
		c0.1172,0.0605,0.1543,0.2119,0.166,0.2959C19.6663,21.929,19.6194,22.1584,19.51,22.3674z"/>
</g>
</svg>
