<?xml version="1.0" encoding="utf-8"?>
<!-- Generator: Adobe Illustrator 21.0.0, SVG Export Plug-In . SVG Version: 6.00 Build 0)  -->
<svg version="1.1" id="Layer_1" xmlns="http://www.w3.org/2000/svg" xmlns:xlink="http://www.w3.org/1999/xlink" x="0px" y="0px"
	 viewBox="0 0 60 60" style="enable-background:new 0 0 60 60;" xml:space="preserve">
<style type="text/css">
	.st0{display:none;opacity:0.2;}
	.st1{display:inline;fill:none;stroke:#00ADEE;stroke-width:0.125;stroke-miterlimit:10;}
	.st2{fill:#231F20;}
</style>
<g class="st0">
	<path class="st1" d="M-0.375-1.557"/>
	<line class="st1" x1="1.875" y1="62.156" x2="1.875" y2="-1.36"/>
	<line class="st1" x1="4.125" y1="62.353" x2="4.125" y2="-1.557"/>
	<line class="st1" x1="6.375" y1="61.959" x2="6.375" y2="-1.311"/>
	<line class="st1" x1="8.625" y1="62.746" x2="8.625" y2="-1.655"/>
	<line class="st1" x1="10.875" y1="62.353" x2="10.875" y2="-1.508"/>
	<line class="st1" x1="13.125" y1="62.5" x2="13.125" y2="-1.606"/>
	<line class="st1" x1="15.375" y1="62.353" x2="15.375" y2="-1.557"/>
	<line class="st1" x1="17.625" y1="62.5" x2="17.625" y2="-1.902"/>
	<line class="st1" x1="19.875" y1="62.156" x2="19.875" y2="-1.655"/>
	<line class="st1" x1="22.125" y1="62.303" x2="22.125" y2="-1.852"/>
	<line class="st1" x1="24.375" y1="62.106" x2="24.375" y2="-1.458"/>
	<line class="st1" x1="26.625" y1="62.254" x2="26.625" y2="-1.508"/>
	<line class="st1" x1="28.875" y1="62.303" x2="28.875" y2="-1.508"/>
	<line class="st1" x1="31.125" y1="62.057" x2="31.125" y2="-1.458"/>
	<line class="st1" x1="33.375" y1="62.106" x2="33.375" y2="-1.409"/>
	<line class="st1" x1="35.625" y1="62.353" x2="35.625" y2="-1.606"/>
	<line class="st1" x1="37.875" y1="62.156" x2="37.875" y2="-1.557"/>
	<line class="st1" x1="40.125" y1="62.451" x2="40.125" y2="-1.508"/>
	<line class="st1" x1="42.375" y1="62.254" x2="42.375" y2="-1.36"/>
	<line class="st1" x1="44.625" y1="62.106" x2="44.625" y2="-1.508"/>
	<line class="st1" x1="46.875" y1="62.156" x2="46.875" y2="-1.508"/>
	<line class="st1" x1="49.125" y1="62.106" x2="49.125" y2="-1.508"/>
	<line class="st1" x1="51.375" y1="61.86" x2="51.375" y2="-1.557"/>
	<line class="st1" x1="53.625" y1="62.156" x2="53.625" y2="-1.754"/>
	<line class="st1" x1="55.875" y1="62.156" x2="55.875" y2="-1.606"/>
	<line class="st1" x1="58.125" y1="62.451" x2="58.125" y2="-1.606"/>
	<line class="st1" x1="0.707" y1="62.173" x2="-1.49" y2="60.904"/>
	<line class="st1" x1="5.116" y1="62.12" x2="-1.544" y2="58.275"/>
	<line class="st1" x1="9.971" y1="62.325" x2="-1.555" y2="55.67"/>
	<line class="st1" x1="14.59" y1="62.394" x2="-1.607" y2="53.042"/>
	<line class="st1" x1="18.865" y1="62.263" x2="-1.499" y2="50.506"/>
	<line class="st1" x1="23.182" y1="62.158" x2="-1.459" y2="47.931"/>
	<line class="st1" x1="27.736" y1="62.189" x2="-1.529" y2="45.293"/>
	<line class="st1" x1="32.049" y1="62.081" x2="-1.465" y2="42.732"/>
	<line class="st1" x1="36.749" y1="62.196" x2="-1.522" y2="40.101"/>
	<line class="st1" x1="41.271" y1="62.209" x2="-1.645" y2="37.431"/>
	<line class="st1" x1="45.801" y1="62.226" x2="-1.572" y2="34.876"/>
	<line class="st1" x1="50.08" y1="62.099" x2="-1.576" y2="32.275"/>
	<line class="st1" x1="54.737" y1="62.19" x2="-1.594" y2="29.667"/>
	<line class="st1" x1="59.428" y1="62.3" x2="-1.647" y2="27.038"/>
	<line class="st1" x1="61.539" y1="60.921" x2="-1.545" y2="24.499"/>
	<line class="st1" x1="61.758" y1="58.449" x2="-1.458" y2="21.951"/>
	<line class="st1" x1="61.545" y1="55.728" x2="-1.525" y2="19.314"/>
	<line class="st1" x1="61.597" y1="53.16" x2="-1.558" y2="16.697"/>
	<line class="st1" x1="61.527" y1="50.521" x2="-1.469" y2="14.15"/>
	<line class="st1" x1="61.65" y1="47.994" x2="-1.472" y2="11.551"/>
	<line class="st1" x1="61.538" y1="45.331" x2="-1.42" y2="8.983"/>
	<line class="st1" x1="61.48" y1="42.7" x2="-1.375" y2="6.41"/>
	<polyline class="st1" points="61.578,40.158 -1.135,3.951 -1.529,3.723 	"/>
	<polyline class="st1" points="61.514,37.524 -1.248,1.288 -2.111,0.79 	"/>
	<polyline class="st1" points="61.544,34.943 0,-0.59 -1.761,-1.606 	"/>
	<line class="st1" x1="61.353" y1="32.234" x2="2.933" y2="-1.494"/>
	<line class="st1" x1="61.482" y1="29.711" x2="7.489" y2="-1.462"/>
	<line class="st1" x1="61.479" y1="27.111" x2="11.988" y2="-1.463"/>
	<line class="st1" x1="61.458" y1="24.501" x2="16.186" y2="-1.637"/>
	<line class="st1" x1="61.361" y1="21.847" x2="20.651" y2="-1.657"/>
	<line class="st1" x1="61.563" y1="19.365" x2="25.485" y2="-1.464"/>
	<line class="st1" x1="61.605" y1="16.791" x2="30.1" y2="-1.398"/>
	<line class="st1" x1="61.433" y1="14.094" x2="34.593" y2="-1.402"/>
	<line class="st1" x1="61.589" y1="11.586" x2="38.944" y2="-1.488"/>
	<line class="st1" x1="61.366" y1="8.86" x2="43.447" y2="-1.486"/>
	<line class="st1" x1="61.599" y1="6.396" x2="48.098" y2="-1.399"/>
	<line class="st1" x1="61.587" y1="3.79" x2="52.221" y2="-1.617"/>
	<line class="st1" x1="61.605" y1="1.203" x2="56.949" y2="-1.485"/>
	<path class="st1" d="M61.536-1.435"/>
	<path class="st1" d="M-57.75-91.089"/>
	<path class="st1" d="M-56.625-93.038"/>
	<path class="st1" d="M-55.5-94.987"/>
	<path class="st1" d="M-54.375-96.935"/>
	<path class="st1" d="M-53.25-98.884"/>
	<path class="st1" d="M-52.125-100.832"/>
	<path class="st1" d="M-51-102.781"/>
	<path class="st1" d="M-49.875-104.729"/>
	<path class="st1" d="M-48.75-106.678"/>
	<path class="st1" d="M61.631,62.121"/>
	<line class="st1" x1="56.838" y1="62.29" x2="61.535" y2="59.579"/>
	<line class="st1" x1="52.761" y1="62.046" x2="61.655" y2="56.911"/>
	<line class="st1" x1="48.248" y1="62.054" x2="61.639" y2="54.322"/>
	<line class="st1" x1="43.747" y1="62.054" x2="61.555" y2="51.773"/>
	<line class="st1" x1="38.977" y1="62.211" x2="61.555" y2="49.175"/>
	<line class="st1" x1="34.718" y1="62.071" x2="61.602" y2="46.55"/>
	<line class="st1" x1="30.312" y1="62.017" x2="61.607" y2="43.949"/>
	<line class="st1" x1="25.399" y1="62.256" x2="61.575" y2="41.369"/>
	<line class="st1" x1="21.12" y1="62.128" x2="61.516" y2="38.805"/>
	<line class="st1" x1="16.295" y1="62.315" x2="61.616" y2="36.149"/>
	<line class="st1" x1="11.778" y1="62.325" x2="61.415" y2="33.667"/>
	<line class="st1" x1="6.949" y1="62.515" x2="61.557" y2="30.987"/>
	<line class="st1" x1="3.231" y1="62.064" x2="61.44" y2="28.457"/>
	<line class="st1" x1="-1.62" y1="62.266" x2="61.498" y2="25.825"/>
	<line class="st1" x1="-1.625" y1="59.671" x2="61.567" y2="23.187"/>
	<line class="st1" x1="-1.398" y1="56.942" x2="61.477" y2="20.641"/>
	<line class="st1" x1="-1.514" y1="54.411" x2="61.651" y2="17.943"/>
	<line class="st1" x1="-1.367" y1="51.728" x2="61.481" y2="15.443"/>
	<line class="st1" x1="-1.426" y1="49.164" x2="61.624" y2="12.762"/>
	<line class="st1" x1="-1.554" y1="46.64" x2="61.559" y2="10.201"/>
	<line class="st1" x1="-1.659" y1="44.102" x2="61.506" y2="7.634"/>
	<line class="st1" x1="-1.549" y1="41.441" x2="61.496" y2="5.042"/>
	<line class="st1" x1="-1.501" y1="38.815" x2="61.691" y2="2.331"/>
	<line class="st1" x1="-1.687" y1="36.324" x2="61.659" y2="-0.249"/>
	<line class="st1" x1="-1.522" y1="33.631" x2="59.322" y2="-1.497"/>
	<line class="st1" x1="-1.64" y1="31.101" x2="55.116" y2="-1.667"/>
	<line class="st1" x1="-1.454" y1="28.396" x2="50.498" y2="-1.599"/>
	<line class="st1" x1="-1.477" y1="25.811" x2="46.01" y2="-1.606"/>
	<line class="st1" x1="-1.619" y1="23.295" x2="41.374" y2="-1.527"/>
	<line class="st1" x1="-1.589" y1="20.679" x2="36.704" y2="-1.429"/>
	<line class="st1" x1="-1.499" y1="18.029" x2="32.345" y2="-1.51"/>
	<line class="st1" x1="-1.488" y1="15.425" x2="27.96" y2="-1.577"/>
	<line class="st1" x1="-1.537" y1="12.855" x2="23.453" y2="-1.573"/>
	<line class="st1" x1="-1.447" y1="10.205" x2="19.027" y2="-1.616"/>
	<polyline class="st1" points="-1.57,7.678 -0.992,7.344 14.636,-1.679 	"/>
	<line class="st1" x1="-1.692" y1="5.15" x2="9.935" y2="-1.562"/>
	<line class="st1" x1="-1.256" y1="2.301" x2="4.909" y2="-1.259"/>
	<path class="st1" d="M0.826-1.5"/>
</g>
<g>
	<path class="st2" d="M38.9229,37.9456V28.688c0-0.0198-0.009-0.0367-0.0113-0.056c0.002-0.0444,0.0113-0.0872,0.0113-0.132
		c0-0.0415-0.014-0.0784-0.0236-0.1169c0.0095-0.0386,0.0236-0.0754,0.0236-0.1169c0-1.4065-1.005-2.7526-2.7529-3.7359v-3.8466
		l2.9521-2.021c0.1367-0.0933,0.2178-0.2476,0.2178-0.4126v-7.4268c0-5.0488-4.1074-9.1563-9.1558-9.1563
		c-5.0488,0-9.1563,4.1074-9.1563,9.1563V18.25c0,0.1538,0.0708,0.2993,0.1924,0.394l2.5859,2.0195l-0.0006,3.7936
		c-1.7325,0.9235-2.7284,2.2129-2.7284,3.5809c0,0.0405,0.014,0.0764,0.023,0.114c-0.009,0.0377-0.023,0.0735-0.023,0.114v9.6795
		c-1.5576,1.0844-2.4199,2.4442-2.4199,3.8571v8.7188c0,3.4863,4.9824,6.2168,11.3428,6.2168s11.3428-2.7305,11.3428-6.2168v-8.7188
		C41.3428,40.3889,40.4808,39.0298,38.9229,37.9456z M37.9229,40.459c0,1.2754-1.2709,2.4557-3.167,3.2194V32.5722
		c1.353-0.4249,2.444-1.0345,3.167-1.7848V40.459z M22.0278,18.0059v-7.1826c0-4.4976,3.6587-8.1563,8.1563-8.1563
		s8.1558,3.6587,8.1558,8.1563v7.1631l-2.9521,2.021c-0.1367,0.0933-0.2178,0.2476-0.2178,0.4126v4.3413
		c-0.0021,0.019-0.0001,0.0369,0,0.0558v1.8719c-0.002,0.0308-0.0059,0.0815-0.0059,0.0918c0,1.5107-2.3086,2.7402-5.146,2.7402
		c-1.4395,0-2.7852-0.3208-3.7886-0.9028c-0.9185-0.5322-1.4238-1.2109-1.4233-1.9102v-6.2881c0-0.1538-0.0708-0.2993-0.1924-0.394
		L22.0278,18.0059z M23.8054,25.6094l-0.0002,1.0986c0,2.1382,2.729,3.813,6.2129,3.813c3.5034,0,6.146-1.6079,6.144-3.7002
		l0.0059-0.0728c0.001-0.0132,0.002-0.0269,0.002-0.04v-1.0089c1.1188,0.7499,1.7529,1.6577,1.7529,2.567
		c0,0.0415,0.014,0.0784,0.0236,0.1169c-0.0095,0.0386-0.0236,0.0754-0.0236,0.1169c0,2.0933-3.458,3.7334-7.873,3.7334
		c-4.3218,0-7.9727-1.8169-7.9727-3.9673c0-0.0405-0.014-0.0764-0.023-0.114c0.009-0.0377,0.023-0.0735,0.023-0.114
		C22.0771,27.1688,22.7021,26.3097,23.8054,25.6094z M30.0498,33.2334c1.5121,0,2.8973-0.1761,4.1064-0.4889V43.899
		c-1.2294,0.4108-2.6644,0.6567-4.1694,0.6567c-4.2134,0-7.9097-1.9141-7.9097-4.0967v-9.8854
		C23.5555,32.1661,26.5338,33.2334,30.0498,33.2334z M21.0771,39.2056v1.2534c0,2.8105,3.9971,5.0967,8.9097,5.0967
		c4.9272,0,8.936-2.2861,8.936-5.0967v-1.2534c0.9175,0.7938,1.4199,1.6935,1.4199,2.5971c0,2.8281-4.7363,5.2168-10.3428,5.2168
		s-10.3428-2.3887-10.3428-5.2168C19.6572,40.8992,20.1597,39.9995,21.0771,39.2056z M19.6572,50.5215v-6.1356
		c1.759,2.1604,5.6754,3.6337,10.3428,3.6337c0.7845,0,1.5474-0.0424,2.2832-0.1217v7.7018
		c-0.7381,0.0878-1.5007,0.1387-2.2832,0.1387C24.3936,55.7383,19.6572,53.3496,19.6572,50.5215z M40.3428,50.5215
		c0,2.3255-3.2047,4.3506-7.46,4.9982V47.817c3.364-0.4675,6.0785-1.7344,7.46-3.4311V50.5215z"/>
	<path class="st2" d="M30.0498,15.7246c2.1641,0,3.9248-1.7607,3.9248-3.9248c0-0.3306-0.0535-0.6466-0.1308-0.9536
		c0.0002-0.001,0.0007-0.002,0.0009-0.003c0.0198-0.0964-0.0187-0.1814-0.0795-0.2498c-0.5124-1.5718-1.9748-2.7185-3.7154-2.7185
		c-1.8434,0-3.3834,1.2822-3.8025,2.9984c-0.0023,0.0041-0.0018,0.0085-0.0039,0.0127c-0.0709,0.2946-0.1184,0.5977-0.1184,0.9137
		C26.125,13.9639,27.8857,15.7246,30.0498,15.7246z M30.0498,15.125c-1.6678,0-3.0396-1.2382-3.2762-2.8413
		c0.7197,1.035,1.9164,1.6929,3.2264,1.6929c1.3898,0,2.645-0.7386,3.3442-1.8717C33.1873,13.7936,31.7784,15.125,30.0498,15.125z
		 M30.0498,8.4746c1.5002,0,2.7573,1.0056,3.1697,2.3737C32.8568,12.319,31.528,13.377,30,13.377
		c-1.4592,0-2.7487-0.9645-3.1747-2.3525C27.1768,9.5654,28.4844,8.4746,30.0498,8.4746z"/>
</g>
</svg>
