<?xml version="1.0" encoding="utf-8"?>
<!-- Generator: Adobe Illustrator 21.0.0, SVG Export Plug-In . SVG Version: 6.00 Build 0)  -->
<svg version="1.1" id="Layer_1" xmlns="http://www.w3.org/2000/svg" xmlns:xlink="http://www.w3.org/1999/xlink" x="0px" y="0px"
	 viewBox="0 0 60 60" style="enable-background:new 0 0 60 60;" xml:space="preserve">
<style type="text/css">
	.st0{display:none;opacity:0.2;}
	.st1{display:inline;fill:none;stroke:#00ADEE;stroke-width:0.125;stroke-miterlimit:10;}
	.st2{fill:#231F20;}
</style>
<g class="st0">
	<path class="st1" d="M-0.375-1.557"/>
	<line class="st1" x1="1.875" y1="62.156" x2="1.875" y2="-1.36"/>
	<line class="st1" x1="4.125" y1="62.353" x2="4.125" y2="-1.557"/>
	<line class="st1" x1="6.375" y1="61.959" x2="6.375" y2="-1.311"/>
	<line class="st1" x1="8.625" y1="62.746" x2="8.625" y2="-1.655"/>
	<line class="st1" x1="10.875" y1="62.353" x2="10.875" y2="-1.508"/>
	<line class="st1" x1="13.125" y1="62.5" x2="13.125" y2="-1.606"/>
	<line class="st1" x1="15.375" y1="62.353" x2="15.375" y2="-1.557"/>
	<line class="st1" x1="17.625" y1="62.5" x2="17.625" y2="-1.902"/>
	<line class="st1" x1="19.875" y1="62.156" x2="19.875" y2="-1.655"/>
	<line class="st1" x1="22.125" y1="62.303" x2="22.125" y2="-1.852"/>
	<line class="st1" x1="24.375" y1="62.106" x2="24.375" y2="-1.458"/>
	<line class="st1" x1="26.625" y1="62.254" x2="26.625" y2="-1.508"/>
	<line class="st1" x1="28.875" y1="62.303" x2="28.875" y2="-1.508"/>
	<line class="st1" x1="31.125" y1="62.057" x2="31.125" y2="-1.458"/>
	<line class="st1" x1="33.375" y1="62.106" x2="33.375" y2="-1.409"/>
	<line class="st1" x1="35.625" y1="62.353" x2="35.625" y2="-1.606"/>
	<line class="st1" x1="37.875" y1="62.156" x2="37.875" y2="-1.557"/>
	<line class="st1" x1="40.125" y1="62.451" x2="40.125" y2="-1.508"/>
	<line class="st1" x1="42.375" y1="62.254" x2="42.375" y2="-1.36"/>
	<line class="st1" x1="44.625" y1="62.106" x2="44.625" y2="-1.508"/>
	<line class="st1" x1="46.875" y1="62.156" x2="46.875" y2="-1.508"/>
	<line class="st1" x1="49.125" y1="62.106" x2="49.125" y2="-1.508"/>
	<line class="st1" x1="51.375" y1="61.86" x2="51.375" y2="-1.557"/>
	<line class="st1" x1="53.625" y1="62.156" x2="53.625" y2="-1.754"/>
	<line class="st1" x1="55.875" y1="62.156" x2="55.875" y2="-1.606"/>
	<line class="st1" x1="58.125" y1="62.451" x2="58.125" y2="-1.606"/>
	<line class="st1" x1="0.707" y1="62.173" x2="-1.49" y2="60.904"/>
	<line class="st1" x1="5.116" y1="62.12" x2="-1.544" y2="58.275"/>
	<line class="st1" x1="9.971" y1="62.325" x2="-1.555" y2="55.67"/>
	<line class="st1" x1="14.59" y1="62.394" x2="-1.607" y2="53.042"/>
	<line class="st1" x1="18.865" y1="62.263" x2="-1.499" y2="50.506"/>
	<line class="st1" x1="23.182" y1="62.158" x2="-1.459" y2="47.931"/>
	<line class="st1" x1="27.736" y1="62.189" x2="-1.529" y2="45.293"/>
	<line class="st1" x1="32.049" y1="62.081" x2="-1.465" y2="42.732"/>
	<line class="st1" x1="36.749" y1="62.196" x2="-1.522" y2="40.101"/>
	<line class="st1" x1="41.271" y1="62.209" x2="-1.645" y2="37.431"/>
	<line class="st1" x1="45.801" y1="62.226" x2="-1.572" y2="34.876"/>
	<line class="st1" x1="50.08" y1="62.099" x2="-1.576" y2="32.275"/>
	<line class="st1" x1="54.737" y1="62.19" x2="-1.594" y2="29.667"/>
	<line class="st1" x1="59.428" y1="62.3" x2="-1.647" y2="27.038"/>
	<line class="st1" x1="61.539" y1="60.921" x2="-1.545" y2="24.499"/>
	<line class="st1" x1="61.758" y1="58.449" x2="-1.458" y2="21.951"/>
	<line class="st1" x1="61.545" y1="55.728" x2="-1.525" y2="19.314"/>
	<line class="st1" x1="61.597" y1="53.16" x2="-1.558" y2="16.697"/>
	<line class="st1" x1="61.527" y1="50.521" x2="-1.469" y2="14.15"/>
	<line class="st1" x1="61.65" y1="47.994" x2="-1.472" y2="11.551"/>
	<line class="st1" x1="61.538" y1="45.331" x2="-1.42" y2="8.983"/>
	<line class="st1" x1="61.48" y1="42.7" x2="-1.375" y2="6.41"/>
	<polyline class="st1" points="61.578,40.158 -1.135,3.951 -1.529,3.723 	"/>
	<polyline class="st1" points="61.514,37.524 -1.248,1.288 -2.111,0.79 	"/>
	<polyline class="st1" points="61.544,34.943 0,-0.59 -1.761,-1.606 	"/>
	<line class="st1" x1="61.353" y1="32.234" x2="2.933" y2="-1.494"/>
	<line class="st1" x1="61.482" y1="29.711" x2="7.489" y2="-1.462"/>
	<line class="st1" x1="61.479" y1="27.111" x2="11.988" y2="-1.463"/>
	<line class="st1" x1="61.458" y1="24.501" x2="16.186" y2="-1.637"/>
	<line class="st1" x1="61.361" y1="21.847" x2="20.651" y2="-1.657"/>
	<line class="st1" x1="61.563" y1="19.365" x2="25.485" y2="-1.464"/>
	<line class="st1" x1="61.605" y1="16.791" x2="30.1" y2="-1.398"/>
	<line class="st1" x1="61.433" y1="14.094" x2="34.593" y2="-1.402"/>
	<line class="st1" x1="61.589" y1="11.586" x2="38.944" y2="-1.488"/>
	<line class="st1" x1="61.366" y1="8.86" x2="43.447" y2="-1.486"/>
	<line class="st1" x1="61.599" y1="6.396" x2="48.098" y2="-1.399"/>
	<line class="st1" x1="61.587" y1="3.79" x2="52.221" y2="-1.617"/>
	<line class="st1" x1="61.605" y1="1.203" x2="56.949" y2="-1.485"/>
	<path class="st1" d="M-57.75-91.089"/>
	<path class="st1" d="M-56.625-93.038"/>
	<path class="st1" d="M-55.5-94.987"/>
	<path class="st1" d="M-54.375-96.935"/>
	<path class="st1" d="M-53.25-98.884"/>
	<path class="st1" d="M-52.125-100.832"/>
	<path class="st1" d="M-51-102.781"/>
	<path class="st1" d="M-49.875-104.729"/>
	<path class="st1" d="M-48.75-106.678"/>
	<path class="st1" d="M61.631,62.121"/>
	<line class="st1" x1="56.838" y1="62.29" x2="61.535" y2="59.579"/>
	<line class="st1" x1="52.761" y1="62.046" x2="61.655" y2="56.911"/>
	<line class="st1" x1="48.248" y1="62.054" x2="61.639" y2="54.322"/>
	<line class="st1" x1="43.747" y1="62.054" x2="61.555" y2="51.773"/>
	<line class="st1" x1="38.977" y1="62.211" x2="61.555" y2="49.175"/>
	<line class="st1" x1="34.718" y1="62.071" x2="61.602" y2="46.55"/>
	<line class="st1" x1="30.312" y1="62.017" x2="61.607" y2="43.949"/>
	<line class="st1" x1="25.399" y1="62.256" x2="61.575" y2="41.369"/>
	<line class="st1" x1="21.12" y1="62.128" x2="61.516" y2="38.805"/>
	<line class="st1" x1="16.295" y1="62.315" x2="61.616" y2="36.149"/>
	<line class="st1" x1="11.778" y1="62.325" x2="61.415" y2="33.667"/>
	<line class="st1" x1="6.949" y1="62.515" x2="61.557" y2="30.987"/>
	<line class="st1" x1="3.231" y1="62.064" x2="61.44" y2="28.457"/>
	<line class="st1" x1="-1.62" y1="62.266" x2="61.498" y2="25.825"/>
	<line class="st1" x1="-1.625" y1="59.671" x2="61.567" y2="23.187"/>
	<line class="st1" x1="-1.398" y1="56.942" x2="61.477" y2="20.641"/>
	<line class="st1" x1="-1.514" y1="54.411" x2="61.651" y2="17.943"/>
	<line class="st1" x1="-1.367" y1="51.728" x2="61.481" y2="15.443"/>
	<line class="st1" x1="-1.426" y1="49.164" x2="61.624" y2="12.762"/>
	<line class="st1" x1="-1.554" y1="46.64" x2="61.559" y2="10.201"/>
	<line class="st1" x1="-1.659" y1="44.102" x2="61.506" y2="7.634"/>
	<line class="st1" x1="-1.549" y1="41.441" x2="61.496" y2="5.042"/>
	<line class="st1" x1="-1.501" y1="38.815" x2="61.691" y2="2.331"/>
	<line class="st1" x1="-1.687" y1="36.324" x2="61.659" y2="-0.249"/>
	<line class="st1" x1="-1.522" y1="33.631" x2="59.322" y2="-1.497"/>
	<line class="st1" x1="-1.64" y1="31.101" x2="55.116" y2="-1.667"/>
	<line class="st1" x1="-1.454" y1="28.396" x2="50.498" y2="-1.599"/>
	<line class="st1" x1="-1.477" y1="25.811" x2="46.01" y2="-1.606"/>
	<line class="st1" x1="-1.619" y1="23.295" x2="41.374" y2="-1.527"/>
	<line class="st1" x1="-1.589" y1="20.679" x2="36.704" y2="-1.429"/>
	<line class="st1" x1="-1.499" y1="18.029" x2="32.345" y2="-1.51"/>
	<line class="st1" x1="-1.488" y1="15.425" x2="27.96" y2="-1.577"/>
	<line class="st1" x1="-1.537" y1="12.855" x2="23.453" y2="-1.573"/>
	<line class="st1" x1="-1.447" y1="10.205" x2="19.027" y2="-1.616"/>
	<polyline class="st1" points="-1.57,7.678 -0.992,7.344 14.636,-1.679 	"/>
	<line class="st1" x1="-1.692" y1="5.15" x2="9.935" y2="-1.562"/>
	<line class="st1" x1="-1.256" y1="2.301" x2="4.909" y2="-1.259"/>
	<path class="st1" d="M0.826-1.5"/>
</g>
<path class="st2" d="M58.625,25.5083l-0.0472-0.0269c0.0018-0.0024,0.0027-0.0053,0.0045-0.0078
	c0.0282-0.0435,0.0517-0.0875,0.0671-0.138c0.0103-0.0309,0.0139-0.0618,0.018-0.0941c0.0027-0.0218,0.0123-0.0423,0.0123-0.0643
	l-0.043-10.4292c-0.0003-0.0823-0.0253-0.1567-0.0609-0.2251c-0.0101-0.0195-0.0232-0.0349-0.0358-0.0529
	c-0.0341-0.049-0.0746-0.0896-0.1237-0.1236c-0.0117-0.0082-0.0172-0.0223-0.0297-0.0296L42.6006,5.208
	c-0.1553-0.0894-0.3457-0.0884-0.501,0.0005L1.624,28.6753c-0.0126,0.0073-0.0181,0.0216-0.0298,0.0299
	c-0.0483,0.0338-0.0886,0.0741-0.1223,0.1225c-0.0127,0.0182-0.0258,0.0336-0.0359,0.0533
	c-0.0343,0.0661-0.0574,0.1381-0.059,0.2174C1.3768,29.101,1.375,29.103,1.375,29.1055c0,0.0004,0.0003,0.0007,0.0003,0.001
	c0,0.0005-0.0003,0.0009-0.0003,0.0014v10.3882c0,0.0213,0.0095,0.0394,0.0121,0.0599c0.0042,0.0343,0.009,0.067,0.0201,0.0997
	c0.0104,0.0306,0.0248,0.0574,0.0407,0.085c0.0158,0.0278,0.0318,0.054,0.053,0.0786c0.0225,0.0259,0.048,0.0464,0.0753,0.0673
	c0.0165,0.0128,0.0275,0.0302,0.046,0.0411L17.313,49.124c0.0078,0.0046,0.0172,0.0027,0.0251,0.0068
	c0.0692,0.0361,0.1443,0.0616,0.2278,0.0616c0.0832,0,0.1581-0.0252,0.2271-0.0611c0.0074-0.0038,0.0161-0.0021,0.0234-0.0063
	l11.1312-6.4443l2.2477,1.2978c0.2178,0.127,0.4414,0.1904,0.6523,0.1904c0.1689,0,0.3291-0.041,0.4727-0.124
	c0.3115-0.1797,0.4902-0.5273,0.4902-0.9551c0-0.71-0.4805-1.5215-1.1191-1.8867L31.595,41.148l6.3107-3.6535l2.2964,1.3258
	c0.2168,0.126,0.4395,0.1895,0.6484,0.1895c0.1689,0,0.3301-0.041,0.4736-0.124c0.3145-0.1816,0.4941-0.5332,0.4941-0.9658
	c0-0.7168-0.4824-1.5322-1.1221-1.8975l-0.1249-0.0712l6.1965-3.5874l2.3826,1.3754c0.2129,0.123,0.4316,0.1855,0.6387,0.1855
	c0.168,0,0.3291-0.041,0.4727-0.124c0.3203-0.1846,0.5039-0.5469,0.5039-1.0205c0-0.7373-0.4863-1.5645-1.1318-1.9224l-0.1351-0.075
	l6.4314-3.7234l2.2018,1.2881c0.2158,0.126,0.4365,0.1895,0.6455,0.1895c0.167,0,0.3262-0.0405,0.4688-0.1226
	c0.3184-0.1826,0.501-0.542,0.501-0.9854C59.7471,26.6973,59.2646,25.8716,58.625,25.5083z M49.0814,19.4481l-3.6591-2.2068
	l1.4504-0.8149l3.7145,2.1442L49.0814,19.4481z M51.1848,18.2223l-4.01-2.3148v-1.6915l5.4251,3.1816L51.1848,18.2223z
	 M46.5752,15.9055l-1.7435,0.9796l-1.4586-0.8797l3.2021-1.7816V15.9055z M51.875,18.978l5.7653-3.3597l0.0382,9.2731
	l-0.0679,0.0393l-5.7356-3.2655V18.978z M53.5911,16.8199l-6.4417-3.778c-0.1523-0.0898-0.3398-0.0918-0.4961-0.0059l-4.5205,2.5146
	c-0.1553,0.0869-0.2539,0.25-0.2568,0.4282s0.0889,0.3447,0.2422,0.437l5.9788,3.6058l-3.4907,2.0343l-6.4852-3.8022
	c-0.1523-0.0894-0.3398-0.0918-0.4961-0.0059l-4.5205,2.5142c-0.1553,0.0869-0.2539,0.25-0.2568,0.4282s0.0889,0.3447,0.2422,0.437
	l6.0205,3.6316l-3.4894,2.0336l-6.5281-3.8278c-0.1533-0.0903-0.3418-0.0918-0.4961-0.0059l-4.52,2.5151
	c-0.1558,0.0869-0.2534,0.25-0.2568,0.4282c-0.0029,0.1782,0.0889,0.3447,0.2417,0.437l6.0627,3.6566l-3.4886,2.0331l-6.5697-3.8522
	c-0.1533-0.0903-0.3418-0.0918-0.4961-0.0059l-4.521,2.5146c-0.1558,0.0859-0.2534,0.249-0.2568,0.4277
	c-0.0029,0.1787,0.0889,0.3447,0.2417,0.4365l6.1055,3.6824l-3.5714,2.0813l-10.203-6.0378L46.9065,8.8471l10.2332,5.9048
	L53.5911,16.8199z M40.0947,24.6853l-3.7305-2.2503l1.5099-0.8169l3.8615,2.111L40.0947,24.6853z M37.5752,21.0983l-1.8066,0.9774
	l-1.4238-0.8589l3.2305-1.7969V21.0983z M42.3406,23.3765l-4.1658-2.2773v-1.6546l5.4402,3.1893L42.3406,23.3765z M31.1089,29.9221
	l-3.7208-2.2441l1.512-0.8727l3.8018,2.1885L31.1089,29.9221z M28.6001,26.2858l-1.7988,1.0383l-1.4844-0.8953l3.2832-1.8271
	V26.2858z M33.299,28.6458l-4.0992-2.3602v-1.5991l5.4299,3.1838L33.299,28.6458z M22.1234,35.1586l-3.8095-2.2977l1.4989-0.8134
	l3.9432,2.1597L22.1234,35.1586z M19.5132,31.5275l-1.7951,0.9741l-1.429-0.8619l3.2241-1.7928V31.5275z M24.3603,33.855
	l-4.2475-2.3264v-1.6655l5.5308,3.244L24.3603,33.855z M2.375,29.9849l3.5,2.0714v9.2043l-3.5-2.0513V29.9849z M6.875,32.648
	l10.1909,6.0311v9.1403L6.875,41.8466V32.648z M42.3516,6.2188l3.5554,2.0516L6.378,31.1916l-3.5137-2.0793L42.3516,6.2188z
	 M18.0659,47.8246v-9.144l4.2808-2.4948c0.0135-0.0067,0.025-0.0141,0.0379-0.022l1.3673-0.7968v6.7159c0,0.2764,0.2236,0.5,0.5,0.5
	s0.5-0.2236,0.5-0.5v-1.8248l3.196,1.8453L18.0659,47.8246z M31.8105,43.0898c0,0.0332-0.0029,0.0586,0,0.0732
	c-0.0264-0.0068-0.0654-0.0215-0.1152-0.0498l-6.9434-4.009v-0.7185l6.4424,3.6845C31.5166,42.2549,31.8105,42.7412,31.8105,43.0898
	z M30.5906,40.5736l-5.8386-3.3387v-2.4506l8.123-4.7338v6.7151c0,0.2764,0.2236,0.5,0.5,0.5s0.5-0.2236,0.5-0.5v-1.5983
	l3.0311,1.75L30.5906,40.5736z M40.8184,37.9199c0,0.04-0.0039,0.0703,0,0.085c-0.0264-0.0068-0.0654-0.0205-0.1162-0.0498
	l-6.8271-3.9416v-0.7274l6.3262,3.6055C40.5244,37.0752,40.8184,37.5654,40.8184,37.9199z M39.5652,35.3779l-5.6902-3.2426v-2.6676
	l8-4.662v6.6455c0,0.2764,0.2236,0.5,0.5,0.5s0.5-0.2236,0.5-0.5v-1.3344l2.8931,1.67L39.5652,35.3779z M49.7656,32.8066
	c0,0.0605-0.0078,0.1006-0.001,0.1152c-0.0234-0.0049-0.0625-0.0186-0.1143-0.0479l-6.7754-3.912v-0.7122l6.2734,3.4827
	C49.4717,31.9111,49.7656,32.4111,49.7656,32.8066z M48.4793,30.2172l-5.6043-3.1104v-2.8839l8-4.6621v6.6794
	c0,0.2764,0.2236,0.5,0.5,0.5s0.5-0.2236,0.5-0.5v-1.5531l3.0621,1.7914L48.4793,30.2172z M58.7461,27.5327
	c-0.0244-0.0063-0.0615-0.02-0.1094-0.0483l-6.7617-3.9565v-0.7122l6.2559,3.5617c0.3223,0.1836,0.6162,0.6846,0.6162,1.0518
	C58.7471,27.4805,58.7412,27.5166,58.7461,27.5327z"/>
</svg>
