<?xml version="1.0" encoding="utf-8"?>
<!-- Generator: Adobe Illustrator 21.0.0, SVG Export Plug-In . SVG Version: 6.00 Build 0)  -->
<svg version="1.1" id="Layer_1" xmlns="http://www.w3.org/2000/svg" xmlns:xlink="http://www.w3.org/1999/xlink" x="0px" y="0px"
	 viewBox="0 0 60 60" style="enable-background:new 0 0 60 60;" xml:space="preserve">
<style type="text/css">
	.st0{display:none;opacity:0.2;}
	.st1{display:inline;fill:none;stroke:#00ADEE;stroke-width:0.125;stroke-miterlimit:10;}
	.st2{fill:#231F20;}
</style>
<g class="st0">
	<path class="st1" d="M-0.375-1.557"/>
	<line class="st1" x1="1.875" y1="62.156" x2="1.875" y2="-1.36"/>
	<line class="st1" x1="4.125" y1="62.353" x2="4.125" y2="-1.557"/>
	<line class="st1" x1="6.375" y1="61.959" x2="6.375" y2="-1.311"/>
	<line class="st1" x1="8.625" y1="62.746" x2="8.625" y2="-1.655"/>
	<line class="st1" x1="10.875" y1="62.353" x2="10.875" y2="-1.508"/>
	<line class="st1" x1="13.125" y1="62.5" x2="13.125" y2="-1.606"/>
	<line class="st1" x1="15.375" y1="62.353" x2="15.375" y2="-1.557"/>
	<line class="st1" x1="17.625" y1="62.5" x2="17.625" y2="-1.902"/>
	<line class="st1" x1="19.875" y1="62.156" x2="19.875" y2="-1.655"/>
	<line class="st1" x1="22.125" y1="62.303" x2="22.125" y2="-1.852"/>
	<line class="st1" x1="24.375" y1="62.106" x2="24.375" y2="-1.458"/>
	<line class="st1" x1="26.625" y1="62.254" x2="26.625" y2="-1.508"/>
	<line class="st1" x1="28.875" y1="62.303" x2="28.875" y2="-1.508"/>
	<line class="st1" x1="31.125" y1="62.057" x2="31.125" y2="-1.458"/>
	<line class="st1" x1="33.375" y1="62.106" x2="33.375" y2="-1.409"/>
	<line class="st1" x1="35.625" y1="62.353" x2="35.625" y2="-1.606"/>
	<line class="st1" x1="37.875" y1="62.156" x2="37.875" y2="-1.557"/>
	<line class="st1" x1="40.125" y1="62.451" x2="40.125" y2="-1.508"/>
	<line class="st1" x1="42.375" y1="62.254" x2="42.375" y2="-1.36"/>
	<line class="st1" x1="44.625" y1="62.106" x2="44.625" y2="-1.508"/>
	<line class="st1" x1="46.875" y1="62.156" x2="46.875" y2="-1.508"/>
	<line class="st1" x1="49.125" y1="62.106" x2="49.125" y2="-1.508"/>
	<line class="st1" x1="51.375" y1="61.86" x2="51.375" y2="-1.557"/>
	<line class="st1" x1="53.625" y1="62.156" x2="53.625" y2="-1.754"/>
	<line class="st1" x1="55.875" y1="62.156" x2="55.875" y2="-1.606"/>
	<line class="st1" x1="58.125" y1="62.451" x2="58.125" y2="-1.606"/>
	<line class="st1" x1="0.707" y1="62.173" x2="-1.49" y2="60.904"/>
	<line class="st1" x1="5.116" y1="62.12" x2="-1.544" y2="58.275"/>
	<line class="st1" x1="9.971" y1="62.325" x2="-1.555" y2="55.67"/>
	<line class="st1" x1="14.59" y1="62.394" x2="-1.607" y2="53.042"/>
	<line class="st1" x1="18.865" y1="62.263" x2="-1.499" y2="50.506"/>
	<line class="st1" x1="23.182" y1="62.158" x2="-1.459" y2="47.931"/>
	<line class="st1" x1="27.736" y1="62.189" x2="-1.529" y2="45.293"/>
	<line class="st1" x1="32.049" y1="62.081" x2="-1.465" y2="42.732"/>
	<line class="st1" x1="36.749" y1="62.196" x2="-1.522" y2="40.101"/>
	<line class="st1" x1="41.271" y1="62.209" x2="-1.645" y2="37.431"/>
	<line class="st1" x1="45.801" y1="62.226" x2="-1.572" y2="34.876"/>
	<line class="st1" x1="50.08" y1="62.099" x2="-1.576" y2="32.275"/>
	<line class="st1" x1="54.737" y1="62.19" x2="-1.594" y2="29.667"/>
	<line class="st1" x1="59.428" y1="62.3" x2="-1.647" y2="27.038"/>
	<line class="st1" x1="61.539" y1="60.921" x2="-1.545" y2="24.499"/>
	<line class="st1" x1="61.758" y1="58.449" x2="-1.458" y2="21.951"/>
	<line class="st1" x1="61.545" y1="55.728" x2="-1.525" y2="19.314"/>
	<line class="st1" x1="61.597" y1="53.16" x2="-1.558" y2="16.697"/>
	<line class="st1" x1="61.527" y1="50.521" x2="-1.469" y2="14.15"/>
	<line class="st1" x1="61.65" y1="47.994" x2="-1.472" y2="11.551"/>
	<line class="st1" x1="61.538" y1="45.331" x2="-1.42" y2="8.983"/>
	<line class="st1" x1="61.48" y1="42.7" x2="-1.375" y2="6.41"/>
	<polyline class="st1" points="61.578,40.158 -1.135,3.951 -1.529,3.723 	"/>
	<polyline class="st1" points="61.514,37.524 -1.248,1.288 -2.111,0.79 	"/>
	<polyline class="st1" points="61.544,34.943 0,-0.59 -1.761,-1.606 	"/>
	<line class="st1" x1="61.353" y1="32.234" x2="2.933" y2="-1.494"/>
	<line class="st1" x1="61.482" y1="29.711" x2="7.489" y2="-1.462"/>
	<line class="st1" x1="61.479" y1="27.111" x2="11.988" y2="-1.463"/>
	<line class="st1" x1="61.458" y1="24.501" x2="16.186" y2="-1.637"/>
	<line class="st1" x1="61.361" y1="21.847" x2="20.651" y2="-1.657"/>
	<line class="st1" x1="61.563" y1="19.365" x2="25.485" y2="-1.464"/>
	<line class="st1" x1="61.605" y1="16.791" x2="30.1" y2="-1.398"/>
	<line class="st1" x1="61.433" y1="14.094" x2="34.593" y2="-1.402"/>
	<line class="st1" x1="61.589" y1="11.586" x2="38.944" y2="-1.488"/>
	<line class="st1" x1="61.366" y1="8.86" x2="43.447" y2="-1.486"/>
	<line class="st1" x1="61.599" y1="6.396" x2="48.098" y2="-1.399"/>
	<line class="st1" x1="61.587" y1="3.79" x2="52.221" y2="-1.617"/>
	<line class="st1" x1="61.605" y1="1.203" x2="56.949" y2="-1.485"/>
	<path class="st1" d="M61.536-1.435"/>
	<path class="st1" d="M-57.75-91.089"/>
	<path class="st1" d="M-56.625-93.038"/>
	<path class="st1" d="M-55.5-94.987"/>
	<path class="st1" d="M-54.375-96.935"/>
	<path class="st1" d="M-53.25-98.884"/>
	<path class="st1" d="M-52.125-100.832"/>
	<path class="st1" d="M-51-102.781"/>
	<path class="st1" d="M-49.875-104.729"/>
	<path class="st1" d="M-48.75-106.678"/>
	<path class="st1" d="M61.631,62.121"/>
	<line class="st1" x1="56.838" y1="62.29" x2="61.535" y2="59.579"/>
	<line class="st1" x1="52.761" y1="62.046" x2="61.655" y2="56.911"/>
	<line class="st1" x1="48.248" y1="62.054" x2="61.639" y2="54.322"/>
	<line class="st1" x1="43.747" y1="62.054" x2="61.555" y2="51.773"/>
	<line class="st1" x1="38.977" y1="62.211" x2="61.555" y2="49.175"/>
	<line class="st1" x1="34.718" y1="62.071" x2="61.602" y2="46.55"/>
	<line class="st1" x1="30.312" y1="62.017" x2="61.607" y2="43.949"/>
	<line class="st1" x1="25.399" y1="62.256" x2="61.575" y2="41.369"/>
	<line class="st1" x1="21.12" y1="62.128" x2="61.516" y2="38.805"/>
	<line class="st1" x1="16.295" y1="62.315" x2="61.616" y2="36.149"/>
	<line class="st1" x1="11.778" y1="62.325" x2="61.415" y2="33.667"/>
	<line class="st1" x1="6.949" y1="62.515" x2="61.557" y2="30.987"/>
	<line class="st1" x1="3.231" y1="62.064" x2="61.44" y2="28.457"/>
	<line class="st1" x1="-1.62" y1="62.266" x2="61.498" y2="25.825"/>
	<line class="st1" x1="-1.625" y1="59.671" x2="61.567" y2="23.187"/>
	<line class="st1" x1="-1.398" y1="56.942" x2="61.477" y2="20.641"/>
	<line class="st1" x1="-1.514" y1="54.411" x2="61.651" y2="17.943"/>
	<line class="st1" x1="-1.367" y1="51.728" x2="61.481" y2="15.443"/>
	<line class="st1" x1="-1.426" y1="49.164" x2="61.624" y2="12.762"/>
	<line class="st1" x1="-1.554" y1="46.64" x2="61.559" y2="10.201"/>
	<line class="st1" x1="-1.659" y1="44.102" x2="61.506" y2="7.634"/>
	<line class="st1" x1="-1.549" y1="41.441" x2="61.496" y2="5.042"/>
	<line class="st1" x1="-1.501" y1="38.815" x2="61.691" y2="2.331"/>
	<line class="st1" x1="-1.687" y1="36.324" x2="61.659" y2="-0.249"/>
	<line class="st1" x1="-1.522" y1="33.631" x2="59.322" y2="-1.497"/>
	<line class="st1" x1="-1.64" y1="31.101" x2="55.116" y2="-1.667"/>
	<line class="st1" x1="-1.454" y1="28.396" x2="50.498" y2="-1.599"/>
	<line class="st1" x1="-1.477" y1="25.811" x2="46.01" y2="-1.606"/>
	<line class="st1" x1="-1.619" y1="23.295" x2="41.374" y2="-1.527"/>
	<line class="st1" x1="-1.589" y1="20.679" x2="36.704" y2="-1.429"/>
	<line class="st1" x1="-1.499" y1="18.029" x2="32.345" y2="-1.51"/>
	<line class="st1" x1="-1.488" y1="15.425" x2="27.96" y2="-1.577"/>
	<line class="st1" x1="-1.537" y1="12.855" x2="23.453" y2="-1.573"/>
	<line class="st1" x1="-1.447" y1="10.205" x2="19.027" y2="-1.616"/>
	<polyline class="st1" points="-1.57,7.678 -0.992,7.344 14.636,-1.679 	"/>
	<line class="st1" x1="-1.692" y1="5.15" x2="9.935" y2="-1.562"/>
	<line class="st1" x1="-1.256" y1="2.301" x2="4.909" y2="-1.259"/>
	<path class="st1" d="M0.826-1.5"/>
</g>
<g>
	<path class="st2" d="M50.3611,40.5453c0.0022-0.0049,0.005-0.0093,0.007-0.0143c0.0346-0.0833,0.0515-0.1718,0.0381-0.2625V7.5249
		c0-0.0829-0.0251-0.1578-0.0607-0.2266c-0.0098-0.019-0.0226-0.0339-0.0347-0.0515c-0.0344-0.0499-0.0756-0.0912-0.1253-0.1257
		c-0.0116-0.0081-0.0168-0.0222-0.0292-0.0293L40.7969,1.688c-0.1543-0.0889-0.3457-0.0889-0.5,0L12.2041,17.9077
		c-0.0125,0.0072-0.0177,0.0213-0.0294,0.0294c-0.0494,0.0342-0.0905,0.0754-0.1247,0.1248
		c-0.0123,0.0179-0.0253,0.033-0.0352,0.0522c-0.0357,0.0688-0.0607,0.1437-0.0607,0.2266v32.8174
		c0,0.0425,0.0142,0.0804,0.0242,0.1198c0.0012,0.0051,0.0016,0.0103,0.0031,0.0153c0.0162,0.0565,0.0413,0.1066,0.075,0.153
		c0.0047,0.0067,0.0084,0.0135,0.0135,0.02c0.0342,0.0425,0.0745,0.0767,0.1206,0.1061c0.0084,0.0055,0.0132,0.0142,0.022,0.0193
		l0.0458,0.0264c0.0005,0.0002,0.001,0.0006,0.0015,0.0009l9.1568,5.2687c0.0034,0.002,0.0076,0.001,0.011,0.0029
		c0.0699,0.0371,0.1459,0.0635,0.2307,0.0635c0.0016,0,0.0029-0.0009,0.0045-0.0009c0.0012,0,0.0022,0.0009,0.0034,0.0009
		c0.0087,0,0.0164-0.0062,0.0251-0.0067c0.067-0.0046,0.1294-0.021,0.1866-0.0493c0.0115-0.0054,0.0248-0.0031,0.0359-0.0095
		l28.2485-16.1123c0.03-0.0172,0.0499-0.0435,0.075-0.0656c0.0102-0.0092,0.0209-0.0165,0.0303-0.0265
		C50.3075,40.6428,50.3378,40.5967,50.3611,40.5453z M12.9541,19.2057l8.2041,4.7209v31.6585l-8.2041-4.7209V19.2057z
		 M22.1582,23.9273l27.248-15.5416v31.6697l-27.248,15.5423V23.9273z M40.5469,2.6982l8.3545,4.8242L21.6592,23.061l-8.2036-4.7207
		L40.5469,2.6982z"/>
	<path class="st2" d="M42.8779,18.5527c-5.4795-2.8701-13.1567,0.9497-17.1133,8.5107c-1.9033,3.6362-2.6782,7.5918-2.1821,11.1396
		c0.5044,3.6084,2.2603,6.3691,4.9429,7.7734c1.2314,0.6445,2.5859,0.9648,4.0059,0.9648c1.6738,0,3.4395-0.4463,5.1992-1.335
		c3.1973-1.6143,6.0059-4.5049,7.9092-8.1416C49.5957,29.9048,48.3574,21.4209,42.8779,18.5527z M44.7529,37.002
		c-1.8066,3.4521-4.4609,6.1914-7.4736,7.7119c-2.9561,1.4932-5.9014,1.627-8.29,0.376c-2.3892-1.25-3.9575-3.7451-4.4165-7.0254
		c-0.4673-3.3428,0.271-7.0845,2.0776-10.5371c2.8867-5.5156,7.8223-8.936,12.2236-8.936c1.2422,0,2.4424,0.2725,3.541,0.8472
		C47.4053,22.0508,48.4541,29.9297,44.7529,37.002z"/>
	<path class="st2" d="M44.3887,28.1934c-1.0045-0.3537-5.1898,1.4487-6.3842,1.9781c-0.089-0.0701-0.1762-0.1428-0.278-0.1959
		c-0.0898-0.0471-0.1865-0.0707-0.281-0.1016c0.2479-0.9294,1.5201-5.6957,1.6794-6.4355c0.1602-0.7393,0.0918-2.0591-0.748-2.6655
		c-0.0226-0.0163-0.0481-0.0264-0.0713-0.0413c-0.6403-0.6953-2.6634-1.0613-4.2402-0.1301
		c-2.8877,1.7021-2.8545,3.4893-2.502,4.856c0.321,1.2459,1.6755,5.6757,2.0122,6.7734c-1.3992,0.6539-7.1948,3.4492-8.0371,5.2457
		c-0.9679,2.0649,1.6058,4.9143,2.4128,5.441c0.0931,0.0815,0.1826,0.1519,0.262,0.2006c0.3604,0.2207,0.7617,0.4023,1.2217,0.4023
		c0.5796,0,1.252-0.2881,2.0513-1.1504c1.1846-1.2763,3.0737-5.4828,3.5535-6.5747c0.1849,0.0588,0.3753,0.0991,0.5745,0.0991
		c0.3584,0,0.7334-0.0947,1.1055-0.2822c0.2135-0.1078,0.4138-0.2515,0.6066-0.4101l0.8035,0.5732
		c0.2012,0.1436,0.4248,0.3154,0.6494,0.4873c0.457,0.3496,0.8896,0.6807,1.2002,0.8447l0.1221,0.0654
		c0.4502,0.2422,0.957,0.5127,1.3525,0.5127c0.0352,0,0.0703-0.002,0.1045-0.0068c0.4863-0.0664,1.7764-0.501,3.2373-3.1025
		c0.6561-1.1684,0.9741-2.3555,0.9161-3.3422C45.834,29.6227,45.014,28.4153,44.3887,28.1934z M44.1875,28.7588
		c0.1556,0.055,0.3935,0.3055,0.5917,0.6909c-0.0074-0.0029-0.0139-0.0086-0.0214-0.0112
		c-0.9943-0.3553-5.0701,1.1243-6.1545,1.5313c-0.0493-0.1156-0.0974-0.2324-0.1624-0.3337
		C40.9265,29.5458,43.6704,28.5757,44.1875,28.7588z M38.5391,23.3115c-0.1586,0.7324-1.4858,5.7059-1.6883,6.463
		c-0.6304,0.0025-1.2921,0.2975-1.8575,0.8126c-0.3458-1.0723-1.1732-3.6619-1.4532-4.7477
		c-0.3184-1.2358-0.3027-2.7002,2.2256-4.1899c0.7021-0.4146,1.668-0.8208,2.2598-0.3901
		C38.5967,21.6709,38.6689,22.7075,38.5391,23.3115z M34.3701,21.1182c0.6871-0.4046,1.4438-0.5042,2.0863-0.4573
		c-0.3109,0.1096-0.6412,0.2632-0.9955,0.4719c-2.8877,1.7017-2.8545,3.4888-2.502,4.8564
		c0.3232,1.2524,1.3256,4.3595,1.5668,5.1021c-0.15,0.194-0.2906,0.4009-0.4106,0.6304c-0.0156,0.0297-0.0248,0.0609-0.0397,0.0908
		c-0.4265-1.3923-1.6381-5.3652-1.932-6.5044C31.8262,24.0728,31.8418,22.6089,34.3701,21.1182z M26.0815,37.7305
		c0.6504-1.3869,5.4453-3.8704,7.6382-4.9045c-0.0528,0.2545-0.0742,0.5065-0.0731,0.7549
		c-0.9821,0.4735-6.0397,2.9784-6.8874,4.7863c-0.312,0.6653-0.3535,1.342-0.2426,1.9713
		C26.0207,39.4817,25.7142,38.5145,26.0815,37.7305z M31.0469,41.9619c-1.1943,1.2881-1.8994,1.0244-2.52,0.6445
		c-0.5591-0.3428-2.0347-2.2559-1.2246-3.9854c0.6432-1.3704,4.5612-3.5027,6.4144-4.4077c0.1194,0.5618,0.392,1.0101,0.7901,1.3047
		C34.0658,36.5202,32.166,40.7556,31.0469,41.9619z M36.4492,35.0762c-0.5156,0.2607-1.0264,0.2871-1.4316,0.0752
		c-0.4063-0.2129-0.6748-0.6455-0.7549-1.2188c-0.085-0.6104,0.0508-1.2969,0.3838-1.9336
		c0.1292-0.2466,0.2806-0.4698,0.4464-0.6675c0.0126-0.0169,0.0312-0.0258,0.04-0.0449c0.5048-0.5811,1.1374-0.9239,1.7129-0.9239
		c0.2119,0,0.416,0.0464,0.6035,0.144c0.4063,0.2129,0.6738,0.6455,0.7539,1.2188c0.085,0.6104-0.0508,1.2969-0.3838,1.9336
		C37.4863,34.2949,37,34.7988,36.4492,35.0762z M44.2725,34.2832c-1.3662,2.4316-2.4854,2.7588-2.7959,2.8018
		c-0.2051,0.0127-0.7637-0.2656-1.0918-0.4404l-0.124-0.0674c-0.2676-0.1406-0.6992-0.4717-1.1162-0.791
		c-0.2305-0.1758-0.46-0.3516-0.665-0.499l-0.7156-0.5098c0.2213-0.251,0.4235-0.5286,0.5867-0.8408
		c0.3906-0.7451,0.5498-1.5605,0.4473-2.2939c-0.0048-0.0342-0.0175-0.0629-0.0233-0.0964c2.0715-0.778,5.1835-1.7529,5.7821-1.5423
		c0.1182,0.0415,0.2871,0.2031,0.4102,0.5317C45.0996,30.8887,45.4414,32.2012,44.2725,34.2832z"/>
</g>
</svg>
