<?xml version="1.0" encoding="utf-8"?>
<!-- Generator: Adobe Illustrator 21.0.0, SVG Export Plug-In . SVG Version: 6.00 Build 0)  -->
<svg version="1.1" id="Layer_1" xmlns="http://www.w3.org/2000/svg" xmlns:xlink="http://www.w3.org/1999/xlink" x="0px" y="0px"
	 viewBox="0 0 60 60" style="enable-background:new 0 0 60 60;" xml:space="preserve">
<style type="text/css">
	.st0{display:none;opacity:0.2;}
	.st1{display:inline;fill:none;stroke:#00ADEE;stroke-width:0.125;stroke-miterlimit:10;}
	.st2{fill:#231F20;}
</style>
<g class="st0">
	<path class="st1" d="M-0.375-1.557"/>
	<line class="st1" x1="1.875" y1="62.156" x2="1.875" y2="-1.36"/>
	<line class="st1" x1="4.125" y1="62.353" x2="4.125" y2="-1.557"/>
	<line class="st1" x1="6.375" y1="61.959" x2="6.375" y2="-1.311"/>
	<line class="st1" x1="8.625" y1="62.746" x2="8.625" y2="-1.655"/>
	<line class="st1" x1="10.875" y1="62.353" x2="10.875" y2="-1.508"/>
	<line class="st1" x1="13.125" y1="62.5" x2="13.125" y2="-1.606"/>
	<line class="st1" x1="15.375" y1="62.353" x2="15.375" y2="-1.557"/>
	<line class="st1" x1="17.625" y1="62.5" x2="17.625" y2="-1.902"/>
	<line class="st1" x1="19.875" y1="62.156" x2="19.875" y2="-1.655"/>
	<line class="st1" x1="22.125" y1="62.303" x2="22.125" y2="-1.852"/>
	<line class="st1" x1="24.375" y1="62.106" x2="24.375" y2="-1.458"/>
	<line class="st1" x1="26.625" y1="62.254" x2="26.625" y2="-1.508"/>
	<line class="st1" x1="28.875" y1="62.303" x2="28.875" y2="-1.508"/>
	<line class="st1" x1="31.125" y1="62.057" x2="31.125" y2="-1.458"/>
	<line class="st1" x1="33.375" y1="62.106" x2="33.375" y2="-1.409"/>
	<line class="st1" x1="35.625" y1="62.353" x2="35.625" y2="-1.606"/>
	<line class="st1" x1="37.875" y1="62.156" x2="37.875" y2="-1.557"/>
	<line class="st1" x1="40.125" y1="62.451" x2="40.125" y2="-1.508"/>
	<line class="st1" x1="42.375" y1="62.254" x2="42.375" y2="-1.36"/>
	<line class="st1" x1="44.625" y1="62.106" x2="44.625" y2="-1.508"/>
	<line class="st1" x1="46.875" y1="62.156" x2="46.875" y2="-1.508"/>
	<line class="st1" x1="49.125" y1="62.106" x2="49.125" y2="-1.508"/>
	<line class="st1" x1="51.375" y1="61.86" x2="51.375" y2="-1.557"/>
	<line class="st1" x1="53.625" y1="62.156" x2="53.625" y2="-1.754"/>
	<line class="st1" x1="55.875" y1="62.156" x2="55.875" y2="-1.606"/>
	<line class="st1" x1="58.125" y1="62.451" x2="58.125" y2="-1.606"/>
	<line class="st1" x1="0.707" y1="62.173" x2="-1.49" y2="60.904"/>
	<line class="st1" x1="5.116" y1="62.12" x2="-1.544" y2="58.275"/>
	<line class="st1" x1="9.971" y1="62.325" x2="-1.555" y2="55.67"/>
	<line class="st1" x1="14.59" y1="62.394" x2="-1.607" y2="53.042"/>
	<line class="st1" x1="18.865" y1="62.263" x2="-1.499" y2="50.506"/>
	<line class="st1" x1="23.182" y1="62.158" x2="-1.459" y2="47.931"/>
	<line class="st1" x1="27.736" y1="62.189" x2="-1.529" y2="45.293"/>
	<line class="st1" x1="32.049" y1="62.081" x2="-1.465" y2="42.732"/>
	<line class="st1" x1="36.749" y1="62.196" x2="-1.522" y2="40.101"/>
	<line class="st1" x1="41.271" y1="62.209" x2="-1.645" y2="37.431"/>
	<line class="st1" x1="45.801" y1="62.226" x2="-1.572" y2="34.876"/>
	<line class="st1" x1="50.08" y1="62.099" x2="-1.576" y2="32.275"/>
	<line class="st1" x1="54.737" y1="62.19" x2="-1.594" y2="29.667"/>
	<line class="st1" x1="59.428" y1="62.3" x2="-1.647" y2="27.038"/>
	<line class="st1" x1="61.539" y1="60.921" x2="-1.545" y2="24.499"/>
	<line class="st1" x1="61.758" y1="58.449" x2="-1.458" y2="21.951"/>
	<line class="st1" x1="61.545" y1="55.728" x2="-1.525" y2="19.314"/>
	<line class="st1" x1="61.597" y1="53.16" x2="-1.558" y2="16.697"/>
	<line class="st1" x1="61.527" y1="50.521" x2="-1.469" y2="14.15"/>
	<line class="st1" x1="61.65" y1="47.994" x2="-1.472" y2="11.551"/>
	<line class="st1" x1="61.538" y1="45.331" x2="-1.42" y2="8.983"/>
	<line class="st1" x1="61.48" y1="42.7" x2="-1.375" y2="6.41"/>
	<polyline class="st1" points="61.578,40.158 -1.135,3.951 -1.529,3.723 	"/>
	<polyline class="st1" points="61.514,37.524 -1.248,1.288 -2.111,0.79 	"/>
	<polyline class="st1" points="61.544,34.943 0,-0.59 -1.761,-1.606 	"/>
	<line class="st1" x1="61.353" y1="32.234" x2="2.933" y2="-1.494"/>
	<line class="st1" x1="61.482" y1="29.711" x2="7.489" y2="-1.462"/>
	<line class="st1" x1="61.479" y1="27.111" x2="11.988" y2="-1.463"/>
	<line class="st1" x1="61.458" y1="24.501" x2="16.186" y2="-1.637"/>
	<line class="st1" x1="61.361" y1="21.847" x2="20.651" y2="-1.657"/>
	<line class="st1" x1="61.563" y1="19.365" x2="25.485" y2="-1.464"/>
	<line class="st1" x1="61.605" y1="16.791" x2="30.1" y2="-1.398"/>
	<line class="st1" x1="61.433" y1="14.094" x2="34.593" y2="-1.402"/>
	<line class="st1" x1="61.589" y1="11.586" x2="38.944" y2="-1.488"/>
	<line class="st1" x1="61.366" y1="8.86" x2="43.447" y2="-1.486"/>
	<line class="st1" x1="61.599" y1="6.396" x2="48.098" y2="-1.399"/>
	<line class="st1" x1="61.587" y1="3.79" x2="52.221" y2="-1.617"/>
	<line class="st1" x1="61.605" y1="1.203" x2="56.949" y2="-1.485"/>
	<path class="st1" d="M61.536-1.435"/>
	<path class="st1" d="M-57.75-91.089"/>
	<path class="st1" d="M-56.625-93.038"/>
	<path class="st1" d="M-55.5-94.987"/>
	<path class="st1" d="M-54.375-96.935"/>
	<path class="st1" d="M-53.25-98.884"/>
	<path class="st1" d="M-52.125-100.832"/>
	<path class="st1" d="M-51-102.781"/>
	<path class="st1" d="M-49.875-104.729"/>
	<path class="st1" d="M-48.75-106.678"/>
	<path class="st1" d="M61.631,62.121"/>
	<line class="st1" x1="56.838" y1="62.29" x2="61.535" y2="59.579"/>
	<line class="st1" x1="52.761" y1="62.046" x2="61.655" y2="56.911"/>
	<line class="st1" x1="48.248" y1="62.054" x2="61.639" y2="54.322"/>
	<line class="st1" x1="43.747" y1="62.054" x2="61.555" y2="51.773"/>
	<line class="st1" x1="38.977" y1="62.211" x2="61.555" y2="49.175"/>
	<line class="st1" x1="34.718" y1="62.071" x2="61.602" y2="46.55"/>
	<line class="st1" x1="30.312" y1="62.017" x2="61.607" y2="43.949"/>
	<line class="st1" x1="25.399" y1="62.256" x2="61.575" y2="41.369"/>
	<line class="st1" x1="21.12" y1="62.128" x2="61.516" y2="38.805"/>
	<line class="st1" x1="16.295" y1="62.315" x2="61.616" y2="36.149"/>
	<line class="st1" x1="11.778" y1="62.325" x2="61.415" y2="33.667"/>
	<line class="st1" x1="6.949" y1="62.515" x2="61.557" y2="30.987"/>
	<line class="st1" x1="3.231" y1="62.064" x2="61.44" y2="28.457"/>
	<line class="st1" x1="-1.62" y1="62.266" x2="61.498" y2="25.825"/>
	<line class="st1" x1="-1.625" y1="59.671" x2="61.567" y2="23.187"/>
	<line class="st1" x1="-1.398" y1="56.942" x2="61.477" y2="20.641"/>
	<line class="st1" x1="-1.514" y1="54.411" x2="61.651" y2="17.943"/>
	<line class="st1" x1="-1.367" y1="51.728" x2="61.481" y2="15.443"/>
	<line class="st1" x1="-1.426" y1="49.164" x2="61.624" y2="12.762"/>
	<line class="st1" x1="-1.554" y1="46.64" x2="61.559" y2="10.201"/>
	<line class="st1" x1="-1.659" y1="44.102" x2="61.506" y2="7.634"/>
	<line class="st1" x1="-1.549" y1="41.441" x2="61.496" y2="5.042"/>
	<line class="st1" x1="-1.501" y1="38.815" x2="61.691" y2="2.331"/>
	<line class="st1" x1="-1.687" y1="36.324" x2="61.659" y2="-0.249"/>
	<line class="st1" x1="-1.522" y1="33.631" x2="59.322" y2="-1.497"/>
	<line class="st1" x1="-1.64" y1="31.101" x2="55.116" y2="-1.667"/>
	<line class="st1" x1="-1.454" y1="28.396" x2="50.498" y2="-1.599"/>
	<line class="st1" x1="-1.477" y1="25.811" x2="46.01" y2="-1.606"/>
	<line class="st1" x1="-1.619" y1="23.295" x2="41.374" y2="-1.527"/>
	<line class="st1" x1="-1.589" y1="20.679" x2="36.704" y2="-1.429"/>
	<line class="st1" x1="-1.499" y1="18.029" x2="32.345" y2="-1.51"/>
	<line class="st1" x1="-1.488" y1="15.425" x2="27.96" y2="-1.577"/>
	<line class="st1" x1="-1.537" y1="12.855" x2="23.453" y2="-1.573"/>
	<line class="st1" x1="-1.447" y1="10.205" x2="19.027" y2="-1.616"/>
	<polyline class="st1" points="-1.57,7.678 -0.992,7.344 14.636,-1.679 	"/>
	<line class="st1" x1="-1.692" y1="5.15" x2="9.935" y2="-1.562"/>
	<line class="st1" x1="-1.256" y1="2.301" x2="4.909" y2="-1.259"/>
	<path class="st1" d="M0.826-1.5"/>
</g>
<g>
	<path class="st2" d="M58.54,23.9307c0-0.1787-0.0957-0.3433-0.25-0.4326L30.2378,7.3018c-0.1543-0.0889-0.3447-0.0903-0.499-0.0005
		L1.5459,23.4976c-0.1548,0.0889-0.2505,0.2539-0.251,0.4326c0,0.0004,0.0002,0.0006,0.0002,0.001H1.2949V32.29
		c0,0.1777,0.0947,0.3428,0.249,0.4326l3.8311,2.2256v3.2676c0,0.2764,0.2236,0.5,0.5,0.5s0.5-0.2236,0.5-0.5v-2.6866
		l23.291,13.5304c0.0776,0.0449,0.1641,0.0674,0.251,0.0674s0.1733-0.0225,0.251-0.0674l2.2805-1.3247l1.9207,1.1089
		c0.0771,0.0449,0.1641,0.0674,0.25,0.0674s0.1729-0.0225,0.25-0.0674l1.7793-1.0273v3.9951c0,0.2764,0.2236,0.5,0.5,0.5
		s0.5-0.2236,0.5-0.5v-4.5724l3.6416-2.1025v3.9903c0,0.2764,0.2236,0.5,0.5,0.5s0.5-0.2236,0.5-0.5v-4.5676l3.6416-2.1025v3.9855
		c0,0.2764,0.2236,0.5,0.5,0.5s0.5-0.2236,0.5-0.5v-4.5629l3.6436-2.1036v3.981c0,0.2764,0.2236,0.5,0.5,0.5s0.5-0.2236,0.5-0.5
		v-4.5583l2.0996-1.2122c0.1543-0.0889,0.25-0.2539,0.25-0.4326V35.259l4.3662-2.5364c0.1543-0.0898,0.249-0.2549,0.249-0.4326
		v-8.3589h-0.0001C58.5399,23.931,58.54,23.9308,58.54,23.9307z M29.9873,8.312l3.3105,1.9121L57.042,23.9326L29.918,39.6895
		L2.7944,23.9336L29.9873,8.312z M2.2949,24.7995l27.123,15.756v7.2034L2.2949,32.002V24.7995z M33.4446,47.1561l0.6745-0.3918
		v0.7813L33.4446,47.1561z M52.9248,37.2646L35.1191,47.5449v-1.3615l17.8057-10.3435V37.2646z M30.418,47.7578v-7.2023
		L57.54,24.7996v7.2024L30.418,47.7578z"/>
	<ellipse class="st2" cx="8.746" cy="23.931" rx="1.647" ry="1.143"/>
	<ellipse class="st2" cx="29.917" cy="36.279" rx="1.647" ry="1.143"/>
	<ellipse class="st2" cx="51.075" cy="24.002" rx="1.647" ry="1.143"/>
	<path class="st2" d="M29.6918,32.2272c0.0076,0.0045,0.0172,0.0032,0.0251,0.0072c0.0682,0.0352,0.1421,0.0598,0.224,0.0601
		c0.0005,0,0.001,0.0004,0.0015,0.0004c0.0001,0,0.0001-0.0001,0.0002-0.0001c0.0001,0,0.0002,0.0001,0.0003,0.0001
		c0.0005,0,0.0015,0,0.002,0c0.0802-0.0003,0.153-0.0235,0.22-0.0573c0.0065-0.0032,0.0138-0.0017,0.0202-0.0052l0.0034-0.0018
		c0.0002-0.0001,0.0004-0.0002,0.0006-0.0004l14.0795-7.7908c0.0197-0.0109,0.0317-0.0289,0.0493-0.042
		c0.0286-0.0211,0.0562-0.0412,0.0796-0.0677c0.0211-0.0239,0.0359-0.0499,0.0518-0.0769c0.0167-0.028,0.0328-0.0547,0.0438-0.0858
		c0.0116-0.0327,0.0156-0.0659,0.0203-0.1004c0.003-0.0221,0.013-0.0417,0.013-0.0646v-3.2471c0-0.8992-0.4454-1.5876-1.2173-1.8976
		l-11.4286-6.6413c-0.9773-0.6644-2.6332-0.4747-4.4752,0.5492l-4.9731,2.7588c-2.7065,1.5015-4.8203,4.2266-4.812,6.2031
		l0.0127,3.229c0.0001,0.0209,0.0096,0.0388,0.0121,0.0591c0.0043,0.0347,0.0092,0.0677,0.0206,0.1008
		c0.0106,0.0305,0.0252,0.0571,0.0412,0.0845c0.0159,0.0275,0.0316,0.0535,0.0527,0.0778c0.023,0.0265,0.0494,0.0473,0.0775,0.0685
		c0.0164,0.0123,0.0271,0.0295,0.0453,0.04L29.6918,32.2272z M18.6201,21.7231c-0.002-0.509,0.2151-1.1075,0.5649-1.725
		l5.243,2.9539c-0.4418,0.7672-0.7055,1.5269-0.7029,2.1955l0.0101,2.4741l-5.1035-2.9562L18.6201,21.7231z M36.5008,16.0568
		l4.7309,2.7491c-0.6321,0.1462-1.3133,0.4102-2.0159,0.8l-2.8154,1.562l-5.075-2.9662l2.3728-1.3164
		C34.7499,16.3011,35.7434,16.0154,36.5008,16.0568z M30.4302,28.564c-0.0063-1.5898,1.9614-4.0283,4.2974-5.3252l4.9727-2.7588
		c1.2969-0.7192,2.5049-0.9814,3.2256-0.7026c0.4043,0.1563,0.6006,0.4761,0.6006,0.9775v2.9522l-13.0868,7.2415L30.4302,28.564z
		 M35.7908,21.5061l-1.5477,0.8586c-1.5195,0.8431-2.8353,2.0728-3.7107,3.3378L25.274,22.74
		c0.8058-1.1602,2.0447-2.3151,3.4515-3.0959l1.9902-1.1042L35.7908,21.5061z M30.199,26.2032
		c-0.487,0.8239-0.7719,1.6442-0.7688,2.3647l0.0093,2.3577l-5.1032-2.9559l-0.0115-2.8246
		c-0.0021-0.5674,0.2357-1.2258,0.6256-1.8988L30.199,26.2032z M27.8906,13.6392c1.6266-0.9033,2.6753-0.9356,3.3864-0.6293
		c0.0138,0.0099,0.0224,0.0244,0.0374,0.0331l4.2745,2.4839c-0.6692,0.1259-1.4105,0.4053-2.1818,0.8339l-2.6838,1.489
		l-5.0754-2.9666L27.8906,13.6392z M22.9175,16.3979l2.1208-1.1765l5.0755,2.9666l-1.6792,0.9316
		c-1.517,0.8419-2.8274,2.0713-3.6827,3.3262l-5.2506-2.9581C20.2929,18.3328,21.5349,17.1653,22.9175,16.3979z"/>
</g>
</svg>
