<?xml version="1.0" encoding="utf-8"?>
<!-- Generator: Adobe Illustrator 21.0.0, SVG Export Plug-In . SVG Version: 6.00 Build 0)  -->
<svg version="1.1" id="Layer_1" xmlns="http://www.w3.org/2000/svg" xmlns:xlink="http://www.w3.org/1999/xlink" x="0px" y="0px"
	 viewBox="0 0 60 60" style="enable-background:new 0 0 60 60;" xml:space="preserve">
<style type="text/css">
	.st0{display:none;opacity:0.2;}
	.st1{display:inline;fill:none;stroke:#00ADEE;stroke-width:0.125;stroke-miterlimit:10;}
	.st2{fill:#231F20;}
</style>
<g class="st0">
	<path class="st1" d="M-0.375-1.557"/>
	<line class="st1" x1="1.875" y1="62.156" x2="1.875" y2="-1.36"/>
	<line class="st1" x1="4.125" y1="62.353" x2="4.125" y2="-1.557"/>
	<line class="st1" x1="6.375" y1="61.959" x2="6.375" y2="-1.311"/>
	<line class="st1" x1="8.625" y1="62.746" x2="8.625" y2="-1.655"/>
	<line class="st1" x1="10.875" y1="62.353" x2="10.875" y2="-1.508"/>
	<line class="st1" x1="13.125" y1="62.5" x2="13.125" y2="-1.606"/>
	<line class="st1" x1="15.375" y1="62.353" x2="15.375" y2="-1.557"/>
	<line class="st1" x1="17.625" y1="62.5" x2="17.625" y2="-1.902"/>
	<line class="st1" x1="19.875" y1="62.156" x2="19.875" y2="-1.655"/>
	<line class="st1" x1="22.125" y1="62.303" x2="22.125" y2="-1.852"/>
	<line class="st1" x1="24.375" y1="62.106" x2="24.375" y2="-1.458"/>
	<line class="st1" x1="26.625" y1="62.254" x2="26.625" y2="-1.508"/>
	<line class="st1" x1="28.875" y1="62.303" x2="28.875" y2="-1.508"/>
	<line class="st1" x1="31.125" y1="62.057" x2="31.125" y2="-1.458"/>
	<line class="st1" x1="33.375" y1="62.106" x2="33.375" y2="-1.409"/>
	<line class="st1" x1="35.625" y1="62.353" x2="35.625" y2="-1.606"/>
	<line class="st1" x1="37.875" y1="62.156" x2="37.875" y2="-1.557"/>
	<line class="st1" x1="40.125" y1="62.451" x2="40.125" y2="-1.508"/>
	<line class="st1" x1="42.375" y1="62.254" x2="42.375" y2="-1.36"/>
	<line class="st1" x1="44.625" y1="62.106" x2="44.625" y2="-1.508"/>
	<line class="st1" x1="46.875" y1="62.156" x2="46.875" y2="-1.508"/>
	<line class="st1" x1="49.125" y1="62.106" x2="49.125" y2="-1.508"/>
	<line class="st1" x1="51.375" y1="61.86" x2="51.375" y2="-1.557"/>
	<line class="st1" x1="53.625" y1="62.156" x2="53.625" y2="-1.754"/>
	<line class="st1" x1="55.875" y1="62.156" x2="55.875" y2="-1.606"/>
	<line class="st1" x1="58.125" y1="62.451" x2="58.125" y2="-1.606"/>
	<line class="st1" x1="0.707" y1="62.173" x2="-1.49" y2="60.904"/>
	<line class="st1" x1="5.116" y1="62.12" x2="-1.544" y2="58.275"/>
	<line class="st1" x1="9.971" y1="62.325" x2="-1.555" y2="55.67"/>
	<line class="st1" x1="14.59" y1="62.394" x2="-1.607" y2="53.042"/>
	<line class="st1" x1="18.865" y1="62.263" x2="-1.499" y2="50.506"/>
	<line class="st1" x1="23.182" y1="62.158" x2="-1.459" y2="47.931"/>
	<line class="st1" x1="27.736" y1="62.189" x2="-1.529" y2="45.293"/>
	<line class="st1" x1="32.049" y1="62.081" x2="-1.465" y2="42.732"/>
	<line class="st1" x1="36.749" y1="62.196" x2="-1.522" y2="40.101"/>
	<line class="st1" x1="41.271" y1="62.209" x2="-1.645" y2="37.431"/>
	<line class="st1" x1="45.801" y1="62.226" x2="-1.572" y2="34.876"/>
	<line class="st1" x1="50.08" y1="62.099" x2="-1.576" y2="32.275"/>
	<line class="st1" x1="54.737" y1="62.19" x2="-1.594" y2="29.667"/>
	<line class="st1" x1="59.428" y1="62.3" x2="-1.647" y2="27.038"/>
	<line class="st1" x1="61.539" y1="60.921" x2="-1.545" y2="24.499"/>
	<line class="st1" x1="61.758" y1="58.449" x2="-1.458" y2="21.951"/>
	<line class="st1" x1="61.545" y1="55.728" x2="-1.525" y2="19.314"/>
	<line class="st1" x1="61.597" y1="53.16" x2="-1.558" y2="16.697"/>
	<line class="st1" x1="61.527" y1="50.521" x2="-1.469" y2="14.15"/>
	<line class="st1" x1="61.65" y1="47.994" x2="-1.472" y2="11.551"/>
	<line class="st1" x1="61.538" y1="45.331" x2="-1.42" y2="8.983"/>
	<line class="st1" x1="61.48" y1="42.7" x2="-1.375" y2="6.41"/>
	<polyline class="st1" points="61.578,40.158 -1.135,3.951 -1.529,3.723 	"/>
	<polyline class="st1" points="61.514,37.524 -1.248,1.288 -2.111,0.79 	"/>
	<polyline class="st1" points="61.544,34.943 0,-0.59 -1.761,-1.606 	"/>
	<line class="st1" x1="61.353" y1="32.234" x2="2.933" y2="-1.494"/>
	<line class="st1" x1="61.482" y1="29.711" x2="7.489" y2="-1.462"/>
	<line class="st1" x1="61.479" y1="27.111" x2="11.988" y2="-1.463"/>
	<line class="st1" x1="61.458" y1="24.501" x2="16.186" y2="-1.637"/>
	<line class="st1" x1="61.361" y1="21.847" x2="20.651" y2="-1.657"/>
	<line class="st1" x1="61.563" y1="19.365" x2="25.485" y2="-1.464"/>
	<line class="st1" x1="61.605" y1="16.791" x2="30.1" y2="-1.398"/>
	<line class="st1" x1="61.433" y1="14.094" x2="34.593" y2="-1.402"/>
	<line class="st1" x1="61.589" y1="11.586" x2="38.944" y2="-1.488"/>
	<line class="st1" x1="61.366" y1="8.86" x2="43.447" y2="-1.486"/>
	<line class="st1" x1="61.599" y1="6.396" x2="48.098" y2="-1.399"/>
	<line class="st1" x1="61.587" y1="3.79" x2="52.221" y2="-1.617"/>
	<line class="st1" x1="61.605" y1="1.203" x2="56.949" y2="-1.485"/>
	<path class="st1" d="M61.536-1.435"/>
	<path class="st1" d="M-57.75-91.089"/>
	<path class="st1" d="M-56.625-93.038"/>
	<path class="st1" d="M-55.5-94.987"/>
	<path class="st1" d="M-54.375-96.935"/>
	<path class="st1" d="M-53.25-98.884"/>
	<path class="st1" d="M-52.125-100.832"/>
	<path class="st1" d="M-51-102.781"/>
	<path class="st1" d="M-49.875-104.729"/>
	<path class="st1" d="M-48.75-106.678"/>
	<path class="st1" d="M61.631,62.121"/>
	<line class="st1" x1="56.838" y1="62.29" x2="61.535" y2="59.579"/>
	<line class="st1" x1="52.761" y1="62.046" x2="61.655" y2="56.911"/>
	<line class="st1" x1="48.248" y1="62.054" x2="61.639" y2="54.322"/>
	<line class="st1" x1="43.747" y1="62.054" x2="61.555" y2="51.773"/>
	<line class="st1" x1="38.977" y1="62.211" x2="61.555" y2="49.175"/>
	<line class="st1" x1="34.718" y1="62.071" x2="61.602" y2="46.55"/>
	<line class="st1" x1="30.312" y1="62.017" x2="61.607" y2="43.949"/>
	<line class="st1" x1="25.399" y1="62.256" x2="61.575" y2="41.369"/>
	<line class="st1" x1="21.12" y1="62.128" x2="61.516" y2="38.805"/>
	<line class="st1" x1="16.295" y1="62.315" x2="61.616" y2="36.149"/>
	<line class="st1" x1="11.778" y1="62.325" x2="61.415" y2="33.667"/>
	<line class="st1" x1="6.949" y1="62.515" x2="61.557" y2="30.987"/>
	<line class="st1" x1="3.231" y1="62.064" x2="61.44" y2="28.457"/>
	<line class="st1" x1="-1.62" y1="62.266" x2="61.498" y2="25.825"/>
	<line class="st1" x1="-1.625" y1="59.671" x2="61.567" y2="23.187"/>
	<line class="st1" x1="-1.398" y1="56.942" x2="61.477" y2="20.641"/>
	<line class="st1" x1="-1.514" y1="54.411" x2="61.651" y2="17.943"/>
	<line class="st1" x1="-1.367" y1="51.728" x2="61.481" y2="15.443"/>
	<line class="st1" x1="-1.426" y1="49.164" x2="61.624" y2="12.762"/>
	<line class="st1" x1="-1.554" y1="46.64" x2="61.559" y2="10.201"/>
	<line class="st1" x1="-1.659" y1="44.102" x2="61.506" y2="7.634"/>
	<line class="st1" x1="-1.549" y1="41.441" x2="61.496" y2="5.042"/>
	<line class="st1" x1="-1.501" y1="38.815" x2="61.691" y2="2.331"/>
	<line class="st1" x1="-1.687" y1="36.324" x2="61.659" y2="-0.249"/>
	<line class="st1" x1="-1.522" y1="33.631" x2="59.322" y2="-1.497"/>
	<line class="st1" x1="-1.64" y1="31.101" x2="55.116" y2="-1.667"/>
	<line class="st1" x1="-1.454" y1="28.396" x2="50.498" y2="-1.599"/>
	<line class="st1" x1="-1.477" y1="25.811" x2="46.01" y2="-1.606"/>
	<line class="st1" x1="-1.619" y1="23.295" x2="41.374" y2="-1.527"/>
	<line class="st1" x1="-1.589" y1="20.679" x2="36.704" y2="-1.429"/>
	<line class="st1" x1="-1.499" y1="18.029" x2="32.345" y2="-1.51"/>
	<line class="st1" x1="-1.488" y1="15.425" x2="27.96" y2="-1.577"/>
	<line class="st1" x1="-1.537" y1="12.855" x2="23.453" y2="-1.573"/>
	<line class="st1" x1="-1.447" y1="10.205" x2="19.027" y2="-1.616"/>
	<polyline class="st1" points="-1.57,7.678 -0.992,7.344 14.636,-1.679 	"/>
	<line class="st1" x1="-1.692" y1="5.15" x2="9.935" y2="-1.562"/>
	<line class="st1" x1="-1.256" y1="2.301" x2="4.909" y2="-1.259"/>
	<path class="st1" d="M0.826-1.5"/>
</g>
<path class="st2" d="M42.5195,27.6138c0.0002-0.0052,0.003-0.0095,0.003-0.0147v-0.0245c-0.0007-0.0145,0.002-0.0282,0-0.0426
	V4.1118c0-0.0099-0.0051-0.0181-0.0056-0.0278c-0.0013-0.0236-0.0055-0.0459-0.0102-0.0693
	c-0.0046-0.023-0.0095-0.0447-0.0172-0.0667c-0.0069-0.0197-0.0142-0.0378-0.0234-0.0563c-0.0044-0.0089-0.004-0.0187-0.009-0.0275
	c-0.0061-0.0107-0.0165-0.0165-0.0233-0.0266c-0.0125-0.0187-0.0248-0.0359-0.0397-0.0527
	c-0.0147-0.0167-0.0298-0.0314-0.0467-0.046c-0.0164-0.0142-0.0323-0.027-0.0502-0.0389c-0.0172-0.0115-0.0342-0.0212-0.0529-0.0306
	c-0.0196-0.0099-0.0391-0.0177-0.0601-0.025c-0.0223-0.0077-0.0438-0.0133-0.0668-0.0178
	c-0.0115-0.0023-0.0206-0.0095-0.0324-0.0109c-5.4092-0.6841-15.4038-1.1919-21.5562,3.1011
	c-1.974,1.3773-3.0517,3.1024-3.0471,4.8077c-0.0016,0.0164-0.0095,0.0305-0.0095,0.0472v23.2388
	c0,0.011,0.0056,0.0201,0.0062,0.0309c-0.0627,2.0255,1.3799,3.7001,3.9671,4.6331c0.0291,0.0303,0.0657,0.051,0.1015,0.0733
	c0.0104,0.0065,0.0188,0.0142,0.0296,0.02c0.0016,0.0009,0.0029,0.0021,0.0045,0.003v14.4771c0,0.8398,0.5664,1.832,1.29,2.2588
	l0.5195,0.3066c0.2441,0.1436,0.4941,0.2168,0.7295,0.2168c0.1821,0,0.356-0.0439,0.5107-0.1318
	c0.3545-0.2031,0.5581-0.6084,0.5581-1.1123V37.7791L29,35.6056V49.623c0,0.8398,0.5664,1.832,1.29,2.2588l0.5205,0.3066
	c0.2441,0.1436,0.4932,0.2168,0.7285,0.2168c0.1826,0,0.3564-0.0439,0.5117-0.1328c0.3545-0.2031,0.5576-0.6074,0.5576-1.1113
	V33.5476l3.8506-2.1961v13.9981c0,0.8398,0.5664,1.832,1.29,2.2588l0.5205,0.3076c0.2432,0.1436,0.4932,0.2158,0.7275,0.2158
	c0.1826,0,0.3564-0.0439,0.5117-0.1318c0.3555-0.2031,0.5586-0.6084,0.5586-1.1123V29.2935l2.209-1.2598
	c0.0272-0.0156,0.0449-0.0399,0.068-0.0596c0.0145-0.0125,0.0293-0.023,0.0423-0.037c0.035-0.0372,0.0612-0.0782,0.083-0.1232
	c0.0053-0.011,0.0115-0.0209,0.0161-0.0324C42.5072,27.7275,42.5176,27.6721,42.5195,27.6138z M36.798,30.0066
	c-0.0574,0.0198-0.108,0.0498-0.1539,0.0878l-14.339,8.1779V15.9332L41.5225,4.9725v22.3395L36.798,30.0066z M21.1011,7.5371
	c5.4658-3.8129,14.4716-3.5734,19.337-3.0972L21.7629,15.0919c-1.9085-0.6926-3.0688-1.8057-3.2625-3.1578
	C18.2905,10.4634,19.2627,8.8198,21.1011,7.5371z M18.4746,34.832c0.0003-0.0067-0.003-0.0123-0.0029-0.0189
	c0-0.0009,0.0005-0.0016,0.0005-0.0026V14.1272c0.6507,0.7644,1.6076,1.3955,2.833,1.8575v22.3635
	C19.4373,37.5475,18.4097,36.2935,18.4746,34.832z M24.189,55.5859c0,0.166-0.0435,0.2344-0.0527,0.2432
	c-0.0142,0.0049-0.0962,0.0068-0.2373-0.0771l-0.52-0.3066c-0.4248-0.251-0.7979-0.9033-0.7979-1.3975V39.2665l1.6079-0.9171
	V55.5859z M31.6084,51.1611c0,0.166-0.043,0.2344-0.0527,0.2422c-0.0137,0.0049-0.0967,0.0059-0.2373-0.0762l-0.5205-0.3066
	C30.373,50.7695,30,50.1172,30,49.623V35.0352l1.6084-0.9173V51.1611z M39.0674,46.8877c0,0.167-0.0439,0.2354-0.0537,0.2432
	c-0.0127,0.0039-0.0918,0.0088-0.2363-0.0762l-0.5205-0.3076c-0.4248-0.251-0.7979-0.9033-0.7979-1.3975V30.7812l1.6084-0.9173
	V46.8877z"/>
</svg>
