<?xml version="1.0" encoding="utf-8"?>
<!-- Generator: Adobe Illustrator 21.0.0, SVG Export Plug-In . SVG Version: 6.00 Build 0)  -->
<svg version="1.1" id="Layer_1" xmlns="http://www.w3.org/2000/svg" xmlns:xlink="http://www.w3.org/1999/xlink" x="0px" y="0px"
	 viewBox="0 0 30 30" style="enable-background:new 0 0 30 30;" xml:space="preserve">
<style type="text/css">
	.st0{display:none;opacity:0.2;}
	.st1{display:inline;fill:none;stroke:#00ADEE;stroke-width:0.125;stroke-miterlimit:10;}
	.st2{fill:#231F20;}
</style>
<g class="st0">
	<path class="st1" d="M-15.375-16.557"/>
	<line class="st1" x1="-13.125" y1="47.1558" x2="-13.125" y2="-16.3603"/>
	<line class="st1" x1="-10.875" y1="47.3529" x2="-10.875" y2="-16.5568"/>
	<line class="st1" x1="-8.625" y1="46.959" x2="-8.625" y2="-16.3109"/>
	<line class="st1" x1="-6.375" y1="47.746" x2="-6.375" y2="-16.6546"/>
	<line class="st1" x1="-4.125" y1="47.3529" x2="-4.125" y2="-16.5079"/>
	<line class="st1" x1="-1.875" y1="47.4999" x2="-1.875" y2="-16.6061"/>
	<line class="st1" x1="0.375" y1="47.3529" x2="0.375" y2="-16.5568"/>
	<line class="st1" x1="2.625" y1="47.4999" x2="2.625" y2="-16.9021"/>
	<line class="st1" x1="4.875" y1="47.1558" x2="4.875" y2="-16.6547"/>
	<line class="st1" x1="7.125" y1="47.3029" x2="7.125" y2="-16.8517"/>
	<line class="st1" x1="9.375" y1="47.1063" x2="9.375" y2="-16.4577"/>
	<line class="st1" x1="11.625" y1="47.2541" x2="11.625" y2="-16.5081"/>
	<line class="st1" x1="13.875" y1="47.3029" x2="13.875" y2="-16.5079"/>
	<line class="st1" x1="16.125" y1="47.0567" x2="16.125" y2="-16.458"/>
	<line class="st1" x1="18.375" y1="47.1063" x2="18.375" y2="-16.4089"/>
	<line class="st1" x1="20.625" y1="47.3529" x2="20.625" y2="-16.6058"/>
	<line class="st1" x1="22.875" y1="47.1558" x2="22.875" y2="-16.5569"/>
	<line class="st1" x1="25.125" y1="47.4511" x2="25.125" y2="-16.5082"/>
	<line class="st1" x1="27.375" y1="47.2541" x2="27.375" y2="-16.3603"/>
	<line class="st1" x1="29.625" y1="47.1063" x2="29.625" y2="-16.5077"/>
	<line class="st1" x1="31.875" y1="47.1558" x2="31.875" y2="-16.508"/>
	<line class="st1" x1="34.125" y1="47.1063" x2="34.125" y2="-16.5077"/>
	<line class="st1" x1="36.375" y1="46.8598" x2="36.375" y2="-16.5566"/>
	<line class="st1" x1="38.625" y1="47.1558" x2="38.625" y2="-16.7536"/>
	<line class="st1" x1="40.875" y1="47.1558" x2="40.875" y2="-16.6058"/>
	<line class="st1" x1="43.125" y1="47.4511" x2="43.125" y2="-16.6062"/>
	<line class="st1" x1="-14.2926" y1="47.1726" x2="-16.4896" y2="45.9041"/>
	<line class="st1" x1="-9.8838" y1="47.1199" x2="-16.5439" y2="43.2746"/>
	<line class="st1" x1="-5.0286" y1="47.3248" x2="-16.5547" y2="40.6703"/>
	<line class="st1" x1="-0.4099" y1="47.3936" x2="-16.607" y2="38.0421"/>
	<line class="st1" x1="3.8647" y1="47.2633" x2="-16.4987" y2="35.5065"/>
	<line class="st1" x1="8.1817" y1="47.1575" x2="-16.4585" y2="32.9315"/>
	<line class="st1" x1="12.7364" y1="47.1893" x2="-16.5287" y2="30.2931"/>
	<line class="st1" x1="17.0493" y1="47.0812" x2="-16.4649" y2="27.7317"/>
	<line class="st1" x1="21.7487" y1="47.1965" x2="-16.5216" y2="25.1011"/>
	<line class="st1" x1="26.2708" y1="47.2091" x2="-16.6454" y2="22.4314"/>
	<line class="st1" x1="30.8011" y1="47.2265" x2="-16.5718" y2="19.8757"/>
	<line class="st1" x1="35.0797" y1="47.0989" x2="-16.5759" y2="17.2755"/>
	<line class="st1" x1="39.7372" y1="47.1897" x2="-16.5939" y2="14.6669"/>
	<line class="st1" x1="44.4278" y1="47.2996" x2="-16.6466" y2="12.0384"/>
	<line class="st1" x1="46.5391" y1="45.9207" x2="-16.5451" y2="9.499"/>
	<line class="st1" x1="46.7575" y1="43.4487" x2="-16.4576" y2="6.9515"/>
	<line class="st1" x1="46.5446" y1="40.7275" x2="-16.5248" y2="4.3145"/>
	<line class="st1" x1="46.5973" y1="38.16" x2="-16.5582" y2="1.6972"/>
	<line class="st1" x1="46.5272" y1="35.5214" x2="-16.4693" y2="-0.8496"/>
	<line class="st1" x1="46.6505" y1="32.9944" x2="-16.4717" y2="-3.4492"/>
	<line class="st1" x1="46.5376" y1="30.3314" x2="-16.4197" y2="-6.017"/>
	<line class="st1" x1="46.4796" y1="27.6997" x2="-16.3754" y2="-8.5896"/>
	<polyline class="st1" points="46.5777,25.1581 -16.1346,-11.0488 -16.5294,-11.2767 	"/>
	<polyline class="st1" points="46.5142,22.5236 -16.248,-13.7121 -17.1105,-14.2101 	"/>
	<polyline class="st1" points="46.5439,19.9426 -14.9996,-15.5896 -16.7609,-16.6065 	"/>
	<line class="st1" x1="46.3527" y1="17.2343" x2="-12.0668" y2="-16.4943"/>
	<line class="st1" x1="46.4824" y1="14.711" x2="-7.5112" y2="-16.4622"/>
	<line class="st1" x1="46.479" y1="12.1109" x2="-3.0123" y2="-16.4629"/>
	<line class="st1" x1="46.4578" y1="9.5007" x2="1.1859" y2="-16.637"/>
	<line class="st1" x1="46.3608" y1="6.8466" x2="5.6507" y2="-16.6575"/>
	<line class="st1" x1="46.5626" y1="4.3649" x2="10.4854" y2="-16.4643"/>
	<line class="st1" x1="46.6047" y1="1.7913" x2="15.0995" y2="-16.3983"/>
	<line class="st1" x1="46.4335" y1="-0.9057" x2="19.5934" y2="-16.4018"/>
	<line class="st1" x1="46.5889" y1="-3.4142" x2="23.9443" y2="-16.488"/>
	<line class="st1" x1="46.3665" y1="-6.1405" x2="28.4468" y2="-16.4864"/>
	<line class="st1" x1="46.5992" y1="-8.6043" x2="33.0984" y2="-16.399"/>
	<line class="st1" x1="46.5865" y1="-11.2098" x2="37.2213" y2="-16.6168"/>
	<line class="st1" x1="46.6046" y1="-13.7973" x2="41.9486" y2="-16.4854"/>
	<path class="st1" d="M46.5364-16.4349"/>
	<path class="st1" d="M-72.75-106.0893"/>
	<path class="st1" d="M-71.625-108.0379"/>
	<path class="st1" d="M-70.5-109.9865"/>
	<path class="st1" d="M-69.375-111.935"/>
	<path class="st1" d="M-68.25-113.8836"/>
	<path class="st1" d="M-67.125-115.8321"/>
	<path class="st1" d="M-66-117.7807"/>
	<path class="st1" d="M-64.875-119.7292"/>
	<path class="st1" d="M-63.75-121.6778"/>
	<path class="st1" d="M46.631,47.1215"/>
	<line class="st1" x1="41.8384" y1="47.2903" x2="46.5346" y2="44.579"/>
	<line class="st1" x1="37.761" y1="47.0465" x2="46.6554" y2="41.9113"/>
	<line class="st1" x1="33.2481" y1="47.0539" x2="46.6394" y2="39.3224"/>
	<line class="st1" x1="28.7471" y1="47.0544" x2="46.5552" y2="36.7729"/>
	<line class="st1" x1="23.9766" y1="47.2107" x2="46.5546" y2="34.1753"/>
	<line class="st1" x1="19.718" y1="47.0712" x2="46.6021" y2="31.5497"/>
	<line class="st1" x1="15.3122" y1="47.0167" x2="46.6066" y2="28.9489"/>
	<line class="st1" x1="10.3988" y1="47.2556" x2="46.5751" y2="26.3692"/>
	<line class="st1" x1="6.1197" y1="47.1279" x2="46.5162" y2="23.805"/>
	<line class="st1" x1="1.2953" y1="47.3154" x2="46.6164" y2="21.1493"/>
	<line class="st1" x1="-3.222" y1="47.3253" x2="46.4154" y2="18.6671"/>
	<line class="st1" x1="-8.0514" y1="47.5153" x2="46.5572" y2="15.9871"/>
	<line class="st1" x1="-11.769" y1="47.0639" x2="46.4405" y2="13.4566"/>
	<line class="st1" x1="-16.6198" y1="47.2663" x2="46.4978" y2="10.8253"/>
	<line class="st1" x1="-16.6252" y1="44.6712" x2="46.5671" y2="8.1872"/>
	<line class="st1" x1="-16.3982" y1="41.9423" x2="46.4768" y2="5.6413"/>
	<line class="st1" x1="-16.5136" y1="39.4107" x2="46.6506" y2="2.9429"/>
	<line class="st1" x1="-16.3672" y1="36.728" x2="46.4811" y2="0.4426"/>
	<line class="st1" x1="-16.4261" y1="34.1641" x2="46.6243" y2="-2.2381"/>
	<line class="st1" x1="-16.5537" y1="31.6396" x2="46.5591" y2="-4.7985"/>
	<line class="st1" x1="-16.6591" y1="29.1023" x2="46.5062" y2="-7.3662"/>
	<line class="st1" x1="-16.5488" y1="26.4407" x2="46.4955" y2="-9.9579"/>
	<line class="st1" x1="-16.5014" y1="23.8152" x2="46.6906" y2="-12.6687"/>
	<line class="st1" x1="-16.6869" y1="21.324" x2="46.6589" y2="-15.2486"/>
	<line class="st1" x1="-16.5222" y1="18.6311" x2="44.3216" y2="-16.497"/>
	<line class="st1" x1="-16.6397" y1="16.1008" x2="40.1155" y2="-16.6668"/>
	<line class="st1" x1="-16.4543" y1="13.3959" x2="35.4976" y2="-16.5986"/>
	<line class="st1" x1="-16.4766" y1="10.8105" x2="31.0105" y2="-16.6061"/>
	<line class="st1" x1="-16.6191" y1="8.2947" x2="26.3737" y2="-16.5272"/>
	<line class="st1" x1="-16.5886" y1="5.6791" x2="21.7039" y2="-16.4291"/>
	<line class="st1" x1="-16.4987" y1="3.0291" x2="17.3446" y2="-16.5104"/>
	<line class="st1" x1="-16.4879" y1="0.4247" x2="12.9603" y2="-16.5772"/>
	<line class="st1" x1="-16.5374" y1="-2.1447" x2="8.4534" y2="-16.5731"/>
	<line class="st1" x1="-16.4468" y1="-4.7952" x2="4.0268" y2="-16.6156"/>
	<polyline class="st1" points="-16.5695,-7.3225 -15.9916,-7.6561 -0.3642,-16.6786 	"/>
	<line class="st1" x1="-16.6918" y1="-9.8497" x2="-5.065" y2="-16.5625"/>
	<line class="st1" x1="-16.2564" y1="-12.6993" x2="-10.0909" y2="-16.259"/>
	<path class="st1" d="M-14.1742-16.4997"/>
</g>
<g>
	<path class="st2" d="M29.3789,11.8521c-0.001-0.1426-0.0771-0.2744-0.2002-0.3457L15.1533,3.4087
		c-0.124-0.0723-0.2764-0.0718-0.3994-0.0005L0.6572,11.5059c-0.124,0.0708-0.2002,0.2026-0.2007,0.3457
		c0,0.0004,0.0002,0.0006,0.0002,0.001H0.4565v4.1787c0,0.1426,0.0757,0.2744,0.1987,0.3457l1.8413,1.0698v1.5484
		c0,0.2207,0.1792,0.4004,0.3999,0.4004s0.3999-0.1797,0.3999-0.4004v-1.0838l11.4199,6.6346
		c0.0625,0.0361,0.1318,0.0547,0.2012,0.0547s0.1387-0.0186,0.2012-0.0547l1.0637-0.618l0.886,0.5115
		c0.0625,0.0352,0.1309,0.0537,0.2002,0.0537s0.1377-0.0186,0.2002-0.0537l0.6641-0.3834v1.7369
		c0,0.2207,0.1797,0.4004,0.4004,0.4004s0.4004-0.1797,0.4004-0.4004v-2.1992l1.5195-0.8773v1.7337
		c0,0.2207,0.1797,0.4004,0.4004,0.4004s0.4004-0.1797,0.4004-0.4004v-2.196l1.5205-0.8778v1.732
		c0,0.2207,0.1797,0.4004,0.4004,0.4004s0.4004-0.1797,0.4004-0.4004v-2.1943l1.5205-0.8778v1.7294
		c0,0.2207,0.1797,0.4004,0.4004,0.4004s0.4004-0.1797,0.4004-0.4004V19.574l0.9756-0.5632
		c0.124-0.0713,0.2002-0.2041,0.2002-0.3467v-1.0627l2.1074-1.2244c0.123-0.0713,0.1992-0.2031,0.1992-0.3457v-4.1787h-0.0001
		C29.3788,11.8524,29.3789,11.8522,29.3789,11.8521z M14.9526,4.2163l13.228,7.6372l-13.2632,7.7051L1.6563,11.8545L14.9526,4.2163z
		 M1.2563,12.5474l13.2612,7.7043v3.2533L1.2563,15.8013V12.5474z M26.2715,18.4336l-8.6025,4.9668v-0.3361l8.6025-4.9977V18.4336z
		 M15.3174,23.505v-3.2533l13.2607-7.704v3.2535L15.3174,23.505z"/>
	<ellipse class="st2" cx="4.3321" cy="11.8525" rx="0.8236" ry="0.5717"/>
	<ellipse class="st2" cx="14.9176" cy="18.0264" rx="0.8235" ry="0.5717"/>
	<ellipse class="st2" cx="25.4961" cy="11.8878" rx="0.8236" ry="0.5717"/>
	<path class="st2" d="M14.7295,16.1309c0.0001,0.0001,0.0003,0.0001,0.0004,0.0001c0.0017,0.001,0.0038,0.0005,0.0056,0.0015
		c0.0045,0.0024,0.0095,0.0015,0.0139,0.0038c0.0544,0.0281,0.1135,0.0477,0.1788,0.048c0.0005,0,0.001,0.0004,0.0015,0.0004
		c0.0001,0,0.0001-0.0001,0.0002-0.0001c0.0001,0,0.0002,0.0001,0.0003,0.0001c0.0005,0,0.001,0,0.0015,0
		c0.0638-0.0003,0.1218-0.0187,0.1752-0.0454c0.0055-0.0027,0.0117-0.0013,0.0172-0.0044l7.041-3.897
		c0.0159-0.0088,0.0256-0.0233,0.0398-0.0338c0.0229-0.0168,0.0449-0.0329,0.0637-0.0541c0.0165-0.0187,0.0282-0.0392,0.0408-0.0603
		c0.0139-0.023,0.0272-0.0452,0.0363-0.071c0.0086-0.0245,0.0115-0.0493,0.0152-0.075c0.0028-0.019,0.0113-0.036,0.0113-0.0558
		v-1.6235c0-0.4938-0.2416-0.8717-0.6536-1.0595c-0.0022-0.0013-0.0034-0.0037-0.0056-0.0049l-5.7705-3.353
		c-0.0347-0.0202-0.072-0.0282-0.1089-0.0371c-0.5438-0.2668-1.35-0.1683-2.2446,0.3286l-2.4868,1.3794
		C10.2596,7.9852,9.5335,8.6882,9.0869,9.4C9.0775,9.4128,9.0642,9.4213,9.0562,9.4355C9.0529,9.4413,9.0533,9.4477,9.0504,9.4535
		C8.7772,9.9036,8.6177,10.355,8.6191,10.751l0.0063,1.6147c0.0001,0.0165,0.0076,0.0305,0.0096,0.0465
		c0.0035,0.0283,0.0074,0.0551,0.0168,0.0819c0.0084,0.0239,0.0198,0.0449,0.0323,0.0665c0.0128,0.0225,0.0258,0.0436,0.043,0.0635
		c0.0179,0.0206,0.0383,0.0367,0.0601,0.0532c0.0134,0.0103,0.0224,0.0244,0.0374,0.0331L14.7295,16.1309z M18.4146,8.2084
		l1.7864,1.038c-0.23,0.0792-0.4656,0.1777-0.7078,0.3122l-1.2309,0.6829l-2.136-1.2482l0.8035-0.4459
		C17.6505,8.1472,18.1738,8.114,18.4146,8.2084z M15.3237,14.1685c-0.0024-0.6655,0.8296-1.8413,2.0718-2.5313l2.4863-1.3794
		c0.7178-0.3975,1.2363-0.438,1.4863-0.3423c0.1006,0.0391,0.2031,0.1108,0.2031,0.3486v1.388l-6.2439,3.4553L15.3237,14.1685z
		 M17.4488,10.6927l-0.442,0.2452c-0.6992,0.3881-1.3215,0.938-1.7684,1.5209l-2.2711-1.2794
		c0.3641-0.4586,0.874-0.9183,1.476-1.2523l0.8698-0.4827L17.4488,10.6927z M14.8155,13.139
		c-0.1815,0.36-0.2928,0.7145-0.2916,1.0323l0.0036,0.9176l-2.1505-1.2457l-0.0054-1.3857
		c-0.0007-0.1696,0.0588-0.3771,0.1652-0.6021L14.8155,13.139z M11.5754,13.3789l-2.151-1.246L9.4189,10.748
		c-0.0006-0.1633,0.0502-0.3579,0.1439-0.568l2.2813,1.2852c-0.17,0.3474-0.2738,0.6887-0.2723,0.9957L11.5754,13.3789z
		 M13.9766,6.8374c0.8013-0.4438,1.4282-0.4653,1.6118-0.2603c0.0617,0.0698,0.1437,0.1065,0.2288,0.1219l1.4361,0.8345
		C17.0222,7.613,16.785,7.7128,16.541,7.8481l-1.2177,0.676l-2.1366-1.2485L13.9766,6.8374z M11.4902,8.2168l0.8835-0.4902
		l2.1366,1.2488L14.0552,9.228c-0.7133,0.3955-1.344,0.9595-1.7925,1.5545L9.9831,9.4984
		C10.3462,9.0328,10.8661,8.5635,11.4902,8.2168z"/>
</g>
</svg>
