<?xml version="1.0" encoding="utf-8"?>
<!-- Generator: Adobe Illustrator 21.0.0, SVG Export Plug-In . SVG Version: 6.00 Build 0)  -->
<svg version="1.1" id="Layer_1" xmlns="http://www.w3.org/2000/svg" xmlns:xlink="http://www.w3.org/1999/xlink" x="0px" y="0px"
	 viewBox="0 0 60 60" style="enable-background:new 0 0 60 60;" xml:space="preserve">
<style type="text/css">
	.st0{display:none;opacity:0.2;}
	.st1{display:inline;fill:none;stroke:#00ADEE;stroke-width:0.125;stroke-miterlimit:10;}
	.st2{fill:#231F20;}
</style>
<g class="st0">
	<path class="st1" d="M-0.375-1.557"/>
	<line class="st1" x1="1.875" y1="62.156" x2="1.875" y2="-1.36"/>
	<line class="st1" x1="4.125" y1="62.353" x2="4.125" y2="-1.557"/>
	<line class="st1" x1="6.375" y1="61.959" x2="6.375" y2="-1.311"/>
	<line class="st1" x1="8.625" y1="62.746" x2="8.625" y2="-1.655"/>
	<line class="st1" x1="10.875" y1="62.353" x2="10.875" y2="-1.508"/>
	<line class="st1" x1="13.125" y1="62.5" x2="13.125" y2="-1.606"/>
	<line class="st1" x1="15.375" y1="62.353" x2="15.375" y2="-1.557"/>
	<line class="st1" x1="17.625" y1="62.5" x2="17.625" y2="-1.902"/>
	<line class="st1" x1="19.875" y1="62.156" x2="19.875" y2="-1.655"/>
	<line class="st1" x1="22.125" y1="62.303" x2="22.125" y2="-1.852"/>
	<line class="st1" x1="24.375" y1="62.106" x2="24.375" y2="-1.458"/>
	<line class="st1" x1="26.625" y1="62.254" x2="26.625" y2="-1.508"/>
	<line class="st1" x1="28.875" y1="62.303" x2="28.875" y2="-1.508"/>
	<line class="st1" x1="31.125" y1="62.057" x2="31.125" y2="-1.458"/>
	<line class="st1" x1="33.375" y1="62.106" x2="33.375" y2="-1.409"/>
	<line class="st1" x1="35.625" y1="62.353" x2="35.625" y2="-1.606"/>
	<line class="st1" x1="37.875" y1="62.156" x2="37.875" y2="-1.557"/>
	<line class="st1" x1="40.125" y1="62.451" x2="40.125" y2="-1.508"/>
	<line class="st1" x1="42.375" y1="62.254" x2="42.375" y2="-1.36"/>
	<line class="st1" x1="44.625" y1="62.106" x2="44.625" y2="-1.508"/>
	<line class="st1" x1="46.875" y1="62.156" x2="46.875" y2="-1.508"/>
	<line class="st1" x1="49.125" y1="62.106" x2="49.125" y2="-1.508"/>
	<line class="st1" x1="51.375" y1="61.86" x2="51.375" y2="-1.557"/>
	<line class="st1" x1="53.625" y1="62.156" x2="53.625" y2="-1.754"/>
	<line class="st1" x1="55.875" y1="62.156" x2="55.875" y2="-1.606"/>
	<line class="st1" x1="58.125" y1="62.451" x2="58.125" y2="-1.606"/>
	<line class="st1" x1="0.707" y1="62.173" x2="-1.49" y2="60.904"/>
	<line class="st1" x1="5.116" y1="62.12" x2="-1.544" y2="58.275"/>
	<line class="st1" x1="9.971" y1="62.325" x2="-1.555" y2="55.67"/>
	<line class="st1" x1="14.59" y1="62.394" x2="-1.607" y2="53.042"/>
	<line class="st1" x1="18.865" y1="62.263" x2="-1.499" y2="50.506"/>
	<line class="st1" x1="23.182" y1="62.158" x2="-1.459" y2="47.931"/>
	<line class="st1" x1="27.736" y1="62.189" x2="-1.529" y2="45.293"/>
	<line class="st1" x1="32.049" y1="62.081" x2="-1.465" y2="42.732"/>
	<line class="st1" x1="36.749" y1="62.196" x2="-1.522" y2="40.101"/>
	<line class="st1" x1="41.271" y1="62.209" x2="-1.645" y2="37.431"/>
	<line class="st1" x1="45.801" y1="62.226" x2="-1.572" y2="34.876"/>
	<line class="st1" x1="50.08" y1="62.099" x2="-1.576" y2="32.275"/>
	<line class="st1" x1="54.737" y1="62.19" x2="-1.594" y2="29.667"/>
	<line class="st1" x1="59.428" y1="62.3" x2="-1.647" y2="27.038"/>
	<line class="st1" x1="61.539" y1="60.921" x2="-1.545" y2="24.499"/>
	<line class="st1" x1="61.758" y1="58.449" x2="-1.458" y2="21.951"/>
	<line class="st1" x1="61.545" y1="55.728" x2="-1.525" y2="19.314"/>
	<line class="st1" x1="61.597" y1="53.16" x2="-1.558" y2="16.697"/>
	<line class="st1" x1="61.527" y1="50.521" x2="-1.469" y2="14.15"/>
	<line class="st1" x1="61.65" y1="47.994" x2="-1.472" y2="11.551"/>
	<line class="st1" x1="61.538" y1="45.331" x2="-1.42" y2="8.983"/>
	<line class="st1" x1="61.48" y1="42.7" x2="-1.375" y2="6.41"/>
	<polyline class="st1" points="61.578,40.158 -1.135,3.951 -1.529,3.723 	"/>
	<polyline class="st1" points="61.514,37.524 -1.248,1.288 -2.111,0.79 	"/>
	<polyline class="st1" points="61.544,34.943 0,-0.59 -1.761,-1.606 	"/>
	<line class="st1" x1="61.353" y1="32.234" x2="2.933" y2="-1.494"/>
	<line class="st1" x1="61.482" y1="29.711" x2="7.489" y2="-1.462"/>
	<line class="st1" x1="61.479" y1="27.111" x2="11.988" y2="-1.463"/>
	<line class="st1" x1="61.458" y1="24.501" x2="16.186" y2="-1.637"/>
	<line class="st1" x1="61.361" y1="21.847" x2="20.651" y2="-1.657"/>
	<line class="st1" x1="61.563" y1="19.365" x2="25.485" y2="-1.464"/>
	<line class="st1" x1="61.605" y1="16.791" x2="30.1" y2="-1.398"/>
	<line class="st1" x1="61.433" y1="14.094" x2="34.593" y2="-1.402"/>
	<line class="st1" x1="61.589" y1="11.586" x2="38.944" y2="-1.488"/>
	<line class="st1" x1="61.366" y1="8.86" x2="43.447" y2="-1.486"/>
	<line class="st1" x1="61.599" y1="6.396" x2="48.098" y2="-1.399"/>
	<line class="st1" x1="61.587" y1="3.79" x2="52.221" y2="-1.617"/>
	<line class="st1" x1="61.605" y1="1.203" x2="56.949" y2="-1.485"/>
	<path class="st1" d="M61.536-1.435"/>
	<path class="st1" d="M-57.75-91.089"/>
	<path class="st1" d="M-56.625-93.038"/>
	<path class="st1" d="M-55.5-94.987"/>
	<path class="st1" d="M-54.375-96.935"/>
	<path class="st1" d="M-53.25-98.884"/>
	<path class="st1" d="M-52.125-100.832"/>
	<path class="st1" d="M-51-102.781"/>
	<path class="st1" d="M-49.875-104.729"/>
	<path class="st1" d="M-48.75-106.678"/>
	<path class="st1" d="M61.631,62.121"/>
	<line class="st1" x1="56.838" y1="62.29" x2="61.535" y2="59.579"/>
	<line class="st1" x1="52.761" y1="62.046" x2="61.655" y2="56.911"/>
	<line class="st1" x1="48.248" y1="62.054" x2="61.639" y2="54.322"/>
	<line class="st1" x1="43.747" y1="62.054" x2="61.555" y2="51.773"/>
	<line class="st1" x1="38.977" y1="62.211" x2="61.555" y2="49.175"/>
	<line class="st1" x1="34.718" y1="62.071" x2="61.602" y2="46.55"/>
	<line class="st1" x1="30.312" y1="62.017" x2="61.607" y2="43.949"/>
	<line class="st1" x1="25.399" y1="62.256" x2="61.575" y2="41.369"/>
	<line class="st1" x1="21.12" y1="62.128" x2="61.516" y2="38.805"/>
	<line class="st1" x1="16.295" y1="62.315" x2="61.616" y2="36.149"/>
	<line class="st1" x1="11.778" y1="62.325" x2="61.415" y2="33.667"/>
	<line class="st1" x1="6.949" y1="62.515" x2="61.557" y2="30.987"/>
	<line class="st1" x1="3.231" y1="62.064" x2="61.44" y2="28.457"/>
	<line class="st1" x1="-1.62" y1="62.266" x2="61.498" y2="25.825"/>
	<line class="st1" x1="-1.625" y1="59.671" x2="61.567" y2="23.187"/>
	<line class="st1" x1="-1.398" y1="56.942" x2="61.477" y2="20.641"/>
	<line class="st1" x1="-1.514" y1="54.411" x2="61.651" y2="17.943"/>
	<line class="st1" x1="-1.367" y1="51.728" x2="61.481" y2="15.443"/>
	<line class="st1" x1="-1.426" y1="49.164" x2="61.624" y2="12.762"/>
	<line class="st1" x1="-1.554" y1="46.64" x2="61.559" y2="10.201"/>
	<line class="st1" x1="-1.659" y1="44.102" x2="61.506" y2="7.634"/>
	<line class="st1" x1="-1.549" y1="41.441" x2="61.496" y2="5.042"/>
	<line class="st1" x1="-1.501" y1="38.815" x2="61.691" y2="2.331"/>
	<line class="st1" x1="-1.687" y1="36.324" x2="61.659" y2="-0.249"/>
	<line class="st1" x1="-1.522" y1="33.631" x2="59.322" y2="-1.497"/>
	<line class="st1" x1="-1.64" y1="31.101" x2="55.116" y2="-1.667"/>
	<line class="st1" x1="-1.454" y1="28.396" x2="50.498" y2="-1.599"/>
	<line class="st1" x1="-1.477" y1="25.811" x2="46.01" y2="-1.606"/>
	<line class="st1" x1="-1.619" y1="23.295" x2="41.374" y2="-1.527"/>
	<line class="st1" x1="-1.589" y1="20.679" x2="36.704" y2="-1.429"/>
	<line class="st1" x1="-1.499" y1="18.029" x2="32.345" y2="-1.51"/>
	<line class="st1" x1="-1.488" y1="15.425" x2="27.96" y2="-1.577"/>
	<line class="st1" x1="-1.537" y1="12.855" x2="23.453" y2="-1.573"/>
	<line class="st1" x1="-1.447" y1="10.205" x2="19.027" y2="-1.616"/>
	<polyline class="st1" points="-1.57,7.678 -0.992,7.344 14.636,-1.679 	"/>
	<line class="st1" x1="-1.692" y1="5.15" x2="9.935" y2="-1.562"/>
	<line class="st1" x1="-1.256" y1="2.301" x2="4.909" y2="-1.259"/>
	<path class="st1" d="M0.826-1.5"/>
</g>
<g>
	<path class="st2" d="M57.3656,32.6738c0.0004-0.0079,0.0045-0.0145,0.0045-0.0225v-0.0375c-0.0007-0.0091,0.0012-0.0178,0-0.0268
		V15.561c0-0.0018-0.001-0.0034-0.001-0.0052c0-0.0015,0.001-0.0026,0.001-0.0041c-0.0002-0.0071-0.0054-0.0128-0.0059-0.0199
		c-0.0046-0.0754-0.0267-0.1439-0.061-0.2066c-0.0106-0.0194-0.0227-0.0351-0.0357-0.0529
		c-0.0377-0.0517-0.083-0.0941-0.1374-0.1281c-0.0113-0.0071-0.0166-0.0203-0.0286-0.0266l-4.082-2.1326V5.252
		c0-0.0134-0.0065-0.0245-0.0076-0.0377c-0.0027-0.035-0.0106-0.0676-0.0204-0.1013c-0.0089-0.03-0.0176-0.0587-0.0316-0.086
		c-0.0141-0.0278-0.0324-0.0519-0.0519-0.077c-0.0213-0.0274-0.0427-0.0525-0.0692-0.0749
		c-0.0101-0.0086-0.0154-0.0206-0.0264-0.0285l-2.6074-1.8818c-0.0037-0.0027-0.0082-0.0029-0.012-0.0054
		c-0.0027-0.0019-0.0038-0.0054-0.0066-0.0073L48.0986,1.582c-0.1572-0.103-0.3604-0.1094-0.5234-0.0156l-14.6807,8.4341
		c-0.0123,0.0071-0.0179,0.0209-0.0294,0.0289c-0.0452,0.0308-0.0827,0.0691-0.1163,0.1145
		c-0.0143,0.0194-0.0301,0.0355-0.0414,0.0567c-0.0049,0.0092-0.0135,0.0149-0.0179,0.0245l-1.5889,3.4507
		c-0.0303,0.0654-0.0459,0.1367-0.0459,0.209v8.9873v0.0352v17.0537c0,0.0351,0.0131,0.0659,0.02,0.099
		c0.0031,0.0154,0.0046,0.0304,0.0092,0.0454c0.0146,0.0477,0.0366,0.0895,0.0638,0.1299c0.0089,0.0134,0.0162,0.0267,0.0264,0.0392
		c0.0306,0.0372,0.0664,0.0667,0.1064,0.0936c0.0112,0.0078,0.018,0.0195,0.03,0.0264l3.9297,2.2609v12.2079
		c0,0.6963,0.4521,1.4893,1.0537,1.8438l0.4004,0.2363c0.207,0.1221,0.4199,0.1836,0.6221,0.1836
		c0.1602,0,0.3125-0.0391,0.4502-0.1172c0.3105-0.1768,0.4893-0.5264,0.4893-0.958V43.8469l5.3096-3.0283v10.5623
		c0,0.6982,0.4531,1.4902,1.0527,1.8438l0.4023,0.2373c0.2061,0.1221,0.4189,0.1836,0.6201,0.1836
		c0.1602-0.001,0.3145-0.04,0.4521-0.1182c0.3105-0.1777,0.4883-0.5264,0.4883-0.957V39.0986l5.2824-3.0129l0.0555,11.6027
		c0.0039,0.6953,0.459,1.4873,1.0576,1.8408l0.4023,0.2373c0.207,0.1221,0.4189,0.1826,0.6201,0.1826
		c0.1611,0,0.3154-0.0391,0.4531-0.1182c0.3096-0.1768,0.4873-0.5264,0.4863-0.957l-0.0297-14.5252l2.2142-1.2629
		c0.0261-0.0149,0.0428-0.0383,0.0651-0.0569c0.0164-0.0137,0.0328-0.0257,0.0473-0.0414c0.0329-0.0354,0.0574-0.0741,0.0785-0.1165
		c0.0068-0.0137,0.0145-0.0261,0.02-0.0405C57.3538,32.78,57.363,32.7283,57.3656,32.6738z M54.2537,33.5704
		c-0.0688,0.0228-0.1314,0.0565-0.1833,0.1046l-15.794,9.0085V26.742l18.0938-10.3202v15.9415L54.2537,33.5704z M36.0428,41.9635
		c-0.0416-0.0325-0.0856-0.0604-0.1363-0.0784l-3.8518-2.2161V23.7366l1.3135,0.7556c0.0003,0.0001,0.0005,0.0003,0.0007,0.0004
		l3.9074,2.2478v15.691c-0.0073,0.0339-0.0205,0.0656-0.0205,0.1017v0.1282L36.0428,41.9635z M33.3576,11.1644l1.2853,0.8209
		l-1.1993,2.5944l-1.3237-0.7271L33.3576,11.1644z M49.8816,3.9648l2.1379,1.543v7.4898L34.2568,23.1178v-7.9137l1.411-3.0514
		L49.8816,3.9648z M33.2568,15.1622v8.1122l-1.2021-0.6915V14.502L33.2568,15.1622z M37.7773,25.875l-3.1548-1.8149l17.9071-10.2025
		l3.2975,1.7224L37.7773,25.875z M47.8066,2.5864l1.1523,0.7559l-13.665,7.8716l-1.1865-0.7573L47.8066,2.5864z M37.2549,56.1094
		c-0.0146-0.0068-0.0322-0.0156-0.0527-0.0273l-0.4014-0.2363c-0.293-0.1729-0.5605-0.6416-0.5605-0.9824V43.2307l1.0156,0.5844
		v12.2367C37.2559,56.0742,37.2549,56.0938,37.2549,56.1094z M45.5811,52.5703c0,0.0225-0.001,0.042-0.001,0.0566
		c-0.0146-0.0059-0.0322-0.0146-0.0518-0.0264l-0.4023-0.2373c-0.2939-0.1729-0.5605-0.6406-0.5605-0.9824V40.2482l1.0156-0.5793
		V52.5703z M53.9385,48.876c0,0.0225-0.001,0.041-0.001,0.0557c-0.0146-0.0068-0.0313-0.0146-0.0498-0.0264l-0.4023-0.2373
		c-0.2949-0.1738-0.5645-0.6436-0.5664-0.9844L52.8608,35.517l1.0492-0.5984L53.9385,48.876z"/>
	<path class="st2" d="M48.1758,30.2754c-0.502-0.0815-1,0.0913-1.4121,0.4785c-0.3916,0.3672-0.6582,0.8916-0.75,1.4766
		c-0.0928,0.585-0.001,1.166,0.2598,1.6367c0.2734,0.4951,0.6982,0.8105,1.1963,0.8887c0.0801,0.0127,0.1592,0.0195,0.2383,0.0195
		c0.417,0,0.8271-0.1719,1.1738-0.4971c0.3916-0.3682,0.6582-0.8926,0.75-1.4775C49.8271,31.5654,49.1729,30.4326,48.1758,30.2754z
		 M49.04,32.707c-0.0723,0.4541-0.2734,0.8564-0.5693,1.1338c-0.2744,0.2568-0.6006,0.3672-0.9072,0.3232
		c-0.3115-0.0498-0.583-0.2578-0.7646-0.5879c-0.1963-0.3535-0.2646-0.7988-0.1934-1.252c0.0723-0.4541,0.2734-0.8564,0.5693-1.1328
		c0.2324-0.2188,0.5-0.3345,0.7656-0.3345c0.0479,0,0.0947,0.0039,0.1416,0.0112C48.7529,30.9741,49.1826,31.7988,49.04,32.707z"/>
	<path class="st2" d="M40.8252,14.7949c0.3848,0.6958,0.9795,1.1396,1.6738,1.249c0.1104,0.0171,0.2207,0.0259,0.3301,0.0259
		c0.584,0,1.1582-0.2422,1.6465-0.7002c0.5596-0.5249,0.9404-1.2754,1.0713-2.1133c0.1328-0.8379,0.001-1.6694-0.3701-2.3408
		c-0.3848-0.6958-0.9785-1.1396-1.6729-1.249c-0.2505-0.0401-0.4974-0.0182-0.7397,0.0304
		c-0.0104,0.0011-0.0181,0.004-0.0284,0.0062c-1.1027,0.2365-2.0548,1.3185-2.2807,2.7505
		C40.3223,13.292,40.4541,14.1235,40.8252,14.7949z M44.6514,11.2056c0.3076,0.5552,0.415,1.2505,0.3037,1.9575
		s-0.4277,1.335-0.8906,1.769c-0.4414,0.4155-0.9658,0.6006-1.4717,0.519c-0.0336-0.0053-0.0642-0.0209-0.0972-0.0284
		c0.8003-0.4663,1.407-1.3864,1.5797-2.4833c0.1572-0.9968-0.0671-1.9659-0.5761-2.6542
		C43.9682,10.3893,44.3762,10.7074,44.6514,11.2056z M41.0469,12.5474c0.176-1.1129,0.8575-1.9724,1.6572-2.2241
		c0.619,0.53,0.9373,1.5157,0.7794,2.5229c-0.1729,1.0947-0.8383,1.9734-1.6677,2.2283c-0.1773-0.1523-0.3374-0.3387-0.4651-0.5701
		C41.043,13.9492,40.9355,13.2544,41.0469,12.5474z"/>
	<path class="st2" d="M27.1348,34.1282V18.875c0-0.0018-0.001-0.0034-0.001-0.0052c0-0.0015,0.001-0.0026,0.001-0.0041
		c-0.0001-0.0072-0.0055-0.0129-0.0059-0.0201c-0.0046-0.0752-0.0266-0.1434-0.0607-0.206
		c-0.0107-0.0197-0.023-0.0356-0.0362-0.0538c-0.0376-0.0515-0.0829-0.0936-0.137-0.1276
		c-0.0114-0.0071-0.0167-0.0204-0.0287-0.0267l-3.6304-1.8968v-2.4186c0-0.0137-0.0067-0.0252-0.0078-0.0386
		c-0.0027-0.0341-0.0103-0.0659-0.0198-0.0987c-0.009-0.031-0.0181-0.0604-0.0326-0.0886
		c-0.0138-0.0269-0.0315-0.0502-0.0503-0.0746c-0.0219-0.0283-0.044-0.0541-0.0714-0.0771c-0.0098-0.0083-0.015-0.02-0.0256-0.0277
		l-2.3379-1.687c-0.0035-0.0025-0.0076-0.0027-0.0112-0.0051c-0.0029-0.002-0.004-0.0056-0.0069-0.0076l-1.8711-1.228
		c-0.1567-0.103-0.3599-0.1089-0.5234-0.0156L5.1201,18.3276c-0.011,0.0063-0.0158,0.0187-0.0262,0.0258
		c-0.0474,0.032-0.0867,0.0718-0.1213,0.1195C4.959,18.4916,4.944,18.507,4.933,18.5274c-0.0049,0.0093-0.0136,0.0151-0.018,0.0248
		L3.4907,21.646c-0.0303,0.0654-0.0459,0.1367-0.0459,0.209v3.5732v0.0308v15.2871c0,0.0358,0.0132,0.0673,0.0204,0.101
		c0.003,0.0145,0.0043,0.0285,0.0085,0.0426c0.0146,0.0481,0.0367,0.0905,0.0643,0.1312c0.0087,0.0132,0.016,0.0262,0.026,0.0386
		c0.0306,0.0372,0.0665,0.0667,0.1066,0.0938c0.0112,0.0078,0.0179,0.0195,0.03,0.0264l3.0835,1.7741v11.0257
		c0.0039,0.6406,0.4224,1.3691,0.9736,1.6953l0.3599,0.2129c0.1938,0.1143,0.3936,0.1719,0.5835,0.1719
		c0.1528,0,0.2988-0.0371,0.4307-0.1123c0.2944-0.1689,0.4634-0.498,0.4624-0.9043L9.5699,44.4442
		c0.0616-0.0063,0.1195-0.0207,0.1724-0.0473c0.0099-0.0048,0.0214-0.0027,0.0311-0.0082l5.0073-2.8558v1.6664
		c0.0049,0.6387,0.4233,1.3672,0.9736,1.6934l0.3604,0.2129c0.1938,0.1143,0.3936,0.1719,0.5835,0.1719
		c0.1523,0,0.2988-0.0371,0.4302-0.1123c0.2944-0.1689,0.4634-0.498,0.4624-0.9063l-0.0267-4.3134l4.4838-2.5572v8.1401
		c0.0039,0.6396,0.4224,1.3672,0.9736,1.6943l0.3604,0.2129c0.1938,0.1143,0.3936,0.1719,0.5835,0.1719
		c0.1523,0,0.2988-0.0371,0.4302-0.1123c0.2944-0.1689,0.4634-0.498,0.4624-0.9043l-0.0262-10.7903l2.056-1.1726
		c0.0265-0.0151,0.0435-0.0387,0.066-0.0576c0.0157-0.0133,0.0319-0.0248,0.0458-0.04c0.0341-0.0364,0.0595-0.0763,0.081-0.1201
		c0.006-0.0121,0.0127-0.0231,0.0177-0.0358c0.0206-0.0521,0.0303-0.1055,0.0326-0.1618c0.0002-0.0068,0.0039-0.0125,0.0039-0.0193
		v-0.033C27.1341,34.1495,27.1362,34.1391,27.1348,34.1282z M10.021,43.0961V28.9263l16.1138-9.1909v14.1703L10.021,43.0961z
		 M4.4448,40.4536V26.293l1.0995,0.6326l0,0l3.4766,2.0001v14.1247c-0.0162,0.0016-0.0311,0.0065-0.0468,0.0095L4.4448,40.4536z
		 M5.5833,19.4914l1.064,0.6799L5.606,22.4238l-1.0959-0.6012L5.5833,19.4914z M20.3676,13.0236l1.8683,1.3482v2.1754
		L6.4189,25.5584v-2.5106l1.2523-2.7092L20.3676,13.0236z M5.4189,23.0062v2.6931l-0.9741-0.5605v-2.667L5.4189,23.0062z
		 M9.522,28.0601l-2.7231-1.5668l15.9474-9.0856l2.8456,1.4865L9.522,28.0601z M18.5093,11.7876l0.9351,0.6138l-12.147,6.9985
		l-0.9639-0.6162L18.5093,11.7876z M8.2666,54.8135c-0.2505-0.1484-0.4805-0.5488-0.4824-0.8369V43.5292l0.7843,0.4512L8.584,55.001
		L8.2666,54.8135z M16.5801,44.2188l-0.3164-0.1875c-0.2461-0.1455-0.481-0.5537-0.4829-0.8359v-2.2051
		c0-0.0088-0.0046-0.0161-0.005-0.0248l0.7904-0.4508L16.5801,44.2188z M23.8477,46.5488l-0.3169-0.1875
		c-0.2466-0.1455-0.481-0.5537-0.4829-0.8359v-8.7075l0.7844-0.4473L23.8477,46.5488z"/>
	<path class="st2" d="M18.8477,27.1367c-0.9131-0.1426-1.7969,0.6538-1.9741,1.7788c-0.1768,1.1235,0.4204,2.1548,1.3315,2.2983
		c0.0713,0.0117,0.1426,0.0176,0.2134,0.0176c0.832,0,1.5972-0.7593,1.7607-1.7959C20.356,28.312,19.7588,27.2803,18.8477,27.1367z
		 M19.5864,29.3423c-0.1255,0.7983-0.71,1.374-1.2876,1.2793c-0.5845-0.0923-0.958-0.8159-0.8325-1.6128
		c0.1167-0.7412,0.624-1.2891,1.1636-1.2891c0.0415,0,0.083,0.0034,0.124,0.0098C19.3384,27.8218,19.7119,28.5454,19.5864,29.3423z"
		/>
</g>
</svg>
