<?xml version="1.0" encoding="utf-8"?>
<!-- Generator: Adobe Illustrator 21.0.0, SVG Export Plug-In . SVG Version: 6.00 Build 0)  -->
<svg version="1.1" id="Layer_1" xmlns="http://www.w3.org/2000/svg" xmlns:xlink="http://www.w3.org/1999/xlink" x="0px" y="0px"
	 viewBox="0 0 30 30" style="enable-background:new 0 0 30 30;" xml:space="preserve">
<style type="text/css">
	.st0{display:none;opacity:0.2;}
	.st1{display:inline;fill:none;stroke:#00ADEE;stroke-width:0.125;stroke-miterlimit:10;}
	.st2{fill:#231F20;}
</style>
<g class="st0">
	<path class="st1" d="M-15.375-16.557"/>
	<line class="st1" x1="-13.125" y1="47.1558" x2="-13.125" y2="-16.3603"/>
	<line class="st1" x1="-10.875" y1="47.3529" x2="-10.875" y2="-16.5568"/>
	<line class="st1" x1="-8.625" y1="46.959" x2="-8.625" y2="-16.3109"/>
	<line class="st1" x1="-6.375" y1="47.746" x2="-6.375" y2="-16.6546"/>
	<line class="st1" x1="-4.125" y1="47.3529" x2="-4.125" y2="-16.5079"/>
	<line class="st1" x1="-1.875" y1="47.4999" x2="-1.875" y2="-16.6061"/>
	<line class="st1" x1="0.375" y1="47.3529" x2="0.375" y2="-16.5568"/>
	<line class="st1" x1="2.625" y1="47.4999" x2="2.625" y2="-16.9021"/>
	<line class="st1" x1="4.875" y1="47.1558" x2="4.875" y2="-16.6547"/>
	<line class="st1" x1="7.125" y1="47.3029" x2="7.125" y2="-16.8517"/>
	<line class="st1" x1="9.375" y1="47.1063" x2="9.375" y2="-16.4577"/>
	<line class="st1" x1="11.625" y1="47.2541" x2="11.625" y2="-16.5081"/>
	<line class="st1" x1="13.875" y1="47.3029" x2="13.875" y2="-16.5079"/>
	<line class="st1" x1="16.125" y1="47.0567" x2="16.125" y2="-16.458"/>
	<line class="st1" x1="18.375" y1="47.1063" x2="18.375" y2="-16.4089"/>
	<line class="st1" x1="20.625" y1="47.3529" x2="20.625" y2="-16.6058"/>
	<line class="st1" x1="22.875" y1="47.1558" x2="22.875" y2="-16.5569"/>
	<line class="st1" x1="25.125" y1="47.4511" x2="25.125" y2="-16.5082"/>
	<line class="st1" x1="27.375" y1="47.2541" x2="27.375" y2="-16.3603"/>
	<line class="st1" x1="29.625" y1="47.1063" x2="29.625" y2="-16.5077"/>
	<line class="st1" x1="31.875" y1="47.1558" x2="31.875" y2="-16.508"/>
	<line class="st1" x1="34.125" y1="47.1063" x2="34.125" y2="-16.5077"/>
	<line class="st1" x1="36.375" y1="46.8598" x2="36.375" y2="-16.5566"/>
	<line class="st1" x1="38.625" y1="47.1558" x2="38.625" y2="-16.7536"/>
	<line class="st1" x1="40.875" y1="47.1558" x2="40.875" y2="-16.6058"/>
	<line class="st1" x1="43.125" y1="47.4511" x2="43.125" y2="-16.6062"/>
	<line class="st1" x1="-14.2926" y1="47.1726" x2="-16.4896" y2="45.9041"/>
	<line class="st1" x1="-9.8838" y1="47.1199" x2="-16.5439" y2="43.2746"/>
	<line class="st1" x1="-5.0286" y1="47.3248" x2="-16.5547" y2="40.6703"/>
	<line class="st1" x1="-0.4099" y1="47.3936" x2="-16.607" y2="38.0421"/>
	<line class="st1" x1="3.8647" y1="47.2633" x2="-16.4987" y2="35.5065"/>
	<line class="st1" x1="8.1817" y1="47.1575" x2="-16.4585" y2="32.9315"/>
	<line class="st1" x1="12.7364" y1="47.1893" x2="-16.5287" y2="30.2931"/>
	<line class="st1" x1="17.0493" y1="47.0812" x2="-16.4649" y2="27.7317"/>
	<line class="st1" x1="21.7487" y1="47.1965" x2="-16.5216" y2="25.1011"/>
	<line class="st1" x1="26.2708" y1="47.2091" x2="-16.6454" y2="22.4314"/>
	<line class="st1" x1="30.8011" y1="47.2265" x2="-16.5718" y2="19.8757"/>
	<line class="st1" x1="35.0797" y1="47.0989" x2="-16.5759" y2="17.2755"/>
	<line class="st1" x1="39.7372" y1="47.1897" x2="-16.5939" y2="14.6669"/>
	<line class="st1" x1="44.4278" y1="47.2996" x2="-16.6466" y2="12.0384"/>
	<line class="st1" x1="46.5391" y1="45.9207" x2="-16.5451" y2="9.499"/>
	<line class="st1" x1="46.7575" y1="43.4487" x2="-16.4576" y2="6.9515"/>
	<line class="st1" x1="46.5446" y1="40.7275" x2="-16.5248" y2="4.3145"/>
	<line class="st1" x1="46.5973" y1="38.16" x2="-16.5582" y2="1.6972"/>
	<line class="st1" x1="46.5272" y1="35.5214" x2="-16.4693" y2="-0.8496"/>
	<line class="st1" x1="46.6505" y1="32.9944" x2="-16.4717" y2="-3.4492"/>
	<line class="st1" x1="46.5376" y1="30.3314" x2="-16.4197" y2="-6.017"/>
	<line class="st1" x1="46.4796" y1="27.6997" x2="-16.3754" y2="-8.5896"/>
	<polyline class="st1" points="46.5777,25.1581 -16.1346,-11.0488 -16.5294,-11.2767 	"/>
	<polyline class="st1" points="46.5142,22.5236 -16.248,-13.7121 -17.1105,-14.2101 	"/>
	<polyline class="st1" points="46.5439,19.9426 -14.9996,-15.5896 -16.7609,-16.6065 	"/>
	<line class="st1" x1="46.3527" y1="17.2343" x2="-12.0668" y2="-16.4943"/>
	<line class="st1" x1="46.4824" y1="14.711" x2="-7.5112" y2="-16.4622"/>
	<line class="st1" x1="46.479" y1="12.1109" x2="-3.0123" y2="-16.4629"/>
	<line class="st1" x1="46.4578" y1="9.5007" x2="1.1859" y2="-16.637"/>
	<line class="st1" x1="46.3608" y1="6.8466" x2="5.6507" y2="-16.6575"/>
	<line class="st1" x1="46.5626" y1="4.3649" x2="10.4854" y2="-16.4643"/>
	<line class="st1" x1="46.6047" y1="1.7913" x2="15.0995" y2="-16.3983"/>
	<line class="st1" x1="46.4335" y1="-0.9057" x2="19.5934" y2="-16.4018"/>
	<line class="st1" x1="46.5889" y1="-3.4142" x2="23.9443" y2="-16.488"/>
	<line class="st1" x1="46.3665" y1="-6.1405" x2="28.4468" y2="-16.4864"/>
	<line class="st1" x1="46.5992" y1="-8.6043" x2="33.0984" y2="-16.399"/>
	<line class="st1" x1="46.5865" y1="-11.2098" x2="37.2213" y2="-16.6168"/>
	<line class="st1" x1="46.6046" y1="-13.7973" x2="41.9486" y2="-16.4854"/>
	<path class="st1" d="M46.5364-16.4349"/>
	<path class="st1" d="M-72.75-106.0893"/>
	<path class="st1" d="M-71.625-108.0379"/>
	<path class="st1" d="M-70.5-109.9865"/>
	<path class="st1" d="M-69.375-111.935"/>
	<path class="st1" d="M-68.25-113.8836"/>
	<path class="st1" d="M-67.125-115.8321"/>
	<path class="st1" d="M-66-117.7807"/>
	<path class="st1" d="M-64.875-119.7292"/>
	<path class="st1" d="M-63.75-121.6778"/>
	<path class="st1" d="M46.631,47.1215"/>
	<line class="st1" x1="41.8384" y1="47.2903" x2="46.5346" y2="44.579"/>
	<line class="st1" x1="37.761" y1="47.0465" x2="46.6554" y2="41.9113"/>
	<line class="st1" x1="33.2481" y1="47.0539" x2="46.6394" y2="39.3224"/>
	<line class="st1" x1="28.7471" y1="47.0544" x2="46.5552" y2="36.7729"/>
	<line class="st1" x1="23.9766" y1="47.2107" x2="46.5546" y2="34.1753"/>
	<line class="st1" x1="19.718" y1="47.0712" x2="46.6021" y2="31.5497"/>
	<line class="st1" x1="15.3122" y1="47.0167" x2="46.6066" y2="28.9489"/>
	<line class="st1" x1="10.3988" y1="47.2556" x2="46.5751" y2="26.3692"/>
	<line class="st1" x1="6.1197" y1="47.1279" x2="46.5162" y2="23.805"/>
	<line class="st1" x1="1.2953" y1="47.3154" x2="46.6164" y2="21.1493"/>
	<line class="st1" x1="-3.222" y1="47.3253" x2="46.4154" y2="18.6671"/>
	<line class="st1" x1="-8.0514" y1="47.5153" x2="46.5572" y2="15.9871"/>
	<line class="st1" x1="-11.769" y1="47.0639" x2="46.4405" y2="13.4566"/>
	<line class="st1" x1="-16.6198" y1="47.2663" x2="46.4978" y2="10.8253"/>
	<line class="st1" x1="-16.6252" y1="44.6712" x2="46.5671" y2="8.1872"/>
	<line class="st1" x1="-16.3982" y1="41.9423" x2="46.4768" y2="5.6413"/>
	<line class="st1" x1="-16.5136" y1="39.4107" x2="46.6506" y2="2.9429"/>
	<line class="st1" x1="-16.3672" y1="36.728" x2="46.4811" y2="0.4426"/>
	<line class="st1" x1="-16.4261" y1="34.1641" x2="46.6243" y2="-2.2381"/>
	<line class="st1" x1="-16.5537" y1="31.6396" x2="46.5591" y2="-4.7985"/>
	<line class="st1" x1="-16.6591" y1="29.1023" x2="46.5062" y2="-7.3662"/>
	<line class="st1" x1="-16.5488" y1="26.4407" x2="46.4955" y2="-9.9579"/>
	<line class="st1" x1="-16.5014" y1="23.8152" x2="46.6906" y2="-12.6687"/>
	<line class="st1" x1="-16.6869" y1="21.324" x2="46.6589" y2="-15.2486"/>
	<line class="st1" x1="-16.5222" y1="18.6311" x2="44.3216" y2="-16.497"/>
	<line class="st1" x1="-16.6397" y1="16.1008" x2="40.1155" y2="-16.6668"/>
	<line class="st1" x1="-16.4543" y1="13.3959" x2="35.4976" y2="-16.5986"/>
	<line class="st1" x1="-16.4766" y1="10.8105" x2="31.0105" y2="-16.6061"/>
	<line class="st1" x1="-16.6191" y1="8.2947" x2="26.3737" y2="-16.5272"/>
	<line class="st1" x1="-16.5886" y1="5.6791" x2="21.7039" y2="-16.4291"/>
	<line class="st1" x1="-16.4987" y1="3.0291" x2="17.3446" y2="-16.5104"/>
	<line class="st1" x1="-16.4879" y1="0.4247" x2="12.9603" y2="-16.5772"/>
	<line class="st1" x1="-16.5374" y1="-2.1447" x2="8.4534" y2="-16.5731"/>
	<line class="st1" x1="-16.4468" y1="-4.7952" x2="4.0268" y2="-16.6156"/>
	<polyline class="st1" points="-16.5695,-7.3225 -15.9916,-7.6561 -0.3642,-16.6786 	"/>
	<line class="st1" x1="-16.6918" y1="-9.8497" x2="-5.065" y2="-16.5625"/>
	<line class="st1" x1="-16.2564" y1="-12.6993" x2="-10.0909" y2="-16.259"/>
	<path class="st1" d="M-14.1742-16.4997"/>
</g>
<g>
	<path class="st2" d="M29.04,8.2217c-0.0001-0.0057-0.0043-0.0101-0.0047-0.0158c-0.0037-0.0603-0.0214-0.1151-0.049-0.1652
		c-0.0086-0.0158-0.0185-0.0286-0.0291-0.0431c-0.0298-0.0407-0.0656-0.0739-0.1083-0.1009
		c-0.0093-0.006-0.0139-0.0169-0.0238-0.0222l-1.96-1.024V3.0742c0-0.0112-0.0055-0.0206-0.0064-0.0316
		c-0.0021-0.0269-0.0082-0.0518-0.0157-0.0776c-0.0073-0.025-0.0145-0.0487-0.0262-0.0714c-0.0112-0.022-0.0258-0.041-0.0411-0.0609
		c-0.017-0.0218-0.0341-0.0418-0.0551-0.0597c-0.0082-0.007-0.0125-0.0168-0.0214-0.0232l-1.3037-0.9409
		c-0.0028-0.002-0.0062-0.0022-0.0091-0.0042c-0.0023-0.0016-0.0032-0.0045-0.0056-0.0061l-1.0439-0.6851
		c-0.126-0.082-0.2881-0.0869-0.4189-0.0122l-7.3398,4.2173c-0.0101,0.0058-0.0147,0.0172-0.0242,0.0238
		c-0.0359,0.0245-0.0656,0.0549-0.0923,0.0908c-0.0113,0.0153-0.0238,0.0278-0.0328,0.0445
		c-0.0041,0.0075-0.0112,0.0122-0.0148,0.0201l-0.7949,1.7256c-0.0244,0.0527-0.0366,0.1099-0.0366,0.1675v4.4932v0.0176v8.5269
		c0,0.0246,0.0098,0.046,0.014,0.0695c0.0031,0.0172,0.0049,0.0338,0.0102,0.0505c0.0107,0.0335,0.0264,0.0627,0.045,0.0918
		c0.0092,0.0145,0.0172,0.0286,0.0283,0.0419c0.0226,0.027,0.049,0.0483,0.0779,0.0686c0.0103,0.0073,0.0166,0.018,0.0277,0.0244
		l1.8892,1.087v6.0175c0,0.2207,0.1797,0.4004,0.4004,0.4004s0.4004-0.1797,0.4004-0.4004v-5.5566l0.4209,0.2422
		c0.004,0.0023,0.0089,0.0013,0.013,0.0035c0.0557,0.0294,0.1161,0.0502,0.1833,0.0502c0.0006,0,0.001-0.0004,0.0016-0.0004
		c0.0004,0,0.0009,0.0004,0.0013,0.0004c0.0032,0,0.0062-0.0024,0.0094-0.0025c0.06-0.002,0.1151-0.0184,0.1656-0.0441
		c0.0074-0.0037,0.0161-0.002,0.0233-0.0062l2.543-1.4504v4.0227c0,0.2207,0.1797,0.4004,0.4004,0.4004s0.4004-0.1797,0.4004-0.4004
		v-4.4795l3.3499-1.9106l0.0261,5.5454c0.001,0.2197,0.1807,0.3984,0.4004,0.3984c0.25-0.0234,0.4014-0.1807,0.4004-0.4023
		l-0.0282-5.9971l2.0546-1.1719c0.0192-0.0109,0.0313-0.0283,0.0479-0.0418c0.0157-0.0128,0.0313-0.0243,0.0449-0.0393
		c0.0235-0.0258,0.0409-0.0536,0.0567-0.0839c0.0076-0.0146,0.0157-0.028,0.0215-0.0436c0.0134-0.0356,0.0193-0.072,0.0223-0.11
		c0.0008-0.0101,0.0059-0.0187,0.0059-0.029V8.229c0-0.0015-0.0009-0.0026-0.0009-0.0041C29.0392,8.2238,29.04,8.2228,29.04,8.2217z
		 M28.2393,16.5428l-8.7461,4.9889v-7.625l8.7461-4.9886V16.5428z M18.2756,21.2853c-0.019-0.0114-0.0359-0.0245-0.0567-0.0327
		l-1.8361-1.0566v-7.6198l2.3096,1.3289v7.6199L18.2756,21.2853z M16.9486,6.25l0.3864,0.2471l-0.6143,1.33
		c-0.0244,0.0527-0.0371,0.1099-0.0371,0.168v3.8314l-0.3008-0.1731V7.479L16.9486,6.25z M25.1365,2.6089l0.9279,0.6697v3.5817
		l-8.5801,4.8875V8.083l0.6707-1.4521L25.1365,2.6089z M19.0938,13.2134l-1.2761-0.7343l8.6555-4.9305l1.3325,0.696L19.0938,13.2134
		z M24.1035,1.9175l0.2949,0.1938l-6.543,3.769l-0.3066-0.1968L24.1035,1.9175z"/>
	<path class="st2" d="M23.208,17.0869c0.1748,0.2393,0.4209,0.3945,0.6943,0.4375c0.0508,0.0078,0.1016,0.0117,0.1533,0.0117
		c0.2725,0,0.543-0.1113,0.7617-0.3164c0.2363-0.2217,0.3965-0.5352,0.4512-0.8828c0.0547-0.3467-0.002-0.6934-0.1582-0.9771
		c-0.1729-0.3115-0.4561-0.5195-0.7773-0.5703c-0.6396-0.0991-1.248,0.4316-1.3682,1.1851
		C22.9014,16.3809,22.9893,16.7861,23.208,17.0869z M24.1777,15.5771c0.0098,0,0.0205,0.001,0.0303,0.0024
		c0.1045,0.0166,0.1709,0.1118,0.2021,0.1675c0.0703,0.1265,0.0947,0.2969,0.0674,0.4658c0,0,0,0,0,0.001
		c-0.0264,0.1689-0.1016,0.3232-0.208,0.4229c-0.0459,0.043-0.1416,0.1133-0.2441,0.0967
		c-0.0791-0.0117-0.1357-0.0703-0.1699-0.1172c-0.0938-0.1279-0.1309-0.3213-0.0996-0.5166
		C23.8057,15.7793,24.0117,15.5771,24.1777,15.5771z"/>
	<path class="st2" d="M20.7969,7.8076c0.1738,0.2393,0.4209,0.3945,0.6934,0.437c0.0518,0.0083,0.1035,0.0122,0.1543,0.0122
		c0.5781,0,1.1045-0.5059,1.2148-1.1987c0.0547-0.3477-0.002-0.6958-0.1592-0.98c-0.1729-0.312-0.4561-0.52-0.7783-0.5708
		c-0.6436-0.1025-1.249,0.4326-1.3691,1.187C20.4893,7.1011,20.5771,7.5068,20.7969,7.8076z M21.7666,6.2949
		c0.0107,0,0.0205,0.001,0.0303,0.0024C21.9023,6.314,21.9697,6.4102,22,6.4658c0.0703,0.127,0.0957,0.2974,0.0684,0.4673
		c-0.0537,0.3418-0.2725,0.5474-0.4541,0.5215c-0.0791-0.0127-0.1367-0.0713-0.1709-0.1182
		c-0.0938-0.1284-0.1309-0.3213-0.0996-0.5171C21.3945,6.498,21.5996,6.2949,21.7666,6.2949z"/>
	<path class="st2" d="M13.9176,9.8622c-0.0037-0.0598-0.0211-0.1141-0.0481-0.1639c-0.0089-0.0164-0.0191-0.0297-0.0302-0.0448
		c-0.0298-0.0406-0.0657-0.0739-0.1085-0.1007c-0.0092-0.0058-0.0135-0.0165-0.0233-0.0216l-1.7349-0.9063V7.5063
		c0-0.0109-0.0053-0.02-0.0062-0.0306c-0.0022-0.0276-0.0084-0.0533-0.0162-0.08c-0.0071-0.0242-0.0142-0.0472-0.0255-0.0693
		c-0.0114-0.0223-0.0259-0.0416-0.0416-0.0616c-0.0171-0.0219-0.0343-0.0419-0.0554-0.0598
		c-0.0081-0.0069-0.0124-0.0165-0.0212-0.0228l-1.1685-0.8433c-0.0029-0.0021-0.0063-0.0022-0.0092-0.0042
		c-0.0023-0.0016-0.0031-0.0045-0.0055-0.006l-0.936-0.6138c-0.126-0.083-0.2881-0.0874-0.4185-0.0122L2.6904,9.4824
		C2.6815,9.4875,2.6776,9.4976,2.6693,9.5033C2.6314,9.5288,2.5999,9.5607,2.5721,9.5988c-0.0107,0.0146-0.0225,0.0266-0.031,0.0425
		C2.537,9.6489,2.53,9.6537,2.5264,9.6616L1.814,11.2085c-0.0244,0.0527-0.0366,0.1099-0.0366,0.1675v1.7861v0.0161v7.6431
		c0,0.0233,0.0095,0.0435,0.0133,0.0657c0.0032,0.0191,0.0052,0.0375,0.0112,0.0559c0.0104,0.0318,0.0253,0.0596,0.0428,0.0874
		c0.0098,0.0159,0.0187,0.0313,0.0308,0.0457c0.0219,0.026,0.0474,0.0464,0.0751,0.0661c0.0108,0.0078,0.0175,0.019,0.0293,0.0258
		l1.4668,0.8441v5.4254c0,0.2207,0.1792,0.4004,0.3999,0.4004s0.3999-0.1797,0.3999-0.4004v-4.9651l0.5215,0.3001
		c0.0046,0.0026,0.0101,0.0015,0.0148,0.004c0.0554,0.0291,0.1157,0.0497,0.1825,0.0497c0.0005,0,0.0009-0.0003,0.0014-0.0003
		c0.0004,0,0.0007,0.0003,0.001,0.0003c0.0027,0,0.0051-0.002,0.0078-0.0021c0.0609-0.0016,0.1166-0.0186,0.1677-0.0446
		c0.0072-0.0035,0.0157-0.002,0.0227-0.006l2.2793-1.3v1.5725c0,0.2207,0.1792,0.4004,0.3999,0.4004s0.3999-0.1797,0.3999-0.4004
		v-2.0287l2.834-1.6165v3.8102c0,0.2207,0.1792,0.4004,0.3999,0.4004s0.3999-0.1797,0.3999-0.4004v-4.2664l1.8442-1.0519
		c0.0189-0.0108,0.0308-0.028,0.0472-0.0412c0.0161-0.0131,0.0321-0.0247,0.046-0.04c0.0235-0.0258,0.041-0.054,0.0568-0.0843
		c0.0075-0.0143,0.0154-0.0274,0.0211-0.0427c0.0136-0.0361,0.0197-0.0728,0.0225-0.1114c0.0007-0.0098,0.0057-0.0181,0.0057-0.0281
		V9.8857c0-0.0015-0.0009-0.0026-0.0009-0.0041c0-0.0012,0.0009-0.0021,0.0009-0.0032C13.9222,9.8726,13.918,9.868,13.9176,9.8622z
		 M13.1226,17.3137l-7.7573,4.425v-6.7395l7.7573-4.4246V17.3137z M2.5771,20.5884v-6.7346l0.3256,0.1873
		c0.0002,0.0001,0.0004,0.0002,0.0005,0.0003l1.6622,0.9565v6.7347L2.5771,20.5884z M3.061,10.4132l0.2759,0.1765l-0.5362,1.1599
		c-0.0239,0.0527-0.0366,0.1099-0.0366,0.168v1.1208l-0.187-0.1076v-1.4668L3.061,10.4132z M4.9663,14.3057l-1.0599-0.61
		l7.675-4.3727l1.1066,0.5785L4.9663,14.3057z M10.3802,7.1387l0.7927,0.572v0.9236L3.564,12.9695v-0.9642l0.5927-1.2813
		L10.3802,7.1387z M9.4546,6.5186l0.1865,0.1226l-5.7837,3.332l-0.1968-0.126L9.4546,6.5186z"/>
	<path class="st2" d="M8.5415,15.771c0.1611,0.2905,0.4258,0.4849,0.7275,0.5327c0.0483,0.0068,0.0962,0.0107,0.144,0.0107
		c0.5376,0,1.0278-0.4678,1.1284-1.1089c0.1099-0.6982-0.2822-1.3423-0.8735-1.4355c-0.2993-0.0483-0.6128,0.0557-0.856,0.2827
		c-0.2183,0.2051-0.3662,0.4946-0.4165,0.8145C8.3447,15.1875,8.3965,15.5083,8.5415,15.771z M9.1855,14.9917
		c0.0225-0.1431,0.0859-0.2729,0.1743-0.3555c0.0322-0.0303,0.0938-0.0776,0.1616-0.0776c0.0068,0,0.0142,0.0005,0.0215,0.0015
		c0.1338,0.021,0.2515,0.2485,0.2085,0.5215c-0.0425,0.2725-0.2334,0.4492-0.3579,0.4316
		c-0.0767-0.0122-0.1279-0.0864-0.1519-0.1294C9.1836,15.2783,9.1631,15.1353,9.1855,14.9917z"/>
</g>
</svg>
