<svg xmlns="http://www.w3.org/2000/svg" width="36" height="36" viewBox="0 0 36 36">
  <path fill="#20282D" fill-rule="evenodd" d="M20.6842105,15.3157895 L20.6842105,3.68211672 C20.6842105,2.210078 19.4824485,1 18,1 C16.5205679,1 15.3157895,2.20082456 15.3157895,3.68211672 L15.3157895,15.3157895 L3.68211672,15.3157895 C2.210078,15.3157895 1,16.5175515 1,18 C1,19.4794321 2.20082456,20.6842105 3.68211672,20.6842105 L15.3157895,20.6842105 L15.3157895,32.3178833 C15.3157895,33.789922 16.5175515,35 18,35 C19.4794321,35 20.6842105,33.7991754 20.6842105,32.3178833 L20.6842105,20.6842105 L32.3178833,20.6842105 C33.789922,20.6842105 35,19.4824485 35,18 C35,16.5205679 33.7991754,15.3157895 32.3178833,15.3157895 L20.6842105,15.3157895 Z"/>
</svg>
