<svg xmlns="http://www.w3.org/2000/svg" width="36" height="36" viewBox="0 0 36 36">
  <path fill="#20282D" fill-rule="evenodd" d="M20.6842105,15.3157895 L32.3178833,15.3157895 C33.7991754,15.3157895 35,16.5205679 35,18 C35,19.4824485 33.789922,20.6842105 32.3178833,20.6842105 L20.6842105,20.6842105 L20.6842105,32.3178833 C20.6842105,33.7991754 19.4794321,35 18,35 C16.5175515,35 15.3157895,33.789922 15.3157895,32.3178833 L15.3157895,20.6842105 L3.68211672,20.6842105 C2.20082456,20.6842105 1,19.4794321 1,18 C1,16.5175515 2.210078,15.3157895 3.68211672,15.3157895 L15.3157895,15.3157895 L15.3157895,3.68211672 C15.3157895,2.20082456 16.5205679,1 18,1 C19.4824485,1 20.6842105,2.210078 20.6842105,3.68211672 L20.6842105,15.3157895 Z"/>
</svg>
