<svg xmlns="http://www.w3.org/2000/svg" width="40" height="40" viewBox="0 0 40 40">
  <g fill="none" fill-rule="evenodd">
    <path fill="#1F272D" d="M22.8421053,17.1578947 L22.8421053,4.8398883 C22.8421053,3.28125906 21.5696514,2 20,2 C18.4335425,2 17.1578947,3.2714613 17.1578947,4.8398883 L17.1578947,17.1578947 L4.8398883,17.1578947 C3.28125906,17.1578947 2,18.4303486 2,20 C2,21.5664575 3.2714613,22.8421053 4.8398883,22.8421053 L17.1578947,22.8421053 L17.1578947,35.1601117 C17.1578947,36.7187409 18.4303486,38 20,38 C21.5664575,38 22.8421053,36.7285387 22.8421053,35.1601117 L22.8421053,22.8421053 L35.1601117,22.8421053 C36.7187409,22.8421053 38,21.5696514 38,20 C38,18.4335425 36.7285387,17.1578947 35.1601117,17.1578947 L22.8421053,17.1578947 Z"/>
  </g>
</svg>
