<svg width="36" height="36" viewBox="0 0 36 36" version="1.1" xmlns="http://www.w3.org/2000/svg" xmlns:xlink="http://www.w3.org/1999/xlink" xmlns:figma="http://www.figma.com/figma/ns">
<title>add</title>
<desc>Created using Figma</desc>
<g id="Canvas" transform="translate(3 -119)" figma:type="canvas">
<g id="add" figma:type="vector-operation">
<use xlink:href="#path0_fill" transform="translate(-3 119)" fill="#20282D"/>
</g>
</g>
<defs>
<path id="path0_fill" fill-rule="evenodd" d="M 18 0C 16.4303 0 15.1579 1.27245 15.1579 2.8421L 15.1579 15.1579L 2.8421 15.1579C 1.27245 15.1579 0 16.4303 0 18C 0 19.5696 1.27245 20.8421 2.8421 20.8421L 15.1579 20.8421L 15.1579 33.1579C 15.1579 34.7275 16.4303 36 18 36C 19.5697 36 20.8421 34.7275 20.8421 33.1579L 20.8421 20.8421L 33.1579 20.8421C 34.7275 20.8421 36 19.5696 36 18C 36 16.4303 34.7275 15.1579 33.1579 15.1579L 20.8421 15.1579L 20.8421 2.8421C 20.8421 1.27245 19.5697 0 18 0Z"/>
</defs>
</svg>
