<svg xmlns="http://www.w3.org/2000/svg" width="40" height="40" viewBox="0 0 40 40">
  <g fill="none" fill-rule="evenodd">
    <rect width="1440" height="4000" x="-50" y="-530" fill="#FFFFFF"/>
    <path fill="#20282D" d="M33.2821539,3 L8.09862723,3 C6.93808637,3 6,3.84433333 6,4.88888889 L6,35.1111111 C6,36.1537778 6.93808637,37 8.09862723,37 L33.2821539,37 C34.4426948,37 35.3807812,36.1537778 35.3807812,35.1111111 L35.3807812,4.88888889 C35.3807812,3.84622222 34.4426948,3 33.2821539,3 L33.2821539,3 Z M31.8650998,33.2222222 L9.5127551,33.2222222 L9.5127551,6.77777778 L31.8650998,6.77777778 L31.8650998,33.2222222 L31.8650998,33.2222222 Z M28.3494161,10.5555556 L13.0255102,10.5555556 L13.0255102,14.3333333 L28.3494161,14.3333333 L28.3494161,10.5555556 L28.3494161,10.5555556 Z M28.3494161,25.6666667 L13.0255102,25.6666667 L13.0255102,29.4444444 L28.3494161,29.4444444 L28.3494161,25.6666667 L28.3494161,25.6666667 Z M28.3494161,18.1111111 L13.0255102,18.1111111 L13.0255102,21.8888889 L28.3494161,21.8888889 L28.3494161,18.1111111 L28.3494161,18.1111111 Z"/>
  </g>
</svg>
