<svg xmlns="http://www.w3.org/2000/svg" width="36" height="36" viewBox="0 0 36 36">
  <path fill="#20282D" fill-rule="evenodd" d="M30.2821539,1 L5.09862723,1 C3.93808637,1 3,1.84433333 3,2.88888889 L3,33.1111111 C3,34.1537778 3.93808637,35 5.09862723,35 L30.2821539,35 C31.4426948,35 32.3807812,34.1537778 32.3807812,33.1111111 L32.3807812,2.88888889 C32.3807812,1.84622222 31.4426948,1 30.2821539,1 L30.2821539,1 Z M28.8650998,31.2222222 L6.5127551,31.2222222 L6.5127551,4.77777778 L28.8650998,4.77777778 L28.8650998,31.2222222 L28.8650998,31.2222222 Z M25.3494161,8.55555556 L10.0255102,8.55555556 L10.0255102,12.3333333 L25.3494161,12.3333333 L25.3494161,8.55555556 L25.3494161,8.55555556 Z M25.3494161,23.6666667 L10.0255102,23.6666667 L10.0255102,27.4444444 L25.3494161,27.4444444 L25.3494161,23.6666667 L25.3494161,23.6666667 Z M25.3494161,16.1111111 L10.0255102,16.1111111 L10.0255102,19.8888889 L25.3494161,19.8888889 L25.3494161,16.1111111 L25.3494161,16.1111111 Z"/>
</svg>
