<svg width="37" height="37" viewBox="0 0 37 37" version="1.1" xmlns="http://www.w3.org/2000/svg" xmlns:xlink="http://www.w3.org/1999/xlink" xmlns:figma="http://www.figma.com/figma/ns">
<title>close</title>
<desc>Created using Figma</desc>
<g id="Canvas" transform="translate(203 -219)" figma:type="canvas">
<g id="close" figma:type="frame">
<mask id="mask0_outline" mask-type="alpha">
<g id="close" figma:type="vector">
<use xlink:href="#path0_fill" transform="translate(-202.847 219.152)" fill="#20282D"/>
</g>
</mask>
<g id="close" mask="url(#mask0_outline)" figma:type="vector">
<use xlink:href="#path0_fill" transform="translate(-202.847 219.152)" fill="#20282D"/>
</g>
</g>
</g>
<defs>
<path id="path0_fill" fill-rule="evenodd" d="M 30.2767 0.813889L 18.0003 13.0903L 5.72396 0.813889C 4.63507 -0.273611 2.87813 -0.268055 1.79063 0.818055L 0.818408 1.79167C -0.273259 2.88194 -0.270481 4.64028 0.812852 5.72361L 13.0892 18L 0.812852 30.2778C -0.274647 31.3653 -0.269092 33.1222 0.818408 34.2083L 1.79063 35.1805C 2.88091 36.2736 4.63924 36.2722 5.72396 35.1875L 18.0003 22.9111L 30.2767 35.1875C 31.3642 36.275 33.1226 36.2694 34.2087 35.1805L 35.1823 34.2083C 36.2726 33.1194 36.2712 31.3611 35.1865 30.2778L 22.9101 18L 35.1865 5.72361C 36.274 4.63611 36.2684 2.87917 35.1823 1.79167L 34.2087 0.818055C 33.6628 0.272222 32.9503 0 32.2378 0C 31.5281 0 30.8184 0.272222 30.2767 0.813889Z"/>
</defs>
</svg>
