<svg xmlns="http://www.w3.org/2000/svg" xmlns:xlink="http://www.w3.org/1999/xlink" width="40" height="40" viewBox="0 0 40 40">
  <defs>
    <path id="a" d="M32.4294828,2.96628876 L20.1530959,15.2426757 L7.87670892,2.96628876 C6.78782021,1.87878893 5.03087604,1.88434449 3.94337621,2.97045543 L2.97115414,3.94406639 C1.87948764,5.03434399 1.88226542,6.79267705 2.96559858,7.87601021 L15.2419855,20.1523972 L2.96559858,32.430173 C1.87809876,33.5176729 1.88365431,35.274617 2.97115414,36.360728 L3.94337621,37.33295 C5.03365382,38.4260054 6.79198687,38.4246165 7.87670892,37.3398945 L20.1530959,25.0635075 L32.4294828,37.3398945 C33.5169827,38.4273943 35.2753157,38.4218387 36.3614267,37.33295 L37.3350376,36.360728 C38.4253152,35.2718392 38.4239263,33.5135062 37.3392043,32.430173 L25.0628173,20.1523972 L37.3392043,7.87601021 C38.4267041,6.78851038 38.4211486,5.03156621 37.3350376,3.94406639 L36.3614267,2.97045543 C35.8155934,2.42462218 35.1030935,2.1524 34.3905936,2.1524 C33.6808715,2.1524 32.9711494,2.42462218 32.4294828,2.96628876 Z"/>
  </defs>
  <g fill="none" fill-rule="evenodd">
    <rect width="1440" height="4000" x="-50" y="-330" fill="#FFFFFF"/>
    <use fill="#20282D" xlink:href="#a"/>
  </g>
</svg>
