<svg xmlns="http://www.w3.org/2000/svg" xmlns:xlink="http://www.w3.org/1999/xlink" width="36" height="36" viewBox="0 0 36 36">
  <defs>
    <path id="a" d="M29.5946958,1.76867272 L18.0003303,13.3630382 L6.40596482,1.76867272 C5.37756992,0.741589547 3.71823377,0.74683646 2.69115059,1.7726079 L1.77294086,2.69212936 C0.741922505,3.72183599 0.744545961,5.38248388 1.76769395,6.40563187 L13.3620594,17.9999973 L1.76769395,29.5956745 C0.740610776,30.6227577 0.745857689,32.2820939 1.77294086,33.3078653 L2.69115059,34.226075 C3.72085722,35.2584051 5.38150511,35.2570934 6.40596482,34.2326337 L18.0003303,22.6382682 L29.5946958,34.2326337 C30.6217789,35.2597168 32.2824268,35.2544699 33.3081983,34.226075 L34.2277197,33.3078653 C35.2574263,32.2794704 35.2561146,30.6188225 34.2316549,29.5956745 L22.6372894,17.9999973 L34.2316549,6.40563187 C35.2587381,5.3785487 35.2534912,3.71921254 34.2277197,2.69212936 L33.3081983,1.7726079 C32.7926891,1.25709873 32.1197725,1 31.446856,1 C30.7765628,1 30.1062697,1.25709873 29.5946958,1.76867272 Z"/>
  </defs>
  <g fill="none" fill-rule="evenodd">
    <use fill="#20282D" xlink:href="#a"/>
  </g>
</svg>
