<svg xmlns="http://www.w3.org/2000/svg" width="40" height="40" viewBox="0 0 40 40">
  <g fill="none" fill-rule="evenodd">
    <rect width="1440" height="4000" x="-200" y="-480" fill="#FFFFFF"/>
    <path fill="#20282D" d="M36.5818,28.5290139 C36.1619,27.9158333 33.6,24.1805556 33.6,24.1805556 L33.6,9.30555556 C33.6,7.48419444 32.07,6 30.2,6 L9.8,6 C7.9283,6 6.4,7.48419444 6.4,9.30555556 L6.4,24.1805556 C6.4,24.1805556 3.8381,27.9158333 3.4182,28.5290139 C3,29.1388889 3,29.4909306 3,29.9652778 L3,30.7916667 C3,31.6180556 3.85,32.4444444 4.6983,32.4444444 L35.3017,32.4444444 C36.15,32.4444444 37,31.6180556 37,30.7916667 L37,29.9652778 C37,29.4909306 37,29.1388889 36.5818,28.5290139 L36.5818,28.5290139 Z M14.9,29.1388889 L15.92,27.4861111 L24.08,27.4861111 L25.1,29.1388889 L14.9,29.1388889 L14.9,29.1388889 Z M30.2,22.5277778 L9.8,22.5277778 L9.8,9.30555556 L30.2,9.30555556 L30.2,22.5277778 L30.2,22.5277778 Z"/>
  </g>
</svg>
