<svg xmlns="http://www.w3.org/2000/svg" width="36" height="36" viewBox="0 0 36 36">
  <path fill="#000000" d="M34,18 L31.7898915,14.3037841 L31.8590456,9.99788304 L28.0936756,7.90773573 L26.002117,4.14236571 L21.6962159,4.21010849 L18,2 L14.3037841,4.21010849 L9.99929435,4.14236571 L7.90773573,7.90773573 L4.14236571,9.99788304 L4.21010849,14.3037841 L2,18 L4.21010849,21.6962159 L4.1409544,26.002117 L7.90632442,28.0922643 L9.99647173,31.8576343 L14.3023728,31.7898915 L18,34 L21.6962159,31.7898915 L26.002117,31.8590456 L28.0922643,28.0936756 L31.8576343,26.0035283 L31.7898915,21.6976272 L34,18 Z M14.8386698,25.7819529 L8.51742083,19.4621152 L11.0126136,16.9669225 L14.8386698,20.7915674 L24.1660051,11.4642322 L26.6611978,13.9594249 L14.8386698,25.7819529 Z"/>
</svg>
