<svg xmlns="http://www.w3.org/2000/svg" width="36" height="36" viewBox="0 0 36 36">
  <path fill="#000000" d="M14.7864335,30.9331227 L14.7864335,34 L9.07154213,28.3212217 L14.7864335,22.6424434 L14.7864335,25.8778304 L25.809221,25.8778304 L25.809221,15.3291206 L22.5702173,15.3291206 L28.2851086,9.65034229 L34,15.3291206 L30.8966614,15.3291206 L30.8966614,25.8778304 L30.8966614,29.8715113 C30.8966614,30.4612954 30.4218336,30.9331227 29.8282989,30.9331227 L25.809221,30.9331227 L14.7864335,30.9331227 Z M30.8288288,2.77514481 L30.8288288,6.28014745 C30.8288288,6.7014218 30.472708,7.05529226 30.0487546,7.05529226 L7.08744038,7.05529226 L7.08744038,29.8546603 C7.08744038,30.2759347 6.73131955,30.6298052 6.30736619,30.6298052 L2.78007419,30.6298052 C2.35612083,30.6298052 2,30.2759347 2,29.8546603 L2,7.03844128 L2,2.69088994 C2,2.30331754 2.32220456,2 2.71224165,2 L7.08744038,2 L30.0487546,2 C30.472708,2 30.8288288,2.35387046 30.8288288,2.77514481 Z"/>
</svg>
