<svg xmlns="http://www.w3.org/2000/svg" width="36" height="36" viewBox="0 0 36 36">
  <path fill="#20282D" fill-rule="evenodd" d="M12.4851604,32.6281704 L21.9892781,32.6281704 C22.6479294,32.6281704 23.1818719,33.1545563 23.1818719,33.8140852 C23.1818719,34.4690479 22.6554314,35 21.9892781,35 L2.19259377,35 C1.53394242,35 1,34.4736141 1,33.8140852 C1,33.1591226 1.52644049,32.6281704 2.19259377,32.6281704 L4.16302096,32.6281704 L5.43222465,25.4301586 C5.51569539,24.9567726 5.83157696,24.5834075 6.24296431,24.4096957 C6.29498329,24.2884308 6.36555019,24.1724555 6.45504533,24.0657993 L23.4522816,3.80928198 C23.6408547,3.58454922 23.8852292,3.43478971 24.147542,3.36409516 L25.2517328,2.04817185 C26.3121455,0.784421128 28.1894881,0.613907333 29.4607666,1.68063661 L33.9075219,5.41190732 C35.1716943,6.47267393 35.3342475,8.36019782 34.2764614,9.62081827 L31.3734791,13.0804578 L31.0593676,12.8168869 L15.4797739,31.3839236 C15.1509173,31.7758397 14.6523544,31.9397427 14.1848997,31.8539314 C14.0430976,32.0050505 13.8641322,32.1262657 13.6547991,32.2024567 L12.4851604,32.6281704 Z M28.9767379,11.0693531 L27.257733,9.62693678 C27.2231735,9.73327805 27.1678616,9.83504807 27.0911399,9.92648146 L13.509524,26.1124209 C13.190464,26.4926618 12.6236794,26.5423517 12.2376049,26.2183967 C11.8542034,25.8966846 11.7991838,25.3310482 12.1211042,24.9473984 L25.7027201,8.76145893 C25.7792126,8.67029868 25.8699436,8.59813748 25.9690093,8.54556915 L24.2425963,7.09693668 L8.537675,25.8133331 C8.40267372,25.9742214 8.23907279,26.0966839 8.06076501,26.1792193 L7.56202729,29.0077015 C8.06272176,28.9263484 8.59580263,29.0561528 9.01947215,29.4116537 C9.43585557,29.7610409 9.65566276,30.2577577 9.66738741,30.7605971 L12.7249558,29.6477333 C12.9622301,29.5613725 13.2076677,29.544349 13.4388404,29.5866983 L28.9767379,11.0693531 Z"/>
</svg>
