<svg xmlns="http://www.w3.org/2000/svg" width="40" height="40" viewBox="0 0 40 40">
  <g fill="none" fill-rule="evenodd">
    <rect width="1440" height="4000" x="-200" y="-380" fill="#FFFFFF"/>
    <path fill="#20282D" d="M14.1607581,35.488651 L24.2239415,35.488651 C24.9213371,35.488651 25.4866879,36.0460008 25.4866879,36.7443255 C25.4866879,37.4378154 24.9292803,38 24.2239415,38 L3.26274635,38 C2.5653508,38 2,37.4426503 2,36.7443255 C2,36.0508356 2.55740758,35.488651 3.26274635,35.488651 L5.34908102,35.488651 L6.69294375,27.8672268 C6.78132453,27.3659945 7.11578737,26.9706668 7.55137398,26.7867366 C7.6064529,26.6583385 7.68117079,26.5355411 7.77593035,26.422611 L25.773004,4.97453386 C25.9726697,4.73658153 26.2314192,4.57801263 26.5091621,4.50315958 L27.7952069,2.97051113 C28.8534339,1.70936527 30.7339124,1.54508131 32.0000995,2.60753838 L36.9780883,6.78456695 C38.2421593,7.84524849 38.4121384,9.72375568 37.3508018,10.9886073 L34.1601544,14.7910729 L33.8275657,14.5119979 L17.3315253,34.1712132 C16.9833242,34.5861832 16.455434,34.7597276 15.9604821,34.6688685 C15.8103386,34.828877 15.6208459,34.9572225 15.399199,35.0378954 L14.1607581,35.488651 Z M31.6224284,12.661668 L29.8023056,11.1344036 C29.7657132,11.2470003 29.7071476,11.3547568 29.6259128,11.4515686 L15.2453784,28.5896222 C14.9075501,28.9922302 14.3074253,29.044843 13.8986405,28.7018318 C13.4926859,28.3611955 13.43443,27.7622863 13.7752868,27.3560689 L28.1558213,10.2180153 C28.2368134,10.1214927 28.3328814,10.0450867 28.4377745,9.98942616 L26.6098079,8.45558001 L9.98106765,28.2729409 C9.83812511,28.4432932 9.6649006,28.5729594 9.47610413,28.6603499 L8.9480289,31.6552133 C9.47817598,31.5690748 10.0426146,31.7065147 10.4912058,32.0829275 C10.9320824,32.4528668 11.1648194,32.9788023 11.1772337,33.5112205 L14.4146591,32.332894 C14.6658907,32.2414532 14.9257658,32.2234284 15.1705369,32.2682687 L31.6224284,12.661668 Z"/>
  </g>
</svg>
