<svg width="37" height="37" viewBox="0 0 37 37" version="1.1" xmlns="http://www.w3.org/2000/svg" xmlns:xlink="http://www.w3.org/1999/xlink" xmlns:figma="http://www.figma.com/figma/ns">
<title>edit</title>
<desc>Created using Figma</desc>
<g id="Canvas" transform="translate(53 -268)" figma:type="canvas">
<g id="edit" figma:type="vector-operation">
<use xlink:href="#path0_fill" transform="translate(-53 268.907)" fill="#20282D"/>
</g>
</g>
<defs>
<path id="path0_fill" fill-rule="evenodd" d="M 25.7923 1.06647C 26.8521 -0.19656 28.7352 -0.361294 29.9982 0.69852L 34.98 4.87867C 36.243 5.93848 36.4077 7.82154 35.3479 9.08457L 32.1602 12.8836L 31.8276 12.6045L 15.3255 32.271C 14.9801 32.6825 14.4535 32.8522 13.9604 32.7612C 13.8107 32.9211 13.6222 33.0493 13.4022 33.1293L 12.1607 33.5812L 22.231 33.5812C 22.9245 33.5812 23.4867 34.1434 23.4867 34.8369C 23.4867 35.5303 22.9245 36.0925 22.231 36.0925L 1.25568 36.0925C 0.562183 36.0925 0 35.5303 0 34.8369C 0 34.1434 0.562183 33.5812 1.25568 33.5812L 3.34908 33.5812L 4.6935 25.9566C 4.78134 25.4584 5.11557 25.0656 5.54876 24.8814C 5.60305 24.7546 5.67663 24.6335 5.76986 24.5224L 23.7791 3.05985C 23.9768 2.82416 24.234 2.66782 24.5103 2.5943L 25.7923 1.06647ZM 27.8001 9.22513L 29.6224 10.7542L 13.1703 30.361C 12.9264 30.3159 12.6676 30.3333 12.4177 30.4243L 9.1763 31.6041C 9.16457 31.0709 8.93188 30.5452 8.49121 30.1754C 8.04552 29.8015 7.47974 29.6647 6.94733 29.7517L 7.47579 26.7546C 7.66268 26.6685 7.83396 26.5408 7.975 26.3727L 24.6098 6.54813L 26.4397 8.08356C 26.3322 8.13996 26.2336 8.21784 26.1507 8.31659L 11.7804 25.4425C 11.4397 25.8485 11.4927 26.4537 11.8986 26.7943C 12.3046 27.135 12.9098 27.082 13.2505 26.6761L 27.6208 9.55014C 27.7037 9.45139 27.7633 9.34082 27.8001 9.22513Z"/>
</defs>
</svg>
