<svg xmlns="http://www.w3.org/2000/svg" width="36" height="36" viewBox="0 0 36 36">
  <path fill="#000000" fill-rule="evenodd" d="M4.15186741,28.1581397 L11.9231321,21.5688713 C11.9238349,21.5682755 11.9245367,21.5676784 11.9252376,21.5670803 C12.288567,21.2570112 12.331743,20.7111138 12.0216739,20.3477844 L11.4634066,19.6936242 C11.154038,19.3311156 10.6097117,19.2871885 10.2462162,19.5953969 L2.28951235,26.3418994 C2.10332183,25.917145 2,25.4478054 2,24.9543336 L2,9.45945946 C2,9.19506855 2.02965928,8.93760493 2.08583217,8.69021428 C10.1955356,16.0553462 15.0763074,19.7469442 16.7281474,19.7650081 C18.4219175,19.7835306 23.2217481,15.8948633 31.1276392,8.09900617 C31.306424,8.51658696 31.4054054,8.97646404 31.4054054,9.45945946 L31.4054054,17.6565425 C30.6188525,17.3751422 29.7407738,17.2068966 28.8108108,17.2068966 C25.3621622,17.2068966 22.627027,19.4379825 22.627027,21.3385372 C22.627027,21.3385372 22.9837838,24.4785841 22.627027,25.4701778 C22.309564,26.4996189 21.8979353,27.2673295 20.0514344,28.4137931 L5.45945946,28.4137931 C4.99675889,28.4137931 4.55527467,28.3229551 4.15186741,28.1581397 Z M3.57053843,6.56073504 C4.11361549,6.20612212 4.76246627,6 5.45945946,6 L27.9459459,6 C28.426938,6 28.8850031,6.09816199 29.301201,6.27554568 C22.5993341,12.9887498 18.3913531,16.3545422 16.677258,16.3729229 C14.9893126,16.3910232 10.6204061,13.1202939 3.57053843,6.56073504 Z M29.7714365,29.8191228 C29.6797153,30.4833495 29.0883249,31 28.3783784,31 C27.6684318,31 27.0770415,30.4833495 26.9853203,29.8191228 L22.8972973,29.8191228 L22.7567568,28.5261623 C24.2324324,27.3693029 24.5135135,26.6887974 24.7243243,25.7360897 C24.9351351,24.919483 24.7243243,22.3335621 24.7243243,22.3335621 C24.7243243,20.7683994 26.3405405,18.9310345 28.3783784,18.9310345 C30.4162162,18.9310345 32.0324324,20.8364499 32.0324324,22.3335621 C32.0324324,22.3335621 31.8216216,24.919483 32.0324324,25.7360897 C32.2432432,26.6207468 32.5243243,27.3693029 34,28.5261623 L33.8594595,29.8191228 L29.7714365,29.8191228 Z"/>
</svg>
