<svg xmlns="http://www.w3.org/2000/svg" width="40" height="40" viewBox="0 0 40 40">
  <g fill="none" fill-rule="evenodd">
    <path fill="#1F272D" d="M29.7190669,7.19736631 L25.4270853,2.90538474 L37.9479663,2.50148535 L37.5440669,15.0223663 L33.9617076,11.440007 L21.677021,23.7246935 C20.8985657,24.5031488 19.6323369,24.4990453 18.8547652,23.7214736 L17.4376003,22.3043087 C16.6573667,21.5240751 16.6617006,20.2547326 17.4343803,19.4820529 L29.7190669,7.19736631 Z M19.8666667,2 L19.8666667,7.8952381 L8.89593273,7.8952381 C8.34270731,7.8952381 7.8952381,8.34326434 7.8952381,8.89593273 L7.8952381,30.8945435 C7.8952381,31.4477689 8.34326434,31.8952381 8.89593273,31.8952381 L30.8945435,31.8952381 C31.4477689,31.8952381 31.8952381,31.4472118 31.8952381,30.8945435 L31.8952381,20.2 L38,20.2 L38,36.0002927 C38,37.1047006 37.1101074,38 36.0002927,38 L3.99970728,38 C2.89529944,38 2,37.1101074 2,36.0002927 L2,3.99970728 C2,2.89529944 2.88989258,2 3.99970728,2 L19.8666667,2 Z"/>
  </g>
</svg>
