<svg width="36" height="36" viewBox="0 0 36 36" version="1.1" xmlns="http://www.w3.org/2000/svg" xmlns:xlink="http://www.w3.org/1999/xlink" xmlns:figma="http://www.figma.com/figma/ns">
<title>export</title>
<desc>Created using Figma</desc>
<g id="Canvas" transform="translate(203 -369)" figma:type="canvas">
<g id="export" figma:type="vector-operation">
<use xlink:href="#path0_fill" transform="translate(-203 369)" fill="#20282D"/>
</g>
</g>
<defs>
<path id="path0_fill" fill-rule="evenodd" d="M 17.8667 0L 2 0C 0.895432 0 0 0.895416 0 2L 0 34C 0 35.1046 0.895432 36 2 36L 34 36C 35.1046 36 36 35.1046 36 34L 36 18.2L 29.8952 18.2L 29.8952 28.8952C 29.8952 29.4475 29.4475 29.8952 28.8952 29.8952L 6.89523 29.8952C 6.34294 29.8952 5.89523 29.4475 5.89523 28.8952L 5.89523 6.89523C 5.89523 6.34296 6.34294 5.89523 6.89523 5.89523L 17.8667 5.89523L 17.8667 0ZM 19.6817 21.72C 18.9007 22.501 17.6343 22.501 16.8533 21.72L 15.4391 20.3058C 14.658 19.5247 14.658 18.2584 15.4391 17.4774L 27.7191 5.19736L 23.4271 0.905396L 35.948 0.501495L 35.5441 13.0224L 31.9617 9.44L 19.6817 21.72Z"/>
</defs>
</svg>
