<svg xmlns="http://www.w3.org/2000/svg" width="40" height="40" viewBox="0 0 40 40">
  <g fill="none" fill-rule="evenodd">
    <rect width="1440" height="4000" x="-250" y="-330" fill="#FFFFFF"/>
    <path fill="#20282D" d="M20,16.1535714 C17.999975,16.1535714 16.00004,17.875 16.00004,20 C16.00004,22.1214286 17.79104,23.8464286 20,23.8464286 C22.2086,23.8464286 24.00032,21.9232143 24.00032,20 C24.00032,18.0767857 22.000025,16.1535714 20,16.1535714 Z M20,27.6892857 C15.58172,27.6892857 12.00008,24.2464286 12.00008,20 C12.00008,15.75 15.58172,12.3071429 20,12.3071429 C24.41864,12.3071429 28.00028,15.75 28.00028,20 C28.00028,24.2464286 24.41864,27.6892857 20,27.6892857 L20,27.6892857 Z M2,20 C2,21.3678571 8.19128,30 20,30 C31.80836,30 38,21.3678571 38,20 C38,18.6285714 31.80836,10 20,10 C8.19128,10 2,18.6285714 2,20 Z"/>
  </g>
</svg>
