<svg width="36" height="20" viewBox="0 0 36 20" version="1.1" xmlns="http://www.w3.org/2000/svg" xmlns:xlink="http://www.w3.org/1999/xlink" xmlns:figma="http://www.figma.com/figma/ns">
<title>eye</title>
<desc>Created using Figma</desc>
<g id="Canvas" transform="translate(3 -227)" figma:type="canvas">
<g id="eye" figma:type="vector-operation">
<use xlink:href="#path0_fill" transform="translate(-3 227)" fill="#20282D"/>
</g>
</g>
<defs>
<path id="path0_fill" fill-rule="evenodd" d="M 18 6.15356C 16 6.15356 14 7.87499 14 9.99999C 14 12.1214 15.791 13.8464 18 13.8464C 20.2086 13.8464 22.0003 11.9232 22.0003 9.99999C 22.0003 8.07678 20 6.15356 18 6.15356ZM 18 17.6893C 13.5817 17.6893 10.0001 14.2464 10.0001 10C 10.0001 5.75 13.5817 2.30714 18 2.30714C 22.4186 2.30714 26.0003 5.75 26.0003 10C 26.0003 14.2464 22.4186 17.6893 18 17.6893ZM 0 10C 0 11.3679 6.19128 20 18 20C 29.8084 20 36 11.3679 36 10C 36 8.62857 29.8084 0 18 0C 6.19128 0 0 8.62857 0 10Z"/>
</defs>
</svg>
