<svg xmlns="http://www.w3.org/2000/svg" width="36" height="36" viewBox="0 0 36 36">
  <path fill="#20282D" fill-rule="evenodd" d="M1,4.00235843 C1,2.34420165 2.34331243,1 4.00235843,1 L31.9976416,1 C33.6557983,1 35,2.34331243 35,4.00235843 L35,31.9976416 C35,33.6557983 33.6566876,35 31.9976416,35 L4.00235843,35 C2.34420165,35 1,33.6566876 1,31.9976416 L1,4.00235843 Z M15.6002895,27.2478147 L19.421526,27.2478147 L19.421526,17.9989171 L21.9709421,17.9989171 L22.3087947,14.8116958 L19.421526,14.8116958 L19.4258574,13.2164609 C19.4258574,12.3851845 19.5047258,11.9397676 20.6969559,11.9397676 L22.2907471,11.9397676 L22.2907471,8.75218533 L19.74097,8.75218533 C16.6782777,8.75218533 15.6002895,10.2983306 15.6002895,12.8984607 L15.6002895,14.8120568 L13.6912053,14.8120568 L13.6912053,17.9992781 L15.6002895,17.9992781 L15.6002895,27.2478147 Z"/>
</svg>
