<svg xmlns="http://www.w3.org/2000/svg" width="40" height="40" viewBox="0 0 40 40">
  <g fill="none" fill-rule="evenodd">
    <rect width="1440" height="4000" x="-100" y="-380" fill="#FFFFFF"/>
    <path fill="#20282D" d="M2,5.00741988 C2,3.34646775 3.34553934,2 5.00741988,2 L34.9925801,2 C36.6535323,2 38,3.34553934 38,5.00741988 L38,34.9925801 C38,36.6535323 36.6544607,38 34.9925801,38 L5.00741988,38 C3.34646775,38 2,36.6544607 2,34.9925801 L2,5.00741988 Z M17.45913,29.7918038 L21.5051451,29.7918038 L21.5051451,19.9988534 L24.2045269,19.9988534 L24.5622533,16.6241485 L21.5051451,16.6241485 L21.5097314,14.9350762 C21.5097314,14.0549012 21.5932391,13.5832833 22.8556004,13.5832833 L24.5431439,13.5832833 L24.5431439,10.2081962 L21.84338,10.2081962 C18.6005294,10.2081962 17.45913,11.8452912 17.45913,14.5983701 L17.45913,16.6245307 L15.4377467,16.6245307 L15.4377467,19.9992356 L17.45913,19.9992356 L17.45913,29.7918038 Z"/>
  </g>
</svg>
