<svg width="36" height="36" viewBox="0 0 36 36" version="1.1" xmlns="http://www.w3.org/2000/svg" xmlns:xlink="http://www.w3.org/1999/xlink" xmlns:figma="http://www.figma.com/figma/ns">
<title>facebook</title>
<desc>Created using Figma</desc>
<g id="Canvas" transform="translate(153 -269)" figma:type="canvas">
<g id="facebook" figma:type="vector-operation">
<use xlink:href="#path0_fill" transform="translate(-153 269)" fill="#20282D"/>
</g>
</g>
<defs>
<path id="path0_fill" fill-rule="evenodd" d="M 3 0C 1.34314 0 0 1.34314 0 3L 0 33C 0 34.6569 1.34314 36 3 36L 33 36C 34.6569 36 36 34.6569 36 33L 36 3C 36 1.34314 34.6569 0 33 0L 3 0ZM 15.4591 17.9992L 15.4591 27.7918L 19.5051 27.7918L 19.5051 17.9988L 22.2045 17.9988L 22.5623 14.6241L 19.5051 14.6241L 19.5097 12.9351C 19.5097 12.0549 19.5932 11.5833 20.8556 11.5833L 22.5431 11.5833L 22.5431 8.20819L 19.8434 8.20819C 16.6005 8.20819 15.4591 9.84528 15.4591 12.5984L 15.4591 14.6245L 13.4377 14.6245L 13.4377 17.9992L 15.4591 17.9992Z"/>
</defs>
</svg>
