<svg xmlns="http://www.w3.org/2000/svg" width="40" height="40" viewBox="0 0 40 40">
  <g fill="none" fill-rule="evenodd">
    <rect width="1440" height="4000" x="-150" y="-380" fill="#FFFFFF"/>
    <path fill="#20282D" d="M2,5.00741988 C2,3.34646775 3.34553934,2 5.00741988,2 L34.9925801,2 C36.6535323,2 38,3.34553934 38,5.00741988 L38,34.9925801 C38,36.6535323 36.6544607,38 34.9925801,38 L5.00741988,38 C3.34646775,38 2,36.6544607 2,34.9925801 L2,5.00741988 Z M36.3025709,13.3016164 C36.1232953,12.666032 35.9080708,12.0455089 35.659262,11.4424794 L32.2905359,11.4424794 L32.2905359,7.01484637 L30.3994331,7.01484637 L30.3994331,11.4424794 L25.9868834,11.4424794 L25.9868834,13.3016164 L30.3994331,13.3016164 L30.3994331,17.7684956 L32.2905359,17.7684956 L32.2905359,13.3016164 L36.3025709,13.3016164 Z M3.05882353,17.9411765 C3.05882353,22.1370907 4.57369102,25.97796 7.08454715,28.9431037 C7.55825241,28.1437338 8.29276848,27.3578297 9.38090976,26.7119993 C11.8361309,25.2024206 15.1428739,25.0030423 16.9310697,24.8891118 C16.3775805,24.1770465 15.7389392,23.4222571 15.7389392,22.1832634 C15.7389392,21.5139219 15.9376276,21.1151653 16.136316,20.6452021 C15.6963631,20.687926 15.2706022,20.73065 14.8732254,20.73065 C10.6865765,20.73065 8.31650751,17.5975622 8.31650751,14.5071984 C8.31650751,12.684311 9.15383728,10.659197 10.8426888,9.19376647 C13.0992216,7.33242754 15.7815153,7.01484637 17.9103198,7.01484637 L26.0423529,7.01484637 L23.5161716,8.44040129 L21.0751425,8.44040129 C21.9834324,9.19376647 23.8709724,10.778824 23.8709724,13.795133 C23.8709724,16.7288425 22.2105049,18.1102493 20.5642294,19.4204496 C20.0391243,19.9331367 19.457251,20.4885477 19.457251,21.3572675 C19.457251,22.2259873 20.0391243,22.7101917 20.4790772,23.0662244 L21.8982802,24.1770465 C23.6438999,25.6296599 25.2192152,26.9825841 25.2192152,29.7169152 C25.2192152,31.5201053 24.3806329,33.3299474 22.7467175,34.7188764 C21.8675901,34.8627009 20.965734,34.9386264 20.0466695,34.9411133 C21.7057844,34.2108045 22.5653056,32.8745865 22.5653056,31.2692178 C22.5653056,29.2469521 21.2738309,28.178854 18.2651205,26.0284165 C17.9528959,25.9999339 17.7542074,25.9999339 17.3568306,25.9999339 C17.0020299,25.9999339 14.8732254,26.0711404 13.2127579,26.6265514 C12.347044,26.9398602 9.82086269,27.8940278 9.82086269,30.7138068 C9.82086269,31.0202478 9.85337197,31.3173439 9.91680002,31.6034806 C5.755648,28.5059556 3.05882353,23.5395983 3.05882353,17.9411765 Z M19.4146749,18.5090059 C20.3229649,17.5975622 20.393925,16.3300858 20.393925,15.6180204 C20.393925,12.7555176 18.7050734,8.32219843 15.4267145,8.32219843 C14.4048884,8.32219843 13.29791,8.83773378 12.6592687,9.63097462 C11.9922433,10.462667 11.7935549,11.5307651 11.7935549,12.5561393 C11.7935549,15.2192638 13.3262941,19.6198279 16.7323813,19.6198279 C17.7116314,19.6198279 18.7760336,19.1356235 19.4146749,18.5090059 Z"/>
  </g>
</svg>
