<svg width="36" height="36" viewBox="0 0 36 36" version="1.1" xmlns="http://www.w3.org/2000/svg" xmlns:xlink="http://www.w3.org/1999/xlink" xmlns:figma="http://www.figma.com/figma/ns">
<title>googleplus</title>
<desc>Created using Figma</desc>
<g id="Canvas" transform="translate(103 -269)" figma:type="canvas">
<g id="googleplus" figma:type="vector-operation">
<use xlink:href="#path0_fill" transform="translate(-103 269)" fill="#20282D"/>
</g>
</g>
<defs>
<path id="path0_fill" fill-rule="evenodd" d="M 0 3C 0 1.34315 1.34315 0 3 0L 33 0C 34.6569 0 36 1.34315 36 3L 36 33C 36 34.6569 34.6569 36 33 36L 3 36C 1.34315 36 0 34.6569 0 33L 0 3ZM 34.3026 11.3016L 30.2905 11.3016L 30.2905 15.7685L 28.3994 15.7685L 28.3994 11.3016L 23.9869 11.3016L 23.9869 9.44246L 28.3994 9.44246L 28.3994 5.01483L 30.2905 5.01483L 30.2905 9.44246L 33.6593 9.44246C 33.9081 10.0455 34.1233 10.666 34.3026 11.3016ZM 1.05882 15.9412C 1.05882 20.1371 2.57369 23.9779 5.08455 26.9431C 5.55825 26.1437 6.29277 25.3578 7.38091 24.712C 9.83613 23.2024 13.1429 23.003 14.9311 22.8891C 14.3776 22.177 13.7389 21.4222 13.7389 20.1832C 13.7389 19.5139 13.9376 19.1152 14.1363 18.6452C 13.6964 18.6879 13.2706 18.7306 12.8732 18.7306C 8.68657 18.7306 6.31651 15.5975 6.31651 12.5072C 6.31651 10.6843 7.15384 8.65918 8.84269 7.19375C 11.0992 5.33241 13.7815 5.01483 15.9103 5.01483L 24.0424 5.01483L 21.5162 6.44039L 19.0751 6.44039C 19.9834 7.19375 21.871 8.77881 21.871 11.7951C 21.871 14.7288 20.2105 16.1102 18.5642 17.4204C 18.0391 17.9331 17.4573 18.4885 17.4573 19.3573C 17.4573 20.226 18.0391 20.7102 18.4791 21.0662L 19.8983 22.177C 21.6439 23.6296 23.2192 24.9826 23.2192 27.7169C 23.2192 29.5201 22.3806 31.3299 20.7467 32.7189C 19.8676 32.8627 18.9657 32.9386 18.0467 32.9411C 19.7058 32.2108 20.5653 30.8746 20.5653 29.2692C 20.5653 27.2469 19.2738 26.1788 16.2651 24.0284C 15.9529 23.9999 15.7542 23.9999 15.3568 23.9999C 15.002 23.9999 12.8732 24.0711 11.2128 24.6265C 10.347 24.9398 7.82086 25.894 7.82086 28.7138C 7.82086 29.0202 7.85337 29.3173 7.9168 29.6035C 3.75565 26.5059 1.05882 21.5396 1.05882 15.9412ZM 17.4147 16.509C 18.323 15.5976 18.3939 14.3301 18.3939 13.618C 18.3939 10.7555 16.7051 6.3222 13.4267 6.3222C 12.4049 6.3222 11.2979 6.83774 10.6593 7.63098C 9.99224 8.46267 9.79356 9.53077 9.79356 10.5561C 9.79356 13.2193 11.3263 17.6198 14.7324 17.6198C 15.7116 17.6198 16.776 17.1356 17.4147 16.509Z"/>
</defs>
</svg>
