<svg xmlns="http://www.w3.org/2000/svg" width="36" height="36" viewBox="0 0 36 36">
  <path fill="#20282D" fill-rule="evenodd" d="M0,3.00741988 C0,1.34646775 1.34553934,0 3.00741988,0 L32.9925801,0 C34.6535323,0 36,1.34553934 36,3.00741988 L36,32.9925801 C36,34.6535323 34.6544607,36 32.9925801,36 L3.00741988,36 C1.34646775,36 0,34.6544607 0,32.9925801 L0,3.00741988 Z M34.3025709,11.3016164 C34.1232953,10.666032 33.9080708,10.0455089 33.659262,9.44247937 L30.2905359,9.44247937 L30.2905359,5.01484637 L28.3994331,5.01484637 L28.3994331,9.44247937 L23.9868834,9.44247937 L23.9868834,11.3016164 L28.3994331,11.3016164 L28.3994331,15.7684956 L30.2905359,15.7684956 L30.2905359,11.3016164 L34.3025709,11.3016164 Z M1.05882353,15.9411765 C1.05882353,20.1370907 2.57369102,23.97796 5.08454715,26.9431037 C5.55825241,26.1437338 6.29276848,25.3578297 7.38090976,24.7119993 C9.83613095,23.2024206 13.1428739,23.0030423 14.9310697,22.8891118 C14.3775805,22.1770465 13.7389392,21.4222571 13.7389392,20.1832634 C13.7389392,19.5139219 13.9376276,19.1151653 14.136316,18.6452021 C13.6963631,18.687926 13.2706022,18.73065 12.8732254,18.73065 C8.68657652,18.73065 6.31650751,15.5975622 6.31650751,12.5071984 C6.31650751,10.684311 7.15383728,8.65919705 8.84268885,7.19376647 C11.0992216,5.33242754 13.7815153,5.01484637 15.9103198,5.01484637 L24.0423529,5.01484637 L21.5161716,6.44040129 L19.0751425,6.44040129 C19.9834324,7.19376647 21.8709724,8.77882403 21.8709724,11.795133 C21.8709724,14.7288425 20.2105049,16.1102493 18.5642294,17.4204496 C18.0391243,17.9331367 17.457251,18.4885477 17.457251,19.3572675 C17.457251,20.2259873 18.0391243,20.7101917 18.4790772,21.0662244 L19.8982802,22.1770465 C21.6438999,23.6296599 23.2192152,24.9825841 23.2192152,27.7169152 C23.2192152,29.5201053 22.3806329,31.3299474 20.7467175,32.7188764 C19.8675901,32.8627009 18.965734,32.9386264 18.0466695,32.9411133 C19.7057844,32.2108045 20.5653056,30.8745865 20.5653056,29.2692178 C20.5653056,27.2469521 19.2738309,26.178854 16.2651205,24.0284165 C15.9528959,23.9999339 15.7542074,23.9999339 15.3568306,23.9999339 C15.0020299,23.9999339 12.8732254,24.0711404 11.2127579,24.6265514 C10.347044,24.9398602 7.82086269,25.8940278 7.82086269,28.7138068 C7.82086269,29.0202478 7.85337197,29.3173439 7.91680002,29.6034806 C3.755648,26.5059556 1.05882353,21.5395983 1.05882353,15.9411765 Z M17.4146749,16.5090059 C18.3229649,15.5975622 18.393925,14.3300858 18.393925,13.6180204 C18.393925,10.7555176 16.7050734,6.32219843 13.4267145,6.32219843 C12.4048884,6.32219843 11.29791,6.83773378 10.6592687,7.63097462 C9.99224328,8.462667 9.79355486,9.53076509 9.79355486,10.5561393 C9.79355486,13.2192638 11.3262941,17.6198279 14.7323813,17.6198279 C15.7116314,17.6198279 16.7760336,17.1356235 17.4146749,16.5090059 Z"/>
</svg>
