<svg xmlns="http://www.w3.org/2000/svg" width="40" height="40" viewBox="0 0 40 40">
  <g fill="none" fill-rule="evenodd">
    <path fill="#1F272D" d="M25.0701583,13.9689922 L25.0076217,33.379845 C25.0076217,35.0542719 26.3729914,36.0568459 29.1037717,36.3875969 L29.1037717,37.9689922 L12,38 L12,36.4496124 C13.3341217,36.4496124 14.365966,36.2067208 15.0955638,35.7209302 C15.8251616,35.2351397 16.1899551,34.5478081 16.1899551,33.6589147 L16.1899551,20.4186047 C16.1899551,18.7235057 14.80374,17.7209318 12.0312683,17.4108527 L12.0625366,15.4263566 L25.0701583,13.9689922 Z M20.661325,2 C21.9537554,2 23.0325017,2.43410419 23.8975962,3.30232558 C24.7626908,4.17054698 25.1952316,5.24547163 25.1952316,6.52713178 C25.1952316,7.76744806 24.7626908,8.82170109 23.8975962,9.68992248 C23.0325017,10.5581439 21.9850234,10.9922481 20.75513,10.9922481 C19.4210082,10.9922481 18.3162053,10.5891513 17.4406879,9.78294574 C16.5651705,8.97674016 16.1274184,7.95349457 16.1274184,6.71317829 C16.1274184,5.32815845 16.5495365,4.19638682 17.3937854,3.31782946 C18.2380343,2.43927209 19.3272033,2 20.661325,2 L20.661325,2 Z"/>
  </g>
</svg>
