<svg xmlns="http://www.w3.org/2000/svg" width="36" height="36" viewBox="0 0 36 36">
  <path fill="#20282D" fill-rule="evenodd" d="M22.3440384,12.3040482 L22.284976,30.6365202 C22.284976,32.2179235 23.5744918,33.1647989 26.1535622,33.4771748 L26.1535622,34.9707149 L10,35 L10,33.535745 C11.2600038,33.535745 12.2345234,33.3063474 12.923588,32.8475452 C13.6126526,32.388743 13.9571798,31.7395965 13.9571798,30.9000861 L13.9571798,18.3953488 C13.9571798,16.7944221 12.6479767,15.8475467 10.0295312,15.5546942 L10.0590624,13.6804479 L22.3440384,12.3040482 Z M18.1801403,1 C19.400769,1 20.4195849,1.40998729 21.2366187,2.22997416 C22.0536524,3.04996103 22.4621632,4.06516765 22.4621632,5.27562446 C22.4621632,6.44703428 22.0536524,7.44271769 21.2366187,8.26270457 C20.4195849,9.08269144 19.4302999,9.49267873 18.2687339,9.49267873 C17.00873,9.49267873 15.965305,9.11197624 15.1384275,8.35055986 C14.3115499,7.58914348 13.8981174,6.62274488 13.8981174,5.45133506 C13.8981174,4.14326076 14.2967845,3.07436533 15.0941307,2.24461671 C15.8914769,1.41486809 16.9201364,1 18.1801403,1 L18.1801403,1 Z"/>
</svg>
