<svg width="18" height="36" viewBox="0 0 18 36" version="1.1" xmlns="http://www.w3.org/2000/svg" xmlns:xlink="http://www.w3.org/1999/xlink" xmlns:figma="http://www.figma.com/figma/ns">
<title>info</title>
<desc>Created using Figma</desc>
<g id="Canvas" transform="translate(93 -119)" figma:type="canvas">
<g id="info" figma:type="vector-operation">
<use xlink:href="#path0_fill" transform="translate(-93 119)" fill="#20282D"/>
</g>
</g>
<defs>
<path id="path0_fill" fill-rule="evenodd" d="M 13.0702 11.969L 13.0076 31.3798C 13.0076 33.0543 14.373 34.0568 17.1038 34.3876L 17.1038 35.969L 0 36L 0 34.4496C 1.33412 34.4496 2.36597 34.2067 3.09556 33.7209C 3.82516 33.2351 4.18996 32.5478 4.18996 31.6589L 4.18996 18.4186C 4.18996 16.7235 2.80374 15.7209 0.0312683 15.4109L 0.0625366 13.4264L 13.0702 11.969ZM 8.66133 0C 9.95376 0 11.0325 0.434104 11.8976 1.30233C 12.7627 2.17055 13.1952 3.24547 13.1952 4.52713C 13.1952 5.76745 12.7627 6.8217 11.8976 7.68992C 11.0325 8.55814 9.98502 8.99225 8.75513 8.99225C 7.42101 8.99225 6.31621 8.58915 5.44069 7.78295C 4.56517 6.97674 4.12742 5.95349 4.12742 4.71318C 4.12742 3.32816 4.54954 2.19639 5.39379 1.31783C 6.23803 0.439272 7.3272 0 8.66133 0Z"/>
</defs>
</svg>
