<svg xmlns="http://www.w3.org/2000/svg" width="36" height="36" viewBox="0 0 36 36">
  <path fill="#20282D" fill-rule="evenodd" d="M1,8.60821918 C1,7.1677395 2.16568427,6 3.6054876,6 L3.82830235,6 C5.26727342,6 6.43378995,7.17067059 6.43378995,8.60821918 C6.43378995,10.0486989 5.26810568,11.2164384 3.82830235,11.2164384 L3.6054876,11.2164384 C2.16651653,11.2164384 1,10.0457678 1,8.60821918 Z M1,17.9543379 C1,16.5138582 2.16568427,15.3461187 3.6054876,15.3461187 L3.82830235,15.3461187 C5.26727342,15.3461187 6.43378995,16.5167893 6.43378995,17.9543379 C6.43378995,19.3948176 5.26810568,20.5625571 3.82830235,20.5625571 L3.6054876,20.5625571 C2.16651653,20.5625571 1,19.3918865 1,17.9543379 Z M1,27.3004566 C1,25.8599769 2.16568427,24.6922374 3.6054876,24.6922374 L3.82830235,24.6922374 C5.26727342,24.6922374 6.43378995,25.862908 6.43378995,27.3004566 C6.43378995,28.7409363 5.26810568,29.9086758 3.82830235,29.9086758 L3.6054876,29.9086758 C2.16651653,29.9086758 1,28.7380052 1,27.3004566 Z M8.91780822,8.71689498 C8.91780822,7.21639531 10.1408233,6 11.6352484,6 L32.2825599,6 C33.7833606,6 35,7.21944853 35,8.71689498 C35,10.2173946 33.7769849,11.43379 32.2825599,11.43379 L11.6352484,11.43379 C10.1344476,11.43379 8.91780822,10.2143414 8.91780822,8.71689498 Z M8.91780822,18.0630137 C8.91780822,16.562514 10.1408233,15.3461187 11.6352484,15.3461187 L32.2825599,15.3461187 C33.7833606,15.3461187 35,16.5655673 35,18.0630137 C35,19.5635134 33.7769849,20.7799087 32.2825599,20.7799087 L11.6352484,20.7799087 C10.1344476,20.7799087 8.91780822,19.5604601 8.91780822,18.0630137 Z M8.91780822,27.4091324 C8.91780822,25.9086328 10.1408233,24.6922374 11.6352484,24.6922374 L32.2825599,24.6922374 C33.7833606,24.6922374 35,25.911686 35,27.4091324 C35,28.9096321 33.7769849,30.1260274 32.2825599,30.1260274 L11.6352484,30.1260274 C10.1344476,30.1260274 8.91780822,28.9065789 8.91780822,27.4091324 Z"/>
</svg>
