<svg width="36" height="26" viewBox="0 0 36 26" version="1.1" xmlns="http://www.w3.org/2000/svg" xmlns:xlink="http://www.w3.org/1999/xlink" xmlns:figma="http://www.figma.com/figma/ns">
<title>lists</title>
<desc>Created using Figma</desc>
<g id="Canvas" transform="translate(154 -124)" figma:type="canvas">
<g id="lists" figma:type="vector-operation">
<use xlink:href="#path0_fill" transform="translate(-154 124)" fill="#20282D"/>
</g>
</g>
<defs>
<path id="path0_fill" fill-rule="evenodd" d="M 2.76164 0C 1.23643 0 0 1.23643 0 2.76164C 0 4.28685 1.23643 5.52328 2.76164 5.52328L 2.99178 5.52328C 4.517 5.52328 5.75342 4.28687 5.75342 2.76164C 5.75342 1.23643 4.517 0 2.99178 0L 2.76164 0ZM 2.76164 9.89589C 1.23643 9.89589 0 11.1323 0 12.6575C 0 14.1827 1.23643 15.4192 2.76164 15.4192L 2.99178 15.4192C 4.517 15.4192 5.75342 14.1828 5.75342 12.6575C 5.75342 11.1323 4.517 9.89589 2.99178 9.89589L 2.76164 9.89589ZM 0 22.5534C 0 21.0282 1.23643 19.7918 2.76164 19.7918L 2.99178 19.7918C 4.517 19.7918 5.75342 21.0282 5.75342 22.5534C 5.75342 24.0786 4.517 25.3151 2.99178 25.3151L 2.76164 25.3151C 1.23643 25.3151 0 24.0786 0 22.5534ZM 11.2603 0C 9.67151 0 8.38356 1.28795 8.38356 2.87671C 8.38356 4.46547 9.67151 5.75342 11.2603 5.75342L 33.1233 5.75342C 34.7121 5.75342 36 4.46547 36 2.87671C 36 1.28795 34.7121 0 33.1233 0L 11.2603 0ZM 8.38356 12.7726C 8.38356 11.1838 9.67151 9.89589 11.2603 9.89589L 33.1233 9.89589C 34.7121 9.89589 36 11.1838 36 12.7726C 36 14.3614 34.7121 15.6493 33.1233 15.6493L 11.2603 15.6493C 9.67151 15.6493 8.38356 14.3614 8.38356 12.7726ZM 11.2603 19.7918C 9.67151 19.7918 8.38356 21.0797 8.38356 22.6685C 8.38356 24.2572 9.67151 25.5452 11.2603 25.5452L 33.1233 25.5452C 34.7121 25.5452 36 24.2572 36 22.6685C 36 21.0797 34.7121 19.7918 33.1233 19.7918L 11.2603 19.7918Z"/>
</defs>
</svg>
