<svg xmlns="http://www.w3.org/2000/svg" width="40" height="40" viewBox="0 0 40 40">
  <g fill="none" fill-rule="evenodd">
    <path fill="#1F272D" d="M1,9.76164384 C1,8.23643006 2.23425393,7 3.75875158,7 L3.99467308,7 C5.5182895,7 6.75342466,8.23953356 6.75342466,9.76164384 C6.75342466,11.2868576 5.51917072,12.5232877 3.99467308,12.5232877 L3.75875158,12.5232877 C2.23513515,12.5232877 1,11.2837541 1,9.76164384 Z M1,19.6575342 C1,18.1323205 2.23425393,16.8958904 3.75875158,16.8958904 L3.99467308,16.8958904 C5.5182895,16.8958904 6.75342466,18.135424 6.75342466,19.6575342 C6.75342466,21.182748 5.51917072,22.4191781 3.99467308,22.4191781 L3.75875158,22.4191781 C2.23513515,22.4191781 1,21.1796445 1,19.6575342 Z M1,29.5534247 C1,28.0282109 2.23425393,26.7917808 3.75875158,26.7917808 L3.99467308,26.7917808 C5.5182895,26.7917808 6.75342466,28.0313144 6.75342466,29.5534247 C6.75342466,31.0786384 5.51917072,32.3150685 3.99467308,32.3150685 L3.75875158,32.3150685 C2.23513515,32.3150685 1,31.0755349 1,29.5534247 Z M9.38356164,9.87671233 C9.38356164,8.28794798 10.6785188,7 12.2608512,7 L34.1227104,7 C35.7117936,7 37,8.2911808 37,9.87671233 C37,11.4654767 35.7050428,12.7534247 34.1227104,12.7534247 L12.2608512,12.7534247 C10.6717681,12.7534247 9.38356164,11.4622439 9.38356164,9.87671233 Z M9.38356164,19.7726027 C9.38356164,18.1838384 10.6785188,16.8958904 12.2608512,16.8958904 L34.1227104,16.8958904 C35.7117936,16.8958904 37,18.1870712 37,19.7726027 C37,21.3613671 35.7050428,22.6493151 34.1227104,22.6493151 L12.2608512,22.6493151 C10.6717681,22.6493151 9.38356164,21.3581343 9.38356164,19.7726027 Z M9.38356164,29.6684932 C9.38356164,28.0797288 10.6785188,26.7917808 12.2608512,26.7917808 L34.1227104,26.7917808 C35.7117936,26.7917808 37,28.0829616 37,29.6684932 C37,31.2572575 35.7050428,32.5452055 34.1227104,32.5452055 L12.2608512,32.5452055 C10.6717681,32.5452055 9.38356164,31.2540247 9.38356164,29.6684932 Z"/>
  </g>
</svg>
