<?xml version="1.0" encoding="UTF-8"?>
<svg width="34px" height="34px" viewBox="0 0 34 34" version="1.1" xmlns="http://www.w3.org/2000/svg" xmlns:xlink="http://www.w3.org/1999/xlink">
    <title>model</title>
    <g id="model" stroke="none" stroke-width="1" fill="none" fill-rule="evenodd">
        <path d="M17.4272663,2.08879826 L17.5417378,2.14678185 L29.4573034,9.09890481 L29.4636246,9.1026199 C29.4977786,9.12133969 29.5305558,9.14317976 29.5621138,9.16673926 C29.5658696,9.17088393 29.5700861,9.174064 29.5742718,9.17726801 C29.6728593,9.25180135 29.7586019,9.34397808 29.826934,9.4499284 C29.8308122,9.45781037 29.8353832,9.46512994 29.8398599,9.47249424 C29.9206474,9.60299613 29.9746646,9.75395019 29.9930399,9.91959696 L30,10.0464969 L30,23.9507428 C30,24.2986198 29.8367487,24.623009 29.5649056,24.8282408 L29.457981,24.8994304 L17.5424153,31.8515534 L17.5065335,31.871635 L17.4840503,31.8830844 C17.4595997,31.8957612 17.4355701,31.9068681 17.411417,31.9170055 L17.3734778,31.9316167 C17.354221,31.9393493 17.3346171,31.9460842 17.3149655,31.9522099 C17.3022357,31.9556177 17.2899465,31.9591979 17.2775905,31.9625605 C17.252895,31.9698396 17.2277905,31.9756879 17.2026691,31.9805867 C17.1974478,31.9811293 17.1924647,31.9820715 17.1874733,31.9829786 C17.1601227,31.9883542 17.1326403,31.9921668 17.1052,31.9948809 C17.0460715,32.0006745 16.9861357,32.0017769 16.9259005,31.9976267 C16.915706,31.9964766 16.9057728,31.9956136 16.8958636,31.994612 C16.86803,31.9923966 16.8402123,31.9885514 16.8124055,31.9835492 C16.8075353,31.9819346 16.8025522,31.9809923 16.7975776,31.9800151 C16.7722095,31.9758248 16.747105,31.9699765 16.7220577,31.9631554 C16.7100535,31.959061 16.6977643,31.9554808 16.6855477,31.9516864 C16.6653829,31.9462212 16.645779,31.9394862 16.6262424,31.9321306 L16.5886669,31.916488 L16.5226985,31.8868148 L16.5159497,31.8829475 L16.5043913,31.8770108 L16.494,31.871 L16.4575847,31.8516903 L4.54201904,24.8995674 C4.24388203,24.7256197 4.04750441,24.4205559 4.00754565,24.0800458 L4,23.9508798 L4,10.0466339 C4,10.0064764 4.00204862,9.96703597 4.0060288,9.928381 C4.00852641,9.90670021 4.01073024,9.89002488 4.01330874,9.87340092 C4.02980788,9.76434359 4.06191446,9.66242974 4.10668313,9.56885881 C4.10953556,9.562988 4.11250206,9.55688338 4.115528,9.55080278 C4.12765771,9.52662862 4.14063706,9.50303277 4.1544199,9.48004276 C4.16181962,9.46706882 4.16971131,9.45440967 4.17788465,9.44189173 C4.19177288,9.42153249 4.20601886,9.40140646 4.22089136,9.38183674 C4.23132968,9.36699374 4.2427173,9.35270695 4.25451507,9.33866611 C4.26303755,9.3296869 4.27100728,9.32054711 4.27911893,9.31155091 C4.31037653,9.27566256 4.34527466,9.2417081 4.38295312,9.20979884 C4.39474965,9.20065869 4.40594928,9.19152061 4.41731767,9.18261067 L4.465,9.147 L4.523,9.109 L4.534,9.102 L4.54,9.098 L4.54209912,9.09748875 L16.4576648,2.14673513 C16.7558184,1.97281199 17.1154602,1.95350127 17.4272663,2.08879826 Z M16.9989596,4.35953772 L7.25182,10.0457423 L12.413,13.057 L12.413,15.587 L9.991,14.174 L6.16756782,11.9436431 L6.16756782,23.3179267 L15.9147074,29.0041312 L15.914,23.411 L18.084,21.991 L18.0841393,29.0050684 L27.8312788,23.3169894 L27.831,11.945 L22.528,15.038 L20.482,13.7 L26.7460991,10.0466795 L16.9989596,4.35953772 Z M14.3360149,12.2057021 C14.3360149,12.088344 14.4618329,12.0174401 14.5610355,12.0785642 L14.5610355,12.0785642 L22.0810766,16.7765563 C22.1742303,16.8352354 22.1742303,16.9721532 22.0810766,17.0308322 L22.0810766,17.0308322 L14.5610355,21.7288244 C14.4618329,21.7911709 14.3360149,21.7190445 14.3360149,21.6016864 L14.3360149,21.6016864 Z" id="Combined-Shape" fill="#000000" fill-rule="nonzero"></path>
    </g>
</svg>