<svg xmlns="http://www.w3.org/2000/svg" width="40" height="40" viewBox="0 0 40 40">
  <g fill="none" fill-rule="evenodd">
    <rect width="1440" height="4000" x="-50" y="-280" fill="#FFFFFF"/>
    <path fill="#20282D" d="M34.538,20 C34.538,17.7555714 35.9192857,15.9834286 38,14.7654286 C37.6258571,13.5127143 37.1287143,12.3127143 36.5175714,11.183 C34.1848571,11.7937143 32.2961429,10.8791429 30.7082857,9.29214286 C29.1212857,7.70514286 28.6348571,5.81557143 29.246,3.48285714 C28.1158571,2.87128571 26.9162857,2.37457143 25.6627143,2 C24.4447143,4.08114286 22.2448571,5.46242857 20,5.46242857 C17.756,5.46242857 15.5561429,4.08114286 14.3372857,2 C13.0841429,2.37414286 11.8845714,2.87128571 10.7548571,3.482 C11.3651429,5.81514286 10.8795714,7.70428571 9.29257143,9.29214286 C7.70471429,10.8795714 5.81557143,11.7937143 3.48242857,11.1838571 C2.87128571,12.3131429 2.375,13.5131429 2,14.7654286 C4.08071429,15.9834286 5.46242857,17.7555714 5.46242857,20 C5.46242857,22.2444286 4.08071429,24.4447143 2,25.6622857 C2.375,26.9158571 2.87128571,28.1158571 3.48242857,29.2455714 C5.816,28.6348571 7.70471429,29.1208571 9.29257143,30.7082857 C10.8795714,32.2957143 11.3651429,34.1844286 10.7548571,36.518 C11.885,37.1287143 13.0845714,37.6262857 14.3381429,38 C15.5561429,35.9197143 17.756,34.5375714 20,34.5375714 C22.2448571,34.5375714 24.4447143,35.9197143 25.6627143,38 C26.9167143,37.6254286 28.1162857,37.1287143 29.246,36.5171429 C28.6357143,34.1848571 29.1212857,32.2957143 30.7082857,30.7082857 C32.2961429,29.1208571 34.1844286,28.2062857 36.5175714,28.817 C37.1287143,27.6868571 37.6258571,26.4868571 38,25.2337143 C35.9192857,24.0161429 34.538,22.2444286 34.538,20 L34.538,20 Z M20,27.8278571 C15.677,27.8278571 12.1725714,24.3225714 12.1725714,19.9995714 C12.1725714,15.6761429 15.677,12.1712857 20,12.1712857 C24.3234286,12.1712857 27.8282857,15.6761429 27.8282857,19.9995714 C27.8282857,24.323 24.3234286,27.8278571 20,27.8278571 L20,27.8278571 Z"/>
  </g>
</svg>
