<svg width="36" height="36" viewBox="0 0 36 36" version="1.1" xmlns="http://www.w3.org/2000/svg" xmlns:xlink="http://www.w3.org/1999/xlink" xmlns:figma="http://www.figma.com/figma/ns">
<title>options</title>
<desc>Created using Figma</desc>
<g id="Canvas" transform="translate(203 -169)" figma:type="canvas">
<g id="options" figma:type="vector-operation">
<use xlink:href="#path0_fill" transform="translate(-203 169)" fill="#20282D"/>
</g>
</g>
<defs>
<path id="path0_fill" fill-rule="evenodd" d="M 32.538 18C 32.538 15.7556 33.9193 13.9834 36 12.7654C 35.6259 11.5127 35.1287 10.3127 34.5176 9.183C 32.1849 9.79371 30.2961 8.87914 28.7083 7.29214C 27.1213 5.70514 26.6349 3.81557 27.246 1.48286C 26.1159 0.871286 24.9163 0.374571 23.6627 0C 22.4447 2.08114 20.2449 3.46243 18 3.46243C 15.756 3.46243 13.5561 2.08114 12.3373 0C 11.0841 0.374143 9.88457 0.871286 8.75486 1.482C 9.36514 3.81514 8.87957 5.70429 7.29257 7.29214C 5.70471 8.87957 3.81557 9.79371 1.48243 9.18386C 0.871286 10.3131 0.375 11.5131 0 12.7654C 2.08071 13.9834 3.46243 15.7556 3.46243 18C 3.46243 20.2444 2.08071 22.4447 0 23.6623C 0.375 24.9159 0.871286 26.1159 1.48243 27.2456C 3.816 26.6349 5.70471 27.1209 7.29257 28.7083C 8.87957 30.2957 9.36514 32.1844 8.75486 34.518C 9.885 35.1287 11.0846 35.6263 12.3381 36C 13.5561 33.9197 15.756 32.5376 18 32.5376C 20.2449 32.5376 22.4447 33.9197 23.6627 36C 24.9167 35.6254 26.1163 35.1287 27.246 34.5171C 26.6357 32.1849 27.1213 30.2957 28.7083 28.7083C 30.2961 27.1209 32.1844 26.2063 34.5176 26.817C 35.1287 25.6869 35.6259 24.4869 36 23.2337C 33.9193 22.0161 32.538 20.2444 32.538 18ZM 18 25.8279C 13.677 25.8279 10.1726 22.3226 10.1726 17.9996C 10.1726 13.6761 13.677 10.1713 18 10.1713C 22.3234 10.1713 25.8283 13.6761 25.8283 17.9996C 25.8283 22.323 22.3234 25.8279 18 25.8279Z"/>
</defs>
</svg>
