<svg xmlns="http://www.w3.org/2000/svg" width="36" height="36" viewBox="0 0 36 36">
  <path fill="#20282D" fill-rule="evenodd" d="M31.7303333,18 C31.7303333,15.8802619 33.034881,14.2065714 35,13.0562381 C34.6466429,11.873119 34.177119,10.7397857 33.5999286,9.67283333 C31.3968095,10.249619 29.6130238,9.38585714 28.113381,7.88702381 C26.6145476,6.38819048 26.1551429,4.60359524 26.7323333,2.40047619 C25.6649762,1.82288095 24.5320476,1.3537619 23.348119,1 C22.1977857,2.96552381 20.1201429,4.27007143 18,4.27007143 C15.8806667,4.27007143 13.8030238,2.96552381 12.651881,1 C11.4683571,1.35335714 10.3354286,1.82288095 9.26847619,2.39966667 C9.84485714,4.60319048 9.3862619,6.38738095 7.88742857,7.88702381 C6.38778571,9.3862619 4.60359524,10.249619 2.40007143,9.67364286 C1.82288095,10.7401905 1.35416667,11.8735238 1,13.0562381 C2.96511905,14.2065714 4.27007143,15.8802619 4.27007143,18 C4.27007143,20.1197381 2.96511905,22.1977857 1,23.3477143 C1.35416667,24.5316429 1.82288095,25.6649762 2.40007143,26.7319286 C4.604,26.1551429 6.38778571,26.6141429 7.88742857,28.113381 C9.3862619,29.612619 9.84485714,31.3964048 9.26847619,33.6003333 C10.3358333,34.177119 11.4687619,34.6470476 12.6526905,35 C13.8030238,33.0352857 15.8806667,31.7299286 18,31.7299286 C20.1201429,31.7299286 22.1977857,33.0352857 23.348119,35 C24.5324524,34.6462381 25.665381,34.177119 26.7323333,33.5995238 C26.1559524,31.3968095 26.6145476,29.612619 28.113381,28.113381 C29.6130238,26.6141429 31.3964048,25.750381 33.5999286,26.3271667 C34.177119,25.2598095 34.6466429,24.1264762 35,22.9429524 C33.034881,21.7930238 31.7303333,20.1197381 31.7303333,18 L31.7303333,18 Z M18,25.3929762 C13.9171667,25.3929762 10.6074286,22.0824286 10.6074286,17.9995952 C10.6074286,13.9163571 13.9171667,10.6062143 18,10.6062143 C22.0832381,10.6062143 25.393381,13.9163571 25.393381,17.9995952 C25.393381,22.0828333 22.0832381,25.3929762 18,25.3929762 L18,25.3929762 Z"/>
</svg>
