<svg xmlns="http://www.w3.org/2000/svg" width="36" height="36" viewBox="0 0 36 36">
  <path fill="#000000" d="M34.219043,13.13375 L29.969043,7.86875 L26.416043,5 L8.94004299,5 L5.38704299,7.86875 L1.13704299,13.13375 C0.916042986,13.40375 0.967042986,13.454375 1.25604299,13.251875 L4.75804299,10.754375 L4.75804299,28.641875 C4.75804299,29.991875 5.86304299,31.071875 7.20604299,31.071875 L15.298043,31.071875 L15.298043,17.909375 L17.508043,17.909375 L19.684043,17.909375 L19.684043,31.071875 L28.133043,31.071875 C29.493043,31.071875 30.581043,29.975 30.581043,28.641875 L30.581043,10.754375 L34.083043,13.26875 C34.389043,13.47125 34.440043,13.40375 34.219043,13.13375 Z M8.02204299,9.08375 L9.79004299,6.65375 L25.566043,6.65375 L27.334043,9.08375 L8.02204299,9.08375 Z"/>
</svg>
