<svg xmlns="http://www.w3.org/2000/svg" width="36" height="36" viewBox="0 0 36 36">
  <path fill="#20282D" fill-rule="evenodd" d="M4.93585583,7.12145861 L9.8582154,12.0438182 L8.35481818,12.0438182 L8.35481818,24.1818182 L11.0238182,24.1818182 L11.0238182,19.8298182 L13.8288182,19.8298182 C14.5881553,19.8298182 15.2341489,19.7193193 15.7668182,19.4983182 C16.1408924,19.3431172 16.4660568,19.152985 16.7423158,18.9279186 L19.4388182,21.624421 L19.4388182,24.1818182 L21.7338182,24.1818182 L21.7338182,23.919421 L28.8785414,31.0641442 C25.9305963,33.5215819 22.1379497,35 18,35 C8.61115925,35 1,27.3888407 1,18 C1,13.8620503 2.47841812,10.0694037 4.93585583,7.12145861 Z M7.12145861,4.93585583 C10.0694037,2.47841812 13.8620503,1 18,1 C27.3888407,1 35,8.61115925 35,18 C35,22.1379497 33.5215819,25.9305963 31.0641442,28.8785414 L26.204373,24.0187703 C26.5414235,23.8420747 26.8504032,23.6017589 27.1313182,23.2978182 C27.4769866,22.9238163 27.7574838,22.4449878 27.9728182,21.8613182 C28.1881526,21.2776486 28.2958182,20.5834889 28.2958182,19.7788182 C28.2958182,18.9741475 28.1881526,18.2799878 27.9728182,17.6963182 C27.7574838,17.1126486 27.4769866,16.6338201 27.1313182,16.2598182 C26.7856498,15.8858163 26.397487,15.6081524 25.9668182,15.4268182 C25.5361494,15.2454839 25.0998204,15.1548182 24.6578182,15.1548182 C24.1138155,15.1548182 23.589654,15.2596505 23.0853182,15.4693182 C22.5809823,15.6789859 22.1814863,16.0104826 21.8868182,16.4638182 L21.8528182,16.4638182 L21.8528182,12.0438182 L19.4388182,12.0438182 L19.4388182,17.2532154 L18.026878,15.8412752 C18.0177121,15.3765611 17.9415261,14.926746 17.7983182,14.4918182 C17.6453174,14.0271492 17.4016532,13.6134867 17.0673182,13.2508182 C16.7329832,12.8881497 16.2994875,12.5963193 15.7668182,12.3753182 C15.3332581,12.1954369 14.8246212,12.0887628 14.240897,12.0552942 L7.12145861,4.93585583 Z M30.0208179,30.0208126 C30.0208179,30.0208126 30.0208179,30.0208126 30.0208179,30.0208126 L30.0208179,30.0208126 Z M11.9322154,14.1178182 L15.0121374,17.1977402 C14.9279502,17.2858298 14.8338437,17.3613554 14.7298182,17.4243182 C14.5144838,17.5546522 14.2651529,17.6424846 13.9818182,17.6878182 C13.6984834,17.7331517 13.4038197,17.7558182 13.0978182,17.7558182 L11.0238182,17.7558182 L11.0238182,14.1178182 L11.9322154,14.1178182 Z M24.6245835,22.4389807 L21.7720347,19.586432 C21.7841563,19.2880242 21.8224174,19.0008217 21.8868182,18.7248182 C21.9661519,18.3848165 22.0908173,18.0844862 22.2608182,17.8238182 C22.430819,17.5631502 22.6461502,17.3563189 22.9068182,17.2033182 C23.1674862,17.0503174 23.4734831,16.9738182 23.8248182,16.9738182 C24.1874867,16.9738182 24.4963169,17.0503174 24.7513182,17.2033182 C25.0063195,17.3563189 25.2188173,17.5631502 25.3888182,17.8238182 C25.558819,18.0844862 25.6834845,18.3848165 25.7628182,18.7248182 C25.8421519,19.0648199 25.8818182,19.4218163 25.8818182,19.7958182 C25.8818182,20.1584867 25.8421519,20.5098165 25.7628182,20.8498182 C25.6834845,21.1898199 25.558819,21.4901502 25.3888182,21.7508182 C25.2188173,22.0114862 25.0063195,22.2183174 24.7513182,22.3713182 C24.7104549,22.3958362 24.6682093,22.4183896 24.6245814,22.4389786 Z"/>
</svg>
