<?xml version="1.0" encoding="UTF-8"?>
<svg width="34px" height="34px" viewBox="0 0 34 34" version="1.1" xmlns="http://www.w3.org/2000/svg" xmlns:xlink="http://www.w3.org/1999/xlink">
    <title>pcb</title>
    <g id="pcb" stroke="none" stroke-width="1" fill="none" fill-rule="evenodd">
        <path d="M19.8183188,29.7726856 L21.9052464,29.7836622 L21.8948117,31.7675753 L19.807884,31.7565987 L19.8183188,29.7726856 Z M15.8504927,29.7726856 L17.9374203,29.7836622 L17.9269856,31.7675753 L15.8400579,31.7565987 L15.8504927,29.7726856 Z M7.91549269,29.7726856 L10.0024203,29.7836622 L9.99198557,31.7675753 L7.90505791,31.7565987 L7.91549269,29.7726856 Z M23.7848371,29.7733716 L25.8717716,29.7829762 L25.8626411,31.7668892 L23.7757067,31.7572847 L23.7848371,29.7733716 Z M11.8820111,29.7733716 L13.9689455,29.7829762 L13.959815,31.7668892 L11.8728806,31.7572847 L11.8820111,29.7733716 Z M25.1859565,5.97317391 C26.6259565,5.97317391 27.7946522,7.14186957 27.7946522,8.58186957 L27.7946522,8.58186957 L27.7946522,25.184913 C27.7946522,26.6262174 26.6259565,27.7936087 25.1859565,27.7936087 L25.1859565,27.7936087 L8.58552174,27.7936087 C7.14552174,27.7936087 5.97682609,26.6262174 5.97682609,25.184913 L5.97682609,25.184913 L5.97682609,8.58186957 C5.97682609,7.14186957 7.14552174,5.97317391 8.58552174,5.97317391 L8.58552174,5.97317391 Z M25.1859565,8.06013043 L8.58552174,8.06013043 C8.29856522,8.06013043 8.06508696,8.2936087 8.06508696,8.58186957 L8.06508696,8.58186957 L8.06508696,25.184913 C8.06508696,25.4731739 8.29856522,25.7079565 8.58552174,25.7079565 L8.58552174,25.7079565 L25.1859565,25.7079565 C25.4742174,25.7079565 25.7076957,25.4731739 25.7076957,25.184913 L25.7076957,25.184913 L25.7076957,8.58186957 C25.7076957,8.2936087 25.4742174,8.06013043 25.1859565,8.06013043 L25.1859565,8.06013043 Z M2.01057526,23.2744492 L3.9944883,23.284884 L3.9835117,25.3718117 L1.99959865,25.3613769 L2.01057526,23.2744492 Z M29.7840535,23.2744492 L31.7679666,23.284884 L31.75699,25.3718117 L29.7730769,25.3613769 L29.7840535,23.2744492 Z M14.072913,11.8186087 C14.072913,11.6933913 14.2085652,11.6177391 14.3155217,11.6829565 L14.3155217,11.6829565 L22.4233478,16.6955652 C22.5237826,16.7581739 22.5237826,16.9042609 22.4233478,16.9668696 L22.4233478,16.9668696 L14.3155217,21.9794783 C14.2085652,22.046 14.072913,21.9690435 14.072913,21.8438261 L14.072913,21.8438261 Z M2.01057526,19.3066231 L3.9944883,19.3170579 L3.9835117,21.4039856 L1.99959865,21.3935508 L2.01057526,19.3066231 Z M29.7840535,19.3066231 L31.7679666,19.3170579 L31.75699,21.4039856 L29.7730769,21.3935508 L29.7840535,19.3066231 Z M2.01057526,15.338797 L3.9944883,15.3492318 L3.9835117,17.4361595 L1.99959865,17.4257247 L2.01057526,15.338797 Z M29.7840535,15.338797 L31.7679666,15.3492318 L31.75699,17.4361595 L29.7730769,17.4257247 L29.7840535,15.338797 Z M2.01057526,11.370971 L3.9944883,11.3814057 L3.9835117,13.4683334 L1.99959865,13.4578986 L2.01057526,11.370971 Z M29.7840535,11.370971 L31.7679666,11.3814057 L31.75699,13.4683334 L29.7730769,13.4578986 L29.7840535,11.370971 Z M2.00988924,7.40444583 L3.99380228,7.41357627 L3.98419772,9.50051069 L2.00028467,9.49138025 L2.00988924,7.40444583 Z M29.7833675,7.40444583 L31.7672805,7.41357627 L31.757676,9.50051069 L29.7737629,9.49138025 L29.7833675,7.40444583 Z M23.7758405,1.99920735 L25.8627682,2.01018396 L25.8523334,3.994097 L23.7654057,3.98312039 L23.7758405,1.99920735 Z M19.8081449,1.99920735 L21.8950725,2.01018396 L21.8846377,3.994097 L19.7977101,3.98312039 L19.8081449,1.99920735 Z M15.8396632,1.99989337 L17.9265976,2.00949793 L17.9174672,3.99341098 L15.8305328,3.98380641 L15.8396632,1.99989337 Z M11.8731449,1.99920735 L13.9600725,2.01018396 L13.9496377,3.994097 L11.8627101,3.98312039 L11.8731449,1.99920735 Z M7.90531878,1.99920735 L9.99224644,2.01018396 L9.98181165,3.994097 L7.894884,3.98312039 L7.90531878,1.99920735 Z" id="Combined-Shape" fill="#000000"></path>
    </g>
</svg>