<svg xmlns="http://www.w3.org/2000/svg" width="40" height="40" viewBox="0 0 40 40">
  <g fill="none" fill-rule="evenodd">
    <rect width="1440" height="4000" x="-150" y="-330" fill="#FFFFFF"/>
    <path fill="#20282D" d="M21.3863636,25.363343 C22.4247484,24.7618594 23.125,23.6386376 23.125,22.3522727 C23.125,20.4357357 21.568172,18.875 19.6477273,18.875 C17.7311903,18.875 16.1704545,20.431828 16.1704545,22.3522727 C16.1704545,23.6367356 16.8697317,24.761384 17.9090909,25.3634937 L17.9090909,29.450991 C17.9090909,30.334055 18.6237143,31.0454545 19.5052469,31.0454545 L19.7902076,31.0454545 C20.6658705,31.0454545 21.3863636,30.3315889 21.3863636,29.450991 L21.3863636,25.363343 Z M9.21590909,13.6590909 L9.21590909,3.59554062 C9.21590909,2.71434787 9.93408268,2 10.8184006,2 L28.477054,2 C29.3620856,2 30.0795455,2.7155993 30.0795455,3.59554062 L30.0795455,13.6590909 L33.7004832,13.6590909 C34.5813616,13.6590909 35.2954545,14.3743858 35.2954545,15.2561659 L35.2954545,36.402925 C35.2954545,37.2849652 34.5830048,38 33.7004832,38 L5.59497132,38 C4.71409299,38 4,37.2847051 4,36.402925 L4,15.2561659 C4,14.3741258 4.71244975,13.6590909 5.59497132,13.6590909 L9.21590909,13.6590909 Z M14.4318182,8.82157649 L14.4318182,14.7871591 L24.8636364,14.7871591 L24.8636364,8.82157649 C24.8636364,7.94187237 24.1441087,7.21590909 23.2565264,7.21590909 L16.0389281,7.21590909 C15.1488393,7.21590909 14.4318182,7.93479087 14.4318182,8.82157649 Z"/>
  </g>
</svg>
