<svg width="32" height="36" viewBox="0 0 32 36" version="1.1" xmlns="http://www.w3.org/2000/svg" xmlns:xlink="http://www.w3.org/1999/xlink" xmlns:figma="http://www.figma.com/figma/ns">
<title>private</title>
<desc>Created using Figma</desc>
<g id="Canvas" transform="translate(101 -219)" figma:type="canvas">
<g id="private" figma:type="vector-operation">
<use xlink:href="#path0_fill" transform="translate(-101 219)" fill="#20282D"/>
</g>
</g>
<defs>
<path id="path0_fill" fill-rule="evenodd" d="M 5.21591 1.60001C 5.21591 0.716339 5.93226 0 6.81591 0L 24.4795 0C 25.3632 0 26.0795 0.716339 26.0795 1.60001L 26.0795 11.6591L 29.6955 11.6591C 30.5791 11.6591 31.2955 12.3754 31.2955 13.2591L 31.2955 34.4C 31.2955 35.2837 30.5791 36 29.6955 36L 1.6 36C 0.716347 36 0 35.2837 0 34.4L 0 13.2591C 0 12.3754 0.716347 11.6591 1.6 11.6591L 5.21591 11.6591L 5.21591 1.60001ZM 15.6477 16.875C 13.7273 16.875 12.1705 18.4318 12.1705 20.3523C 12.1705 21.6394 12.8697 22.7631 13.9091 23.3643L 13.9091 27.4454C 13.9091 28.3291 14.6254 29.0454 15.5091 29.0454L 15.7864 29.0454C 16.67 29.0454 17.3864 28.3291 17.3864 27.4454L 17.3864 23.3643C 18.4257 22.7631 19.125 21.6394 19.125 20.3523C 19.125 18.4318 17.5682 16.875 15.6477 16.875ZM 12.0318 5.21591C 11.1482 5.21591 10.4318 5.93225 10.4318 6.81592L 10.4318 12.7872L 20.8636 12.7872L 20.8636 6.81592C 20.8636 5.93225 20.1473 5.21591 19.2636 5.21591L 12.0318 5.21591Z"/>
</defs>
</svg>
