<svg xmlns="http://www.w3.org/2000/svg" width="40" height="40" viewBox="0 0 40 40">
  <g fill="none" fill-rule="evenodd">
    <path fill="#1F272D" d="M29.3131961,31.3086107 L29.4210132,31.4262293 C26.508854,34.0971436 22.6266137,35.7272727 18.3636364,35.7272727 C9.32624955,35.7272727 2,28.4010232 2,19.3636364 C2,10.3262495 9.32624955,3 18.3636364,3 C27.0344466,3 34.1301193,9.74396529 34.6914859,18.2727273 L38,18.2727273 L31.4545455,24.8181818 L24.9090909,18.2727273 L29.2188634,18.2727273 C28.6715276,12.7600116 24.0203797,8.45454545 18.3636364,8.45454545 C12.3387118,8.45454545 7.45454545,13.3387118 7.45454545,19.3636364 C7.45454545,25.3885609 12.3387118,30.2727273 18.3636364,30.2727273 C20.8186818,30.2727273 23.0843144,29.4617545 24.9072599,28.093083 C25.4047259,27.4294212 26.1976691,27 27.0909091,27 C28.5971402,27 29.8181818,28.2210416 29.8181818,29.7272727 C29.8181818,30.3167689 29.6311527,30.8625821 29.3131961,31.3086107 Z"/>
  </g>
</svg>
