<svg width="36" height="33" viewBox="0 0 36 33" version="1.1" xmlns="http://www.w3.org/2000/svg" xmlns:xlink="http://www.w3.org/1999/xlink" xmlns:figma="http://www.figma.com/figma/ns">
<title>refresh</title>
<desc>Created using Figma</desc>
<g id="Canvas" transform="translate(153 -170)" figma:type="canvas">
<g id="refresh" figma:type="vector-operation">
<use xlink:href="#path0_fill" transform="translate(-153 170)" fill="#20282D"/>
</g>
</g>
<defs>
<path id="path0_fill" fill-rule="evenodd" d="M 16.3636 32.7273C 20.6266 32.7273 24.5089 31.0971 27.421 28.4262L 27.3132 28.3086C 27.6311 27.8626 27.8182 27.3168 27.8182 26.7273C 27.8182 25.221 26.5971 24 25.0909 24C 24.1977 24 23.4047 24.4294 22.9073 25.0931C 21.0843 26.4617 18.8187 27.2727 16.3636 27.2727C 10.3387 27.2727 5.45454 22.3886 5.45454 16.3636C 5.45454 10.3387 10.3387 5.45454 16.3636 5.45454C 22.0204 5.45454 26.6715 9.76001 27.2189 15.2727L 22.9091 15.2727L 29.4545 21.8182L 36 15.2727L 32.6915 15.2727C 32.1301 6.74396 25.0344 0 16.3636 0C 7.32625 0 0 7.32625 0 16.3636C 0 25.401 7.32625 32.7273 16.3636 32.7273Z"/>
</defs>
</svg>
