<?xml version="1.0" encoding="UTF-8"?>
<svg width="34px" height="34px" viewBox="0 0 34 34" version="1.1" xmlns="http://www.w3.org/2000/svg" xmlns:xlink="http://www.w3.org/1999/xlink">
    <title>schematic</title>
    <g id="schematic" stroke="none" stroke-width="1" fill="none" fill-rule="evenodd">
        <path d="M25.2253808,4 C26.6677758,4 27.8384153,5.19185511 27.8384153,6.66039087 L27.8384153,6.66039087 L27.8384153,27.3396091 C27.8384153,28.8081449 26.6677758,30 25.2253808,30 L25.2253808,30 L8.5973354,30 C7.15494033,30 5.98430085,28.8081449 5.98430085,27.3396091 L5.98430085,27.3396091 L5.98430085,6.66039087 C5.98430085,5.19185511 7.15494033,4 8.5973354,4 L8.5973354,4 Z M25.2253808,6.12964289 L8.5973354,6.12964289 C8.3099016,6.12964289 8.07603501,6.36774788 8.07603501,6.66039087 L8.07603501,6.66039087 L8.07603501,27.3396091 C8.07603501,27.6322521 8.3099016,27.8703571 8.5973354,27.8703571 L8.5973354,27.8703571 L15.1174439,27.8709823 C15.1392933,27.8710089 15.1625909,27.8710355 15.1874316,27.8710621 L18.5841901,27.8710222 C18.6073128,27.8709945 18.6288919,27.8709668 18.6490275,27.8709393 L25.2253808,27.8703571 C25.5141211,27.8703571 25.7479877,27.6322521 25.7479877,27.3396091 L25.7479877,27.3396091 L25.7479877,6.66039087 C25.7479877,6.36774788 25.5141211,6.12964289 25.2253808,6.12964289 L25.2253808,6.12964289 Z M2.01086627,24.0783834 L4.02159636,24.0890249 L4.01073009,26.2173089 L2,26.2066673 L2.01086627,24.0783834 Z M29.9853504,24.0783833 L32,24.0890249 L31.9891549,26.2173089 L29.9745052,26.2066674 L29.9853504,24.0783833 Z M2.01086627,20.0320619 L4.02159636,20.0427034 L4.01073009,22.1709874 L2,22.1603458 L2.01086627,20.0320619 Z M29.9853504,20.0320618 L32,20.0427034 L31.9891549,22.1709874 L29.9745052,22.1603459 L29.9853504,20.0320618 Z M2.01086627,15.9856073 L4.02159636,15.9962489 L4.01073009,18.1245328 L2,18.1138913 L2.01086627,15.9856073 Z M29.9853504,15.9856073 L32,15.9962488 L31.9891549,18.1245329 L29.9745052,18.1138913 L29.9853504,15.9856073 Z M2.01018715,11.9404796 L4.02091723,11.949791 L4.01140921,14.0780817 L2.00067913,14.0687703 L2.01018715,11.9404796 Z M29.9846726,11.9404796 L31.9993222,11.949791 L31.9898327,14.0780817 L29.975183,14.0687704 L29.9846726,11.9404796 Z M2.01086627,7.8940285 L4.02159636,7.90467006 L4.01073009,10.032954 L2,10.0223124 L2.01086627,7.8940285 Z M29.9853504,7.89402844 L32,7.90467001 L31.9891549,10.0329541 L29.9745052,10.0223125 L29.9853504,7.89402844 Z" id="Combined-Shape" fill="#000000"></path>
    </g>
</svg>