<svg xmlns="http://www.w3.org/2000/svg" width="40" height="40" viewBox="0 0 40 40">
  <g fill="none" fill-rule="evenodd">
    <path fill="#1F272D" d="M5.68891185,6.68894673 C8.39898333,3.98013574 11.9460257,2.6251 15.4930681,2.6251 C19.041371,2.6251 22.5884134,3.98013574 25.2984849,6.68894673 C30.7173674,12.1078292 30.7173674,20.8783768 25.2984849,26.2985198 C19.8783419,31.7174022 11.1077943,31.7174022 5.68891185,26.2985198 C0.270029383,20.8783768 0.270029383,12.1078292 5.68891185,6.68894673 Z M10.1447736,21.8413976 C11.6195567,23.3161806 13.5569426,24.0535722 15.4930681,24.0535722 C17.4304541,24.0535722 19.3665796,23.3161806 20.8413627,21.8413976 C23.7909289,18.8918314 23.7909289,14.0943746 20.8413627,11.1448084 C17.8917965,8.19650277 13.0943397,8.19650277 10.1447736,11.1448084 C7.19646789,14.0943746 7.19646789,18.8918314 10.1447736,21.8413976 Z M27.0757876,26.3010408 C27.5711635,25.8069254 28.2203201,25.5611282 28.8669558,25.5611282 C29.5110704,25.5611282 30.1526641,25.8056649 30.6392165,26.2909568 L36.8925489,32.5442892 C37.8719561,33.5249569 37.8694351,35.1169663 36.8812044,36.1064575 L35.997595,36.9888064 C35.0106248,37.9757766 33.4097919,37.9732556 32.4354266,37.0001509 L26.1833548,30.7468185 C25.2014265,29.7674113 25.2039475,28.1754018 26.1934387,27.1846501 L27.0757876,26.3010408 Z"/>
  </g>
</svg>
