<svg width="37" height="36" viewBox="0 0 37 36" version="1.1" xmlns="http://www.w3.org/2000/svg" xmlns:xlink="http://www.w3.org/1999/xlink" xmlns:figma="http://www.figma.com/figma/ns">
<title>search</title>
<desc>Created using Figma</desc>
<g id="Canvas" transform="translate(154 -219)" figma:type="canvas">
<g id="search" figma:type="vector-operation">
<use xlink:href="#path0_fill" transform="translate(-153.375 219.625)" fill="#20282D"/>
</g>
</g>
<defs>
<path id="path0_fill" fill-rule="evenodd" d="M 4.06416 4.06385C 6.77423 1.35504 10.3213 0 13.8683 0C 17.4166 0 20.9637 1.35504 23.6737 4.06385C 29.0926 9.48273 29.0926 18.2533 23.6737 23.6734C 18.2536 29.0923 9.48304 29.0923 4.06416 23.6734C -1.35472 18.2533 -1.35472 9.48273 4.06416 4.06385ZM 8.52002 19.2163C 9.9948 20.6911 11.9322 21.4285 13.8683 21.4285C 15.8057 21.4285 17.7418 20.6911 19.2166 19.2163C 22.1662 16.2667 22.1662 11.4693 19.2166 8.51972C 16.267 5.57141 11.4696 5.57141 8.52002 8.51972C 5.57172 11.4693 5.57172 16.2667 8.52002 19.2163ZM 25.451 23.6759C 25.9464 23.1818 26.5956 22.936 27.2422 22.936C 27.8863 22.936 28.5279 23.1806 29.0145 23.6658L 35.2678 29.9192C 36.2472 30.8998 36.2447 32.4919 35.2565 33.4813L 34.3728 34.3637C 33.3859 35.3507 31.785 35.3481 30.8107 34.375L 24.5586 28.1217C 23.5767 27.1423 23.5792 25.5503 24.5687 24.5595L 25.451 23.6759Z"/>
</defs>
</svg>
