<svg xmlns="http://www.w3.org/2000/svg" xmlns:xlink="http://www.w3.org/1999/xlink" width="40" height="40" viewBox="0 0 40 40">
  <defs>
    <path id="a" d="M24.3200442,4.66350015 C25.8519126,3.3774719 27.7185684,2.7499 29.5728704,2.7499 C31.906499,2.7499 34.2228323,3.74190834 35.8337649,5.66415614 C38.7331965,9.11950774 38.2884605,14.2660915 34.8195198,17.1766415 L32.109101,19.450972 C29.5938718,21.5622325 26.1780523,21.8982553 23.3885693,20.5974025 L31.6791895,13.6385196 C33.1455829,12.4093187 33.3259481,10.2474076 32.1066302,8.79213263 C30.8873124,7.34056376 28.7155182,7.14908021 27.2590079,8.37086881 L18.9646816,15.3297517 C18.1629214,12.3586682 19.0857486,9.05650347 21.6108607,6.93783061 L24.3200442,4.66350015 Z M23.4083354,13.2852015 C23.8098332,12.9479434 24.2990428,12.7824028 24.7857816,12.7824028 C25.3972936,12.7824028 26.0038641,13.0430675 26.4313048,13.5532785 C27.1947682,14.4625166 27.0811135,15.8140198 26.1694047,16.5787187 L15.8379405,25.2473644 C14.9299378,26.0095925 13.5821407,25.8959377 12.8149711,24.9792874 C12.0502722,24.0700494 12.163927,22.7197815 13.0756358,21.9550827 L23.4083354,13.2852015 Z M7.38301507,18.8752859 C8.91488349,17.590493 10.7815393,16.9629211 12.6370767,16.9629211 C13.8279808,16.9629211 15.0139435,17.2211151 16.1047821,17.7288554 L7.81292653,24.6865029 C6.34653313,25.9169392 6.16616797,28.0800856 7.3867212,29.5341252 C8.60480367,30.9856941 10.7778332,31.1771777 12.2343435,29.9553891 L20.5286698,22.9965061 C21.3291946,25.968825 20.4076028,29.2697544 17.8824907,31.3884273 L15.1720719,33.6627577 C11.7117787,36.5658955 6.55160584,36.1112764 3.65835112,32.6621017 C0.758919514,29.2067501 1.20365551,24.0601664 4.67259626,21.1496164 L7.38301507,18.8752859 Z"/>
  </defs>
  <g fill="none" fill-rule="evenodd">
    <rect width="1440" height="4000" x="-250" y="-430" fill="#FFFFFF"/>
    <use fill="#20282D" xlink:href="#a"/>
  </g>
</svg>
