<svg width="37" height="34" viewBox="0 0 37 34" version="1.1" xmlns="http://www.w3.org/2000/svg" xmlns:xlink="http://www.w3.org/1999/xlink" xmlns:figma="http://www.figma.com/figma/ns">
<title>share</title>
<desc>Created using Figma</desc>
<g id="Canvas" transform="translate(4 -319)" figma:type="canvas">
<g id="share" figma:type="frame">
<mask id="mask0_outline" mask-type="alpha">
<g id="Clip 2" figma:type="vector-operation">
<use xlink:href="#path0_fill" transform="translate(-3.25394 319.75)" fill="#20282D"/>
</g>
</mask>
<g id="Clip 2" mask="url(#mask0_outline)" figma:type="vector-operation">
<use xlink:href="#path0_fill" transform="translate(-3.25394 319.75)" fill="#20282D"/>
</g>
</g>
</g>
<defs>
<path id="path0_fill" fill-rule="evenodd" d="M 22.574 1.9136C 24.1059 0.627572 25.9725 0 27.8268 0C 30.1604 0 32.4768 0.992008 34.0877 2.91426C 36.9871 6.36961 36.5424 11.5162 33.0735 14.4267L 30.363 16.7011C 27.8478 18.8123 24.432 19.1484 21.6425 17.8475L 29.9331 10.8886C 31.3995 9.65942 31.5799 7.49751 30.3606 6.04223C 29.1413 4.59066 26.9695 4.39918 25.513 5.62097L 17.2186 12.5799C 16.4169 9.60877 17.3397 6.3066 19.8648 4.18793L 22.574 1.9136ZM 21.6623 10.5353C 22.0638 10.198 22.553 10.0325 23.0397 10.0325C 23.6512 10.0325 24.2578 10.2932 24.6852 10.8034C 25.4487 11.7126 25.3351 13.0641 24.4233 13.8288L 14.0919 22.4975C 13.1839 23.2597 11.8361 23.146 11.0689 22.2294C 10.3042 21.3201 10.4179 19.9699 11.3296 19.2052L 21.6623 10.5353ZM 5.63696 16.1254C 7.16883 14.8406 9.03548 14.213 10.891 14.213C 12.0819 14.213 13.2679 14.4712 14.3587 14.9789L 6.06687 21.9366C 4.60047 23.167 4.42011 25.3302 5.64066 26.7842C 6.85875 28.2358 9.03177 28.4273 10.4883 27.2055L 18.7826 20.2466C 19.5831 23.2189 18.6615 26.5198 16.1364 28.6385L 13.426 30.9128C 9.96572 33.816 4.80555 33.3614 1.91229 29.9122C -0.987139 26.4568 -0.542403 21.3103 2.92654 18.3997L 5.63696 16.1254Z"/>
</defs>
</svg>
