<svg xmlns="http://www.w3.org/2000/svg" width="40" height="40" viewBox="0 0 40 40">
  <g fill="none" fill-rule="evenodd">
    <rect width="1440" height="4000" x="-250" y="-480" fill="#FFFFFF"/>
    <path fill="#20282D" d="M4.17335948,22.1772813 L6.49043196,22.761898 L8.23461125,19.9754556 L4.91965062,19.1417714 C4.09006047,18.9324856 3.25197042,19.442728 3.04627286,20.2833307 C2.8405753,21.1187445 3.34376933,21.9662658 4.17335948,22.1772813 L4.17335948,22.1772813 Z M34.4177003,22.6287161 L26.8306904,29.5749313 L17.9108964,22.5508825 C17.7408984,22.4194303 17.5454007,22.320841 17.3363032,22.2706816 L16.1497173,21.9697251 L14.403838,24.7561675 L16.2738158,25.2283579 L25.9586008,32.8525901 C26.2407974,33.0722538 26.5739935,33.1794912 26.9088895,33.1794912 C27.2811851,33.1794912 27.6534807,33.0445796 27.9441772,32.7782158 L36.4916757,24.948157 C37.1240682,24.3704588 37.1733676,23.3811075 36.6004744,22.7394128 C36.0275812,22.0994477 35.0517928,22.0475587 34.4177003,22.6287161 L34.4177003,22.6287161 Z M17.7629981,14.9975654 L26.0707995,20.4095941 C26.7728911,20.8662178 27.7044801,20.6759579 28.1787744,19.9841038 L36.724573,7.45808529 C37.2107672,6.74547556 37.0356693,5.76823164 36.3318776,5.27874487 C35.628086,4.78579882 34.6675974,4.96395125 34.1814032,5.67656098 L26.4838946,16.9555125 L18.1267938,11.5123503 C17.7799979,11.2857681 17.3601029,11.2113938 16.9572077,11.2996052 C16.5560124,11.3912759 16.2058166,11.6403433 15.9865192,11.9914593 L3.24177054,32.3440774 C2.78277599,33.0739834 2.99697345,34.0443088 3.71776489,34.5061214 C3.97276186,34.6721664 4.26005845,34.75 4.54395508,34.75 C5.055649,34.75 5.55714305,34.4922843 5.84953957,34.0235532 L17.7629981,14.9975654 L17.7629981,14.9975654 Z"/>
  </g>
</svg>
