<svg width="36" height="36" viewBox="0 0 36 36" version="1.1" xmlns="http://www.w3.org/2000/svg" xmlns:xlink="http://www.w3.org/1999/xlink" xmlns:figma="http://www.figma.com/figma/ns">
<title>trash</title>
<desc>Created using Figma</desc>
<g id="Canvas" transform="translate(103 -369)" figma:type="canvas">
<g id="trash" figma:type="vector-operation">
<use xlink:href="#path0_fill" transform="translate(-103 369)" fill="#20282D"/>
</g>
</g>
<defs>
<path id="path0_fill" fill-rule="evenodd" d="M 24.3869 5.60001L 33.0732 5.60001L 34.1053 5.60001C 35.1517 5.60001 36 6.4483 36 7.49475C 36 8.54117 35.1517 9.38947 34.1053 9.38947L 32.8239 9.38947L 31.1961 34.1313C 31.1269 35.1826 30.254 36 29.2004 36L 6.54591 36C 5.4923 36 4.61938 35.1826 4.55022 34.1313L 2.92247 9.38947L 1.89474 9.38947C 0.848305 9.38947 0 8.54117 0 7.49475C 0 6.4483 0.848305 5.60001 1.89474 5.60001L 2.67316 5.60001L 12.4131 5.60001C 12.619 2.47278 15.2207 0 18.4 0C 21.5793 0 24.181 2.47278 24.3869 5.60001ZM 29.1834 9.38947L 6.95488 9.38947L 8.28953 29.9836C 8.35771 31.0357 9.23099 31.8542 10.2853 31.8542L 25.8529 31.8542C 26.9073 31.8542 27.7805 31.0357 27.8487 29.9836L 29.1834 9.38947ZM 15.6 5.65897C 15.6 4.1207 16.847 2.87369 18.3853 2.87369L 18.4147 2.87369C 19.953 2.87369 21.2 4.1207 21.2 5.65897L 15.6 5.65897ZM 19.2 14C 19.2 13.3372 18.6627 12.8 18 12.8C 17.3373 12.8 16.8 13.3372 16.8 14L 16.8 27.6C 16.8 28.2627 17.3373 28.8 18 28.8C 18.6627 28.8 19.2 28.2627 19.2 27.6L 19.2 14ZM 24.0187 12.811C 24.6805 12.8457 25.1889 13.4103 25.1542 14.0721L 24.4425 27.6535C 24.4078 28.3153 23.8431 28.8237 23.1813 28.7891C 22.5195 28.7544 22.0111 28.1897 22.0458 27.5279L 22.7575 13.9465C 22.7922 13.2847 23.3568 12.7763 24.0187 12.811ZM 13.2425 13.9465C 13.2078 13.2847 12.6431 12.7763 11.9813 12.811C 11.3195 12.8456 10.8111 13.4103 10.8458 14.0721L 11.5575 27.6535C 11.5922 28.3153 12.1569 28.8237 12.8187 28.789C 13.4805 28.7544 13.9889 28.1897 13.9542 27.5279L 13.2425 13.9465Z"/>
</defs>
</svg>
