<svg xmlns="http://www.w3.org/2000/svg" width="36" height="36" viewBox="0 0 36 36">
  <path fill="#20282D" fill-rule="evenodd" d="M1,4.00235843 C1,2.34420165 2.34331243,1 4.00235843,1 L31.9976416,1 C33.6557983,1 35,2.34331243 35,4.00235843 L35,31.9976416 C35,33.6557983 33.6566876,35 31.9976416,35 L4.00235843,35 C2.34420165,35 1,33.6566876 1,31.9976416 L1,4.00235843 Z M20.3614157,11.360412 C18.877167,11.9006309 17.9391218,13.2931952 18.0459877,14.8178129 L18.0816097,15.4060513 L17.4879102,15.3340221 C15.3268441,15.0579102 13.4388797,14.1215308 11.8358911,12.5488936 L11.0522078,11.7685774 L10.85035,12.3448109 C10.4228864,13.6293314 10.6959881,14.985881 11.5865373,15.8982507 C12.0614969,16.402455 11.954631,16.4744842 11.1353257,16.1743626 C10.85035,16.0783237 10.6009962,16.0062945 10.5772482,16.0423091 C10.4941303,16.1263432 10.779106,17.2187858 11.0047118,17.6509609 C11.3134356,18.2512041 11.942757,18.8394425 12.6314484,19.1875836 L13.2132739,19.4636954 L12.5245825,19.4757003 C11.8596391,19.4757003 11.8358911,19.4877052 11.9071351,19.7398073 C12.1446149,20.5201235 13.08266,21.3484591 14.1275711,21.7086051 L14.8637585,21.9607072 L14.222563,22.3448629 C13.2726439,22.8970866 12.1564888,23.2092131 11.0403338,23.2332228 C10.5060043,23.2452277 10.0666667,23.2932472 10.0666667,23.3292618 C10.0666667,23.4493104 11.5152934,24.1215828 12.3583467,24.3856898 C14.8875065,25.166006 17.8916258,24.8298698 20.1476839,23.4973299 C21.7506725,22.5489456 23.3536611,20.6641819 24.1017224,18.8394425 C24.5054381,17.8670485 24.9091537,16.0903286 24.9091537,15.2379832 C24.9091537,14.6857594 24.9447757,14.6137302 25.6097191,13.9534627 C26.0015608,13.5693071 26.3696545,13.1491368 26.4408984,13.0290882 C26.5596383,12.8009957 26.5477643,12.8009957 25.9421908,13.0050784 C24.9329017,13.3652244 24.7904138,13.3172049 25.2891214,12.776986 C25.6572151,12.3928303 26.0965527,11.6965482 26.0965527,11.4924655 C26.0965527,11.4564509 25.9184429,11.5164752 25.716585,11.624519 C25.5028532,11.7445677 25.0278936,11.9246406 24.6716739,12.0326844 L24.0304785,12.2367671 L23.448653,11.8406066 C23.1280553,11.624519 22.6768437,11.3844217 22.4393639,11.3123926 C21.8337904,11.1443245 20.9076192,11.1683342 20.3614157,11.360412 Z"/>
</svg>
