<svg xmlns="http://www.w3.org/2000/svg" width="40" height="40" viewBox="0 0 40 40">
  <g fill="none" fill-rule="evenodd">
    <path fill="#1F272D" d="M2,5.00741988 C2,3.34646775 3.34553934,2 5.00741988,2 L34.9925801,2 C36.6535323,2 38,3.34553934 38,5.00741988 L38,34.9925801 C38,36.6535323 36.6544607,38 34.9925801,38 L5.00741988,38 C3.34646775,38 2,36.6544607 2,34.9925801 L2,5.00741988 Z M22.5003225,12.969848 C20.928765,13.5418445 19.9355407,15.0163243 20.0486929,16.6306255 L20.0864103,17.2534661 L19.4577873,17.1771999 C17.1695996,16.8848461 15.1705785,15.8933856 13.4732965,14.2282403 L12.6435141,13.4020231 L12.4297823,14.0121527 C11.9771738,15.3722332 12.2663404,16.8085799 13.2092748,17.7746184 C13.7121732,18.3084818 13.5990211,18.384748 12.7315214,18.0669722 C12.4297823,17.9652839 12.1657607,17.8890177 12.1406158,17.9271508 C12.0526085,18.016128 12.3543476,19.172832 12.5932243,19.6304292 C12.9201083,20.2659809 13.5864486,20.8888215 14.3156513,21.2574414 L14.9317018,21.5497952 L14.2024991,21.5625062 C13.4984414,21.5625062 13.4732965,21.5752172 13.5487312,21.8421489 C13.8001804,22.6683661 14.7934047,23.5454273 15.8997812,23.9267583 L16.6792737,24.19369 L16.0003609,24.6004431 C14.9945641,25.1851506 13.8127529,25.5156374 12.6309417,25.5410595 C12.065181,25.5537705 11.6,25.6046146 11.6,25.6427477 C11.6,25.7698581 13.1338401,26.4816759 14.0264847,26.7613186 C16.7044186,27.5875358 19.8852509,27.2316269 22.2740182,25.8207022 C23.9713003,24.8165306 25.6685823,22.8208985 26.4606473,20.8888215 C26.8881109,19.8592278 27.3155745,17.9779949 27.3155745,17.0755116 C27.3155745,16.4908041 27.3532919,16.4145379 28.0573497,15.7154311 C28.4722408,15.3086781 28.8619871,14.8637919 28.9374218,14.7366816 C29.0631464,14.495172 29.050574,14.495172 28.4093785,14.7112595 C27.3407195,15.0925905 27.1898499,15.0417464 27.7178933,14.4697499 C28.1076395,14.0629968 28.5728205,13.3257569 28.5728205,13.1096694 C28.5728205,13.0715363 28.3842336,13.1350914 28.1705018,13.2494907 C27.9441975,13.3766011 27.4412991,13.5672666 27.0641253,13.6816659 L26.3852125,13.8977534 L25.769162,13.4782893 C25.4297056,13.2494907 24.9519521,12.9952701 24.7005029,12.9190039 C24.0593075,12.7410494 23.0786556,12.7664715 22.5003225,12.969848 Z"/>
  </g>
</svg>
