<svg width="36" height="36" viewBox="0 0 36 36" version="1.1" xmlns="http://www.w3.org/2000/svg" xmlns:xlink="http://www.w3.org/1999/xlink" xmlns:figma="http://www.figma.com/figma/ns">
<title>twitter</title>
<desc>Created using Figma</desc>
<g id="Canvas" transform="translate(203 -269)" figma:type="canvas">
<g id="twitter" figma:type="vector-operation">
<use xlink:href="#path0_fill" transform="translate(-203 269)" fill="#20282D"/>
</g>
</g>
<defs>
<path id="path0_fill" fill-rule="evenodd" d="M 3 0C 1.34314 0 0 1.34314 0 3L 0 33C 0 34.6569 1.34314 36 3 36L 33 36C 34.6569 36 36 34.6569 36 33L 36 3C 36 1.34314 34.6569 0 33 0L 3 0ZM 18.0487 14.6306C 17.9355 13.0163 18.9288 11.5419 20.5003 10.9698C 21.0787 10.7665 22.0593 10.7411 22.7005 10.919C 22.952 10.9953 23.4297 11.2495 23.7692 11.4783L 24.3852 11.8978L 25.0641 11.6817C 25.4413 11.5673 25.9442 11.3766 26.1705 11.2495C 26.3842 11.1351 26.5728 11.0715 26.5728 11.1097C 26.5728 11.3258 26.1077 12.063 25.7179 12.4698C 25.1898 13.0417 25.3407 13.0926 26.4094 12.7113C 27.0506 12.4952 27.0632 12.4952 26.9374 12.7367C 26.862 12.8638 26.4722 13.3087 26.0574 13.7155C 25.3533 14.4146 25.3156 14.4908 25.3156 15.0755C 25.3156 15.978 24.8881 17.8593 24.4606 18.8888C 23.6686 20.8209 21.9713 22.8165 20.274 23.8207C 17.8853 25.2316 14.7044 25.5876 12.0265 24.7613C 11.1339 24.4817 9.60001 23.7699 9.60001 23.6428C 9.60001 23.6046 10.0652 23.5538 10.631 23.5411C 11.8128 23.5157 12.9946 23.1852 14.0004 22.6005L 14.6793 22.1937L 13.8998 21.9268C 12.7934 21.5454 11.8002 20.6684 11.5487 19.8422C 11.4733 19.5752 11.4984 19.5625 12.2025 19.5625L 12.9317 19.5498L 12.3157 19.2574C 11.5865 18.8888 10.9201 18.266 10.5932 17.6304C 10.3544 17.1729 10.0526 16.0161 10.1406 15.9272C 10.1658 15.889 10.4298 15.9653 10.7315 16.067C 11.599 16.3848 11.7122 16.3085 11.2093 15.7746C 10.2663 14.8086 9.97717 13.3723 10.4298 12.0122L 10.6435 11.402L 11.4733 12.2282C 13.1706 13.8934 15.1696 14.8849 17.4578 15.1772L 18.0864 15.2535L 18.0487 14.6306Z"/>
</defs>
</svg>
