<svg width="36" height="30" viewBox="0 0 36 30" version="1.1" xmlns="http://www.w3.org/2000/svg" xmlns:xlink="http://www.w3.org/1999/xlink" xmlns:figma="http://www.figma.com/figma/ns">
<title>upload</title>
<desc>Created using Figma</desc>
<g id="Canvas" transform="translate(3 -272)" figma:type="canvas">
<g id="upload" figma:type="vector-operation">
<use xlink:href="#path0_fill" transform="translate(-3 272)" fill="#20282D"/>
</g>
</g>
<defs>
<path id="path0_fill" fill-rule="evenodd" d="M 18.7235 3.75L 33.5616 3.75C 34.6155 3.75 34.3421 7.5 34.3421 7.5L 2.19152 7.5C 2.19152 7.5 1.91997 0 2.97387 0L 11.0538 0C 11.5798 0 13.2342 0.9375 14.8886 1.875C 16.5431 2.8125 18.1975 3.75 18.7235 3.75ZM 2.23899 30C 1.48512 30 -0.522036 9.375 0.127394 9.375L 35.8726 9.375C 36.522 9.375 34.5149 30 33.761 30L 2.23899 30ZM 24.736 19.8174C 25.1068 19.4466 25.1068 18.8455 24.736 18.4747L 19.6569 13.3955C 19.3918 13.1304 19.0089 13.0549 18.6767 13.1689C 18.3445 13.0549 17.9616 13.1304 17.6965 13.3955L 12.6174 18.4747C 12.2466 18.8455 12.2466 19.4466 12.6174 19.8174C 12.9882 20.1882 13.5893 20.1882 13.9601 19.8174L 17.8261 15.9514L 17.8261 25.9186C 17.8261 26.4364 18.2458 26.8561 18.7636 26.8561C 19.2814 26.8561 19.7011 26.4364 19.7011 25.9186L 19.7011 16.1252L 23.3933 19.8174C 23.764 20.1882 24.3652 20.1882 24.736 19.8174Z"/>
</defs>
</svg>
