<svg xmlns="http://www.w3.org/2000/svg" width="36" height="36" viewBox="0 0 36 36">
  <path fill="#20282D" fill-rule="evenodd" d="M32.6970894,7.54166667 L18.6832936,7.54166667 C17.6897381,7.54166667 12.4332196,4 11.4396641,4 L3.80865547,4 C2.81330652,4 3.0697658,11.0833333 3.0697658,11.0833333 L33.4341856,11.0833333 C33.4341856,11.0833333 33.6924383,7.54166667 32.6970894,7.54166667 Z M19.6065856,19.2293881 L23.0900962,22.7128987 C23.4433069,23.0661094 24.0115868,23.0666235 24.3617741,22.7164361 C24.7144029,22.3638074 24.7103777,21.7968992 24.3582368,21.4447582 L19.5683612,16.6548826 C19.3159621,16.4024836 18.9537418,16.3301826 18.6397567,16.4372518 C18.3247422,16.3289701 17.9621535,16.4025608 17.7098317,16.6548826 L12.9199561,21.4447582 C12.5667455,21.7979688 12.5662314,22.3662488 12.9164187,22.7164361 C13.2690475,23.0690649 13.8359556,23.0650397 14.1880966,22.7128987 L17.8357523,19.0652431 L17.8357523,28.4813468 C17.8357523,28.9746353 18.2321668,29.3641163 18.7211689,29.3641163 C19.2135803,29.3641163 19.6065856,28.9688869 19.6065856,28.4813468 L19.6065856,19.2293881 Z M1.1203166,12.8541667 L34.8796834,12.8541667 C35.4930336,12.8541667 33.597387,32.3333333 32.8853987,32.3333333 L3.11460134,32.3333333 C2.402613,32.3333333 0.506966443,12.8541667 1.1203166,12.8541667 Z"/>
</svg>
