<svg xmlns="http://www.w3.org/2000/svg" width="40" height="40" viewBox="0 0 40 40">
  <g fill="none" fill-rule="evenodd">
    <rect width="1440" height="4000" x="-250" y="-380" fill="#FFFFFF"/>
    <path fill="#20282D" d="M35.5616241,8.75 L20.7234873,8.75 C19.6714874,8.75 14.1057619,5 13.0537619,5 L4.9738705,5 C3.91997161,5 4.19151673,12.5 4.19151673,12.5 L36.3420789,12.5 C36.3420789,12.5 36.615523,8.75 35.5616241,8.75 Z M21.7010907,21.1252345 L25.3895137,24.8136575 C25.7635014,25.1876452 26.3652096,25.1881896 26.7359962,24.817403 C27.1093678,24.4440313 27.1051058,23.8437756 26.7322507,23.4709205 L21.6606177,18.3992875 C21.3933717,18.1320415 21.0098443,18.0554875 20.6773895,18.1688548 C20.3438447,18.0542036 19.9599273,18.1321232 19.6927629,18.3992875 L14.62113,23.4709205 C14.2471422,23.8449082 14.2465979,24.4466164 14.6173845,24.817403 C14.9907561,25.1907746 15.5910118,25.1865127 15.963867,24.8136575 L19.8260907,20.9514338 L19.8260907,30.921426 C19.8260907,31.4437315 20.2458237,31.8561231 20.7635907,31.8561231 C21.2849674,31.8561231 21.7010907,31.437645 21.7010907,30.921426 L21.7010907,21.1252345 Z M2.12739405,14.375 L37.8726059,14.375 C38.5220355,14.375 36.5148804,35 35.7610103,35 L4.23898966,35 C3.48511964,35 1.47796447,14.375 2.12739405,14.375 Z"/>
  </g>
</svg>
