<svg width="37" height="30" viewBox="0 0 37 30" version="1.1" xmlns="http://www.w3.org/2000/svg" xmlns:xlink="http://www.w3.org/1999/xlink" xmlns:figma="http://www.figma.com/figma/ns">
<title>yes</title>
<desc>Created using Figma</desc>
<g id="Canvas" transform="translate(153 -371)" figma:type="canvas">
<g id="yes" figma:type="frame">
<mask id="mask0_outline" mask-type="alpha">
<g id="yes" figma:type="vector">
<use xlink:href="#path0_fill" transform="translate(-152.78 371.306)" fill="#20282D"/>
</g>
</mask>
<g id="yes" mask="url(#mask0_outline)" figma:type="vector">
<use xlink:href="#path0_fill" transform="translate(-152.78 371.306)" fill="#20282D"/>
</g>
</g>
</g>
<defs>
<path id="path0_fill" fill-rule="evenodd" d="M 30.7576 1.09017L 13.6029 22.2769L 5.04055 13.7135C 3.88105 12.555 2.01326 12.555 0.861227 13.7071C -0.288673 14.857 -0.287606 16.7301 0.867628 17.8875L 11.6199 28.6398C 11.8525 28.8723 12.1138 29.0579 12.3922 29.1966C 13.6253 29.9091 15.2307 29.6414 16.1555 28.499L 35.3444 4.80441C 36.3684 3.53824 36.1711 1.68325 34.9049 0.658153C 34.3587 0.215473 33.7017 0 33.0488 0C 32.1901 0 31.3389 0.372277 30.7576 1.09017Z"/>
</defs>
</svg>
