<?xml version="1.0" encoding="utf-8"?>
<!-- Generator: Adobe Illustrator 22.0.1, SVG Export Plug-In . SVG Version: 6.00 Build 0)  -->
<svg version="1.1" id="Layer_1" xmlns="http://www.w3.org/2000/svg" xmlns:xlink="http://www.w3.org/1999/xlink" x="0px" y="0px"
	 width="24px" height="24px" viewBox="0 0 24 24" style="enable-background:new 0 0 24 24;" xml:space="preserve">
<style type="text/css">
	.st0{opacity:0;}
	.st1{fill:#FFFFFF;}
</style>
<g class="st0">
	<rect class="st1" width="1" height="23"/>
	<rect x="11.5" y="11.5" transform="matrix(-1.836970e-16 1 -1 -1.836970e-16 35.5 11.5)" class="st1" width="1" height="24"/>
</g>
<path d="M19,2H5C3.345703,2,2,3.345703,2,5v11l0.00177,1H2v5l1.139343-0.854492l0.006165,0.00293l0.401978-0.309082L6,19h13
	c1.654297,0,3-1.345703,3-3V5C22,3.345703,20.654297,2,19,2z M20,16c0,0.551758-0.448242,1-1,1H6H5.260254H5l-1,1v-1V5
	c0-0.55127,0.44873-1,1-1h14c0.551758,0,1,0.44873,1,1V16z"/>
</svg>
