<?xml version="1.0" encoding="utf-8"?>
<!-- Generator: Adobe Illustrator 22.0.1, SVG Export Plug-In . SVG Version: 6.00 Build 0)  -->
<svg version="1.1" id="Layer_1" xmlns="http://www.w3.org/2000/svg" xmlns:xlink="http://www.w3.org/1999/xlink" x="0px" y="0px"
	 width="24px" height="24px" viewBox="0 0 24 24" style="enable-background:new 0 0 24 24;" xml:space="preserve">
<style type="text/css">
	.st0{display:none;opacity:0;}
	.st1{display:inline;fill:#FFFFFF;}
</style>
<g class="st0">
	<rect class="st1" width="1" height="23"/>
	<rect x="11.5" y="11.5" transform="matrix(-1.836970e-16 1 -1 -1.836970e-16 35.5 11.5)" class="st1" width="1" height="24"/>
</g>
<path d="M17.5,15c-2.485291,0-4.5,2.014709-4.5,4.5s2.014709,4.5,4.5,4.5s4.5-2.014709,4.5-4.5S19.985291,15,17.5,15z
	 M17.125,21.587891l-2.104492-2.105469l0.847656-0.847656L17.125,19.890625l2.326172-2.325195l0.847656,0.847656L17.125,21.587891z"
	/>
<rect x="6" y="7" width="4" height="2"/>
<rect x="6" y="11" width="8" height="2"/>
<path d="M11,20.000427l-7,0.000549V4h8v4h4v5h2V6.585938L13.414063,2H4C2.896973,2,2,2.896973,2,4v16c0,1.102539,0.896973,2,2,2h7
	V20.000427z"/>
</svg>
