<?xml version="1.0" encoding="utf-8"?>
<!-- Generator: Adobe Illustrator 22.0.1, SVG Export Plug-In . SVG Version: 6.00 Build 0)  -->
<svg version="1.1" id="Layer_1" xmlns="http://www.w3.org/2000/svg" xmlns:xlink="http://www.w3.org/1999/xlink" x="0px" y="0px"
	 width="24px" height="24px" viewBox="0 0 24 24" style="enable-background:new 0 0 24 24;" xml:space="preserve">
<style type="text/css">
	.st0{display:none;opacity:0;}
	.st1{display:inline;}
	.st2{fill:#FFFFFF;}
</style>
<g class="st0">
	<g class="st1">
		<rect class="st2" width="1" height="23"/>
	</g>
	<g class="st1">
		<rect x="11.5" y="11.5" transform="matrix(-1.836970e-16 1 -1 -1.836970e-16 35.5 11.5)" class="st2" width="1" height="24"/>
	</g>
</g>
<path d="M4,20v-4.269348l0.024902,0.029114l5.369263-4.593872l5.963257,6.408325
	c0.196289,0.209961,0.463867,0.318359,0.732422,0.318359c0.211914,0,0.424805-0.067383,0.605469-0.204102l5.285156-4.017578
	l-1.210938-1.591797l-4.564453,3.469727l-5.289856-5.684326l1.599915-1.368896l3.003418,3.09375
	c0.361328,0.37207,0.947266,0.405762,1.348633,0.07959l3.918945-3.188477l-1.261719-1.551758L16.31543,9.539063l-3.019531-3.110352
	c-0.367676-0.379883-0.968262-0.405762-1.367188-0.063477L9.551575,8.39917L7.731934,6.443848
	C7.55127,6.249512,7.300293,6.134766,7.035156,6.125488C6.775391,6.124512,6.512207,6.213379,6.317871,6.394043L4,8.557373V2H2v19
	c0,0.552734,0.447754,1,1,1h19v-2H4z M6.950195,8.539551L8.03064,9.700623L4,13.149353v-1.85675L6.950195,8.539551z"/>
</svg>
