<?xml version="1.0" encoding="utf-8"?>
<!-- Generator: Adobe Illustrator 22.0.1, SVG Export Plug-In . SVG Version: 6.00 Build 0)  -->
<svg version="1.1" id="Layer_1" xmlns="http://www.w3.org/2000/svg" xmlns:xlink="http://www.w3.org/1999/xlink" x="0px" y="0px"
	 width="24px" height="24px" viewBox="0 0 24 24" style="enable-background:new 0 0 24 24;" xml:space="preserve">
<style type="text/css">
	.st0{display:none;opacity:0;}
	.st1{display:inline;fill:#FFFFFF;}
</style>
<g class="st0">
	<rect class="st1" width="0.9375" height="24"/>
	
		<rect x="11.53125" y="11.53125" transform="matrix(-1.836970e-16 1 -1 -1.836970e-16 35.53125 11.53125)" class="st1" width="0.9375" height="24"/>
</g>
<g>
	<path d="M19.867615,19.913208c0.614502-0.773804,0.977661-1.708923,0.977661-2.719299
		c0-2.654297-2.482788-4.806091-5.54541-4.806091c-3.062683,0-5.545471,2.151794-5.545471,4.806091S12.237183,22,15.299866,22
		h6.654541L19.867615,19.913208z"/>
	<path d="M19.481873,11.544678c0.160339-0.558228,0.254333-1.139343,0.254333-1.740906
		c0-3.981506-3.724182-7.209106-8.318176-7.209106s-8.318176,3.2276-8.318176,7.209106
		c0,1.639709,0.638916,3.146545,1.70282,4.357727l-2.851318,2.851318h5.792419c0.107788-3.668823,3.442383-6.625,7.535217-6.625
		C16.833801,10.387817,18.279846,10.814697,19.481873,11.544678z"/>
</g>
</svg>
