<?xml version="1.0" encoding="utf-8"?>
<!-- Generator: Adobe Illustrator 22.0.1, SVG Export Plug-In . SVG Version: 6.00 Build 0)  -->
<svg version="1.1" id="Layer_1" xmlns="http://www.w3.org/2000/svg" xmlns:xlink="http://www.w3.org/1999/xlink" x="0px" y="0px"
	 width="24px" height="24px" viewBox="0 0 24 24" style="enable-background:new 0 0 24 24;" xml:space="preserve">
<style type="text/css">
	.st0{display:none;opacity:0;}
	.st1{display:inline;fill:#FFFFFF;}
</style>
<g class="st0">
	<rect class="st1" width="0.9375" height="24"/>
	
		<rect x="11.53125" y="11.53125" transform="matrix(-1.836970e-16 1 -1 -1.836970e-16 35.53125 11.53125)" class="st1" width="0.9375" height="24"/>
</g>
<path d="M21.514038,10.821411l-1.364075-1.36377c-0.32373-0.323792-0.588989-0.963562-0.588989-1.422302V6.106567
	c0-0.917542-0.749512-1.667053-1.666809-1.667542h-1.929504c-0.458252,0-1.098755-0.265747-1.422546-0.589233l-1.36377-1.36377
	c-0.64801-0.64801-1.709045-0.64801-2.357056,0L9.45752,3.850769C9.133545,4.1745,8.492249,4.439514,8.035034,4.439514H6.106201
	c-0.91626,0-1.666748,0.749512-1.666748,1.667053v1.928772c0,0.457031-0.265259,1.098755-0.58905,1.422302l-1.364014,1.36377
	c-0.648499,0.64801-0.648499,1.709045,0,2.358032l1.364014,1.36377c0.324036,0.32373,0.58905,0.965271,0.58905,1.422302v1.928772
	c0,0.916504,0.750488,1.667053,1.666748,1.667053h1.928833c0.458252,0,1.098755,0.265198,1.422485,0.588745l1.36377,1.364258
	c0.64801,0.647522,1.709045,0.647522,2.357056,0l1.36377-1.364258c0.324036-0.323792,0.964294-0.588745,1.422546-0.588745h1.929504
	c0.917297,0,1.666809-0.750549,1.666809-1.667053v-1.928772c0-0.459045,0.265503-1.098816,0.588989-1.422302l1.364075-1.36377
	C22.161499,12.530457,22.161499,11.469421,21.514038,10.821411z M11.236328,16.331055l-3.867188-3.867188l1.414063-1.414063
	l2.453125,2.453125l4.639648-4.640625l1.414063,1.414063L11.236328,16.331055z"/>
</svg>
