<?xml version="1.0" encoding="utf-8"?>
<!-- Generator: Adobe Illustrator 22.0.1, SVG Export Plug-In . SVG Version: 6.00 Build 0)  -->
<svg version="1.1" id="Layer_1" xmlns="http://www.w3.org/2000/svg" xmlns:xlink="http://www.w3.org/1999/xlink" x="0px" y="0px"
	 width="24px" height="24px" viewBox="0 0 24 24" style="enable-background:new 0 0 24 24;" xml:space="preserve">
<style type="text/css">
	.st0{display:none;opacity:0;}
	.st1{display:inline;fill:#FFFFFF;}
</style>
<g class="st0">
	<rect class="st1" width="0.9375" height="24"/>
	
		<rect x="11.53125" y="11.53125" transform="matrix(-1.836970e-16 1 -1 -1.836970e-16 35.53125 11.53125)" class="st1" width="0.9375" height="24"/>
</g>
<path d="M22,3.993164C21.996094,2.894043,21.098633,2,20,2H3.966797C3.431152,2,2.928223,2.208984,2.549805,2.588379
	c-0.37793,0.379395-0.584961,0.882813-0.583008,1.417969L2,16.080078c0.003906,1.098633,0.900879,1.993164,2,1.993164h4.85553
	l-0.267639,2H7v2h10v-2h-1.55957l-0.267639-2h4.860413c0.535156,0,1.038086-0.208984,1.416992-0.587891
	c0.37793-0.379883,0.584961-0.883789,0.583008-1.418945L22,3.993164z M10.605896,20.073242l0.267578-2h2.281372l0.267578,2
	H10.605896z M11,15.44812c0-0.552307,0.447693-1,1-1s1,0.447693,1,1s-0.447693,1-1,1S11,16.000427,11,15.44812z M3.99176,13
	L3.966797,4L20,3.999512L20.024963,13H3.99176z"/>
</svg>
