<?xml version="1.0" encoding="utf-8"?>
<!-- Generator: Adobe Illustrator 22.0.1, SVG Export Plug-In . SVG Version: 6.00 Build 0)  -->
<svg version="1.1" id="Layer_1" xmlns="http://www.w3.org/2000/svg" xmlns:xlink="http://www.w3.org/1999/xlink" x="0px" y="0px"
	 width="24px" height="24px" viewBox="0 0 24 24" style="enable-background:new 0 0 24 24;" xml:space="preserve">
<style type="text/css">
	.st0{display:none;opacity:0;}
	.st1{display:inline;fill:#FFFFFF;}
</style>
<g class="st0">
	<rect class="st1" width="0.9375" height="24"/>
	
		<rect x="11.53125" y="11.53125" transform="matrix(-1.836970e-16 1 -1 -1.836970e-16 35.53125 11.53125)" class="st1" width="0.9375" height="24"/>
</g>
<g>
	<polygon points="8,10 12,14 16,10 13,10 13,3 11,3 11,10 	"/>
	<path d="M21.936523,14.648438l-3-7.999512C18.790039,6.258789,18.416992,6,18,6h-3v2h2.306641l2.625244,7H4.068115l2.624756-7H9V6
		H6C5.583008,6,5.209961,6.258789,5.063477,6.648926l-3,7.999512C2.021484,14.760742,2,14.879883,2,15v5c0,1.102539,0.896973,2,2,2
		h16c1.102539,0,2-0.897461,2-2v-5C22,14.879883,21.978516,14.760742,21.936523,14.648438z M18.75,19c-0.552307,0-1-0.447754-1-1
		c0-0.552307,0.447693-1,1-1s1,0.447693,1,1C19.75,18.552246,19.302307,19,18.75,19z"/>
</g>
</svg>
