<?xml version="1.0" encoding="utf-8"?>
<!-- Generator: Adobe Illustrator 22.0.1, SVG Export Plug-In . SVG Version: 6.00 Build 0)  -->
<svg version="1.1" id="Layer_1" xmlns="http://www.w3.org/2000/svg" xmlns:xlink="http://www.w3.org/1999/xlink" x="0px" y="0px"
	 width="24px" height="24px" viewBox="0 0 24 24" style="enable-background:new 0 0 24 24;" xml:space="preserve">
<style type="text/css">
	.st0{display:none;opacity:0;}
	.st1{display:inline;fill:#FFFFFF;}
</style>
<g class="st0">
	<rect class="st1" width="0.958333" height="24"/>
	
		<rect x="11.520833" y="11.520833" transform="matrix(-1.836970e-16 1 -1 -1.836970e-16 35.520832 11.520833)" class="st1" width="0.958333" height="24"/>
</g>
<g>
	<path d="M13,16H3V6.399902l8.000977,5.838867L19,6.380249V12h2V5c0-1.104614-0.895447-2-2-2H3C1.895447,3,1,3.895386,1,5v11
		c0,1.104553,0.895447,2,2,2h10V16z M17.500061,5l-6.501038,4.76123L4.473999,5H17.500061z"/>
	<path d="M21.897095,19.416504c-0.359436-0.193909-0.583435-0.569397-0.583435-0.977783v-0.64917v-1.193054
		c0-1.546387-1.063721-3.114319-2.49707-3.478882c0,0-0.316589-0.107361-0.816589-0.107361
		c-0.498047,0-0.81366,0.107361-0.81366,0.107361c-1.431885,0.365967-2.519653,1.93396-2.519653,3.480347v1.191589v0.653564
		c0,0.40686-0.222351,0.781128-0.57959,0.975769L13,20.011047v0.994141h10V20.01178L21.897095,19.416504z"/>
	<path d="M18,23c0.614258,0,1.111084-0.437439,1.111084-0.978271h-2.222168C16.888916,22.561829,17.385742,23,18,23z"/>
</g>
</svg>
