<?xml version="1.0" encoding="utf-8"?>
<!-- Generator: Adobe Illustrator 22.0.1, SVG Export Plug-In . SVG Version: 6.00 Build 0)  -->
<svg version="1.1" id="Layer_1" xmlns="http://www.w3.org/2000/svg" xmlns:xlink="http://www.w3.org/1999/xlink" x="0px" y="0px"
	 width="24px" height="24px" viewBox="0 0 24 24" style="enable-background:new 0 0 24 24;" xml:space="preserve">
<style type="text/css">
	.st0{display:none;opacity:0;}
	.st1{display:inline;fill:#FFFFFF;}
</style>
<g class="st0">
	<rect class="st1" width="0.958333" height="24"/>
	
		<rect x="11.520833" y="11.520833" transform="matrix(-1.836970e-16 1 -1 -1.836970e-16 35.520832 11.520833)" class="st1" width="0.958333" height="24"/>
</g>
<g>
	<path d="M22,5c0-1.654297-1.345703-3-3-3H5C3.345703,2,2,3.345703,2,5v14c0,1.654297,1.345703,3,3,3h14c1.654297,0,3-1.345703,3-3
		v-5.166687L20,15.5V19c0,0.551758-0.448242,1-1,1H5c-0.55127,0-1-0.448242-1-1V6h16v3.515625l2,1.677063V5z"/>
	<path d="M21.368103,12.577271L16.977173,8.625v2.197815C13.048523,10.847473,10,13.44519,10,18
		c0.768311-2.158997,2.817383-3.666321,6.147278-3.666321h0.829895v2.195923L21.368103,12.577271z"/>
</g>
</svg>
