<?xml version="1.0" encoding="utf-8"?>
<!-- Generator: Adobe Illustrator 22.0.1, SVG Export Plug-In . SVG Version: 6.00 Build 0)  -->
<svg version="1.1" id="Layer_1" xmlns="http://www.w3.org/2000/svg" xmlns:xlink="http://www.w3.org/1999/xlink" x="0px" y="0px"
	 width="24px" height="24px" viewBox="0 0 24 24" style="enable-background:new 0 0 24 24;" xml:space="preserve">
<style type="text/css">
	.st0{display:none;opacity:0;}
	.st1{display:inline;fill:#FFFFFF;}
</style>
<g class="st0">
	<rect class="st1" width="0.958333" height="24"/>
	
		<rect x="11.520833" y="11.520833" transform="matrix(-1.836970e-16 1 -1 -1.836970e-16 35.520832 11.520833)" class="st1" width="0.958333" height="24"/>
</g>
<g>
	<path d="M12,4.299988C5.400024,4.299988,1,12,1,12s4.400024,7.700012,11,7.700012S23,12,23,12S18.599976,4.299988,12,4.299988z
		 M12,17.5c-3.037537,0-5.5-2.462463-5.5-5.5c0-3.037598,2.462463-5.5,5.5-5.5s5.5,2.462402,5.5,5.5
		C17.5,15.037537,15.037537,17.5,12,17.5z"/>
	<path d="M14.200012,10.899963c-0.607544,0-1.100037-0.492493-1.100037-1.099976c0-0.299988,0.121582-0.570679,0.316284-0.769104
		C12.985657,8.824951,12.509216,8.700012,12,8.700012c-1.82251,0-3.299988,1.477417-3.299988,3.299988
		c0,1.82251,1.477478,3.299988,3.299988,3.299988S15.299988,13.82251,15.299988,12c0-0.509216-0.124878-0.985718-0.330872-1.416382
		C14.770691,10.77832,14.5,10.899963,14.200012,10.899963z"/>
</g>
</svg>
