<?xml version="1.0" encoding="utf-8"?>
<!-- Generator: Adobe Illustrator 22.0.1, SVG Export Plug-In . SVG Version: 6.00 Build 0)  -->
<svg version="1.1" id="Layer_1" xmlns="http://www.w3.org/2000/svg" xmlns:xlink="http://www.w3.org/1999/xlink" x="0px" y="0px"
	 width="24px" height="24px" viewBox="0 0 24 24" style="enable-background:new 0 0 24 24;" xml:space="preserve">
<style type="text/css">
	.st0{display:none;opacity:0;}
	.st1{display:inline;fill:#FFFFFF;}
</style>
<g class="st0">
	<rect class="st1" width="0.958333" height="24"/>
	
		<rect x="11.520833" y="11.520833" transform="matrix(-1.836970e-16 1 -1 -1.836970e-16 35.520832 11.520833)" class="st1" width="0.958333" height="24"/>
</g>
<path d="M19,3H5C3.895447,3,3,3.895386,3,5v14c0,1.104553,0.895447,2,2,2h14c1.104553,0,2-0.895447,2-2V5
	C21,3.895386,20.104553,3,19,3z M15,7.972229h-1.400024C13.268616,7.972229,13,8.240845,13,8.572205V10h2v2h-2v6h-2v-6H9v-2h2
	V9.135559V8.57489c0-1.437439,1.165222-2.602661,2.602661-2.602661H15V7.972229z"/>
</svg>
