<?xml version="1.0" encoding="utf-8"?>
<!-- Generator: Adobe Illustrator 22.0.1, SVG Export Plug-In . SVG Version: 6.00 Build 0)  -->
<svg version="1.1" id="Layer_1" xmlns="http://www.w3.org/2000/svg" xmlns:xlink="http://www.w3.org/1999/xlink" x="0px" y="0px"
	 width="24px" height="24px" viewBox="0 0 24 24" style="enable-background:new 0 0 24 24;" xml:space="preserve">
<style type="text/css">
	.st0{opacity:0;}
	.st1{fill:#FFFFFF;}
</style>
<g class="st0">
	<rect class="st1" width="1" height="23"/>
	<rect x="11.5" y="11.5" transform="matrix(-1.836970e-16 1 -1 -1.836970e-16 35.5 11.5)" class="st1" width="1" height="24"/>
</g>
<path d="M23.421875,7.959473L12,0.820801L0.578125,7.959473l1.05957,1.696289L3,8.804321V19c0,1.654297,1.345703,3,3,3h2h8h2
	c1.654297,0,3-1.345703,3-3V8.80481l1.361328,0.850952L23.421875,7.959473z M10,20v-7h4v7H10z M19,19c0,0.551758-0.448242,1-1,1h-2
	v-9H8v9H6c-0.55127,0-1-0.448242-1-1V7.55426l7-4.375061l7,4.375488V19z"/>
</svg>
