<?xml version="1.0" encoding="utf-8"?>
<!-- Generator: Adobe Illustrator 22.0.1, SVG Export Plug-In . SVG Version: 6.00 Build 0)  -->
<svg version="1.1" id="Layer_1" xmlns="http://www.w3.org/2000/svg" xmlns:xlink="http://www.w3.org/1999/xlink" x="0px" y="0px"
	 width="24px" height="24px" viewBox="0 0 24 24" style="enable-background:new 0 0 24 24;" xml:space="preserve">
<style type="text/css">
	.st0{display:none;opacity:0;}
	.st1{display:inline;fill:#FFFFFF;}
</style>
<g class="st0">
	<rect class="st1" width="0.958333" height="24"/>
	
		<rect x="11.520833" y="11.520833" transform="matrix(-1.836970e-16 1 -1 -1.836970e-16 35.520832 11.520833)" class="st1" width="0.958333" height="24"/>
</g>
<g>
	<path d="M21,7c0-1.104614-0.895447-2-2-2h-7l-2-2H4C3.447693,3,3,3.447693,3,4v4h18V7z"/>
	<path d="M1,9l1.860718,11.164368C2.941101,20.646545,3.358276,21,3.847107,21h9.726868
		c-0.384216-0.750671-0.605225-1.598816-0.605225-2.5c0-3.037598,2.462463-5.5,5.5-5.5
		c1.395081,0,2.665039,0.523621,3.634644,1.379639L23,9H1z"/>
	<polygon points="19.119141,15.125 17.919922,15.125 17.919922,17.962891 15.125,17.962891 15.125,19.162109 17.919922,19.162109 
		17.919922,22 19.119141,22 19.119141,19.162109 22,19.162109 22,17.962891 19.119141,17.962891 	"/>
</g>
</svg>
