<?xml version="1.0" encoding="utf-8"?>
<!-- Generator: Adobe Illustrator 22.0.1, SVG Export Plug-In . SVG Version: 6.00 Build 0)  -->
<svg version="1.1" id="Layer_1" xmlns="http://www.w3.org/2000/svg" xmlns:xlink="http://www.w3.org/1999/xlink" x="0px" y="0px"
	 width="24px" height="24px" viewBox="0 0 24 24" style="enable-background:new 0 0 24 24;" xml:space="preserve">
<style type="text/css">
	.st0{display:none;opacity:0;}
	.st1{display:inline;fill:#FFFFFF;}
</style>
<g class="st0">
	<rect class="st1" width="0.9375" height="24"/>
	
		<rect x="11.53125" y="11.53125" transform="matrix(-1.836970e-16 1 -1 -1.836970e-16 35.53125 11.53125)" class="st1" width="0.9375" height="24"/>
</g>
<g>
	<path d="M9.026855,17.946289C7.90918,17.946289,7,18.855469,7,19.972656C7,21.09082,7.90918,22,9.026855,22
		s2.027344-0.90918,2.027344-2.027344C11.054199,18.855469,10.144531,17.946289,9.026855,17.946289z"/>
	<path d="M17.972656,17.946289c-1.117188,0-2.026367,0.90918-2.026367,2.026367C15.946289,21.09082,16.855469,22,17.972656,22
		C19.09082,22,20,21.09082,20,19.972656C20,18.855469,19.09082,17.946289,17.972656,17.946289z"/>
	<path d="M7.327332,3.789551L6.966797,2.820313C6.728516,2.322266,6.218262,2,5.666504,2H3.004883v2h2.270996l3.075195,8.277832
		L7.10498,14.192383c-0.318359,0.587891-0.304199,1.282227,0.038086,1.856445
		c0.342285,0.575195,0.945801,0.917969,1.614746,0.917969H20v-2H8.983887L10.267029,13H18c1.654297,0,3-1.345703,3-3V3.789551
		H7.327332z M19,10c0,0.55127-0.448242,1-1,1h-7.990723L8.071228,5.789551H19V10z"/>
</g>
</svg>
