<?xml version="1.0" encoding="utf-8"?>
<!-- Generator: Adobe Illustrator 22.0.1, SVG Export Plug-In . SVG Version: 6.00 Build 0)  -->
<svg version="1.1" id="Layer_1" xmlns="http://www.w3.org/2000/svg" xmlns:xlink="http://www.w3.org/1999/xlink" x="0px" y="0px"
	 width="24px" height="24px" viewBox="0 0 24 24" style="enable-background:new 0 0 24 24;" xml:space="preserve">
<style type="text/css">
	.st0{display:none;opacity:0;}
	.st1{display:inline;fill:#FFFFFF;}
</style>
<g class="st0">
	<rect class="st1" width="0.958333" height="24"/>
	
		<rect x="11.520833" y="11.520833" transform="matrix(-1.836970e-16 1 -1 -1.836970e-16 35.520832 11.520833)" class="st1" width="0.958333" height="24"/>
</g>
<path d="M12,2C6.477173,2,2,6.477112,2,12c0,5.522827,4.477173,10,10,10s10-4.477173,10-10C22,6.477112,17.522827,2,12,2z
	 M12,5.333313c0.920471,0,1.666687,0.746216,1.666687,1.666687S12.920471,8.666626,12,8.666626S10.333313,7.920471,10.333313,7
	S11.079529,5.333313,12,5.333313z M14.222229,10.888855c-0.613647,0-1.111145,0.497498-1.111145,1.111145v3.333313
	c0,0.613647,0.497498,1.111145,1.111145,1.111145v1.111084h-1.111145h-2.222168H9.777771v-1.111084
	c0.613647,0,1.111145-0.497498,1.111145-1.111145V12c0-0.613647-0.497498-1.111145-1.111145-1.111145V9.777771h1.111145h2.222168
	h1.111145V10.888855z"/>
</svg>
