<?xml version="1.0" encoding="utf-8"?>
<!-- Generator: Adobe Illustrator 22.0.1, SVG Export Plug-In . SVG Version: 6.00 Build 0)  -->
<svg version="1.1" id="Layer_1" xmlns="http://www.w3.org/2000/svg" xmlns:xlink="http://www.w3.org/1999/xlink" x="0px" y="0px"
	 width="24px" height="24px" viewBox="0 0 24 24" style="enable-background:new 0 0 24 24;" xml:space="preserve">
<style type="text/css">
	.st0{display:none;opacity:0;}
	.st1{display:inline;fill:#FFFFFF;}
</style>
<g class="st0">
	<rect class="st1" width="0.958333" height="24"/>
	
		<rect x="11.520833" y="11.520833" transform="matrix(-1.836970e-16 1 -1 -1.836970e-16 35.520832 11.520833)" class="st1" width="0.958333" height="24"/>
</g>
<g>
	<path d="M19.707031,6.292969L19,5.585938l0,0l-2.586182-2.585693l-0.823853,0.823853l-0.000061-0.000061l0.824219-0.824158
		L15.70697,2.292786C15.519531,2.105286,15.265076,2,14.999878,2H14v1.999756V8h4h0.875H20V7
		C20,6.734863,19.894531,6.480469,19.707031,6.292969z"/>
	<rect x="18" y="9" width="2" height="2.013184"/>
	<rect x="10.987305" y="20.000977" width="2.012695" height="2"/>
	<rect x="7.986816" y="20.000977" width="2.013184" height="2"/>
	<rect x="4" y="9.987305" width="2" height="2.012695"/>
	<rect x="18" y="11.987305" width="2" height="2.012695"/>
	<rect x="4" y="7.112305" width="2" height="1.901367"/>
	<rect x="10.987305" y="2" width="2.012695" height="2"/>
	<rect x="8" y="2" width="2.012695" height="2"/>
	<path d="M5.125366,2.209351L5.12207,2.202637C5.098267,2.214294,5.080994,2.233582,5.0578,2.246033
		c-0.118225,0.063721-0.228333,0.137939-0.33075,0.223206C4.692932,2.497498,4.657349,2.522827,4.625366,2.553101
		C4.512451,2.6604,4.411621,2.779114,4.326172,2.910095C4.301575,2.947876,4.284058,2.988708,4.262085,3.028137
		C4.202637,3.134155,4.153137,3.245056,4.113586,3.361938C4.097534,3.409546,4.081604,3.455933,4.069214,3.504944
		C4.028442,3.664124,4,3.828125,4,4v2h2l0.000977-2H7V2H6C5.684814,2,5.390564,2.079468,5.125366,2.209351z"/>
	<path d="M6,19H4v1.000977c0,0.315186,0.079468,0.609436,0.209351,0.874634l-0.006714,0.003296
		c0.011658,0.023804,0.030945,0.041077,0.043396,0.06427c0.06366,0.118164,0.137817,0.228088,0.223022,0.330505
		c0.02832,0.034241,0.053833,0.069946,0.084229,0.102051c0.107239,0.112793,0.225891,0.213623,0.356812,0.299072
		c0.037781,0.024597,0.078613,0.042114,0.118042,0.064087c0.106018,0.059448,0.216919,0.108948,0.333801,0.148499
		c0.047607,0.016052,0.093994,0.031982,0.143005,0.044373C5.664124,21.972534,5.828125,22.000977,6,22.000977h1v-2L6,20V19z"/>
	<rect x="4" y="13" width="2" height="2.013672"/>
	<path d="M17.999023,20.000977H17v2h1c0.315186,0,0.609436-0.079468,0.874634-0.209351l0.003296,0.006714
		c0.023804-0.011658,0.041077-0.030945,0.06427-0.043396c0.118164-0.06366,0.228088-0.137817,0.330505-0.223022
		c0.034241-0.02832,0.069946-0.053833,0.102051-0.084229c0.112793-0.107239,0.213623-0.225891,0.299072-0.356812
		c0.024597-0.037781,0.042114-0.078613,0.064087-0.118042c0.059448-0.106018,0.108948-0.216919,0.148499-0.333801
		c0.016052-0.047607,0.031982-0.093994,0.044373-0.143005C19.971558,20.336853,20,20.172852,20,20.000977V18h-2L17.999023,20.000977
		z"/>
	<rect x="14" y="20.000977" width="2.012695" height="2"/>
	<rect x="18" y="14.987305" width="2" height="2.012695"/>
	<rect x="4" y="16" width="2" height="2.013672"/>
</g>
</svg>
