<?xml version="1.0" encoding="utf-8"?>
<!-- Generator: Adobe Illustrator 22.0.1, SVG Export Plug-In . SVG Version: 6.00 Build 0)  -->
<svg version="1.1" id="Layer_1" xmlns="http://www.w3.org/2000/svg" xmlns:xlink="http://www.w3.org/1999/xlink" x="0px" y="0px"
	 width="24px" height="24px" viewBox="0 0 24 24" style="enable-background:new 0 0 24 24;" xml:space="preserve">
<style type="text/css">
	.st0{display:none;}
	.st1{display:inline;opacity:0;fill:#FFFFFF;}
</style>
<g class="st0">
	<rect class="st1" width="1.2" height="24"/>
	
		<rect x="11.4" y="11.4" transform="matrix(-1.836970e-16 1 -1 -1.836970e-16 35.400002 11.4)" class="st1" width="1.2" height="24"/>
</g>
<g>
	<path d="M7,8c-1.104553,0-2,0.895386-2,2v11.105408h15c1.104553,0,2-0.895447,2-2V8H7z M13,17.5v-2.400391h-3v-1.199219h3V11.5l3,3
		L13,17.5z"/>
	<path d="M20,7c0-1.104614-0.895447-2-2-2h-8L8,3H3C2.447693,3,2,3.447693,2,4v15v0.105347v1.000061
		c0,0.552246,0.447693,0.999939,1,0.999939s1-0.447693,1-0.999939v-1.000061V19v-9c0-1.654236,1.345764-3,3-3H20z"/>
</g>
</svg>
