<?xml version="1.0" encoding="utf-8"?>
<!-- Generator: Adobe Illustrator 22.0.1, SVG Export Plug-In . SVG Version: 6.00 Build 0)  -->
<svg version="1.1" id="Layer_1" xmlns="http://www.w3.org/2000/svg" xmlns:xlink="http://www.w3.org/1999/xlink" x="0px" y="0px"
	 width="24px" height="24px" viewBox="0 0 24 24" style="enable-background:new 0 0 24 24;" xml:space="preserve">
<style type="text/css">
	.st0{display:none;}
	.st1{display:inline;opacity:0;fill:#FFFFFF;}
</style>
<g class="st0">
	<rect class="st1" width="1.2" height="24"/>
	
		<rect x="11.4" y="11.4" transform="matrix(-1.836970e-16 1 -1 -1.836970e-16 35.400002 11.4)" class="st1" width="1.2" height="24"/>
</g>
<g>
	<circle cx="18" cy="14.979736" r="2"/>
	<path d="M18,17.604736c-1.589722,0-3.025635,0.564087-4,1.333313V22h8v-3.061951
		C21.025635,18.220093,19.641052,17.604736,18,17.604736z"/>
	<path d="M4.808411,8.019226H3.005981l2.96051,2.96051l2.960449-2.96051H6.841858C7.188049,5.749756,9.135437,4,11.5,4V2
		C8.029175,2,5.164734,4.641235,4.808411,8.019226z"/>
	<circle cx="6" cy="14.979736" r="2"/>
	<path d="M2,18.938049V22h8v-3.061951c-0.974365-0.717957-2.358948-1.333313-4-1.333313
		C4.410278,17.604736,2.974365,18.168823,2,18.938049z"/>
	<path d="M17.25,8.72998v0.996094h2V8.727051c-0.000977-0.394531-0.035156-0.787598-0.101563-1.16748l-1.970703,0.34375
		C17.224609,8.172363,17.249023,8.451172,17.25,8.72998z"/>
	<path d="M14.821289,2.404785C14.084961,2.13623,13.310547,2,12.52002,2v2c0.556152,0,1.100098,0.095703,1.617676,0.283691
		L14.821289,2.404785z"/>
	<path d="M16.616211,6.363281l1.732422-1.000977c-0.392578-0.679199-0.898438-1.280762-1.501953-1.788086l-1.287109,1.53125
		C15.985352,5.462891,16.34082,5.88623,16.616211,6.363281z"/>
</g>
</svg>
