<?xml version="1.0" encoding="utf-8"?>
<!-- Generator: Adobe Illustrator 22.0.1, SVG Export Plug-In . SVG Version: 6.00 Build 0)  -->
<svg version="1.1" id="Layer_1" xmlns="http://www.w3.org/2000/svg" xmlns:xlink="http://www.w3.org/1999/xlink" x="0px" y="0px"
	 width="24px" height="24px" viewBox="0 0 24 24" style="enable-background:new 0 0 24 24;" xml:space="preserve">
<style type="text/css">
	.st0{display:none;opacity:0;}
	.st1{display:inline;fill:#FFFFFF;}
</style>
<g class="st0">
	<rect class="st1" width="0.9375" height="24"/>
	
		<rect x="11.53125" y="11.53125" transform="matrix(-1.836970e-16 1 -1 -1.836970e-16 35.53125 11.53125)" class="st1" width="0.9375" height="24"/>
</g>
<g>
	<path d="M12,2C6.48584,2,2,6.48584,2,12c0,5.513672,4.48584,10,10,10c5.513672,0,10-4.486328,10-10C22,6.48584,17.513672,2,12,2z
		 M4,12c0-4.411133,3.588867-8,8-8s8,3.588867,8,8h-1.100586c0-3.804199-3.094727-6.899414-6.898926-6.899414
		c-3.804688,0-6.899902,3.095215-6.899902,6.899414c0,1.305664,0.37207,2.581055,1.060547,3.675781l-0.800659,0.781311
		C4.502014,15.182495,4,13.648926,4,12z M6.68335,17.960999l1.492432-1.457092
		c0.374512-0.365234,0.404297-0.958008,0.067871-1.358398C7.506348,14.266602,7.100586,13.149414,7.100586,12
		c0-2.70166,2.198242-4.899414,4.899902-4.899414S16.899414,9.29834,16.899414,12c0,1.149414-0.40625,2.266602-1.143555,3.145508
		c-0.331055,0.394531-0.307617,0.977539,0.054688,1.344727l1.476257,1.497925C15.875366,19.235718,14.027344,20,12,20
		C9.95813,20,8.09845,19.224548,6.68335,17.960999z"/>
	<path d="M11.31427,10.57959l-0.073242,0.031372l0.005493,0.005371C10.754883,10.884827,10.417419,11.40033,10.417419,12
		c0,0.874023,0.708557,1.582581,1.582581,1.582581c0.608521,0,1.130676-0.347351,1.395447-0.851013l0.003723,0.003662
		l0.021301-0.049683c0.021667-0.044678,0.041138-0.089844,0.058594-0.136719L15,9l-3.548706,1.520813
		C11.404297,10.538269,11.35907,10.557922,11.31427,10.57959z"/>
	<path d="M13,16h-2c-0.552307,0-1,0.447693-1,1c0,0.552246,0.447693,1,1,1h2c0.552307,0,1-0.447754,1-1
		C14,16.447693,13.552307,16,13,16z"/>
</g>
</svg>
