<?xml version="1.0" encoding="utf-8"?>
<!-- Generator: Adobe Illustrator 22.0.1, SVG Export Plug-In . SVG Version: 6.00 Build 0)  -->
<svg version="1.1" id="Layer_1" xmlns="http://www.w3.org/2000/svg" xmlns:xlink="http://www.w3.org/1999/xlink" x="0px" y="0px"
	 width="24px" height="24px" viewBox="0 0 24 24" style="enable-background:new 0 0 24 24;" xml:space="preserve">
<style type="text/css">
	.st0{display:none;}
	.st1{display:inline;opacity:0;fill:#FFFFFF;}
</style>
<g class="st0">
	<rect class="st1" width="1.2" height="24"/>
	
		<rect x="11.4" y="11.4" transform="matrix(-1.836970e-16 1 -1 -1.836970e-16 35.400002 11.4)" class="st1" width="1.2" height="24"/>
</g>
<g>
	<polygon points="18,5 18,2 14,6 18,10 18,7 22,7 22,5 	"/>
	<circle cx="17.5" cy="15.25" r="2.25"/>
	<path d="M13,19.5V22h9v-2.5c-1.09613-0.807678-2.65387-1.5-4.5-1.5C15.711548,18,14.09613,18.634583,13,19.5z"/>
	<circle cx="6.5" cy="4.25" r="2.25"/>
	<path d="M2,8.5V11h9V8.5C9.90387,7.692322,8.34613,7,6.5,7C4.711548,7,3.09613,7.634583,2,8.5z"/>
	<polygon points="6,17 2,17 2,19 6,19 6,22 10,18 6,14 	"/>
</g>
</svg>
