<?xml version="1.0" encoding="utf-8"?>
<!-- Generator: Adobe Illustrator 22.0.1, SVG Export Plug-In . SVG Version: 6.00 Build 0)  -->
<svg version="1.1" id="Layer_1" xmlns="http://www.w3.org/2000/svg" xmlns:xlink="http://www.w3.org/1999/xlink" x="0px" y="0px"
	 width="24px" height="24px" viewBox="0 0 24 24" style="enable-background:new 0 0 24 24;" xml:space="preserve">
<style type="text/css">
	.st0{display:none;opacity:0;}
	.st1{display:inline;fill:#FFFFFF;}
</style>
<g class="st0">
	<rect class="st1" width="0.958333" height="24"/>
	
		<rect x="11.520833" y="11.520833" transform="matrix(-1.836970e-16 1 -1 -1.836970e-16 35.520832 11.520833)" class="st1" width="0.958333" height="24"/>
</g>
<g>
	<path d="M7,8c-1.104553,0-2,0.895386-2,2v11.105408h15c1.104553,0,2-0.895447,2-2V8H7z M13.5,10.875
		c0.966492,0,1.75,0.783508,1.75,1.75s-0.783508,1.75-1.75,1.75s-1.75-0.783508-1.75-1.75S12.533508,10.875,13.5,10.875z M17,17.875
		h-7v-1.786499c0.852539-0.673035,2.108948-1.166626,3.5-1.166626c1.435913,0,2.647461,0.538452,3.5,1.166626V17.875z"/>
	<path d="M20,7.019592V7c0-1.104614-0.895447-2-2-2h-8L8,3H3C2.447693,3,2,3.447693,2,4v15v0.105347v1.000061
		c0,0.552246,0.447693,0.999939,1,0.999939s1-0.447693,1-0.999939v-1.000061V19v-8.980408c0-1.654236,1.345764-3,3-3H20z"/>
</g>
</svg>
