<?xml version="1.0" encoding="utf-8"?>
<!-- Generator: Adobe Illustrator 22.0.1, SVG Export Plug-In . SVG Version: 6.00 Build 0)  -->
<svg version="1.1" id="Layer_1" xmlns="http://www.w3.org/2000/svg" xmlns:xlink="http://www.w3.org/1999/xlink" x="0px" y="0px"
	 width="24px" height="24px" viewBox="0 0 24 24" style="enable-background:new 0 0 24 24;" xml:space="preserve">
<style type="text/css">
	.st0{display:none;}
	.st1{display:inline;opacity:0;fill:#FFFFFF;}
</style>
<g class="st0">
	<rect class="st1" width="1.2" height="24"/>
	
		<rect x="11.4" y="11.4" transform="matrix(-1.836970e-16 1 -1 -1.836970e-16 35.400002 11.4)" class="st1" width="1.2" height="24"/>
</g>
<path d="M12,2C6.477173,2,2,6.477112,2,12c0,5.522827,4.477173,10,10,10s10-4.477173,10-10C22,6.477112,17.522827,2,12,2z M12,19
	c-0.77887,0-1.410278-0.631409-1.410278-1.410278S11.22113,16.179443,12,16.179443s1.410278,0.631409,1.410278,1.410278
	S12.77887,19,12,19z M14.060547,11.125C13.386719,11.637207,13,12.391602,13,13.193359V14.625h-2v-1.431641
	c0-1.432617,0.674805-2.766602,1.851074-3.660645c0.362793-0.275879,0.687012-0.818848,0.507324-1.515137
	c-0.119141-0.459473-0.506836-0.847656-0.966797-0.966309c-0.45459-0.118164-0.899902-0.031738-1.253418,0.242676
	c-0.347656,0.269531-0.547363,0.67627-0.547363,1.115234V9h-2V8.40918c0-1.0625,0.481934-2.044922,1.322754-2.696289
	s1.925293-0.871094,2.978027-0.598145c1.161133,0.299805,2.104492,1.243164,2.40332,2.40332
	C15.644531,8.873535,15.160156,10.289551,14.060547,11.125z"/>
</svg>
