<?xml version="1.0" encoding="utf-8"?>
<!-- Generator: Adobe Illustrator 22.0.1, SVG Export Plug-In . SVG Version: 6.00 Build 0)  -->
<svg version="1.1" id="Layer_1" xmlns="http://www.w3.org/2000/svg" xmlns:xlink="http://www.w3.org/1999/xlink" x="0px" y="0px"
	 width="24px" height="24px" viewBox="0 0 24 24" style="enable-background:new 0 0 24 24;" xml:space="preserve">
<style type="text/css">
	.st0{display:none;opacity:0;}
	.st1{display:inline;fill:#FFFFFF;}
</style>
<g class="st0">
	<rect class="st1" width="0.9375" height="24"/>
	
		<rect x="11.53125" y="11.53125" transform="matrix(-1.836970e-16 1 -1 -1.836970e-16 35.53125 11.53125)" class="st1" width="0.9375" height="24"/>
</g>
<path d="M20,4h-2V2h-2v2H8V2H6v2H4C2.896973,4,2,4.896973,2,6v14c0,1.102539,0.896973,2,2,2h16c1.102539,0,2-0.897461,2-2V6
	C22,4.896973,21.102539,4,20,4z M8,15H5v-3h3V15z M13,15h-3v-3h3V15z M20,9H4V6l2-0.000183V6h2V5.999634l8-0.000732V6h2V5.998718
	l2-0.000183V9z"/>
</svg>
