<?xml version="1.0" encoding="utf-8"?>
<!-- Generator: Adobe Illustrator 22.0.1, SVG Export Plug-In . SVG Version: 6.00 Build 0)  -->
<svg version="1.1" id="Layer_1" xmlns="http://www.w3.org/2000/svg" xmlns:xlink="http://www.w3.org/1999/xlink" x="0px" y="0px"
	 width="24px" height="24px" viewBox="0 0 24 24" style="enable-background:new 0 0 24 24;" xml:space="preserve">
<style type="text/css">
	.st0{display:none;opacity:0;}
	.st1{display:inline;fill:#FFFFFF;}
</style>
<g class="st0">
	<rect class="st1" width="0.958333" height="24"/>
	
		<rect x="11.520833" y="11.520833" transform="matrix(-1.836970e-16 1 -1 -1.836970e-16 35.520832 11.520833)" class="st1" width="0.958333" height="24"/>
</g>
<g>
	<path d="M21,10h-1h-2h-6c-0.552307,0-1,0.447693-1,1v4v2v1c0,0.552246,0.447693,1,1,1h4.25L20,22v-3h1c0.552307,0,1-0.447754,1-1
		v-7C22,10.447693,21.552307,10,21,10z"/>
	<path d="M4,4h14v4h2V4c0-1.103027-0.897461-2-2-2H4C2.896973,2,2,2.896973,2,4v11c0,1.102539,0.896973,2,2,2v3l3.599976-3H9v-2H4V4
		z"/>
</g>
</svg>
