<?xml version="1.0" encoding="utf-8"?>
<!-- Generator: Adobe Illustrator 22.0.1, SVG Export Plug-In . SVG Version: 6.00 Build 0)  -->
<svg version="1.1" id="Layer_1" xmlns="http://www.w3.org/2000/svg" xmlns:xlink="http://www.w3.org/1999/xlink" x="0px" y="0px"
	 width="24px" height="24px" viewBox="0 0 24 24" style="enable-background:new 0 0 24 24;" xml:space="preserve">
<style type="text/css">
	.st0{display:none;opacity:0;}
	.st1{display:inline;fill:#FFFFFF;}
</style>
<g class="st0">
	<rect class="st1" width="0.9375" height="24"/>
	
		<rect x="11.53125" y="11.53125" transform="matrix(-1.836970e-16 1 -1 -1.836970e-16 35.53125 11.53125)" class="st1" width="0.9375" height="24"/>
</g>
<g>
	<polygon points="12,14 17,9 14,9 14,3 10,3 10,9 7,9 	"/>
	<path d="M20,13h-4l-4,4l-4-4H4c-1.103027,0-2,0.897461-2,2v4c0,1.102539,0.896973,2,2,2h16c1.102539,0,2-0.897461,2-2v-4
		C22,13.897461,21.102539,13,20,13z M18,17.875c-0.552307,0-1-0.447754-1-1c0-0.552307,0.447693-1,1-1s1,0.447693,1,1
		C19,17.427246,18.552307,17.875,18,17.875z"/>
</g>
</svg>
