<?xml version="1.0" encoding="utf-8"?>
<!-- Generator: Adobe Illustrator 22.0.1, SVG Export Plug-In . SVG Version: 6.00 Build 0)  -->
<svg version="1.1" id="Layer_1" xmlns="http://www.w3.org/2000/svg" xmlns:xlink="http://www.w3.org/1999/xlink" x="0px" y="0px"
	 width="24px" height="24px" viewBox="0 0 24 24" style="enable-background:new 0 0 24 24;" xml:space="preserve">
<style type="text/css">
	.st0{display:none;opacity:0;}
	.st1{display:inline;fill:#FFFFFF;}
</style>
<g class="st0">
	<rect class="st1" width="1" height="23"/>
	<rect x="11.5" y="11.5" transform="matrix(-1.836970e-16 1 -1 -1.836970e-16 35.5 11.5)" class="st1" width="1" height="24"/>
</g>
<g>
	<circle cx="10" cy="5" r="4"/>
	<path d="M10,9.888855c-3.179504,0-6.05127,1.128235-8,2.666687V18h9.03656c0.203857-3.08313,2.265015-5.65332,5.07959-6.602478
		C14.409546,10.518799,12.338562,9.888855,10,9.888855z"/>
	<path d="M16.025391,16.011719c1.34906-1.34613,3.533936-1.357239,4.900513-0.037354l-1.284058,1.284058h3.60675v-3.60675
		l-1.191833,1.191833c-1.989807-1.944275-5.190125-1.933777-7.162231,0.037354
		c-0.835938,0.835938-1.358398,1.943359-1.469727,3.118164l1.59375,0.150391
		C15.094727,17.344727,15.452148,16.585938,16.025391,16.011719z"/>
	<path d="M21.972656,18.932617c-0.077148,0.805664-0.435547,1.56543-1.008789,2.138672
		c-1.349121,1.349121-3.533264,1.358276-4.89978,0.03717l1.283936-1.283936h-3.606812v3.60675l1.191956-1.191956
		c0.987732,0.966003,2.271912,1.453064,3.558044,1.453064c1.304688,0,2.610352-0.496094,3.603516-1.490234
		c0.835938-0.834961,1.357422-1.942383,1.469727-3.117188L21.972656,18.932617z"/>
</g>
</svg>
