<?xml version="1.0" encoding="utf-8"?>
<!-- Generator: Adobe Illustrator 22.0.1, SVG Export Plug-In . SVG Version: 6.00 Build 0)  -->
<svg version="1.1" id="Layer_1" xmlns="http://www.w3.org/2000/svg" xmlns:xlink="http://www.w3.org/1999/xlink" x="0px" y="0px"
	 width="24px" height="24px" viewBox="0 0 24 24" style="enable-background:new 0 0 24 24;" xml:space="preserve">
<style type="text/css">
	.st0{display:none;opacity:0;}
	.st1{display:inline;fill:#FFFFFF;}
</style>
<g class="st0">
	<rect class="st1" width="0.9375" height="24"/>
	
		<rect x="11.53125" y="11.53125" transform="matrix(-1.836970e-16 1 -1 -1.836970e-16 35.53125 11.53125)" class="st1" width="0.9375" height="24"/>
</g>
<g>
	<polygon points="6.679199,12.934082 7.826111,12.934082 7.842773,12.286621 6.679199,12.243164 	"/>
	<polygon points="10.957031,12.287109 10.957031,14.78125 12.280762,14.848633 12.34668,12.286621 11.022949,12.220703 	"/>
	<polygon points="6.679199,14.848633 7.776855,14.848633 7.795227,14.133789 6.679199,14.133789 	"/>
	<path d="M15.414063,2H6C4.896973,2,4,2.896973,4,4v16c0,1.102539,0.896973,2,2,2h12c1.102539,0,2-0.897461,2-2V6.585938
		L15.414063,2z M13.5,3l5,5h-5V3z M9.042969,14.782227c0,0.698242-0.567871,1.265625-1.266113,1.265625H5.479004v-5.027344h2.297852
		c0.698242,0,1.266113,0.567871,1.266113,1.266113V14.782227z M13.546875,14.782227c0,0.698242-0.567871,1.265625-1.266113,1.265625
		h-1.257813c-0.698242,0-1.266113-0.568359-1.266113-1.266602v-2.494141c0-0.698242,0.567871-1.266602,1.266113-1.266602h1.257813
		c0.698242,0,1.266113,0.567871,1.266113,1.266113V14.782227z M18.520508,16.055664h-1.199219V13.50415l-0.94043,1.772217
		l-0.942383-1.770508v2.549805h-1.199219V10.9375h1.199219v0.015137l0.94043,1.76709l0.942383-1.7771V10.9375h1.199219V16.055664z"
		/>
</g>
</svg>
