<?xml version="1.0" encoding="utf-8"?>
<!-- Generator: Adobe Illustrator 22.0.1, SVG Export Plug-In . SVG Version: 6.00 Build 0)  -->
<svg version="1.1" id="Layer_1" xmlns="http://www.w3.org/2000/svg" xmlns:xlink="http://www.w3.org/1999/xlink" x="0px" y="0px"
	 width="24px" height="24px" viewBox="0 0 24 24" style="enable-background:new 0 0 24 24;" xml:space="preserve">
<style type="text/css">
	.st0{display:none;opacity:0;}
	.st1{display:inline;fill:#FFFFFF;}
</style>
<g class="st0">
	<rect class="st1" width="0.9375" height="24"/>
	
		<rect x="11.53125" y="11.53125" transform="matrix(-1.836970e-16 1 -1 -1.836970e-16 35.53125 11.53125)" class="st1" width="0.9375" height="24"/>
</g>
<g>
	<path d="M12,13.270813c-0.919067,0-1.666687,0.74762-1.666687,1.666687S11.080933,16.604126,12,16.604126
		s1.666687-0.747559,1.666687-1.666626S12.919067,13.270813,12,13.270813z"/>
	<path d="M15.414063,2H6C4.896973,2,4,2.896973,4,4v16c0,1.102539,0.896973,2,2,2h12c1.102539,0,2-0.897461,2-2V6.585938
		L15.414063,2z M16,15.444458l-0.447449,0.119263c-0.313049,0.083496-0.55426,0.318604-0.67804,0.618042
		c-0.001404,0.003418-0.002869,0.006897-0.004333,0.010315c-0.12561,0.300781-0.122681,0.639465,0.040649,0.921509L15.1427,17.51416
		l-0.62854,0.62854l-0.400513-0.231934c-0.282104-0.163269-0.620789-0.166199-0.921509-0.040588
		c-0.003479,0.001404-0.006897,0.002869-0.010376,0.004272c-0.299438,0.12384-0.534546,0.36499-0.617981,0.678101L12.444458,19
		h-0.888916l-0.119324-0.447449c-0.083435-0.313049-0.318542-0.55426-0.617981-0.67804
		c-0.003479-0.001465-0.006958-0.002869-0.010437-0.004333c-0.30072-0.12561-0.639404-0.122681-0.921448,0.040649L9.48584,18.1427
		L8.8573,17.51416l0.231873-0.400513c0.163269-0.282043,0.166199-0.620728,0.040588-0.921448
		c-0.001404-0.003479-0.002869-0.006958-0.004272-0.010437c-0.12384-0.299438-0.36499-0.534546-0.678101-0.618042L8,15.444458
		v-0.888916l0.447327-0.119324c0.31311-0.083496,0.554321-0.318542,0.678101-0.618042
		c0.001465-0.003479,0.00293-0.006958,0.004333-0.010437c0.12561-0.300781,0.122681-0.639404-0.040588-0.921448L8.8573,12.48584
		l0.62854-0.62854l0.400452,0.231812c0.282043,0.16333,0.620728,0.16626,0.921448,0.040649
		c0.003479-0.001465,0.006958-0.002869,0.010437-0.004333c0.2995-0.123779,0.534607-0.36499,0.618103-0.678101L11.555542,11
		h0.888916l0.119263,0.447388c0.083496,0.31311,0.318604,0.55426,0.618103,0.678101
		c0.003418,0.001404,0.006897,0.002869,0.010376,0.004272c0.30072,0.12561,0.639404,0.122681,0.921448-0.040649L14.51416,11.8573
		l0.62854,0.62854l-0.231873,0.400452c-0.163269,0.282043-0.166199,0.620728-0.040588,0.921509
		c0.001404,0.003418,0.002869,0.006897,0.004333,0.010376c0.123779,0.2995,0.364929,0.534546,0.67804,0.618042L16,14.555542
		V15.444458z M13.75,8.125v-5l5,5H13.75z"/>
</g>
</svg>
