<?xml version="1.0" encoding="utf-8"?>
<!-- Generator: Adobe Illustrator 22.0.1, SVG Export Plug-In . SVG Version: 6.00 Build 0)  -->
<svg version="1.1" id="Layer_1" xmlns="http://www.w3.org/2000/svg" xmlns:xlink="http://www.w3.org/1999/xlink" x="0px" y="0px"
	 width="24px" height="24px" viewBox="0 0 24 24" style="enable-background:new 0 0 24 24;" xml:space="preserve">
<style type="text/css">
	.st0{display:none;opacity:0;}
	.st1{display:inline;fill:#FFFFFF;}
</style>
<g class="st0">
	<rect class="st1" width="0.9375" height="24"/>
	
		<rect x="11.53125" y="11.53125" transform="matrix(-1.836970e-16 1 -1 -1.836970e-16 35.53125 11.53125)" class="st1" width="0.9375" height="24"/>
</g>
<g>
	<rect x="6.833313" y="12.729126" width="1.083374" height="0.666687"/>
	<path d="M15.414063,2H6C4.896973,2,4,2.896973,4,4v16c0,1.102539,0.896973,2,2,2h12c1.102539,0,2-0.897461,2-2V6.585938
		L15.414063,2z M9.25,15.983887H7.916687v-1.254761H6.833313v1.254761H5.5V12.0625c0-0.368164,0.298523-0.666687,0.666687-0.666687
		h2.416626c0.368164,0,0.666687,0.298523,0.666687,0.666687V15.983887z M12.785828,15.983887h-1.256531L9.875,11.395813h1.416687
		L12.125,13.822266l0.833313-2.426453H14.375L12.785828,15.983887z M18.428589,15.983887H15V11.375h1.333313v3.354126h2.095276
		V15.983887z M13.5,8V3l5,5H13.5z"/>
</g>
</svg>
