<?xml version="1.0" encoding="utf-8"?>
<!-- Generator: Adobe Illustrator 22.0.1, SVG Export Plug-In . SVG Version: 6.00 Build 0)  -->
<svg version="1.1" id="Layer_1" xmlns="http://www.w3.org/2000/svg" xmlns:xlink="http://www.w3.org/1999/xlink" x="0px" y="0px"
	 width="24px" height="24px" viewBox="0 0 24 24" style="enable-background:new 0 0 24 24;" xml:space="preserve">
<style type="text/css">
	.st0{display:none;opacity:0;}
	.st1{display:inline;fill:#FFFFFF;}
</style>
<g class="st0">
	<rect class="st1" width="0.9375" height="24"/>
	
		<rect x="11.53125" y="11.53125" transform="matrix(-1.836970e-16 1 -1 -1.836970e-16 35.53125 11.53125)" class="st1" width="0.9375" height="24"/>
</g>
<path d="M22,3.989746c-0.003906-1.099121-0.901367-1.993164-2-1.993164H3.966797c-0.535645,0-1.038574,0.208984-1.416992,0.588379
	C2.171875,2.964355,1.964844,3.467773,1.966797,4.00293L2,16.006836C2.003906,17.105469,2.900879,18,4,18h4.857544
	l-0.272278,2.073242H7v2h10v-2h-1.557434L15.170288,18h4.862915c0.535156,0,1.039063-0.208984,1.416992-0.588867
	c0.37793-0.378906,0.584961-0.882813,0.583008-1.416992L22,3.989746z M20,3.996094L20.022156,12H3.988953L3.966797,3.996582
	L20,3.996094z M13.426025,20.073242h-2.823242L10.875122,18h2.278564L13.426025,20.073242z M4,16.000977V16l-0.005554-2h16.033203
	l0.005554,2L4,16.000977z"/>
</svg>
