<?xml version="1.0" encoding="utf-8"?>
<!-- Generator: Adobe Illustrator 22.0.1, SVG Export Plug-In . SVG Version: 6.00 Build 0)  -->
<svg version="1.1" id="Layer_1" xmlns="http://www.w3.org/2000/svg" xmlns:xlink="http://www.w3.org/1999/xlink" x="0px" y="0px"
	 width="24px" height="24px" viewBox="0 0 24 24" style="enable-background:new 0 0 24 24;" xml:space="preserve">
<style type="text/css">
	.st0{display:none;opacity:0;}
	.st1{display:inline;fill:#FFFFFF;}
</style>
<g class="st0">
	<rect class="st1" width="0.958333" height="24"/>
	
		<rect x="11.520833" y="11.520833" transform="matrix(-1.836970e-16 1 -1 -1.836970e-16 35.520832 11.520833)" class="st1" width="0.958333" height="24"/>
</g>
<g>
	<path d="M21,6c0-1.104614-0.895447-2-2-2h-8L9,2H4C3.447693,2,3,2.447693,3,3v4h18V6z"/>
	<path d="M4.717957,19l-1.373413-9h17.31073l-0.307556,2.015869c0.679626,0.19342,1.316528,0.486023,1.890503,0.868896
		l0.567688-3.720398C22.907532,8.554871,22.4375,8,21.819519,8H2.180481c-0.61792,0-1.088013,0.554871-0.986389,1.164368
		l1.676331,10.98645C2.944946,20.639221,3.364929,21,3.859009,21h8.37439c-0.249817-0.62561-0.401001-1.298401-0.452698-2H4.717957z
		"/>
	<path d="M18.5,13c-3.037537,0-5.5,2.462402-5.5,5.5c0,3.037537,2.462463,5.5,5.5,5.5s5.5-2.462463,5.5-5.5
		C24,15.462402,21.537537,13,18.5,13z M22.03125,19.162109h-2.880859V22h-1.199219v-2.837891H15.15625v-1.199219h2.794922V15.125
		h1.199219v2.837891h2.880859V19.162109z"/>
</g>
</svg>
