<?xml version="1.0" encoding="utf-8"?>
<!-- Generator: Adobe Illustrator 22.0.1, SVG Export Plug-In . SVG Version: 6.00 Build 0)  -->
<svg version="1.1" id="Layer_1" xmlns="http://www.w3.org/2000/svg" xmlns:xlink="http://www.w3.org/1999/xlink" x="0px" y="0px"
	 width="24px" height="24px" viewBox="0 0 24 24" style="enable-background:new 0 0 24 24;" xml:space="preserve">
<style type="text/css">
	.st0{display:none;opacity:0;}
	.st1{display:inline;fill:#FFFFFF;}
</style>
<g class="st0">
	<rect class="st1" width="0.9375" height="24"/>
	
		<rect x="11.53125" y="11.53125" transform="matrix(-1.836970e-16 1 -1 -1.836970e-16 35.53125 11.53125)" class="st1" width="0.9375" height="24"/>
</g>
<g>
	<path d="M7.447266,18.149414c0.044434,0.003906,0.088867,0.005859,0.133301,0.005859c0.48291,0,1.005371-0.22168,1.486328-0.633789
		c0.229492-0.196289,0.447266-0.483398,0.66748-0.875977c0.104492-0.1875,0.210938-0.40332,0.316406-0.641602
		c0.046387-0.105469,0.087402-0.210938,0.12793-0.316406l0.152344-0.34082c0.905762-0.292969,1.867676-0.561523,2.860352-0.799805
		c0.304688-0.071289,0.585938-0.135742,0.848633-0.192383c0.101563,0.116211,0.208008,0.233398,0.319336,0.349609
		c0.178711,0.185547,0.355469,0.355469,0.53125,0.507813c0.37793,0.326172,0.709961,0.538086,1.016602,0.645508
		c0.646484,0.229492,1.259766,0.229492,1.724609,0c0.353516-0.171875,0.608398-0.466797,0.738281-0.850586
		c0.30957-0.917969-0.261719-1.808594-1.422852-2.216797c-0.28418-0.100098-0.636719-0.144043-1.081055-0.133301
		c-0.213867,0.004395-0.450195,0.022461-0.702148,0.052734c-0.245117,0.029297-0.489258,0.068359-0.719727,0.112305
		c-0.235352-0.238281-0.443359-0.467773-0.631836-0.699219c-0.419922-0.515625-0.817871-1.090332-1.182129-1.708008
		c-0.067871-0.114746-0.125-0.216309-0.177246-0.310547c0.0625-0.142578,0.124512-0.289063,0.183594-0.442383
		c0.092773-0.241211,0.172852-0.475586,0.237305-0.700684c0.138672-0.485352,0.192383-0.880371,0.164063-1.208008
		c-0.060059-0.706055-0.316406-1.282227-0.720703-1.62207c-0.294922-0.24707-0.657227-0.358398-1.044434-0.324707
		C10.32373,5.891113,9.757813,6.787109,9.864258,8.035156c0.026367,0.304688,0.130859,0.650879,0.319824,1.058105
		c0.090332,0.196777,0.202148,0.409668,0.33252,0.633301c0.128906,0.22168,0.266113,0.437988,0.402832,0.641113l-0.066895,0.178223
		c-0.25293,0.670898-0.511719,1.341797-0.759277,1.966797l-0.15625,0.389648
		c-0.191406,0.473633-0.364746,0.889648-0.517578,1.237305c-0.205078,0.038086-0.420898,0.083008-0.638672,0.136719
		c-0.246094,0.061523-0.480957,0.128906-0.698242,0.203125c-0.470703,0.163086-0.819824,0.345703-1.065918,0.557617
		c-0.939453,0.804688-1.161133,1.844727-0.55127,2.586914C6.720215,17.933594,7.05957,18.115234,7.447266,18.149414z
		 M7.873047,16.066406c0.065918-0.056641,0.236328-0.171875,0.637695-0.30957
		c0.053223-0.018555,0.131348-0.043945,0.214355-0.069336c-0.056641,0.119141-0.112305,0.232422-0.145996,0.292969H8.578613
		c-0.180176,0.324219-0.308105,0.459961-0.367676,0.510742c-0.356934,0.305664-0.560059,0.313477-0.626953,0.318359
		c-0.043945-0.003906-0.074707-0.018555-0.099121-0.048828C7.398438,16.655273,7.484863,16.400391,7.873047,16.066406z
		 M11.324219,13.017578c0.171875-0.432129,0.347656-0.885742,0.522949-1.345215
		c0.311035,0.484863,0.621582,0.916016,0.942383,1.30957c0.063965,0.078613,0.129395,0.155762,0.194824,0.230957
		c-0.03125,0.006836-0.063477,0.014648-0.09668,0.022461c-0.571289,0.135742-1.179688,0.298828-1.850586,0.494141
		c0.041992-0.102539,0.084961-0.207031,0.128906-0.316406L11.324219,13.017578z M11.401855,7.148438
		c0.022949,0,0.051758,0.006348,0.086914,0.035645c0.054688,0.045898,0.185547,0.204102,0.226563,0.686035
		c0.007813,0.087891,0.00293,0.297852-0.116699,0.714844c-0.015625,0.055176-0.040527,0.133301-0.067383,0.216309
		c-0.060059-0.111816-0.116699-0.219238-0.14502-0.280273c-0.157227-0.339355-0.191895-0.522949-0.19873-0.602539
		c-0.043945-0.512695,0.07373-0.758301,0.20166-0.769531C11.393555,7.148438,11.397461,7.148438,11.401855,7.148438z
		 M16.511719,14.0625c0.477539,0.167969,0.646484,0.375977,0.602539,0.507813
		c-0.012695,0.037109-0.037109,0.063477-0.077148,0.083008c-0.0625,0.030273-0.256836,0.085938-0.694336-0.068359
		c-0.139648-0.049805-0.354492-0.195313-0.589844-0.399414c-0.044922-0.039063-0.108398-0.09668-0.175781-0.15918
		c0.12793-0.010742,0.251953-0.020508,0.319336-0.022461C16.259766,13.994141,16.438477,14.037109,16.511719,14.0625z"/>
	<path d="M20,2H4C2.895447,2,2,2.895386,2,4v16c0,1.104553,0.895447,2,2,2h16c1.104553,0,2-0.895447,2-2V4
		C22,2.895386,21.104553,2,20,2z M20,20H4V4h16V20z"/>
</g>
</svg>
