<?xml version="1.0" encoding="utf-8"?>
<!-- Generator: Adobe Illustrator 22.0.1, SVG Export Plug-In . SVG Version: 6.00 Build 0)  -->
<svg version="1.1" id="Layer_1" xmlns="http://www.w3.org/2000/svg" xmlns:xlink="http://www.w3.org/1999/xlink" x="0px" y="0px"
	 width="24px" height="24px" viewBox="0 0 24 24" style="enable-background:new 0 0 24 24;" xml:space="preserve">
<style type="text/css">
	.st0{display:none;opacity:0;}
	.st1{display:inline;fill:#FFFFFF;}
</style>
<g class="st0">
	<rect class="st1" width="1" height="23"/>
	<rect x="11.5" y="11.5" transform="matrix(-1.836970e-16 1 -1 -1.836970e-16 35.5 11.5)" class="st1" width="1" height="24"/>
</g>
<g>
	<path d="M15.5,8.958313c1.932983,0,3.5-1.567017,3.5-3.5c0-1.933044-1.567017-3.5-3.5-3.5s-3.5,1.566956-3.5,3.5
		C12,7.391296,13.567017,8.958313,15.5,8.958313z M15.5,3.958313c0.827087,0,1.5,0.672913,1.5,1.5s-0.672913,1.5-1.5,1.5
		s-1.5-0.672913-1.5-1.5S14.672913,3.958313,15.5,3.958313z"/>
	<path d="M8.5,14c1.932983,0,3.5-1.567017,3.5-3.5C12,8.566956,10.432983,7,8.5,7S5,8.566956,5,10.5C5,12.432983,6.567017,14,8.5,14
		z M8.5,9C9.327087,9,10,9.672913,10,10.5S9.327087,12,8.5,12S7,11.327087,7,10.5S7.672913,9,8.5,9z"/>
	<path d="M15.5,9.958313c-0.512451,0-1.011108,0.045227-1.5,0.112793v2.031433c0.496948-0.085144,0.998474-0.144226,1.5-0.144226
		c1.919495,0,3.470764,0.64325,4.5,1.243225V15h-3v2h5v-4.875C20.416687,10.958313,18.166687,9.958313,15.5,9.958313z"/>
	<path d="M2,17v5h13v-5c-1.583313-1.166687-3.833313-2.166687-6.5-2.166687C5.916687,14.833313,3.583313,15.75,2,17z M13,20H4
		v-1.951904c1.292358-0.769958,2.91333-1.214783,4.5-1.214783c1.919495,0,3.470764,0.64325,4.5,1.243225V20z"/>
</g>
</svg>
