<?xml version="1.0" encoding="utf-8"?>
<!-- Generator: Adobe Illustrator 22.0.1, SVG Export Plug-In . SVG Version: 6.00 Build 0)  -->
<svg version="1.1" id="Layer_1" xmlns="http://www.w3.org/2000/svg" xmlns:xlink="http://www.w3.org/1999/xlink" x="0px" y="0px"
	 width="24px" height="24px" viewBox="0 0 24 24" style="enable-background:new 0 0 24 24;" xml:space="preserve">
<style type="text/css">
	.st0{display:none;opacity:0;}
	.st1{display:inline;fill:#FFFFFF;}
</style>
<g class="st0">
	<rect class="st1" width="0.958333" height="24"/>
	
		<rect x="11.520833" y="11.520833" transform="matrix(-1.836970e-16 1 -1 -1.836970e-16 35.520832 11.520833)" class="st1" width="0.958333" height="24"/>
</g>
<g>
	<path d="M19.842773,3.163818C19.60144,3.059143,19.336121,3,19.056641,3H2.986084C2.747681,3,2.522156,3.049133,2.310303,3.126526
		l8.874268,5.56488L19.842773,3.163818z"/>
	<path d="M12,16.25c0-2.761414,2.238586-5,5-5c1.668701,0,3.136658,0.825623,4.044922,2.081909V5
		c0-0.074341-0.013855-0.144775-0.021729-0.217041l-9.828857,6.275635L1.02948,4.68396C1.013,4.787537,0.997803,4.891724,0.997803,5
		v11c0,1.104553,0.890198,2,1.988281,2H12V16.25z"/>
	<path d="M20.897095,19.436035c-0.359436-0.19397-0.583435-0.569458-0.583435-0.977844v-0.64917v-1.29895
		c0-1.546326-1.063721-2.996643-2.49707-3.361206c0,0-0.316589-0.107361-0.816589-0.107361
		c-0.498047,0-0.81366,0.107361-0.81366,0.107361c-1.431885,0.365967-2.519653,1.816345-2.519653,3.362671v1.297485v0.653564
		c0,0.40686-0.222351,0.781128-0.57959,0.975769L12,20.030518v1.018799h10V20.03125L20.897095,19.436035z"/>
	<path d="M17,23.03125c0.614258,0,1.111084-0.437439,1.111084-0.978271h-2.222168
		C15.888916,22.593079,16.385742,23.03125,17,23.03125z"/>
</g>
</svg>
