<?xml version="1.0" encoding="utf-8"?>
<!-- Generator: Adobe Illustrator 22.0.1, SVG Export Plug-In . SVG Version: 6.00 Build 0)  -->
<svg version="1.1" id="Layer_1" xmlns="http://www.w3.org/2000/svg" xmlns:xlink="http://www.w3.org/1999/xlink" x="0px" y="0px"
	 width="24px" height="24px" viewBox="0 0 24 24" style="enable-background:new 0 0 24 24;" xml:space="preserve">
<style type="text/css">
	.st0{display:none;opacity:0;}
	.st1{display:inline;fill:#FFFFFF;}
</style>
<g class="st0">
	<rect class="st1" width="1" height="23"/>
	<rect x="11.5" y="11.5" transform="matrix(-1.836970e-16 1 -1 -1.836970e-16 35.5 11.5)" class="st1" width="1" height="24"/>
</g>
<g>
	<rect x="6.815552" y="12.711121" width="1.118896" height="0.657776"/>
	<path d="M15.414063,2H6C4.896973,2,4,2.896973,4,4v16c0,1.102539,0.896973,2,2,2h12c1.102539,0,2-0.897461,2-2V6.585938
		L15.414063,2z M9.25,16H7.934448v-1.315552H6.815552V16H5.5v-3.946655c0-0.363281,0.294495-0.657776,0.657776-0.657776h2.434448
		c0.363281,0,0.657776,0.294495,0.657776,0.657776V16z M14.25,16h-1.416687v-1.62262l-0.442688,0.471497h-0.53125
		l-0.442688-0.471497V16H10v-4.604431h1.0625l1.0625,1.540344l1.0625-1.540344H14.25V16z M18.5,16H15v-4.625h1.315552v3.309448H18.5
		V16z M13.5,8V3l5,5H13.5z"/>
</g>
</svg>
