<?xml version="1.0" encoding="utf-8"?>
<!-- Generator: Adobe Illustrator 22.0.1, SVG Export Plug-In . SVG Version: 6.00 Build 0)  -->
<svg version="1.1" id="Layer_1" xmlns="http://www.w3.org/2000/svg" xmlns:xlink="http://www.w3.org/1999/xlink" x="0px" y="0px"
	 width="24px" height="24px" viewBox="0 0 24 24" style="enable-background:new 0 0 24 24;" xml:space="preserve">
<style type="text/css">
	.st0{display:none;opacity:0;}
	.st1{display:inline;fill:#FFFFFF;}
</style>
<g class="st0">
	<rect class="st1" width="0.9375" height="24"/>
	
		<rect x="11.53125" y="11.53125" transform="matrix(-1.836970e-16 1 -1 -1.836970e-16 35.53125 11.53125)" class="st1" width="0.9375" height="24"/>
</g>
<g>
	<path d="M13.07312,17.715698v-1.079773c0-2.250671,1.544495-4.346802,3.600281-4.897705
		C16.877136,11.677917,17.411865,11.562988,18,11.562988l-0.09375,0.009277c0.588684,0,1.223206,0.096741,1.427063,0.15686
		C19.97644,11.900757,20.529358,12.233948,21,12.670593V5c0-1.103027-0.897461-2-2-2h-2V1h-2v2H7V1H5v2H3C1.896973,3,1,3.896973,1,5
		v14c0,1.102539,0.896973,2,2,2h8.562744v-0.370178v-0.90094v-1.076599l0.945435-0.515015l0.564941-0.307739V17.715698z M3,8V5
		l2-0.000183V5h2V4.999634l8-0.000732V5h2V4.998718l2-0.000183V8H3z"/>
	<path d="M18,23c0.614258,0,1.111084-0.437439,1.111084-0.978271h-2.222168C16.888916,22.561829,17.385742,23,18,23z"/>
	<path d="M21.876221,19.411316c-0.359375-0.19397-0.583374-0.569458-0.583374-0.977844v-0.64917v-1.193054
		c0-1.546387-1.063721-3.114319-2.497131-3.478882c0,0-0.316528-0.107361-0.816528-0.107361
		c-0.498047,0-0.81366,0.107361-0.81366,0.107361c-1.431885,0.366028-2.519714,1.93396-2.519714,3.480347v1.191589v0.653564
		c0,0.40686-0.22229,0.781189-0.57959,0.975769l-1.087036,0.592163V21h10v-0.993469L21.876221,19.411316z"/>
</g>
</svg>
