<?xml version="1.0" encoding="utf-8"?>
<!-- Generator: Adobe Illustrator 22.0.1, SVG Export Plug-In . SVG Version: 6.00 Build 0)  -->
<svg version="1.1" id="Layer_1" xmlns="http://www.w3.org/2000/svg" xmlns:xlink="http://www.w3.org/1999/xlink" x="0px" y="0px"
	 width="24px" height="24px" viewBox="0 0 24 24" style="enable-background:new 0 0 24 24;" xml:space="preserve">
<style type="text/css">
	.st0{display:none;opacity:0;}
	.st1{display:inline;}
	.st2{fill:#FFFFFF;}
</style>
<g class="st0">
	<g class="st1">
		<rect class="st2" width="0.979167" height="24"/>
	</g>
	<g class="st1">
		<rect y="23.020834" class="st2" width="24" height="0.979167"/>
	</g>
</g>
<g>
	<path d="M13.449829,1.059937c-0.016113-0.002014-0.032166-0.002991-0.047974-0.002991C13.184448,1.056946,13,1.240784,13,1.463928
		V11h9.536072c0.23938,0,0.433533-0.21228,0.403992-0.449829C22.324463,5.596558,18.403442,1.675537,13.449829,1.059937z M15,9
		V3.458557C17.602234,4.349182,19.650818,6.397766,20.541443,9H15z"/>
	<path d="M11,2C5.562988,2.614685,1.261597,7.723877,2.060059,13.481628c0.601929,4.340088,4.121277,7.858154,8.461548,8.45874
		C16.286011,22.737976,21.397095,18.447449,22,13H11V2z"/>
</g>
</svg>
