<?xml version="1.0" encoding="utf-8"?>
<!-- Generator: Adobe Illustrator 22.0.1, SVG Export Plug-In . SVG Version: 6.00 Build 0)  -->
<svg version="1.1" id="Layer_1" xmlns="http://www.w3.org/2000/svg" xmlns:xlink="http://www.w3.org/1999/xlink" x="0px" y="0px"
	 width="24px" height="24px" viewBox="0 0 24 24" style="enable-background:new 0 0 24 24;" xml:space="preserve">
<style type="text/css">
	.st0{display:none;opacity:0;}
	.st1{display:inline;fill:#FFFFFF;}
</style>
<g class="st0">
	<rect class="st1" width="0.9375" height="24"/>
	
		<rect x="11.53125" y="11.53125" transform="matrix(-1.836970e-16 1 -1 -1.836970e-16 35.53125 11.53125)" class="st1" width="0.9375" height="24"/>
</g>
<g>
	<path d="M6,4h9v3h3v2h2V5.460938L16.539063,2H6C4.896973,2,4,2.896973,4,4v5h2V4z"/>
	<path d="M18,20H6v-2H4v2c0,1.102539,0.896973,2,2,2h12c1.102539,0,2-0.897461,2-2v-2h-2V20z"/>
	<path d="M5.634521,14.786194h1.343994v1.556641h1.654114v-4.864929c0-0.456726-0.3703-0.827087-0.827087-0.827087H4.807434
		c-0.456726,0-0.827087,0.370361-0.827087,0.827087v4.864929h1.654175V14.786194z M6.978516,12.304993v0.827026H5.634521v-0.827026
		H6.978516z"/>
	<polygon points="11.165527,10.650818 9.40802,10.650818 11.460327,16.342834 13.019165,16.342834 14.990723,10.650818 
		13.233215,10.650818 12.199402,13.661072 	"/>
	<polygon points="17.420288,14.786194 17.420288,10.625 15.766113,10.625 15.766113,16.342834 20.019653,16.342834 
		20.019653,14.786194 	"/>
</g>
</svg>
