<?xml version="1.0" encoding="utf-8"?>
<!-- Generator: Adobe Illustrator 22.0.1, SVG Export Plug-In . SVG Version: 6.00 Build 0)  -->
<svg version="1.1" id="Layer_1" xmlns="http://www.w3.org/2000/svg" xmlns:xlink="http://www.w3.org/1999/xlink" x="0px" y="0px"
	 width="24px" height="24px" viewBox="0 0 24 24" style="enable-background:new 0 0 24 24;" xml:space="preserve">
<style type="text/css">
	.st0{display:none;opacity:0;}
	.st1{display:inline;fill:#FFFFFF;}
</style>
<g class="st0">
	<rect class="st1" width="0.958333" height="24"/>
	
		<rect x="11.520833" y="11.520833" transform="matrix(-1.836970e-16 1 -1 -1.836970e-16 35.520832 11.520833)" class="st1" width="0.958333" height="24"/>
</g>
<g>
	<path d="M20.655279,10l-1.373259,9H4.717967L3.34455,10H20.655279 M21.81954,8H2.18046C1.56252,8,1.09248,8.554871,1.19407,9.1644
		l1.67636,10.986441C2.94495,20.639231,3.36495,21,3.85899,21H20.14101c0.49404,0,0.91404-0.360769,0.98856-0.849159
		L22.805929,9.1644C22.90752,8.554871,22.437481,8,21.81954,8L21.81954,8z"/>
</g>
<g>
	<path d="M21,7V6c0-1.104614-0.895447-2-2-2h-8L9,2H4C3.447693,2,3,2.447693,3,3v4H21z"/>
</g>
</svg>
