<?xml version="1.0" encoding="utf-8"?>
<!-- Generator: Adobe Illustrator 22.0.1, SVG Export Plug-In . SVG Version: 6.00 Build 0)  -->
<svg version="1.1" id="Layer_1" xmlns="http://www.w3.org/2000/svg" xmlns:xlink="http://www.w3.org/1999/xlink" x="0px" y="0px"
	 width="24px" height="24px" viewBox="0 0 24 24" style="enable-background:new 0 0 24 24;" xml:space="preserve">
<style type="text/css">
	.st0{display:none;opacity:0;}
	.st1{display:inline;}
	.st2{fill:#FFFFFF;}
</style>
<g class="st0">
	<g class="st1">
		<rect class="st2" width="0.958333" height="24"/>
	</g>
	<g class="st1">
		
			<rect x="11.520833" y="11.520833" transform="matrix(-1.836970e-16 1 -1 -1.836970e-16 35.520832 11.520833)" class="st2" width="0.958333" height="24"/>
	</g>
</g>
<g>
	<path d="M11.998535,10.761719L20.9198,4.233887C20.64325,4.089478,20.333557,4,20,4H4
		C3.656189,4,3.337646,4.094727,3.055054,4.247498L11.998535,10.761719z"/>
	<path d="M12.001465,13.238281l-9.99707-7.281982C2.004089,5.971191,2,5.985046,2,6v12c0,1.104553,0.895447,2,2,2h16
		c1.104553,0,2-0.895447,2-2V6c0-0.02478-0.006348-0.047791-0.007263-0.072327L12.001465,13.238281z"/>
</g>
</svg>
