<?xml version="1.0" encoding="utf-8"?>
<!-- Generator: Adobe Illustrator 22.0.1, SVG Export Plug-In . SVG Version: 6.00 Build 0)  -->
<svg version="1.1" id="Layer_1" xmlns="http://www.w3.org/2000/svg" xmlns:xlink="http://www.w3.org/1999/xlink" x="0px" y="0px"
	 width="24px" height="24px" viewBox="0 0 24 24" style="enable-background:new 0 0 24 24;" xml:space="preserve">
<style type="text/css">
	.st0{display:none;opacity:0;}
	.st1{display:inline;fill:#FFFFFF;}
</style>
<g class="st0">
	<rect class="st1" width="0.9375" height="24"/>
	
		<rect x="11.53125" y="11.53125" transform="matrix(-1.836970e-16 1 -1 -1.836970e-16 35.53125 11.53125)" class="st1" width="0.9375" height="24"/>
</g>
<g>
	<path d="M14,21H4V7h3V5H4C2.896973,5,2,5.896973,2,7v14c0,1.102539,0.896973,2,2,2h10c1.102539,0,2-0.897461,2-2v-1h-2V21z"/>
	<path d="M18.539063,1H10C8.896973,1,8,1.896973,8,3v14c0,1.102539,0.896973,2,2,2h10c1.102539,0,2-0.897461,2-2V4.460938
		L18.539063,1z M17,6V2l4,4H17z"/>
</g>
</svg>
