<?xml version="1.0" encoding="utf-8"?>
<!-- Generator: Adobe Illustrator 22.0.1, SVG Export Plug-In . SVG Version: 6.00 Build 0)  -->
<svg version="1.1" id="Layer_1" xmlns="http://www.w3.org/2000/svg" xmlns:xlink="http://www.w3.org/1999/xlink" x="0px" y="0px"
	 width="24px" height="24px" viewBox="0 0 24 24" style="enable-background:new 0 0 24 24;" xml:space="preserve">
<style type="text/css">
	.st0{display:none;opacity:0;}
	.st1{display:inline;fill:#FFFFFF;}
</style>
<g class="st0">
	<rect class="st1" width="0.958333" height="24"/>
	
		<rect x="11.520833" y="11.520833" transform="matrix(-1.836970e-16 1 -1 -1.836970e-16 35.520832 11.520833)" class="st1" width="0.958333" height="24"/>
</g>
<g>
	<path d="M12,2C7.726074,2,4.249023,5.477051,4.249023,9.750977c0,5.40332,5.001953,10.045898,6.645508,11.571289
		c0.158203,0.147461,0.273438,0.250977,0.316406,0.296875l0.331543,0.362305H12l0.47998-0.02832l0.296875-0.320313
		c0.055176-0.05957,0.17041-0.163086,0.328613-0.310547c1.643555-1.525391,6.645508-6.167969,6.645508-11.571289
		C19.750977,5.477051,16.273438,2,12,2z M12,19.617188c-3.816406-3.606445-5.750977-6.924805-5.750977-9.866211
		C6.249023,6.580078,8.829102,4,12,4s5.750977,2.580078,5.750977,5.750977C17.750977,12.692383,15.816406,16.010742,12,19.617188z"
		/>
	<path d="M12,6.500488c-1.637207,0-2.969238,1.332031-2.969238,2.969238S10.362793,12.438477,12,12.438477
		c1.636719,0,2.96875-1.331543,2.96875-2.96875S13.636719,6.500488,12,6.500488z M12,10.438477
		c-0.534668,0-0.969238-0.43457-0.969238-0.96875c0-0.534668,0.43457-0.969238,0.969238-0.969238
		c0.53418,0,0.96875,0.43457,0.96875,0.969238C12.96875,10.003906,12.53418,10.438477,12,10.438477z"/>
</g>
</svg>
