<?xml version="1.0" encoding="utf-8"?>
<!-- Generator: Adobe Illustrator 22.0.1, SVG Export Plug-In . SVG Version: 6.00 Build 0)  -->
<svg version="1.1" id="Layer_1" xmlns="http://www.w3.org/2000/svg" xmlns:xlink="http://www.w3.org/1999/xlink" x="0px" y="0px"
	 width="24px" height="24px" viewBox="0 0 24 24" style="enable-background:new 0 0 24 24;" xml:space="preserve">
<style type="text/css">
	.st0{display:none;opacity:0;}
	.st1{display:inline;fill:#FFFFFF;}
</style>
<g class="st0">
	<rect class="st1" width="0.958333" height="24"/>
	
		<rect x="11.520833" y="11.520833" transform="matrix(-1.836970e-16 1 -1 -1.836970e-16 35.520832 11.520833)" class="st1" width="0.958333" height="24"/>
</g>
<g>
	<path d="M9.777771,20.356201c0,1.080322,0.993713,1.956543,2.222229,1.956543s2.222229-0.874756,2.222229-1.956543V20H9.777771
		V20.356201z"/>
	<path d="M18.627319,12.853943v-1.298401V11H15c-1.104553,0-2-0.895447-2-2V2.08551
		c-0.265076-0.040955-0.601746-0.075256-1-0.075256c-0.996094,0-1.627319,0.214722-1.627319,0.214722
		C7.508911,2.95697,5.333313,5.857605,5.333313,8.950317v2.605225v1.30719c0,0.81366-0.444641,1.562256-1.15918,1.951477
		L2,15.998535V19h20v-3l-2.205872-1.19043C19.075378,14.421631,18.627319,13.670715,18.627319,12.853943z"/>
	<polygon points="18.717773,7 21.967773,2 15,2 15,4 18.282227,4 15.032227,9 22,9 22,7 	"/>
</g>
</svg>
