<?xml version="1.0" encoding="utf-8"?>
<!-- Generator: Adobe Illustrator 22.0.1, SVG Export Plug-In . SVG Version: 6.00 Build 0)  -->
<svg version="1.1" id="Layer_1" xmlns="http://www.w3.org/2000/svg" xmlns:xlink="http://www.w3.org/1999/xlink" x="0px" y="0px"
	 width="24px" height="24px" viewBox="0 0 24 24" style="enable-background:new 0 0 24 24;" xml:space="preserve">
<style type="text/css">
	.st0{display:none;opacity:0;}
	.st1{display:inline;fill:#FFFFFF;}
</style>
<g class="st0">
	<rect class="st1" width="0.958333" height="24"/>
	
		<rect x="11.520833" y="11.520833" transform="matrix(-1.836970e-16 1 -1 -1.836970e-16 35.520832 11.520833)" class="st1" width="0.958333" height="24"/>
</g>
<g>
	
		<rect x="7.108385" y="12.836768" transform="matrix(0.707107 -0.707107 0.707107 0.707107 -6.244924 13.505054)" width="12.142392" height="2.908098"/>
	
		<rect x="3.638115" y="9.366212" transform="matrix(0.707138 -0.707075 0.707075 0.707138 -4.807275 10.034045)" width="12.142349" height="2.908141"/>
	<path d="M3.329529,15.854492l-1.3172,5.591919c-0.076599,0.325439,0.21582,0.617859,0.54126,0.541199l5.591614-1.317078
		L3.329529,15.854492z"/>
	<path d="M20.855347,3.144592c-1.526123-1.526123-4.000549-1.526123-5.526733,0l-0.94043,0.94043L19.914734,9.612l0.940613-0.940613
		C22.381531,7.145203,22.381531,4.670776,20.855347,3.144592z"/>
</g>
</svg>
