<?xml version="1.0" encoding="utf-8"?>
<!-- Generator: Adobe Illustrator 22.0.1, SVG Export Plug-In . SVG Version: 6.00 Build 0)  -->
<svg version="1.1" id="Layer_1" xmlns="http://www.w3.org/2000/svg" xmlns:xlink="http://www.w3.org/1999/xlink" x="0px" y="0px"
	 width="24px" height="24px" viewBox="0 0 24 24" style="enable-background:new 0 0 24 24;" xml:space="preserve">
<style type="text/css">
	.st0{display:none;opacity:0;}
	.st1{display:inline;fill:#FFFFFF;}
</style>
<g class="st0">
	<rect class="st1" width="0.9375" height="24"/>
	
		<rect x="11.53125" y="11.53125" transform="matrix(-1.836970e-16 1 -1 -1.836970e-16 35.53125 11.53125)" class="st1" width="0.9375" height="24"/>
</g>
<g>
	<path d="M3,9h16v2h2V5c0-1.103027-0.897461-2-2-2h-2V1h-2v2H7V1H5v2H3C1.896973,3,1,3.896973,1,5v14c0,1.102539,0.896973,2,2,2h8
		v-0.66626v-0.828491V19H3V9z"/>
	<path d="M18,22.994751c0.614258,0,1.111084-0.437378,1.111084-0.978271h-2.222168
		C16.888916,22.556641,17.385742,22.994751,18,22.994751z"/>
	<path d="M21.876221,19.406067c-0.359375-0.19397-0.583374-0.569458-0.583374-0.977844v-0.64917v-1.193054
		c0-1.546387-1.063721-3.114319-2.497131-3.478882c0,0-0.316528-0.107361-0.816528-0.107361
		c-0.498047,0-0.81366,0.107361-0.81366,0.107361c-1.431885,0.366028-2.519714,1.93396-2.519714,3.480347v1.191589v0.653564
		c0,0.40686-0.22229,0.781189-0.57959,0.975769l-1.087036,0.592163v0.994202h10v-0.993469L21.876221,19.406067z"/>
</g>
</svg>
