<?xml version="1.0" encoding="utf-8"?>
<!-- Generator: Adobe Illustrator 22.0.1, SVG Export Plug-In . SVG Version: 6.00 Build 0)  -->
<svg version="1.1" id="Layer_1" xmlns="http://www.w3.org/2000/svg" xmlns:xlink="http://www.w3.org/1999/xlink" x="0px" y="0px"
	 width="24px" height="24px" viewBox="0 0 24 24" style="enable-background:new 0 0 24 24;" xml:space="preserve">
<style type="text/css">
	.st0{display:none;opacity:0;}
	.st1{display:inline;fill:#FFFFFF;}
</style>
<g class="st0">
	<rect class="st1" width="0.9375" height="24"/>
	
		<rect x="11.53125" y="11.53125" transform="matrix(-1.836970e-16 1 -1 -1.836970e-16 35.53125 11.53125)" class="st1" width="0.9375" height="24"/>
</g>
<g>
	<path d="M15.414063,2H6C4.896973,2,4,2.896973,4,4v16c0,1.102539,0.896973,2,2,2h12c1.102539,0,2-0.897461,2-2V6.585938
		L15.414063,2z M6,20.000977V4h8v4h4v12L6,20.000977z"/>
	<path d="M14.749573,12.818176c-0.001465-0.003479-0.00293-0.006958-0.004333-0.010376
		c-0.12561-0.300781-0.122681-0.639465,0.040588-0.921509L15.0177,11.48584l-0.62854-0.62854l-0.400513,0.231812
		c-0.282043,0.16333-0.620728,0.16626-0.921448,0.040649c-0.003479-0.001404-0.006958-0.002869-0.010376-0.004272
		c-0.2995-0.12384-0.534607-0.36499-0.618103-0.678101L12.319458,10h-0.888916l-0.119263,0.447327
		c-0.083496,0.31311-0.318604,0.554321-0.618103,0.678101c-0.003479,0.001465-0.006958,0.002869-0.010437,0.004333
		c-0.30072,0.12561-0.639404,0.122681-0.921448-0.040649L9.36084,10.8573L8.7323,11.48584l0.231873,0.400452
		c0.163269,0.282043,0.166199,0.620667,0.040588,0.921448c-0.001404,0.003479-0.002869,0.006958-0.004333,0.010437
		c-0.123779,0.2995-0.36499,0.534546-0.678101,0.618042L7.875,13.555542v0.888916l0.447388,0.119263
		c0.31311,0.083496,0.55426,0.318604,0.678101,0.618042c0.001404,0.003479,0.002869,0.006958,0.004272,0.010437
		c0.12561,0.30072,0.122681,0.639404-0.040588,0.921448L8.7323,16.51416l0.62854,0.62854l0.400513-0.231873
		c0.282043-0.16333,0.620728-0.16626,0.921448-0.040649c0.003479,0.001465,0.006958,0.002869,0.010437,0.004333
		c0.299438,0.123779,0.534546,0.36499,0.617981,0.67804L11.430542,18h0.888916l0.119324-0.447449
		c0.083435-0.31311,0.318542-0.55426,0.617981-0.678101c0.003479-0.001404,0.006897-0.002869,0.010376-0.004272
		c0.30072-0.12561,0.639404-0.122681,0.921509,0.040588L14.38916,17.1427l0.62854-0.62854l-0.231873-0.400574
		c-0.16333-0.282043-0.16626-0.620728-0.040649-0.921509c0.001465-0.003418,0.00293-0.006897,0.004333-0.010315
		c0.123779-0.299438,0.36499-0.534546,0.67804-0.618042L15.875,14.444458v-0.888916l-0.447388-0.119324
		C15.114502,13.352722,14.873352,13.117676,14.749573,12.818176z M11.875,15.666626
		c-0.919067,0-1.666687-0.747559-1.666687-1.666626s0.74762-1.666687,1.666687-1.666687S13.541687,13.080933,13.541687,14
		S12.794067,15.666626,11.875,15.666626z"/>
</g>
</svg>
