<?xml version="1.0" encoding="utf-8"?>
<!-- Generator: Adobe Illustrator 22.0.1, SVG Export Plug-In . SVG Version: 6.00 Build 0)  -->
<svg version="1.1" id="Layer_1" xmlns="http://www.w3.org/2000/svg" xmlns:xlink="http://www.w3.org/1999/xlink" x="0px" y="0px"
	 width="24px" height="24px" viewBox="0 0 24 24" style="enable-background:new 0 0 24 24;" xml:space="preserve">
<style type="text/css">
	.st0{display:none;opacity:0;}
	.st1{display:inline;fill:#FFFFFF;}
</style>
<g class="st0">
	<rect class="st1" width="1" height="23"/>
	<rect x="11.5" y="11.5" transform="matrix(-1.836970e-16 1 -1 -1.836970e-16 35.5 11.5)" class="st1" width="1" height="24"/>
</g>
<path d="M18.990234,2h-14c-1.654297,0-3,1.345703-3,3v14c0,1.654297,1.345703,3,3,3h14c1.654297,0,3-1.345703,3-3V5
	C21.990234,3.345703,20.644531,2,18.990234,2z M19.990234,13.741699l-3.275391,2.42627l-6.139893-6.596924l1.998779-1.689209
	l3.465332,3.569336c0.361328,0.371094,0.947266,0.404785,1.348633,0.079102l2.602539-2.117676V13.741699z M4.990234,4h14
	c0.551758,0,1,0.44873,1,1v1.834167l-3.154297,2.566223l-3.477539-3.581543c-0.366699-0.377441-0.962402-0.40625-1.362793-0.066895
	l-2.78479,2.353516L7.097168,5.834473C6.915039,5.638184,6.661621,5.523926,6.394043,5.516113
	C6.116699,5.513184,5.867188,5.608887,5.67334,5.793457L3.990234,7.406433V5C3.990234,4.44873,4.438965,4,4.990234,4z
	 M3.990234,10.176941l2.334473-2.237l1.356812,1.458008l-3.691284,3.119568V10.176941z M18.990234,20h-14c-0.55127,0-1-0.448242-1-1
	v-3.864014l5.055298-4.272339l6.813843,7.321899c0.196289,0.209961,0.463867,0.318359,0.732422,0.318359
	c0.208008,0,0.416992-0.064453,0.595703-0.196289l2.802734-2.076477V19C19.990234,19.551758,19.541992,20,18.990234,20z"/>
</svg>
