<?xml version="1.0" encoding="utf-8"?>
<!-- Generator: Adobe Illustrator 22.0.1, SVG Export Plug-In . SVG Version: 6.00 Build 0)  -->
<svg version="1.1" id="Layer_1" xmlns="http://www.w3.org/2000/svg" xmlns:xlink="http://www.w3.org/1999/xlink" x="0px" y="0px"
	 width="24px" height="24px" viewBox="0 0 24 24" style="enable-background:new 0 0 24 24;" xml:space="preserve">
<style type="text/css">
	.st0{display:none;opacity:0;}
	.st1{display:inline;fill:#FFFFFF;}
</style>
<g class="st0">
	<rect class="st1" width="0.958333" height="24"/>
	
		<rect x="11.520833" y="11.520833" transform="matrix(-1.836970e-16 1 -1 -1.836970e-16 35.520832 11.520833)" class="st1" width="0.958333" height="24"/>
</g>
<g>
	<path d="M9.777771,20.356201c0,1.080322,0.993713,1.956543,2.222229,1.956543s2.222229-0.874756,2.222229-1.956543V20H9.777771
		V20.356201z"/>
	<path d="M13.633118,2.224976c0,0-0.633118-0.214722-1.633118-0.214722c-0.996094,0-1.627319,0.214722-1.627319,0.214722
		C7.508911,2.95697,5.333313,5.857605,5.333313,8.950317v3.606689v1.10968L15.739319,3.260681
		C15.106079,2.788147,14.402283,2.420593,13.633118,2.224976z"/>
	<path d="M19.794128,14.80957c-0.71875-0.387939-1.166809-1.138855-1.166809-1.955627v-1.298401V8.947449
		c0-0.904236-0.199768-1.783691-0.528748-2.605591l3.858459-3.858459l-1.414063-1.414063l-3.473816,3.473816
		C17.0625,4.534729,17.054199,4.527893,17.047546,4.51947L2.567017,19h0.045288l-0.542969,0.542969l1.414063,1.414063L5.44043,19H22
		v-3L19.794128,14.80957z"/>
</g>
</svg>
