<?xml version="1.0" encoding="utf-8"?>
<!-- Generator: Adobe Illustrator 22.0.1, SVG Export Plug-In . SVG Version: 6.00 Build 0)  -->
<svg version="1.1" id="Layer_1" xmlns="http://www.w3.org/2000/svg" xmlns:xlink="http://www.w3.org/1999/xlink" x="0px" y="0px"
	 width="24px" height="24px" viewBox="0 0 24 24" style="enable-background:new 0 0 24 24;" xml:space="preserve">
<style type="text/css">
	.st0{display:none;opacity:0;}
	.st1{display:inline;fill:#FFFFFF;}
</style>
<g class="st0">
	<rect class="st1" width="0.9375" height="24"/>
	
		<rect x="11.53125" y="11.53125" transform="matrix(-1.836970e-16 1 -1 -1.836970e-16 35.53125 11.53125)" class="st1" width="0.9375" height="24"/>
</g>
<g>
	<path d="M6,4h9v3h3v2h2V5.460938L16.539063,2H6C4.896973,2,4,2.896973,4,4v5h2V4z"/>
	<path d="M18,20H6v-2H4v2c0,1.102539,0.896973,2,2,2h12c1.102539,0,2-0.897461,2-2v-2h-2V20z"/>
	<polygon points="18.426758,10.506836 18.426758,10.682068 17.34375,12.424805 16.258789,10.675964 16.258789,10.506836 
		14.65918,10.506836 14.65918,16.25 16.258789,16.25 16.258789,13.71167 17.341797,15.458008 18.426758,13.712524 18.426758,16.25 
		20.026367,16.25 20.026367,10.506836 	"/>
	<path d="M8.439453,14.820313v-2.799805c0-0.853516-0.723633-1.547363-1.61377-1.547363H3.950195v5.894043h2.875488
		C7.71582,16.367188,8.439453,15.673828,8.439453,14.820313z M6.839844,12.020508l-0.003113,0.600586H5.549805v-0.568359
		L6.839844,12.020508z M5.549805,14.220703h1.278687l-0.002808,0.546875H5.549805V14.220703z"/>
	<path d="M10.793945,10.473145c-0.890137,0-1.614258,0.694336-1.614258,1.547852v2.799316
		c0,0.853516,0.724121,1.546875,1.614258,1.546875h1.537598c0.890137,0,1.61377-0.693359,1.61377-1.546875v-2.799805
		c0-0.853516-0.723633-1.547363-1.61377-1.547363H10.793945z M12.331543,14.767578l-1.552246,0.052734v-2.799316l0.014648,0.051758
		l1.551758-0.052246L12.331543,14.767578z"/>
</g>
</svg>
