<?xml version="1.0" encoding="utf-8"?>
<!-- Generator: Adobe Illustrator 22.0.1, SVG Export Plug-In . SVG Version: 6.00 Build 0)  -->
<svg version="1.1" id="Layer_1" xmlns="http://www.w3.org/2000/svg" xmlns:xlink="http://www.w3.org/1999/xlink" x="0px" y="0px"
	 width="24px" height="24px" viewBox="0 0 24 24" style="enable-background:new 0 0 24 24;" xml:space="preserve">
<style type="text/css">
	.st0{display:none;opacity:0;}
	.st1{display:inline;fill:#FFFFFF;}
</style>
<g class="st0">
	<rect class="st1" width="0.958333" height="24"/>
	
		<rect x="11.520833" y="11.520833" transform="matrix(-1.836970e-16 1 -1 -1.836970e-16 35.520832 11.520833)" class="st1" width="0.958333" height="24"/>
</g>
<g>
	<path d="M12,2C6.48584,2,2,6.48584,2,12c0,5.513672,4.48584,10,10,10c5.513672,0,10-4.486328,10-10C22,6.48584,17.513672,2,12,2z
		 M12,20c-4.411133,0-8-3.588867-8-8s3.588867-8,8-8s8,3.588867,8,8S16.411133,20,12,20z"/>
	<circle cx="12" cy="16.730774" r="1.269226"/>
	<path d="M12.827637,6.106445c-0.975098-0.250977-1.985352-0.049805-2.76709,0.556152
		c-0.780762,0.60498-1.229004,1.518555-1.229004,2.505859h2c0-0.364258,0.165527-0.701172,0.454102-0.924805
		c0.169922-0.131348,0.530762-0.331543,1.041992-0.200684c0.379395,0.098145,0.699707,0.418457,0.79834,0.79834
		c0.149414,0.578613-0.119141,1.029785-0.42041,1.258301C11.621582,10.922852,11,12.152832,11,13.473633v0.824219h2v-0.824219
		c0-0.69043,0.333984-1.339355,0.915039-1.78125C14.9375,10.915527,15.387695,9.600098,15.0625,8.34082
		C14.783203,7.262207,13.90625,6.385254,12.827637,6.106445z"/>
</g>
</svg>
