<?xml version="1.0" encoding="utf-8"?>
<!-- Generator: Adobe Illustrator 22.0.1, SVG Export Plug-In . SVG Version: 6.00 Build 0)  -->
<svg version="1.1" id="Layer_1" xmlns="http://www.w3.org/2000/svg" xmlns:xlink="http://www.w3.org/1999/xlink" x="0px" y="0px"
	 width="24px" height="24px" viewBox="0 0 24 24" style="enable-background:new 0 0 24 24;" xml:space="preserve">
<style type="text/css">
	.st0{display:none;opacity:0;}
	.st1{display:inline;fill:#FFFFFF;}
</style>
<g class="st0">
	<rect class="st1" width="0.9375" height="24"/>
	
		<rect x="11.53125" y="11.53125" transform="matrix(-1.836970e-16 1 -1 -1.836970e-16 35.53125 11.53125)" class="st1" width="0.9375" height="24"/>
</g>
<path d="M21,13V5c0-1.103027-0.897461-2-2-2H5C3.896973,3,3,3.896973,3,5v8l-2,4v3c0,0.552246,0.447693,1,1,1h20
	c0.552307,0,1-0.447754,1-1v-3L21,13z M5,5h14v8H5V5z M21,19h-6v-2H9v2H3v-1.527893L4.236084,15h15.527832L21,17.472107V19z"/>
</svg>
