<?xml version="1.0" encoding="utf-8"?>
<!-- Generator: Adobe Illustrator 22.0.1, SVG Export Plug-In . SVG Version: 6.00 Build 0)  -->
<svg version="1.1" id="Layer_1" xmlns="http://www.w3.org/2000/svg" xmlns:xlink="http://www.w3.org/1999/xlink" x="0px" y="0px"
	 width="24px" height="24px" viewBox="0 0 24 24" style="enable-background:new 0 0 24 24;" xml:space="preserve">
<style type="text/css">
	.st0{display:none;opacity:0;}
	.st1{display:inline;fill:#FFFFFF;}
</style>
<g class="st0">
	<rect class="st1" width="0.958333" height="24"/>
	
		<rect x="11.520833" y="11.520833" transform="matrix(-1.836970e-16 1 -1 -1.836970e-16 35.520832 11.520833)" class="st1" width="0.958333" height="24"/>
</g>
<g>
	<path d="M20.307617,3.692383C19.216797,2.601074,17.765625,2,16.222656,2s-2.994141,0.601074-4.087402,1.694824L11.290527,4.54541
		l1.418945,1.40918l0.842285-0.848145c1.427734-1.426758,3.914063-1.426758,5.341797,0C19.607422,5.820313,20,6.768555,20,7.777344
		s-0.392578,1.95752-1.106445,2.670898l-3.37793,3.37793c-1.428711,1.428711-3.914551,1.426758-5.342285,0l-1.414063,1.414063
		c1.09082,1.091797,2.541992,1.692383,4.085449,1.692383c1.542969,0,2.994141-0.600586,4.084961-1.692383l3.37793-3.377441
		C21.399414,10.771484,22,9.320801,22,7.777344C22,6.234375,21.399414,4.783203,20.307617,3.692383z"/>
	<path d="M10.447754,18.893555c-1.424805,1.427734-3.912598,1.428711-5.341309,0C4.393066,18.179688,4,17.231445,4,16.222656
		s0.393066-1.957031,1.106445-2.670898l3.37793-3.378418c1.426758-1.427246,3.914063-1.42627,5.341797,0l1.414063-1.414063
		c-1.09082-1.091309-2.541504-1.692383-4.084961-1.692383c-1.542969,0-2.993652,0.601074-4.084961,1.692383l-3.37793,3.378418
		C2.601074,13.228516,2,14.679688,2,16.222656s0.601074,2.994141,1.692383,4.084961C4.783203,21.399414,6.234375,22,7.777344,22
		c1.543457,0,2.994141-0.600586,4.087402-1.694336l0.844727-0.850586l-1.418945-1.410156L10.447754,18.893555z"/>
</g>
</svg>
