<?xml version="1.0" encoding="utf-8"?>
<!-- Generator: Adobe Illustrator 22.0.1, SVG Export Plug-In . SVG Version: 6.00 Build 0)  -->
<svg version="1.1" id="Layer_1" xmlns="http://www.w3.org/2000/svg" xmlns:xlink="http://www.w3.org/1999/xlink" x="0px" y="0px"
	 width="24px" height="24px" viewBox="0 0 24 24" style="enable-background:new 0 0 24 24;" xml:space="preserve">
<style type="text/css">
	.st0{display:none;opacity:0;}
	.st1{display:inline;fill:#FFFFFF;}
</style>
<g class="st0">
	<rect class="st1" width="0.958333" height="24"/>
	
		<rect x="11.520833" y="11.520833" transform="matrix(-1.836970e-16 1 -1 -1.836970e-16 35.520832 11.520833)" class="st1" width="0.958333" height="24"/>
</g>
<path d="M12,2C7.720215,2,4.238281,5.481934,4.238281,9.761719c0,6.048828,6.849609,11.541016,7.141113,11.772461L12,22.025391
	l0.620605-0.491211c0.291504-0.231445,7.141113-5.723633,7.141113-11.772461C19.761719,5.481934,16.280273,2,12,2z M12,11.625
	c-1.44751,0-2.625-1.17749-2.625-2.625S10.55249,6.375,12,6.375S14.625,7.55249,14.625,9S13.44751,11.625,12,11.625z"/>
</svg>
