<?xml version="1.0" encoding="utf-8"?>
<!-- Generator: Adobe Illustrator 22.0.1, SVG Export Plug-In . SVG Version: 6.00 Build 0)  -->
<svg version="1.1" id="Layer_1" xmlns="http://www.w3.org/2000/svg" xmlns:xlink="http://www.w3.org/1999/xlink" x="0px" y="0px"
	 width="24px" height="24px" viewBox="0 0 24 24" style="enable-background:new 0 0 24 24;" xml:space="preserve">
<style type="text/css">
	.st0{display:none;opacity:0;}
	.st1{display:inline;fill:#FFFFFF;}
</style>
<g class="st0">
	<rect class="st1" width="0.958333" height="24"/>
	
		<rect x="11.520833" y="11.520833" transform="matrix(-1.836970e-16 1 -1 -1.836970e-16 35.520832 11.520833)" class="st1" width="0.958333" height="24"/>
</g>
<g>
	<path d="M22,10.888855h-2.422913c-0.488037-3.337646-3.128296-5.977539-6.466003-6.465454V2h-2.222168v2.423401
		C7.55127,4.911316,4.911377,7.551208,4.423401,10.888855H2v2.222229h2.423401
		c0.487915,3.337708,3.127869,5.977966,6.465515,6.466003V22h2.222168v-2.422913
		c3.337708-0.488037,5.977966-3.128296,6.466003-6.466003H22V10.888855z M12,17.666992
		C8.875488,17.666992,6.333496,15.125,6.333496,12c0-3.124512,2.541992-5.666504,5.666504-5.666504
		c3.125,0,5.666992,2.541992,5.666992,5.666504C17.666992,15.125,15.125,17.666992,12,17.666992z"/>
	<path d="M12,8.666626c-1.840942,0-3.333313,1.492432-3.333313,3.333374S10.159058,15.333313,12,15.333313
		S15.333313,13.840942,15.333313,12S13.840942,8.666626,12,8.666626z"/>
</g>
</svg>
