<?xml version="1.0" encoding="utf-8"?>
<!-- Generator: Adobe Illustrator 22.0.1, SVG Export Plug-In . SVG Version: 6.00 Build 0)  -->
<svg version="1.1" id="Layer_1" xmlns="http://www.w3.org/2000/svg" xmlns:xlink="http://www.w3.org/1999/xlink" x="0px" y="0px"
	 width="24px" height="24px" viewBox="0 0 24 24" style="enable-background:new 0 0 24 24;" xml:space="preserve">
<style type="text/css">
	.st0{display:none;}
	.st1{display:inline;opacity:0;fill:#FFFFFF;}
</style>
<g class="st0">
	<rect class="st1" width="1.2" height="24"/>
	
		<rect x="11.4" y="11.4" transform="matrix(-1.836970e-16 1 -1 -1.836970e-16 35.400002 11.4)" class="st1" width="1.2" height="24"/>
</g>
<g>
	<path d="M21,7c0-1.104614-0.895447-2-2-2h-8.125l-2-2h-5c-0.552307,0-1,0.447693-1,1v4H21V7z"/>
	<path d="M0.875,9l1.860718,11.164368C2.816101,20.646545,3.233276,21,3.722107,21h16.430786
		c0.488831,0,0.906006-0.353455,0.986389-0.835632L23,9H0.875z M12,18v-2.400391H9v-1.199219h3V12l3,3L12,18z"/>
</g>
</svg>
