<?xml version="1.0" encoding="utf-8"?>
<!-- Generator: Adobe Illustrator 22.0.1, SVG Export Plug-In . SVG Version: 6.00 Build 0)  -->
<svg version="1.1" id="Layer_1" xmlns="http://www.w3.org/2000/svg" xmlns:xlink="http://www.w3.org/1999/xlink" x="0px" y="0px"
	 width="24px" height="24px" viewBox="0 0 24 24" style="enable-background:new 0 0 24 24;" xml:space="preserve">
<style type="text/css">
	.st0{display:none;opacity:0;}
	.st1{display:inline;fill:#FFFFFF;}
</style>
<g class="st0">
	<rect class="st1" width="0.958333" height="24"/>
	
		<rect x="11.520833" y="11.520833" transform="matrix(-1.836970e-16 1 -1 -1.836970e-16 35.520832 11.520833)" class="st1" width="0.958333" height="24"/>
</g>
<g>
	<g>
		<g>
			<path d="M19.794136,14.809567c-0.718782-0.387904-1.16684-1.138846-1.16684-1.955618v-1.298395V8.947445
				c0-3.092739-2.127441-5.993391-4.994167-6.722466c0,0-0.633126-0.214706-1.633127-0.214706
				c-0.996078,0-1.627297,0.214706-1.627297,0.214706C7.508895,2.95697,5.333334,5.857623,5.333334,8.950361v2.605193v1.307198
				c0,0.813655-0.444676,1.562254-1.159198,1.951474L2,15.998541V19h20v-3L19.794136,14.809567z"/>
		</g>
	</g>
	<g>
		<path d="M9.77778,20.356232c0,1.080288,0.993689,1.956554,2.222222,1.956554s2.222223-0.8748,2.222223-1.956554V20H9.77778
			V20.356232z"/>
	</g>
</g>
</svg>
