<?xml version="1.0" encoding="utf-8"?>
<!-- Generator: Adobe Illustrator 22.0.1, SVG Export Plug-In . SVG Version: 6.00 Build 0)  -->
<svg version="1.1" id="Layer_1" xmlns="http://www.w3.org/2000/svg" xmlns:xlink="http://www.w3.org/1999/xlink" x="0px" y="0px"
	 width="24px" height="24px" viewBox="0 0 24 24" style="enable-background:new 0 0 24 24;" xml:space="preserve">
<style type="text/css">
	.st0{display:none;}
	.st1{display:inline;opacity:0;fill:#FFFFFF;}
</style>
<g class="st0">
	<rect class="st1" width="1.2" height="24"/>
	
		<rect x="11.4" y="11.4" transform="matrix(-1.836970e-16 1 -1 -1.836970e-16 35.400002 11.4)" class="st1" width="1.2" height="24"/>
</g>
<g>
	<rect x="4" y="4" width="3" height="2"/>
	<rect x="4" y="8" width="3" height="2"/>
	<rect x="17" y="4" width="3" height="2"/>
	<rect x="17" y="8" width="3" height="2"/>
	<path d="M15,13.025574V5c0-1.654297-1.345703-3-3-3S9,3.345703,9,5v8.025574C7.79303,13.939209,7,15.373108,7,17
		c0,2.756836,2.243164,5,5,5s5-2.243164,5-5C17,15.373108,16.20697,13.939209,15,13.025574z M12,19.518127
		c-1.390747,0-2.518127-1.12738-2.518127-2.518127c0-1.034973,0.625488-1.922424,1.518127-2.30957v-2.589355V7.9375h2v4.163574
		v2.589355c0.892639,0.387146,1.518127,1.274597,1.518127,2.30957C14.518127,18.390747,13.390747,19.518127,12,19.518127z"/>
</g>
</svg>
