<?xml version="1.0" encoding="utf-8"?>
<!-- Generator: Adobe Illustrator 22.0.1, SVG Export Plug-In . SVG Version: 6.00 Build 0)  -->
<svg version="1.1" id="Layer_1" xmlns="http://www.w3.org/2000/svg" xmlns:xlink="http://www.w3.org/1999/xlink" x="0px" y="0px"
	 width="24px" height="24px" viewBox="0 0 24 24" style="enable-background:new 0 0 24 24;" xml:space="preserve">
<style type="text/css">
	.st0{display:none;}
	.st1{display:inline;opacity:0;fill:#FFFFFF;}
</style>
<g class="st0">
	<rect class="st1" width="1.2" height="24"/>
	
		<rect x="11.4" y="11.4" transform="matrix(-1.836970e-16 1 -1 -1.836970e-16 35.400002 11.4)" class="st1" width="1.2" height="24"/>
</g>
<g>
	<circle cx="16" cy="14.5" r="1.5"/>
	<path d="M13,17.46875V19h6v-1.53125c-0.730774-0.538452-1.769226-1-3-1C14.807678,16.46875,13.730774,16.891785,13,17.46875z"/>
	<path d="M20,9h-5v2h5c0.551758,0,1,0.44873,1,1v8c0,0.551758-0.448242,1-1,1h-8c-0.55127,0-1-0.448242-1-1v-5H9v5
		c0,1.654297,1.345703,3,3,3h8c1.654297,0,3-1.345703,3-3v-8C23,10.345703,21.654297,9,20,9z"/>
	<path d="M14,12V3c0-1.104553-0.895447-2-2-2H3C1.895447,1,1,1.895447,1,3v9c0,1.104553,0.895447,2,2,2h9
		C13.104553,14,14,13.104553,14,12z M7.5,3.375c1.001038,0,1.8125,0.811462,1.8125,1.8125C9.3125,6.188477,8.501038,7,7.5,7
		S5.6875,6.188477,5.6875,5.1875C5.6875,4.186462,6.498962,3.375,7.5,3.375z M11.125,11h-7.25V9.149719
		C4.757996,8.452637,6.059265,7.941406,7.5,7.941406c1.487183,0,2.742004,0.557678,3.625,1.208313V11z"/>
</g>
</svg>
