<?xml version="1.0" encoding="utf-8"?>
<!-- Generator: Adobe Illustrator 22.0.1, SVG Export Plug-In . SVG Version: 6.00 Build 0)  -->
<svg version="1.1" id="Layer_1" xmlns="http://www.w3.org/2000/svg" xmlns:xlink="http://www.w3.org/1999/xlink" x="0px" y="0px"
	 width="24px" height="24px" viewBox="0 0 24 24" style="enable-background:new 0 0 24 24;" xml:space="preserve">
<style type="text/css">
	.st0{display:none;opacity:0;}
	.st1{display:inline;fill:#FFFFFF;}
</style>
<g class="st0">
	<rect class="st1" width="0.9375" height="24"/>
	
		<rect x="11.53125" y="11.53125" transform="matrix(-1.836970e-16 1 -1 -1.836970e-16 35.53125 11.53125)" class="st1" width="0.9375" height="24"/>
</g>
<g>
	<path d="M15.414063,2H6C4.896973,2,4,2.896973,4,4v16c0,1.102539,0.896973,2,2,2h12c1.102539,0,2-0.897461,2-2V6.585938
		L15.414063,2z M6,20.000977V4h8v4h4v12L6,20.000977z"/>
	<path d="M15.49707,13.97168c-0.216797-0.075195-0.485352-0.100586-0.817383-0.101563
		c-0.165039,0.003906-0.34082,0.017578-0.523438,0.040039c-0.164063,0.019531-0.325195,0.044922-0.508789,0.079102
		c-0.165039-0.167969-0.310547-0.330078-0.444336-0.494141c-0.309082-0.378906-0.602051-0.802246-0.870117-1.256348
		c-0.043945-0.075684-0.08252-0.143555-0.117676-0.206543c0.042969-0.099121,0.085449-0.200195,0.125977-0.305664
		c0.069336-0.179688,0.129395-0.35498,0.177246-0.522461c0.104492-0.364746,0.144531-0.663574,0.123047-0.912598
		c-0.045898-0.536133-0.241699-0.974609-0.551758-1.234863c-0.228027-0.191406-0.506348-0.279785-0.80957-0.251953
		c-0.73291,0.06543-1.170898,0.750488-1.089355,1.70459c0.019531,0.230469,0.098633,0.492188,0.240723,0.800293
		c0.070313,0.152344,0.154297,0.310059,0.248535,0.472656c0.091309,0.156738,0.1875,0.30957,0.284668,0.454102l-0.040039,0.107422
		c-0.186523,0.495605-0.37793,0.991211-0.561523,1.454102l-0.115234,0.287109
		c-0.13623,0.337891-0.260742,0.636719-0.370605,0.887695C9.73291,15,9.582031,15.032227,9.429688,15.069336
		c-0.18457,0.045898-0.359375,0.09668-0.520996,0.152344c-0.352051,0.121094-0.615723,0.258789-0.806152,0.421875
		c-0.716797,0.615234-0.883301,1.413086-0.413574,1.985352c0.197754,0.240234,0.461426,0.380859,0.762207,0.407227
		c0.03418,0.00293,0.068359,0.004883,0.103027,0.004883c0.369141,0,0.767578-0.168945,1.132813-0.481445
		c0.17334-0.148438,0.338867-0.365234,0.505371-0.662109c0.081055-0.145508,0.160156-0.306641,0.236328-0.479492
		c0.033691-0.077148,0.063477-0.15332,0.093262-0.229492l0.103516-0.233398c0.669922-0.21582,1.372559-0.412109,2.089355-0.583984
		c0.213867-0.049805,0.412109-0.094727,0.59668-0.134766c0.069336,0.078125,0.141602,0.157227,0.217773,0.236328
		c0.132813,0.137695,0.265625,0.265625,0.396484,0.378906c0.285156,0.24707,0.537109,0.40625,0.768555,0.487305
		c0.493164,0.172852,0.959961,0.172852,1.316406-0.003906c0.273438-0.133789,0.47168-0.361328,0.571289-0.658203
		C16.821289,14.96875,16.384766,14.28418,15.49707,13.97168z M15.141602,15.011719
		c0.336914,0.118164,0.432617,0.251953,0.413086,0.30957l-0.030273,0.03125c-0.033203,0.013672-0.160156,0.056641-0.474609-0.053711
		c-0.045898-0.016602-0.178711-0.076172-0.418945-0.285156c-0.011719-0.009766-0.025391-0.022461-0.040039-0.036133
		c0.045898-0.00293,0.086914-0.005859,0.114258-0.005859C14.980469,14.959961,15.100586,14.998047,15.141602,15.011719z
		 M11.410645,9.915527c0.027344,0.022949,0.119629,0.125,0.149414,0.47168c0.004395,0.049316,0.004395,0.198242-0.084961,0.510254
		c-0.003418,0.012207-0.007324,0.025391-0.011719,0.040039c-0.02002-0.038086-0.037109-0.071777-0.047852-0.095215
		c-0.117188-0.251953-0.138672-0.383301-0.142578-0.428223c-0.032227-0.374023,0.056641-0.508789,0.102539-0.512695
		L11.410645,9.915527z M11.253906,14.500977l0.117188-0.291992c0.114746-0.290039,0.232422-0.592773,0.350098-0.900391
		c0.212891,0.326172,0.425781,0.619141,0.644531,0.886719c0.029297,0.036133,0.059082,0.072266,0.089355,0.107422
		c-0.392578,0.09375-0.806152,0.203125-1.255859,0.333008C11.217285,14.591797,11.235352,14.546875,11.253906,14.500977z
		 M9.30127,16.249023c-0.021484,0.042969-0.040527,0.080078-0.054199,0.105469H9.246582
		c-0.135254,0.243164-0.227051,0.334961-0.260742,0.364258c-0.254883,0.21875-0.38916,0.223633-0.462402,0.205078
		c-0.03125-0.038086-0.003906-0.195313,0.280273-0.439453c0.037109-0.032227,0.15625-0.117188,0.455078-0.220703
		C9.270996,16.258789,9.285645,16.253906,9.30127,16.249023z"/>
</g>
</svg>
