<?xml version="1.0" encoding="utf-8"?>
<!-- Generator: Adobe Illustrator 22.0.1, SVG Export Plug-In . SVG Version: 6.00 Build 0)  -->
<svg version="1.1" id="Layer_1" xmlns="http://www.w3.org/2000/svg" xmlns:xlink="http://www.w3.org/1999/xlink" x="0px" y="0px"
	 width="24px" height="24px" viewBox="0 0 24 24" style="enable-background:new 0 0 24 24;" xml:space="preserve">
<style type="text/css">
	.st0{display:none;}
	.st1{display:inline;opacity:0;fill:#FFFFFF;}
</style>
<g class="st0">
	<rect class="st1" width="1.2" height="24"/>
	
		<rect x="11.4" y="11.4" transform="matrix(-1.836970e-16 1 -1 -1.836970e-16 35.400002 11.4)" class="st1" width="1.2" height="24"/>
</g>
<g>
	<path d="M12,2v2c4.411133,0,8,3.588867,8,8h2C22,6.48584,17.513672,2,12,2z"/>
	<path d="M16,12h2c0-3.308594-2.691406-6-6-6v2C14.206055,8,16,9.794434,16,12z"/>
	<path d="M12,10v2h2C14,10.895447,13.104553,10,12,10z"/>
	<path d="M18,16h-4l-1.988892,2.983276c-1.640015-0.152344-3.337708-0.928528-4.702026-2.292847
		c-1.323059-1.323059-2.129333-2.990906-2.28656-4.705444L8,10V6c0-0.552307-0.447693-1-1-1H3C2.447693,5,2,5.447693,2,6v3.875V11
		v0.056458c-0.004333,0.12439-0.000671,0.250671,0,0.376404V12h0.014526c0.002136,0.033325,0.000061,0.065674,0.002563,0.099121
		c0.185547,2.469238,1.311523,4.853027,3.170898,6.712402C7.134583,20.758118,9.595032,21.814697,12,21.969482V22h0.590942
		c0.006287,0,0.012634,0.000977,0.018921,0.000977C12.617249,22.000977,12.624451,22,12.631836,22H13h1h4c0.552307,0,1-0.447754,1-1
		v-4C19,16.447693,18.552307,16,18,16z"/>
</g>
</svg>
