<?xml version="1.0" encoding="utf-8"?>
<!-- Generator: Adobe Illustrator 22.0.1, SVG Export Plug-In . SVG Version: 6.00 Build 0)  -->
<svg version="1.1" id="Layer_1" xmlns="http://www.w3.org/2000/svg" xmlns:xlink="http://www.w3.org/1999/xlink" x="0px" y="0px"
	 width="24px" height="24px" viewBox="0 0 24 24" style="enable-background:new 0 0 24 24;" xml:space="preserve">
<style type="text/css">
	.st0{display:none;}
	.st1{display:inline;opacity:0;fill:#FFFFFF;}
</style>
<g class="st0">
	<rect class="st1" width="1.2" height="24"/>
	
		<rect x="11.4" y="11.4" transform="matrix(-1.836970e-16 1 -1 -1.836970e-16 35.400002 11.4)" class="st1" width="1.2" height="24"/>
</g>
<g>
	<rect x="7" y="2" width="2" height="2"/>
	<rect x="11" y="2" width="2" height="2"/>
	<rect x="15" y="2" width="2" height="2"/>
	<rect x="7" y="20" width="2" height="2"/>
	<rect x="11" y="20" width="2" height="2"/>
	<rect x="15" y="20" width="2" height="2"/>
	<rect x="2" y="15" width="2" height="2"/>
	<rect x="2" y="11" width="2" height="2"/>
	<rect x="2" y="7" width="2" height="2"/>
	<rect x="20" y="15" width="2" height="2"/>
	<rect x="20" y="11" width="2" height="2"/>
	<rect x="20" y="7" width="2" height="2"/>
	<path d="M17,5H7C5.895447,5,5,5.895386,5,7v10c0,1.104553,0.895447,2,2,2h10c1.104553,0,2-0.895447,2-2V7
		C19,5.895386,18.104553,5,17,5z M16,17c-0.552307,0-1-0.447754-1-1c0-0.552307,0.447693-1,1-1s1,0.447693,1,1
		C17,16.552246,16.552307,17,16,17z"/>
</g>
</svg>
