<?xml version="1.0" encoding="utf-8"?>
<!-- Generator: Adobe Illustrator 22.0.1, SVG Export Plug-In . SVG Version: 6.00 Build 0)  -->
<svg version="1.1" id="Layer_1" xmlns="http://www.w3.org/2000/svg" xmlns:xlink="http://www.w3.org/1999/xlink" x="0px" y="0px"
	 width="24px" height="24px" viewBox="0 0 24 24" style="enable-background:new 0 0 24 24;" xml:space="preserve">
<style type="text/css">
	.st0{display:none;}
	.st1{display:inline;opacity:0;fill:#FFFFFF;}
</style>
<g class="st0">
	<rect class="st1" width="1.2" height="24"/>
	
		<rect x="11.4" y="11.4" transform="matrix(-1.836970e-16 1 -1 -1.836970e-16 35.400002 11.4)" class="st1" width="1.2" height="24"/>
</g>
<g>
	<path d="M6,4h10.585938L18,5.414063V7h2V4.585938L17.414063,2H6C4.896973,2,4,2.896973,4,4v3h2V4z"/>
	<path d="M20,8h-2H4c-1.104553,0-2,0.895386-2,2v6c0,0.552246,0.447693,1,1,1h1v3c0,1.102539,0.896973,2,2,2h12
		c1.102539,0,2-0.897461,2-2v-3h1c0.552307,0,1-0.447754,1-1v-6C22,8.895386,21.104553,8,20,8z M5,10c0.552307,0,1,0.447693,1,1
		c0,0.552246-0.447693,1-1,1s-1-0.447754-1-1C4,10.447693,4.447693,10,5,10z M18,20L6,20.000977V17v-2h12v2V20z"/>
</g>
</svg>
