<?xml version="1.0" encoding="utf-8"?>
<!-- Generator: Adobe Illustrator 22.0.1, SVG Export Plug-In . SVG Version: 6.00 Build 0)  -->
<svg version="1.1" id="Layer_1" xmlns="http://www.w3.org/2000/svg" xmlns:xlink="http://www.w3.org/1999/xlink" x="0px" y="0px"
	 width="24px" height="24px" viewBox="0 0 24 24" style="enable-background:new 0 0 24 24;" xml:space="preserve">
<style type="text/css">
	.st0{display:none;opacity:0;}
	.st1{display:inline;fill:#FFFFFF;}
</style>
<g class="st0">
	<rect class="st1" width="0.958333" height="24"/>
	
		<rect x="11.520833" y="11.520833" transform="matrix(-1.836970e-16 1 -1 -1.836970e-16 35.520832 11.520833)" class="st1" width="0.958333" height="24"/>
</g>
<path d="M15,2H4C2.896973,2,2,2.896973,2,4v11c0,1.102539,0.896973,2,2,2h11c1.102539,0,2-0.897461,2-2V4
	C17,2.896973,16.102539,2,15,2z M4,15V6h11.000366l0.001587,9H4z"/>
<g>
	<path d="M20,7h-2v4h2.000366l0.001587,9H9v-2H7v2c0,1.102539,0.896973,2,2,2h11c1.102539,0,2-0.897461,2-2V9
		C22,7.896973,21.102539,7,20,7z"/>
</g>
</svg>
