<?xml version="1.0" encoding="utf-8"?>
<!-- Generator: Adobe Illustrator 22.0.1, SVG Export Plug-In . SVG Version: 6.00 Build 0)  -->
<svg version="1.1" id="Layer_1" xmlns="http://www.w3.org/2000/svg" xmlns:xlink="http://www.w3.org/1999/xlink" x="0px" y="0px"
	 width="24px" height="24px" viewBox="0 0 24 24" style="enable-background:new 0 0 24 24;" xml:space="preserve">
<style type="text/css">
	.st0{display:none;}
	.st1{display:inline;opacity:0;fill:#FFFFFF;}
</style>
<g class="st0">
	<rect class="st1" width="1.2" height="24"/>
	
		<rect x="11.4" y="11.4" transform="matrix(-1.836970e-16 1 -1 -1.836970e-16 35.400002 11.4)" class="st1" width="1.2" height="24"/>
</g>
<path d="M9,9.428528V7c0-1.654297,1.345703-3,3-3s3,1.345703,3,3h2c0-2.756836-2.243164-5-5-5S7,4.243164,7,7v2.428528H4V20
	c0,1.104553,0.895447,2,2,2h12c1.104553,0,2-0.895447,2-2V9.428528H9z M13,16.592896v2.389221h-2v-2.389221
	c-0.575012-0.342651-0.964294-0.964233-0.964294-1.68219c0-1.084839,0.879456-1.964294,1.964294-1.964294
	s1.964294,0.879456,1.964294,1.964294C13.964294,15.628662,13.575012,16.250244,13,16.592896z"/>
</svg>
