<?xml version="1.0" encoding="utf-8"?>
<!-- Generator: Adobe Illustrator 22.0.1, SVG Export Plug-In . SVG Version: 6.00 Build 0)  -->
<svg version="1.1" id="Layer_1" xmlns="http://www.w3.org/2000/svg" xmlns:xlink="http://www.w3.org/1999/xlink" x="0px" y="0px"
	 width="24px" height="24px" viewBox="0 0 24 24" style="enable-background:new 0 0 24 24;" xml:space="preserve">
<style type="text/css">
	.st0{display:none;opacity:0;}
	.st1{display:inline;fill:#FFFFFF;}
</style>
<g class="st0">
	<rect class="st1" width="0.9375" height="24"/>
	
		<rect x="11.53125" y="11.53125" transform="matrix(-1.836970e-16 1 -1 -1.836970e-16 35.53125 11.53125)" class="st1" width="0.9375" height="24"/>
</g>
<g id="Production">
	<g>
		<path d="M4.051562,6.824109C2.678374,8.731461,2.286051,11.533219,3.375,15.75c2.25-2.625,5.136949-6.335142,10.5-8.25v1.089597
			C7.166191,12.130786,3.416667,17.229166,2,22h3.020833c0.486551-1.569468,1.895833-3.666666,1.895833-3.666666
			c0.729167,0.229166,2.327618,0.399368,3.039027,0.399368C22,18.732668,22,6.714078,22,2.744581V2
			C11,2,7.5,2.375,4.051562,6.824109z"/>
	</g>
</g>
</svg>
