<?xml version="1.0" encoding="utf-8"?>
<!-- Generator: Adobe Illustrator 22.0.1, SVG Export Plug-In . SVG Version: 6.00 Build 0)  -->
<svg version="1.1" id="Layer_1" xmlns="http://www.w3.org/2000/svg" xmlns:xlink="http://www.w3.org/1999/xlink" x="0px" y="0px"
	 width="24px" height="24px" viewBox="0 0 24 24" style="enable-background:new 0 0 24 24;" xml:space="preserve">
<style type="text/css">
	.st0{display:none;opacity:0;}
	.st1{display:inline;fill:#FFFFFF;}
</style>
<g class="st0">
	<rect class="st1" width="0.9375" height="24"/>
	
		<rect x="11.53125" y="11.53125" transform="matrix(-1.836970e-16 1 -1 -1.836970e-16 35.53125 11.53125)" class="st1" width="0.9375" height="24"/>
</g>
<path d="M22.060547,19.704529l-4.489502-4.489441C18.472656,13.865662,19,12.244751,19,10.5C19,5.805542,15.194397,2,10.5,2
	S2,5.805542,2,10.5c0,4.694397,3.805603,8.5,8.5,8.5c1.744751,0,3.365662-0.527344,4.715088-1.428955l4.489502,4.489502
	L22.060547,19.704529z M4,10.5C4,6.915894,6.915894,4,10.5,4S17,6.915894,17,10.5S14.084106,17,10.5,17S4,14.084106,4,10.5z"/>
</svg>
