<?xml version="1.0" encoding="utf-8"?>
<!-- Generator: Adobe Illustrator 22.0.1, SVG Export Plug-In . SVG Version: 6.00 Build 0)  -->
<svg version="1.1" id="Layer_1" xmlns="http://www.w3.org/2000/svg" xmlns:xlink="http://www.w3.org/1999/xlink" x="0px" y="0px"
	 width="24px" height="24px" viewBox="0 0 24 24" style="enable-background:new 0 0 24 24;" xml:space="preserve">
<style type="text/css">
	.st0{display:none;opacity:0;}
	.st1{display:inline;fill:#FFFFFF;}
</style>
<g class="st0">
	<rect class="st1" width="0.9375" height="24"/>
	
		<rect x="11.53125" y="11.53125" transform="matrix(-1.836970e-16 1 -1 -1.836970e-16 35.53125 11.53125)" class="st1" width="0.9375" height="24"/>
</g>
<g>
	<path d="M6,4h8v4h4v3h2V6.585938L15.414063,2H6C4.896973,2,4,2.896973,4,4v16c0,1.102539,0.896973,2,2,2h5v-1.999451l-5,0.000427V4
		z"/>
	<path d="M21.440796,17.295288c-0.391418-0.10437-0.692871-0.398193-0.847595-0.772522
		c-0.001831-0.004333-0.003601-0.008728-0.005432-0.013062c-0.156982-0.375916-0.15332-0.799255,0.050781-1.151855
		l0.289795-0.500549L20.1427,14.071594l-0.50061,0.289856c-0.3526,0.204102-0.77594,0.207764-1.151855,0.050781
		c-0.004333-0.001831-0.008667-0.003601-0.013-0.005432c-0.374329-0.154724-0.668152-0.456177-0.772522-0.847595L17.555542,13
		h-1.111084l-0.149109,0.559143c-0.10437,0.391418-0.398254,0.692932-0.772644,0.847656
		c-0.004333,0.00177-0.008667,0.003601-0.013,0.005432c-0.375977,0.156982-0.799255,0.15332-1.151855-0.050842L13.8573,14.071594
		L13.071655,14.8573l0.289795,0.500549c0.204102,0.3526,0.207764,0.775879,0.050781,1.151794
		c-0.001831,0.004333-0.003601,0.008728-0.005432,0.013062c-0.154724,0.37439-0.456238,0.668213-0.847595,0.772583L12,17.444458
		v1.111084l0.559204,0.149109c0.391418,0.10437,0.692871,0.398254,0.847656,0.772583
		c0.00177,0.004333,0.00354,0.008667,0.005371,0.013c0.157043,0.375916,0.153381,0.799255-0.050781,1.151855l-0.289795,0.50061
		l0.785645,0.785645l0.50061-0.289856c0.3526-0.204102,0.77594-0.207764,1.151855-0.050781
		c0.004333,0.001831,0.008667,0.003601,0.013,0.005432c0.374329,0.154724,0.668152,0.456238,0.772522,0.847595L16.444458,23
		h1.111084l0.14917-0.559326c0.10437-0.391357,0.398193-0.692871,0.772522-0.847595
		c0.004272-0.00177,0.008606-0.00354,0.012878-0.005371c0.375977-0.157043,0.799316-0.153381,1.151917,0.050781l0.500671,0.289856
		l0.785645-0.785645l-0.289856-0.500671c-0.204102-0.3526-0.207764-0.77594-0.05072-1.151917
		c0.00177-0.004272,0.003601-0.008606,0.005371-0.012939c0.154724-0.374329,0.456238-0.668152,0.847595-0.772522L22,18.555542
		v-1.111084L21.440796,17.295288z M17,19.666626c-0.919067,0-1.666687-0.747559-1.666687-1.666626S16.080933,16.333313,17,16.333313
		S18.666687,17.080933,18.666687,18S17.919067,19.666626,17,19.666626z"/>
</g>
</svg>
