<?xml version="1.0" encoding="utf-8"?>
<!-- Generator: Adobe Illustrator 22.0.1, SVG Export Plug-In . SVG Version: 6.00 Build 0)  -->
<svg version="1.1" id="Layer_1" xmlns="http://www.w3.org/2000/svg" xmlns:xlink="http://www.w3.org/1999/xlink" x="0px" y="0px"
	 width="24px" height="24px" viewBox="0 0 24 24" style="enable-background:new 0 0 24 24;" xml:space="preserve">
<style type="text/css">
	.st0{display:none;opacity:0;}
	.st1{display:inline;fill:#FFFFFF;}
</style>
<g class="st0">
	<rect class="st1" width="0.9375" height="24"/>
	
		<rect x="11.53125" y="11.53125" transform="matrix(-1.836970e-16 1 -1 -1.836970e-16 35.53125 11.53125)" class="st1" width="0.9375" height="24"/>
</g>
<path d="M17.5,15.125c-1.032043,0-1.950195,0.455078-2.59082,1.16571l-6.06189-3.322388C8.936829,12.658875,9,12.338318,9,12
	c0-0.328125-0.059692-0.639404-0.144104-0.940552l6.033569-3.249023C15.530701,8.534424,16.456787,9,17.5,9
	C19.432983,9,21,7.432983,21,5.5S19.432983,2,17.5,2S14,3.567017,14,5.5c0,0.168396,0.02655,0.329651,0.049561,0.491699
	L7.782288,9.366272C7.168213,8.833679,6.376648,8.5,5.5,8.5C3.567017,8.5,2,10.067017,2,12s1.567017,3.5,3.5,3.5
	c0.865967,0,1.648315-0.326355,2.259399-0.847351l6.293335,3.449219C14.026733,18.273804,14,18.445801,14,18.625
	c0,1.932983,1.567017,3.5,3.5,3.5s3.5-1.567017,3.5-3.5S19.432983,15.125,17.5,15.125z"/>
</svg>
