<?xml version="1.0" encoding="utf-8"?>
<!-- Generator: Adobe Illustrator 22.0.1, SVG Export Plug-In . SVG Version: 6.00 Build 0)  -->
<svg version="1.1" id="Layer_1" xmlns="http://www.w3.org/2000/svg" xmlns:xlink="http://www.w3.org/1999/xlink" x="0px" y="0px"
	 width="24px" height="24px" viewBox="0 0 24 24" style="enable-background:new 0 0 24 24;" xml:space="preserve">
<style type="text/css">
	.st0{display:none;opacity:0;}
	.st1{display:inline;fill:#FFFFFF;}
</style>
<g class="st0">
	<rect class="st1" width="0.9375" height="24"/>
	
		<rect x="11.53125" y="11.53125" transform="matrix(-1.836970e-16 1 -1 -1.836970e-16 35.53125 11.53125)" class="st1" width="0.9375" height="24"/>
</g>
<g>
	<path d="M6,4h8v4h4v3h2V6.585938L15.414063,2H6C4.896973,2,4,2.896973,4,4v16c0,1.102539,0.896973,2,2,2h5v-1.99939l-5,0.000366V4z
		"/>
	<path d="M20.055542,19.111084c-0.434143,0-0.830994,0.147278-1.154602,0.387756L15.90332,18l2.997681-1.49884
		c0.323608,0.240479,0.720398,0.387695,1.154541,0.387695C21.129456,16.888855,22,16.018311,22,14.944458
		C22,13.870544,21.129456,13,20.055542,13c-0.971191,0-1.769165,0.714172-1.914246,1.644714l-3.2901,1.64502
		c-0.271851-0.144531-0.577332-0.234192-0.906738-0.234192C12.870544,16.055542,12,16.926086,12,18
		c0,1.073853,0.870544,1.944458,1.944458,1.944458c0.329407,0,0.634888-0.0896,0.906738-0.234192l3.2901,1.64502
		C18.286377,22.285828,19.084351,23,20.055542,23C21.129456,23,22,22.129456,22,21.055542S21.129456,19.111084,20.055542,19.111084z
		"/>
</g>
</svg>
