<?xml version="1.0" encoding="utf-8"?>
<!-- Generator: Adobe Illustrator 22.0.1, SVG Export Plug-In . SVG Version: 6.00 Build 0)  -->
<svg version="1.1" id="Layer_1" xmlns="http://www.w3.org/2000/svg" xmlns:xlink="http://www.w3.org/1999/xlink" x="0px" y="0px"
	 width="24px" height="24px" viewBox="0 0 24 24" style="enable-background:new 0 0 24 24;" xml:space="preserve">
<style type="text/css">
	.st0{display:none;opacity:0;}
	.st1{display:inline;fill:#FFFFFF;}
</style>
<g class="st0">
	<rect class="st1" width="0.9375" height="24"/>
	
		<rect x="11.53125" y="11.53125" transform="matrix(-1.836970e-16 1 -1 -1.836970e-16 35.53125 11.53125)" class="st1" width="0.9375" height="24"/>
</g>
<path d="M12,17.399916l4.970749,3.613251c0.341749,0.249001,0.82025,0.268499,1.181749,0.004999
	c0.36125-0.2645,0.497999-0.720249,0.36125-1.126249l-1.894501-5.855249L21.58,10.414165v0.00975
	c0.254-0.18125,0.42-0.48025,0.42-0.813c0-0.55825-0.449249-1.01325-1.005751-1.01325h-6.1425l-1.8995-5.856
	c-0.127-0.4005-0.50775-0.7-0.95225-0.7s-0.82525,0.2995-0.95225,0.7l-1.8995,5.856H3.00575l0,0
	C2.454,8.597666,2,9.052416,2,9.610916c0,0.33275,0.166,0.6315,0.42,0.813v-0.005l4.96575,3.6175c0,0-1.8995,5.85525-1.8945,5.85525
	c-0.13675,0.406-0.005,0.86175,0.36125,1.131001c0.36125,0.258751,0.835,0.23925,1.17675-0.00975L12,17.399916z"/>
</svg>
