<?xml version="1.0" encoding="utf-8"?>
<!-- Generator: Adobe Illustrator 22.0.1, SVG Export Plug-In . SVG Version: 6.00 Build 0)  -->
<svg version="1.1" id="Layer_1" xmlns="http://www.w3.org/2000/svg" xmlns:xlink="http://www.w3.org/1999/xlink" x="0px" y="0px"
	 width="24px" height="24px" viewBox="0 0 24 24" style="enable-background:new 0 0 24 24;" xml:space="preserve">
<style type="text/css">
	.st0{display:none;opacity:0;}
	.st1{display:inline;fill:#FFFFFF;}
</style>
<g class="st0">
	<rect class="st1" width="0.958333" height="24"/>
	
		<rect x="11.520833" y="11.520833" transform="matrix(-1.836970e-16 1 -1 -1.836970e-16 35.520832 11.520833)" class="st1" width="0.958333" height="24"/>
</g>
<path d="M12,2C6.477173,2,2,6.477112,2,12c0,5.522827,4.477173,10,10,10s10-4.477173,10-10C22,6.477112,17.522827,2,12,2z
	 M12,18.666687c-0.77887,0-1.410278-0.631409-1.410278-1.410278S11.22113,15.84613,12,15.84613s1.410278,0.631409,1.410278,1.410278
	S12.77887,18.666687,12,18.666687z M14.060547,11.569336C13.386719,12.081543,13,12.835938,13,13.637695v0.916016h-2v-0.916016
	c0-1.432617,0.674805-2.766602,1.851074-3.660645c0.362793-0.275879,0.687012-0.818848,0.507324-1.515137
	c-0.119141-0.459473-0.506836-0.847656-0.966797-0.966309c-0.452637-0.116211-0.899414-0.03125-1.253418,0.243164
	c-0.347656,0.269531-0.547363,0.675781-0.547363,1.114746h-2c0-1.0625,0.481934-2.044922,1.322754-2.696289
	c0.841309-0.651367,1.925293-0.870117,2.978027-0.598145c1.161133,0.299805,2.104492,1.243164,2.40332,2.40332
	C15.644531,9.317871,15.160156,10.733887,14.060547,11.569336z"/>
</svg>
