<?xml version="1.0" encoding="utf-8"?>
<!-- Generator: Adobe Illustrator 22.0.1, SVG Export Plug-In . SVG Version: 6.00 Build 0)  -->
<svg version="1.1" id="Layer_1" xmlns="http://www.w3.org/2000/svg" xmlns:xlink="http://www.w3.org/1999/xlink" x="0px" y="0px"
	 width="24px" height="24px" viewBox="0 0 24 24" style="enable-background:new 0 0 24 24;" xml:space="preserve">
<style type="text/css">
	.st0{display:none;opacity:0;}
	.st1{display:inline;fill:#FFFFFF;}
</style>
<g class="st0">
	<rect class="st1" width="0.9375" height="24"/>
	
		<rect x="11.53125" y="11.53125" transform="matrix(-1.836970e-16 1 -1 -1.836970e-16 35.53125 11.53125)" class="st1" width="0.9375" height="24"/>
</g>
<g>
	<circle cx="6.5" cy="4.5" r="2.5"/>
	<circle cx="17.5" cy="4.5" r="2.5"/>
	<path d="M7.861084,12.513855c0-1.566711,0.885315-2.916443,2.172363-3.61908C9.056702,8.37561,7.8573,8,6.5,8
		C4.711548,8,3.09613,8.634583,2,9.5V13h5.910217C7.890991,12.838623,7.861084,12.680359,7.861084,12.513855z"/>
	<path d="M7,17.625V21h10v-3.375c-1.15033-0.847595-3.062683-1.574036-5-1.574036C10.12323,16.050964,8.15033,16.716919,7,17.625z"
		/>
	<path d="M12,14.972229c1.373047,0,2.486084-1.113098,2.486084-2.486145S13.373047,10,12,10s-2.486084,1.113037-2.486084,2.486084
		S10.626953,14.972229,12,14.972229z"/>
	<path d="M17.5,8c-1.330261,0-2.563904,0.351868-3.560181,0.887878c1.294067,0.7005,2.185181,2.054077,2.185181,3.625977
		c0,0.166504-0.029907,0.324768-0.049133,0.486145H22V9.5C20.90387,8.692322,19.34613,8,17.5,8z"/>
</g>
</svg>
