<?xml version="1.0" encoding="utf-8"?>
<!-- Generator: Adobe Illustrator 22.0.1, SVG Export Plug-In . SVG Version: 6.00 Build 0)  -->
<svg version="1.1" id="Layer_1" xmlns="http://www.w3.org/2000/svg" xmlns:xlink="http://www.w3.org/1999/xlink" x="0px" y="0px"
	 width="24px" height="24px" viewBox="0 0 24 24" style="enable-background:new 0 0 24 24;" xml:space="preserve">
<style type="text/css">
	.st0{display:none;opacity:0;}
	.st1{display:inline;fill:#FFFFFF;}
</style>
<g class="st0">
	<rect class="st1" width="0.9375" height="24"/>
	
		<rect x="11.53125" y="11.53125" transform="matrix(-1.836970e-16 1 -1 -1.836970e-16 35.53125 11.53125)" class="st1" width="0.9375" height="24"/>
</g>
<g>
	<path d="M21,5.802246C21,4.256836,19.743164,3,18.198242,3h-2.790039l-0.366211-0.35791
		C14.619141,2.228027,14.061523,2,13.469727,2H10.51709C9.916504,2,9.352051,2.233887,8.927246,2.658691L8.585938,3H5.802246
		C4.256836,3,3,4.256836,3,5.802246V9h1.948547l0.853699,11.166016C5.887695,21.194336,6.762695,22,7.794922,22h8.410156
		c1.032227,0,1.907227-0.805664,1.993164-1.84082L19.051453,9H21V5.802246z M5,5.802246C5,5.359863,5.359863,5,5.802246,5h3.611816
		l0.927246-0.927246C10.388184,4.025879,10.450684,4,10.51709,4h2.952637c0.06543,0,0.126953,0.025391,0.173828,0.070801
		L14.591797,5h3.606445C18.640625,5,19,5.359863,19,5.802246V7H5V5.802246z M16.205078,20l-8.40918,0.006836L6.954346,9h10.09137
		L16.205078,20z"/>
	<rect x="9" y="11" width="2" height="7"/>
	<rect x="13" y="11" width="2" height="7"/>
</g>
</svg>
