<?xml version="1.0" encoding="utf-8"?>
<!-- Generator: Adobe Illustrator 22.0.1, SVG Export Plug-In . SVG Version: 6.00 Build 0)  -->
<svg version="1.1" id="Layer_1" xmlns="http://www.w3.org/2000/svg" xmlns:xlink="http://www.w3.org/1999/xlink" x="0px" y="0px"
	 width="24px" height="24px" viewBox="0 0 24 24" style="enable-background:new 0 0 24 24;" xml:space="preserve">
<style type="text/css">
	.st0{display:none;opacity:0;}
	.st1{display:inline;fill:#FFFFFF;}
</style>
<g class="st0">
	<rect class="st1" width="0.9375" height="24"/>
	
		<rect x="11.53125" y="11.53125" transform="matrix(-1.836970e-16 1 -1 -1.836970e-16 35.53125 11.53125)" class="st1" width="0.9375" height="24"/>
</g>
<path d="M19,3H5C3.895447,3,3,3.895386,3,5v14c0,1.104553,0.895447,2,2,2h14c1.104553,0,2-0.895447,2-2V5
	C21,3.895386,20.104553,3,19,3z M16.780029,9.618896c0.004517,0.103149,0.006653,0.20697,0.006653,0.311096
	c0,3.173767-2.415466,6.833252-6.833252,6.833252c-1.35614,0-2.618469-0.397278-3.681641-1.079041
	c0.187988,0.022339,0.379272,0.033752,0.572937,0.033752c1.125427,0,2.160767-0.384033,2.982727-1.028259
	c-1.050781-0.019226-1.937622-0.713806-2.243469-1.667908c0.146667,0.028259,0.297058,0.043213,0.452026,0.043213
	c0.219055,0,0.431274-0.029419,0.632751-0.084106c-1.098755-0.221008-1.926697-1.191467-1.926697-2.354919
	c0-0.010193,0-0.020447,0.000244-0.030396c0.323914,0.179871,0.694397,0.288025,1.087891,0.300598
	c-0.64447-0.430603-1.06842-1.165833-1.06842-1.998962c0-0.440552,0.118347-0.853088,0.325134-1.207642
	c1.18457,1.453125,2.954407,2.409119,4.9505,2.509399c-0.041077-0.176086-0.062256-0.359314-0.062256-0.547241
	c0-1.326477,1.075317-2.401733,2.401489-2.401733c0.690796,0,1.315063,0.291809,1.752991,0.758484
	c0.547302-0.107849,1.061035-0.307739,1.525146-0.58313c-0.179443,0.561279-0.559875,1.031799-1.05603,1.328857
	c0.485962-0.0578,0.949097-0.186829,1.379456-0.378113C17.656433,8.857788,17.249146,9.281006,16.780029,9.618896z"/>
</svg>
