<?xml version="1.0" encoding="utf-8"?>
<!-- Generator: Adobe Illustrator 22.0.1, SVG Export Plug-In . SVG Version: 6.00 Build 0)  -->
<svg version="1.1" id="Layer_1" xmlns="http://www.w3.org/2000/svg" xmlns:xlink="http://www.w3.org/1999/xlink" x="0px" y="0px"
	 width="24px" height="24px" viewBox="0 0 24 24" style="enable-background:new 0 0 24 24;" xml:space="preserve">
<style type="text/css">
	.st0{display:none;opacity:0;}
	.st1{display:inline;fill:#FFFFFF;}
</style>
<g class="st0">
	<rect class="st1" width="0.9375" height="24"/>
	
		<rect x="11.53125" y="11.53125" transform="matrix(-1.836970e-16 1 -1 -1.836970e-16 35.53125 11.53125)" class="st1" width="0.9375" height="24"/>
</g>
<g>
	<path d="M20.941406,10.764771c-0.87146-0.193665-1.54718-0.83313-1.887695-1.658386
		c-0.004639-0.01123-0.009277-0.022461-0.013977-0.03363c-0.346741-0.828918-0.325623-1.764648,0.156799-2.522705l0.581665-0.914001
		l-1.414246-1.414246l-0.914001,0.581665c-0.758057,0.482361-1.693787,0.50354-2.522705,0.156799
		c-0.01123-0.0047-0.0224-0.009338-0.03363-0.013977c-0.825256-0.340515-1.464722-1.016235-1.658386-1.887756L13,2h-2
		l-0.235229,1.058533c-0.193665,0.871521-0.83313,1.547241-1.658386,1.887756c-0.01123,0.004639-0.0224,0.009277-0.03363,0.013977
		C8.243835,5.307007,7.308105,5.285828,6.550049,4.803467L5.636047,4.221802L4.221802,5.636047l0.581665,0.914001
		c0.482422,0.758057,0.50354,1.693787,0.156799,2.522705c-0.0047,0.011169-0.009338,0.0224-0.013977,0.03363
		c-0.340515,0.825256-1.016235,1.464722-1.887695,1.658386L2,11v2l1.058594,0.235229
		c0.87146,0.193665,1.54718,0.83313,1.887695,1.658325c0.004639,0.01123,0.009277,0.0224,0.013977,0.03363
		c0.346741,0.828918,0.325623,1.764648-0.156799,2.522705l-0.581665,0.914063l1.414246,1.414185l0.914001-0.581665
		c0.758057-0.482361,1.693787-0.50354,2.522705-0.156799c0.011169,0.0047,0.0224,0.009338,0.03363,0.013977
		c0.825256,0.340576,1.464722,1.016235,1.658386,1.887756L11,22h2l0.235229-1.058594
		c0.193665-0.871521,0.83313-1.54718,1.658386-1.887756c0.01123-0.004639,0.022461-0.009277,0.03363-0.013977
		c0.828918-0.346741,1.764648-0.325562,2.522705,0.156799l0.914001,0.581665l1.414246-1.414185l-0.581665-0.914063
		c-0.482422-0.758057-0.50354-1.693787-0.156799-2.522705c0.0047-0.01123,0.009338-0.0224,0.013977-0.03363
		c0.340515-0.825195,1.016235-1.464661,1.887695-1.658325L22,13v-2L20.941406,10.764771z M12,17.010376
		c-2.767151,0-5.010437-2.243225-5.010437-5.010376c0-2.767212,2.243286-5.010437,5.010437-5.010437
		S17.010437,9.232788,17.010437,12C17.010437,14.767151,14.767151,17.010376,12,17.010376z"/>
	<circle cx="12" cy="10" r="2"/>
	<path d="M9,14v1h6v-1c-0.730774-0.538452-1.769226-1-3-1C10.807678,13,9.730774,13.423035,9,14z"/>
</g>
</svg>
