<?xml version="1.0" encoding="utf-8"?>
<!-- Generator: Adobe Illustrator 22.0.1, SVG Export Plug-In . SVG Version: 6.00 Build 0)  -->
<svg version="1.1" id="Layer_1" xmlns="http://www.w3.org/2000/svg" xmlns:xlink="http://www.w3.org/1999/xlink" x="0px" y="0px"
	 width="24px" height="24px" viewBox="0 0 24 24" style="enable-background:new 0 0 24 24;" xml:space="preserve">
<style type="text/css">
	.st0{display:none;opacity:0;}
	.st1{display:inline;fill:#FFFFFF;}
</style>
<g class="st0">
	<rect class="st1" width="0.9375" height="24"/>
	
		<rect x="11.53125" y="11.53125" transform="matrix(-1.836970e-16 1 -1 -1.836970e-16 35.53125 11.53125)" class="st1" width="0.9375" height="24"/>
</g>
<g>
	<path d="M12,2C6.48584,2,2,6.48584,2,12c0,5.513672,4.48584,10,10,10c5.513672,0,10-4.486328,10-10C22,6.48584,17.513672,2,12,2z
		 M12,20c-4.411133,0-8-3.588867-8-8s3.588867-8,8-8s8,3.588867,8,8S16.411133,20,12,20z"/>
	<path d="M12,15.375c-0.788574,0-1.427856,0.639282-1.427856,1.427856c0,0.788635,0.639282,1.427917,1.427856,1.427917
		c0.788635,0,1.427917-0.639282,1.427917-1.427917C13.427917,16.014282,12.788635,15.375,12,15.375z"/>
	<rect x="11" y="6" width="2" height="8"/>
</g>
</svg>
