<svg xmlns="http://www.w3.org/2000/svg" width="36" height="36" viewBox="0 0 36 36">
  <path fill="#000000" fill-rule="evenodd" d="M11.6664883,28.0499889 L5.82850501,31.8388399 C5.33627104,32.1582998 4.67826321,32.0182386 4.35880337,31.5260047 C4.24703473,31.353788 4.18755386,31.1528781 4.18755386,30.9475715 L4.18755386,28.0499889 L3.12503591,28.0499889 C1.95141098,28.0499889 1,27.0985779 1,25.924953 L1,6.12503591 C1,4.95141098 1.95141098,4 3.12503591,4 L32.8749641,4 C34.048589,4 35,4.95141098 35,6.12503591 L35,25.924953 C35,27.0985779 34.048589,28.0499889 32.8749641,28.0499889 L11.6664883,28.0499889 Z M8.4375,11.956538 C8.4375,12.4803939 8.86211839,12.8984959 9.38591172,12.8984959 L26.6140883,12.8984959 C27.145261,12.8984959 27.5625,12.476767 27.5625,11.956538 C27.5625,11.4326821 27.1378816,11.0145801 26.6140883,11.0145801 L9.38591172,11.0145801 C8.85473899,11.0145801 8.4375,11.436309 8.4375,11.956538 Z M8.4375,15.9648695 C8.4375,16.4887254 8.86211839,16.9068274 9.38591172,16.9068274 L26.6140883,16.9068274 C27.145261,16.9068274 27.5625,16.4850985 27.5625,15.9648695 C27.5625,15.4410136 27.1378816,15.0229116 26.6140883,15.0229116 L9.38591172,15.0229116 C8.85473899,15.0229116 8.4375,15.4446405 8.4375,15.9648695 Z M8.4375,19.973201 C8.4375,20.4970569 8.85964976,20.9151589 9.38039787,20.9151589 L18.1196021,20.9151589 C18.6328279,20.9151589 19.0625,20.4934299 19.0625,19.973201 C19.0625,19.449345 18.6403502,19.0312431 18.1196021,19.0312431 L9.38039787,19.0312431 C8.86717208,19.0312431 8.4375,19.452972 8.4375,19.973201 Z"/>
</svg>
