<?xml version="1.0" encoding="utf-8"?>
<!-- Generator: Adobe Illustrator 21.0.0, SVG Export Plug-In . SVG Version: 6.00 Build 0)  -->
<svg version="1.1" id="Layer_1" xmlns="http://www.w3.org/2000/svg" xmlns:xlink="http://www.w3.org/1999/xlink" x="0px" y="0px"
	 viewBox="0 0 60 60" style="enable-background:new 0 0 60 60;" xml:space="preserve">
<g>
	<path d="M40.316,20.417h1.44l-1.712,1.712c-0.895,0.895-1.408,2.134-1.408,3.4v10.817c0,0.553,0.447,1,1,1s1-0.447,1-1V25.529
		c0-0.739,0.3-1.464,0.822-1.986l3.126-3.126h0.4v16.081c0,0.553,0.447,1,1,1s1-0.447,1-1V20.417h0.4l3.154,3.154
		c0.512,0.512,0.794,1.193,0.794,1.918v10.857c0,0.553,0.447,1,1,1s1-0.447,1-1V25.489c0-1.259-0.49-2.442-1.38-3.332l-1.74-1.74
		h1.138c1.093,0,1.982-0.89,1.982-1.982V7.399c0-1.093-0.89-1.982-1.982-1.982H40.316c-1.093,0-1.982,0.89-1.982,1.982v11.035
		C38.333,19.527,39.223,20.417,40.316,20.417z M47.394,7.406v8.175c0,0.16,0.13,0.29,0.29,0.29h1.021c0.16,0,0.29-0.13,0.29-0.29
		V7.403l2.34-0.004v11.018l-5.167,0.008c-0.061-0.012-0.117-0.037-0.182-0.037c-0.065,0-0.122,0.025-0.184,0.037l-5.467,0.009
		L40.316,7.417L47.394,7.406z"/>
	<path d="M53.167,52.583H32.908l-6.652-27.114l-0.034-0.11c-0.914-2.457-3.289-4.108-5.91-4.108H7.833V6.75c0-0.553-0.448-1-1-1
		s-1,0.447-1,1v47.833h47.333c0.553,0,1-0.447,1-1S53.719,52.583,53.167,52.583z M7.833,23.25h12.479
		c1.771,0,3.379,1.104,4.016,2.754l6.52,26.579H7.833V23.25z"/>
</g>
</svg>
