<svg xmlns="http://www.w3.org/2000/svg" width="60" height="60" viewBox="0 0 60 60">
  <path fill="#231F20" d="M58.9085721,19.0761758 C58.893302,19.0461534 58.8726198,19.0230591 58.8534839,18.9951536 C58.8020682,18.9204823 58.7409879,18.8583204 58.6673436,18.805781 C58.6489809,18.7925019 58.640476,18.769985 58.6207602,18.7582455 L37.1641805,6.10607873 C36.9225654,5.96597382 36.6299212,5.96520401 36.3846335,6.10049763 L3.38890365,24.9076581 C3.36860798,24.9192052 3.35971655,24.9419145 3.34077392,24.9550012 C3.26732294,25.0058085 3.20624264,25.0660459 3.15424707,25.1384078 C3.13317824,25.1678529 3.11172282,25.1932565 3.0950997,25.2255884 C3.04465047,25.3218143 3.01237069,25.4267006 3.00695851,25.5414019 C3.00657193,25.5502546 3.00019329,25.5575678 3,25.5664206 C3,25.5679602 3.00096646,25.5691149 3.00096646,25.5706545 C3.00096646,25.572579 3,25.5739262 3,25.5758507 L3,31.2320093 C3,31.2554885 3.01140423,31.275311 3.01353045,31.2982128 C3.01140423,31.3211145 3,31.3409371 3,31.3644162 L3,35.7829172 C3,35.8133246 3.01391703,35.8391132 3.01739629,35.8685583 C3.02358163,35.9228297 3.03208648,35.9742143 3.04928948,36.0259839 C3.06455955,36.07121 3.08485522,36.11124 3.10785698,36.1522322 C3.13279165,36.1970735 3.15927267,36.2386431 3.19309878,36.2782882 C3.22634502,36.316971 3.26345709,36.3481482 3.30366185,36.3795178 C3.32859652,36.3991479 3.34483306,36.4257063 3.37266712,36.442642 L6.59098012,38.3790921 L6.59098012,42.7950913 C6.59098012,43.2198324 6.93735951,43.5656683 7.36395511,43.5656683 C7.79055072,43.5656683 8.13693011,43.2198324 8.13693011,42.7950913 L8.13693011,39.3094041 L24.6063811,49.2189402 C24.6098604,49.2208647 24.6139195,49.2199024 24.6173988,49.2220194 C24.6311225,49.2301024 24.6463926,49.2312571 24.6603096,49.2383778 C24.7656538,49.2922643 24.880276,49.3297924 25.0064957,49.3297924 C25.006689,49.3297924 25.0068823,49.3295999 25.0070756,49.3295999 C25.0072689,49.3295999 25.0072689,49.3297924 25.0074622,49.3297924 C25.0084286,49.3297924 25.0093951,49.3290226 25.0103615,49.3290226 C25.1354215,49.3284452 25.248884,49.2914945 25.3532617,49.2381853 C25.3652458,49.2322193 25.3791628,49.2349137 25.3907603,49.2283703 L29.2046062,47.0557818 C29.2082788,47.0536649 29.2102117,47.0498158 29.2136909,47.0476989 L29.4085294,46.9366542 L29.4085294,54.229423 C29.4085294,54.6541641 29.7549087,55 30.1815044,55 C30.6081,55 30.9544793,54.6541641 30.9544793,54.229423 L30.9544793,46.0558023 L35.4289975,43.5058158 L35.4289975,50.7637508 C35.4289975,51.188492 35.7763434,51.5343279 36.202939,51.5343279 C36.6295346,51.5343279 36.9768804,51.188492 36.9768804,50.7637508 L36.9768804,42.6236167 L41.4506254,40.0742076 L41.4506254,47.3000032 C41.4506254,47.7247443 41.7979713,48.0705802 42.2245669,48.0705802 C42.6511625,48.0705802 42.9985084,47.7247443 42.9985084,47.3000032 L42.9985084,39.1920085 L47.4722534,36.6425995 L47.4722534,43.834331 C47.4722534,44.2590722 47.8195992,44.6049081 48.2461948,44.6049081 C48.6727904,44.6049081 49.0201363,44.2590722 49.0201363,43.834331 L49.0201363,35.7605928 L53.4919484,33.212146 L53.4919484,40.3686589 C53.4919484,40.7934 53.8392942,41.1392359 54.2658898,41.1392359 C54.6924854,41.1392359 55.0398313,40.7934 55.0398313,40.3686589 L55.0398313,32.3301394 L58.609356,30.2959238 C58.6379632,30.2795653 58.6549729,30.253007 58.6806808,30.2337618 C58.7249446,30.2008526 58.7670823,30.1685207 58.8034212,30.1271435 C58.8353144,30.0907701 58.8585095,30.05151 58.882671,30.0103253 C58.9087654,29.9664463 58.9327336,29.9239144 58.9497433,29.8750316 C58.9663664,29.8269187 58.9727451,29.7788057 58.9795103,29.7283834 C58.9841493,29.6939345 58.9999993,29.6633347 58.9999993,29.6279235 L58.9999993,25.2686976 L58.9999993,19.4206646 C59.0001926,19.2949935 58.9625006,19.1810621 58.9085721,19.0761758 Z M25.7798573,43.0389277 L25.7798573,38.7994069 L57.4521163,20.7481971 L57.4521163,24.8247113 L25.7798573,43.0389277 Z M28.4405227,45.7161248 C28.4393629,45.7168946 28.4380099,45.7167022 28.4366568,45.717472 L25.7798573,47.2318752 L25.7798573,44.81699 L29.4087226,42.7300426 L29.4087226,45.1643655 L28.4405227,45.7161248 Z M4.54614328,35.3475912 L4.54614328,32.6165076 L10.4260881,36.2542317 L10.4260881,38.8860102 L4.54614328,35.3475912 Z M24.2339073,42.9881204 L17.3488437,38.7258903 L17.3488437,34.645527 L24.2339073,38.7892069 L24.2339073,42.9881204 Z M16.1185396,32.105933 L12.9843087,30.2197128 C13.2338488,30.1779508 13.4783632,30.1240643 13.74356,30.1240643 C15.2885435,30.1240643 16.4438502,30.8598075 16.4438502,31.5176078 C16.4438502,31.714486 16.3083525,31.9144435 16.1185396,32.105933 Z M10.4260881,34.4415281 L4.54614328,30.8038041 L4.54614328,26.9405265 L10.4260881,30.4791379 L10.4260881,34.4415281 Z M11.9720381,31.4096424 L15.8028937,33.715215 L15.8028937,42.12151 L11.9720381,39.8161298 L11.9720381,31.4096424 Z M17.3488437,40.5385938 L24.2339073,44.7998618 L24.2339073,47.195117 L17.3488437,43.0520144 L17.3488437,40.5385938 L17.3488437,40.5385938 Z M36.7621329,7.65935727 L56.6897724,19.4095024 L25.0175134,37.4612894 L17.4665586,32.9171174 C17.7939953,32.4925687 17.9899935,32.0168278 17.9899935,31.5176078 C17.9899935,29.8731071 16.1251116,28.5848347 13.7437532,28.5848347 C12.8213635,28.5848347 11.9847954,28.8232825 11.263816,29.1843221 L5.29766286,25.5937487 L36.7621329,7.65935727 Z M30.9548659,44.2833211 L30.9548659,41.8409152 L35.4293841,39.2676421 L35.4293841,41.7331422 L30.9548659,44.2833211 Z M36.977267,40.8511356 L36.977267,38.3775525 L41.451012,35.8048567 L41.451012,38.3017265 L36.977267,40.8511356 Z M42.9987017,37.4193349 L42.9987017,34.9143822 L47.4724467,32.341494 L47.4724467,34.8697334 L42.9987017,37.4193349 Z M49.0203296,33.9879192 L49.0203296,31.4515969 L53.4921417,28.8800558 L53.4921417,31.4392799 L49.0203296,33.9879192 Z M55.0398313,27.9897737 L57.4521163,26.6023887 L57.4521163,29.1823976 L55.0398313,30.5572733 L55.0398313,27.9897737 Z M11.9088316,24.7309873 L26.3690115,33.4382769 C26.491752,33.5125633 26.6305357,33.5491291 26.7691261,33.5491291 C26.899405,33.5491291 27.0306503,33.5162198 27.1485584,33.4504013 L51.9481246,19.540947 C52.1878068,19.4056533 52.3387679,19.1527717 52.3426337,18.8785278 C52.3445666,18.6031293 52.2011439,18.3475533 51.9632014,18.2076408 L37.3474213,9.58868664 C37.1077392,9.44858172 36.8114224,9.44684966 36.5734799,9.58021876 L11.9295139,23.4013378 C11.6898317,23.5356691 11.5396437,23.7866263 11.5359712,24.0601003 C11.5311389,24.3345366 11.6737884,24.5891503 11.9088316,24.7309873 Z M36.9432476,11.1400407 L50.022549,18.8531242 L26.7832364,31.8886549 L13.8427188,24.0957039 L36.9432476,11.1400407 Z M28.4567592,22.821288 C28.5785332,22.8951895 28.7022401,22.9704382 28.8209215,23.0424151 C29.0397281,23.1752069 29.2542823,23.3053043 29.4699962,23.4359791 L28.2072191,24.1536319 C27.9054902,24.1268811 27.5946765,24.159213 27.3277402,24.3100952 C26.9879327,24.5056262 26.7840096,24.8316396 26.7832364,25.1820943 C26.7813035,25.5204246 26.966284,25.8304645 27.2778708,26.0127163 C27.475222,26.1264553 27.7139378,26.183806 27.9565193,26.183806 C28.2122447,26.183806 28.4728024,26.119912 28.6945084,25.9950108 C28.946368,25.8506719 29.0894041,25.6253108 29.1671076,25.3810895 L30.9846329,24.3482006 C31.4846795,24.6472708 32.0181656,24.9644313 32.6566093,25.3393275 C32.7764504,25.4107271 32.9123347,25.4465231 33.0491855,25.4465231 C33.1247627,25.4465231 33.2001466,25.4361307 33.2737909,25.4136139 C33.4794537,25.3516444 33.6512903,25.2059584 33.7456169,25.0123518 C34.1217632,24.237156 34.4598311,23.5934047 34.7893941,22.98314 C35.1819703,23.2200482 35.5368545,23.43213 35.9680891,23.6863589 C35.9955366,23.9946667 36.1577086,24.2758388 36.4430077,24.4401926 C36.643065,24.556626 36.8902856,24.6139766 37.1452378,24.6139766 C37.4245449,24.6139766 37.7115836,24.5454637 37.9607371,24.4072834 C38.334564,24.1977033 38.5516309,23.8632221 38.5533706,23.4890958 C38.5572364,23.1442221 38.370323,22.8284087 38.0531307,22.6451946 L38.0511978,22.6442323 C37.7716974,22.48392 37.4139138,22.4783389 37.0625088,22.5410782 C36.4598241,22.1873518 36.0307157,21.9319682 35.5279631,21.6282793 C35.8472816,21.046305 36.1785842,20.4319988 36.5427464,19.7218517 L38.1662066,18.8229093 C38.2211015,18.8288753 38.2651721,18.8629392 38.3210335,18.8629392 C38.5721199,18.8629392 38.8268789,18.8027018 39.0458788,18.6833817 C39.3893588,18.4963185 39.5971478,18.174924 39.6046862,17.823507 C39.6122245,17.4832522 39.429177,17.1695558 39.1195231,16.9824926 C39.1195231,16.9815304 39.1175901,16.9815304 39.1175901,16.9815304 C38.7192152,16.7428901 38.1341201,16.7400033 37.701919,16.9740247 C37.4456137,17.1141297 37.2981319,17.3391058 37.2177224,17.5850592 L35.7106241,18.4204925 C34.0316891,18.6662535 32.6892757,18.8823769 31.366578,19.099655 C30.7644732,18.7355361 30.314296,18.464564 29.7257216,18.1177658 C29.6949882,17.8106128 29.5332027,17.5298256 29.2465506,17.3618151 C29.2455841,17.3618151 29.2446177,17.3608529 29.2436512,17.3608529 C28.8141562,17.1118202 28.1855704,17.1277937 27.7193499,17.3974187 C27.3607931,17.6050742 27.1454658,17.9470611 27.1444993,18.3136818 C27.1435329,18.6595177 27.3333457,18.9770632 27.6484117,19.1612395 C27.8513684,19.2795974 28.098589,19.3388726 28.3533479,19.3388726 C28.4503806,19.3388726 28.5383284,19.2817144 28.6351678,19.2645862 C28.7625472,19.3394499 28.8984316,19.419125 29.0115074,19.4859057 C28.1817046,19.6208145 27.2975866,19.7620741 26.277971,19.9177676 C25.9561397,19.9676126 25.6994478,20.211834 25.6362413,20.5305341 C25.5740012,20.8490419 25.7174239,21.1723609 25.996731,21.3386393 C26.3417573,21.5447552 26.6543106,21.7325881 26.9531402,21.9123381 L25.6779924,22.6536625 C25.3733641,22.6261419 25.0604242,22.6598209 24.794261,22.8168616 C24.4573529,23.0141247 24.2553627,23.3412928 24.2553627,23.6917475 C24.2543963,24.0281533 24.4374438,24.3381932 24.7441984,24.5196752 C24.9415496,24.6370708 25.1812317,24.6953837 25.4255529,24.6953837 C25.6841777,24.6953837 25.948408,24.6295652 26.1720469,24.4998527 C26.4250662,24.3528195 26.5684889,24.1234169 26.6436796,23.8751541 L28.4567592,22.821288 Z M27.9043304,25.5431339 C27.9296517,25.5623791 27.9451151,25.5945186 27.972176,25.6102996 L27.9704363,25.6133788 C27.9427956,25.5972129 27.928492,25.5646885 27.9043304,25.5431339 Z M27.9731424,25.6112619 C27.9754619,25.612609 27.9766217,25.6156882 27.9791345,25.6172279 C27.9752686,25.6153033 27.9752686,25.6166505 27.9714028,25.6143411 L27.9731424,25.6112619 Z M27.9980771,25.6241561 C28.0262977,25.6393598 28.0601239,25.6366655 28.0898908,25.6482126 C28.087378,25.6499447 28.0854451,25.6541786 28.082739,25.6555258 C28.0748141,25.6557182 28.0357691,25.6410919 27.9980771,25.6241561 Z M37.3265458,23.9962063 C37.3615317,23.9742668 37.3845334,23.9363538 37.41604,23.9086407 C37.3899456,23.9598329 37.3628847,24.0025572 37.3661707,24.0121798 C37.3619182,24.0116024 37.3393031,24.0004402 37.3265458,23.9962063 Z M38.435849,17.3858716 C38.4269576,17.3802905 38.417293,17.3770188 38.4082082,17.3716302 C38.4138137,17.3706679 38.4155533,17.3654717 38.4213521,17.3647019 C38.4286972,17.3691283 38.4286972,17.3810603 38.435849,17.3858716 Z M30.8547406,20.7437707 C32.0552777,20.5455454 33.2152234,20.3548256 34.5781258,20.1462079 C34.3647314,20.5409265 34.1610015,20.9102416 33.9609442,21.2766698 C33.5569638,22.0097187 33.1624547,22.7285262 32.7254213,23.5910952 C31.4898984,22.8599708 30.5970823,22.3178341 29.6259829,21.7275844 C29.3012523,21.5303213 28.9672436,21.3282469 28.6084935,21.1111612 C29.406983,20.9835657 30.1384002,20.8623211 30.8547406,20.7437707 Z M25.3619598,24.0279608 C25.3907603,24.0516324 25.4102828,24.087236 25.4419827,24.1060963 L25.4390834,24.1107151 C25.4068036,24.0914699 25.3894073,24.0543267 25.3619598,24.0279608 Z M25.4444955,24.1085981 C25.4477815,24.1105227 25.4493278,24.1147566 25.4528071,24.1166811 C25.4475882,24.1137943 25.4475882,24.1159113 25.4419827,24.1126396 L25.4444955,24.1085981 Z M25.4939783,24.1320773 C25.515627,24.143047 25.5411416,24.1415074 25.5635635,24.1501677 C25.5614372,24.1515149 25.5600842,24.1547866 25.557958,24.1559413 C25.5517726,24.1559413 25.5177532,24.1401602 25.4939783,24.1320773 Z"/>
</svg>
