<svg xmlns="http://www.w3.org/2000/svg" width="60" height="60" viewBox="0 0 60 60">
  <path fill="#231F20" d="M44.9923795,42.1257856 L44.9015509,10.5622244 C44.9015509,10.5618109 44.901139,10.5611905 44.901139,10.5607769 C44.8976376,5.84024224 38.1796181,2 29.9241036,2 C21.934278,2 15.4187177,5.67605332 15.1328445,10.2541117 C15.125018,10.2991913 15.1056577,10.3401352 15.1056577,10.3874894 L15,42.1617666 C15,42.1621801 15.000206,42.1623869 15.000206,42.1628005 C15.000206,42.1632141 15,42.1634208 15,42.1638344 L15,49.6679295 C15,54.3388353 21.5880584,58 29.9994851,58 C38.4109118,58 45,54.3388353 45,49.6679295 L45,42.1638344 C45,42.1503933 44.9929973,42.13902 44.9923795,42.1257856 Z M43.2631351,14.3830287 L43.2728153,17.7377349 C43.2682841,17.772682 43.2522192,17.8037 43.2522192,17.8398877 C43.2522192,21.4303312 37.1860647,24.4634836 30.0036043,24.4634836 C22.8211439,24.4634836 16.7529298,21.4303312 16.7529298,17.8398877 C16.7529298,17.796876 16.7348053,17.7600679 16.7286264,17.7189173 L16.7397483,14.3782726 C19.1844994,17.0485137 24.1434103,18.840737 30.0036043,18.840737 C35.8596791,18.840737 40.8165304,17.0505816 43.2631351,14.3830287 Z M16.715445,21.6261586 C19.1511338,24.3119087 24.1228142,26.1175732 30.0033983,26.1175732 C30.2676457,26.1175732 30.5242724,26.1035117 30.7848125,26.0962741 L30.7848125,48.8192755 C30.5234486,48.8273402 30.2639384,48.8397474 29.9994851,48.8397474 C22.7616213,48.8397474 16.6472721,45.7824009 16.6472721,42.1636276 L16.715445,21.6261586 Z M32.4331143,26.0025996 C34.4358742,25.8266238 36.2907544,25.4384845 37.9281404,24.8762306 L37.9281404,47.4844651 C36.3220604,48.0903512 34.4531749,48.5237768 32.4331143,48.718777 L32.4331143,26.0025996 Z M39.577472,24.227126 C41.1141433,23.519294 42.3719441,22.637554 43.2839371,21.6348436 L43.3432538,42.2343488 C43.3049451,43.9672243 41.8650753,45.5644474 39.577472,46.7555408 L39.577472,24.227126 L39.577472,24.227126 Z M29.9241036,3.65367601 C37.0252096,3.65367601 43.2522192,6.88265574 43.2522192,10.5640855 C43.2522192,14.1534951 37.1860647,17.1866475 30.0036043,17.1866475 C22.8211439,17.1866475 16.7529298,14.1537019 16.7529298,10.5640855 C16.7529298,6.88286252 22.9074414,3.65367601 29.9241036,3.65367601 Z M16.6472721,49.6679295 L16.6472721,46.0053174 C19.1093238,48.6916879 24.1009824,50.4959049 29.9994851,50.4959049 C30.2651741,50.4959049 30.5230367,50.4818434 30.7848125,50.4746058 L30.7848125,56.3235774 C30.5236546,56.3316421 30.2641443,56.3440493 29.9994851,56.3440493 C22.7616213,56.3440493 16.6472721,53.2867029 16.6472721,49.6679295 Z M32.4331143,56.2228721 L32.4331143,50.3811381 C37.2519721,49.9601196 41.2352481,48.3136812 43.3506683,46.0073853 L43.3506683,49.6679295 C43.3506683,52.871888 38.5548782,55.6312544 32.4331143,56.2228721 Z M29.9994851,12.7996603 C32.6524623,12.7996603 34.6537804,11.6182859 34.6537804,10.0512536 L34.6537804,7.34027547 C34.6537804,7.3398619 34.6535744,7.33944832 34.6535744,7.33882796 C34.6535744,7.3382076 34.6537804,7.33779403 34.6537804,7.33717366 C34.6537804,4.01927551 25.3453958,4.01720764 25.3464256,7.33717366 C25.3464256,7.33758724 25.3466315,7.3382076 25.3466315,7.33882796 C25.3466315,7.33944832 25.3464256,7.33965511 25.3464256,7.34027547 L25.3464256,10.0512536 C25.3462196,11.6182859 27.3465079,12.7996603 29.9994851,12.7996603 Z M29.9994851,11.1457775 C28.0473915,11.1457775 26.9934916,10.3692921 26.9934916,10.0512536 L26.9934916,9.29730808 C27.8443145,9.66766368 28.9204581,9.86452494 29.9994851,9.86452494 C31.0783062,9.86452494 32.1538319,9.66787046 33.0044487,9.29813522 L33.0044487,10.0514604 C33.0044487,10.3692921 31.9515787,11.1457775 29.9994851,11.1457775 Z M29.9994851,6.46370518 C31.877021,6.46370518 32.90394,7.08468668 33.0023891,7.33717366 C32.90394,7.58966065 31.877021,8.21064215 29.9994851,8.21064215 C28.0949684,8.21064215 27.064754,7.5712566 26.9934916,7.35040804 L26.9934916,7.34834016 C27.064754,7.10309073 28.0949684,6.46370518 29.9994851,6.46370518 Z"/>
</svg>
