<svg xmlns="http://www.w3.org/2000/svg" width="60" height="60" viewBox="0 0 60 60">
  <path fill="#231F20" d="M57.2845522,19.5662109 C57.2771143,19.4890416 57.2487697,19.4151046 57.218415,19.3407635 C55.6681105,15.2693765 51.9612103,11.9278656 47.6347512,11.1616271 C45.6538513,10.8123452 43.7163728,11.0274899 41.9594147,11.8234244 L25.7811272,21.0946476 C25.7752975,21.0976778 24.0006492,22.1758257 22.2455003,23.1117558 C21.5151766,23.5014405 20.9438637,24.1060679 20.6632329,24.4393908 C20.6469499,24.4440371 20.6222238,24.4511076 20.6047346,24.4559559 C20.3558657,24.5143379 20.1142337,24.588679 19.8728028,24.6674644 C19.5354829,24.7692794 19.2003743,24.8771548 19.0043749,24.9611925 C17.2709368,25.7100578 12.657414,28.5578469 12.4867438,28.6632982 L10.7070699,29.6774077 L10.7450636,29.7448803 C10.4455364,29.9384095 10.1291231,30.1024448 9.85311588,30.3353667 C7.86940161,32.0072333 6.7778361,34.4802867 6.7778361,37.2973697 C6.7778361,38.3318826 6.97443851,39.3463961 7.2546673,40.3401022 L2.40393511,43.1428422 C2.01816822,43.3658655 1.88569277,43.8589813 2.1074233,44.2456358 C2.25557869,44.5060316 2.52656033,44.6520876 2.80538195,44.6520876 C2.94087277,44.6520876 3.07917794,44.6165332 3.20481853,44.5436062 L7.78979573,41.8943967 C8.380005,43.257384 9.21023807,44.5139101 10.2252131,45.6160976 L5.21828449,48.4889365 C4.8325176,48.7099396 4.69803191,49.2050755 4.91895833,49.59173 C5.06711373,49.8521259 5.33809537,50 5.61792211,50 C5.7524078,50 5.88990887,49.9644456 6.01554947,49.8935387 L11.4144767,46.7954544 C13.0568506,48.1869258 15.0242818,49.183056 17.1414767,49.5581957 C17.7676694,49.6707174 18.3860222,49.7238471 18.9917104,49.7238471 C20.4443167,49.7238471 21.8070649,49.3818376 23.032714,48.7677156 L23.0435694,48.7869069 L23.2391667,48.6733751 C23.3863169,48.5945897 23.5292457,48.5097439 23.6715713,48.4222719 L25.8124871,47.1790787 C25.9423493,47.1112021 28.316856,45.869423 30.0040585,44.8686464 C31.1428649,44.2973513 32.1158256,43.5313148 32.8939933,42.61397 C33.423493,42.5260939 34.2362369,42.3652909 34.6250191,42.1523683 C35.7125642,41.5505691 37.3931328,40.5661557 37.3931328,40.5661557 L52.4247739,31.9124888 C56.2273619,29.7079117 58,27.0100169 58,23.4226551 C58,22.1047168 57.7300235,20.8069799 57.2845522,19.5662109 Z M9.16943,41.096846 L10.8747247,40.1116245 C11.319794,41.5382463 12.1624906,42.8464879 13.2860191,43.8593853 L11.6518872,44.7971335 C10.5987174,43.72444 9.73390808,42.4733683 9.16943,41.096846 Z M18.6035312,42.6701298 C18.6899719,42.6927554 18.7731962,42.7250776 18.8662708,42.7250776 C19.4735672,42.7250776 19.9656763,42.2164067 19.9656763,41.5887497 C19.9656763,40.9610927 19.4735672,40.4524219 18.8662708,40.4524219 C18.3753679,40.4524219 17.974122,40.7911991 17.8330025,41.2503765 L14.7695832,43.008301 C13.5545884,42.0824716 12.6501771,40.7532205 12.2963732,39.2902362 L15.1442937,37.6446315 C15.2361621,37.6702873 15.3254172,37.7032155 15.4249246,37.7032155 C16.0320199,37.7032155 16.5243301,37.1943427 16.5243301,36.5668877 C16.5243301,35.9392307 16.0320199,35.4305598 15.4249246,35.4305598 C14.9386452,35.4305598 14.5394097,35.7622665 14.3944707,36.2145755 L12.1616865,37.5048379 C12.2658174,36.3594195 12.7332004,35.359855 13.5457433,34.6756341 C14.2788813,34.0570677 15.2114361,33.7346536 16.2342511,33.7346536 C16.5297577,33.7346536 16.8331044,33.7613194 17.1412757,33.8164692 C20.0643795,34.3342307 22.4437109,37.141617 22.4437109,40.0732419 C22.4437109,41.4148158 21.9363239,42.5826578 21.0156296,43.3579869 C20.0714154,44.1569517 18.7973192,44.4549221 17.4200973,44.2181619 C17.071319,44.1563456 16.7317878,44.0575609 16.4015038,43.9341304 L18.6035312,42.6701298 Z M23.6735816,46.4609195 C23.3053039,46.7716168 22.9000376,47.0233261 22.4800964,47.2471574 L22.2808807,47.3627093 C20.8586291,48.0602631 19.1856995,48.2766199 17.4198962,47.9681448 C15.7783265,47.6768408 14.2585778,46.9322178 12.9304059,45.9253808 L14.7153065,44.9011707 C15.468547,45.3342883 16.2831001,45.6560964 17.1410746,45.8080108 C17.5445317,45.8809378 17.9439683,45.9164922 18.3347608,45.9164922 C19.7314822,45.9164922 21.0202532,45.4627691 22.0490989,44.5967358 C23.3408853,43.5076792 24.0515085,41.899851 24.0515085,40.0730399 C24.0515085,36.3937618 21.0773443,32.8722565 17.4200973,32.2241961 C15.5728789,31.90158 13.8275803,32.3268192 12.512274,33.4364812 C11.2204876,34.5255378 10.5098644,36.133366 10.5098644,37.9601771 C10.5098644,38.11896 10.5456469,38.2743086 10.5565022,38.4320815 L8.67631579,39.5185119 C8.50383637,38.7892419 8.38583472,38.0488612 8.38583472,37.2973697 C8.38583472,34.965524 9.274164,32.9326587 10.8867862,31.5733075 C12.1707326,30.4903113 13.7980296,29.9250766 15.5777035,29.9250766 C16.0881059,29.9250766 16.6103687,29.9713378 17.1412757,30.0660823 C22.1216689,30.9478727 26.1747341,35.7349947 26.1747341,40.7358473 C26.1747341,43.0676931 25.2864048,45.1015684 23.6735816,46.4609195 Z M17.4200973,28.4738092 C16.9728167,28.3948218 16.540211,28.3948218 16.1029818,28.3723982 C17.4213034,27.5980792 18.867879,26.7791151 19.6374025,26.4468023 C19.6402169,26.4455902 19.6470517,26.4435701 19.6500671,26.442156 L19.6550927,26.4536708 C19.8478757,26.3668048 20.0545293,26.3098369 20.2557553,26.2401422 C20.5178918,26.1605487 20.7938991,26.0807532 21.0494018,26.0098464 C22.0919172,25.7769244 23.2080078,25.7423801 24.3540511,25.9435858 C28.0082827,26.5872019 31.1450761,29.3145908 32.5838117,32.6771112 L26.745846,36.0883169 C25.0769368,32.280558 21.5403048,29.2036852 17.4200973,28.4738092 Z M31.7857427,41.4134017 C31.3203699,41.870761 30.6131641,42.5450832 30.3403732,42.7442689 C29.6864391,43.2220316 28.1741283,44.0725099 26.9273715,44.7518824 C27.4809943,43.5444457 27.7823307,42.1891349 27.7823307,40.7358473 C27.7823307,39.6829512 27.5798985,38.6500544 27.2900206,37.6397832 L33.101652,34.2439305 C33.2964452,35.0150173 33.4333432,35.798225 33.4333432,36.5949676 C33.4333432,38.4300613 32.8413247,40.0956654 31.7857427,41.4134017 Z M24.6316665,24.3517168 C24.2700226,24.2882844 23.9123992,24.2644468 23.5545748,24.238185 C25.143074,23.3689194 26.5956804,22.4885431 26.5948763,22.4885431 L42.6877281,13.262773 C44.0776146,12.6355201 45.6912419,12.4617882 47.3561306,12.7536982 C50.9245246,13.3851934 53.9869388,16.0321808 55.4540189,19.3136936 L33.9608327,31.8726921 C32.2684036,28.1093762 28.7404156,25.0755324 24.6316665,24.3517168 Z M51.6218802,30.5107147 L36.5882289,39.1653917 C36.5882289,39.1653917 35.2510109,39.9502155 34.2028667,40.5394898 C34.7458351,39.3429619 35.0431511,38.0112866 35.0431511,36.5947656 C35.0431511,35.5121734 34.8300646,34.4503887 34.5218933,33.4138556 L56.0004048,20.8635438 C56.2287691,21.7004871 56.3901922,22.5533896 56.3901922,23.4226551 C56.3901922,26.413268 54.9198956,28.6000678 51.6218802,30.5107147 Z"/>
</svg>
