<svg xmlns="http://www.w3.org/2000/svg" width="60" height="60" viewBox="0 0 60 60">
  <path fill="#231F20" d="M17.5240957,33.3308505 L17.5240957,24.9748253 L21.2034984,24.9748253 L21.6798434,24.9748253 L21.6798434,33.3308505 C21.6798434,33.7768636 22.0403207,34.1400196 22.484279,34.1400196 L28.8403059,34.1400196 C29.2842642,34.1400196 29.6447415,33.7768636 29.6447415,33.3308505 L29.6447415,24.9748253 L31.5551503,24.9748253 C31.6768516,24.9748253 31.8007656,24.947139 31.9186449,24.8879266 L34.7867726,23.432473 C34.9674136,23.3407241 35.1090296,23.1818812 35.1776249,22.9902997 L36.3721082,19.7261389 C36.4055006,19.6364109 36.4232026,19.5416306 36.4232026,19.4468503 L36.4232026,2.80815867 C36.4232026,2.7436919 36.400874,2.68670247 36.3865916,2.62668168 C36.3823673,2.6076852 36.3934311,2.58929499 36.3877986,2.57050061 C36.3845801,2.56019401 36.3737175,2.55554593 36.3702978,2.54564351 C36.3208126,2.40357411 36.234113,2.28535135 36.1202569,2.19198568 C36.0959166,2.17197875 36.0721798,2.15843871 36.045828,2.14146313 C35.9197012,2.05941452 35.7782863,2 35.6175601,2 L6.78943679,2 C6.63715928,2 6.48789917,2.04344939 6.35915729,2.12529592 L3.37415609,4.02191235 C3.34881003,4.03807957 3.33452773,4.06354293 3.31159558,4.08193314 C3.26854752,4.11628847 3.23012611,4.15165425 3.19492325,4.1938911 C3.16132967,4.23451123 3.13437434,4.27593972 3.1094306,4.3216121 C3.08509034,4.36607194 3.06517558,4.41012761 3.049284,4.45923552 C3.03218547,4.51238524 3.02273099,4.5647266 3.01689737,4.62050349 C3.01367882,4.64960448 3,4.67486575 3,4.7047751 L3,21.2094809 C3,21.3210347 3.02252983,21.4305676 3.06678485,21.532219 L4.3485712,24.4896068 C4.47630728,24.7846585 4.76597651,24.9750274 5.08622194,24.9750274 L9.55819186,24.9750274 L9.55819186,33.3310526 C9.55819186,33.7770657 9.91866912,34.1402217 10.3626275,34.1402217 L16.7196601,34.1402217 C17.1636185,34.1400196 17.5240957,33.7768636 17.5240957,33.3308505 Z M16.7196601,23.3587101 L16.2423094,23.3587101 L16.2423094,13.2442982 L20.3990628,13.2442982 L20.3990628,23.3587101 L16.7196601,23.3587101 L16.7196601,23.3587101 Z M10.3626275,23.3587101 L9.88628249,23.3587101 L9.88628249,12.4361395 C9.88628249,11.9901265 9.52580523,11.6279808 9.0818469,11.6279808 L4.60887119,11.6279808 L4.60887119,5.51293377 L32.0304894,5.51293377 L32.0304894,11.6279808 L27.5593241,11.6279808 C27.1153658,11.6279808 26.7548886,11.9901265 26.7548886,12.4361395 L26.7548886,23.3587101 L22.484279,23.3587101 L22.007934,23.3587101 L22.007934,12.4361395 C22.007934,11.9901265 21.6474568,11.6279808 21.2034984,11.6279808 L15.4378738,11.6279808 C14.9939154,11.6279808 14.6334382,11.9901265 14.6334382,12.4361395 L14.6334382,23.3587101 L10.3626275,23.3587101 L10.3626275,23.3587101 Z M28.8403059,23.3587101 L28.3639609,23.3587101 L28.3639609,13.2442982 L32.0306906,13.2442982 L32.0306906,20.8996767 L31.0180552,23.3587101 L28.8403059,23.3587101 L28.8403059,23.3587101 Z M28.0358703,32.5216814 L23.2887146,32.5216814 L23.2887146,24.9748253 L28.0358703,24.9748253 L28.0358703,32.5216814 Z M33.7769535,22.1330331 L33.1282151,22.4624401 L33.5786105,21.3701426 C33.6198482,21.2715226 33.6415734,21.1668399 33.6415734,21.0603384 L33.6415734,5.13260003 L34.8123198,4.33434378 L34.8123198,19.3029621 L33.7769535,22.1330331 Z M7.02217797,3.61631734 L32.9990709,3.61631734 L32.5881027,3.89661643 L6.58123703,3.89661643 L7.02217797,3.61631734 Z M4.60887119,21.0407356 L4.60887119,13.2442982 L8.27741131,13.2442982 L8.27741131,23.3587101 L5.61366133,23.3587101 L4.60887119,21.0407356 Z M15.9152245,32.5216814 L11.167063,32.5216814 L11.167063,24.9748253 L15.4376726,24.9748253 L15.9150234,24.9748253 L15.9150234,32.5216814 L15.9152245,32.5216814 Z M56.9102602,32.296755 C56.3327321,29.002887 53.1896198,26.3237774 49.9050926,26.3237774 C48.5987648,26.3237774 47.816859,26.7136093 46.6853386,27.3568624 C46.6827235,27.358277 46.6813154,27.3611063 46.6787004,27.362723 C46.6776946,27.3633293 46.6764876,27.3631272 46.6754818,27.3637335 L39.8274196,31.4144292 C39.7956364,31.4332236 39.7767275,31.4633351 39.7485652,31.485565 C39.7415246,31.4894047 39.7348863,31.4932444 39.7280469,31.4972862 C39.7202017,31.501328 39.7115519,31.5009238 39.7037067,31.5051677 L21.2948247,42.0504359 C21.2622369,42.0692303 21.2340746,42.0837808 21.200481,42.1031815 L20.8774194,42.2887003 C20.8762124,42.2895086 20.875609,42.2907212 20.874402,42.2913274 L13.7475331,46.3737514 C13.6946282,46.4040649 13.6588219,46.4499394 13.6155727,46.489347 C13.1096573,46.7789422 12.6413587,47.1291645 12.2603632,47.5854842 C11.2654299,48.7774121 10.8783996,50.3543218 11.172092,52.0260119 C11.7496201,55.3198799 14.8927324,58 18.1772596,58 C19.4153944,58 20.5386673,57.6285582 21.4358373,56.9426641 L28.8095285,52.7133206 C28.810132,52.7129165 28.8109366,52.7131185 28.8115401,52.7129165 C28.8125459,52.7123102 28.8133505,52.7110976 28.8143563,52.7104914 L46.616341,42.5000866 C46.6551647,42.487557 46.6966035,42.4909926 46.7340191,42.4719961 C47.0104119,42.3337664 47.2648782,42.1700733 47.5038554,41.9904152 L54.5957225,37.7889601 C54.606384,37.7826953 54.6120164,37.7717824 54.6220744,37.7651135 C54.6297184,37.7602633 54.6391729,37.7624863 54.646817,37.757434 C56.4445766,36.5083146 57.2912557,34.4676078 56.9102602,32.296755 Z M46.2960956,40.8215255 L30.8044242,49.7068249 C30.9371892,48.9649518 30.9792315,48.1640684 30.8203157,47.2601189 C30.6893611,46.5137999 30.4121638,45.8064842 30.0462552,45.147266 L43.1708864,37.3785149 C43.5538935,37.1515676 43.6816296,36.6562446 43.4557278,36.2712628 C43.2298261,35.8844622 42.7327617,35.7619955 42.3535767,35.9851031 L29.1152905,43.8209481 C28.1406742,42.7157168 26.8508415,41.9047289 25.4523828,41.53066 L40.3015518,33.0244818 C40.8937644,32.6338414 41.6191445,32.4246781 42.4044699,32.4246781 C44.9424954,32.4246781 47.37451,34.5047924 47.8243019,37.060425 C48.1045167,38.6674462 47.5042577,40.0570183 46.2960956,40.8215255 Z M23.2742311,54.0258964 C23.4335492,53.3068595 23.4586941,52.5391189 23.3192908,51.7459149 C22.825445,48.9326174 20.4592094,46.5833189 17.7359163,45.9513829 L22.1260145,43.4365726 C22.8029151,43.0467406 23.0925844,42.9044691 23.8163551,42.9044691 C26.3563922,42.9044691 28.787401,44.9845834 29.2351813,47.5402159 C29.3854473,48.3926324 29.5689044,50.464461 28.048141,51.2875743 L23.2742311,54.0258964 Z M12.7574276,51.7459149 C12.5472162,50.551966 12.8095278,49.4428951 13.4930667,48.6238235 C14.1591048,47.8265777 15.1608776,47.3884462 16.313922,47.3884462 C18.8529533,47.3884462 21.2849679,49.4685605 21.7337541,52.026214 C21.9439654,53.2181419 21.6826596,54.327415 20.9981149,55.1462844 C20.3320768,55.9435302 19.3303041,56.3816618 18.1772596,56.3816618 C15.6372225,56.3818638 13.2052079,54.3017495 12.7574276,51.7459149 Z M53.7430087,36.4169698 L49.3651813,39.0105953 C49.5144414,38.3075235 49.5440118,37.5573647 49.4078271,36.7805301 C48.9105616,33.9443963 46.5087208,31.5742826 43.7560585,30.9672036 L47.4923893,28.7571453 C47.4931939,28.7567412 47.4933951,28.7561349 47.4941997,28.7557307 C48.511864,28.1777528 49.0199922,27.9400947 49.9048914,27.9400947 C52.4449285,27.9400947 54.8769431,30.020209 55.326735,32.576852 C55.597093,34.1268838 55.0185592,35.5245395 53.7430087,36.4169698 Z"/>
</svg>
