<svg xmlns="http://www.w3.org/2000/svg" width="60" height="60" viewBox="0 0 60 60">
  <path fill="#231F20" d="M55.9059275,17.302984 C55.8901119,17.2718199 55.8683399,17.2481923 55.8488272,17.2192688 C55.7966565,17.1424789 55.7354482,17.0770954 55.6604784,17.0218963 C55.6426089,17.0086567 55.6343931,16.9862511 55.6152912,16.9744373 L50.3520009,13.6834708 C50.221574,13.6019961 50.0691696,13.5582035 49.9147113,13.5582035 L49.1163344,13.5582035 L49.1163344,9.44047255 C49.1163344,9.32640798 49.0916868,9.21825033 49.0489643,9.11966595 C48.7636682,8.06721662 47.135694,7.58060902 45.4738294,7.46593339 L45.4738294,2.81454323 C45.4738294,2.36500662 45.1047315,2 44.651421,2 C44.1981105,2 43.8290127,2.36500662 43.8290127,2.81454323 L43.8290127,7.46572971 C42.167148,7.58040534 40.538763,8.06721662 40.2536724,9.11966595 C40.2107445,9.21825033 40.1863023,9.3262043 40.1863023,9.44026887 L40.1863023,13.5577961 L39.3879253,13.5577961 C39.233467,13.5577961 39.0810627,13.6015888 38.9506358,13.6830634 L33.6852915,16.9740299 C33.6661896,16.9860475 33.6577684,17.0080456 33.6398989,17.0214889 C33.5651345,17.0766881 33.5041316,17.1418678 33.4519609,17.2186577 C33.4322428,17.2477849 33.4102654,17.2718199 33.3944498,17.302984 C33.3385819,17.4127712 33.2999673,17.5321316 33.2999673,17.6633058 L33.2999673,24.8102658 C33.2999673,25.089724 33.4464152,25.3502393 33.6850861,25.4995417 L38.9504304,28.7915266 C38.9639866,28.8000815 38.9818561,28.7968225 38.9956177,28.8043589 C39.1139262,28.8695386 39.2429153,28.916794 39.3877199,28.916794 L40.1860969,28.916794 L40.1860969,50.9583461 C40.1860969,51.4078827 40.5551948,51.7739077 41.0085053,51.7739077 C41.4618158,51.7739077 41.8309136,51.4078827 41.8309136,50.9583461 L41.8309136,42.1187494 C42.6627702,42.3912822 43.6903699,42.5124758 44.6510102,42.5124758 C45.6116506,42.5124758 46.6394556,42.3912822 47.4711068,42.1187494 L47.4711068,56.1419697 C47.4711068,56.5915063 47.8402047,56.9575313 48.2935152,56.9575313 C48.7468257,56.9575313 49.1159236,56.5915063 49.1159236,56.1419697 L49.1159236,28.9169977 L49.9143005,28.9169977 C50.058489,28.9169977 50.1872727,28.8703534 50.3051704,28.805581 C50.3201644,28.7974335 50.3390609,28.8006925 50.3536441,28.7917303 L55.6169343,25.4997454 C55.8535513,25.3506467 55.9999992,25.0899277 55.9999992,24.8104695 L55.9999992,17.6635095 C56.0002046,17.5321316 55.9617954,17.4127712 55.9059275,17.302984 Z M41.831119,11.052653 C42.6629756,11.3245748 43.6905753,11.4455647 44.6512156,11.4455647 C45.611856,11.4455647 46.639661,11.3247785 47.4713122,11.052653 L47.4713122,14.3627661 C47.4713122,14.3662287 47.4692583,14.3690804 47.4692583,14.372543 C47.4692583,14.3760057 47.4713122,14.3788573 47.4713122,14.38232 L47.4713122,17.3860882 C47.1880702,17.5907934 46.1771077,17.9191364 44.6512156,17.9191364 C43.1253236,17.9191364 42.1141557,17.5907934 41.831119,17.3860882 L41.831119,11.052653 Z M47.160547,9.44047255 C46.7967895,9.58223852 46.1867613,9.72746716 45.3890006,9.78673999 C45.4399389,9.68082289 45.473624,9.56553621 45.473624,9.44047255 L45.473624,9.09888991 C46.2315378,9.16182911 46.8091133,9.30420613 47.160547,9.44047255 Z M43.8288073,9.09888991 L43.8288073,9.44047255 C43.8288073,9.56553621 43.8624923,9.68082289 43.9136361,9.78673999 C43.1156699,9.72746716 42.5056418,9.5824422 42.1420896,9.44047255 C42.493318,9.30420613 43.0710989,9.16182911 43.8288073,9.09888991 Z M39.6247477,15.1870863 L40.1863023,15.1870863 L40.1863023,17.5431307 C40.1863023,17.6571952 40.2107445,17.7649455 40.2536724,17.8635299 C40.5855935,19.0917609 42.752734,19.5480191 44.651421,19.5480191 C46.5499027,19.5480191 48.7170432,19.0919646 49.0491697,17.8639373 C49.0918922,17.7653529 49.1163344,17.6571952 49.1163344,17.5431307 L49.1163344,15.1870863 L49.6778889,15.1870863 L53.637321,17.6635095 L49.6778889,20.1399328 L39.6247477,20.1399328 L35.6632617,17.6635095 L39.6247477,15.1870863 Z M40.2103337,27.2879112 L40.2103337,21.7690192 L49.0920976,21.7690192 L49.0920976,27.2879112 L40.2103337,27.2879112 Z M34.9449895,19.1400346 L38.565517,21.4029942 L38.565517,26.6255219 L34.9449895,24.3609329 L34.9449895,19.1400346 Z M41.831119,40.3495264 L41.831119,34.6515938 C42.6629756,34.9241267 43.6905753,35.0453203 44.6512156,35.0453203 C45.611856,35.0453203 46.639661,34.9241267 47.4713122,34.6515938 L47.4713122,40.3495264 C47.1880702,40.5532132 46.1771077,40.8815562 44.6512156,40.8815562 C43.1253236,40.8815562 42.1143611,40.5532132 41.831119,40.3495264 Z M47.4715176,32.8813525 C47.1882756,33.0870761 46.1773131,33.4144007 44.651421,33.4144007 C43.125529,33.4144007 42.1143611,33.0870761 41.8313244,32.8813525 L41.8313244,28.916794 L47.471723,28.916794 L47.471723,32.8813525 L47.4715176,32.8813525 Z M50.7369143,26.6251146 L50.7369143,21.4029942 L54.3553878,19.140442 L54.3553878,24.3609329 L50.7369143,26.6251146 Z M23.7736686,3.02943273 C23.7613448,3.02291476 23.7475833,3.0237295 23.7350541,3.01782259 C23.6865804,2.99439861 23.6337935,2.98441797 23.5803904,2.97077095 C23.5267818,2.95732763 23.475638,2.94144007 23.4214133,2.93899582 C23.4074463,2.93818108 23.3957387,2.93105204 23.3815664,2.93105204 C23.3421302,2.93105204 23.3082397,2.94816173 23.270036,2.95345758 C23.2145788,2.96119768 23.1607649,2.96730828 23.107978,2.98584377 C23.057245,3.0037682 23.0141117,3.03045117 22.968719,3.0575415 C22.9231209,3.08422446 22.879166,3.10866687 22.8391137,3.14410836 C22.7972128,3.18117935 22.7659925,3.22537937 22.7325128,3.27039413 C22.7095084,3.30094714 22.6782881,3.32233425 22.659597,3.35675731 C22.6528189,3.36897851 22.6536405,3.38282921 22.647684,3.3952541 C22.6246795,3.44230573 22.6146151,3.4934311 22.6012643,3.54496385 C22.5868865,3.59995926 22.5702494,3.65291781 22.5679901,3.70872798 C22.5673739,3.72156024 22.5603904,3.73255932 22.5603904,3.74559527 L22.5603904,16.1279153 L17.6540795,18.971382 L12.7364719,16.1556167 L12.7364719,3.89367553 C12.7364719,3.60423668 12.5820136,3.33679601 12.3301972,3.19054894 C12.0783809,3.04430186 11.7678211,3.04328343 11.5121022,3.18362359 C7.49536444,5.4243813 5,9.59466341 5,14.0672166 C5,18.9762705 7.85398707,23.3494246 12.2971284,25.4194928 L12.2971284,53.1107037 C12.2971284,55.8058865 14.5086346,58 17.2264436,58 L18.1250542,58 C20.8428632,58 23.0543694,55.8060902 23.0543694,53.1107037 L23.0543694,25.4227518 C27.4942244,23.3534983 30.3514978,18.9632345 30.3514978,14.0670129 C30.3517032,9.44536103 27.8314857,5.21641715 23.7736686,3.02943273 Z M21.9704911,24.1480803 C21.7328471,24.2480904 21.5787996,24.4485182 21.5124564,24.6762399 C21.4535076,24.788675 21.4118121,24.9108871 21.4118121,25.046135 L21.4118121,53.1107037 C21.4118121,54.9068133 19.9374746,56.3688767 18.1252596,56.3688767 L17.226649,56.3688767 C15.414434,56.3688767 13.9400965,54.9068133 13.9400965,53.1107037 L13.9400965,25.2465628 C14.1052355,24.8332824 13.9066169,24.3633771 13.489867,24.1937061 C9.3305839,22.5010694 6.64296816,18.5257154 6.64296816,14.0672166 C6.64296816,10.6002648 8.28264997,7.4473979 11.0939145,5.38873612 L11.0939145,16.6263367 C11.0939145,16.9178124 11.2504268,17.1862715 11.5040917,17.3315002 L17.2457509,20.6185966 C17.5035238,20.7687137 17.8183969,20.7658621 18.0712402,20.6165597 L23.7958515,17.2987066 C24.0484894,17.1524595 24.2029477,16.8850188 24.2029477,16.59558 L24.2029477,5.22660149 C27.0115421,7.2571545 28.7089404,10.5281597 28.7089404,14.0672166 C28.7089404,18.4749975 26.0632256,22.4314085 21.9704911,24.1480803 Z M17.6758516,49.9918525 C16.4905073,49.9918525 15.5265806,50.9485691 15.5265806,52.1242489 C15.5265806,53.2999287 16.4903019,54.2566453 17.6758516,54.2566453 C18.8614013,54.2566453 19.8251226,53.2999287 19.8251226,52.1242489 C19.8251226,50.9485691 18.8614013,49.9918525 17.6758516,49.9918525 Z M17.1695487,52.1240452 C17.1695487,51.8476423 17.3971283,51.6227722 17.676057,51.6227722 C17.9549857,51.6227722 18.1825652,51.8476423 18.1825652,52.1240452 C18.1823598,52.6770547 17.1695487,52.6770547 17.1695487,52.1240452 Z"/>
</svg>
