<?xml version="1.0" encoding="utf-8"?>
<!-- Generator: Adobe Illustrator 21.0.0, SVG Export Plug-In . SVG Version: 6.00 Build 0)  -->
<svg version="1.1" id="Layer_1" xmlns="http://www.w3.org/2000/svg" xmlns:xlink="http://www.w3.org/1999/xlink" x="0px" y="0px"
	 viewBox="0 0 30 30" style="enable-background:new 0 0 30 30;" xml:space="preserve">
<style type="text/css">
	.st0{fill:#231F20;}
</style>
<g>
	<path class="st0" d="M3.9011,13.9018c-0.2871-0.0226-0.5747,0.1285-0.6425,0.3375c-0.0677,0.2089,0.1102,0.3966,0.3973,0.4191
		c0.2871,0.0226,0.5748-0.1285,0.6425-0.3374C4.3661,14.112,4.1882,13.9244,3.9011,13.9018z"/>
	<path class="st0" d="M20.2947,4.942c0.0677-0.209-0.1102-0.3966-0.3973-0.4192s-0.5748,0.1285-0.6425,0.3375
		c-0.0677,0.2089,0.1102,0.3965,0.3973,0.4191S20.2269,5.1509,20.2947,4.942z"/>
	<path class="st0" d="M29.2607,13.3257c-0.0181-0.0106-0.0406-0.0061-0.0594-0.0147c-0.0053-0.0034-0.0082-0.009-0.0138-0.0121
		l-1.5918-0.9174V8.0537c0-0.0098-0.0049-0.0179-0.0056-0.0275c0.0005-0.0122,0.0056-0.0237,0.0056-0.0359
		c-0.001-0.3682-0.2295-0.7109-0.6279-0.9404l-6.9922-4.0386c-0.125-0.0723-0.2764-0.0728-0.4014-0.0005l-2.7773,1.6035
		c-0.0099,0.0057-0.014,0.017-0.0233,0.0234c-0.0402,0.0279-0.0735,0.0615-0.1013,0.1019
		c-0.0098,0.0143-0.0203,0.0262-0.0282,0.0417c-0.028,0.0546-0.0475,0.1138-0.0475,0.1792v2.8901l-0.3655,0.215l-2.5944-1.4659
		c-0.1934-0.1094-0.437-0.0415-0.5449,0.1514c-0.1089,0.1924-0.041,0.4365,0.1514,0.5449l2.1915,1.2381l-0.7695,0.4526
		l-2.6158-1.4832c-0.1914-0.1079-0.436-0.041-0.5454,0.1509c-0.1089,0.1924-0.0415,0.436,0.1509,0.5454l2.2139,1.2553
		l-0.7695,0.4526l-2.6368-1.5004c-0.1919-0.1089-0.436-0.0415-0.5454,0.1499c-0.1094,0.1919-0.042,0.436,0.1499,0.5454l2.237,1.2728
		l-0.7709,0.4534L8.875,9.3115C8.6836,9.2012,8.439,9.269,8.3296,9.4604c-0.1099,0.1919-0.043,0.436,0.1489,0.5454l2.2601,1.2902
		l-0.7714,0.4537l-2.6791-1.5349c-0.1919-0.1084-0.4355-0.043-0.5459,0.1484c-0.1099,0.1914-0.0435,0.436,0.1484,0.5459
		l2.2825,1.3076l-0.772,0.454l-2.7004-1.5517c-0.1929-0.1108-0.436-0.0439-0.5459,0.1475c-0.1104,0.1914-0.0439,0.436,0.1475,0.5459
		l2.3056,1.3249l-0.0761,0.0447c-0.5845,0.3452-1.5771,0.3486-2.165,0.0083l-1.3882-0.8013
		c-0.124-0.0713-0.2764-0.0718-0.4004,0.0005l-2.6743,1.5444c-0.0859,0.0493-0.1465,0.1265-0.1772,0.2134
		c0,0.0005,0,0.0005,0,0.0005c-0.0068,0.0195-0.0122,0.04-0.0161,0.0605c0,0.0005,0,0.0005,0,0.001
		c-0.0049,0.0259-0.0068,0.0522-0.0063,0.0786v6.1787c0,0.1426,0.0757,0.2744,0.1987,0.3457l6.9097,4.0244
		c0.3375,0.1967,0.769,0.2932,1.2025,0.2975c0.0091,0.0006,0.0168,0.0052,0.026,0.0052c0.0065,0,0.012-0.0034,0.0184-0.0037
		c0.4357-0.0024,0.8704-0.1002,1.2106-0.2971l3.1157-1.8055l2.2319,1.2606c0.0357,0.0202,0.0748,0.0215,0.113,0.0298
		c0.014,0.0096,0.0197,0.028,0.0345,0.0366c0.1016,0.0586,0.2148,0.0879,0.3325,0.0879c0.1406,0,0.2891-0.042,0.4316-0.124
		l12.292-7.1113c0.4063-0.2344,0.7168-0.7646,0.7246-1.2319l0.0332-2.0234C29.584,13.6782,29.4678,13.4478,29.2607,13.3257z
		 M12.4263,21.5723c-0.1582-0.0889-0.314-0.3555-0.314-0.5381V19.491l3.3264,1.8787c-0.0083,0.0469-0.0242,0.0945-0.0242,0.1401
		v1.7502L12.4263,21.5723z M16.0488,20.5264c-0.0734,0.0423-0.139,0.0975-0.2031,0.1539l-3.3238-1.8774l12.3813-7.0494
		l3.2117,1.8513L16.0488,20.5264z M17.3975,5.6279l0.8789,0.4693c0.21,0.1128,0.3369,0.2515,0.3398,0.3716
		c0.002,0.1201-0.1191,0.2642-0.3252,0.3853l-0.8936,0.5256V5.6279z M3.7783,13.1978l1.188,0.6855
		c0.8359,0.4824,2.1401,0.4775,2.9707-0.0117l10.7603-6.3281c0.4648-0.2739,0.7275-0.6714,0.7188-1.0908
		s-0.2861-0.8062-0.7627-1.061l-0.833-0.4448l1.9531-1.1274l6.7949,3.9238c0.168,0.0962,0.2266,0.1938,0.2275,0.248
		c0,0.0542-0.0596,0.1514-0.2256,0.248L9.8687,17.9209c-0.4419,0.2549-1.2158,0.2549-1.6567,0.001l-6.3081-3.6416L3.7783,13.1978z
		 M1.5039,20.2373v-5.2642l6.3076,3.6421c0.2392,0.1377,0.5295,0.2098,0.8296,0.2519v5.4268
		c-0.1574-0.0317-0.3053-0.0784-0.4263-0.1484L1.5039,20.2373z M9.8687,24.1475c-0.1213,0.0703-0.2697,0.1166-0.4277,0.1479v-5.4291
		c0.3-0.0427,0.5902-0.1156,0.8291-0.254l16.5249-9.5782V11.92l-1.6904-0.9742c-0.125-0.0718-0.2744-0.0713-0.3984-0.001
		L11.9463,18.21c-0.3613,0.208-0.6338,0.6787-0.6338,1.0957v1.7285c0,0.4727,0.3101,1.0029,0.7207,1.2354l0.545,0.3078
		L9.8687,24.1475z M28.7451,15.9688c-0.002,0.1885-0.1602,0.4561-0.3242,0.5508l-12.2061,7.0576v-2.0654
		c0.0039-0.0566,0.0977-0.2139,0.2324-0.292l12.3281-7.0713L28.7451,15.9688z"/>
	<path class="st0" d="M16.8398,21.71c0.0801,0.0703,0.1797,0.1094,0.2803,0.1094c0.0596,0,0.1094-0.0098,0.1602-0.0293
		c0.0391-0.0205,0.0898-0.0498,0.1299-0.0801c0.0693-0.0801,0.1094-0.1797,0.1094-0.29c0-0.1006-0.04-0.21-0.1094-0.2803
		c-0.1504-0.1494-0.4199-0.1494-0.5703,0c-0.0703,0.0801-0.1201,0.1797-0.1201,0.2803c0,0.0596,0.0098,0.1104,0.0303,0.1602
		C16.7695,21.6201,16.7998,21.6699,16.8398,21.71z"/>
	<path class="st0" d="M25.0303,17.3096c0.0693,0,0.1396-0.0195,0.1992-0.0498c0.1904-0.1104,0.2607-0.3496,0.1504-0.5498
		c-0.1104-0.1904-0.3496-0.2598-0.54-0.1504c-0.2002,0.1104-0.2598,0.3604-0.1504,0.5498
		C24.7598,17.2402,24.8994,17.3096,25.0303,17.3096z"/>
	<path class="st0" d="M26.3496,16.5596c0.0703,0,0.1406-0.0195,0.2002-0.0498c0.1904-0.1104,0.2598-0.3604,0.1504-0.5498
		c-0.1104-0.1899-0.3506-0.2603-0.5508-0.1499c-0.1895,0.1099-0.25,0.3599-0.1494,0.5493
		C26.0801,16.4902,26.21,16.5596,26.3496,16.5596z"/>
	<path class="st0" d="M19.7598,20.3193c0.0703,0,0.1396-0.0195,0.2002-0.0498c0.1895-0.1094,0.2598-0.3594,0.1494-0.5498
		C20,19.5303,19.75,19.46,19.5596,19.5693c-0.1895,0.1104-0.2598,0.3604-0.1494,0.5508
		C19.4902,20.25,19.6201,20.3193,19.7598,20.3193z"/>
	<path class="st0" d="M21.0801,19.5693c0.0693,0,0.1299-0.0195,0.2002-0.0596c0.1895-0.1104,0.25-0.3496,0.1494-0.54
		c-0.1104-0.1895-0.3604-0.2598-0.5498-0.1504c-0.1904,0.1104-0.2598,0.3506-0.1504,0.54
		C20.8096,19.4902,20.9395,19.5693,21.0801,19.5693z"/>
	<path class="st0" d="M18.4395,21.0693c0.0703,0,0.1406-0.0195,0.2002-0.0498c0.1904-0.1094,0.2598-0.3594,0.1504-0.5498
		c-0.1104-0.1895-0.3506-0.2598-0.5498-0.1504c-0.1904,0.1104-0.25,0.3604-0.1406,0.5508
		C18.1699,21,18.3096,21.0693,18.4395,21.0693z"/>
	<path class="st0" d="M22.3994,18.8096c0.0605,0,0.1309-0.0098,0.2002-0.0498c0.1904-0.1104,0.25-0.3496,0.1406-0.54
		c-0.1104-0.2002-0.3506-0.2598-0.54-0.1504c-0.1904,0.1104-0.2607,0.3506-0.1504,0.54
		C22.1201,18.7402,22.2598,18.8096,22.3994,18.8096z"/>
	<path class="st0" d="M23.7197,18.0596c0.0605,0,0.1299-0.0098,0.1904-0.0498c0.1992-0.1104,0.2598-0.3496,0.1494-0.54
		c-0.1094-0.2002-0.3496-0.2598-0.54-0.1602c-0.1895,0.1104-0.2598,0.3604-0.1494,0.5498
		C23.4395,17.9902,23.5801,18.0596,23.7197,18.0596z"/>
	<path class="st0" d="M27.3896,15.6899c0.04,0.04,0.0801,0.0698,0.1299,0.0898s0.1006,0.0303,0.1504,0.0303
		c0.1104,0,0.21-0.04,0.2803-0.1201c0.04-0.04,0.0693-0.0801,0.0898-0.1299c0.0195-0.0503,0.0293-0.1001,0.0293-0.1504
		c0-0.1099-0.0391-0.21-0.1191-0.2798c-0.0303-0.04-0.0801-0.0698-0.1309-0.0898c-0.1494-0.0601-0.3193-0.0303-0.4297,0.0898
		c-0.0801,0.0698-0.1201,0.1699-0.1201,0.2798c0,0.0503,0.0107,0.1001,0.0303,0.1504
		C27.3193,15.6099,27.3496,15.6499,27.3896,15.6899z"/>
	<path class="st0" d="M16.2803,22.6602c0,0.1094,0.0391,0.21,0.1191,0.2793c0.0703,0.0801,0.1699,0.1201,0.2803,0.1201
		c0.0498,0,0.1006-0.0098,0.1504-0.0293c0.0498-0.0205,0.0898-0.0508,0.1299-0.0908c0.0801-0.0693,0.1201-0.1699,0.1201-0.2793
		c0-0.1006-0.04-0.21-0.1201-0.2803c-0.1504-0.1504-0.4199-0.1504-0.5605,0C16.3193,22.4502,16.2803,22.5596,16.2803,22.6602z"/>
	<path class="st0" d="M19.2695,21.5801c0.0605,0,0.1299-0.0107,0.1904-0.0498c0.2002-0.1104,0.2598-0.3506,0.1494-0.54
		c-0.0996-0.2002-0.3496-0.2607-0.54-0.1504c-0.1895,0.1104-0.2598,0.3496-0.1494,0.54
		C18.9902,21.5098,19.1299,21.5801,19.2695,21.5801z"/>
	<path class="st0" d="M20.5596,20.8496c0.0703,0,0.1299-0.0195,0.2002-0.0596c0.1904-0.1006,0.2598-0.3506,0.1504-0.54
		c-0.1104-0.1904-0.3604-0.2598-0.5508-0.1504c-0.1895,0.1104-0.2598,0.3506-0.1494,0.5498
		C20.29,20.7695,20.4199,20.8496,20.5596,20.8496z"/>
	<path class="st0" d="M17.9697,22.3193c0.0703,0,0.1396-0.0098,0.2002-0.0498c0.1895-0.1094,0.2598-0.3496,0.1494-0.54
		c-0.1094-0.1992-0.3496-0.2598-0.5391-0.1494c-0.2002,0.1094-0.2607,0.3496-0.1504,0.54
		C17.7002,22.25,17.8398,22.3193,17.9697,22.3193z"/>
	<path class="st0" d="M26.6797,16.96c0.0703,0.1299,0.21,0.2002,0.3506,0.2002c0.0596,0,0.1299-0.0205,0.1895-0.0508
		C27.4199,17,27.4795,16.75,27.3701,16.5596c-0.1104-0.1895-0.3506-0.2598-0.54-0.1494
		C26.6396,16.5195,26.5693,16.7695,26.6797,16.96z"/>
	<path class="st0" d="M24.0898,18.4297c0.0801,0.1299,0.21,0.2002,0.3496,0.21c0.0703,0,0.1406-0.0195,0.2002-0.0596
		c0.1904-0.1104,0.2598-0.3506,0.1504-0.54c-0.1104-0.2002-0.3604-0.2598-0.5498-0.1504C24.0498,18,23.9795,18.2402,24.0898,18.4297
		z"/>
	<path class="st0" d="M22.7998,19.1699c0.0703,0.1299,0.21,0.2002,0.3496,0.2002c0.0605,0,0.1309-0.0107,0.2002-0.0508
		c0.1904-0.1094,0.25-0.3496,0.1406-0.5498c-0.1104-0.1895-0.3506-0.25-0.54-0.1396
		C22.7598,18.7402,22.6895,18.9795,22.7998,19.1699z"/>
	<path class="st0" d="M21.5098,19.9102c0.0703,0.1299,0.2002,0.1992,0.3398,0.1992c0.0703,0,0.1406-0.0195,0.2002-0.0498
		c0.1904-0.1094,0.2598-0.3594,0.1504-0.5498c-0.1104-0.1904-0.3506-0.2598-0.5508-0.1504
		C21.46,19.4697,21.3994,19.7197,21.5098,19.9102z"/>
	<path class="st0" d="M25.3896,17.7002c0.0703,0.1191,0.2002,0.1992,0.3398,0.1992c0.0703,0,0.1406-0.0195,0.2002-0.0596
		c0.1904-0.1104,0.2598-0.3496,0.1504-0.54c-0.1104-0.1904-0.3506-0.2598-0.54-0.1504C25.3398,17.2598,25.2803,17.5,25.3896,17.7002
		z"/>
	<path class="st0" d="M27.9199,16.0195c0,0.0605,0.0098,0.1104,0.0303,0.1602C27.9697,16.2295,28,16.2695,28.04,16.3096
		c0.0293,0.0303,0.0801,0.0605,0.1299,0.0801c0.0498,0.0205,0.0996,0.0303,0.1494,0.0303c0.1104,0,0.2109-0.04,0.2803-0.1104
		c0.04-0.04,0.0703-0.0801,0.0898-0.1299c0.0205-0.0498,0.0303-0.0996,0.0303-0.1602c0-0.0996-0.04-0.1997-0.1201-0.2798
		c-0.0303-0.0298-0.0801-0.0601-0.1299-0.0801c-0.1504-0.0698-0.3203-0.0298-0.4297,0.0801
		C27.96,15.8198,27.9199,15.9199,27.9199,16.0195z"/>
</g>
</svg>
