<svg xmlns="http://www.w3.org/2000/svg" width="60" height="60" viewBox="0 0 60 60">
  <path fill="#231F20" d="M8.1999789,30.2163799 C8.75677657,30.2601891 9.10179331,30.6238439 8.97049689,31.0289817 C8.83920047,31.4339257 8.28123916,31.7268267 7.72444149,31.6830176 C7.16764381,31.6394022 6.82262707,31.2755536 6.95392349,30.8706096 C7.08541385,30.4654718 7.64318122,30.1725708 8.1999789,30.2163799 Z M39.9934947,12.8481804 C39.8620043,13.2531244 39.304237,13.5460254 38.7474393,13.5022163 C38.1906416,13.4584071 37.8456249,13.0947523 37.9769213,12.6898084 C38.1082177,12.2846705 38.666179,11.9917695 39.2229767,12.0355786 C39.7797744,12.0793878 40.1247911,12.4430426 39.9934947,12.8481804 Z M57.3820282,29.0996341 C57.3469253,29.0790864 57.3032891,29.0878095 57.2668287,29.0711387 C57.2565499,29.064548 57.2509257,29.0536926 57.2400651,29.0476834 L54.1529508,27.2693416 L54.1529508,18.8800814 C54.1529508,18.8610845 54.1434478,18.845383 54.1420902,18.8267738 C54.1430599,18.8031246 54.1529508,18.7808323 54.1529508,18.7571831 C54.1510114,18.0434427 53.7078617,17.3791331 52.9352104,16.9342569 L39.3746367,9.10559878 C39.1322134,8.96544824 38.8385904,8.96447901 38.5961672,9.10462955 L33.2099109,12.2129476 C33.190711,12.2239968 33.1827595,12.2459014 33.1647232,12.2583075 C33.0867599,12.3123905 33.0221783,12.3775227 32.9682634,12.4558364 C32.9492574,12.4835564 32.9288939,12.506624 32.9135727,12.5366701 C32.8592699,12.64251 32.8214519,12.7572667 32.8214519,12.8840419 L32.8214519,18.4863805 L32.1126064,18.903149 L27.0810637,16.0615629 C26.7059865,15.8494955 26.2335521,15.9811169 26.0242924,16.3550455 C25.8130933,16.7280049 25.9447776,17.2011826 26.3179154,17.4113115 L30.5680795,19.8113168 L29.0757221,20.6886631 L24.0026766,17.8135416 C23.6314781,17.6043819 23.1571044,17.7340648 22.9449355,18.106055 C22.7337364,18.4790143 22.864451,18.9512228 23.2375889,19.1632902 L27.5311952,21.596637 L26.0388378,22.4739833 L20.9250652,19.5655203 C20.552897,19.3544222 20.079493,19.4850743 19.8673241,19.8560952 C19.6551553,20.2280854 19.7858699,20.7012631 20.1580381,20.9133304 L24.4964442,23.3806002 L23.0013717,24.2594973 L17.8462902,21.3182744 C17.4750917,21.1044624 17.0007179,21.2358899 16.7885491,21.6069108 C16.5754106,21.978901 16.7051555,22.4520787 17.0773237,22.664146 L21.4605296,25.165145 L19.9644874,26.0446236 L14.7686788,23.0692838 C14.3965106,22.8591549 13.9240762,22.9859301 13.709968,23.3569511 C13.4968295,23.727972 13.6256047,24.2021189 13.9977729,24.4151555 L18.4244211,26.9498837 L16.9272152,27.8299438 L11.6900977,24.8220379 C11.3159901,24.6072567 10.8445254,24.7369396 10.6313869,25.1079605 C10.4172787,25.4789815 10.5462479,25.9531284 10.9174463,26.166165 L15.3888943,28.7344285 L15.2413071,28.8210776 C14.1077361,29.4902334 12.1827017,29.4968242 11.0425367,28.8371668 L8.3502813,27.2838801 C8.10979745,27.145668 7.81423505,27.1446988 7.57375121,27.2848493 L2.38725164,30.2786044 C2.22065839,30.3741704 2.10313161,30.5238194 2.04359247,30.6922715 C2.04359247,30.6932407 2.04359247,30.6932407 2.04359247,30.6932407 C2.03040464,30.7310406 2.01993196,30.770779 2.01236836,30.8105174 C2.01236836,30.8114867 2.01236836,30.8114867 2.01236836,30.8124559 C2.00286536,30.862662 1.99918053,30.9136434 2.00015022,30.9648187 L2.00015022,42.9419716 C2.00015022,43.2183958 2.14696173,43.4738846 2.38550619,43.6120967 L15.7860806,51.4132286 C16.4406233,51.7945234 17.2774683,51.9815846 18.118192,51.98992 C18.1358405,51.9910831 18.1507737,52 18.1686161,52 C18.1812221,52 18.1918887,51.9934092 18.2043008,51.9928277 C19.0492912,51.9881754 19.8923422,51.7985942 20.5521213,51.4169117 L26.5946658,47.9170251 L30.923181,50.3606457 C30.9924171,50.3998026 31.0682471,50.4023226 31.1423316,50.4184118 C31.169483,50.437021 31.1805375,50.4726886 31.2092404,50.4893594 C31.406282,50.602953 31.6258205,50.6597499 31.8540862,50.6597499 C32.1267639,50.6597499 32.4147627,50.5783346 32.6911252,50.419381 L56.530056,36.6344218 C57.3180285,36.1800472 57.9202078,35.1522765 57.935335,34.2464349 L57.9997226,30.3241582 C58.0090316,29.7829406 57.783675,29.3363198 57.3820282,29.0996341 Z M24.7336311,45.0853251 C24.4268203,44.9129961 24.124664,44.3962031 24.124664,44.0422406 L24.124664,41.0508116 L30.575837,44.6925934 C30.5597401,44.7835071 30.5289039,44.8757777 30.5289039,44.9641714 L30.5289039,48.3568613 L24.7336311,45.0853251 Z M31.7590563,43.0578914 C31.6167054,43.1398882 31.4894817,43.2468911 31.3651671,43.3562202 L24.9190364,39.7169584 L48.9311544,26.0519898 L55.1598799,29.6406578 L31.7590563,43.0578914 Z M34.374706,14.177769 L36.0792322,15.0874875 C36.4865033,15.3061456 36.7326113,15.5750098 36.7382356,15.8078187 C36.7421143,16.0406275 36.5072547,16.3199594 36.1075473,16.5547067 L34.3745121,17.5735604 L34.3745121,14.177769 L34.374706,14.177769 Z M7.96182231,28.8517052 L10.2658127,30.1805185 C11.8869453,31.1156308 14.4162923,31.1061323 16.0271462,30.1578385 L36.8955197,17.8910799 C37.7969463,17.3601362 38.3064229,16.589599 38.2895503,15.7766095 C38.2726776,14.96362 37.734692,14.2138243 36.8103807,13.7199051 L35.1948723,12.8576788 L38.9826868,10.6722609 L52.1606197,18.2783839 C52.4864365,18.4648636 52.6000845,18.6540571 52.60183,18.7591216 C52.60183,18.864186 52.4862426,19.0526042 52.1643045,19.2398593 L19.7734579,38.0072381 C18.9164433,38.5013511 17.4155526,38.5013511 16.5604773,38.0091765 L4.32663748,30.9500864 L7.96182231,28.8517052 Z M3.55088315,42.4974831 L3.55088315,32.2930504 L15.7837533,39.3531097 C16.2476544,39.6200355 16.8106581,39.7597983 17.3926678,39.8414074 L17.3926678,50.3610334 C17.0874085,50.2995843 16.8005733,50.2090583 16.5659076,50.0733662 L3.55088315,42.4974831 Z M19.7734579,50.0772431 C19.5382104,50.2135167 19.2504055,50.3032674 18.9439825,50.3639411 L18.9439825,39.8398566 C19.5257983,39.7570845 20.0886081,39.6157708 20.5519273,39.3474882 L52.6000845,20.780546 L52.6000845,26.3747431 L49.3217467,24.4862969 C49.0793234,24.3471156 48.7895792,24.3480848 48.5490954,24.4843585 L23.8027259,38.5676464 C23.1020258,38.9708457 22.5735432,39.8832781 22.5735432,40.6916153 L22.5735432,44.0422406 C22.5735432,44.9585499 23.1749467,45.9863205 23.9712585,46.4370121 L25.0282238,47.0336696 L19.7734579,50.0772431 Z M56.3820808,34.2231734 C56.3782021,34.5885728 56.0713912,35.1073043 55.753332,35.2908763 L32.0809944,48.9717403 L32.0809944,44.9680483 C32.088558,44.8583316 32.2704724,44.5534121 32.5317077,44.4020185 L56.4406503,30.6945976 L56.3820808,34.2231734 Z"/>
</svg>
