<svg xmlns="http://www.w3.org/2000/svg" width="60" height="60" viewBox="0 0 60 60">
  <path fill="#231F20" d="M44.7270673,2 L38.2787879,2 C37.9985619,2 37.7627119,2.15067932 37.6141757,2.36626029 C37.1432974,2.62648699 36.6962506,3.01693039 36.2789933,3.55763971 L36.2785824,3.55722633 L26.2465331,12.9884289 C25.220339,12.0235852 24.2481767,11.780514 23.5535696,11.780514 L15.2698511,11.780514 C11.1248074,11.780514 8,19.6133583 8,29.9994833 C8,40.3845748 11.1248074,48.2184525 15.2698511,48.2184525 L24.0523883,48.2184525 L24.0523883,48.1506572 C24.7361068,48.0433834 25.4046225,47.7403712 26.0302003,47.2089631 L36.2781715,56.4407067 C37.0420134,57.4315938 37.893169,58 38.8367745,58 L44.7272727,58 C49.5022085,58 52,43.9130338 52,29.9994833 C52,16.0851059 49.5022085,2 44.7270673,2 Z M9.6431433,29.9994833 C9.6431433,20.2371583 12.6085259,13.4338526 15.2698511,13.4338526 L20.4412943,13.4338526 C17.9424756,16.2531475 16.2828968,22.4417476 16.2828968,29.9994833 C16.2828968,37.5549453 17.9416538,43.7427187 20.4394453,46.5632536 L15.2698511,46.5632536 C12.6085259,46.5632536 9.6431433,39.7609815 9.6431433,29.9994833 Z M23.553775,46.5632536 C20.8924499,46.5632536 17.9260401,39.7609815 17.9260401,29.9994833 C17.9260401,20.2371583 20.8922445,13.4338526 23.553775,13.4338526 C24.1092964,13.4338526 24.6091423,13.740792 25.0374936,14.125448 L24.0844376,15.0214629 C21.0479712,15.5594852 19.4619414,22.944012 19.4619414,30.2419344 C19.4619414,37.5489512 21.0518747,44.9425725 24.0945044,45.4652995 L24.7831536,46.0855857 C24.3718541,46.3906649 23.9607601,46.5632536 23.553775,46.5632536 Z M24.755624,43.8402779 L24.4417052,43.8402779 C23.2770416,43.8402779 21.1052902,39.1694257 21.1052902,30.2417277 C21.1052902,21.3140297 23.2770416,16.6431775 24.4417052,16.6431775 L24.7656908,16.6431775 L34.2757062,7.70514481 C32.4899846,13.0899152 31.5669235,21.5655753 31.5669235,29.9994833 C31.5669235,38.5212359 32.5080637,47.0919748 34.3305598,52.467444 L24.755624,43.8402779 Z M33.211094,29.9994833 C33.211094,16.8579317 35.334566,7.8115918 37.388187,4.77960972 L37.4021572,4.76638136 L37.3984592,4.76245419 C37.8923472,4.03840802 38.3817155,3.65313196 38.8365691,3.65313196 L42.1037494,3.65313196 C39.0465331,7.74813699 37.4563945,18.9155622 37.4563945,29.9994833 C37.4563945,37.6485773 38.2159219,45.3359096 39.6887519,50.7204733 L39.6191063,50.7556112 C39.6632768,50.8440758 39.7125835,50.9044302 39.7575758,50.9885544 C40.4047252,53.2851222 41.1897278,55.1215909 42.1025167,56.3448011 L38.8365691,56.3448011 C36.4873138,56.3448011 33.211094,46.3230762 33.211094,29.9994833 Z M42.6286595,8.58131715 C44.4604006,8.58131715 47.1186441,16.9813275 47.1186441,30.1437551 C47.1186441,43.3074229 44.4604006,51.706193 42.6286595,51.706193 C42.2652286,51.706193 41.8025681,51.2421669 41.3487417,50.4726482 C40.3036466,46.7244743 39.4631741,41.2917511 39.1971238,34.5126286 C39.2320493,34.5144888 39.2651258,34.5328845 39.3002568,34.5328845 C41.0237288,34.5328845 42.3258346,32.2338364 42.3258346,29.1869724 C42.3258346,26.139075 41.0237288,23.8410603 39.3002568,23.8410603 C39.2893683,23.8410603 39.2793015,23.8476745 39.2684129,23.8476745 C39.5806882,18.1251675 40.3112481,13.4634098 41.2065742,10.0579331 C41.7027221,9.13732177 42.2292758,8.58131715 42.6286595,8.58131715 Z M39.1015922,29.9994833 C39.1015922,28.4439105 39.1398048,26.9652276 39.1956857,25.5274699 C39.2306112,25.5150683 39.2649204,25.4941923 39.3002568,25.4941923 C39.769697,25.4941923 40.6806369,26.7982195 40.6806369,29.1869724 C40.6806369,31.5757254 39.769697,32.8776856 39.3002568,32.8776856 C39.2515665,32.8776856 39.1915768,32.8264257 39.1365177,32.7995556 C39.1147406,31.8870053 39.1015922,30.9562659 39.1015922,29.9994833 Z M44.7270673,56.3448011 C43.9652799,56.3448011 43.1069337,55.2753707 42.2933744,53.2948367 C42.405547,53.312819 42.5136107,53.3613919 42.628454,53.3613919 C46.6551618,53.3613919 48.7636364,41.6803343 48.7636364,30.1437551 C48.7636364,18.6071759 46.6551618,6.9281852 42.6286595,6.9281852 C42.4727273,6.9281852 42.3243965,6.98275219 42.1729841,7.01602979 C43.0216744,4.83975743 43.9274782,3.65313196 44.7272727,3.65313196 C47.0767334,3.65313196 50.3550077,13.6758903 50.3550077,29.9994833 C50.3550077,46.3230762 47.076528,56.3448011 44.7270673,56.3448011 Z"/>
</svg>
