<svg xmlns="http://www.w3.org/2000/svg" width="60" height="60" viewBox="0 0 60 60">
  <path fill="#231F20" d="M40.8032209,22.763403 L35.6280037,19.9400848 C35.385843,19.8084634 35.093505,19.8104457 34.8513443,19.9497978 L28.0192801,23.892096 C27.7733512,24.0344215 27.6222239,24.2976643 27.6232156,24.5821171 C27.6242072,24.865777 27.7781111,25.1280286 28.0260233,25.2683719 L33.2224618,28.20785 C33.3444347,28.276634 33.4781089,28.3105305 33.6137665,28.3105305 C33.7551756,28.3105305 33.8946015,28.2736607 34.0205409,28.1991281 L40.8303921,24.1406701 C41.0743377,23.9945783 41.2216967,23.7283621 41.2177301,23.4437111 C41.2117803,23.1592583 41.0529181,22.8997818 40.8032209,22.763403 Z M33.6040483,26.6010384 L30.0150727,24.5714129 L35.2599036,21.5447159 L38.8236914,23.4893028 L33.6040483,26.6010384 Z M57.9061893,22.1276955 C57.8905212,22.0967724 57.8692999,22.0729854 57.8496653,22.0442428 C57.7969095,21.9673315 57.7342373,21.9033049 57.6586737,21.8491894 C57.6398324,21.8355119 57.6311059,21.8123196 57.6108762,21.8002279 L36.1702373,9.10927075 C35.9223251,8.96595409 35.6202688,8.96317894 35.3723566,9.10352222 L2.39903951,27.9687907 C2.37821489,27.9806842 2.36909172,28.0040747 2.3496554,28.017554 C2.27429008,28.0698854 2.21161787,28.1319298 2.15826716,28.2064624 C2.13664922,28.2367908 2.11463461,28.2629565 2.09757825,28.2962583 C2.04581418,28.3953708 2.01269311,28.5034034 2.00713987,28.6215455 C2.00674321,28.6306638 2.00019833,28.6381964 2,28.6473147 C2,28.6489005 2.00099165,28.6500899 2.00099165,28.6516757 C2.00099165,28.6536579 2,28.6550455 2,28.6570278 L2,35.41194 C2,35.4412773 2.01348642,35.4660554 2.0166597,35.4944016 C2.02260959,35.550301 2.03173276,35.6032271 2.04938411,35.6567478 C2.0652505,35.70452 2.08548013,35.7473366 2.10947804,35.7907479 C2.1338726,35.8347538 2.16005213,35.87539 2.19297487,35.9146385 C2.22867423,35.9572569 2.26834019,35.9923427 2.31217107,36.0268338 C2.33497899,36.0448723 2.34925874,36.0698487 2.37464495,36.0857067 L5.02314079,37.7309739 L5.02314079,40.0115522 C5.02314079,40.4490347 5.37854775,40.8052449 5.81626157,40.8052449 C6.25397539,40.8052449 6.60938235,40.4490347 6.60938235,40.0115522 L6.60938235,38.7165484 L23.5923612,49.2666759 C23.6054509,49.2748031 23.621714,49.2718298 23.6352004,49.2789659 C23.7484467,49.341605 23.8722045,49.386602 24.0106387,49.386602 C24.1415363,49.386602 24.2599392,49.346957 24.3688223,49.2904629 C24.3811187,49.2843179 24.3955968,49.2868949 24.4076949,49.2801552 L26.8790822,47.8535301 L26.8790822,51.2063072 C26.8790822,51.6437897 27.2344892,52 27.672203,52 C28.1099168,52 28.4653238,51.6437897 28.4653238,51.2063072 L28.4653238,47.0404113 C28.4653238,47.0079024 28.4506474,46.9799527 28.4466808,46.9484349 L30.7159701,45.6383661 L30.7159701,49.0167142 C30.7159701,49.4541967 31.0713771,49.810407 31.5090909,49.810407 C31.9468047,49.810407 32.3022117,49.4541967 32.3022117,49.0167142 L32.3022117,44.8218775 C32.3022117,44.7903597 32.2879319,44.7635993 32.284362,44.7328744 L34.5508747,43.4243914 L34.5508747,46.8273195 C34.5508747,47.264802 34.9072733,47.6210122 35.3449871,47.6210122 C35.7827009,47.6210122 36.1390995,47.264802 36.1390995,46.8273195 L36.1390995,42.6033436 C36.1390995,42.5730152 36.1250181,42.5470477 36.1216465,42.5175122 L38.3877626,41.2094256 L38.3877626,44.6379247 C38.3877626,45.0754072 38.7441612,45.4316175 39.181875,45.4316175 C39.6195888,45.4316175 39.9759874,45.0754072 39.9759874,44.6379247 L39.9759874,40.385008 C39.9759874,40.3556707 39.962501,40.3308926 39.9593277,40.3023482 L42.2266337,38.9934687 L42.2266337,42.4507104 C42.2266337,42.8881929 42.5830323,43.2444032 43.0207462,43.2444032 C43.45846,43.2444032 43.8148586,42.8881929 43.8148586,42.4507104 L43.8148586,38.1648883 C43.8148586,38.1369386 43.8015705,38.1131516 43.7987939,38.0857966 L46.0633233,36.7785029 L46.0633233,40.2613156 C46.0633233,40.6987981 46.4197219,41.0550084 46.8574357,41.0550084 C47.2951495,41.0550084 47.6515481,40.6987981 47.6515481,40.2613156 L47.6515481,35.9461563 C47.6515481,35.9193959 47.638855,35.8966 47.6360784,35.8702361 L49.9000128,34.5631407 L49.9000128,38.0715244 C49.9000128,38.5090069 50.2564114,38.8652172 50.6941252,38.8652172 C51.1318391,38.8652172 51.4882377,38.5090069 51.4882377,38.0715244 L51.4882377,33.7276224 C51.4882377,33.7018532 51.4759412,33.6800484 51.4735613,33.6548739 L53.7369007,32.3481749 L53.7369007,35.8821296 C53.7369007,36.3196121 54.0932993,36.6758224 54.5310131,36.6758224 C54.9687269,36.6758224 55.3251255,36.3196121 55.3251255,35.8821296 L55.3251255,31.5082957 C55.3251255,31.483914 55.3134241,31.4632986 55.3112424,31.4395116 L57.602943,30.1165582 C57.6324942,30.0995108 57.6499472,30.0717594 57.6765234,30.0517386 C57.7207509,30.0184368 57.7622018,29.9857297 57.7984962,29.9441025 C57.8320139,29.9054486 57.8568051,29.864416 57.881993,29.8208065 C57.9077759,29.7766024 57.9315755,29.7337858 57.9484335,29.684626 C57.9660848,29.6334839 57.9732247,29.5823419 57.9801663,29.5284247 C57.9845295,29.4947265 57.9999992,29.4649927 57.9999992,29.4301051 L57.9999992,22.4827164 C58.0001976,22.3530773 57.9617216,22.2357281 57.9061893,22.1276955 Z M24.8041561,47.2198049 L24.8041561,41.9317574 L56.4119727,23.8500723 L56.4119727,28.9731966 L24.8041561,47.2198049 Z M3.58624156,34.9708894 L3.58624156,30.0624428 L23.2177162,41.9210533 L23.2177162,47.1674735 L3.58624156,34.9708894 Z M35.7577114,10.7091445 L55.6293634,22.4710212 L24.0215468,40.553301 L4.3571494,28.6752645 L35.7577114,10.7091445 Z M48.0946168,24.2368092 C48.0950135,24.236611 48.0954102,24.2364127 48.0956085,24.2362145 L50.9442191,22.6192934 C51.190148,22.4799413 51.3432586,22.2204648 51.3470269,21.9370031 C51.3490102,21.6543343 51.1998662,21.3920827 50.9577055,21.2477749 L36.3521057,12.6025894 C36.3392143,12.5950568 36.3237446,12.597832 36.3104565,12.5910923 C36.2059367,12.536184 36.0918971,12.4991159 35.966156,12.4959443 C35.9609994,12.4957461 35.9564378,12.492971 35.9512812,12.492971 C35.9498929,12.492971 35.948703,12.4921781 35.9473146,12.4921781 C35.9453314,12.4921781 35.9433481,12.4921781 35.9395798,12.4921781 C35.8108638,12.4931692 35.6940475,12.5322195 35.5869494,12.5877225 C35.5772313,12.5928763 35.5655298,12.5902994 35.55601,12.5956515 L8.89215809,27.7315154 C8.64821246,27.8698764 8.49510187,28.1283618 8.49133361,28.4100394 C8.48736701,28.690726 8.63274274,28.9539688 8.87391175,29.0992677 L23.3226327,37.8316722 C23.4485721,37.9091781 23.5909729,37.947832 23.7331753,37.947832 C23.8678412,37.947832 24.0033005,37.9129444 24.1254716,37.8433675 L48.0946168,24.2368092 Z M47.7171953,22.6282136 L36.7668133,16.1484376 L36.7539219,14.6833569 L48.9726228,21.9155948 L47.7171953,22.6282136 Z M35.1653003,14.6411349 L35.1783901,16.1337689 L12.2260816,29.2717234 L10.8532429,28.4419537 L35.1653003,14.6411349 Z M13.7790038,30.2105168 L35.9602061,17.5148023 L46.1269871,23.5307319 L23.7456701,36.2345736 L13.7790038,30.2105168 Z M23.1994699,29.6636141 C23.1994699,28.7258118 22.3250339,27.991983 21.2074456,27.991983 C20.0898573,27.991983 19.2144297,28.7256136 19.2144297,29.6636141 C19.2144297,30.6016147 20.0898573,31.3352453 21.2074456,31.3352453 C22.3250339,31.3352453 23.1994699,30.6014165 23.1994699,29.6636141 Z M20.8308174,29.692555 C20.8220908,29.692555 20.8153476,29.6935461 20.8086044,29.6965195 C20.9006294,29.6152472 21.406172,29.5686644 21.5600759,29.6636141 C21.4166835,29.751626 20.9498152,29.6915639 20.8308174,29.692555 Z M24.5028932,29.8241764 C23.3853049,29.8241764 22.5108689,30.5587981 22.5108689,31.4967986 C22.5108689,32.4347992 23.3853049,33.1684298 24.5028932,33.1684298 C25.6204815,33.1684298 26.4959091,32.4347992 26.4959091,31.4967986 C26.4959091,30.5587981 25.6204815,29.8241764 24.5028932,29.8241764 Z M24.1262649,31.5257395 C24.1185301,31.5257395 24.1107952,31.5267306 24.1050437,31.5287129 C24.1940937,31.4484318 24.6958681,31.4008578 24.8555235,31.4967986 C24.7081645,31.5848105 24.2462545,31.5257395 24.1262649,31.5257395 Z"/>
</svg>
