<svg xmlns="http://www.w3.org/2000/svg" width="60" height="60" viewBox="0 0 60 60">
  <path fill="#231F20" d="M55.0752319,24.7911916 L33.6993753,12.6168204 C32.2381618,11.7842433 29.9585516,11.7954059 28.4973381,12.6449194 L20.5948847,17.3613166 C19.2481881,16.9725497 18.1473032,17.3006921 17.3560239,17.7479665 L13.9895753,20.1931565 C13.9765043,20.202587 13.9706517,20.216829 13.9585562,20.2270293 C13.1044583,20.7728427 12.6255158,21.742643 12.6255158,23.0509784 C12.6255158,24.9405397 13.6988933,27.1330312 15.2738434,28.779132 L2.39370467,36.0334844 C2.01932967,36.2440344 1.88881541,36.7157511 2.10321777,37.0841174 C2.24699806,37.3321969 2.50997747,37.4730768 2.78154079,37.4730768 C2.91205505,37.4730768 3.04549565,37.439204 3.16742601,37.371651 L16.4939275,29.8644076 C16.7627595,30.0636025 17.0360786,30.2541368 17.3199325,30.4156098 L32.9116076,39.2962397 L20.3014714,46.5640643 C19.9290473,46.778271 19.8032152,47.2499878 20.0213242,47.6185465 C20.16608,47.8629693 20.4271085,48 20.6957455,48 C20.8291861,48 20.9643825,47.9661272 21.0882637,47.894725 L34.4691949,40.1834752 L41.2134074,44.0249544 C42.0973537,44.5286192 42.9719359,44.7842046 43.7606791,44.7842046 C44.3075124,44.7842046 44.8124016,44.6600686 45.2505706,44.4119892 C45.4835064,44.2788076 45.6901052,44.1148327 45.8691965,43.9241059 L49.0971323,41.6228751 C49.7106859,41.0403021 50.3679393,40.3016449 50.3679393,38.8374178 C50.3679393,38.7248293 50.3433582,38.6058898 50.3357497,38.4911843 L55.1060559,35.6837866 C56.7274371,34.7289981 58,32.5205325 58,30.6561834 L58,29.7878089 C57.9998049,27.9205729 56.7157318,25.725387 55.0752319,24.7911916 Z M54.674715,26.4330582 L45.9612783,31.6640905 C45.8639291,31.6030811 45.7722375,31.5282146 45.6733276,31.4718241 L37.5049684,26.8191308 L46.5285959,21.7008794 L54.2940972,26.1235844 C54.4271476,26.1996056 54.546932,26.3308626 54.674715,26.4330582 Z M29.2975915,13.966342 C30.2796674,13.3978185 31.9371401,13.3893503 32.9184357,13.9494056 L44.9671069,20.8115269 L35.9434793,25.9297783 L22.2872782,18.1511678 L29.2975915,13.966342 Z M18.2029035,19.0382108 C19.0603178,18.5609128 19.9776244,18.6144164 20.998718,19.1950648 L35.5560334,27.4865781 C35.5570088,27.4869631 35.5577892,27.4875404 35.5587646,27.4881178 L38.6138519,29.228331 L36.0669704,30.7626131 L18.1008722,20.530152 C17.6892352,20.2957371 17.2818903,20.1269507 16.8817636,20.0006977 L18.2029035,19.0382108 Z M41.9945421,42.6904445 L36.0217099,39.2887339 L37.7993571,38.2644677 C37.9047049,38.3504968 38.0057608,38.445764 38.1193024,38.5102377 C38.8604439,38.9323 39.4611217,38.681911 39.4611217,37.9507597 C39.4611217,37.2196085 38.8604439,36.2848357 38.1193024,35.8627734 C37.3781608,35.4407111 36.777483,35.6911001 36.777483,36.4222513 C36.777483,36.6073968 36.817086,36.805437 36.8867327,37.0052093 L34.4639275,38.4014984 L18.1010672,29.0828321 C18.0667317,29.0633937 18.0347371,29.0356796 18.0005966,29.0154715 L20.0127403,27.8818887 C20.1102846,27.9606044 20.2033419,28.0491354 20.3081044,28.1087977 C21.0240796,28.516618 21.6046632,28.2746972 21.6046632,27.5681807 C21.6046632,26.8616642 21.0242747,25.9584547 20.3081044,25.5506343 C19.5919342,25.1428139 19.0115457,25.3847347 19.0115457,26.0912513 C19.0115457,26.2590754 19.0488076,26.4384471 19.1083096,26.619166 L16.6743844,27.9900506 C15.2346306,26.5997276 14.1860295,24.6106651 14.1860295,22.9915086 C14.1860295,22.4718696 14.3003514,21.7876783 14.8452338,21.4766648 C15.0424684,21.3648462 15.2843782,21.309418 15.5586728,21.309418 C16.0645375,21.309418 16.6798469,21.4982202 17.3199325,21.8629298 L41.2136024,35.4732366 C43.3359712,36.6799538 45.1286402,39.442701 45.1286402,41.5045129 L45.1286402,41.5628279 C45.1286402,42.0834292 45.0143183,42.7676205 44.4694359,43.0776718 C43.9034839,43.4010027 42.9795443,43.2562736 41.9945421,42.6904445 Z M48.1006198,40.4427173 L46.6856423,41.4485074 C46.6573544,38.8272175 44.6093144,35.6283585 41.9947372,34.1389192 L37.605439,31.6388784 L40.1523205,30.1044038 L44.8923879,32.8044094 C47.0147567,34.0128587 48.8056699,36.7757983 48.8056699,38.8957328 C48.8054748,39.6382392 48.5616141,39.9935183 48.1006198,40.4427173 Z M56.4375355,30.6561834 C56.4375355,31.9839572 55.4620926,33.6802897 54.3056074,34.3606318 L50.0277049,36.8783789 C49.5370571,35.3608406 48.5391789,33.8421476 47.2781263,32.6764242 L55.718439,27.6093669 C56.1497798,28.30857 56.4375355,29.1015006 56.4375355,29.7880014 L56.4375355,30.6561834 L56.4375355,30.6561834 Z"/>
</svg>
