<svg xmlns="http://www.w3.org/2000/svg" width="60" height="60" viewBox="0 0 60 60">
  <path fill="#231F20" d="M45.9911282,26.7415142 C45.9919173,26.7268349 45.9996113,26.7143086 45.9996113,26.6996293 L45.9996113,26.630343 C45.9988222,26.6205568 46.000795,26.611162 45.9996113,26.6013758 L45.9996113,6.99433711 C45.9996113,6.86476785 45.9601548,6.74792065 45.903732,6.64027248 C45.8877521,6.60973954 45.8672347,6.58605694 45.8475064,6.55787269 C45.793451,6.48075745 45.7289396,6.41675572 45.6512102,6.36312735 C45.6328629,6.3504053 45.6243798,6.32809277 45.6046515,6.3169365 L38.2527171,2.10613132 C38.0061138,1.96462289 37.7094007,1.96462289 37.4627974,2.10613132 L15.3939734,14.746963 C15.3740479,14.758315 15.3655647,14.7808232 15.3468229,14.793741 C15.2698826,14.8469779 15.2059631,14.9105882 15.1524995,14.9869206 C15.1325739,15.0154963 15.111662,15.0395703 15.0954848,15.0704947 C15.0392592,15.1781429 15,15.2949901 15,15.4245593 L15,35.1288729 C15,35.1795654 15.0199255,35.2239947 15.0291978,35.2721428 C15.034919,35.3020886 15.0380755,35.3312514 15.0471505,35.3602186 C15.0690489,35.4289177 15.1010087,35.4892007 15.1400707,35.5483093 C15.1566424,35.5739491 15.171044,35.5993933 15.1909696,35.6232716 C15.2369364,35.67827 15.2907946,35.721525 15.3501767,35.7624313 C15.3693131,35.7757405 15.3809528,35.7955087 15.4016674,35.8072521 L17.5585584,37.0387472 L17.5585584,55.1827494 C17.5585584,56.0523509 18.1289025,57.0444756 18.8860732,57.4877904 L19.3542249,57.761021 C19.6278559,57.9197532 19.9099701,58 20.1806418,58 C20.4031766,58 20.617031,57.9465674 20.8095789,57.8375491 C21.2363012,57.5948514 21.4809316,57.126484 21.4809316,56.55497 L21.4809316,39.2784165 L22.6320758,39.9356575 C22.6401644,39.9401591 22.6498312,39.9382019 22.6579198,39.9425078 C22.7674117,40.0000507 22.8867677,40.0407613 23.0193416,40.0407613 C23.0207226,40.0407613 23.0219063,40.0399784 23.0232872,40.0399784 C23.0242736,40.0399784 23.0252601,40.0407613 23.0262465,40.0407613 C23.0337432,40.0407613 23.0404508,40.035281 23.0479476,40.0350853 C23.1643443,40.0307793 23.2712715,39.9996592 23.3695182,39.9503368 C23.3849063,39.9428993 23.4024644,39.9462266 23.4174579,39.9376147 L24.8546619,39.1243817 L24.8546619,50.7216133 C24.8546619,51.5912148 25.425006,52.5833395 26.1811903,53.0266543 L26.649342,53.2998849 C26.922973,53.4586171 27.2050871,53.5388639 27.4749698,53.5388639 C27.698491,53.5388639 27.9123453,53.4854312 28.1048932,53.376413 C28.5316155,53.1337153 28.776246,52.6653479 28.776246,52.0918767 L28.776246,36.9050678 L32.2065963,34.9638776 L32.2065963,46.7075106 C32.2065963,47.5790694 32.7779268,48.5692369 33.5311519,49.0088329 L34.0012764,49.285978 C34.2729346,49.4447102 34.5562324,49.524957 34.8259178,49.524957 C35.049439,49.524957 35.2632934,49.4715243 35.4558412,49.3625061 C35.88355,49.1198084 36.1281804,48.651441 36.1281804,48.0779698 L36.1281804,32.7447594 L39.5247954,30.8227501 L39.5902933,42.4489488 C39.5942389,43.3185503 40.1663586,44.3087178 40.9235293,44.7522283 L41.391681,45.025459 C41.6633391,45.1841911 41.946637,45.2644379 42.2163224,45.2644379 C42.4398436,45.2644379 42.6536979,45.2110053 42.8482186,45.1000298 C43.2739545,44.8573321 43.518585,44.3889647 43.5168094,43.8154935 L43.4832714,28.5826894 L45.609189,27.37977 C45.6502238,27.3564789 45.6764624,27.3198785 45.7115787,27.2907156 C45.7380146,27.2687945 45.7646477,27.2496136 45.7877298,27.2245609 C45.8382341,27.1705411 45.8757178,27.1116282 45.9084668,27.047235 C45.9206983,27.0235524 45.9339162,27.001827 45.9435831,26.9769701 C45.9727809,26.9010292 45.9863934,26.8235225 45.9911282,26.7415142 Z M42.4141968,27.3842717 C42.3632979,27.4034526 42.3210794,27.4337898 42.2757044,27.4625612 L25.4425641,36.9886419 C25.2993369,37.0271995 25.1703141,37.0941371 25.0716728,37.198458 L23.8082748,37.9136333 L23.8082748,20.0074358 L44.4199693,8.34326662 L44.4199693,26.2492684 L42.4141968,27.3842717 Z M18.9734694,36.0399679 L18.9734694,18.1459052 L22.2304083,20.0052828 L22.2304083,37.8997369 L18.9734694,36.0399679 Z M16.5778665,16.7783819 L17.3958002,17.2451836 L17.3958002,35.1388548 L16.5778665,34.6720532 L16.5778665,16.7783819 Z M23.0213144,18.6498944 L19.7730559,16.7958014 L40.3938254,5.14024408 L43.6243285,6.99061836 L23.0213144,18.6498944 Z M37.8579545,3.6877766 L38.8092514,4.2326721 L18.1857199,15.8899909 L17.3687725,15.4235807 L37.8579545,3.6877766 Z M19.8983304,56.2627542 L19.6874353,56.1384695 C19.4090695,55.9760186 19.1364249,55.5019752 19.1364249,55.1827494 L19.1364249,37.9396646 L19.9030652,38.3774991 L19.8983304,56.2627542 Z M27.192461,51.801618 L26.9833414,51.6773333 C26.7049757,51.5148824 26.4323311,51.040839 26.4323311,50.7216133 L26.4323311,38.231489 L27.1975904,37.7983519 L27.192461,51.801618 Z M34.5441982,47.7859496 L34.3323167,47.6616649 C34.0569101,47.499214 33.7852519,47.0271279 33.7852519,46.7079021 L33.7852519,34.0707892 L34.5479466,33.6392178 L34.5441982,47.7859496 Z M41.9308544,43.5254306 L41.724694,43.4031031 C41.4453418,43.2406522 41.169738,42.7646516 41.169738,42.4436643 L41.0991108,29.9320104 L41.9042212,29.476365 L41.9308544,43.5254306 Z M36.3339462,17.1199202 C35.6789679,16.7482405 34.7270792,16.8637176 33.7235025,17.4411033 C32.4924589,18.1464924 31.1832913,19.5923053 31.1832913,20.8844748 L31.1832913,24.4797282 C31.1832913,24.7598091 31.3336207,25.0177733 31.5772647,25.1573245 C31.69958,25.2279808 31.8362968,25.2624283 31.9722246,25.2624283 C32.1081523,25.2624283 32.2438827,25.2279808 32.3671844,25.1573245 L36.6596598,22.6984444 C36.9042903,22.5588933 37.0546197,22.3009291 37.0546197,22.0208481 L37.0546197,18.425399 C37.0546197,17.8576038 36.7906555,17.3817989 36.3339462,17.1199202 Z M35.4747804,21.56853 L32.7621442,23.1233611 L32.7621442,20.8842791 C32.7621442,20.4417472 33.4441503,19.4087162 34.5134221,18.7961002 C35.1088211,18.455932 35.4613651,18.455932 35.4747804,18.4291178 L35.4747804,21.56853 Z"/>
</svg>
