<?xml version="1.0" encoding="utf-8"?>
<!-- Generator: Adobe Illustrator 21.0.0, SVG Export Plug-In . SVG Version: 6.00 Build 0)  -->
<svg version="1.1" id="Layer_1" xmlns="http://www.w3.org/2000/svg" xmlns:xlink="http://www.w3.org/1999/xlink" x="0px" y="0px"
	 viewBox="0 0 30 30" style="enable-background:new 0 0 30 30;" xml:space="preserve">
<style type="text/css">
	.st0{fill:#231F20;}
</style>
<g>
	<path class="st0" d="M22.9849,13.3351c0.0004-0.0075,0.0043-0.0139,0.0043-0.0214v-0.0354c-0.0004-0.005,0.0006-0.0098,0-0.0148
		V3.2458c0-0.0662-0.02-0.1259-0.0486-0.1809c-0.0081-0.0156-0.0185-0.0277-0.0285-0.0421
		c-0.0274-0.0394-0.0601-0.0721-0.0995-0.0995c-0.0093-0.0065-0.0136-0.0179-0.0236-0.0236l-3.7266-2.1514
		c-0.125-0.0723-0.2754-0.0723-0.4004,0L7.4756,7.2068C7.4655,7.2126,7.4612,7.2241,7.4517,7.2307
		c-0.039,0.0272-0.0714,0.0597-0.0985,0.0987C7.3431,7.344,7.3325,7.3563,7.3243,7.3721C7.2958,7.4271,7.2759,7.4868,7.2759,7.553
		v10.0674c0,0.0259,0.0101,0.0486,0.0148,0.0732c0.0029,0.0153,0.0045,0.0302,0.0091,0.045
		c0.0111,0.0351,0.0273,0.0659,0.0471,0.0961c0.0084,0.0131,0.0157,0.0261,0.0258,0.0383c0.0233,0.0281,0.0506,0.0502,0.0807,0.0711
		c0.0097,0.0068,0.0156,0.0169,0.0261,0.0229l1.0933,0.6292v9.2702c0,0.4443,0.2891,0.9512,0.6729,1.1777l0.2373,0.1396
		c0.1387,0.0811,0.2817,0.1221,0.4189,0.1221c0.1128,0,0.2212-0.0273,0.3188-0.083c0.2163-0.124,0.3403-0.3633,0.3403-0.6553v-8.827
		l0.5835,0.3358c0.0041,0.0023,0.009,0.0013,0.0131,0.0035c0.0555,0.0294,0.116,0.0502,0.1832,0.0502
		c0.0007,0,0.0013-0.0004,0.002-0.0004c0.0005,0,0.001,0.0004,0.0015,0.0004c0.0038,0,0.0072-0.0028,0.011-0.0029
		c0.059-0.0022,0.1132-0.0181,0.163-0.0433c0.0078-0.0038,0.0167-0.0021,0.0243-0.0065l0.7285-0.4155v5.9253
		c0,0.4443,0.2891,0.9512,0.6724,1.1777l0.2373,0.1396c0.1387,0.0811,0.2817,0.1221,0.4185,0.1221
		c0.1133,0,0.2217-0.0273,0.3193-0.083c0.2163-0.124,0.3403-0.3633,0.3403-0.6563v-7.7593l1.7388-0.9918v6.0001
		c0,0.4453,0.2896,0.9512,0.6714,1.1758l0.2383,0.1416c0.1377,0.0811,0.2813,0.1221,0.418,0.1221
		c0.1133,0,0.2217-0.0273,0.3193-0.083c0.2168-0.124,0.3408-0.3633,0.3408-0.6563v-7.8341l1.7217-0.982l0.0332,5.9401
		c0.002,0.4443,0.292,0.9502,0.6758,1.1768l0.2373,0.1396c0.1377,0.0811,0.2813,0.1221,0.418,0.1221
		c0.1133,0,0.2217-0.0273,0.3203-0.084c0.2158-0.124,0.3398-0.3633,0.3389-0.6563l-0.017-7.7828l1.0776-0.6146
		c0.0208-0.0119,0.0341-0.0306,0.0519-0.0455c0.0134-0.0112,0.0269-0.021,0.0386-0.0338c0.0256-0.0276,0.0446-0.0577,0.0612-0.0906
		c0.0062-0.0121,0.0129-0.0232,0.0178-0.0359C22.9756,13.4166,22.9825,13.377,22.9849,13.3351z M21.1718,13.6635
		c-0.0258,0.0098-0.0472,0.0253-0.0702,0.04l-8.5325,4.8671c-0.0726,0.0197-0.138,0.0539-0.188,0.1072l-0.6404,0.3654V9.8945
		L22.1885,3.935v9.1486L21.1718,13.6635z M9.29,18.0859V8.9434l1.6509,0.95v9.1427L9.29,18.0859z M8.0757,8.2447l0.4146,0.2385
		v9.1423L8.0757,17.387V8.2447z M11.3418,9.2009L9.6953,8.2536l10.4524-5.9551l1.6375,0.9454L11.3418,9.2009z M18.8623,1.5564
		l0.4822,0.2784L8.8907,7.7908L8.4766,7.5525L18.8623,1.5564z M9.7588,28.4182l-0.1069-0.0635
		c-0.1411-0.083-0.2793-0.3252-0.2793-0.4883v-8.8099l0.3886,0.2237L9.7588,28.4182z M13.4561,26.1389l-0.106-0.0635
		c-0.1411-0.083-0.2793-0.3252-0.2793-0.4883v-6.3815l0.3879-0.2213L13.4561,26.1389z M17.1826,24.0872l-0.1074-0.0635
		c-0.1396-0.083-0.2773-0.3242-0.2773-0.4873v-6.4566l0.3866-0.2205L17.1826,24.0872z M20.9268,21.9104l-0.1045-0.0625
		c-0.1416-0.083-0.2813-0.3262-0.2813-0.4902l-0.0358-6.3925l0.4081-0.2328L20.9268,21.9104z"/>
	<path class="st0" d="M18.0898,8.4192c-0.332-0.1899-0.8145-0.1309-1.3232,0.1641c-0.624,0.3604-1.2876,1.0991-1.2876,1.7593v1.8369
		c0,0.1431,0.0762,0.2749,0.1997,0.3462c0.062,0.0361,0.1313,0.0537,0.2002,0.0537s0.1377-0.0176,0.2002-0.0537l2.1758-1.2563
		c0.124-0.0713,0.2002-0.2031,0.2002-0.3462V9.0862C18.4551,8.7961,18.3213,8.553,18.0898,8.4192z M17.6543,10.6921l-1.375,0.7944
		v-1.144c0-0.2261,0.3457-0.7539,0.8877-1.0669c0.3018-0.1738,0.4805-0.1738,0.4873-0.1875V10.6921z"/>
</g>
</svg>
