<svg xmlns="http://www.w3.org/2000/svg" width="60" height="60" viewBox="0 0 60 60">
  <path fill="#231F20" d="M57.9065932,21.7667183 C57.8911221,21.7359666 57.8702361,21.7123709 57.8507038,21.6839401 C57.7996491,21.6098652 57.7391184,21.5479749 57.6660174,21.495755 C57.6474521,21.4824099 57.638943,21.4595879 57.6190239,21.4477901 L38.4746868,10.1077547 C38.2290829,9.96424667 37.9326178,9.9652137 37.6928156,10.1038866 L2.38523062,30.5789236 C2.36511817,30.590528 2.35641568,30.61335 2.33765696,30.6266951 C2.26320224,30.678915 2.2015112,30.7411921 2.14968298,30.8158472 C2.12957054,30.8448583 2.10849115,30.8690341 2.09263327,30.9005595 C2.03829099,31.0063531 2,31.1214303 2,31.2484988 L2,37.2839591 C2,37.3164514 2.01469755,37.3441086 2.01856533,37.375634 C2.02514055,37.4294012 2.03268272,37.480654 2.05008772,37.5317135 C2.0659456,37.5781312 2.08779854,37.6185532 2.11177876,37.6605226 C2.13653254,37.7042326 2.16167309,37.7454283 2.19493597,37.7839163 C2.23013275,37.8247252 2.27055102,37.8570241 2.31348335,37.8897099 C2.33823712,37.9084704 2.3542884,37.9345804 2.38174962,37.9506331 L4.69990192,39.3124122 L4.69990192,41.3938588 C4.69990192,41.8207082 5.04645477,42.1682606 5.47326399,42.1682606 C5.90007321,42.1682606 6.24662606,41.8207082 6.24662606,41.3938588 L6.24662606,40.2210385 L22.0010498,49.4757591 C22.0124598,49.4825283 22.0263838,49.4798206 22.0381805,49.4858162 C22.1458981,49.5428713 22.2628983,49.5832934 22.3930491,49.5832934 C22.5231998,49.5832934 22.6402,49.5428713 22.7479176,49.4858162 C22.7595209,49.4796272 22.7734449,49.4823349 22.7850483,49.4757591 L26.0805879,47.5374336 L26.0805879,50.2255982 C26.0805879,50.6524475 26.4271407,51 26.85395,51 C27.2807592,51 27.627312,50.6524475 27.627312,50.2255982 L27.627312,46.6278403 L30.1052035,45.1705182 L30.1052035,47.847852 C30.1052035,48.2747013 30.4517564,48.6222538 30.8785656,48.6222538 C31.3053748,48.6222538 31.6519277,48.2747013 31.6519277,47.847852 L31.6519277,44.2609249 L34.1298192,42.8036028 L34.1298192,45.4718464 C34.1298192,45.8986957 34.477339,46.2462482 34.9041482,46.2462482 C35.3309574,46.2462482 35.6784772,45.8986957 35.6784772,45.4718464 L35.6784772,41.8926556 L38.1544348,40.4364939 L38.1544348,43.0939067 C38.1544348,43.5207561 38.5019546,43.8683086 38.9287638,43.8683086 C39.3555731,43.8683086 39.7030928,43.5207561 39.7030928,43.0939067 L39.7030928,39.5255467 L42.1790505,38.0693851 L42.1790505,40.7179012 C42.1790505,41.1447505 42.5265702,41.492303 42.9533795,41.492303 C43.3801887,41.492303 43.7277085,41.1447505 43.7277085,40.7179012 L43.7277085,37.1586313 L46.2036661,35.7024696 L46.2036661,38.3401549 C46.2036661,38.7670043 46.5511859,39.1145568 46.9779951,39.1145568 C47.4048043,39.1145568 47.7523241,38.7670043 47.7523241,38.3401549 L47.7523241,34.7917159 L50.2282817,33.3355542 L50.2282817,35.9641494 C50.2282817,36.3909987 50.5758015,36.7385512 51.0026107,36.7385512 C51.42942,36.7385512 51.7769398,36.3909987 51.7769398,35.9641494 L51.7769398,32.424607 L54.2548313,30.9672849 L54.2548313,33.5871768 C54.2548313,34.0149932 54.6023511,34.3606115 55.0291603,34.3606115 C55.4559695,34.3606115 55.8034893,34.0149932 55.8034893,33.5871768 L55.8034893,30.0565311 L57.6184438,28.9891176 C57.6474521,28.9720978 57.6642769,28.9448274 57.690191,28.9249065 C57.7315763,28.8931877 57.7700606,28.8620492 57.8040971,28.8227876 C57.8377467,28.7839128 57.8630807,28.7427171 57.8880278,28.6986203 C57.9122015,28.6564575 57.933861,28.6154552 57.9499123,28.5688441 C57.9671239,28.5183649 57.9744727,28.4682725 57.9810479,28.4154723 C57.9851091,28.3835602 58,28.3555162 58,28.3224435 L58,22.1140773 C57.9986463,21.9870089 57.9607421,21.8723185 57.9065932,21.7667183 Z M56.4499883,27.8795414 L23.1660243,47.4569763 L23.1660243,42.89257 L56.4499883,23.4605772 L56.4499883,27.8795414 Z M3.54672413,36.8412503 L3.54672413,32.5802997 L21.6193002,42.8975986 L21.6193002,47.4577499 L3.54672413,36.8412503 Z M14.2637548,36.9166791 L11.390383,35.2763939 C11.6887821,35.2028992 12.0096142,35.1574486 12.3426298,35.1574486 C13.6741121,35.1574486 14.6692912,35.7732566 14.6692912,36.322726 C14.6694846,36.5192276 14.5064578,36.7263665 14.2637548,36.9166791 Z M38.0763057,11.670677 L55.6984791,22.1088554 L22.3880209,41.5543867 L15.659829,37.7135161 C16.0083157,37.2982712 16.2162087,36.8230701 16.2162087,36.3225326 C16.2162087,34.8002258 14.5145801,33.6094186 12.3428232,33.6094186 C11.3526722,33.6094186 10.4311743,33.8683906 9.7206636,34.3230906 L4.32492092,31.24289 L38.0763057,11.670677 Z M10.2190267,30.4957585 L23.3425884,38.0751873 C23.4624895,38.1432666 23.5965079,38.1790469 23.7297529,38.1790469 C23.8629978,38.1790469 23.9950824,38.1450072 24.1140165,38.0751873 L30.5917699,34.3646731 C30.6552015,34.3393368 30.7089636,34.3078114 30.7642728,34.2660355 L51.6699957,22.2910448 C51.907864,22.1541126 52.0571602,21.9001692 52.0590941,21.6253377 C52.061028,21.3495393 51.9155996,21.0946288 51.6794718,20.9538285 L38.6371334,13.2289576 C38.3934635,13.0854496 38.0969983,13.0844826 37.8552622,13.2243158 L23.5326896,21.4810561 C23.3746909,21.5112276 23.2356443,21.5955531 23.1221251,21.7177863 L10.2199936,29.1558345 C9.98019145,29.2937337 9.83282914,29.5496113 9.83282914,29.8263767 C9.83282914,30.1019818 9.97999807,30.3578593 10.2190267,30.4957585 Z M23.7316868,36.5114913 L17.4508033,32.8853026 L22.7836946,29.7619722 C23.0215629,29.6231059 23.1669913,29.3672284 23.1662177,29.092397 C23.1652508,28.8165986 23.0188554,28.5626551 22.7800202,28.4247559 L21.7573799,27.8325435 L26.6965314,24.9349191 L31.7047228,27.8265479 L26.3550067,30.9413684 C26.1161715,31.0802346 25.9697761,31.3361121 25.970743,31.6119106 C25.970743,31.887709 26.1190723,32.1426195 26.3579075,32.2805188 L28.7304021,33.6479066 L23.7316868,36.5114913 Z M32.3790698,18.1678 L35.060213,19.7148629 C35.181081,19.7837158 35.313359,19.8177555 35.4473775,19.8177555 C35.581396,19.8177555 35.713674,19.7837158 35.834542,19.7138959 L41.26026,16.5816688 L46.1383007,19.4705898 L44.1442681,20.6602366 L42.3614162,19.6318913 C42.121614,19.492058 41.832691,19.493025 41.5926954,19.6280232 L35.0205683,23.3441462 C34.7807661,23.4801113 34.6314699,23.7342482 34.6277955,24.0098532 C34.6258616,24.2866187 34.77129,24.5434633 35.0093517,24.6831031 L36.0480433,25.2979441 L33.2450651,26.9299128 L27.0912381,23.376832 C27.0908513,23.3766385 27.0908513,23.3764451 27.0904645,23.3760583 L25.253077,22.2755722 L32.3790698,18.1678 Z M30.284475,32.7576539 L28.2867681,31.6063018 L33.2483527,28.7181544 L35.2841573,29.893489 L30.284475,32.7576539 Z M36.8370699,29.00401 L34.788695,27.8213259 L37.9666542,25.9713875 C38.2045225,25.8334883 38.349951,25.5795448 38.3518849,25.3056804 C38.3518849,25.030849 38.2064564,24.7769056 37.9703286,24.6370723 L36.9469148,24.0324818 L41.9705773,21.1917191 L43.7629053,22.2268337 C44.0085091,22.3693746 44.3049742,22.3666669 44.5467103,22.2221919 L47.6548561,20.3687722 L49.7477104,21.6083179 L36.8370699,29.00401 Z M38.2368185,14.7909129 L39.7330681,15.677104 L35.4473775,18.1509736 L33.9286948,17.2744528 L38.2368185,14.7909129 Z M23.7181495,23.1606029 L25.1753346,24.0334489 L19.8289061,27.1697375 C19.5910378,27.3095708 19.4456094,27.5644813 19.4463829,27.8393127 C19.4473499,28.1151112 19.5937453,28.3690546 19.8325805,28.5069539 L20.8542539,29.0981992 L15.9087205,31.99505 L12.1536889,29.8273438 L23.7181495,23.1606029 Z"/>
</svg>
