<?xml version="1.0" encoding="utf-8"?>
<!-- Generator: Adobe Illustrator 22.0.1, SVG Export Plug-In . SVG Version: 6.00 Build 0)  -->
<svg version="1.1" id="Layer_1" xmlns="http://www.w3.org/2000/svg" xmlns:xlink="http://www.w3.org/1999/xlink" x="0px" y="0px"
	 viewBox="0 0 60 60" style="enable-background:new 0 0 60 60;" xml:space="preserve">
<g>
	<path d="M8.8,27.6c1.6,0,2.9-1.1,3.3-2.5H24c0.4,1.4,1.8,2.5,3.3,2.5c1.9,0,3.5-1.6,3.5-3.5s-1.6-3.5-3.5-3.5
		c-1.6,0-2.9,1.1-3.3,2.5H12.1c-0.3-1.1-1.2-2-2.3-2.3v-11h6.8c0.4,1.5,1.7,2.7,3.4,2.7c1.9,0,3.5-1.6,3.5-3.5S22,5.4,20,5.4
		c-1.5,0-2.8,1-3.3,2.3H8.8c-0.6,0-1,0.4-1,1v12c-1.4,0.4-2.5,1.8-2.5,3.3C5.3,26,6.9,27.6,8.8,27.6z M20,7.4c0.8,0,1.5,0.7,1.5,1.5
		s-0.7,1.5-1.5,1.5s-1.5-0.7-1.5-1.5S19.2,7.4,20,7.4z M27.4,22.6c0.8,0,1.5,0.7,1.5,1.5s-0.7,1.5-1.5,1.5s-1.5-0.7-1.5-1.5
		S26.5,22.6,27.4,22.6z M8.8,22.6c0.8,0,1.5,0.7,1.5,1.5s-0.7,1.5-1.5,1.5s-1.5-0.7-1.5-1.5S8,22.6,8.8,22.6z"/>
	<path d="M52.2,20.6C52.2,20.6,52.2,20.6,52.2,20.6l0-8.4c1.4-0.4,2.5-1.8,2.5-3.3c0-1.9-1.6-3.5-3.5-3.5c-1.6,0-2.9,1.1-3.3,2.5H40
		c-0.4-1.4-1.8-2.5-3.3-2.5c-1.9,0-3.5,1.6-3.5,3.5s1.6,3.5,3.5,3.5c1.6,0,2.9-1.1,3.3-2.5h7.9c0.3,1.1,1.2,2,2.3,2.3v8.3
		c-1.5,0.4-2.7,1.7-2.7,3.4c0,1.9,1.6,3.5,3.5,3.5s3.5-1.6,3.5-3.5C54.5,22.4,53.5,21.1,52.2,20.6z M36.6,10.4
		c-0.8,0-1.5-0.7-1.5-1.5s0.7-1.5,1.5-1.5s1.5,0.7,1.5,1.5S37.5,10.4,36.6,10.4z M49.7,8.9c0-0.8,0.7-1.5,1.5-1.5s1.5,0.7,1.5,1.5
		s-0.7,1.5-1.5,1.5S49.7,9.7,49.7,8.9z M51,25.4c-0.8,0-1.5-0.7-1.5-1.5s0.7-1.5,1.5-1.5s1.5,0.7,1.5,1.5S51.9,25.4,51,25.4z"/>
	<path d="M51.9,39.4c1.4-0.4,2.5-1.8,2.5-3.3c0-1.9-1.6-3.5-3.5-3.5s-3.5,1.6-3.5,3.5c0,1.6,1.1,2.9,2.5,3.3v8.3
		c-1.2,0.3-2.1,1.2-2.5,2.4H28.7V39.7c1.4-0.4,2.5-1.8,2.5-3.3c0-1.9-1.6-3.5-3.5-3.5c-1.7,0-3.1,1.2-3.4,2.8H12.4
		c-0.3-1.6-1.7-2.8-3.4-2.8c-1.9,0-3.5,1.6-3.5,3.5s1.6,3.5,3.5,3.5c1.5,0,2.8-0.9,3.3-2.3h12.2c0.4,1,1.2,1.8,2.3,2.1v11.4
		c0,0.6,0.4,1,1,1h19.7c0.4,1.4,1.8,2.5,3.3,2.5c1.9,0,3.5-1.6,3.5-3.5c0-1.5-1-2.8-2.3-3.3c0,0,0,0,0,0V39.4z M8.9,37.8
		c-0.8,0-1.5-0.7-1.5-1.5s0.7-1.5,1.5-1.5s1.5,0.7,1.5,1.5S9.8,37.8,8.9,37.8z M26.2,36.3c0-0.8,0.7-1.5,1.5-1.5
		c0.8,0,1.5,0.7,1.5,1.5s-0.7,1.5-1.5,1.5C26.9,37.8,26.2,37.2,26.2,36.3z M49.4,36.1c0-0.8,0.7-1.5,1.5-1.5s1.5,0.7,1.5,1.5
		s-0.7,1.5-1.5,1.5S49.4,36.9,49.4,36.1z M50.7,52.6c-0.8,0-1.5-0.7-1.5-1.5s0.7-1.5,1.5-1.5s1.5,0.7,1.5,1.5S51.5,52.6,50.7,52.6z"
		/>
	<path d="M20,50.1h-7.7c-0.4-1.4-1.8-2.5-3.3-2.5c-1.9,0-3.5,1.6-3.5,3.5s1.6,3.5,3.5,3.5c1.6,0,2.9-1.1,3.3-2.5H20c0.6,0,1-0.4,1-1
		S20.6,50.1,20,50.1z M8.9,52.6c-0.8,0-1.5-0.7-1.5-1.5s0.7-1.5,1.5-1.5s1.5,0.7,1.5,1.5S9.8,52.6,8.9,52.6z"/>
</g>
</svg>
