<svg xmlns="http://www.w3.org/2000/svg" width="60" height="60" viewBox="0 0 60 60">
  <path fill="#231F20" d="M37.5998675,20.6148254 L43.4460156,23.9525631 C44.017978,24.2757997 44.6143281,24.4354279 45.1518977,24.4354279 C45.768675,24.4354279 46.3060362,24.2246852 46.6399589,23.8094843 C46.9046791,23.4770303 47.0043139,23.052612 46.9188531,22.6147866 C46.7927462,21.9672659 46.283733,21.3494922 45.522506,20.9208842 L39.6763579,17.5841939 C38.4488481,16.8916338 37.1075295,16.9519657 36.484499,17.7243399 C36.484499,17.7253874 36.4824146,17.7253874 36.4824146,17.7264348 C36.2176944,18.0588888 36.1201439,18.4822597 36.2035204,18.9190376 C36.3296273,19.5663488 36.838432,20.18517 37.5998675,20.6148254 Z M37.9560933,18.7797295 C38.1657851,18.7797295 38.495539,18.839014 38.8578096,19.0426342 L44.7039577,22.3793245 C44.9319923,22.5081583 45.0845712,22.6472569 45.1742009,22.756818 C45.0255824,22.7905452 44.6287105,22.6996284 44.2643554,22.4939133 L38.4202917,19.1561756 C38.1922571,19.0273418 38.0396782,18.8892906 37.9479641,18.7797295 C37.9498401,18.7797295 37.9540089,18.7797295 37.9560933,18.7797295 Z M56.5061024,31.9842498 C56.4915116,31.9756609 56.482757,31.9614158 56.4673324,31.9536648 L55.3029803,31.359563 L55.3029803,25.3337032 L55.3029803,22.0410049 C55.3029803,21.7433255 55.1462326,21.4693181 54.88985,21.3189073 L35.4727258,9.86464112 L35.6273891,7.286918 C35.645732,6.96975645 35.4848154,6.67019172 35.2121744,6.51161095 L29.3558127,3.11333183 C29.0973457,2.96187358 28.7786392,2.96292101 28.5222566,3.1122844 L14.4076662,11.2983621 C14.4066239,11.2994096 14.4066239,11.2994096 14.4066239,11.2994096 L11.64332,12.9034426 C11.6224759,12.9155927 11.6135129,12.9394741 11.5939195,12.9533002 C11.5120021,13.0106993 11.4438419,13.0796201 11.3869374,13.1621575 C11.3658849,13.192952 11.3435817,13.2187187 11.3266979,13.252027 C11.268126,13.3666157 11.2270631,13.4910503 11.2270631,13.628473 L11.2270631,23.3835996 C11.2270631,23.4187932 11.2429046,23.4489592 11.2470734,23.4831054 C11.2543689,23.5430183 11.2622896,23.5999984 11.2820915,23.6567691 C11.2991837,23.7062078 11.3235713,23.7491524 11.3492096,23.7937728 C11.3765154,23.8417451 11.4034043,23.8872035 11.4400899,23.9293102 C11.4771924,23.9720453 11.5203398,24.0049346 11.565363,24.0394997 C11.5943363,24.0617052 11.6139298,24.0920807 11.6462382,24.1107249 L16.9967133,27.1876528 C17.1119813,27.2542692 17.2412148,27.2911387 17.3725327,27.2972138 L22.9183171,27.5540435 L42.5401305,39.1034162 C42.6683218,39.1790406 42.8129799,39.2200998 42.96139,39.2200998 L48.634532,39.2200998 C48.6589196,39.2200998 48.6795552,39.2035504 48.7037344,39.2014555 C48.735209,39.2052263 48.7629317,39.2200998 48.7952401,39.2200998 C49.0676726,39.2200998 49.2986254,39.0795348 49.4509958,38.8757051 L54.1059029,36.1739663 C54.1117393,36.1706146 54.1146575,36.1645395 54.1204938,36.1609782 L54.9792712,36.6402818 C55.0180413,36.6618588 55.061397,36.6574596 55.1016262,36.6723331 C55.3661379,36.8271432 55.6546205,36.9287438 55.9706172,36.9287438 C57.1084973,36.9287438 57.9999999,35.8138602 57.9999999,34.389985 C58.0002084,33.2059711 57.3688402,32.276692 56.5061024,31.9842498 Z M52.296634,33.2258723 C52.2899639,33.2221015 52.28246,33.22273 52.2757899,33.2191687 C52.2689113,33.2156075 52.264951,33.2089039 52.2580724,33.2053427 C51.6310815,32.8973985 51.5314466,32.7082328 51.5314466,32.2572098 C51.5314466,31.7856572 51.7127904,31.5407683 51.8265993,31.4628395 L54.4214828,32.7869995 C54.1705197,33.1674257 54.0131466,33.6347886 53.9752103,34.1626929 L52.296634,33.2258723 Z M28.9385136,4.80618681 L33.9317206,7.70295685 L33.7770573,10.2764903 C33.7587145,10.5905095 33.9175466,10.8892363 34.1883116,11.0488645 L53.6339922,22.520518 L53.6339922,24.8495814 L48.5715827,27.7882486 L43.3463807,27.7882486 L23.7429102,16.2480933 C23.7291531,16.2401328 23.7122693,16.2420182 23.6980953,16.2348957 C23.6165949,16.1925795 23.5275905,16.1695361 23.4331667,16.1563385 C23.4079453,16.1527772 23.3858506,16.1358089 23.3602123,16.1347615 L17.8052564,15.8779318 L13.7523273,13.614228 L28.9385136,4.80618681 Z M12.8941752,15.0525577 L16.7374126,17.1985305 L16.7374126,25.1078774 L12.8941752,22.8975925 L12.8941752,15.0525577 L12.8941752,15.0525577 Z M18.4045246,17.582518 L22.4878862,17.7716837 L22.4878862,25.8569988 L18.4045246,25.668252 L18.4045246,17.582518 Z M24.1549983,18.43324 L36.5453638,25.7269081 L36.5453638,26.9444397 L35.0470891,26.0136942 C34.7886221,25.8561608 34.4690818,25.8469434 34.2043616,25.9952594 C33.9396414,26.142528 33.7747645,26.42282 33.7747645,26.7265744 L33.7747645,29.896514 C33.7747645,30.1881183 33.9254674,30.4581455 34.1716363,30.6104417 L36.7548472,32.2071427 L36.7548472,33.7560809 L24.1547898,26.3394446 L24.1547898,18.43324 L24.1549983,18.43324 Z M38.0273802,31.0245952 L35.4441694,29.4278942 L35.4441694,28.2290068 L36.9424442,29.1597523 C37.2009112,29.320428 37.5225358,29.3275505 37.7851716,29.1781871 C38.0496834,29.031128 38.2145603,28.750836 38.2145603,28.4470816 L38.2145603,26.7096061 L42.2856239,29.106124 L42.2856239,37.0119097 L38.4242521,34.7389884 L38.4242521,31.7389419 C38.4242521,31.4471281 38.2735492,31.1771009 38.0273802,31.0245952 Z M43.9548203,29.4637163 L47.9608502,29.4637163 L47.9608502,37.5423278 L43.9548203,37.5423278 L43.9548203,29.4637163 Z M49.6300467,36.8348941 L49.6300467,29.1090568 L53.6339922,26.7852305 L53.6339922,30.5075842 L52.2680776,29.8106248 C52.2599484,29.8064351 52.250777,29.807273 52.2424393,29.8032928 C52.1934556,29.7802494 52.1396778,29.7722889 52.0861085,29.7590913 C52.0298294,29.7450557 51.9756347,29.7268305 51.9185218,29.7251546 C51.9089335,29.7247356 51.9010128,29.719708 51.891216,29.719708 C51.8653693,29.719708 51.8443168,29.7364668 51.8186785,29.7375143 C51.7294657,29.7458937 51.6446302,29.7643284 51.5625044,29.8005695 C50.59367,29.9991621 49.8618333,30.9812316 49.8618333,32.2574193 C49.8618333,33.673753 50.6720439,34.2818903 51.4795448,34.6851506 C51.4822545,34.686617 51.4837136,34.6893403 51.4862149,34.6908067 L52.4231578,35.2136833 L49.6300467,36.8348941 Z M55.6083465,34.389985 C55.6083465,33.8335907 55.881196,33.5287888 55.9706172,33.5287888 C56.0600384,33.5287888 56.3310119,33.8335907 56.3310119,34.389985 C56.3310119,35.5027737 55.6083465,35.5027737 55.6083465,34.389985 Z M32.0203155,17.6954309 C32.1505912,17.7710553 32.2950409,17.8089722 32.4396991,17.8089722 C32.5964468,17.8089722 32.7531945,17.7649802 32.8915994,17.6759487 L34.680858,16.519168 C34.9230666,16.3616346 35.0675163,16.0884651 35.0635559,15.7970703 C35.0575111,15.5065135 34.9007634,15.2396285 34.6504256,15.0913125 L29.9757166,12.3336411 C29.7130808,12.17925 29.3874957,12.1802975 29.1298625,12.3346885 L27.2336736,13.4587895 C26.9781248,13.6102477 26.8224193,13.8863501 26.8234615,14.1840294 C26.8245037,14.4817088 26.9822936,14.7557162 27.2386762,14.9050796 L32.0203155,17.6954309 Z M29.5542486,14.0285909 L32.6370928,15.8473469 L32.4173959,15.9893783 L29.3080797,14.174812 L29.5542486,14.0285909 Z M44.982852,52.5974458 C44.9111482,52.4839045 44.8213101,52.381047 44.6958285,52.3108692 L40.5837021,49.9991931 C40.598293,49.8282527 40.6308098,49.6629683 40.6308098,49.4878382 C40.6308098,47.1878933 39.3578599,45.2124419 37.5333747,44.2762497 C37.518367,44.2659849 37.5098209,44.2498545 37.4939794,44.2404277 L9.9978858,27.878956 C9.99350854,27.8762327 9.99121569,27.871624 9.98662998,27.8691102 C9.20497578,27.4241623 8.32160231,27.1899571 7.43197561,27.1899571 C4.4366767,27.1899571 2,29.7900952 2,32.985592 C2,34.9690039 2.93527531,36.7938349 4.50171033,37.8657739 C4.51025642,37.871849 4.52088691,37.8689162 4.52964144,37.8745723 C4.53839597,37.8800189 4.54277323,37.8892363 4.5517362,37.8944735 L32.020524,54.1673326 C32.9161955,54.8615687 34.0084269,55.2834731 35.1982089,55.2834731 C36.4280115,55.2834731 37.5811078,54.8278414 38.532433,54.0301194 L42.9964081,56.711538 C43.0353866,56.7345815 43.0797845,56.7295538 43.1204305,56.7458937 C43.3759794,56.8979804 43.6544567,57 43.961282,57 C45.0462181,57 45.8970747,55.9444009 45.8970747,54.5961501 C45.8966578,53.7297167 45.5231313,53.0189313 44.982852,52.5974458 Z M43.9710788,55.3243229 C43.8958315,55.299813 43.6963534,55.0358609 43.6963534,54.5959406 C43.6963534,54.1581152 43.8958315,53.8941631 43.95086,53.8696533 C44.0281916,53.8941631 44.2276698,54.1560204 44.2276698,54.5959406 C44.2276698,55.0377462 44.0281916,55.2996035 43.9710788,55.3243229 Z M42.0880217,54.212791 L35.5988327,50.31824 C35.0452131,50.0461179 34.9678814,49.9009442 34.9678814,49.5060635 C34.9678814,49.3219254 35.0614715,49.1256372 35.1877868,49.0498033 C35.2834613,48.9926137 35.4179058,49.0150287 35.5867431,49.1111827 L42.5240805,53.0086665 C42.2891674,53.3379782 42.1478443,53.7527602 42.0880217,54.212791 Z M7.43176717,28.8654248 C8.03728862,28.8654248 8.61550429,29.0202348 9.15015577,29.3221039 L33.7138996,43.9377206 C31.4418914,44.6321662 29.7649826,46.844546 29.7649826,49.4878382 C29.7649826,50.0188848 29.8541954,50.5237456 29.9800938,51.012895 L5.41343179,36.4590766 C4.32078344,35.6952912 3.66711208,34.4017162 3.66711208,32.985592 C3.66711208,30.7137182 5.35548516,28.8654248 7.43176717,28.8654248 Z M35.197792,53.6057011 C34.7448494,53.6057011 34.316086,53.503891 33.9135862,53.3427964 L32.9516305,52.7729949 C32.0349064,52.0211503 31.4323031,50.8344131 31.4323031,49.4876287 C31.4323031,47.2147075 33.1217184,45.3674614 35.1980004,45.3674614 C37.1421308,45.3674614 38.7264917,46.9932809 38.9226348,49.0653053 L36.3988297,47.6464577 C35.7107656,47.2597469 34.9576678,47.243407 34.3429749,47.605608 C33.7099393,47.9799592 33.2986849,48.7267762 33.2986849,49.5060635 C33.2986849,50.8767292 34.1372436,51.4658034 34.8050889,51.7911349 L36.9778792,53.0962316 C36.4344732,53.4180018 35.8312445,53.6057011 35.197792,53.6057011 Z"/>
</svg>
