<?xml version="1.0" encoding="utf-8"?>
<!-- Generator: Adobe Illustrator 21.0.0, SVG Export Plug-In . SVG Version: 6.00 Build 0)  -->
<svg version="1.1" id="Layer_1" xmlns="http://www.w3.org/2000/svg" xmlns:xlink="http://www.w3.org/1999/xlink" x="0px" y="0px"
	 viewBox="0 0 30 30" style="enable-background:new 0 0 30 30;" xml:space="preserve">
<style type="text/css">
	.st0{fill:#231F20;}
</style>
<g>
	<path class="st0" d="M18.7051,9.854l2.8047,1.5933c0.2744,0.1543,0.5605,0.2305,0.8184,0.2305
		c0.2959,0,0.5537-0.1006,0.7139-0.2988c0.127-0.1587,0.1748-0.3613,0.1338-0.5703c-0.0605-0.3091-0.3047-0.604-0.6699-0.8086
		l-2.8047-1.5928c-0.5889-0.3306-1.2324-0.3018-1.5313,0.0669c0,0.0005-0.001,0.0005-0.001,0.001
		c-0.127,0.1587-0.1738,0.3608-0.1338,0.5693C18.0957,9.3535,18.3398,9.6489,18.7051,9.854z M18.876,8.978
		c0.1006,0,0.2588,0.0283,0.4326,0.1255l2.8047,1.5928c0.1094,0.0615,0.1826,0.1279,0.2256,0.1802
		c-0.0713,0.0161-0.2617-0.0273-0.4365-0.1255l-2.8037-1.5933c-0.1094-0.0615-0.1826-0.1274-0.2266-0.1797
		C18.873,8.978,18.875,8.978,18.876,8.978z"/>
	<path class="st0" d="M27.7754,15.2813c-0.007-0.0041-0.0112-0.0109-0.0186-0.0146l-0.5586-0.2836v-2.8765v-1.5718
		c0-0.1421-0.0752-0.2729-0.1982-0.3447l-9.3154-5.4678l0.0742-1.2305c0.0088-0.1514-0.0684-0.2944-0.1992-0.3701L14.75,1.4995
		c-0.124-0.0723-0.2769-0.0718-0.3999-0.0005L7.5786,5.4067C7.5781,5.4072,7.5781,5.4072,7.5781,5.4072L6.2524,6.1729
		c-0.01,0.0058-0.0143,0.0172-0.0237,0.0238C6.1894,6.2241,6.1567,6.257,6.1294,6.2964c-0.0101,0.0147-0.0208,0.027-0.0289,0.0429
		C6.0724,6.394,6.0527,6.4534,6.0527,6.519v4.6567c0,0.0168,0.0076,0.0312,0.0096,0.0475c0.0035,0.0286,0.0073,0.0558,0.0168,0.0829
		c0.0082,0.0236,0.0199,0.0441,0.0322,0.0654c0.0131,0.0229,0.026,0.0446,0.0436,0.0647c0.0178,0.0204,0.0385,0.0361,0.0601,0.0526
		c0.0139,0.0106,0.0233,0.0251,0.0388,0.034l2.5669,1.4688C8.876,13.0234,8.938,13.041,9.001,13.0439l2.6606,0.1226l9.4136,5.5132
		c0.0615,0.0361,0.1309,0.0557,0.2021,0.0557h2.7217c0.0117,0,0.0216-0.0079,0.0332-0.0089
		c0.0151,0.0018,0.0284,0.0089,0.0439,0.0089c0.1307,0,0.2415-0.0671,0.3146-0.1644l2.2332-1.2897
		c0.0028-0.0016,0.0042-0.0045,0.007-0.0062l0.412,0.2288c0.0186,0.0103,0.0394,0.0082,0.0587,0.0153
		c0.1269,0.0739,0.2653,0.1224,0.4169,0.1224c0.5459,0,0.9736-0.5322,0.9736-1.2119
		C28.4922,15.8645,28.1893,15.4209,27.7754,15.2813z M25.7559,15.874c-0.0032-0.0018-0.0068-0.0015-0.01-0.0032
		c-0.0033-0.0017-0.0052-0.0049-0.0085-0.0066c-0.3008-0.147-0.3486-0.2373-0.3486-0.4526c0-0.2251,0.087-0.342,0.1416-0.3792
		l1.2449,0.6321c-0.1204,0.1816-0.1959,0.4047-0.2141,0.6567L25.7559,15.874z M14.5498,2.3076l2.3955,1.3828l-0.0742,1.2285
		c-0.0088,0.1499,0.0674,0.2925,0.1973,0.3687l9.3291,5.4761v1.1118l-2.4287,1.4028h-2.5068l-9.4048-5.5088
		c-0.0066-0.0038-0.0147-0.0029-0.0215-0.0063c-0.0391-0.0202-0.0818-0.0312-0.1271-0.0375
		c-0.0121-0.0017-0.0227-0.0098-0.035-0.0103l-2.665-0.1226L7.2642,6.5122L14.5498,2.3076z M6.8525,7.1988l1.8438,1.0244v3.7756
		l-1.8438-1.0551V7.1988z M9.4961,8.4065l1.959,0.0903v3.8596l-1.959-0.0901V8.4065z M12.2549,8.8126l5.9443,3.4817v0.5812
		l-0.7188-0.4443c-0.124-0.0752-0.2773-0.0796-0.4043-0.0088c-0.127,0.0703-0.2061,0.2041-0.2061,0.3491v1.5132
		c0,0.1392,0.0723,0.2681,0.1904,0.3408l1.2393,0.7622v0.7394l-6.0449-3.5404V8.8126z M18.9102,14.8232l-1.2393-0.7622v-0.5723
		l0.7188,0.4443c0.124,0.0767,0.2783,0.0801,0.4043,0.0088C18.9209,13.8716,19,13.7378,19,13.5928v-0.8294l1.9531,1.144v3.7739
		l-1.8525-1.085v-1.4321C19.1006,15.0249,19.0283,14.896,18.9102,14.8232z M21.7539,14.0781h1.9219v3.8564h-1.9219V14.0781z
		 M24.4766,17.5968v-3.688l1.9209-1.1093v1.7769l-0.6553-0.3327c-0.0039-0.002-0.0083-0.0016-0.0123-0.0035
		c-0.0235-0.011-0.0493-0.0148-0.075-0.0211c-0.027-0.0067-0.053-0.0154-0.0804-0.0162c-0.0046-0.0002-0.0084-0.0026-0.0131-0.0026
		c-0.0124,0-0.0225,0.008-0.0348,0.0085c-0.0428,0.004-0.0835,0.0128-0.1229,0.0301c-0.4648,0.0948-0.8159,0.5636-0.8159,1.1728
		c0,0.6761,0.3887,0.9664,0.7761,1.1589c0.0013,0.0007,0.002,0.002,0.0032,0.0027l0.4495,0.2496L24.4766,17.5968z M27.3447,16.4297
		c0-0.2656,0.1309-0.4111,0.1738-0.4111s0.1729,0.1455,0.1729,0.4111C27.6914,16.9609,27.3447,16.9609,27.3447,16.4297z"/>
	<path class="st0" d="M16.0283,8.4604c0.0625,0.0361,0.1318,0.0542,0.2012,0.0542c0.0752,0,0.1504-0.021,0.2168-0.0635
		l0.8584-0.5522c0.1162-0.0752,0.1855-0.2056,0.1836-0.3447c-0.0029-0.1387-0.0781-0.2661-0.1982-0.3369l-2.2427-1.3164
		c-0.126-0.0737-0.2822-0.0732-0.4058,0.0005L13.7319,6.438c-0.1226,0.0723-0.1973,0.2041-0.1968,0.3462
		s0.0762,0.2729,0.1992,0.3442L16.0283,8.4604z M14.8452,6.71l1.479,0.8682L16.2188,7.646l-1.4917-0.8662L14.8452,6.71z"/>
	<path class="st0" d="M22.2471,25.1212c-0.0344-0.0542-0.0775-0.1033-0.1377-0.1368l-1.9728-1.1035
		c0.007-0.0816,0.0226-0.1605,0.0226-0.2441c0-1.0979-0.6107-2.0409-1.486-2.4878c-0.0072-0.0049-0.0113-0.0126-0.0189-0.0171
		L5.463,13.3216c-0.0021-0.0013-0.0032-0.0035-0.0054-0.0047c-0.375-0.2124-0.7988-0.3242-1.2256-0.3242
		c-1.437,0-2.606,1.2412-2.606,2.7666c0,0.9468,0.4487,1.8179,1.2002,2.3296c0.0041,0.0029,0.0092,0.0015,0.0134,0.0042
		c0.0042,0.0026,0.0063,0.007,0.0106,0.0095l13.1782,7.768c0.4297,0.3314,0.9537,0.5328,1.5245,0.5328
		c0.59,0,1.1432-0.2175,1.5996-0.5983l2.1416,1.28c0.0187,0.011,0.04,0.0086,0.0595,0.0164
		c0.1226,0.0726,0.2562,0.1213,0.4034,0.1213c0.5205,0,0.9287-0.5039,0.9287-1.1475
		C22.6855,25.6617,22.5063,25.3224,22.2471,25.1212z M21.7617,26.4229c-0.0361-0.0117-0.1318-0.1377-0.1318-0.3477
		c0-0.209,0.0957-0.335,0.1221-0.3467c0.0371,0.0117,0.1328,0.1367,0.1328,0.3467C21.8848,26.2861,21.7891,26.4111,21.7617,26.4229z
		 M20.8583,25.8923l-3.1132-1.8591c-0.2656-0.1299-0.3027-0.1992-0.3027-0.3877c0-0.0879,0.0449-0.1816,0.1055-0.2178
		c0.0459-0.0273,0.1104-0.0166,0.1914,0.0293l3.3282,1.8605C20.9548,25.4747,20.887,25.6727,20.8583,25.8923z M4.2319,13.7925
		c0.2905,0,0.5679,0.0739,0.8244,0.218l11.7845,6.9769c-1.09,0.3315-1.8945,1.3876-1.8945,2.6494
		c0,0.2535,0.0428,0.4945,0.1032,0.728L3.2636,17.4174c-0.5242-0.3646-0.8378-0.9821-0.8378-1.6581
		C2.4258,14.6748,3.2358,13.7925,4.2319,13.7925z M17.5527,25.6025c-0.2173,0-0.423-0.0486-0.6161-0.1255l-0.4615-0.272
		c-0.4398-0.3589-0.7289-0.9254-0.7289-1.5683c0-1.085,0.8105-1.9668,1.8066-1.9668c0.9327,0,1.6928,0.7761,1.7869,1.7652
		l-1.2108-0.6773c-0.3301-0.1846-0.6914-0.1924-0.9863-0.0195c-0.3037,0.1787-0.501,0.5352-0.501,0.9072
		c0,0.6543,0.4023,0.9355,0.7227,1.0908l1.0424,0.623C18.146,25.5129,17.8566,25.6025,17.5527,25.6025z"/>
</g>
</svg>
