<svg xmlns="http://www.w3.org/2000/svg" width="60" height="60" viewBox="0 0 60 60">
  <path fill="#231F20" d="M57.8956488,16.5743299 C57.8785492,16.5410013 57.8557498,16.5155146 57.8344849,16.4843643 C57.7759518,16.3991911 57.7062381,16.3281772 57.6220556,16.2682728 C57.6012292,16.25346 57.5915833,16.2279734 57.5694416,16.2149034 L38.7169449,5.1210397 C38.4429133,4.96245635 38.1090333,4.95940667 37.8350017,5.11363334 L25.3821292,12.1540369 C25.3115387,12.1845337 25.244675,12.2174267 25.1837304,12.2662216 L7.49510071,22.266775 C7.44314432,22.293133 7.39053025,22.3151342 7.34427372,22.3519482 L2.4432735,25.1228001 C2.42047407,25.1356523 2.41060894,25.1609211 2.38934409,25.175516 C2.30472313,25.2334599 2.23413259,25.3022956 2.17450332,25.3855082 C2.15104621,25.4181834 2.12758911,25.4465018 2.10917419,25.4820088 C2.05195639,25.5904903 2.01512654,25.7087743 2.00876901,25.8381679 C2.00789211,25.8490596 2,25.8577729 2,25.8686647 C2,25.8706252 2.00131535,25.8719322 2.00131535,25.8738927 C2.00131535,25.876071 2,25.8782494 2,25.8804277 L2,41.6043588 C2,41.6365982 2.01490732,41.6638275 2.01841492,41.6949778 C2.02499168,41.7564071 2.03507604,41.8145688 2.05458709,41.8733841 C2.07212511,41.9258821 2.09448609,41.9729343 2.12101235,42.02064 C2.14797706,42.0689992 2.1769148,42.1136553 2.21330619,42.1567865 C2.25276674,42.2036208 2.2966118,42.2421775 2.34506058,42.2800807 C2.37027149,42.2999036 2.38605571,42.3273507 2.41411654,42.3447774 L21.070845,53.8682103 C21.0853139,53.8771415 21.1032903,53.873874 21.1181977,53.881716 C21.2433753,53.9505516 21.3801719,54 21.5331911,54 C21.6787567,54 21.8100726,53.9557796 21.931085,53.8930434 C21.9429231,53.8867262 21.9571728,53.8897759 21.9690109,53.883023 L57.5589187,33.6141978 C57.5907064,33.5963354 57.6095598,33.5664921 57.6380591,33.5453621 C57.6882617,33.5078946 57.7358335,33.4715163 57.7770479,33.4246819 C57.8138777,33.3826399 57.8408425,33.3375482 57.8684648,33.2900604 C57.8971833,33.2412655 57.9239288,33.1939955 57.9427822,33.1397547 C57.9618548,33.0846427 57.9693085,33.0295306 57.9769813,32.9718045 C57.9822428,32.9332478 58,32.8990479 58,32.8589664 L58,16.9649067 C57.9997808,16.8222253 57.9570318,16.6932674 57.8956488,16.5743299 Z M3.75336374,27.4250905 L20.6565092,37.5785636 L20.6565092,51.5602562 L3.75336374,41.1196775 L3.75336374,27.4250905 Z M22.409873,37.592505 L25.9220811,35.6067278 L25.9220811,49.6237095 L22.409873,51.6238638 L22.409873,37.592505 Z M17.9221124,18.3766906 C18.8934996,18.8202012 20.0347864,19.0890087 21.2806436,19.0890087 C21.5171877,19.0890087 21.7570201,19.0805132 21.9977295,19.0635221 C23.5638748,18.9539515 25.0239151,18.4901823 26.1082033,17.7562986 C27.3360841,16.9256966 27.9674529,15.8406641 27.8861203,14.7005195 C27.8453444,14.1304472 27.6033197,13.5978424 27.22121,13.1194784 L33.3073421,9.67878611 L50.5290219,19.6897956 L43.8148095,23.4859934 C42.6189356,22.92006 41.1595529,22.5959226 39.6118225,22.5959226 C35.7475386,22.5959226 32.7202568,24.4838922 32.7202568,26.8940106 C32.7202568,27.7276623 33.1017088,28.499667 33.7628922,29.1688538 L26.82222,33.0931382 L9.65381198,23.0511962 L17.9221124,18.3766906 Z M25.6701912,13.9962613 C25.9003778,14.2097389 26.1128071,14.4852993 26.1373603,14.8235959 C26.1715594,15.3117625 25.8012879,15.855259 25.1214704,16.3148893 C24.3015679,16.8701488 23.1175321,17.2380709 21.8747441,17.3254225 C21.2093954,17.372039 20.5547887,17.3367498 19.9525769,17.228704 L25.6701912,13.9962613 Z M35.3599483,28.2659308 C34.7993893,27.8446393 34.4758128,27.3623542 34.4758128,26.8937927 C34.4758128,25.685466 36.5845407,24.3379432 39.6118225,24.3379432 C40.3823993,24.3379432 41.1341228,24.4377113 41.8235863,24.6113253 L35.3599483,28.2659308 Z M27.6754448,34.6157997 L34.4994891,30.757737 L34.4994891,44.7389939 L27.6754448,48.6253751 L27.6754448,34.6157997 L27.6754448,34.6157997 Z M36.2550451,29.7650662 L42.9881109,25.9586302 L42.9881109,39.9043801 L36.2550451,43.7389168 L36.2550451,29.7650662 Z M44.7434477,24.9659594 L51.4379299,21.1813069 L51.4379299,35.0919854 L44.7434477,38.9045208 L44.7434477,24.9659594 Z M53.1934859,20.1888539 L56.2442248,18.4640422 L56.2442248,32.3548979 L53.1934859,34.092344 L53.1934859,20.1888539 Z M38.2609564,6.87830875 L55.3749966,16.9498762 L52.2900585,18.6940752 L35.0683787,8.6832835 L38.2609564,6.87830875 Z M7.89518683,24.045174 L25.0635949,34.087116 L21.5470023,36.0752893 L4.60943843,25.9026468 L7.89518683,24.045174 Z"/>
</svg>
