<?xml version="1.0" encoding="utf-8"?>
<!-- Generator: Adobe Illustrator 21.0.0, SVG Export Plug-In . SVG Version: 6.00 Build 0)  -->
<svg version="1.1" id="Layer_1" xmlns="http://www.w3.org/2000/svg" xmlns:xlink="http://www.w3.org/1999/xlink" x="0px" y="0px"
	 viewBox="0 0 30 30" style="enable-background:new 0 0 30 30;" xml:space="preserve">
<style type="text/css">
	.st0{fill:#231F20;}
</style>
<path class="st0" d="M27.7247,9.0663c-0.0078-0.0153-0.0182-0.027-0.0279-0.0413c-0.0267-0.0391-0.0585-0.0717-0.0969-0.0992
	c-0.0095-0.0068-0.0139-0.0185-0.024-0.0245l-8.5996-5.0928c-0.125-0.0728-0.2773-0.0742-0.4023-0.0034l-5.6804,3.232
	c-0.0322,0.014-0.0627,0.0291-0.0905,0.0515l-8.0687,4.5909c-0.0237,0.0121-0.0477,0.0222-0.0688,0.0391l-2.2356,1.272
	c-0.0104,0.0059-0.0149,0.0175-0.0246,0.0242c-0.0386,0.0266-0.0708,0.0582-0.098,0.0964c-0.0107,0.015-0.0214,0.028-0.0298,0.0443
	c-0.0261,0.0498-0.0429,0.1041-0.0458,0.1635C2.2314,13.324,2.2278,13.328,2.2278,13.333c0,0.0009,0.0006,0.0015,0.0006,0.0024
	c0,0.001-0.0006,0.002-0.0006,0.003v7.2183c0,0.0148,0.0068,0.0273,0.0084,0.0416c0.003,0.0282,0.0076,0.0549,0.0165,0.0819
	c0.008,0.0241,0.0182,0.0457,0.0303,0.0676c0.0123,0.0222,0.0255,0.0427,0.0421,0.0625c0.018,0.0215,0.038,0.0392,0.0601,0.0566
	c0.0115,0.0091,0.0187,0.0217,0.0315,0.0297l8.5103,5.29c0.0066,0.0041,0.0148,0.0026,0.0216,0.0062
	c0.0571,0.0316,0.1195,0.0543,0.1893,0.0543c0.0664,0,0.1263-0.0203,0.1815-0.0491c0.0054-0.0029,0.0119-0.0015,0.0173-0.0046
	l16.2344-9.3047c0.0145-0.0082,0.0231-0.0219,0.0361-0.0316c0.0229-0.0172,0.0446-0.0339,0.0634-0.0554
	c0.0168-0.0193,0.0291-0.04,0.0417-0.0618c0.0131-0.0224,0.0253-0.0441,0.0339-0.069c0.0087-0.0253,0.0121-0.0506,0.0156-0.0771
	c0.0024-0.0177,0.0105-0.0334,0.0105-0.0518V9.2456C27.7722,9.1801,27.7527,9.1209,27.7247,9.0663z M3.0276,14.0475l7.7104,4.6611
	v6.4185l-7.7104-4.7929V14.0475z M11.5378,18.715l1.6021-0.9116v6.4347l-1.6021,0.9182V18.715z M9.4907,9.8937
	c0.4431,0.2036,0.9637,0.327,1.532,0.327c0.1079,0,0.2173-0.0039,0.3271-0.0117c0.7144-0.0503,1.3804-0.2632,1.875-0.6001
	c0.5601-0.3813,0.8481-0.8794,0.811-1.4028c-0.0186-0.2617-0.129-0.5062-0.3033-0.7258l2.7762-1.5795l7.8557,4.5957l-3.0627,1.7427
	c-0.5455-0.2598-1.2112-0.4086-1.9172-0.4086c-1.7627,0-3.1436,0.8667-3.1436,1.9731c0,0.3827,0.174,0.7371,0.4756,1.0443
	l-3.166,1.8015l-7.8314-4.6099L9.4907,9.8937z M13.025,7.8828c0.105,0.098,0.2019,0.2245,0.2131,0.3798
	c0.0156,0.2241-0.1533,0.4736-0.4634,0.6846c-0.374,0.2549-0.9141,0.4238-1.481,0.4639c-0.3035,0.0214-0.6021,0.0052-0.8768-0.0444
	L13.025,7.8828z M17.445,14.4335c-0.2557-0.1934-0.4033-0.4148-0.4033-0.6299c0-0.5547,0.9619-1.1733,2.3428-1.1733
	c0.3515,0,0.6944,0.0458,1.0089,0.1255L17.445,14.4335z M13.9397,17.3485l3.1128-1.7711v6.4183l-3.1128,1.7841V17.3485z
	 M17.8533,15.1217l3.0713-1.7474v6.402l-3.0713,1.7603V15.1217z M21.7253,12.9186l3.0537-1.7374v6.3859l-3.0537,1.7502V12.9186z
	 M25.5798,10.7256l1.3916-0.7918v6.3768l-1.3916,0.7976V10.7256z M18.7683,4.6152l7.8066,4.6235l-1.4072,0.8007l-7.8557-4.5956
	L18.7683,4.6152z M4.9169,12.4959l7.8314,4.6099l-1.6041,0.9127l-7.7261-4.6699L4.9169,12.4959z"/>
</svg>
