<svg xmlns="http://www.w3.org/2000/svg" width="60" height="60" viewBox="0 0 60 60">
  <path fill="#231F20" d="M39.0278685,32.0308312 C38.861094,31.9197852 38.668602,31.8901466 38.4856566,31.9187972 L38.4856566,21.2056215 C40.3608953,20.1030648 41.5910518,18.6480061 41.8589431,17.009188 C41.8955711,16.9177034 41.9179766,16.8185128 41.9179766,16.7137897 L41.9179766,10.2513849 C41.9179766,6.25333258 36.3185626,3 29.4365828,3 C22.7737868,3 17.3411473,6.11659974 17.1094945,9.99629517 C17.1040392,10.0338374 17.0874787,10.0676255 17.0874787,10.1067484 L17.0874787,16.3276973 C17.0874787,18.2417594 18.3862154,19.9501295 20.5151227,21.2032504 L20.5151227,31.9195876 C20.3315929,31.8901466 20.137737,31.9199828 19.9699884,32.0308312 C18.0550044,33.2918557 17,34.9281052 17,36.6396367 L17,42.9070194 C17,44.7147777 18.1557315,46.3391717 20.0699362,47.5754973 L20.0699362,56.8928917 C20.0699362,57.8731396 20.8566597,58.6719993 21.962125,58.6719993 C22.9286766,58.6719993 23.7154001,57.8731396 23.7154001,56.8928917 L23.7154001,49.1830961 C25.4371128,49.6802346 27.3972973,49.9637774 29.4995129,49.9637774 C31.6264719,49.9637774 33.6098413,49.674702 35.346361,49.1663009 L35.346361,57.2208924 C35.346361,58.2011404 36.1340586,59 37.2414723,59 C38.2080239,59 38.9957215,58.2011404 38.9957215,57.2208924 L38.9957215,47.5343984 C40.8713499,46.3034077 42,44.6944258 42,42.9070194 L42,36.6396367 C41.9998052,34.9281052 40.9438266,33.2918557 39.0278685,32.0308312 Z M29.4367777,4.58033125 C35.8733761,4.58033125 40.3579728,7.56928733 40.3579728,10.2513849 C40.3579728,13.1958831 35.3863011,15.6831561 29.5024354,15.6831561 C23.6175955,15.6831561 18.6459238,13.1958831 18.6459238,10.2513849 C18.6459238,7.56928733 23.0781112,4.58033125 29.4367777,4.58033125 Z M18.6459238,16.3276973 L18.6459238,13.6965782 C20.7463859,15.840636 24.7735218,17.2634873 29.5024354,17.2634873 C34.2295955,17.2634873 38.2565365,15.8412287 40.3579728,13.6977637 L40.3579728,16.3274997 C40.3579728,17.7270354 39.2264002,19.0192792 37.41604,19.9941922 C37.3985053,20.0013055 37.3842827,20.0125682 37.3675273,20.020867 C35.3716889,21.0819296 32.5647732,21.7592709 29.5024354,21.7592709 C26.4289923,21.7592709 23.6129196,21.0769898 21.6157173,20.0094067 C21.6067551,20.0052573 21.5993516,19.9993296 21.5903894,19.9955754 C19.7786653,19.0206624 18.6459238,17.7278257 18.6459238,16.3276973 Z M36.2271874,30.7002548 C35.2302423,32.2517377 32.5932184,33.294622 29.6649236,33.294622 C26.7130544,33.294622 23.9949812,32.195622 23.0560955,30.6249727 C22.968422,30.4769771 22.909973,30.3270057 22.8575637,30.1770343 C24.4247761,31.4388492 26.8915187,32.2100461 29.6257628,32.2100461 C32.4159231,32.2100461 34.9479336,31.3914274 36.5110547,30.0705329 C36.4500729,30.2825478 36.3598666,30.4933772 36.2271874,30.7002548 Z M36.5089115,32.6947363 C35.9185767,34.519685 33.0500947,35.9565653 29.7031103,35.9565653 C26.4141852,35.9565653 23.5723949,34.5714538 22.914454,32.7917534 C24.4814717,34.0887394 26.9353554,34.8761388 29.6651184,34.8761388 C32.4387182,34.8759412 34.9432577,34.0442815 36.5089115,32.6947363 Z M29.5879657,29.5455341 C32.3757881,29.5455341 34.9210471,28.7555661 36.4829991,27.4834765 C36.4210432,27.7170288 36.3271351,27.9503835 36.1664004,28.1813672 C35.150362,29.6459102 32.5209364,30.63011 29.6261524,30.63011 C26.706625,30.63011 23.9971243,29.5929559 23.0364176,28.107073 C22.9175713,27.9237088 22.8334048,27.7385662 22.7765144,27.5528308 C24.3411941,28.785995 26.8332645,29.5455341 29.5879657,29.5455341 Z M22.7250793,24.9634034 C24.287421,26.1483554 26.7923502,26.8816149 29.5497791,26.8816149 C32.3385756,26.8816149 34.8978623,26.123459 36.4555281,24.9039285 C36.3974688,25.1576351 36.2979106,25.4115393 36.1091204,25.6620844 C35.0739886,27.0398851 32.4521614,27.9650053 29.5877709,27.9650053 C26.6520726,27.9650053 24.0101779,27.0108393 23.0132329,25.5897662 C22.8680845,25.3822959 22.7819697,25.1728496 22.7250793,24.9634034 Z M36.0541783,23.1429993 C35.0038498,24.43386 32.389621,25.3012836 29.5499739,25.3012836 C26.1879876,25.3012836 23.8334671,24.1821293 22.9906326,23.0736449 C22.7636556,22.7752828 22.6522129,22.4715857 22.6331195,22.1700622 C24.5927196,22.8989746 26.9308743,23.3399973 29.5024354,23.3399973 C32.1160797,23.3399973 34.4920315,22.8865264 36.4709197,22.1352862 C36.4588402,22.4719809 36.3251868,22.8110467 36.0541783,23.1429993 Z M22.0735678,34.4289908 C23.4317277,36.2788359 26.2889095,37.5388725 29.7031103,37.5388725 C32.8032451,37.5388725 35.4447501,36.4989521 36.925458,34.9239558 L36.925458,35.7346708 C36.925458,37.5060724 33.7442739,39.4857346 29.4860697,39.4857346 C25.2432569,39.4857346 22.073373,37.5058748 22.073373,35.7346708 L22.073373,34.4289908 L22.0735678,34.4289908 Z M22.1571499,56.8926941 C22.1571499,57.0007762 22.0696712,57.0894945 21.8232113,57.0894945 C21.7156651,57.0894945 21.6281864,57.0007762 21.6281864,56.8926941 L21.6281864,48.4227667 C21.799442,48.5002223 21.9782959,48.5723429 22.1571499,48.6448588 L22.1571499,56.8926941 Z M37.4353281,57.2206948 C37.4353281,57.328777 37.3478495,57.4174953 37.1004154,57.4174953 C36.9938434,57.4174953 36.9063647,57.328777 36.9063647,57.2206948 L36.9063647,48.6177888 C37.0842445,48.5448778 37.2650467,48.4737451 37.4353281,48.3956968 L37.4353281,57.2206948 Z M40.4396066,42.9070194 C40.4396066,45.8748333 35.429943,48.3812726 29.4995129,48.3812726 C23.5690828,48.3812726 18.5584451,45.8746357 18.5584451,42.9070194 L18.5584451,40.0970806 C20.6704022,42.2610951 24.7308541,43.6979754 29.4995129,43.6979754 C34.2670028,43.6979754 38.327065,42.2614903 40.4396066,40.0984637 L40.4396066,42.9070194 Z M29.4995129,42.1158658 C23.5690828,42.1158658 18.5584451,39.6092289 18.5584451,36.6396367 C18.5584451,35.5726464 19.2676263,34.5062488 20.5153175,33.5931817 L20.5153175,35.7346708 C20.5153175,38.6754148 24.5393362,41.0680418 29.4862645,41.0680418 C34.4483895,41.0680418 38.4856566,38.6754148 38.4856566,35.7346708 L38.4856566,33.5953552 C39.7315944,34.5080271 40.4396066,35.5734367 40.4396066,36.6396367 C40.4396066,39.6092289 35.429943,42.1158658 29.4995129,42.1158658 Z"/>
</svg>
