<?xml version="1.0" encoding="utf-8"?>
<!-- Generator: Adobe Illustrator 21.0.0, SVG Export Plug-In . SVG Version: 6.00 Build 0)  -->
<svg version="1.1" id="Layer_1" xmlns="http://www.w3.org/2000/svg" xmlns:xlink="http://www.w3.org/1999/xlink" x="0px" y="0px"
	 viewBox="0 0 30 30" style="enable-background:new 0 0 30 30;" xml:space="preserve">
<style type="text/css">
	.st0{fill:#231F20;}
</style>
<path class="st0" d="M19.8906,15.188c-0.0856-0.0562-0.1844-0.0712-0.2783-0.0567V9.7094c0.9625-0.558,1.5939-1.2944,1.7314-2.1238
	c0.0188-0.0463,0.0303-0.0965,0.0303-0.1495V4.1655c0-2.0234-2.874-3.6699-6.4063-3.6699c-3.4198,0-6.2082,1.5773-6.3271,3.5408
	c-0.0028,0.019-0.0113,0.0361-0.0113,0.0559v3.1484c0,0.9687,0.6666,1.8333,1.7593,2.4675v5.4235
	c-0.0942-0.0149-0.1937,0.0002-0.2798,0.0563c-0.9829,0.6382-1.5244,1.4663-1.5244,2.3325v3.1719
	c0,0.9149,0.5932,1.737,1.5757,2.3627v4.7155c0,0.4961,0.4038,0.9004,0.9712,0.9004c0.4961,0,0.8999-0.4043,0.8999-0.9004v-3.9019
	c0.8837,0.2516,1.8898,0.3951,2.9688,0.3951c1.0917,0,2.1097-0.1463,3.001-0.4036v4.0764c0,0.4961,0.4043,0.9004,0.9727,0.9004
	c0.4961,0,0.9004-0.4043,0.9004-0.9004v-4.9023c0.9627-0.623,1.542-1.4373,1.542-2.3419v-3.1719
	C21.416,16.6543,20.874,15.8262,19.8906,15.188z M14.9678,1.2954c3.3037,0,5.6055,1.5127,5.6055,2.8701
	c0,1.4902-2.5518,2.749-5.5718,2.749c-3.0205,0-5.5723-1.2588-5.5723-2.749C9.4292,2.8081,11.7041,1.2954,14.9678,1.2954z
	 M9.4292,7.2407V5.9091c1.0781,1.0851,3.1451,1.8052,5.5723,1.8052c2.4263,0,4.4932-0.7198,5.5718-1.8046v1.3309
	c0,0.7083-0.5808,1.3623-1.51,1.8557c-0.009,0.0036-0.0163,0.0093-0.0249,0.0135c-1.0244,0.537-2.4651,0.8798-4.0369,0.8798
	c-1.5775,0-3.0229-0.3453-4.048-0.8856c-0.0046-0.0021-0.0084-0.0051-0.013-0.007C10.0106,8.6036,9.4292,7.9493,9.4292,7.2407z
	 M18.4531,14.5146c-0.5117,0.7852-1.8652,1.313-3.3682,1.313c-1.5151,0-2.9102-0.5562-3.3921-1.3511
	c-0.045-0.0749-0.075-0.1508-0.1019-0.2267c0.8044,0.6386,2.0705,1.0289,3.4739,1.0289c1.4321,0,2.7317-0.4143,3.534-1.0828
	C18.5675,14.3032,18.5212,14.4099,18.4531,14.5146z M18.5977,15.524c-0.303,0.9236-1.7753,1.6508-3.4932,1.6508
	c-1.6881,0-3.1467-0.701-3.4844-1.6017c0.8043,0.6564,2.0638,1.0549,3.4649,1.0549C16.5086,16.6279,17.7941,16.207,18.5977,15.524z
	 M15.0454,13.9302c1.4309,0,2.7373-0.3998,3.539-1.0436c-0.0318,0.1182-0.08,0.2363-0.1625,0.3532
	c-0.5215,0.7412-1.8711,1.2393-3.3569,1.2393c-1.4985,0-2.8892-0.5249-3.3823-1.2769c-0.061-0.0928-0.1042-0.1865-0.1334-0.2805
	C12.3524,13.5458,13.6315,13.9302,15.0454,13.9302z M11.5229,11.6112c0.8019,0.5997,2.0876,0.9708,3.5029,0.9708
	c1.4314,0,2.745-0.3837,3.5445-1.0009c-0.0298,0.1284-0.0809,0.2569-0.1778,0.3837c-0.5313,0.6973-1.877,1.1655-3.3472,1.1655
	c-1.5068,0-2.8628-0.4829-3.3745-1.2021C11.5963,11.8232,11.5521,11.7172,11.5229,11.6112z M18.3643,10.6899
	c-0.5391,0.6533-1.8809,1.0923-3.3384,1.0923c-1.7256,0-2.9341-0.5664-3.3667-1.1274c-0.1165-0.151-0.1737-0.3047-0.1835-0.4573
	c1.0058,0.3689,2.2059,0.5921,3.5258,0.5921c1.3415,0,2.561-0.2295,3.5767-0.6097C18.572,10.3503,18.5034,10.5219,18.3643,10.6899z
	 M11.1885,16.4017c0.6971,0.9362,2.1636,1.5739,3.916,1.5739c1.5912,0,2.947-0.5263,3.707-1.3234v0.4103
	c0,0.8965-1.6328,1.8984-3.8184,1.8984c-2.1777,0-3.8047-1.002-3.8047-1.8984V16.4017z M11.2314,27.7705
	c0,0.0547-0.0449,0.0996-0.1714,0.0996c-0.0552,0-0.1001-0.0449-0.1001-0.0996v-4.2866c0.0879,0.0392,0.1797,0.0757,0.2715,0.1124
	V27.7705z M19.0732,27.9365c0,0.0547-0.0449,0.0996-0.1719,0.0996c-0.0547,0-0.0996-0.0449-0.0996-0.0996v-4.3539
	c0.0913-0.0369,0.1841-0.0729,0.2715-0.1124V27.9365z M20.6152,20.6924c0,1.502-2.5713,2.7705-5.6152,2.7705
	s-5.6157-1.2686-5.6157-2.7705v-1.4221c1.084,1.0952,3.1681,1.8224,5.6157,1.8224c2.447,0,4.5309-0.727,5.6152-1.8217V20.6924z
	 M15,20.292c-3.0439,0-5.6157-1.2686-5.6157-2.7715c0-0.54,0.364-1.0797,1.0044-1.5418v1.0838c0,1.4883,2.0654,2.6992,4.6045,2.6992
	c2.5469,0,4.6191-1.2109,4.6191-2.6992v-1.0827c0.6395,0.4619,1.0029,1.0011,1.0029,1.5407
	C20.6152,19.0234,18.0439,20.292,15,20.292z"/>
</svg>
