<svg xmlns="http://www.w3.org/2000/svg" width="60" height="60" viewBox="0 0 60 60">
  <path fill="#231F20" d="M57.9087629,20.0406527 C57.8934928,20.0107118 57.8728104,19.9876803 57.8536745,19.9598506 C57.8022586,19.8853822 57.7411781,19.8233891 57.6675336,19.7709925 C57.6491707,19.7577494 57.6406659,19.7352937 57.62095,19.7235861 L36.164297,7.10579056 C35.9226811,6.96606625 35.6300359,6.96529854 35.3847474,7.10022462 L2.38890498,25.856293 C2.36860924,25.8678087 2.35971777,25.8904564 2.34077509,25.9035075 C2.26732385,25.9541768 2.20624334,26.0142506 2.1542476,26.0864159 C2.13317869,26.115781 2.1117232,26.1411156 2.09510002,26.1733597 C2.04465062,26.2693242 2.01237073,26.3739255 2.00695854,26.4883152 C2.00657195,26.4971439 2.00019329,26.5044372 2,26.5132659 C2,26.5148014 2.00096646,26.5159529 2.00096646,26.5174884 C2.00096646,26.5194077 2,26.5207512 2,26.5226704 L2,32.1625037 C2,32.1909092 2.01314391,32.2149004 2.01623659,32.2423462 C2.02203537,32.2964702 2.03092684,32.3477152 2.04812989,32.399536 C2.06359331,32.4457909 2.08330917,32.4872476 2.10669759,32.52928 C2.13047259,32.5718883 2.15598723,32.6112337 2.18807383,32.6492357 C2.22286652,32.6905004 2.26152507,32.7244718 2.30424276,32.7578675 C2.32647142,32.775333 2.3403885,32.7995161 2.36512997,32.8148704 L5.59099237,34.8057498 L5.59099237,39.8567449 C5.59099237,40.2803322 5.93737294,40.6252286 6.36397,40.6252286 C6.79056706,40.6252286 7.13694764,40.2803322 7.13694764,39.8567449 L7.13694764,35.7596368 L15.1649747,40.7140917 C15.1653612,40.7142836 15.1655545,40.7146675 15.1659411,40.7148594 L23.5989164,45.9197817 C23.7235902,45.9965532 23.8650805,46.0358987 24.0065708,46.0358987 C24.1395562,46.0358987 24.2737014,46.0001999 24.3935428,45.9328328 L28.4084262,43.6300688 L28.4084262,49.2315163 C28.4084262,49.6551036 28.7548067,50 29.1814038,50 C29.6080009,50 29.9543814,49.6551036 29.9543814,49.2315163 L29.9543814,42.7433569 L34.4289149,40.1770744 L34.4289149,45.7752591 C34.4289149,46.1988464 34.7762619,46.5437428 35.202859,46.5437428 C35.629456,46.5437428 35.9768031,46.1988464 35.9768031,45.7752591 L35.9768031,39.2892109 L40.4505634,36.7235042 L40.4505634,42.3190019 C40.4505634,42.7425892 40.7979104,43.0874856 41.2245075,43.0874856 C41.6511045,43.0874856 41.9984516,42.7425892 41.9984516,42.3190019 L41.9984516,35.8356407 L46.4722118,33.2697421 L46.4722118,38.8644721 C46.4722118,39.2880593 46.8195589,39.6329557 47.2461559,39.6329557 C47.672753,39.6329557 48.0201,39.2880593 48.0201,38.8644721 L48.0201,32.3818786 L52.4919274,29.8173234 L52.4919274,35.4082149 C52.4919274,35.8318021 52.8392744,36.1766985 53.2658715,36.1766985 C53.6924685,36.1766985 54.0398156,35.8318021 54.0398156,35.4082149 L54.0398156,28.9296519 L57.613025,26.8802342 C57.6418256,26.8637283 57.6588354,26.8368582 57.6847366,26.8174734 C57.7278409,26.7852293 57.7682391,26.753561 57.8036116,26.7132559 C57.8362781,26.6758298 57.8604397,26.6361005 57.8849879,26.5938761 C57.9101159,26.5510759 57.9333111,26.5096193 57.9497409,26.4620209 C57.966944,26.4125032 57.9739025,26.3629855 57.9806678,26.3107808 C57.9849202,26.2781529 57.9999971,26.2493636 57.9999971,26.2155841 L57.9999971,20.3842056 C58.0003836,20.258876 57.9626916,20.145254 57.9087629,20.0406527 Z M24.779935,43.9383068 L24.779935,39.7103031 L56.4523022,21.7081318 L56.4523022,25.7735716 L24.779935,43.9383068 Z M17.1197441,40.1129701 C17.1189709,40.1125863 17.1187776,40.1118186 17.1180044,40.1112428 L16.3488926,39.6366024 L16.3488926,35.5677078 L23.2339797,39.7001309 L23.2339797,43.8876375 L17.1197441,40.1129701 Z M3.54614856,31.7354618 L3.54614856,27.8836389 L9.42611346,31.4126372 L9.42611346,35.3642631 L3.54614856,31.7354618 Z M10.9720687,32.3406138 L14.8029374,34.6399231 L14.8029374,38.6825234 L10.9720687,36.3183421 L10.9720687,32.3406138 Z M35.7622482,8.65484942 L55.6899556,20.3730738 L24.0175885,38.3758209 L4.29728412,26.5405198 L35.7622482,8.65484942 Z M50.9519642,20.5024339 C51.1916472,20.3665482 51.3389362,20.1153131 51.3426088,19.8418143 C51.3445417,19.5681236 51.1991856,19.3142015 50.9631752,19.1744772 L36.3473452,10.5789375 C36.1076623,10.4392132 35.8130841,10.4384455 35.5697286,10.5724119 L9.09751581,25.5490147 C8.85976575,25.6839408 8.71151023,25.9340242 8.70783767,26.2057957 C8.70397181,26.4785268 8.84565539,26.7324488 9.08069935,26.8731328 L23.5399621,35.5548486 C23.662703,35.6298928 23.8014872,35.667319 23.9400781,35.667319 C24.0722903,35.667319 24.2043093,35.6335395 24.3231843,35.5661724 L50.9519642,20.5024339 Z M11.0078279,26.2359285 L35.9452964,12.1270367 L49.0302478,19.8220456 L23.9512891,34.0086687 L11.0078279,26.2359285 Z M37.9462627,18.0311562 C37.7197236,17.6703298 37.2364918,17.5663042 36.8816064,17.791245 L35.9079909,18.4046501 C35.2239279,18.1574455 34.4573289,18.1797093 33.9292532,18.512898 C33.7711397,18.6119334 33.6627025,18.7472433 33.5623836,18.8852402 C31.0698738,17.8962302 28.0487084,18.0088925 25.8927213,19.2953925 C23.8550293,20.5118384 22.7687241,21.1584472 20.6941133,22.3459118 L18.6102243,23.5389424 L21.0037682,23.7750151 C21.0192316,23.7765505 21.6775867,23.8489077 22.5864491,24.0214519 C22.2723484,24.2055118 21.9451038,24.3962892 21.5341635,24.6335134 C21.1651676,24.8461707 21.0395274,25.3167806 21.2548555,25.6831731 C21.3982787,25.9276906 21.6578708,26.064536 21.9240349,26.064536 C22.0562471,26.064536 22.1892325,26.0307565 22.3119734,25.9605104 C23.285009,25.3989262 23.8465244,25.0665052 24.7173082,24.5473373 C25.4835206,24.7837938 26.2559183,25.077829 26.9167862,25.4599596 C27.2724448,25.6657075 27.5635436,25.8971739 27.8260352,26.1338223 C27.2258612,26.5067403 26.7250398,26.813059 25.9313798,27.2921138 C25.567023,27.5122563 25.4510474,27.9845935 25.6727541,28.3473393 C25.8181103,28.5843716 26.0728701,28.7156511 26.3343952,28.7156511 C26.4712464,28.7156511 26.6100306,28.6799523 26.7354776,28.6041403 C27.6112869,28.0748002 28.1380096,27.7519756 28.8272915,27.3230143 C29.1916483,27.9218328 29.3153557,28.3912911 29.3242471,28.4271818 L29.5658631,29.4365363 L30.4671871,28.9118025 C32.6285864,27.6521725 33.6006555,27.0627586 35.4409956,25.9447723 L35.0992541,25.2522925 L35.5032359,25.9073461 C36.6602862,25.2054618 37.303951,24.2091584 37.3134223,23.1024959 C37.3186412,22.3760447 37.0188442,21.6557352 36.5058453,20.9870546 C36.5319398,20.9722761 36.5653795,20.967094 36.5905075,20.95078 C36.9794125,20.7005046 37.2001528,20.3106968 37.1964802,19.8825033 C37.1947406,19.7441225 37.1203229,19.6186009 37.0739326,19.4873215 L37.7040669,19.0906043 C38.0670707,18.8641281 38.1745414,18.3900635 37.9462627,18.0311562 Z M34.6956589,24.596855 L34.6351582,24.6342811 C33.0420395,25.6014113 32.1037966,26.1712485 30.4720194,27.1270548 C30.064365,26.2770013 29.2432575,25.0286952 27.6944028,24.1327707 C26.884313,23.6640801 25.9541884,23.315729 25.0495784,23.0433818 C24.941721,22.9785098 24.8220728,22.9464576 24.6966258,22.9389724 C24.2217056,22.8061575 23.7568366,22.6879293 23.3331389,22.5986823 C24.4082331,21.9716503 25.3416437,21.4150562 26.6892806,20.6110657 C28.780708,19.3646789 31.8934941,19.4658254 34.0972246,20.8528962 C35.1638139,21.5248396 35.7734591,22.3401539 35.7659207,23.0888689 C35.7603152,23.802077 35.1808236,24.3024359 34.6956589,24.596855 Z"/>
</svg>
