<svg xmlns="http://www.w3.org/2000/svg" width="60" height="60" viewBox="0 0 60 60">
  <path fill="#231F20" d="M47.2044014,30.4892347 C47.4418736,30.3589412 47.5982771,30.116544 47.6156772,29.8452806 L47.8531495,26.2077404 C47.8725269,25.9056336 47.717903,25.6187507 47.4535396,25.469279 L26.9170334,13.79546 C26.6795612,13.6602237 26.3869226,13.6564672 26.147473,13.7887378 L12.3865388,21.2898051 C12.1346324,21.4268208 11.9772403,21.6893848 11.9742743,21.9772563 C11.9713084,22.2639414 12.1249437,22.5294712 12.3738842,22.6714297 L36.0434028,36.1349548 C36.165006,36.2045501 36.3002525,36.2391501 36.4353013,36.2391501 C36.5646159,36.2391501 36.6959078,36.2063296 36.8137542,36.1426657 L47.2044014,30.4892347 Z M14.3909155,21.9986094 L26.5182145,15.3884409 L46.2428463,26.5996093 L46.0652859,29.3074988 L36.4434082,34.541974 L14.3909155,21.9986094 Z M57.9035055,27.6629146 C57.8874894,27.6318735 57.8667279,27.6075547 57.8467573,27.5788862 C57.7929751,27.5017778 57.728911,27.4379162 57.6517967,27.3843358 C57.6324193,27.3708912 57.6235215,27.3473633 57.60276,27.3355004 L54.5239252,25.5730788 L55.2122191,25.1758716 C55.590672,24.9568046 55.7199866,24.4729987 55.5018917,24.0955629 C55.2818196,23.7161499 54.7971864,23.5906016 54.4205131,23.8049235 L52.9337904,24.6630018 L49.5166417,22.7070182 L50.1742876,22.3270121 C50.5527405,22.108736 50.6820551,21.6251278 50.4639602,21.2467034 C50.2438881,20.8672905 49.7592549,20.7389742 49.3825816,20.9580412 L47.9284841,21.7979298 L44.5115332,19.8419462 L45.1383334,19.4799321 C45.5167863,19.261656 45.6461009,18.7780478 45.428006,18.3996234 C45.2097135,18.0182333 44.7250802,17.8928827 44.3466274,18.1109611 L42.9235734,18.9328578 L39.5072156,16.9772697 L40.1023792,16.6336429 C40.4808321,16.414576 40.6101467,15.9307701 40.3920518,15.5533342 C40.1719797,15.1719441 39.6911033,15.0465935 39.3106732,15.2626948 L37.9170807,16.0667972 L34.5013161,14.1116046 L35.0646454,13.7865629 C35.4430983,13.5674959 35.5724129,13.08369 35.3543181,12.7062542 C35.1342459,12.3258527 34.6496127,12.2003044 34.2729394,12.4156148 L32.9111813,13.2017252 L27.499147,10.1037463 C27.2616747,9.96771912 26.9652793,9.96475341 26.7218751,10.0990011 L5.86386197,21.6963048 C5.8434959,21.7075745 5.83459811,21.7303116 5.81561615,21.743163 C5.73612918,21.7965458 5.66989004,21.8611982 5.61452598,21.9390975 C5.59396219,21.9681614 5.57320067,21.9930734 5.55678918,22.0247076 C5.50142512,22.129496 5.46405438,22.2437746 5.46108845,22.3697183 C5.46089072,22.3742658 5.45752933,22.3780223 5.45752933,22.3825697 C5.45752933,22.3833606 5.45812252,22.3839537 5.45812252,22.3845469 C5.45812252,22.3855355 5.45752933,22.3863263 5.45752933,22.3873149 L5.45752933,28.1362417 C5.45752933,28.3300013 5.53543447,28.5012215 5.65130353,28.6388304 C5.62915791,28.746189 5.62698289,28.85335 5.64912852,28.958336 L4.82618135,29.4288951 C4.58000902,29.5698651 4.42835105,29.8314406 4.42835105,30.1153577 L4.42835105,32.6166362 L2.39510604,33.7886841 C2.01764181,34.0069602 1.88733854,34.491557 2.10642203,34.8699814 C2.25214814,35.1228574 2.51868653,35.2658046 2.7919477,35.2658046 C2.92620554,35.2658046 3.06224293,35.2310069 3.18681206,35.1596322 L5.61492144,33.7578407 C5.85911648,33.6168707 6.0097858,33.3543067 6.0097858,33.0723667 L6.0097858,30.5742517 L6.96501352,30.0281659 L11.2964601,32.5345849 L10.7232444,32.8623945 C10.4770721,33.0033645 10.3254141,33.2659286 10.3254141,33.5498457 L10.3254141,36.0501356 L8.29197134,37.2219858 C7.91450711,37.4402619 7.78420384,37.9248587 8.00328733,38.3032831 C8.14901344,38.5561591 8.41555183,38.6991063 8.688813,38.6991063 C8.82307084,38.6991063 8.95910823,38.6643086 9.08367736,38.5929339 L11.5117867,37.1911424 C11.7559818,37.0501724 11.9066511,36.7876084 11.9066511,36.5056684 L11.9066511,34.0091351 L12.8812562,33.4517796 L17.211121,35.9574078 L16.6201097,36.2953008 C16.3739374,36.4362708 16.2222794,36.6988349 16.2222794,36.982752 L16.2222794,39.4830419 L14.190023,40.6550898 C13.8125588,40.8733659 13.6822555,41.3579627 13.901339,41.7363871 C14.0470651,41.9892631 14.3136035,42.1322103 14.5868647,42.1322103 C14.7211225,42.1322103 14.8571599,42.0974126 14.981729,42.0260379 L17.4088498,40.6242464 C17.6530448,40.4832764 17.8037141,40.2207124 17.8037141,39.9387724 L17.8037141,37.4422391 L18.7963126,36.8748002 L23.1279569,39.3814169 L22.5181614,39.7301842 C22.271989,39.8711542 22.1203311,40.1337183 22.1203311,40.4176354 L22.1203311,42.9179253 L20.087086,44.0899732 C19.7096218,44.3082494 19.5793185,44.7928461 19.798402,45.1712705 C19.9441281,45.4241466 20.2106665,45.5670937 20.4839277,45.5670937 C20.6181855,45.5670937 20.7542229,45.5322961 20.8787921,45.4609214 L23.3069014,44.0591299 C23.5510965,43.9181599 23.7017658,43.6555958 23.7017658,43.3736558 L23.7017658,40.8771225 L24.7131485,40.2988094 L29.0430132,42.8042398 L28.4154221,43.1630905 C28.1692498,43.3040605 28.0175918,43.5666246 28.0175918,43.8505417 L28.0175918,46.3508316 L25.9843468,47.5228795 C25.6068826,47.7411557 25.4765793,48.2257524 25.6956628,48.6041768 C25.8413889,48.8570529 26.1079273,49 26.3811885,49 C26.5154463,49 26.6514837,48.9652024 26.7760528,48.8938276 L29.2041622,47.4920362 C29.4483572,47.3510662 29.5990266,47.0885021 29.5990266,46.8065621 L29.5990266,44.3100288 L30.6280071,43.7214345 L36.1592719,46.9224224 C36.1711356,46.9291447 36.1857676,46.9265744 36.197829,46.9327036 C36.3065799,46.9888543 36.4246239,47.0285948 36.5551249,47.0285948 C36.6872077,47.0285948 36.8062405,46.9878657 36.9157822,46.9305287 C36.9274482,46.9243996 36.941487,46.9271676 36.9527575,46.9204453 L57.6061214,34.8761105 C57.6343966,34.8597002 57.6508081,34.8330089 57.6763151,34.8138306 C57.7213973,34.7798238 57.7639089,34.7462125 57.8006865,34.7035063 C57.8337072,34.6653475 57.8580278,34.6248161 57.8827439,34.5819122 C57.9086464,34.5374266 57.9321761,34.4941273 57.9489831,34.4448965 C57.9663832,34.394084 57.9736992,34.3432716 57.980422,34.2898888 C57.984772,34.2566729 57.9999971,34.2272135 57.9999971,34.1926136 L57.9999971,28.0217653 C58.0003926,27.8902856 57.9602536,27.7720527 57.9035055,27.6629146 Z M37.3470287,40.1936256 L56.4169805,29.3802575 L56.4169805,33.7388602 L37.3470287,44.8590803 L37.3470287,40.1936256 Z M27.100328,11.6987042 L55.6116312,28.0187996 L36.5571022,38.8244569 L7.85756122,22.3972006 L27.100328,11.6987042 Z M34.583769,40.5487197 C34.3654765,40.1683182 33.8808432,40.0409905 33.5043676,40.2533352 L30.6321594,41.8955468 L26.3022947,39.3901163 L28.3920901,38.1951336 C28.770543,37.9768574 28.9028235,37.4942378 28.6855196,37.1158135 C28.4682157,36.7334348 27.9885257,36.606107 27.6061182,36.8204289 L24.7167076,38.4729216 L20.3850633,35.9665026 L22.4948294,34.7604479 C22.8732822,34.5421717 23.0055628,34.0595521 22.7882589,33.6811277 C22.5729322,33.3007262 22.0912649,33.1733985 21.7088575,33.3857432 L18.7994763,35.0493079 L14.4690183,32.5436797 L16.59658,31.3267507 C16.9750328,31.1104517 17.1073134,30.6268436 16.8900095,30.2474306 C16.6746828,29.8690062 16.1930155,29.7377242 15.8106081,29.9540232 L12.8842222,31.6268804 L8.55297333,29.1198683 L10.6999124,27.8924605 C11.0783653,27.6761615 11.2106458,27.1925533 10.9933419,26.8131403 C10.7770266,26.4347159 10.2953593,26.3024453 9.9139405,26.5197329 L7.03263677,28.1674805 C7.03303222,28.1568039 7.03876636,28.1475114 7.03876636,28.1366371 L7.03876636,23.7515407 L35.7634189,40.1906599 L35.7634189,44.864814 L32.2169556,42.8127415 L34.2881645,41.6282376 C34.6687924,41.4097637 34.8000843,40.9271441 34.583769,40.5487197 Z M51.2291706,28.8369397 C50.5659833,28.8369397 50.0283638,28.4717967 50.0283638,28.0213699 C50.0283638,27.5709431 50.5659833,27.2058001 51.2291706,27.2058001 C51.8923579,27.2058001 52.4299775,27.5709431 52.4299775,28.0213699 C52.4299775,28.4717967 51.8923579,28.8369397 51.2291706,28.8369397 Z M33.3214685,21.8631754 C34.0586014,22.2912259 34.4285519,22.5053501 35.1749781,22.9332029 C32.1724666,25.0048491 31.8653938,25.3219822 29.0762317,27.1387751 C28.5854689,26.8625688 28.3373192,26.7225874 27.8335063,26.4374839 C29.138714,25.5669497 29.620579,25.2253001 30.6728916,24.4803141 C30.7968675,24.3923314 30.9421981,24.2922882 31.1098721,24.1788004 C31.2775462,24.0653127 31.7123517,23.7800115 32.5220511,23.2527086 C32.5066282,23.243416 32.4989168,23.2388686 32.483494,23.2293783 C29.907088,24.2015375 29.0173085,24.4391896 26.1834597,25.5003201 C25.6675853,25.2061218 25.4053969,25.0562547 24.8707383,24.7488096 C26.3699179,22.9158041 26.7548958,22.2038364 28.1123039,20.5535185 C28.0964856,20.5438306 28.0885764,20.5390854 28.0727581,20.5293974 C27.1230668,21.2101264 26.5249373,21.6381769 26.201453,21.8493354 C25.0730149,22.5854242 24.5231311,22.9464498 23.2222735,23.7968172 C22.6749603,23.479091 22.3961627,23.3165702 21.8253197,22.9824337 C24.6793369,21.1905527 25.6256668,20.6183687 28.3582785,18.9753663 C29.0952136,19.4008466 29.4616051,19.6141798 30.1945856,20.0410441 C28.6967902,21.7682727 28.2918416,22.4788564 27.0736346,24.1184977 C27.0847074,24.1250223 27.0900461,24.1281857 27.1009212,24.1345125 C29.6148449,23.2513246 30.4838628,23.0144633 33.3214685,21.8631754 Z M38.8867427,25.018689 C38.0469885,24.5586088 37.6337354,24.3278767 36.8155337,23.8668079 C33.6694712,25.9940117 33.4729288,26.2281049 30.6189116,28.0055528 C31.5251026,28.5136775 31.9693991,28.7620061 32.8568059,29.2594543 C33.5273042,29.6353084 34.2559347,29.8201709 35.0187723,29.8462691 C35.7818077,29.8723674 36.470497,29.7349562 37.0292785,29.4330471 C37.423352,29.2201092 37.6365036,29.0020308 37.6853426,28.7740667 C37.7343793,28.545114 37.5977488,28.2868997 37.2784168,28.0069368 C37.2944328,27.9974465 37.302342,27.9925037 37.318358,27.9830134 C37.6586492,28.124972 38.0315657,28.1817159 38.4448188,28.1451388 C38.8612356,28.1101434 39.2584728,27.9810363 39.6693532,27.7340916 C40.2746009,27.3701004 40.5798942,26.9295938 40.478657,26.4853307 C40.3770244,26.038695 39.8433545,25.5430263 38.8867427,25.018689 Z M35.7893214,28.5890065 C35.5172466,28.7471776 35.2206534,28.8189477 34.9112079,28.8033283 C34.6015646,28.7879067 34.2677984,28.6823274 33.9126776,28.482241 C33.5765386,28.2930288 33.4082714,28.1981261 33.0713416,28.0081231 C33.7206829,27.6091364 34.0030396,27.4298099 34.5853509,27.0533627 C34.9114056,27.2427726 35.0743341,27.3370821 35.4011798,27.5258989 C36.1387081,27.9515769 36.2796887,28.3042985 35.7893214,28.5890065 Z M38.05905,27.0414999 C37.7935002,27.2081727 37.5313119,27.2714411 37.2612144,27.244552 C36.9881509,27.2162789 36.6729713,27.0968598 36.3103367,26.8855036 C35.9997048,26.7042 35.8448832,26.613647 35.5358331,26.4319479 C36.0511143,26.09188 36.3156754,25.9151238 36.9221095,25.5123806 C37.2094094,25.6790534 37.3537515,25.762291 37.6432264,25.9287661 C38.0371021,26.1549508 38.269038,26.3603755 38.336068,26.5359454 C38.4042844,26.7138879 38.3068042,26.885899 38.05905,27.0414999 Z"/>
</svg>
