<svg xmlns="http://www.w3.org/2000/svg" width="60" height="60" viewBox="0 0 60 60">
  <path fill="#231F20" d="M13.597231,25.8877802 L29.3748404,35.252908 C29.5039118,35.3279844 29.6478213,35.3674451 29.7917309,35.3674451 C29.9325915,35.3674451 30.0726391,35.3298057 30.1996779,35.2567528 L46.1718091,26.0496701 C46.4218215,25.9053857 46.5767072,25.6396839 46.5787398,25.352127 C46.5787398,25.0645701 46.4258867,24.7978565 46.1777037,24.6515485 L30.3206188,15.3536051 C30.0665412,15.2083089 29.7559568,15.2024404 29.5008629,15.3505696 L13.6071908,24.4914799 C13.3579915,24.6347524 13.203309,24.8996448 13.2012764,25.1861899 C13.1992438,25.4737468 13.3500643,25.7404604 13.597231,25.8877802 Z M29.9037283,16.9878835 L44.1530101,25.3432231 L29.7976255,33.6186295 L15.619892,25.202986 L29.9037283,16.9878835 Z M57.5933088,37.8119824 L56.0568507,36.9286707 L56.0568507,35.0394157 C56.0568507,34.7488233 55.9001357,34.4800861 55.6460581,34.3358017 L55.194613,34.0790039 L55.5627206,33.8673329 C55.8147656,33.7230485 55.9696513,33.4543113 55.9696513,33.1657426 L55.9696513,25.3084167 L55.9688382,25.3084167 C55.9676187,25.0212646 55.8157819,24.7555628 55.5665826,24.6098619 L54.5760865,24.0315102 L55.082209,23.7492147 C55.4753179,23.5308658 55.6141459,23.0366969 55.3938098,22.647554 C55.1734737,22.2553758 54.6752783,22.1179717 54.2882673,22.3363207 L52.950193,23.0826331 L49.505104,21.071556 L49.9827699,20.7623463 C50.3598211,20.5182973 50.4671434,20.0172481 50.2209931,19.6418659 C49.9789079,19.2672931 49.4746147,19.1646954 49.0975635,19.4046972 L48.0495442,20.0834206 C48.0133636,20.1068946 47.9920211,20.142308 47.960922,20.1700316 L44.3971279,18.0897466 L44.8398327,17.8029991 C45.2168838,17.5589501 45.3242062,17.0579009 45.0780558,16.6825187 C44.8339381,16.3061247 44.3316775,16.2053482 43.9546263,16.44535 L42.9064037,17.1242757 C42.8814025,17.1404647 42.867784,17.1655577 42.8452219,17.1839726 L39.2877289,15.1073301 L39.6946596,14.8438543 C40.0717107,14.5998053 40.1790331,14.0987561 39.9328827,13.7233739 C39.688765,13.3469799 39.1844717,13.2462034 38.8094532,13.4862052 L37.7614339,14.1649285 C37.7480186,14.1736301 37.741311,14.1877955 37.7285054,14.1971042 L34.1785332,12.1249136 L34.5496897,11.8845071 C34.9267409,11.6404581 35.0340633,11.1394089 34.7879129,10.7640267 C34.5437951,10.3876327 34.0395019,10.2868562 33.6644834,10.526858 L32.6164641,11.2055814 C32.6146347,11.2067955 32.6138217,11.2088192 32.611789,11.2100333 L30.7285658,10.110801 C30.4775372,9.96449299 30.1657331,9.96267173 29.9116555,10.1077655 L28.4528436,10.9445339 L27.4471028,10.2935342 C27.0700516,10.0515088 26.5657584,10.157142 26.3216406,10.5307029 C26.0775229,10.9060851 26.1836257,11.4071343 26.5598638,11.6511833 L26.8704482,11.8523315 L23.3871459,13.8504574 L22.3893324,13.203505 C22.0122812,12.9574323 21.5100206,13.0661009 21.2648865,13.4396618 C21.0197524,13.8142346 21.1258553,14.3160932 21.5020934,14.5591304 L21.8071898,14.7568385 L18.3249038,16.7547621 L17.3319685,16.1114521 C16.9547141,15.8694267 16.4506241,15.9750599 16.2065063,16.3486208 C15.9623886,16.7231935 16.0684914,17.2250522 16.4447295,17.4691012 L16.742915,17.6623573 L13.2604257,19.6598761 L12.2731818,19.0214229 C11.8971469,18.7763621 11.3928537,18.8840188 11.1487359,19.2596034 C10.9046182,19.6341761 11.010721,20.135023 11.3879754,20.379072 L11.6790467,20.567269 L8.19716721,22.5645855 L7.21744397,21.9303818 C6.8393765,21.6883565 6.33711589,21.791966 6.09198182,22.1675505 C5.84786406,22.5429327 5.95396686,23.0439819 6.33020498,23.2880309 L6.61497516,23.472383 L4.81773182,24.5034193 C4.56771946,24.6477036 4.41283375,24.9123936 4.41080113,25.1999505 C4.41080113,25.2017718 4.4120207,25.2031883 4.4120207,25.2048072 L4.41059787,25.2048072 L4.41059787,33.0611212 C4.41059787,33.3476663 4.56141833,33.6125586 4.80858503,33.756843 L5.12709671,33.94504 L4.35287144,34.3853805 C4.09981014,34.5296649 3.94390813,34.7984021 3.94390813,35.0889944 L3.94390813,36.9782495 L2.40745004,37.8615612 C2.01840641,38.0849692 1.8844567,38.5809594 2.10865478,38.9682809 C2.25947524,39.2271024 2.53347253,39.3734104 2.81438073,39.3734104 C2.95239569,39.3734104 3.09224,39.3377946 3.2192788,39.2647418 L5.16266757,38.1481063 C5.41471256,38.0038219 5.56959826,37.7350847 5.56959826,37.446516 L5.56959826,35.5592846 L6.73672914,34.8953337 L9.80456376,36.7062744 L9.07302353,37.1225338 C8.81996223,37.2668182 8.66406021,37.5355554 8.66406021,37.8261478 L8.66406021,39.7154028 L7.12678908,40.5987145 C6.73774545,40.8239438 6.60481205,41.3181127 6.83002644,41.7054342 C6.98084691,41.9642557 7.25382788,42.1105637 7.53473608,42.1105637 C7.67275104,42.1105637 7.81259535,42.0749479 7.94065046,42.0018951 L9.88403924,40.8834383 C10.1350679,40.7371303 10.2899536,40.4704167 10.2899536,40.181848 L10.2899536,38.2966402 L11.4143995,37.6567705 L14.4824373,39.4677112 L13.7943952,39.8596871 C13.5413339,40.0039715 13.3854319,40.2727087 13.3854319,40.5633011 L13.3854319,42.4505325 L11.8481607,43.3338442 C11.4591171,43.5572522 11.3251674,44.0532424 11.5493655,44.4405639 C11.7001859,44.6993854 11.9741832,44.8456934 12.2550914,44.8456934 C12.3931064,44.8456934 12.5319344,44.8100776 12.6599895,44.7370248 L14.6041913,43.6203893 C14.8562363,43.4761049 15.011122,43.2073677 15.011122,42.918799 L15.011122,41.0335912 L16.0918665,40.4178025 L19.1601077,42.2289457 L18.5145473,42.5968404 C18.261486,42.7411248 18.105584,43.009862 18.105584,43.3004544 L18.105584,45.1876858 L16.5691259,46.0709975 C16.1800823,46.2944055 16.0461325,46.7903957 16.2703306,47.1777172 C16.4211511,47.4365387 16.6951484,47.5828467 16.9760566,47.5828467 C17.1140715,47.5828467 17.2539158,47.5472309 17.3809546,47.4741781 L19.3243434,46.3575426 C19.5763884,46.2132582 19.7312741,45.944521 19.7312741,45.6559523 L19.7312741,43.7707445 L20.7697401,43.1792393 L23.8363551,44.9893707 L23.2346994,45.3319701 C22.9816381,45.4762545 22.8257361,45.7449917 22.8257361,46.0355841 L22.8257361,47.9248391 L21.289278,48.8081508 C20.9002343,49.0315588 20.7662846,49.527549 20.9904827,49.9148706 C21.1413032,50.173692 21.4153005,50.32 21.6962087,50.32 C21.8342236,50.32 21.9740679,50.2843842 22.1011067,50.2113314 L24.0444955,49.0946959 C24.2965405,48.9504115 24.4514262,48.6816743 24.4514262,48.3931056 L24.4514262,46.5052671 L25.4459876,45.9392596 L29.531962,48.3510142 C29.6600171,48.4260907 29.8029103,48.4655513 29.9468199,48.4655513 C30.0866642,48.4655513 30.2277281,48.4279119 30.3537506,48.3568827 L34.6000987,45.9161903 L35.5475033,46.4558907 L35.5475033,48.3410985 C35.5475033,48.6296672 35.702389,48.8984044 35.954434,49.0426888 L37.8978228,50.1593243 C38.0268942,50.2323771 38.1657222,50.2679929 38.3047535,50.2679929 C38.5846453,50.2679929 38.8586426,50.1216849 39.0094631,49.8628634 C39.2338644,49.4755419 39.1007278,48.9795517 38.7116841,48.7561437 L37.1752261,47.872832 L37.1752261,45.9856006 C37.1752261,45.6950082 37.018511,45.426271 36.7644334,45.2819866 L36.2316835,44.9784431 L39.3411868,43.1911787 L40.2680619,43.7187374 L40.2680619,45.6059688 C40.2680619,45.8945375 40.4229476,46.1632747 40.6749926,46.3075591 L42.6183814,47.4241946 C42.7474528,47.4972474 42.8862808,47.5328632 43.0253121,47.5328632 C43.305204,47.5328632 43.5792012,47.3865552 43.7300217,47.1277337 C43.954423,46.7404122 43.8212864,46.244422 43.4322428,46.021014 L41.8957847,45.1377023 L41.8957847,43.2484473 C41.8957847,42.9578549 41.7390696,42.6891177 41.484992,42.5448333 L40.9727716,42.2534315 L44.0824782,40.4659648 L44.9884173,40.9817864 L44.9884173,42.8690178 C44.9884173,43.1575866 45.143303,43.4263238 45.395348,43.5706081 L47.3387367,44.6872436 C47.4678081,44.7602965 47.6066362,44.7959122 47.7456674,44.7959122 C48.0255593,44.7959122 48.2995566,44.6496042 48.4503771,44.3907828 C48.6747784,44.0034612 48.5416417,43.5074711 48.1525981,43.284063 L46.61614,42.4007513 L46.61614,40.5114963 C46.61614,40.2209039 46.459425,39.9521667 46.2053474,39.8078824 L45.7140629,39.5282176 L48.8223467,37.7415603 L49.7087726,38.2466567 L49.7087726,40.1318645 C49.7087726,40.4204332 49.8636583,40.6891705 50.1157033,40.8334548 L52.0590921,41.9500903 C52.1881635,42.0231431 52.3269915,42.0587589 52.4660228,42.0587589 C52.7459147,42.0587589 53.0199119,41.9124509 53.1707324,41.6536295 C53.3951337,41.2663079 53.2619971,40.7703178 52.8729535,40.5469097 L51.3364954,39.663598 L51.3364954,37.7763666 C51.3364954,37.4857743 51.1797803,37.217037 50.9257027,37.0727527 L50.4537281,36.8038131 L53.5632315,35.0165487 L54.429128,35.5095034 L54.429128,37.3947112 C54.429128,37.6832799 54.5840137,37.9499935 54.8360587,38.0963015 L56.7794474,39.2147583 C56.9085189,39.2878111 57.0473469,39.3234269 57.1863781,39.3234269 C57.46627,39.3234269 57.7402673,39.1771189 57.8910878,38.9182974 C58.1152858,38.5313806 57.9823524,38.0374141 57.5933088,37.8119824 Z M30.3137079,11.7460912 L52.5347254,24.7169116 C52.5353351,24.7173163 52.5361482,24.717721 52.536758,24.7179234 L53.5400596,25.3035601 L29.9525112,38.8592076 L6.83429494,25.214723 L30.3137079,11.7460912 Z M28.4170694,43.3158339 C28.1936844,42.9264887 27.7005706,42.7961674 27.3074617,43.0135045 L25.4598094,44.0651817 L22.3923813,42.2546457 L23.3950731,41.6833767 C23.7851331,41.4599687 23.9200991,40.9660022 23.6967141,40.5786806 C23.4733291,40.1873118 22.97615,40.0569904 22.5871064,40.2763512 L20.7825456,41.3045544 L17.7143045,39.4936136 L18.6747178,38.9464258 C19.0647777,38.7230177 19.1997438,38.2290512 18.9763587,37.8417297 C18.75399,37.4503608 18.256811,37.3238844 17.866751,37.5394003 L16.1044688,38.5435223 L13.0374472,36.7331886 L13.9543624,36.2114985 C14.3434061,35.9880904 14.4793884,35.4941239 14.2560034,35.1068023 C14.034651,34.7174571 13.5395045,34.5851122 13.1463957,34.804473 L11.427205,35.782895 L8.35937035,33.9721566 L9.23421036,33.4745475 C9.62325398,33.2511395 9.75923632,32.7571729 9.53585129,32.3698514 C9.31348257,31.9805062 8.81731983,31.844114 8.42624358,32.0685338 L6.74994118,33.0218629 L6.03649127,32.6007468 L6.03649127,26.6259981 L29.1347878,40.2587457 L29.1347878,46.2341015 L27.0700516,45.0154754 L28.1154285,44.4205301 C28.5044721,44.197122 28.6404545,43.7031555 28.4170694,43.3158339 Z M48.8197043,35.873351 L46.8525338,34.7528706 C46.4634902,34.5335098 45.9652948,34.6640335 45.7429261,35.0551999 C45.5205574,35.4425215 45.6555234,35.936488 46.0465997,36.1598961 L47.1887293,36.8106934 L44.0790227,38.5977554 L42.1321785,37.4898215 C41.7451675,37.2724843 41.2469721,37.4009844 41.0225708,37.7921509 C40.800202,38.1794724 40.9351681,38.673439 41.3262443,38.896847 L42.4478445,39.5353003 L39.3375281,41.322767 L37.4118231,40.2267725 C37.0227795,40.0094353 36.5266168,40.1379354 36.3022154,40.5291018 C36.0798467,40.9164234 36.2148127,41.4103899 36.605889,41.633798 L37.7061466,42.2603118 L34.5968465,44.0471715 L32.6914678,42.9619021 C32.3044568,42.7465886 31.8052451,42.8730651 31.5828764,43.2642315 C31.3594913,43.6515531 31.4944574,44.1455196 31.8845173,44.3689277 L32.9656683,44.9847163 L30.7600715,46.2523142 L30.7600715,40.2664355 L54.3417253,26.7109903 L54.3417253,32.699702 L53.5595728,33.1491488 L51.5726859,32.018955 C51.1836423,31.7965588 50.6874795,31.930118 50.4630782,32.3202726 C50.2407095,32.7075942 50.3756755,33.2015607 50.7667518,33.4249687 L51.9288011,34.0864913 L48.8197043,35.873351 Z M30.2462249,30.6562469 L38.4482565,25.9282527 C38.6982688,25.7839683 38.8531546,25.5182665 38.8551872,25.2307096 C38.8551872,24.9431527 38.7023341,24.6764391 38.4541511,24.5301311 L30.3116753,19.7566053 C30.058614,19.6102974 29.7459969,19.6064525 29.4919193,19.7535699 L21.3307434,24.4469602 C21.0815441,24.5902327 20.9268617,24.8551251 20.9248291,25.1416702 C20.9227964,25.4292271 21.0736169,25.6959407 21.3217999,25.8432605 L29.42342,30.6513902 C29.5514751,30.7274784 29.6953847,30.7651178 29.8392942,30.7651178 C29.9801548,30.7649155 30.1202024,30.7284903 30.2462249,30.6562469 Z M23.3444609,25.1584662 L29.894988,21.3908838 L36.4294575,25.2218057 L29.8451888,29.0171118 L23.3444609,25.1584662 Z"/>
</svg>
