<?xml version="1.0" encoding="utf-8"?>
<!-- Generator: Adobe Illustrator 21.0.0, SVG Export Plug-In . SVG Version: 6.00 Build 0)  -->
<svg version="1.1" id="Layer_1" xmlns="http://www.w3.org/2000/svg" xmlns:xlink="http://www.w3.org/1999/xlink" x="0px" y="0px"
	 viewBox="0 0 60 60" style="enable-background:new 0 0 60 60;" xml:space="preserve">
<path d="M49.291,9.5h-20.94l-5-4H10.708c-2.229,0-4.042,1.813-4.042,4.041v29.75c0,2.229,1.813,4.042,4.042,4.042h17.875v4.25
	c0,0.027,0.013,0.049,0.015,0.075c-1.129,0.334-2.013,1.215-2.352,2.342H9.167c-0.552,0-1,0.447-1,1s0.448,1,1,1h17.08
	c0.434,1.441,1.757,2.5,3.337,2.5s2.903-1.059,3.337-2.5h17.413c0.553,0,1-0.447,1-1s-0.447-1-1-1H32.92
	c-0.339-1.127-1.223-2.008-2.352-2.342c0.002-0.026,0.015-0.049,0.015-0.075v-4.25h18.708c2.229,0,4.042-1.813,4.042-4.042v-25.75
	C53.333,11.313,51.52,9.5,49.291,9.5z M31.083,51c0,0.827-0.673,1.5-1.5,1.5s-1.5-0.673-1.5-1.5s0.673-1.5,1.5-1.5
	S31.083,50.173,31.083,51z M49.291,41.333H10.708c-1.125,0-2.042-0.916-2.042-2.042V9.541c0-1.125,0.916-2.041,2.042-2.041H22.65
	l5,4h21.642c1.126,0,2.042,0.916,2.042,2.041v20.042H23.5c-0.553,0-1,0.447-1,1s0.447,1,1,1h27.833v3.708
	C51.333,40.417,50.417,41.333,49.291,41.333z"/>
</svg>
