<?xml version="1.0" encoding="utf-8"?>
<!-- Generator: Adobe Illustrator 21.0.0, SVG Export Plug-In . SVG Version: 6.00 Build 0)  -->
<svg version="1.1" id="Layer_1" xmlns="http://www.w3.org/2000/svg" xmlns:xlink="http://www.w3.org/1999/xlink" x="0px" y="0px"
	 viewBox="0 0 30 30" style="enable-background:new 0 0 30 30;" xml:space="preserve">
<style type="text/css">
	.st0{display:none;opacity:0.2;}
	.st1{display:inline;fill:none;stroke:#00ADEE;stroke-width:0.125;stroke-miterlimit:10;}
	.st2{fill:#231F20;}
</style>
<g class="st0">
	<path class="st1" d="M-15.4-16.6"/>
	<line class="st1" x1="-13.1" y1="47.2" x2="-13.1" y2="-16.4"/>
	<line class="st1" x1="-10.9" y1="47.4" x2="-10.9" y2="-16.6"/>
	<line class="st1" x1="-8.6" y1="47" x2="-8.6" y2="-16.3"/>
	<line class="st1" x1="-6.4" y1="47.7" x2="-6.4" y2="-16.7"/>
	<line class="st1" x1="-4.1" y1="47.4" x2="-4.1" y2="-16.5"/>
	<line class="st1" x1="-1.9" y1="47.5" x2="-1.9" y2="-16.6"/>
	<line class="st1" x1="0.4" y1="47.4" x2="0.4" y2="-16.6"/>
	<line class="st1" x1="2.6" y1="47.5" x2="2.6" y2="-16.9"/>
	<line class="st1" x1="4.9" y1="47.2" x2="4.9" y2="-16.7"/>
	<line class="st1" x1="7.1" y1="47.3" x2="7.1" y2="-16.9"/>
	<line class="st1" x1="9.4" y1="47.1" x2="9.4" y2="-16.5"/>
	<line class="st1" x1="11.6" y1="47.3" x2="11.6" y2="-16.5"/>
	<line class="st1" x1="13.9" y1="47.3" x2="13.9" y2="-16.5"/>
	<line class="st1" x1="16.1" y1="47.1" x2="16.1" y2="-16.5"/>
	<line class="st1" x1="18.4" y1="47.1" x2="18.4" y2="-16.4"/>
	<line class="st1" x1="20.6" y1="47.4" x2="20.6" y2="-16.6"/>
	<line class="st1" x1="22.9" y1="47.2" x2="22.9" y2="-16.6"/>
	<line class="st1" x1="25.1" y1="47.5" x2="25.1" y2="-16.5"/>
	<line class="st1" x1="27.4" y1="47.3" x2="27.4" y2="-16.4"/>
	<line class="st1" x1="29.6" y1="47.1" x2="29.6" y2="-16.5"/>
	<line class="st1" x1="31.9" y1="47.2" x2="31.9" y2="-16.5"/>
	<line class="st1" x1="34.1" y1="47.1" x2="34.1" y2="-16.5"/>
	<line class="st1" x1="36.4" y1="46.9" x2="36.4" y2="-16.6"/>
	<line class="st1" x1="38.6" y1="47.2" x2="38.6" y2="-16.8"/>
	<line class="st1" x1="40.9" y1="47.2" x2="40.9" y2="-16.6"/>
	<line class="st1" x1="43.1" y1="47.5" x2="43.1" y2="-16.6"/>
	<line class="st1" x1="-14.3" y1="47.2" x2="-16.5" y2="45.9"/>
	<line class="st1" x1="-9.9" y1="47.1" x2="-16.5" y2="43.3"/>
	<line class="st1" x1="-5" y1="47.3" x2="-16.6" y2="40.7"/>
	<line class="st1" x1="-0.4" y1="47.4" x2="-16.6" y2="38"/>
	<line class="st1" x1="3.9" y1="47.3" x2="-16.5" y2="35.5"/>
	<line class="st1" x1="8.2" y1="47.2" x2="-16.5" y2="32.9"/>
	<line class="st1" x1="12.7" y1="47.2" x2="-16.5" y2="30.3"/>
	<line class="st1" x1="17" y1="47.1" x2="-16.5" y2="27.7"/>
	<line class="st1" x1="21.7" y1="47.2" x2="-16.5" y2="25.1"/>
	<line class="st1" x1="26.3" y1="47.2" x2="-16.6" y2="22.4"/>
	<line class="st1" x1="30.8" y1="47.2" x2="-16.6" y2="19.9"/>
	<line class="st1" x1="35.1" y1="47.1" x2="-16.6" y2="17.3"/>
	<line class="st1" x1="39.7" y1="47.2" x2="-16.6" y2="14.7"/>
	<line class="st1" x1="44.4" y1="47.3" x2="-16.6" y2="12"/>
	<line class="st1" x1="46.5" y1="45.9" x2="-16.5" y2="9.5"/>
	<line class="st1" x1="46.8" y1="43.4" x2="-16.5" y2="7"/>
	<line class="st1" x1="46.5" y1="40.7" x2="-16.5" y2="4.3"/>
	<line class="st1" x1="46.6" y1="38.2" x2="-16.6" y2="1.7"/>
	<line class="st1" x1="46.5" y1="35.5" x2="-16.5" y2="-0.8"/>
	<line class="st1" x1="46.7" y1="33" x2="-16.5" y2="-3.4"/>
	<line class="st1" x1="46.5" y1="30.3" x2="-16.4" y2="-6"/>
	<line class="st1" x1="46.5" y1="27.7" x2="-16.4" y2="-8.6"/>
	<polyline class="st1" points="46.6,25.2 -16.1,-11 -16.5,-11.3 	"/>
	<polyline class="st1" points="46.5,22.5 -16.2,-13.7 -17.1,-14.2 	"/>
	<polyline class="st1" points="46.5,19.9 -15,-15.6 -16.8,-16.6 	"/>
	<line class="st1" x1="46.4" y1="17.2" x2="-12.1" y2="-16.5"/>
	<line class="st1" x1="46.5" y1="14.7" x2="-7.5" y2="-16.5"/>
	<line class="st1" x1="46.5" y1="12.1" x2="-3" y2="-16.5"/>
	<line class="st1" x1="46.5" y1="9.5" x2="1.2" y2="-16.6"/>
	<line class="st1" x1="46.4" y1="6.8" x2="5.7" y2="-16.7"/>
	<line class="st1" x1="46.6" y1="4.4" x2="10.5" y2="-16.5"/>
	<line class="st1" x1="46.6" y1="1.8" x2="15.1" y2="-16.4"/>
	<line class="st1" x1="46.4" y1="-0.9" x2="19.6" y2="-16.4"/>
	<line class="st1" x1="46.6" y1="-3.4" x2="23.9" y2="-16.5"/>
	<line class="st1" x1="46.4" y1="-6.1" x2="28.4" y2="-16.5"/>
	<line class="st1" x1="46.6" y1="-8.6" x2="33.1" y2="-16.4"/>
	<line class="st1" x1="46.6" y1="-11.2" x2="37.2" y2="-16.6"/>
	<line class="st1" x1="46.6" y1="-13.8" x2="41.9" y2="-16.5"/>
	<path class="st1" d="M46.5-16.4"/>
	<path class="st1" d="M-72.8-106.1"/>
	<path class="st1" d="M-71.6-108"/>
	<path class="st1" d="M-70.5-110"/>
	<path class="st1" d="M-69.4-111.9"/>
	<path class="st1" d="M-68.3-113.9"/>
	<path class="st1" d="M-67.1-115.8"/>
	<path class="st1" d="M-66-117.8"/>
	<path class="st1" d="M-64.9-119.7"/>
	<path class="st1" d="M-63.8-121.7"/>
	<path class="st1" d="M46.6,47.1"/>
	<line class="st1" x1="41.8" y1="47.3" x2="46.5" y2="44.6"/>
	<line class="st1" x1="37.8" y1="47" x2="46.7" y2="41.9"/>
	<line class="st1" x1="33.2" y1="47.1" x2="46.6" y2="39.3"/>
	<line class="st1" x1="28.7" y1="47.1" x2="46.6" y2="36.8"/>
	<line class="st1" x1="24" y1="47.2" x2="46.6" y2="34.2"/>
	<line class="st1" x1="19.7" y1="47.1" x2="46.6" y2="31.5"/>
	<line class="st1" x1="15.3" y1="47" x2="46.6" y2="28.9"/>
	<line class="st1" x1="10.4" y1="47.3" x2="46.6" y2="26.4"/>
	<line class="st1" x1="6.1" y1="47.1" x2="46.5" y2="23.8"/>
	<line class="st1" x1="1.3" y1="47.3" x2="46.6" y2="21.1"/>
	<line class="st1" x1="-3.2" y1="47.3" x2="46.4" y2="18.7"/>
	<line class="st1" x1="-8.1" y1="47.5" x2="46.6" y2="16"/>
	<line class="st1" x1="-11.8" y1="47.1" x2="46.4" y2="13.5"/>
	<line class="st1" x1="-16.6" y1="47.3" x2="46.5" y2="10.8"/>
	<line class="st1" x1="-16.6" y1="44.7" x2="46.6" y2="8.2"/>
	<line class="st1" x1="-16.4" y1="41.9" x2="46.5" y2="5.6"/>
	<line class="st1" x1="-16.5" y1="39.4" x2="46.7" y2="2.9"/>
	<line class="st1" x1="-16.4" y1="36.7" x2="46.5" y2="0.4"/>
	<line class="st1" x1="-16.4" y1="34.2" x2="46.6" y2="-2.2"/>
	<line class="st1" x1="-16.6" y1="31.6" x2="46.6" y2="-4.8"/>
	<line class="st1" x1="-16.7" y1="29.1" x2="46.5" y2="-7.4"/>
	<line class="st1" x1="-16.5" y1="26.4" x2="46.5" y2="-10"/>
	<line class="st1" x1="-16.5" y1="23.8" x2="46.7" y2="-12.7"/>
	<line class="st1" x1="-16.7" y1="21.3" x2="46.7" y2="-15.2"/>
	<line class="st1" x1="-16.5" y1="18.6" x2="44.3" y2="-16.5"/>
	<line class="st1" x1="-16.6" y1="16.1" x2="40.1" y2="-16.7"/>
	<line class="st1" x1="-16.5" y1="13.4" x2="35.5" y2="-16.6"/>
	<line class="st1" x1="-16.5" y1="10.8" x2="31" y2="-16.6"/>
	<line class="st1" x1="-16.6" y1="8.3" x2="26.4" y2="-16.5"/>
	<line class="st1" x1="-16.6" y1="5.7" x2="21.7" y2="-16.4"/>
	<line class="st1" x1="-16.5" y1="3" x2="17.3" y2="-16.5"/>
	<line class="st1" x1="-16.5" y1="0.4" x2="13" y2="-16.6"/>
	<line class="st1" x1="-16.5" y1="-2.1" x2="8.5" y2="-16.6"/>
	<line class="st1" x1="-16.4" y1="-4.8" x2="4" y2="-16.6"/>
	<polyline class="st1" points="-16.6,-7.3 -16,-7.7 -0.4,-16.7 	"/>
	<line class="st1" x1="-16.7" y1="-9.8" x2="-5.1" y2="-16.6"/>
	<line class="st1" x1="-16.3" y1="-12.7" x2="-10.1" y2="-16.3"/>
	<path class="st1" d="M-14.2-16.5"/>
</g>
<g>
	<path class="st2" d="M19.5,12.1c0-0.1,0-0.1,0-0.2c0,0,0,0,0,0c0,0-0.1-0.1-0.1-0.1c0,0,0,0,0,0L18,11l0.7-0.4
		c0.2-0.1,0.2-0.4,0.1-0.6c-0.1-0.2-0.4-0.2-0.6-0.1l-1.1,0.7l-1.8-1l0.7-0.4c0.2-0.1,0.3-0.4,0.1-0.5c-0.1-0.2-0.4-0.3-0.5-0.1
		l-1.1,0.7l-1.7-1c-0.1-0.1-0.3-0.1-0.4,0l-9,5.2c0,0,0,0,0,0c0,0-0.1,0.1-0.1,0.1c0,0,0,0,0,0c0,0.1,0,0.1,0,0.2c0,0,0,0,0,0
		c0,0,0,0,0,0c0,0,0,0,0,0v2.9c0,0.1,0,0.2,0.1,0.3c0,0.1,0,0.3,0.1,0.4l-0.6,0.4c-0.1,0.1-0.2,0.2-0.2,0.3v1.3l-1,0.6
		c-0.2,0.1-0.3,0.4-0.1,0.5c0.1,0.1,0.2,0.2,0.3,0.2c0.1,0,0.1,0,0.2-0.1l1.2-0.7c0.1-0.1,0.2-0.2,0.2-0.3v-1.3l0.8-0.5l1.7,1
		l-0.6,0.3c-0.1,0.1-0.2,0.2-0.2,0.3v1.3l-1,0.6C4,21.2,4,21.5,4.1,21.7c0.1,0.1,0.2,0.2,0.3,0.2c0.1,0,0.1,0,0.2-0.1l1.2-0.7
		C6,21,6,20.9,6,20.7v-1.3L6.9,19l3.1,1.8c0,0,0,0,0,0c0.1,0,0.1,0,0.2,0c0.1,0,0.1,0,0.2-0.1c0,0,0,0,0,0l8.9-5.4c0,0,0,0,0,0
		c0,0,0,0,0.1-0.1c0,0,0,0,0-0.1c0,0,0,0,0-0.1c0,0,0,0,0-0.1c0,0,0,0,0,0L19.5,12.1C19.5,12.1,19.5,12.1,19.5,12.1
		C19.5,12.1,19.5,12.1,19.5,12.1C19.5,12.1,19.5,12.1,19.5,12.1z M18.7,14.8l-8.1,4.9v-2.2l8.1-4.8V14.8z M12.7,8.9l5.6,3.3
		l-8.1,4.8l-5.7-3.3L12.7,8.9z M8.6,17.6c-0.1-0.2-0.4-0.3-0.5-0.1l-1.2,0.7l-1.7-1l0.7-0.4c0.2-0.1,0.3-0.4,0.1-0.5
		C5.9,16,5.7,15.9,5.5,16l-1.1,0.7l-0.2-0.1c0,0,0,0,0,0v-2.2l5.7,3.3v2.2l-2.1-1.2l0.7-0.4C8.6,18,8.7,17.8,8.6,17.6z"/>
	<path class="st2" d="M10.5,15.9c0.1,0,0.1,0,0.2-0.1l5.3-3.1c0.1-0.1,0.2-0.2,0.2-0.3c0-0.1-0.1-0.3-0.2-0.3l-3.8-2.2
		c-0.1-0.1-0.3-0.1-0.4,0l-5.4,3.1c-0.1,0.1-0.2,0.2-0.2,0.3s0.1,0.3,0.2,0.3l3.9,2.3C10.4,15.8,10.5,15.9,10.5,15.9z M12.1,10.6
		l3,1.8L10.5,15l-3.1-1.8L12.1,10.6z"/>
	<path class="st2" d="M27.7,11.6V7.5c0-1.1-1.5-2.4-3.3-2.4S21,6.4,21,7.5v4.1c-0.4,0.3-0.7,0.7-0.8,1.1c0,0.1-0.1,0.1-0.1,0.2v2.4
		c0,0.1,0,0.2,0.1,0.2c0.2,0.7,1,1.3,2,1.6v7.3c0,0.2,0.2,0.4,0.4,0.4s0.4-0.2,0.4-0.4v-7.1c0.4,0.1,0.8,0.1,1.3,0.1
		c0.5,0,0.9,0,1.3-0.1v7.3c0,0.2,0.2,0.4,0.4,0.4s0.4-0.2,0.4-0.4v-7.5c1.3-0.4,2.1-1.2,2.1-2.1v-2C28.5,12.5,28.2,12,27.7,11.6z
		 M24.3,14.2c1.6,0,2.9-0.7,3.3-1.6c0.1,0.1,0.1,0.2,0.1,0.4c0,0.8-1.4,1.6-3.4,1.6c-2,0-3.4-0.8-3.4-1.6c0-0.1,0.1-0.3,0.1-0.4
		C21.4,13.6,22.8,14.2,24.3,14.2z M21.8,7.5c0-0.6,1.1-1.6,2.5-1.6c1.5,0,2.5,1.1,2.5,1.6v4.8c0,0,0,0,0,0s0,0,0,0
		c0,0.6-1.1,1.2-2.5,1.2c-1.4,0-2.5-0.6-2.5-1.2V7.5z M24.4,16.6c-2,0-3.4-0.8-3.4-1.6v-0.6c0.8,0.6,2,1,3.4,1c1.4,0,2.6-0.4,3.4-1
		V15C27.7,15.8,26.3,16.6,24.4,16.6z"/>
</g>
</svg>
