<svg xmlns="http://www.w3.org/2000/svg" width="60" height="60" viewBox="0 0 60 60">
  <path fill="#231F20" d="M39.3395652,22.4221106 C39.3395652,22.2160804 39.3395652,22.2160804 39.3395652,22.0100503 C39.3395652,22.0100503 39.3395652,22.0100503 39.3395652,22.0100503 C39.3395652,22.0100503 39.1322271,21.8040201 39.1322271,21.8040201 C39.1322271,21.8040201 39.1322271,21.8040201 39.1322271,21.8040201 L36.2294928,20.1557789 L37.6808599,19.3316583 C38.0955362,19.1256281 38.0955362,18.5075377 37.8881981,18.0954774 C37.6808599,17.6834171 37.0588454,17.6834171 36.6441691,17.8894472 L34.3634493,19.3316583 L30.6313623,17.2713568 L32.0827295,16.4472362 C32.4974058,16.241206 32.704744,15.6231156 32.2900676,15.4170854 C32.0827295,15.0050251 31.460715,14.798995 31.2533768,15.2110553 L28.972657,16.6532663 L25.4479082,14.5929648 C25.2405701,14.3869347 24.8258937,14.3869347 24.6185556,14.5929648 L5.95812079,25.3065327 C5.95812079,25.3065327 5.95812079,25.3065327 5.95812079,25.3065327 C5.95812079,25.3065327 5.75078263,25.5125628 5.75078263,25.5125628 C5.75078263,25.5125628 5.75078263,25.5125628 5.75078263,25.5125628 C5.75078263,25.718593 5.75078263,25.718593 5.75078263,25.9246231 C5.75078263,25.9246231 5.75078263,25.9246231 5.75078263,25.9246231 C5.75078263,25.9246231 5.75078263,25.9246231 5.75078263,25.9246231 C5.75078263,25.9246231 5.75078263,25.9246231 5.75078263,25.9246231 L5.75078263,31.8994975 C5.75078263,32.1055276 5.75078263,32.3115578 5.95812079,32.5175879 C5.95812079,32.7236181 5.95812079,33.1356784 6.16545895,33.3417085 L4.92142997,34.1658291 C4.7140918,34.3718593 4.50675364,34.5778894 4.50675364,34.7839196 L4.50675364,37.4623116 L2.433372,38.6984925 C2.01869567,38.9045226 1.81135751,39.5226131 2.22603383,39.7286432 C2.433372,39.9346734 2.64071016,40.1407035 2.84804833,40.1407035 C3.05538649,40.1407035 3.05538649,40.1407035 3.26272466,39.9346734 L5.75078263,38.4924623 C5.95812079,38.2864322 6.16545895,38.080402 6.16545895,37.8743719 L6.16545895,35.1959799 L7.82416427,34.1658291 L11.3489131,36.2261307 L10.1048841,36.8442211 C9.89754591,37.0502513 9.69020775,37.2562814 9.69020775,37.4623116 L9.69020775,40.1407035 L7.6168261,41.3768844 C7.20214978,41.1708543 7.20214978,41.7889447 7.40948794,42.201005 C7.6168261,42.4070352 7.82416427,42.6130653 8.03150243,42.6130653 C8.2388406,42.6130653 8.2388406,42.6130653 8.44617876,42.4070352 L10.9342367,40.9648241 C11.3489131,40.758794 11.3489131,40.5527638 11.3489131,40.1407035 L11.3489131,37.4623116 L13.2149565,36.638191 L19.6424396,40.3467337 C19.6424396,40.3467337 19.6424396,40.3467337 19.6424396,40.3467337 C19.8497778,40.3467337 19.8497778,40.3467337 20.057116,40.3467337 C20.2644541,40.3467337 20.2644541,40.3467337 20.4717923,40.1407035 C20.4717923,40.1407035 20.4717923,40.1407035 20.4717923,40.1407035 L38.9248889,29.0150754 C38.9248889,29.0150754 38.9248889,29.0150754 38.9248889,29.0150754 C38.9248889,29.0150754 38.9248889,29.0150754 39.1322271,28.8090452 C39.1322271,28.8090452 39.1322271,28.8090452 39.1322271,28.6030151 C39.1322271,28.6030151 39.1322271,28.6030151 39.1322271,28.3969849 C39.1322271,28.3969849 39.1322271,28.3969849 39.1322271,28.1909548 C39.1322271,28.1909548 39.1322271,28.1909548 39.1322271,28.1909548 L39.3395652,22.4221106 C39.3395652,22.4221106 39.3395652,22.4221106 39.3395652,22.4221106 C39.3395652,22.4221106 39.3395652,22.4221106 39.3395652,22.4221106 C39.3395652,22.4221106 39.3395652,22.4221106 39.3395652,22.4221106 Z M37.6808599,27.9849246 L20.8864686,38.080402 L20.8864686,33.5477387 L37.6808599,23.6582915 L37.6808599,27.9849246 Z M25.2405701,15.8291457 L36.8515073,22.6281407 L20.057116,32.5175879 L8.2388406,25.718593 L25.2405701,15.8291457 Z M16.7397053,33.7537688 C16.5323672,33.3417085 15.9103527,33.1356784 15.7030145,33.5477387 L13.2149565,34.9899497 L9.69020775,32.9296482 L11.1415749,32.1055276 C11.5562512,31.8994975 11.7635894,31.281407 11.3489131,31.0753769 C11.1415749,30.4572864 10.7268986,30.2512563 10.3122222,30.4572864 L8.03150243,31.8994975 L7.6168261,31.6934673 C7.6168261,31.6934673 7.6168261,31.6934673 7.6168261,31.6934673 L7.6168261,27.160804 L19.4351015,33.959799 L19.4351015,38.4924623 L15.081,36.0201005 L16.5323672,35.1959799 C16.7397053,34.5778894 16.9470435,34.1658291 16.7397053,33.7537688 Z M20.6791304,30.2512563 C20.8864686,30.2512563 20.8864686,30.2512563 21.0938068,30.0452261 L32.0827295,23.6582915 C32.2900676,23.4522613 32.4974058,23.2462312 32.4974058,23.040201 C32.4974058,22.8341709 32.2900676,22.4221106 32.0827295,22.4221106 L24.2038792,17.8894472 C23.9965411,17.6834171 23.5818647,17.6834171 23.3745266,17.8894472 L12.1782657,24.2763819 C11.9709276,24.4824121 11.7635894,24.6884422 11.7635894,24.8944724 C11.7635894,25.1005025 11.9709276,25.5125628 12.1782657,25.5125628 L20.2644541,30.2512563 C20.4717923,30.0452261 20.6791304,30.2512563 20.6791304,30.2512563 Z M23.9965411,19.3316583 L30.216686,23.040201 L20.6791304,28.3969849 L14.2516474,24.6884422 L23.9965411,19.3316583 Z M56.3412947,21.3919598 L56.3412947,12.9447236 C56.3412947,10.678392 53.2312222,8 49.4991353,8 C45.7670483,8 42.4496377,10.678392 42.4496377,12.9447236 L42.4496377,21.3919598 C41.620285,22.0100503 40.9982705,22.8341709 40.7909324,23.6582915 C40.7909324,23.8643216 40.5835942,23.8643216 40.5835942,24.0703518 L40.5835942,29.0150754 C40.5835942,29.2211055 40.5835942,29.4271357 40.7909324,29.4271357 C41.2056087,30.8693467 42.864314,32.1055276 44.9376957,32.7236181 L44.9376957,47.7638191 C44.9376957,48.1758794 45.352372,48.5879397 45.7670483,48.5879397 C46.1817246,48.5879397 46.596401,48.1758794 46.596401,47.7638191 L46.596401,33.1356784 C47.4257536,33.3417085 48.2551063,33.3417085 49.2917971,33.3417085 C50.3284879,33.3417085 51.1578406,33.3417085 51.9871932,33.1356784 L51.9871932,48.1758794 C51.9871932,48.5879397 52.4018696,49 52.8165459,49 C53.2312222,49 53.6458986,48.5879397 53.6458986,48.1758794 L53.6458986,32.7236181 C56.3412947,31.8994975 58,30.2512563 58,28.3969849 L58,24.2763819 C58,23.2462312 57.3779855,22.2160804 56.3412947,21.3919598 Z M49.2917971,26.7487437 C52.6092077,26.7487437 55.3046039,25.3065327 56.1339565,23.4522613 C56.3412947,23.6582915 56.3412947,23.8643216 56.3412947,24.2763819 C56.3412947,25.9246231 53.4385604,27.5728643 49.2917971,27.5728643 C45.1450338,27.5728643 42.2422995,25.9246231 42.2422995,24.2763819 C42.2422995,24.0703518 42.4496377,23.6582915 42.4496377,23.4522613 C43.2789903,25.5125628 46.1817246,26.7487437 49.2917971,26.7487437 Z M44.108343,12.9447236 C44.108343,11.7085427 46.3890628,9.64824121 49.2917971,9.64824121 C52.4018696,9.64824121 54.4752512,11.9145729 54.4752512,12.9447236 L54.4752512,22.8341709 C54.4752512,22.8341709 54.4752512,22.8341709 54.4752512,22.8341709 C54.4752512,22.8341709 54.4752512,22.8341709 54.4752512,22.8341709 C54.4752512,24.0703518 52.1945314,25.3065327 49.2917971,25.3065327 C46.3890628,25.3065327 44.108343,24.0703518 44.108343,22.8341709 L44.108343,12.9447236 Z M49.4991353,31.6934673 C45.352372,31.6934673 42.4496377,30.0452261 42.4496377,28.3969849 L42.4496377,27.160804 C44.108343,28.3969849 46.596401,29.2211055 49.4991353,29.2211055 C52.4018696,29.2211055 54.8899275,28.3969849 56.5486329,27.160804 L56.5486329,28.3969849 C56.3412947,30.0452261 53.4385604,31.6934673 49.4991353,31.6934673 Z"/>
</svg>
