<svg xmlns="http://www.w3.org/2000/svg" width="60" height="60" viewBox="0 0 60 60">
  <path fill="#231F20" d="M50.991139,40.5723522 C50.9919272,40.5579416 50.9996118,40.5456732 50.9996118,40.5310679 L50.9996118,40.4625204 C50.9988236,40.4527835 51.0007941,40.4434361 50.9996118,40.4336992 L50.9996118,8.57818484 C50.9996118,8.44965823 50.9602035,8.33359481 50.9042437,8.22668404 C50.8890715,8.19747344 50.8691703,8.17507866 50.8504514,8.14801017 C50.7968561,8.07089421 50.7330146,8.00663091 50.6555773,7.95268868 C50.6370554,7.93964128 50.6285826,7.91744123 50.6088785,7.90595173 L38.8634304,1.10825735 C38.6190989,0.965709663 38.3170342,0.962788604 38.0707323,1.10630998 L10.3934919,16.8991142 C10.3735907,16.9106037 10.3649209,16.9328038 10.346202,16.9458512 C10.2697498,16.998625 10.2063025,17.0613304 10.1529042,17.1368885 C10.132806,17.1653201 10.1119196,17.1894675 10.0959592,17.220236 C10.0407876,17.3253942 10.0029556,17.4393155 10.0015763,17.5657 C10.0015763,17.5676473 10,17.5692052 10,17.5713474 C10,17.5715421 10.000197,17.5719316 10.000197,17.5721263 C10.000197,17.5725158 10,17.5729053 10,17.5731 L10,49.525983 C10,49.58012 10.0204923,49.6274412 10.0311326,49.6786571 C10.0358616,49.7018308 10.0384231,49.7242256 10.0451225,49.7468151 C10.0677823,49.8208153 10.1010823,49.8860523 10.1436433,49.9491472 C10.1578303,49.970763 10.1702439,49.9919894 10.1867954,50.0124368 C10.2346765,50.0702737 10.2904392,50.1164265 10.3530984,50.1586845 C10.3704381,50.1705634 10.3806842,50.188674 10.3992061,50.1993846 L21.99175,56.8934787 C21.9998287,56.8981524 22.0096808,56.896205 22.0177595,56.9004892 C22.1279057,56.958521 22.247904,57 22.3813011,57 C22.3828774,57 22.3842567,56.9992211 22.3858331,56.9992211 C22.3868183,56.9992211 22.3880005,57 22.3889857,57 C22.3974585,57 22.4051431,56.9937684 22.4136159,56.9933789 C22.5279,56.9885105 22.6335142,56.958521 22.7300646,56.9102261 C22.7458279,56.9026314 22.7641528,56.9059419 22.779522,56.8971787 L50.6086814,41.2079747 C50.6490749,41.1851904 50.6748874,41.149164 50.7095667,41.1209271 C50.7363643,41.0987271 50.763359,41.0796428 50.786807,41.0541322 C50.8376437,40.9999953 50.8754756,40.9407951 50.9085786,40.8761424 C50.9202041,40.8533581 50.9332088,40.8323265 50.9424698,40.808179 C50.9726171,40.7320368 50.9866071,40.6543366 50.991139,40.5723522 Z M11.5759381,18.9298346 L21.5935291,24.7123636 L21.5935291,54.8586688 L11.5759381,49.0738031 L11.5759381,18.9298346 Z M23.1694672,24.7184004 L49.4217033,9.91992472 L49.4217033,40.0827827 L23.1694672,54.8834005 L23.1694672,24.7184004 Z M38.463239,2.68173461 L48.6347195,8.56942166 L22.3862271,23.3657552 L12.3572077,17.5769947 L38.463239,2.68173461 Z M44.7362529,18.1000591 C40.9012338,16.1164651 35.5710636,18.6895288 32.8503142,23.8290352 C30.1293678,28.9702943 31.031818,34.7648969 34.8630934,36.7465435 C35.7424897,37.2010603 36.7064168,37.4273451 37.7129049,37.4273451 C38.8866813,37.4273451 40.1181908,37.121218 41.3420157,36.5087693 C43.5317381,35.4172668 45.4521048,33.4659992 46.7490321,31.0175673 C49.4697814,25.877282 48.5673313,20.0826794 44.7362529,18.1000591 Z M45.3520077,30.2948973 C44.2069994,32.458039 42.5311613,34.1715324 40.631878,35.1187345 C38.8230368,36.0238734 37.0335057,36.1115052 35.5943145,35.3660509 C32.5328803,33.7818631 31.928554,28.9315416 34.2473386,24.5519 C36.0676082,21.1173186 39.1522932,18.9779348 41.875013,18.9779348 C42.6235737,18.9779348 43.3451398,19.1395667 44.0052289,19.4809412 C47.066466,21.0639605 47.6707923,25.9162295 45.3520077,30.2948973 Z M31.971509,44.2968975 C31.904909,44.2061499 31.8227427,44.1257234 31.7167343,44.0682759 L28.4687019,42.3168088 C27.2833001,41.70436 25.7449969,42.3834089 24.9597865,43.8647755 C24.6086585,44.5303875 24.4661974,45.2625997 24.5605803,45.9282117 C24.6673768,46.6793134 25.0724942,47.2878674 25.6592839,47.5922418 L28.8949027,49.3380616 C28.8970702,49.33923 28.8994347,49.338451 28.9016021,49.3398142 C28.9035725,49.3407879 28.9053459,49.3427353 28.9073163,49.3439037 C29.2016964,49.4959935 29.5173569,49.568241 29.8387316,49.568241 C30.8095552,49.568241 31.8264865,48.9082764 32.4162317,47.7957423 C33.1281428,46.452834 32.8978012,45.0172307 31.971509,44.2968975 Z M26.1221344,45.7112744 C26.0740563,45.3708736 26.1595723,44.9601727 26.3568109,44.5874455 C26.7386773,43.8667228 27.4084215,43.5243747 27.7248701,43.691654 L29.1516478,44.4614505 C28.7812097,44.7558933 28.4468303,45.1377731 28.1952083,45.6123478 C27.9621081,46.0530383 27.8588584,46.5190446 27.8184649,46.980572 L26.4029186,46.2172018 C26.205877,46.1163279 26.1424297,45.8577168 26.1221344,45.7112744 Z M31.0194044,47.0728775 C30.6391143,47.792237 29.9794192,48.1355588 29.641296,47.9632163 L29.6371581,47.9610742 C29.4351906,47.8553319 29.3741077,47.5745207 29.3579503,47.4570941 C29.3098721,47.1166934 29.3953882,46.7077451 29.5926267,46.3350179 C29.9090754,45.7379534 30.4180337,45.3975526 30.7740877,45.3975526 C30.8481753,45.3975526 30.9155635,45.4127421 30.9732967,45.4431211 C31.3098436,45.61819 31.4012709,46.3521548 31.0194044,47.0728775 Z M38.5312184,40.3524938 C38.4646183,40.2625252 38.382255,40.1826829 38.2764437,40.1260143 L38.2689561,40.1219249 C38.2671827,40.1211459 38.2665916,40.1191985 38.2648182,40.1184196 C38.2622567,40.1170564 38.2594981,40.1166669 38.2567395,40.1154985 L35.0282142,38.3708472 C34.4240849,38.0608254 33.6908934,38.0799097 33.00578,38.4203105 C32.3986951,38.7246848 31.8704267,39.2570966 31.5192987,39.9207612 C31.1681707,40.5844259 31.0266949,41.3166381 31.1210778,41.9822501 C31.2268891,42.7333518 31.6329917,43.3419058 32.2197814,43.6443328 L35.4554002,45.3921 C35.4567795,45.3928789 35.4581588,45.3924894 35.4595381,45.3930737 C35.4624937,45.3946316 35.46407,45.3981368 35.4670256,45.3996947 C35.7614057,45.5517845 36.0770662,45.6222794 36.3964705,45.6222794 C37.3682793,45.6222794 38.3861958,44.9623148 38.9769263,43.8497807 C39.6878521,42.5051197 39.4559342,41.0712691 38.5312184,40.3524938 Z M32.6828289,41.7651181 C32.6327804,41.4247173 32.7194787,41.015769 32.915732,40.6430418 C33.1139558,40.2703147 33.4063654,39.9659403 33.7180851,39.8101505 C33.8238964,39.7587398 34.0895084,39.6504659 34.2857617,39.7435503 L35.7133275,40.5145152 C35.3421013,40.8087633 35.0073278,41.1910325 34.7551146,41.6661915 C34.5145269,42.1205136 34.4110801,42.5816515 34.3708837,43.0318841 L32.9636131,42.2710455 C32.7675568,42.1703663 32.702139,41.9115605 32.6828289,41.7651181 Z M37.5800989,43.1269159 C37.1990206,43.8476386 36.5275031,44.2014762 36.2004142,44.0188126 C35.8616998,43.8439386 35.7712578,43.109779 36.1523361,42.3890563 C36.4679966,41.7937444 36.977743,41.455291 37.3357674,41.455291 C37.4088698,41.455291 37.476258,41.4685332 37.5339912,41.4991069 C37.8705381,41.673981 37.9609802,42.4059985 37.5800989,43.1269159 Z M45.6924954,24.3996155 C45.9100293,24.7723426 45.7811641,25.24867 45.4040267,25.4638547 L43.441296,26.5839836 L41.3207352,32.6333026 C41.2111801,32.9489717 40.9108888,33.1581196 40.5761153,33.1581196 C40.5644898,33.1581196 40.5528644,33.1561722 40.5394655,33.1561722 C40.1912932,33.1409827 39.8949427,32.8995085 39.8102149,32.5647551 L38.2380206,26.2813619 L36.8890743,30.1751339 C36.8236565,30.3605237 36.692821,30.5145609 36.5196215,30.6078401 L34.3029043,31.7982691 C33.9180822,32.0017696 33.4408477,31.8638956 33.2329689,31.485521 C33.0252871,31.1079254 33.1675511,30.6345191 33.5486294,30.4290713 L35.4959907,29.384111 L37.6126108,23.2728656 C37.7261067,22.9459017 38.0494518,22.729938 38.3938804,22.7470749 C38.7422498,22.7612907 39.0403736,23.0027649 39.1251015,23.3375183 L40.70301,29.6388274 L42.0480154,25.7991923 C42.1094924,25.6223709 42.2346138,25.4732021 42.3981582,25.379923 L44.6148754,24.115299 C44.9920128,23.9012828 45.4731882,24.0268883 45.6924954,24.3996155 Z M24.9377178,29.2937529 C24.658707,29.2937529 24.388366,29.1473105 24.2449198,28.8886994 C24.0362528,28.5111038 24.1767435,28.0376974 24.5586099,27.8312759 L29.1132247,25.3703808 C29.4972586,25.1659067 29.9742962,25.3037807 30.1831602,25.6804026 C30.3918271,26.0579982 30.2513365,26.5314045 29.8694701,26.7378261 L25.3148553,29.1987211 C25.19466,29.2633739 25.0655978,29.2937529 24.9377178,29.2937529 Z M24.9349592,31.8286481 C24.6559484,31.8286481 24.3856075,31.6822057 24.2421612,31.4235946 C24.0334943,31.045999 24.1739849,30.5725927 24.5558513,30.3661711 L29.119136,27.9035234 C29.503958,27.6982703 29.9802074,27.8388707 30.1890714,28.2135452 C30.3977384,28.5911408 30.2572478,29.0645471 29.8753813,29.2709686 L25.3120967,31.7336163 C25.1919014,31.7982691 25.062051,31.8286481 24.9349592,31.8286481 Z M24.9310184,34.3637381 C24.6520076,34.3637381 24.3806814,34.2153483 24.2382204,33.9567372 C24.0295534,33.5781679 24.1710292,33.1065142 24.5528957,32.8993137 L29.1268206,30.436666 C29.5106575,30.2304392 29.9888772,30.3710396 30.1957708,30.7476615 C30.4044378,31.1252571 30.262962,31.5986634 29.8810955,31.8041112 L25.3071707,34.2687063 C25.1879605,34.3333591 25.0581102,34.3637381 24.9310184,34.3637381 Z M24.9282598,36.8986333 C24.6482638,36.8986333 24.3779228,36.7504383 24.2344766,36.4916324 C24.0267949,36.1130631 24.1682707,35.6396568 24.5501371,35.4342089 L29.1327318,32.9696139 C29.5157805,32.760466 29.9930151,32.9049611 30.2026673,33.281583 C30.4103491,33.6601523 30.2688732,34.1335586 29.8870068,34.3390065 L25.3044121,36.8036015 C25.1842168,36.8682543 25.0553516,36.8986333 24.9282598,36.8986333 Z M25.3004713,39.3386915 C25.1812611,39.4033443 25.0521989,39.4337233 24.9253042,39.4337233 C24.6453082,39.4337233 24.3749672,39.2853335 24.231521,39.0267224 C24.0236422,38.6481531 24.165118,38.1747467 24.5479697,37.9692989 L29.1392342,35.5027565 C29.5212977,35.2936086 29.9985323,35.4381037 30.2081844,35.8147256 C30.4160633,36.1932949 30.2745874,36.6667012 29.8917358,36.8721491 L25.3004713,39.3386915 Z"/>
</svg>
