<?xml version="1.0" encoding="utf-8"?>
<!-- Generator: Adobe Illustrator 21.0.0, SVG Export Plug-In . SVG Version: 6.00 Build 0)  -->
<svg version="1.1" id="Layer_1" xmlns="http://www.w3.org/2000/svg" xmlns:xlink="http://www.w3.org/1999/xlink" x="0px" y="0px"
	 viewBox="0 0 60 60" style="enable-background:new 0 0 60 60;" xml:space="preserve">
<path d="M56.405,37.8l-6.002-2.896l6-2.896l-5.998-2.895l6.001-2.892l-6-2.892l0.855-0.412c0.552-0.001,0.999-0.448,0.999-1v-9.33
	c1.441-0.434,2.5-1.757,2.5-3.337c0-1.93-1.57-3.5-3.5-3.5c-1.58,0-2.903,1.059-3.337,2.5H33.514c-0.434-1.441-1.757-2.5-3.337-2.5
	s-2.903,1.059-3.337,2.5H12.43c-0.434-1.441-1.757-2.5-3.337-2.5c-1.93,0-3.5,1.57-3.5,3.5s1.57,3.5,3.5,3.5
	c1.58,0,2.903-1.059,3.337-2.5h14.41c0.338,1.122,1.215,1.999,2.337,2.337v12.778H22.29v3.333h16.333v-3.333h-7.445V12.587
	c1.122-0.338,1.999-1.215,2.337-2.337h14.409c0.338,1.122,1.215,1.999,2.337,2.337v8.592l-4.462,2.15l6,2.892l-5.999,2.89
	l6.002,2.896l-6,2.896l5.998,2.895l-0.928,0.447c-0.001,0-0.001,0.001-0.002,0.001l-0.193,0.093
	c-0.498,0.24-0.707,0.838-0.468,1.335c0.014,0.028,0.035,0.049,0.051,0.075v8.915c-1.122,0.338-1.999,1.215-2.337,2.337H33.514
	c-0.338-1.122-1.215-1.999-2.337-2.337v-14.09h7.445V31.24H22.29v3.334h6.888v14.09c-1.122,0.338-1.999,1.215-2.337,2.337h-14.41
	c-0.434-1.441-1.757-2.5-3.337-2.5c-1.93,0-3.5,1.57-3.5,3.5s1.57,3.5,3.5,3.5c1.58,0,2.903-1.059,3.337-2.5h14.41
	c0.434,1.441,1.757,2.5,3.337,2.5s2.903-1.059,3.337-2.5h14.409c0.434,1.441,1.757,2.5,3.337,2.5c1.93,0,3.5-1.57,3.5-3.5
	c0-1.58-1.059-2.903-2.5-3.337v-8.867L56.405,37.8z M9.094,10.75c-0.827,0-1.5-0.673-1.5-1.5s0.673-1.5,1.5-1.5s1.5,0.673,1.5,1.5
	S9.921,10.75,9.094,10.75z M49.76,9.25c0-0.827,0.673-1.5,1.5-1.5s1.5,0.673,1.5,1.5s-0.673,1.5-1.5,1.5S49.76,10.077,49.76,9.25z
	 M9.094,53.5c-0.827,0-1.5-0.673-1.5-1.5s0.673-1.5,1.5-1.5s1.5,0.673,1.5,1.5S9.921,53.5,9.094,53.5z M52.76,52
	c0,0.827-0.673,1.5-1.5,1.5s-1.5-0.673-1.5-1.5s0.673-1.5,1.5-1.5S52.76,51.173,52.76,52z"/>
</svg>
