<?xml version="1.0" encoding="utf-8"?>
<!-- Generator: Adobe Illustrator 21.0.0, SVG Export Plug-In . SVG Version: 6.00 Build 0)  -->
<svg version="1.1" id="Layer_1" xmlns="http://www.w3.org/2000/svg" xmlns:xlink="http://www.w3.org/1999/xlink" x="0px" y="0px"
	 viewBox="0 0 60 60" style="enable-background:new 0 0 60 60;" xml:space="preserve">
<g>
	<path d="M37.792,36.417c0.553,0,1-0.447,1-1V23.275c0-0.766,0.355-1.468,0.917-1.938v2.412c0,1.149,0.935,2.084,2.083,2.084h6.167
		c1.148,0,2.083-0.935,2.083-2.084v-1.592c0.636,0.466,1.047,1.212,1.047,2.035v11.225c0,0.553,0.447,1,1,1s1-0.447,1-1V24.192
		c0-1.934-1.255-3.637-3.047-4.264v-1.083l2.124-0.45c0.54-0.114,0.886-0.646,0.771-1.186s-0.646-0.885-1.186-0.771l-1.71,0.362
		v-2.018l2.238-0.474c0.54-0.115,0.886-0.646,0.771-1.186s-0.646-0.885-1.186-0.771l-1.824,0.386v-1.872l2.124-0.45
		c0.54-0.115,0.886-0.646,0.771-1.186c-0.114-0.541-0.646-0.886-1.186-0.771l-1.71,0.362V7.583c0-1.148-0.935-2.083-2.083-2.083
		h-6.167c-1.148,0-2.083,0.935-2.083,2.083v3.426l-2.124,0.45c-0.54,0.115-0.886,0.646-0.771,1.186
		c0.1,0.471,0.515,0.793,0.978,0.793c0.068,0,0.139-0.007,0.208-0.021l1.71-0.362v1.872L37.7,15.351
		c-0.54,0.114-0.886,0.646-0.771,1.186c0.1,0.471,0.515,0.793,0.978,0.793c0.068,0,0.139-0.007,0.208-0.021l1.595-0.338v2.081
		c-1.724,0.661-2.917,2.335-2.917,4.223v12.142C36.792,35.969,37.239,36.417,37.792,36.417z M48.042,23.75
		c0,0.046-0.037,0.084-0.083,0.084h-6.167c-0.046,0-0.083-0.038-0.083-0.084v-3.14l6.333-1.341V23.75z M41.708,7.583
		c0-0.046,0.037-0.083,0.083-0.083h6.167c0.046,0,0.083,0.037,0.083,0.083v1.662l-6.333,1.341V7.583z M41.708,12.631l6.333-1.341
		v1.872l-6.333,1.341V12.631z M48.042,15.206v2.018l-6.333,1.341v-2.018L48.042,15.206z"/>
	<path d="M53.167,52.5H32.785l-6.53-26.614l-0.034-0.11c-0.913-2.457-3.288-4.108-5.91-4.108H7.833v-15c0-0.552-0.448-1-1-1
		s-1,0.448-1,1V54.5h47.333c0.553,0,1-0.447,1-1S53.719,52.5,53.167,52.5z M7.833,23.667h12.479c1.772,0,3.378,1.104,4.016,2.754
		L30.725,52.5H7.833V23.667z"/>
</g>
</svg>
