<svg xmlns="http://www.w3.org/2000/svg" width="60" height="60" viewBox="0 0 60 60">
  <path fill="#231F20" d="M58,29.3528132 C58,29.3424137 57.9926153,29.3343251 57.9922267,29.3239256 C57.987757,29.2097235 57.9566637,29.1047655 57.9071087,29.0082811 C57.8907847,28.9763122 57.8707684,28.950506 57.8501691,28.9210407 C57.7973104,28.8453554 57.7337635,28.7829583 57.6573905,28.7301904 C57.6389288,28.7174799 57.6305725,28.6953327 57.6109448,28.6841629 L23.6045707,9.22744124 C23.3616542,9.08647004 23.066462,9.08916621 22.8254888,9.22744124 L21.2181585,10.150687 C20.7797427,9.46104515 19.7480275,9 18.4823351,9 C16.7924133,9 15.5179759,9.82194683 15.5179759,10.9127404 L15.5179759,11.4839433 C15.1015197,11.3441276 14.6285126,11.2586205 14.1080882,11.2586205 C12.4181663,11.2586205 11.1437289,12.0805674 11.1437289,13.1713609 L11.1437289,15.9372466 L2.47277396,20.9180364 C2.4467333,20.9330579 2.43487897,20.9619455 2.41097599,20.9794706 C2.34723468,21.0256907 2.29476471,21.0794215 2.24773606,21.1420112 C2.22402741,21.1743652 2.19779242,21.2009417 2.17933076,21.2365697 C2.12569479,21.3372909 2.08799414,21.4472562 2.0854678,21.5695468 L2.00015551,25.900752 C1.99451985,26.1809612 2.14240744,26.4415268 2.38726733,26.5815351 L6.35846714,28.8665396 L6.35846714,33.8523365 C6.35846714,34.1269607 6.50654907,34.3827118 6.74752229,34.5200239 L9.08282487,35.8553986 C9.20233981,35.923188 9.33720708,35.958816 9.47090835,35.958816 C9.60460962,35.958816 9.73947689,35.9229954 9.8599635,35.8553986 C10.0999651,35.7180865 10.248047,35.4623355 10.248047,35.1877112 L10.248047,31.1047462 L17.6741032,35.3777913 L17.6741032,40.2112546 C17.6741032,40.4895379 17.8258774,40.7472148 18.071709,40.882601 L20.4182829,42.184081 C20.5358545,42.2499446 20.6668351,42.2838393 20.7978157,42.2838393 C20.9334603,42.2838393 21.0700766,42.2480188 21.1905632,42.1765703 C21.4288158,42.0392582 21.5749544,41.785433 21.5749544,41.5127346 L21.5749544,37.6225458 L29.1253838,41.9670393 L29.1253838,46.9330002 C29.1253838,47.2095502 29.2744374,47.4653012 29.517354,47.6026134 L31.8069882,48.8985084 C31.9265032,48.9662979 32.0594271,49 32.1921567,49 C32.3268297,49 32.4616969,48.9641794 32.5831552,48.8946568 C32.8221851,48.7573447 32.970267,48.5035195 32.970267,48.2288952 L32.970267,44.1796324 L36.2552762,46.0698404 C36.2651872,46.075618 36.2772358,46.0731144 36.2873411,46.0785067 C36.3915038,46.133393 36.5051887,46.1724875 36.6311167,46.1751837 C36.6367523,46.1751837 36.640639,46.1751837 36.6462746,46.1751837 C36.7743403,46.1751837 36.8901629,46.136667 36.9968518,46.0819732 C37.0090948,46.0758105 37.0234755,46.0785067 37.0353298,46.0717663 L57.5256326,34.347469 C57.7609701,34.2120827 57.909052,33.9638424 57.9146877,33.6948031 L58,29.366294 C58,29.3634053 57.9986397,29.3612868 57.9986397,29.3583981 C57.9986397,29.3562797 58,29.354739 58,29.3528132 Z M12.6980062,14.8595488 C13.1146566,14.9993645 13.5876638,15.0850642 14.1080882,15.0850642 C14.6285126,15.0850642 15.1015197,14.9995571 15.5181702,14.8595488 L15.5181702,16.3940549 L15.5181702,18.6097293 C15.4382992,18.7387603 14.9446928,19.0260951 14.1080882,19.0260951 C13.2559369,19.0260951 12.7539742,18.7260498 12.6980062,18.6528681 L12.6980062,14.8595488 Z M17.0724475,13.1713609 L17.0724475,12.5999653 C17.4890979,12.739781 17.962105,12.8252882 18.4825295,12.8252882 C19.0025652,12.8252882 19.475378,12.739781 19.8916398,12.6001579 L19.8916398,16.3499533 C19.8117689,16.4789843 19.3181624,16.7663191 18.4825295,16.7663191 C17.6313499,16.7663191 17.1284154,16.4662738 17.0724475,16.3938624 L17.0724475,13.1713609 Z M19.8584088,10.9125478 C19.7085779,11.053519 19.2303238,11.2850045 18.4825295,11.2850045 C17.6468965,11.2850045 17.1525128,10.9988252 17.0724475,10.9695525 L17.0724475,10.9566494 C17.1523184,10.8274258 17.6468965,10.5402837 18.4825295,10.5402837 C19.2301295,10.5402837 19.7083836,10.7715766 19.8584088,10.9125478 Z M15.4849392,13.1713609 C15.3349139,13.3123321 14.8566598,13.5445879 14.1080882,13.5445879 C13.2714836,13.5445879 12.7778771,13.2584087 12.6980062,13.2283656 L12.6980062,13.21527 C12.7778771,13.0862389 13.2724552,12.7989042 14.1080882,12.7989042 C14.8558825,12.7989042 15.3349139,13.0301971 15.4849392,13.1713609 Z M11.1437289,17.718645 L11.1437289,18.6526755 C11.1437289,19.743469 12.4181663,20.5663788 14.1080882,20.5663788 C15.7980101,20.5663788 17.0724475,19.7436616 17.0724475,18.6526755 L17.0724475,18.0812799 C17.4890979,18.2210956 17.962105,18.3066027 18.4825295,18.3066027 C20.1724513,18.3066027 21.4459171,17.4846559 21.4459171,16.3938624 L21.4459171,11.8013211 L23.2164873,10.7837094 L55.6619768,29.3479986 L36.7335303,40.0754831 L4.41513472,21.5836054 L11.1437289,17.718645 Z M3.61409309,22.903766 L35.9447316,41.4033471 L35.8932333,44.0796815 L21.1206032,35.5798115 C21.1114696,35.5757672 21.1042792,35.5688342 21.0951456,35.5651751 L3.56317778,25.4776459 L3.61409309,22.903766 Z M8.69376971,33.8542624 L7.91274441,33.4066981 L7.91274441,29.7608978 L8.69376971,30.2101954 L8.69376971,33.8542624 Z M20.0206771,40.1979663 L19.2283805,39.7598386 L19.2283805,36.2721495 L20.0206771,36.7279949 L20.0206771,40.1979663 Z M31.4148238,46.9006461 L30.6794668,46.4850507 L30.6794668,42.861205 L31.4148238,43.2843112 L31.4148238,46.9006461 Z M37.4504256,44.0550308 L37.5011466,41.4150947 L56.4173501,30.6939654 L56.3677951,33.2299063 L37.4504256,44.0550308 Z M9.83333985,20.0585358 C8.68716238,20.0585358 7.75436282,20.8569874 7.75436282,21.839549 C7.75436282,22.8221105 8.68716238,23.6205622 9.83333985,23.6205622 C10.9795173,23.6205622 11.9123169,22.8221105 11.9123169,21.839549 C11.9123169,20.8569874 10.9795173,20.0585358 9.83333985,20.0585358 Z M9.83333985,22.1347796 C9.47362902,22.1347796 9.25364379,21.9439293 9.25364379,21.839549 C9.25364379,21.7351687 9.47382335,21.5443183 9.83333985,21.5443183 C10.1928563,21.5443183 10.4130359,21.7351687 10.4130359,21.839549 C10.4130359,21.9439293 10.1928563,22.1347796 9.83333985,22.1347796 Z M23.7013487,27.853935 C22.4640289,27.853935 21.4950834,28.6485349 21.4950834,29.662295 C21.4950834,30.6760551 22.4638346,31.471618 23.7013487,31.471618 C24.9376968,31.471618 25.9066423,30.6760551 25.9066423,29.662295 C25.9066423,28.6485349 24.9376968,27.853935 23.7013487,27.853935 Z M23.7013487,29.9292159 C23.2668196,29.9292159 23.049555,29.7129445 23.049555,29.6621024 C23.049555,29.6112604 23.2668196,29.3940261 23.7013487,29.3940261 C24.1349062,29.3940261 24.3523651,29.6112604 24.3523651,29.6621024 C24.3523651,29.7129445 24.1351005,29.9292159 23.7013487,29.9292159 Z M38.5287808,37.0740677 C38.5287808,36.0603076 37.5590579,35.2647447 36.3217381,35.2647447 C35.0863617,35.2647447 34.1164445,36.0603076 34.1164445,37.0740677 C34.1164445,38.0878278 35.0861674,38.8833906 36.3217381,38.8833906 C37.5590579,38.8833906 38.5287808,38.0878278 38.5287808,37.0740677 Z M36.3215438,37.3411811 C35.8963427,37.3411811 35.6781064,37.1285688 35.6724708,37.0740677 C35.6724708,37.0232256 35.8887637,36.8069542 36.3215438,36.8069542 C36.7560729,36.8069542 36.9725602,37.0232256 36.9725602,37.0740677 C36.9669245,37.1285688 36.7486883,37.3411811 36.3215438,37.3411811 Z M35.3974892,21.8601554 C35.3918536,21.5836054 35.2361926,21.331706 34.9913328,21.1990159 L29.0352132,17.9765144 C28.7961833,17.8486389 28.5085701,17.8515277 28.2732326,17.985951 L20.4087606,22.4864373 C20.1677874,22.6247123 20.0197054,22.8804634 20.0206771,23.1568208 C20.0216488,23.432408 20.1724513,23.6871961 20.4153679,23.8235453 L26.3981111,27.1787368 C26.5166544,27.2455634 26.6486067,27.2784952 26.7805589,27.2784952 C26.9181469,27.2784952 27.0557348,27.2426746 27.1791364,27.1702632 L35.0179564,22.5370868 C35.2569863,22.3951527 35.4011816,22.1367055 35.3974892,21.8601554 Z M26.7700649,25.6178467 L22.364336,23.1466139 L28.6725874,19.5356713 L33.0516927,21.9044496 L26.7700649,25.6178467 Z M24.3372071,15.8278591 C25.5735552,15.8278591 26.5425007,15.0332592 26.5425007,14.0194991 C26.5425007,13.005739 25.5737495,12.211139 24.3372071,12.211139 C23.0998873,12.211139 22.1309418,13.005739 22.1309418,14.0194991 C22.1309418,15.0332592 23.099693,15.8278591 24.3372071,15.8278591 Z M24.3372071,13.7516153 C24.7707645,13.7516153 24.9882234,13.9688496 24.9882234,14.0196917 C24.9882234,14.0705337 24.7709589,14.2877681 24.3372071,14.2877681 C23.9026779,14.2877681 23.6854134,14.0705337 23.6854134,14.0196917 C23.6854134,13.9688496 23.9024836,13.7516153 24.3372071,13.7516153 Z M50.6347701,30.8809641 C51.8720899,30.8809641 52.8418127,30.0854012 52.8418127,29.072604 C52.8418127,28.0588439 51.8720899,27.264244 50.6347701,27.264244 C49.3974504,27.264244 48.4277275,28.0588439 48.4277275,29.072604 C48.4275331,30.0854012 49.3974504,30.8809641 50.6347701,30.8809641 Z M50.6347701,28.8047202 C51.0692992,28.8047202 51.2857865,29.0219545 51.2857865,29.0727966 C51.2857865,29.1236387 51.0694936,29.3399101 50.6347701,29.3399101 C50.2000466,29.3399101 49.9837537,29.1236387 49.9837537,29.0727966 C49.9837537,29.0219545 50.200241,28.8047202 50.6347701,28.8047202 Z M37.285631,32.92158 C37.4241906,32.92158 37.5608069,32.8840262 37.6842085,32.8125776 L45.5220568,28.1803642 C45.7610867,28.0384301 45.9054763,27.7797903 45.9015897,27.5032402 C45.895954,27.2266902 45.7402931,26.9747908 45.4954332,26.8421007 L39.538342,23.6195992 C39.3010611,23.4897979 39.0126705,23.4917237 38.777333,23.6290358 L30.9138327,28.1285592 C30.6728594,28.2668342 30.5247775,28.5225852 30.5257492,28.7989427 C30.5267208,29.0745299 30.6775234,29.329318 30.92044,29.4656672 L36.9022115,32.8198958 C37.0219208,32.8876852 37.1529014,32.92158 37.285631,32.92158 Z M39.1778538,25.1785635 L43.5559874,27.5473419 L37.276303,31.2588131 L32.8696024,28.7885432 L39.1778538,25.1785635 Z"/>
</svg>
