<?xml version="1.0" encoding="utf-8"?>
<!-- Generator: Adobe Illustrator 21.0.0, SVG Export Plug-In . SVG Version: 6.00 Build 0)  -->
<svg version="1.1" id="Layer_1" xmlns="http://www.w3.org/2000/svg" xmlns:xlink="http://www.w3.org/1999/xlink" x="0px" y="0px"
	 viewBox="0 0 30 30" style="enable-background:new 0 0 30 30;" xml:space="preserve">
<style type="text/css">
	.st0{fill:#231F20;}
</style>
<g>
	<path class="st0" d="M5.793,12.8213l8.9458,5.333c0.063,0.0371,0.1338,0.0566,0.2046,0.0566c0.0693,0,0.1382-0.0186,0.2002-0.0547
		l9.0566-5.2427c0.123-0.0713,0.1992-0.2026,0.2002-0.3447c0-0.1421-0.0752-0.2739-0.1973-0.3462l-8.9907-5.2954
		c-0.1245-0.0723-0.2783-0.0742-0.4033-0.0015l-9.0117,5.2056c-0.1226,0.0708-0.1987,0.2017-0.1997,0.3433
		C5.5967,12.6167,5.6709,12.7485,5.793,12.8213z M15.0073,7.7349l8.1997,4.8296l-8.2607,4.7822l-8.1582-4.8638L15.0073,7.7349z"/>
	<path class="st0" d="M29.6182,18.1504l-0.79-0.4561v-0.9111c0-0.1396-0.0732-0.2686-0.1914-0.3408l-0.8076-0.4945v-3.4044h-0.0004
		c-0.0006-0.1419-0.0753-0.2732-0.1979-0.3452l-0.2628-0.1541l0.4122-0.238c0.1914-0.1104,0.2568-0.355,0.1465-0.5464
		s-0.3555-0.2568-0.5469-0.146l-0.8055,0.465l-0.9809-0.5752l0.3928-0.2267c0.1914-0.1104,0.2568-0.355,0.1465-0.5464
		c-0.1113-0.1914-0.3555-0.2559-0.5469-0.146l-0.7861,0.4538l-0.9804-0.5748l0.3739-0.2159
		c0.1914-0.1104,0.2568-0.355,0.1465-0.5464c-0.1113-0.1919-0.3555-0.2568-0.5469-0.146L23.0258,9.498l-0.9802-0.5747l0.3548-0.2046
		c0.1914-0.1104,0.2568-0.355,0.1465-0.5464C22.4355,7.9805,22.1924,7.917,22,8.0254l-0.7491,0.4319l-0.98-0.5746l0.3356-0.1937
		c0.1914-0.1104,0.2568-0.355,0.1465-0.5464c-0.1113-0.1914-0.3555-0.2559-0.5469-0.146l-0.7289,0.4208l-0.9804-0.5749
		l0.3167-0.1828c0.1914-0.1104,0.2568-0.355,0.1465-0.5464c-0.1113-0.1919-0.3545-0.2568-0.5469-0.146l-0.71,0.4099L16.7222,5.802
		l0.2973-0.1716c0.1914-0.1104,0.2568-0.355,0.1465-0.5464c-0.1113-0.1914-0.3555-0.2563-0.5469-0.146l-0.6906,0.3986
		l-0.5175-0.3034c-0.124-0.0728-0.2764-0.0728-0.4019-0.0015l-0.6176,0.3559L13.6128,4.938
		c-0.1914-0.1118-0.4365-0.0454-0.5464,0.146c-0.1108,0.1914-0.0449,0.436,0.146,0.5464l0.3787,0.2186l-0.9893,0.57l-0.7825-0.4517
		c-0.1919-0.1123-0.437-0.0449-0.5464,0.146c-0.1108,0.1914-0.0449,0.436,0.146,0.5464l0.3822,0.2206l-0.9893,0.57l-0.786-0.4537
		c-0.1919-0.1128-0.437-0.0454-0.5464,0.146C9.3687,7.334,9.4346,7.5786,9.6255,7.689l0.3858,0.2227l-0.9893,0.57L8.2324,8.0259
		C8.04,7.9141,7.7959,7.9805,7.686,8.1719c-0.1108,0.1914-0.0449,0.436,0.146,0.5464L8.2214,8.943L7.2325,9.5128L6.4385,9.0547
		c-0.1919-0.1104-0.436-0.0444-0.5464,0.147S5.8477,9.6372,6.0391,9.748l0.3923,0.2264l-0.9889,0.5698L4.646,10.0845
		c-0.1919-0.1113-0.437-0.0449-0.5464,0.146c-0.1108,0.1914-0.0449,0.436,0.146,0.5464l0.3962,0.2288l-0.9893,0.57l-0.8-0.4619
		c-0.1919-0.1118-0.437-0.0454-0.5464,0.146c-0.1108,0.1914-0.0449,0.436,0.146,0.5464l0.3998,0.2308l-0.1884,0.1086
		c-0.123,0.0713-0.1992,0.2021-0.2002,0.3442c0,0.0009,0.0006,0.0016,0.0006,0.0024H2.4634v3.4042l-0.8887,0.544
		c-0.1187,0.0723-0.1909,0.2012-0.1909,0.3408v0.9111l-0.79,0.4561c-0.1909,0.1104-0.2568,0.3555-0.146,0.5469
		c0.0737,0.1279,0.2085,0.2002,0.3467,0.2002c0.0679,0,0.1367-0.0176,0.1997-0.0537l0.9897-0.5713
		c0.1235-0.0713,0.1997-0.2041,0.1997-0.3467v-0.918l0.4738-0.2899c0.0008,0.0004,0.001,0.0014,0.0018,0.0018l0.9151,0.5426
		l-0.2896,0.1752c-0.1196,0.0723-0.1929,0.2021-0.1929,0.3418v0.916l-0.7847,0.4521c-0.1909,0.1104-0.2568,0.3555-0.146,0.5469
		c0.0737,0.1279,0.2085,0.2002,0.3467,0.2002c0.0679,0,0.1367-0.0176,0.1997-0.0537l0.9844-0.5684
		c0.1235-0.0713,0.1997-0.2041,0.1997-0.3467v-0.9209l0.4628-0.2801l0.9149,0.5424l-0.2751,0.1644
		c-0.1211,0.0723-0.1948,0.2031-0.1948,0.3438v0.9199l-0.7788,0.4492c-0.1914,0.1113-0.2568,0.3555-0.146,0.5469
		c0.0737,0.1279,0.2085,0.2002,0.3467,0.2002c0.0679,0,0.1367-0.0176,0.1997-0.0537l0.9785-0.5654
		c0.1235-0.0723,0.1997-0.2041,0.1997-0.3467V19l0.4529-0.2706l0.913,0.5414l-0.262,0.155
		c-0.1216,0.0723-0.1963,0.2031-0.1963,0.3447v0.9219l-0.7729,0.4463c-0.1914,0.1104-0.2573,0.3555-0.147,0.5469
		c0.0742,0.1279,0.209,0.2002,0.3472,0.2002c0.0679,0,0.1362-0.0176,0.1992-0.0537l0.9731-0.5615
		c0.124-0.0713,0.2002-0.2041,0.2002-0.3467V19.999l0.4438-0.2626l0.9097,0.5394l-0.248,0.1451
		c-0.1226,0.0723-0.1978,0.2041-0.1978,0.3457v0.9268l-0.7676,0.4424c-0.1909,0.1104-0.2568,0.3555-0.146,0.5469
		c0.0737,0.1279,0.2085,0.2002,0.3467,0.2002c0.0679,0,0.1367-0.0176,0.1997-0.0537l0.9673-0.5586
		c0.1235-0.0713,0.1997-0.2041,0.1997-0.3467v-0.9277l0.4334-0.2534l0.9078,0.5382l-0.2338,0.1351
		c-0.1235,0.0723-0.1997,0.2041-0.1997,0.3467v0.9297l-0.7617,0.4395c-0.1914,0.1104-0.2573,0.3555-0.147,0.5469
		c0.0742,0.1279,0.2085,0.2002,0.3472,0.2002c0.0679,0,0.1362-0.0176,0.1992-0.0537l0.9619-0.5547
		c0.124-0.0713,0.2002-0.2041,0.2002-0.3467v-0.9307l0.4229-0.2443l0.9061,0.5372l-0.2202,0.126
		c-0.1245,0.0713-0.2012,0.2041-0.2012,0.3477v0.9326l-0.7559,0.4365c-0.1914,0.1104-0.2573,0.3555-0.147,0.5469
		c0.0742,0.1279,0.209,0.2002,0.3472,0.2002c0.0679,0,0.1367-0.0176,0.1992-0.0537l0.9561-0.5518
		c0.124-0.0713,0.2002-0.2041,0.2002-0.3467v-0.9316l0.4135-0.2365l1.9801,1.174c0.063,0.0371,0.1333,0.0566,0.2041,0.0566
		c0.0688,0,0.1382-0.0186,0.2002-0.0537l2.0889-1.206l0.4663,0.2665v0.9326c0,0.1426,0.0762,0.2754,0.2002,0.3467l0.9561,0.5518
		c0.0635,0.0361,0.1318,0.0537,0.2002,0.0537c0.1377,0,0.2725-0.0723,0.3467-0.2002c0.1104-0.1914,0.0449-0.4365-0.1465-0.5469
		l-0.7559-0.4365v-0.9336c0-0.1436-0.0771-0.2764-0.2021-0.3477l-0.2622-0.1499l0.9177-0.5298l0.4529,0.2618v0.9307
		c0,0.1426,0.0771,0.2754,0.2002,0.3467l0.9619,0.5547c0.0635,0.0361,0.1318,0.0537,0.2002,0.0537
		c0.1377,0,0.2725-0.0723,0.3467-0.2002c0.1104-0.1914,0.0449-0.4365-0.1465-0.5469L20.29,22.6943v-0.9297
		c0-0.1426-0.0762-0.2744-0.2002-0.3467l-0.2534-0.1465l0.92-0.5312l0.4408,0.2578v0.9277c0,0.1426,0.0762,0.2744,0.2002,0.3467
		l0.9668,0.5586c0.0635,0.0361,0.1318,0.0537,0.2002,0.0537c0.1377,0,0.2725-0.0723,0.3467-0.2002
		c0.1104-0.1914,0.0449-0.4355-0.1465-0.5469l-0.7666-0.4424v-0.9268c0-0.1416-0.0762-0.2734-0.1982-0.3457l-0.2452-0.1434
		l0.9216-0.532l0.4281,0.2536v0.9248c0,0.1426,0.0771,0.2754,0.2002,0.3467l0.9736,0.5615
		c0.0635,0.0361,0.1318,0.0537,0.2002,0.0537c0.1377,0,0.2725-0.0723,0.3467-0.2002c0.1104-0.1914,0.0449-0.4365-0.1465-0.5469
		l-0.7734-0.4463v-0.9219c0-0.1416-0.0752-0.2725-0.1963-0.3438l-0.2374-0.1405l0.9258-0.5345l0.4151,0.2482v0.9238
		c0,0.1426,0.0771,0.2754,0.2002,0.3467l0.9785,0.5645c0.0635,0.0361,0.1318,0.0537,0.2002,0.0537
		c0.1377,0,0.2725-0.0723,0.3467-0.2002c0.1104-0.1914,0.0449-0.4365-0.1465-0.5469l-0.7783-0.4492v-0.9189
		c0-0.1406-0.0742-0.2715-0.1953-0.3438l-0.2272-0.1359l0.9265-0.5349l0.4033,0.2441v0.9209c0,0.1426,0.0762,0.2744,0.2002,0.3467
		l0.9834,0.5684c0.0635,0.0361,0.1318,0.0537,0.2002,0.0537c0.1377,0,0.2725-0.0723,0.3467-0.2002
		c0.1104-0.1914,0.0449-0.4355-0.1465-0.5469l-0.7832-0.4521v-0.916c0-0.1396-0.0732-0.2695-0.1934-0.3418l-0.2201-0.1331
		l0.9213-0.5319c0.0023-0.0013,0.0032-0.004,0.0054-0.0054l0.3931,0.2407v0.918c0,0.1426,0.0771,0.2754,0.2002,0.3467l0.9902,0.5713
		c0.0635,0.0361,0.1318,0.0537,0.2002,0.0537c0.1377,0,0.2725-0.0723,0.3467-0.2002C29.875,18.5059,29.8096,18.2607,29.6182,18.1504
		z M15.207,5.8413l11.4268,6.6997l-11.6045,6.6992L3.6558,12.4971L15.207,5.8413z M14.3804,21.415
		c-0.1099-0.1924-0.3545-0.2559-0.5459-0.1494l-0.9855,0.5638L11.9391,21.29l0.5731-0.3311
		c0.1914-0.1113,0.2568-0.3555,0.146-0.5469c-0.1104-0.1904-0.3545-0.2559-0.5464-0.1465l-0.9623,0.5563l-0.9123-0.5409
		l0.5558-0.325c0.1904-0.1123,0.2549-0.3574,0.1431-0.5479c-0.1113-0.1895-0.3569-0.2559-0.5474-0.1436L9.4495,19.814l-0.914-0.5419
		l0.5378-0.3181c0.1899-0.1133,0.2529-0.3584,0.1406-0.5488s-0.3574-0.25-0.5479-0.1406L7.75,18.8065l-0.9169-0.5436l0.5204-0.3108
		c0.1899-0.1133,0.2515-0.3594,0.1382-0.5488s-0.3599-0.251-0.5483-0.1387l-0.8934,0.534l-0.9197-0.5453l0.5041-0.3051
		c0.189-0.1143,0.2495-0.3594,0.1353-0.5488c-0.1138-0.1885-0.3589-0.252-0.5493-0.1348l-0.87,0.5263l-0.9221-0.5467l0.4869-0.298
		c0.188-0.1152,0.2476-0.3618,0.1323-0.5503c-0.1152-0.1875-0.3604-0.2461-0.5503-0.1323l-0.2339,0.1432v-2.2123l11.3638,6.7372
		v2.9518l-0.986-0.5845l0.5909-0.3381C14.4238,21.8506,14.4902,21.6064,14.3804,21.415z M25.9261,16.8316l-0.934-0.565
		c-0.1865-0.1152-0.4336-0.0547-0.5488,0.1348s-0.0547,0.4346,0.1348,0.5488l0.5577,0.3376l-0.9313,0.5377l-0.9359-0.5599
		c-0.1875-0.1113-0.4336-0.0527-0.5488,0.1387c-0.1133,0.1895-0.0508,0.4346,0.1387,0.5488l0.5526,0.3304l-0.93,0.5368
		l-0.9341-0.5528c-0.1904-0.1123-0.4355-0.0498-0.5479,0.1396c-0.1133,0.1904-0.0498,0.4355,0.1396,0.5479l0.5474,0.3242
		l-0.9266,0.5349l-0.9362-0.5476c-0.1885-0.1104-0.4346-0.0479-0.5479,0.1436c-0.1113,0.1904-0.0469,0.4355,0.1436,0.5479
		l0.5421,0.3171l-0.9246,0.5338l-0.9359-0.5413c-0.1914-0.1084-0.4355-0.0449-0.5469,0.1465
		c-0.1104,0.1914-0.0449,0.4355,0.1465,0.5469l0.536,0.3099l-0.9222,0.5324l-0.937-0.5356
		c-0.1914-0.1074-0.4355-0.0439-0.5454,0.1494c-0.1099,0.1914-0.043,0.4355,0.1484,0.5459l0.5313,0.3037l-1.0845,0.626v-2.9572
		l11.6016-6.699v2.2211l-0.3135-0.192c-0.1875-0.1133-0.4336-0.0562-0.5498,0.1323c-0.1152,0.1885-0.0566,0.4351,0.1318,0.5503
		l0.5626,0.3445L25.9261,16.8316z"/>
	<path class="st0" d="M13.3386,11.0117c-0.2878-0.1601-0.4362-0.2425-0.7465-0.4146c0.3674-0.2128,0.556-0.3224,0.8885-0.5177
		c0.3316,0.1904,0.4907,0.2819,0.7999,0.4597c0.2248-0.128,0.3315-0.1891,0.5184-0.297c-0.4908-0.2848-0.7461-0.433-1.2899-0.7484
		c-1.0518,0.6361-2.3427,1.3769-3.1489,1.8424c0.1994,0.1093,0.2954,0.1621,0.4814,0.2646c0.3302-0.1869,0.5973-0.3393,1.1411-0.652
		c0.311,0.1688,0.4591,0.2493,0.7457,0.4053C12.9673,11.2206,13.0924,11.1504,13.3386,11.0117z"/>
	<path class="st0" d="M15.5671,11.7971c0.3669-0.1861,0.5628-0.3502,0.6034-0.504c0.0399-0.1535-0.0681-0.2947-0.31-0.4351
		c-0.2546-0.1477-0.384-0.2229-0.6495-0.377c-1.0909,0.6131-2.2844,1.2749-3.2183,1.7581c0.1621,0.0905,0.2411,0.1348,0.3965,0.2221
		c0.3473-0.1727,0.5862-0.2971,1.0771-0.5564c0.0707,0.0385,0.1058,0.0576,0.1756,0.0956c0.238,0.1297,0.5148,0.1763,0.8462,0.1419
		C14.8184,12.1082,15.186,11.9904,15.5671,11.7971z M14.0812,11.578c0.426-0.2278,0.6466-0.347,1.0354-0.5576
		c0.0767,0.0443,0.1149,0.0662,0.1907,0.11c0.1137,0.0655,0.1576,0.1335,0.13,0.2058c-0.027,0.072-0.1269,0.1524-0.3024,0.2439
		c-0.1743,0.0907-0.3407,0.1437-0.4959,0.1577c-0.1545,0.0137-0.2947-0.0138-0.4217-0.0843
		C14.1631,11.6235,14.1359,11.6083,14.0812,11.578z"/>
	<path class="st0" d="M16.9169,13.0385c-0.3052-0.1713-0.4537-0.2547-0.7495-0.4205c-0.2573,0.1229-0.3878,0.1851-0.6429,0.305
		c0.1411,0.0777,0.212,0.1168,0.3555,0.196c-0.302,0.1408-0.4521,0.2101-0.735,0.3376c-0.1169-0.0336-0.215-0.0734-0.2965-0.1185
		c-0.1561-0.0864-0.1805-0.193-0.0643-0.3298c0.1155-0.1365,0.3707-0.2993,0.7668-0.4906c0.38-0.1836,0.7311-0.3016,1.0484-0.3473
		c0.3179-0.046,0.5555-0.0151,0.7252,0.083c0.1471,0.0851,0.2274,0.1948,0.2395,0.3335c0.2854-0.0804,0.4245-0.1189,0.6885-0.189
		c-0.0501-0.1643-0.1746-0.2992-0.3663-0.4102c-0.3052-0.1768-0.6713-0.2568-1.1375-0.212c-0.466,0.0443-0.999,0.2204-1.5863,0.5104
		c-0.6039,0.2982-0.9698,0.5483-1.1073,0.7556c-0.1375,0.2074-0.0579,0.3717,0.212,0.5273
		c0.1064,0.0613,0.2235,0.1166,0.3549,0.1662c0.1308,0.0497,0.2886,0.0952,0.4799,0.1371
		C15.7614,13.5849,16.1676,13.3935,16.9169,13.0385z"/>
	<path class="st0" d="M15.6482,14.3221c0.3616-0.0987,0.5553-0.1567,0.9463-0.2778c0.3104,0.1719,0.4719,0.2613,0.8145,0.4513
		c-0.2517,0.2003-0.3741,0.2994-0.6027,0.4912c0.2262,0.1296,0.3436,0.1968,0.5894,0.3373
		c0.8636-0.8976,1.5219-1.4231,2.3959-2.2012c-0.2034-0.1176-0.3035-0.1755-0.5022-0.2904c-1.452,0.4385-2.5754,0.8409-4.1048,1.223
		C15.3645,14.1591,15.4568,14.2122,15.6482,14.3221z M19.0682,13.2224c-0.0451,0.0306-0.1047,0.0744-0.1794,0.1312
		c-0.0745,0.0576-0.4053,0.3087-0.9921,0.7694c-0.2337-0.1298-0.3466-0.1925-0.5666-0.3146
		C18.2908,13.4977,18.8527,13.3001,19.0682,13.2224z"/>
</g>
</svg>
