<svg xmlns="http://www.w3.org/2000/svg" width="60" height="60" viewBox="0 0 60 60">
  <path fill="#231F20" d="M12.2753469,27.0858264 L29.3008738,37.2213766 C29.4207745,37.2918864 29.5555201,37.3289468 29.6902658,37.3289468 C29.8221566,37.3289468 29.9532862,37.2935969 30.0712837,37.2249876 L47.3076837,27.2610557 C47.5417757,27.1255476 47.6867985,26.8760074 47.6887017,26.6059415 C47.6887017,26.3358755 47.545582,26.0853851 47.3132029,25.9479765 L30.202223,15.8838864 C29.9652762,15.7464778 29.6725661,15.7428667 29.4346678,15.8810356 L12.2837209,25.7744577 C12.0503902,25.9090155 11.9055577,26.1577955 11.9036545,26.4269111 C11.9017513,26.6969771 12.0429678,26.9474675 12.2753469,27.0858264 Z M29.8118794,17.4189481 L45.4174387,26.5977692 L29.695785,35.686505 L14.1692079,26.4426856 L29.8118794,17.4189481 Z M57.6191488,37.2139645 L56.1156314,36.3471308 L56.1156314,34.6155538 C56.1156314,34.3502392 55.9763181,34.1050703 55.7513615,33.9678517 L54.214348,33.0280374 L54.214348,26.557858 L54.2135867,26.557858 C54.2124448,26.2881721 54.0702767,26.038632 53.836946,25.9017935 L53.3367886,25.6089211 L54.1212821,25.1565939 C54.4855521,24.9467749 54.6100205,24.4819042 54.400099,24.1181419 C54.1901775,23.7543796 53.7235161,23.6300847 53.3592462,23.8406639 L51.8262294,24.7244124 L49.9593936,23.631225 L50.7069653,23.2003738 C51.0712352,22.9905548 51.1957037,22.5256841 50.9857822,22.1619218 C50.7739575,21.7981595 50.3091993,21.675575 49.9449294,21.8844438 L48.4488344,22.7469063 L46.5829502,21.6544791 L47.2945517,21.2441537 C47.6588216,21.0343347 47.78329,20.569464 47.5733686,20.2057017 C47.3615439,19.8409892 46.8967857,19.7176445 46.5325158,19.9282237 L45.0725813,20.7697803 L43.2070778,19.6775432 L43.8823284,19.2886938 C44.2465983,19.0788748 44.3710667,18.6140041 44.1611453,18.2502418 C43.9491303,17.8857193 43.4864656,17.7650354 43.1202925,17.9710533 L41.6946154,18.7918941 L39.8294925,17.6998471 L40.4682019,17.3317135 C40.8324718,17.1218945 40.9569403,16.6570238 40.7470188,16.2932615 C40.5351941,15.9294992 40.0704359,15.8069148 39.706166,16.0157835 L38.3189333,16.8155284 L36.4530491,15.7229111 L37.0557883,15.3754934 C37.4200582,15.1656744 37.5445266,14.7008037 37.3346052,14.3370414 C37.1227805,13.9723289 36.6599255,13.8489842 36.2937524,14.0595634 L34.9424899,14.8385925 L33.0756541,13.745405 L33.6414715,13.4192733 C34.0057414,13.2094543 34.1302098,12.7445836 33.9202884,12.3808213 C33.7084637,12.017059 33.2437055,11.8937143 32.8794356,12.1033433 L31.5650949,12.8608963 L30.5801958,12.2842742 C30.3442007,12.1459153 30.054155,12.1459153 29.8153051,12.2814234 L28.6398971,12.9578236 L27.1578856,12.1033433 C26.7936157,11.8908635 26.3271447,12.017059 26.1179845,12.3808213 C25.9071114,12.7445836 26.0325314,13.2094543 26.3958497,13.4192733 L27.1165865,13.8347302 L25.233764,14.9180348 L23.7445204,14.0595634 C23.3792989,13.8461334 22.9128279,13.9742294 22.7046193,14.3370414 C22.4937462,14.7008037 22.6191662,15.1656744 22.9824845,15.3754934 L23.7098824,15.7947513 L21.8270599,16.878056 L20.3311552,16.0157835 C19.9659337,15.8014032 19.4994627,15.9294992 19.2912541,16.2932615 C19.0805713,16.6570238 19.2059913,17.1218945 19.5693096,17.3317135 L20.303559,17.7549626 L18.4207365,18.8382672 L16.9179803,17.9720036 C16.5518072,17.7595238 16.0872394,17.8857193 15.8780792,18.2494816 C15.6672061,18.6132439 15.7926261,19.0781146 16.1559444,19.2879336 L16.8970453,19.7149837 L15.014984,20.7979082 L13.5038538,19.9272734 C13.1386323,19.7174544 12.6740645,19.8428897 12.4639527,20.206652 C12.2538409,20.5704143 12.3794512,21.0343347 12.7437211,21.2449139 L13.4903412,21.6751949 L11.60828,22.7581195 L10.0923918,21.8844438 C9.72717031,21.6729143 9.26069927,21.7991098 9.05249065,22.1619218 C8.84161757,22.5256841 8.96703757,22.9905548 9.3303559,23.2003738 L10.0843984,23.6352161 L8.20157591,24.7185207 L6.67902661,23.8406639 C6.3138051,23.6281841 5.84733406,23.7543796 5.63912544,24.1181419 C5.42825237,24.4819042 5.55367236,24.9467749 5.91699069,25.1565939 L6.6778847,25.5952373 L6.31932434,25.8016353 C6.08523239,25.9371434 5.94020957,26.1857333 5.93830638,26.4557993 C5.93830638,26.4575097 5.93944829,26.4588401 5.93944829,26.4603605 L5.9384967,26.4603605 L5.9384967,32.9301599 L4.24713475,33.9640506 C4.02122649,34.1014593 3.88381642,34.3464381 3.88381642,34.6117528 L3.88381642,36.3433297 L2.38029899,37.2101634 C2.01698066,37.4199824 1.89156066,37.8858034 2.10243374,38.2495657 C2.24269859,38.4926441 2.49924815,38.6300527 2.76226854,38.6300527 C2.89149491,38.6300527 3.02243415,38.5966033 3.14233491,38.527994 L5.02591871,37.4422187 C5.26096226,37.3067106 5.40598508,37.0543196 5.40598508,36.7833034 L5.40598508,35.0386128 L6.3077149,34.4876479 C6.30923745,34.4884081 6.30961809,34.4903086 6.31114064,34.4910688 L8.05274672,35.5222988 L7.50158387,35.8552724 C7.27396275,35.9926811 7.13445917,36.2393704 7.13445917,36.5048751 L7.13445917,38.2457647 L5.64102863,39.1049963 C5.2777103,39.3148153 5.1522903,39.7806363 5.36316338,40.1443986 C5.50342824,40.3874769 5.75997779,40.5248856 6.02299818,40.5248856 C6.15222456,40.5248856 6.2831638,40.4914361 6.40306455,40.4228269 L8.27656147,39.3425631 C8.51160501,39.207055 8.65662783,38.954664 8.65662783,38.6836478 L8.65662783,36.9334456 L9.5374226,36.4011059 L11.278648,37.4319558 L10.7550814,37.7444037 C10.5246055,37.8818123 10.3843407,38.1304022 10.3843407,38.3978074 L10.3843407,40.146109 L8.90213891,40.9998291 C8.53786899,41.2113586 8.41340058,41.6754691 8.62427366,42.0392314 C8.76453852,42.2823098 9.02108807,42.4197184 9.28410846,42.4197184 C9.41333484,42.4197184 9.54427408,42.386269 9.66417483,42.3176597 L11.5264429,41.2430975 C11.7614865,41.1056889 11.9065093,40.8551984 11.9065093,40.5841822 L11.9065093,38.8286586 L12.7684625,38.3143739 L14.5060719,39.3433233 L14.007437,39.6379061 C13.7760095,39.7753148 13.6338415,40.0239047 13.6338415,40.2930204 L13.6338415,42.0451231 L12.1628686,42.8933316 C11.7985986,43.1031506 11.6731786,43.5689716 11.8831001,43.9327339 C12.0243166,44.1758122 12.2808661,44.3132209 12.5438865,44.3132209 C12.6731129,44.3132209 12.8031005,44.2797714 12.9230013,44.2111622 L14.7749922,43.1440121 C15.0109873,43.008504 15.1560102,42.756113 15.1560102,42.4850968 L15.1560102,40.7272925 L16.0006444,40.2282121 L17.7319732,41.2533604 L17.259983,41.529128 C17.0266523,41.6665366 16.8835327,41.917027 16.8835327,42.1861427 L16.8835327,43.947558 L15.4226466,44.7883545 C15.0593283,44.9981735 14.9339083,45.4639945 15.1447814,45.8277567 C15.2850462,46.0708351 15.5415958,46.2082437 15.8046162,46.2082437 C15.9338425,46.2082437 16.0647818,46.1747943 16.1846825,46.106185 L18.0256349,45.0445465 C18.2606785,44.9090384 18.4057013,44.6566474 18.4057013,44.3856312 L18.4057013,42.6225054 L19.2305424,42.14091 L20.9582552,43.1637776 L20.5132902,43.4205398 C20.2782466,43.5579485 20.1332238,43.8084389 20.1332238,44.0794551 L20.1332238,45.846382 L18.6835666,46.6816669 C18.3192966,46.8914859 18.1938766,47.3573069 18.4037981,47.7210692 C18.5450146,47.9641475 18.8006125,48.1015561 19.0645845,48.1015561 C19.1938109,48.1015561 19.3237985,48.0681067 19.4436993,47.9994974 L21.2743745,46.945271 C21.5103697,46.8097629 21.6553925,46.5573719 21.6553925,46.2863557 L21.6553925,44.5175283 L22.4602501,44.0532277 L24.1847275,45.0741948 L23.7656458,45.3136622 C23.5286991,45.4491703 23.3827247,45.7015613 23.3827247,45.974478 L23.3827247,47.7469164 L21.9441059,48.5764997 C21.579836,48.7863187 21.454416,49.2521397 21.6643375,49.615902 C21.8055539,49.8589803 22.0621035,49.996389 22.3251238,49.996389 C22.4543502,49.996389 22.5852895,49.9629396 22.7042386,49.8943303 L24.5238754,48.8456154 C24.7598705,48.7101073 24.9048933,48.4577163 24.9048933,48.1867001 L24.9048933,46.4161622 L25.691861,45.9666858 L29.4603608,48.1979132 C29.5802616,48.2684231 29.7140556,48.3054835 29.8488012,48.3054835 C29.9797404,48.3054835 30.1118216,48.2701336 30.2298192,48.2034248 L34.2053857,45.9113803 L35.0928416,46.4178727 L35.0928416,48.1903111 C35.0928416,48.4613273 35.2378645,48.7137183 35.4738596,48.8492264 L37.2934963,49.8979413 C37.4143487,49.9665506 37.5443363,50 37.6745143,50 C37.9365831,50 38.1931326,49.8625914 38.3343491,49.619513 C38.5444609,49.2557507 38.4198022,48.7899297 38.0555322,48.5801107 L36.6169135,47.7505274 L36.6169135,45.9761885 C36.6169135,45.7032717 36.4701778,45.4508808 36.2322795,45.3153727 L35.7332639,45.0304825 L37.4798183,44.0235794 L38.3417715,44.5211393 L38.3417715,46.2899667 C38.3417715,46.5609829 38.4885072,46.8133739 38.7227895,46.948882 L40.5534647,48.0031085 C40.674317,48.0717178 40.8043047,48.1051672 40.9344827,48.1051672 C41.1965515,48.1051672 41.453101,47.9677585 41.5943175,47.7246802 C41.8044293,47.3609179 41.6797705,46.8950969 41.3155006,46.6852779 L39.8658434,45.8498029 L39.8658434,44.0828761 C39.8658434,43.8118599 39.7208205,43.5613694 39.4848254,43.4239608 L39.0025579,43.1455325 L40.7534896,42.1359686 L41.5924143,42.6259264 L41.5924143,44.3890522 C41.5924143,44.6600684 41.7374371,44.9105588 41.9734322,45.0479675 L43.8134331,46.109606 C43.9342854,46.1782153 44.0642731,46.2116647 44.194451,46.2116647 C44.4565198,46.2116647 44.7130694,46.0742561 44.8542858,45.8311777 C45.0643976,45.4674154 44.9397389,45.003495 44.575469,44.7917754 L43.1164861,43.950979 L43.1164861,42.1895637 C43.1164861,41.920448 42.9714633,41.6699576 42.7392745,41.5325489 L42.2726132,41.2600123 L44.02659,40.248928 L44.8413442,40.7309035 L44.8413442,42.4885177 C44.8413442,42.7595339 44.9880798,43.0119249 45.2223621,43.147433 L47.0753046,44.2145831 C47.196157,44.2831924 47.3261446,44.3166418 47.4563226,44.3166418 C47.7183914,44.3166418 47.9749409,44.1792332 48.1161574,43.9361548 C48.3262692,43.5723925 48.2016105,43.1065715 47.8373405,42.8967525 L46.365416,42.048544 L46.365416,40.2964413 C46.365416,40.0273256 46.2222964,39.7785457 45.9918205,39.6430376 L45.540004,39.3760125 L47.3019741,38.3601768 L48.0919869,38.8318895 L48.0919869,40.5876032 C48.0919869,40.8586194 48.2387226,41.1110104 48.4730049,41.2465185 L50.335273,42.3193702 C50.4561253,42.3879795 50.586113,42.4214289 50.7162909,42.4214289 C50.9783597,42.4214289 51.2349093,42.2840202 51.3761257,42.0409419 C51.5862375,41.6771796 51.4615788,41.2113586 51.0973089,41.0015396 L49.6160588,40.1478195 L49.6160588,38.4014184 C49.6160588,38.1342033 49.4748423,37.8854233 49.2443664,37.7480147 L48.8119624,37.4897321 L50.5752648,36.4731362 L51.34282,36.9370566 L51.34282,38.6872588 C51.34282,38.958275 51.4878428,39.2087655 51.7238379,39.3461741 L53.5954317,40.4264379 C53.716284,40.4950472 53.8462717,40.5284966 53.9764496,40.5284966 C54.2385184,40.5284966 54.495068,40.3910879 54.6362844,40.1480096 C54.8463962,39.7842473 54.7217375,39.3203268 54.3574676,39.1086073 L52.8668918,38.2493757 L52.8668918,36.5084861 C52.8668918,36.2431715 52.7275786,35.9962921 52.4988155,35.8588835 L52.0799242,35.6059223 L53.83333,34.5950281 C53.8377073,34.5925574 53.8394202,34.5874259 53.8436072,34.5847652 L54.5917499,35.0422238 L54.5917499,36.7869144 C54.5917499,37.0579306 54.7384856,37.3103216 54.9727678,37.4458297 L56.8573032,38.531605 C56.9781556,38.6002143 57.1081432,38.6336637 57.2383212,38.6336637 C57.50039,38.6336637 57.7569395,38.4962551 57.898156,38.2531767 C58.1078872,37.8896045 57.9834187,37.4235935 57.6191488,37.2139645 Z M30.1919458,13.820096 L51.9392787,26.5531066 L29.8537495,39.2851669 L8.20785643,26.4696732 L30.1919458,13.820096 Z M28.6187717,43.4184492 C28.4096115,43.0527864 27.944092,42.9321025 27.5798221,43.1345094 L25.7042317,44.2060307 L23.9725222,43.1808824 L25.0632384,42.5516155 C25.4275084,42.340086 25.5519768,41.8759755 25.3411037,41.5122132 C25.1309919,41.1503514 24.666424,41.0258664 24.3012025,41.2337849 L22.469766,42.2910522 L20.7334889,41.2630531 L21.79128,40.6453794 C22.1536467,40.4319494 22.2764023,39.9661284 22.063626,39.6040766 C21.8518013,39.2439253 21.3843787,39.1177299 21.0218216,39.3311599 L19.2343488,40.3756936 L17.4948362,39.345794 L18.51837,38.741234 C18.8797851,38.5259034 18.9996859,38.0600824 18.785958,37.6982207 C18.5722301,37.3363589 18.1057591,37.2230871 17.7432021,37.4310055 L15.9998831,38.4609052 L14.2548513,37.4277746 L15.2452696,36.8370885 C15.6066847,36.621758 15.723921,36.1540365 15.50829,35.7940752 C15.292659,35.434114 14.8233331,35.3170411 14.4647728,35.5304711 L12.7644658,36.5453565 L11.0141051,35.5089951 L11.9735015,34.929142 C12.3332038,34.7119109 12.4483465,34.2460899 12.2310026,33.8861287 C12.01442,33.527878 11.547949,33.407194 11.1855822,33.6299367 L9.52980986,34.6301879 L7.77488147,33.5911658 L8.70154304,33.0248065 C9.05934212,32.8058649 9.17277205,32.3371931 8.95333463,31.9789424 C8.73408753,31.6225922 8.26742617,31.5112209 7.90601103,31.7275017 L7.46085568,31.9996582 L7.46085568,27.7951059 L29.0882878,40.5993865 L29.0882878,46.2093841 L27.2117458,45.0985217 L28.3363388,44.455951 C28.70137,44.246322 28.8277416,43.7822115 28.6187717,43.4184492 Z M50.5923935,34.7075397 L48.8148172,33.6337377 C48.4598729,33.4147962 47.9895955,33.5297785 47.7703484,33.8899298 C47.5511013,34.2500811 47.6662441,34.715902 48.0268979,34.9329431 L49.0883051,35.5745635 L47.3158674,36.5964809 L45.534675,35.5323716 C45.1778275,35.3208422 44.7094533,35.4322135 44.4902062,35.7959758 C44.2745752,36.156127 44.3935243,36.621948 44.7541782,36.8389891 L45.8058791,37.4669256 L44.0359156,38.4871325 L42.2581489,37.4365171 C41.8957822,37.2230871 41.4293112,37.3418705 41.215393,37.7018317 C40.999762,38.0636935 41.1206143,38.5295144 41.4810779,38.7431345 L42.5228822,39.3592878 L40.7593895,40.3758837 L38.9776262,39.335151 C38.6188755,39.125332 38.1505013,39.2441154 37.9348702,39.6080677 C37.7230455,39.9699295 37.8456108,40.4357505 38.2081678,40.6493706 L39.2398853,41.25203 L37.4801989,42.2665353 L35.6990066,41.237776 C35.3347366,41.0317581 34.8701688,41.152442 34.6581538,41.5162043 C34.448042,41.8799666 34.5727007,42.3438871 34.9369706,42.5556066 L35.9570787,43.1445822 L34.20196,44.1564268 L32.4186741,43.1385005 C32.0544042,42.9343831 31.5898363,43.0550671 31.3806761,43.4224404 C31.1715159,43.7862027 31.2988391,44.2501231 31.663109,44.4599421 L32.6742721,45.0371344 L30.6102662,46.226869 L30.6102662,40.6066085 L52.6902761,27.8749283 L52.6902761,32.0962054 L52.0936271,31.7313028 C51.7367796,31.5159722 51.2684054,31.6244927 51.0472551,31.9827435 C50.828008,32.3409942 50.9395347,32.809666 51.2980951,33.0286076 L52.3688279,33.6833417 L50.5923935,34.7075397 Z M26.6360319,23.6466193 C26.1674673,23.9102234 25.9293787,24.043641 25.4745171,24.2971722 C24.9290638,24.0006889 24.6472018,23.8476959 24.0553108,23.5268856 C23.0203579,24.1211828 22.5120168,24.4108242 21.8835846,24.7660341 C21.5295918,24.5712293 21.3468859,24.4708811 20.9673905,24.2631527 C22.5017396,23.3784539 24.9585632,21.970538 26.9603349,20.761608 C27.9952878,21.3610366 28.4811713,21.6426958 29.4152553,22.183968 C29.0595497,22.3890357 28.8564797,22.5051583 28.4286433,22.7484267 C27.840178,22.4105117 27.5373811,22.2366128 26.9062844,21.8747511 C26.2734748,22.2459254 25.9145338,22.454224 25.2153031,22.8586577 C25.8058619,23.1857397 26.0882948,23.3423437 26.6360319,23.6466193 Z M30.8772833,25.1392991 C31.5755624,24.7856096 31.9483967,24.4737319 32.0256661,24.1814297 C32.1016032,23.8896977 31.8960591,23.6213422 31.4356782,23.3545072 C30.9511269,23.0737982 30.7048546,22.930878 30.1995585,22.6380057 C28.1233722,23.8032233 25.851919,25.060997 24.074533,25.9793353 C24.3830395,26.1513336 24.5333913,26.2355273 24.8291465,26.401444 C25.4901232,26.0732217 25.9447945,25.8367952 26.8790688,25.3439866 C27.0136241,25.4171572 27.0804259,25.4534574 27.2132684,25.5256777 C27.6662268,25.772177 28.1930288,25.8607419 28.8237449,25.7953635 C29.4523674,25.7305553 30.1519788,25.5066724 30.8772833,25.1392991 Z M28.0493383,24.722892 C28.8600958,24.2899502 29.2799387,24.0634065 30.0198977,23.663154 C30.1658721,23.7473476 30.2385738,23.7889693 30.3828354,23.8722127 C30.5992277,23.9966978 30.6827776,24.1259341 30.6302496,24.2633427 C30.5788636,24.4001812 30.3887353,24.5529842 30.054726,24.7268831 C29.7230006,24.8992616 29.4063103,24.9999899 29.1109358,25.0265974 C28.8168934,25.0526347 28.5500667,25.00037 28.308362,24.8663823 C28.2052092,24.8093663 28.1534426,24.7804782 28.0493383,24.722892 Z M33.4462046,27.4986225 C32.0201468,28.1733122 31.2470724,28.5370745 29.9921112,29.0832881 C29.6280316,29.0036557 29.3277087,28.9171814 29.0787719,28.8227249 C28.8286932,28.7284583 28.60583,28.6233588 28.403331,28.506856 C27.8896609,28.2111329 27.7381672,27.8988751 27.9998554,27.5047042 C28.2615436,27.1107234 28.9579195,26.6353998 30.107254,26.0686604 C31.2249955,25.5175054 32.2393939,25.1828213 33.1262789,25.0986276 C34.0135445,25.0134837 34.7103011,25.1655264 35.2911537,25.5015409 C35.6559946,25.7125002 35.8929413,25.9688823 35.9882909,26.2811401 C35.4858497,26.4143676 35.2211164,26.4875382 34.6779469,26.6403412 C34.6549184,26.376737 34.5020925,26.1682484 34.2221337,26.0065129 C33.899163,25.8200705 33.4469658,25.761344 32.8419428,25.8487686 C32.2380617,25.935623 31.5698529,26.1598861 30.846642,26.5088242 C30.0927897,26.8723964 29.6070965,27.1818034 29.3872785,27.4412264 C29.1661282,27.7012195 29.2125659,27.9038165 29.5096534,28.0680226 C29.6647631,28.1537367 29.8514657,28.229378 30.0739482,28.293236 C30.6123597,28.0509178 30.898028,27.9192108 31.4727904,27.6516155 C31.1996831,27.5010932 31.0647471,27.4267823 30.7962075,27.2791108 C31.2817104,27.0512367 31.5300763,26.9330235 32.0197662,26.6994478 C32.5827288,27.0145564 32.865352,27.173061 33.4462046,27.4986225 Z M31.0316317,29.9381485 C31.719824,29.7505658 32.0884712,29.6403348 32.8326172,29.41018 C33.4233663,29.7368819 33.730731,29.9067897 34.3827627,30.2678912 C33.9037306,30.6485683 33.6707806,30.8369113 33.2357121,31.2014338 C33.6662129,31.447743 33.889647,31.5754589 34.3574503,31.842484 C36.0010423,30.1365643 37.25391,29.1378335 38.9172952,27.6590276 C38.530187,27.4355248 38.339678,27.3254838 37.9615148,27.1071124 C35.1980879,27.9404968 33.060048,28.7052718 30.1493144,29.431466 C30.4916976,29.6283614 30.6673618,29.7292798 31.0316317,29.9381485 Z M37.5405299,27.8481308 C37.4546962,27.9062871 37.3412663,27.9895306 37.1990983,28.0974809 C37.0573109,28.2069517 36.4277367,28.6841759 35.3109468,29.5597521 C34.8661721,29.3130627 34.6513023,29.1938992 34.2326013,28.961844 C36.0609927,28.3713479 37.1303932,27.9958023 37.5405299,27.8481308 Z"/>
</svg>
