<svg xmlns="http://www.w3.org/2000/svg" width="60" height="60" viewBox="0 0 60 60">
  <path fill="#231F20" d="M58,30.201452 C58,30.1910664 57.9926153,30.1829887 57.9922267,30.1726031 C57.987757,30.0585536 57.9566637,29.9537358 57.9071087,29.8573803 C57.8907847,29.8254541 57.8707684,29.7996824 57.8501691,29.7702565 C57.7973104,29.6946723 57.7337635,29.6323585 57.6573905,29.5796611 C57.6389288,29.5669676 57.6305725,29.5448501 57.6109448,29.5336951 L23.6045707,10.1039311 C23.3616542,9.96391759 23.066462,9.96680249 22.8254888,10.1039311 L2.47277396,21.7777526 C2.4478993,21.7919848 2.43682231,21.8194874 2.41408532,21.8360275 C2.34840068,21.8833398 2.29398737,21.9385374 2.24598706,22.003159 C2.22305574,22.0347006 2.19759808,22.0606646 2.17971943,22.0952833 C2.12588912,22.1962546 2.08818847,22.3062653 2.08585647,22.4285848 L2.00015551,26.7549648 C1.99451985,27.0347996 2.14240744,27.2950171 2.38726733,27.4348383 L12.7415368,33.3842599 C12.7658285,33.3971458 12.7862335,33.4144551 12.8120798,33.4248408 L36.2552762,46.8947975 C36.2651872,46.9005673 36.2772358,46.8980671 36.2873411,46.9034522 C36.3915038,46.9582652 36.5051887,46.9973074 36.6311167,47 C36.6367523,47 36.640639,47 36.6462746,47 C36.7743403,47 36.8901629,46.9615347 36.9968518,46.9069141 C37.0090948,46.9007596 37.0234755,46.9034522 37.0353298,46.8967208 L57.5256326,35.1900115 C57.7609701,35.0548061 57.909052,34.8068975 57.9146877,34.5382177 L58,30.2147226 C58,30.2118377 57.9986397,30.2097221 57.9986397,30.2068372 C57.9986397,30.2047216 58,30.203183 58,30.201452 Z M21.1858992,12.823425 L23.2164873,11.6579276 L55.6619768,30.1966439 L36.7335303,40.9088339 L34.9417778,39.885081 L38.082786,38.0200929 C38.3237592,37.8773868 38.4679545,37.6144768 38.4586265,37.334642 C38.4492985,37.0548073 38.2878075,36.8030521 38.0353687,36.6753475 L35.270201,35.2779046 C35.0368067,35.1577007 34.7559952,35.1652014 34.5262933,35.2984835 L30.7346574,37.4810023 L28.9349373,36.4526336 L32.0668118,34.6147635 C32.3097283,34.4739807 32.4539236,34.2128016 32.4463446,33.9329668 C32.4407089,33.6550553 32.2811614,33.4013769 32.0306658,33.271749 L29.2769638,31.8414184 C29.0416262,31.7192912 28.7578997,31.7258303 28.5254771,31.8564198 L24.7175172,34.0425928 L22.9286797,33.0203786 L26.0508376,31.2102035 C26.2927825,31.0694206 26.4398928,30.8111264 26.4352288,30.5330226 C26.4305648,30.2549188 26.2749038,30.0014327 26.0271289,29.8691122 L23.2839209,28.4022395 C23.0476117,28.2764582 22.7601928,28.2801123 22.5258269,28.4135868 L18.7001827,30.6041833 L16.9233939,29.5890851 L20.0358351,27.8042971 C20.27778,27.6652452 20.4258619,27.4079126 20.4229469,27.1309627 C20.4200319,26.8547822 20.267286,26.6003345 20.0233978,26.4660907 L17.291461,24.9653686 C17.0514595,24.8338175 16.7611256,24.8357407 16.5257881,24.9709461 L12.8736834,27.0569171 C12.7984765,27.0801886 12.7325975,27.1148073 12.6690505,27.1580807 L10.916359,26.1566377 L14.0198609,24.3980061 C14.2618058,24.2608774 14.411831,24.0054681 14.4108594,23.7292875 C14.4108594,23.453107 14.2610284,23.1986593 14.0181119,23.0615306 L11.2966692,21.5279208 C11.0584166,21.393677 10.7653621,21.393677 10.5241945,21.529844 L6.66590233,23.7277489 L4.41532905,22.4418553 L21.1858992,12.823425 Z M8.37001053,24.5330191 L10.914027,23.0840328 L12.0660345,23.7329417 L9.46993669,25.2034686 L8.37001053,24.5330191 Z M7.62901788,26.0550894 L8.67841739,26.6547628 L8.67841739,29.2713621 L7.62901788,28.6684191 L7.62901788,26.0550894 Z M10.2326947,27.5429257 L12.3231374,28.7374643 L12.3231374,31.3656031 L10.2326947,30.1645254 L10.2326947,27.5429257 Z M15.5067045,28.6228378 L14.41358,27.9550809 L16.9214505,26.5220577 L18.070543,27.1530803 L15.5067045,28.6228378 Z M13.8774146,29.6254348 L14.8537448,30.1833734 L14.8537448,32.8195899 L13.8774146,32.2585741 L13.8774146,29.6254348 Z M16.4082164,31.0715362 L18.3249252,32.1668345 L18.3249252,34.8138213 L16.4082164,33.7125609 L16.4082164,31.0715362 Z M21.542695,32.0420147 L20.4561779,31.3761811 L22.9280967,29.9618135 L24.0734969,30.5741804 L21.542695,32.0420147 Z M19.8792025,33.0549973 L21.0075013,33.699675 L21.0075013,36.3551242 L19.8792025,35.7069846 L19.8792025,33.0549973 Z M22.5617786,34.5878379 L24.2260485,35.5388914 L24.2260485,38.2043415 L22.5617786,37.2480952 L22.5617786,34.5878379 Z M27.5784912,35.4602299 L26.4995531,34.7990121 L28.9343543,33.4015693 L30.0758677,33.9950882 L27.5784912,35.4602299 Z M25.7803257,36.4270542 L27.1002371,37.1811656 L27.1002371,39.8558474 L25.7803257,39.0975048 L25.7803257,36.4270542 Z M28.6545144,38.0691361 L30.2571806,38.984994 L30.2571806,41.6694844 L28.6545144,40.7486261 L28.6545144,38.0691361 Z M33.6154534,38.8786375 L32.5431226,38.219343 L34.9419721,36.8388248 L36.0805706,37.4154191 L33.6154534,38.8786375 Z M31.8124296,39.8737338 L32.8295698,40.4549438 L32.8295698,43.147512 L31.8124296,42.5630324 L31.8124296,39.8737338 Z M34.3859847,41.3442606 L35.9447316,42.2349237 L35.8932333,44.9078746 L34.3859847,44.0418292 L34.3859847,41.3442606 Z M3.61409309,23.7610214 L6.07474061,25.1671189 L6.07474061,27.7756405 L3.56298345,26.332424 L3.61409309,23.7610214 Z M37.4504256,44.8828721 L37.5011466,42.2464633 L56.4173501,31.54062 L56.3677951,34.0741343 L37.4504256,44.8828721 Z M39.8325625,32.3820476 C39.8345058,32.6582281 39.9862801,32.9117142 40.2291966,33.0488428 L43.0246803,34.6095707 C43.1422519,34.6753463 43.2751759,34.7091958 43.4061565,34.7091958 C43.5484084,34.7091958 43.6889114,34.6697689 43.8142563,34.5928383 L49.3045591,31.2365522 C49.5379533,31.0938461 49.6784562,30.8401677 49.6745696,30.5697569 C49.6689339,30.2983845 49.520852,30.0495143 49.2835711,29.9152705 L46.7063236,28.4503211 C46.4634071,28.3112692 46.1691865,28.3131925 45.9301566,28.4512828 L40.2216176,31.7127521 C39.9806444,31.8504577 39.8325625,32.105867 39.8325625,32.3820476 Z M46.3211551,30.0041253 L47.3781336,30.6061066 L43.3890552,33.0449963 L42.1783591,32.3707003 L46.3211551,30.0041253 Z M33.8202806,28.9740256 C33.822224,29.2502062 33.9739982,29.5046539 34.2169148,29.6398593 L37.0123985,31.2005871 C37.1299701,31.2673244 37.262894,31.3002122 37.3938746,31.3002122 C37.5361266,31.3002122 37.6766295,31.2617469 37.8019744,31.1855857 L43.2922772,27.8283379 C43.5256714,27.6856318 43.6661744,27.4319534 43.6622877,27.1615426 C43.656652,26.8901702 43.5085701,26.6413 43.2712892,26.5070562 L40.6940418,25.0430685 C40.4530685,24.9049782 40.158848,24.9059398 39.9178748,25.0430685 L34.2093358,28.3035762 C33.9683626,28.4424357 33.8202806,28.6978451 33.8202806,28.9740256 Z M40.3088733,26.5970649 L41.3658518,27.1980846 L37.3767733,29.637936 L36.1660772,28.9626784 L40.3088733,26.5970649 Z M27.8101364,25.5660037 C27.8111081,25.8421842 27.9619107,26.0966319 28.2048273,26.2318373 L30.9993393,27.7935268 C31.1178826,27.860264 31.2498348,27.8931518 31.3817871,27.8931518 C31.5232617,27.8931518 31.6655136,27.8546866 31.7906643,27.7785254 L37.2799954,24.4212776 C37.5133896,24.2785714 37.6538925,24.0248931 37.6500058,23.7544823 C37.6443702,23.4831099 37.4962883,23.2342397 37.2590074,23.0999959 L34.6817599,21.6350465 C34.4388433,21.4959946 34.1465662,21.4969562 33.9055929,21.6360081 L28.1980256,24.8965158 C27.9570524,25.0344138 27.8081931,25.2900154 27.8101364,25.5660037 Z M34.2967857,23.1892353 L35.3537643,23.7912166 L31.3637141,26.231068 L30.154767,25.5548487 L34.2967857,23.1892353 Z M21.7978546,22.1589433 C21.7988263,22.4351239 21.9496289,22.6895716 22.1925454,22.824777 L24.9870574,24.3855049 C25.1056007,24.4522421 25.237553,24.4851299 25.3695053,24.4851299 C25.5109799,24.4851299 25.6532318,24.4466646 25.7783824,24.3705034 L31.2686852,21.0132556 C31.5011077,20.8705495 31.6416107,20.6168711 31.6369467,20.3464603 C31.6322827,20.0750879 31.4842007,19.8262177 31.2469198,19.6919739 L28.6687007,18.2270246 C28.4296708,18.0898959 28.133507,18.0889343 27.8925337,18.2279862 L22.1859381,21.4894555 C21.9449649,21.6275458 21.7959113,21.8829551 21.7978546,22.1589433 Z M28.2825606,19.7812133 L29.3414824,20.3831947 L25.3514323,22.823046 L24.1424852,22.1477884 L28.2825606,19.7812133 Z M16.1804579,19.416755 L18.9749699,20.9774829 C19.0935132,21.0442201 19.2254655,21.0771079 19.3574177,21.0771079 C19.4988923,21.0771079 19.6411443,21.0386427 19.7662949,20.9624815 L25.2565976,17.6052336 C25.4890202,17.4625275 25.6295231,17.2088491 25.6248591,16.9384384 C25.6201951,16.667066 25.4721132,16.4181957 25.2348323,16.283952 L22.6566132,14.8190026 C22.4175833,14.6818739 22.1214194,14.6809123 21.8804462,14.8199642 L16.1738506,18.0814335 C15.9328773,18.2195238 15.7838237,18.4749332 15.7857671,18.7509214 C15.7867387,19.0271019 15.9375413,19.2815496 16.1804579,19.416755 Z M22.270473,16.3731914 L23.3293949,16.9751727 L19.3393447,19.4150241 L18.1303976,18.7397665 L22.270473,16.3731914 Z"/>
</svg>
