<?xml version="1.0" encoding="utf-8"?>
<!-- Generator: Adobe Illustrator 21.0.0, SVG Export Plug-In . SVG Version: 6.00 Build 0)  -->
<svg version="1.1" id="Layer_1" xmlns="http://www.w3.org/2000/svg" xmlns:xlink="http://www.w3.org/1999/xlink" x="0px" y="0px"
	 viewBox="0 0 30 30" style="enable-background:new 0 0 30 30;" xml:space="preserve">
<style type="text/css">
	.st0{display:none;opacity:0.2;}
	.st1{display:inline;fill:none;stroke:#00ADEE;stroke-width:0.125;stroke-miterlimit:10;}
	.st2{fill:#231F20;}
</style>
<g class="st0">
	<path class="st1" d="M-15.375-16.557"/>
	<line class="st1" x1="-13.125" y1="47.1558" x2="-13.125" y2="-16.3603"/>
	<line class="st1" x1="-10.875" y1="47.3529" x2="-10.875" y2="-16.5568"/>
	<line class="st1" x1="-8.625" y1="46.959" x2="-8.625" y2="-16.3109"/>
	<line class="st1" x1="-6.375" y1="47.746" x2="-6.375" y2="-16.6546"/>
	<line class="st1" x1="-4.125" y1="47.3529" x2="-4.125" y2="-16.5079"/>
	<line class="st1" x1="-1.875" y1="47.4999" x2="-1.875" y2="-16.6061"/>
	<line class="st1" x1="0.375" y1="47.3529" x2="0.375" y2="-16.5568"/>
	<line class="st1" x1="2.625" y1="47.4999" x2="2.625" y2="-16.9021"/>
	<line class="st1" x1="4.875" y1="47.1558" x2="4.875" y2="-16.6547"/>
	<line class="st1" x1="7.125" y1="47.3029" x2="7.125" y2="-16.8517"/>
	<line class="st1" x1="9.375" y1="47.1063" x2="9.375" y2="-16.4577"/>
	<line class="st1" x1="11.625" y1="47.2541" x2="11.625" y2="-16.5081"/>
	<line class="st1" x1="13.875" y1="47.3029" x2="13.875" y2="-16.5079"/>
	<line class="st1" x1="16.125" y1="47.0567" x2="16.125" y2="-16.458"/>
	<line class="st1" x1="18.375" y1="47.1063" x2="18.375" y2="-16.4089"/>
	<line class="st1" x1="20.625" y1="47.3529" x2="20.625" y2="-16.6058"/>
	<line class="st1" x1="22.875" y1="47.1558" x2="22.875" y2="-16.5569"/>
	<line class="st1" x1="25.125" y1="47.4511" x2="25.125" y2="-16.5082"/>
	<line class="st1" x1="27.375" y1="47.2541" x2="27.375" y2="-16.3603"/>
	<line class="st1" x1="29.625" y1="47.1063" x2="29.625" y2="-16.5077"/>
	<line class="st1" x1="31.875" y1="47.1558" x2="31.875" y2="-16.508"/>
	<line class="st1" x1="34.125" y1="47.1063" x2="34.125" y2="-16.5077"/>
	<line class="st1" x1="36.375" y1="46.8598" x2="36.375" y2="-16.5566"/>
	<line class="st1" x1="38.625" y1="47.1558" x2="38.625" y2="-16.7536"/>
	<line class="st1" x1="40.875" y1="47.1558" x2="40.875" y2="-16.6058"/>
	<line class="st1" x1="43.125" y1="47.4511" x2="43.125" y2="-16.6062"/>
	<line class="st1" x1="-14.2926" y1="47.1726" x2="-16.4896" y2="45.9041"/>
	<line class="st1" x1="-9.8838" y1="47.1199" x2="-16.5439" y2="43.2746"/>
	<line class="st1" x1="-5.0286" y1="47.3248" x2="-16.5547" y2="40.6703"/>
	<line class="st1" x1="-0.4099" y1="47.3936" x2="-16.607" y2="38.0421"/>
	<line class="st1" x1="3.8647" y1="47.2633" x2="-16.4987" y2="35.5065"/>
	<line class="st1" x1="8.1817" y1="47.1575" x2="-16.4585" y2="32.9315"/>
	<line class="st1" x1="12.7364" y1="47.1893" x2="-16.5287" y2="30.2931"/>
	<line class="st1" x1="17.0493" y1="47.0812" x2="-16.4649" y2="27.7317"/>
	<line class="st1" x1="21.7487" y1="47.1965" x2="-16.5216" y2="25.1011"/>
	<line class="st1" x1="26.2708" y1="47.2091" x2="-16.6454" y2="22.4314"/>
	<line class="st1" x1="30.8011" y1="47.2265" x2="-16.5718" y2="19.8757"/>
	<line class="st1" x1="35.0797" y1="47.0989" x2="-16.5759" y2="17.2755"/>
	<line class="st1" x1="39.7372" y1="47.1897" x2="-16.5939" y2="14.6669"/>
	<line class="st1" x1="44.4278" y1="47.2996" x2="-16.6466" y2="12.0384"/>
	<line class="st1" x1="46.5391" y1="45.9207" x2="-16.5451" y2="9.499"/>
	<line class="st1" x1="46.7575" y1="43.4487" x2="-16.4576" y2="6.9515"/>
	<line class="st1" x1="46.5446" y1="40.7275" x2="-16.5248" y2="4.3145"/>
	<line class="st1" x1="46.5973" y1="38.16" x2="-16.5582" y2="1.6972"/>
	<line class="st1" x1="46.5272" y1="35.5214" x2="-16.4693" y2="-0.8496"/>
	<line class="st1" x1="46.6505" y1="32.9944" x2="-16.4717" y2="-3.4492"/>
	<line class="st1" x1="46.5376" y1="30.3314" x2="-16.4197" y2="-6.017"/>
	<line class="st1" x1="46.4796" y1="27.6997" x2="-16.3754" y2="-8.5896"/>
	<polyline class="st1" points="46.5777,25.1581 -16.1346,-11.0488 -16.5294,-11.2767 	"/>
	<polyline class="st1" points="46.5142,22.5236 -16.248,-13.7121 -17.1105,-14.2101 	"/>
	<polyline class="st1" points="46.5439,19.9426 -14.9996,-15.5896 -16.7609,-16.6065 	"/>
	<line class="st1" x1="46.3527" y1="17.2343" x2="-12.0668" y2="-16.4943"/>
	<line class="st1" x1="46.4824" y1="14.711" x2="-7.5112" y2="-16.4622"/>
	<line class="st1" x1="46.479" y1="12.1109" x2="-3.0123" y2="-16.4629"/>
	<line class="st1" x1="46.4578" y1="9.5007" x2="1.1859" y2="-16.637"/>
	<line class="st1" x1="46.3608" y1="6.8466" x2="5.6507" y2="-16.6575"/>
	<line class="st1" x1="46.5626" y1="4.3649" x2="10.4854" y2="-16.4643"/>
	<line class="st1" x1="46.6047" y1="1.7913" x2="15.0995" y2="-16.3983"/>
	<line class="st1" x1="46.4335" y1="-0.9057" x2="19.5934" y2="-16.4018"/>
	<line class="st1" x1="46.5889" y1="-3.4142" x2="23.9443" y2="-16.488"/>
	<line class="st1" x1="46.3665" y1="-6.1405" x2="28.4468" y2="-16.4864"/>
	<line class="st1" x1="46.5992" y1="-8.6043" x2="33.0984" y2="-16.399"/>
	<line class="st1" x1="46.5865" y1="-11.2098" x2="37.2213" y2="-16.6168"/>
	<line class="st1" x1="46.6046" y1="-13.7973" x2="41.9486" y2="-16.4854"/>
	<path class="st1" d="M46.5364-16.4349"/>
	<path class="st1" d="M-72.75-106.0893"/>
	<path class="st1" d="M-71.625-108.0379"/>
	<path class="st1" d="M-70.5-109.9865"/>
	<path class="st1" d="M-69.375-111.935"/>
	<path class="st1" d="M-68.25-113.8836"/>
	<path class="st1" d="M-67.125-115.8321"/>
	<path class="st1" d="M-66-117.7807"/>
	<path class="st1" d="M-64.875-119.7292"/>
	<path class="st1" d="M-63.75-121.6778"/>
	<path class="st1" d="M46.631,47.1215"/>
	<line class="st1" x1="41.8384" y1="47.2903" x2="46.5346" y2="44.579"/>
	<line class="st1" x1="37.761" y1="47.0465" x2="46.6554" y2="41.9113"/>
	<line class="st1" x1="33.2481" y1="47.0539" x2="46.6394" y2="39.3224"/>
	<line class="st1" x1="28.7471" y1="47.0544" x2="46.5552" y2="36.7729"/>
	<line class="st1" x1="23.9766" y1="47.2107" x2="46.5546" y2="34.1753"/>
	<line class="st1" x1="19.718" y1="47.0712" x2="46.6021" y2="31.5497"/>
	<line class="st1" x1="15.3122" y1="47.0167" x2="46.6066" y2="28.9489"/>
	<line class="st1" x1="10.3988" y1="47.2556" x2="46.5751" y2="26.3692"/>
	<line class="st1" x1="6.1197" y1="47.1279" x2="46.5162" y2="23.805"/>
	<line class="st1" x1="1.2953" y1="47.3154" x2="46.6164" y2="21.1493"/>
	<line class="st1" x1="-3.222" y1="47.3253" x2="46.4154" y2="18.6671"/>
	<line class="st1" x1="-8.0514" y1="47.5153" x2="46.5572" y2="15.9871"/>
	<line class="st1" x1="-11.769" y1="47.0639" x2="46.4405" y2="13.4566"/>
	<line class="st1" x1="-16.6198" y1="47.2663" x2="46.4978" y2="10.8253"/>
	<line class="st1" x1="-16.6252" y1="44.6712" x2="46.5671" y2="8.1872"/>
	<line class="st1" x1="-16.3982" y1="41.9423" x2="46.4768" y2="5.6413"/>
	<line class="st1" x1="-16.5136" y1="39.4107" x2="46.6506" y2="2.9429"/>
	<line class="st1" x1="-16.3672" y1="36.728" x2="46.4811" y2="0.4426"/>
	<line class="st1" x1="-16.4261" y1="34.1641" x2="46.6243" y2="-2.2381"/>
	<line class="st1" x1="-16.5537" y1="31.6396" x2="46.5591" y2="-4.7985"/>
	<line class="st1" x1="-16.6591" y1="29.1023" x2="46.5062" y2="-7.3662"/>
	<line class="st1" x1="-16.5488" y1="26.4407" x2="46.4955" y2="-9.9579"/>
	<line class="st1" x1="-16.5014" y1="23.8152" x2="46.6906" y2="-12.6687"/>
	<line class="st1" x1="-16.6869" y1="21.324" x2="46.6589" y2="-15.2486"/>
	<line class="st1" x1="-16.5222" y1="18.6311" x2="44.3216" y2="-16.497"/>
	<line class="st1" x1="-16.6397" y1="16.1008" x2="40.1155" y2="-16.6668"/>
	<line class="st1" x1="-16.4543" y1="13.3959" x2="35.4976" y2="-16.5986"/>
	<line class="st1" x1="-16.4766" y1="10.8105" x2="31.0105" y2="-16.6061"/>
	<line class="st1" x1="-16.6191" y1="8.2947" x2="26.3737" y2="-16.5272"/>
	<line class="st1" x1="-16.5886" y1="5.6791" x2="21.7039" y2="-16.4291"/>
	<line class="st1" x1="-16.4987" y1="3.0291" x2="17.3446" y2="-16.5104"/>
	<line class="st1" x1="-16.4879" y1="0.4247" x2="12.9603" y2="-16.5772"/>
	<line class="st1" x1="-16.5374" y1="-2.1447" x2="8.4534" y2="-16.5731"/>
	<line class="st1" x1="-16.4468" y1="-4.7952" x2="4.0268" y2="-16.6156"/>
	<polyline class="st1" points="-16.5695,-7.3225 -15.9916,-7.6561 -0.3642,-16.6786 	"/>
	<line class="st1" x1="-16.6918" y1="-9.8497" x2="-5.065" y2="-16.5625"/>
	<line class="st1" x1="-16.2564" y1="-12.6993" x2="-10.0909" y2="-16.259"/>
	<path class="st1" d="M-14.1742-16.4997"/>
</g>
<g>
	<path class="st2" d="M29.4824,15.0889c0-0.0054-0.0038-0.0096-0.004-0.015c-0.0023-0.0593-0.0183-0.1138-0.0438-0.1639
		c-0.0084-0.0166-0.0187-0.03-0.0293-0.0453c-0.0272-0.0393-0.0599-0.0717-0.0992-0.0991
		c-0.0095-0.0066-0.0138-0.0181-0.0239-0.0239L11.7832,4.6392c-0.125-0.0728-0.2769-0.0713-0.4009,0L0.9092,10.709
		c-0.0128,0.0074-0.0185,0.0217-0.0302,0.0303c-0.0338,0.0246-0.0618,0.0533-0.0865,0.0869
		c-0.0118,0.0164-0.0249,0.0299-0.0341,0.0479c-0.0277,0.0525-0.0471,0.1097-0.0483,0.1733L0.666,13.2969
		c-0.0029,0.1455,0.0732,0.2808,0.1992,0.3535l5.3281,3.0934c0.0125,0.0067,0.023,0.0157,0.0363,0.0211l12.0634,7.0037
		c0.0051,0.003,0.0113,0.0017,0.0165,0.0045c0.0536,0.0285,0.1121,0.0488,0.1769,0.0502c0.0029,0,0.0049,0,0.0078,0
		c0.0659,0,0.1255-0.02,0.1804-0.0484c0.0063-0.0032,0.0137-0.0018,0.0198-0.0053l10.5439-6.0869
		c0.1211-0.0703,0.1973-0.1992,0.2002-0.3389l0.0439-2.248c0-0.0015-0.0007-0.0026-0.0007-0.0041
		C29.4817,15.0906,29.4824,15.0898,29.4824,15.0889z M10.5386,6.0532l1.0449-0.606l16.6958,9.6392l-9.7402,5.5698l-0.922-0.5323
		l1.6163-0.9697c0.124-0.0742,0.1982-0.2109,0.1934-0.3564s-0.0879-0.2764-0.2178-0.3428l-1.4229-0.7266
		c-0.1201-0.0625-0.2646-0.0586-0.3828,0.0107l-1.9511,1.1348l-0.9261-0.5347l1.6116-0.9556
		c0.125-0.0732,0.1992-0.209,0.1953-0.3545c-0.0029-0.1445-0.085-0.2764-0.2139-0.3438l-1.417-0.7437
		c-0.1211-0.0635-0.2671-0.0601-0.3867,0.0078l-1.9595,1.1367l-0.9205-0.5315l1.6066-0.9412
		c0.1245-0.0732,0.2002-0.2075,0.1978-0.3521s-0.0825-0.2764-0.21-0.3452l-1.4116-0.7627
		c-0.1216-0.0654-0.2695-0.0635-0.3901,0.0059l-1.9686,1.139l-0.9143-0.5278l1.6016-0.928
		c0.1245-0.0723,0.2007-0.2061,0.1992-0.3501c-0.0015-0.1436-0.0801-0.2759-0.2056-0.3457l-1.4058-0.7803
		c-0.1235-0.0684-0.2729-0.0674-0.394,0.0029l-1.8793,1.0846c-0.0387,0.0121-0.0726,0.0301-0.1053,0.0526l-0.9019-0.5207
		l1.597-0.9144c0.1245-0.0713,0.2017-0.2041,0.2012-0.3477c0-0.1436-0.0771-0.2759-0.2021-0.3472l-1.4004-0.7974
		c-0.1226-0.0698-0.2734-0.0698-0.3975,0.001l-1.9854,1.1428l-1.1581-0.6686L10.5386,6.0532z M3.9438,12.1416l1.3091-0.7534
		l0.5928,0.3374l-1.3359,0.7646L3.9438,12.1416z M3.5625,12.933l0.54,0.3118v1.3605l-0.54-0.3135V12.933z M4.9023,13.7066
		l1.0757,0.6211v1.3665l-1.0757-0.6245V13.7066z M7.6162,14.2681l-0.5625-0.3472l1.2905-0.7451l0.5913,0.3281L7.6162,14.2681z
		 M6.7778,14.7894l0.5024,0.2901v1.3707l-0.5024-0.2917V14.7894z M8.0801,15.5413l0.9863,0.5695v1.3763l-0.9863-0.5726V15.5413z
		 M10.7222,16.0459l-0.5591-0.3462l1.272-0.7354l0.5894,0.3184L10.7222,16.0459z M9.8662,16.5726l0.5806,0.3352v1.3807
		l-0.5806-0.337V16.5726z M11.2466,17.3696l0.8564,0.4945V19.25l-0.8564-0.4972V17.3696z M13.8281,17.8232l-0.5552-0.3438
		l1.2529-0.7266l0.5874,0.3086L13.8281,17.8232z M12.9028,18.3259l0.6792,0.3921v1.3907l-0.6792-0.3943V18.3259z M14.3818,19.1797
		l0.8247,0.4762v1.3958l-0.8247-0.4788V19.1797z M16.9346,19.6006l-0.5518-0.3428l1.2344-0.7178l0.5859,0.2998L16.9346,19.6006z
		 M16.0068,20.118l0.5234,0.3022v1.4l-0.5234-0.3039V20.118z M17.3311,20.8826l0.8021,0.4631l-0.0265,1.3898l-0.7756-0.4503V20.8826
		z M1.4965,11.7402l1.2662,0.7311v1.3563l-1.2925-0.7504L1.4965,11.7402z M18.908,22.7225l0.0261-1.3708l9.7339-5.5665
		l-0.0255,1.3173L18.908,22.7225z"/>
	<path class="st2" d="M20.1338,16.2227c0.001,0.1436,0.0791,0.2754,0.2041,0.3467l1.4385,0.8115
		c0.0605,0.0342,0.1289,0.0518,0.1963,0.0518c0.0732,0,0.1455-0.0205,0.21-0.0605l2.8252-1.7451
		c0.1201-0.0742,0.1924-0.2061,0.1904-0.3467c-0.0029-0.1411-0.0791-0.2705-0.2012-0.3403l-1.3262-0.7617
		c-0.125-0.0723-0.2764-0.0713-0.3994,0.0005l-2.9375,1.6958C20.21,15.9463,20.1338,16.0791,20.1338,16.2227z M23.4727,14.9863
		l0.5439,0.313l-2.0527,1.2681l-0.623-0.3506L23.4727,14.9863z"/>
	<path class="st2" d="M17.04,14.4507c0.001,0.1436,0.0791,0.2759,0.2041,0.3462l1.4385,0.8115
		c0.0605,0.0347,0.1289,0.0518,0.1963,0.0518c0.0732,0,0.1455-0.02,0.21-0.0596l2.8252-1.7456
		c0.1201-0.0742,0.1924-0.2061,0.1904-0.3467c-0.0029-0.1411-0.0791-0.2705-0.2012-0.3403l-1.3262-0.7612
		c-0.124-0.0718-0.2754-0.0713-0.3994,0l-2.9375,1.6953C17.1162,14.1743,17.04,14.3071,17.04,14.4507z M20.3789,13.2148
		l0.5439,0.3125l-2.0527,1.2686l-0.623-0.3511L20.3789,13.2148z"/>
	<path class="st2" d="M13.9473,12.6787c0.0005,0.1436,0.0781,0.2759,0.2031,0.3462l1.438,0.812
		c0.061,0.0347,0.1289,0.0518,0.1968,0.0518c0.0728,0,0.146-0.02,0.2104-0.0596l2.8247-1.7456
		c0.1201-0.0742,0.1924-0.2061,0.1904-0.3467c-0.0029-0.1411-0.0791-0.2705-0.2012-0.3403l-1.3262-0.7617
		c-0.125-0.0723-0.2754-0.0718-0.3994,0.0005l-2.937,1.6953C14.0229,12.4023,13.9463,12.5352,13.9473,12.6787z M17.2852,11.4429
		l0.5439,0.313l-2.0532,1.2686l-0.6221-0.3516L17.2852,11.4429z"/>
	<path class="st2" d="M10.8535,10.9072c0.0005,0.1436,0.0781,0.2759,0.2031,0.3462l1.438,0.8115
		c0.061,0.0347,0.1289,0.0518,0.1968,0.0518c0.0728,0,0.146-0.02,0.2104-0.0596l2.8252-1.7456
		c0.1196-0.0742,0.1919-0.2061,0.1895-0.3467c-0.0024-0.1411-0.0786-0.2705-0.2007-0.3403l-1.3267-0.7617
		c-0.123-0.0713-0.2754-0.0718-0.3994,0.0005l-2.9365,1.6958C10.9292,10.6309,10.8525,10.7637,10.8535,10.9072z M14.1904,9.6709
		l0.5449,0.313l-2.0532,1.2686l-0.6221-0.3511L14.1904,9.6709z"/>
	<path class="st2" d="M7.9629,9.4814l1.438,0.8115c0.061,0.0347,0.1289,0.0518,0.1968,0.0518c0.0728,0,0.146-0.02,0.2104-0.0596
		l2.8252-1.7456c0.1196-0.0742,0.1919-0.2061,0.1895-0.3467c-0.0024-0.1411-0.0786-0.2705-0.2007-0.3403l-1.3267-0.7617
		C11.1724,7.0195,11.02,7.019,10.896,7.0913L7.9595,8.7871c-0.124,0.0718-0.2007,0.2046-0.1997,0.3481
		C7.7603,9.2788,7.8379,9.4111,7.9629,9.4814z M11.0967,7.8989l0.5449,0.313L9.5884,9.4805L8.9663,9.1294L11.0967,7.8989z"/>
</g>
</svg>
