<?xml version="1.0" encoding="utf-8"?>
<!-- Generator: Adobe Illustrator 22.0.1, SVG Export Plug-In . SVG Version: 6.00 Build 0)  -->
<svg version="1.1" id="Layer_1" xmlns="http://www.w3.org/2000/svg" xmlns:xlink="http://www.w3.org/1999/xlink" x="0px" y="0px"
	 viewBox="0 0 60 60" style="enable-background:new 0 0 60 60;" xml:space="preserve">
<g>
	<path d="M57.1,14.7c-1.1-1.4-3.6-2.2-5.8-1.9L40.7,14c-0.1,0-0.2,0.1-0.3,0.1c-6.1-3-15.2-2.8-20.9,0.5c-2.4,1.4-3.9,3.1-4.5,5
		c-3.1,1.8-5.3,4.2-6.4,6.8L2.5,40.9c-0.3,0.8-0.2,1.7,0.4,2.4c0.9,1.2,3,2,4.9,2c0.3,0,0.7,0,1-0.1l12.3-1.8v1.2
		c0,0.5,0.4,0.9,0.9,0.9s0.9-0.4,0.9-0.9v-1.4l3.6-0.5v4.3c0,0.5,0.4,0.9,0.9,0.9s0.9-0.4,0.9-0.9v-4.6l3.3-0.5v5.1
		c0,0.5,0.4,0.9,0.9,0.9s0.9-0.4,0.9-0.9v-5.4l0.3,0c1.2-0.2,2.4-0.4,3.6-0.7v3.7c0,0.5,0.4,0.9,0.9,0.9s0.9-0.4,0.9-0.9v-4.2
		c6.4-1.9,11-5.4,12.7-9.7l5.4-13.7C57.8,16.3,57.6,15.4,57.1,14.7z M20.5,16.2c2.8-1.6,6.4-2.4,10-2.4s7.2,0.8,10,2.4
		c2.5,1.4,3.9,3.3,3.9,5.2c0,1.9-1.4,3.8-3.9,5.2c-5.5,3.2-14.5,3.2-20,0c-2.4-1.4-3.8-3.2-3.9-5.1v-0.2
		C16.7,19.4,18,17.6,20.5,16.2z M44.3,28.2c0,0.1,0,0.1,0,0.2c0.1,2-1.3,4-3.9,5.5c-5.5,3.2-14.5,3.2-20,0c-2.5-1.4-3.9-3.3-3.9-5.3
		c0-0.1,0-0.3,0-0.4V26c0.8,0.9,1.7,1.6,2.9,2.3c3,1.7,7,2.6,10.9,2.6s7.9-0.9,10.9-2.6c1.2-0.7,2.2-1.5,3-2.4V28.2z M55.8,16.4
		l-5.4,13.7c-1.9,4.8-8.1,8.5-16.6,9.7L8.6,43.5C6.8,43.7,5,43,4.4,42.2c-0.3-0.3-0.2-0.5-0.1-0.6l6.1-14.5c0.8-1.9,2.3-3.7,4.4-5.1
		v6.1c0,0.1,0,0.3,0,0.4c0,2.6,1.7,5.1,4.8,6.9c3,1.7,7,2.6,10.9,2.6s7.9-0.9,10.9-2.6c3.2-1.8,4.9-4.4,4.8-7.1c0-0.1,0-0.1,0-0.2
		v-6.9c0-0.1,0-0.2-0.1-0.3c-0.2-2-1.3-3.8-3.3-5.3l8.6-1c1.8-0.2,3.5,0.5,4.1,1.2C55.9,16.1,55.8,16.3,55.8,16.4z"/>
	<path d="M51.5,17.1c-1-0.6-2.5-0.6-3.5,0s-1,1.5,0,2c1,0.6,2.5,0.6,3.5,0C52.5,18.5,52.5,17.6,51.5,17.1z"/>
	<path d="M11.8,38.4c-1-0.6-2.6-0.6-3.6,0c-1,0.6-1,1.5,0,2.1c1,0.6,2.6,0.6,3.6,0C12.8,40,12.8,39,11.8,38.4z"/>
</g>
</svg>
