<svg xmlns="http://www.w3.org/2000/svg" width="60" height="60" viewBox="0 0 60 60">
  <path fill="#231F20" d="M57.9487964,13.4599483 C57.9481075,13.3081386 57.9028738,13.1706987 57.8385823,13.0446155 C57.8199837,13.0079958 57.7954151,12.9797198 57.7722242,12.946113 C57.7090808,12.8541001 57.6335382,12.7773841 57.5421524,12.7136472 C57.521028,12.6988139 57.5113843,12.6728556 57.4888822,12.6598764 L48.8933326,7.64273988 C48.3255005,6.61692353 47.0068351,5.84188289 45.3207894,5.55726869 L44.5844216,5.12733436 C44.3040646,4.95860542 43.9520684,4.95767834 43.6717113,5.1238578 L43.0499203,5.48055264 C40.9857025,5.6884508 39.372444,6.62967091 38.8491568,7.88957549 L30.6416526,12.5963713 C30.6180025,12.609814 30.6081291,12.6366994 30.5860863,12.6519963 C30.4958485,12.7145743 30.4205356,12.7896679 30.3576217,12.8800584 C30.333742,12.9143605 30.309403,12.9433318 30.2905748,12.9806469 C30.2262833,13.1048759 30.1824273,13.2399981 30.1803607,13.3890265 C30.1803607,13.3925031 30.1776054,13.3952843 30.1776054,13.3987609 C30.1776054,13.3992244 30.1780646,13.399688 30.1780646,13.4001515 C30.1780646,13.4008468 30.1776054,13.4013104 30.1776054,13.4022374 L30.1776054,39.8430826 C30.1776054,40.2187826 30.4276536,40.5446519 30.76174,40.6895085 L33.2608441,42.1461863 L33.2608441,49.4080204 C33.2608441,50.1978943 33.7563482,51.0535911 34.4380681,51.4427338 L36.7789691,52.7825992 C37.0324615,52.9274558 37.2946791,53 37.5481715,53 C37.7745696,53 37.996605,52.9411303 38.1961384,52.8233909 C38.6177072,52.576787 38.8620151,52.1148684 38.8620151,51.5581556 L38.8620151,45.4109059 L43.3543866,48.0292175 C43.5119009,48.1569231 43.7033979,48.2447641 43.9206114,48.2447641 C43.9304848,48.2447641 43.9387508,48.2392016 43.9488538,48.2389699 C43.9562014,48.2392016 43.9626305,48.2447641 43.9699781,48.2447641 C44.0253148,48.2447641 44.0756,48.2123162 44.1302478,48.2018866 C44.1881102,48.1879803 44.2473502,48.1810272 44.3006204,48.1562278 C44.3389657,48.1406992 44.3819032,48.1455663 44.4184117,48.124707 L49.4411884,45.2841274 L49.4411884,51.4995176 C49.4411884,52.0541445 49.6834298,52.5158314 50.1070651,52.7647529 C50.3065985,52.8824923 50.5286339,52.9413621 50.7573281,52.9413621 C51.0108205,52.9413621 51.2730381,52.8688179 51.5242344,52.7239613 L53.8697276,51.3840959 C54.5491515,50.9947214 55.0423594,50.1369387 55.0423594,49.3470647 L55.0423594,42.1162879 L57.5290645,40.7099043 C57.8206725,40.5469697 58,40.2368607 58,39.9019523 L57.9487964,13.4599483 Z M43.9075235,7.28094609 C46.057846,7.28094609 47.3742153,8.24186669 47.3742153,8.76450922 C47.3742153,9.31913609 46.0018205,10.1588407 43.9323217,10.1588407 C41.8628228,10.1588407 40.490428,9.31913609 40.490428,8.76450922 C40.4901984,8.24186669 41.7863618,7.28094609 43.9075235,7.28094609 Z M40.4901984,11.2472351 C41.4035975,11.7219011 42.5861027,12.0125414 43.9320921,12.0125414 C45.2780814,12.0125414 46.4605866,11.7219011 47.3739857,11.2472351 L47.3739857,13.152157 C47.3739857,13.7067839 46.0015909,14.5464885 43.9320921,14.5464885 C41.8625932,14.5464885 40.4901984,13.7067839 40.4901984,13.152157 L40.4901984,11.2472351 Z M38.6514603,10.1354319 L38.6514603,13.152157 C38.6514603,15.00354 40.9230183,16.4001892 43.9320921,16.4001892 C46.6527724,16.4001892 48.7521208,15.2543157 49.1335075,13.6669194 C49.1833334,13.5528883 49.2127238,13.4281957 49.2127238,13.2958548 L49.2127238,9.97064304 L55.1727794,13.4499822 L43.9274998,19.8099972 L32.9446675,13.4091906 L38.6514603,10.1354319 Z M32.014277,15.0077119 L43.0017016,21.4106044 L43.0017016,45.682541 L32.014277,39.2775625 L32.014277,15.0077119 L32.014277,15.0077119 Z M37.0235066,50.7912269 L35.3441197,49.8293792 C35.2410236,49.7728272 35.0998118,49.5259916 35.0998118,49.4084839 L35.0998118,43.2183567 L37.0237362,44.3396625 L37.0237362,50.7912269 L37.0235066,50.7912269 Z M53.2040805,49.3470647 C53.2040805,49.4671219 53.0628688,49.7137257 52.9618392,49.7725954 L51.2801561,50.7344431 L51.2801561,44.2441731 L53.2040805,43.1562422 L53.2040805,49.3470647 L53.2040805,49.3470647 Z M44.8402101,45.7625018 L44.8402101,21.4187164 L56.1130432,15.0431728 L56.1614915,39.3586822 L44.8402101,45.7625018 Z M36.0058633,48.7439978 C35.593479,48.5036518 35.2593926,47.9715067 35.2593926,47.5552468 C35.2593926,47.1387552 35.5937086,46.9962163 36.0058633,47.2365623 C36.418018,47.4769084 36.7523341,48.0090535 36.7523341,48.4253134 C36.7523341,48.8415732 36.4182476,48.9841121 36.0058633,48.7439978 Z M52.2989475,48.6848964 C51.8865631,48.9252424 51.5524767,48.7824717 51.5524767,48.3662119 C51.5524767,47.949952 51.8865631,47.4175751 52.2989475,47.1774609 C52.7113318,46.9373466 53.0456478,47.0798855 53.0456478,47.4961453 C53.0456478,47.9124052 52.7113318,48.4445503 52.2989475,48.6848964 Z M25.1591913,29.7369606 C25.096507,29.645643 25.0216533,29.5696222 24.9314155,29.5061171 C24.9098319,29.4908203 24.8999586,29.4643984 24.8769973,29.4509557 L14.1777366,23.2052036 C13.894165,23.0376335 13.5476795,23.0364747 13.2641079,23.201727 L2.46404717,29.3976485 C2.44039707,29.4110912 2.43052372,29.4379766 2.40848091,29.4532734 C2.31824314,29.5158515 2.24293019,29.5909451 2.18001632,29.6813356 C2.1561366,29.7156377 2.13179766,29.744609 2.11296942,29.781924 C2.04867788,29.906153 2.00482187,30.0412753 2.00275535,30.1903037 C2.00275535,30.1937803 2,30.1965615 2,30.2000381 C2,30.2005016 2.00045923,30.2009652 2.00045923,30.2014287 C2.00045923,30.202124 2,30.2025875 2,30.2035146 L2,41.5544761 C2,41.9278584 2.24224135,42.2516419 2.57058744,42.3964984 L4.84880417,43.7250071 L4.84880417,50.5786933 C4.84880417,51.803137 5.83544973,52.799055 7.23126504,52.799055 C8.44316062,52.799055 9.42980618,51.803137 9.42980618,50.5786933 L9.42980618,46.3963942 L13.0326583,48.497394 C13.1819065,48.6035449 13.3538864,48.6797974 13.5499756,48.6797974 C13.5584713,48.6797974 13.5653597,48.675162 13.5736257,48.6749302 C13.5798252,48.675162 13.585336,48.6797974 13.5915355,48.6797974 C13.6381469,48.6797974 13.6806252,48.6508261 13.727007,48.6436412 C13.7986461,48.6290397 13.8700556,48.61861 13.9348064,48.5880163 C13.9690187,48.5736465 14.0075936,48.5785137 14.0401986,48.559972 L17.0706264,46.8457972 L17.0706264,50.5900501 C17.0706264,51.8144938 18.057272,52.8104117 19.4519392,52.8104117 C20.6638348,52.8104117 21.6504803,51.8144938 21.6504803,50.5900501 L21.6504803,44.2552981 L24.9084543,42.4124906 C25.2627466,42.2133997 25.4230162,41.8036294 25.3355338,41.4052159 L25.3355338,30.2535771 C25.3355338,30.1013038 25.2903001,29.9634004 25.2255493,29.8363901 C25.2069507,29.7993068 25.1826118,29.7707991 25.1591913,29.7369606 Z M13.7136894,25.0758235 L22.5606649,30.2408297 L13.5566344,35.3344505 L4.76568439,30.210236 L13.7136894,25.0758235 Z M3.83621238,31.8092208 L12.6317546,36.9366802 L12.6317546,46.1219779 L3.83621238,40.9952138 L3.83621238,31.8092208 Z M7.59336419,50.5784615 C7.59336419,50.7798701 7.43079844,50.9428048 7.04734531,50.9428048 C6.84781191,50.9428048 6.68524616,50.7798701 6.68524616,50.5784615 L6.68524616,44.7955552 L7.59336419,45.3251508 L7.59336419,50.5784615 Z M19.8138087,50.5898183 C19.8138087,50.7912269 19.651243,50.9541616 19.2689379,50.9541616 C19.0694045,50.9541616 18.9068388,50.7912269 18.9068388,50.5898183 L18.9068388,45.80677 L19.8138087,45.2938618 L19.8138087,50.5898183 Z M17.6623382,44.386712 C17.6159564,44.4047901 17.5778407,44.4335296 17.535592,44.4585608 L14.4681966,46.1933632 L14.4681966,36.942938 L23.4990918,31.8354109 L23.4990918,41.0858361 L17.6623382,44.386712 Z"/>
</svg>
