<svg xmlns="http://www.w3.org/2000/svg" width="60" height="60" viewBox="0 0 60 60">
  <path fill="#231F20" d="M57.8837972,12.4113913 C57.6487616,12.0122856 57.1323593,11.8835482 56.7322818,12.1140456 L50.3857244,15.8394952 C49.0801036,14.2028047 47.23064,12.981684 45.1626449,12.6176885 C43.7878259,12.3774713 42.4324938,12.52664 41.1857314,13.0893949 L36.8845005,15.5098164 L36.9069701,15.5488939 C35.9533062,16.1529082 35.1927215,17.0209433 34.7079358,18.0984494 L30.2237669,20.5918684 C30.2181992,20.593852 30.2130292,20.593852 30.2074615,20.596034 L30.2090523,20.6000013 L19.3023669,26.6645436 C18.1363358,26.5584196 16.994564,26.721077 15.9241777,27.2054787 L11.0122918,30.0404781 L11.0401301,30.0894737 C9.29983278,31.1983211 8.24416108,33.1079587 8.24416108,35.3355716 C8.24416108,36.7433516 8.66770237,38.1229641 9.37439991,39.3540029 L2.41460235,43.4386873 C2.01452485,43.673152 1.88050286,44.1865146 2.11653268,44.5874056 C2.27282538,44.8528149 2.55339663,45 2.84172286,45 C2.98648252,45 3.13303178,44.9631045 3.26705377,44.8837595 L10.3312453,40.737781 C11.6255318,42.2623966 13.413751,43.3809638 15.3870955,43.727305 C15.8134206,43.8028812 16.2375585,43.8395783 16.6551344,43.8395783 C17.6754116,43.8395783 18.6477669,43.6084858 19.5165237,43.1760551 L19.5205006,43.1827994 L19.7837723,43.0256962 C19.9144139,42.9519053 20.050822,42.8888259 20.1756971,42.8051169 C20.1937921,42.7930168 20.2061205,42.7751641 20.2240166,42.7628656 L23.1943733,40.9900983 C24.7805653,40.0780267 25.8469747,39.0356308 26.4518632,37.8101461 L41.5569763,29.2226288 C41.8918324,29.2684506 42.2262908,29.3110986 42.5525966,29.3110986 C43.5724761,29.3110986 44.5303157,29.0710797 45.391914,28.6386491 L45.3992713,28.6515426 L45.5243452,28.5783468 C45.6323184,28.5208216 45.7363147,28.4575439 45.8407087,28.3932744 L48.6189805,26.7684857 C50.8929797,25.8250727 52.3065736,23.6196764 52.3065736,21.0114055 C52.3065736,19.6982445 51.9247899,18.4152347 51.3028006,17.2478703 L57.586324,13.5593161 C57.9866004,13.3248514 58.1186339,12.810497 57.8837972,12.4113913 Z M33.0143671,21.8744815 C35.5737098,22.3239714 37.6574137,24.763634 37.6574137,27.3119994 C37.6574137,28.5265741 36.8845005,29.73738 36.1640827,30.3485354 L36.170048,30.3554781 L32.758055,32.2950684 C32.9052008,31.7892436 33.0086006,31.2798482 33.0086006,30.7890989 C33.0086006,27.717056 30.6882704,24.795372 27.7127437,23.9041285 L30.8727992,22.1454449 C31.6451158,21.8568272 32.359966,21.758241 33.0143671,21.8744815 Z M33.9887109,20.41116 L37.4438534,18.4882321 C38.24202,18.1811667 38.9857028,18.0873411 39.6458705,18.201598 C42.2052132,18.6510879 44.288917,21.0907505 44.288917,23.6381241 C44.288917,24.7743456 43.6947662,26.0537849 42.9838929,26.4818516 L39.1487563,28.6620559 C39.2688591,28.2337908 39.3390516,27.7807304 39.3390516,27.3118011 C39.3390516,24.2215088 36.9906841,21.282964 33.9887109,20.41116 Z M45.4674754,26.6175317 C45.2503359,26.7992319 45.0095338,26.9440366 44.7629651,27.0779315 C45.4909392,26.17796 45.9703561,24.8983223 45.9703561,23.6383225 C45.9703561,20.3141606 43.2634699,17.1344068 39.9369805,16.5494352 C39.5390903,16.4802067 39.1242983,16.4736607 38.6961835,16.5065889 C39.4657163,16.2399895 40.341035,16.1683805 41.2672581,16.3306412 C44.4402386,16.8886354 47.0210566,19.9124762 47.0210566,23.0717987 C47.0210566,24.5196479 46.4694587,25.7786559 45.4674754,26.6175317 Z M15.6793986,42.0767291 C14.1820907,41.8135018 12.8289459,40.9895032 11.8044929,39.8729197 L13.1936288,39.0574507 C13.7983185,39.6263549 14.5505517,40.041528 15.3870955,40.1879196 C15.6113934,40.228584 15.8327087,40.2480235 16.0502458,40.2480235 C16.8336978,40.2480235 17.5600811,39.9943177 18.1417047,39.5061471 C18.8738545,38.8939998 19.2767158,37.9972021 19.2767158,36.9801967 C19.2767158,34.9636416 17.6970857,33.1039914 15.6793986,32.7495173 C14.648185,32.5616679 13.6696654,32.8116048 12.9257837,33.4332735 C12.1946282,34.0454207 11.7917668,34.9422184 11.7917668,35.9592239 C11.7917668,36.5662137 11.9484572,37.1521771 12.2029797,37.6935089 L10.8104634,38.5107631 C10.2586666,37.5346204 9.92560013,36.446601 9.92560013,35.3353733 C9.92560013,33.5550682 10.7460374,32.0907549 12.1761355,31.3177355 C12.8412743,30.9575088 13.5974844,30.7734283 14.4024117,30.7734283 C14.7237463,30.7734283 15.0538301,30.8023892 15.3878909,30.8624931 C18.5608714,31.4204873 21.1416894,34.4443281 21.1416894,37.6036506 C21.1416894,39.1822208 20.4656141,40.5429888 19.2956061,41.3622267 L19.003303,41.5365875 C18.0552068,42.087044 16.8903688,42.2901674 15.6793986,42.0767291 Z M16.2427285,36.2944569 C16.0076929,35.8953511 15.4912906,35.7578858 15.0922074,35.998103 L13.6551497,36.8415411 C13.5396203,36.5580809 13.4738024,36.2591483 13.4738024,35.9592239 C13.4738024,35.4478449 13.6631035,35.0060912 14.0069077,34.7174735 C14.2817124,34.4889597 14.6360554,34.3687519 15.0283779,34.3687519 C15.1449015,34.3687519 15.2652031,34.3784717 15.387692,34.3996965 C16.5849419,34.6107544 17.5956744,35.7924009 17.5956744,36.9799983 C17.5956744,37.4933609 17.4063734,37.933131 17.061575,38.2217487 C16.7052435,38.5200862 16.2158843,38.6323595 15.6799952,38.5375421 C15.3467298,38.4786284 15.0369283,38.3326334 14.7503916,38.1441889 L15.9450565,37.4429768 C16.3445374,37.2087105 16.4785594,36.6953478 16.2427285,36.2944569 Z M22.5628395,39.4063707 C22.7197287,38.8333009 22.823725,38.2360308 22.823725,37.6040473 C22.823725,33.6974926 19.6618799,29.964902 15.7621185,29.233142 L16.6923185,28.6951824 C17.5622684,28.3038128 18.5710125,28.1972921 19.6197246,28.3803808 C22.7927051,28.9383751 25.3735231,31.9632076 25.3735231,35.1225301 C25.3731254,36.9268371 24.5266394,38.2163929 22.5628395,39.4063707 Z M21.6551089,27.2753023 L24.4182685,25.7373964 C24.791303,25.5939802 25.8292774,25.2043959 26.6837173,25.3523745 C29.2440542,25.8018643 31.3267639,28.241527 31.3267639,30.7889006 C31.3267639,32.0179557 30.5973979,33.3033459 29.8980577,33.9204523 L27.0271238,35.5525804 C27.035873,35.4089658 27.0547633,35.2703103 27.0547633,35.1223318 C27.0549622,31.7906321 24.7489488,28.6029438 21.6551089,27.2753023 Z M48.4149648,24.9445408 C48.5845802,24.3506429 48.7026945,23.7321481 48.7026945,23.0716003 C48.7026945,19.1870639 45.5772382,15.4814506 41.7071048,14.7191428 L41.9449242,14.5850496 C42.8108971,14.1946718 43.8188459,14.0861674 44.871336,14.270248 C46.6979324,14.5913972 48.3089801,15.7430909 49.3636576,17.2542179 C49.3803606,17.2982544 49.3847352,17.3442745 49.4093921,17.386129 C49.4519451,17.4581347 49.5209445,17.498204 49.5792063,17.5521586 C50.2338063,18.5973316 50.6249357,19.7922684 50.6249357,21.0114055 C50.6251345,22.7324001 49.8138442,24.1249062 48.4149648,24.9445408 Z"/>
</svg>
