<svg xmlns="http://www.w3.org/2000/svg" width="60" height="60" viewBox="0 0 60 60">
  <path fill="#231F20" d="M57.9998026,28.7475464 C57.9978283,28.465493 57.8493626,28.2048765 57.6065263,28.0633535 L44.9464667,20.6541429 L45.9478206,20.0229468 L46.1829572,19.814533 C47.5325738,18.6079162 47.4091814,16.243114 45.9073479,14.5430527 C44.5018592,12.9545424 42.465786,12.5649078 40.8405601,13.5670805 L36.9763051,15.9894446 L23.5087656,8.10763085 C23.2639551,7.96412305 22.959324,7.96412305 22.7145134,8.10763085 L2.82227746,19.7478405 C2.57944123,19.8903559 2.42998836,20.1509724 2.42998836,20.4330258 C2.42998836,20.4334228 2.43018579,20.4336213 2.43018579,20.4340182 L2.42998836,20.4340182 L2.42998836,28.6254754 C1.65942753,29.9110909 1.92891652,31.8271087 3.20311575,33.2719127 C3.90398455,34.0646792 4.80326832,34.6075476 5.73749682,34.7975019 C5.97658192,34.8459333 6.21467988,34.8711414 6.4460653,34.8711414 C6.98287157,34.8711414 7.46459548,34.6998451 7.89933157,34.4515349 L7.92282548,34.4930192 L9.36108723,33.6665095 L12.8924788,35.7456855 C12.7927778,36.1154712 12.7396697,36.5078846 12.7736273,36.9235213 C12.8518087,37.8772627 13.280622,38.8385466 13.9805036,39.6315116 C14.8981482,40.6704049 16.1206213,41.2247856 17.241814,41.2247856 C17.7638132,41.2247856 18.2409962,41.0596425 18.6773117,40.8121263 L18.7004108,40.8526181 L20.1522951,40.0195583 L23.677369,42.0947645 C23.3537848,43.3083284 23.7140906,44.8087094 24.7590761,45.9930954 C25.4599449,46.7858619 26.3592286,47.3287303 27.2934571,47.5186846 C27.5325422,47.567116 27.7706402,47.5923241 28.0020256,47.5923241 C28.5386345,47.5923241 29.0199635,47.4212263 29.4546996,47.1733131 L29.4779961,47.2144004 L30.9438977,46.3724086 L36.9192485,49.8894414 C37.0426409,49.963081 37.1794584,50 37.3182501,50 C37.4570419,50 37.5958336,49.963081 37.719226,49.8894414 L57.6104749,38.1313291 C57.8515343,37.9898062 58,37.7281972 58,37.4471363 L58,28.7495312 L57.9996051,28.7495312 C57.9994077,28.7489358 57.9998026,28.7483403 57.9998026,28.7475464 Z M37.3180527,39.5850651 L34.1469669,37.7184712 L39.357877,34.7816227 C39.6066361,34.6420847 39.7608272,34.3804757 39.7628015,34.095445 C39.7647758,33.8086279 39.6123615,33.545034 39.367551,33.4015262 L28.0344038,26.8233906 L40.3063203,19.7754306 L55.6454757,28.7523101 L37.3180527,39.5850651 Z M12.1953612,24.7972112 L16.7589055,22.1126427 L24.8635154,26.8170389 L20.1884243,29.5020044 L12.1953612,24.7972112 Z M26.4462943,27.7358461 L37.3760965,34.0801613 L32.5687288,36.789541 L21.7599499,30.4271633 L26.4462943,27.7358461 Z M41.6715338,14.9174036 C42.6606472,14.3145914 43.8250766,14.5771929 44.7275192,15.5978251 C45.6356872,16.6261985 45.8206771,18.014036 45.1381691,18.6235968 L43.3994222,19.748833 L38.5203882,16.8933651 L41.6715338,14.9174036 Z M23.1115408,9.71281426 L38.730254,18.853249 L26.4516249,25.9049803 L17.1511946,20.5066653 C16.9053969,20.36415 16.6037272,20.3651424 16.3569424,20.5086502 L10.6321276,23.8770146 L4.7860921,20.4360031 L23.1115408,9.71281426 Z M10.4947178,30.6510593 C10.453258,30.9021483 10.3482264,31.2364044 9.95593728,31.4807448 L9.3048203,31.858073 C9.29040807,30.8630459 8.89318327,29.789417 8.10505137,28.8958179 C7.65945675,28.3916549 7.1291656,28.0038067 6.56531171,27.7283035 L6.70252405,27.6512896 C7.12383505,27.4313634 8.58618299,26.8216041 9.78535964,28.2840737 C10.3338142,28.9511964 10.6181102,29.9019604 10.4947178,30.6510593 Z M6.05160449,33.2407499 C5.45971586,33.1206638 4.85242785,32.7465114 4.38491874,32.2173388 C3.47675072,31.187973 3.2907737,29.8011278 3.97900712,29.1866048 C4.24513984,28.950204 4.57287004,28.8850995 4.85242785,28.8850995 C5.00859326,28.8850995 5.14935931,28.9045514 5.25636519,28.9267822 C5.84825383,29.0478607 6.45554184,29.4200283 6.92305094,29.9501933 C7.83121896,30.9785667 8.01719598,32.3664043 7.32896256,32.9809273 C6.9163384,33.3473386 6.35248451,33.3008921 6.05160449,33.2407499 Z M21.2732903,37.0108567 C21.2318304,37.2609532 21.1258117,37.5962018 20.7362866,37.8385573 L20.0835902,38.2170765 C20.0685857,37.2220493 19.6705711,36.1486189 18.8826367,35.2566077 C18.8816495,35.2566077 18.8816495,35.2566077 18.8816495,35.2566077 C18.426381,34.7409324 17.8925361,34.3604283 17.3361845,34.0922692 L17.4789248,34.012278 C18.0139542,33.7292322 19.3953567,33.2214964 20.5637347,34.6460545 C21.1113995,35.3109938 21.3966827,36.2627503 21.2732903,37.0108567 Z M15.1615169,38.5771362 C14.6940078,38.0479635 14.3980635,37.39672 14.3479168,36.7919229 C14.3228435,36.4856538 14.3431785,35.9177758 14.7565924,35.5473947 C14.9869907,35.3419582 15.2916218,35.2450954 15.6300132,35.2450954 C16.2990961,35.2450954 17.0972968,35.6289738 17.7006362,36.3111817 C18.609594,37.3405475 18.7957684,38.728385 18.107535,39.3427096 C17.4191042,39.9552477 16.0694875,39.6065019 15.1615169,38.5771362 Z M21.7044727,39.0951934 C22.2965587,38.719056 22.6977321,38.076546 22.8309959,37.2706792 C23.0305954,36.0591002 22.6286323,34.6655064 21.7820618,33.6343543 C20.2261331,31.7405673 18.1622225,31.858867 16.7277119,32.6147144 L14.3514705,33.9477689 C14.2699328,33.9860774 14.1933308,34.0333179 14.1157417,34.0799629 L13.9840573,34.1538009 L13.9907699,34.1661072 C13.8960045,34.2306163 13.7945266,34.283216 13.7072635,34.3612223 C13.7015381,34.366383 13.697787,34.3733301 13.692259,34.3784908 L10.9174108,32.744725 C11.5144326,32.3695801 11.9189622,31.7197259 12.052226,30.9108818 C12.2528127,29.6985088 11.8506522,28.3047166 11.0032919,27.272572 C9.44637605,25.3768001 7.3179066,25.5328128 5.94992916,26.2559095 L4.00901615,27.3442266 L4.00901615,21.81868 L36.5277491,40.9594054 L36.5277491,47.8191975 L32.4942985,45.4462572 C33.0767106,45.068929 33.4763045,44.4325721 33.6087786,43.6340494 C33.8093653,42.4224704 33.4081919,41.0268918 32.5598445,39.9937547 C31.0019415,38.0999677 28.9362541,38.2200538 27.5064818,38.9760998 L25.127279,40.3085588 C25.0467284,40.3462718 24.9717058,40.3929168 24.8951038,40.4387678 L24.7620375,40.5132013 L24.76875,40.5255077 C24.6735898,40.5900167 24.5719145,40.6426164 24.484454,40.7206227 C24.4820848,40.7228061 24.4807028,40.7255849 24.4783337,40.7277683 L21.7044727,39.0951934 Z M29.6610117,41.61839 C29.6610117,41.61839 29.6610117,41.61839 29.6600245,41.61839 C29.204756,41.1027147 28.6711085,40.7224091 28.1151518,40.45425 L28.2584844,40.3740603 C28.7954881,40.0872432 30.1711652,39.5812938 31.34132,41.0060504 C31.8897745,41.6727761 32.174268,42.6245326 32.0508756,43.3748223 C32.0084286,43.6249189 31.9043841,43.9581825 31.5041979,44.2062942 L30.8627549,44.5780648 C30.8617678,44.4933098 30.8749954,44.4127232 30.867888,44.3263803 C30.789904,43.372639 30.3608933,42.4111565 29.6610117,41.61839 Z M27.6077622,45.9623296 C27.0158736,45.8422435 26.4085856,45.4680911 25.9410765,44.9389184 C25.0329085,43.9115375 24.8479186,42.5217151 25.5341777,41.9073905 C25.764576,41.7019541 26.0692072,41.6050913 26.4066113,41.6050913 C27.0766814,41.6050913 27.8756718,41.9889697 28.4792087,42.6731625 C28.4801958,42.6731625 28.4801958,42.6731625 28.4801958,42.6731625 C28.9477049,43.2023351 29.2436493,43.8535787 29.2937959,44.4583757 C29.3188693,44.7646448 29.2985342,45.3325228 28.8851203,45.702904 C28.4724961,46.0709032 27.909432,46.0224718 27.6077622,45.9623296 Z M38.1085537,47.8172126 L38.1085537,40.9598024 L56.4188005,30.1379643 L56.4188005,36.9933896 L38.1085537,47.8172126 Z"/>
</svg>
