<?xml version="1.0" encoding="utf-8"?>
<!-- Generator: Adobe Illustrator 21.0.0, SVG Export Plug-In . SVG Version: 6.00 Build 0)  -->
<svg version="1.1" id="Layer_1" xmlns="http://www.w3.org/2000/svg" xmlns:xlink="http://www.w3.org/1999/xlink" x="0px" y="0px"
	 viewBox="0 0 30 30" style="enable-background:new 0 0 30 30;" xml:space="preserve">
<style type="text/css">
	.st0{display:none;opacity:0.2;}
	.st1{display:inline;fill:none;stroke:#00ADEE;stroke-width:0.125;stroke-miterlimit:10;}
	.st2{fill:#231F20;}
</style>
<g class="st0">
	<path class="st1" d="M-15.375-16.557"/>
	<line class="st1" x1="-13.125" y1="47.1558" x2="-13.125" y2="-16.3603"/>
	<line class="st1" x1="-10.875" y1="47.3529" x2="-10.875" y2="-16.5568"/>
	<line class="st1" x1="-8.625" y1="46.959" x2="-8.625" y2="-16.3109"/>
	<line class="st1" x1="-6.375" y1="47.746" x2="-6.375" y2="-16.6546"/>
	<line class="st1" x1="-4.125" y1="47.3529" x2="-4.125" y2="-16.5079"/>
	<line class="st1" x1="-1.875" y1="47.4999" x2="-1.875" y2="-16.6061"/>
	<line class="st1" x1="0.375" y1="47.3529" x2="0.375" y2="-16.5568"/>
	<line class="st1" x1="2.625" y1="47.4999" x2="2.625" y2="-16.9021"/>
	<line class="st1" x1="4.875" y1="47.1558" x2="4.875" y2="-16.6547"/>
	<line class="st1" x1="7.125" y1="47.3029" x2="7.125" y2="-16.8517"/>
	<line class="st1" x1="9.375" y1="47.1063" x2="9.375" y2="-16.4577"/>
	<line class="st1" x1="11.625" y1="47.2541" x2="11.625" y2="-16.5081"/>
	<line class="st1" x1="13.875" y1="47.3029" x2="13.875" y2="-16.5079"/>
	<line class="st1" x1="16.125" y1="47.0567" x2="16.125" y2="-16.458"/>
	<line class="st1" x1="18.375" y1="47.1063" x2="18.375" y2="-16.4089"/>
	<line class="st1" x1="20.625" y1="47.3529" x2="20.625" y2="-16.6058"/>
	<line class="st1" x1="22.875" y1="47.1558" x2="22.875" y2="-16.5569"/>
	<line class="st1" x1="25.125" y1="47.4511" x2="25.125" y2="-16.5082"/>
	<line class="st1" x1="27.375" y1="47.2541" x2="27.375" y2="-16.3603"/>
	<line class="st1" x1="29.625" y1="47.1063" x2="29.625" y2="-16.5077"/>
	<line class="st1" x1="31.875" y1="47.1558" x2="31.875" y2="-16.508"/>
	<line class="st1" x1="34.125" y1="47.1063" x2="34.125" y2="-16.5077"/>
	<line class="st1" x1="36.375" y1="46.8598" x2="36.375" y2="-16.5566"/>
	<line class="st1" x1="38.625" y1="47.1558" x2="38.625" y2="-16.7536"/>
	<line class="st1" x1="40.875" y1="47.1558" x2="40.875" y2="-16.6058"/>
	<line class="st1" x1="43.125" y1="47.4511" x2="43.125" y2="-16.6062"/>
	<line class="st1" x1="-14.2926" y1="47.1726" x2="-16.4896" y2="45.9041"/>
	<line class="st1" x1="-9.8838" y1="47.1199" x2="-16.5439" y2="43.2746"/>
	<line class="st1" x1="-5.0286" y1="47.3248" x2="-16.5547" y2="40.6703"/>
	<line class="st1" x1="-0.4099" y1="47.3936" x2="-16.607" y2="38.0421"/>
	<line class="st1" x1="3.8647" y1="47.2633" x2="-16.4987" y2="35.5065"/>
	<line class="st1" x1="8.1817" y1="47.1575" x2="-16.4585" y2="32.9315"/>
	<line class="st1" x1="12.7364" y1="47.1893" x2="-16.5287" y2="30.2931"/>
	<line class="st1" x1="17.0493" y1="47.0812" x2="-16.4649" y2="27.7317"/>
	<line class="st1" x1="21.7487" y1="47.1965" x2="-16.5216" y2="25.1011"/>
	<line class="st1" x1="26.2708" y1="47.2091" x2="-16.6454" y2="22.4314"/>
	<line class="st1" x1="30.8011" y1="47.2265" x2="-16.5718" y2="19.8757"/>
	<line class="st1" x1="35.0797" y1="47.0989" x2="-16.5759" y2="17.2755"/>
	<line class="st1" x1="39.7372" y1="47.1897" x2="-16.5939" y2="14.6669"/>
	<line class="st1" x1="44.4278" y1="47.2996" x2="-16.6466" y2="12.0384"/>
	<line class="st1" x1="46.5391" y1="45.9207" x2="-16.5451" y2="9.499"/>
	<line class="st1" x1="46.7575" y1="43.4487" x2="-16.4576" y2="6.9515"/>
	<line class="st1" x1="46.5446" y1="40.7275" x2="-16.5248" y2="4.3145"/>
	<line class="st1" x1="46.5973" y1="38.16" x2="-16.5582" y2="1.6972"/>
	<line class="st1" x1="46.5272" y1="35.5214" x2="-16.4693" y2="-0.8496"/>
	<line class="st1" x1="46.6505" y1="32.9944" x2="-16.4717" y2="-3.4492"/>
	<line class="st1" x1="46.5376" y1="30.3314" x2="-16.4197" y2="-6.017"/>
	<line class="st1" x1="46.4796" y1="27.6997" x2="-16.3754" y2="-8.5896"/>
	<polyline class="st1" points="46.5777,25.1581 -16.1346,-11.0488 -16.5294,-11.2767 	"/>
	<polyline class="st1" points="46.5142,22.5236 -16.248,-13.7121 -17.1105,-14.2101 	"/>
	<polyline class="st1" points="46.5439,19.9426 -14.9996,-15.5896 -16.7609,-16.6065 	"/>
	<line class="st1" x1="46.3527" y1="17.2343" x2="-12.0668" y2="-16.4943"/>
	<line class="st1" x1="46.4824" y1="14.711" x2="-7.5112" y2="-16.4622"/>
	<line class="st1" x1="46.479" y1="12.1109" x2="-3.0123" y2="-16.4629"/>
	<line class="st1" x1="46.4578" y1="9.5007" x2="1.1859" y2="-16.637"/>
	<line class="st1" x1="46.3608" y1="6.8466" x2="5.6507" y2="-16.6575"/>
	<line class="st1" x1="46.5626" y1="4.3649" x2="10.4854" y2="-16.4643"/>
	<line class="st1" x1="46.6047" y1="1.7913" x2="15.0995" y2="-16.3983"/>
	<line class="st1" x1="46.4335" y1="-0.9057" x2="19.5934" y2="-16.4018"/>
	<line class="st1" x1="46.5889" y1="-3.4142" x2="23.9443" y2="-16.488"/>
	<line class="st1" x1="46.3665" y1="-6.1405" x2="28.4468" y2="-16.4864"/>
	<line class="st1" x1="46.5992" y1="-8.6043" x2="33.0984" y2="-16.399"/>
	<line class="st1" x1="46.5865" y1="-11.2098" x2="37.2213" y2="-16.6168"/>
	<line class="st1" x1="46.6046" y1="-13.7973" x2="41.9486" y2="-16.4854"/>
	<path class="st1" d="M-72.75-106.0893"/>
	<path class="st1" d="M-71.625-108.0379"/>
	<path class="st1" d="M-70.5-109.9865"/>
	<path class="st1" d="M-69.375-111.935"/>
	<path class="st1" d="M-68.25-113.8836"/>
	<path class="st1" d="M-67.125-115.8321"/>
	<path class="st1" d="M-66-117.7807"/>
	<path class="st1" d="M-64.875-119.7292"/>
	<path class="st1" d="M-63.75-121.6778"/>
	<path class="st1" d="M46.631,47.1215"/>
	<line class="st1" x1="41.8384" y1="47.2903" x2="46.5346" y2="44.579"/>
	<line class="st1" x1="37.761" y1="47.0465" x2="46.6554" y2="41.9113"/>
	<line class="st1" x1="33.2481" y1="47.0539" x2="46.6394" y2="39.3224"/>
	<line class="st1" x1="28.7471" y1="47.0544" x2="46.5552" y2="36.7729"/>
	<line class="st1" x1="23.9766" y1="47.2107" x2="46.5546" y2="34.1753"/>
	<line class="st1" x1="19.718" y1="47.0712" x2="46.6021" y2="31.5497"/>
	<line class="st1" x1="15.3122" y1="47.0167" x2="46.6066" y2="28.9489"/>
	<line class="st1" x1="10.3988" y1="47.2556" x2="46.5751" y2="26.3692"/>
	<line class="st1" x1="6.1197" y1="47.1279" x2="46.5162" y2="23.805"/>
	<line class="st1" x1="1.2953" y1="47.3154" x2="46.6164" y2="21.1493"/>
	<line class="st1" x1="-3.222" y1="47.3253" x2="46.4154" y2="18.6671"/>
	<line class="st1" x1="-8.0514" y1="47.5153" x2="46.5572" y2="15.9871"/>
	<line class="st1" x1="-11.769" y1="47.0639" x2="46.4405" y2="13.4566"/>
	<line class="st1" x1="-16.6198" y1="47.2663" x2="46.4978" y2="10.8253"/>
	<line class="st1" x1="-16.6252" y1="44.6712" x2="46.5671" y2="8.1872"/>
	<line class="st1" x1="-16.3982" y1="41.9423" x2="46.4768" y2="5.6413"/>
	<line class="st1" x1="-16.5136" y1="39.4107" x2="46.6506" y2="2.9429"/>
	<line class="st1" x1="-16.3672" y1="36.728" x2="46.4811" y2="0.4426"/>
	<line class="st1" x1="-16.4261" y1="34.1641" x2="46.6243" y2="-2.2381"/>
	<line class="st1" x1="-16.5537" y1="31.6396" x2="46.5591" y2="-4.7985"/>
	<line class="st1" x1="-16.6591" y1="29.1023" x2="46.5062" y2="-7.3662"/>
	<line class="st1" x1="-16.5488" y1="26.4407" x2="46.4955" y2="-9.9579"/>
	<line class="st1" x1="-16.5014" y1="23.8152" x2="46.6906" y2="-12.6687"/>
	<line class="st1" x1="-16.6869" y1="21.324" x2="46.6589" y2="-15.2486"/>
	<line class="st1" x1="-16.5222" y1="18.6311" x2="44.3216" y2="-16.497"/>
	<line class="st1" x1="-16.6397" y1="16.1008" x2="40.1155" y2="-16.6668"/>
	<line class="st1" x1="-16.4543" y1="13.3959" x2="35.4976" y2="-16.5986"/>
	<line class="st1" x1="-16.4766" y1="10.8105" x2="31.0105" y2="-16.6061"/>
	<line class="st1" x1="-16.6191" y1="8.2947" x2="26.3737" y2="-16.5272"/>
	<line class="st1" x1="-16.5886" y1="5.6791" x2="21.7039" y2="-16.4291"/>
	<line class="st1" x1="-16.4987" y1="3.0291" x2="17.3446" y2="-16.5104"/>
	<line class="st1" x1="-16.4879" y1="0.4247" x2="12.9603" y2="-16.5772"/>
	<line class="st1" x1="-16.5374" y1="-2.1447" x2="8.4534" y2="-16.5731"/>
	<line class="st1" x1="-16.4468" y1="-4.7952" x2="4.0268" y2="-16.6156"/>
	<polyline class="st1" points="-16.5695,-7.3225 -15.9916,-7.6561 -0.3642,-16.6786 	"/>
	<line class="st1" x1="-16.6918" y1="-9.8497" x2="-5.065" y2="-16.5625"/>
	<line class="st1" x1="-16.2564" y1="-12.6993" x2="-10.0909" y2="-16.259"/>
	<path class="st1" d="M-14.1742-16.4997"/>
</g>
<path class="st2" d="M29.1865,14.873c-0.001-0.1421-0.0762-0.2734-0.1992-0.3447l-6.4125-3.7328l0.5072-0.318l0.1191-0.105
	c0.6836-0.6079,0.6211-1.7993-0.1396-2.6558c-0.7119-0.8003-1.7432-0.9966-2.5664-0.4917l-1.9573,1.2204l-6.8215-3.9709
	c-0.124-0.0723-0.2783-0.0723-0.4023,0L1.2383,10.3389c-0.123,0.0718-0.1987,0.2031-0.1987,0.3452
	c0,0.0002,0.0001,0.0003,0.0001,0.0005H1.0396v4.1269c-0.3903,0.6477-0.2538,1.613,0.3916,2.3409
	c0.355,0.3994,0.8105,0.6729,1.2837,0.7686c0.1211,0.0244,0.2417,0.0371,0.3589,0.0371c0.2719,0,0.5159-0.0863,0.7361-0.2114
	l0.0119,0.0209l0.7285-0.4164l1.7887,1.0475c-0.0505,0.1863-0.0774,0.384-0.0602,0.5934c0.0396,0.4805,0.2568,0.9648,0.6113,1.3643
	c0.4648,0.5234,1.084,0.8027,1.6519,0.8027c0.2644,0,0.5061-0.0832,0.7271-0.2079l0.0117,0.0204l0.7354-0.4197l1.7855,1.0455
	c-0.1639,0.6114,0.0186,1.3673,0.5479,1.964c0.355,0.3994,0.8105,0.6729,1.2837,0.7686c0.1211,0.0244,0.2417,0.0371,0.3589,0.0371
	c0.2718,0,0.5156-0.0862,0.7358-0.2111l0.0118,0.0207l0.7425-0.4242l3.0266,1.7719c0.0625,0.0371,0.1318,0.0557,0.2021,0.0557
	s0.1406-0.0186,0.2031-0.0557l10.0752-5.9238c0.1221-0.0713,0.1973-0.2031,0.1973-0.3447V14.874h-0.0002
	C29.1863,14.8737,29.1865,14.8734,29.1865,14.873z M18.7109,20.333l-1.6062-0.9404l2.6394-1.4796
	c0.126-0.0703,0.2041-0.2021,0.2051-0.3457c0.001-0.1445-0.0762-0.2773-0.2002-0.3496l-5.7404-3.3141l6.2159-3.5508l7.7695,4.5226
	L18.7109,20.333z M5.9859,12.8828l2.3115-1.3525l4.1051,2.3701l-2.368,1.3527L5.9859,12.8828z M13.2042,14.3633l5.5361,3.1963
	l-2.435,1.365l-5.4748-3.2054L13.2042,14.3633z M20.916,7.9053c0.501-0.3037,1.0908-0.1714,1.5479,0.3428
	c0.46,0.5181,0.5537,1.2173,0.208,1.5244l-0.8807,0.5669l-2.4713-1.4386L20.916,7.9053z M11.5151,5.2832l7.9111,4.605
	l-6.2193,3.5527l-4.7108-2.7197c-0.1245-0.0718-0.2773-0.0713-0.4023,0.001l-2.8997,1.697l-2.9611-1.7336L11.5151,5.2832z
	 M5.1245,15.832c-0.021,0.1265-0.0742,0.2949-0.2729,0.418l-0.3298,0.1901c-0.0073-0.5013-0.2085-1.0422-0.6077-1.4924
	c-0.2257-0.254-0.4943-0.4494-0.7799-0.5882l0.0695-0.0388c0.2134-0.1108,0.9541-0.418,1.5615,0.3188
	C5.043,14.9756,5.187,15.4546,5.1245,15.832z M2.874,17.1367c-0.2998-0.0605-0.6074-0.249-0.8442-0.5156
	c-0.46-0.5186-0.5542-1.2173-0.2056-1.5269c0.1348-0.1191,0.3008-0.1519,0.4424-0.1519c0.0791,0,0.1504,0.0098,0.2046,0.021
	c0.2998,0.061,0.6074,0.2485,0.8442,0.5156c0.46,0.5181,0.5542,1.2173,0.2056,1.5269C3.312,17.1904,3.0264,17.167,2.874,17.1367z
	 M10.584,19.0361c-0.021,0.126-0.0747,0.2949-0.272,0.417l-0.3306,0.1907c-0.0076-0.5013-0.2092-1.0421-0.6083-1.4915
	c-0.0005,0-0.0005,0-0.0005,0c-0.2306-0.2598-0.501-0.4515-0.7828-0.5866l0.0723-0.0403c0.271-0.1426,0.9707-0.3984,1.5625,0.3193
	C10.502,18.1797,10.6465,18.6592,10.584,19.0361z M7.4883,19.8252c-0.2368-0.2666-0.3867-0.5947-0.4121-0.8994
	c-0.0127-0.1543-0.0024-0.4404,0.207-0.627c0.1167-0.1035,0.271-0.1523,0.4424-0.1523c0.3389,0,0.7432,0.1934,1.0488,0.5371
	c0.4604,0.5186,0.5547,1.2178,0.2061,1.5273C8.6318,20.5195,7.9482,20.3438,7.4883,19.8252z M10.8024,20.0862
	c0.2999-0.1895,0.5031-0.5132,0.5706-0.9192c0.1011-0.6104-0.1025-1.3125-0.5313-1.832c-0.7881-0.9541-1.8335-0.8945-2.5601-0.5137
	l-1.2036,0.6716c-0.0413,0.0193-0.0801,0.0431-0.1194,0.0666l-0.0667,0.0372l0.0034,0.0062
	c-0.048,0.0325-0.0994,0.059-0.1436,0.0983c-0.0029,0.0026-0.0048,0.0061-0.0076,0.0087l-1.4055-0.8231
	c0.3024-0.189,0.5073-0.5164,0.5748-0.9239c0.1016-0.6108-0.1021-1.313-0.5313-1.833c-0.7886-0.9551-1.8667-0.8765-2.5596-0.5122
	L1.8394,14.166v-2.7838l16.4712,9.6432v3.456l-2.043-1.1955c0.295-0.1901,0.4974-0.5107,0.5645-0.913
	c0.1016-0.6104-0.1016-1.3135-0.5313-1.834c-0.7891-0.9541-1.8354-0.8936-2.5596-0.5127l-1.2051,0.6713
	c-0.0408,0.019-0.0788,0.0425-0.1176,0.0656l-0.0674,0.0375l0.0034,0.0062c-0.0482,0.0325-0.0997,0.059-0.144,0.0983
	c-0.0012,0.0011-0.0019,0.0025-0.0031,0.0036L10.8024,20.0862z M14.8325,21.3574c0,0,0,0-0.0005,0
	c-0.2306-0.2598-0.5009-0.4514-0.7825-0.5865l0.0726-0.0404c0.272-0.1445,0.9688-0.3994,1.5615,0.3184
	c0.2778,0.3359,0.4219,0.8154,0.3594,1.1934c-0.0215,0.126-0.0742,0.2939-0.2769,0.4189l-0.3249,0.1873
	c-0.0005-0.0427,0.0062-0.0833,0.0026-0.1268C15.4043,22.2412,15.187,21.7568,14.8325,21.3574z M13.7925,23.5459
	c-0.2998-0.0605-0.6074-0.249-0.8442-0.5156c-0.46-0.5176-0.5537-1.2178-0.2061-1.5273c0.1167-0.1035,0.271-0.1523,0.4419-0.1523
	c0.3394,0,0.7441,0.1934,1.0498,0.5381c0.0005,0,0.0005,0,0.0005,0c0.2368,0.2666,0.3867,0.5947,0.4121,0.8994
	c0.0127,0.1543,0.0024,0.4404-0.207,0.627C14.2305,23.6006,13.9453,23.5762,13.7925,23.5459z M19.1113,24.4804v-3.4548
	l9.2744-5.4521v3.4538L19.1113,24.4804z"/>
</svg>
