<svg xmlns="http://www.w3.org/2000/svg" width="60" height="60" viewBox="0 0 60 60">
  <path fill="#231F20" d="M58,19.7143552 C58,19.7095025 57.9964021,19.7056607 57.9962022,19.7006057 C57.9932039,19.5732206 57.9562251,19.4573607 57.9012566,19.3510042 C57.8844662,19.318248 57.8628786,19.2921644 57.8418907,19.2620368 C57.7875218,19.1845947 57.7233586,19.1200934 57.646003,19.0661063 C57.6264142,19.0523568 57.6170196,19.0282952 57.5960316,19.0161633 L40.4124849,9.10559825 C40.1666259,8.96547458 39.8639994,8.96345259 39.6179405,9.10762024 L13.888494,24.0555604 C13.8683056,24.0672879 13.8597105,24.0903386 13.8407214,24.1034815 C13.7625662,24.1580751 13.6978034,24.2233853 13.6432347,24.3020406 C13.6226465,24.331966 13.6014586,24.3572408 13.5848681,24.3895926 C13.5293,24.4977689 13.4913218,24.6152463 13.4895228,24.7448556 C13.4895228,24.7478886 13.4871242,24.750315 13.4871242,24.7535502 C13.4871242,24.7539546 13.4875239,24.754359 13.4875239,24.7547634 C13.4875239,24.75537 13.4871242,24.7557744 13.4871242,24.7565831 L13.4871242,33.5273543 L2.40068126,39.9995312 C2.01810064,40.2227585 1.88637617,40.7183474 2.10684975,41.1053556 C2.2551647,41.3639677 2.5246102,41.5101573 2.8008518,41.5101573 C2.93657397,41.5101573 3.07409512,41.4745704 3.19902348,41.4015766 L13.4871242,35.3956699 L13.4871242,35.6338599 C13.4871242,35.9248238 13.6476321,36.1688776 13.8757014,36.3114276 L13.8687054,36.322953 L16.4951993,37.9520675 L17.493227,38.571402 L8.63250786,43.7454635 C8.25092667,43.9686908 8.1192022,44.4642797 8.3406752,44.8512879 C8.48799073,45.1099 8.75743623,45.2560897 9.03367783,45.2560897 C9.1694,45.2560897 9.30692115,45.2205027 9.43284894,45.147509 L19.0451371,39.5346764 L23.6241115,42.3765786 L14.8661334,47.4893738 C14.4835528,47.7126011 14.3518283,48.2081901 14.5723019,48.5951983 C14.7206169,48.8538104 14.9900624,49 15.266304,49 C15.4020261,49 15.5395473,48.964413 15.6644757,48.8914193 L25.1750222,43.3394486 L31.1332057,47.0374598 C31.1457985,47.0451434 31.1615894,47.0423126 31.1743821,47.0493895 C31.2881169,47.1126777 31.4122457,47.1579702 31.5509662,47.1579702 C31.6888871,47.1579702 31.8124162,47.1132843 31.9255514,47.0510071 C31.9381442,47.0441324 31.9533354,47.0471654 31.9657283,47.0394818 L57.6132218,31.3454286 L57.6060259,31.3332967 C57.8368935,31.1913532 57.9998001,30.9460863 57.9998001,30.6533026 L57.9998001,19.7200168 C57.9998001,19.7190058 57.9992005,19.718197 57.9992005,19.717186 C57.9994003,19.7157706 58,19.715164 58,19.7143552 Z M32.3507076,35.4229667 L34.5994182,34.0866358 L34.5994182,38.45534 C34.5994182,38.9015924 34.9586122,39.2649434 35.3997592,39.2649434 C35.8409063,39.2649434 36.2001003,38.9015924 36.2001003,38.45534 L36.2001003,33.1354933 L39.2081754,31.3480572 L39.2081754,35.7620539 C39.2081754,36.2083063 39.5673695,36.5716573 40.0085165,36.5716573 C40.4496636,36.5716573 40.8088576,36.2083063 40.8088576,35.7620539 L40.8088576,30.3969147 L43.8189316,28.6082654 L43.8189316,33.0687678 C43.8189316,33.5150202 44.1781256,33.8783712 44.6192727,33.8783712 C45.0604197,33.8783712 45.4196137,33.5150202 45.4196137,33.0687678 L45.4196137,27.6571229 L48.4296877,25.8684736 L48.4296877,30.3744707 C48.4296877,30.8207231 48.7888818,31.1830631 49.2300288,31.1830631 C49.6711758,31.1830631 50.0303699,30.8207231 50.0303699,30.3744707 L50.0303699,24.9173311 L53.038445,23.1298949 L53.038445,27.6801735 C53.038445,28.126426 53.397639,28.488766 53.8387861,28.488766 C54.2799331,28.488766 54.6391272,28.126426 54.6391272,27.6801735 L54.6391272,22.1783481 L56.3999175,21.13197 L56.3999175,30.1969402 L32.3511074,44.9125541 L32.3511074,35.4229667 L32.3507076,35.4229667 Z M18.1580458,23.4400677 L20.5780582,24.8702188 C20.7049854,24.9452345 20.8435059,24.9808215 20.9802275,24.9808215 C21.2554697,24.9808215 21.5229164,24.8376648 21.6712313,24.5800637 C21.8947032,24.1950775 21.765977,23.6994886 21.3841959,23.4742393 L19.7559296,22.5119758 L22.7624056,20.7653838 L25.1936115,22.1787525 C25.3185399,22.2517462 25.4560611,22.2863221 25.5907838,22.2863221 C25.8680248,22.2863221 26.1372704,22.1411435 26.2847859,21.8805094 C26.5054593,21.4935012 26.3725355,20.9989233 25.9899549,20.776707 L24.3668856,19.8330458 L27.3661658,18.0907 L29.8081655,19.4882971 C29.9320944,19.559471 30.0678166,19.593036 30.2005405,19.593036 C30.4795805,19.593036 30.7500254,19.4458354 30.897341,19.1823706 C31.1150161,18.7943513 30.979294,18.3007844 30.5947145,18.0805901 L28.977242,17.1549246 L31.969726,15.4166228 L34.4237189,16.7972352 C34.5466484,16.8663871 34.6793723,16.8989411 34.8120962,16.8989411 C35.0911362,16.8989411 35.3645794,16.7489097 35.5108955,16.4832207 C35.7255724,16.0931795 35.5870518,15.6006235 35.2004735,15.3834622 L33.588198,14.476399 L36.5722869,12.7429499 L39.0360741,14.106982 C39.1590036,14.174112 39.2899286,14.205655 39.4206536,14.205655 C39.7016925,14.205655 39.9769346,14.0536016 40.1214518,13.7850818 C40.3341298,13.3932208 40.1918114,12.9024846 39.8052331,12.6871431 L38.1989541,11.7978734 L40.0179111,10.7411832 L55.6027746,19.7305311 L53.6770788,20.8747733 L51.538705,19.6911024 C51.1503277,19.4787938 50.6642064,19.6181087 50.4533273,20.0130026 C50.2406493,20.4048636 50.3829677,20.8955998 50.769546,21.1109413 L52.0690009,21.8303642 L49.1100976,23.5884815 L46.9239511,22.3579005 C46.5413705,22.1427611 46.0514514,22.2778298 45.8367745,22.671915 C45.6220976,23.0619562 45.7606182,23.5545121 46.1471965,23.7716735 L47.5104148,24.5392196 L44.5435161,26.3019875 L42.311396,25.0244964 C41.9308142,24.808346 41.4408952,24.9385619 41.2202217,25.3306251 C41.003546,25.7186444 41.1382687,26.2122113 41.5228482,26.4324056 L42.9498299,27.249086 L39.9749358,29.0169089 L37.6970419,27.6912945 C37.3222568,27.4711001 36.8283401,27.5994963 36.6058676,27.9885265 C36.3851942,28.3765457 36.5181179,28.8701126 36.9006986,29.09334 L38.3888453,29.9593568 L35.4077546,31.7302126 L33.0826879,30.357486 C32.7119005,30.1372916 32.212187,30.2606328 31.9895147,30.648652 C31.7670423,31.0346493 31.8957685,31.5302382 32.2783491,31.7554875 L33.8268611,32.6696276 L31.5503665,34.0223366 L15.8815512,24.7624469 L18.1580458,23.4400677 Z M29.8129628,39.6972442 C29.5922893,39.3122579 29.1023702,39.1798178 28.720789,39.4010231 L25.199808,41.4565747 L20.620234,38.6146725 L23.2875045,37.0571363 C23.6690857,36.833909 23.8008102,36.3383201 23.5793372,35.9513118 C23.3606626,35.5663256 22.8707435,35.4359074 22.4871635,35.6550908 L19.0683239,37.6513981 L17.3309201,36.5732749 L15.0862072,35.1809349 L15.0862072,34.4619165 L17.053879,33.3132259 C17.4364596,33.0899986 17.568184,32.5944097 17.3477105,32.2074015 C17.127037,31.8224152 16.6361185,31.6919971 16.2555367,31.9111804 L15.0862072,32.5938031 L15.0862072,26.165099 L30.7520243,35.4247865 L30.7520243,44.9018376 L26.7511185,42.4188381 L29.5193311,40.8026642 C29.9019118,40.5800435 30.0336362,40.0842524 29.8129628,39.6972442 Z M24.2733392,25.1298419 C24.6577188,25.3490252 24.7944404,25.8425921 24.5777647,26.2316224 C24.4304491,26.4952894 24.1600042,26.6432988 23.8799648,26.6432988 C23.7472409,26.6432988 23.6125182,26.6097338 23.4885892,26.5395709 L22.526341,25.9916125 C22.1419614,25.7724292 22.0052398,25.2788623 22.2219155,24.8898321 C22.4395907,24.5018128 22.9255121,24.3637112 23.311091,24.5818835 L24.2733392,25.1298419 Z M27.6424074,27.0519423 C28.0269869,27.2721366 28.1635086,27.7648948 27.9468328,28.1537228 C27.7995173,28.4173898 27.5280729,28.5653993 27.2490329,28.5653993 C27.116309,28.5653993 26.9815863,28.5318343 26.8576574,28.4616713 L25.7343015,27.8209038 C25.3499219,27.6007095 25.2132003,27.1081535 25.4298761,26.7191233 C25.6475513,26.3292843 26.1334726,26.1919914 26.5190515,26.4111748 L27.6424074,27.0519423 Z M30.8515672,28.8814358 C31.2361467,29.1016301 31.3726684,29.5943882 31.1559926,29.9832162 C31.0086771,30.2468833 30.7372328,30.3948927 30.4581928,30.3948927 C30.3254689,30.3948927 30.1907461,30.3613277 30.0668172,30.2911648 L29.104569,29.7421954 C28.7201894,29.5220011 28.5834678,29.0294452 28.8001435,28.640415 C29.0178187,28.249565 29.5047395,28.1122721 29.889319,28.3324664 L30.8515672,28.8814358 Z M29.2001142,23.576754 C29.0527986,23.840421 28.7813543,23.9884304 28.5023143,23.9884304 C28.3695904,23.9884304 28.2348677,23.9548655 28.1109387,23.8847025 L27.14949,23.3367442 C26.7651104,23.1175608 26.6283888,22.6237917 26.8450646,22.2349637 C27.0617403,21.8461357 27.5476617,21.7068208 27.93424,21.9270151 L28.8956887,22.4749735 C29.2800683,22.6941568 29.4167899,23.1877238 29.2001142,23.576754 Z M32.5691823,25.5000676 C32.4208674,25.7625215 32.1516217,25.9107331 31.8725817,25.9109353 C31.737859,25.9109353 31.6041357,25.8773703 31.4792073,25.8061964 L30.3568509,25.1654288 C29.9722714,24.9462455 29.8365492,24.4526786 30.0542244,24.0636483 C30.2699007,23.6756291 30.7550226,23.5363142 31.1433999,23.7575196 L32.2647569,24.3982871 C32.6491365,24.6174705 32.7858581,25.1110374 32.5691823,25.5000676 Z M33.424292,25.9867598 C33.6409677,25.5957076 34.1366835,25.4634697 34.5134674,25.6788112 L35.4739167,26.2267696 C35.8582963,26.4469639 35.9950179,26.9395199 35.7783421,27.3285501 C35.632026,27.5922171 35.3605817,27.7402265 35.0815417,27.7402265 C34.9468189,27.7402265 34.8120962,27.7066616 34.6891667,27.6364986 L33.7287174,27.0885403 C33.3443378,26.8683459 33.2076162,26.37579 33.424292,25.9867598 Z M31.7728389,20.6818758 C31.3882595,20.4626925 31.2517377,19.9691255 31.4684135,19.5800953 C31.6840898,19.1912673 32.1692117,19.0539744 32.557589,19.2721468 L33.5198372,19.8201051 C33.9042168,20.0392885 34.0409384,20.5328554 33.8242626,20.9218856 C33.6779465,21.1855527 33.4065022,21.3335621 33.1274622,21.3335621 C32.9947383,21.3335621 32.8600155,21.2999971 32.7350872,21.2298342 L31.7728389,20.6818758 Z M34.9819988,22.5103583 C34.5974193,22.2911749 34.4606977,21.797608 34.6775733,21.40878 C34.8962479,21.0197498 35.3899648,20.8824569 35.7667488,21.1026512 L36.8891052,21.7434187 C37.2734848,21.9626021 37.4102064,22.456169 37.1935307,22.8451992 C37.0452157,23.1078553 36.7757702,23.2558647 36.4967302,23.2558647 C36.3620075,23.2558647 36.2272847,23.2222997 36.1043552,23.1511258 L34.9819988,22.5103583 Z M38.0466415,23.3318914 C38.2633172,22.9408392 38.7474396,22.8037485 39.1358169,23.0239428 L40.0980652,23.5719012 C40.4824448,23.7910846 40.6191664,24.2846515 40.4024906,24.6736817 C40.2561745,24.9373487 39.9847302,25.0853582 39.7056902,25.0853582 C39.5729663,25.0853582 39.4382435,25.0517932 39.3133152,24.9816303 L38.3510669,24.4336719 C37.9666873,24.2144885 37.8299657,23.7209216 38.0466415,23.3318914 Z M36.3951884,18.0272096 C36.010609,17.8080263 35.8740872,17.3142572 36.090763,16.9254291 C36.3054399,16.5366011 36.7915612,16.3982972 37.1799385,16.6174806 L38.1421867,17.1654389 C38.5265663,17.3846223 38.6632879,17.8781892 38.4466121,18.2672194 C38.300296,18.5308865 38.0288517,18.6788959 37.7498117,18.6788959 C37.6170878,18.6788959 37.482365,18.6453309 37.3574367,18.575168 L36.3951884,18.0272096 Z M39.6043483,19.8556921 C39.2197688,19.6365087 39.0830472,19.1427396 39.2999228,18.7539116 C39.5203964,18.3648814 40.0123143,18.2285995 40.3890983,18.4477828 L41.5114547,19.0885504 C41.8958343,19.3077337 42.0325559,19.8013006 41.8158802,20.1903309 C41.6675652,20.4529869 41.3981197,20.6009963 41.1190797,20.6009963 C40.984357,20.6009963 40.8496342,20.5674314 40.7267047,20.4962574 L39.6043483,19.8556921 Z M42.668991,20.677023 C42.8836679,20.2869818 43.3697891,20.1509021 43.7581664,20.3690745 L44.7204147,20.9170328 C45.1047943,21.1362162 45.2415159,21.6297831 45.0248401,22.0188133 C44.878524,22.2824804 44.6070796,22.4304898 44.3280397,22.4304898 C44.1953158,22.4304898 44.060593,22.3969248 43.9356646,22.3267619 L42.9734164,21.7788035 C42.5890368,21.5596202 42.4523152,21.0660532 42.668991,20.677023 Z M41.0195368,15.3723412 C40.6349573,15.1521469 40.4982357,14.6593888 40.7151113,14.2705608 C40.933786,13.8797108 41.4275029,13.7482816 41.8042868,13.9626122 L42.7647361,14.5105706 C43.1491157,14.7307649 43.2858373,15.2233208 43.0691615,15.6123511 C42.9228454,15.8760181 42.6514011,16.0240275 42.3723611,16.0240275 C42.2376383,16.0240275 42.1029156,15.9904625 41.9799861,15.9202996 L41.0195368,15.3723412 Z M44.2266978,17.2008237 C43.8421183,16.9816404 43.7053967,16.4878712 43.9222723,16.0990432 C44.1427459,15.710013 44.632665,15.5747421 45.0114478,15.7929145 L46.1338042,16.4338842 C46.5181838,16.6530675 46.6549054,17.1466345 46.4382296,17.5356647 C46.2899147,17.7983207 46.0204692,17.9463302 45.7414292,17.9463302 C45.6067065,17.9463302 45.4719837,17.9127652 45.3490542,17.8415913 L44.2266978,17.2008237 Z M47.5977648,19.1239351 C47.2131853,18.903943 47.0766636,18.4111849 47.2933393,18.0221547 C47.5100151,17.6313046 48.0057308,17.4970447 48.3825148,17.7142061 L49.342964,18.2621645 C49.7273436,18.4823588 49.8640652,18.9749147 49.6473895,19.3639449 C49.5010734,19.627612 49.229629,19.7756214 48.950589,19.7756214 C48.8158663,19.7756214 48.6811435,19.7420564 48.558214,19.6718935 L47.5977648,19.1239351 Z"/>
</svg>
