<?xml version="1.0" encoding="utf-8"?>
<!-- Generator: Adobe Illustrator 21.0.0, SVG Export Plug-In . SVG Version: 6.00 Build 0)  -->
<svg version="1.1" id="Layer_1" xmlns="http://www.w3.org/2000/svg" xmlns:xlink="http://www.w3.org/1999/xlink" x="0px" y="0px"
	 viewBox="0 0 30 30" style="enable-background:new 0 0 30 30;" xml:space="preserve">
<style type="text/css">
	.st0{display:none;opacity:0.2;}
	.st1{display:inline;fill:none;stroke:#00ADEE;stroke-width:0.125;stroke-miterlimit:10;}
	.st2{fill:#231F20;}
</style>
<g class="st0">
	<path class="st1" d="M-15.375-16.557"/>
	<line class="st1" x1="-13.125" y1="47.1558" x2="-13.125" y2="-16.3603"/>
	<line class="st1" x1="-10.875" y1="47.3529" x2="-10.875" y2="-16.5568"/>
	<line class="st1" x1="-8.625" y1="46.959" x2="-8.625" y2="-16.3109"/>
	<line class="st1" x1="-6.375" y1="47.746" x2="-6.375" y2="-16.6546"/>
	<line class="st1" x1="-4.125" y1="47.3529" x2="-4.125" y2="-16.5079"/>
	<line class="st1" x1="-1.875" y1="47.4999" x2="-1.875" y2="-16.6061"/>
	<line class="st1" x1="0.375" y1="47.3529" x2="0.375" y2="-16.5568"/>
	<line class="st1" x1="2.625" y1="47.4999" x2="2.625" y2="-16.9021"/>
	<line class="st1" x1="4.875" y1="47.1558" x2="4.875" y2="-16.6547"/>
	<line class="st1" x1="7.125" y1="47.3029" x2="7.125" y2="-16.8517"/>
	<line class="st1" x1="9.375" y1="47.1063" x2="9.375" y2="-16.4577"/>
	<line class="st1" x1="11.625" y1="47.2541" x2="11.625" y2="-16.5081"/>
	<line class="st1" x1="13.875" y1="47.3029" x2="13.875" y2="-16.5079"/>
	<line class="st1" x1="16.125" y1="47.0567" x2="16.125" y2="-16.458"/>
	<line class="st1" x1="18.375" y1="47.1063" x2="18.375" y2="-16.4089"/>
	<line class="st1" x1="20.625" y1="47.3529" x2="20.625" y2="-16.6058"/>
	<line class="st1" x1="22.875" y1="47.1558" x2="22.875" y2="-16.5569"/>
	<line class="st1" x1="25.125" y1="47.4511" x2="25.125" y2="-16.5082"/>
	<line class="st1" x1="27.375" y1="47.2541" x2="27.375" y2="-16.3603"/>
	<line class="st1" x1="29.625" y1="47.1063" x2="29.625" y2="-16.5077"/>
	<line class="st1" x1="31.875" y1="47.1558" x2="31.875" y2="-16.508"/>
	<line class="st1" x1="34.125" y1="47.1063" x2="34.125" y2="-16.5077"/>
	<line class="st1" x1="36.375" y1="46.8598" x2="36.375" y2="-16.5566"/>
	<line class="st1" x1="38.625" y1="47.1558" x2="38.625" y2="-16.7536"/>
	<line class="st1" x1="40.875" y1="47.1558" x2="40.875" y2="-16.6058"/>
	<line class="st1" x1="43.125" y1="47.4511" x2="43.125" y2="-16.6062"/>
	<line class="st1" x1="-14.2926" y1="47.1726" x2="-16.4896" y2="45.9041"/>
	<line class="st1" x1="-9.8838" y1="47.1199" x2="-16.5439" y2="43.2746"/>
	<line class="st1" x1="-5.0286" y1="47.3248" x2="-16.5547" y2="40.6703"/>
	<line class="st1" x1="-0.4099" y1="47.3936" x2="-16.607" y2="38.0421"/>
	<line class="st1" x1="3.8647" y1="47.2633" x2="-16.4987" y2="35.5065"/>
	<line class="st1" x1="8.1817" y1="47.1575" x2="-16.4585" y2="32.9315"/>
	<line class="st1" x1="12.7364" y1="47.1893" x2="-16.5287" y2="30.2931"/>
	<line class="st1" x1="17.0493" y1="47.0812" x2="-16.4649" y2="27.7317"/>
	<line class="st1" x1="21.7487" y1="47.1965" x2="-16.5216" y2="25.1011"/>
	<line class="st1" x1="26.2708" y1="47.2091" x2="-16.6454" y2="22.4314"/>
	<line class="st1" x1="30.8011" y1="47.2265" x2="-16.5718" y2="19.8757"/>
	<line class="st1" x1="35.0797" y1="47.0989" x2="-16.5759" y2="17.2755"/>
	<line class="st1" x1="39.7372" y1="47.1897" x2="-16.5939" y2="14.6669"/>
	<line class="st1" x1="44.4278" y1="47.2996" x2="-16.6466" y2="12.0384"/>
	<line class="st1" x1="46.5391" y1="45.9207" x2="-16.5451" y2="9.499"/>
	<line class="st1" x1="46.7575" y1="43.4487" x2="-16.4576" y2="6.9515"/>
	<line class="st1" x1="46.5446" y1="40.7275" x2="-16.5248" y2="4.3145"/>
	<line class="st1" x1="46.5973" y1="38.16" x2="-16.5582" y2="1.6972"/>
	<line class="st1" x1="46.5272" y1="35.5214" x2="-16.4693" y2="-0.8496"/>
	<line class="st1" x1="46.6505" y1="32.9944" x2="-16.4717" y2="-3.4492"/>
	<line class="st1" x1="46.5376" y1="30.3314" x2="-16.4197" y2="-6.017"/>
	<line class="st1" x1="46.4796" y1="27.6997" x2="-16.3754" y2="-8.5896"/>
	<polyline class="st1" points="46.5777,25.1581 -16.1346,-11.0488 -16.5294,-11.2767 	"/>
	<polyline class="st1" points="46.5142,22.5236 -16.248,-13.7121 -17.1105,-14.2101 	"/>
	<polyline class="st1" points="46.5439,19.9426 -14.9996,-15.5896 -16.7609,-16.6065 	"/>
	<line class="st1" x1="46.3527" y1="17.2343" x2="-12.0668" y2="-16.4943"/>
	<line class="st1" x1="46.4824" y1="14.711" x2="-7.5112" y2="-16.4622"/>
	<line class="st1" x1="46.479" y1="12.1109" x2="-3.0123" y2="-16.4629"/>
	<line class="st1" x1="46.4578" y1="9.5007" x2="1.1859" y2="-16.637"/>
	<line class="st1" x1="46.3608" y1="6.8466" x2="5.6507" y2="-16.6575"/>
	<line class="st1" x1="46.5626" y1="4.3649" x2="10.4854" y2="-16.4643"/>
	<line class="st1" x1="46.6047" y1="1.7913" x2="15.0995" y2="-16.3983"/>
	<line class="st1" x1="46.4335" y1="-0.9057" x2="19.5934" y2="-16.4018"/>
	<line class="st1" x1="46.5889" y1="-3.4142" x2="23.9443" y2="-16.488"/>
	<line class="st1" x1="46.3665" y1="-6.1405" x2="28.4468" y2="-16.4864"/>
	<line class="st1" x1="46.5992" y1="-8.6043" x2="33.0984" y2="-16.399"/>
	<line class="st1" x1="46.5865" y1="-11.2098" x2="37.2213" y2="-16.6168"/>
	<line class="st1" x1="46.6046" y1="-13.7973" x2="41.9486" y2="-16.4854"/>
	<path class="st1" d="M46.5364-16.4349"/>
	<path class="st1" d="M-72.75-106.0893"/>
	<path class="st1" d="M-71.625-108.0379"/>
	<path class="st1" d="M-70.5-109.9865"/>
	<path class="st1" d="M-69.375-111.935"/>
	<path class="st1" d="M-68.25-113.8836"/>
	<path class="st1" d="M-67.125-115.8321"/>
	<path class="st1" d="M-66-117.7807"/>
	<path class="st1" d="M-64.875-119.7292"/>
	<path class="st1" d="M-63.75-121.6778"/>
	<path class="st1" d="M46.631,47.1215"/>
	<line class="st1" x1="41.8384" y1="47.2903" x2="46.5346" y2="44.579"/>
	<line class="st1" x1="37.761" y1="47.0465" x2="46.6554" y2="41.9113"/>
	<line class="st1" x1="33.2481" y1="47.0539" x2="46.6394" y2="39.3224"/>
	<line class="st1" x1="28.7471" y1="47.0544" x2="46.5552" y2="36.7729"/>
	<line class="st1" x1="23.9766" y1="47.2107" x2="46.5546" y2="34.1753"/>
	<line class="st1" x1="19.718" y1="47.0712" x2="46.6021" y2="31.5497"/>
	<line class="st1" x1="15.3122" y1="47.0167" x2="46.6066" y2="28.9489"/>
	<line class="st1" x1="10.3988" y1="47.2556" x2="46.5751" y2="26.3692"/>
	<line class="st1" x1="6.1197" y1="47.1279" x2="46.5162" y2="23.805"/>
	<line class="st1" x1="1.2953" y1="47.3154" x2="46.6164" y2="21.1493"/>
	<line class="st1" x1="-3.222" y1="47.3253" x2="46.4154" y2="18.6671"/>
	<line class="st1" x1="-8.0514" y1="47.5153" x2="46.5572" y2="15.9871"/>
	<line class="st1" x1="-11.769" y1="47.0639" x2="46.4405" y2="13.4566"/>
	<line class="st1" x1="-16.6198" y1="47.2663" x2="46.4978" y2="10.8253"/>
	<line class="st1" x1="-16.6252" y1="44.6712" x2="46.5671" y2="8.1872"/>
	<line class="st1" x1="-16.3982" y1="41.9423" x2="46.4768" y2="5.6413"/>
	<line class="st1" x1="-16.5136" y1="39.4107" x2="46.6506" y2="2.9429"/>
	<line class="st1" x1="-16.3672" y1="36.728" x2="46.4811" y2="0.4426"/>
	<line class="st1" x1="-16.4261" y1="34.1641" x2="46.6243" y2="-2.2381"/>
	<line class="st1" x1="-16.5537" y1="31.6396" x2="46.5591" y2="-4.7985"/>
	<line class="st1" x1="-16.6591" y1="29.1023" x2="46.5062" y2="-7.3662"/>
	<line class="st1" x1="-16.5488" y1="26.4407" x2="46.4955" y2="-9.9579"/>
	<line class="st1" x1="-16.5014" y1="23.8152" x2="46.6906" y2="-12.6687"/>
	<line class="st1" x1="-16.6869" y1="21.324" x2="46.6589" y2="-15.2486"/>
	<line class="st1" x1="-16.5222" y1="18.6311" x2="44.3216" y2="-16.497"/>
	<line class="st1" x1="-16.6397" y1="16.1008" x2="40.1155" y2="-16.6668"/>
	<line class="st1" x1="-16.4543" y1="13.3959" x2="35.4976" y2="-16.5986"/>
	<line class="st1" x1="-16.4766" y1="10.8105" x2="31.0105" y2="-16.6061"/>
	<line class="st1" x1="-16.6191" y1="8.2947" x2="26.3737" y2="-16.5272"/>
	<line class="st1" x1="-16.5886" y1="5.6791" x2="21.7039" y2="-16.4291"/>
	<line class="st1" x1="-16.4987" y1="3.0291" x2="17.3446" y2="-16.5104"/>
	<line class="st1" x1="-16.4879" y1="0.4247" x2="12.9603" y2="-16.5772"/>
	<line class="st1" x1="-16.5374" y1="-2.1447" x2="8.4534" y2="-16.5731"/>
	<line class="st1" x1="-16.4468" y1="-4.7952" x2="4.0268" y2="-16.6156"/>
	<polyline class="st1" points="-16.5695,-7.3225 -15.9916,-7.6561 -0.3642,-16.6786 	"/>
	<line class="st1" x1="-16.6918" y1="-9.8497" x2="-5.065" y2="-16.5625"/>
	<line class="st1" x1="-16.2564" y1="-12.6993" x2="-10.0909" y2="-16.259"/>
	<path class="st1" d="M-14.1742-16.4997"/>
</g>
<g>
	<path class="st2" d="M29.1416,10.3154c0-0.0024-0.0018-0.0043-0.0019-0.0068c-0.0015-0.063-0.02-0.1203-0.0475-0.1729
		c-0.0084-0.0162-0.0192-0.0291-0.0297-0.044c-0.0272-0.0383-0.0593-0.0702-0.098-0.0969c-0.0098-0.0068-0.0145-0.0187-0.025-0.0247
		l-8.5967-4.9014c-0.123-0.0693-0.2744-0.0703-0.3975,0.001L7.0732,12.4624c-0.0101,0.0058-0.0144,0.0172-0.0239,0.0237
		c-0.0391,0.027-0.0715,0.0593-0.0988,0.0982c-0.0103,0.0148-0.0209,0.0273-0.0292,0.0433
		c-0.0278,0.0535-0.0468,0.1116-0.0477,0.1757c0,0.0015-0.0012,0.0027-0.0012,0.0043c0,0.0002,0.0002,0.0004,0.0002,0.0006
		c0,0.0003-0.0002,0.0005-0.0002,0.0009v4.3377l-5.5464,3.2009c-0.1914,0.1104-0.2573,0.3555-0.147,0.5469
		c0.0742,0.1279,0.209,0.2002,0.3472,0.2002c0.0679,0,0.1367-0.0176,0.1992-0.0537l5.147-2.9703v0.1178
		c0,0.1439,0.0803,0.2646,0.1944,0.3351l-0.0035,0.0057l1.314,0.8057l0.4993,0.3063l-4.4329,2.5589
		c-0.1909,0.1104-0.2568,0.3555-0.146,0.5469c0.0737,0.1279,0.2085,0.2002,0.3467,0.2002c0.0679,0,0.1367-0.0176,0.1997-0.0537
		l4.8089-2.7759l2.2908,1.4055l-4.3815,2.5286c-0.1914,0.1104-0.2573,0.3555-0.147,0.5469c0.0742,0.1279,0.209,0.2002,0.3472,0.2002
		c0.0679,0,0.1367-0.0176,0.1992-0.0537l4.758-2.7458l2.9808,1.8289c0.0063,0.0038,0.0142,0.0024,0.0206,0.0059
		c0.0569,0.0313,0.119,0.0537,0.1884,0.0537c0.069,0,0.1308-0.0221,0.1874-0.0529c0.0063-0.0034,0.0139-0.0019,0.0201-0.0057
		l12.8311-7.7617l-0.0036-0.006c0.1155-0.0702,0.197-0.1915,0.197-0.3363v-5.4072c0-0.0005-0.0003-0.0009-0.0003-0.0014
		C29.1413,10.3161,29.1416,10.3158,29.1416,10.3154z M16.3096,18.0843l1.125-0.6609v2.1606c0,0.2207,0.1797,0.4004,0.4004,0.4004
		s0.4004-0.1797,0.4004-0.4004v-2.631l1.5049-0.884v2.183c0,0.2207,0.1797,0.4004,0.4004,0.4004s0.4004-0.1797,0.4004-0.4004
		v-2.6534l1.5059-0.8846v2.206c0,0.2207,0.1797,0.4004,0.4004,0.4004s0.4004-0.1797,0.4004-0.4004v-2.6764l1.5059-0.8846v2.2285
		c0,0.2207,0.1797,0.3999,0.4004,0.3999s0.4004-0.1792,0.4004-0.3999v-2.6989l1.5049-0.884v2.2504
		c0,0.2207,0.1797,0.3999,0.4004,0.3999s0.4004-0.1792,0.4004-0.3999V11.534l0.8809-0.5175v4.4832l-12.0313,7.2778V18.0843z
		 M9.2092,12.158l1.2107,0.7073c0.0635,0.0371,0.1328,0.0547,0.2012,0.0547c0.1377,0,0.2715-0.0708,0.3457-0.1982
		c0.1118-0.1904,0.0474-0.4355-0.1436-0.5469l-0.8146-0.4759l1.5041-0.8638l1.2163,0.699c0.0625,0.0361,0.1313,0.0532,0.1987,0.0532
		c0.1387,0,0.2734-0.0718,0.3472-0.2007c0.1104-0.1914,0.0439-0.436-0.1475-0.5459l-0.812-0.4667l1.5005-0.8617l1.2217,0.6912
		c0.062,0.0352,0.1299,0.0518,0.1963,0.0518c0.1396,0,0.2749-0.0728,0.3486-0.2031c0.1089-0.1919,0.041-0.436-0.1514-0.5449
		l-0.8092-0.4578l1.4971-0.8597l1.2277,0.6828c0.0615,0.0342,0.1279,0.0503,0.1943,0.0503c0.1396,0,0.2764-0.0742,0.3496-0.2056
		c0.1074-0.1929,0.0381-0.4365-0.1553-0.5439l-0.8066-0.4486l1.4929-0.8573l1.2326,0.6746c0.0615,0.0332,0.127,0.0488,0.1924,0.0488
		c0.1406,0,0.2783-0.0752,0.3506-0.208c0.1064-0.1938,0.0352-0.4365-0.1582-0.543l-0.8036-0.4398l0.91-0.5226l7.7969,4.4458
		l-0.9634,0.5659l-1.0698-0.5854c-0.1943-0.105-0.4375-0.0361-0.543,0.1592c-0.1064,0.1938-0.0352,0.4365,0.1582,0.543
		l0.6501,0.3558l-1.4803,0.8695l-1.0937-0.6086c-0.1914-0.1064-0.4365-0.0396-0.5439,0.1553
		c-0.1074,0.1929-0.0381,0.4365,0.1553,0.5439l0.682,0.3796l-1.4843,0.8718l-1.1167-0.6318
		c-0.1904-0.1069-0.4355-0.0425-0.5459,0.1514c-0.1084,0.1919-0.041,0.436,0.1514,0.5449l0.7139,0.4039l-1.4883,0.8743
		l-1.1396-0.6556c-0.1875-0.1089-0.4346-0.0454-0.5459,0.147c-0.1104,0.1919-0.0439,0.436,0.1475,0.5464l0.7445,0.4283
		L17.839,16.258l-1.1632-0.6789c-0.1855-0.1089-0.4355-0.0479-0.5469,0.144c-0.1113,0.1909-0.0469,0.436,0.1445,0.5474
		l0.7747,0.4521l-1.1389,0.669L8.0703,12.812L9.2092,12.158z M15.04,20.1982c-0.1104-0.1904-0.3555-0.2559-0.5464-0.1465
		l-1.7615,1.0166l-2.2911-1.4055l1.3344-0.7703c0.1909-0.1104,0.2568-0.3555,0.146-0.5469
		c-0.1094-0.1904-0.3545-0.2549-0.5464-0.1465l-1.7104,0.9873l-0.8692-0.5332l-1.123-0.6886v-0.3556l0.9844-0.5681
		c0.1914-0.1104,0.2573-0.3555,0.147-0.5469c-0.1104-0.1904-0.356-0.2549-0.5464-0.1465l-0.585,0.3376v-3.1794l7.8374,4.5795v4.687
		l-2.0016-1.228l1.3849-0.7993C15.0845,20.6348,15.1504,20.3896,15.04,20.1982z"/>
	<path class="st2" d="M12.2686,12.9937l-0.4814-0.271c-0.1929-0.1079-0.436-0.0396-0.5449,0.1523
		c-0.1084,0.1924-0.04,0.4365,0.1523,0.5449l0.4814,0.271c0.062,0.0347,0.1294,0.0513,0.1958,0.0513
		c0.1401,0,0.2754-0.0732,0.3491-0.2036C12.5293,13.3462,12.4609,13.1021,12.2686,12.9937z"/>
	<path class="st2" d="M13.9541,13.9443l-0.562-0.3169c-0.1929-0.1084-0.436-0.0405-0.5449,0.1523
		c-0.1084,0.1924-0.04,0.436,0.1523,0.5449l0.562,0.3169c0.062,0.0347,0.1294,0.0513,0.1958,0.0513
		c0.1396,0,0.2754-0.0732,0.3491-0.2036C14.2148,14.2969,14.1465,14.0532,13.9541,13.9443z"/>
	<path class="st2" d="M15.5596,14.8491l-0.4814-0.2715c-0.1924-0.1089-0.436-0.041-0.5449,0.1523
		c-0.1084,0.1924-0.04,0.436,0.1523,0.5449l0.4814,0.2715c0.062,0.0347,0.1294,0.0513,0.1958,0.0513
		c0.1396,0,0.2754-0.0732,0.3491-0.2036C15.8203,15.2017,15.752,14.958,15.5596,14.8491z"/>
	<path class="st2" d="M14.7334,12.2256c0.1084-0.1924,0.04-0.4365-0.1523-0.5449l-0.481-0.271
		c-0.1934-0.1089-0.4365-0.04-0.5449,0.1523s-0.04,0.4365,0.1523,0.5449l0.481,0.271c0.062,0.0347,0.1294,0.0513,0.1958,0.0513
		C14.5239,12.4292,14.6597,12.356,14.7334,12.2256z"/>
	<path class="st2" d="M16.4189,13.1768c0.1084-0.1924,0.04-0.4365-0.1523-0.5449l-0.561-0.3169
		c-0.1943-0.1094-0.437-0.0405-0.5449,0.1514c-0.1089,0.1924-0.041,0.4365,0.1514,0.5449l0.5615,0.3169
		c0.0625,0.0352,0.1294,0.0518,0.1968,0.0518C16.21,13.3799,16.3447,13.3066,16.4189,13.1768z"/>
	<path class="st2" d="M16.8467,13.4175c-0.1084,0.1924-0.04,0.436,0.1523,0.5449l0.4805,0.271
		c0.0615,0.0347,0.1289,0.0513,0.1963,0.0513c0.1396,0,0.2754-0.0732,0.3486-0.2036c0.1084-0.1924,0.04-0.436-0.1523-0.5449
		l-0.4805-0.271C17.2031,13.1587,16.9551,13.2241,16.8467,13.4175z"/>
	<path class="st2" d="M16.0205,10.7939l0.4814,0.271c0.0625,0.0347,0.1299,0.0513,0.1963,0.0513
		c0.1396,0,0.2754-0.0732,0.3486-0.2036c0.1084-0.1924,0.04-0.4365-0.1523-0.5449l-0.4814-0.271
		c-0.1943-0.1079-0.437-0.04-0.5449,0.1523C15.7598,10.4414,15.8281,10.6855,16.0205,10.7939z"/>
	<path class="st2" d="M17.626,11.6982l0.5615,0.3169c0.0615,0.0352,0.1289,0.0518,0.1963,0.0518
		c0.1396,0,0.2744-0.0732,0.3486-0.2031c0.1084-0.1924,0.04-0.4365-0.1523-0.5449l-0.5615-0.3169
		c-0.1885-0.1089-0.4355-0.041-0.5449,0.1514C17.3652,11.3457,17.4336,11.5898,17.626,11.6982z"/>
	<path class="st2" d="M19.1592,12.1045c-0.1084,0.1924-0.04,0.4365,0.1523,0.5449l0.4814,0.271
		c0.0625,0.0347,0.1299,0.0513,0.1963,0.0513c0.1396,0,0.2754-0.0732,0.3486-0.2036c0.1084-0.1924,0.04-0.4365-0.1523-0.5449
		l-0.4814-0.271C19.5098,11.8433,19.2676,11.9111,19.1592,12.1045z"/>
	<path class="st2" d="M18.333,9.481l0.4814,0.271c0.0625,0.0347,0.1299,0.0513,0.1963,0.0513c0.1396,0,0.2754-0.0732,0.3486-0.2036
		c0.1084-0.1924,0.04-0.4365-0.1523-0.5449l-0.4814-0.271c-0.1943-0.1084-0.4375-0.04-0.5449,0.1523
		C18.0723,9.1284,18.1406,9.3726,18.333,9.481z"/>
	<path class="st2" d="M19.9385,10.3853L20.5,10.7021c0.0615,0.0352,0.1289,0.0518,0.1963,0.0518
		c0.1396,0,0.2744-0.0732,0.3486-0.2031c0.1084-0.1924,0.04-0.4365-0.1523-0.5449L20.3311,9.689
		c-0.1885-0.1084-0.4346-0.041-0.5449,0.1514C19.6777,10.0327,19.7461,10.2769,19.9385,10.3853z"/>
	<path class="st2" d="M21.4717,10.7915c-0.1084,0.1924-0.04,0.4365,0.1523,0.5449l0.4814,0.271
		c0.0625,0.0347,0.1299,0.0513,0.1963,0.0513c0.1396,0,0.2754-0.0732,0.3486-0.2036c0.1084-0.1924,0.04-0.4365-0.1523-0.5449
		l-0.4814-0.271C21.8223,10.5313,21.5791,10.5986,21.4717,10.7915z"/>
	<path class="st2" d="M20.6465,8.168l0.4805,0.271c0.0615,0.0347,0.1289,0.0513,0.1963,0.0513c0.1396,0,0.2754-0.0732,0.3486-0.2036
		c0.1084-0.1924,0.04-0.436-0.1523-0.5449l-0.4805-0.271c-0.1885-0.106-0.4355-0.041-0.5449,0.1523
		C20.3857,7.8154,20.4541,8.0591,20.6465,8.168z"/>
	<path class="st2" d="M22.251,9.0723l0.5615,0.3169c0.0615,0.0352,0.1289,0.0518,0.1963,0.0518
		c0.1396,0,0.2744-0.0732,0.3486-0.2031c0.1084-0.1924,0.04-0.4365-0.1523-0.5449L22.6436,8.376
		c-0.1895-0.1079-0.4346-0.041-0.5449,0.1514C21.9902,8.7197,22.0586,8.9639,22.251,9.0723z"/>
	<path class="st2" d="M23.9375,10.0234l0.4805,0.271c0.0615,0.0347,0.1289,0.0513,0.1963,0.0513
		c0.1396,0,0.2754-0.0732,0.3486-0.2036c0.1084-0.1924,0.04-0.436-0.1523-0.5449l-0.4805-0.271
		c-0.1885-0.1074-0.4365-0.041-0.5449,0.1523C23.6768,9.6709,23.7451,9.9146,23.9375,10.0234z"/>
</g>
</svg>
