<svg xmlns="http://www.w3.org/2000/svg" width="60" height="60" viewBox="0 0 60 60">
  <path fill="#231F20" d="M57.6024997,34.3748553 L55.4667383,33.1571815 L55.4667383,30.5615981 C55.4667383,30.2796147 55.313588,30.0198207 55.0652898,29.8798108 L53.3081334,28.8861921 L53.4823394,22.3654222 C53.482538,22.3624767 53.4809489,22.3601203 53.4809489,22.3573711 C53.4811475,22.3530511 53.4843258,22.3495165 53.4843258,22.3451964 C53.4843258,22.3245778 53.4702224,22.3078866 53.4686333,22.2874644 C53.4606878,22.1837824 53.435262,22.0875624 53.3905684,21.9988044 C53.3732868,21.9642438 53.3522311,21.9361632 53.3299836,21.9047445 C53.2759539,21.8277685 53.2109991,21.7639491 53.1331328,21.7103408 C53.1146595,21.6975769 53.1063166,21.6753874 53.0866514,21.6643908 L34.5844656,11.1070942 C34.3381539,10.9641387 34.0394015,10.9651206 33.7930897,11.1051305 L29.0492044,13.7896682 L27.8571746,13.1090591 C27.4759873,12.8875567 26.9891242,13.0208901 26.7718137,13.3957554 C26.5517222,13.7716024 26.682625,14.2519169 27.0618259,14.4687065 L27.4537397,14.6925652 L23.8297784,16.7432292 L22.6049732,16.0439652 C22.2227927,15.8254083 21.7379161,15.9548144 21.5196123,16.3306615 C21.2995208,16.7065085 21.4304236,17.186823 21.8096246,17.4036125 L22.2341151,17.6461262 L18.6095579,19.6973793 L17.3529705,18.9800495 C16.9727764,18.7595289 16.4849202,18.8918805 16.2676096,19.2667458 C16.0475181,19.6425928 16.1784209,20.1229073 16.5576219,20.3395005 L17.0140932,20.6000799 L13.3901319,22.6509403 L12.1009678,21.9149556 C11.7197805,21.6963987 11.2329175,21.8258048 11.0156069,22.2016519 C10.7955154,22.5774989 10.9264182,23.0578134 11.3056192,23.2746029 L11.7946672,23.5538373 L8.17090454,25.6045013 L6.8477733,24.8498616 C6.46559277,24.6330721 5.98170931,24.7626746 5.76241238,25.1385216 C5.54311544,25.5143687 5.67421687,25.9946832 6.05441101,26.2114727 L6.57424804,26.5079874 L2.39966072,28.8702863 C2.37900231,28.881872 2.37006358,28.904847 2.35079564,28.9182 C2.27412117,28.9710228 2.21015956,29.0334676 2.15652716,29.1088726 C2.13567012,29.1383277 2.11441579,29.1632664 2.09773016,29.1950779 C2.04389911,29.2971889 2.00814418,29.4083328 2.00456869,29.5304733 C2.00437005,29.5361679 2,29.5406844 2,29.546379 C2,29.5471645 2.00059592,29.5481464 2.00059592,29.5489318 C2.00059592,29.55011 2,29.5508955 2,29.5520737 L2,35.9130006 C2,35.9432411 2.0139047,35.9687689 2.01728155,35.9980276 C2.02363798,36.0535996 2.03237808,36.1060297 2.05005691,36.1588525 C2.06614663,36.2057843 2.08700368,36.2476105 2.11123758,36.2902222 C2.13626603,36.3346012 2.16248632,36.375642 2.19625487,36.4149155 C2.23161252,36.456349 2.27134023,36.4897314 2.31464343,36.5231139 C2.33887733,36.5417688 2.35437114,36.5676893 2.38118734,36.5839877 L20.6708299,47.6027477 C20.6837414,47.6106023 20.6998311,47.6074605 20.7129413,47.6145297 C20.825172,47.6746181 20.9473347,47.7178189 21.083998,47.7178189 C21.2150995,47.7178189 21.3336867,47.6785454 21.4427392,47.6225808 C21.4550548,47.6164934 21.4695554,47.6190461 21.4816724,47.6123697 L27.4976389,44.1704431 L29.2788305,45.177022 L29.2788305,47.7696599 C29.2788305,48.0496797 29.4301931,48.3104555 29.6765049,48.4504654 L32.2079543,49.8945507 C32.3340898,49.9654394 32.4697599,50 32.6056286,50 C32.8791539,50 33.1469186,49.8580264 33.2943084,49.6068726 C33.5136053,49.2310255 33.3834971,48.7497292 33.003303,48.5329397 L30.8675415,47.3152659 L30.8675415,44.7206644 C30.8675415,44.4386809 30.7151857,44.1779051 30.4678808,44.0378952 L29.0903226,43.2592987 L33.6663584,40.6411331 L35.4280835,41.6369118 L35.4280835,44.2295497 C35.4280835,44.5095695 35.5812338,44.7703453 35.8257578,44.9103552 L38.3572072,46.3544405 C38.4833427,46.4253291 38.6190128,46.4598898 38.7548816,46.4598898 C39.0284068,46.4598898 39.2961716,46.3179162 39.4435613,46.0667624 C39.6628583,45.6909153 39.53275,45.209619 39.1525559,44.9928295 L37.0187808,43.7751557 L37.0187808,41.1805542 C37.0187808,40.8985707 36.8656305,40.6377949 36.6173324,40.497785 L35.2590421,39.7299887 L39.8352765,37.1118231 L41.5775351,38.0968016 L41.5775351,40.6894395 C41.5775351,40.9694593 41.7306854,41.2302351 41.9752094,41.370245 L44.5066588,42.8143303 C44.6327943,42.8852189 44.7684644,42.9197796 44.9043331,42.9197796 C45.1778584,42.9197796 45.4456231,42.777806 45.5930129,42.5266522 C45.8123099,42.1508051 45.6822016,41.6695088 45.3020075,41.4527193 L43.1682324,40.2350455 L43.1682324,37.6406403 C43.1682324,37.3586569 43.0150821,37.097881 42.7667839,36.9578711 L41.4277616,36.2008751 L46.0043933,33.5825131 L47.7269866,34.5568878 L47.7269866,37.1495256 C47.7269866,37.4295455 47.8783492,37.6883576 48.124661,37.8303312 L50.6561104,39.2761838 C50.7822459,39.3470724 50.917916,39.3816331 51.0537847,39.3816331 C51.32731,39.3816331 51.5950747,39.2396595 51.7424645,38.9885057 C51.9617614,38.6126586 51.8316532,38.133326 51.4514591,37.9145728 L49.317684,36.696899 L49.317684,34.1003338 C49.317684,33.8183503 49.1645337,33.5575745 48.9162355,33.4175646 L47.5960838,32.6715651 L52.1727156,30.0530068 L53.8762396,31.0165812 L53.8762396,33.6092191 C53.8762396,33.8892389 54.0276021,34.1500147 54.2739139,34.2900246 L56.8073497,35.7358772 C56.9334852,35.8067659 57.0691553,35.8413265 57.205024,35.8413265 C57.4785493,35.8413265 57.746314,35.6993529 57.8937038,35.4481991 C58.1126035,35.0729411 57.9826939,34.5916448 57.6024997,34.3748553 Z M18.9492298,21.3150534 C18.9923343,21.2958094 19.0292811,21.274209 19.0686115,21.247503 L24.0826453,18.4097987 C24.206993,18.3760236 24.3126687,18.3155424 24.4084124,18.2256062 L29.2130812,15.5065078 C29.4248299,15.4833364 29.6161188,15.3782799 29.750597,15.2023348 L34.1848049,12.6929567 L51.094307,22.3416618 L21.0899572,39.3185992 L4.37551817,29.5624812 L18.9492298,21.3150534 Z M3.58890959,30.9272341 L20.2898412,40.676872 L20.2898412,45.5338215 L3.58890959,35.4711741 L3.58890959,30.9272341 Z M46.0000233,31.770239 L43.6104018,30.4198209 C43.2302076,30.2049951 42.745331,30.335383 42.526034,30.71123 C42.3087235,31.0880589 42.4406195,31.5683734 42.8228,31.7831993 L44.4089287,32.6804016 L39.8318997,35.2991563 L37.4611488,33.9587529 C37.0809547,33.7478544 36.596078,33.874315 36.3767811,34.2521257 C36.1594705,34.6279728 36.2913665,35.1073054 36.6735471,35.324095 L38.2400105,36.2097116 L33.6633788,38.8280736 L31.3118959,37.4986668 C30.9269344,37.2877682 30.4448387,37.4142288 30.2275282,37.7920395 C30.0092244,38.1678866 30.1421136,38.6472193 30.5223077,38.8640088 L32.0706951,39.739218 L27.4944606,42.3573836 L25.1614511,41.038777 C24.7782774,40.8259148 24.2943939,40.954339 24.0770834,41.3321497 C23.8587796,41.7079968 23.9916688,42.1873295 24.371863,42.404119 L25.9015783,43.268528 L21.8781549,45.5703458 L21.8781549,40.6819775 L51.8576748,23.7189822 L51.7432591,28.0015573 L49.7592574,26.8795144 C49.3810497,26.6656703 48.8941866,26.7950764 48.6748897,27.1709235 C48.4575791,27.5477524 48.5894751,28.027085 48.9716557,28.2428927 L50.5770523,29.1510916 L46.0000233,31.770239 Z M24.4342355,31.7945886 C24.197657,31.927922 23.9580989,31.9884031 23.7147667,31.9884031 C22.646886,31.9884031 21.5160368,30.8280686 20.3307607,29.6123585 L20.1793982,29.4570319 C19.8738921,29.145397 19.8836254,28.6478022 20.1988647,28.346771 C20.5141041,28.0457399 21.0174541,28.0533982 21.321967,28.366015 L21.4751173,28.5223234 C22.1133429,29.1772085 23.3004067,30.3948823 23.7165545,30.4101989 C23.7902493,30.1187898 23.3304012,28.4840318 23.0840894,27.6066626 C22.5215451,25.606465 21.9899884,23.7176076 23.2654464,22.9985105 C24.5418975,22.2737187 25.9162775,23.688938 27.3740857,25.1836861 C28.0133045,25.839553 29.2043411,27.0601723 29.6204888,27.0745071 C29.6951769,26.7829016 29.2363219,25.1501073 28.9900101,24.2727381 C28.4274658,22.2715586 27.8959091,20.3827013 29.1723603,19.6626223 C30.4468251,18.938616 31.8249792,20.3530498 33.2827874,21.8468161 C33.9229993,22.5017011 35.114036,23.7223204 35.5291905,23.7356734 C35.6088445,23.4432825 35.1489963,21.8095063 34.9026846,20.9311552 C34.7862824,20.5130892 35.0325942,20.0806883 35.4554956,19.9646352 C35.8901167,19.8466185 36.3167923,20.0940413 36.4351808,20.5111255 C36.9957388,22.5113231 37.5272955,24.4011623 36.2488579,25.1212413 C34.9724067,25.8442658 33.5970335,24.4308138 32.1402186,22.9370475 C31.499212,22.2811806 30.3081754,21.0605613 29.8910345,21.0472083 C29.81436,21.3395993 30.2742082,22.9733755 30.52052,23.8517265 C31.0830643,25.8509423 31.6136278,27.7397996 30.3381698,28.4588968 C29.063705,29.1836886 27.6873386,27.7684693 26.2295305,26.2737211 C25.5903117,25.6178543 24.3992751,24.397235 23.9831274,24.3829001 C23.9084393,24.6743093 24.3682875,26.3080854 24.6145992,27.1854547 C25.1771436,29.1856523 25.7087003,31.0745096 24.4342355,31.7945886 Z M21.646741,37.2744153 L47.1797375,22.9380293 C47.4280357,22.7990013 47.581186,22.5401891 47.5831723,22.2582056 C47.5831723,21.9762222 47.4318098,21.7154463 47.185498,21.5754364 L34.2332727,14.1847593 C33.986961,14.0427857 33.6862222,14.0418039 33.4436846,14.1818138 L8.05827649,28.4359218 C7.81196472,28.573968 7.65861577,28.8319947 7.65682803,29.1118181 C7.65384845,29.391838 7.80322462,29.6526138 8.04675546,29.7945874 L20.8496046,37.2687206 C20.9747468,37.3415729 21.1143897,37.3780972 21.2540326,37.3780972 C21.3887095,37.3779008 21.5245783,37.3433402 21.646741,37.2744153 Z M10.0359217,29.132044 L33.8318243,15.7698364 L45.1895781,22.2495655 L21.2617795,35.6846254 L10.0359217,29.132044 Z"/>
</svg>
