<svg xmlns="http://www.w3.org/2000/svg" width="60" height="60" viewBox="0 0 60 60">
  <path fill="#231F20" d="M57.9021737,20.125561 C57.8858693,20.0933931 57.8637861,20.0686486 57.843354,20.038749 C57.7884557,19.9587418 57.7232382,19.8921379 57.6446056,19.8358442 C57.6249991,19.8216161 57.6159182,19.7974902 57.5948669,19.7849118 L36.1783311,7.11366922 C35.9203503,6.96458365 35.6060264,6.96169679 35.3480456,7.1076893 L2.41524593,25.9440223 C2.39357554,25.9563946 2.38408185,25.9807267 2.36385615,25.9947485 C2.28542998,26.0491864 2.22021243,26.1137283 2.16469496,26.1912611 C2.14219903,26.2228103 2.11929033,26.2500292 2.10154125,26.2846715 C2.04767486,26.3877736 2.01320862,26.5001548 2.00742985,26.6230525 C2.00701708,26.6325379 2.00020638,26.6403736 2,26.649859 C2,26.6515086 2.00103192,26.6527459 2.00103192,26.6543955 C2.00103192,26.6564575 2,26.657901 2,26.659963 L2,33.4048994 C2,33.4354176 2.01403416,33.4611932 2.01733631,33.4906803 C2.02352785,33.5488299 2.03302155,33.6038864 2.05138978,33.6595615 C2.06790055,33.7092567 2.08895179,33.7537968 2.11392433,33.7989555 C2.13930964,33.8447328 2.16655242,33.8870046 2.20081227,33.9278331 C2.23796151,33.9721669 2.27923844,34.0086651 2.32484945,34.0445446 C2.34858369,34.0633092 2.36344338,34.0892909 2.38986062,34.1057872 L5.01899476,35.7383051 L5.01899476,37.998096 C5.01899476,38.4531885 5.38883606,38.8237372 5.844327,38.8237372 C6.29981794,38.8237372 6.66965924,38.4531885 6.66965924,37.998096 L6.66965924,36.7633458 L23.5814372,47.2653211 C23.5950586,47.2737755 23.6119821,47.2706824 23.6260163,47.2781057 C23.7438619,47.3432662 23.8726459,47.3900746 24.0167024,47.3900746 C24.1529163,47.3900746 24.2761279,47.3488338 24.3894331,47.2900656 C24.402229,47.2836733 24.417295,47.2863539 24.4298845,47.279343 L26.8485063,45.8837536 L26.8485063,49.1743587 C26.8485063,49.6294512 27.2183476,50 27.6738385,50 C28.1293295,50 28.4991708,49.6294512 28.4991708,49.1743587 L28.4991708,45.0160467 C28.4991708,44.9890339 28.4863749,44.9665577 28.4838983,44.9401636 L30.6810694,43.6722145 L30.6810694,46.98942 C30.6810694,47.4445125 31.0509107,47.8150613 31.5064016,47.8150613 C31.9618925,47.8150613 32.3327658,47.4445125 32.3327658,46.98942 L32.3327658,42.8007959 C32.3327658,42.7748142 32.3203827,42.7527504 32.3179061,42.7275935 L34.5134261,41.4606754 L34.5134261,44.8044812 C34.5134261,45.2595737 34.8842993,45.6301225 35.3397902,45.6301225 C35.7952812,45.6301225 36.1661544,45.2595737 36.1661544,44.8044812 L36.1661544,40.5857514 C36.1661544,40.5608007 36.1539777,40.5395616 36.1519138,40.5152296 L38.3449572,39.2497549 L38.3449572,42.6176867 C38.3449572,43.0727791 38.7158304,43.4433279 39.1713214,43.4433279 C39.6268123,43.4433279 39.9976855,43.0727791 39.9976855,42.6176867 L39.9976855,38.3707068 C39.9976855,38.3469933 39.986128,38.3269915 39.9840642,38.3036905 L42.1783458,37.0375972 L42.1783458,40.4327479 C42.1783458,40.8878404 42.5492191,41.2583892 43.00471,41.2583892 C43.4602009,41.2583892 43.8310742,40.8878404 43.8310742,40.4327479 L43.8310742,36.1536002 C43.8310742,36.1315364 43.8203422,36.1127718 43.8184847,36.0911204 L46.009877,34.8264706 L46.009877,38.2457471 C46.009877,38.7008396 46.3807502,39.0713884 46.8362411,39.0713884 C47.2917321,39.0713884 47.6626053,38.7008396 47.6626053,38.2457471 L47.6626053,33.9383495 C47.6626053,33.9175229 47.6522861,33.8999955 47.6508414,33.8795813 L49.8414081,32.6155501 L49.8414081,36.0608084 C49.8414081,36.5159008 50.2122814,36.8864496 50.6677723,36.8864496 C51.1232632,36.8864496 51.4941365,36.5159008 51.4941365,36.0608084 L51.4941365,31.7233049 C51.4941365,31.7037155 51.4844364,31.6874254 51.4829917,31.6682484 L53.6747967,30.4033924 L53.6747967,33.8738076 C53.6747967,34.3289001 54.04567,34.6994488 54.5011609,34.6994488 C54.9566519,34.6994488 55.3275251,34.3289001 55.3275251,33.8738076 L55.3275251,29.5070231 C55.3275251,29.488671 55.3182378,29.4736181 55.3169995,29.4554721 L57.5868179,28.1456636 C57.6175692,28.1279301 57.6357311,28.0990615 57.6633866,28.0782349 C57.7094104,28.0435926 57.7525448,28.0095689 57.7903132,27.966266 C57.8251922,27.9260562 57.8509903,27.883372 57.8772011,27.8380071 C57.9040311,27.7920236 57.9287973,27.7474835 57.94634,27.6963449 C57.9647082,27.6431442 57.9721381,27.5899435 57.9793615,27.533856 C57.983902,27.4988013 58,27.4678707 58,27.4315788 L58,20.4942539 C58,20.360015 57.9599614,20.2379422 57.9021737,20.125561 Z M24.8424474,45.1362637 L24.8424474,39.9333216 L56.3472717,21.9170623 L56.3472717,26.9562783 L24.8424474,45.1362637 Z M3.65066448,32.9460953 L3.65066448,28.1219501 L23.1917829,39.9223927 L23.1917829,45.0818258 L3.65066448,32.9460953 Z M35.7511148,8.77794259 L55.5330842,20.4827065 L24.02826,38.4993782 L4.45288165,26.6789338 L35.7511148,8.77794259 Z M45.2761795,22.5525833 L49.9299472,19.9117273 C50.187928,19.7657348 50.3470505,19.4929268 50.3491144,19.1968177 C50.3491144,18.9017396 50.1918493,18.6279005 49.9338685,18.479846 L37.7441715,11.4680814 C37.7322012,11.4612767 37.7177542,11.4637511 37.7055775,11.457565 C37.5978448,11.4018899 37.4804119,11.3649794 37.3514215,11.3620925 C37.3400703,11.3618863 37.3297511,11.3616801 37.3179872,11.3616801 C37.1887904,11.3641545 37.0711511,11.4010651 36.9627992,11.456534 C36.9512416,11.4625139 36.9374139,11.459627 36.9260627,11.4664318 L10.2935674,26.579131 C10.0376505,26.7240925 9.8783215,26.9950447 9.87646404,27.2888855 C9.87336827,27.5829326 10.0285695,27.8567717 10.2815971,28.0058572 L22.3150609,35.1062895 C22.4450833,35.1827913 22.5901717,35.2211452 22.7352601,35.2211452 C22.8753953,35.2211452 23.016356,35.1848533 23.1434889,35.1124757 L45.2006427,22.5958862 C45.2274727,22.5826891 45.2507942,22.5684611 45.2761795,22.5525833 Z M44.8454547,20.9006822 L38.1596238,16.8615561 L38.1596238,13.6101297 L47.8601154,19.1898067 L44.8454547,20.9006822 Z M36.5068955,13.6014691 L36.5068955,16.8465032 L15.1753901,28.9781096 L12.3483331,27.3103308 L36.5068955,13.6014691 Z M22.7433091,33.4430472 L16.812846,29.9441759 L19.1718226,28.6024057 L19.1718226,29.7346725 C19.1718226,30.189765 19.5416639,30.5592827 19.9971548,30.5592827 C20.4526458,30.5592827 20.8224871,30.189765 20.8224871,29.7346725 L20.8224871,27.6639708 L23.0041793,26.4234469 L23.0041793,27.5489089 C23.0041793,28.0040014 23.3740206,28.3735192 23.8295115,28.3735192 C24.2850025,28.3735192 24.6548438,28.0040014 24.6548438,27.5489089 L24.6548438,25.4848058 L26.836536,24.2442819 L26.836536,25.3629392 C26.836536,25.8180316 27.2063773,26.1875494 27.6618682,26.1875494 C28.1173592,26.1875494 28.4872005,25.8180316 28.4872005,25.3629392 L28.4872005,23.3056407 L30.6688927,22.0651168 L30.6688927,23.1769694 C30.6688927,23.6320619 31.038734,24.0015796 31.4942249,24.0015796 C31.9497159,24.0015796 32.3205891,23.6320619 32.3205891,23.1769694 L32.3205891,21.1256509 L34.4993919,19.8867766 L34.4993919,20.9909996 C34.4993919,21.4460921 34.8702651,21.8156098 35.3257561,21.8156098 C35.781247,21.8156098 36.1521202,21.4460921 36.1521202,20.9909996 L36.1521202,18.9471045 L37.3208765,18.2825086 L43.1999499,21.8341682 L22.7433091,33.4430472 Z"/>
</svg>
