<svg xmlns="http://www.w3.org/2000/svg" width="60" height="60" viewBox="0 0 60 60">
  <path fill="#231F20" d="M56.9997922,16.3234235 C56.9993767,16.0265793 56.8414649,15.7521699 56.5840272,15.6042672 L46.8988426,10.0126297 C46.8246656,9.79700743 46.7600465,9.57910017 46.6634294,9.37074842 C46.660105,9.35911562 46.6549105,9.34872919 46.6511705,9.33730412 C46.6353793,9.30365209 46.6295615,9.26688413 46.613147,9.23343983 L46.6004725,9.23967169 C46.5302433,9.09613125 46.4307174,8.96567772 46.2823634,8.880509 L32.8253736,1.11104524 C32.6244517,0.996379077 32.3871685,0.968958906 32.1658843,1.03605523 C31.945639,1.10294383 31.7632093,1.25915571 31.6626445,1.46605336 C31.0925,2.63494199 30.4018438,3.72759424 29.6353485,4.75107288 C29.5771705,4.76914526 29.5171225,4.7774544 29.4620612,4.80923687 L3.413895,19.9189972 C3.15749619,20.0679386 2.99979222,20.342348 3.00020778,20.6381535 L3,20.6381535 L3,33.8615307 C3,34.7661886 3.59154572,35.7907059 4.37570221,36.2431387 L5.49168116,36.8862663 L5.49168116,46.7735228 C5.49168116,47.6823353 6.08717467,48.7047752 6.87652563,49.1491066 L10.0561618,50.9505288 C10.3331307,51.1088179 10.6202807,51.1879625 10.8951718,51.1879625 C11.1326628,51.1879625 11.3608037,51.1291753 11.5667123,51.0095237 C12.0080341,50.7519402 12.2617318,50.2629472 12.2617318,49.6686358 L12.2617318,40.7886551 L15.3865144,42.5896618 L15.3865144,52.6082027 C15.3865144,53.5149379 15.9820079,54.5353006 16.7723978,54.9856561 L19.9277238,56.7667208 C20.2036538,56.9229327 20.4887261,57 20.7617472,57 C21.0011082,57 21.2315346,56.9412128 21.4374432,56.8194839 C21.8777261,56.5619005 22.129346,56.0708301 22.1272682,55.4765187 L22.1000493,46.458814 L24.8603882,48.0498071 C25.2520509,48.2749848 25.7430317,48.3865351 26.2340126,48.3865351 C26.7249935,48.3865351 27.2170132,48.2749848 27.6086759,48.0498071 C30.6821372,46.2830756 40.4969757,40.6401292 47.8589876,36.4032974 L47.8589876,37.8985276 C47.8589876,38.1947485 48.0173149,38.4706121 48.2749604,38.6187225 L50.7666415,40.0570351 C50.8965032,40.1301556 51.0386237,40.1685854 51.1826143,40.1685854 C51.3266049,40.1685854 51.4687255,40.1299478 51.5985871,40.0570351 C51.8562326,39.9089246 52.0145599,39.6330611 52.0145599,39.3368402 L52.0145599,34.0106798 C53.5610561,33.1199397 54.829129,32.3889429 55.6263756,31.9284087 C56.409701,31.4780531 57,30.4527049 57,29.545762 L57,16.3234235 L56.9997922,16.3234235 Z M45.1705401,16.621514 L28.7175904,26.0804341 L28.7175904,24.8803862 C31.0006618,23.7333091 41.1643606,18.3647721 45.6180952,11.6611636 C45.9276853,13.696488 45.3941099,15.8581115 45.1705401,16.621514 Z M15.2950918,18.0573338 L27.055777,24.8454878 L27.055777,26.0775259 L15.2950918,19.2883333 L15.2950918,18.0573338 Z M32.7482878,2.98538008 L44.7564373,9.91811318 C40.9436997,16.5749828 30.1084604,22.3118225 27.9159805,23.4235858 L16.3483216,16.7463588 C19.9337494,15.1732304 28.5511597,10.738641 32.7482878,2.98538008 Z M25.746564,8.8863254 C20.4249381,13.5238656 14.2701199,15.8051407 14.1811906,15.8375463 C13.8778339,15.9470193 13.6648608,16.2239215 13.6363951,16.5454853 C13.6341096,16.5712436 13.6507318,16.5930551 13.6509396,16.6186058 L13.6332784,16.6186058 L13.6332784,19.7679785 C13.6332784,20.0652381 13.7916057,20.3390243 14.0482123,20.4871348 L27.4707109,28.2354103 C27.5995337,28.3104003 27.7435242,28.3469605 27.8866837,28.3469605 C28.0298432,28.3469605 28.1727949,28.3104003 28.3005787,28.2364489 L46.2802857,17.8996678 C46.4548197,17.8001658 46.5846813,17.6410457 46.651586,17.4524282 C46.7002062,17.311796 47.5298663,14.8387874 47.3447355,12.1885864 L54.5041633,16.3215539 L26.2024302,32.5918937 L5.4893956,20.6362839 L25.746564,8.8863254 Z M12.1378957,26.3930656 L15.3865144,28.2684391 L15.3865144,32.1861998 L12.1378957,30.311865 L12.1378957,26.3930656 Z M10.5957629,49.3460333 L7.69517338,47.7029004 C7.42236006,47.5487658 7.15349453,47.0882316 7.15349453,46.7737305 L7.15349453,37.8443104 L10.5997106,39.8304032 L10.5957629,49.3460333 Z M20.4602604,55.1578631 L17.5910455,53.5390344 C17.3171933,53.3828225 17.0483278,52.9222883 17.0483278,52.607995 L17.0483278,43.5472905 L20.4351192,45.4993158 L20.4602604,55.1578631 Z M5.2066089,34.8029565 C4.93171779,34.6446674 4.66181337,34.178109 4.66181337,33.8617384 L4.66181337,22.077297 L10.4760824,25.4337751 L10.4760824,30.7915102 C10.4760824,31.0887698 10.6344097,31.3625561 10.8910163,31.5106665 L15.8014483,34.3465769 C15.930271,34.4196973 16.0742616,34.4581271 16.2174211,34.4581271 C16.3605805,34.4581271 16.5045711,34.4194896 16.6333939,34.3465769 C16.8900005,34.1984664 17.0483278,33.9226029 17.0483278,33.6263819 L17.0483278,29.2275219 L25.3706924,34.0318681 L25.3706924,46.4257852 L5.2066089,34.8029565 Z M50.3506687,37.8985276 L49.5228787,37.4197133 L49.5228787,35.445461 C49.8048343,35.2830172 50.0799332,35.1247281 50.3506687,34.9689317 L50.3506687,37.8985276 Z M54.79443,30.4900961 C50.3641743,33.0480656 31.9057455,43.6621643 27.0325058,46.4646304 L27.0325058,34.0316604 L55.3363166,17.7596588 L55.3363166,29.545762 C55.3361088,29.8642099 55.0682822,30.3318069 54.79443,30.4900961 Z M8.80014006,45.8823672 C8.24038447,45.5593493 7.78659597,44.8435167 7.78638819,44.2838959 C7.78638819,43.7242752 8.24017669,43.5325417 8.80014006,43.8555596 C9.36010343,44.1785776 9.81389192,44.8944102 9.81389192,45.4540309 C9.81389192,46.0138594 9.36010343,46.2055929 8.80014006,45.8823672 Z M18.7863959,51.8526939 C18.2266403,51.529676 17.7728518,50.8138434 17.772644,50.2542226 C17.772644,49.6946019 18.2266403,49.5028684 18.7863959,49.8258863 C19.3463593,50.1489042 19.8001478,50.8647369 19.8001478,51.4243576 C19.8001478,51.9839784 19.3463593,52.1759196 18.7863959,51.8526939 Z"/>
</svg>
