<svg xmlns="http://www.w3.org/2000/svg" width="60" height="60" viewBox="0 0 60 60">
  <path fill="#231F20" d="M41.9506952,5.10394126 C41.9332488,5.09123314 41.9229748,5.07246422 41.9041714,5.06112467 L41.8818788,5.04763451 C41.878971,5.04587492 41.8768387,5.04294228 41.8737371,5.04098718 C41.8712171,5.03961862 41.8681155,5.0392276 41.8655955,5.03785903 L37.5821136,2.44442466 C35.9502926,1.49366165 33.3984641,1.4946392 31.77052,2.44344711 C30.2864119,3.3077949 28.6720372,4.25758036 26.9508518,5.27149296 L26.9508518,2.68294633 C26.9508518,2.5474582 26.9076235,2.42624227 26.8473364,2.31519284 C26.6069636,1.5519235 25.694904,1 24.4804399,1 C23.2667511,1 22.3548854,1.5519235 22.1145126,2.31519284 C22.0542255,2.42643778 22.0109972,2.54765371 22.0109972,2.68314184 L22.0109972,8.17872018 L19.9057968,9.40945289 C18.2759143,10.3592384 17,12.589416 17,14.4862497 L17,49.6226421 C17,51.5224085 17.9892116,53.5805377 19.250781,54.3117435 C20.2936887,54.9170411 23.9021882,56.5952952 24.0751016,56.6750631 C24.096425,56.6887488 24.1119329,56.7102548 24.1338378,56.7231585 C24.4490363,56.908306 24.8068816,57 25.1854688,57 C25.6671836,57 26.1839851,56.8510217 26.6941957,56.5589304 L40.082766,48.8587862 C41.718464,47.9156481 42.9999999,45.6913358 42.9999999,43.7915693 L42.9999999,7.36461835 C43.0001938,6.3495327 42.6138527,5.53875453 41.9506952,5.10394126 Z M23.5614017,4.2460453 C23.8442274,4.31936138 24.150315,4.36628368 24.4804399,4.36628368 C24.8109524,4.36628368 25.1174277,4.31955689 25.4004473,4.2460453 L25.4004473,10.7965932 C25.3159291,10.8742105 25.0158509,11.0343329 24.4804399,11.0343329 C23.9058714,11.0333553 23.5784604,10.8452751 23.5614017,10.915072 L23.5614017,4.2460453 Z M25.1969058,2.68314184 C24.8712395,2.80924551 24.0904156,2.80924551 23.7647493,2.68314184 C24.0904156,2.55723368 24.8712395,2.55723368 25.1969058,2.68314184 Z M18.5504045,49.6226421 L18.5504045,14.4862497 C18.5504045,13.1421215 19.5262404,11.4370826 20.6809991,10.7641387 L22.0108033,9.98640161 L22.0108033,10.9148765 C22.0108033,11.0472365 22.0518993,11.1661063 22.1094725,11.2753962 C22.339959,12.0517646 23.2403877,12.5978229 24.480246,12.5978229 C25.7201044,12.5978229 26.6211146,12.0519602 26.8517949,11.2755917 C26.9095619,11.1663018 26.9506579,11.0472365 26.9506579,10.9148765 L26.9506579,7.08171602 C28.984328,5.88421993 30.8353923,4.79484064 32.5464976,3.79813288 C33.6975731,3.12518896 35.6511835,3.12518896 36.7945051,3.79148556 L39.2185871,5.25917586 L25.9246151,12.9073145 C24.288917,13.8484975 23.0083504,16.0737874 23.0083504,17.9725763 L23.0083504,54.3995273 C23.0083504,54.4165366 23.0130028,54.4310043 23.0131966,54.4478181 C21.8983709,53.9168142 20.5623635,53.2683089 20.0230755,52.9560802 C19.3265759,52.5533305 18.5504045,51.0850536 18.5504045,49.6226421 Z M41.4478508,43.7917649 C41.4478508,45.1358931 40.4710456,46.8333071 39.3143485,47.4996037 L25.9257782,55.1997479 C25.5121044,55.4384651 25.132548,55.497509 24.912917,55.3716008 C24.6913476,55.2417825 24.5589487,54.8789167 24.5589487,54.3997228 L24.5589487,17.9725763 C24.5589487,16.6294256 25.5367232,14.9320115 26.6934203,14.2666925 L40.0812152,6.56459322 C40.3518285,6.40799006 40.6094538,6.32685359 40.8176476,6.32685359 C40.9246523,6.32685359 41.0165367,6.34914168 41.091944,6.39313133 L41.0950456,6.39489092 C41.3156458,6.52549131 41.4480447,6.887184 41.4480447,7.36442285 L41.4480447,43.7917649 L41.4478508,43.7917649 Z M27.139273,32.2195537 C27.2726412,32.2195537 27.4071724,32.183189 27.5263895,32.1145651 L39.7423671,25.0120937 C39.9808014,24.8717178 40.1304529,24.6140362 40.1304529,24.334262 L40.1304529,11.7493114 C40.1304529,11.4705147 39.9827399,11.2138107 39.7443056,11.0734348 C39.5019943,10.9311038 39.2123839,10.9303218 38.9720111,11.0687426 L26.7570028,18.0566454 C26.5137222,18.1960437 26.3642647,18.4556804 26.3642647,18.7372142 L26.3642647,31.4367335 C26.3642647,31.7155301 26.5119776,31.9732117 26.7513811,32.1145651 C26.8713737,32.1833845 27.0047418,32.2195537 27.139273,32.2195537 Z M27.9144753,19.192556 L38.5781099,13.0914845 L38.5781099,23.8826349 L27.9144753,30.0830252 L27.9144753,19.192556 Z M39.4147623,28.3408395 C38.1993289,27.7030873 36.6150009,28.4172837 35.804712,29.9760815 C35.5662777,30.43592 35.4586915,30.9219568 35.4146877,31.4033013 C35.2464268,31.2013399 35.0700242,31.0040708 34.8296514,30.8771851 C34.2143746,30.5545943 33.4591388,30.5735587 32.7568238,30.9305592 C32.1283653,31.2494353 31.5820987,31.8107433 31.2196011,32.5114495 C30.9893084,32.9552562 30.8501248,33.4221331 30.7995303,33.880603 C30.6700391,33.7591916 30.5269785,33.6543984 30.3695731,33.5711114 C29.1504566,32.9315996 27.5678732,33.6475556 26.7595228,35.2053758 C25.9511724,36.7653466 26.2692786,38.48935 27.4845181,39.1308168 C27.7855657,39.2893751 28.1092935,39.3656238 28.4376738,39.3656238 C29.4371593,39.3656238 30.4858825,38.6668726 31.0945685,37.4945973 C31.3357166,37.0296756 31.4423336,36.5381645 31.4847865,36.0517367 C31.626684,36.1940677 31.7664492,36.3406999 31.9426579,36.4331759 C32.2322684,36.5878239 32.5579347,36.6660278 32.8948443,36.6660278 C33.1239739,36.6660278 33.358725,36.629663 33.5934762,36.5553694 C34.3903895,36.3053126 35.1041416,35.6656053 35.5546467,34.7989114 C35.793081,34.3380954 35.9039627,33.870632 35.9516495,33.4135307 C36.117972,33.6082582 36.3050363,33.7808931 36.5295135,33.8997629 C36.830561,34.0583212 37.1542889,34.1345699 37.4836383,34.1345699 C38.4811854,34.1345699 39.5301025,33.4377738 40.1395638,32.265303 C40.948108,30.7074828 40.6300018,28.9834794 39.4147623,28.3408395 Z M29.7203728,36.7694523 C29.3066989,37.5655673 28.5807344,37.9397726 28.2040857,37.7450451 C27.8291817,37.5464073 27.7194632,36.7293729 28.1341062,35.9313028 C28.4748928,35.2745862 29.0285256,34.9060507 29.4224268,34.9060507 C29.5075265,34.9060507 29.5842907,34.9232555 29.6505871,34.9576652 C29.8768089,35.0759485 29.9496961,35.37195 29.9723765,35.536178 C30.024328,35.9121429 29.9324436,36.3608373 29.7203728,36.7694523 Z M34.180451,34.0753305 C33.9286411,34.5601943 33.5273737,34.9383097 33.1336663,35.0624583 C33.0068891,35.1025378 32.8269972,35.1389026 32.664164,35.0491637 C32.5052078,34.9650946 32.4237912,34.7951967 32.3840521,34.6653784 C32.260958,34.2702536 32.3423746,33.7222403 32.5941845,33.237181 C32.8043168,32.828566 33.1185461,32.4983504 33.4554557,32.3264975 C33.5558695,32.2768381 33.7167642,32.2099738 33.881342,32.2099738 C33.9588816,32.2099738 34.0385535,32.2252235 34.1104715,32.2633479 C34.4832432,32.4621811 34.5931556,33.2792156 34.180451,34.0753305 Z M38.7653681,31.5399625 C38.3526635,32.3360774 37.6313513,32.7141929 37.249081,32.5136001 C37.02189,32.3953168 36.949972,32.0993154 36.9272916,31.9350873 C36.8761155,31.5589269 36.9670307,31.1102325 37.1791015,30.7016175 C37.5198881,30.0449009 38.0744902,29.6744102 38.4681975,29.6744102 C38.5515526,29.6744102 38.6290922,29.6916151 38.6953886,29.7270023 C39.0702926,29.9246625 39.1800111,30.7418925 38.7653681,31.5399625 Z M27.4213234,45.0938586 C27.7223709,45.2524168 28.0460988,45.3286655 28.374479,45.3286655 C29.3739646,45.3286655 30.4226878,44.6299144 31.0313737,43.457639 C31.265931,43.0052299 31.3737111,42.527991 31.4202348,42.0542714 C31.5580615,42.1897595 31.7092637,42.3094113 31.8804324,42.3999323 C32.1814799,42.5584905 32.5052078,42.6347393 32.8345573,42.6347393 C33.8340428,42.6347393 34.8810214,41.9359881 35.4904827,40.7637127 C35.7240708,40.3134542 35.8322385,39.8381704 35.8795377,39.3664059 C36.0479925,39.5664122 36.2383522,39.7431528 36.4672879,39.8643687 C36.7568984,40.0170617 37.0786877,40.0935059 37.4138527,40.0935059 C37.7848797,40.0935059 38.1690885,39.9998569 38.5403094,39.8109946 C39.1668294,39.4901634 39.7140652,38.9288555 40.0775321,38.2281492 C40.883944,36.6701335 40.5660316,34.9461301 39.3525367,34.3046633 C38.8640372,34.0487412 38.2791947,34.0049471 37.6960969,34.18638 C36.9009282,34.4383918 36.1893084,35.0780991 35.7424864,35.9410783 C35.5088984,36.3913368 35.4007306,36.8664251 35.3534314,37.3381897 C35.1849766,37.1381834 34.9946169,36.9616382 34.7656812,36.8404223 C33.5521863,36.2009105 31.9659198,36.9186261 31.1556309,38.4766418 C30.9210736,38.9288555 30.8132935,39.4060943 30.7667698,39.879814 C30.6289431,39.7443259 30.4777409,39.6248695 30.3065722,39.5345441 C29.0893942,38.8911221 27.5048723,39.6127479 26.6965219,41.1707636 C26.333055,41.8714699 26.1863113,42.6427551 26.2838173,43.3454165 C26.3923728,44.1315605 26.8070158,44.7693127 27.4213234,45.0938586 Z M37.1164883,36.6644637 C37.3663597,36.1813596 37.7676272,35.8034396 38.1595899,35.679291 C38.2295694,35.6564164 38.3148629,35.6372564 38.4038396,35.6372564 C38.4813793,35.6372564 38.5591127,35.6525062 38.6329692,35.6906306 C39.0059347,35.8892683 39.1156532,36.7063027 38.7029487,37.5026132 C38.4908779,37.9112282 38.1766486,38.2433989 37.8416775,38.4152518 C37.695903,38.489741 37.4119142,38.5986398 37.1866616,38.4782059 C36.9594706,38.3599226 36.8875526,38.0639212 36.8648723,37.8996931 C36.8136961,37.5235327 36.9046113,37.0730787 37.1164883,36.6644637 Z M32.5296328,39.2017868 C32.8704193,38.5450702 33.4250214,38.1745796 33.8187288,38.1745796 C33.9020838,38.1745796 33.9796234,38.1917844 34.0459198,38.2261941 C34.2731109,38.3444774 34.3450288,38.6404789 34.3677092,38.8047069 C34.4188853,39.1808673 34.3279701,39.6315168 34.1158993,40.0381767 C33.7031947,40.8342917 32.9762609,41.208497 32.5996123,41.0137695 C32.3724212,40.8954862 32.3005032,40.5994847 32.2778229,40.4352567 C32.2268406,40.0590963 32.3177558,39.6084467 32.5296328,39.2017868 Z M28.0705237,41.8957131 C28.4113103,41.2389965 28.9649431,40.8685059 29.3596197,40.8685059 C29.443944,40.8685059 29.5205144,40.8857107 29.5868108,40.9201204 C29.8130326,41.0384037 29.8859198,41.3344051 29.9086002,41.4986332 C29.9607455,41.8747936 29.8688611,42.3254431 29.6567903,42.732103 C29.2431165,43.528218 28.5161826,43.8987086 28.1405032,43.7076957 C27.9142814,43.5894125 27.8413942,43.293411 27.8187139,43.1291829 C27.7667623,42.7530225 27.8586468,42.3025685 28.0705237,41.8957131 Z M39.3938266,40.2061194 C38.9035824,39.9501974 38.3185461,39.9024931 37.7412637,40.0858811 C36.946095,40.3359378 36.2325368,40.9756451 35.7820316,41.8405794 C35.5482497,42.2914245 35.440082,42.7674903 35.3929766,43.2396458 C35.2245219,43.0396396 35.0341621,42.8630944 34.8052264,42.7418785 C34.1899496,42.4192877 33.4364585,42.4382521 32.7323988,42.7952526 C32.1058788,43.1141287 31.5596123,43.6754367 31.1951761,44.3761429 C30.955191,44.8396961 30.8446971,45.3098966 30.7975918,45.7695396 C30.6622851,45.6387437 30.5137968,45.5237841 30.3470866,45.4358048 C29.1279701,44.7923828 27.5453867,45.512249 26.7370363,47.0700692 C26.3735694,47.7707755 26.2268257,48.5440158 26.3243318,49.2447221 C26.4332749,50.0312571 26.8477241,50.6690093 27.4620317,50.9935552 C27.7630792,51.1521134 28.0868071,51.2283622 28.4151873,51.2283622 C29.4146728,51.2283622 30.463396,50.5315661 31.072082,49.3590952 C31.3178825,48.88518 31.4241118,48.3838935 31.4630754,47.8884723 C31.6071053,48.0347134 31.7325256,48.2001145 31.9201714,48.2994334 C32.2117204,48.4521263 32.5335097,48.5285706 32.8667362,48.5285706 C33.2377632,48.5285706 33.6239105,48.4349215 33.9931929,48.2460593 C34.6216514,47.9271832 35.1669487,47.3658752 35.5304156,46.6651689 C35.7641975,46.2143239 35.8723653,45.7382581 35.9194706,45.2661025 C36.0879254,45.4661088 36.2782851,45.6428494 36.5072208,45.7640653 C36.8082684,45.9226236 37.1319962,45.9988723 37.4613457,45.9988723 C38.4588928,45.9988723 39.5078098,45.3020762 40.1172711,44.1296054 C40.4807381,43.4288991 40.628451,42.6556588 40.5299757,41.9549525 C40.4218079,41.1684175 40.0073587,40.5306653 39.3938266,40.2061194 Z M29.6976924,48.6335592 C29.2830494,49.4335844 28.5543709,49.8021199 28.1814054,49.6071968 C27.9551836,49.4889136 27.8822963,49.1929121 27.859616,49.028684 C27.8074706,48.6525236 27.899355,48.2038292 28.1114259,47.7952142 C28.4522125,47.1384976 29.0058453,46.7699621 29.3997465,46.7699621 C29.4848462,46.7699621 29.5616104,46.7871669 29.6279068,46.8215766 C29.8541286,46.9398599 29.9270158,47.2358613 29.9496961,47.4000894 C30.0014538,47.7764453 29.9097632,48.2251397 29.6976924,48.6335592 Z M34.1558322,45.9396329 C33.9456999,46.3482479 33.6314706,46.6784636 33.294561,46.8503165 C33.146848,46.9248056 32.8628592,47.0337045 32.6395452,46.9132706 C32.2646412,46.7165879 32.1568611,45.899358 32.5695657,45.1012879 C32.7816365,44.694628 33.0958658,44.3624573 33.4308369,44.1906044 C33.5312507,44.1409449 33.69389,44.0740807 33.8567232,44.0740807 C33.9342628,44.0740807 34.0139347,44.0893304 34.0858527,44.1274548 C34.3130438,44.2457381 34.3849617,44.5417395 34.4076421,44.7059676 C34.4586244,45.0823235 34.367903,45.5310179 34.1558322,45.9396329 Z M38.7426877,43.4040694 C38.3299832,44.2001843 37.608671,44.5763447 37.2264007,44.377707 C36.9992096,44.2594237 36.9272916,43.9634223 36.9046113,43.7991942 C36.8534352,43.4230338 36.9443504,42.9743394 37.1564212,42.5657244 C37.4082311,42.0808607 37.8094985,41.7027452 38.2032059,41.5785966 C38.2714408,41.5576771 38.354602,41.5385171 38.4435787,41.5385171 C38.5193737,41.5385171 38.5988518,41.5518118 38.6707697,41.5918912 C38.6727082,41.5918912 38.6727082,41.5918912 38.6727082,41.5918912 C38.8998993,41.7101745 38.9718173,42.006176 38.9944976,42.170404 C39.0456737,42.5469555 38.9547586,42.9954544 38.7426877,43.4040694 Z"/>
</svg>
