<?xml version="1.0" encoding="utf-8"?>
<!-- Generator: Adobe Illustrator 21.0.0, SVG Export Plug-In . SVG Version: 6.00 Build 0)  -->
<svg version="1.1" id="Layer_1" xmlns="http://www.w3.org/2000/svg" xmlns:xlink="http://www.w3.org/1999/xlink" x="0px" y="0px"
	 viewBox="0 0 60 60" style="enable-background:new 0 0 60 60;" xml:space="preserve">
<g>
	<path d="M16.553,17.927c0.812,0,1.623-0.158,2.255-0.474c0.781-0.39,1.229-0.997,1.229-1.664c0-0.667-0.447-1.273-1.229-1.664
		c-1.263-0.632-3.244-0.632-4.509,0c-0.781,0.39-1.229,0.997-1.229,1.664c0,0.667,0.447,1.274,1.229,1.664
		C14.931,17.769,15.743,17.927,16.553,17.927z M15.014,15.556c0.821-0.409,2.26-0.408,3.079,0c0.227,0.113,0.311,0.21,0.338,0.218
		c-0.027,0.039-0.111,0.135-0.338,0.249c-0.819,0.409-2.258,0.41-3.079,0c-0.227-0.113-0.311-0.21-0.338-0.218
		C14.704,15.766,14.788,15.669,15.014,15.556z"/>
	<path d="M25.455,12.217c0.632,0.316,1.443,0.474,2.255,0.474c0.811,0,1.622-0.158,2.254-0.474c0.781-0.39,1.229-0.997,1.229-1.664
		s-0.447-1.274-1.229-1.664c-1.265-0.633-3.246-0.632-4.509,0c-0.781,0.39-1.229,0.997-1.229,1.664S24.673,11.827,25.455,12.217z
		 M26.169,10.319c0.82-0.409,2.259-0.409,3.079,0c0.227,0.114,0.311,0.21,0.338,0.218c-0.027,0.038-0.111,0.135-0.338,0.249
		c-0.82,0.41-2.259,0.409-3.079,0c-0.227-0.114-0.311-0.21-0.338-0.218C25.859,10.53,25.943,10.433,26.169,10.319z"/>
	<path d="M55.583,23.427c-0.09-0.056-0.188-0.091-0.288-0.115l-12.398-6.199c-0.283-0.141-0.617-0.141-0.896,0.001L36.663,19.8
		v-3.758c0-0.586-0.618-0.966-1.141-0.701l-5.742,2.905c-0.433,0.219-0.706,0.663-0.706,1.148v4.225l-2.656,1.336v-3.98
		c0-0.586-0.618-0.966-1.141-0.701l-6.017,3.044c-0.264,0.134-0.431,0.405-0.431,0.701v4.755l-4.769,2.4l-8.119-4.068v-9.146
		l9.231,4.626v5.28c0,0.552,0.447,1,1,1s1-0.448,1-1v-5.141L37.94,12.35v4.657c0,0.552,0.447,1,1,1s1-0.448,1-1v-6.286
		c0-0.346-0.179-0.667-0.473-0.85c-0.088-0.055-0.183-0.09-0.281-0.115l-11.2-5.601c-0.281-0.141-0.613-0.141-0.895,0L4.497,15.444
		c-0.013,0.006-0.022,0.017-0.034,0.024c-0.014,0.008-0.031,0.011-0.045,0.02c-0.032,0.02-0.057,0.047-0.086,0.07
		c-0.029,0.022-0.058,0.043-0.084,0.068c-0.04,0.039-0.074,0.084-0.106,0.129c-0.019,0.026-0.04,0.049-0.056,0.076
		c-0.033,0.056-0.057,0.116-0.079,0.178c-0.008,0.021-0.019,0.041-0.025,0.063c-0.024,0.086-0.039,0.176-0.039,0.268v11.383
		c0,0.378,0.214,0.725,0.552,0.894l7.34,3.678l-5.807,2.922c-0.014,0.007-0.025,0.019-0.039,0.027
		c-0.012,0.007-0.026,0.01-0.037,0.017c-0.028,0.017-0.049,0.041-0.075,0.061c-0.034,0.026-0.069,0.05-0.099,0.08
		c-0.035,0.035-0.063,0.074-0.093,0.113c-0.023,0.031-0.048,0.059-0.068,0.092c-0.028,0.049-0.048,0.101-0.068,0.154
		c-0.011,0.029-0.027,0.056-0.035,0.087c-0.023,0.085-0.037,0.174-0.037,0.264v12.586c0,0.379,0.214,0.725,0.552,0.894l12.261,6.145
		c0.027,0.021,0.05,0.046,0.08,0.064c0.16,0.1,0.343,0.149,0.525,0.149c0.013,0,0.025-0.008,0.038-0.009
		c0.002,0,0.003,0.001,0.004,0.001c0.183,0,0.365-0.05,0.525-0.149c0.01-0.006,0.017-0.015,0.027-0.022l36.016-18.011
		c0.339-0.17,0.553-0.516,0.553-0.895V24.278C56.057,23.931,55.877,23.609,55.583,23.427z M27.539,6.169l9.126,4.563L16.217,20.858
		L7.18,16.339L27.539,6.169z M42.451,19.126l10.337,5.168L18.938,41.222L8.707,36.107L42.451,19.126z M7.476,37.731l10.418,5.22
		V53.3L7.476,48.08V37.731z M19.936,53.31V43.083l34.121-17.17v10.333L19.936,53.31z"/>
	<path d="M28.821,40.531L22.36,43.8c-0.324,0.164-0.529,0.497-0.529,0.861v4.703c0,0.719,0.758,1.185,1.4,0.861l6.462-3.269
		c0.325-0.164,0.529-0.497,0.529-0.861v-4.703C30.221,40.673,29.463,40.206,28.821,40.531z"/>
	<path d="M40.148,35.077l-6.462,3.269c-0.324,0.164-0.529,0.497-0.529,0.861v4.703c0,0.719,0.758,1.185,1.4,0.861l6.462-3.269
		c0.325-0.164,0.529-0.497,0.529-0.861v-4.703C41.548,35.219,40.79,34.753,40.148,35.077z"/>
	<path d="M50.972,29.481L44.51,32.75c-0.324,0.164-0.529,0.497-0.529,0.861v4.703c0,0.719,0.758,1.185,1.4,0.861l6.462-3.269
		c0.324-0.164,0.529-0.497,0.529-0.861v-4.703C52.372,29.622,51.614,29.156,50.972,29.481z"/>
	<path d="M19.314,37.783c0.883,0,1.767-0.172,2.454-0.517c1.142-0.57,1.312-1.351,1.312-1.764c0-0.414-0.17-1.194-1.311-1.764
		c-1.376-0.691-3.533-0.69-4.911-0.001c-1.141,0.57-1.312,1.351-1.312,1.765c0,0.413,0.171,1.193,1.311,1.764
		C17.546,37.611,18.43,37.783,19.314,37.783z M17.574,35.169c0.463-0.232,1.102-0.349,1.739-0.349c0.639,0,1.276,0.116,1.739,0.348
		l0.001,0.001c0.317,0.158,0.418,0.304,0.428,0.323c-0.01,0.038-0.11,0.184-0.429,0.343c-0.927,0.464-2.553,0.463-3.479-0.001
		c-0.317-0.158-0.417-0.304-0.427-0.323C17.156,35.473,17.255,35.328,17.574,35.169z"/>
	<path d="M29.192,31.477c0.688,0.344,1.572,0.517,2.456,0.517c0.883,0,1.767-0.173,2.454-0.517c1.142-0.57,1.312-1.35,1.312-1.764
		c0.001-0.414-0.17-1.194-1.312-1.765c-1.375-0.688-3.534-0.688-4.909,0c-1.142,0.57-1.313,1.351-1.312,1.765
		C27.881,30.127,28.051,30.907,29.192,31.477z M29.908,29.379c0.464-0.231,1.102-0.347,1.739-0.347c0.639,0,1.276,0.116,1.74,0.347
		c0.318,0.159,0.418,0.305,0.428,0.325c-0.01,0.038-0.109,0.183-0.429,0.342c-0.926,0.464-2.551,0.463-3.479,0
		c-0.318-0.159-0.418-0.304-0.428-0.324C29.49,29.684,29.589,29.538,29.908,29.379z"/>
	<path d="M40.771,26.107c0.688,0.344,1.572,0.516,2.455,0.516c0.884,0,1.768-0.172,2.456-0.516c1.141-0.571,1.311-1.351,1.311-1.765
		s-0.171-1.194-1.312-1.764c-1.374-0.688-3.532-0.689-4.91,0c-1.141,0.57-1.312,1.35-1.312,1.764S39.629,25.536,40.771,26.107z
		 M41.486,24.01c0.464-0.232,1.103-0.348,1.74-0.348c0.639,0,1.276,0.116,1.74,0.347c0.317,0.159,0.417,0.304,0.427,0.324
		c-0.01,0.039-0.109,0.184-0.427,0.343c-0.927,0.462-2.553,0.463-3.479,0c-0.318-0.159-0.418-0.304-0.428-0.325
		C41.069,24.313,41.168,24.168,41.486,24.01z"/>
</g>
</svg>
