<?xml version="1.0" encoding="utf-8"?>
<!-- Generator: Adobe Illustrator 21.0.0, SVG Export Plug-In . SVG Version: 6.00 Build 0)  -->
<svg version="1.1" id="Layer_1" xmlns="http://www.w3.org/2000/svg" xmlns:xlink="http://www.w3.org/1999/xlink" x="0px" y="0px"
	 viewBox="0 0 30 30" style="enable-background:new 0 0 30 30;" xml:space="preserve">
<style type="text/css">
	.st0{display:none;opacity:0.2;}
	.st1{display:inline;fill:none;stroke:#00ADEE;stroke-width:0.125;stroke-miterlimit:10;}
	.st2{fill:#231F20;}
</style>
<g class="st0">
	<path class="st1" d="M-15.375-16.557"/>
	<line class="st1" x1="-13.125" y1="47.1558" x2="-13.125" y2="-16.3603"/>
	<line class="st1" x1="-10.875" y1="47.3529" x2="-10.875" y2="-16.5568"/>
	<line class="st1" x1="-8.625" y1="46.959" x2="-8.625" y2="-16.3109"/>
	<line class="st1" x1="-6.375" y1="47.746" x2="-6.375" y2="-16.6546"/>
	<line class="st1" x1="-4.125" y1="47.3529" x2="-4.125" y2="-16.5079"/>
	<line class="st1" x1="-1.875" y1="47.4999" x2="-1.875" y2="-16.6061"/>
	<line class="st1" x1="0.375" y1="47.3529" x2="0.375" y2="-16.5568"/>
	<line class="st1" x1="2.625" y1="47.4999" x2="2.625" y2="-16.9021"/>
	<line class="st1" x1="4.875" y1="47.1558" x2="4.875" y2="-16.6547"/>
	<line class="st1" x1="7.125" y1="47.3029" x2="7.125" y2="-16.8517"/>
	<line class="st1" x1="9.375" y1="47.1063" x2="9.375" y2="-16.4577"/>
	<line class="st1" x1="11.625" y1="47.2541" x2="11.625" y2="-16.5081"/>
	<line class="st1" x1="13.875" y1="47.3029" x2="13.875" y2="-16.5079"/>
	<line class="st1" x1="16.125" y1="47.0567" x2="16.125" y2="-16.458"/>
	<line class="st1" x1="18.375" y1="47.1063" x2="18.375" y2="-16.4089"/>
	<line class="st1" x1="20.625" y1="47.3529" x2="20.625" y2="-16.6058"/>
	<line class="st1" x1="22.875" y1="47.1558" x2="22.875" y2="-16.5569"/>
	<line class="st1" x1="25.125" y1="47.4511" x2="25.125" y2="-16.5082"/>
	<line class="st1" x1="27.375" y1="47.2541" x2="27.375" y2="-16.3603"/>
	<line class="st1" x1="29.625" y1="47.1063" x2="29.625" y2="-16.5077"/>
	<line class="st1" x1="31.875" y1="47.1558" x2="31.875" y2="-16.508"/>
	<line class="st1" x1="34.125" y1="47.1063" x2="34.125" y2="-16.5077"/>
	<line class="st1" x1="36.375" y1="46.8598" x2="36.375" y2="-16.5566"/>
	<line class="st1" x1="38.625" y1="47.1558" x2="38.625" y2="-16.7536"/>
	<line class="st1" x1="40.875" y1="47.1558" x2="40.875" y2="-16.6058"/>
	<line class="st1" x1="43.125" y1="47.4511" x2="43.125" y2="-16.6062"/>
	<line class="st1" x1="-14.2926" y1="47.1726" x2="-16.4896" y2="45.9041"/>
	<line class="st1" x1="-9.8838" y1="47.1199" x2="-16.5439" y2="43.2746"/>
	<line class="st1" x1="-5.0286" y1="47.3248" x2="-16.5547" y2="40.6703"/>
	<line class="st1" x1="-0.4099" y1="47.3936" x2="-16.607" y2="38.0421"/>
	<line class="st1" x1="3.8647" y1="47.2633" x2="-16.4987" y2="35.5065"/>
	<line class="st1" x1="8.1817" y1="47.1575" x2="-16.4585" y2="32.9315"/>
	<line class="st1" x1="12.7364" y1="47.1893" x2="-16.5287" y2="30.2931"/>
	<line class="st1" x1="17.0493" y1="47.0812" x2="-16.4649" y2="27.7317"/>
	<line class="st1" x1="21.7487" y1="47.1965" x2="-16.5216" y2="25.1011"/>
	<line class="st1" x1="26.2708" y1="47.2091" x2="-16.6454" y2="22.4314"/>
	<line class="st1" x1="30.8011" y1="47.2265" x2="-16.5718" y2="19.8757"/>
	<line class="st1" x1="35.0797" y1="47.0989" x2="-16.5759" y2="17.2755"/>
	<line class="st1" x1="39.7372" y1="47.1897" x2="-16.5939" y2="14.6669"/>
	<line class="st1" x1="44.4278" y1="47.2996" x2="-16.6466" y2="12.0384"/>
	<line class="st1" x1="46.5391" y1="45.9207" x2="-16.5451" y2="9.499"/>
	<line class="st1" x1="46.7575" y1="43.4487" x2="-16.4576" y2="6.9515"/>
	<line class="st1" x1="46.5446" y1="40.7275" x2="-16.5248" y2="4.3145"/>
	<line class="st1" x1="46.5973" y1="38.16" x2="-16.5582" y2="1.6972"/>
	<line class="st1" x1="46.5272" y1="35.5214" x2="-16.4693" y2="-0.8496"/>
	<line class="st1" x1="46.6505" y1="32.9944" x2="-16.4717" y2="-3.4492"/>
	<line class="st1" x1="46.5376" y1="30.3314" x2="-16.4197" y2="-6.017"/>
	<line class="st1" x1="46.4796" y1="27.6997" x2="-16.3754" y2="-8.5896"/>
	<polyline class="st1" points="46.5777,25.1581 -16.1346,-11.0488 -16.5294,-11.2767 	"/>
	<polyline class="st1" points="46.5142,22.5236 -16.248,-13.7121 -17.1105,-14.2101 	"/>
	<polyline class="st1" points="46.5439,19.9426 -14.9996,-15.5896 -16.7609,-16.6065 	"/>
	<line class="st1" x1="46.3527" y1="17.2343" x2="-12.0668" y2="-16.4943"/>
	<line class="st1" x1="46.4824" y1="14.711" x2="-7.5112" y2="-16.4622"/>
	<line class="st1" x1="46.479" y1="12.1109" x2="-3.0123" y2="-16.4629"/>
	<line class="st1" x1="46.4578" y1="9.5007" x2="1.1859" y2="-16.637"/>
	<line class="st1" x1="46.3608" y1="6.8466" x2="5.6507" y2="-16.6575"/>
	<line class="st1" x1="46.5626" y1="4.3649" x2="10.4854" y2="-16.4643"/>
	<line class="st1" x1="46.6047" y1="1.7913" x2="15.0995" y2="-16.3983"/>
	<line class="st1" x1="46.4335" y1="-0.9057" x2="19.5934" y2="-16.4018"/>
	<line class="st1" x1="46.5889" y1="-3.4142" x2="23.9443" y2="-16.488"/>
	<line class="st1" x1="46.3665" y1="-6.1405" x2="28.4468" y2="-16.4864"/>
	<line class="st1" x1="46.5992" y1="-8.6043" x2="33.0984" y2="-16.399"/>
	<line class="st1" x1="46.5865" y1="-11.2098" x2="37.2213" y2="-16.6168"/>
	<line class="st1" x1="46.6046" y1="-13.7973" x2="41.9486" y2="-16.4854"/>
	<path class="st1" d="M-72.75-106.0893"/>
	<path class="st1" d="M-71.625-108.0379"/>
	<path class="st1" d="M-70.5-109.9865"/>
	<path class="st1" d="M-69.375-111.935"/>
	<path class="st1" d="M-68.25-113.8836"/>
	<path class="st1" d="M-67.125-115.8321"/>
	<path class="st1" d="M-66-117.7807"/>
	<path class="st1" d="M-64.875-119.7292"/>
	<path class="st1" d="M-63.75-121.6778"/>
	<path class="st1" d="M46.631,47.1215"/>
	<line class="st1" x1="41.8384" y1="47.2903" x2="46.5346" y2="44.579"/>
	<line class="st1" x1="37.761" y1="47.0465" x2="46.6554" y2="41.9113"/>
	<line class="st1" x1="33.2481" y1="47.0539" x2="46.6394" y2="39.3224"/>
	<line class="st1" x1="28.7471" y1="47.0544" x2="46.5552" y2="36.7729"/>
	<line class="st1" x1="23.9766" y1="47.2107" x2="46.5546" y2="34.1753"/>
	<line class="st1" x1="19.718" y1="47.0712" x2="46.6021" y2="31.5497"/>
	<line class="st1" x1="15.3122" y1="47.0167" x2="46.6066" y2="28.9489"/>
	<line class="st1" x1="10.3988" y1="47.2556" x2="46.5751" y2="26.3692"/>
	<line class="st1" x1="6.1197" y1="47.1279" x2="46.5162" y2="23.805"/>
	<line class="st1" x1="1.2953" y1="47.3154" x2="46.6164" y2="21.1493"/>
	<line class="st1" x1="-3.222" y1="47.3253" x2="46.4154" y2="18.6671"/>
	<line class="st1" x1="-8.0514" y1="47.5153" x2="46.5572" y2="15.9871"/>
	<line class="st1" x1="-11.769" y1="47.0639" x2="46.4405" y2="13.4566"/>
	<line class="st1" x1="-16.6198" y1="47.2663" x2="46.4978" y2="10.8253"/>
	<line class="st1" x1="-16.6252" y1="44.6712" x2="46.5671" y2="8.1872"/>
	<line class="st1" x1="-16.3982" y1="41.9423" x2="46.4768" y2="5.6413"/>
	<line class="st1" x1="-16.5136" y1="39.4107" x2="46.6506" y2="2.9429"/>
	<line class="st1" x1="-16.3672" y1="36.728" x2="46.4811" y2="0.4426"/>
	<line class="st1" x1="-16.4261" y1="34.1641" x2="46.6243" y2="-2.2381"/>
	<line class="st1" x1="-16.5537" y1="31.6396" x2="46.5591" y2="-4.7985"/>
	<line class="st1" x1="-16.6591" y1="29.1023" x2="46.5062" y2="-7.3662"/>
	<line class="st1" x1="-16.5488" y1="26.4407" x2="46.4955" y2="-9.9579"/>
	<line class="st1" x1="-16.5014" y1="23.8152" x2="46.6906" y2="-12.6687"/>
	<line class="st1" x1="-16.6869" y1="21.324" x2="46.6589" y2="-15.2486"/>
	<line class="st1" x1="-16.5222" y1="18.6311" x2="44.3216" y2="-16.497"/>
	<line class="st1" x1="-16.6397" y1="16.1008" x2="40.1155" y2="-16.6668"/>
	<line class="st1" x1="-16.4543" y1="13.3959" x2="35.4976" y2="-16.5986"/>
	<line class="st1" x1="-16.4766" y1="10.8105" x2="31.0105" y2="-16.6061"/>
	<line class="st1" x1="-16.6191" y1="8.2947" x2="26.3737" y2="-16.5272"/>
	<line class="st1" x1="-16.5886" y1="5.6791" x2="21.7039" y2="-16.4291"/>
	<line class="st1" x1="-16.4987" y1="3.0291" x2="17.3446" y2="-16.5104"/>
	<line class="st1" x1="-16.4879" y1="0.4247" x2="12.9603" y2="-16.5772"/>
	<line class="st1" x1="-16.5374" y1="-2.1447" x2="8.4534" y2="-16.5731"/>
	<line class="st1" x1="-16.4468" y1="-4.7952" x2="4.0268" y2="-16.6156"/>
	<polyline class="st1" points="-16.5695,-7.3225 -15.9916,-7.6561 -0.3642,-16.6786 	"/>
	<line class="st1" x1="-16.6918" y1="-9.8497" x2="-5.065" y2="-16.5625"/>
	<line class="st1" x1="-16.2564" y1="-12.6993" x2="-10.0909" y2="-16.259"/>
	<path class="st1" d="M-14.1742-16.4997"/>
</g>
<path class="st2" d="M29.1133,14.9312l-0.6329-0.3703l0.5294-0.3065c0.0146-0.0085,0.0233-0.0222,0.0364-0.0321
	c0.0231-0.0174,0.0449-0.0345,0.0637-0.0563c0.016-0.0187,0.0276-0.0386,0.0398-0.0595c0.0137-0.0233,0.0262-0.0458,0.035-0.0718
	c0.0084-0.0247,0.0115-0.0496,0.015-0.0755c0.0024-0.0179,0.0104-0.0338,0.0104-0.0524l-0.0215-5.2144
	c-0.0003-0.0663-0.0206-0.126-0.0494-0.1808c-0.008-0.0154-0.0184-0.0274-0.0283-0.0417c-0.027-0.0386-0.0591-0.0709-0.0977-0.0979
	c-0.0098-0.0069-0.0143-0.0187-0.0248-0.0248l-7.8926-4.5547c-0.125-0.0713-0.2773-0.0708-0.4004,0.0005L0.4561,15.5264
	c-0.0105,0.0061-0.0151,0.018-0.0249,0.025c-0.0378,0.0267-0.0693,0.0582-0.0959,0.096c-0.0106,0.0151-0.0215,0.028-0.03,0.0444
	c-0.0273,0.0527-0.0457,0.11-0.0469,0.1732c-0.0001,0.002-0.0015,0.0037-0.0015,0.0057c0,0.0003,0.0002,0.0005,0.0002,0.0009
	c0,0.0004-0.0002,0.0007-0.0002,0.0011v5.1938c0,0.0162,0.0073,0.0299,0.0092,0.0456c0.0034,0.0286,0.0074,0.0557,0.0167,0.0829
	c0.0082,0.0239,0.0197,0.0449,0.032,0.0666c0.0127,0.0222,0.0253,0.0432,0.0424,0.0629c0.0187,0.0219,0.0403,0.039,0.0633,0.0564
	c0.0124,0.0093,0.0204,0.0224,0.0341,0.0304l7.8457,4.5986c0.0057,0.0034,0.0126,0.002,0.0184,0.0051
	c0.0557,0.0295,0.1163,0.0506,0.1838,0.0506c0.067,0,0.1273-0.0207,0.1828-0.0499c0.0055-0.0029,0.012-0.0016,0.0174-0.0048
	l5.4898-3.1782l1.0493,0.606c0.063,0.0361,0.1318,0.0537,0.1997,0.0537c0.1382,0,0.2729-0.0723,0.3467-0.2002
	c0.1108-0.1914,0.0449-0.4365-0.146-0.5469l-0.6501-0.3754l3.6796-2.1302l1.0735,0.6199c0.0635,0.0361,0.1318,0.0537,0.2002,0.0537
	c0.1377,0,0.2725-0.0723,0.3467-0.2002c0.1104-0.1914,0.0449-0.4365-0.1465-0.5469l-0.6744-0.3894l3.6316-2.1024l1.1171,0.6451
	c0.0635,0.0361,0.1318,0.0537,0.2002,0.0537c0.1377,0,0.2725-0.0723,0.3467-0.2002c0.1104-0.1914,0.0449-0.4365-0.1465-0.5469
	l-0.7181-0.4146l3.782-2.1895l1.025,0.5997c0.0635,0.0371,0.1328,0.0547,0.2021,0.0547c0.1367,0,0.2705-0.0708,0.3457-0.1978
	C29.3682,15.2876,29.3037,15.0425,29.1133,14.9312z M24.2618,10.8687l-1.4351-0.8656l0.3275-0.1838l1.4611,0.8434L24.2618,10.8687z
	 M25.4113,10.1988l-2.0538-1.1856c-0.0134-0.0077-0.0282-0.0081-0.042-0.0142c-0.0276-0.0122-0.0546-0.0225-0.0841-0.0283
	c-0.0223-0.0042-0.0436-0.0049-0.066-0.0054c-0.0284-0.0007-0.0555,0.0001-0.0837,0.0057
	c-0.0261,0.0051-0.0497,0.0145-0.0743,0.0246c-0.015,0.0063-0.031,0.0067-0.0454,0.015l-0.9224,0.5176l-0.3345-0.2017l1.457-0.811
	l2.5606,1.5017L25.4113,10.1988z M25.8076,12.9971v-2.1035l2.5829-1.5052l0.0176,4.29l-0.7217,0.4179L25.8076,12.9971z
	 M26.516,9.5551L23.3691,7.71c-0.1221-0.0723-0.2725-0.0732-0.3965-0.0044l-2.2598,1.2573
	c-0.125,0.0693-0.2031,0.2002-0.2061,0.3428c-0.002,0.1426,0.0713,0.2759,0.1934,0.3491l2.7737,1.673l-1.4504,0.8453l-3.168-1.8572
	c-0.123-0.0713-0.2734-0.0732-0.3965-0.0044l-2.2598,1.2568c-0.125,0.0693-0.2031,0.1997-0.2056,0.3428
	c-0.0024,0.1426,0.0708,0.2759,0.1929,0.3491l2.7945,1.6859l-1.4504,0.8453l-3.1888-1.87
	c-0.1221-0.0718-0.2729-0.0728-0.3965-0.0044l-2.2603,1.2573c-0.125,0.0693-0.2031,0.1997-0.2056,0.3428
	c-0.0024,0.1426,0.0713,0.2759,0.1934,0.3491l2.8152,1.6982l-1.4504,0.8452l-3.2095-1.8823
	c-0.123-0.0723-0.2729-0.0732-0.3965-0.0044l-2.2603,1.2573c-0.125,0.0693-0.2031,0.2002-0.2056,0.3428s0.0713,0.2754,0.1934,0.3496
	l2.8354,1.7103l-1.4907,0.8688l-4.806-2.8444L23.1731,5.9153l4.8181,2.78L26.516,9.5551z M19.7688,13.487l-1.4652-0.8839
	l0.3527-0.1909l1.5257,0.8341L19.7688,13.487z M20.9889,12.776l-2.1403-1.17c-0.012-0.0067-0.0254-0.0066-0.0378-0.0118
	c-0.0253-0.0107-0.0502-0.0188-0.0772-0.0241c-0.0262-0.0052-0.0513-0.0076-0.0776-0.0074
	c-0.0237,0.0001-0.0464,0.0021-0.0701,0.0064c-0.0289,0.0053-0.0555,0.0137-0.0826,0.0253
	c-0.012,0.0051-0.0249,0.0049-0.0366,0.0112l-0.9577,0.5183l-0.3177-0.1917l1.457-0.8105l2.5817,1.5138L20.9889,12.776z
	 M15.2762,16.1052l-1.4692-0.8859l0.3625-0.2093l1.5025,0.8644L15.2762,16.1052z M16.4684,15.4104l-2.0992-1.2087
	c-0.0149-0.0085-0.0313-0.0092-0.0468-0.0156c-0.0258-0.0109-0.0506-0.0207-0.0781-0.0259
	c-0.0252-0.0048-0.0494-0.0053-0.0747-0.0052c-0.0257-0.0001-0.0503,0.0004-0.0759,0.0054
	c-0.0274,0.0053-0.0521,0.0153-0.0778,0.0261c-0.0154,0.0065-0.0319,0.0071-0.0467,0.0157l-0.9447,0.5453l-0.3473-0.2094
	l1.457-0.811l2.603,1.5266L16.4684,15.4104z M10.7828,18.7237l-1.5056-0.9083l0.348-0.189l1.567,0.8586L10.7828,18.7237z
	 M11.9989,18.015l-2.1805-1.1947c-0.0123-0.0067-0.0259-0.0067-0.0386-0.012c-0.0267-0.0114-0.0529-0.0198-0.0813-0.0252
	c-0.0228-0.0043-0.0447-0.0063-0.0676-0.0065c-0.0282-0.0004-0.0551,0.002-0.0831,0.0076
	c-0.0245,0.0049-0.0469,0.0125-0.0701,0.0219c-0.014,0.0057-0.0291,0.0057-0.0426,0.0132l-0.9521,0.5168l-0.3193-0.1926
	l1.457-0.8105l2.6245,1.5385L11.9989,18.015z M1.0566,16.5739l1.4502,0.8582v4.2554l-1.4502-0.8499V16.5739z M3.3066,17.9053
	l4.7959,2.8379v4.2237l-4.7959-2.8107V17.9053z M20.8955,4.6011l1.4784,0.853L2.9092,16.7406L1.4482,15.876L20.8955,4.6011z
	 M8.9023,24.9715v-4.226l2.063-1.2023c0.0067-0.0035,0.0124-0.0071,0.0189-0.011l0.4611-0.2687v3.0968
	c0,0.2207,0.1792,0.4004,0.3999,0.4004s0.3999-0.1797,0.3999-0.4004v-0.6525l1.1486,0.6633L8.9023,24.9715z M14.1932,21.9083
	l-1.9481-1.125v-1.9858l3.7617-2.1922v3.0969c0,0.2207,0.1797,0.4004,0.4004,0.4004s0.4004-0.1797,0.4004-0.4004v-0.5389
	l1.0649,0.6149L14.1932,21.9083z M18.6721,19.3152l-1.8645-1.0766v-2.1l3.6992-2.1558v3.0612c0,0.2207,0.1797,0.4004,0.4004,0.4004
	s0.4004-0.1797,0.4004-0.4004v-0.4064l0.996,0.5752L18.6721,19.3152z M23.103,16.75l-1.7953-1.0366v-2.1972l3.6992-2.1558v3.0781
	c0,0.2207,0.1797,0.3999,0.4004,0.3999s0.4004-0.1792,0.4004-0.3999v-0.5144l1.0825,0.6333L23.103,16.75z"/>
</svg>
