<svg xmlns="http://www.w3.org/2000/svg" width="60" height="60" viewBox="0 0 60 60">
  <path fill="#231F20" d="M57.6180293,28.5553966 L56.3981734,27.8422071 L57.4185427,27.251895 C57.4466828,27.2355242 57.4634513,27.2091383 57.4887003,27.1900711 C57.5332234,27.1565591 57.5752409,27.1236249 57.6114761,27.0816386 C57.6423146,27.0456228 57.6646725,27.0072959 57.6881869,26.9670429 C57.7145924,26.9221677 57.738685,26.8788332 57.7556462,26.8287578 C57.7718364,26.7811861 57.7778113,26.7332293 57.7845573,26.6833465 C57.789183,26.6488715 57.8046023,26.6182484 57.8046023,26.5824252 L57.763163,16.5396084 C57.7625848,16.4119161 57.7234585,16.2969352 57.6679491,16.1913917 C57.6525299,16.1617316 57.6324848,16.1386199 57.6134035,16.1110784 C57.5613635,16.0367357 57.4994938,15.9745266 57.4250958,15.9225252 C57.4062073,15.909236 57.3975339,15.8865094 57.3772962,15.874761 L42.1650431,7.10251142 C41.9241173,6.96518922 41.6305732,6.96615221 41.3933093,7.10347441 L2.38393949,29.7017383 C2.36370171,29.7134868 2.35483564,29.7364059 2.33594705,29.7498878 C2.26309106,29.8013114 2.20237774,29.8619797 2.15110871,29.9347816 C2.1306782,29.9638639 2.10966946,29.988709 2.0932865,30.020295 C2.04066829,30.121794 2.005204,30.2321525 2.00289111,30.3538743 C2.00269837,30.3577263 2,30.3610004 2,30.3648524 C2,30.3654302 2.00038548,30.3658154 2.00038548,30.3665858 C2.00038548,30.3673562 2,30.3679339 2,30.3687043 L2,40.3718461 C2,40.4030469 2.01407007,40.4294328 2.01773215,40.4596706 C2.02428533,40.5147536 2.03199496,40.5669476 2.04991984,40.6193342 C2.06572458,40.665365 2.08788976,40.7058106 2.11159687,40.7476043 C2.13607494,40.790361 2.16036027,40.8308065 2.19331893,40.8687483 C2.22936144,40.9109272 2.27099343,40.9438614 2.3153238,40.9773734 C2.33922364,40.995285 2.3546429,41.0205153 2.38104838,41.0359231 L17.502906,49.8927231 C17.5138922,49.8992714 17.5271913,49.896575 17.5383703,49.9025455 C17.6457269,49.9593619 17.7625277,50 17.8926277,50 C18.021764,50 18.1379866,49.9601323 18.2449577,49.9038937 C18.2555585,49.8983084 18.2680866,49.9008122 18.2784946,49.894649 L28.8595739,43.7735075 L30.8820022,44.9406498 C31.0034288,45.0101776 31.1360344,45.0440748 31.2669054,45.0440748 C31.533273,45.0440748 31.7928947,44.9048266 31.9351374,44.6584941 C32.1486941,44.289862 32.021678,43.8178049 31.653736,43.605177 L30.4007286,42.8821651 L37.4928157,38.7794479 L39.5618871,39.9733613 C39.6842775,40.0428891 39.8159194,40.0767863 39.947754,40.0767863 C40.213158,40.0767863 40.4729725,39.9375382 40.6159861,39.6912056 C40.8287718,39.3225736 40.7025267,38.8505165 40.3336209,38.6378886 L39.0337776,37.8879129 L46.0333491,33.8387379 L48.1864556,35.081186 C48.3088459,35.1507138 48.4404878,35.184611 48.5723224,35.184611 C48.8377264,35.184611 49.0975409,35.0453628 49.2405545,34.7990303 C49.4533402,34.4303982 49.3270951,33.9583411 48.9581893,33.7457132 L47.5741183,32.947203 L54.8635719,28.7302753 L56.8391641,29.885284 C56.9615544,29.9567378 57.0951238,29.990635 57.2286931,29.990635 C57.4921696,29.990635 57.7500567,29.8542758 57.8949977,29.6096766 C58.1093254,29.2418149 57.9850076,28.7697579 57.6180293,28.5553966 Z M48.2672139,20.7311131 L45.501192,19.063987 L46.1324178,18.7099924 L48.9485523,20.3343618 L48.2672139,20.7311131 Z M50.4827683,19.4409008 L46.5242597,17.1574619 C46.4984324,17.1426319 46.4699068,17.1418615 46.4433086,17.1301131 C46.3901122,17.1066161 46.3380722,17.0867786 46.2812137,17.0756079 C46.2382325,17.0675188 46.1971787,17.0661706 46.1540048,17.0652076 C46.0992664,17.0638594 46.0470337,17.0654002 45.9926808,17.0761857 C45.9423755,17.0860082 45.8968887,17.1041124 45.8494745,17.1235647 C45.8205634,17.1356984 45.7897249,17.1364688 45.7619702,17.1524544 L43.9841299,18.1493403 L43.3394123,17.7608707 L46.1476444,16.198903 L51.0829629,19.0911433 L50.4827683,19.4409008 Z M51.2465998,24.8303636 L51.2465998,20.77907 L56.2248995,17.8800887 L56.2588218,26.142532 L54.8678122,26.947398 L51.2465998,24.8303636 Z M52.6119749,18.2011491 L46.5466176,14.6475281 C46.3112812,14.5082799 46.0213992,14.5065466 45.7824007,14.6390538 L41.4268462,17.0605853 C41.1859203,17.1940555 41.0353899,17.446166 41.0296076,17.7208104 C41.0257528,17.9954547 41.1670318,18.2521875 41.4023682,18.3931691 L46.7484171,21.6153294 L43.9529059,23.2433581 L37.8468803,19.6664328 C37.6098093,19.5291106 37.3199272,19.5254512 37.0826634,19.6579585 L32.7271089,22.078527 C32.4861831,22.2119972 32.3356526,22.4631447 32.3308341,22.738752 C32.3262083,23.0133964 32.4672945,23.2701292 32.7026309,23.4111108 L38.0887699,26.6581162 L35.2932587,28.2861449 L29.1471431,24.6845671 C28.9118067,24.5462819 28.6211537,24.5443559 28.3829262,24.6760928 L24.026408,27.0976242 C23.7854821,27.2310945 23.6349516,27.4822419 23.6301331,27.7578493 C23.6255073,28.0324937 23.7675572,28.2892265 24.0028936,28.430208 L29.42893,31.7009029 L26.6334188,33.3287391 L20.4474058,29.7034717 C20.2103347,29.5642236 19.9214164,29.5624902 19.6831889,29.6949974 L15.3266707,32.1165289 C15.0857448,32.2499991 14.9352143,32.5021096 14.9303958,32.776754 C14.9255773,33.0513983 15.0678199,33.3071682 15.3031563,33.4500757 L20.7681263,36.7440749 L17.8949406,38.4173641 L8.63182224,32.9391139 L46.1688458,11.1909764 L55.4552858,16.5451937 L52.6119749,18.2011491 Z M39.607374,25.7738999 L36.7833371,24.0715284 L37.4631336,23.7038593 L40.4037786,25.3103171 L39.607374,25.7738999 Z M41.9590033,24.4045299 L37.833774,22.1511363 C37.8106451,22.1382323 37.7848178,22.1384249 37.760918,22.1284098 C37.7121546,22.1078018 37.6641622,22.0922014 37.6121222,22.0819937 C37.5616241,22.0719786 37.5132462,22.0673563 37.4625554,22.0677415 C37.4168758,22.0679341 37.3731237,22.071786 37.3274441,22.0800677 C37.2717421,22.0902754 37.220473,22.1064536 37.1682403,22.128795 C37.1451114,22.1386175 37.1202479,22.1382323 37.0976972,22.1503659 L35.2518195,23.1486 L34.6394822,22.7793902 L37.4477143,21.2183854 L42.4237012,24.1339301 L41.9590033,24.4045299 Z M30.948305,30.8164941 L28.1165585,29.1102707 L28.8152436,28.7071636 L31.7111727,30.3719785 L30.948305,30.8164941 Z M33.2461597,29.478325 L29.2001468,27.150396 C29.1714284,27.1340252 29.1398189,27.132677 29.1099441,27.1203508 C29.060217,27.0993576 29.0124173,27.080483 28.9594136,27.0704679 C28.910843,27.0612232 28.8641997,27.0602603 28.8154363,27.0604529 C28.7659019,27.0602603 28.7184877,27.0612232 28.6691461,27.0708531 C28.6163352,27.0810608 28.5687282,27.1003206 28.5191938,27.1211211 C28.4895118,27.13364 28.4577096,27.1347956 28.4291839,27.151359 L26.6083625,28.2015945 L25.938974,27.7982948 L28.7472061,26.2363271 L33.7642467,29.1765243 L33.2461597,29.478325 Z M22.287694,35.8596661 L19.38579,34.1103008 L20.0565276,33.746291 L23.0767745,35.3999353 L22.287694,35.8596661 Z M24.6316138,34.4947259 L20.4289027,32.1937606 C20.4051956,32.1808565 20.3789828,32.1808565 20.3545048,32.1706489 C20.303043,32.1486927 20.2525449,32.1325145 20.1978066,32.1221142 C20.1538617,32.1138325 20.1116515,32.1099806 20.0675138,32.1095954 C20.013161,32.108825 19.9613137,32.1134473 19.9073463,32.1242328 C19.8601248,32.1336701 19.8169509,32.1483075 19.7722351,32.1664117 C19.7452514,32.1773898 19.7161475,32.1773898 19.6901275,32.1918346 L17.8550433,33.1871798 L17.2396222,32.8162365 L20.0478543,31.2552318 L25.1063341,34.2183481 L24.6316138,34.4947259 Z M3.54134743,31.7191997 L6.33647316,33.3720736 L6.33647316,41.5678781 L3.54134743,39.9309898 L3.54134743,31.7191997 Z M7.87801333,34.2834461 L17.1216649,39.7491776 L17.1216649,47.8839286 L7.87801333,42.4705837 L7.87801333,34.2834461 Z M41.7789835,8.65985679 L44.6284621,10.3027156 L7.11206176,32.0402602 L4.29612004,30.3750601 L41.7789835,8.65985679 Z M18.6632051,47.8927881 L18.6632051,39.7536073 L22.6394458,37.4380046 C22.6523595,37.4312637 22.6633457,37.4243302 22.6758738,37.4168189 L23.5646012,36.8993087 L23.5646012,42.8636757 C23.5646012,43.2887389 23.9099926,43.6348371 24.3353713,43.6348371 C24.7607501,43.6348371 25.1061414,43.2887389 25.1061414,42.8636757 L25.1061414,41.6069754 L27.3199612,42.8844763 L18.6632051,47.8927881 Z M28.8609231,41.9931339 L25.1061414,39.8264093 L25.1061414,36.0018032 L32.3564686,31.7796754 L32.3564686,37.744235 C32.3564686,38.1692983 32.7028236,38.5153964 33.1282024,38.5153964 C33.5535811,38.5153964 33.8999361,38.1692983 33.8999361,37.744235 L33.8999361,36.7063258 L35.9524319,37.8906093 L28.8609231,41.9931339 Z M37.4935866,36.9988817 L33.8999361,34.9253744 L33.8999361,30.8808217 L41.0298004,26.7287995 L41.0298004,32.6246017 C41.0298004,33.049665 41.3761554,33.3957631 41.8015342,33.3957631 C42.2269129,33.3957631 42.573268,33.049665 42.573268,32.6246017 L42.573268,31.8418845 L44.4929654,32.9497067 L37.4935866,36.9988817 Z M46.0337346,32.0583644 L42.5734607,30.0618961 L42.5734607,25.8301385 L49.7033249,21.6781162 L49.7033249,27.6064675 C49.7033249,28.0315307 50.04968,28.3766659 50.4750587,28.3766659 C50.9004374,28.3766659 51.2467925,28.0315307 51.2467925,27.6064675 L51.2467925,26.6157447 L53.3332106,27.8354662 L46.0337346,32.0583644 Z"/>
</svg>
