<svg xmlns="http://www.w3.org/2000/svg" width="60" height="60" viewBox="0 0 60 60">
  <path fill="#231F20" d="M48.9910182,40.109108 C48.9918171,40.0942905 48.9996065,40.0816757 48.9996065,40.066658 L48.9996065,39.996175 C48.9988076,39.9861632 49.0008049,39.9765518 48.9996065,39.9665401 L48.9996065,7.21136499 C48.9996065,7.07880888 48.959661,6.9592681 48.9025389,6.8491384 C48.886361,6.81790162 48.8655893,6.79367308 48.8456165,6.76483913 C48.7908912,6.68594622 48.7255803,6.62046911 48.6468876,6.56560449 C48.6283129,6.55258917 48.6197247,6.52976228 48.5997519,6.51834884 L39.2531003,1.10857787 C39.0034408,0.963807377 38.7030505,0.963807377 38.453391,1.10857787 L10.398856,17.3473019 C10.3788832,17.3589155 10.3700952,17.3821429 10.3513208,17.3951582 C10.2734271,17.4496224 10.2087153,17.514699 10.1543894,17.592791 C10.1342169,17.6220254 10.1130458,17.6468546 10.0968679,17.6784919 C10.0399455,17.7886216 10,17.9081624 10,18.0405183 L10,50.895611 C10,50.9502754 10.0205719,50.9979315 10.0309578,51.0495923 C10.0363504,51.0766242 10.0389469,51.1026548 10.0471357,51.1288857 C10.0699047,51.2023723 10.1036586,51.2672487 10.1454017,51.3301227 C10.1609804,51.3537505 10.1739627,51.3771781 10.1919382,51.3992041 C10.2398728,51.4576729 10.296196,51.5037272 10.3589105,51.5463774 C10.3772854,51.5589922 10.3880707,51.5782149 10.4078437,51.5894281 L19.5995068,56.8924734 C19.6070964,56.8968786 19.6162839,56.8950764 19.6240733,56.8990812 C19.7353215,56.9581507 19.8561567,57 19.9905734,57 C19.9921712,57 19.9933696,56.9991991 19.9949674,56.9991991 C19.995966,56.9991991 19.9973641,57 19.9983627,57 C20.006951,57 20.0147404,56.9935925 20.0233287,56.993192 C20.1391707,56.9881861 20.2462247,56.9573498 20.3440912,56.9076913 C20.3600694,56.8998821 20.3786441,56.9032861 20.3942228,56.8942755 L48.6037464,40.7620769 C48.6446906,40.7386494 48.6708549,40.7016057 48.706007,40.6725715 C48.7331699,40.6497447 48.7605326,40.6301215 48.7843002,40.6038907 C48.8358299,40.5482251 48.8741776,40.4873534 48.9077318,40.4208751 C48.9195158,40.3974475 48.9326978,40.3758221 48.942085,40.3509928 C48.9722438,40.2731011 48.9862248,40.193207 48.9910182,40.109108 Z M11.5974212,19.4255494 L19.1914633,23.8061083 L19.1914633,54.80922 L11.5974212,50.4276599 L11.5974212,19.4255494 L11.5974212,19.4255494 Z M20.7890842,23.8085111 L47.400188,8.59118998 L47.400188,39.6057151 L20.7890842,54.8246381 L20.7890842,23.8085111 Z M38.8532456,2.72668348 L46.5946867,7.20756051 L19.9923709,22.4198757 L12.3981291,18.0395171 L38.8532456,2.72668348 Z M44.2950233,29.8630414 C44.0727265,29.265738 43.6922455,28.8452427 43.2242838,28.679047 C42.2056731,28.3154188 39.1907852,29.307387 37.1543628,30.0604739 C36.9458472,29.7410978 36.6692245,29.4881999 36.3490612,29.3019806 C36.7441224,27.81543 37.7763145,23.9216443 37.9209173,23.2498532 C38.0828964,22.5019724 38.0924833,20.8750564 36.9788023,20.0693075 C36.1185756,19.4435706 34.9523662,19.5561031 33.5207189,20.4037013 C30.3140926,22.3005352 30.4273381,24.4044129 30.7920407,25.8222827 C31.0918318,26.9902582 31.9616454,29.7120636 32.2880003,30.722053 C32.1829436,30.8770355 32.0778869,31.0320181 31.9878097,31.2046213 C31.6930118,31.7712887 31.5649865,32.3683919 31.5170518,32.9584868 C29.9459947,33.7223865 25.5068494,36.0092797 24.6334407,37.8764786 C23.512969,40.2718997 25.3550565,42.7083691 26.2775982,43.2754369 C26.6726593,43.5159201 27.1679837,43.7485941 27.7559817,43.7485941 C28.4416465,43.7485941 29.25294,43.431821 30.1716868,42.4384512 C31.3147278,41.2059997 32.9844504,37.5829329 33.6491438,36.0847686 C33.7448133,36.0959818 33.8392844,36.1184082 33.9361523,36.1184082 C34.5159615,36.1184082 35.110151,35.913567 35.6526111,35.5467349 L36.1499328,35.9013526 C36.3488615,36.0441207 36.5693607,36.2143212 36.7916575,36.3843214 C37.2618163,36.7461475 37.7395646,37.1039689 38.1765686,37.3386452 C38.6778848,37.6065608 39.2395188,37.9097178 39.7604083,37.9097178 C39.8169312,37.9097178 39.8754514,37.9057131 39.9301768,37.8979039 C40.6264271,37.8019909 42.0211248,37.2389278 43.5326631,34.5385476 C44.8918093,32.1098874 44.5193174,30.4603448 44.2950233,29.8630414 Z M34.3320124,21.784127 C35.121935,21.3177778 35.7578676,21.1651981 36.0444767,21.3676365 C36.3644402,21.6003105 36.4754888,22.3746224 36.3604457,22.9114547 C36.234817,23.4915378 35.3246584,26.936595 34.7702147,29.0172453 C34.359375,29.0777165 33.9519308,29.2306967 33.564659,29.4707794 C33.1683995,28.227315 32.5682181,26.3134611 32.3405287,25.4222115 C32.0734929,24.3887945 31.9856127,23.1705598 34.3320124,21.784127 Z M29.0004843,41.3473662 C27.9882649,42.4444583 27.5414743,42.1687335 27.1114608,41.9086272 C26.6970261,41.6543277 25.3989965,40.0137957 26.0806668,38.5570802 C26.5450334,37.5635101 29.4269027,35.8090439 31.740547,34.6368634 C31.8635792,34.9131888 32.0237607,35.1582775 32.2196935,35.3671234 C31.4551363,37.0887509 29.8970614,40.3810282 29.0004843,41.3473662 Z M33.5636604,34.4270163 C33.2125393,34.2431998 33.1052856,33.8189001 33.0721308,33.580219 C33.0018267,33.0796295 33.1228616,32.4851294 33.4036786,31.9474962 C33.5189214,31.7264359 33.6515405,31.5320069 33.7937465,31.3636086 C33.7961433,31.360605 33.7987397,31.3574013 33.8011365,31.3543977 C34.2327478,30.8467999 34.7542365,30.5826889 35.1688709,30.5826889 C35.30149,30.5826889 35.4243225,30.6101212 35.5277814,30.6647856 C35.8789025,30.8486021 35.9861562,31.2739029 36.019311,31.5105817 C36.0896151,32.0121724 35.9685802,32.6066725 35.6877632,33.1443057 C35.1103508,34.2530114 34.0979316,34.7105502 33.5636604,34.4270163 Z M42.139763,33.7562263 C40.8289509,36.0949806 39.8245209,36.2944155 39.7699952,36.3080315 C39.6080162,36.2904108 39.1516386,36.0441207 38.8025148,35.8562995 C38.5430687,35.7175361 38.1530007,35.4123767 37.7629328,35.1132244 C37.5268548,34.9314103 37.2909765,34.7495962 37.0802639,34.5990188 L36.7710856,34.3781587 C36.882933,34.2151668 37.008362,34.0699958 37.1038317,33.8871805 C37.4869092,33.1515141 37.6305134,32.3585803 37.591167,31.6082967 C39.7230593,30.8259754 42.1585374,30.1193432 42.6530629,30.1698027 C42.8731627,30.3392021 43.3081693,31.6649635 42.139763,33.7562263 Z M41.3206802,17.9868551 C38.5530551,16.533944 35.1904415,16.6658994 31.8549909,18.354488 C28.6054231,19.9990247 25.7549111,22.9390872 23.8249435,26.6348396 C19.7972371,34.3509267 21.0904732,43.0271445 26.7086103,45.9760173 C27.985269,46.6448049 29.3757724,46.9635803 30.8114143,46.961578 C35.6953528,46.961578 41.0923916,43.2892531 44.2053456,37.3272318 C48.2330521,29.6097431 46.9380184,20.9345265 41.3206802,17.9868551 Z M42.7892771,36.5839565 C39.1692147,43.5199248 32.2917951,47.0943343 27.4497994,44.5561451 C22.6115984,42.017956 21.6207499,34.3116805 25.2408123,27.3777145 C27.01679,23.9763087 29.6216371,21.279733 32.5746094,19.7847724 C34.1446679,18.9898362 35.7089343,18.5899653 37.1797282,18.5899653 C38.3908763,18.5899653 39.5417066,18.8616853 40.5792914,19.4063267 C45.4164937,21.9445159 46.4093395,29.6499905 42.7892771,36.5839565 Z"/>
</svg>
