<?xml version="1.0" encoding="utf-8"?>
<!-- Generator: Adobe Illustrator 21.0.0, SVG Export Plug-In . SVG Version: 6.00 Build 0)  -->
<svg version="1.1" id="Layer_1" xmlns="http://www.w3.org/2000/svg" xmlns:xlink="http://www.w3.org/1999/xlink" x="0px" y="0px"
	 viewBox="0 0 30 30" style="enable-background:new 0 0 30 30;" xml:space="preserve">
<style type="text/css">
	.st0{display:none;opacity:0.2;}
	.st1{display:inline;fill:none;stroke:#00ADEE;stroke-width:0.125;stroke-miterlimit:10;}
	.st2{fill:#231F20;}
</style>
<g class="st0">
	<path class="st1" d="M-15.375-16.557"/>
	<line class="st1" x1="-13.125" y1="47.1558" x2="-13.125" y2="-16.3603"/>
	<line class="st1" x1="-10.875" y1="47.3529" x2="-10.875" y2="-16.5568"/>
	<line class="st1" x1="-8.625" y1="46.959" x2="-8.625" y2="-16.3109"/>
	<line class="st1" x1="-6.375" y1="47.746" x2="-6.375" y2="-16.6546"/>
	<line class="st1" x1="-4.125" y1="47.3529" x2="-4.125" y2="-16.5079"/>
	<line class="st1" x1="-1.875" y1="47.4999" x2="-1.875" y2="-16.6061"/>
	<line class="st1" x1="0.375" y1="47.3529" x2="0.375" y2="-16.5568"/>
	<line class="st1" x1="2.625" y1="47.4999" x2="2.625" y2="-16.9021"/>
	<line class="st1" x1="4.875" y1="47.1558" x2="4.875" y2="-16.6547"/>
	<line class="st1" x1="7.125" y1="47.3029" x2="7.125" y2="-16.8517"/>
	<line class="st1" x1="9.375" y1="47.1063" x2="9.375" y2="-16.4577"/>
	<line class="st1" x1="11.625" y1="47.2541" x2="11.625" y2="-16.5081"/>
	<line class="st1" x1="13.875" y1="47.3029" x2="13.875" y2="-16.5079"/>
	<line class="st1" x1="16.125" y1="47.0567" x2="16.125" y2="-16.458"/>
	<line class="st1" x1="18.375" y1="47.1063" x2="18.375" y2="-16.4089"/>
	<line class="st1" x1="20.625" y1="47.3529" x2="20.625" y2="-16.6058"/>
	<line class="st1" x1="22.875" y1="47.1558" x2="22.875" y2="-16.5569"/>
	<line class="st1" x1="25.125" y1="47.4511" x2="25.125" y2="-16.5082"/>
	<line class="st1" x1="27.375" y1="47.2541" x2="27.375" y2="-16.3603"/>
	<line class="st1" x1="29.625" y1="47.1063" x2="29.625" y2="-16.5077"/>
	<line class="st1" x1="31.875" y1="47.1558" x2="31.875" y2="-16.508"/>
	<line class="st1" x1="34.125" y1="47.1063" x2="34.125" y2="-16.5077"/>
	<line class="st1" x1="36.375" y1="46.8598" x2="36.375" y2="-16.5566"/>
	<line class="st1" x1="38.625" y1="47.1558" x2="38.625" y2="-16.7536"/>
	<line class="st1" x1="40.875" y1="47.1558" x2="40.875" y2="-16.6058"/>
	<line class="st1" x1="43.125" y1="47.4511" x2="43.125" y2="-16.6062"/>
	<line class="st1" x1="-14.2926" y1="47.1726" x2="-16.4896" y2="45.9041"/>
	<line class="st1" x1="-9.8838" y1="47.1199" x2="-16.5439" y2="43.2746"/>
	<line class="st1" x1="-5.0286" y1="47.3248" x2="-16.5547" y2="40.6703"/>
	<line class="st1" x1="-0.4099" y1="47.3936" x2="-16.607" y2="38.0421"/>
	<line class="st1" x1="3.8647" y1="47.2633" x2="-16.4987" y2="35.5065"/>
	<line class="st1" x1="8.1817" y1="47.1575" x2="-16.4585" y2="32.9315"/>
	<line class="st1" x1="12.7364" y1="47.1893" x2="-16.5287" y2="30.2931"/>
	<line class="st1" x1="17.0493" y1="47.0812" x2="-16.4649" y2="27.7317"/>
	<line class="st1" x1="21.7487" y1="47.1965" x2="-16.5216" y2="25.1011"/>
	<line class="st1" x1="26.2708" y1="47.2091" x2="-16.6454" y2="22.4314"/>
	<line class="st1" x1="30.8011" y1="47.2265" x2="-16.5718" y2="19.8757"/>
	<line class="st1" x1="35.0797" y1="47.0989" x2="-16.5759" y2="17.2755"/>
	<line class="st1" x1="39.7372" y1="47.1897" x2="-16.5939" y2="14.6669"/>
	<line class="st1" x1="44.4278" y1="47.2996" x2="-16.6466" y2="12.0384"/>
	<line class="st1" x1="46.5391" y1="45.9207" x2="-16.5451" y2="9.499"/>
	<line class="st1" x1="46.7575" y1="43.4487" x2="-16.4576" y2="6.9515"/>
	<line class="st1" x1="46.5446" y1="40.7275" x2="-16.5248" y2="4.3145"/>
	<line class="st1" x1="46.5973" y1="38.16" x2="-16.5582" y2="1.6972"/>
	<line class="st1" x1="46.5272" y1="35.5214" x2="-16.4693" y2="-0.8496"/>
	<line class="st1" x1="46.6505" y1="32.9944" x2="-16.4717" y2="-3.4492"/>
	<line class="st1" x1="46.5376" y1="30.3314" x2="-16.4197" y2="-6.017"/>
	<line class="st1" x1="46.4796" y1="27.6997" x2="-16.3754" y2="-8.5896"/>
	<polyline class="st1" points="46.5777,25.1581 -16.1346,-11.0488 -16.5294,-11.2767 	"/>
	<polyline class="st1" points="46.5142,22.5236 -16.248,-13.7121 -17.1105,-14.2101 	"/>
	<polyline class="st1" points="46.5439,19.9426 -14.9996,-15.5896 -16.7609,-16.6065 	"/>
	<line class="st1" x1="46.3527" y1="17.2343" x2="-12.0668" y2="-16.4943"/>
	<line class="st1" x1="46.4824" y1="14.711" x2="-7.5112" y2="-16.4622"/>
	<line class="st1" x1="46.479" y1="12.1109" x2="-3.0123" y2="-16.4629"/>
	<line class="st1" x1="46.4578" y1="9.5007" x2="1.1859" y2="-16.637"/>
	<line class="st1" x1="46.3608" y1="6.8466" x2="5.6507" y2="-16.6575"/>
	<line class="st1" x1="46.5626" y1="4.3649" x2="10.4854" y2="-16.4643"/>
	<line class="st1" x1="46.6047" y1="1.7913" x2="15.0995" y2="-16.3983"/>
	<line class="st1" x1="46.4335" y1="-0.9057" x2="19.5934" y2="-16.4018"/>
	<line class="st1" x1="46.5889" y1="-3.4142" x2="23.9443" y2="-16.488"/>
	<line class="st1" x1="46.3665" y1="-6.1405" x2="28.4468" y2="-16.4864"/>
	<line class="st1" x1="46.5992" y1="-8.6043" x2="33.0984" y2="-16.399"/>
	<line class="st1" x1="46.5865" y1="-11.2098" x2="37.2213" y2="-16.6168"/>
	<line class="st1" x1="46.6046" y1="-13.7973" x2="41.9486" y2="-16.4854"/>
	<path class="st1" d="M46.5364-16.4349"/>
	<path class="st1" d="M-72.75-106.0893"/>
	<path class="st1" d="M-71.625-108.0379"/>
	<path class="st1" d="M-70.5-109.9865"/>
	<path class="st1" d="M-69.375-111.935"/>
	<path class="st1" d="M-68.25-113.8836"/>
	<path class="st1" d="M-67.125-115.8321"/>
	<path class="st1" d="M-66-117.7807"/>
	<path class="st1" d="M-64.875-119.7292"/>
	<path class="st1" d="M-63.75-121.6778"/>
	<path class="st1" d="M46.631,47.1215"/>
	<line class="st1" x1="41.8384" y1="47.2903" x2="46.5346" y2="44.579"/>
	<line class="st1" x1="37.761" y1="47.0465" x2="46.6554" y2="41.9113"/>
	<line class="st1" x1="33.2481" y1="47.0539" x2="46.6394" y2="39.3224"/>
	<line class="st1" x1="28.7471" y1="47.0544" x2="46.5552" y2="36.7729"/>
	<line class="st1" x1="23.9766" y1="47.2107" x2="46.5546" y2="34.1753"/>
	<line class="st1" x1="19.718" y1="47.0712" x2="46.6021" y2="31.5497"/>
	<line class="st1" x1="15.3122" y1="47.0167" x2="46.6066" y2="28.9489"/>
	<line class="st1" x1="10.3988" y1="47.2556" x2="46.5751" y2="26.3692"/>
	<line class="st1" x1="6.1197" y1="47.1279" x2="46.5162" y2="23.805"/>
	<line class="st1" x1="1.2953" y1="47.3154" x2="46.6164" y2="21.1493"/>
	<line class="st1" x1="-3.222" y1="47.3253" x2="46.4154" y2="18.6671"/>
	<line class="st1" x1="-8.0514" y1="47.5153" x2="46.5572" y2="15.9871"/>
	<line class="st1" x1="-11.769" y1="47.0639" x2="46.4405" y2="13.4566"/>
	<line class="st1" x1="-16.6198" y1="47.2663" x2="46.4978" y2="10.8253"/>
	<line class="st1" x1="-16.6252" y1="44.6712" x2="46.5671" y2="8.1872"/>
	<line class="st1" x1="-16.3982" y1="41.9423" x2="46.4768" y2="5.6413"/>
	<line class="st1" x1="-16.5136" y1="39.4107" x2="46.6506" y2="2.9429"/>
	<line class="st1" x1="-16.3672" y1="36.728" x2="46.4811" y2="0.4426"/>
	<line class="st1" x1="-16.4261" y1="34.1641" x2="46.6243" y2="-2.2381"/>
	<line class="st1" x1="-16.5537" y1="31.6396" x2="46.5591" y2="-4.7985"/>
	<line class="st1" x1="-16.6591" y1="29.1023" x2="46.5062" y2="-7.3662"/>
	<line class="st1" x1="-16.5488" y1="26.4407" x2="46.4955" y2="-9.9579"/>
	<line class="st1" x1="-16.5014" y1="23.8152" x2="46.6906" y2="-12.6687"/>
	<line class="st1" x1="-16.6869" y1="21.324" x2="46.6589" y2="-15.2486"/>
	<line class="st1" x1="-16.5222" y1="18.6311" x2="44.3216" y2="-16.497"/>
	<line class="st1" x1="-16.6397" y1="16.1008" x2="40.1155" y2="-16.6668"/>
	<line class="st1" x1="-16.4543" y1="13.3959" x2="35.4976" y2="-16.5986"/>
	<line class="st1" x1="-16.4766" y1="10.8105" x2="31.0105" y2="-16.6061"/>
	<line class="st1" x1="-16.6191" y1="8.2947" x2="26.3737" y2="-16.5272"/>
	<line class="st1" x1="-16.5886" y1="5.6791" x2="21.7039" y2="-16.4291"/>
	<line class="st1" x1="-16.4987" y1="3.0291" x2="17.3446" y2="-16.5104"/>
	<line class="st1" x1="-16.4879" y1="0.4247" x2="12.9603" y2="-16.5772"/>
	<line class="st1" x1="-16.5374" y1="-2.1447" x2="8.4534" y2="-16.5731"/>
	<line class="st1" x1="-16.4468" y1="-4.7952" x2="4.0268" y2="-16.6156"/>
	<polyline class="st1" points="-16.5695,-7.3225 -15.9916,-7.6561 -0.3642,-16.6786 	"/>
	<line class="st1" x1="-16.6918" y1="-9.8497" x2="-5.065" y2="-16.5625"/>
	<line class="st1" x1="-16.2564" y1="-12.6993" x2="-10.0909" y2="-16.259"/>
	<path class="st1" d="M-14.1742-16.4997"/>
</g>
<g>
	<path class="st2" d="M24.7588,20.5479c0.0004-0.0074,0.0043-0.0137,0.0043-0.0212v-0.0352c-0.0004-0.005,0.0006-0.0098,0-0.0148
		V4.1184c0-0.0662-0.02-0.1259-0.0486-0.1809c-0.0081-0.0156-0.0185-0.0277-0.0285-0.0421
		c-0.0274-0.0394-0.0601-0.0721-0.0995-0.0995c-0.0093-0.0065-0.0136-0.0179-0.0236-0.0236l-4.6797-2.7017
		c-0.125-0.0723-0.2754-0.0723-0.4004,0L5.4364,9.1804C5.4264,9.1862,5.422,9.1978,5.4126,9.2043
		C5.3736,9.2315,5.3412,9.264,5.314,9.303C5.3039,9.3176,5.2933,9.33,5.2852,9.3458c-0.0285,0.055-0.0485,0.1147-0.0485,0.1808
		v16.4082c0,0.0273,0.0103,0.0511,0.0155,0.0769c0.0027,0.0135,0.004,0.0265,0.0081,0.0396
		c0.0114,0.0367,0.0283,0.0691,0.0492,0.1005c0.0078,0.0118,0.0143,0.0235,0.0233,0.0345c0.024,0.0292,0.0522,0.0522,0.0836,0.0735
		c0.0092,0.0063,0.0146,0.0159,0.0245,0.0215l4.6021,2.6484c0.0038,0.0022,0.0084,0.0013,0.0123,0.0033
		c0.0557,0.0295,0.1162,0.0504,0.1835,0.0504c0.0008,0,0.0014-0.0004,0.0022-0.0004c0.0005,0,0.0012,0.0004,0.0017,0.0004
		c0.0043,0,0.0082-0.0032,0.0125-0.0034c0.058-0.0025,0.1116-0.0179,0.1606-0.0427c0.008-0.0039,0.0173-0.0022,0.0251-0.0067
		l14.124-8.0566c0.0205-0.0117,0.0336-0.0302,0.0512-0.0447c0.0136-0.0114,0.0273-0.0212,0.0392-0.0343
		c0.0258-0.0278,0.045-0.0582,0.0618-0.0914c0.0059-0.0117,0.0125-0.0225,0.0172-0.0349
		C24.7494,20.6298,24.7564,20.5899,24.7588,20.5479z M6.0365,10.2183l3.8022,2.1877v15.4833l-3.8022-2.1882V10.2183z
		 M10.6386,12.4072l13.3237-7.5997v15.489L10.6386,27.897V12.4072z M19.683,1.8787l3.876,2.2378l-13.3193,7.5972L6.4374,9.5261
		L19.683,1.8787z"/>
	<path class="st2" d="M22.4076,15.4309c-0.1113-0.2983-0.3018-0.5083-0.5361-0.5913c-0.51-0.1816-2.0195,0.3138-3.0391,0.6899
		c-0.1044-0.1595-0.2429-0.2858-0.4032-0.3788c0.1978-0.7424,0.7146-2.687,0.787-3.0225c0.0811-0.3735,0.0859-1.186-0.4717-1.5884
		c-0.4307-0.3125-1.0146-0.2563-1.7314,0.167c-1.6055,0.9473-1.5488,1.998-1.3662,2.7061c0.1501,0.5833,0.5856,1.9426,0.749,2.447
		c-0.0526,0.0774-0.1052,0.1548-0.1503,0.241c-0.1476,0.283-0.2117,0.5812-0.2357,0.8759
		c-0.7866,0.3815-3.0092,1.5236-3.4465,2.4561c-0.561,1.1963,0.3613,2.4131,0.8232,2.6963
		c0.1978,0.1201,0.4458,0.2363,0.7402,0.2363c0.3433,0,0.7495-0.1582,1.2095-0.6543c0.5723-0.6155,1.4083-2.4249,1.7411-3.1731
		c0.0479,0.0056,0.0952,0.0168,0.1437,0.0168c0.2903,0,0.5878-0.1023,0.8594-0.2855l0.249,0.1771
		c0.0996,0.0713,0.21,0.1563,0.3213,0.2412c0.2354,0.1807,0.4746,0.3594,0.6934,0.4766c0.251,0.1338,0.5322,0.2852,0.793,0.2852
		c0.0283,0,0.0576-0.002,0.085-0.0059c0.3486-0.0479,1.0469-0.3291,1.8037-1.6777C22.7064,16.553,22.5199,15.7292,22.4076,15.4309z
		 M17.4193,11.3962c0.3955-0.2329,0.7139-0.3091,0.8574-0.208c0.1602,0.1162,0.2158,0.5029,0.1582,0.771
		c-0.0629,0.2897-0.5186,2.0102-0.7962,3.0493c-0.2057,0.0302-0.4097,0.1066-0.6036,0.2265
		c-0.1984-0.621-0.4989-1.5768-0.6129-2.0219C16.2885,12.697,16.2445,12.0886,17.4193,11.3962z M14.7499,21.1663
		c-0.5068,0.5479-0.7305,0.4102-0.9458,0.2803c-0.2075-0.127-0.8574-0.9463-0.5161-1.6738
		c0.2325-0.4962,1.6754-1.3724,2.8338-1.9578c0.0616,0.138,0.1418,0.2604,0.2399,0.3647
		C15.9789,19.0395,15.1988,20.6837,14.7499,21.1663z M17.0346,17.7102c-0.1758-0.0918-0.2295-0.3037-0.2461-0.4229
		c-0.0352-0.25,0.0254-0.5469,0.166-0.8154c0.0577-0.1104,0.1241-0.2075,0.1953-0.2916c0.0012-0.0015,0.0025-0.0031,0.0037-0.0046
		c0.2161-0.2535,0.4772-0.3854,0.6848-0.3854c0.0664,0,0.1279,0.0137,0.1797,0.041c0.1758,0.0918,0.2295,0.3042,0.2461,0.4224
		c0.0352,0.2505-0.0254,0.5474-0.166,0.8159C17.809,17.6233,17.3021,17.8518,17.0346,17.7102z M21.3285,17.3752
		c-0.6563,1.168-1.1592,1.2676-1.1865,1.2744c-0.0811-0.0088-0.3096-0.1318-0.4844-0.2256
		c-0.1299-0.0693-0.3252-0.2217-0.5205-0.3711c-0.1182-0.0908-0.2363-0.1816-0.3418-0.2568l-0.1548-0.1103
		c0.056-0.0814,0.1188-0.1539,0.1666-0.2452c0.1918-0.3674,0.2637-0.7634,0.244-1.1381c1.0674-0.3907,2.2868-0.7436,2.5344-0.7184
		C21.6957,15.6687,21.9135,16.3308,21.3285,17.3752z"/>
	<path class="st2" d="M20.9184,9.4998c-1.3857-0.7256-3.0693-0.6597-4.7393,0.1836c-1.627,0.8213-3.0542,2.2896-4.0205,4.1353
		c-2.0166,3.8535-1.3691,8.1865,1.4438,9.6592c0.6392,0.334,1.3354,0.4932,2.0542,0.4922c2.4453,0,5.1475-1.834,6.7061-4.8115
		C24.3793,15.3044,23.7309,10.9719,20.9184,9.4998z M21.6537,18.7874c-1.8125,3.4639-5.2559,5.249-7.6802,3.9814
		c-2.4224-1.2676-2.9185-5.1162-1.106-8.5791c0.8892-1.6987,2.1934-3.0454,3.6719-3.792c0.7861-0.397,1.5693-0.5967,2.3057-0.5967
		c0.6064,0,1.1826,0.1357,1.7021,0.4077C22.9691,11.4763,23.4662,15.3245,21.6537,18.7874z"/>
</g>
</svg>
