<svg xmlns="http://www.w3.org/2000/svg" width="60" height="60" viewBox="0 0 60 60">
  <path fill="#231F20" d="M58,23.3708251 C57.9980638,23.0960996 57.8507178,22.8421809 57.6123697,22.7048181 L30.4561724,7.10422614 C30.2160817,6.96493686 29.9210024,6.96590013 29.6828479,7.10326287 L2.38859846,22.7038548 C2.14850773,22.8402543 2.00096811,23.0941731 2,23.3698618 C2,23.3706324 2.00038724,23.3710177 2.00038724,23.3717884 L2,23.3717884 L2,31.4222464 C2,31.6969718 2.14657152,31.9508906 2.38472603,32.0882533 L5.94987968,34.1492723 L5.94987968,37.1323362 C5.94987968,37.5575249 6.2968495,37.9037252 6.72417227,37.9037252 C7.15149503,37.9037252 7.49846486,37.5575249 7.49846486,37.1323362 L7.49846486,35.0443456 L29.6098526,47.826208 C29.730866,47.8957563 29.8650458,47.9315901 29.9994191,47.9315901 C30.1337925,47.9315901 30.2679722,47.8957563 30.3889857,47.826208 L32.4485382,46.6356026 L34.1640251,47.6210309 C34.2850386,47.6888453 34.4174757,47.7244864 34.5516555,47.7244864 C34.6858352,47.7244864 34.8182723,47.6886526 34.9392858,47.6210309 L36.2251265,46.8823931 L36.2251265,50.228611 C36.2251265,50.6537997 36.5730645,51 37.0003872,51 C37.42771,51 37.7756479,50.6537997 37.7756479,50.228611 L37.7756479,45.9917509 L40.7177274,44.301592 L40.7177274,47.6416449 C40.7177274,48.0668336 41.0656654,48.413034 41.4929881,48.413034 C41.9203109,48.413034 42.2682488,48.0668336 42.2682488,47.6416449 L42.2682488,43.4109498 L45.2122645,41.7198277 L45.2122645,45.0566054 C45.2122645,45.4817941 45.5602025,45.8279945 45.9875252,45.8279945 C46.414848,45.8279945 46.7627859,45.4817941 46.7627859,45.0566054 L46.7627859,40.8291854 L49.7068016,39.1380633 L49.7068016,42.469832 C49.7068016,42.8950208 50.0547396,43.2412211 50.4820623,43.2412211 C50.9093851,43.2412211 51.257323,42.8950208 51.257323,42.469832 L51.257323,38.2474211 L53.1462949,37.1623903 C53.3863856,37.0250276 53.5339253,36.7691823 53.5339253,36.4944568 L53.5339253,34.4471163 L57.6143059,32.0882533 C57.8524604,31.9508906 58,31.6969718 58,31.4222464 L58,23.3717884 L57.9998064,23.3717884 C57.9998064,23.3714031 58,23.3710177 58,23.3708251 Z M30.0675739,8.66010473 L55.6798329,23.3735223 L29.9994191,38.2177522 L4.32307139,23.3754488 L30.0675739,8.66010473 Z M3.54858518,24.7103526 L29.2251265,39.5530413 L29.2251265,45.8206736 L3.54858518,30.9791408 L3.54858518,24.7103526 Z M51.9834039,36.0503879 L35.3271098,45.6191569 L35.3271098,44.9716447 L51.9834039,35.3433455 L51.9834039,36.0503879 Z M30.7739053,45.8206736 L30.7739053,39.5530413 L56.4494786,24.7109305 L56.4494786,30.9789481 L30.7739053,45.8206736 Z M9.5039969,24.4730021 C8.62328658,24.4730021 7.90932979,23.9798857 7.90932979,23.3715957 C7.90932979,22.7633058 8.62328658,22.2701893 9.5039969,22.2701893 C10.3847072,22.2701893 11.098664,22.7633058 11.098664,23.3715957 C11.098664,23.9798857 10.3847072,24.4730021 9.5039969,24.4730021 Z M29.9998064,36.3673048 C29.119203,36.3673048 28.4053329,35.8741883 28.4053329,35.2658984 C28.4053329,34.6576084 29.119203,34.164492 29.9998064,34.164492 C30.8804098,34.164492 31.5942799,34.6576084 31.5942799,35.2658984 C31.5942799,35.8741883 30.8804098,36.3673048 29.9998064,36.3673048 Z M50.4820623,24.5410092 C49.601352,24.5410092 48.8873952,24.0478927 48.8873952,23.4396028 C48.8873952,22.8313128 49.601352,22.3381964 50.4820623,22.3381964 C51.3627727,22.3381964 52.0767295,22.8313128 52.0767295,23.4396028 C52.0767295,24.0478927 51.3627727,24.5410092 50.4820623,24.5410092 Z M29.6356042,31.6141303 C29.6357979,31.614323 29.6361851,31.614323 29.6363787,31.614323 C29.6396703,31.6162495 29.6437363,31.6152863 29.6472215,31.6172128 C29.6559345,31.6218365 29.6656156,31.6201026 29.6741349,31.6245337 C29.7794651,31.6786696 29.8938954,31.7164299 30.0203303,31.7170079 C30.0212984,31.7170079 30.0222665,31.7177785 30.0232346,31.7177785 C30.0234282,31.7177785 30.0234282,31.7175859 30.0236218,31.7175859 C30.0238155,31.7175859 30.0240091,31.7177785 30.0242027,31.7177785 C30.0251708,31.7177785 30.0261389,31.7177785 30.027107,31.7177785 C30.1506376,31.7172006 30.2629381,31.6817521 30.366332,31.6303133 C30.3769812,31.6251117 30.3889857,31.6278088 30.3996349,31.6218365 L44.0325284,24.1140866 C44.0633142,24.0971329 44.0820955,24.069198 44.1095898,24.0489693 C44.1539291,24.0166033 44.1965259,23.9855859 44.2329267,23.9447432 C44.2648743,23.9087167 44.287528,23.8692226 44.3119243,23.8285724 C44.3388377,23.7842619 44.3645894,23.7414925 44.3822089,23.6917877 C44.3988604,23.6445873 44.4044754,23.5968089 44.4116394,23.5472967 C44.4170608,23.5106923 44.4335187,23.477941 44.4335187,23.4397954 L44.4335187,20.3120479 C44.4335187,19.3607195 43.965729,18.6326777 43.1680082,18.2708724 C43.1637485,18.2683679 43.1614251,18.2637442 43.1571654,18.2614323 L31.9842337,11.8017234 C31.917047,11.7628072 31.8448262,11.7473948 31.7733798,11.7302485 C30.7204658,11.216246 29.1594888,11.4060108 27.4273504,12.3633116 L22.6123697,15.0207892 C20.9809144,15.9210642 19.5750284,17.275426 18.7103145,18.6467415 C18.6921141,18.6714013 18.6663624,18.6877769 18.6508727,18.7151339 C18.6444832,18.7263079 18.6452577,18.7386378 18.6396426,18.7498117 C18.1106685,19.6169501 17.8018422,20.486593 17.8045529,21.2495052 L17.816751,24.3602991 C17.8169447,24.3920871 17.8314663,24.4190588 17.8353387,24.4498835 C17.8421155,24.5044048 17.8496667,24.5560362 17.8678671,24.6076677 C17.8841313,24.6537121 17.9062042,24.6941696 17.9304069,24.735783 C17.9551904,24.7791303 17.9803612,24.8197804 18.0136641,24.8581186 C18.0483224,24.8978055 18.0878212,24.9288229 18.1300307,24.9606109 C18.155976,24.9804543 18.1734019,25.0076186 18.2024452,25.0243796 L29.6356042,31.6141303 Z M36.7707521,16.3510692 L40.2296075,18.350824 C39.7842779,18.5034065 39.3281056,18.6931713 38.8591542,18.9522917 L36.4758665,20.26793 L32.3401101,17.8632152 L33.8958593,17.0041683 C35.2912898,16.2331646 36.3045114,16.1692033 36.7707521,16.3510692 Z M30.7861035,27.8334764 C30.7814566,26.55136 32.3923879,24.2861271 34.7975548,22.9568103 L39.6115675,20.2993327 C41.001383,19.5335307 42.0053108,19.4555055 42.4893646,19.639876 C42.6841479,19.715204 42.88261,19.8533373 42.88261,20.31147 L42.88261,22.9855159 L30.7930739,29.6423105 L30.7861035,27.8334764 Z M34.9007551,21.1371876 L34.0449479,21.6095767 C32.691146,22.3572692 31.486239,23.4166769 30.6209443,24.5396606 L26.2236052,22.0748376 C26.9285813,21.1913235 27.9158576,20.3056903 29.0814594,19.6622239 L30.7655796,18.7322802 L34.9007551,21.1371876 Z M29.8021188,25.8500972 C29.4506957,26.5436538 29.2351949,27.2266144 29.2375183,27.8388707 L29.2444887,29.6066694 L25.0806572,27.2067709 L25.0702016,24.5371561 C25.0688463,24.2104139 25.1840511,23.8106556 25.3900644,23.3771827 L29.8021188,25.8500972 Z M23.5285868,26.3122756 L19.3637872,23.9117992 L19.3531381,21.2437256 C19.3519763,20.9291206 19.4503361,20.5542148 19.6317595,20.1494474 L24.048848,22.6254444 C23.7196913,23.2947265 23.5187121,23.9522567 23.5216165,24.5437063 L23.5285868,26.3122756 Z M28.1778276,13.7097746 C29.7293171,12.8547735 30.9431306,12.8133527 31.2986198,13.2082947 C31.4180843,13.3427676 31.5768539,13.4134718 31.7416259,13.4431406 L34.522225,15.0508433 C34.0747656,15.2040037 33.6154953,15.396273 33.1430587,15.6569347 L30.785329,16.9592798 L26.6484109,14.5539871 L28.1778276,13.7097746 Z M23.3636213,16.3672522 L25.0742677,15.4228593 L29.2111858,17.8287301 L28.3300141,18.3153756 C26.9489116,19.0773246 25.7277404,20.1638965 24.8593478,21.3101914 L20.4455509,18.8363136 C21.1485907,17.9393138 22.1552292,17.0351857 23.3636213,16.3672522 Z"/>
</svg>
