<svg xmlns="http://www.w3.org/2000/svg" width="60" height="60" viewBox="0 0 60 60">
  <path fill="#231F20" d="M42.9880387,26.5868724 C42.9896606,26.5660288 43,26.5480744 43,26.526818 L43,2.29104094 C43,2.27370564 42.9912824,2.25925956 42.9902688,2.24213064 C42.9882414,2.20415808 42.980943,2.16804288 42.9736446,2.1302767 C42.9661435,2.09292326 42.958845,2.05742718 42.946681,2.02193109 C42.9353279,1.98870511 42.9233666,1.95816196 42.9079589,1.92720608 C42.9008632,1.91255362 42.9012686,1.89625019 42.8931593,1.88180411 C42.8832253,1.86405607 42.8663984,1.85415018 42.8552481,1.837434 C42.8351774,1.80668449 42.8144986,1.77841144 42.790576,1.75055115 C42.7678698,1.72413546 42.7447582,1.7012281 42.719011,1.677908 C42.6906282,1.65252417 42.6630564,1.62982318 42.6318354,1.60897955 C42.6044664,1.59040602 42.5768946,1.57513445 42.5470927,1.56006925 C42.5170881,1.54479768 42.4876917,1.53220895 42.4558625,1.52065209 C42.4175458,1.50682513 42.3802428,1.49691924 42.3403043,1.48907708 C42.3222609,1.48556875 42.3080696,1.47401188 42.2896208,1.47174179 C36.7639087,0.760375492 26.5489641,0.234331777 20.2285356,4.72458644 C18.1417967,6.20716708 17.0036492,8.07937915 17.0093258,9.94292358 C17.0083121,9.95922701 17,9.97305398 17,9.98977016 L17,33.968407 C17,33.9820276 17.0068929,33.9931717 17.0075012,34.0067923 C16.9460728,36.2158044 18.456845,38.0320895 21.1645575,39.045998 L21.1645575,53.8197985 C21.1645575,54.7992428 21.7912076,55.9157184 22.6226189,56.4176166 L23.1493212,56.7339857 C23.4453126,56.9112598 23.7512378,57 24.0421608,57 C24.2797648,57 24.5074349,56.9415966 24.7123987,56.822726 C25.1697662,56.5567117 25.43109,56.0407802 25.43109,55.4059782 L25.43109,37.2115521 L28.6849673,35.3222111 L28.6849673,49.253186 C28.6849673,50.234694 29.3116174,51.3511697 30.1422178,51.851004 L30.6699338,52.1673732 C30.9659251,52.3446473 31.2718504,52.4333875 31.5627734,52.4333875 C31.8003774,52.4333875 32.0280474,52.374984 32.234025,52.2561134 C32.6893651,51.9900992 32.9527162,51.4741677 32.9527162,50.8393656 L32.9527162,32.8442955 L36.2451129,30.9324599 L36.2451129,44.843623 C36.2451129,45.825131 36.8727768,46.9416067 37.704188,47.4414411 L38.2308904,47.7578102 C38.5278954,47.9350843 38.8348343,48.0238245 39.1257573,48.0238245 C39.3633613,48.0238245 39.5910314,47.9654211 39.7949816,47.8465504 C40.252349,47.5805362 40.5136728,47.0646047 40.5136728,46.4318664 L40.5136728,28.4539252 L42.596357,27.2445818 C42.6358901,27.2214681 42.6608264,27.1851465 42.6948857,27.1566671 C42.7261067,27.1304578 42.7575304,27.1071377 42.7846967,27.0765946 C42.831731,27.0239695 42.8668039,26.9668043 42.8986331,26.9048926 C42.9146491,26.8741431 42.9312732,26.8456636 42.9434373,26.812644 C42.9701981,26.7391754 42.9821594,26.6648813 42.9880387,26.5868724 Z M36.7663415,28.7277816 C36.7239702,28.7444978 36.6897081,28.7713262 36.6511887,28.7946463 L22.5070606,37.007656 L22.5070606,14.6696812 L41.3767106,3.71315441 L41.3767106,26.0507164 L36.7663415,28.7277816 Z M21.1566508,6.07900971 C26.2746653,2.44272479 34.5405273,2.4336444 39.5879904,2.85010427 L21.6426037,13.2700624 C19.8988904,12.5943985 18.822374,11.5633611 18.647212,10.3191408 C18.4503575,8.91952194 19.3888122,7.3345805 21.1566508,6.07900971 Z M18.6234922,34.0047285 C18.6238976,33.9954418 18.6194375,33.987806 18.6194375,33.9787256 C18.6194375,33.9750109 18.6214648,33.9721217 18.6214648,33.9686133 L18.6214648,13.3808844 C19.2223678,13.923438 19.9814031,14.3852998 20.885393,14.7536749 L20.885393,37.1300349 C19.3884067,36.359027 18.5691595,35.2594739 18.6234922,34.0047285 Z M23.799894,55.2082732 L23.4475426,54.9967413 C23.1079635,54.7911942 22.786225,54.2187167 22.786225,53.8197985 L22.786225,38.7473769 L23.809017,38.1534366 L23.799894,55.2082732 Z M31.3201011,50.6414543 L30.9657224,50.4278587 C30.627157,50.2243753 30.3064321,49.6539615 30.3064321,49.2529796 L30.3064321,34.380533 L31.3292241,33.7865927 L31.3201011,50.6414543 Z M38.8820713,46.2318914 L38.5276927,46.0182957 C38.1891272,45.8148124 37.8684024,45.2443985 37.8684024,44.8434166 L37.8684024,29.9895436 L38.8895725,29.3966351 L38.8820713,46.2318914 Z"/>
</svg>
