<svg xmlns="http://www.w3.org/2000/svg" width="60" height="60" viewBox="0 0 60 60">
  <path fill="#231F20" d="M57.9993838,15.751218 C57.9991784,15.7394964 57.9905513,15.7304481 57.9897296,15.7187265 C57.9821296,15.5947241 57.9457725,15.4820321 57.88908,15.3790052 C57.871415,15.3465137 57.8510797,15.3201915 57.8293065,15.2903733 C57.7680951,15.2066769 57.6945593,15.1384036 57.6068503,15.0828801 C57.5877475,15.0705416 57.5782987,15.0481266 57.5579634,15.0372275 L53.5319794,12.9314493 L53.5319794,5.16577511 C53.5319794,5.14274316 53.520682,5.12341278 53.5188333,5.10079211 C53.5145197,5.04547431 53.5019899,4.99426935 53.4865843,4.94121361 C53.4715896,4.889803 53.4568003,4.84106575 53.4327676,4.79438493 C53.409762,4.7491436 53.3797725,4.71007154 53.3483452,4.6691487 C53.3134259,4.62431866 53.2783013,4.58319018 53.2351657,4.54638019 C53.2183223,4.53198522 53.2094898,4.51183226 53.1912086,4.49867115 L50.513313,2.56378175 C50.5075616,2.5596689 50.5005777,2.55925762 50.4946209,2.55514477 C50.4898965,2.55185449 50.4880479,2.54589086 50.4831181,2.54260058 L48.3388708,1.13374446 C48.0800575,0.965117684 47.7470922,0.955041206 47.4784194,1.10865608 L32.4019308,9.78121328 C32.3811847,9.79314054 32.3717359,9.81658377 32.3522223,9.83015617 C32.278481,9.88053856 32.217475,9.94305385 32.1626313,10.0168795 C32.1394202,10.0483428 32.1137443,10.0740481 32.0952577,10.1083903 C32.086836,10.1238135 32.072252,10.1334787 32.0648574,10.1497245 L30.4320744,13.6982898 C30.381955,13.8066634 30.3568953,13.9242908 30.3568953,14.0427409 L30.3568953,23.2826655 L30.3568953,23.3188585 L30.3568953,40.8537808 C30.3568953,40.9043689 30.3770252,40.9483763 30.3856523,40.9967023 C30.3920199,41.0320728 30.3957173,41.0662094 30.4066038,41.1005517 C30.4285824,41.1694419 30.4608314,41.2294895 30.4990372,41.2893315 C30.5179346,41.3191496 30.5343672,41.3481452 30.5571674,41.3754956 C30.6035895,41.4310191 30.657817,41.4748209 30.7171798,41.5165663 C30.7383367,41.5315782 30.7512774,41.5535819 30.7740776,41.5667431 L34.6546332,43.802076 L34.6546332,56.1766078 C34.6546332,56.6304606 35.0237502,57 35.4770842,57 C35.9304183,57 36.2995353,56.6304606 36.2995353,56.1766078 L36.2995353,44.7498819 L37.1640948,45.2479478 C37.1723111,45.2526776 37.182376,45.2506211 37.1907978,45.2551453 C37.3052096,45.3156041 37.4292757,45.3583777 37.5673094,45.3583777 C37.5685419,45.3583777 37.5693635,45.3575552 37.5705959,45.3575552 C37.5714176,45.3575552 37.5724446,45.3583777 37.5732662,45.3583777 C37.5798393,45.3583777 37.5860015,45.3534423 37.5925745,45.3532367 C37.7158189,45.3491238 37.8289984,45.3153985 37.9327291,45.2625484 C37.9479292,45.2549396 37.9657997,45.2584355 37.980589,45.2497986 L43.2040979,42.2671611 L43.2040979,50.5395382 C43.2040979,50.993391 43.5732149,51.3629304 44.0265489,51.3629304 C44.4798829,51.3629304 44.8489999,50.993391 44.8489999,50.5395382 L44.8489999,41.3277866 L51.7299407,37.3987828 L51.783552,48.8024768 C51.7856061,49.2542731 52.1547231,49.6217561 52.606003,49.6217561 C53.1195214,49.5736358 53.4305081,49.2501603 53.4284541,48.7944567 L53.3705292,36.461876 L57.5908286,34.0519526 C57.6302668,34.0295376 57.6551211,33.9937558 57.6892187,33.9659941 C57.7214676,33.9396719 57.7535112,33.916023 57.7814466,33.8851766 C57.8297173,33.8321209 57.8654582,33.7749523 57.8979125,33.7126426 C57.9135235,33.6826189 57.9301615,33.6550628 57.9420751,33.6229826 C57.9695997,33.5497739 57.9817187,33.47492 57.987881,33.3967759 C57.9895242,33.376006 58,33.3583208 58,33.3371396 L58,15.7662299 C58,15.7631452 57.9981513,15.7608832 57.9981513,15.7577985 C57.9977405,15.7555365 57.9993838,15.75348 57.9993838,15.751218 Z M56.3546871,32.8629282 L38.389555,43.1222222 L38.389555,27.4419888 L56.3546871,17.1833117 L56.3546871,32.8629282 Z M35.8885152,42.6155193 C35.8494878,42.5920761 35.8147739,42.5651369 35.7720492,42.5482743 L32.0005649,40.3754566 L32.0005649,24.7059165 L36.744653,27.4386985 L36.744653,43.1084442 L35.8885152,42.6155193 Z M33.1627596,11.6965666 L33.9564536,12.204709 L32.6946363,14.939753 C32.6445169,15.0481266 32.6184302,15.165754 32.6184302,15.2852323 L32.6184302,23.1642154 L32.0005649,22.8082484 L32.0005649,14.2239118 L33.1627596,11.6965666 Z M49.9813079,4.208921 L51.8872827,5.58610819 L51.8872827,12.9516023 L34.2631268,23.0023749 L34.2631268,15.465992 L35.6407939,12.4798586 L49.9813079,4.208921 Z M37.5691581,26.01627 L34.9479549,24.5062378 L52.726988,14.3670389 L55.4640409,15.7983101 L37.5691581,26.01627 Z M47.85945,2.7871094 L48.4651963,3.18564438 L35.0253935,10.9363067 L34.3956146,10.5316024 L47.85945,2.7871094 Z M46.0200272,33.9818286 C46.3790793,34.4739308 46.8845867,34.7930878 47.4461704,34.8815141 C47.5505174,34.8975542 47.6548643,34.9055742 47.7610599,34.9055742 C48.3207949,34.9055742 48.8764218,34.6766942 49.3256477,34.2549217 C49.8110252,33.7990125 50.1400878,33.1543235 50.2524456,32.4395105 C50.3648035,31.7265483 50.2483375,31.0135861 49.9274912,30.4301786 C49.5723419,29.7896025 48.9906283,29.3618663 48.3308599,29.2573999 C47.0170745,29.0536083 45.7673762,30.1449525 45.5204765,31.6944681 C45.3902483,32.5299932 45.5708013,33.3632562 46.0200272,33.9818286 Z M48.0118623,30.8770395 C48.0319922,30.8770395 48.0539708,30.8790959 48.0741007,30.8819749 C48.2887514,30.9161116 48.4251419,31.1118831 48.489229,31.226426 C48.6336303,31.4865636 48.6837497,31.8369783 48.6276735,32.1843083 C48.6276735,32.1843083 48.6276735,32.1843083 48.6276735,32.1863647 C48.573446,32.5336947 48.4189796,32.851001 48.2004262,33.0560264 C48.1061442,33.1444527 47.9095694,33.2890193 47.6990269,33.2548827 C47.5365497,33.2308225 47.4202891,33.110316 47.3500398,33.0138698 C47.1573677,32.7508531 47.0811616,32.3531407 47.1454541,31.9515211 C47.2477469,31.2928485 47.6708861,30.8770395 48.0118623,30.8770395 Z M41.0674506,14.8996528 C41.4244486,15.391755 41.9320102,15.7109121 42.4917452,15.7983101 C42.5981462,15.8153784 42.7043418,15.8233985 42.8086887,15.8233985 C43.9961486,15.8233985 45.0774129,14.7830535 45.3039772,13.3583629 C45.416335,12.6433443 45.2998691,11.9275031 44.9769687,11.3430674 C44.6218194,10.701463 44.0401058,10.2737268 43.3782833,10.1692605 C42.0562816,9.95847703 40.8127455,11.0588695 40.5660513,12.6102359 C40.4356176,13.4467892 40.6159653,14.2810804 41.0674506,14.8996528 Z M43.0592857,11.7889001 C43.0812643,11.7889001 43.1013942,11.7909565 43.1215241,11.7938355 C43.3380235,11.8281778 43.476468,12.0260058 43.5387064,12.140343 C43.6831078,12.4015088 43.7352813,12.7519235 43.6792051,13.1013099 C43.5689013,13.8041957 43.11947,14.2269965 42.7464503,14.1737351 C42.5839731,14.1476185 42.4656585,14.027112 42.3954091,13.9306657 C42.2027371,13.6666209 42.1265309,13.2699367 42.1908234,12.8672889 C42.294965,12.2065598 42.7162554,11.7889001 43.0592857,11.7889001 Z M26.9368629,19.1247816 C26.9292628,19.0018075 26.893522,18.8901437 26.838062,18.7877337 C26.8197807,18.7540084 26.7988292,18.7266579 26.776029,18.6956059 C26.7148176,18.6121151 26.6410763,18.5436362 26.553162,18.488524 C26.5342645,18.4765968 26.525432,18.454593 26.5053021,18.4441053 L22.94169,16.5803681 L22.94169,14.2800522 C22.94169,14.2576372 22.9308034,14.2389237 22.9289547,14.2171256 C22.9244358,14.1603683 22.9117005,14.1075182 22.8956787,14.0526117 C22.8810948,14.0028462 22.8665109,13.9555485 22.8432999,13.9101015 C22.8198834,13.8642432 22.7900994,13.8245543 22.7578504,13.7834258 C22.7227258,13.7383901 22.6873957,13.6972616 22.6440547,13.6604516 C22.6274167,13.6462623 22.6185842,13.6265206 22.6005084,13.6135652 L20.2003235,11.8793827 C20.1943667,11.8750643 20.1873829,11.8748586 20.181426,11.8707458 C20.1767017,11.8674555 20.1750584,11.8614919 20.1701286,11.8584072 L18.2475159,10.5961741 C17.9887026,10.4254909 17.6557373,10.4164427 17.3878861,10.5710858 L3.87536909,18.3437518 C3.85708784,18.3542395 3.84907695,18.3750094 3.83202814,18.386731 C3.75417876,18.4391699 3.68947544,18.5047698 3.6323722,18.5831195 C3.61039361,18.6131433 3.58615554,18.6378204 3.56869592,18.6705176 C3.56027422,18.6861464 3.5458957,18.6960172 3.53850104,18.712263 L2.07517909,21.8933454 C2.0250597,22.0017189 2,22.1193464 2,22.2377964 L2,25.9107754 L2,25.9438838 L2,41.6613386 C2,41.7092533 2.0195137,41.750793 2.02731918,41.7964456 C2.03389221,41.8357233 2.03800036,41.8735615 2.0503248,41.9113997 C2.07168716,41.976794 2.10229286,42.0339626 2.13823915,42.0911312 C2.15836907,42.1238283 2.17665032,42.1554973 2.20150461,42.1851098 C2.24648882,42.2385768 2.29886769,42.2805279 2.35576553,42.3210394 C2.37794952,42.3370795 2.39171181,42.3601115 2.41594988,42.3740951 L5.42886487,44.1099227 L5.42886487,55.2668458 C5.42886487,55.7206986 5.79695484,56.090238 6.25028885,56.090238 C6.70362287,56.090238 7.07171284,55.7206986 7.07171284,55.2668458 L7.07171284,45.0564947 L8.14291216,45.6736276 C8.1523609,45.6789743 8.1636583,45.6767122 8.17331245,45.6818533 C8.28710812,45.7416952 8.41096875,45.7840575 8.54818086,45.7840575 C8.5492079,45.7840575 8.55002953,45.7834406 8.55105656,45.7834406 C8.55187819,45.7834406 8.55249442,45.7840575 8.55311064,45.7840575 C8.55865664,45.7840575 8.56358641,45.7799447 8.56913241,45.779739 C8.69422549,45.7764488 8.80863738,45.7414895 8.91360053,45.6880225 C8.92838986,45.680825 8.94584949,45.6839097 8.960228,45.675684 L13.6420777,43.0023327 L13.6420777,46.2360595 C13.6420777,46.6899123 14.0101677,47.0594517 14.4635017,47.0594517 C14.9168357,47.0594517 15.2849257,46.6899123 15.2849257,46.2360595 L15.2849257,42.064192 L21.1061699,38.7399825 L21.1061699,46.5753695 C21.1061699,47.0292223 21.4742599,47.3987617 21.9275939,47.3987617 C22.3809279,47.3987617 22.7490179,47.0292223 22.7490179,46.5753695 L22.7490179,37.8018419 L26.5371402,35.6386894 C26.5759622,35.61648 26.6004057,35.5811095 26.6340925,35.5539648 C26.6671631,35.5270256 26.7000282,35.5031711 26.7285799,35.4717078 C26.7768506,35.418652 26.8127969,35.3606609 26.8452512,35.2983512 C26.8606568,35.2689444 26.876884,35.2420052 26.8885922,35.2105419 C26.9165276,35.136305 26.9290574,35.0608343 26.9348088,34.9814563 C26.9362467,34.9613033 26.9465171,34.944235 26.9465171,34.9236708 L26.9465171,19.1731076 C26.9465171,19.170023 26.9446684,19.1677609 26.9446684,19.1646763 C26.9446684,19.1622086 26.9465171,19.1603578 26.9465171,19.1580957 C26.9463117,19.1461685 26.9376845,19.1367089 26.9368629,19.1247816 Z M25.3038745,34.4482255 L9.36981025,43.547902 L9.36981025,29.688632 L25.3038745,20.5897781 L25.3038745,34.4482255 Z M3.64264257,41.1823974 L3.64264257,27.3332039 L4.31144889,27.7183722 C4.31185971,27.7185778 4.31227052,27.7187834 4.31247593,27.7189891 L7.72675687,29.6859587 L7.72675687,43.5353578 L3.64264257,41.1823974 Z M4.63660872,20.2578713 L5.2033276,20.6208301 L4.1019334,23.0060764 C4.05284104,23.11445 4.02675431,23.2320774 4.02675431,23.3515557 L4.02675431,25.6563957 L3.64264257,25.4351245 L3.64264257,22.4187617 L4.63660872,20.2578713 Z M8.55023493,28.262502 L6.37312245,27.0080833 L22.1381364,18.0159578 L24.4111742,19.2055991 L8.55023493,28.262502 Z M19.6707834,13.5241107 L21.2990474,14.7003853 L21.2990474,16.5996985 L5.66980769,25.5147081 L5.66980769,23.531904 L6.88725704,20.8970079 L19.6707834,13.5241107 Z M17.769533,12.2489221 L18.1526177,12.5010397 L6.27247285,19.3530447 L5.86823119,19.0939353 L17.769533,12.2489221 Z M15.8939585,31.2757801 C16.2248697,31.8731713 16.7685829,32.2729402 17.3882969,32.3712372 C17.4875087,32.3852209 17.5858988,32.393241 17.6840835,32.393241 C18.7883534,32.393241 19.7952602,31.4312458 20.0019,30.1128723 C20.2276427,28.677077 19.4222405,27.3525343 18.2076668,27.1608756 C17.5928826,27.0615503 16.9489306,27.2754184 16.4493799,27.7422267 C16.0009757,28.1639992 15.6971782,28.759334 15.5938583,29.4171841 C15.4897168,30.0758567 15.5961178,30.7355575 15.8939585,31.2757801 Z M17.2167818,29.6732089 C17.2629984,29.3789346 17.3932267,29.1120107 17.5748068,28.9421501 C17.640948,28.8798405 17.7674789,28.7825716 17.9067451,28.7825716 C17.9207128,28.7825716 17.9359129,28.7835998 17.9509076,28.7856562 C18.2257427,28.8288411 18.4675071,29.2966776 18.379182,29.8580814 C18.2918838,30.4184569 17.8997612,30.7818271 17.6440291,30.745634 C17.4864816,30.7205456 17.3813131,30.567959 17.3320153,30.4795327 C17.212879,30.26258 17.1707705,29.9685114 17.2167818,29.6732089 Z"/>
</svg>
