<svg xmlns="http://www.w3.org/2000/svg" width="34" height="34" viewBox="0 0 34 34">
  <g fill="none" fill-rule="evenodd">
    <path fill="#333333" d="M6.82929429,20 L9,20 L9,15 L6.82929429,15 C6.41745788,16.1651924 5.30621883,17 4,17 C2.34314575,17 1,15.6568542 1,14 C1,12.3431458 2.34314575,11 4,11 C5.30621883,11 6.41745788,11.8348076 6.82929429,13 L9,13 L9,7 L19,12.5555556 L19,8.82929429 C17.8348076,8.41745788 17,7.30621883 17,6 C17,4.34314575 18.3431458,3 20,3 C21.6568542,3 23,4.34314575 23,6 C23,7.30621883 22.1651924,8.41745788 21,8.82929429 L21,13.6666667 L25.2,16 L27.1707057,16 C27.5825421,14.8348076 28.6937812,14 30,14 C31.6568542,14 33,15.3431458 33,17 C33,18.6568542 31.6568542,20 30,20 C28.6937812,20 27.5825421,19.1651924 27.1707057,18 L25.2,18 L21,20.3333333 L21,25.1707057 C22.1651924,25.5825421 23,26.6937812 23,28 C23,29.6568542 21.6568542,31 20,31 C18.3431458,31 17,29.6568542 17,28 C17,26.6937812 17.8348076,25.5825421 19,25.1707057 L19,21.4444444 L9,27 L9,22 L6.82929429,22 C6.41745788,23.1651924 5.30621883,24 4,24 C2.34314575,24 1,22.6568542 1,21 C1,19.3431458 2.34314575,18 4,18 C5.30621883,18 6.41745788,18.8348076 6.82929429,20 Z M11,10.5 L23,17 L11,23.5 L11,10.5 Z M20,27 C19.4477153,27 19,27.4477153 19,28 C19,28.5522847 19.4477153,29 20,29 C20.5522847,29 21,28.5522847 21,28 C21,27.4477153 20.5522847,27 20,27 Z M30,16 C29.4477153,16 29,16.4477153 29,17 C29,17.5522847 29.4477153,18 30,18 C30.5522847,18 31,17.5522847 31,17 C31,16.4477153 30.5522847,16 30,16 Z M20,5 C19.4477153,5 19,5.44771525 19,6 C19,6.55228475 19.4477153,7 20,7 C20.5522847,7 21,6.55228475 21,6 C21,5.44771525 20.5522847,5 20,5 Z M4,13 C3.44771525,13 3,13.4477153 3,14 C3,14.5522847 3.44771525,15 4,15 C4.55228475,15 5,14.5522847 5,14 C5,13.4477153 4.55228475,13 4,13 Z M4,20 C3.44771525,20 3,20.4477153 3,21 C3,21.5522847 3.44771525,22 4,22 C4.55228475,22 5,21.5522847 5,21 C5,20.4477153 4.55228475,20 4,20 Z M12,13 L13,13 L13,19 L12,19 L12,13 Z M13,14 L14,14 L14,14.5 L13,14.5 L13,14 Z M14,15 L15,15 L15,15.5 L14,15.5 L14,15 Z M14,14 L14.5,14 L14.5,15 L14,15 L14,14 Z M15,16 L16,16 L16,16.5 L15,16.5 L15,16 Z M15,15 L15.5,15 L15.5,16 L15,16 L15,15 Z M16,16 L16.5,16 L16.5,17 L16,17 L16,16 Z M16,17 L17,17 L17,17.5 L16,17.5 L16,17 Z M17,17 L17.5,17 L17.5,18 L17,18 L17,17 Z M13,18 L18,18 L18,19 L13,19 L13,18 Z"/>
  </g>
</svg>
