<svg xmlns="http://www.w3.org/2000/svg" width="32" height="28" viewBox="0 0 32 28">
  <path fill="#333333" fill-rule="evenodd" d="M5.82929429,17 L8,17 L8,12 L5.82929429,12 C5.41745788,13.1651924 4.30621883,14 3,14 C1.34314575,14 0,12.6568542 0,11 C8.8817842e-16,9.34314575 1.34314575,8 3,8 C4.30621883,8 5.41745788,8.83480763 5.82929429,10 L8,10 L8,4 L18,9.55555556 L18,5.82929429 C16.8348076,5.41745788 16,4.30621883 16,3 C16,1.34314575 17.3431458,-8.8817842e-16 19,0 C20.6568542,0 22,1.34314575 22,3 C22,4.30621883 21.1651924,5.41745788 20,5.82929429 L20,10.6666667 L24.2,13 L26.1707057,13 C26.5825421,11.8348076 27.6937812,11 29,11 C30.6568542,11 32,12.3431458 32,14 C32,15.6568542 30.6568542,17 29,17 C27.6937812,17 26.5825421,16.1651924 26.1707057,15 L24.2,15 L20,17.3333333 L20,22.1707057 C21.1651924,22.5825421 22,23.6937812 22,25 C22,26.6568542 20.6568542,28 19,28 C17.3431458,28 16,26.6568542 16,25 C16,23.6937812 16.8348076,22.5825421 18,22.1707057 L18,18.4444444 L8,24 L8,19 L5.82929429,19 C5.41745788,20.1651924 4.30621883,21 3,21 C1.34314575,21 0,19.6568542 0,18 C8.8817842e-16,16.3431458 1.34314575,15 3,15 C4.30621883,15 5.41745788,15.8348076 5.82929429,17 Z M10,7.5 L22,14 L10,20.5 L10,7.5 Z M19,24 C18.4477153,24 18,24.4477153 18,25 C18,25.5522847 18.4477153,26 19,26 C19.5522847,26 20,25.5522847 20,25 C20,24.4477153 19.5522847,24 19,24 Z M29,13 C28.4477153,13 28,13.4477153 28,14 C28,14.5522847 28.4477153,15 29,15 C29.5522847,15 30,14.5522847 30,14 C30,13.4477153 29.5522847,13 29,13 Z M19,2 C18.4477153,2 18,2.44771525 18,3 C18,3.55228475 18.4477153,4 19,4 C19.5522847,4 20,3.55228475 20,3 C20,2.44771525 19.5522847,2 19,2 Z M3,10 C2.44771525,10 2,10.4477153 2,11 C2,11.5522847 2.44771525,12 3,12 C3.55228475,12 4,11.5522847 4,11 C4,10.4477153 3.55228475,10 3,10 Z M3,17 C2.44771525,17 2,17.4477153 2,18 C2,18.5522847 2.44771525,19 3,19 C3.55228475,19 4,18.5522847 4,18 C4,17.4477153 3.55228475,17 3,17 Z"/>
</svg>
