<svg xmlns="http://www.w3.org/2000/svg" width="34" height="34" viewBox="0 0 34 34">
  <g fill="none" fill-rule="evenodd">
    <path fill="#333333" d="M22,11.7994187 L22,24.3000002 L21.984234,24.3000002 C21.7804647,25.5872033 19.6267851,26.6000061 17,26.6000061 C14.3732149,26.6000061 12.2195353,25.5872033 12.015766,24.3000002 L12,24.3000002 L12,11.7994187 C13.270517,12.5403045 15.0413118,13 17,13 C18.9586882,13 20.729483,12.5403045 22,11.7994187 Z M24,9.0000005 L24,25 L23.9419223,25 C23.497677,26.9646049 20.5590164,28.4823529 17,28.4823529 C13.4409836,28.4823529 10.502323,26.9646049 10.0580777,25 L10,25 L10,9 C10,6.790861 13.1340068,5 17,5 C20.8659932,5 24,6.790861 24,9 Z M17,11 C19.7614237,11 22,10.1045695 22,9 C22,7.8954305 19.7614237,7 17,7 C14.2385763,7 12,7.8954305 12,9 C12,10.1045695 14.2385763,11 17,11 Z M17,10 C18.1045695,10 19,9.55228475 19,9 C19,8.44771525 18.1045695,8 17,8 C15.8954305,8 15,8.44771525 15,9 C15,9.55228475 15.8954305,10 17,10 Z"/>
  </g>
</svg>
