<svg xmlns="http://www.w3.org/2000/svg" width="28" height="10" viewBox="0 0 28 10">
  <g fill="#000000" fill-rule="evenodd">
    <path d="M5.10001812,6 C5.56328845,8.28224032 7.58104209,10 10,10 C12.7614237,10 15,7.76142375 15,5 C15,4.65753416 14.9655697,4.32310994 14.8999819,4 L13,4 C13,6.209139 11.6568542,8 10,8 C8.34314575,8 7,6.209139 7,4 L5.55000906,4 L0,4 L0,6 L5.10001812,6 Z"/>
    <path d="M22.8000063,4 C22.336736,1.71775968 20.3189823,0 17.9000244,0 C15.1386007,0 12.9000244,2.23857625 12.9000244,5 C12.9000244,5.34246584 12.9344547,5.67689006 13.0000425,6 L14.9000244,6 C14.9000244,3.790861 16.2431702,2 17.9000244,2 C19.5568787,2 20.9000244,3.790861 20.9000244,6 L22.3500154,6 L27.9000244,6 L27.9000244,4 L22.8000063,4 Z"/>
  </g>
</svg>
