<svg xmlns="http://www.w3.org/2000/svg" width="20" height="28" viewBox="0 0 20 28">
  <path fill="#333333" fill-rule="evenodd" d="M3.16992187,0.211296636 L0.937822174,1.5 L0.937822174,8.5 L5,10.8452995 L5,18.000385 C5,19.1125667 5.8954305,20 7,20 C8.11227036,20 9,19.1047419 9,18.000385 L9,10.8452995 L13.0621778,8.5 L13.0621778,1.5 L10.8300781,0.211296636 L10.8300781,6.5 L6.9998729,8.5 L3.16992188,6.5 L3.16992188,0.211296636 Z M8.17571739,24.0363442 C8.10435403,24.0301703 8.03678307,24.0215225 7.97312167,24.0102973 C7.66559811,23.9560726 7.29449695,23.7857064 6.86446141,23.5229678 C6.6912338,23.4171311 6.51166961,23.2980289 6.32806627,23.1684475 C6.1066789,23.0121993 5.89063227,22.8487873 5.68832783,22.6877833 C5.56665101,22.5909468 5.47613738,22.5160462 5.42539728,22.4727418 L5.207328,22.2866294 L5.57955283,21.8504908 L5.79762211,22.0366032 C5.84362276,22.0758627 5.92915188,22.1466386 6.04538105,22.2391396 C6.2395866,22.3936982 6.44703569,22.5506071 6.65869101,22.6999868 C6.83251973,22.8226696 7.00171311,22.9348929 7.16340153,23.0336796 C7.53716448,23.2620373 7.8524912,23.4067984 8.0726886,23.4456252 C8.33879012,23.4925461 8.7306321,23.4814648 9.21189601,23.4198781 C9.37698908,23.2242573 9.62398431,23.1000061 9.89999998,23.1000061 C10.1282465,23.1000061 10.3366482,23.1849714 10.4953022,23.3249988 C11.2213243,23.3151222 12.5943406,23.1160583 13.573736,21.8820225 C13.9771592,21.3737102 14.2665494,20.7493254 14.4741167,20.1190309 L12.5358984,19 L12.5358984,15 L16,13 L19.4641016,15 L19.4641016,19 L16,21 L15.7817655,20.8740022 C15.4406159,21.6585483 15.0324508,22.3961102 14.5632022,22.8988764 C13.4440981,24.0979166 11.5680378,24.4522398 10.6072742,24.5566306 C10.4424713,24.7657487 10.1869144,24.9000061 9.89999998,24.9000061 C9.74069596,24.9000061 9.5910589,24.8586169 9.46125561,24.7860053 C9.40590602,24.8146752 9.35222091,24.843005 9.3002872,24.8709659 C9.06688108,24.9966309 8.87277215,25.1127665 8.72477994,25.2163918 C8.55991614,25.3318307 8.3540127,25.5137186 8.11903894,25.7483897 C8.02349209,25.8438135 7.92416603,25.946931 7.82186412,26.0565926 C7.61076544,26.282878 7.39705633,26.5259861 7.19200719,26.769168 C7.06902573,26.9150201 6.9765361,27.0281482 6.92554721,27.0920165 L6.74667857,27.3160657 L6.29858013,26.9583284 L6.47744877,26.7342792 C6.49124636,26.7169965 6.51682629,26.6853113 6.55283348,26.6412693 C6.6125222,26.5682614 6.67991217,26.4870093 6.75365496,26.3995527 C6.96445259,26.1495532 7.18428449,25.8994801 7.40259606,25.6654629 C7.50930962,25.5510722 7.61328015,25.4431329 7.71385724,25.3426854 C7.97033125,25.0865418 8.19882743,24.8846962 8.39590091,24.7467039 C8.51029567,24.6666038 8.64468804,24.5824411 8.79774105,24.4943519 C8.24002169,24.6052502 7.80273277,24.7011902 7.52187581,24.7764456 C7.48268715,24.7869462 7.44269552,24.7982943 7.40194291,24.8104653 C7.20195319,24.8701934 6.98662544,24.9487771 6.76148793,25.0423597 C6.52700555,25.1398266 6.29473679,25.248059 6.07564102,25.3586049 C5.94456833,25.4247383 5.84766619,25.4765881 5.79558859,25.5057422 L5.54542934,25.6457864 L5.26534084,25.1454679 L5.51550008,25.0054237 C5.57439887,24.9724509 5.67846115,24.91677 5.81735253,24.8466916 C6.04819686,24.7302179 6.29289112,24.6161955 6.5414063,24.5128956 C6.78371284,24.4121763 7.01724363,24.3269495 7.23785996,24.2610611 C7.28373288,24.2473609 7.32894514,24.2345314 7.37347335,24.2226001 C7.57411969,24.168837 7.84467264,24.1063317 8.17571739,24.0363442 Z M16.1647973,19.9048542 L18.5980762,18.5 L18.5980762,15.5 L16,14 L13.4019238,15.5 L13.4019238,18.5 L14.7117466,19.2562266 C14.7610775,19.039048 14.8019818,18.8274986 14.8358961,18.6264914 C14.3297566,18.2635955 14,17.6703072 14,17 C14,15.8954305 14.8954305,15 16,15 C17.1045695,15 18,15.8954305 18,17 C18,17.9368288 17.3558808,18.7232155 16.4863493,18.9404531 C16.3916081,19.2475878 16.2842793,19.5736394 16.1647973,19.9048542 Z"/>
</svg>
