<svg xmlns="http://www.w3.org/2000/svg" width="34" height="34" viewBox="0 0 34 34">
  <g fill="none" fill-rule="evenodd">
    <path fill="#333333" d="M10.2320997,3 L8,4.28870336 L8,11.2887034 L12.0621778,13.6340028 L12.0621778,20.7890884 C12.0621778,21.9012701 12.9576083,22.7887034 14.0621778,22.7887034 C15.1744482,22.7887034 16.0621778,21.8934452 16.0621778,20.7890884 L16.0621778,13.6340028 L20.1243557,11.2887034 L20.1243557,4.28870336 L17.892256,3 L17.892256,9.28870336 L14.0620507,11.2887034 L10.2320997,9.28870336 L10.2320997,3 Z M15.2378952,26.8250476 C15.1665319,26.8188737 15.0989609,26.8102259 15.0352995,26.7990007 C14.7277759,26.744776 14.3566748,26.5744097 13.9266392,26.3116712 C13.7534116,26.2058344 13.5738474,26.0867323 13.3902441,25.9571508 C13.1688567,25.8009026 12.9528101,25.6374907 12.7505057,25.4764867 C12.6288288,25.3796501 12.5383152,25.3047496 12.4875751,25.2614451 L12.2695058,25.0753327 L12.6417307,24.6391942 L12.8597999,24.8253066 C12.9058006,24.8645661 12.9913297,24.9353419 13.1075589,25.027843 C13.3017644,25.1824015 13.5092135,25.3393105 13.7208688,25.4886901 C13.8946976,25.6113729 14.0638909,25.7235963 14.2255794,25.822383 C14.5993423,26.0507407 14.914669,26.1955018 15.1348664,26.2343286 C15.4009679,26.2812494 15.7928099,26.2701681 16.2740738,26.2085815 C16.4391669,26.0129607 16.6861621,25.8887095 16.9621778,25.8887095 C17.1904243,25.8887095 17.3988261,25.9736747 17.55748,26.1137021 C18.2835021,26.1038255 19.6565184,25.9047616 20.6359138,24.6707258 C21.039337,24.1624135 21.3287272,23.5380288 21.5362945,22.9077342 L19.5980762,21.7887034 L19.5980762,17.7887034 L23.0621778,15.7887034 L26.5262794,17.7887034 L26.5262794,21.7887034 L23.0621778,23.7887034 L22.8439433,23.6627056 C22.5027938,24.4472516 22.0946286,25.1848135 21.6253801,25.6875798 C20.5062759,26.8866199 18.6302156,27.2409432 17.669452,27.345334 C17.5046492,27.5544521 17.2490922,27.6887094 16.9621778,27.6887094 C16.8028738,27.6887094 16.6532367,27.6473202 16.5234334,27.5747087 C16.4680838,27.6033786 16.4143987,27.6317084 16.362465,27.6596693 C16.1290589,27.7853343 15.93495,27.9014699 15.7869578,28.0050951 C15.622094,28.120534 15.4161905,28.3024219 15.1812168,28.537093 C15.0856699,28.6325168 14.9863439,28.7356344 14.8840419,28.845296 C14.6729433,29.0715814 14.4592342,29.3146895 14.254185,29.5578713 C14.1312036,29.7037235 14.0387139,29.8168516 13.987725,29.8807198 L13.8088564,30.104769 L13.360758,29.7470318 L13.5396266,29.5229826 C13.5534242,29.5056998 13.5790041,29.4740146 13.6150113,29.4299727 C13.6747,29.3569648 13.74209,29.2757127 13.8158328,29.188256 C14.0266304,28.9382566 14.2464623,28.6881834 14.4647739,28.4541663 C14.5714874,28.3397756 14.675458,28.2318363 14.7760351,28.1313888 C15.0325091,27.8752451 15.2610053,27.6733996 15.4580787,27.5354072 C15.5724735,27.4553071 15.7068659,27.3711444 15.8599189,27.2830553 C15.3021995,27.3939535 14.8649106,27.4898936 14.5840536,27.565149 C14.544865,27.5756495 14.5048733,27.5869976 14.4641207,27.5991686 C14.264131,27.6588968 14.0488033,27.7374804 13.8236658,27.831063 C13.5891834,27.92853 13.3569146,28.0367624 13.1378188,28.1473083 C13.0067462,28.2134417 12.909844,28.2652914 12.8577664,28.2944455 L12.6076072,28.4344898 L12.3275187,27.9341713 L12.5776779,27.7941271 C12.6365767,27.7611543 12.740639,27.7054733 12.8795304,27.635395 C13.1103747,27.5189213 13.3550689,27.4048989 13.6035841,27.3015989 C13.8458907,27.2008797 14.0794215,27.1156529 14.3000378,27.0497645 C14.3459107,27.0360642 14.391123,27.0232347 14.4356512,27.0113034 C14.6362975,26.9575404 14.9068505,26.8950351 15.2378952,26.8250476 Z M23.2269751,22.6935576 L25.660254,21.2887034 L25.660254,18.2887034 L23.0621778,16.7887034 L20.4641016,18.2887034 L20.4641016,21.2887034 L21.7739245,22.0449299 C21.8232553,21.8277513 21.8641597,21.616202 21.8980739,21.4151947 C21.3919344,21.0522989 21.0621778,20.4590105 21.0621778,19.7887034 C21.0621778,18.6841339 21.9576083,17.7887034 23.0621778,17.7887034 C24.1667473,17.7887034 25.0621778,18.6841339 25.0621778,19.7887034 C25.0621778,20.7255322 24.4180586,21.5119189 23.5485271,21.7291565 C23.453786,22.0362912 23.3464571,22.3623428 23.2269751,22.6935576 Z"/>
  </g>
</svg>
