<svg xmlns="http://www.w3.org/2000/svg" width="24" height="18" viewBox="0 0 24 18">
  <path fill="#000000" fill-rule="evenodd" d="M17.6046472,12.2999878 L13,9 L13,11.2999878 L16,13.2999878 L16,13.2999878 L13,15.2999878 L13,17.5 L17.5714327,14.2999878 L24,14.2999878 L24,12.2999878 L17.6046472,12.2999878 Z M8.5,14.2999878 L0,14.2999878 L0,12.2999878 L8.5,12.2999878 L7,11.2999878 L7,9.79998779 L12,13.2999878 L11,13.2999878 L12,13.2999878 L7,16.7999878 L7,15.2999878 L8.5,14.2999878 Z M17.6046472,3.29998779 L13,0 L13,2.29998779 L16,4.29998779 L16,4.29998779 L13,6.29998779 L13,8.5 L17.5714327,5.29998779 L24,5.29998779 L24,3.29998779 L17.6046472,3.29998779 Z M8.5,5.29998779 L0,5.29998779 L0,3.29998779 L8.5,3.29998779 L7,2.29998779 L7,0.799987793 L12,4.29998779 L11,4.29998779 L12,4.29998779 L7,7.79998779 L7,6.29998779 L8.5,5.29998779 Z"/>
</svg>
