<svg xmlns="http://www.w3.org/2000/svg" width="34" height="34" viewBox="0 0 34 34">
  <g fill="none" fill-rule="evenodd">
    <path fill="#000000" d="M22.6046472,20.2999878 L18,17 L18,19.2999878 L21,21.2999878 L21,21.2999878 L18,23.2999878 L18,25.5 L22.5714327,22.2999878 L29,22.2999878 L29,20.2999878 L22.6046472,20.2999878 Z M13.5,22.2999878 L5,22.2999878 L5,20.2999878 L13.5,20.2999878 L12,19.2999878 L12,17.7999878 L17,21.2999878 L16,21.2999878 L17,21.2999878 L12,24.7999878 L12,23.2999878 L13.5,22.2999878 Z M22.6046472,11.2999878 L18,8 L18,10.2999878 L21,12.2999878 L21,12.2999878 L18,14.2999878 L18,16.5 L22.5714327,13.2999878 L29,13.2999878 L29,11.2999878 L22.6046472,11.2999878 Z M13.5,13.2999878 L5,13.2999878 L5,11.2999878 L13.5,11.2999878 L12,10.2999878 L12,8.79998779 L17,12.2999878 L16,12.2999878 L17,12.2999878 L12,15.7999878 L12,14.2999878 L13.5,13.2999878 Z"/>
  </g>
</svg>
