<svg xmlns="http://www.w3.org/2000/svg" width="19" height="24" viewBox="0 0 19 24" xmlns:xlink="http://www.w3.org/1999/xlink">
  <defs>
    <path id="a" d="M9,18 L19,24 L19,0 L9,6 L4,6 L4,18 L9,18 Z M10,8 L17,4 L17,20 L10,16 L10,8 Z M6,8 L8,8 L8,16 L6,16 L6,8 Z M0,14.2857143 L4,14.2857143 L4,16.2857143 L0,16.2857143 L0,14.2857143 Z M0,8 L4,8 L4,10 L0,10 L0,8 Z"/>
    <mask id="b" width="19" height="24" x="0" y="0" fill="white">
      <use xlink:href="#a"/>
    </mask>
  </defs>
  <use fill="none" fill-rule="evenodd" stroke="#000000" stroke-width="20" mask="url(#b)" xlink:href="#a"/>
</svg>
