<svg xmlns="http://www.w3.org/2000/svg" width="30" height="22" viewBox="0 0 30 22">
  <g fill="#333333" fill-rule="evenodd">
    <path d="M0,11 L13,0 L30,0 L30,22 L13,22 L0,11 Z M3,11 L14,2 L28,2 L28,20 L14,20 L3,11 Z"/>
    <path d="M14.5168945,12.4052734 L14.3000977,13 L12.8733399,13 L14.6487305,8.79296875 L16.0754883,8.79296875 L17.7864258,13 L16.3040039,13 L16.0930664,12.4052734 L14.5168945,12.4052734 Z M15.3196289,10.1787109 L14.8772461,11.4091797 L15.7532227,11.4091797 L15.3196289,10.1787109 Z M20.9961914,9.05078125 C21.3399431,9.22265711 21.6060537,9.46777185 21.7945313,9.78613281 C21.9830088,10.1044938 22.0772461,10.4736307 22.0772461,10.8935547 C22.0772461,11.3173849 21.9810557,11.6874984 21.7886719,12.0039062 C21.5962881,12.3203141 21.3233416,12.5654288 20.9698242,12.7392578 C20.6163068,12.9130868 20.2051781,13 19.7364258,13 L17.9112305,13 L17.9112305,8.79296875 L19.7891602,8.79296875 C20.2501,8.79296875 20.6524397,8.87890539 20.9961914,9.05078125 L20.9961914,9.05078125 Z M19.3057617,11.9189453 L19.8272461,11.9189453 C20.0792005,11.9189453 20.2798821,11.8271494 20.4292969,11.6435547 C20.5787117,11.45996 20.653418,11.2138687 20.653418,10.9052734 C20.653418,10.5927719 20.5723641,10.3427744 20.4102539,10.1552734 C20.2481437,9.9677725 20.031349,9.87402344 19.7598633,9.87402344 L19.3057617,9.87402344 L19.3057617,11.9189453 Z M25.3895508,8.96142578 C25.7137712,9.10107492 25.9832997,9.28710821 26.1981445,9.51953125 L25.3954102,10.4746094 C25.2723627,10.3027335 25.1234384,10.1655279 24.9486328,10.0629883 C24.7738272,9.96044871 24.6043953,9.90917969 24.440332,9.90917969 C24.1883776,9.90917969 23.9803719,9.99951082 23.8163086,10.1801758 C23.6522453,10.3608407 23.5702148,10.5908189 23.5702148,10.8701172 C23.5702148,11.0537119 23.6073238,11.2197258 23.681543,11.3681641 C23.7557621,11.5166023 23.859765,11.6328121 23.9935547,11.7167969 C24.1273444,11.8007817 24.2762687,11.8427734 24.440332,11.8427734 C24.5926765,11.8427734 24.7557608,11.7998051 24.9295898,11.7138672 C25.1034188,11.6279293 25.2586907,11.5107429 25.3954102,11.3623047 L26.1981445,12.2207031 C25.9618152,12.4765638 25.6786149,12.680175 25.3485352,12.831543 C25.0184554,12.9829109 24.6922868,13.0585938 24.3700195,13.0585938 C23.9461893,13.0585938 23.5648454,12.9648447 23.2259766,12.7773438 C22.8871077,12.5898428 22.6219736,12.3310563 22.4305664,12.0009766 C22.2391592,11.6708968 22.143457,11.2998067 22.143457,10.8876953 C22.143457,10.4794901 22.2411123,10.1132829 22.4364258,9.7890625 C22.6317393,9.46484213 22.9027326,9.21093842 23.2494141,9.02734375 C23.5960955,8.84374908 23.9872049,8.75195312 24.4227539,8.75195312 C24.743068,8.75195312 25.0653304,8.82177665 25.3895508,8.96142578 L25.3895508,8.96142578 Z"/>
  </g>
</svg>
