<svg xmlns="http://www.w3.org/2000/svg" width="34" height="34" viewBox="0 0 34 34">
  <g fill="none" fill-rule="evenodd">
    <path fill="#333333" d="M21,7 L27,7 L27,4 L7,4 L7,7 L13,7 L13,8 L7,8 L7,10 L13,10 L13,7 L14,7 L14,10 L17,10 L17,11 L14,11 L14,12 L13,12 L13,11 L7,11 L7,18 L13,18 L13,19 L7,19 L7,25 L11,25 L11,23 L13,24 L13,21 L14,21 L14,22 L22,22 L22,23 L14,23 L14,24.5 L16,25.5 L11,28 L11,26 L7,26 L7,30 L27,30 L27,21 L22,21 L22,22 L21,22 L21,21 L14,21 L14,20 L19,20 L19,13 L13,13 L13,12 L19,12 L19,9 L17,8 L17,10 L16,10 L16,7 L17,7 L21,5 L21,7 Z M21,8 L27,8 L27,20 L22,20 L22,13 L21,13 L21,20 L20,20 L20,13 L22,13 L22,12 L20,12 L20,9.5 L21,10 L21,8 Z M29,21 L29,32 L5,32 L5,26 L3,26 L3,25 L5,25 L5,19 L3,19 L3,18 L5,18 L5,11 L3,11 L3,10 L5,10 L5,8 L3,8 L3,7 L5,7 L5,2 L29,2 L29,7 L31,7 L31,8 L29,8 L29,20 L31,20 L31,21 L29,21 Z M13,18 L14,18 L14,22 L13,22 L13,18 Z"/>
  </g>
</svg>
