<svg xmlns="http://www.w3.org/2000/svg" width="28" height="30" viewBox="0 0 28 30">
  <path fill="#333333" fill-rule="evenodd" d="M18,5 L24,5 L24,2 L4,2 L4,5 L10,5 L10,6 L4,6 L4,8 L10,8 L10,5 L11,5 L11,8 L14,8 L14,9 L11,9 L11,10 L10,10 L10,9 L4,9 L4,16 L10,16 L10,17 L4,17 L4,23 L8,23 L8,21 L10,22 L10,19 L11,19 L11,20 L19,20 L19,21 L11,21 L11,22.5 L13,23.5 L8,26 L8,24 L4,24 L4,28 L24,28 L24,19 L19,19 L19,20 L18,20 L18,19 L11,19 L11,18 L16,18 L16,11 L10,11 L10,10 L16,10 L16,7 L14,6 L14,8 L13,8 L13,5 L14,5 L18,3 L18,5 Z M18,6 L24,6 L24,18 L19,18 L19,11 L18,11 L18,18 L17,18 L17,11 L19,11 L19,10 L17,10 L17,7.5 L18,8 L18,6 Z M26,19 L26,30 L2,30 L2,24 L0,24 L0,23 L2,23 L2,17 L0,17 L0,16 L2,16 L2,9 L0,9 L0,8 L2,8 L2,6 L0,6 L0,5 L2,5 L2,0 L26,0 L26,5 L28,5 L28,6 L26,6 L26,18 L28,18 L28,19 L26,19 Z M10,16 L11,16 L11,20 L10,20 L10,16 Z"/>
</svg>
