<svg xmlns="http://www.w3.org/2000/svg" width="34" height="34" viewBox="0 0 34 34">
  <g fill="none" fill-rule="evenodd">
    <path fill="#333333" d="M14.5,8.44817587 C13.7134515,8.15733469 12.873058,8 12,8 C7.581722,8 4,12.0294373 4,17 C4,20.4829314 5.75861424,23.5037731 8.33137595,25 L3,25 L3,27 L31,27 L31,25 L25.6686241,25 C28.2413858,23.5037731 30,20.4829314 30,17 C30,12.0294373 26.418278,8 22,8 C21.126942,8 20.2865485,8.15733469 19.5,8.44817587 C18.7134515,8.15733469 17.873058,8 17,8 C16.126942,8 15.2865485,8.15733469 14.5,8.44817587 Z M11.9711715,23.9999209 C8.67072544,23.981807 6,20.854776 6,17 C6,13.145224 8.67072544,10.018193 11.9711715,10.0000791 C10.158778,11.6500361 9,14.1727791 9,17 C9,19.8272209 10.158778,22.3499639 11.9711715,23.9999209 Z M22.0288285,23.9999209 C25.3292746,23.981807 28,20.854776 28,17 C28,13.145224 25.3292746,10.018193 22.0288285,10.0000791 C23.841222,11.6500361 25,14.1727791 25,17 C25,19.8272209 23.841222,22.3499639 22.0288285,23.9999209 Z M17,24 C20.3137085,24 23,20.8659932 23,17 C23,13.1340068 20.3137085,10 17,10 C13.6862915,10 11,13.1340068 11,17 C11,20.8659932 13.6862915,24 17,24 Z"/>
  </g>
</svg>
