<svg xmlns="http://www.w3.org/2000/svg" width="28" height="19" viewBox="0 0 28 19">
  <g fill="#333333" fill-rule="evenodd">
    <rect width="28" height="2" y="17"/>
    <g transform="translate(1)">
      <path d="M8,18 C12.418278,18 16,13.9705627 16,9 C16,4.02943725 12.418278,0 8,0 C3.581722,0 0,4.02943725 0,9 C0,13.9705627 3.581722,18 8,18 Z M8,16 C11.3137085,16 14,12.8659932 14,9 C14,5.13400675 11.3137085,2 8,2 C4.6862915,2 2,5.13400675 2,9 C2,12.8659932 4.6862915,16 8,16 Z"/>
      <path d="M13,18 C17.418278,18 21,13.9705627 21,9 C21,4.02943725 17.418278,0 13,0 C8.581722,0 5,4.02943725 5,9 C5,13.9705627 8.581722,18 13,18 Z M13,16 C16.3137085,16 19,12.8659932 19,9 C19,5.13400675 16.3137085,2 13,2 C9.6862915,2 7,5.13400675 7,9 C7,12.8659932 9.6862915,16 13,16 Z"/>
      <path d="M18,18 C22.418278,18 26,13.9705627 26,9 C26,4.02943725 22.418278,0 18,0 C13.581722,0 10,4.02943725 10,9 C10,13.9705627 13.581722,18 18,18 Z M18,16 C21.3137085,16 24,12.8659932 24,9 C24,5.13400675 21.3137085,2 18,2 C14.6862915,2 12,5.13400675 12,9 C12,12.8659932 14.6862915,16 18,16 Z"/>
    </g>
  </g>
</svg>
