<svg xmlns="http://www.w3.org/2000/svg" width="34" height="34" viewBox="0 0 34 34">
  <g fill="none" fill-rule="evenodd">
    <path fill="#000000" d="M4.55000906,19 L6,19 C6,16.790861 7.34314575,15 9,15 C10.6568542,15 12,16.790861 12,19 L14,19 C14,16.790861 15.3431458,15 17,15 C18.6568542,15 20,16.790861 20,19 L20,20.5001831 L20,19 L22,19 C22,16.790861 23.3431458,15 25,15 C26.6568542,15 28,16.790861 28,19 L29.4499909,19 L33,19 L33,17 L29.8999819,17 C29.4367116,14.7177597 27.4189579,13 25,13 C23.364401,13 21.9122288,13.7853431 21,14.9995125 C20.0877712,13.7853431 18.635599,13 17,13 C15.364401,13 13.9122288,13.7853431 13,14.9995125 C12.0877712,13.7853431 10.635599,13 9,13 C6.58104209,13 4.56328845,14.7177597 4.10001812,17 L1,17 L1,19 L4.55000906,19 Z"/>
  </g>
</svg>
