<svg xmlns="http://www.w3.org/2000/svg" width="33" height="6" viewBox="0 0 33 6">
  <path fill="#000000" fill-rule="evenodd" d="M4.45003347,6 L5.90002441,6 C5.90002441,3.790861 7.24317016,2 8.90002441,2 C10.5568787,2 11.9000244,3.790861 11.9000244,6 L13.9000244,6 C13.9000244,3.790861 15.2431702,2 16.9000244,2 C18.5568787,2 19.9000244,3.790861 19.9000244,6 L19.9000244,7.50018309 L19.9000244,6 L21.9000244,6 C21.9000244,3.790861 23.2431702,2 24.9000244,2 C26.5568787,2 27.9000244,3.790861 27.9000244,6 L29.3500154,6 L32.9000244,6 L32.9000244,4 L29.8000063,4 C29.336736,1.71775968 27.3189823,0 24.9000244,0 C23.2644255,0 21.8122532,0.785343099 20.9000244,1.99951255 C19.9877956,0.785343099 18.5356234,0 16.9000244,0 C15.2644255,0 13.8122532,0.785343099 12.9000244,1.99951255 C11.9877956,0.785343099 10.5356234,0 8.90002441,0 C6.4810665,0 4.46331286,1.71775968 4.00004253,4 L0.900024414,4 L0.900024414,6 L4.45003347,6 Z"/>
</svg>
