<svg xmlns="http://www.w3.org/2000/svg" width="34" height="34" viewBox="0 0 34 34">
  <g fill="none" fill-rule="evenodd">
    <path fill="#333333" d="M17,26 L9.99339768,26 C9.44475929,26 9,25.5550537 9,25.0066023 L9,18 L11.630219,18 C11.9010381,19.1015572 12.5,20 12.5,20 L14,20 C14,20 13,18.5 13,17 C13,15.5 14,14 14,14 L12.5,14 C12.5,14 11.9010381,14.8984428 11.630219,16 L9,16 L9,8.99339768 C9,8.44475929 9.44494629,8 9.99339768,8 L17,8 L17,26 Z M19,26 L27,26 L27,18 L26,18 L26,16 L27,16 L27,8 L19,8 L19,26 Z M7,16 L7,7.991155 C7,6.89147046 7.88967395,6 8.991155,6 L29,6 L29,16 L32,16 L32,18 L29,18 L29,28 L8.991155,28 C7.89147046,28 7,27.1103261 7,26.008845 L7,18 L3,18 L3,16 L7,16 Z M20,15 L26,15 L26,19 L20,19 L20,15 Z"/>
  </g>
</svg>
