<svg xmlns="http://www.w3.org/2000/svg" width="29" height="22" viewBox="0 0 29 22">
  <path fill="#333333" fill-rule="evenodd" d="M14,20 L6.99339768,20 C6.44475929,20 6,19.5550537 6,19.0066023 L6,12 L8.63021902,12 C8.9010381,13.1015572 9.5,14 9.5,14 L11,14 C11,14 10,12.5 10,11 C10,9.5 11,8 11,8 L9.5,8 C9.5,8 8.9010381,8.89844284 8.63021902,10 L6,10 L6,2.99339768 C6,2.44475929 6.44494629,2 6.99339768,2 L14,2 L14,20 Z M16,20 L24,20 L24,12 L23,12 L23,10 L24,10 L24,2 L16,2 L16,20 Z M4,10 L4,1.991155 C4,0.891470458 4.88967395,0 5.991155,0 L26,0 L26,10 L29,10 L29,12 L26,12 L26,22 L5.991155,22 C4.89147046,22 4,21.1103261 4,20.008845 L4,12 L0,12 L0,10 L4,10 Z M17,9 L23,9 L23,13 L17,13 L17,9 Z"/>
</svg>
