<svg xmlns="http://www.w3.org/2000/svg" width="34" height="34" viewBox="0 0 34 34">
  <g fill="none" fill-rule="evenodd">
    <path fill="#333333" d="M27.8292943,18 C27.4174579,19.1651924 26.3062188,20 25,20 C24.1039301,20 23.2996177,19.6071396 22.7499071,18.9842631 C21.8154843,22.7339262 18.4077422,26 15,26 C9,26 5,26 5,26 C5,26 6.44561018,23.8315847 7.32983612,21 L3,21 L3,19 L7.81945284,19 C7.93316749,18.3433085 8,17.6716543 8,17 C8,16.3283457 7.93316749,15.6566915 7.81945284,15 L3,15 L3,13 L7.32983612,13 C6.44561018,10.1684153 5,8 5,8 L15,8 C18.4077422,8 21.8154843,11.2660738 22.7499071,15.0157369 C23.2996177,14.3928604 24.1039301,14 25,14 C26.3062188,14 27.4174579,14.8348076 27.8292943,16 L31,16 L31,18 L27.8292943,18 Z M25,16 C24.4477153,16 24,16.4477153 24,17 C24,17.5522847 24.4477153,18 25,18 C25.5522847,18 26,17.5522847 26,17 C26,16.4477153 25.5522847,16 25,16 Z M10,17 C10,13.5 8,10 8,10 L15,10 C18,10 21,13.5 21,17 C21,20.5 18,24 15,24 C9,24 8,24 8,24 C8,24 10,20.5 10,17 Z"/>
  </g>
</svg>
