<svg xmlns="http://www.w3.org/2000/svg" width="28" height="18" viewBox="0 0 28 18">
  <path fill="#333333" fill-rule="evenodd" d="M24.8292943,10 C24.4174579,11.1651924 23.3062188,12 22,12 C21.1039301,12 20.2996177,11.6071396 19.7499071,10.9842631 C18.8154843,14.7339262 15.4077422,18 12,18 C6,18 2,18 2,18 C2,18 3.44561018,15.8315847 4.32983612,13 L0,13 L0,11 L4.81945284,11 C4.93316749,10.3433085 5,9.67165426 5,9 C5,8.32834574 4.93316749,7.65669148 4.81945284,7 L0,7 L0,5 L4.32983612,5 C3.44561018,2.16841527 2,0 2,0 L12,0 C15.4077422,0 18.8154843,3.26607375 19.7499071,7.01573695 C20.2996177,6.39286042 21.1039301,6 22,6 C23.3062188,6 24.4174579,6.83480763 24.8292943,8 L28,8 L28,10 L24.8292943,10 Z M22,8 C21.4477153,8 21,8.44771525 21,9 C21,9.55228475 21.4477153,10 22,10 C22.5522847,10 23,9.55228475 23,9 C23,8.44771525 22.5522847,8 22,8 Z M7,9 C7,5.5 5,2 5,2 L12,2 C15,2 18,5.5 18,9 C18,12.5 15,16 12,16 C6,16 5,16 5,16 C5,16 7,12.5 7,9 Z"/>
</svg>
