<svg xmlns="http://www.w3.org/2000/svg" width="30" height="26" viewBox="0 0 30 26">
  <g fill="#333333" fill-rule="evenodd">
    <path d="M25,22 L25,26 L5,26 L5,22 L0,22 L0,20 L5,20 L5,18 L0,18 L0,16 L5,16 L5,14 L0,14 L0,12 L5,12 L5,10 L0,10 L0,8 L5,8 L5,6 L0,6 L0,4 L5,4 L5,0 L25,0 L25,4 L30,4 L30,6 L25,6 L25,8 L30,8 L30,10 L25,10 L25,12 L30,12 L30,14 L25,14 L25,16 L30,16 L30,18 L25,18 L25,20 L30,20 L30,22 L25,22 Z M7,2 L23,2 L23,24 L7,24 L7,2 Z"/>
    <path d="M10.37775,13.188 L10.37775,12.456 L11.27775,12.456 L11.27775,13.188 L11.75175,13.188 L11.75175,13.998 L11.27775,13.998 L11.27775,15 L10.37775,15 L10.37775,13.998 L8.69175001,13.998 L8.69175001,13.284 L10.18575,10.806 L11.20575,10.806 L9.78375001,13.188 L10.37775,13.188 Z M16.16325,12.36 L15.02925,14.652 L14.47125,14.652 L13.34325,12.36 L13.34325,15 L12.40725,15 L12.40725,10.806 L13.67325,10.806 L14.75325,13.11 L15.83925,10.806 L17.09925,10.806 L17.09925,15 L16.16325,15 L16.16325,12.36 Z M19.85475,15 L18.01875,15 L18.01875,10.806 L19.65075,10.806 C19.9347514,10.806 20.179749,10.8399997 20.38575,10.908 C20.591751,10.9760003 20.7467495,11.0679994 20.85075,11.184 C21.0387509,11.4000011 21.13275,11.6439986 21.13275,11.916 C21.13275,12.2440016 21.0267511,12.4879992 20.81475,12.648 C20.7427496,12.7040003 20.6927501,12.7389999 20.66475,12.753 C20.6367499,12.7670001 20.5867504,12.7899998 20.51475,12.822 C20.7747513,12.8780003 20.9817492,12.9949991 21.13575,13.173 C21.2897508,13.3510009 21.36675,13.5719987 21.36675,13.836 C21.36675,14.1280015 21.266751,14.3859989 21.06675,14.61 C20.8347488,14.8700013 20.4307529,15 19.85475,15 L19.85475,15 Z M18.95475,12.504 L19.39875,12.504 C19.6587513,12.504 19.8517494,12.4760003 19.97775,12.42 C20.1037506,12.3639997 20.16675,12.2430009 20.16675,12.057 C20.16675,11.8709991 20.1087506,11.7480003 19.99275,11.688 C19.8767494,11.6279997 19.6807514,11.598 19.40475,11.598 L18.95475,11.598 L18.95475,12.504 Z M18.95475,14.208 L19.59675,14.208 C19.8647513,14.208 20.0657493,14.1750003 20.19975,14.109 C20.3337507,14.0429997 20.40075,13.913001 20.40075,13.719 C20.40075,13.524999 20.3297507,13.3970003 20.18775,13.335 C20.0457493,13.2729997 19.8187516,13.242 19.50675,13.242 L18.95475,13.242 L18.95475,14.208 Z"/>
  </g>
</svg>
