<svg xmlns="http://www.w3.org/2000/svg" width="34" height="34" viewBox="0 0 34 34">
  <g fill="none" fill-rule="evenodd">
    <path fill="#333333" d="M10,11.0068455 C10,10.4507801 10.4499488,10 11.0068455,10 L22.9931545,10 C23.5492199,10 24,10.4499488 24,11.0068455 L24,22.9931545 C24,23.5492199 23.5500512,24 22.9931545,24 L11.0068455,24 C10.4507801,24 10,23.5500512 10,22.9931545 L10,11.0068455 Z M11.5,4.99980749 C11.5,4.44762906 11.9438648,4 12.5,4 C13.0522847,4 13.5,4.44371665 13.5,4.99980749 L13.5,8.00019251 C13.5,8.55237094 13.0561352,9 12.5,9 C11.9477153,9 11.5,8.55628335 11.5,8.00019251 L11.5,4.99980749 Z M14.5,4.99980749 C14.5,4.44762906 14.9438648,4 15.5,4 C16.0522847,4 16.5,4.44371665 16.5,4.99980749 L16.5,8.00019251 C16.5,8.55237094 16.0561352,9 15.5,9 C14.9477153,9 14.5,8.55628335 14.5,8.00019251 L14.5,4.99980749 Z M17.5,4.99980749 C17.5,4.44762906 17.9438648,4 18.5,4 C19.0522847,4 19.5,4.44371665 19.5,4.99980749 L19.5,8.00019251 C19.5,8.55237094 19.0561352,9 18.5,9 C17.9477153,9 17.5,8.55628335 17.5,8.00019251 L17.5,4.99980749 Z M20.5,4.99980749 C20.5,4.44762906 20.9438648,4 21.5,4 C22.0522847,4 22.5,4.44371665 22.5,4.99980749 L22.5,8.00019251 C22.5,8.55237094 22.0561352,9 21.5,9 C20.9477153,9 20.5,8.55628335 20.5,8.00019251 L20.5,4.99980749 Z M11.5,25.9998075 C11.5,25.4476291 11.9438648,25 12.5,25 C13.0522847,25 13.5,25.4437166 13.5,25.9998075 L13.5,29.0001925 C13.5,29.5523709 13.0561352,30 12.5,30 C11.9477153,30 11.5,29.5562834 11.5,29.0001925 L11.5,25.9998075 Z M14.5,25.9998075 C14.5,25.4476291 14.9438648,25 15.5,25 C16.0522847,25 16.5,25.4437166 16.5,25.9998075 L16.5,29.0001925 C16.5,29.5523709 16.0561352,30 15.5,30 C14.9477153,30 14.5,29.5562834 14.5,29.0001925 L14.5,25.9998075 Z M17.5,25.9998075 C17.5,25.4476291 17.9438648,25 18.5,25 C19.0522847,25 19.5,25.4437166 19.5,25.9998075 L19.5,29.0001925 C19.5,29.5523709 19.0561352,30 18.5,30 C17.9477153,30 17.5,29.5562834 17.5,29.0001925 L17.5,25.9998075 Z M20.5,25.9998075 C20.5,25.4476291 20.9438648,25 21.5,25 C22.0522847,25 22.5,25.4437166 22.5,25.9998075 L22.5,29.0001925 C22.5,29.5523709 22.0561352,30 21.5,30 C20.9477153,30 20.5,29.5562834 20.5,29.0001925 L20.5,25.9998075 Z M4.99980749,22.5 C4.44762906,22.5 4,22.0561352 4,21.5 C4,20.9477153 4.44371665,20.5 4.99980749,20.5 L8.00019251,20.5 C8.55237094,20.5 9,20.9438648 9,21.5 C9,22.0522847 8.55628335,22.5 8.00019251,22.5 L4.99980749,22.5 Z M4.99980749,19.5 C4.44762906,19.5 4,19.0561352 4,18.5 C4,17.9477153 4.44371665,17.5 4.99980749,17.5 L8.00019251,17.5 C8.55237094,17.5 9,17.9438648 9,18.5 C9,19.0522847 8.55628335,19.5 8.00019251,19.5 L4.99980749,19.5 Z M4.99980749,16.5 C4.44762906,16.5 4,16.0561352 4,15.5 C4,14.9477153 4.44371665,14.5 4.99980749,14.5 L8.00019251,14.5 C8.55237094,14.5 9,14.9438648 9,15.5 C9,16.0522847 8.55628335,16.5 8.00019251,16.5 L4.99980749,16.5 Z M4.99980749,13.5 C4.44762906,13.5 4,13.0561352 4,12.5 C4,11.9477153 4.44371665,11.5 4.99980749,11.5 L8.00019251,11.5 C8.55237094,11.5 9,11.9438648 9,12.5 C9,13.0522847 8.55628335,13.5 8.00019251,13.5 L4.99980749,13.5 Z M25.9998075,22.5 C25.4476291,22.5 25,22.0561352 25,21.5 C25,20.9477153 25.4437166,20.5 25.9998075,20.5 L29.0001925,20.5 C29.5523709,20.5 30,20.9438648 30,21.5 C30,22.0522847 29.5562834,22.5 29.0001925,22.5 L25.9998075,22.5 Z M25.9998075,19.5 C25.4476291,19.5 25,19.0561352 25,18.5 C25,17.9477153 25.4437166,17.5 25.9998075,17.5 L29.0001925,17.5 C29.5523709,17.5 30,17.9438648 30,18.5 C30,19.0522847 29.5562834,19.5 29.0001925,19.5 L25.9998075,19.5 Z M25.9998075,16.5 C25.4476291,16.5 25,16.0561352 25,15.5 C25,14.9477153 25.4437166,14.5 25.9998075,14.5 L29.0001925,14.5 C29.5523709,14.5 30,14.9438648 30,15.5 C30,16.0522847 29.5562834,16.5 29.0001925,16.5 L25.9998075,16.5 Z M25.9998075,13.5 C25.4476291,13.5 25,13.0561352 25,12.5 C25,11.9477153 25.4437166,11.5 25.9998075,11.5 L29.0001925,11.5 C29.5523709,11.5 30,11.9438648 30,12.5 C30,13.0522847 29.5562834,13.5 29.0001925,13.5 L25.9998075,13.5 Z M14,14.990778 C14,14.4435864 14.4509752,14 14.990778,14 L19.009222,14 C19.5564136,14 20,14.4509752 20,14.990778 L20,19.009222 C20,19.5564136 19.5490248,20 19.009222,20 L14.990778,20 C14.4435864,20 14,19.5490248 14,19.009222 L14,14.990778 Z M11,12 C11,11.4477153 11.4438648,11 12,11 C12.5522847,11 13,11.4438648 13,12 C13,12.5522847 12.5561352,13 12,13 C11.4477153,13 11,12.5561352 11,12 Z"/>
  </g>
</svg>
