<svg xmlns="http://www.w3.org/2000/svg" width="26" height="26" viewBox="0 0 26 26">
  <path fill="#333333" fill-rule="evenodd" d="M6,7.00684547 C6,6.45078007 6.44994876,6 7.00684547,6 L18.9931545,6 C19.5492199,6 20,6.44994876 20,7.00684547 L20,18.9931545 C20,19.5492199 19.5500512,20 18.9931545,20 L7.00684547,20 C6.45078007,20 6,19.5500512 6,18.9931545 L6,7.00684547 Z M7.5,0.999807492 C7.5,0.447629061 7.94386482,0 8.5,0 C9.05228475,0 9.5,0.443716645 9.5,0.999807492 L9.5,4.00019251 C9.5,4.55237094 9.05613518,5 8.5,5 C7.94771525,5 7.5,4.55628335 7.5,4.00019251 L7.5,0.999807492 Z M10.5,0.999807492 C10.5,0.447629061 10.9438648,0 11.5,0 C12.0522847,0 12.5,0.443716645 12.5,0.999807492 L12.5,4.00019251 C12.5,4.55237094 12.0561352,5 11.5,5 C10.9477153,5 10.5,4.55628335 10.5,4.00019251 L10.5,0.999807492 Z M13.5,0.999807492 C13.5,0.447629061 13.9438648,0 14.5,0 C15.0522847,0 15.5,0.443716645 15.5,0.999807492 L15.5,4.00019251 C15.5,4.55237094 15.0561352,5 14.5,5 C13.9477153,5 13.5,4.55628335 13.5,4.00019251 L13.5,0.999807492 Z M16.5,0.999807492 C16.5,0.447629061 16.9438648,0 17.5,0 C18.0522847,0 18.5,0.443716645 18.5,0.999807492 L18.5,4.00019251 C18.5,4.55237094 18.0561352,5 17.5,5 C16.9477153,5 16.5,4.55628335 16.5,4.00019251 L16.5,0.999807492 Z M7.5,21.9998075 C7.5,21.4476291 7.94386482,21 8.5,21 C9.05228475,21 9.5,21.4437166 9.5,21.9998075 L9.5,25.0001925 C9.5,25.5523709 9.05613518,26 8.5,26 C7.94771525,26 7.5,25.5562834 7.5,25.0001925 L7.5,21.9998075 Z M10.5,21.9998075 C10.5,21.4476291 10.9438648,21 11.5,21 C12.0522847,21 12.5,21.4437166 12.5,21.9998075 L12.5,25.0001925 C12.5,25.5523709 12.0561352,26 11.5,26 C10.9477153,26 10.5,25.5562834 10.5,25.0001925 L10.5,21.9998075 Z M13.5,21.9998075 C13.5,21.4476291 13.9438648,21 14.5,21 C15.0522847,21 15.5,21.4437166 15.5,21.9998075 L15.5,25.0001925 C15.5,25.5523709 15.0561352,26 14.5,26 C13.9477153,26 13.5,25.5562834 13.5,25.0001925 L13.5,21.9998075 Z M16.5,21.9998075 C16.5,21.4476291 16.9438648,21 17.5,21 C18.0522847,21 18.5,21.4437166 18.5,21.9998075 L18.5,25.0001925 C18.5,25.5523709 18.0561352,26 17.5,26 C16.9477153,26 16.5,25.5562834 16.5,25.0001925 L16.5,21.9998075 Z M0.999807492,18.5 C0.447629061,18.5 2.71788817e-17,18.0561352 6.123234e-17,17.5 C9.50500275e-17,16.9477153 0.443716645,16.5 0.999807492,16.5 L4.00019251,16.5 C4.55237094,16.5 5,16.9438648 5,17.5 C5,18.0522847 4.55628335,18.5 4.00019251,18.5 L0.999807492,18.5 Z M0.999807492,15.5 C0.447629061,15.5 2.71788817e-17,15.0561352 6.123234e-17,14.5 C9.50500275e-17,13.9477153 0.443716645,13.5 0.999807492,13.5 L4.00019251,13.5 C4.55237094,13.5 5,13.9438648 5,14.5 C5,15.0522847 4.55628335,15.5 4.00019251,15.5 L0.999807492,15.5 Z M0.999807492,12.5 C0.447629061,12.5 2.71788817e-17,12.0561352 6.123234e-17,11.5 C9.50500275e-17,10.9477153 0.443716645,10.5 0.999807492,10.5 L4.00019251,10.5 C4.55237094,10.5 5,10.9438648 5,11.5 C5,12.0522847 4.55628335,12.5 4.00019251,12.5 L0.999807492,12.5 Z M0.999807492,9.5 C0.447629061,9.5 2.71788817e-17,9.05613518 6.123234e-17,8.5 C9.50500275e-17,7.94771525 0.443716645,7.5 0.999807492,7.5 L4.00019251,7.5 C4.55237094,7.5 5,7.94386482 5,8.5 C5,9.05228475 4.55628335,9.5 4.00019251,9.5 L0.999807492,9.5 Z M21.9998075,18.5 C21.4476291,18.5 21,18.0561352 21,17.5 C21,16.9477153 21.4437166,16.5 21.9998075,16.5 L25.0001925,16.5 C25.5523709,16.5 26,16.9438648 26,17.5 C26,18.0522847 25.5562834,18.5 25.0001925,18.5 L21.9998075,18.5 Z M21.9998075,15.5 C21.4476291,15.5 21,15.0561352 21,14.5 C21,13.9477153 21.4437166,13.5 21.9998075,13.5 L25.0001925,13.5 C25.5523709,13.5 26,13.9438648 26,14.5 C26,15.0522847 25.5562834,15.5 25.0001925,15.5 L21.9998075,15.5 Z M21.9998075,12.5 C21.4476291,12.5 21,12.0561352 21,11.5 C21,10.9477153 21.4437166,10.5 21.9998075,10.5 L25.0001925,10.5 C25.5523709,10.5 26,10.9438648 26,11.5 C26,12.0522847 25.5562834,12.5 25.0001925,12.5 L21.9998075,12.5 Z M21.9998075,9.5 C21.4476291,9.5 21,9.05613518 21,8.5 C21,7.94771525 21.4437166,7.5 21.9998075,7.5 L25.0001925,7.5 C25.5523709,7.5 26,7.94386482 26,8.5 C26,9.05228475 25.5562834,9.5 25.0001925,9.5 L21.9998075,9.5 Z M10,10.990778 C10,10.4435864 10.4509752,10 10.990778,10 L15.009222,10 C15.5564136,10 16,10.4509752 16,10.990778 L16,15.009222 C16,15.5564136 15.5490248,16 15.009222,16 L10.990778,16 C10.4435864,16 10,15.5490248 10,15.009222 L10,10.990778 Z M7,8 C7,7.44771525 7.44386482,7 8,7 C8.55228475,7 9,7.44386482 9,8 C9,8.55228475 8.55613518,9 8,9 C7.44771525,9 7,8.55613518 7,8 Z"/>
</svg>
