<svg xmlns="http://www.w3.org/2000/svg" width="34" height="34" viewBox="0 0 34 34">
  <g fill="none" fill-rule="evenodd">
    <path fill="#333333" d="M16.1617622,7.17060318 L13.8104356,11.4125088 L12.3110875,10.5814066 L14.6624141,6.33950097 L13.2582471,7.10468648 L12.1337361,6.48135982 L16.9392385,4 L16.5029098,4.78715774 L16.9392385,4 L17.3785604,9.35494283 L21.9392385,7 L21.5029098,7.78715774 L21.9392385,7 L22.3814543,12.3902175 L21.2569433,11.7668909 L21.1617622,10.1706032 L18.8104356,14.4125088 L17.3110875,13.5814066 L19.6624141,9.33950097 L18.2582471,10.1046865 L17.1337361,9.48135982 L17.3471121,9.37118137 L16.2569433,8.76689089 L16.1617622,7.17060318 Z M24,21.6095899 L24,30.4984788 L26,30.4984788 L26,10.4984788 L24,10.4984788 L24,19.3873677 L8,10.4984788 L8,30.4984788 L24,21.6095899 Z M2,19.4984788 L8,19.4984788 L8,21.4984788 L2,21.4984788 L2,19.4984788 Z M26,19.4984788 L32,19.4984788 L32,21.4984788 L26,21.4984788 L26,19.4984788 Z M10,13.9984788 L22,20.4984788 L10,26.9984788 L10,13.9984788 Z"/>
  </g>
</svg>
