<svg xmlns="http://www.w3.org/2000/svg" width="30" height="27" viewBox="0 0 30 27">
  <path fill="#333333" fill-rule="evenodd" d="M14.1617622,3.67212435 L11.8104356,7.91402993 L10.3110875,7.08292773 L12.6624141,2.84102215 L11.2582471,3.60620765 L10.1337361,2.98288099 L14.9392385,0.501521171 L14.5029098,1.28867891 L14.9392385,0.501521171 L15.3785604,5.856464 L19.9392385,3.50152117 L19.5029098,4.28867891 L19.9392385,3.50152117 L20.3814543,8.89173871 L19.2569433,8.26841206 L19.1617622,6.67212435 L16.8104356,10.9140299 L15.3110875,10.0829277 L17.6624141,5.84102215 L16.2582471,6.60620765 L15.1337361,5.98288099 L15.3471121,5.87270254 L14.2569433,5.26841206 L14.1617622,3.67212435 Z M22,18.1111111 L22,27 L24,27 L24,7 L22,7 L22,15.8888889 L6,7 L6,27 L22,18.1111111 Z M0,16 L6,16 L6,18 L0,18 L0,16 Z M24,16 L30,16 L30,18 L24,18 L24,16 Z M8,10.5 L20,17 L8,23.5 L8,10.5 Z"/>
</svg>
