<svg xmlns="http://www.w3.org/2000/svg" width="47" height="34" viewBox="0 0 47 34">
  <g fill="none" fill-rule="evenodd">
    <path fill="#333333" d="M21,20.5 L19,20.5 L19,21.5 L21,21.5 L21,22.5 L23,21.5 L25,21.5 L25,20.5 L23,20.5 L21,19.5 L21,20.5 Z M21,12.5 L19,12.5 L19,13.5 L21,13.5 L21,14.5 L23,13.5 L25,13.5 L25,12.5 L23,12.5 L21,11.5 L21,12.5 Z M15.5,5 L15.5,6 L27,6 L27,28 L15.5,28 L15.5,29.5 L17.5,29.5 L17.5,30.5 L15.5,30.5 L15.5,31.5 L14.5,31.5 L14.5,30.5 L12.5,30.5 L12.5,29.5 L14.5,29.5 L14.5,28 L7,28 L7,6 L14.5,6 L14.5,5 L13.5,5 L15,2 L16.5,5 L15.5,5 Z M15.5,8 L25,8 L25,26 L15.5,26 L15.5,24 L19,24 L19,10 L11,10 L11,24 L14.5,24 L14.5,26 L9,26 L9,8 L14.5,8 L14.5,10 L15.5,10 L15.5,8 Z M12,11 L18,11 L18,23 L12,23 L12,11 Z M4,11 C2.8954305,11 2,11.8954305 2,13 C2,14.1045695 2.8954305,15 4,15 C5.1045695,15 6,14.1045695 6,13 C6,11.8954305 5.1045695,11 4,11 Z M4,12 C3.44771525,12 3,12.4477153 3,13 C3,13.5522847 3.44771525,14 4,14 C4.55228475,14 5,13.5522847 5,13 C5,12.4477153 4.55228475,12 4,12 Z M6,12.5 L7,12.5 L7,13.5 L6,13.5 L6,12.5 Z M30,11 C28.8954305,11 28,11.8954305 28,13 C28,14.1045695 28.8954305,15 30,15 C31.1045695,15 32,14.1045695 32,13 C32,11.8954305 31.1045695,11 30,11 Z M30,12 C29.4477153,12 29,12.4477153 29,13 C29,13.5522847 29.4477153,14 30,14 C30.5522847,14 31,13.5522847 31,13 C31,12.4477153 30.5522847,12 30,12 Z M27,12.5 L28,12.5 L28,13.5 L27,13.5 L27,12.5 Z M30,19 C28.8954305,19 28,19.8954305 28,21 C28,22.1045695 28.8954305,23 30,23 C31.1045695,23 32,22.1045695 32,21 C32,19.8954305 31.1045695,19 30,19 Z M30,20 C29.4477153,20 29,20.4477153 29,21 C29,21.5522847 29.4477153,22 30,22 C30.5522847,22 31,21.5522847 31,21 C31,20.4477153 30.5522847,20 30,20 Z M27,20.5 L28,20.5 L28,21.5 L27,21.5 L27,20.5 Z M12.5,31.5 L17.5,31.5 L17.5,32.5 L12.5,32.5 L12.5,31.5 Z M33,13.5 L34,13.5 L34,14.5 L33,14.5 L33,13.5 Z M45,13.5 L46,13.5 L46,14.5 L45,14.5 L45,13.5 Z M37,13.5 L38,13.5 L38,14.5 L37,14.5 L37,13.5 Z M34,11.5 L36,11.5 L36,12.5 L34,12.5 L34,11.5 Z M34,12.5 L35,12.5 L35,14.5 L34,14.5 L34,12.5 Z M36,11.5 L37,11.5 L37,14.5 L36,14.5 L36,11.5 Z M38,11.5 L40,11.5 L40,12.5 L38,12.5 L38,11.5 Z M38,12.5 L39,12.5 L39,14.5 L38,14.5 L38,12.5 Z M40,11.5 L41,11.5 L41,14.5 L40,14.5 L40,11.5 Z M41,13.5 L42,13.5 L42,14.5 L41,14.5 L41,13.5 Z M42,11.5 L44,11.5 L44,12.5 L42,12.5 L42,11.5 Z M42,12.5 L43,12.5 L43,14.5 L42,14.5 L42,12.5 Z M44,11.5 L45,11.5 L45,14.5 L44,14.5 L44,11.5 Z M33,21 L34.7142857,19.2222222 L36.8571429,21.6666667 L39,19 L41.1428571,21.6666667 L43.2857143,19.2222222 L45,21 L45,22.6099854 L43.2857143,20.8299866 L41.1428571,23.5 L39,20.8299866 L36.8571429,23.5 L34.7142857,20.8299866 L33,22.6099854 L33,21 Z"/>
  </g>
</svg>
