<svg xmlns="http://www.w3.org/2000/svg" width="44" height="31" viewBox="0 0 44 31">
  <path fill="#333333" fill-rule="evenodd" d="M19,18.5 L17,18.5 L17,19.5 L19,19.5 L19,20.5 L21,19.5 L23,19.5 L23,18.5 L21,18.5 L19,17.5 L19,18.5 Z M19,10.5 L17,10.5 L17,11.5 L19,11.5 L19,12.5 L21,11.5 L23,11.5 L23,10.5 L21,10.5 L19,9.5 L19,10.5 Z M13.5,3 L13.5,4 L25,4 L25,26 L13.5,26 L13.5,27.5 L15.5,27.5 L15.5,28.5 L13.5,28.5 L13.5,29.5 L12.5,29.5 L12.5,28.5 L10.5,28.5 L10.5,27.5 L12.5,27.5 L12.5,26 L5,26 L5,4 L12.5,4 L12.5,3 L11.5,3 L13,0 L14.5,3 L13.5,3 Z M13.5,6 L23,6 L23,24 L13.5,24 L13.5,22 L17,22 L17,8 L9,8 L9,22 L12.5,22 L12.5,24 L7,24 L7,6 L12.5,6 L12.5,8 L13.5,8 L13.5,6 Z M10,9 L16,9 L16,21 L10,21 L10,9 Z M2,9 C0.8954305,9 4.4408921e-16,9.8954305 4.4408921e-16,11 C0,12.1045695 0.8954305,13 2,13 C3.1045695,13 4,12.1045695 4,11 C4,9.8954305 3.1045695,9 2,9 Z M2,10 C1.44771525,10 1,10.4477153 1,11 C1,11.5522847 1.44771525,12 2,12 C2.55228475,12 3,11.5522847 3,11 C3,10.4477153 2.55228475,10 2,10 Z M4,10.5 L5,10.5 L5,11.5 L4,11.5 L4,10.5 Z M28,9 C26.8954305,9 26,9.8954305 26,11 C26,12.1045695 26.8954305,13 28,13 C29.1045695,13 30,12.1045695 30,11 C30,9.8954305 29.1045695,9 28,9 Z M28,10 C27.4477153,10 27,10.4477153 27,11 C27,11.5522847 27.4477153,12 28,12 C28.5522847,12 29,11.5522847 29,11 C29,10.4477153 28.5522847,10 28,10 Z M25,10.5 L26,10.5 L26,11.5 L25,11.5 L25,10.5 Z M28,17 C26.8954305,17 26,17.8954305 26,19 C26,20.1045695 26.8954305,21 28,21 C29.1045695,21 30,20.1045695 30,19 C30,17.8954305 29.1045695,17 28,17 Z M28,18 C27.4477153,18 27,18.4477153 27,19 C27,19.5522847 27.4477153,20 28,20 C28.5522847,20 29,19.5522847 29,19 C29,18.4477153 28.5522847,18 28,18 Z M25,18.5 L26,18.5 L26,19.5 L25,19.5 L25,18.5 Z M10.5,29.5 L15.5,29.5 L15.5,30.5 L10.5,30.5 L10.5,29.5 Z M31,11.5 L32,11.5 L32,12.5 L31,12.5 L31,11.5 Z M43,11.5 L44,11.5 L44,12.5 L43,12.5 L43,11.5 Z M35,11.5 L36,11.5 L36,12.5 L35,12.5 L35,11.5 Z M32,9.5 L34,9.5 L34,10.5 L32,10.5 L32,9.5 Z M32,10.5 L33,10.5 L33,12.5 L32,12.5 L32,10.5 Z M34,9.5 L35,9.5 L35,12.5 L34,12.5 L34,9.5 Z M36,9.5 L38,9.5 L38,10.5 L36,10.5 L36,9.5 Z M36,10.5 L37,10.5 L37,12.5 L36,12.5 L36,10.5 Z M38,9.5 L39,9.5 L39,12.5 L38,12.5 L38,9.5 Z M39,11.5 L40,11.5 L40,12.5 L39,12.5 L39,11.5 Z M40,9.5 L42,9.5 L42,10.5 L40,10.5 L40,9.5 Z M40,10.5 L41,10.5 L41,12.5 L40,12.5 L40,10.5 Z M42,9.5 L43,9.5 L43,12.5 L42,12.5 L42,9.5 Z M31,19 L32.7142857,17.2222222 L34.8571429,19.6666667 L37,17 L39.1428571,19.6666667 L41.2857143,17.2222222 L43,19 L43,20.6099854 L41.2857143,18.8299866 L39.1428571,21.5 L37,18.8299866 L34.8571429,21.5 L32.7142857,18.8299866 L31,20.6099854 L31,19 Z"/>
</svg>
