<svg xmlns="http://www.w3.org/2000/svg" width="26" height="18" viewBox="0 0 26 18">
  <g fill="#333333" fill-rule="evenodd">
    <path d="M22,4 L22,0 L4,0 L4,4 L0,4 L0,6 L4,6 L4,14 L12,14 L12,18 L14,18 L14,14 L22,14 L22,6 L26,6 L26,4 L22,4 Z M6,2 L20,2 L20,12 L6,12 L6,2 Z"/>
    <g transform="translate(7 4)">
      <path d="M0 2L0 0 .662952646 0 .662952646 2 0 2zM2.3356546 2L1.54874652.979108635 1.54874652 2 .945682451 2 .945682451 0 1.5 0 2.28969359 1.02785515 2.28969359 0 2.88857939 0 2.88857939 2 2.3356546 2zM7.62380952.127891156C7.78752916.213152354 7.91541904.331518517 8.00748299.482993197 8.09954695.634467878 8.14557823.804987714 8.14557823.994557823 8.14557823 1.185942 8.09954695 1.35782237 8.00748299 1.51020408 7.91541904 1.6625858 7.78752916 1.78231249 7.62380952 1.86938776 7.46008988 1.95646302 7.2761915 2 7.07210884 2 6.86802619 2 6.6841278 1.95691653 6.52040816 1.8707483 6.35668852 1.78458007 6.2290254 1.66485337 6.13741497 1.51156463 6.04580453 1.35827588 6 1.185942 6 .994557823 6 .803173646 6.04580453.632200299 6.13741497.481632653 6.2290254.331065007 6.35668852.213152354 6.52040816.127891156 6.6841278.0426299592 6.86802619 0 7.07210884 0 7.2761915 0 7.46008988.0426299592 7.62380952.127891156L7.62380952.127891156zM6.87278912.597278912C6.80884322.637188408 6.75782332.692063143 6.71972789.761904762 6.68163246.831746381 6.66258503.910203646 6.66258503.997278912 6.66258503 1.08435418 6.68163246 1.16326495 6.71972789 1.23401361 6.75782332 1.30476226 6.80884322 1.36054401 6.87278912 1.40136054 6.93673501 1.44217707 7.00589532 1.46258503 7.08027211 1.46258503 7.1546489 1.46258503 7.22244867 1.44217707 7.28367347 1.40136054 7.34489827 1.36054401 7.3931971 1.30476226 7.42857143 1.23401361 7.46394576 1.16326495 7.48163265 1.08435418 7.48163265.997278912 7.48163265.910203646 7.46394576.831746381 7.42857143.761904762 7.3931971.692063143 7.34489827.637188408 7.28367347.597278912 7.22244867.557369415 7.1546489.537414966 7.08027211.537414966 7.00589532.537414966 6.93673501.557369415 6.87278912.597278912L6.87278912.597278912zM10.0585034 1.5952381C9.98231254 1.72449044 9.87415036 1.82426269 9.73401361 1.89455782 9.59387685 1.96485296 9.42993291 2 9.24217687 2 9.05442083 2 8.88911636 1.96485296 8.7462585 1.89455782 8.60340065 1.82426269 8.49297091 1.72449044 8.41496599 1.5952381 8.33696106 1.46598575 8.29795918 1.31610063 8.29795918 1.14557823L8.29795918.019047619 8.94421769.019047619 8.94421769 1.14557823C8.94421769 1.2380957 8.9734691 1.31405866 9.03197279 1.37346939 9.09047648 1.43288012 9.16145083 1.46258503 9.24489796 1.46258503 9.32653102 1.46258503 9.39387729 1.43378714 9.44693878 1.37619048 9.50000027 1.31859382 9.52653061 1.24172384 9.52653061 1.14557823L9.52653061.019047619 10.1727891.019047619 10.1727891 1.14557823C10.1727891 1.31610063 10.1346943 1.46598575 10.0585034 1.5952381L10.0585034 1.5952381zM11.4993197.529251701L11.4993197 1.97278912 10.8530612 1.97278912 10.8530612.529251701 10.2979592.529251701 10.2979592.019047619 12.0571429.019047619 12.0571429.529251701 11.4993197.529251701zM4.91428571 5.94421769L4.91428571 6.74965986C4.8045346 6.82222259 4.66938856 6.88208593 4.50884354 6.9292517 4.34829852 6.97641747 4.19818664 7 4.0585034 7 3.85623482 7 3.67460398 6.95691653 3.51360544 6.8707483 3.3526069 6.78458007 3.22675782 6.66530688 3.13605442 6.51292517 3.04535102 6.36054346 3 6.18866309 3 5.99727891 3 5.8077088 3.04739182 5.63673546 3.14217687 5.48435374 3.23696193 5.33197203 3.36779962 5.21315235 3.53469388 5.12789116 3.70158814 5.04262996 3.89024838 5 4.10068027 5 4.25306199 5 4.40589493 5.02743737 4.55918367 5.08231293 4.71247242 5.13718848 4.84081581 5.20997687 4.94421769 5.30068027L4.57959184 5.74421769C4.51428539 5.68072531 4.43809567 5.63038567 4.35102041 5.59319728 4.26394514 5.55600888 4.17959224 5.53741497 4.09795918 5.53741497 4.01632612 5.53741497 3.94195045 5.55736941 3.87482993 5.59727891 3.80770941 5.63718841 3.75555574 5.69206314 3.71836735 5.76190476 3.68117895 5.83174638 3.66258503 5.91020365 3.66258503 5.99727891 3.66258503 6.08616824 3.68163246 6.16598604 3.71972789 6.23673469 3.75782332 6.30748335 3.8104305 6.36281159 3.87755102 6.40272109 3.94467154 6.44263059 4.01995423 6.46258503 4.10340136 6.46258503 4.17052188 6.46258503 4.2557818 6.44127005 4.35918367 6.39863946L4.35918367 5.94421769 4.91428571 5.94421769zM6.51020408 6.97278912L5.7414966 5.9755102 5.7414966 6.97278912 5.15238095 6.97278912 5.15238095 5.01904762 5.69387755 5.01904762 6.46530612 6.02312925 6.46530612 5.01904762 7.05034014 5.01904762 7.05034014 6.97278912 6.51020408 6.97278912zM8.76054422 5.13877551C8.9201822 5.2185945 9.04376373 5.33242556 9.13129252 5.48027211 9.2188213 5.62811865 9.26258503 5.79954551 9.26258503 5.99455782 9.26258503 6.1913842 9.21791428 6.36326457 9.12857143 6.51020408 9.03922858 6.65714359 8.91247248 6.77097465 8.74829932 6.85170068 8.58412616 6.93242671 8.39319837 6.97278912 8.1755102 6.97278912L7.32789116 6.97278912 7.32789116 5.01904762 8.2 5.01904762C8.41406003 5.01904762 8.60090623 5.05895652 8.76054422 5.13877551L8.76054422 5.13877551zM7.9755102 6.4707483L8.21768707 6.4707483C8.33469446 6.4707483 8.42789081 6.42811834 8.49727891 6.34285714 8.56666701 6.25759595 8.60136054 6.14331137 8.60136054 6 8.60136054 5.85487456 8.5637192 5.73877595 8.48843537 5.65170068 8.41315155 5.56462541 8.31247229 5.52108844 8.18639456 5.52108844L7.9755102 5.52108844 7.9755102 6.4707483z"/>
    </g>
  </g>
</svg>
