<svg xmlns="http://www.w3.org/2000/svg" width="34" height="34" viewBox="0 0 34 34">
  <g fill="none" fill-rule="evenodd">
    <g fill="#333333" transform="translate(3 6)">
      <path d="M0,0 L28,0 L28,22 L0,22 L0,0 Z M2,2 L26,2 L26,20 L2,20 L2,2 Z M4.5,6 C5.32842712,6 6,5.32842712 6,4.5 C6,3.67157288 5.32842712,3 4.5,3 C3.67157288,3 3,3.67157288 3,4.5 C3,5.32842712 3.67157288,6 4.5,6 Z M4.5,5 C4.77614237,5 5,4.77614237 5,4.5 C5,4.22385763 4.77614237,4 4.5,4 C4.22385763,4 4,4.22385763 4,4.5 C4,4.77614237 4.22385763,5 4.5,5 Z M14,6 C14.8284271,6 15.5,5.32842712 15.5,4.5 C15.5,3.67157288 14.8284271,3 14,3 C13.1715729,3 12.5,3.67157288 12.5,4.5 C12.5,5.32842712 13.1715729,6 14,6 Z M14,5 C14.2761424,5 14.5,4.77614237 14.5,4.5 C14.5,4.22385763 14.2761424,4 14,4 C13.7238576,4 13.5,4.22385763 13.5,4.5 C13.5,4.77614237 13.7238576,5 14,5 Z M9.19995117,6 C10.0283783,6 10.6999512,5.32842712 10.6999512,4.5 C10.6999512,3.67157288 10.0283783,3 9.19995117,3 C8.37152405,3 7.69995117,3.67157288 7.69995117,4.5 C7.69995117,5.32842712 8.37152405,6 9.19995117,6 Z M9.19995117,5 C9.47609355,5 9.69995117,4.77614237 9.69995117,4.5 C9.69995117,4.22385763 9.47609355,4 9.19995117,4 C8.9238088,4 8.69995117,4.22385763 8.69995117,4.5 C8.69995117,4.77614237 8.9238088,5 9.19995117,5 Z M19,6 C19.8284271,6 20.5,5.32842712 20.5,4.5 C20.5,3.67157288 19.8284271,3 19,3 C18.1715729,3 17.5,3.67157288 17.5,4.5 C17.5,5.32842712 18.1715729,6 19,6 Z M19,5 C19.2761424,5 19.5,4.77614237 19.5,4.5 C19.5,4.22385763 19.2761424,4 19,4 C18.7238576,4 18.5,4.22385763 18.5,4.5 C18.5,4.77614237 18.7238576,5 19,5 Z M9.19995117,19 C10.0283783,19 10.6999512,18.3284271 10.6999512,17.5 C10.6999512,16.6715729 10.0283783,16 9.19995117,16 C8.37152405,16 7.69995117,16.6715729 7.69995117,17.5 C7.69995117,18.3284271 8.37152405,19 9.19995117,19 Z M9.19995117,18 C9.47609355,18 9.69995117,17.7761424 9.69995117,17.5 C9.69995117,17.2238576 9.47609355,17 9.19995117,17 C8.9238088,17 8.69995117,17.2238576 8.69995117,17.5 C8.69995117,17.7761424 8.9238088,18 9.19995117,18 Z M19,19 C19.8284271,19 20.5,18.3284271 20.5,17.5 C20.5,16.6715729 19.8284271,16 19,16 C18.1715729,16 17.5,16.6715729 17.5,17.5 C17.5,18.3284271 18.1715729,19 19,19 Z M19,18 C19.2761424,18 19.5,17.7761424 19.5,17.5 C19.5,17.2238576 19.2761424,17 19,17 C18.7238576,17 18.5,17.2238576 18.5,17.5 C18.5,17.7761424 18.7238576,18 19,18 Z M14,19 C14.8284271,19 15.5,18.3284271 15.5,17.5 C15.5,16.6715729 14.8284271,16 14,16 C13.1715729,16 12.5,16.6715729 12.5,17.5 C12.5,18.3284271 13.1715729,19 14,19 Z M14,18 C14.2761424,18 14.5,17.7761424 14.5,17.5 C14.5,17.2238576 14.2761424,17 14,17 C13.7238576,17 13.5,17.2238576 13.5,17.5 C13.5,17.7761424 13.7238576,18 14,18 Z M23.5,6 C24.3284271,6 25,5.32842712 25,4.5 C25,3.67157288 24.3284271,3 23.5,3 C22.6715729,3 22,3.67157288 22,4.5 C22,5.32842712 22.6715729,6 23.5,6 Z M23.5,5 C23.7761424,5 24,4.77614237 24,4.5 C24,4.22385763 23.7761424,4 23.5,4 C23.2238576,4 23,4.22385763 23,4.5 C23,4.77614237 23.2238576,5 23.5,5 Z M23.5,10.5 C24.3284271,10.5 25,9.82842712 25,9 C25,8.17157288 24.3284271,7.5 23.5,7.5 C22.6715729,7.5 22,8.17157288 22,9 C22,9.82842712 22.6715729,10.5 23.5,10.5 Z M23.5,9.5 C23.7761424,9.5 24,9.27614237 24,9 C24,8.72385763 23.7761424,8.5 23.5,8.5 C23.2238576,8.5 23,8.72385763 23,9 C23,9.27614237 23.2238576,9.5 23.5,9.5 Z M23.5,14.5 C24.3284271,14.5 25,13.8284271 25,13 C25,12.1715729 24.3284271,11.5 23.5,11.5 C22.6715729,11.5 22,12.1715729 22,13 C22,13.8284271 22.6715729,14.5 23.5,14.5 Z M23.5,13.5 C23.7761424,13.5 24,13.2761424 24,13 C24,12.7238576 23.7761424,12.5 23.5,12.5 C23.2238576,12.5 23,12.7238576 23,13 C23,13.2761424 23.2238576,13.5 23.5,13.5 Z M4.5,10.5 C5.32842712,10.5 6,9.82842712 6,9 C6,8.17157288 5.32842712,7.5 4.5,7.5 C3.67157288,7.5 3,8.17157288 3,9 C3,9.82842712 3.67157288,10.5 4.5,10.5 Z M4.5,9.5 C4.77614237,9.5 5,9.27614237 5,9 C5,8.72385763 4.77614237,8.5 4.5,8.5 C4.22385763,8.5 4,8.72385763 4,9 C4,9.27614237 4.22385763,9.5 4.5,9.5 Z M4.5,14.5 C5.32842712,14.5 6,13.8284271 6,13 C6,12.1715729 5.32842712,11.5 4.5,11.5 C3.67157288,11.5 3,12.1715729 3,13 C3,13.8284271 3.67157288,14.5 4.5,14.5 Z M4.5,13.5 C4.77614237,13.5 5,13.2761424 5,13 C5,12.7238576 4.77614237,12.5 4.5,12.5 C4.22385763,12.5 4,12.7238576 4,13 C4,13.2761424 4.22385763,13.5 4.5,13.5 Z M23.5,19 C24.3284271,19 25,18.3284271 25,17.5 C25,16.6715729 24.3284271,16 23.5,16 C22.6715729,16 22,16.6715729 22,17.5 C22,18.3284271 22.6715729,19 23.5,19 Z M23.5,18 C23.7761424,18 24,17.7761424 24,17.5 C24,17.2238576 23.7761424,17 23.5,17 C23.2238576,17 23,17.2238576 23,17.5 C23,17.7761424 23.2238576,18 23.5,18 Z M4.5,19 C5.32842712,19 6,18.3284271 6,17.5 C6,16.6715729 5.32842712,16 4.5,16 C3.67157288,16 3,16.6715729 3,17.5 C3,18.3284271 3.67157288,19 4.5,19 Z M4.5,18 C4.77614237,18 5,17.7761424 5,17.5 C5,17.2238576 4.77614237,17 4.5,17 C4.22385763,17 4,17.2238576 4,17.5 C4,17.7761424 4.22385763,18 4.5,18 Z"/>
      <path d="M10.92,9.564 L10.92,10.112 L9.624,10.112 L9.624,10.716 L10.856,10.716 L10.856,11.264 L9.624,11.264 L9.624,12.36 L9,12.36 L9,9.564 L10.92,9.564 Z M13.299,9.814 C13.495001,9.9806675 13.593,10.2366649 13.593,10.582 C13.593,10.9273351 13.4923343,11.1799992 13.291,11.34 C13.0896657,11.5000008 12.7823354,11.58 12.369,11.58 L11.997,11.58 L11.997,12.36 L11.373,12.36 L11.373,9.564 L12.361,9.564 C12.7903355,9.564 13.102999,9.6473325 13.299,9.814 L13.299,9.814 Z M12.841,10.914 C12.915667,10.8299996 12.953,10.7073341 12.953,10.546 C12.953,10.3846659 12.9043338,10.2700003 12.807,10.202 C12.7096662,10.1339997 12.5583344,10.1 12.353,10.1 L11.997,10.1 L11.997,11.04 L12.417,11.04 C12.625001,11.04 12.766333,10.9980004 12.841,10.914 L12.841,10.914 Z M15.822,10.936 L16.45,10.936 L16.45,11.928 C16.1726653,12.2373349 15.7886691,12.392 15.298,12.392 C14.8873313,12.392 14.5426681,12.2560014 14.264,11.984 C13.9853319,11.7119986 13.846,11.3686687 13.846,10.954 C13.846,10.5393313 13.9879986,10.1933347 14.272,9.916 C14.5560014,9.63866528 14.8986647,9.5 15.3,9.5 C15.7013353,9.5 16.0499985,9.63199868 16.346,9.896 L16.022,10.364 C15.896666,10.2546661 15.7813339,10.1793335 15.676,10.138 C15.5706661,10.0966665 15.4566673,10.076 15.334,10.076 C15.0966655,10.076 14.8966675,10.1566659 14.734,10.318 C14.5713325,10.4793341 14.49,10.6919987 14.49,10.956 C14.49,11.2200013 14.5679992,11.4313325 14.724,11.59 C14.8800008,11.7486675 15.0659989,11.828 15.282,11.828 C15.4980011,11.828 15.6779993,11.7866671 15.822,11.704 L15.822,10.936 Z M18.899,12.36 L18.639,11.756 L17.467,11.756 L17.207,12.36 L16.543,12.36 L17.751,9.564 L18.355,9.564 L19.563,12.36 L18.899,12.36 Z M18.055,10.396 L17.703,11.208 L18.403,11.208 L18.055,10.396 Z"/>
    </g>
  </g>
</svg>
