<svg xmlns="http://www.w3.org/2000/svg" width="34" height="34" viewBox="0 0 34 34">
  <g fill="none" fill-rule="evenodd">
    <path fill="#333333" d="M29,25 L29,31 L5,31 L5,25 L3,25 L3,24 L5,24 L5,20 L3,20 L3,19 L5,19 L5,15 L3,15 L3,14 L5,14 L5,10 L3,10 L3,9 L5,9 L5,3 L29,3 L29,9 L31,9 L31,10 L29,10 L29,14 L31,14 L31,15 L29,15 L29,19 L31,19 L31,20 L29,20 L29,24 L31,24 L31,25 L29,25 Z M27,25 L27,29 L7,29 L7,25 L11,25 L11,24 L7,24 L7,20 L11,20 L11,19 L7,19 L7,15 L11,15 L11,14 L7,14 L7,10 L11,10 L11,9 L7,9 L7,5 L27,5 L27,9 L23,9 L23,10 L27,10 L27,14 L23,14 L23,15 L27,15 L27,19 L23,19 L23,20 L27,20 L27,24 L23,24 L23,25 L27,25 Z M11,9 L12.7142857,7.22222222 L14.8571429,9.66666667 L17,7 L19.1428571,9.66666667 L21.2857143,7.22222222 L23,9 L23,10.1111111 L21.2857143,8.33333333 L19.1428571,11 L17,8.33333333 L14.8571429,11 L12.7142857,8.33333333 L11,10.1111111 L11,9 Z M11,14 L12.7142857,12.2222222 L14.8571429,14.6666667 L17,12 L19.1428571,14.6666667 L21.2857143,12.2222222 L23,14 L23,15.1111111 L21.2857143,13.3333333 L19.1428571,16 L17,13.3333333 L14.8571429,16 L12.7142857,13.3333333 L11,15.1111111 L11,14 Z M11,19 L12.7142857,17.2222222 L14.8571429,19.6666667 L17,17 L19.1428571,19.6666667 L21.2857143,17.2222222 L23,19 L23,20.1111111 L21.2857143,18.3333333 L19.1428571,21 L17,18.3333333 L14.8571429,21 L12.7142857,18.3333333 L11,20.1111111 L11,19 Z M11,24 L12.7142857,22.2222222 L14.8571429,24.6666667 L17,22 L19.1428571,24.6666667 L21.2857143,22.2222222 L23,24 L23,25.1111111 L21.2857143,23.3333333 L19.1428571,26 L17,23.3333333 L14.8571429,26 L12.7142857,23.3333333 L11,25.1111111 L11,24 Z"/>
  </g>
</svg>
