<svg xmlns="http://www.w3.org/2000/svg" width="28" height="28" viewBox="0 0 28 28">
  <path fill="#333333" fill-rule="evenodd" d="M26,22 L26,28 L2,28 L2,22 L0,22 L0,21 L2,21 L2,17 L0,17 L0,16 L2,16 L2,12 L0,12 L0,11 L2,11 L2,7 L0,7 L0,6 L2,6 L2,0 L26,0 L26,6 L28,6 L28,7 L26,7 L26,11 L28,11 L28,12 L26,12 L26,16 L28,16 L28,17 L26,17 L26,21 L28,21 L28,22 L26,22 Z M24,22 L24,26 L4,26 L4,22 L8,22 L8,21 L4,21 L4,17 L8,17 L8,16 L4,16 L4,12 L8,12 L8,11 L4,11 L4,7 L8,7 L8,6 L4,6 L4,2 L24,2 L24,6 L20,6 L20,7 L24,7 L24,11 L20,11 L20,12 L24,12 L24,16 L20,16 L20,17 L24,17 L24,21 L20,21 L20,22 L24,22 Z M8,6 L9.71428571,4.22222222 L11.8571429,6.66666667 L14,4 L16.1428571,6.66666667 L18.2857143,4.22222222 L20,6 L20,7.11111111 L18.2857143,5.33333333 L16.1428571,8 L14,5.33333333 L11.8571429,8 L9.71428571,5.33333333 L8,7.11111111 L8,6 Z M8,11 L9.71428571,9.22222222 L11.8571429,11.6666667 L14,9 L16.1428571,11.6666667 L18.2857143,9.22222222 L20,11 L20,12.1111111 L18.2857143,10.3333333 L16.1428571,13 L14,10.3333333 L11.8571429,13 L9.71428571,10.3333333 L8,12.1111111 L8,11 Z M8,16 L9.71428571,14.2222222 L11.8571429,16.6666667 L14,14 L16.1428571,16.6666667 L18.2857143,14.2222222 L20,16 L20,17.1111111 L18.2857143,15.3333333 L16.1428571,18 L14,15.3333333 L11.8571429,18 L9.71428571,15.3333333 L8,17.1111111 L8,16 Z M8,21 L9.71428571,19.2222222 L11.8571429,21.6666667 L14,19 L16.1428571,21.6666667 L18.2857143,19.2222222 L20,21 L20,22.1111111 L18.2857143,20.3333333 L16.1428571,23 L14,20.3333333 L11.8571429,23 L9.71428571,20.3333333 L8,22.1111111 L8,21 Z"/>
</svg>
