<svg xmlns="http://www.w3.org/2000/svg" width="38" height="34" viewBox="0 0 38 34">
  <g fill="none" fill-rule="evenodd">
    <path fill="#333333" d="M35,7.17070571 C36.1651924,7.58254212 37,8.69378117 37,10 C37,11.6568542 35.6568542,13 34,13 C32.3431458,13 31,11.6568542 31,10 C31,8.69378117 31.8348076,7.58254212 33,7.17070571 L33,5 L35,5 L35,7.17070571 Z M28.8946606,12.3261177 L32.2342344,21.0090094 C33.7816149,21.1285108 35,22.4219709 35,24 C35,25.6568542 33.6568542,27 32,27 C30.3431458,27 29,25.6568542 29,24 C29,22.9285177 29.561726,21.9882335 30.4067571,21.4575685 L27.1523834,12.9961969 C27.1019075,12.9987222 27.051103,13 27,13 C25.3431458,13 24,11.6568542 24,10 C24,8.34314575 25.3431458,7 27,7 C28.6568542,7 30,8.34314575 30,10 C30,10.9383101 29.5692282,11.776008 28.8946606,12.3261177 Z M11,9 L19,9 L19,25 L14,25 L14,29 L12,29 L12,25 L10,25 L9,25 L1,16 L11,5 L11,9 Z M16,11 L11,11 L11,21 L16,11 Z M17,13 L17,23 L12,23 L17,13 Z M20,17 L22,17 L22,19 L20,19 L20,17 Z M23,17 L25,17 L25,19 L23,19 L23,17 Z M26,17 L28,17 L28,19 L26,19 L26,17 Z M3.5,16 L9,9.5 L9,22.5 L3.5,16 Z M32,25 C32.5522847,25 33,24.5522847 33,24 C33,23.4477153 32.5522847,23 32,23 C31.4477153,23 31,23.4477153 31,24 C31,24.5522847 31.4477153,25 32,25 Z M27,11 C27.5522847,11 28,10.5522847 28,10 C28,9.44771525 27.5522847,9 27,9 C26.4477153,9 26,9.44771525 26,10 C26,10.5522847 26.4477153,11 27,11 Z M34,11 C34.5522847,11 35,10.5522847 35,10 C35,9.44771525 34.5522847,9 34,9 C33.4477153,9 33,9.44771525 33,10 C33,10.5522847 33.4477153,11 34,11 Z"/>
  </g>
</svg>
