<svg xmlns="http://www.w3.org/2000/svg" width="36" height="24" viewBox="0 0 36 24">
  <path fill="#333333" fill-rule="evenodd" d="M34,2.17070571 C35.1651924,2.58254212 36,3.69378117 36,5 C36,6.65685425 34.6568542,8 33,8 C31.3431458,8 30,6.65685425 30,5 C30,3.69378117 30.8348076,2.58254212 32,2.17070571 L32,0 L34,0 L34,2.17070571 Z M27.8946606,7.32611766 L31.2342344,16.0090094 C32.7816149,16.1285108 34,17.4219709 34,19 C34,20.6568542 32.6568542,22 31,22 C29.3431458,22 28,20.6568542 28,19 C28,17.9285177 28.561726,16.9882335 29.4067571,16.4575685 L26.1523834,7.99619695 C26.1019075,7.99872225 26.051103,8 26,8 C24.3431458,8 23,6.65685425 23,5 C23,3.34314575 24.3431458,2 26,2 C27.6568542,2 29,3.34314575 29,5 C29,5.93831007 28.5692282,6.77600799 27.8946606,7.32611766 Z M10,4 L18,4 L18,20 L13,20 L13,24 L11,24 L11,20 L9,20 L8,20 L0,11 L10,0 L10,4 Z M15,6 L10,6 L10,16 L15,6 Z M16,8 L16,18 L11,18 L16,8 Z M19,12 L21,12 L21,14 L19,14 L19,12 Z M22,12 L24,12 L24,14 L22,14 L22,12 Z M25,12 L27,12 L27,14 L25,14 L25,12 Z M2.5,11 L8,4.5 L8,17.5 L2.5,11 Z M31,20 C31.5522847,20 32,19.5522847 32,19 C32,18.4477153 31.5522847,18 31,18 C30.4477153,18 30,18.4477153 30,19 C30,19.5522847 30.4477153,20 31,20 Z M26,6 C26.5522847,6 27,5.55228475 27,5 C27,4.44771525 26.5522847,4 26,4 C25.4477153,4 25,4.44771525 25,5 C25,5.55228475 25.4477153,6 26,6 Z M33,6 C33.5522847,6 34,5.55228475 34,5 C34,4.44771525 33.5522847,4 33,4 C32.4477153,4 32,4.44771525 32,5 C32,5.55228475 32.4477153,6 33,6 Z"/>
</svg>
