<svg xmlns="http://www.w3.org/2000/svg" width="30" height="20" viewBox="0 0 30 20">
  <path fill="#333333" fill-rule="evenodd" d="M26.85,16.8571429 L22,16.8571429 L22,15.1428571 L26.85,15.1428571 L25.5,14.2857143 L25.5,13 L30,16 L29.1,16 L30,16 L25.5,19 L25.5,17.7142857 L26.85,16.8571429 Z M26.85,10.8571429 L22,10.8571429 L22,9.14285714 L26.85,9.14285714 L25.5,8.28571429 L25.5,7 L30,10 L29.1,10 L30,10 L25.5,13 L25.5,11.7142857 L26.85,10.8571429 Z M26.85,4.85714286 L22,4.85714286 L22,3.14285714 L26.85,3.14285714 L25.5,2.28571429 L25.5,1 L30,4 L29.1,4 L30,4 L25.5,7 L25.5,5.71428571 L26.85,4.85714286 Z M3.22294004,12 C3.07703456,11.3568041 3,10.6874192 3,10 C3,9.31261204 3.07704054,8.64322274 3.22296239,8 L0,8 L0,6 L3.93532488,6 C5.40777304,3.03656304 8.46550176,1 12,1 C14.8272661,1 17.3500445,2.30331335 19,4.34220826 L19,0 L21,0 L21,20 L19,20 L19,15.6577629 C17.3502271,17.6965157 14.8276896,19 12,19 C8.46608834,19 5.40789271,16.9637699 3.93528162,14 L0,14 L0,12 L3.22294004,12 Z M5,10 C5,6.13400675 8.14187327,3 12,3 C15.8659932,3 19,6.14187327 19,10 C19,13.8659932 15.8581267,17 12,17 C8.13400675,17 5,13.8581267 5,10 Z M9.40002441,7 L10.6000245,7 L10.6000245,13 L9.40002441,13 L9.40002441,7 Z M11.5,7 L12.7,7 L12.7,13 L11.5,13 L11.5,7 Z M13.5999756,7 L14.7999756,7 L14.7999756,13 L13.5999756,13 L13.5999756,7 Z"/>
</svg>
