<svg xmlns="http://www.w3.org/2000/svg" width="34" height="34" viewBox="0 0 34 34">
  <g fill="none" fill-rule="evenodd">
    <path fill="#333333" d="M28.85,23.8571429 L24,23.8571429 L24,22.1428571 L28.85,22.1428571 L27.5,21.2857143 L27.5,20 L32,23 L31.1,23 L32,23 L27.5,26 L27.5,24.7142857 L28.85,23.8571429 Z M28.85,17.8571429 L24,17.8571429 L24,16.1428571 L28.85,16.1428571 L27.5,15.2857143 L27.5,14 L32,17 L31.1,17 L32,17 L27.5,20 L27.5,18.7142857 L28.85,17.8571429 Z M28.85,11.8571429 L24,11.8571429 L24,10.1428571 L28.85,10.1428571 L27.5,9.28571429 L27.5,8 L32,11 L31.1,11 L32,11 L27.5,14 L27.5,12.7142857 L28.85,11.8571429 Z M5.22294004,19 C5.07703456,18.3568041 5,17.6874192 5,17 C5,16.312612 5.07704054,15.6432227 5.22296239,15 L2,15 L2,13 L5.93532488,13 C7.40777304,10.036563 10.4655018,8 14,8 C16.8272661,8 19.3500445,9.30331335 21,11.3422083 L21,7 L23,7 L23,27 L21,27 L21,22.6577629 C19.3502271,24.6965157 16.8276896,26 14,26 C10.4660883,26 7.40789271,23.9637699 5.93528162,21 L2,21 L2,19 L5.22294004,19 Z M7,17 C7,13.1340068 10.1418733,10 14,10 C17.8659932,10 21,13.1418733 21,17 C21,20.8659932 17.8581267,24 14,24 C10.1340068,24 7,20.8581267 7,17 Z M11.4000244,14 L12.6000245,14 L12.6000245,20 L11.4000244,20 L11.4000244,14 Z M13.5,14 L14.7,14 L14.7,20 L13.5,20 L13.5,14 Z M15.5999756,14 L16.7999756,14 L16.7999756,20 L15.5999756,20 L15.5999756,14 Z"/>
  </g>
</svg>
