<svg xmlns="http://www.w3.org/2000/svg" width="34" height="34" viewBox="0 0 34 34">
  <g fill="none" fill-rule="evenodd">
    <path fill="#333333" d="M7,21 L7,18 L2,18 L2,16 L7,16 L7,13 L2,13 L2,11 L7,11 L7,6 L13,6 L13,2 L15,2 L15,6 L19,6 L19,2 L21,2 L21,6 L27,6 L27,16 L32,16 L32,18 L27,18 L27,28 L21,28 L21,32 L19,32 L19,28 L15,28 L15,32 L13,32 L13,28 L7,28 L7,23 L2,23 L2,21 L7,21 Z M9,8 L25,8 L25,26 L9,26 L9,8 Z M14.742,15 L14.742,15.81 L13.086,15.81 L13.086,16.512 C13.2100006,16.4759998 13.3519992,16.458 13.512,16.458 C13.916002,16.458 14.2639985,16.5799988 14.556,16.824 C14.8480015,17.0680012 14.994,17.3969979 14.994,17.811 C14.994,18.2250021 14.8430015,18.5669987 14.541,18.837 C14.2389985,19.1070014 13.8660022,19.242 13.422,19.242 C12.8539972,19.242 12.3800019,19.0320021 12,18.612 L12.492,17.928 C12.5280002,17.9640002 12.5759997,18.0079997 12.636,18.06 C12.6960003,18.1120003 12.8059992,18.1809996 12.966,18.267 C13.1260008,18.3530004 13.2859992,18.396 13.446,18.396 C13.6060008,18.396 13.7479994,18.3480005 13.872,18.252 C13.9960006,18.1559995 14.058,18.0140009 14.058,17.826 C14.058,17.6379991 13.9910007,17.4930005 13.857,17.391 C13.7229993,17.2889995 13.5500011,17.238 13.338,17.238 C13.1259989,17.238 12.8800014,17.3139992 12.6,17.466 L12.21,17.046 L12.21,15 L14.742,15 Z M18.2055,15 L18.2055,15.81 L16.5495,15.81 L16.5495,16.512 C16.6735006,16.4759998 16.8154992,16.458 16.9755,16.458 C17.379502,16.458 17.7274985,16.5799988 18.0195,16.824 C18.3115015,17.0680012 18.4575,17.3969979 18.4575,17.811 C18.4575,18.2250021 18.3065015,18.5669987 18.0045,18.837 C17.7024985,19.1070014 17.3295022,19.242 16.8855,19.242 C16.3174972,19.242 15.8435019,19.0320021 15.4635,18.612 L15.9555,17.928 C15.9915002,17.9640002 16.0394997,18.0079997 16.0995,18.06 C16.1595003,18.1120003 16.2694992,18.1809996 16.4295,18.267 C16.5895008,18.3530004 16.7494992,18.396 16.9095,18.396 C17.0695008,18.396 17.2114994,18.3480005 17.3355,18.252 C17.4595006,18.1559995 17.5215,18.0140009 17.5215,17.826 C17.5215,17.6379991 17.4545007,17.4930005 17.3205,17.391 C17.1864993,17.2889995 17.0135011,17.238 16.8015,17.238 C16.5894989,17.238 16.3435014,17.3139992 16.0635,17.466 L15.6735,17.046 L15.6735,15 L18.2055,15 Z M21.669,15 L21.669,15.81 L20.013,15.81 L20.013,16.512 C20.1370006,16.4759998 20.2789992,16.458 20.439,16.458 C20.843002,16.458 21.1909985,16.5799988 21.483,16.824 C21.7750015,17.0680012 21.921,17.3969979 21.921,17.811 C21.921,18.2250021 21.7700015,18.5669987 21.468,18.837 C21.1659985,19.1070014 20.7930022,19.242 20.349,19.242 C19.7809972,19.242 19.3070019,19.0320021 18.927,18.612 L19.419,17.928 C19.4550002,17.9640002 19.5029997,18.0079997 19.563,18.06 C19.6230003,18.1120003 19.7329992,18.1809996 19.893,18.267 C20.0530008,18.3530004 20.2129992,18.396 20.373,18.396 C20.5330008,18.396 20.6749994,18.3480005 20.799,18.252 C20.9230006,18.1559995 20.985,18.0140009 20.985,17.826 C20.985,17.6379991 20.9180007,17.4930005 20.784,17.391 C20.6499993,17.2889995 20.4770011,17.238 20.265,17.238 C20.0529989,17.238 19.8070014,17.3139992 19.527,17.466 L19.137,17.046 L19.137,15 L21.669,15 Z"/>
  </g>
</svg>
