<svg xmlns="http://www.w3.org/2000/svg" width="30" height="30" viewBox="0 0 30 30">
  <path fill="#333333" fill-rule="evenodd" d="M5,19 L5,16 L0,16 L0,14 L5,14 L5,11 L0,11 L0,9 L5,9 L5,4 L11,4 L11,0 L13,0 L13,4 L17,4 L17,0 L19,0 L19,4 L25,4 L25,14 L30,14 L30,16 L25,16 L25,26 L19,26 L19,30 L17,30 L17,26 L13,26 L13,30 L11,30 L11,26 L5,26 L5,21 L0,21 L0,19 L5,19 Z M7,6 L23,6 L23,24 L7,24 L7,6 Z M12.742,13 L12.742,13.81 L11.086,13.81 L11.086,14.512 C11.2100006,14.4759998 11.3519992,14.458 11.512,14.458 C11.916002,14.458 12.2639985,14.5799988 12.556,14.824 C12.8480015,15.0680012 12.994,15.3969979 12.994,15.811 C12.994,16.2250021 12.8430015,16.5669987 12.541,16.837 C12.2389985,17.1070014 11.8660022,17.242 11.422,17.242 C10.8539972,17.242 10.3800019,17.0320021 10,16.612 L10.492,15.928 C10.5280002,15.9640002 10.5759997,16.0079997 10.636,16.06 C10.6960003,16.1120003 10.8059992,16.1809996 10.966,16.267 C11.1260008,16.3530004 11.2859992,16.396 11.446,16.396 C11.6060008,16.396 11.7479994,16.3480005 11.872,16.252 C11.9960006,16.1559995 12.058,16.0140009 12.058,15.826 C12.058,15.6379991 11.9910007,15.4930005 11.857,15.391 C11.7229993,15.2889995 11.5500011,15.238 11.338,15.238 C11.1259989,15.238 10.8800014,15.3139992 10.6,15.466 L10.21,15.046 L10.21,13 L12.742,13 Z M16.2055,13 L16.2055,13.81 L14.5495,13.81 L14.5495,14.512 C14.6735006,14.4759998 14.8154992,14.458 14.9755,14.458 C15.379502,14.458 15.7274985,14.5799988 16.0195,14.824 C16.3115015,15.0680012 16.4575,15.3969979 16.4575,15.811 C16.4575,16.2250021 16.3065015,16.5669987 16.0045,16.837 C15.7024985,17.1070014 15.3295022,17.242 14.8855,17.242 C14.3174972,17.242 13.8435019,17.0320021 13.4635,16.612 L13.9555,15.928 C13.9915002,15.9640002 14.0394997,16.0079997 14.0995,16.06 C14.1595003,16.1120003 14.2694992,16.1809996 14.4295,16.267 C14.5895008,16.3530004 14.7494992,16.396 14.9095,16.396 C15.0695008,16.396 15.2114994,16.3480005 15.3355,16.252 C15.4595006,16.1559995 15.5215,16.0140009 15.5215,15.826 C15.5215,15.6379991 15.4545007,15.4930005 15.3205,15.391 C15.1864993,15.2889995 15.0135011,15.238 14.8015,15.238 C14.5894989,15.238 14.3435014,15.3139992 14.0635,15.466 L13.6735,15.046 L13.6735,13 L16.2055,13 Z M19.669,13 L19.669,13.81 L18.013,13.81 L18.013,14.512 C18.1370006,14.4759998 18.2789992,14.458 18.439,14.458 C18.843002,14.458 19.1909985,14.5799988 19.483,14.824 C19.7750015,15.0680012 19.921,15.3969979 19.921,15.811 C19.921,16.2250021 19.7700015,16.5669987 19.468,16.837 C19.1659985,17.1070014 18.7930022,17.242 18.349,17.242 C17.7809972,17.242 17.3070019,17.0320021 16.927,16.612 L17.419,15.928 C17.4550002,15.9640002 17.5029997,16.0079997 17.563,16.06 C17.6230003,16.1120003 17.7329992,16.1809996 17.893,16.267 C18.0530008,16.3530004 18.2129992,16.396 18.373,16.396 C18.5330008,16.396 18.6749994,16.3480005 18.799,16.252 C18.9230006,16.1559995 18.985,16.0140009 18.985,15.826 C18.985,15.6379991 18.9180007,15.4930005 18.784,15.391 C18.6499993,15.2889995 18.4770011,15.238 18.265,15.238 C18.0529989,15.238 17.8070014,15.3139992 17.527,15.466 L17.137,15.046 L17.137,13 L19.669,13 Z"/>
</svg>
