<svg xmlns="http://www.w3.org/2000/svg" width="30" height="30" viewBox="0 0 30 30">
  <path fill="#333333" fill-rule="evenodd" d="M17,0.132171334 C24.3387189,1.10995569 30,7.39384632 30,15 C30,23.2842712 23.2842712,30 15,30 C6.71572875,30 0,23.2842712 0,15 C0,7.39384632 5.66128108,1.10995569 13,0.132171334 L13,6 L17,6 L17,0.132171334 Z M19,2.62699876 C24.222528,4.31411272 28,9.21591844 28,15 C28,22.1797017 22.1797017,28 15,28 C7.82029825,28 2,22.1797017 2,15 C2,9.21591844 5.77747196,4.31411272 11,2.62699876 L11,8 L19,8 L19,2.62699876 Z M11,10 L19,10 L19,19 L11,19 L11,10 Z M13,12 L17,12 L17,17 L13,17 L13,12 Z M22.5,13 C23.8807119,13 25,11.8807119 25,10.5 C25,9.11928813 23.8807119,8 22.5,8 C21.1192881,8 20,9.11928813 20,10.5 C20,11.8807119 21.1192881,13 22.5,13 Z M22.5,11.5 C23.0522847,11.5 23.5,11.0522847 23.5,10.5 C23.5,9.94771525 23.0522847,9.5 22.5,9.5 C21.9477153,9.5 21.5,9.94771525 21.5,10.5 C21.5,11.0522847 21.9477153,11.5 22.5,11.5 Z M21.5,24 C22.8807119,24 24,22.8807119 24,21.5 C24,20.1192881 22.8807119,19 21.5,19 C20.1192881,19 19,20.1192881 19,21.5 C19,22.8807119 20.1192881,24 21.5,24 Z M21.5,22.5 C22.0522847,22.5 22.5,22.0522847 22.5,21.5 C22.5,20.9477153 22.0522847,20.5 21.5,20.5 C20.9477153,20.5 20.5,20.9477153 20.5,21.5 C20.5,22.0522847 20.9477153,22.5 21.5,22.5 Z M9.5,25 C10.8807119,25 12,23.8807119 12,22.5 C12,21.1192881 10.8807119,20 9.5,20 C8.11928813,20 7,21.1192881 7,22.5 C7,23.8807119 8.11928813,25 9.5,25 Z M9.5,23.5 C10.0522847,23.5 10.5,23.0522847 10.5,22.5 C10.5,21.9477153 10.0522847,21.5 9.5,21.5 C8.94771525,21.5 8.5,21.9477153 8.5,22.5 C8.5,23.0522847 8.94771525,23.5 9.5,23.5 Z M7.5,16 C8.88071187,16 10,14.8807119 10,13.5 C10,12.1192881 8.88071187,11 7.5,11 C6.11928813,11 5,12.1192881 5,13.5 C5,14.8807119 6.11928813,16 7.5,16 Z M7.5,14.5 C8.05228475,14.5 8.5,14.0522847 8.5,13.5 C8.5,12.9477153 8.05228475,12.5 7.5,12.5 C6.94771525,12.5 6.5,12.9477153 6.5,13.5 C6.5,14.0522847 6.94771525,14.5 7.5,14.5 Z"/>
</svg>
