<svg xmlns="http://www.w3.org/2000/svg" width="34" height="34" viewBox="0 0 34 34">
  <g fill="none" fill-rule="evenodd">
    <path fill="#333333" d="M19,2.13217133 C26.3387189,3.10995569 32,9.39384632 32,17 C32,25.2842712 25.2842712,32 17,32 C8.71572875,32 2,25.2842712 2,17 C2,9.39384632 7.66128108,3.10995569 15,2.13217133 L15,8 L19,8 L19,2.13217133 Z M21,4.62699876 C26.222528,6.31411272 30,11.2159184 30,17 C30,24.1797017 24.1797017,30 17,30 C9.82029825,30 4,24.1797017 4,17 C4,11.2159184 7.77747196,6.31411272 13,4.62699876 L13,10 L21,10 L21,4.62699876 Z M13,12 L21,12 L21,21 L13,21 L13,12 Z M15,14 L19,14 L19,19 L15,19 L15,14 Z M24.5,15 C25.8807119,15 27,13.8807119 27,12.5 C27,11.1192881 25.8807119,10 24.5,10 C23.1192881,10 22,11.1192881 22,12.5 C22,13.8807119 23.1192881,15 24.5,15 Z M24.5,13.5 C25.0522847,13.5 25.5,13.0522847 25.5,12.5 C25.5,11.9477153 25.0522847,11.5 24.5,11.5 C23.9477153,11.5 23.5,11.9477153 23.5,12.5 C23.5,13.0522847 23.9477153,13.5 24.5,13.5 Z M23.5,26 C24.8807119,26 26,24.8807119 26,23.5 C26,22.1192881 24.8807119,21 23.5,21 C22.1192881,21 21,22.1192881 21,23.5 C21,24.8807119 22.1192881,26 23.5,26 Z M23.5,24.5 C24.0522847,24.5 24.5,24.0522847 24.5,23.5 C24.5,22.9477153 24.0522847,22.5 23.5,22.5 C22.9477153,22.5 22.5,22.9477153 22.5,23.5 C22.5,24.0522847 22.9477153,24.5 23.5,24.5 Z M11.5,27 C12.8807119,27 14,25.8807119 14,24.5 C14,23.1192881 12.8807119,22 11.5,22 C10.1192881,22 9,23.1192881 9,24.5 C9,25.8807119 10.1192881,27 11.5,27 Z M11.5,25.5 C12.0522847,25.5 12.5,25.0522847 12.5,24.5 C12.5,23.9477153 12.0522847,23.5 11.5,23.5 C10.9477153,23.5 10.5,23.9477153 10.5,24.5 C10.5,25.0522847 10.9477153,25.5 11.5,25.5 Z M9.5,18 C10.8807119,18 12,16.8807119 12,15.5 C12,14.1192881 10.8807119,13 9.5,13 C8.11928813,13 7,14.1192881 7,15.5 C7,16.8807119 8.11928813,18 9.5,18 Z M9.5,16.5 C10.0522847,16.5 10.5,16.0522847 10.5,15.5 C10.5,14.9477153 10.0522847,14.5 9.5,14.5 C8.94771525,14.5 8.5,14.9477153 8.5,15.5 C8.5,16.0522847 8.94771525,16.5 9.5,16.5 Z"/>
  </g>
</svg>
