<svg xmlns="http://www.w3.org/2000/svg" width="30" height="12" viewBox="0 0 30 12">
  <path fill="#333333" fill-rule="evenodd" d="M16.1084972,8.19764616 C16.0377848,8.45303414 16,8.72210451 16,9 C16,10.6568542 17.3431458,12 19,12 C20.3062188,12 21.4174579,11.1651924 21.8292943,10 L24.1707057,10 C24.5825421,11.1651924 25.6937812,12 27,12 C28.6568542,12 30,10.6568542 30,9 C30,7.34314575 28.6568542,6 27,6 C25.6937812,6 24.5825421,6.83480763 24.1707057,8 L21.8292943,8 C21.4174579,6.83480763 20.3062188,6 19,6 C18.4080685,6 17.8561776,6.17143419 17.3912693,6.4673606 L10,0 L9,1.79998779 L16.1084972,8.19764616 Z M5.82929429,8 L8.17070571,8 C8.58254212,6.83480763 9.69378117,6 11,6 C12.6568542,6 14,7.34314575 14,9 C14,10.6568542 12.6568542,12 11,12 C9.69378117,12 8.58254212,11.1651924 8.17070571,10 L5.82929429,10 C5.41745788,11.1651924 4.30621883,12 3,12 C1.34314575,12 0,10.6568542 0,9 C0,7.34314575 1.34314575,6 3,6 C4.30621883,6 5.41745788,6.83480763 5.82929429,8 Z M11,10 C11.5522847,10 12,9.55228475 12,9 C12,8.44771525 11.5522847,8 11,8 C10.4477153,8 10,8.44771525 10,9 C10,9.55228475 10.4477153,10 11,10 Z M3,10 C3.55228475,10 4,9.55228475 4,9 C4,8.44771525 3.55228475,8 3,8 C2.44771525,8 2,8.44771525 2,9 C2,9.55228475 2.44771525,10 3,10 Z M19,8 C18.4477153,8 18,8.44771525 18,9 C18,9.55228475 18.4477153,10 19,10 C19.5522847,10 20,9.55228475 20,9 C20,8.44771525 19.5522847,8 19,8 Z M27,8 C26.4477153,8 26,8.44771525 26,9 C26,9.55228475 26.4477153,10 27,10 C27.5522847,10 28,9.55228475 28,9 C28,8.44771525 27.5522847,8 27,8 Z"/>
</svg>
