<svg xmlns="http://www.w3.org/2000/svg" width="34" height="34" viewBox="0 0 34 34">
  <g fill="none" fill-rule="evenodd">
    <path fill="#333333" d="M18.1084972,19.1976462 C18.0377848,19.4530341 18,19.7221045 18,20 C18,21.6568542 19.3431458,23 21,23 C22.3062188,23 23.4174579,22.1651924 23.8292943,21 L26.1707057,21 C26.5825421,22.1651924 27.6937812,23 29,23 C30.6568542,23 32,21.6568542 32,20 C32,18.3431458 30.6568542,17 29,17 C27.6937812,17 26.5825421,17.8348076 26.1707057,19 L23.8292943,19 C23.4174579,17.8348076 22.3062188,17 21,17 C20.4080685,17 19.8561776,17.1714342 19.3912693,17.4673606 L12,11 L11,12.7999878 L18.1084972,19.1976462 Z M7.82929429,19 L10.1707057,19 C10.5825421,17.8348076 11.6937812,17 13,17 C14.6568542,17 16,18.3431458 16,20 C16,21.6568542 14.6568542,23 13,23 C11.6937812,23 10.5825421,22.1651924 10.1707057,21 L7.82929429,21 C7.41745788,22.1651924 6.30621883,23 5,23 C3.34314575,23 2,21.6568542 2,20 C2,18.3431458 3.34314575,17 5,17 C6.30621883,17 7.41745788,17.8348076 7.82929429,19 Z M13,21 C13.5522847,21 14,20.5522847 14,20 C14,19.4477153 13.5522847,19 13,19 C12.4477153,19 12,19.4477153 12,20 C12,20.5522847 12.4477153,21 13,21 Z M5,21 C5.55228475,21 6,20.5522847 6,20 C6,19.4477153 5.55228475,19 5,19 C4.44771525,19 4,19.4477153 4,20 C4,20.5522847 4.44771525,21 5,21 Z M21,19 C20.4477153,19 20,19.4477153 20,20 C20,20.5522847 20.4477153,21 21,21 C21.5522847,21 22,20.5522847 22,20 C22,19.4477153 21.5522847,19 21,19 Z M29,19 C28.4477153,19 28,19.4477153 28,20 C28,20.5522847 28.4477153,21 29,21 C29.5522847,21 30,20.5522847 30,20 C30,19.4477153 29.5522847,19 29,19 Z"/>
  </g>
</svg>
