<svg xmlns="http://www.w3.org/2000/svg" width="34" height="34" viewBox="0 0 34 34">
  <g fill="none" fill-rule="evenodd">
    <path fill="#333333" d="M16.9472237,15.5762806 L16.9472237,13.3242376 L16.5339836,13.3242376 L16.5339836,15.7756533 C16.6860075,15.6810883 16.8266583,15.6181552 16.9472237,15.5762806 Z M16.9472237,19.7051315 L16.9472237,22 L16.5339836,22 L16.5339836,19.5412758 C16.6794674,19.6069266 16.8223055,19.6616096 16.9472237,19.7051315 Z M16.1207435,16.097801 L16.1207435,13.3242376 C16.1207435,13.3242376 15.2562063,13.2861733 14.4677831,15.4931782 C13.67936,17.7001832 14.0334319,19.1249752 14.4677831,20.2648475 C14.9021343,21.4047198 16.1207435,22 16.1207435,22 L16.1207435,19.3217657 C15.9567965,19.2177769 15.8102203,19.098225 15.7075034,18.9634451 C15.2731522,18.3935117 14.9190803,17.6811192 15.7075034,16.5776221 C15.8445973,16.3857421 15.9839924,16.2278023 16.1207435,16.097801 Z M8,12 L4,12 L4,14 L8,14 L8,18 L4,18 L4,20 L8,20 L8,27 L13,27 L13,31 L15,31 L15,27 L19,27 L19,31 L21,31 L21,27 L26,27 L26,20 L30,20 L30,18 L26,18 L26,14 L30,14 L30,12 L26,12 L26,7 L21,7 L21,3 L19,3 L19,7 L15,7 L15,3 L13,3 L13,7 L8,7 L8,12 Z M10,9 L24,9 L24,25 L10,25 L10,9 Z M19.6844526,17.601244 C20.4865255,16.9209138 21,15.8761907 21,14.7047261 C21,13.6383894 20.5745493,12.6770673 19.8932531,12 L19.6171344,12.2918051 C20.2278701,12.8940941 20.6097177,13.7522842 20.6097177,14.7047261 C20.6097177,15.7623577 20.1388685,16.703769 19.4066121,17.3076194 L19.6844526,17.601244 Z M19.12823,17.0134223 C19.7908963,16.4866047 20.2194354,15.6485538 20.2194354,14.7047261 C20.2194354,13.8661782 19.8811675,13.1111253 19.3409734,12.5836548 L19.1261393,12.8106936 C19.6114866,13.2799318 19.9158824,13.9547617 19.9158824,14.7047261 C19.9158824,15.560073 19.5199309,16.3176866 18.911165,16.7840258 L19.12823,17.0134223 Z M18.5685004,16.4218944 C19.0931981,16.0522376 19.4388707,15.4211432 19.4388707,14.7047261 C19.4388707,14.093962 19.1876358,13.5452105 18.7884234,13.1675952 L18.63484,13.3299037 C18.9949338,13.6657987 19.2220472,14.157233 19.2220472,14.7047261 C19.2220472,15.3580771 18.8986184,15.9315958 18.4117334,16.2562215 L18.5685004,16.4218944 Z M17.9977389,15.8187079 C18.3887278,15.6183109 18.6583061,15.1947887 18.6583061,14.7047261 C18.6583061,14.3217236 18.4936473,13.9793641 18.2350596,13.7523956 L18.1426236,13.8500829 C18.3778639,14.0517371 18.528212,14.3596762 18.528212,14.7047261 C18.528212,15.1574458 18.2693948,15.5462814 17.8996003,15.7149941 L17.9977389,15.8187079 Z M17.2628589,15.0420793 C17.3263727,15.0893928 17.4038453,15.1171804 17.4874592,15.1171804 C17.7030061,15.1171804 17.8777415,14.9325183 17.8777415,14.7047261 C17.8777415,14.5491216 17.7962059,14.4136427 17.6758229,14.3434025 L17.6437329,14.3773156 C17.7568302,14.4377237 17.8343768,14.5616544 17.8343768,14.7047261 C17.8343768,14.9072081 17.6790565,15.0713521 17.4874592,15.0713521 C17.3520785,15.0713521 17.2348098,14.9894001 17.177649,14.8698778 L17.145559,14.9037908 C17.1524684,14.9170164 17.160045,14.9297983 17.1682407,14.9420859 L17.2628589,15.0420793 Z"/>
  </g>
</svg>
