<svg xmlns="http://www.w3.org/2000/svg" width="26" height="28" viewBox="0 0 26 28">
  <path fill="#333333" fill-rule="evenodd" d="M12.9472237,12.5762806 L12.9472237,10.3242376 L12.5339836,10.3242376 L12.5339836,12.7756533 C12.6860075,12.6810883 12.8266583,12.6181552 12.9472237,12.5762806 Z M12.9472237,16.7051315 L12.9472237,19 L12.5339836,19 L12.5339836,16.5412758 C12.6794674,16.6069266 12.8223055,16.6616096 12.9472237,16.7051315 Z M12.1207435,13.097801 L12.1207435,10.3242376 C12.1207435,10.3242376 11.2562063,10.2861733 10.4677831,12.4931782 C9.67935995,14.7001832 10.0334319,16.1249752 10.4677831,17.2648475 C10.9021343,18.4047198 12.1207435,19 12.1207435,19 L12.1207435,16.3217657 C11.9567965,16.2177769 11.8102203,16.098225 11.7075034,15.9634451 C11.2731522,15.3935117 10.9190803,14.6811192 11.7075034,13.5776221 C11.8445973,13.3857421 11.9839924,13.2278023 12.1207435,13.097801 Z M4,9 L0,9 L0,11 L4,11 L4,15 L0,15 L0,17 L4,17 L4,24 L9,24 L9,28 L11,28 L11,24 L15,24 L15,28 L17,28 L17,24 L22,24 L22,17 L26,17 L26,15 L22,15 L22,11 L26,11 L26,9 L22,9 L22,4 L17,4 L17,0 L15,0 L15,4 L11,4 L11,0 L9,0 L9,4 L4,4 L4,9 Z M6,6 L20,6 L20,22 L6,22 L6,6 Z M15.6844526,14.601244 C16.4865255,13.9209138 17,12.8761907 17,11.7047261 C17,10.6383894 16.5745493,9.67706729 15.8932531,9 L15.6171344,9.29180513 C16.2278701,9.89409409 16.6097177,10.7522842 16.6097177,11.7047261 C16.6097177,12.7623577 16.1388685,13.703769 15.4066121,14.3076194 L15.6844526,14.601244 Z M15.12823,14.0134223 C15.7908963,13.4866047 16.2194354,12.6485538 16.2194354,11.7047261 C16.2194354,10.8661782 15.8811675,10.1111253 15.3409734,9.58365481 L15.1261393,9.81069361 C15.6114866,10.2799318 15.9158824,10.9547617 15.9158824,11.7047261 C15.9158824,12.560073 15.5199309,13.3176866 14.911165,13.7840258 L15.12823,14.0134223 Z M14.5685004,13.4218944 C15.0931981,13.0522376 15.4388707,12.4211432 15.4388707,11.7047261 C15.4388707,11.093962 15.1876358,10.5452105 14.7884234,10.1675952 L14.63484,10.3299037 C14.9949338,10.6657987 15.2220472,11.157233 15.2220472,11.7047261 C15.2220472,12.3580771 14.8986184,12.9315958 14.4117334,13.2562215 L14.5685004,13.4218944 Z M13.9977389,12.8187079 C14.3887278,12.6183109 14.6583061,12.1947887 14.6583061,11.7047261 C14.6583061,11.3217236 14.4936473,10.9793641 14.2350596,10.7523956 L14.1426236,10.8500829 C14.3778639,11.0517371 14.528212,11.3596762 14.528212,11.7047261 C14.528212,12.1574458 14.2693948,12.5462814 13.8996003,12.7149941 L13.9977389,12.8187079 Z M13.2628589,12.0420793 C13.3263727,12.0893928 13.4038453,12.1171804 13.4874592,12.1171804 C13.7030061,12.1171804 13.8777415,11.9325183 13.8777415,11.7047261 C13.8777415,11.5491216 13.7962059,11.4136427 13.6758229,11.3434025 L13.6437329,11.3773156 C13.7568302,11.4377237 13.8343768,11.5616544 13.8343768,11.7047261 C13.8343768,11.9072081 13.6790565,12.0713521 13.4874592,12.0713521 C13.3520785,12.0713521 13.2348098,11.9894001 13.177649,11.8698778 L13.145559,11.9037908 C13.1524684,11.9170164 13.160045,11.9297983 13.1682407,11.9420859 L13.2628589,12.0420793 Z"/>
</svg>
