<svg xmlns="http://www.w3.org/2000/svg" width="26" height="20" viewBox="0 0 26 20">
  <path fill="#333333" fill-rule="evenodd" d="M0,8 L6,12 L6,20 L0,16 L0,8 Z M1.5,10.5 L5,13 L5,17.3999939 L1.5,15 L1.5,10.5 Z M6,12 L26,4 L26,12 L6,20 L6,12 Z M6.59997559,12.5 L25,5.1000061 L25,11.2000122 L6.59997559,18.6000061 L6.59997559,12.5 Z M0,8 L21,0 L26,4 L6,12 L0,8 Z M2.5,8.3999939 L21,1.5 L24.1000977,3.8999939 L6,11.1000061 L2.5,8.3999939 Z M19.5,8.3999939 L24,6.6000061 L24,10.4000244 L19.5,12.2999878 L19.5,8.3999939 Z M13.5,10.7999878 L18,9 L18,12.8000183 L13.5,14.6999817 L13.5,10.7999878 Z M7.5,13.2999878 L12,11.5 L12,15.3000183 L7.5,17.1999817 L7.5,13.2999878 Z M7.5,9.3999939 C8.32842712,9.3999939 9,8.95227865 9,8.3999939 C9,7.84770915 8.32842712,7.3999939 7.5,7.3999939 C6.67157288,7.3999939 6,7.84770915 6,8.3999939 C6,8.95227865 6.67157288,9.3999939 7.5,9.3999939 Z M14.0999756,6.79998779 C14.9284027,6.79998779 15.5999756,6.35227254 15.5999756,5.79998779 C15.5999756,5.24770304 14.9284027,4.79998779 14.0999756,4.79998779 C13.2715485,4.79998779 12.5999756,5.24770304 12.5999756,5.79998779 C12.5999756,6.35227254 13.2715485,6.79998779 14.0999756,6.79998779 Z M20.0999756,4.3999939 C20.9284027,4.3999939 21.5999756,3.95227865 21.5999756,3.3999939 C21.5999756,2.84770915 20.9284027,2.3999939 20.0999756,2.3999939 C19.2715485,2.3999939 18.5999756,2.84770915 18.5999756,3.3999939 C18.5999756,3.95227865 19.2715485,4.3999939 20.0999756,4.3999939 Z"/>
</svg>
