<svg xmlns="http://www.w3.org/2000/svg" width="34" height="34" viewBox="0 0 34 34">
  <g fill="none" fill-rule="evenodd">
    <path fill="#333333" d="M4,15 L10,19 L10,27 L4,23 L4,15 Z M5.5,17.5 L9,20 L9,24.3999939 L5.5,22 L5.5,17.5 Z M10,19 L30,11 L30,19 L10,27 L10,19 Z M10.5999756,19.5 L29,12.1000061 L29,18.2000122 L10.5999756,25.6000061 L10.5999756,19.5 Z M4,15 L25,7 L30,11 L10,19 L4,15 Z M6.5,15.3999939 L25,8.5 L28.1000977,10.8999939 L10,18.1000061 L6.5,15.3999939 Z M23.5,15.3999939 L28,13.6000061 L28,17.4000244 L23.5,19.2999878 L23.5,15.3999939 Z M17.5,17.7999878 L22,16 L22,19.8000183 L17.5,21.6999817 L17.5,17.7999878 Z M11.5,20.2999878 L16,18.5 L16,22.3000183 L11.5,24.1999817 L11.5,20.2999878 Z M11.5,16.3999939 C12.3284271,16.3999939 13,15.9522786 13,15.3999939 C13,14.8477091 12.3284271,14.3999939 11.5,14.3999939 C10.6715729,14.3999939 10,14.8477091 10,15.3999939 C10,15.9522786 10.6715729,16.3999939 11.5,16.3999939 Z M18.0999756,13.7999878 C18.9284027,13.7999878 19.5999756,13.3522725 19.5999756,12.7999878 C19.5999756,12.247703 18.9284027,11.7999878 18.0999756,11.7999878 C17.2715485,11.7999878 16.5999756,12.247703 16.5999756,12.7999878 C16.5999756,13.3522725 17.2715485,13.7999878 18.0999756,13.7999878 Z M24.0999756,11.3999939 C24.9284027,11.3999939 25.5999756,10.9522786 25.5999756,10.3999939 C25.5999756,9.84770915 24.9284027,9.3999939 24.0999756,9.3999939 C23.2715485,9.3999939 22.5999756,9.84770915 22.5999756,10.3999939 C22.5999756,10.9522786 23.2715485,11.3999939 24.0999756,11.3999939 Z"/>
  </g>
</svg>
