<svg xmlns="http://www.w3.org/2000/svg" width="35" height="22" viewBox="0 0 35 22">
  <path fill="#000000" fill-rule="evenodd" d="M12.6109266,13.5312404 C12.9807357,13.2953963 13.2953963,12.9807357 13.5312404,12.6109266 C14.7259664,13.7221262 16.4392008,15 18,15 C20.7614237,15 22,13.209139 22,11 C22,8.790861 20.7614237,7 18,7 C16.4392008,7 14.7259664,8.27787376 13.5312404,9.38907344 C13.2953963,9.01926432 12.9807357,8.70460374 12.6109266,8.46875963 C13.7221262,7.27403358 15,5.56079921 15,4 C15,1.23857625 13.209139,0 11,0 C8.790861,0 7,1.23857625 7,4 C7,5.56079921 8.27787376,7.27403358 9.38907344,8.46875963 C9.01926432,8.70460374 8.70460374,9.01926432 8.46875963,9.38907344 C7.27403358,8.27787376 5.56079921,7 4,7 C1.23857625,7 3.8020011e-16,8.790861 2.4492936e-16,11 C1.0965861e-16,13.209139 1.23857625,15 4,15 C5.56079921,15 7.27403358,13.7221262 8.46875963,12.6109266 C8.70460374,12.9807357 9.01926432,13.2953963 9.38907344,13.5312404 C8.27787376,14.7259664 7,16.4392008 7,18 C7,20.7614237 8.790861,22 11,22 C13.209139,22 15,20.7614237 15,18 C15,16.4392008 13.7221262,14.7259664 12.6109266,13.5312404 Z M23,6 C23,6 24.6413081,4.70516351 27,5 C29.3586919,5.29483649 29.3552311,6.79440388 31,7 C32.6447689,7.20559612 35,6 35,6 L35,8 C35,8 33.3586537,9.29483171 31,9 C28.6413463,8.70516829 28.6413081,7.20516351 27,7 C25.3586919,6.79483649 23,8 23,8 L23,6 Z M23,10 C23,10 24.6413081,8.70516351 27,9 C29.3586919,9.29483649 29.3552311,10.7944039 31,11 C32.6447689,11.2055961 35,10 35,10 L35,12 C35,12 33.3586537,13.2948317 31,13 C28.6413463,12.7051683 28.6413081,11.2051635 27,11 C25.3586919,10.7948365 23,12 23,12 L23,10 Z M23,14 C23,14 24.6413081,12.7051635 27,13 C29.3586919,13.2948365 29.3552311,14.7944039 31,15 C32.6447689,15.2055961 35,14 35,14 L35,16 C35,16 33.3586537,17.2948317 31,17 C28.6413463,16.7051683 28.6413081,15.2051635 27,15 C25.3586919,14.7948365 23,16 23,16 L23,14 Z M11,7.33333333 C11,7.33333333 13,5.60609267 13,4.13333333 C13,2.660574 12.1045695,2 11,2 C9.8954305,2 9,2.660574 9,4.13333333 C9,5.60609267 11,7.33333333 11,7.33333333 Z M14.6999512,10.99875 C14.6999512,10.99875 16.4261123,12.9974999 17.8979511,12.9974999 C19.36979,12.9974999 20.0299511,12.1026291 20.0299511,10.99875 C20.0299511,9.89487084 19.36979,9 17.8979511,9 C16.4261123,9 14.6999512,10.99875 14.6999512,10.99875 Z M7.32999992,10.99875 C7.32999992,10.99875 5.60383881,9 4.13199997,9 C2.66016113,9 2,9.89487084 2,10.99875 C2,12.1026291 2.66016113,12.9974999 4.13199997,12.9974999 C5.60383881,12.9974999 7.32999992,10.99875 7.32999992,10.99875 Z M11,15 C11,15 9,16.7272407 9,18.2 C9,19.6727593 9.8954305,20.3333333 11,20.3333333 C12.1045695,20.3333333 13,19.6727593 13,18.2 C13,16.7272407 11,15 11,15 Z"/>
</svg>
