<svg xmlns="http://www.w3.org/2000/svg" width="38" height="34" viewBox="0 0 38 34">
  <g fill="none" fill-rule="evenodd">
    <path fill="#000000" d="M14.6109266,19.5312404 C14.9807357,19.2953963 15.2953963,18.9807357 15.5312404,18.6109266 C16.7259664,19.7221262 18.4392008,21 20,21 C22.7614237,21 24,19.209139 24,17 C24,14.790861 22.7614237,13 20,13 C18.4392008,13 16.7259664,14.2778738 15.5312404,15.3890734 C15.2953963,15.0192643 14.9807357,14.7046037 14.6109266,14.4687596 C15.7221262,13.2740336 17,11.5607992 17,10 C17,7.23857625 15.209139,6 13,6 C10.790861,6 9,7.23857625 9,10 C9,11.5607992 10.2778738,13.2740336 11.3890734,14.4687596 C11.0192643,14.7046037 10.7046037,15.0192643 10.4687596,15.3890734 C9.27403358,14.2778738 7.56079921,13 6,13 C3.23857625,13 2,14.790861 2,17 C2,19.209139 3.23857625,21 6,21 C7.56079921,21 9.27403358,19.7221262 10.4687596,18.6109266 C10.7046037,18.9807357 11.0192643,19.2953963 11.3890734,19.5312404 C10.2778738,20.7259664 9,22.4392008 9,24 C9,26.7614237 10.790861,28 13,28 C15.209139,28 17,26.7614237 17,24 C17,22.4392008 15.7221262,20.7259664 14.6109266,19.5312404 Z M25,12 C25,12 26.6413081,10.7051635 29,11 C31.3586919,11.2948365 31.3552311,12.7944039 33,13 C34.6447689,13.2055961 37,12 37,12 L37,14 C37,14 35.3586537,15.2948317 33,15 C30.6413463,14.7051683 30.6413081,13.2051635 29,13 C27.3586919,12.7948365 25,14 25,14 L25,12 Z M25,16 C25,16 26.6413081,14.7051635 29,15 C31.3586919,15.2948365 31.3552311,16.7944039 33,17 C34.6447689,17.2055961 37,16 37,16 L37,18 C37,18 35.3586537,19.2948317 33,19 C30.6413463,18.7051683 30.6413081,17.2051635 29,17 C27.3586919,16.7948365 25,18 25,18 L25,16 Z M25,20 C25,20 26.6413081,18.7051635 29,19 C31.3586919,19.2948365 31.3552311,20.7944039 33,21 C34.6447689,21.2055961 37,20 37,20 L37,22 C37,22 35.3586537,23.2948317 33,23 C30.6413463,22.7051683 30.6413081,21.2051635 29,21 C27.3586919,20.7948365 25,22 25,22 L25,20 Z M13,13.3333333 C13,13.3333333 15,11.6060927 15,10.1333333 C15,8.660574 14.1045695,8 13,8 C11.8954305,8 11,8.660574 11,10.1333333 C11,11.6060927 13,13.3333333 13,13.3333333 Z M16.6999512,16.99875 C16.6999512,16.99875 18.4261123,18.9974999 19.8979511,18.9974999 C21.36979,18.9974999 22.0299511,18.1026291 22.0299511,16.99875 C22.0299511,15.8948708 21.36979,15 19.8979511,15 C18.4261123,15 16.6999512,16.99875 16.6999512,16.99875 Z M9.32999992,16.99875 C9.32999992,16.99875 7.60383881,15 6.13199997,15 C4.66016113,15 4,15.8948708 4,16.99875 C4,18.1026291 4.66016113,18.9974999 6.13199997,18.9974999 C7.60383881,18.9974999 9.32999992,16.99875 9.32999992,16.99875 Z M13,21 C13,21 11,22.7272407 11,24.2 C11,25.6727593 11.8954305,26.3333333 13,26.3333333 C14.1045695,26.3333333 15,25.6727593 15,24.2 C15,22.7272407 13,21 13,21 Z"/>
  </g>
</svg>
