<svg xmlns="http://www.w3.org/2000/svg" width="28" height="27" viewBox="0 0 28 27">
  <g fill="#333333" fill-rule="evenodd">
    <path d="M19.3110634,9.5799521 C19.290765,9.58041331 19.2704097,9.58064516 19.25,9.58064516 C17.8002525,9.58064516 16.625,8.41080854 16.625,6.96774194 C16.625,5.83006747 17.3554567,4.8622141 18.375,4.50351787 L18.375,3.48387097 L20.125,3.48387097 L20.125,4.86466216 L20.125,6.14633392 C19.9881592,6.11423832 19.840903,6.09677419 19.6875,6.09677419 C18.9626263,6.09677419 18.375,6.48671973 18.375,6.96774194 C18.375,7.44876414 18.9626263,7.83870968 19.6875,7.83870968 C19.7498679,7.83870968 19.8112199,7.83582298 19.8712689,7.83023993 C20.4305207,7.30618821 21.3159203,6.96774194 22.3125,6.96774194 C24.003872,6.96774194 25.375,7.94260579 25.375,9.14516129 C25.375,10.3477168 24.003872,11.3225806 22.3125,11.3225806 C20.8305439,11.3225806 19.5944397,10.5741762 19.3110634,9.5799521 Z M22.8993675,1.74193548 C23.2597244,0.727090514 24.2320585,1.87962711e-16 25.375,8.8817842e-16 C26.8247475,8.8817842e-16 28,1.16983662 28,2.61290323 C28,4.05596983 26.8247475,5.22580645 25.375,5.22580645 C24.2320585,5.22580645 23.2597244,4.49871594 22.8993675,3.48387097 L18.375,3.48387097 L18.375,1.74193548 L22.8993675,1.74193548 Z M25.375,1.74193548 C24.8917508,1.74193548 24.5,2.13188102 24.5,2.61290323 C24.5,3.09392543 24.8917508,3.48387097 25.375,3.48387097 C25.8582492,3.48387097 26.25,3.09392543 26.25,2.61290323 C26.25,2.13188102 25.8582492,1.74193548 25.375,1.74193548 Z M22.3125,8.27419355 C21.5876263,8.27419355 21,8.66413909 21,9.14516129 C21,9.62618349 21.5876263,10.016129 22.3125,10.016129 C23.0373737,10.016129 23.625,9.62618349 23.625,9.14516129 C23.625,8.66413909 23.0373737,8.27419355 22.3125,8.27419355 Z M22.3125,11.3225806 C20.621128,11.3225806 19.25,12.2974445 19.25,13.5 C19.25,14.7025555 20.621128,15.6774194 22.3125,15.6774194 C24.003872,15.6774194 25.375,14.7025555 25.375,13.5 C25.375,12.2974445 24.003872,11.3225806 22.3125,11.3225806 Z M22.3125,12.6290323 C21.5876263,12.6290323 21,13.0189778 21,13.5 C21,13.9810222 21.5876263,14.3709677 22.3125,14.3709677 C23.0373737,14.3709677 23.625,13.9810222 23.625,13.5 C23.625,13.0189778 23.0373737,12.6290323 22.3125,12.6290323 Z M22.3125,15.6774194 C20.621128,15.6774194 19.25,16.6522832 19.25,17.8548387 C19.25,19.0573942 20.621128,20.0322581 22.3125,20.0322581 C24.003872,20.0322581 25.375,19.0573942 25.375,17.8548387 C25.375,16.6522832 24.003872,15.6774194 22.3125,15.6774194 Z M22.3125,16.983871 C21.5876263,16.983871 21,17.3738165 21,17.8548387 C21,18.3358609 21.5876263,18.7258065 22.3125,18.7258065 C23.0373737,18.7258065 23.625,18.3358609 23.625,17.8548387 C23.625,17.3738165 23.0373737,16.983871 22.3125,16.983871 Z"/>
    <path d="M18.375,22.4964821 C17.3554567,22.1377859 16.625,21.1699325 16.625,20.0322581 C16.625,19.123416 17.0911603,18.3229497 17.7984646,17.8548387 C17.0911603,17.3867277 16.625,16.5862615 16.625,15.6774194 C16.625,14.7685773 17.0911603,13.968111 17.7984646,13.5 C17.0911603,13.031889 16.625,12.2314227 16.625,11.3225806 C16.625,9.87951404 17.8002525,8.70967742 19.25,8.70967742 C19.556806,8.70967742 19.8513184,8.76206981 20.125,8.85835658 L20.125,10.5011726 C19.9881592,10.469077 19.840903,10.4516129 19.6875,10.4516129 C18.9626263,10.4516129 18.375,10.8415584 18.375,11.3225806 C18.375,11.8036028 18.9626263,12.1935484 19.6875,12.1935484 C19.840903,12.1935484 19.9881592,12.1760843 20.125,12.1439887 L20.125,13.2131953 C21.1445433,13.5718915 21.875,14.5397449 21.875,15.6774194 C21.875,16.5862615 21.4088397,17.3867277 20.7015354,17.8548387 C20.9351431,18.0094459 21.1424458,18.2003078 21.3153366,18.4193548 L20.125,18.4193548 L20.125,19.21085 C19.9881592,19.1787545 19.840903,19.1612903 19.6875,19.1612903 C18.9626263,19.1612903 18.375,19.5512359 18.375,20.0322581 C18.375,20.5132803 18.9626263,20.9032258 19.6875,20.9032258 C19.840903,20.9032258 19.9881592,20.8857617 20.125,20.8536661 L20.125,22.1353378 L20.125,23.516129 L18.375,23.516129 L18.375,22.4964821 Z M22.8993675,23.516129 C23.2597244,22.5012841 24.2320585,21.7741935 25.375,21.7741935 C26.8247475,21.7741935 28,22.9440302 28,24.3870968 C28,25.8301634 26.8247475,27 25.375,27 C24.2320585,27 23.2597244,26.2729095 22.8993675,25.2580645 L18.375,25.2580645 L18.375,23.516129 L22.8993675,23.516129 Z M19.6875,14.8064516 C18.9626263,14.8064516 18.375,15.1963972 18.375,15.6774194 C18.375,16.1584416 18.9626263,16.5483871 19.6875,16.5483871 C20.4123737,16.5483871 21,16.1584416 21,15.6774194 C21,15.1963972 20.4123737,14.8064516 19.6875,14.8064516 Z M25.375,23.516129 C24.8917508,23.516129 24.5,23.9060746 24.5,24.3870968 C24.5,24.868119 24.8917508,25.2580645 25.375,25.2580645 C25.8582492,25.2580645 26.25,24.868119 26.25,24.3870968 C26.25,23.9060746 25.8582492,23.516129 25.375,23.516129 Z"/>
    <path d="M2.68606339,16.547694 C2.66576501,16.5481552 2.6454097,16.5483871 2.625,16.5483871 C1.17525253,16.5483871 0,15.3785505 0,13.9354839 C7.00215709e-16,12.7978094 0.730456674,11.829956 1.75,11.4712598 L1.75,10.4516129 L3.5,10.4516129 L3.5,11.8324041 L3.5,13.1140759 C3.36315922,13.0819803 3.215903,13.0645161 3.0625,13.0645161 C2.33762627,13.0645161 1.75,13.4544617 1.75,13.9354839 C1.75,14.4165061 2.33762627,14.8064516 3.0625,14.8064516 C3.12486794,14.8064516 3.18621985,14.8035649 3.24626888,14.7979819 C3.80552068,14.2739301 4.69092031,13.9354839 5.6875,13.9354839 C7.37887205,13.9354839 8.75,14.9103477 8.75,16.1129032 C8.75,17.3154587 7.37887205,18.2903226 5.6875,18.2903226 C4.20554391,18.2903226 2.96943968,17.5419182 2.68606339,16.547694 Z M6.27436749,8.70967742 C6.63472435,7.69483245 7.60705853,6.96774194 8.75,6.96774194 C10.1997475,6.96774194 11.375,8.13757856 11.375,9.58064516 C11.375,11.0237118 10.1997475,12.1935484 8.75,12.1935484 C7.60705853,12.1935484 6.63472435,11.4664579 6.27436749,10.4516129 L1.75,10.4516129 L1.75,8.70967742 L6.27436749,8.70967742 Z M8.75,8.70967742 C8.26675084,8.70967742 7.875,9.09962296 7.875,9.58064516 C7.875,10.0616674 8.26675084,10.4516129 8.75,10.4516129 C9.23324916,10.4516129 9.625,10.0616674 9.625,9.58064516 C9.625,9.09962296 9.23324916,8.70967742 8.75,8.70967742 Z M5.6875,15.2419355 C4.96262627,15.2419355 4.375,15.631881 4.375,16.1129032 C4.375,16.5939254 4.96262627,16.983871 5.6875,16.983871 C6.41237373,16.983871 7,16.5939254 7,16.1129032 C7,15.631881 6.41237373,15.2419355 5.6875,15.2419355 Z M5.6875,18.2903226 C3.99612795,18.2903226 2.625,19.2651864 2.625,20.4677419 C2.625,21.6702974 3.99612795,22.6451613 5.6875,22.6451613 C7.37887205,22.6451613 8.75,21.6702974 8.75,20.4677419 C8.75,19.2651864 7.37887205,18.2903226 5.6875,18.2903226 Z M5.6875,19.5967742 C4.96262627,19.5967742 4.375,19.9867197 4.375,20.4677419 C4.375,20.9487641 4.96262627,21.3387097 5.6875,21.3387097 C6.41237373,21.3387097 7,20.9487641 7,20.4677419 C7,19.9867197 6.41237373,19.5967742 5.6875,19.5967742 Z M5.6875,22.6451613 C3.99612795,22.6451613 2.625,23.6200251 2.625,24.8225806 C2.625,26.0251361 3.99612795,27 5.6875,27 C7.37887205,27 8.75,26.0251361 8.75,24.8225806 C8.75,23.6200251 7.37887205,22.6451613 5.6875,22.6451613 Z M5.6875,23.9516129 C4.96262627,23.9516129 4.375,24.3415584 4.375,24.8225806 C4.375,25.3036028 4.96262627,25.6935484 5.6875,25.6935484 C6.41237373,25.6935484 7,25.3036028 7,24.8225806 C7,24.3415584 6.41237373,23.9516129 5.6875,23.9516129 Z" transform="rotate(-180 5.688 16.984)"/>
    <path d="M9.625,4.50351787 C10.6445433,4.8622141 11.375,5.83006747 11.375,6.96774194 C11.375,7.87658404 10.9088397,8.6770503 10.2015354,9.14516129 C10.9088397,9.61327228 11.375,10.4137385 11.375,11.3225806 C11.375,12.2314227 10.9088397,13.031889 10.2015354,13.5 C10.9088397,13.968111 11.375,14.7685773 11.375,15.6774194 C11.375,17.120486 10.1997475,18.2903226 8.75,18.2903226 C8.443194,18.2903226 8.14868156,18.2379302 7.875,18.1416434 L7.875,16.4988274 C8.01184078,16.530923 8.159097,16.5483871 8.3125,16.5483871 C9.03737373,16.5483871 9.625,16.1584416 9.625,15.6774194 C9.625,15.1963972 9.03737373,14.8064516 8.3125,14.8064516 C8.159097,14.8064516 8.01184078,14.8239157 7.875,14.8560113 L7.875,13.8611443 L7.875,12.1439887 C8.01184078,12.1760843 8.159097,12.1935484 8.3125,12.1935484 C9.03737373,12.1935484 9.625,11.8036028 9.625,11.3225806 C9.625,10.8415584 9.03737373,10.4516129 8.3125,10.4516129 C8.159097,10.4516129 8.01184078,10.469077 7.875,10.5011726 L7.875,9.431966 C7.40092567,9.26517694 6.98935559,8.96668027 6.68466341,8.58064516 L7.875,8.58064516 L7.875,7.78914996 C8.01184078,7.82124555 8.159097,7.83870968 8.3125,7.83870968 C9.03737373,7.83870968 9.625,7.44876414 9.625,6.96774194 C9.625,6.48671973 9.03737373,6.09677419 8.3125,6.09677419 C8.159097,6.09677419 8.01184078,6.11423832 7.875,6.14633392 L7.875,4.86466216 L7.875,3.48387097 L9.625,3.48387097 L9.625,4.50351787 Z M5.10063251,3.48387097 C4.74027565,4.49871594 3.76794147,5.22580645 2.625,5.22580645 C1.17525253,5.22580645 -1.4375153e-15,4.05596983 -1.08406592e-15,2.61290323 C-7.30616545e-16,1.16983662 1.17525253,-1.96961606e-14 2.625,-1.93410749e-14 C3.76794147,-1.9061135e-14 4.74027565,0.727090514 5.10063251,1.74193548 L9.625,1.74193548 L9.625,3.48387097 L5.10063251,3.48387097 Z M2.625,3.48387097 C3.10824916,3.48387097 3.5,3.09392543 3.5,2.61290323 C3.5,2.13188102 3.10824916,1.74193548 2.625,1.74193548 C2.14175084,1.74193548 1.75,2.13188102 1.75,2.61290323 C1.75,3.09392543 2.14175084,3.48387097 2.625,3.48387097 Z M12.25,8.70967742 L13.65,8.70967742 L13.65,20.0322581 L12.25,20.0322581 L12.25,8.70967742 Z M14.3499146,8.70967742 L15.7499146,8.70967742 L15.7499146,20.0322581 L14.3499146,20.0322581 L14.3499146,8.70967742 Z"/>
  </g>
</svg>
