<svg xmlns="http://www.w3.org/2000/svg" width="27" height="32" viewBox="0 0 27 32">
  <path fill="#333333" fill-rule="evenodd" d="M15,15.5 L15.5,15.5 L15.5,19.1327947 C15.3474133,19.2206517 15.220651,19.347616 15.1329401,19.5 L12.5,19.5 L12.5,20.5 L15.1327947,20.5 C15.2206517,20.6525867 15.347616,20.779349 15.5,20.8670599 L15.5,24.9863458 C12.3791835,24.8154576 9.68180746,23.0546197 8.20403976,20.5 L9.13279467,20.5 C9.30545453,20.7998691 9.62915298,21 10,21 C10.5561352,21 11,20.5522847 11,20 C11,19.6272783 10.7989007,19.3049848 10.5,19.1329401 L10.5,11 L9.5,11 L9.5,19.1327947 C9.34741329,19.2206517 9.22065104,19.347616 9.13294015,19.5 L7.70590926,19.5 C7.2513402,18.4241112 7,17.2414074 7,16 C7,11.1972158 10.7620055,7.27309504 15.5,7.01365419 L15.5,10.1327947 C15.3474133,10.2206517 15.220651,10.347616 15.1329401,10.5 L12.5,10.5 L12.5,11.5 L15.1327947,11.5 C15.3054545,11.7998691 15.629153,12 16,12 C16.3727217,12 16.6950152,11.7989007 16.8670599,11.5 L21.5,11.5 L21.5,10.5 L16.8672053,10.5 C16.7793483,10.3474133 16.652384,10.220651 16.5,10.1329401 L16.5,7.01365419 C21.2379945,7.27309504 25,11.1972158 25,16 C25,20.8027842 21.2379945,24.726905 16.5,24.9863458 L16.5,20.8672053 C16.6525867,20.7793483 16.779349,20.652384 16.8670599,20.5 L21.25,20.5 L22,20.5 L22,15.5 L23,15.5 L21.5,12.5 L20,15.5 L21,15.5 L21,19.5 L16.8672053,19.5 C16.7793483,19.3474133 16.652384,19.220651 16.5,19.1329401 L16.5,15.25 L16.5,14.5 L15,14.5 L15,13.5 L12,15 L15,16.5 L15,15.5 Z M5.95958468,20.5 C7.61501713,24.1879292 11.2426625,26.7983824 15.5,26.9888387 L15.5,28 L16.5,28 L16.5,26.9888387 C22.3430671,26.7274432 27,21.9075641 27,16 C27,10.0924359 22.3430671,5.27255684 16.5,5.01116134 L16.5,4 L15.5,4 L15.5,5.01116134 C9.65693288,5.27255684 5,10.0924359 5,16 C5,17.2236101 5.1997879,18.4005572 5.56852237,19.5 L4,19.5 L4,20.5 L5.95958468,20.5 Z M16,0 C14.8954305,0 14,0.8954305 14,2 C14,3.1045695 14.8954305,4 16,4 C17.1045695,4 18,3.1045695 18,2 C18,0.8954305 17.1045695,0 16,0 Z M16,1 C15.4477153,1 15,1.44771525 15,2 C15,2.55228475 15.4477153,3 16,3 C16.5522847,3 17,2.55228475 17,2 C17,1.44771525 16.5522847,1 16,1 Z M16,28 C14.8954305,28 14,28.8954305 14,30 C14,31.1045695 14.8954305,32 16,32 C17.1045695,32 18,31.1045695 18,30 C18,28.8954305 17.1045695,28 16,28 Z M16,29 C15.4477153,29 15,29.4477153 15,30 C15,30.5522847 15.4477153,31 16,31 C16.5522847,31 17,30.5522847 17,30 C17,29.4477153 16.5522847,29 16,29 Z M2,18 C0.8954305,18 4.4408921e-16,18.8954305 4.4408921e-16,20 C0,21.1045695 0.8954305,22 2,22 C3.1045695,22 4,21.1045695 4,20 C4,18.8954305 3.1045695,18 2,18 Z M2,19 C1.44771525,19 1,19.4477153 1,20 C1,20.5522847 1.44771525,21 2,21 C2.55228475,21 3,20.5522847 3,20 C3,19.4477153 2.55228475,19 2,19 Z M11.5,18.5 L12.5,18.5 L12.5,21.5 L11.5,21.5 L11.5,18.5 Z M11.5,9.5 L12.5,9.5 L12.5,12.5 L11.5,12.5 L11.5,9.5 Z"/>
</svg>
