<svg xmlns="http://www.w3.org/2000/svg" width="34" height="34" viewBox="0 0 34 34">
  <g fill="none" fill-rule="evenodd">
    <path fill="#333333" d="M19,16.5 L19.5,16.5 L19.5,20.1327947 C19.3474133,20.2206517 19.220651,20.347616 19.1329401,20.5 L16.5,20.5 L16.5,21.5 L19.1327947,21.5 C19.2206517,21.6525867 19.347616,21.779349 19.5,21.8670599 L19.5,25.9863458 C16.3791835,25.8154576 13.6818075,24.0546197 12.2040398,21.5 L13.1327947,21.5 C13.3054545,21.7998691 13.629153,22 14,22 C14.5561352,22 15,21.5522847 15,21 C15,20.6272783 14.7989007,20.3049848 14.5,20.1329401 L14.5,12 L13.5,12 L13.5,20.1327947 C13.3474133,20.2206517 13.220651,20.347616 13.1329401,20.5 L11.7059093,20.5 C11.2513402,19.4241112 11,18.2414074 11,17 C11,12.1972158 14.7620055,8.27309504 19.5,8.01365419 L19.5,11.1327947 C19.3474133,11.2206517 19.220651,11.347616 19.1329401,11.5 L16.5,11.5 L16.5,12.5 L19.1327947,12.5 C19.3054545,12.7998691 19.629153,13 20,13 C20.3727217,13 20.6950152,12.7989007 20.8670599,12.5 L25.5,12.5 L25.5,11.5 L20.8672053,11.5 C20.7793483,11.3474133 20.652384,11.220651 20.5,11.1329401 L20.5,8.01365419 C25.2379945,8.27309504 29,12.1972158 29,17 C29,21.8027842 25.2379945,25.726905 20.5,25.9863458 L20.5,21.8672053 C20.6525867,21.7793483 20.779349,21.652384 20.8670599,21.5 L25.25,21.5 L26,21.5 L26,16.5 L27,16.5 L25.5,13.5 L24,16.5 L25,16.5 L25,20.5 L20.8672053,20.5 C20.7793483,20.3474133 20.652384,20.220651 20.5,20.1329401 L20.5,16.25 L20.5,15.5 L19,15.5 L19,14.5 L16,16 L19,17.5 L19,16.5 Z M9.95958468,21.5 C11.6150171,25.1879292 15.2426625,27.7983824 19.5,27.9888387 L19.5,29 L20.5,29 L20.5,27.9888387 C26.3430671,27.7274432 31,22.9075641 31,17 C31,11.0924359 26.3430671,6.27255684 20.5,6.01116134 L20.5,5 L19.5,5 L19.5,6.01116134 C13.6569329,6.27255684 9,11.0924359 9,17 C9,18.2236101 9.1997879,19.4005572 9.56852237,20.5 L8,20.5 L8,21.5 L9.95958468,21.5 Z M20,1 C18.8954305,1 18,1.8954305 18,3 C18,4.1045695 18.8954305,5 20,5 C21.1045695,5 22,4.1045695 22,3 C22,1.8954305 21.1045695,1 20,1 Z M20,2 C19.4477153,2 19,2.44771525 19,3 C19,3.55228475 19.4477153,4 20,4 C20.5522847,4 21,3.55228475 21,3 C21,2.44771525 20.5522847,2 20,2 Z M20,29 C18.8954305,29 18,29.8954305 18,31 C18,32.1045695 18.8954305,33 20,33 C21.1045695,33 22,32.1045695 22,31 C22,29.8954305 21.1045695,29 20,29 Z M20,30 C19.4477153,30 19,30.4477153 19,31 C19,31.5522847 19.4477153,32 20,32 C20.5522847,32 21,31.5522847 21,31 C21,30.4477153 20.5522847,30 20,30 Z M6,19 C4.8954305,19 4,19.8954305 4,21 C4,22.1045695 4.8954305,23 6,23 C7.1045695,23 8,22.1045695 8,21 C8,19.8954305 7.1045695,19 6,19 Z M6,20 C5.44771525,20 5,20.4477153 5,21 C5,21.5522847 5.44771525,22 6,22 C6.55228475,22 7,21.5522847 7,21 C7,20.4477153 6.55228475,20 6,20 Z M15.5,19.5 L16.5,19.5 L16.5,22.5 L15.5,22.5 L15.5,19.5 Z M15.5,10.5 L16.5,10.5 L16.5,13.5 L15.5,13.5 L15.5,10.5 Z"/>
  </g>
</svg>
