<svg xmlns="http://www.w3.org/2000/svg" width="28" height="27" viewBox="0 0 28 27">
  <g fill="#333333" fill-rule="evenodd" transform="translate(-1)">
    <g transform="translate(17.625)">
      <path d="M2.68606339,9.5799521 C2.66576501,9.58041331 2.6454097,9.58064516 2.625,9.58064516 C1.17525253,9.58064516 0,8.41080854 0,6.96774194 C7.00215709e-16,5.83006747 0.730456674,4.8622141 1.75,4.50351787 L1.75,3.48387097 L3.5,3.48387097 L3.5,4.86466216 L3.5,6.14633392 C3.36315922,6.11423832 3.215903,6.09677419 3.0625,6.09677419 C2.33762627,6.09677419 1.75,6.48671973 1.75,6.96774194 C1.75,7.44876414 2.33762627,7.83870968 3.0625,7.83870968 C3.12486794,7.83870968 3.18621985,7.83582298 3.24626888,7.83023993 C3.80552068,7.30618821 4.69092031,6.96774194 5.6875,6.96774194 C7.37887205,6.96774194 8.75,7.94260579 8.75,9.14516129 C8.75,10.3477168 7.37887205,11.3225806 5.6875,11.3225806 C4.20554391,11.3225806 2.96943968,10.5741762 2.68606339,9.5799521 Z M6.27436749,1.74193548 C6.63472435,0.727090514 7.60705853,1.87962711e-16 8.75,8.8817842e-16 C10.1997475,8.8817842e-16 11.375,1.16983662 11.375,2.61290323 C11.375,4.05596983 10.1997475,5.22580645 8.75,5.22580645 C7.60705853,5.22580645 6.63472435,4.49871594 6.27436749,3.48387097 L1.75,3.48387097 L1.75,1.74193548 L6.27436749,1.74193548 Z M8.75,1.74193548 C8.26675084,1.74193548 7.875,2.13188102 7.875,2.61290323 C7.875,3.09392543 8.26675084,3.48387097 8.75,3.48387097 C9.23324916,3.48387097 9.625,3.09392543 9.625,2.61290323 C9.625,2.13188102 9.23324916,1.74193548 8.75,1.74193548 Z M5.6875,8.27419355 C4.96262627,8.27419355 4.375,8.66413909 4.375,9.14516129 C4.375,9.62618349 4.96262627,10.016129 5.6875,10.016129 C6.41237373,10.016129 7,9.62618349 7,9.14516129 C7,8.66413909 6.41237373,8.27419355 5.6875,8.27419355 Z M5.6875,11.3225806 C3.99612795,11.3225806 2.625,12.2974445 2.625,13.5 C2.625,14.7025555 3.99612795,15.6774194 5.6875,15.6774194 C7.37887205,15.6774194 8.75,14.7025555 8.75,13.5 C8.75,12.2974445 7.37887205,11.3225806 5.6875,11.3225806 Z M5.6875,12.6290323 C4.96262627,12.6290323 4.375,13.0189778 4.375,13.5 C4.375,13.9810222 4.96262627,14.3709677 5.6875,14.3709677 C6.41237373,14.3709677 7,13.9810222 7,13.5 C7,13.0189778 6.41237373,12.6290323 5.6875,12.6290323 Z M5.6875,15.6774194 C3.99612795,15.6774194 2.625,16.6522832 2.625,17.8548387 C2.625,19.0573942 3.99612795,20.0322581 5.6875,20.0322581 C7.37887205,20.0322581 8.75,19.0573942 8.75,17.8548387 C8.75,16.6522832 7.37887205,15.6774194 5.6875,15.6774194 Z M5.6875,16.983871 C4.96262627,16.983871 4.375,17.3738165 4.375,17.8548387 C4.375,18.3358609 4.96262627,18.7258065 5.6875,18.7258065 C6.41237373,18.7258065 7,18.3358609 7,17.8548387 C7,17.3738165 6.41237373,16.983871 5.6875,16.983871 Z"/>
      <path d="M1.75,22.4964821 C0.730456674,22.1377859 0,21.1699325 0,20.0322581 C5.59374002e-16,19.123416 0.466160335,18.3229497 1.17346463,17.8548387 C0.466160335,17.3867277 0,16.5862615 0,15.6774194 C5.59374002e-16,14.7685773 0.466160335,13.968111 1.17346463,13.5 C0.466160335,13.031889 0,12.2314227 0,11.3225806 C8.8817842e-16,9.87951404 1.17525253,8.70967742 2.625,8.70967742 C2.931806,8.70967742 3.22631844,8.76206981 3.5,8.85835658 L3.5,10.5011726 C3.36315922,10.469077 3.215903,10.4516129 3.0625,10.4516129 C2.33762627,10.4516129 1.75,10.8415584 1.75,11.3225806 C1.75,11.8036028 2.33762627,12.1935484 3.0625,12.1935484 C3.215903,12.1935484 3.36315922,12.1760843 3.5,12.1439887 L3.5,13.1388557 C3.70507141,18.0694951 3.8984471,17.9727018 4.07653537,17.8548387 C4.31014308,18.0094459 4.5174458,18.2003078 4.69033659,18.4193548 L3.5,18.4193548 L3.5,19.21085 C3.36315922,19.1787545 3.215903,19.1612903 3.0625,19.1612903 C2.33762627,19.1612903 1.75,19.5512359 1.75,20.0322581 C1.75,20.5132803 2.33762627,20.9032258 3.0625,20.9032258 C3.215903,20.9032258 3.36315922,20.8857617 3.5,20.8536661 L3.5,22.1353378 L3.5,23.516129 L1.75,23.516129 L1.75,22.4964821 Z M6.27436749,23.516129 C6.63472435,22.5012841 7.60705853,21.7741935 8.75,21.7741935 C10.1997475,21.7741935 11.375,22.9440302 11.375,24.3870968 C11.375,25.8301634 10.1997475,27 8.75,27 C7.60705853,27 6.63472435,26.2729095 6.27436749,25.2580645 L1.75,25.2580645 L1.75,23.516129 L6.27436749,23.516129 Z M3.5,17.568034 L3.5,16.4988274 C3.36315922,16.530923 3.215903,16.5483871 3.0625,16.5483871 C2.33762627,16.5483871 1.75,16.1584416 1.75,15.6774194 C1.75,15.1963972 2.33762627,14.8064516 3.0625,14.8064516 C3.215903,14.8064516 3.36315922,14.8239157 3.5,14.8560113 L3.5,13.2131953 C4.51954333,13.5718915 5.25,14.5397449 5.25,15.6774194 C5.25,16.5862615 4.78383967,17.3867277 4.07653537,17.8548387 Z M8.75,23.516129 C8.26675084,23.516129 7.875,23.9060746 7.875,24.3870968 C7.875,24.868119 8.26675084,25.2580645 8.75,25.2580645 C9.23324916,25.2580645 9.625,24.868119 9.625,24.3870968 C9.625,23.9060746 9.23324916,23.516129 8.75,23.516129 Z"/>
    </g>
    <g transform="rotate(-180 6.188 13.5)">
      <path d="M2.68606339,9.5799521 C2.66576501,9.58041331 2.6454097,9.58064516 2.625,9.58064516 C1.17525253,9.58064516 -1.77635684e-15,8.41080854 -1.77635684e-15,6.96774194 C-1.07614113e-15,5.83006747 0.730456674,4.8622141 1.75,4.50351787 L1.75,3.48387097 L3.5,3.48387097 L3.5,4.86466216 L3.5,6.14633392 C3.36315922,6.11423832 3.215903,6.09677419 3.0625,6.09677419 C2.33762627,6.09677419 1.75,6.48671973 1.75,6.96774194 C1.75,7.44876414 2.33762627,7.83870968 3.0625,7.83870968 C3.12486794,7.83870968 3.18621985,7.83582298 3.24626888,7.83023993 C3.80552068,7.30618821 4.69092031,6.96774194 5.6875,6.96774194 C7.37887205,6.96774194 8.75,7.94260579 8.75,9.14516129 C8.75,10.3477168 7.37887205,11.3225806 5.6875,11.3225806 C4.20554391,11.3225806 2.96943968,10.5741762 2.68606339,9.5799521 Z M6.27436749,1.74193548 C6.63472435,0.727090514 7.60705853,1.87962711e-16 8.75,8.8817842e-16 C10.1997475,8.8817842e-16 11.375,1.16983662 11.375,2.61290323 C11.375,4.05596983 10.1997475,5.22580645 8.75,5.22580645 C7.60705853,5.22580645 6.63472435,4.49871594 6.27436749,3.48387097 L1.75,3.48387097 L1.75,1.74193548 L6.27436749,1.74193548 Z M8.75,1.74193548 C8.26675084,1.74193548 7.875,2.13188102 7.875,2.61290323 C7.875,3.09392543 8.26675084,3.48387097 8.75,3.48387097 C9.23324916,3.48387097 9.625,3.09392543 9.625,2.61290323 C9.625,2.13188102 9.23324916,1.74193548 8.75,1.74193548 Z M5.6875,8.27419355 C4.96262627,8.27419355 4.375,8.66413909 4.375,9.14516129 C4.375,9.62618349 4.96262627,10.016129 5.6875,10.016129 C6.41237373,10.016129 7,9.62618349 7,9.14516129 C7,8.66413909 6.41237373,8.27419355 5.6875,8.27419355 Z M5.6875,11.3225806 C3.99612795,11.3225806 2.625,12.2974445 2.625,13.5 C2.625,14.7025555 3.99612795,15.6774194 5.6875,15.6774194 C7.37887205,15.6774194 8.75,14.7025555 8.75,13.5 C8.75,12.2974445 7.37887205,11.3225806 5.6875,11.3225806 Z M5.6875,12.6290323 C4.96262627,12.6290323 4.375,13.0189778 4.375,13.5 C4.375,13.9810222 4.96262627,14.3709677 5.6875,14.3709677 C6.41237373,14.3709677 7,13.9810222 7,13.5 C7,13.0189778 6.41237373,12.6290323 5.6875,12.6290323 Z M5.6875,15.6774194 C3.99612795,15.6774194 2.625,16.6522832 2.625,17.8548387 C2.625,19.0573942 3.99612795,20.0322581 5.6875,20.0322581 C7.37887205,20.0322581 8.75,19.0573942 8.75,17.8548387 C8.75,16.6522832 7.37887205,15.6774194 5.6875,15.6774194 Z M5.6875,16.983871 C4.96262627,16.983871 4.375,17.3738165 4.375,17.8548387 C4.375,18.3358609 4.96262627,18.7258065 5.6875,18.7258065 C6.41237373,18.7258065 7,18.3358609 7,17.8548387 C7,17.3738165 6.41237373,16.983871 5.6875,16.983871 Z"/>
      <path d="M1.75,22.4964821 C0.730456674,22.1377859 0,21.1699325 0,20.0322581 C5.59374002e-16,19.123416 0.466160335,18.3229497 1.17346463,17.8548387 C0.466160335,17.3867277 0,16.5862615 0,15.6774194 C5.59374002e-16,14.7685773 0.466160335,13.968111 1.17346463,13.5 C0.466160335,13.031889 0,12.2314227 0,11.3225806 C8.8817842e-16,9.87951404 1.17525253,8.70967742 2.625,8.70967742 C2.931806,8.70967742 3.22631844,8.76206981 3.5,8.85835658 L3.5,10.5011726 C3.36315922,10.469077 3.215903,10.4516129 3.0625,10.4516129 C2.33762627,10.4516129 1.75,10.8415584 1.75,11.3225806 C1.75,11.8036028 2.33762627,12.1935484 3.0625,12.1935484 C3.215903,12.1935484 3.36315922,12.1760843 3.5,12.1439887 L3.5,13.1388557 C3.70507141,18.0694951 3.8984471,17.9727018 4.07653537,17.8548387 C4.31014308,18.0094459 4.5174458,18.2003078 4.69033659,18.4193548 L3.5,18.4193548 L3.5,19.21085 C3.36315922,19.1787545 3.215903,19.1612903 3.0625,19.1612903 C2.33762627,19.1612903 1.75,19.5512359 1.75,20.0322581 C1.75,20.5132803 2.33762627,20.9032258 3.0625,20.9032258 C3.215903,20.9032258 3.36315922,20.8857617 3.5,20.8536661 L3.5,22.1353378 L3.5,23.516129 L1.75,23.516129 L1.75,22.4964821 Z M6.27436749,23.516129 C6.63472435,22.5012841 7.60705853,21.7741935 8.75,21.7741935 C10.1997475,21.7741935 11.375,22.9440302 11.375,24.3870968 C11.375,25.8301634 10.1997475,27 8.75,27 C7.60705853,27 6.63472435,26.2729095 6.27436749,25.2580645 L1.75,25.2580645 L1.75,23.516129 L6.27436749,23.516129 Z M3.5,17.568034 L3.5,16.4988274 C3.36315922,16.530923 3.215903,16.5483871 3.0625,16.5483871 C2.33762627,16.5483871 1.75,16.1584416 1.75,15.6774194 C1.75,15.1963972 2.33762627,14.8064516 3.0625,14.8064516 C3.215903,14.8064516 3.36315922,14.8239157 3.5,14.8560113 L3.5,13.2131953 C4.51954333,13.5718915 5.25,14.5397449 5.25,15.6774194 C5.25,16.5862615 4.78383967,17.3867277 4.07653537,17.8548387 Z M8.75,23.516129 C8.26675084,23.516129 7.875,23.9060746 7.875,24.3870968 C7.875,24.868119 8.26675084,25.2580645 8.75,25.2580645 C9.23324916,25.2580645 9.625,24.868119 9.625,24.3870968 C9.625,23.9060746 9.23324916,23.516129 8.75,23.516129 Z"/>
    </g>
    <path d="M13.25,8.70967742 L14.65,8.70967742 L14.65,20.0322581 L13.25,20.0322581 L13.25,8.70967742 Z M15.3499146,8.70967742 L16.7499146,8.70967742 L16.7499146,20.0322581 L15.3499146,20.0322581 L15.3499146,8.70967742 Z"/>
  </g>
</svg>
