<?xml version="1.0" encoding="UTF-8" standalone="no"?>
<svg width="68px" height="66px" viewBox="0 0 68 66" version="1.1" xmlns="http://www.w3.org/2000/svg" xmlns:xlink="http://www.w3.org/1999/xlink" xmlns:sketch="http://www.bohemiancoding.com/sketch/ns">
    <!-- Generator: Sketch 3.4.2 (15855) - http://www.bohemiancoding.com/sketch -->
    <title>activity</title>
    <desc>Created with Sketch.</desc>
    <defs></defs>
    <g id="Icons" stroke="none" stroke-width="1" fill="none" fill-rule="evenodd" sketch:type="MSPage">
        <g id="activity" sketch:type="MSLayerGroup">
            <path d="M19,15.5 C19,14.1192881 20.1225656,13 21.5064087,13 L54.693592,13 C56.0778433,13 57.2000008,14.1096621 57.2000008,15.5 C57.2000008,16.8807119 56.0774352,18 54.693592,18 L21.5064087,18 C20.1221574,18 19,16.8903379 19,15.5 Z M19,26.0180723 C19,24.6373604 20.1228756,23.5180723 21.5025619,23.5180723 L44.6974388,23.5180723 C46.0795656,23.5180723 47.2000008,24.6277343 47.2000008,26.0180723 C47.2000008,27.3987842 46.0771252,28.5180723 44.6974388,28.5180723 L21.5025619,28.5180723 C20.1204351,28.5180723 19,27.4084102 19,26.0180723 Z M19,36.5361446 C19,35.1554327 20.1225656,34.0361446 21.5064087,34.0361446 L54.693592,34.0361446 C56.0778433,34.0361446 57.2000008,35.1458066 57.2000008,36.5361446 C57.2000008,37.9168565 56.0774352,39.0361446 54.693592,39.0361446 L21.5064087,39.0361446 C20.1221574,39.0361446 19,37.9264825 19,36.5361446 Z M10,15.9819277 C10,14.3350545 11.3315945,13 12.982422,13 L13.017578,13 C14.6647242,13 16,14.3384056 16,15.9819277 C16,17.6288009 14.6684055,18.9638554 13.017578,18.9638554 L12.982422,18.9638554 C11.3352758,18.9638554 10,17.6254499 10,15.9819277 Z M10,26.5 C10,24.8531268 11.3315945,23.5180723 12.982422,23.5180723 L13.017578,23.5180723 C14.6647242,23.5180723 16,24.8564779 16,26.5 C16,28.1468732 14.6684055,29.4819277 13.017578,29.4819277 L12.982422,29.4819277 C11.3352758,29.4819277 10,28.1435221 10,26.5 Z M10,37.0180723 C10,35.3711991 11.3315945,34.0361446 12.982422,34.0361446 L13.017578,34.0361446 C14.6647242,34.0361446 16,35.3745501 16,37.0180723 C16,38.6649455 14.6684055,40 13.017578,40 L12.982422,40 C11.3352758,40 10,38.6615944 10,37.0180723 Z" id="sidebar-hide-2" fill="#383E49" sketch:type="MSShapeGroup"></path>
            <path d="M25,52 L66.0017157,52 C67.102797,52 68,51.1016149 68,49.9934007 L68,2.00659927 C68,0.902557373 67.1053377,0 66.0017157,0 L1.99828427,0 C0.897202996,0 0,0.898385094 0,2.00659927 L0,49.9934007 C0,51.0974426 0.894662343,52 1.99828427,52 L10,52 L10,64.9971408 C10,66.0981492 10.6358862,66.3641138 11.4202915,65.5797085 L25,52 Z" id="Rectangle-105" stroke="#383E49" stroke-width="5" sketch:type="MSShapeGroup"></path>
        </g>
    </g>
</svg>