<?xml version="1.0" encoding="UTF-8" standalone="no"?>
<svg width="63px" height="68px" viewBox="0 0 63 68" version="1.1" xmlns="http://www.w3.org/2000/svg" xmlns:xlink="http://www.w3.org/1999/xlink" xmlns:sketch="http://www.bohemiancoding.com/sketch/ns">
    <!-- Generator: Sketch 3.4.2 (15855) - http://www.bohemiancoding.com/sketch -->
    <title>contactpricing</title>
    <desc>Created with Sketch.</desc>
    <defs></defs>
    <g id="Icons" stroke="none" stroke-width="1" fill="none" fill-rule="evenodd" sketch:type="MSPage">
        <g id="contactpricing" sketch:type="MSLayerGroup" fill="#383E49">
            <path d="M52.9655172,35.3573954 L52.9655172,6.58068716 C52.9655172,2.95540848 50.0220761,0 46.3911575,0 L6.57435969,0 C2.94209806,0 0,2.946274 0,6.58068716 L0,65.8064516 L8.96497845,61.4193548 L13.3375683,65.7525427 L17.9304957,61.4193548 L22.3442888,65.8064516 L26.7580819,61.4193548 L30.9923961,65.7506574 L33.5598917,63.2546419 C36.6597457,66.1946645 40.8584447,68 45.4812594,68 C55.0197628,68 62.7526237,60.3139105 62.7526237,50.8330996 C62.7526237,44.017393 58.7562049,38.1292162 52.9655183,35.3574007 Z M48.5517241,33.9366833 L48.5517241,8.76762312 C48.5517241,6.35027619 46.5846966,4.38709677 44.1582452,4.38709677 L8.80727202,4.38709677 C6.38165207,4.38709677 4.4137931,6.35479736 4.4137931,8.78207905 L4.4137931,59.2258065 L9.10290948,57.0322581 L13.5078567,61.4193548 L17.9326723,57.4602777 L22.3216546,61.4193548 L26.763516,57.8591943 L30.9422954,61.4193548 L31.5461465,60.9767368 C29.4486568,58.1348524 28.2098951,54.6277282 28.2098951,50.8330996 C28.2098951,49.9579164 28.2757892,49.0980267 28.4029152,48.2580645 L11.0344828,48.2580645 L11.0344828,43.8709677 L29.6893639,43.8709677 C30.0299359,43.1089473 30.4246954,42.3761535 30.8687827,41.6774194 L11.0344828,41.6774194 L11.0344828,37.2903226 L34.8662871,37.2903226 C37.7948644,35.0192941 41.479125,33.6661992 45.4812594,33.6661992 C46.52916,33.6661992 47.555268,33.7589644 48.5517241,33.9366833 Z M11.0344828,8.77419355 L13.2413793,8.77419355 L13.2413793,26.3225806 L11.0344828,26.3225806 L11.0344828,8.77419355 Z M15.4482759,8.77419355 L22.0689655,8.77419355 L22.0689655,26.3225806 L15.4482759,26.3225806 L15.4482759,8.77419355 Z M24.2758621,8.77419355 L28.6896552,8.77419355 L28.6896552,26.3225806 L24.2758621,26.3225806 L24.2758621,8.77419355 Z M30.8965517,8.77419355 L33.1034483,8.77419355 L33.1034483,26.3225806 L30.8965517,26.3225806 L30.8965517,8.77419355 Z M35.3103448,8.77419355 L37.5172414,8.77419355 L37.5172414,26.3225806 L35.3103448,26.3225806 L35.3103448,8.77419355 Z M39.7241379,8.77419355 L41.9310345,8.77419355 L41.9310345,26.3225806 L39.7241379,26.3225806 L39.7241379,8.77419355 Z M11.0344828,30.7096774 L28.6896552,30.7096774 L28.6896552,35.0967742 L11.0344828,35.0967742 L11.0344828,30.7096774 Z M49.6293195,50.7018233 C49.1375936,50.3180926 48.5706865,50.0050491 47.93063,49.7626928 C47.2895576,49.5203366 46.8252627,49.3082749 46.1537114,49.1265077 L46.1537114,44.2995792 C46.9583538,44.2995792 47.3535633,44.5015428 47.7182939,44.915568 C48.0830244,45.3295933 48.2801212,45.9253857 48.3106001,46.7029453 L50.8586343,46.7029453 C50.8586343,45.9556802 50.7275751,45.2992987 50.4674887,44.7338008 C50.2063863,44.1683029 49.8568952,43.7037868 49.4169833,43.3301543 C48.9770715,42.9666199 48.4599466,42.6939691 47.8635765,42.512202 C47.2672065,42.3304348 46.8252627,42.2395512 46.1537114,42.2395512 L46.1537114,40.7349229 L44.8126408,40.7349229 L44.8126408,42.2395512 C44.1421055,42.2395512 43.6910181,42.340533 43.0804246,42.5323983 C42.469831,42.7343619 41.9293389,43.0171108 41.4599642,43.3907433 C40.9905895,43.7643759 40.6177312,44.228892 40.3424053,44.7842917 C40.0660635,45.3396914 39.9289086,45.9859748 39.9289086,46.7231417 C39.9289086,47.5612903 40.0782551,48.2580645 40.3759321,48.8235624 C40.6736091,49.3890603 41.0647548,49.8636746 41.5493689,50.2373072 C42.0329671,50.6109397 42.5775231,50.913885 43.1810049,51.1461431 C43.7844866,51.3884993 44.2010313,51.5904628 44.8126408,51.7520337 L44.8126408,57.2959327 C43.7834707,57.2656381 43.2368828,56.9525947 42.7898593,56.3769986 C42.3428357,55.8014025 42.1264357,55.0036466 42.1416751,53.9938289 L39.5936409,53.9938289 C39.5784015,54.8521739 39.7013329,55.6095372 39.9624353,56.2659187 C40.2235377,56.9223001 40.5913162,57.4676017 41.0688186,57.9220196 C41.5453051,58.3764376 42.1193239,58.7197756 42.7898593,58.9621318 C43.4603946,59.2044881 44.0079984,59.3357644 44.8126408,59.3559607 L44.8126408,60.9211781 L46.1537114,60.9211781 L46.1537114,59.3559607 C46.899428,59.3256662 47.4013135,59.1943899 48.0423859,58.97223 C48.6824424,58.7500701 49.2422378,58.4370266 49.7187242,58.0129032 C50.1952107,57.598878 50.5721328,57.0636746 50.8474587,56.4375877 C51.1227846,55.8014025 51.2609555,55.0541374 51.2609555,54.2058906 C51.2609555,53.3778401 51.111609,52.6911641 50.8139319,52.1256662 C50.5162549,51.5601683 50.1210454,51.085554 49.6293195,50.7018233 Z" id="Rectangle-100" sketch:type="MSShapeGroup"></path>
            <path d="M46.1537114,57.2959327 L46.1537114,51.9640954 C46.4971068,52.054979 46.6413735,52.1559607 46.9695294,52.2771388 C47.2966694,52.4084151 47.5912985,52.5598878 47.8524009,52.7618513 C48.1124874,52.9638149 48.3217757,53.2061711 48.4782339,53.4990182 C48.6346921,53.7817672 48.7129213,54.1453015 48.7129213,54.569425 C48.7129213,55.488359 48.4558827,56.1548387 47.9418056,56.568864 C47.4277286,56.9929874 46.9583538,57.2353436 46.1537114,57.2959327 Z" id="Path" sketch:type="MSShapeGroup"></path>
            <path d="M44.8126408,48.8740533 C44.4997243,48.7932679 44.3798407,48.7023843 44.075052,48.5812062 C43.7692472,48.4701262 43.5010331,48.3186536 43.2704096,48.1368864 C43.0397861,47.9551192 42.8498011,47.7329593 42.7004545,47.4805049 C42.551108,47.2179523 42.4769428,46.9049088 42.4769428,46.5413745 C42.4769428,45.7335203 42.6963907,45.1579243 43.1363025,44.8145863 C43.5751984,44.4712482 44.0079984,44.2995792 44.8126408,44.2995792 L44.8126408,48.8740533 L44.8126408,48.8740533 Z" id="Path" sketch:type="MSShapeGroup"></path>
        </g>
    </g>
</svg>