<svg xmlns="http://www.w3.org/2000/svg" width="36" height="36" viewBox="0 0 36 36">
  <path fill="#20282D" fill-rule="evenodd" d="M18,14.8117063 C16.1110875,14.8117063 14.22226,16.4375 14.22226,18.4444444 C14.22226,20.4480159 15.91376,22.0771825 18,22.0771825 C20.0859,22.0771825 21.77808,20.2608135 21.77808,18.4444444 C21.77808,16.6280754 19.8889125,14.8117063 18,14.8117063 Z M18,25.7065476 C13.82718,25.7065476 10.44452,22.4549603 10.44452,18.4444444 C10.44452,14.4305556 13.82718,11.1789683 18,11.1789683 C22.17316,11.1789683 25.55582,14.4305556 25.55582,18.4444444 C25.55582,22.4549603 22.17316,25.7065476 18,25.7065476 L18,25.7065476 Z M1,18.4444444 C1,19.7363095 6.84732,27.8888889 18,27.8888889 C29.15234,27.8888889 35,19.7363095 35,18.4444444 C35,17.1492063 29.15234,9 18,9 C6.84732,9 1,17.1492063 1,18.4444444 Z"/>
</svg>
