<svg xmlns="http://www.w3.org/2000/svg" width="36" height="36" viewBox="0 0 36 36">
  <path fill="#20282D" fill-rule="evenodd" d="M1,4.00235843 C1,2.34420165 2.34331243,1 4.00235843,1 L31.9976416,1 C33.6557983,1 35,2.34331243 35,4.00235843 L35,31.9976416 C35,33.6557983 33.6566876,35 31.9976416,35 L4.00235843,35 C2.34420165,35 1,33.6566876 1,31.9976416 L1,4.00235843 Z M33.3968725,11.6737488 C33.2275567,11.0734746 33.0242891,10.487425 32.789303,9.91789718 L29.6077284,9.91789718 L29.6077284,5.73624379 L27.8216868,5.73624379 L27.8216868,9.91789718 L23.6542788,9.91789718 L23.6542788,11.6737488 L27.8216868,11.6737488 L27.8216868,15.892468 L29.6077284,15.892468 L29.6077284,11.6737488 L33.3968725,11.6737488 Z M2,16.0555556 C2,20.0183635 3.43070819,23.6458511 5.80207231,26.4462646 C6.24946061,25.6913041 6.94317024,24.9490614 7.97085922,24.3391104 C10.2896792,22.9133973 13.4127143,22.7250955 15.1015658,22.6174945 C14.5788261,21.9449883 13.9756648,21.2321317 13.9756648,20.0619709 C13.9756648,19.4298151 14.163315,19.0532116 14.3509651,18.6093575 C13.935454,18.6497079 13.5333465,18.6900583 13.1580462,18.6900583 C9.20398893,18.6900583 6.96559043,15.731031 6.96559043,12.8123541 C6.96559043,11.0907382 7.75640188,9.17813055 9.35142836,7.79411278 C11.4825982,6.03618156 14.0158755,5.73624379 16.0264131,5.73624379 L23.7066667,5.73624379 L21.3208287,7.08260121 L19.0154123,7.08260121 C19.8732417,7.79411278 21.6559183,9.29111159 21.6559183,12.1398479 C21.6559183,14.9105734 20.087699,16.2152355 18.5328833,17.4526469 C18.0369507,17.9368513 17.4874038,18.4614062 17.4874038,19.2818638 C17.4874038,20.1023213 18.0369507,20.5596255 18.4524618,20.8958786 L19.7928202,21.9449883 C21.441461,23.316901 22.9292588,24.5946628 22.9292588,27.1770866 C22.9292588,28.8800994 22.1372644,30.5893948 20.5941221,31.901161 C19.7638351,32.0369953 18.9120821,32.1087027 18.0440767,32.1110515 C19.6110186,31.4213154 20.4227886,30.1593317 20.4227886,28.6431501 C20.4227886,26.7332325 19.2030625,25.7244732 16.3615027,23.6935045 C16.0666239,23.6666042 15.8789737,23.6666042 15.5036733,23.6666042 C15.1685838,23.6666042 13.1580462,23.7338548 11.5898269,24.2584097 C10.7722082,24.5543124 8.38637032,25.4554707 8.38637032,28.1185953 C8.38637032,28.4080118 8.41707353,28.6886026 8.4769778,28.9588427 C4.54700089,26.0334025 2,21.342954 2,16.0555556 Z M17.447193,16.5918389 C18.3050224,15.731031 18.3720403,14.53397 18.3720403,13.8614637 C18.3720403,11.1579888 16.7770138,6.97096518 13.6807859,6.97096518 C12.7157279,6.97096518 11.6702484,7.45785968 11.0670871,8.20703159 C10.4371186,8.99251883 10.2494685,10.0012781 10.2494685,10.9696871 C10.2494685,13.4848603 11.6970555,17.6409486 14.9139157,17.6409486 C15.8387629,17.6409486 16.8440317,17.1836444 17.447193,16.5918389 Z"/>
</svg>
