<?xml version="1.0" encoding="UTF-8" standalone="no"?>
<svg width="76px" height="75px" viewBox="0 0 76 75" version="1.1" xmlns="http://www.w3.org/2000/svg" xmlns:xlink="http://www.w3.org/1999/xlink" xmlns:sketch="http://www.bohemiancoding.com/sketch/ns">
    <!-- Generator: Sketch 3.5.2 (25235) - http://www.bohemiancoding.com/sketch -->
    <title>messages</title>
    <desc>Created with Sketch.</desc>
    <defs></defs>
    <g id="Resources" stroke="none" stroke-width="1" fill="none" fill-rule="evenodd" sketch:type="MSPage">
        <g id="Icons" sketch:type="MSLayerGroup" transform="translate(-753.000000, -34.000000)" fill="#333333">
            <path d="M822.214286,82.5699997 L824.995984,82.5699997 C827.204017,82.5699997 828.997142,80.7812316 828.997142,78.5746743 L828.997142,37.9953254 C828.997142,35.7862345 827.205763,34 824.995984,34 L767.858301,34 C765.650268,34 763.857143,35.7887681 763.857143,37.9953254 L763.857143,78.5746743 C763.857143,80.7837652 765.648522,82.5699997 767.858301,82.5699997 L802.767619,82.5699997 L819.691571,93.4496833 C821.077021,94.34033 822.214286,93.7303323 822.214286,92.0760062 L822.214286,82.5699997 Z M816.220256,96.9173165 C815.614239,97.2861133 814.902522,97.4985711 814.141523,97.4985711 L780.589524,97.4985711 L763.665572,108.378255 C762.272315,109.27392 761.142857,108.651817 761.142857,107.004578 L761.142857,97.4985711 L757.001334,97.4985711 C754.791458,97.4985711 753,95.7123366 753,93.5032457 L753,52.9238969 C753,50.7173396 754.793203,48.9285714 757.001334,48.9285714 L759.785714,48.9285714 L759.785714,82.6462473 C759.785714,84.8540801 761.577172,86.6428571 763.787048,86.6428571 L801.078947,86.6428571 L816.220256,96.9173165 Z" id="messages" sketch:type="MSShapeGroup"></path>
        </g>
    </g>
</svg>