<svg xmlns="http://www.w3.org/2000/svg" width="36" height="36" viewBox="0 0 36 36">
  <path fill="#000000" d="M26.84,18.51 C27.35,20.72 28.03,22.59 31.6,25.48 L31.26,28.71 L20.21,28.71 L15.79,28.71 L4.74,28.71 L4.4,25.48 C7.97,22.59 8.65,20.89 9.16,18.51 C9.67,16.47 9.16,10.01 9.16,10.01 C9.16,6.1 13.07,1.51 18,1.51 C22.93,1.51 26.84,6.27 26.84,10.01 C26.84,10.01 26.33,16.47 26.84,18.51 Z M18,34.66 C16.13,34.66 14.6,33.13 14.6,31.26 L21.4,31.26 C21.4,33.13 19.87,34.66 18,34.66 Z M1.583644,7.057338 L6.632338,2.008644 L9.036478,4.412784 L3.987784,9.461478 L1.583644,7.057338 Z M26.963267,4.292747 L29.367407,1.888607 L34.416101,6.937301 L32.011961,9.341441 L26.963267,4.292747 Z"/>
</svg>
