<?xml version="1.0" encoding="utf-8"?>
<!-- Generator: Adobe Illustrator 22.0.1, SVG Export Plug-In . SVG Version: 6.00 Build 0)  -->
<svg version="1.1" id="Layer_1" xmlns="http://www.w3.org/2000/svg" xmlns:xlink="http://www.w3.org/1999/xlink" x="0px" y="0px"
	 width="34px" height="34px" viewBox="0 0 34 34" style="enable-background:new 0 0 34 34;" xml:space="preserve">
<path d="M28.3,17c0-0.8-0.1-1.5-0.2-2.2l3.5-2.7l-3-5.2l-4.1,1.7c-1.1-1-2.4-1.7-3.8-2.2L20,2h-6l-0.6,4.4C12,6.9,10.7,7.6,9.6,8.6
	L5.5,6.9l-3,5.2L6,14.8c-0.1,0.7-0.2,1.5-0.2,2.2s0.1,1.5,0.2,2.2l-3.5,2.7l3,5.2l4.1-1.7c1.1,1,2.4,1.7,3.8,2.2L14,32h6l0.6-4.4
	c1.4-0.5,2.7-1.2,3.8-2.2l4.1,1.7l3-5.2L28,19.2C28.2,18.5,28.3,17.8,28.3,17z M17,23.8c-3.7,0-6.8-3-6.8-6.8s3-6.8,6.8-6.8
	s6.8,3,6.8,6.8S20.7,23.8,17,23.8z"/>
</svg>
