<svg xmlns="http://www.w3.org/2000/svg" width="36" height="36" viewBox="0 0 36 36">
  <g fill="none" fill-rule="evenodd" transform="translate(2 2)">
    <path fill="#20282D" d="M27,24.2727273 L27,17.8221604 C27,16.7156196 26.1070044,15.8181818 25.0054385,15.8181818 L7.99456145,15.8181818 C6.90234375,15.8181818 6,16.7153936 6,17.8221604 L6,24.2727273 L2.00174332,24.2727273 C0.89621101,24.2727273 0,23.3831572 0,22.270469 L0,8.82044012 C0,7.71462339 0.889261723,6.81818182 2.00174332,6.81818182 L29.9982567,6.81818182 C31.103789,6.81818182 32,7.70775188 32,8.82044012 L32,22.270469 C32,23.3762857 31.1107383,24.2727273 29.9982567,24.2727273 L27,24.2727273 Z"/>
    <path fill="#FFFFFF" d="M27,21.2681816 L27,16.8181818 C27,16.2658971 26.5522847,15.8181818 26,15.8181818 L7,15.8181818 C6.44771525,15.8181818 6,16.2658971 6,16.8181818 L6,21.2681816 L4,21.2681816 C3.44771525,21.2681816 3,20.8204664 3,20.2681816 L3,10.8181818 C3,10.2658971 3.44771525,9.81818182 4,9.81818182 L28,9.81818182 C28.5522847,9.81818182 29,10.2658971 29,10.8181818 L29,20.2681816 C29,20.8204664 28.5522847,21.2681816 28,21.2681816 L27,21.2681816 Z"/>
    <rect width="21" height="8.45" x="6" y=".818" fill="#20282D" rx="2"/>
    <rect width="15" height="2.45" x="9" y="3.818" fill="#FFFFFF" rx="1.225"/>
    <rect width="21" height="15.45" x="6" y="15.818" fill="#20282D" rx="2"/>
    <rect width="15" height="9.45" x="9" y="18.818" fill="#FFFFFF" rx="2"/>
    <path fill="#20282D" d="M11.1818182,22.6363636 C11.1818182,22.234702 11.5119197,21.9090909 11.9131485,21.9090909 L21.0904882,21.9090909 C21.4943908,21.9090909 21.8218185,22.2319017 21.8218185,22.6363636 C21.8218185,23.0380253 21.491717,23.3636364 21.0904882,23.3636364 L11.9131485,23.3636364 C11.5092459,23.3636364 11.1818182,23.0408256 11.1818182,22.6363636 Z M11.1818182,25.5454545 C11.1818182,25.1437929 11.5045272,24.8181818 11.9182538,24.8181818 L18.4253829,24.8181818 C18.832105,24.8181818 19.1618184,25.1409926 19.1618184,25.5454545 C19.1618184,25.9471162 18.8391094,26.2727273 18.4253829,26.2727273 L11.9182538,26.2727273 C11.5115316,26.2727273 11.1818182,25.9499165 11.1818182,25.5454545 Z"/>
  </g>
</svg>
