<?xml version="1.0" encoding="utf-8"?>
<!-- Generator: Adobe Illustrator 22.0.1, SVG Export Plug-In . SVG Version: 6.00 Build 0)  -->
<svg version="1.1" id="Layer_1" xmlns="http://www.w3.org/2000/svg" xmlns:xlink="http://www.w3.org/1999/xlink" x="0px" y="0px"
	 width="34px" height="34px" viewBox="0 0 34 34" style="enable-background:new 0 0 34 34;" xml:space="preserve">
<g>
	<polygon points="6,23.8 0.2,18 11.9,18 	"/>
</g>
<g>
	<polygon points="22.2,16 28,10.2 33.9,16 	"/>
</g>
<path d="M24.9,7c-2.3-1.8-5-2.7-7.9-2.7C10,4.3,4.3,10,4.3,17c0,1.1-0.1,1.9,0.2,3.1l3.3-0.5c-0.2-1.2-0.1-1.8-0.1-2.6
	c0-5.2,4.2-9.4,9.4-9.4c2,0,3.9,0.6,5.5,1.8L24.9,7z"/>
<path d="M29,12.6l-3.1,0.7c0.5,1.2,0.4,2.4,0.4,3.7c0,5.2-4.2,9.4-9.4,9.4c-2,0-3.9-0.6-5.5-1.8L9.1,27c2.2,1.8,5.1,2.8,7.9,2.8
	c7,0,12.7-5.7,12.7-12.7C29.7,15.2,29.8,14.2,29,12.6z"/>
</svg>
