<svg xmlns="http://www.w3.org/2000/svg" width="36" height="36" viewBox="0 0 36 36">
  <path fill="#20282D" fill-rule="evenodd" d="M4.83837508,4.83807746 C7.39788704,2.27975598 10.7478715,1 14.097856,1 C17.449031,1 20.7990154,2.27975598 23.3585274,4.83807746 C28.4763608,9.9559109 28.4763608,18.2392059 23.3585274,23.3582298 C18.2395035,28.4760632 9.95620852,28.4760632 4.83837508,23.3582298 C-0.27945836,18.2392059 -0.27945836,9.9559109 4.83837508,4.83807746 Z M9.04668892,19.1487255 C10.4395396,20.5415762 12.269293,21.2380015 14.097856,21.2380015 C15.9276094,21.2380015 17.7561724,20.5415762 19.1490231,19.1487255 C21.9347245,16.3630241 21.9347245,11.8320927 19.1490231,9.04639131 C16.3633217,6.26188039 11.8323903,6.26188039 9.04668892,9.04639131 C6.26217801,11.8320927 6.26217801,16.3630241 9.04668892,19.1487255 Z M25.0370911,23.3606107 C25.504946,22.8939462 26.1180384,22.6618044 26.7287499,22.6618044 C27.3370804,22.6618044 27.94303,22.8927558 28.4025517,23.351087 L34.3084767,29.257012 C35.2334724,30.1831982 35.2310915,31.6867626 34.2977625,32.6212821 L33.4632425,33.4546116 C32.531104,34.3867501 31.0192062,34.3843692 30.0989724,33.4653258 L24.1942378,27.5594008 C23.2668612,26.6344051 23.2692421,25.1308406 24.2037616,24.1951307 L25.0370911,23.3606107 Z"/>
</svg>
