<?xml version="1.0" encoding="utf-8"?>
<!-- Generator: Adobe Illustrator 22.0.1, SVG Export Plug-In . SVG Version: 6.00 Build 0)  -->
<svg version="1.1" id="Layer_1" xmlns="http://www.w3.org/2000/svg" xmlns:xlink="http://www.w3.org/1999/xlink" x="0px" y="0px"
	 width="34px" height="34px" viewBox="0 0 34 34" style="enable-background:new 0 0 34 34;" xml:space="preserve">
<path d="M28.7,2H5.3C3.5,2,2,3.5,2,5.3v23.3C2,30.5,3.5,32,5.3,32h23.3c1.8,0,3.3-1.5,3.3-3.3V5.3C32,3.5,30.5,2,28.7,2z M28.7,22
	h-6.9c0,2.6-2.1,4.7-4.7,4.7s-4.7-2.1-4.7-4.7H5.3V5.3h23.3V22z"/>
<g>
	<polygon points="20.3,18.9 13.7,18.9 13.7,13.9 10.3,13.9 17,7.2 23.7,13.9 20.3,13.9 	"/>
</g>
</svg>
