<?xml version="1.0" encoding="utf-8"?>
<!-- Generator: Adobe Illustrator 22.0.1, SVG Export Plug-In . SVG Version: 6.00 Build 0)  -->
<svg version="1.1" id="Layer_1" xmlns="http://www.w3.org/2000/svg" xmlns:xlink="http://www.w3.org/1999/xlink" x="0px" y="0px"
	 width="34px" height="34px" viewBox="0 0 34 34" style="enable-background:new 0 0 34 34;" xml:space="preserve">
<g>
	<path d="M29.5,11l-8-8c-0.6-0.6-1.5-1-2.4-1H8.6C6.8,2,5.3,3.5,5.3,5.3v8.3h3.3V5.3h10.2V12c0,0.9,0.7,1.7,1.7,1.7H22h5.2v15h-4.4
		V32h4.4c1.8,0,3.3-1.5,3.3-3.3V13.4C30.5,12.5,30.1,11.6,29.5,11z"/>
	<path d="M19,23.1c0-0.5,0-0.9-0.1-1.3l2.1-1.6L19.1,17l-2.4,1c-0.7-0.6-1.4-1-2.3-1.3l-0.4-2.6h-3.6l-0.4,2.6
		C9.3,17,8.5,17.5,7.9,18l-2.4-1l-1.8,3.1l2.1,1.6c-0.1,0.4-0.1,0.9-0.1,1.3c0,0.5,0,0.9,0.1,1.3L3.6,26l1.8,3.1l2.4-1
		c0.7,0.6,1.4,1,2.3,1.3l0.4,2.6h3.6l0.4-2.6c0.8-0.3,1.6-0.7,2.3-1.3l2.4,1l1.8-3.1l-2.1-1.6C18.9,24,19,23.5,19,23.1z M12.3,26.9
		c-2.1,0-3.8-1.7-3.8-3.8s1.7-3.8,3.8-3.8s3.8,1.7,3.8,3.8S14.4,26.9,12.3,26.9z"/>
</g>
</svg>
