<?xml version="1.0" encoding="UTF-8" standalone="no"?>
<svg width="68px" height="33px" viewBox="0 0 68 33" version="1.1" xmlns="http://www.w3.org/2000/svg" xmlns:xlink="http://www.w3.org/1999/xlink" xmlns:sketch="http://www.bohemiancoding.com/sketch/ns">
    <!-- Generator: Sketch 3.4.2 (15855) - http://www.bohemiancoding.com/sketch -->
    <title>sidebar-show</title>
    <desc>Created with Sketch.</desc>
    <defs></defs>
    <g id="Icons" stroke="none" stroke-width="1" fill="none" fill-rule="evenodd" sketch:type="MSPage">
        <path d="M19.8518658,2.98192771 C19.8518658,1.33505451 21.1899927,0 22.8276736,0 L65.0284297,0 C66.671923,0 68.0042376,1.33840557 68.0042376,2.98192771 C68.0042376,4.62880091 66.6661107,5.96385542 65.0284297,5.96385542 L22.8276736,5.96385542 C21.1841803,5.96385542 19.8518658,4.62544985 19.8518658,2.98192771 Z M19.8518658,16.5 C19.8518658,14.8531268 21.1899927,13.5180723 22.8276736,13.5180723 L65.0284297,13.5180723 C66.671923,13.5180723 68.0042376,14.8564779 68.0042376,16.5 C68.0042376,18.1468732 66.6661107,19.4819277 65.0284297,19.4819277 L22.8276736,19.4819277 C21.1841803,19.4819277 19.8518658,18.1435221 19.8518658,16.5 Z M19.8518658,30.0180723 C19.8518658,28.3711991 21.1899927,27.0361446 22.8276736,27.0361446 L65.0284297,27.0361446 C66.671923,27.0361446 68.0042376,28.3745501 68.0042376,30.0180723 C68.0042376,31.6649455 66.6661107,33 65.0284297,33 L22.8276736,33 C21.1841803,33 19.8518658,31.6615944 19.8518658,30.0180723 Z M15.4541611,32.1571938 L-5.5067062e-14,16.7030328 L15.4626362,1.24039651 L15.4541611,32.1571938 Z" id="sidebar-show" fill="#383E49" sketch:type="MSShapeGroup" transform="translate(34.002119, 16.500000) rotate(-180.000000) translate(-34.002119, -16.500000) "></path>
    </g>
</svg>