<?xml version="1.0" encoding="UTF-8" standalone="no"?>
<svg width="16px" height="16px" viewBox="0 0 16 16" version="1.1" xmlns="http://www.w3.org/2000/svg" xmlns:xlink="http://www.w3.org/1999/xlink">
    <!-- Generator: Sketch 41.2 (35397) - http://www.bohemiancoding.com/sketch -->
    <title>alert-circle</title>
    <desc>Created with Sketch.</desc>
    <defs></defs>
    <g id="Icons" stroke="none" stroke-width="1" fill="none" fill-rule="evenodd">
        <g id="Icon-Set-Example" transform="translate(-96.000000, -72.000000)" fill="#000000">
            <g id="alert-circle" transform="translate(96.000000, 72.000000)">
                <path d="M8.02319336,14.0287374 C11.336902,14.0287374 14.0231934,11.3424461 14.0231934,8.0287374 C14.0231934,4.71502874 11.336902,2.0287374 8.02319336,2.0287374 C4.7094847,2.0287374 2.02319336,4.71502874 2.02319336,8.0287374 C2.02319336,11.3424461 4.7094847,14.0287374 8.02319336,14.0287374 Z M8.83400417,4.86657524 L7.21238255,4.86657524 L7.49368426,9.08279145 L8.60234394,9.08279145 L8.83400417,4.86657524 Z M7.21238255,10.672155 C7.21238255,11.1324863 7.58505336,11.4881969 8.02822945,11.4881969 C8.46133336,11.4881969 8.83400417,11.1324863 8.83400417,10.672155 C8.83400417,10.2118237 8.46133336,9.86657524 8.02822945,9.86657524 C7.59512554,9.86657524 7.21238255,10.2118237 7.21238255,10.672155 Z" id="alert"></path>
            </g>
        </g>
    </g>
</svg>