<?xml version="1.0" encoding="UTF-8" standalone="no"?>
<svg width="16px" height="16px" viewBox="0 0 16 16" version="1.1" xmlns="http://www.w3.org/2000/svg" xmlns:xlink="http://www.w3.org/1999/xlink">
    <!-- Generator: Sketch 41.2 (35397) - http://www.bohemiancoding.com/sketch -->
    <title>attachment</title>
    <desc>Created with Sketch.</desc>
    <defs></defs>
    <g id="Icons" stroke="none" stroke-width="1" fill="none" fill-rule="evenodd">
        <g id="Icon-Set-Example" transform="translate(-216.000000, -144.000000)" fill="#000000">
            <g id="attachment" transform="translate(216.000000, 144.000000)">
                <g transform="translate(2.640137, 1.726039)">
                    <path d="M2.80873563,2.06720559 L2.80873563,0.50439342 C2.80873563,0.287853255 2.63381546,0.112531803 2.41804051,0.112531803 C2.20076121,0.112531803 2.02734538,0.287974226 2.02734538,0.50439342 L2.02734538,2.06720559 L0.464533205,2.06720559 C0.247993039,2.06720559 0.0726715867,2.24212575 0.0726715867,2.45790072 C0.0726715867,2.67518002 0.248114009,2.84859585 0.464533205,2.84859585 L2.02734538,2.84859585 L2.02734538,4.41140801 C2.02734538,4.62794818 2.20226554,4.80326964 2.41804051,4.80326964 C2.63531981,4.80326964 2.80873563,4.62782722 2.80873563,4.41140801 L2.80873563,2.84859585 L4.3715478,2.84859585 C4.58808797,2.84859585 4.76340943,2.67367569 4.76340943,2.45790072 C4.76340943,2.24062142 4.58796699,2.06720559 4.3715478,2.06720559 L2.80873563,2.06720559 Z" id="Path"></path>
                    <path d="M6.41112984,6.07594308 L8.65350567,3.67462491 L9.33232817,4.40156321 L4.28706927,9.80443623 L4.28174258,9.79873198 L4.28174258,9.79873198 C4.25340598,9.83661555 4.22284013,9.87321802 4.19004506,9.90833765 C3.70778014,10.4247861 2.92607393,10.425 2.44405538,9.90881535 C1.96203682,9.39263073 1.96223654,8.55551623 2.44450147,8.03906777 C2.47729653,8.00394816 2.5114763,7.97121576 2.54685238,7.94087064 L2.54685238,7.94087064 L2.54152569,7.93516637 L6.27611786,3.93586173 C6.46412918,3.73452393 6.76888351,3.73444653 6.95595374,3.93477651 C7.14340539,4.13551498 7.14305679,4.46134966 6.95494037,4.66280001 L5.46492213,6.25843257 L3.12302412,8.76632717 C3.01637189,8.88053904 3.01610961,9.06679783 3.12322485,9.18150552 C3.23108686,9.29701294 3.40391832,9.29630945 3.5109227,9.18172047 L6.41112984,6.07594308 L6.41112984,6.07594308 Z M5.35140818,10.9442168 C5.32084812,10.9803311 5.28930077,11.0158285 5.25676615,11.0506692 C4.18506633,12.1983325 2.44794142,12.1988077 1.37678907,11.0517308 C0.305636731,9.90465387 0.306080554,8.04439942 1.37778038,6.89673619 C1.410315,6.86189547 1.44346288,6.82811201 1.47718677,6.79538582 L1.47718677,6.79538582 L1.47480459,6.79283479 L6.52006349,1.38996175 L7.19888601,2.11690003 L2.84245879,6.78211615 L2.05660289,7.62367447 C1.359998,8.36965557 1.35970952,9.57882096 2.05595854,10.324421 C2.75220756,11.070021 3.88133875,11.0697121 4.57794363,10.323731 C4.61058957,10.288771 4.6417062,10.2527938 4.67129352,10.2158948 L4.67496785,10.2198295 L5.36379955,9.48217262 L9.38135892,5.17984371 C9.56851046,4.97942664 9.87256778,4.98009564 10.059638,5.18042565 C10.2470897,5.38116411 10.2480547,5.70559205 10.0601814,5.90678199 L5.35379037,10.9467678 L5.35140818,10.9442168 L5.35140818,10.9442168 L5.35140818,10.9442168 Z M6.52088381,1.39084021 C7.30095831,0.610205515 8.52417744,0.626890419 9.28453478,1.44114281 C10.0448921,2.2553952 10.0604726,3.5653176 9.33150785,4.40068474 L8.65191506,3.67292157 C9.00623333,3.24004987 8.99075431,2.5811585 8.60536531,2.16845265 C8.21997629,1.75574679 7.60469669,1.73917059 7.20047661,2.11860338 L7.1996813,2.1177517 L6.52088381,1.39084021 L6.52088381,1.39084021 L6.52088381,1.39084021 Z" id="Oval-21-Copy-3"></path>
                </g>
            </g>
        </g>
    </g>
</svg>