<?xml version="1.0" encoding="UTF-8" standalone="no"?>
<svg width="16px" height="16px" viewBox="0 0 16 16" version="1.1" xmlns="http://www.w3.org/2000/svg" xmlns:xlink="http://www.w3.org/1999/xlink">
    <!-- Generator: Sketch 41.2 (35397) - http://www.bohemiancoding.com/sketch -->
    <title>bell-normal</title>
    <desc>Created with Sketch.</desc>
    <defs></defs>
    <g id="Icons" stroke="none" stroke-width="1" fill="none" fill-rule="evenodd">
        <g id="Icon-Set-Example" transform="translate(-240.000000, -144.000000)" fill="#000000">
            <g id="bell-normal" transform="translate(240.000000, 144.000000)">
                <path d="M7.85284915,13.7124462 C8.26685986,14.1794965 9.11513854,14.3718177 10.004849,14.1424908 C11.1377442,13.8505049 11.9050714,12.9874476 11.7179491,12.2147304 C11.7160455,12.2053892 11.7126094,12.1969027 11.7092487,12.1876985 C11.5246548,12.2282217 11.3352521,12.2733178 11.1380815,12.3236917 C9.63295736,12.7119295 8.56201685,13.224299 7.85284915,13.7124462 Z M7.40039444,2.72338056 C6.44913845,2.74314976 6.67726767,2.03001184 5.95270617,2.30057722 C5.22670977,2.57128679 5.84940224,2.96725007 5.10762336,3.57966551 C3.02432958,5.2984404 3.2165895,6.88878708 4.18219344,10.6790097 C4.58966954,12.2751285 3.20224174,12.3536284 3.75032598,13.9012618 C4.15206302,15.0295551 15.3117457,10.8648701 14.9114434,9.73657675 C14.3619244,8.18894336 13.2499735,9.04335241 12.5598465,7.55271817 C10.9242027,4.01228126 10.0748157,2.66782436 7.40039444,2.72338056 Z" transform="translate(9.203330, 8.239223) rotate(21.000000) translate(-9.203330, -8.239223) "></path>
            </g>
        </g>
    </g>
</svg>