<?xml version="1.0" encoding="UTF-8" standalone="no"?>
<svg width="16px" height="16px" viewBox="0 0 16 16" version="1.1" xmlns="http://www.w3.org/2000/svg" xmlns:xlink="http://www.w3.org/1999/xlink">
    <!-- Generator: Sketch 41.2 (35397) - http://www.bohemiancoding.com/sketch -->
    <title>bell-silent</title>
    <desc>Created with Sketch.</desc>
    <defs></defs>
    <g id="Icons" stroke="none" stroke-width="1" fill="none" fill-rule="evenodd">
        <g id="Icon-Set-Example" transform="translate(-288.000000, -144.000000)" fill="#000000">
            <g id="bell-silent" transform="translate(288.000000, 144.000000)">
                <g transform="translate(1.482400, 0.239223)">
                    <path d="M6.32477114,13.6251131 C6.75119525,14.1052425 7.62475103,14.3030883 8.54088461,14.0675636 C9.70742545,13.7676869 10.4974048,12.8807758 10.3045567,12.0865222 C10.3025946,12.0769208 10.2990546,12.0681974 10.2955921,12.0587366 C10.1055144,12.1003493 9.910486,12.1466612 9.70745947,12.1983959 C8.15763518,12.5971262 7.05493756,13.1235307 6.32477114,13.6251131 Z M5.85870122,2.33094457 C4.87912327,2.35126346 5.11404468,1.61830058 4.36791065,1.89638748 C3.62029912,2.17462266 4.26153114,2.58159354 3.49766719,3.21103393 C1.35234716,4.97759014 1.55033124,6.61214775 2.54468412,10.5077371 C2.96429218,12.1482273 1.53555631,12.2289095 2.09995869,13.8195665 C2.51365678,14.9792259 14.0055984,10.6987643 13.5933778,9.53910489 C13.0274979,7.94844792 11.8824407,8.82660921 11.1717665,7.29453588 C9.48742437,3.65567633 8.61274842,2.27384407 5.85870122,2.33094457 Z" id="bell" transform="translate(7.715316, 8.000081) rotate(21.000000) translate(-7.715316, -8.000081) "></path>
                    <path d="M13.0676269,1.25 L13.0676269,1.16666667 L12.9846062,1.16666667 L11.1747537,1.16666667 L11.0917329,1.16666667 L11.0917329,1.25 L11.0917329,1.68333333 L11.0917329,1.76666667 L11.1747537,1.76666667 L12.2706277,1.76666667 L12.2026144,1.6355448 L11.0635696,3.26887814 C11.0444095,3.29493762 11.028403,3.32524543 11.0168304,3.35791587 C11.0048299,3.39179444 10.9987497,3.4265056 10.9987497,3.46166666 L10.9987497,3.67833334 L10.9987497,3.76166666 L11.0817704,3.76166666 L12.948077,3.76166666 L13.0310978,3.76166666 L13.0310978,3.67833334 L13.0310978,3.245 L13.0310978,3.16166666 L12.948077,3.16166666 L11.7957489,3.16166666 L11.8637589,3.29279321 L12.9994828,1.66445988 C13.0208884,1.63295814 13.0372652,1.60008121 13.0490944,1.56515856 C13.0614181,1.52877587 13.0676269,1.49138294 13.0676269,1.45333333 L13.0676269,1.25 L13.0676269,1.25 Z" id="Shape"></path>
                    <path d="M1.62083167,1.7201884 L1.62083167,1.66666667 L1.5675107,1.66666667 L0.405113481,1.66666667 L0.351792508,1.66666667 L0.351792508,1.7201884 L0.351792508,1.9985014 L0.351792508,2.05202313 L0.405113481,2.05202313 L1.10895033,2.05202313 L1.06526808,1.96780869 L0.333704331,3.0168346 C0.321398519,3.03357159 0.311118158,3.0530371 0.303685542,3.07402004 C0.295978073,3.09577892 0.292073018,3.11807252 0.292073018,3.14065511 L0.292073018,3.27981161 L0.292073018,3.33333334 L0.345393991,3.33333334 L1.54404947,3.33333334 L1.59737044,3.33333334 L1.59737044,3.27981161 L1.59737044,3.0014986 L1.59737044,2.94797687 L1.54404947,2.94797687 L0.803954361,2.94797687 L0.847634502,3.03219433 L1.57706542,1.98637972 C1.59081339,1.96614739 1.60133157,1.94503181 1.60892897,1.92260238 C1.61684401,1.8992352 1.62083167,1.87521918 1.62083167,1.85078142 L1.62083167,1.7201884 L1.62083167,1.7201884 Z" id="Shape"></path>
                </g>
            </g>
        </g>
    </g>
</svg>