<?xml version="1.0" encoding="UTF-8" standalone="no"?>
<svg width="16px" height="16px" viewBox="0 0 16 16" version="1.1" xmlns="http://www.w3.org/2000/svg" xmlns:xlink="http://www.w3.org/1999/xlink">
    <!-- Generator: Sketch 41.2 (35397) - http://www.bohemiancoding.com/sketch -->
    <title>bell</title>
    <desc>Created with Sketch.</desc>
    <defs></defs>
    <g id="Icons" stroke="none" stroke-width="1" fill="none" fill-rule="evenodd">
        <g id="Icon-Set-Example" transform="translate(-24.000000, -168.000000)" fill="#000000">
            <g id="bell" transform="translate(24.000000, 168.000000)">
                <path d="M10.0233717,10.0956933 C8.6015859,10.4596225 7.59007434,10.94042 6.9203427,11.3986607 C7.31174889,11.8377047 8.11328718,12.0188702 8.95373461,11.8039024 C10.023902,11.530199 10.7483725,10.7197468 10.5711548,9.99364199 C10.5693511,9.98486449 10.5661,9.97688904 10.5629199,9.96823958 C10.3885428,10.0062102 10.2096253,10.0484747 10.0233717,10.0956933 L10.0233717,10.0956933 Z M9.59584839,13.0563933 C6.96458645,14.0327608 4.80236978,13.4583552 4.71018738,13.2032144 C4.55293526,12.7628866 5.56016223,11.2942682 8.56828703,10.1778579 C11.5764117,9.06158322 13.2560271,9.4756108 13.4309022,9.96731921 C13.5352851,10.257708 12.2271102,12.0800257 9.59584839,13.0563933 L9.59584839,13.0563933 Z M12.1213717,7.57723874 C10.5759628,4.25105465 9.77343473,2.98795884 7.24655583,3.04015278 C6.34777861,3.05872575 6.56332248,2.38874403 5.87873334,2.64293578 C5.19278874,2.89726317 5.7811286,3.2692644 5.08027212,3.8446189 C3.1119093,5.45938074 3.29356269,6.95348605 4.20589616,10.5143399 C4.59089279,12.0138681 3.28000643,12.0876177 3.79785406,13.5415945 C4.17742802,14.6016082 6.97000895,15.0454608 9.91577496,13.9520973 C12.8615411,12.8590049 14.7214542,10.6889528 14.3432357,9.62893913 C13.8240326,8.17496229 12.7734258,8.97766601 12.1213717,7.57723874 L12.1213717,7.57723874 Z" transform="translate(8.969387, 8.585294) rotate(21.000000) translate(-8.969387, -8.585294) "></path>
            </g>
        </g>
    </g>
</svg>