<?xml version="1.0" encoding="UTF-8" standalone="no"?>
<svg width="16px" height="16px" viewBox="0 0 16 16" version="1.1" xmlns="http://www.w3.org/2000/svg" xmlns:xlink="http://www.w3.org/1999/xlink">
    <!-- Generator: Sketch 41.2 (35397) - http://www.bohemiancoding.com/sketch -->
    <title>blank</title>
    <desc>Created with Sketch.</desc>
    <defs></defs>
    <g id="Icons" stroke="none" stroke-width="1" fill="none" fill-rule="evenodd">
        <g id="Icon-Set-Example" transform="translate(-240.000000, -96.000000)" fill="#000000">
            <g id="blank" transform="translate(240.000000, 96.000000)">
                <path d="M7.75354525,3.41726412 L3.36892987,3.41726412 L3.36892987,12.6480333 L12.5996991,12.6480333 L12.5996991,6.68726412 C12.8050837,6.80495643 13.0381606,6.87880258 13.2920068,6.87880258 C13.5458529,6.87880258 13.7812376,6.80495643 13.9843145,6.68726412 L13.9843145,13.340341 C13.9843145,13.723418 13.6750837,14.0326487 13.2920068,14.0326487 L2.67662217,14.0326487 C2.29354525,14.0326487 1.98431448,13.723418 1.98431448,13.340341 L1.98431448,2.72495643 C1.98431448,2.3418795 2.29354525,2.03264873 2.67662217,2.03264873 L9.3296991,2.03264873 C9.21200679,2.23803335 9.13816063,2.47111027 9.13816063,2.72495643 C9.13816063,2.97880258 9.21200679,3.2118795 9.3296991,3.41726412 L7.75354525,3.41726412 L7.75354525,3.41726412 Z M13.2920068,6.18649489 L13.2920068,6.18649489 C12.9089299,6.18649489 12.5996991,5.87726412 12.5996991,5.4941872 L12.5996991,4.39572566 L9.15892987,7.83880258 L9.15662217,7.83649489 C9.03200679,7.95880258 8.86354525,8.03264873 8.67662217,8.03264873 C8.29354525,8.03264873 7.98431448,7.72341797 7.98431448,7.34034104 C7.98431448,7.15341797 8.06046833,6.98495643 8.18046833,6.86034104 L8.17816063,6.85803335 L11.6212376,3.41726412 L10.522776,3.41726412 C10.1396991,3.41726412 9.83046833,3.10803335 9.83046833,2.72495643 C9.83046833,2.3418795 10.1396991,2.03264873 10.522776,2.03264873 L13.2920068,2.03264873 C13.6750837,2.03264873 13.9843145,2.3418795 13.9843145,2.72495643 L13.9843145,5.4941872 C13.9843145,5.87726412 13.6750837,6.18649489 13.2920068,6.18649489 L13.2920068,6.18649489 Z" id="_blank-Gray"></path>
            </g>
        </g>
    </g>
</svg>