<?xml version="1.0" encoding="UTF-8" standalone="no"?>
<svg width="16px" height="16px" viewBox="0 0 16 16" version="1.1" xmlns="http://www.w3.org/2000/svg" xmlns:xlink="http://www.w3.org/1999/xlink">
    <!-- Generator: Sketch 41.2 (35397) - http://www.bohemiancoding.com/sketch -->
    <title>calendar</title>
    <desc>Created with Sketch.</desc>
    <defs></defs>
    <g id="Icons" stroke="none" stroke-width="1" fill="none" fill-rule="evenodd">
        <g id="Icon-Set-Example" transform="translate(-240.000000, -72.000000)" fill="#000000">
            <g id="calendar" transform="translate(240.000000, 72.000000)">
                <path d="M12.6555082,2.03576064 L14.3765209,2.03576064 C14.6864085,2.03576064 14.9376221,2.28639769 14.9376221,2.59845036 L14.9376221,13.4730709 C14.9376221,13.7838359 14.6849512,14.0357606 14.3765209,14.0357606 L1.62372325,14.0357606 C1.31383563,14.0357606 1.06262207,13.7851236 1.06262207,13.4730709 L1.06262207,2.59845036 C1.06262207,2.28768541 1.31529297,2.03576064 1.62372325,2.03576064 L3.34469817,2.03576064 L3.34469817,2.03576064 C3.32391989,2.09459054 3.31262208,2.15791485 3.31262208,2.223889 L3.31262208,3.72263228 C3.31262208,4.0340646 3.56460172,4.28576064 3.87543434,4.28576064 L4.2498098,4.28576064 C4.56155579,4.28576064 4.81262208,4.03363948 4.81262208,3.72263228 L4.81262208,2.223889 C4.81262208,2.1578875 4.80130469,2.09456899 4.78050822,2.03576064 L11.2196982,2.03576064 C11.1989199,2.09459054 11.1876221,2.15791485 11.1876221,2.223889 L11.1876221,3.72263228 C11.1876221,4.0340646 11.4396017,4.28576064 11.7504343,4.28576064 L12.1248098,4.28576064 C12.4365558,4.28576064 12.6876221,4.03363948 12.6876221,3.72263228 L12.6876221,2.223889 C12.6876221,2.1578875 12.6763047,2.09456899 12.6555082,2.03576064 L12.6555082,2.03576064 Z M2.18762207,5.9724182 C2.18762207,5.66222329 2.44123792,5.41076064 2.74831998,5.41076064 L13.2519242,5.41076064 C13.561589,5.41076064 13.8126221,5.66247343 13.8126221,5.9724182 L13.8126221,12.1616031 C13.8126221,12.471798 13.5590062,12.7232606 13.2519242,12.7232606 L2.74831998,12.7232606 C2.43865508,12.7232606 2.18762207,12.4715478 2.18762207,12.1616031 L2.18762207,5.9724182 Z M6.33793458,6.95544814 C6.54043559,6.95544814 6.7227775,6.98497909 6.88496583,7.04404189 C7.04715413,7.10310469 7.185434,7.18513511 7.29980958,7.29013564 C7.41418514,7.39513616 7.50184051,7.52029115 7.56277833,7.66560438 C7.62371613,7.81091762 7.65418458,7.97075975 7.65418458,8.14513563 C7.65418458,8.29513638 7.63309103,8.433885 7.59090333,8.56138563 C7.5487156,8.68888627 7.49105993,8.8102913 7.41793456,8.92560438 C7.3448092,9.04091747 7.2599663,9.15247884 7.16340333,9.26029188 C7.06684034,9.36810493 6.96418512,9.47732259 6.85543456,9.58794813 L6.05387208,10.4091981 C6.15699758,10.379198 6.25871532,10.355292 6.35902833,10.3374794 C6.45934131,10.3196668 6.55355913,10.3107606 6.64168458,10.3107606 L7.40668458,10.3107606 C7.50043505,10.3107606 7.5744968,10.3365416 7.62887206,10.3881044 C7.68324734,10.4396671 7.71043456,10.5076352 7.71043456,10.5920106 L7.71043456,11.0982606 L4.83043456,11.0982606 L4.83043456,10.8170106 C4.83043456,10.7626354 4.84168447,10.7045109 4.86418458,10.6426356 C4.88668469,10.5807603 4.9260593,10.5245109 4.98230958,10.4738856 L6.16355956,9.28419813 C6.26481008,9.18294763 6.3529342,9.08638608 6.42793458,8.99451063 C6.50293495,8.90263518 6.56480933,8.81216733 6.61355958,8.72310438 C6.66230982,8.63404143 6.69887195,8.54497983 6.72324706,8.45591688 C6.74762219,8.36685393 6.75980958,8.27263614 6.75980958,8.17326063 C6.75980958,8.01013481 6.7209037,7.88497982 6.64309083,7.79779188 C6.56527793,7.71060395 6.44668536,7.66701063 6.28730958,7.66701063 C6.22168424,7.66701063 6.16168484,7.67638554 6.10730958,7.69513563 C6.0529343,7.71388573 6.00418478,7.73919797 5.96105958,7.77107313 C5.91793435,7.8029483 5.88090348,7.84044791 5.84996581,7.88357313 C5.81902816,7.92669834 5.79418465,7.97357287 5.77543458,8.02419813 C5.74543441,8.10857357 5.70746605,8.16951045 5.66152833,8.20701063 C5.61559058,8.24451082 5.55324747,8.26326063 5.47449708,8.26326063 C5.45574698,8.26326063 5.43559092,8.26232313 5.41402833,8.26044813 C5.39246571,8.25857312 5.37043469,8.25576065 5.34793458,8.25201063 L4.88668458,8.17044813 C4.91668473,7.96607212 4.9743404,7.7879489 5.05965333,7.63607313 C5.14496624,7.48419737 5.25090269,7.35763614 5.37746583,7.25638564 C5.50402895,7.15513513 5.64887125,7.07966713 5.81199706,7.02997939 C5.97512288,6.98029164 6.15043364,6.95544814 6.33793458,6.95544814 Z M10.7141846,7.36044813 C10.7141846,7.42044843 10.7048096,7.47482289 10.6860596,7.52357313 C10.6673095,7.57232338 10.6377785,7.6149792 10.5974658,7.65154188 C10.5571531,7.68810457 10.5041849,7.71622929 10.4385596,7.73591688 C10.3729342,7.75560448 10.294185,7.76544813 10.2023096,7.76544813 L9.22355958,7.76544813 L9.10824708,8.44326063 C9.18512245,8.43013556 9.25918422,8.42029192 9.33043456,8.41372938 C9.40168493,8.40716685 9.47105924,8.40388563 9.53855956,8.40388563 C9.75418564,8.40388563 9.94449623,8.4366978 10.1094971,8.50232313 C10.2744979,8.56794847 10.4132465,8.65747882 10.5257471,8.77091688 C10.6382476,8.88435495 10.7230905,9.01747862 10.7802783,9.17029188 C10.8374661,9.32310515 10.8660596,9.48669725 10.8660596,9.66107313 C10.8660596,9.88044922 10.8271537,10.0806035 10.7493408,10.2615419 C10.6715279,10.4424803 10.5632478,10.5985725 10.4244971,10.7298231 C10.2857464,10.8610738 10.1202793,10.9627915 9.92809081,11.0349794 C9.73590235,11.1071672 9.5254357,11.1432606 9.29668458,11.1432606 C9.1635589,11.1432606 9.03652893,11.1291983 8.91559083,11.1010731 C8.79465271,11.072948 8.68121635,11.0349796 8.57527833,10.9871669 C8.46934028,10.9393541 8.37137253,10.8840422 8.28137208,10.8212294 C8.19137161,10.7584166 8.10980993,10.691386 8.03668458,10.6201356 L8.30668458,10.2601356 C8.33480971,10.2226354 8.36762187,10.194042 8.40512208,10.1743544 C8.44262224,10.1546668 8.48293435,10.1448231 8.52605958,10.1448231 C8.58230986,10.1448231 8.63527806,10.1602917 8.68496583,10.1912294 C8.73465357,10.222167 8.78902803,10.2559167 8.84809081,10.2924794 C8.90715361,10.3290421 8.97605918,10.362323 9.05480958,10.3923231 C9.13355997,10.4223233 9.23105898,10.4373231 9.34730958,10.4373231 C9.46356016,10.4373231 9.56293414,10.4181046 9.64543458,10.3796669 C9.72793499,10.3412292 9.79496556,10.2887297 9.84652833,10.2221669 C9.89809107,10.155604 9.93559069,10.0777923 9.95902833,9.98872938 C9.98246594,9.89966643 9.99418458,9.80451114 9.99418458,9.70326063 C9.99418458,9.50450964 9.93793514,9.35310491 9.82543456,9.24904188 C9.71293399,9.14497886 9.55356059,9.09294813 9.34730958,9.09294813 C9.16355866,9.09294813 8.98356044,9.1276353 8.80730958,9.19701063 L8.26730956,9.05076063 L8.61605958,7.00044814 L10.7141846,7.00044814 L10.7141846,7.36044813 Z"></path>
            </g>
        </g>
    </g>
</svg>