<?xml version="1.0" encoding="UTF-8" standalone="no"?>
<svg width="16px" height="16px" viewBox="0 0 16 16" version="1.1" xmlns="http://www.w3.org/2000/svg" xmlns:xlink="http://www.w3.org/1999/xlink">
    <!-- Generator: Sketch 41.2 (35397) - http://www.bohemiancoding.com/sketch -->
    <title>calendar-add</title>
    <desc>Created with Sketch.</desc>
    <defs></defs>
    <g id="Icons" stroke="none" stroke-width="1" fill="none" fill-rule="evenodd">
        <g id="Icon-Set-Example" transform="translate(-264.000000, -72.000000)" fill="#000000">
            <g id="calendar-add" transform="translate(264.000000, 72.000000)">
                <path d="M10.2812,11.09376 C10.2812,10.88976 10.3642,10.70676 10.4932,10.56776 L4.3582,10.56776 C4.1092,10.56776 3.9062,10.36476 3.9062,10.11676 L3.9062,5.15576 C3.9062,4.90676 4.1072,4.70576 4.3582,4.70576 L12.8242,4.70576 C13.0732,4.70576 13.2762,4.90676 13.2762,5.15576 L13.2762,7.80176 C13.4022,7.70676 13.5502,7.63976 13.7192,7.63976 C13.8962,7.63976 14.0532,7.71176 14.1822,7.81576 L14.1822,2.45076 C14.1822,2.20076 13.9802,1.99976 13.7302,1.99976 L12.3442,1.99976 C12.3602,2.04676 12.3692,2.09776 12.3692,2.15076 L12.3692,3.35176 C12.3692,3.60176 12.1672,3.80376 11.9192,3.80376 L11.6102,3.80376 C11.3622,3.80376 11.1602,3.60176 11.1602,3.35176 L11.1602,2.15076 C11.1602,2.09776 11.1692,2.04676 11.1862,1.99976 L5.9962,1.99976 C6.0132,2.04676 6.0222,2.09776 6.0222,2.15076 L6.0222,3.35176 C6.0222,3.60176 5.8202,3.80376 5.5722,3.80376 L5.2632,3.80376 C5.0152,3.80376 4.8132,3.60176 4.8132,3.35176 L4.8132,2.15076 C4.8132,2.09776 4.8222,2.04676 4.8392,1.99976 L3.4522,1.99976 C3.2032,1.99976 3.0002,2.20176 3.0002,2.45076 L3.0002,11.16776 C3.0002,11.41876 3.2022,11.61876 3.4522,11.61876 L10.4932,11.61876 C10.3642,11.47976 10.2812,11.29776 10.2812,11.09376 Z M10.7788,6.26806 C10.7788,6.31606 10.7708,6.36006 10.7568,6.39906 C10.7408,6.43806 10.7168,6.47206 10.6848,6.50106 C10.6528,6.53106 10.6098,6.55406 10.5568,6.56906 C10.5038,6.58506 10.4408,6.59306 10.3658,6.59306 L9.5778,6.59306 L9.4848,7.13606 C9.5468,7.12606 9.6058,7.11806 9.6638,7.11306 C9.7208,7.10706 9.7768,7.10406 9.8308,7.10406 C10.0048,7.10406 10.1578,7.13106 10.2918,7.18406 C10.4248,7.23606 10.5358,7.30806 10.6268,7.39906 C10.7178,7.49006 10.7858,7.59706 10.8318,7.71906 C10.8778,7.84206 10.9018,7.97306 10.9018,8.11206 C10.9018,8.28906 10.8698,8.44906 10.8068,8.59406 C10.7448,8.73906 10.6568,8.86406 10.5458,8.96906 C10.4338,9.07406 10.2998,9.15606 10.1448,9.21406 C9.9898,9.27106 9.8208,9.30106 9.6358,9.30106 C9.5288,9.30106 9.4268,9.28906 9.3288,9.26706 C9.2318,9.24406 9.1398,9.21406 9.0548,9.17506 C8.9698,9.13706 8.8908,9.09306 8.8178,9.04206 C8.7458,8.99206 8.6798,8.93806 8.6208,8.88106 L8.8388,8.59306 C8.8618,8.56206 8.8878,8.53906 8.9178,8.52406 C8.9478,8.50806 8.9808,8.50006 9.0148,8.50006 C9.0608,8.50006 9.1028,8.51306 9.1428,8.53806 C9.1838,8.56206 9.2268,8.58906 9.2748,8.61906 C9.3218,8.64806 9.3778,8.67506 9.4418,8.69906 C9.5048,8.72306 9.5838,8.73506 9.6768,8.73506 C9.7708,8.73506 9.8508,8.71906 9.9178,8.68806 C9.9838,8.65806 10.0378,8.61606 10.0798,8.56206 C10.1208,8.50906 10.1518,8.44606 10.1698,8.37506 C10.1888,8.30406 10.1988,8.22706 10.1988,8.14606 C10.1988,7.98706 10.1538,7.86606 10.0628,7.78206 C9.9718,7.69906 9.8428,7.65706 9.6768,7.65706 C9.5288,7.65706 9.3838,7.68506 9.2418,7.74106 L8.8068,7.62306 L9.0878,5.97906 L10.7788,5.97906 L10.7788,6.26806 Z M7.2515,5.94386 C7.4155,5.94386 7.5625,5.96686 7.6925,6.01486 C7.8235,6.06186 7.9345,6.12786 8.0265,6.21186 C8.1195,6.29586 8.1895,6.39686 8.2385,6.51286 C8.2885,6.62986 8.3125,6.75686 8.3125,6.89786 C8.3125,7.01786 8.2955,7.12886 8.2615,7.23086 C8.2275,7.33286 8.1815,7.43086 8.1225,7.52286 C8.0635,7.61486 7.9945,7.70486 7.9175,7.79086 C7.8395,7.87786 7.7565,7.96486 7.6685,8.05386 L7.0225,8.71286 C7.1055,8.68786 7.1885,8.66886 7.2685,8.65486 C7.3495,8.64086 7.4255,8.63286 7.4965,8.63286 L8.1135,8.63286 C8.1885,8.63286 8.2485,8.65386 8.2925,8.69486 C8.3355,8.73686 8.3575,8.79086 8.3575,8.85886 L8.3575,9.26486 L6.0365,9.26486 L6.0365,9.03886 C6.0365,8.99586 6.0455,8.94886 6.0645,8.89986 C6.0825,8.84986 6.1135,8.80486 6.1595,8.76386 L7.1115,7.81086 C7.1925,7.72886 7.2635,7.65186 7.3245,7.57786 C7.3845,7.50486 7.4345,7.43186 7.4735,7.36086 C7.5135,7.28886 7.5425,7.21786 7.5625,7.14686 C7.5825,7.07486 7.5915,6.99986 7.5915,6.91986 C7.5915,6.78886 7.5605,6.68886 7.4975,6.61886 C7.4355,6.54886 7.3395,6.51386 7.2105,6.51386 C7.1585,6.51386 7.1095,6.52186 7.0655,6.53686 C7.0225,6.55186 6.9825,6.57186 6.9475,6.59786 C6.9135,6.62286 6.8835,6.65286 6.8585,6.68786 C6.8335,6.72186 6.8135,6.75986 6.7985,6.79986 C6.7735,6.86786 6.7435,6.91686 6.7065,6.94686 C6.6695,6.97686 6.6195,6.99186 6.5555,6.99186 C6.5405,6.99186 6.5245,6.99086 6.5065,6.98986 C6.4895,6.98786 6.4725,6.98586 6.4535,6.98286 L6.0825,6.91786 C6.1065,6.75386 6.1525,6.61086 6.2215,6.48886 C6.2905,6.36786 6.3755,6.26586 6.4775,6.18486 C6.5795,6.10386 6.6965,6.04386 6.8275,6.00386 C6.9595,5.96386 7.1005,5.94386 7.2515,5.94386 Z M14.0242206,10.7562916 L14.0242206,8.52497925 C14.0242206,8.33264274 13.8673279,8.1758556 13.673791,8.1758556 C13.4789048,8.1758556 13.3233614,8.33216358 13.3233614,8.52497925 L13.3233614,10.7562916 L11.0920491,10.7562916 C10.8997126,10.7562916 10.7429255,10.9131842 10.7429255,11.1067211 C10.7429255,11.3016073 10.8992335,11.4571507 11.0920491,11.4571507 L13.3233614,11.4571507 L13.3233614,13.688463 C13.3233614,13.8807995 13.4802541,14.0375867 13.673791,14.0375867 C13.8686772,14.0375867 14.0242206,13.8812787 14.0242206,13.688463 L14.0242206,11.4571507 L16.2555329,11.4571507 C16.4478694,11.4571507 16.6046566,11.300258 16.6046566,11.1067211 C16.6046566,10.9118349 16.4483486,10.7562916 16.2555329,10.7562916 L14.0242206,10.7562916 Z" id="Combined-Shape"></path>
            </g>
        </g>
    </g>
</svg>