<?xml version="1.0" encoding="UTF-8" standalone="no"?>
<svg width="16px" height="16px" viewBox="0 0 16 16" version="1.1" xmlns="http://www.w3.org/2000/svg" xmlns:xlink="http://www.w3.org/1999/xlink">
    <!-- Generator: Sketch 41.2 (35397) - http://www.bohemiancoding.com/sketch -->
    <title>close-circle</title>
    <desc>Created with Sketch.</desc>
    <defs></defs>
    <g id="Icons" stroke="none" stroke-width="1" fill="none" fill-rule="evenodd">
        <g id="Icon-Set-Example" transform="translate(-192.000000, -96.000000)" fill="#000000">
            <g id="close-circle" transform="translate(192.000000, 96.000000)">
                <path d="M10.0468145,10.6576487 C9.89156448,10.6576487 9.75093948,10.5946487 9.64912698,10.4928362 L7.98450198,8.82821123 L6.31968948,10.4928362 C6.21787698,10.5946487 6.07725198,10.6576487 5.92181448,10.6576487 C5.61131448,10.6576487 5.35931448,10.4058362 5.35931448,10.0951487 C5.35931448,9.93989873 5.42231448,9.79927373 5.52412698,9.69746123 L7.18893948,8.03264873 L5.52412698,6.36802373 C5.42231448,6.26602373 5.35931448,6.12558623 5.35931448,5.97014873 C5.35931448,5.65946123 5.61131448,5.40764873 5.92181448,5.40764873 C6.07725198,5.40764873 6.21787698,5.47064873 6.31968948,5.57246123 L7.98450198,7.23727373 L9.64912698,5.57246123 C9.75093948,5.47064873 9.89156448,5.40764873 10.0468145,5.40764873 C10.357502,5.40764873 10.609502,5.65946123 10.609502,5.97014873 C10.609502,6.12558623 10.546502,6.26602373 10.4446895,6.36802373 L8.77987698,8.03264873 L10.4446895,9.69746123 C10.546502,9.79927373 10.609502,9.93989873 10.609502,10.0951487 C10.609502,10.4058362 10.357502,10.6576487 10.0468145,10.6576487 L10.0468145,10.6576487 Z M7.98450198,3.15764873 C5.29200198,3.15764873 3.10931448,5.34033623 3.10931448,8.03264873 C3.10931448,10.7249612 5.29200198,12.9076487 7.98450198,12.9076487 C10.6768145,12.9076487 12.8593145,10.7249612 12.8593145,8.03264873 C12.8593145,5.34033623 10.6768145,3.15764873 7.98450198,3.15764873 L7.98450198,3.15764873 Z M7.98450198,14.0326487 C4.67062698,14.0326487 1.98431448,11.3463362 1.98431448,8.03264873 C1.98431448,4.71896123 4.67062698,2.03264873 7.98450198,2.03264873 C11.2981895,2.03264873 13.9843145,4.71896123 13.9843145,8.03264873 C13.9843145,11.3463362 11.2981895,14.0326487 7.98450198,14.0326487 L7.98450198,14.0326487 Z" id="CircleX-Gray"></path>
            </g>
        </g>
    </g>
</svg>