<?xml version="1.0" encoding="UTF-8" standalone="no"?>
<svg width="16px" height="16px" viewBox="0 0 16 16" version="1.1" xmlns="http://www.w3.org/2000/svg" xmlns:xlink="http://www.w3.org/1999/xlink">
    <!-- Generator: Sketch 41.2 (35397) - http://www.bohemiancoding.com/sketch -->
    <title>complete-circle</title>
    <desc>Created with Sketch.</desc>
    <defs></defs>
    <g id="Icons" stroke="none" stroke-width="1" fill="none" fill-rule="evenodd">
        <g id="Icon-Set-Example" transform="translate(-144.000000, -72.000000)" fill="#000000">
            <g id="complete-circle" transform="translate(144.000000, 72.000000)">
                <path d="M8.02338086,14.0287374 C4.70950586,14.0287374 2.02319336,11.3424249 2.02319336,8.0287374 C2.02319336,4.7150499 4.70950586,2.0287374 8.02338086,2.0287374 C11.3368809,2.0287374 14.0231934,4.7150499 14.0231934,8.0287374 C14.0231934,11.3424249 11.3368809,14.0287374 8.02338086,14.0287374 Z M7.95910459,10.3366133 C7.87948231,10.4276926 7.76401792,10.4907545 7.63130871,10.5023651 C7.49875958,10.5139616 7.37409875,10.4719079 7.27987037,10.3960386 L5.02297091,8.56854483 C4.92874253,8.49267556 4.86481136,8.38144495 4.8535863,8.25314195 C4.83113618,7.99653593 5.17557772,7.59489431 5.44067597,7.57170122 C5.57338518,7.56009067 5.69804601,7.60214441 5.79227439,7.67801367 L7.50512701,9.06010169 L10.4177137,5.71568869 C10.497336,5.62460947 10.6128004,5.56154749 10.7453495,5.54995095 C11.0106079,5.52674385 11.4194008,5.86248599 11.4418509,6.11909201 C11.453076,6.24739501 11.4095912,6.3680233 11.3299689,6.45910253 L7.95910459,10.3366133 Z" id="completed"></path>
            </g>
        </g>
    </g>
</svg>