<?xml version="1.0" encoding="UTF-8" standalone="no"?>
<svg width="16px" height="16px" viewBox="0 0 16 16" version="1.1" xmlns="http://www.w3.org/2000/svg" xmlns:xlink="http://www.w3.org/1999/xlink">
    <!-- Generator: Sketch 41.2 (35397) - http://www.bohemiancoding.com/sketch -->
    <title>discussions</title>
    <desc>Created with Sketch.</desc>
    <defs></defs>
    <g id="Icons" stroke="none" stroke-width="1" fill="none" fill-rule="evenodd">
        <g id="Icon-Set-Example" transform="translate(-216.000000, -48.000000)" fill="#000000">
            <g id="discussions" transform="translate(216.000000, 48.000000)">
                <path d="M12.9289824,9.79319452 L13.7032631,9.79319452 C13.8699514,9.79319452 14,9.66067701 14,9.49720837 L14,2.29598615 C14,2.13526548 13.8671464,2 13.7032631,2 L4.01108708,2 C3.8443988,2 3.71435018,2.13251751 3.71435018,2.29598615 L3.71435018,9.49720837 C3.71435018,9.65792904 3.84720381,9.79319452 4.01108708,9.79319452 L9.85834053,9.79319452 L12.6711602,11.6306626 C12.8248372,11.7310517 12.9289824,11.6613819 12.9289824,11.4915172 L12.9289824,9.79319452 Z M12.0919975,12.1707506 C12.0601583,12.1822523 12.0256221,12.1885262 11.9893511,12.1885262 L6.35640449,12.1885262 L3.54358483,14.0259943 C3.40119356,14.1190111 3.28576263,14.0640028 3.28576263,13.886849 L3.28576263,12.1885262 L2.29674992,12.1885262 C2.13285946,12.1885262 2,12.0532608 2,11.8925401 L2,4.69131787 C2,4.52784924 2.13005432,4.39533172 2.29674992,4.39533172 L3.07146886,4.39533172 L3.07146886,10.1490232 C3.07146886,10.3102509 3.20432833,10.4466961 3.36821878,10.4466961 L9.59169821,10.4466961 L12.0919975,12.1707506 Z" id="messages"></path>
            </g>
        </g>
    </g>
</svg>