<?xml version="1.0" encoding="UTF-8" standalone="no"?>
<svg width="16px" height="16px" viewBox="0 0 16 16" version="1.1" xmlns="http://www.w3.org/2000/svg" xmlns:xlink="http://www.w3.org/1999/xlink">
    <!-- Generator: Sketch 41.2 (35397) - http://www.bohemiancoding.com/sketch -->
    <title>download-circle</title>
    <desc>Created with Sketch.</desc>
    <defs></defs>
    <g id="Icons" stroke="none" stroke-width="1" fill="none" fill-rule="evenodd">
        <g id="Icon-Set-Example" transform="translate(-288.000000, -120.000000)" fill="#000000">
            <g id="download-circle" transform="translate(288.000000, 120.000000)">
                <path d="M7.5707663,8.78209258 L7.5707663,4.68271194 C7.5707663,4.41100238 7.79953712,4.19073827 8.06394802,4.19073827 C8.33632476,4.19073827 8.55712974,4.41492729 8.55712974,4.68271194 L8.55712974,8.77753064 L9.31011339,8.024547 C9.50213157,7.83252881 9.81955846,7.83863271 10.0065252,8.02559946 C10.1991246,8.2181989 10.2050568,8.52453218 10.0075777,8.72201128 L8.42676367,10.3028253 C8.42159698,10.3085204 8.41627462,10.31411 8.41079702,10.3195876 C8.21819757,10.512187 7.9118643,10.5181191 7.7143852,10.32064 L6.12054804,8.72680288 C5.92852985,8.5347847 5.93463376,8.21735781 6.1216005,8.03039106 C6.31419994,7.83779162 6.62053322,7.8318595 6.81801232,8.0293386 L7.5707663,8.78209258 Z M8.02624512,14.0179952 C11.3399536,14.0179952 14.0262451,11.3317037 14.0262451,8.01799521 C14.0262451,4.70428671 11.3399536,2.01799521 8.02624512,2.01799521 C4.71253662,2.01799521 2.02624512,4.70428671 2.02624512,8.01799521 C2.02624512,11.3317037 4.71253662,14.0179952 8.02624512,14.0179952 Z M8.06928089,10.8623339 C9.01539608,10.8623339 9.78237399,10.807325 9.78237399,10.7394682 C9.78237399,10.6716113 9.01539608,10.6166025 8.06928089,10.6166025 C7.12316569,10.6166025 6.35618779,10.6716113 6.35618779,10.7394682 C6.35618779,10.807325 7.12316569,10.8623339 8.06928089,10.8623339 Z" id="Combined-Shape"></path>
            </g>
        </g>
    </g>
</svg>