<?xml version="1.0" encoding="UTF-8" standalone="no"?>
<svg width="16px" height="16px" viewBox="0 0 16 16" version="1.1" xmlns="http://www.w3.org/2000/svg" xmlns:xlink="http://www.w3.org/1999/xlink">
    <!-- Generator: Sketch 41.2 (35397) - http://www.bohemiancoding.com/sketch -->
    <title>dropbox</title>
    <desc>Created with Sketch.</desc>
    <defs></defs>
    <g id="Icons" stroke="none" stroke-width="1" fill="none" fill-rule="evenodd">
        <g id="Icon-Set-Example" transform="translate(-72.000000, -96.000000)" fill="#000000">
            <g id="dropbox" transform="translate(72.000000, 96.000000)">
                <path d="M8.0142434,9.47423788 L10.7226322,11.6880001 L11.8817595,10.9419255 L11.8817595,11.7797306 L8.0142434,14.0648387 L4.1463173,11.7797306 L4.1463173,10.9419255 L5.30544457,11.6880001 L8.0142434,9.47423788 L8.0142434,9.47423788 Z M1.44592388,4.52079201 L5.30544457,2.03795371 L8.00624801,4.2578313 L4.11454073,6.62651612 L1.44592388,4.52079201 L1.44592388,4.52079201 Z M5.30544457,11.217117 L1.44592388,8.73427868 L4.11454073,6.62651612 L8.00624801,8.99520093 L5.30544457,11.217117 L5.30544457,11.217117 Z M14.5661621,8.73427868 L10.7068464,11.217117 L8.00624801,8.99520093 L11.8975453,6.62651612 L14.5661621,8.73427868 L14.5661621,8.73427868 Z M8.00624801,4.2578313 L10.7068464,2.03795371 L14.5661621,4.52079201 L11.8975453,6.62651612 L8.00624801,4.2578313 L8.00624801,4.2578313 Z" id="Dropbox-Gray"></path>
            </g>
        </g>
    </g>
</svg>