<?xml version="1.0" encoding="UTF-8" standalone="no"?>
<svg width="16px" height="16px" viewBox="0 0 16 16" version="1.1" xmlns="http://www.w3.org/2000/svg" xmlns:xlink="http://www.w3.org/1999/xlink">
    <!-- Generator: Sketch 41.2 (35397) - http://www.bohemiancoding.com/sketch -->
    <title>edit</title>
    <desc>Created with Sketch.</desc>
    <defs></defs>
    <g id="Icons" stroke="none" stroke-width="1" fill="none" fill-rule="evenodd">
        <g id="Icon-Set-Example" transform="translate(-24.000000, -96.000000)" fill="#000000">
            <g id="edit" transform="translate(24.000000, 96.000000)">
                <path d="M5.5557114,13.1152259 L6.04622541,12.9366934 C6.11327577,12.9122891 6.170595,12.8740188 6.21640634,12.8262847 C6.30771264,12.8026073 6.39325958,12.751651 6.45853458,12.6738593 L11.9345244,6.14782868 L11.9446339,6.15631153 L12.7965709,5.1410125 C13.2703631,4.57636899 13.192072,3.7427182 12.6290297,3.2702696 L11.6063568,2.41214514 C11.0386325,1.93576787 10.2054533,2.01126614 9.73494145,2.57200031 L9.4804573,2.87528271 C9.45858857,2.89325376 9.43805966,2.91347103 9.41921952,2.93592383 L3.39690508,10.1130387 C3.34200327,10.1784681 3.30776082,10.2554791 3.29387647,10.3351154 C3.24298612,10.3935169 3.20674922,10.4653288 3.19248631,10.5462178 L2.7099644,13.2827355 C2.68883931,13.4025419 2.71676432,13.5180041 2.77924794,13.6105876 C2.8090482,13.817226 2.98899555,13.9852804 3.20653012,13.9852804 L12.3881332,13.9852804 C12.6280577,13.9852804 12.819747,13.790512 12.819747,13.5502531 C12.819747,13.3170208 12.626507,13.1152259 12.3881332,13.1152259 L5.5557114,13.1152259 Z M11.2279945,5.55497972 L5.77188912,12.057313 C5.75811491,12.0608254 5.74439732,12.0650488 5.73077707,12.0700062 L4.64226284,12.466193 C4.64658697,12.2859211 4.56984353,12.105195 4.4193294,11.9788987 C4.2726096,11.8557862 4.07853496,11.8124437 3.89948473,11.8479978 L4.10019632,10.7097059 C4.1012813,10.7084405 4.10236087,10.7071677 4.10343496,10.7058877 L9.5834584,4.17505005 L10.1709364,4.66800258 C10.1659008,4.67319063 10.1610177,4.67859604 10.1562999,4.68421851 L5.34548796,10.4175209 C5.23811773,10.5454798 5.25319435,10.7416482 5.38326291,10.8507887 C5.50952753,10.9567373 5.70730185,10.9429003 5.81650788,10.8127536 L10.6273198,5.07945116 C10.6320321,5.07383534 10.6365084,5.06808815 10.6407496,5.0622227 L11.2279945,5.55497972 Z"></path>
            </g>
        </g>
    </g>
</svg>