<?xml version="1.0" encoding="UTF-8" standalone="no"?>
<svg width="16px" height="16px" viewBox="0 0 16 16" version="1.1" xmlns="http://www.w3.org/2000/svg" xmlns:xlink="http://www.w3.org/1999/xlink">
    <!-- Generator: Sketch 41.2 (35397) - http://www.bohemiancoding.com/sketch -->
    <title>facebook</title>
    <desc>Created with Sketch.</desc>
    <defs></defs>
    <g id="Icons" stroke="none" stroke-width="1" fill="none" fill-rule="evenodd">
        <g id="Icon-Set-Example" transform="translate(-120.000000, -96.000000)" fill="#000000">
            <g id="facebook" transform="translate(120.000000, 96.000000)">
                <path d="M7.11567801,4.31435773 C6.56602352,4.31435773 6.03331043,4.40089303 5.67377615,4.57584485 C5.31424188,4.75267786 5.05447366,5.06307624 4.92082479,5.34149418 C4.78717593,5.61991211 4.72129268,5.96040973 4.72129268,6.52665162 L4.72129268,7.06467547 L3.81963343,7.06467547 L3.81963343,8.47557718 L4.72129268,8.47557718 L4.72129268,13.1578897 L6.64696579,13.1578897 L6.64696579,8.47557718 L7.84792321,8.47557718 L8.18110419,7.06467547 L6.64696579,7.06467547 L6.64696579,6.55863205 C6.64696579,6.21625324 6.70908428,5.98486536 6.83332125,5.86446841 C6.95755823,5.74407147 7.2041498,5.67070458 7.49215369,5.67070458 C7.78203997,5.67070458 8.01545489,5.80803234 8.3109883,5.97922175 L8.66111068,4.65297414 C8.12086808,4.50059675 7.68039153,4.31435773 7.11567801,4.31435773 L7.11567801,4.31435773 Z M13.099759,14.0326487 L2.91232703,14.0326487 C2.40032011,14.0326487 1.98431448,13.6545271 1.98431448,13.1428401 L1.98431448,2.91850563 C1.98431448,2.40493741 2.40032011,1.9891917 2.91232703,1.9891917 L13.099759,1.9891917 C13.6117659,1.9891917 14.0277715,2.40493741 14.0277715,2.91850563 L14.0277715,13.1428401 C14.0277715,13.6545271 13.6117659,14.0326487 13.099759,14.0326487 L13.099759,14.0326487 Z" id="Facebook-Gray"></path>
            </g>
        </g>
    </g>
</svg>