<?xml version="1.0" encoding="UTF-8" standalone="no"?>
<svg width="16px" height="16px" viewBox="0 0 16 16" version="1.1" xmlns="http://www.w3.org/2000/svg" xmlns:xlink="http://www.w3.org/1999/xlink">
    <!-- Generator: Sketch 41.2 (35397) - http://www.bohemiancoding.com/sketch -->
    <title>hardware</title>
    <desc>Created with Sketch.</desc>
    <defs></defs>
    <g id="Icons" stroke="none" stroke-width="1" fill="none" fill-rule="evenodd">
        <g id="Icon-Set-Example" transform="translate(-120.000000, -120.000000)" fill="#000000">
            <g id="hardware" transform="translate(120.000000, 120.000000)">
                <path d="M9.09572355,10.8224956 C8.86153451,11.6693698 9.07658971,12.6142908 9.74217808,13.2800234 C10.4038709,13.9416887 11.3417155,14.1581191 12.1847502,13.9305177 L10.7565294,12.5021801 L11.1314152,11.1029443 L12.5306774,10.7280293 L13.9589556,12.1563096 C14.1864134,11.3133309 13.9700119,10.3754849 13.3083191,9.71381963 C12.6136003,9.01901384 11.6143441,8.81518657 10.7402026,9.10070515 L7.0602007,5.42064175 L6.96358937,5.3240288 C7.24922208,4.44982867 7.0453092,3.45068551 6.35050448,2.75602294 C5.68884026,2.09430041 4.75096703,1.87789864 3.90798963,2.10544274 L5.33626775,3.53375171 L4.96135334,4.93293022 L3.56209105,5.30795979 L2.13381293,3.87967947 C1.90624054,4.72262952 2.12267062,5.66047555 2.78436348,6.32216944 C3.44995186,6.98784477 4.39495731,7.20287165 5.24180158,6.96862497 L9.09572355,10.8224956 Z M7.38130625,10.2941886 L6.96364294,10.7118449 C7.24916151,11.5859864 7.04533425,12.5852426 6.35052846,13.2799614 C5.68886322,13.9416543 4.75101719,14.1580557 3.90803848,13.9305979 L5.33631881,12.5023198 L4.96140382,11.1030575 L3.56216802,10.7281717 L2.1338304,12.1563926 C1.90622902,11.3133579 2.12265943,10.3755133 2.78432467,9.71382042 C3.45005729,9.04823204 4.39497827,8.83317685 5.24185249,9.06736588 L5.69816012,8.61105217 L7.38130625,10.2941886 L7.38130625,10.2941886 Z M8.47846585,5.8307094 L9.09572311,5.21344392 C8.86147643,4.36659965 9.07650331,3.4215942 9.74217865,2.75600582 C10.4038725,2.09431296 11.3417186,1.87788288 12.1846686,2.10545527 L10.7563883,3.53373339 L11.1314179,4.93299568 L12.5305964,5.30791009 L13.9589053,3.87963197 C14.1864494,4.72260937 13.9700477,5.6604826 13.3083251,6.32214682 C12.6136626,7.01695153 11.6145194,7.22086441 10.7403193,6.93523171 L10.1616428,7.51389851 L8.47846585,5.8307094 L8.47846585,5.8307094 Z" id="Hardware-Gray"></path>
            </g>
        </g>
    </g>
</svg>