<?xml version="1.0" encoding="UTF-8" standalone="no"?>
<svg width="16px" height="16px" viewBox="0 0 16 16" version="1.1" xmlns="http://www.w3.org/2000/svg" xmlns:xlink="http://www.w3.org/1999/xlink">
    <!-- Generator: Sketch 41.2 (35397) - http://www.bohemiancoding.com/sketch -->
    <title>home</title>
    <desc>Created with Sketch.</desc>
    <defs></defs>
    <g id="Icons" stroke="none" stroke-width="1" fill="none" fill-rule="evenodd">
        <g id="Icon-Set-Example" transform="translate(-288.000000, -72.000000)" fill="#000000">
            <g id="home" transform="translate(288.000000, 72.000000)">
                <path d="M8.01069326,3.61531348 L12.9283994,8.53301966 C13.2202078,8.82482803 13.6743461,8.81985885 13.957515,8.53668996 C14.2426581,8.25154687 14.2390406,7.79277034 13.9538447,7.5075744 L8.67639658,2.23012628 C8.49056881,2.04429851 8.23891096,1.9788237 8.00749725,2.02890416 C7.77583798,1.98182918 7.52560492,2.0495113 7.34498994,2.23012628 L2.06754182,7.5075744 C1.77573345,7.79938277 1.78070263,8.25352107 2.06387152,8.53668996 C2.34901461,8.82183306 2.80779114,8.81821561 3.09298708,8.53301966 L8.01069326,3.61531348 Z M3.57000641,9.45251063 C3.57000641,9.33929626 3.632687,9.18472827 3.71753394,9.09973377 L8.00401901,4.80579394 L12.3054136,9.09973377 C12.3871742,9.18135268 12.4534543,9.33032301 12.4534543,9.45251063 L12.4534543,13.8132656 C12.4534543,13.92648 12.3655317,14.0182584 12.2512201,14.0182584 L3.77224057,14.0182584 C3.66054973,14.0182584 3.57000641,13.9354533 3.57000641,13.8132656 L3.57000641,9.45251063 Z M4.88607276,9.61856521 C4.88607276,9.50449685 4.97364852,9.41202617 5.09261179,9.41202617 L7.31166642,9.41202617 C7.42573478,9.41202617 7.51820546,9.49960193 7.51820546,9.61856521 L7.51820546,11.8376198 C7.51820546,11.9516882 7.43062969,12.0441589 7.31166642,12.0441589 L5.09261179,12.0441589 C4.97854343,12.0441589 4.88607276,11.9565831 4.88607276,11.8376198 L4.88607276,9.61856521 Z M8.50525522,9.60995021 C8.50525522,9.50063978 8.59283098,9.41202617 8.71179426,9.41202617 L10.9308489,9.41202617 C11.0449172,9.41202617 11.1373879,9.49197596 11.1373879,9.60995021 L11.1373879,14.0182584 L8.50525522,14.0182584 L8.50525522,9.60995021 Z"></path>
            </g>
        </g>
    </g>
</svg>