<?xml version="1.0" encoding="UTF-8" standalone="no"?>
<svg width="16px" height="16px" viewBox="0 0 16 16" version="1.1" xmlns="http://www.w3.org/2000/svg" xmlns:xlink="http://www.w3.org/1999/xlink">
    <!-- Generator: Sketch 41.2 (35397) - http://www.bohemiancoding.com/sketch -->
    <title>image</title>
    <desc>Created with Sketch.</desc>
    <defs></defs>
    <g id="Icons" stroke="none" stroke-width="1" fill="none" fill-rule="evenodd">
        <g id="Icon-Set-Example" transform="translate(-72.000000, -120.000000)" fill="#000000">
            <g id="image" transform="translate(72.000000, 120.000000)">
                <g id="Group" transform="translate(0.397095, 2.330332)">
                    <polygon id="Combined-Shape" points="1.74448571 12.1008174 1.72151429 12.1048571 0.0118 2.43571429 13.8623714 0 14.2876475 2.40551429 1.74448571 2.40551429"></polygon>
                    <path d="M2.72877143,11.2420857 L14.9644857,11.2420857 L14.9644857,3.38751429 L2.72877143,3.38751429 L2.72877143,11.2420857 Z M6.18182857,7.25182857 L7.65411429,8.41268571 L10.0601143,4.9304 L11.5489714,7.25182857 L12.8161143,6.09097143 L13.9801143,10.2698286 L3.85411429,10.2698286 L6.18182857,7.25182857 Z M4.83848571,4.50951429 C5.3822,4.50951429 5.82305714,4.94922857 5.82305714,5.49122857 C5.82305714,6.03351429 5.3822,6.47322857 4.83848571,6.47322857 C4.29477143,6.47322857 3.85391429,6.03351429 3.85391429,5.49122857 C3.85391429,4.94922857 4.29477143,4.50951429 4.83848571,4.50951429 Z" id="Combined-Shape"></path>
                </g>
            </g>
        </g>
    </g>
</svg>