<?xml version="1.0" encoding="UTF-8" standalone="no"?>
<svg width="16px" height="16px" viewBox="0 0 16 16" version="1.1" xmlns="http://www.w3.org/2000/svg" xmlns:xlink="http://www.w3.org/1999/xlink">
    <!-- Generator: Sketch 41.2 (35397) - http://www.bohemiancoding.com/sketch -->
    <title>import-image</title>
    <desc>Created with Sketch.</desc>
    <defs></defs>
    <g id="Icons" stroke="none" stroke-width="1" fill="none" fill-rule="evenodd">
        <g id="Icon-Set-Example" transform="translate(-192.000000, -144.000000)" fill="#000000">
            <g id="import-image" transform="translate(192.000000, 144.000000)">
                <g id="Group" transform="translate(0.456055, 3.241211)">
                    <polygon id="Combined-Shape" points="5.05836429 9.07561303 5.04113571 9.07864286 3.75885 1.82678571 14.1467786 0 14.4657356 1.80413571 5.05836429 1.80413571"></polygon>
                    <path d="M5.79657857,8.43156429 L14.9733643,8.43156429 L14.9733643,2.54063571 L5.79657857,2.54063571 L5.79657857,8.43156429 Z M8.38637143,5.43887143 L9.49058571,6.30951429 L11.2950857,3.6978 L12.4117286,5.43887143 L13.3620857,4.56822857 L14.2350857,7.70237143 L6.64058571,7.70237143 L8.38637143,5.43887143 Z M7.37886429,3.38213571 C7.78665,3.38213571 8.11729286,3.71192143 8.11729286,4.11842143 C8.11729286,4.52513571 7.78665,4.85492143 7.37886429,4.85492143 C6.97107857,4.85492143 6.64043571,4.52513571 6.64043571,4.11842143 C6.64043571,3.71192143 6.97107857,3.38213571 7.37886429,3.38213571 Z" id="Combined-Shape"></path>
                    <polygon id="Fill-7" points="3.44464286 5.10032143 1.66242857 6.89346429 1.66242857 5.61846429 0 5.61846429 0 4.58217857 1.66242857 4.58217857 1.66242857 3.30717857"></polygon>
                </g>
            </g>
        </g>
    </g>
</svg>