<?xml version="1.0" encoding="UTF-8" standalone="no"?>
<svg width="16px" height="16px" viewBox="0 0 16 16" version="1.1" xmlns="http://www.w3.org/2000/svg" xmlns:xlink="http://www.w3.org/1999/xlink">
    <!-- Generator: Sketch 41.2 (35397) - http://www.bohemiancoding.com/sketch -->
    <title>link</title>
    <desc>Created with Sketch.</desc>
    <defs></defs>
    <g id="Icons" stroke="none" stroke-width="1" fill="none" fill-rule="evenodd">
        <g id="Icon-Set-Example" transform="translate(-48.000000, -120.000000)" fill="#000000">
            <g id="link" transform="translate(48.000000, 120.000000)">
                <path d="M5.16089642,9.42402953 L3.49005214,11.0969143 C3.02876384,11.5586065 3.02876384,12.3061081 3.49005214,12.769799 C3.95154058,13.2314912 4.69940799,13.2314912 5.16089642,12.769799 L6.8317407,11.0969143 C6.84354808,11.0849223 6.85135296,11.0709316 6.86255996,11.0589396 L8.27644364,9.64588163 C8.4875756,10.4353553 8.28584952,11.3127704 7.66706278,11.9323573 L5.9962185,13.6052421 C5.07364189,14.5286265 3.5775068,14.5286265 2.65473007,13.6052421 C1.73195333,12.6818576 1.73195333,11.182857 2.65473007,10.2594726 L4.32557435,8.58658783 C4.94476134,7.96700089 5.82190956,7.76513546 6.61100274,7.97699422 L5.1727038,9.4140362 C5.16910155,9.41603486 5.16449867,9.4200322 5.16089642,9.42402953 L5.16089642,9.42402953 Z M6.39907028,10.7271608 L6.39726916,10.7251621 C6.28840111,10.8370875 6.13730668,10.9050422 5.96980199,10.9050422 C5.63839486,10.9050422 5.36942675,10.6372207 5.36942675,10.3054419 C5.36942675,10.1315578 5.44447366,9.97766045 5.56234733,9.86773373 L9.53382951,5.90037863 C9.64329792,5.78245725 9.79859498,5.70850655 9.97230355,5.70850655 C10.3039108,5.70850655 10.5726788,5.976328 10.5726788,6.30810682 C10.5726788,6.47199756 10.5066375,6.61989895 10.3997707,6.727827 L10.4015718,6.72982567 L6.39907028,10.7271608 L6.39907028,10.7271608 Z M13.270565,6.33608816 L11.5997207,8.00897291 C10.9785324,8.63055851 10.0979821,8.83242394 9.30688767,8.61656784 L10.7017595,7.22349656 C10.7221722,7.20550855 10.7449865,7.19151788 10.7643986,7.17352987 L12.4352429,5.50064512 C12.8965312,5.03695425 12.8965312,4.28945259 12.4352429,3.82776038 C11.9737545,3.36406951 11.2256869,3.36406951 10.7643986,3.82776038 L9.09355433,5.50064512 L9.09315408,5.50064512 L9.09215346,5.49864646 L7.64705027,6.94168443 C7.43912031,6.15420941 7.64144677,5.28079169 8.25823226,4.66320342 L9.92907654,2.99031867 C10.8516531,2.06693426 12.3477882,2.06693426 13.270565,2.99031867 C14.1933417,3.91370309 14.1933417,5.41270375 13.270565,6.33608816 L13.270565,6.33608816 Z" id="Link-Gray"></path>
            </g>
        </g>
    </g>
</svg>