<?xml version="1.0" encoding="UTF-8" standalone="no"?>
<svg width="16px" height="16px" viewBox="0 0 16 16" version="1.1" xmlns="http://www.w3.org/2000/svg" xmlns:xlink="http://www.w3.org/1999/xlink">
    <!-- Generator: Sketch 41.2 (35397) - http://www.bohemiancoding.com/sketch -->
    <title>location</title>
    <desc>Created with Sketch.</desc>
    <defs></defs>
    <g id="Icons" stroke="none" stroke-width="1" fill="none" fill-rule="evenodd">
        <g id="Icon-Set-Example" transform="translate(-120.000000, -48.000000)" fill="#000000">
            <g id="location" transform="translate(120.000000, 48.000000)">
                <path d="M8.01370239,13.9764419 C8.01370239,13.9764419 12.8294919,9.34979447 12.8294919,6.72644191 C12.8294919,4.10308935 10.6733895,1.97644191 8.01370239,1.97644191 C5.35401531,1.97644191 3.19791292,4.10308935 3.19791292,6.72644191 C3.19791292,9.34979447 8.01370239,13.9764419 8.01370239,13.9764419 Z M7.93475502,9.71328402 C9.50440642,9.71328402 10.7768603,8.44083015 10.7768603,6.87117875 C10.7768603,5.30152736 9.50440642,4.02907349 7.93475502,4.02907349 C6.36510363,4.02907349 5.09264976,5.30152736 5.09264976,6.87117875 C5.09264976,8.44083015 6.36510363,9.71328402 7.93475502,9.71328402 Z M7.93475502,8.60802086 C8.89398643,8.60802086 9.67159713,7.83041016 9.67159713,6.87117875 C9.67159713,5.91194734 8.89398643,5.13433665 7.93475502,5.13433665 C6.97552362,5.13433665 6.19791292,5.91194734 6.19791292,6.87117875 C6.19791292,7.83041016 6.97552362,8.60802086 7.93475502,8.60802086 Z"></path>
            </g>
        </g>
    </g>
</svg>