<?xml version="1.0" encoding="UTF-8" standalone="no"?>
<svg width="16px" height="16px" viewBox="0 0 16 16" version="1.1" xmlns="http://www.w3.org/2000/svg" xmlns:xlink="http://www.w3.org/1999/xlink">
    <!-- Generator: Sketch 41.2 (35397) - http://www.bohemiancoding.com/sketch -->
    <title>options</title>
    <desc>Created with Sketch.</desc>
    <defs></defs>
    <g id="Icons" stroke="none" stroke-width="1" fill="none" fill-rule="evenodd">
        <g id="Icon-Set-Example" transform="translate(-264.000000, -48.000000)" fill="#000000">
            <g id="options" transform="translate(264.000000, 48.000000)">
                <path d="M12.846,8 C12.846,7.25185714 13.3064286,6.66114286 14,6.25514286 C13.8752857,5.83757143 13.7095714,5.43757143 13.5058571,5.061 C12.7282857,5.26457143 12.0987143,4.95971429 11.5694286,4.43071429 C11.0404286,3.90171429 10.8782857,3.27185714 11.082,2.49428571 C10.7052857,2.29042857 10.3054286,2.12485714 9.88757143,2 C9.48157143,2.69371429 8.74828571,3.15414286 8,3.15414286 C7.252,3.15414286 6.51871429,2.69371429 6.11242857,2 C5.69471429,2.12471429 5.29485714,2.29042857 4.91828571,2.494 C5.12171429,3.27171429 4.95985714,3.90142857 4.43085714,4.43071429 C3.90157143,4.95985714 3.27185714,5.26457143 2.49414286,5.06128571 C2.29042857,5.43771429 2.125,5.83771429 2,6.25514286 C2.69357143,6.66114286 3.15414286,7.25185714 3.15414286,8 C3.15414286,8.74814286 2.69357143,9.48157143 2,9.88742857 C2.125,10.3052857 2.29042857,10.7052857 2.49414286,11.0818571 C3.272,10.8782857 3.90157143,11.0402857 4.43085714,11.5694286 C4.95985714,12.0985714 5.12171429,12.7281429 4.91828571,13.506 C5.295,13.7095714 5.69485714,13.8754286 6.11271429,14 C6.51871429,13.3065714 7.252,12.8458571 8,12.8458571 C8.74828571,12.8458571 9.48157143,13.3065714 9.88757143,14 C10.3055714,13.8751429 10.7054286,13.7095714 11.082,13.5057143 C10.8785714,12.7282857 11.0404286,12.0985714 11.5694286,11.5694286 C12.0987143,11.0402857 12.7281429,10.7354286 13.5058571,10.939 C13.7095714,10.5622857 13.8752857,10.1622857 14,9.74457143 C13.3064286,9.33871429 12.846,8.74814286 12.846,8 L12.846,8 Z M8,10.6092857 C6.559,10.6092857 5.39085714,9.44085714 5.39085714,7.99985714 C5.39085714,6.55871429 6.559,5.39042857 8,5.39042857 C9.44114286,5.39042857 10.6094286,6.55871429 10.6094286,7.99985714 C10.6094286,9.441 9.44114286,10.6092857 8,10.6092857 L8,10.6092857 Z"></path>
            </g>
        </g>
    </g>
</svg>