<?xml version="1.0" encoding="UTF-8" standalone="no"?>
<svg width="16px" height="16px" viewBox="0 0 16 16" version="1.1" xmlns="http://www.w3.org/2000/svg" xmlns:xlink="http://www.w3.org/1999/xlink">
    <!-- Generator: Sketch 41.2 (35397) - http://www.bohemiancoding.com/sketch -->
    <title>prize</title>
    <desc>Created with Sketch.</desc>
    <defs></defs>
    <g id="Icons" stroke="none" stroke-width="1" fill="none" fill-rule="evenodd">
        <g id="Icon-Set-Example" transform="translate(-192.000000, -120.000000)" fill="#000000">
            <g id="prize" transform="translate(192.000000, 120.000000)">
                <g transform="translate(2.266245, 2.017995)">
                    <path d="M8.22666667,2.42034364 C8.56686933,2.70473493 8.859712,3.05080145 9.08967111,3.44826398 L9.94688711,2.58981871 C10.3541831,2.68338582 10.7993671,2.57110529 11.1169422,2.25324069 C11.4403058,1.92931399 11.5505493,1.4730755 11.4481991,1.0590081 L10.6701796,1.83811901 L9.752448,0.918525655 L10.5296782,0.140205455 C10.1165938,0.0382041281 9.66220089,0.149166812 9.33936356,0.472302797 C9.02231467,0.789640257 8.91049244,1.23480884 9.00284444,1.64281414 L8.22666667,2.42034364" id="Fill-1"></path>
                    <path d="M7.14843733,8.13531719 C7.14843733,8.04570362 7.12133689,7.96188857 7.07555556,7.89230627 C7.69202489,7.4247343 8.09800533,6.63797988 8.09800533,5.74658845 C8.09800533,4.31224421 7.05029689,3.14963994 5.75868444,3.14963994 C4.467072,3.14963994 3.41936356,4.31224421 3.41936356,5.74658845 C3.41936356,6.6334992 3.82087111,7.41656365 4.43207822,7.88492633 C4.39182222,7.95345436 4.36866844,8.03357943 4.36866844,8.11950303 C4.36866844,8.20621733 4.39261156,8.28739668 4.43392,8.35671541 C4.63388444,8.39704152 4.86410667,8.43525907 5.11300978,8.46187957 C5.20615111,8.37806453 5.265088,8.25576837 5.265088,8.11950303 C5.265088,8.10158031 5.26377244,8.08392117 5.26166756,8.06626202 L5.32323556,8.06626202 C5.31981511,8.08892899 5.31797333,8.11185952 5.31797333,8.13531719 C5.31797333,8.28186173 5.38927644,8.41127426 5.49899378,8.49139934 C5.58871467,8.49561645 5.68001422,8.49798857 5.77210311,8.49798857 C5.85472,8.49798857 5.93628444,8.49614358 6.01679644,8.49271718 C6.12730311,8.41259211 6.19939556,8.28265244 6.19939556,8.13531719 C6.19939556,8.11185952 6.19755378,8.08892899 6.19413333,8.06626202 L6.27254044,8.06626202 C6.26885689,8.08892899 6.26727822,8.11185952 6.26727822,8.13531719 C6.26701511,8.26604757 6.32463644,8.38280878 6.41488356,8.46346099 C6.66010311,8.43789476 6.88743111,8.40125863 7.08581689,8.36172323 C7.12528356,8.29556733 7.14843733,8.21834152 7.14843733,8.13531719 L7.14843733,8.13531719 Z M5.234304,5.82486853 C5.15458133,5.87837311 5.07775289,5.94083903 4.98408533,5.96825024 C4.86936889,6.00620423 4.76123022,6.0597088 4.65361778,6.11374051 C4.60073244,6.14352384 4.56100267,6.18727635 4.547584,6.24737015 C4.51074844,6.30772753 4.54495289,6.38837974 4.50417067,6.4437293 C4.44233956,6.48879965 4.372352,6.43476794 4.32420267,6.39602325 C4.218432,6.31800673 4.12529067,6.21073402 4.09845333,6.07868579 C4.07766756,5.96719597 4.05451378,5.85280688 4.06793244,5.73894494 C4.069248,5.60083461 4.13528889,5.47300349 4.22027378,5.36757576 C4.31683556,5.23631824 4.45681067,5.12324701 4.62283378,5.10216146 C4.665984,5.0924094 4.70939733,5.08766515 4.75307378,5.08740158 C4.88462933,5.08687444 5.01697422,5.12825482 5.12932267,5.19572857 C5.22562133,5.26583801 5.30087111,5.36204081 5.35822933,5.46615069 C5.40769422,5.59609036 5.338496,5.74447989 5.234304,5.82486853 L5.234304,5.82486853 Z M5.98338133,7.14956793 C5.87866311,7.45768047 5.89813333,6.94846454 5.76605156,6.94240245 C5.62818133,6.94292959 5.60239644,7.44581985 5.53083022,7.15035864 C5.50820267,6.927379 5.65186133,6.41710879 5.76605156,6.42027163 C5.89129244,6.42369803 6.01495467,6.94398386 5.98338133,7.14956793 L5.98338133,7.14956793 Z M7.01293511,6.4437293 C6.97215289,6.38837974 7.00662044,6.30772753 6.96952178,6.24737015 C6.95610311,6.18727635 6.91663644,6.14352384 6.86375111,6.11374051 C6.75587556,6.0597088 6.64773689,6.00620423 6.53302044,5.96825024 C6.43935289,5.94083903 6.36278756,5.87837311 6.28306489,5.82486853 C6.17860978,5.74447989 6.10967467,5.59609036 6.15913956,5.46615069 C6.21623467,5.36204081 6.29148444,5.26583801 6.38804622,5.19572857 C6.50039467,5.12825482 6.63273956,5.08687444 6.764032,5.08740158 C6.80797156,5.08766515 6.85112178,5.0924094 6.894272,5.10216146 C7.06055822,5.12324701 7.20053333,5.23631824 7.296832,5.36757576 C7.38181689,5.47300349 7.44785778,5.60083461 7.44943644,5.73894494 C7.462592,5.85280688 7.43970133,5.96719597 7.41865244,6.07868579 C7.39181511,6.21073402 7.29893689,6.31800673 7.19316622,6.39602325 C7.14475378,6.43476794 7.07476622,6.48879965 7.01293511,6.4437293 L7.01293511,6.4437293 Z" id="Fill-2"></path>
                    <path d="M3.313856,9.6300188 L2.25667556,8.79661261 L1.56942933,9.48505567 C1.16187022,9.39122499 0.716686222,9.50350552 0.399374222,9.82163369 C0.0760106667,10.1452968 -0.0342328889,10.6015353 0.0681173333,11.0158663 L0.845873778,10.2364918 L1.76360533,11.1560852 L0.986638222,11.9346689 C1.39945956,12.0364067 1.85411556,11.9257076 2.17668978,11.602308 C2.49400178,11.2849706 2.605824,10.8400655 2.513472,10.4320602 L3.313856,9.6300188" id="Fill-3"></path>
                    <path d="M9.94872889,9.48452853 L9.26595556,8.80056615 L8.208512,9.63397234 L9.00310756,10.4299517 C8.90970311,10.8384841 9.02178844,11.2841798 9.33910044,11.602308 C9.66220089,11.9262347 10.1179093,12.0366703 10.5312569,11.9341418 L9.75350044,11.1547673 L10.6714951,10.2354375 L11.4484622,11.0140213 C11.5502862,10.6002175 11.4395164,10.1447697 11.1169422,9.82163369 C10.7998933,9.50403266 10.3557618,9.3920157 9.94872889,9.48452853" id="Fill-4"></path>
                    <path d="M1.56758756,2.59008228 L2.43243378,3.45643463 C2.66134044,3.05818139 2.95339378,2.71132416 3.292544,2.42587859 L2.51294578,1.64465913 C2.60661333,1.23639025 2.494528,0.790430965 2.17695289,0.472302797 C1.85385244,0.148376104 1.398144,0.0382041281 0.984796444,0.140732593 L1.76255289,0.919843501 L0.844558222,1.83917329 L0.0675911111,1.06058952 C-0.0342328889,1.47439335 0.0765368889,1.92984113 0.399111111,2.25297712 C0.71616,2.57084172 1.16029156,2.68285868 1.56758756,2.59008228" id="Fill-5"></path>
                    <path d="M9.03704889,3.75005085 L9.03283911,3.74240734 C8.40821333,2.49546089 7.15554133,1.72109423 5.76368356,1.72109423 C4.35840711,1.72109423 3.10047289,2.50626723 2.48058311,3.77034569 L2.47768889,3.77588065 C2.473216,3.78352416 2.03829333,4.55920866 2.03829333,5.94980039 C2.03829333,7.22310377 2.18432,8.31006365 2.21457778,8.5209191 L3.43199289,9.48083856 C3.512768,9.49823414 3.82560711,9.56333576 4.26263467,9.62211172 L4.26605511,9.19460228 L4.32525511,9.17088104 C4.34472533,9.16271039 4.81779911,8.97583975 5.76263111,8.97583975 C6.70851556,8.97583975 7.18500978,9.17351674 7.20500622,9.18195095 L7.26341689,9.20672647 L7.25999644,9.62132101 C7.69886578,9.56280862 8.01407289,9.49797057 8.09537422,9.48057499 L9.31305244,8.5209191 C9.342784,8.31718002 9.48144356,7.28794182 9.48144356,5.94980039 C9.48144356,4.48514568 9.04152178,3.75716722 9.03704889,3.75005085 L9.03704889,3.75005085 Z M8.73920711,7.71386984 L8.72999822,7.74233533 L7.94040178,8.33642058 L7.92645689,8.34142839 C7.88593778,8.35566114 6.91926756,8.68854919 5.77210311,8.68854919 C4.62493867,8.68854919 3.65853156,8.35566114 3.61801244,8.34142839 L3.60380444,8.33642058 L2.81526044,7.74312604 L2.80578844,7.71624197 C2.78000356,7.64376041 2.18274133,5.92607915 2.830784,4.56817002 C3.20361244,3.78668699 4.08529778,2.47569319 5.797888,2.47569319 C7.09949867,2.47569319 8.14589156,3.21974938 8.74420622,4.57054214 C9.32752356,5.88733446 8.76341333,7.64007044 8.73920711,7.71386984 L8.73920711,7.71386984 Z" id="Fill-6"></path>
                    <path d="M7.07213511,9.33640257 C6.92189867,9.28685154 6.48276622,9.16640036 5.76263111,9.16640036 C5.04302222,9.16640036 4.60573156,9.27999874 4.455232,9.32744122 L4.45260089,9.64636009 L4.45786311,9.6471508 L4.45312711,10.0003337 C4.59415467,10.0525204 5.01381689,10.1787701 5.757632,10.1787701 C6.50592,10.1787701 6.92531911,10.0638539 7.06766222,10.0158843 L7.07081956,9.76707484 L7.06845156,9.76707484 L7.07213511,9.33640257 L7.07213511,9.33640257 Z M5.32770844,9.89411525 C5.32770844,9.93259637 5.29639822,9.96396112 5.25772089,9.96396112 C5.21930667,9.96396112 5.18799644,9.93259637 5.18799644,9.89411525 L5.18799644,9.41310125 C5.18799644,9.37435656 5.21930667,9.34325538 5.25772089,9.34325538 C5.29639822,9.34325538 5.32770844,9.37435656 5.32770844,9.41310125 L5.32770844,9.89411525 L5.32770844,9.89411525 Z M5.81630578,9.89701452 C5.81630578,9.93549564 5.78499556,9.96686039 5.74631822,9.96686039 C5.70764089,9.96686039 5.67633067,9.93549564 5.67633067,9.89701452 L5.67633067,9.41600051 C5.67633067,9.37725582 5.70764089,9.34589107 5.74631822,9.34589107 C5.78499556,9.34589107 5.81630578,9.37725582 5.81630578,9.41600051 L5.81630578,9.89701452 L5.81630578,9.89701452 Z M6.30464,9.89701452 C6.30464,9.93549564 6.27332978,9.96686039 6.23491556,9.96686039 C6.19623822,9.96686039 6.164928,9.93549564 6.164928,9.89701452 L6.164928,9.41600051 C6.164928,9.37725582 6.19623822,9.34589107 6.23491556,9.34589107 C6.27332978,9.34589107 6.30464,9.37725582 6.30464,9.41600051 L6.30464,9.89701452 L6.30464,9.89701452 Z" id="Fill-7"></path>
                </g>
            </g>
        </g>
    </g>
</svg>