<?xml version="1.0" encoding="UTF-8" standalone="no"?>
<svg width="16px" height="16px" viewBox="0 0 16 16" version="1.1" xmlns="http://www.w3.org/2000/svg" xmlns:xlink="http://www.w3.org/1999/xlink">
    <!-- Generator: Sketch 41.2 (35397) - http://www.bohemiancoding.com/sketch -->
    <title>project-update</title>
    <desc>Created with Sketch.</desc>
    <defs></defs>
    <g id="Icons" stroke="none" stroke-width="1" fill="none" fill-rule="evenodd">
        <g id="Icon-Set-Example" transform="translate(-216.000000, -72.000000)" fill="#000000">
            <g id="project-update" transform="translate(216.000000, 72.000000)">
                <path d="M7.50108666,5.05406222 L4.03142253,3.96617699 C3.93630554,3.93635383 3.84633978,3.99775588 3.84633978,4.10829553 L3.84633978,11.8049178 C3.84633978,11.9141353 3.92920415,12.0310489 4.03142253,12.0630987 L7.50108666,13.1509839 L7.50108666,5.05406222 Z M8.54530006,13.2292273 L12.1454909,12.0180724 C12.2406079,11.9860737 12.3305736,11.8661979 12.3305736,11.7556583 L12.3305736,4.05903603 C12.3305736,3.94981852 12.2477092,3.88676303 12.1454909,3.92115073 L8.54530006,5.13230561 L8.54530006,13.2292273 Z M2.80212639,2.50255473 C2.80212639,2.33736813 2.93118719,2.24671054 3.08283362,2.29753236 L7.74248612,3.85913834 C7.89751645,3.91109421 8.15225416,3.90996016 8.3039006,3.85913834 L12.9635531,2.29753236 C13.1185834,2.24557649 13.2442603,2.33454081 13.2442603,2.50255473 L13.2442603,12.2718108 C13.2442603,12.4369974 13.1151995,12.6141602 12.9635531,12.664982 L8.3039006,14.226588 C8.14887027,14.2785438 7.89413256,14.2774098 7.74248612,14.226588 L3.08283362,12.664982 C2.9278033,12.6130261 2.80212639,12.4398247 2.80212639,12.2718108 L2.80212639,2.50255473 Z M9.3284601,6.86145521 C9.3284601,6.75105633 9.40663151,6.63396157 9.51281987,6.59647127 L11.4935805,5.89715439 C11.5953996,5.86120668 11.6779402,5.92774147 11.6779402,6.03196016 L11.6779402,6.6689154 C11.6779402,6.77931429 11.5997688,6.89640905 11.4935805,6.93389935 L9.51281987,7.63321623 C9.41100078,7.66916394 9.3284601,7.60262914 9.3284601,7.49841046 L9.3284601,6.86145521 Z M4.49897315,6.03196016 C4.49897315,5.92156128 4.57714456,5.8583722 4.68333292,5.89410759 L6.66409352,6.56068967 C6.76591261,6.59495468 6.84845329,6.71840813 6.84845329,6.82262681 L6.84845329,7.45958206 C6.84845329,7.56998094 6.77028188,7.63317002 6.66409352,7.59743463 L4.68333292,6.93085255 C4.58151383,6.89658754 4.49897315,6.77313409 4.49897315,6.6689154 L4.49897315,6.03196016 Z M4.49897315,7.84626384 C4.49897315,7.73586496 4.57714456,7.67267588 4.68333292,7.70841127 L6.66409352,8.37499335 C6.76591261,8.40925836 6.84845329,8.53271181 6.84845329,8.63693049 L6.84845329,9.27388574 C6.84845329,9.38428462 6.77028188,9.4474737 6.66409352,9.41173831 L4.68333292,8.74515623 C4.58151383,8.71089122 4.49897315,8.58743777 4.49897315,8.48321909 L4.49897315,7.84626384 Z M4.49897315,9.66056752 C4.49897315,9.55016864 4.57714456,9.48697956 4.68333292,9.52271495 L6.66409352,10.189297 C6.76591261,10.223562 6.84845329,10.3470155 6.84845329,10.4512342 L6.84845329,11.0881894 C6.84845329,11.1985883 6.77028188,11.2617774 6.66409352,11.226042 L4.68333292,10.5594599 C4.58151383,10.5251949 4.49897315,10.4017415 4.49897315,10.2975228 L4.49897315,9.66056752 Z M9.3284601,8.67575889 C9.3284601,8.56536001 9.40663151,8.44826525 9.51281987,8.41077495 L11.4935805,7.71145807 C11.5953996,7.67551036 11.6779402,7.74204515 11.6779402,7.84626384 L11.6779402,8.48321909 C11.6779402,8.59361797 11.5997688,8.71071273 11.4935805,8.74820303 L9.51281987,9.44751991 C9.41100078,9.48346762 9.3284601,9.41693282 9.3284601,9.31271414 L9.3284601,8.67575889 Z M9.3284601,10.4900626 C9.3284601,10.3796637 9.40663151,10.2625689 9.51281987,10.2250786 L11.4935805,9.52576175 C11.5953996,9.48981404 11.6779402,9.55634883 11.6779402,9.66056752 L11.6779402,10.2975228 C11.6779402,10.4079216 11.5997688,10.5250164 11.4935805,10.5625067 L9.51281987,11.2618236 C9.41100078,11.2977713 9.3284601,11.2312365 9.3284601,11.1270178 L9.3284601,10.4900626 Z"></path>
            </g>
        </g>
    </g>
</svg>