<?xml version="1.0" encoding="UTF-8" standalone="no"?>
<svg width="16px" height="16px" viewBox="0 0 16 16" version="1.1" xmlns="http://www.w3.org/2000/svg" xmlns:xlink="http://www.w3.org/1999/xlink">
    <!-- Generator: Sketch 41.2 (35397) - http://www.bohemiancoding.com/sketch -->
    <title>share</title>
    <desc>Created with Sketch.</desc>
    <defs></defs>
    <g id="Icons" stroke="none" stroke-width="1" fill="none" fill-rule="evenodd">
        <g id="Icon-Set-Example" transform="translate(-120.000000, -168.000000)" fill="#000000">
            <g id="share" transform="translate(120.000000, 168.000000)">
                <path d="M5.22371965,9.31660792 C4.88558965,9.66312716 4.41341665,9.87826986 3.89087753,9.87826986 C2.8624853,9.87826986 2.02880859,9.04481939 2.02880859,8.01620092 C2.02880859,6.98780868 2.86225906,6.15413198 3.89087753,6.15413198 C4.41334483,6.15413198 4.88555471,6.36925174 5.22372018,6.71579374 L10.3114276,4.03805304 C10.3069535,3.98538733 10.3046707,3.93209586 10.3046707,3.87826986 C10.3046707,2.84987763 11.1381212,2.01620092 12.1667397,2.01620092 C13.1951319,2.01620092 14.0288086,2.84965139 14.0288086,3.87826986 C14.0288086,4.9066621 13.1953581,5.7403388 12.1667397,5.7403388 C11.5870943,5.7403388 11.0693088,5.47555774 10.7277983,5.0602898 L5.72506165,7.69330916 C5.74339024,7.79818033 5.75294648,7.90607198 5.75294648,8.01620092 C5.75294648,8.12632527 5.74338936,8.23421692 5.72505883,8.33909127 L10.7278015,10.9721136 C11.0692742,10.5568766 11.5870099,10.292063 12.1667397,10.292063 C13.1951319,10.292063 14.0288086,11.1255135 14.0288086,12.154132 C14.0288086,13.1825242 13.1953581,14.0162009 12.1667397,14.0162009 C11.1383474,14.0162009 10.3046707,13.1827504 10.3046707,12.154132 C10.3046707,12.1003072 10.3069537,12.0470157 10.3114285,11.9943493 L5.22371965,9.31660792 Z"></path>
            </g>
        </g>
    </g>
</svg>