<?xml version="1.0" encoding="UTF-8" standalone="no"?>
<svg width="16px" height="16px" viewBox="0 0 16 16" version="1.1" xmlns="http://www.w3.org/2000/svg" xmlns:xlink="http://www.w3.org/1999/xlink">
    <!-- Generator: Sketch 41.2 (35397) - http://www.bohemiancoding.com/sketch -->
    <title>skull</title>
    <desc>Created with Sketch.</desc>
    <defs></defs>
    <g id="Icons" stroke="none" stroke-width="1" fill="none" fill-rule="evenodd">
        <g id="Icon-Set-Example" transform="translate(-24.000000, -24.000000)" fill="#000000">
            <g id="skull" transform="translate(24.000000, 24.000000)">
                <path d="M5.50786131,5.8924079 L6.09066232,5.30961274 L5.40922821,4.68303741 C4.8877041,4.20349788 4.70725362,3.9298901 4.64026661,3.51709453 C4.524101,2.80126036 3.93750445,2.22134981 3.22947524,2.12238751 L2.68553245,2.04635834 L3.20972891,2.54868501 L3.73392449,3.05101314 L3.22476365,3.62715515 C2.94472607,3.94403362 2.66610546,4.25842236 2.60560745,4.32579549 C2.54404245,4.39435619 2.30541441,4.28825827 2.0636595,4.08483597 C1.82608765,3.88493404 1.58309482,3.72137739 1.52367635,3.72137739 C1.28954407,3.72137739 1.57219233,4.44569679 1.95615745,4.82965935 C2.27475443,5.14825312 2.48654613,5.236593 2.93708534,5.23881412 C3.41982334,5.24119364 3.62175588,5.33940704 4.2001504,5.85313495 C4.57880431,6.18945391 4.89681342,6.46700469 4.90683658,6.46991412 C4.91686047,6.47281917 5.1873216,6.21294616 5.50786131,5.8924079 L5.50786131,5.8924079 Z M11.6808396,5.93658295 C12.3151199,5.38722509 12.557467,5.26057647 12.9718757,5.26189542 C13.6337927,5.26400487 14.255528,4.81751434 14.4620502,4.19175432 C14.5507806,3.92289973 14.5982621,3.67781036 14.5675642,3.64711242 C14.536867,3.61641521 14.2820749,3.78061346 14.0013629,4.01199944 L13.4909736,4.4327007 L12.8837833,3.76723416 L12.2765908,3.10176616 L12.7822225,2.56748537 L13.2878542,2.03320312 L12.7439108,2.11580954 C12.0345729,2.22353371 11.4484916,2.80615004 11.3328946,3.51848355 C11.2642814,3.94129499 11.0843929,4.20615404 10.5081349,4.73281818 L9.77112884,5.40639478 L10.2902581,5.99667593 C10.5757802,6.32133017 10.8297716,6.59279274 10.854685,6.59992617 C10.8795962,6.60705742 11.2513656,6.3085545 11.6808396,5.93658295 L11.6808396,5.93658295 Z M9.54257565,9.45635203 C9.48201479,9.35418834 9.2522952,9.18379459 9.03208783,9.07770178 C8.43022822,8.78773008 8.28827844,8.47891933 8.59901616,8.13556036 C8.97620644,7.71877289 9.68236269,7.75760498 10.042087,8.21491501 C10.383111,8.64845324 10.4006669,8.92555585 10.11312,9.33608504 C9.86754666,9.68668548 9.70004483,9.72199428 9.54257565,9.45635203 L9.54257565,9.45635203 Z M5.72257463,9.33608504 C5.4350277,8.92555585 5.45258283,8.64845324 5.79360755,8.21491501 C6.15333043,7.75760498 6.85948742,7.71877289 7.23667858,8.13556036 C7.54741629,8.47891933 7.40546579,8.78773008 6.80360676,9.07770178 C6.58339939,9.18379459 6.3536798,9.35418834 6.29311894,9.45635203 C6.13564976,9.72199428 5.96814793,9.68668548 5.72257463,9.33608504 L5.72257463,9.33608504 Z M7.57361578,10.5460621 C7.57361578,10.1694541 7.85147969,9.61998314 8.01445679,9.67430835 C8.2070085,9.73849177 8.42404732,10.4552683 8.30785543,10.6432719 C8.26267091,10.7163799 8.1704771,10.6914753 8.09669168,10.5862219 C7.9948725,10.4409766 7.95018725,10.4377066 7.8958905,10.5715215 C7.80033908,10.8070059 7.57361578,10.7890938 7.57361578,10.5460621 L7.57361578,10.5460621 Z M7.29823139,11.5435316 C7.29823139,11.3043538 7.55121622,11.238107 7.52931227,11.5284735 C7.51566655,11.7093824 7.5129031,12.1661253 8.05553993,12.1830447 C8.59817603,12.1999567 8.54707849,11.7991471 8.54893319,11.6105595 C8.55248787,11.24926 8.79643112,11.329419 8.79643112,11.6217637 C8.79643112,11.9176776 9.01671149,12.167191 9.39619749,12.1687165 C9.7756835,12.1702493 9.77669588,11.8466352 9.77669588,11.5459549 C9.77669588,11.2939964 9.92190326,10.9554191 10.1417931,10.694665 C10.6770834,10.0598877 10.8782356,9.47701951 10.8782356,8.56071627 C10.8782356,6.17272431 8.63411693,4.68777089 6.55933344,5.70285906 C4.6405542,6.64162171 4.25693032,9.39416712 5.83905994,10.8709025 C6.03575755,11.0544974 6.1966909,11.3364189 6.1966909,11.4973938 C6.20705931,12.0321425 6.31760021,12.1666727 6.75205011,12.173366 C7.18650073,12.1800812 7.196756,11.8069863 7.29823139,11.5435243 L7.29823139,11.5435316 Z M12.755969,13.6007323 L12.2470475,13.1532301 L12.8125861,12.4991991 C13.123634,12.1394835 13.4473679,11.8451681 13.5319954,11.8451681 C13.6166222,11.8451681 13.8590014,12.0110407 14.0706155,12.2137813 C14.5327357,12.6565172 14.6970814,12.559468 14.4589138,11.9844865 C14.183417,11.3193827 13.5661473,10.8813256 12.9044413,10.8813256 C12.4348161,10.8813256 12.2415564,10.7912836 11.7962534,10.3649853 C11.4732364,10.0557564 11.2327689,9.91409928 11.1967557,10.0118295 C11.1636833,10.1015825 10.959507,10.4195171 10.7430325,10.7183507 L10.3494416,11.2616831 L10.8203769,11.7181268 C11.0793916,11.9691729 11.291313,12.2770939 11.291313,12.402398 C11.291313,13.2589214 12.0439413,14.0466651 12.8632946,14.0477162 L13.2648897,14.0484461 L12.755969,13.6009439 L12.755969,13.6007323 Z M3.86042494,13.8393626 C4.30294328,13.6105277 4.68207382,12.9983207 4.68207382,12.512593 C4.68207382,12.3420416 4.87655469,12.0018511 5.11425515,11.7566078 L5.5464372,11.3107187 L5.21752393,10.9079309 C5.03662236,10.6863951 4.81776022,10.3884082 4.73116118,10.2457395 C4.58213563,10.0002122 4.548983,10.0093938 4.11154484,10.4173347 C3.76562095,10.7399342 3.48080317,10.866012 2.97913415,10.918595 C2.21096152,10.9991116 1.72444439,11.3907755 1.52386503,12.0901487 C1.37114064,12.6226638 1.49307286,12.6525902 1.92822376,12.1893949 C2.1060867,12.0000701 2.32848761,11.8451681 2.42244753,11.8451681 C2.51640613,11.8451681 2.85226977,12.1393886 3.16881,12.4989947 L3.7443367,13.1528213 L3.22641617,13.6005279 L2.70849682,14.0482271 L3.08250658,14.0482271 C3.28821277,14.0482271 3.638276,13.9542363 3.86042494,13.8393626 L3.86042494,13.8393626 Z" id="HackADayLogo"></path>
            </g>
        </g>
    </g>
</svg>