<?xml version="1.0" encoding="UTF-8" standalone="no"?>
<svg width="16px" height="16px" viewBox="0 0 16 16" version="1.1" xmlns="http://www.w3.org/2000/svg" xmlns:xlink="http://www.w3.org/1999/xlink">
    <!-- Generator: Sketch 41.2 (35397) - http://www.bohemiancoding.com/sketch -->
    <title>twitter</title>
    <desc>Created with Sketch.</desc>
    <defs></defs>
    <g id="Icons" stroke="none" stroke-width="1" fill="none" fill-rule="evenodd">
        <g id="Icon-Set-Example" transform="translate(-96.000000, -96.000000)" fill="#000000">
            <g id="twitter" transform="translate(96.000000, 96.000000)">
                <path d="M10.7248399,2.03867428 C11.9239727,2.01797835 12.5622057,2.44569425 13.1716745,2.98608798 C13.6891925,2.94239657 14.3616123,2.66185174 14.7577081,2.46639018 C14.8862035,2.39740374 15.0144631,2.32841731 15.1429584,2.25943087 C14.916618,2.85501375 14.6098795,3.32182196 14.1385727,3.67595232 C14.0336544,3.75643649 13.929915,3.86221569 13.7985904,3.91280574 L13.7985904,3.91970439 C14.4703029,3.91280574 15.0246012,3.61616408 15.5508428,3.45749528 L15.5508428,3.46439392 C15.2742831,3.89210981 14.900114,4.32672435 14.5009532,4.63946285 C14.3399214,4.76363843 14.1786538,4.88781401 14.017622,5.01428914 C14.0263455,5.70645303 14.0070123,6.3687228 13.8740372,6.95280794 C13.1009431,10.3423414 11.052562,12.6418892 7.80976338,13.6283952 C6.64528888,13.9825256 4.76359806,14.1273971 3.42936821,13.8031608 C2.76779392,13.644492 2.17011365,13.4628278 1.6092137,13.2236748 C1.2977598,13.090301 1.00917572,12.9477291 0.733323284,12.7844612 C0.642551329,12.729272 0.552015146,12.6763824 0.461243192,12.6211933 C0.762323155,12.6303915 1.11432972,12.7108756 1.45077538,12.657986 C1.75515614,12.6096955 2.05364262,12.6234928 2.33421048,12.5637046 C3.03468704,12.414234 3.65641598,12.2141733 4.1920884,11.910633 C4.45190838,11.7611624 4.84588224,11.5863968 5.03049118,11.3725388 C4.6827285,11.3794375 4.36750226,11.3012528 4.1090969,11.2115705 C3.10754038,10.8666383 2.5247137,10.2319631 2.14559343,9.27995032 C2.44903111,9.31214399 3.32303535,9.39032861 3.52744908,9.22246162 C3.14549956,9.20176569 2.77816786,8.9856082 2.51551862,8.82463985 C1.71012382,8.33253662 1.05302918,7.50929851 1.05798038,6.23994812 C1.16360592,6.28823862 1.26946724,6.33882868 1.37509279,6.38711918 C1.57738457,6.4699029 1.78321293,6.51359431 2.02464275,6.56418436 C2.12673173,6.58258074 2.33043814,6.64236899 2.44761648,6.60097713 L2.43252711,6.60097713 C2.27668228,6.42391195 2.02275658,6.30433546 1.86596866,6.11577254 C1.34915795,5.48799599 0.864883675,4.52448546 1.17138638,3.37701111 C1.24895514,3.08496854 1.37226353,2.82741918 1.50358815,2.59056576 C1.50853935,2.59286531 1.51372632,2.59516485 1.51867752,2.5974644 C1.5787992,2.71934043 1.71295308,2.81132235 1.79806652,2.91250245 C2.06213039,3.23213959 2.38773057,3.51958307 2.7194608,3.77253333 C3.84998423,4.63486375 4.86804475,5.16375975 6.50311878,5.55698242 C6.91784052,5.65586298 7.39739936,5.73174806 7.89275488,5.7340476 C7.75364981,5.33852538 7.79821059,4.69925109 7.90784425,4.31522661 C8.18346091,3.35401563 8.78184849,2.65955219 9.65986085,2.289325 C9.86993309,2.19964263 10.1028751,2.13525529 10.3471342,2.08236569 C10.4730361,2.06856841 10.598938,2.05477112 10.7248399,2.03867428" id="Twitter-Gray"></path>
            </g>
        </g>
    </g>
</svg>