<?xml version="1.0" encoding="UTF-8" standalone="no"?>
<svg width="16px" height="16px" viewBox="0 0 16 16" version="1.1" xmlns="http://www.w3.org/2000/svg" xmlns:xlink="http://www.w3.org/1999/xlink">
    <!-- Generator: Sketch 41.2 (35397) - http://www.bohemiancoding.com/sketch -->
    <title>twitter-circle</title>
    <desc>Created with Sketch.</desc>
    <defs></defs>
    <g id="Icons" stroke="none" stroke-width="1" fill="none" fill-rule="evenodd">
        <g id="Icon-Set-Example" transform="translate(-24.000000, -72.000000)" fill="#000000">
            <g id="twitter-circle" transform="translate(24.000000, 72.000000)">
                <path d="M8.02319336,14.0287374 C11.336902,14.0287374 14.0231934,11.3424461 14.0231934,8.0287374 C14.0231934,4.71502874 11.336902,2.0287374 8.02319336,2.0287374 C4.7094847,2.0287374 2.02319336,4.71502874 2.02319336,8.0287374 C2.02319336,11.3424461 4.7094847,14.0287374 8.02319336,14.0287374 Z M8.85663419,5.6853534 C8.33278171,5.8760189 8.00170694,6.36751217 8.03942432,6.90561255 L8.05199678,7.11322609 L7.84245578,7.08780403 C7.07972657,6.99035277 6.4133862,6.65986592 5.84762552,6.10481749 L5.57103141,5.82941178 L5.49978747,6.0327883 C5.34891796,6.48614847 5.44530681,6.96493071 5.7596183,7.28694354 C5.9272511,7.464898 5.88953372,7.49032007 5.60036715,7.38439479 C5.49978747,7.3504987 5.41178025,7.32507664 5.40339861,7.33778767 C5.37406287,7.36744675 5.47464255,7.75301474 5.55426813,7.90554714 C5.66322945,8.11739768 5.8853429,8.32501122 6.12841045,8.44788454 L6.33376063,8.54533579 L6.09069307,8.5495728 C5.85600716,8.5495728 5.84762552,8.55380981 5.87277044,8.64278704 C5.95658684,8.91819275 6.28766161,9.21054651 6.65645376,9.33765684 L6.91628459,9.42663407 L6.68998032,9.56221842 C6.35471473,9.75712092 5.96077766,9.8672832 5.56684059,9.87575723 C5.37825369,9.87999424 5.22319336,9.89694228 5.22319336,9.90965331 C5.22319336,9.95202342 5.73447338,10.189296 6.0320216,10.2825103 C6.92466623,10.557916 7.98494366,10.4392797 8.78119944,9.96897147 C9.34696012,9.6342476 9.9127208,8.96903688 10.1767425,8.32501122 C10.3192303,7.98181333 10.4617182,7.35473571 10.4617182,7.05390794 C10.4617182,6.85900543 10.4742907,6.83358337 10.7089766,6.60054777 C10.8472736,6.46496342 10.9771891,6.31666803 11.002334,6.27429792 C11.0442422,6.19379472 11.0400514,6.19379472 10.8263195,6.2658239 C10.4700998,6.39293423 10.41981,6.37598619 10.5958244,6.18532069 C10.7257399,6.04973634 10.8808002,5.80398971 10.8808002,5.73196052 C10.8808002,5.71924949 10.8179379,5.74043455 10.746694,5.77856764 C10.6712592,5.82093775 10.5036264,5.88449292 10.3779018,5.92262602 L10.1515975,5.9946552 L9.94624736,5.85483384 C9.83309523,5.77856764 9.67384407,5.69382742 9.59002767,5.66840536 C9.37629586,5.60908721 9.04941191,5.61756123 8.85663419,5.6853534 Z"></path>
            </g>
        </g>
    </g>
</svg>