<?xml version="1.0" encoding="UTF-8" standalone="no"?>
<svg width="16px" height="16px" viewBox="0 0 16 16" version="1.1" xmlns="http://www.w3.org/2000/svg" xmlns:xlink="http://www.w3.org/1999/xlink">
    <!-- Generator: Sketch 41.2 (35397) - http://www.bohemiancoding.com/sketch -->
    <title>user-add</title>
    <desc>Created with Sketch.</desc>
    <defs></defs>
    <g id="Icons" stroke="none" stroke-width="1" fill="none" fill-rule="evenodd">
        <g id="Icon-Set-Example" transform="translate(-168.000000, -144.000000)" fill="#000000">
            <g id="user-add" transform="translate(168.000000, 144.000000)">
                <path d="M11.4978614,14.894266 C13.2713831,14.894266 14.7091064,13.4565427 14.7091064,11.683021 C14.7091064,9.90949937 13.2713831,8.47177601 11.4978614,8.47177601 C9.72433979,8.47177601 8.28661643,9.90949937 8.28661643,11.683021 C8.28661643,13.4565427 9.72433979,14.894266 11.4978614,14.894266 Z M11.667336,10.0271059 C11.667336,9.90745609 11.5696747,9.80979476 11.4492062,9.80979476 C11.3278021,9.80979476 11.2310764,9.90710522 11.2310764,10.0271059 L11.2310764,11.416236 L9.84194628,11.416236 C9.72217956,11.416236 9.62463518,11.5138973 9.62463518,11.6343658 C9.62463518,11.7557699 9.72194564,11.8524956 9.84194628,11.8524956 L11.2310764,11.8524956 L11.2310764,13.2416257 C11.2310764,13.3613924 11.3287377,13.4589368 11.4492062,13.4589368 C11.5704934,13.4589368 11.667336,13.3616264 11.667336,13.2416257 L11.667336,11.8524956 L13.0564661,11.8524956 C13.1761159,11.8524956 13.2737772,11.7548343 13.2737772,11.6343658 C13.2737772,11.5130786 13.1764668,11.416236 13.0564661,11.416236 L11.667336,11.416236 L11.667336,10.0271059 Z M7.55750826,11.7591315 L7.04929899,11.7591315 L1.8397988,11.7591315 L1.8397988,10.606424 C1.8397988,10.2633009 2.73020094,9.76023216 4.10072188,9.26673763 C5.46687811,8.77465105 5.90334974,8.3597214 5.90334974,7.47129043 C5.90334974,6.93795024 5.48644893,7.11197571 5.30313084,6.13526482 C5.22710029,5.73019098 4.85863376,6.12878814 4.78823511,5.20374988 C4.78823511,4.83500174 4.98929366,4.74348349 4.98929366,4.74348349 C4.98929366,4.74348349 4.88707482,4.19789395 4.84708838,3.77803639 C4.79738693,3.25497441 5.15304092,1.90332031 7.04915819,1.90332031 C8.94527545,1.90332031 9.30078864,3.25497441 9.25122799,3.77803639 C9.21124155,4.19789395 9.10902272,4.74348349 9.10902272,4.74348349 C9.10902272,4.74348349 9.31008127,4.83500174 9.31008127,5.20374988 C9.23954182,6.12878814 8.87121608,5.73019098 8.79518554,6.13526482 C8.61200824,7.11211651 8.19482584,6.93795024 8.19482584,7.47129043 C8.19482584,8.04360042 8.3760073,8.41942607 8.87000017,8.74589648 C8.0640011,9.46752062 7.55678802,10.5160378 7.55678802,11.683021 C7.55678802,11.7084481 7.55702882,11.733819 7.55750826,11.7591315 Z" id="Combined-Shape"></path>
            </g>
        </g>
    </g>
</svg>